<svg width="1260" height="112" viewBox="0 0 1260 112" fill="none" xmlns="http://www.w3.org/2000/svg">
<rect width="1260" height="112" rx="12" fill="#181A20"/>
<rect x="1096" y="36" width="180" height="40" rx="8" fill="#A06AFF"/>
<path d="M1139.88 61V50.425H1149.08V61H1147.16V52.03H1141.8V61H1139.88ZM1154.65 61.15C1153.89 61.15 1153.23 60.995 1152.67 60.685C1152.11 60.375 1151.68 59.935 1151.37 59.365C1151.06 58.785 1150.9 58.105 1150.9 57.325C1150.9 56.545 1151.06 55.87 1151.37 55.3C1151.68 54.73 1152.11 54.29 1152.67 53.98C1153.23 53.67 1153.89 53.515 1154.65 53.515C1155.41 53.515 1156.07 53.67 1156.63 53.98C1157.19 54.29 1157.63 54.73 1157.94 55.3C1158.25 55.87 1158.4 56.545 1158.4 57.325C1158.4 58.105 1158.25 58.785 1157.94 59.365C1157.63 59.935 1157.19 60.375 1156.63 60.685C1156.07 60.995 1155.41 61.15 1154.65 61.15ZM1154.65 59.725C1155.21 59.725 1155.66 59.525 1156 59.125C1156.34 58.715 1156.51 58.115 1156.51 57.325C1156.51 56.525 1156.34 55.93 1156 55.54C1155.66 55.14 1155.21 54.94 1154.65 54.94C1154.09 54.94 1153.64 55.14 1153.3 55.54C1152.96 55.93 1152.79 56.525 1152.79 57.325C1152.79 58.115 1152.96 58.715 1153.3 59.125C1153.64 59.525 1154.09 59.725 1154.65 59.725ZM1159.47 62.95V59.53H1160.31C1160.51 59.22 1160.66 58.89 1160.77 58.54C1160.89 58.18 1160.98 57.775 1161.03 57.325C1161.09 56.865 1161.12 56.34 1161.12 55.75V53.665H1166.83V59.53H1168.03V62.95H1166.44V61H1161.06V62.95H1159.47ZM1162 59.53H1165.08V55.105H1162.72V56.185C1162.72 56.815 1162.66 57.425 1162.53 58.015C1162.41 58.605 1162.23 59.11 1162 59.53ZM1169.41 61V53.665H1176.36V61H1174.48V55.135H1171.29V61H1169.41ZM1178.5 61V53.665H1180.19V59.08H1179.8L1183.87 53.665H1185.43V61H1183.73V55.57H1184.14L1180.06 61H1178.5ZM1190.95 61.15C1190.18 61.15 1189.51 60.995 1188.94 60.685C1188.37 60.365 1187.93 59.915 1187.62 59.335C1187.31 58.755 1187.16 58.075 1187.16 57.295C1187.16 56.515 1187.31 55.845 1187.62 55.285C1187.93 54.715 1188.37 54.28 1188.94 53.98C1189.51 53.67 1190.18 53.515 1190.95 53.515C1191.42 53.515 1191.89 53.59 1192.35 53.74C1192.81 53.89 1193.19 54.1 1193.49 54.37L1192.93 55.675C1192.67 55.445 1192.38 55.27 1192.05 55.15C1191.73 55.03 1191.42 54.97 1191.12 54.97C1190.47 54.97 1189.96 55.175 1189.6 55.585C1189.25 55.985 1189.08 56.56 1189.08 57.31C1189.08 58.05 1189.25 58.635 1189.6 59.065C1189.96 59.485 1190.47 59.695 1191.12 59.695C1191.41 59.695 1191.72 59.635 1192.05 59.515C1192.38 59.395 1192.67 59.215 1192.93 58.975L1193.49 60.295C1193.19 60.555 1192.8 60.765 1192.33 60.925C1191.87 61.075 1191.41 61.15 1190.95 61.15ZM1197.27 61.15C1196.74 61.15 1196.27 61.05 1195.85 60.85C1195.44 60.64 1195.11 60.36 1194.87 60.01C1194.64 59.66 1194.53 59.265 1194.53 58.825C1194.53 58.285 1194.67 57.86 1194.95 57.55C1195.23 57.23 1195.68 57 1196.31 56.86C1196.94 56.72 1197.79 56.65 1198.85 56.65H1199.6V57.73H1198.86C1198.39 57.73 1198 57.75 1197.68 57.79C1197.36 57.82 1197.1 57.875 1196.9 57.955C1196.71 58.025 1196.57 58.125 1196.48 58.255C1196.4 58.385 1196.36 58.545 1196.36 58.735C1196.36 59.065 1196.47 59.335 1196.7 59.545C1196.93 59.755 1197.25 59.86 1197.66 59.86C1197.99 59.86 1198.28 59.785 1198.53 59.635C1198.79 59.475 1199 59.26 1199.15 58.99C1199.3 58.72 1199.37 58.41 1199.37 58.06V56.335C1199.37 55.835 1199.26 55.475 1199.04 55.255C1198.82 55.035 1198.45 54.925 1197.93 54.925C1197.52 54.925 1197.1 54.99 1196.67 55.12C1196.24 55.24 1195.81 55.43 1195.37 55.69L1194.83 54.415C1195.09 54.235 1195.39 54.08 1195.74 53.95C1196.1 53.81 1196.48 53.705 1196.87 53.635C1197.27 53.555 1197.64 53.515 1197.99 53.515C1198.71 53.515 1199.3 53.625 1199.76 53.845C1200.23 54.065 1200.58 54.4 1200.81 54.85C1201.04 55.29 1201.16 55.86 1201.16 56.56V61H1199.4V59.44H1199.52C1199.45 59.79 1199.31 60.095 1199.1 60.355C1198.9 60.605 1198.65 60.8 1198.34 60.94C1198.03 61.08 1197.67 61.15 1197.27 61.15ZM1204.8 61V55.135H1202.29V53.665H1209.19V55.135H1206.67V61H1204.8ZM1210.34 61V53.665H1212.22V56.095H1214.15C1215.12 56.095 1215.85 56.3 1216.34 56.71C1216.84 57.12 1217.09 57.72 1217.09 58.51C1217.09 59.01 1216.97 59.45 1216.73 59.83C1216.49 60.2 1216.15 60.49 1215.71 60.7C1215.28 60.9 1214.76 61 1214.15 61H1210.34ZM1212.22 59.77H1213.87C1214.34 59.77 1214.7 59.67 1214.96 59.47C1215.22 59.26 1215.35 58.945 1215.35 58.525C1215.35 58.115 1215.22 57.815 1214.96 57.625C1214.7 57.425 1214.34 57.325 1213.87 57.325H1212.22V59.77ZM1222.04 61.15C1221.27 61.15 1220.6 60.995 1220.03 60.685C1219.46 60.365 1219.02 59.915 1218.71 59.335C1218.4 58.755 1218.24 58.075 1218.24 57.295C1218.24 56.515 1218.4 55.845 1218.71 55.285C1219.02 54.715 1219.46 54.28 1220.03 53.98C1220.6 53.67 1221.27 53.515 1222.04 53.515C1222.51 53.515 1222.97 53.59 1223.43 53.74C1223.89 53.89 1224.27 54.1 1224.57 54.37L1224.02 55.675C1223.76 55.445 1223.46 55.27 1223.13 55.15C1222.81 55.03 1222.5 54.97 1222.2 54.97C1221.55 54.97 1221.05 55.175 1220.69 55.585C1220.34 55.985 1220.16 56.56 1220.16 57.31C1220.16 58.05 1220.34 58.635 1220.69 59.065C1221.05 59.485 1221.55 59.695 1222.2 59.695C1222.49 59.695 1222.8 59.635 1223.13 59.515C1223.46 59.395 1223.76 59.215 1224.02 58.975L1224.57 60.295C1224.27 60.555 1223.89 60.765 1223.42 60.925C1222.96 61.075 1222.5 61.15 1222.04 61.15ZM1225.3 61L1226.39 59.11C1226.58 58.77 1226.82 58.5 1227.11 58.3C1227.4 58.09 1227.7 57.985 1228.01 57.985H1228.31V58.15C1227.74 58.15 1227.26 58.065 1226.86 57.895C1226.46 57.725 1226.15 57.475 1225.94 57.145C1225.74 56.815 1225.64 56.415 1225.64 55.945C1225.64 55.235 1225.88 54.68 1226.36 54.28C1226.84 53.87 1227.55 53.665 1228.48 53.665H1232.21V61H1230.47V58.465H1229.69C1229.39 58.465 1229.13 58.545 1228.91 58.705C1228.69 58.865 1228.51 59.065 1228.37 59.305L1227.41 61H1225.3ZM1228.87 57.235H1230.47V54.895H1228.87C1228.38 54.895 1228.01 55 1227.77 55.21C1227.53 55.41 1227.41 55.69 1227.41 56.05C1227.41 56.42 1227.53 56.71 1227.77 56.92C1228.01 57.13 1228.38 57.235 1228.87 57.235Z" fill="white"/>
<path d="M107.895 47.15C107.125 47.15 106.425 47.025 105.795 46.775C105.175 46.515 104.64 46.145 104.19 45.665C103.75 45.185 103.41 44.61 103.17 43.94C102.93 43.27 102.81 42.525 102.81 41.705C102.81 40.875 102.93 40.13 103.17 39.47C103.41 38.8 103.75 38.23 104.19 37.76C104.64 37.28 105.175 36.915 105.795 36.665C106.425 36.405 107.125 36.275 107.895 36.275C108.665 36.275 109.36 36.405 109.98 36.665C110.61 36.915 111.145 37.275 111.585 37.745C112.035 38.215 112.38 38.785 112.62 39.455C112.86 40.115 112.98 40.86 112.98 41.69C112.98 42.52 112.86 43.27 112.62 43.94C112.38 44.61 112.035 45.185 111.585 45.665C111.145 46.145 110.61 46.515 109.98 46.775C109.36 47.025 108.665 47.15 107.895 47.15ZM107.895 45.5C108.545 45.5 109.095 45.35 109.545 45.05C110.005 44.75 110.355 44.315 110.595 43.745C110.845 43.175 110.97 42.495 110.97 41.705C110.97 40.905 110.85 40.225 110.61 39.665C110.37 39.095 110.02 38.665 109.56 38.375C109.1 38.075 108.545 37.925 107.895 37.925C107.255 37.925 106.705 38.075 106.245 38.375C105.785 38.665 105.43 39.095 105.18 39.665C104.94 40.225 104.82 40.905 104.82 41.705C104.82 42.495 104.94 43.175 105.18 43.745C105.43 44.315 105.785 44.75 106.245 45.05C106.705 45.35 107.255 45.5 107.895 45.5ZM116.387 47V41.135H113.882V39.665H120.782V41.135H118.262V47H116.387ZM125.264 47.15C124.494 47.15 123.824 46.995 123.254 46.685C122.684 46.365 122.244 45.915 121.934 45.335C121.624 44.755 121.469 44.075 121.469 43.295C121.469 42.515 121.624 41.845 121.934 41.285C122.244 40.715 122.684 40.28 123.254 39.98C123.824 39.67 124.494 39.515 125.264 39.515C125.734 39.515 126.199 39.59 126.659 39.74C127.119 39.89 127.499 40.1 127.799 40.37L127.244 41.675C126.984 41.445 126.689 41.27 126.359 41.15C126.039 41.03 125.729 40.97 125.429 40.97C124.779 40.97 124.274 41.175 123.914 41.585C123.564 41.985 123.389 42.56 123.389 43.31C123.389 44.05 123.564 44.635 123.914 45.065C124.274 45.485 124.779 45.695 125.429 45.695C125.719 45.695 126.029 45.635 126.359 45.515C126.689 45.395 126.984 45.215 127.244 44.975L127.799 46.295C127.499 46.555 127.114 46.765 126.644 46.925C126.184 47.075 125.724 47.15 125.264 47.15ZM128.959 47.21L128.374 45.725C128.694 45.615 128.959 45.47 129.169 45.29C129.389 45.1 129.564 44.86 129.694 44.57C129.824 44.27 129.919 43.905 129.979 43.475C130.039 43.045 130.069 42.53 130.069 41.93V39.665H135.979V47H134.104V41.135H131.794V41.99C131.794 42.78 131.739 43.475 131.629 44.075C131.519 44.675 131.349 45.185 131.119 45.605C130.899 46.025 130.609 46.37 130.249 46.64C129.889 46.9 129.459 47.09 128.959 47.21ZM141.734 47.15C140.904 47.15 140.189 46.995 139.589 46.685C138.989 46.375 138.524 45.935 138.194 45.365C137.874 44.795 137.714 44.12 137.714 43.34C137.714 42.58 137.869 41.915 138.179 41.345C138.499 40.775 138.934 40.33 139.484 40.01C140.044 39.68 140.679 39.515 141.389 39.515C142.089 39.515 142.689 39.665 143.189 39.965C143.689 40.265 144.074 40.69 144.344 41.24C144.624 41.79 144.764 42.445 144.764 43.205V43.76H139.229V42.68H143.444L143.204 42.905C143.204 42.225 143.054 41.705 142.754 41.345C142.454 40.975 142.024 40.79 141.464 40.79C141.044 40.79 140.684 40.89 140.384 41.09C140.094 41.28 139.869 41.555 139.709 41.915C139.559 42.265 139.484 42.685 139.484 43.175V43.28C139.484 43.83 139.569 44.285 139.739 44.645C139.909 45.005 140.164 45.275 140.504 45.455C140.844 45.635 141.264 45.725 141.764 45.725C142.174 45.725 142.584 45.665 142.994 45.545C143.404 45.415 143.779 45.215 144.119 44.945L144.644 46.205C144.294 46.495 143.854 46.725 143.324 46.895C142.794 47.065 142.264 47.15 141.734 47.15ZM145.284 47L146.829 44.27C147.009 43.95 147.189 43.685 147.369 43.475C147.559 43.255 147.759 43.085 147.969 42.965C148.189 42.845 148.434 42.77 148.704 42.74L148.359 43.34L145.614 39.665H147.624L149.754 42.515H150.639V39.665H152.514V42.515H153.399L155.514 39.665H157.524L154.794 43.34L154.434 42.74C154.704 42.77 154.944 42.845 155.154 42.965C155.374 43.085 155.579 43.255 155.769 43.475C155.959 43.685 156.144 43.95 156.324 44.27L157.854 47H155.859L154.629 44.84C154.499 44.61 154.369 44.435 154.239 44.315C154.119 44.185 153.979 44.095 153.819 44.045C153.669 43.995 153.484 43.97 153.264 43.97H152.514V47H150.639V43.97H149.889C149.669 43.97 149.479 43.995 149.319 44.045C149.169 44.095 149.029 44.185 148.899 44.315C148.779 44.435 148.654 44.61 148.524 44.84L147.294 47H145.284ZM158.832 47V39.665H160.527V45.08H160.137L164.202 39.665H165.762V47H164.067V41.57H164.472L160.392 47H158.832ZM167.884 47V39.665H171.844C172.474 39.665 172.984 39.74 173.374 39.89C173.774 40.04 174.064 40.26 174.244 40.55C174.424 40.83 174.514 41.175 174.514 41.585C174.514 42.045 174.354 42.435 174.034 42.755C173.724 43.065 173.309 43.255 172.789 43.325V43.115C173.229 43.135 173.594 43.225 173.884 43.385C174.174 43.545 174.394 43.76 174.544 44.03C174.694 44.29 174.769 44.595 174.769 44.945C174.769 45.575 174.529 46.075 174.049 46.445C173.569 46.815 172.874 47 171.964 47H167.884ZM169.624 45.845H171.799C172.209 45.845 172.519 45.76 172.729 45.59C172.949 45.42 173.059 45.17 173.059 44.84C173.059 44.51 172.949 44.26 172.729 44.09C172.519 43.92 172.209 43.835 171.799 43.835H169.624V45.845ZM169.624 42.68H171.664C172.024 42.68 172.304 42.6 172.504 42.44C172.704 42.27 172.804 42.035 172.804 41.735C172.804 41.435 172.704 41.21 172.504 41.06C172.304 40.9 172.024 40.82 171.664 40.82H169.624V42.68ZM178.84 47.15C178.31 47.15 177.835 47.05 177.415 46.85C177.005 46.64 176.68 46.36 176.44 46.01C176.21 45.66 176.095 45.265 176.095 44.825C176.095 44.285 176.235 43.86 176.515 43.55C176.795 43.23 177.25 43 177.88 42.86C178.51 42.72 179.355 42.65 180.415 42.65H181.165V43.73H180.43C179.96 43.73 179.565 43.75 179.245 43.79C178.925 43.82 178.665 43.875 178.465 43.955C178.275 44.025 178.135 44.125 178.045 44.255C177.965 44.385 177.925 44.545 177.925 44.735C177.925 45.065 178.04 45.335 178.27 45.545C178.5 45.755 178.82 45.86 179.23 45.86C179.56 45.86 179.85 45.785 180.1 45.635C180.36 45.475 180.565 45.26 180.715 44.99C180.865 44.72 180.94 44.41 180.94 44.06V42.335C180.94 41.835 180.83 41.475 180.61 41.255C180.39 41.035 180.02 40.925 179.5 40.925C179.09 40.925 178.67 40.99 178.24 41.12C177.81 41.24 177.375 41.43 176.935 41.69L176.395 40.415C176.655 40.235 176.96 40.08 177.31 39.95C177.67 39.81 178.045 39.705 178.435 39.635C178.835 39.555 179.21 39.515 179.56 39.515C180.28 39.515 180.87 39.625 181.33 39.845C181.8 40.065 182.15 40.4 182.38 40.85C182.61 41.29 182.725 41.86 182.725 42.56V47H180.97V45.44H181.09C181.02 45.79 180.88 46.095 180.67 46.355C180.47 46.605 180.215 46.8 179.905 46.94C179.595 47.08 179.24 47.15 178.84 47.15ZM184.818 47V39.665H186.513V45.08H186.123L190.188 39.665H191.748V47H190.053V41.57H190.458L186.378 47H184.818ZM188.268 38.735C187.778 38.735 187.348 38.65 186.978 38.48C186.608 38.31 186.298 38.07 186.048 37.76C185.808 37.44 185.638 37.07 185.538 36.65L186.498 36.32C186.668 36.8 186.893 37.15 187.173 37.37C187.463 37.59 187.833 37.7 188.283 37.7C188.743 37.7 189.113 37.59 189.393 37.37C189.673 37.14 189.908 36.795 190.098 36.335L191.013 36.65C190.873 37.11 190.673 37.495 190.413 37.805C190.153 38.115 189.843 38.35 189.483 38.51C189.123 38.66 188.718 38.735 188.268 38.735ZM195.416 47V41.135H192.911V39.665H199.811V41.135H197.291V47H195.416ZM204.517 47.15C203.687 47.15 202.972 46.995 202.372 46.685C201.772 46.375 201.307 45.935 200.977 45.365C200.657 44.795 200.497 44.12 200.497 43.34C200.497 42.58 200.652 41.915 200.962 41.345C201.282 40.775 201.717 40.33 202.267 40.01C202.827 39.68 203.462 39.515 204.172 39.515C204.872 39.515 205.472 39.665 205.972 39.965C206.472 40.265 206.857 40.69 207.127 41.24C207.407 41.79 207.547 42.445 207.547 43.205V43.76H202.012V42.68H206.227L205.987 42.905C205.987 42.225 205.837 41.705 205.537 41.345C205.237 40.975 204.807 40.79 204.247 40.79C203.827 40.79 203.467 40.89 203.167 41.09C202.877 41.28 202.652 41.555 202.492 41.915C202.342 42.265 202.267 42.685 202.267 43.175V43.28C202.267 43.83 202.352 44.285 202.522 44.645C202.692 45.005 202.947 45.275 203.287 45.455C203.627 45.635 204.047 45.725 204.547 45.725C204.957 45.725 205.367 45.665 205.777 45.545C206.187 45.415 206.562 45.215 206.902 44.945L207.427 46.205C207.077 46.495 206.637 46.725 206.107 46.895C205.577 47.065 205.047 47.15 204.517 47.15ZM213.265 47V39.665H217.225C217.855 39.665 218.365 39.74 218.755 39.89C219.155 40.04 219.445 40.26 219.625 40.55C219.805 40.83 219.895 41.175 219.895 41.585C219.895 42.045 219.735 42.435 219.415 42.755C219.105 43.065 218.69 43.255 218.17 43.325V43.115C218.61 43.135 218.975 43.225 219.265 43.385C219.555 43.545 219.775 43.76 219.925 44.03C220.075 44.29 220.15 44.595 220.15 44.945C220.15 45.575 219.91 46.075 219.43 46.445C218.95 46.815 218.255 47 217.345 47H213.265ZM215.005 45.845H217.18C217.59 45.845 217.9 45.76 218.11 45.59C218.33 45.42 218.44 45.17 218.44 44.84C218.44 44.51 218.33 44.26 218.11 44.09C217.9 43.92 217.59 43.835 217.18 43.835H215.005V45.845ZM215.005 42.68H217.045C217.405 42.68 217.685 42.6 217.885 42.44C218.085 42.27 218.185 42.035 218.185 41.735C218.185 41.435 218.085 41.21 217.885 41.06C217.685 40.9 217.405 40.82 217.045 40.82H215.005V42.68ZM225.196 47.15C224.426 47.15 223.756 46.995 223.186 46.685C222.616 46.365 222.176 45.915 221.866 45.335C221.556 44.755 221.401 44.075 221.401 43.295C221.401 42.515 221.556 41.845 221.866 41.285C222.176 40.715 222.616 40.28 223.186 39.98C223.756 39.67 224.426 39.515 225.196 39.515C225.666 39.515 226.131 39.59 226.591 39.74C227.051 39.89 227.431 40.1 227.731 40.37L227.176 41.675C226.916 41.445 226.621 41.27 226.291 41.15C225.971 41.03 225.661 40.97 225.361 40.97C224.711 40.97 224.206 41.175 223.846 41.585C223.496 41.985 223.321 42.56 223.321 43.31C223.321 44.05 223.496 44.635 223.846 45.065C224.206 45.485 224.711 45.695 225.361 45.695C225.651 45.695 225.961 45.635 226.291 45.515C226.621 45.395 226.916 45.215 227.176 44.975L227.731 46.295C227.431 46.555 227.046 46.765 226.576 46.925C226.116 47.075 225.656 47.15 225.196 47.15ZM235.836 47.15C235.156 47.15 234.556 47.025 234.036 46.775C233.516 46.515 233.096 46.145 232.776 45.665C232.456 45.185 232.251 44.62 232.161 43.97H230.916V47H229.086V39.665H230.916V42.5H232.176C232.336 41.57 232.736 40.84 233.376 40.31C234.026 39.78 234.846 39.515 235.836 39.515C236.596 39.515 237.256 39.67 237.816 39.98C238.376 40.29 238.811 40.73 239.121 41.3C239.431 41.87 239.586 42.545 239.586 43.325C239.586 44.105 239.431 44.785 239.121 45.365C238.811 45.935 238.376 46.375 237.816 46.685C237.256 46.995 236.596 47.15 235.836 47.15ZM235.836 45.725C236.396 45.725 236.846 45.525 237.186 45.125C237.526 44.715 237.696 44.115 237.696 43.325C237.696 42.525 237.526 41.93 237.186 41.54C236.846 41.14 236.396 40.94 235.836 40.94C235.286 40.94 234.836 41.14 234.486 41.54C234.146 41.93 233.976 42.525 233.976 43.325C233.976 44.115 234.146 44.715 234.486 45.125C234.836 45.525 235.286 45.725 235.836 45.725ZM245.375 47V39.665H247.07V45.08H246.68L250.745 39.665H252.305V47H250.61V41.57H251.015L246.935 47H245.375ZM254.427 47V39.665H256.302V42.5H259.542V39.665H261.417V47H259.542V43.97H256.302V47H254.427ZM267.843 49.7V45.605H267.993C267.833 46.095 267.573 46.475 267.213 46.745C266.853 47.015 266.418 47.15 265.908 47.15C265.368 47.15 264.893 46.995 264.483 46.685C264.073 46.365 263.748 45.92 263.508 45.35C263.278 44.77 263.163 44.095 263.163 43.325C263.163 42.545 263.278 41.87 263.508 41.3C263.748 40.73 264.073 40.29 264.483 39.98C264.893 39.67 265.368 39.515 265.908 39.515C266.428 39.515 266.868 39.65 267.228 39.92C267.588 40.19 267.843 40.57 267.993 41.06H267.843V36.425H269.718V41.06H269.553C269.703 40.57 269.958 40.19 270.318 39.92C270.688 39.65 271.128 39.515 271.638 39.515C272.178 39.515 272.653 39.67 273.063 39.98C273.483 40.29 273.808 40.73 274.038 41.3C274.268 41.87 274.383 42.545 274.383 43.325C274.383 44.095 274.268 44.77 274.038 45.35C273.808 45.92 273.488 46.365 273.078 46.685C272.668 46.995 272.188 47.15 271.638 47.15C271.138 47.15 270.708 47.015 270.348 46.745C269.988 46.475 269.723 46.095 269.553 45.605H269.718V49.7H267.843ZM266.463 45.74C266.753 45.74 267.003 45.655 267.213 45.485C267.423 45.305 267.583 45.035 267.693 44.675C267.813 44.315 267.873 43.865 267.873 43.325C267.873 42.785 267.813 42.34 267.693 41.99C267.573 41.63 267.408 41.365 267.198 41.195C266.988 41.015 266.743 40.925 266.463 40.925C266.033 40.925 265.688 41.125 265.428 41.525C265.168 41.915 265.038 42.515 265.038 43.325C265.038 44.145 265.168 44.755 265.428 45.155C265.688 45.545 266.033 45.74 266.463 45.74ZM271.083 45.74C271.523 45.74 271.868 45.545 272.118 45.155C272.378 44.755 272.508 44.145 272.508 43.325C272.508 42.515 272.378 41.915 272.118 41.525C271.858 41.125 271.513 40.925 271.083 40.925C270.803 40.925 270.558 41.015 270.348 41.195C270.138 41.365 269.973 41.63 269.853 41.99C269.743 42.34 269.688 42.785 269.688 43.325C269.688 43.865 269.743 44.315 269.853 44.675C269.973 45.035 270.138 45.305 270.348 45.485C270.558 45.655 270.803 45.74 271.083 45.74ZM279.482 47.15C278.722 47.15 278.062 46.995 277.502 46.685C276.942 46.375 276.507 45.935 276.197 45.365C275.887 44.785 275.732 44.105 275.732 43.325C275.732 42.545 275.887 41.87 276.197 41.3C276.507 40.73 276.942 40.29 277.502 39.98C278.062 39.67 278.722 39.515 279.482 39.515C280.242 39.515 280.902 39.67 281.462 39.98C282.022 40.29 282.457 40.73 282.767 41.3C283.077 41.87 283.232 42.545 283.232 43.325C283.232 44.105 283.077 44.785 282.767 45.365C282.457 45.935 282.022 46.375 281.462 46.685C280.902 46.995 280.242 47.15 279.482 47.15ZM279.482 45.725C280.042 45.725 280.492 45.525 280.832 45.125C281.172 44.715 281.342 44.115 281.342 43.325C281.342 42.525 281.172 41.93 280.832 41.54C280.492 41.14 280.042 40.94 279.482 40.94C278.922 40.94 278.472 41.14 278.132 41.54C277.792 41.93 277.622 42.525 277.622 43.325C277.622 44.115 277.792 44.715 278.132 45.125C278.472 45.525 278.922 45.725 279.482 45.725ZM284.984 49.7V39.665H286.814V41.21H286.664C286.814 40.7 287.119 40.29 287.579 39.98C288.049 39.67 288.594 39.515 289.214 39.515C289.854 39.515 290.414 39.67 290.894 39.98C291.384 40.29 291.764 40.73 292.034 41.3C292.304 41.86 292.439 42.535 292.439 43.325C292.439 44.105 292.304 44.785 292.034 45.365C291.764 45.935 291.389 46.375 290.909 46.685C290.429 46.995 289.864 47.15 289.214 47.15C288.604 47.15 288.069 47 287.609 46.7C287.149 46.39 286.839 45.99 286.679 45.5H286.859V49.7H284.984ZM288.689 45.725C289.249 45.725 289.699 45.525 290.039 45.125C290.379 44.715 290.549 44.115 290.549 43.325C290.549 42.525 290.379 41.93 290.039 41.54C289.699 41.14 289.249 40.94 288.689 40.94C288.129 40.94 287.679 41.14 287.339 41.54C286.999 41.93 286.829 42.525 286.829 43.325C286.829 44.115 286.999 44.715 287.339 45.125C287.679 45.525 288.129 45.725 288.689 45.725ZM294.183 47V39.665H295.728L298.263 44L300.798 39.665H302.328V47H300.678V41.825H301.038L298.698 45.8H297.813L295.473 41.825H295.833V47H294.183ZM306.882 47.15C306.352 47.15 305.877 47.05 305.457 46.85C305.047 46.64 304.722 46.36 304.482 46.01C304.252 45.66 304.137 45.265 304.137 44.825C304.137 44.285 304.277 43.86 304.557 43.55C304.837 43.23 305.292 43 305.922 42.86C306.552 42.72 307.397 42.65 308.457 42.65H309.207V43.73H308.472C308.002 43.73 307.607 43.75 307.287 43.79C306.967 43.82 306.707 43.875 306.507 43.955C306.317 44.025 306.177 44.125 306.087 44.255C306.007 44.385 305.967 44.545 305.967 44.735C305.967 45.065 306.082 45.335 306.312 45.545C306.542 45.755 306.862 45.86 307.272 45.86C307.602 45.86 307.892 45.785 308.142 45.635C308.402 45.475 308.607 45.26 308.757 44.99C308.907 44.72 308.982 44.41 308.982 44.06V42.335C308.982 41.835 308.872 41.475 308.652 41.255C308.432 41.035 308.062 40.925 307.542 40.925C307.132 40.925 306.712 40.99 306.282 41.12C305.852 41.24 305.417 41.43 304.977 41.69L304.437 40.415C304.697 40.235 305.002 40.08 305.352 39.95C305.712 39.81 306.087 39.705 306.477 39.635C306.877 39.555 307.252 39.515 307.602 39.515C308.322 39.515 308.912 39.625 309.372 39.845C309.842 40.065 310.192 40.4 310.422 40.85C310.652 41.29 310.767 41.86 310.767 42.56V47H309.012V45.44H309.132C309.062 45.79 308.922 46.095 308.712 46.355C308.512 46.605 308.257 46.8 307.947 46.94C307.637 47.08 307.282 47.15 306.882 47.15ZM319.235 48.95V47H312.86V39.665H314.735V45.53H317.75V39.665H319.625V45.53H320.825V48.95H319.235ZM322.206 47V39.665H323.901V45.08H323.511L327.576 39.665H329.136V47H327.441V41.57H327.846L323.766 47H322.206ZM338.008 47.15C337.328 47.15 336.728 47.025 336.208 46.775C335.688 46.515 335.268 46.145 334.948 45.665C334.628 45.185 334.423 44.62 334.333 43.97H333.088V47H331.258V39.665H333.088V42.5H334.348C334.508 41.57 334.908 40.84 335.548 40.31C336.198 39.78 337.018 39.515 338.008 39.515C338.768 39.515 339.428 39.67 339.988 39.98C340.548 40.29 340.983 40.73 341.293 41.3C341.603 41.87 341.758 42.545 341.758 43.325C341.758 44.105 341.603 44.785 341.293 45.365C340.983 45.935 340.548 46.375 339.988 46.685C339.428 46.995 338.768 47.15 338.008 47.15ZM338.008 45.725C338.568 45.725 339.018 45.525 339.358 45.125C339.698 44.715 339.868 44.115 339.868 43.325C339.868 42.525 339.698 41.93 339.358 41.54C339.018 41.14 338.568 40.94 338.008 40.94C337.458 40.94 337.008 41.14 336.658 41.54C336.318 41.93 336.148 42.525 336.148 43.325C336.148 44.115 336.318 44.715 336.658 45.125C337.008 45.525 337.458 45.725 338.008 45.725ZM347.547 47V39.665H354.492V47H352.617V41.135H349.422V47H347.547ZM359.989 47.15C359.229 47.15 358.569 46.995 358.009 46.685C357.449 46.375 357.014 45.935 356.704 45.365C356.394 44.785 356.239 44.105 356.239 43.325C356.239 42.545 356.394 41.87 356.704 41.3C357.014 40.73 357.449 40.29 358.009 39.98C358.569 39.67 359.229 39.515 359.989 39.515C360.749 39.515 361.409 39.67 361.969 39.98C362.529 40.29 362.964 40.73 363.274 41.3C363.584 41.87 363.739 42.545 363.739 43.325C363.739 44.105 363.584 44.785 363.274 45.365C362.964 45.935 362.529 46.375 361.969 46.685C361.409 46.995 360.749 47.15 359.989 47.15ZM359.989 45.725C360.549 45.725 360.999 45.525 361.339 45.125C361.679 44.715 361.849 44.115 361.849 43.325C361.849 42.525 361.679 41.93 361.339 41.54C360.999 41.14 360.549 40.94 359.989 40.94C359.429 40.94 358.979 41.14 358.639 41.54C358.299 41.93 358.129 42.525 358.129 43.325C358.129 44.115 358.299 44.715 358.639 45.125C358.979 45.525 359.429 45.725 359.989 45.725ZM368.845 48.95V45.53H369.685C369.885 45.22 370.04 44.89 370.15 44.54C370.27 44.18 370.355 43.775 370.405 43.325C370.465 42.865 370.495 42.34 370.495 41.75V39.665H376.21V45.53H377.41V48.95H375.82V47H370.435V48.95H368.845ZM371.38 45.53H374.455V41.105H372.1V42.185C372.1 42.815 372.035 43.425 371.905 44.015C371.785 44.605 371.61 45.11 371.38 45.53ZM378.793 47V39.665H380.488V45.08H380.098L384.163 39.665H385.723V47H384.028V41.57H384.433L380.353 47H378.793ZM387.845 47V39.665H391.805C392.435 39.665 392.945 39.74 393.335 39.89C393.735 40.04 394.025 40.26 394.205 40.55C394.385 40.83 394.475 41.175 394.475 41.585C394.475 42.045 394.315 42.435 393.995 42.755C393.685 43.065 393.27 43.255 392.75 43.325V43.115C393.19 43.135 393.555 43.225 393.845 43.385C394.135 43.545 394.355 43.76 394.505 44.03C394.655 44.29 394.73 44.595 394.73 44.945C394.73 45.575 394.49 46.075 394.01 46.445C393.53 46.815 392.835 47 391.925 47H387.845ZM389.585 45.845H391.76C392.17 45.845 392.48 45.76 392.69 45.59C392.91 45.42 393.02 45.17 393.02 44.84C393.02 44.51 392.91 44.26 392.69 44.09C392.48 43.92 392.17 43.835 391.76 43.835H389.585V45.845ZM389.585 42.68H391.625C391.985 42.68 392.265 42.6 392.465 42.44C392.665 42.27 392.765 42.035 392.765 41.735C392.765 41.435 392.665 41.21 392.465 41.06C392.265 40.9 391.985 40.82 391.625 40.82H389.585V42.68ZM396.371 47V39.665H398.066V45.08H397.676L401.741 39.665H403.301V47H401.606V41.57H402.011L397.931 47H396.371ZM404.748 48.95V45.53H405.588C405.788 45.22 405.943 44.89 406.053 44.54C406.173 44.18 406.258 43.775 406.308 43.325C406.368 42.865 406.398 42.34 406.398 41.75V39.665H412.113V45.53H413.313V48.95H411.723V47H406.338V48.95H404.748ZM407.283 45.53H410.358V41.105H408.003V42.185C408.003 42.815 407.938 43.425 407.808 44.015C407.688 44.605 407.513 45.11 407.283 45.53ZM418.326 47.15C417.496 47.15 416.781 46.995 416.181 46.685C415.581 46.375 415.116 45.935 414.786 45.365C414.466 44.795 414.306 44.12 414.306 43.34C414.306 42.58 414.461 41.915 414.771 41.345C415.091 40.775 415.526 40.33 416.076 40.01C416.636 39.68 417.271 39.515 417.981 39.515C418.681 39.515 419.281 39.665 419.781 39.965C420.281 40.265 420.666 40.69 420.936 41.24C421.216 41.79 421.356 42.445 421.356 43.205V43.76H415.821V42.68H420.036L419.796 42.905C419.796 42.225 419.646 41.705 419.346 41.345C419.046 40.975 418.616 40.79 418.056 40.79C417.636 40.79 417.276 40.89 416.976 41.09C416.686 41.28 416.461 41.555 416.301 41.915C416.151 42.265 416.076 42.685 416.076 43.175V43.28C416.076 43.83 416.161 44.285 416.331 44.645C416.501 45.005 416.756 45.275 417.096 45.455C417.436 45.635 417.856 45.725 418.356 45.725C418.766 45.725 419.176 45.665 419.586 45.545C419.996 45.415 420.371 45.215 420.711 44.945L421.236 46.205C420.886 46.495 420.446 46.725 419.916 46.895C419.386 47.065 418.856 47.15 418.326 47.15ZM423.031 47V39.665H424.906V42.5H428.146V39.665H430.021V47H428.146V43.97H424.906V47H423.031ZM431.482 48.95V45.53H432.322C432.522 45.22 432.677 44.89 432.787 44.54C432.907 44.18 432.992 43.775 433.042 43.325C433.102 42.865 433.132 42.34 433.132 41.75V39.665H438.847V45.53H440.047V48.95H438.457V47H433.072V48.95H431.482ZM434.017 45.53H437.092V41.105H434.737V42.185C434.737 42.815 434.672 43.425 434.542 44.015C434.422 44.605 434.247 45.11 434.017 45.53ZM443.859 47.15C443.329 47.15 442.854 47.05 442.434 46.85C442.024 46.64 441.699 46.36 441.459 46.01C441.229 45.66 441.114 45.265 441.114 44.825C441.114 44.285 441.254 43.86 441.534 43.55C441.814 43.23 442.269 43 442.899 42.86C443.529 42.72 444.374 42.65 445.434 42.65H446.184V43.73H445.449C444.979 43.73 444.584 43.75 444.264 43.79C443.944 43.82 443.684 43.875 443.484 43.955C443.294 44.025 443.154 44.125 443.064 44.255C442.984 44.385 442.944 44.545 442.944 44.735C442.944 45.065 443.059 45.335 443.289 45.545C443.519 45.755 443.839 45.86 444.249 45.86C444.579 45.86 444.869 45.785 445.119 45.635C445.379 45.475 445.584 45.26 445.734 44.99C445.884 44.72 445.959 44.41 445.959 44.06V42.335C445.959 41.835 445.849 41.475 445.629 41.255C445.409 41.035 445.039 40.925 444.519 40.925C444.109 40.925 443.689 40.99 443.259 41.12C442.829 41.24 442.394 41.43 441.954 41.69L441.414 40.415C441.674 40.235 441.979 40.08 442.329 39.95C442.689 39.81 443.064 39.705 443.454 39.635C443.854 39.555 444.229 39.515 444.579 39.515C445.299 39.515 445.889 39.625 446.349 39.845C446.819 40.065 447.169 40.4 447.399 40.85C447.629 41.29 447.744 41.86 447.744 42.56V47H445.989V45.44H446.109C446.039 45.79 445.899 46.095 445.689 46.355C445.489 46.605 445.234 46.8 444.924 46.94C444.614 47.08 444.259 47.15 443.859 47.15ZM449.837 47V39.665H451.382L453.917 44L456.452 39.665H457.982V47H456.332V41.825H456.692L454.352 45.8H453.467L451.127 41.825H451.487V47H449.837ZM464.149 47V39.665H468.109C468.739 39.665 469.249 39.74 469.639 39.89C470.039 40.04 470.329 40.26 470.509 40.55C470.689 40.83 470.779 41.175 470.779 41.585C470.779 42.045 470.619 42.435 470.299 42.755C469.989 43.065 469.574 43.255 469.054 43.325V43.115C469.494 43.135 469.859 43.225 470.149 43.385C470.439 43.545 470.659 43.76 470.809 44.03C470.959 44.29 471.034 44.595 471.034 44.945C471.034 45.575 470.794 46.075 470.314 46.445C469.834 46.815 469.139 47 468.229 47H464.149ZM465.889 45.845H468.064C468.474 45.845 468.784 45.76 468.994 45.59C469.214 45.42 469.324 45.17 469.324 44.84C469.324 44.51 469.214 44.26 468.994 44.09C468.784 43.92 468.474 43.835 468.064 43.835H465.889V45.845ZM465.889 42.68H467.929C468.289 42.68 468.569 42.6 468.769 42.44C468.969 42.27 469.069 42.035 469.069 41.735C469.069 41.435 468.969 41.21 468.769 41.06C468.569 40.9 468.289 40.82 467.929 40.82H465.889V42.68ZM476.732 49.7V39.665H478.562V41.21H478.412C478.562 40.7 478.867 40.29 479.327 39.98C479.797 39.67 480.342 39.515 480.962 39.515C481.602 39.515 482.162 39.67 482.642 39.98C483.132 40.29 483.512 40.73 483.782 41.3C484.052 41.86 484.187 42.535 484.187 43.325C484.187 44.105 484.052 44.785 483.782 45.365C483.512 45.935 483.137 46.375 482.657 46.685C482.177 46.995 481.612 47.15 480.962 47.15C480.352 47.15 479.817 47 479.357 46.7C478.897 46.39 478.587 45.99 478.427 45.5H478.607V49.7H476.732ZM480.437 45.725C480.997 45.725 481.447 45.525 481.787 45.125C482.127 44.715 482.297 44.115 482.297 43.325C482.297 42.525 482.127 41.93 481.787 41.54C481.447 41.14 480.997 40.94 480.437 40.94C479.877 40.94 479.427 41.14 479.087 41.54C478.747 41.93 478.577 42.525 478.577 43.325C478.577 44.115 478.747 44.715 479.087 45.125C479.427 45.525 479.877 45.725 480.437 45.725ZM489.561 47.15C488.731 47.15 488.016 46.995 487.416 46.685C486.816 46.375 486.351 45.935 486.021 45.365C485.701 44.795 485.541 44.12 485.541 43.34C485.541 42.58 485.696 41.915 486.006 41.345C486.326 40.775 486.761 40.33 487.311 40.01C487.871 39.68 488.506 39.515 489.216 39.515C489.916 39.515 490.516 39.665 491.016 39.965C491.516 40.265 491.901 40.69 492.171 41.24C492.451 41.79 492.591 42.445 492.591 43.205V43.76H487.056V42.68H491.271L491.031 42.905C491.031 42.225 490.881 41.705 490.581 41.345C490.281 40.975 489.851 40.79 489.291 40.79C488.871 40.79 488.511 40.89 488.211 41.09C487.921 41.28 487.696 41.555 487.536 41.915C487.386 42.265 487.311 42.685 487.311 43.175V43.28C487.311 43.83 487.396 44.285 487.566 44.645C487.736 45.005 487.991 45.275 488.331 45.455C488.671 45.635 489.091 45.725 489.591 45.725C490.001 45.725 490.411 45.665 490.821 45.545C491.231 45.415 491.606 45.215 491.946 44.945L492.471 46.205C492.121 46.495 491.681 46.725 491.151 46.895C490.621 47.065 490.091 47.15 489.561 47.15ZM496.696 47.15C496.166 47.15 495.691 47.05 495.271 46.85C494.861 46.64 494.536 46.36 494.296 46.01C494.066 45.66 493.951 45.265 493.951 44.825C493.951 44.285 494.091 43.86 494.371 43.55C494.651 43.23 495.106 43 495.736 42.86C496.366 42.72 497.211 42.65 498.271 42.65H499.021V43.73H498.286C497.816 43.73 497.421 43.75 497.101 43.79C496.781 43.82 496.521 43.875 496.321 43.955C496.131 44.025 495.991 44.125 495.901 44.255C495.821 44.385 495.781 44.545 495.781 44.735C495.781 45.065 495.896 45.335 496.126 45.545C496.356 45.755 496.676 45.86 497.086 45.86C497.416 45.86 497.706 45.785 497.956 45.635C498.216 45.475 498.421 45.26 498.571 44.99C498.721 44.72 498.796 44.41 498.796 44.06V42.335C498.796 41.835 498.686 41.475 498.466 41.255C498.246 41.035 497.876 40.925 497.356 40.925C496.946 40.925 496.526 40.99 496.096 41.12C495.666 41.24 495.231 41.43 494.791 41.69L494.251 40.415C494.511 40.235 494.816 40.08 495.166 39.95C495.526 39.81 495.901 39.705 496.291 39.635C496.691 39.555 497.066 39.515 497.416 39.515C498.136 39.515 498.726 39.625 499.186 39.845C499.656 40.065 500.006 40.4 500.236 40.85C500.466 41.29 500.581 41.86 500.581 42.56V47H498.826V45.44H498.946C498.876 45.79 498.736 46.095 498.526 46.355C498.326 46.605 498.071 46.8 497.761 46.94C497.451 47.08 497.096 47.15 496.696 47.15ZM502.479 47.21L501.894 45.725C502.214 45.615 502.479 45.47 502.689 45.29C502.909 45.1 503.084 44.86 503.214 44.57C503.344 44.27 503.439 43.905 503.499 43.475C503.559 43.045 503.589 42.53 503.589 41.93V39.665H509.499V47H507.624V41.135H505.314V41.99C505.314 42.78 505.259 43.475 505.149 44.075C505.039 44.675 504.869 45.185 504.639 45.605C504.419 46.025 504.129 46.37 503.769 46.64C503.409 46.9 502.979 47.09 502.479 47.21ZM511.625 47V39.665H513.5V42.095H515.435C516.405 42.095 517.135 42.3 517.625 42.71C518.125 43.12 518.375 43.72 518.375 44.51C518.375 45.01 518.255 45.45 518.015 45.83C517.775 46.2 517.435 46.49 516.995 46.7C516.565 46.9 516.045 47 515.435 47H511.625ZM513.5 45.77H515.15C515.62 45.77 515.985 45.67 516.245 45.47C516.505 45.26 516.635 44.945 516.635 44.525C516.635 44.115 516.505 43.815 516.245 43.625C515.985 43.425 515.62 43.325 515.15 43.325H513.5V45.77ZM519.916 47V39.665H521.791V42.5H525.031V39.665H526.906V47H525.031V43.97H521.791V47H519.916ZM532.402 47.15C531.642 47.15 530.982 46.995 530.422 46.685C529.862 46.375 529.427 45.935 529.117 45.365C528.807 44.785 528.652 44.105 528.652 43.325C528.652 42.545 528.807 41.87 529.117 41.3C529.427 40.73 529.862 40.29 530.422 39.98C530.982 39.67 531.642 39.515 532.402 39.515C533.162 39.515 533.822 39.67 534.382 39.98C534.942 40.29 535.377 40.73 535.687 41.3C535.997 41.87 536.152 42.545 536.152 43.325C536.152 44.105 535.997 44.785 535.687 45.365C535.377 45.935 534.942 46.375 534.382 46.685C533.822 46.995 533.162 47.15 532.402 47.15ZM532.402 45.725C532.962 45.725 533.412 45.525 533.752 45.125C534.092 44.715 534.262 44.115 534.262 43.325C534.262 42.525 534.092 41.93 533.752 41.54C533.412 41.14 532.962 40.94 532.402 40.94C531.842 40.94 531.392 41.14 531.052 41.54C530.712 41.93 530.542 42.525 530.542 43.325C530.542 44.115 530.712 44.715 531.052 45.125C531.392 45.525 531.842 45.725 532.402 45.725ZM537.889 47V39.665H539.434L541.969 44L544.504 39.665H546.034V47H544.384V41.825H544.744L542.404 45.8H541.519L539.179 41.825H539.539V47H537.889ZM552.201 47V39.665H556.161C556.791 39.665 557.301 39.74 557.691 39.89C558.091 40.04 558.381 40.26 558.561 40.55C558.741 40.83 558.831 41.175 558.831 41.585C558.831 42.045 558.671 42.435 558.351 42.755C558.041 43.065 557.626 43.255 557.106 43.325V43.115C557.546 43.135 557.911 43.225 558.201 43.385C558.491 43.545 558.711 43.76 558.861 44.03C559.011 44.29 559.086 44.595 559.086 44.945C559.086 45.575 558.846 46.075 558.366 46.445C557.886 46.815 557.191 47 556.281 47H552.201ZM553.941 45.845H556.116C556.526 45.845 556.836 45.76 557.046 45.59C557.266 45.42 557.376 45.17 557.376 44.84C557.376 44.51 557.266 44.26 557.046 44.09C556.836 43.92 556.526 43.835 556.116 43.835H553.941V45.845ZM553.941 42.68H555.981C556.341 42.68 556.621 42.6 556.821 42.44C557.021 42.27 557.121 42.035 557.121 41.735C557.121 41.435 557.021 41.21 556.821 41.06C556.621 40.9 556.341 40.82 555.981 40.82H553.941V42.68ZM560.741 49.7V39.665H562.571V41.21H562.421C562.571 40.7 562.876 40.29 563.336 39.98C563.806 39.67 564.351 39.515 564.971 39.515C565.611 39.515 566.171 39.67 566.651 39.98C567.141 40.29 567.521 40.73 567.791 41.3C568.061 41.86 568.196 42.535 568.196 43.325C568.196 44.105 568.061 44.785 567.791 45.365C567.521 45.935 567.146 46.375 566.666 46.685C566.186 46.995 565.621 47.15 564.971 47.15C564.361 47.15 563.826 47 563.366 46.7C562.906 46.39 562.596 45.99 562.436 45.5H562.616V49.7H560.741ZM564.446 45.725C565.006 45.725 565.456 45.525 565.796 45.125C566.136 44.715 566.306 44.115 566.306 43.325C566.306 42.525 566.136 41.93 565.796 41.54C565.456 41.14 565.006 40.94 564.446 40.94C563.886 40.94 563.436 41.14 563.096 41.54C562.756 41.93 562.586 42.525 562.586 43.325C562.586 44.115 562.756 44.715 563.096 45.125C563.436 45.525 563.886 45.725 564.446 45.725ZM573.57 47.15C572.74 47.15 572.025 46.995 571.425 46.685C570.825 46.375 570.36 45.935 570.03 45.365C569.71 44.795 569.55 44.12 569.55 43.34C569.55 42.58 569.705 41.915 570.015 41.345C570.335 40.775 570.77 40.33 571.32 40.01C571.88 39.68 572.515 39.515 573.225 39.515C573.925 39.515 574.525 39.665 575.025 39.965C575.525 40.265 575.91 40.69 576.18 41.24C576.46 41.79 576.6 42.445 576.6 43.205V43.76H571.065V42.68H575.28L575.04 42.905C575.04 42.225 574.89 41.705 574.59 41.345C574.29 40.975 573.86 40.79 573.3 40.79C572.88 40.79 572.52 40.89 572.22 41.09C571.93 41.28 571.705 41.555 571.545 41.915C571.395 42.265 571.32 42.685 571.32 43.175V43.28C571.32 43.83 571.405 44.285 571.575 44.645C571.745 45.005 572 45.275 572.34 45.455C572.68 45.635 573.1 45.725 573.6 45.725C574.01 45.725 574.42 45.665 574.83 45.545C575.24 45.415 575.615 45.215 575.955 44.945L576.48 46.205C576.13 46.495 575.69 46.725 575.16 46.895C574.63 47.065 574.1 47.15 573.57 47.15ZM578.275 47V39.665H579.82L582.355 44L584.89 39.665H586.42V47H584.77V41.825H585.13L582.79 45.8H581.905L579.565 41.825H579.925V47H578.275ZM592.174 47.15C591.344 47.15 590.629 46.995 590.029 46.685C589.429 46.375 588.964 45.935 588.634 45.365C588.314 44.795 588.154 44.12 588.154 43.34C588.154 42.58 588.309 41.915 588.619 41.345C588.939 40.775 589.374 40.33 589.924 40.01C590.484 39.68 591.119 39.515 591.829 39.515C592.529 39.515 593.129 39.665 593.629 39.965C594.129 40.265 594.514 40.69 594.784 41.24C595.064 41.79 595.204 42.445 595.204 43.205V43.76H589.669V42.68H593.884L593.644 42.905C593.644 42.225 593.494 41.705 593.194 41.345C592.894 40.975 592.464 40.79 591.904 40.79C591.484 40.79 591.124 40.89 590.824 41.09C590.534 41.28 590.309 41.555 590.149 41.915C589.999 42.265 589.924 42.685 589.924 43.175V43.28C589.924 43.83 590.009 44.285 590.179 44.645C590.349 45.005 590.604 45.275 590.944 45.455C591.284 45.635 591.704 45.725 592.204 45.725C592.614 45.725 593.024 45.665 593.434 45.545C593.844 45.415 594.219 45.215 594.559 44.945L595.084 46.205C594.734 46.495 594.294 46.725 593.764 46.895C593.234 47.065 592.704 47.15 592.174 47.15ZM596.878 47V39.665H598.753V42.5H601.993V39.665H603.868V47H601.993V43.97H598.753V47H596.878ZM606.004 47V39.665H607.699V45.08H607.309L611.374 39.665H612.934V47H611.239V41.57H611.644L607.564 47H606.004ZM619.1 47V39.665H623.06C623.69 39.665 624.2 39.74 624.59 39.89C624.99 40.04 625.28 40.26 625.46 40.55C625.64 40.83 625.73 41.175 625.73 41.585C625.73 42.045 625.57 42.435 625.25 42.755C624.94 43.065 624.525 43.255 624.005 43.325V43.115C624.445 43.135 624.81 43.225 625.1 43.385C625.39 43.545 625.61 43.76 625.76 44.03C625.91 44.29 625.985 44.595 625.985 44.945C625.985 45.575 625.745 46.075 625.265 46.445C624.785 46.815 624.09 47 623.18 47H619.1ZM620.84 45.845H623.015C623.425 45.845 623.735 45.76 623.945 45.59C624.165 45.42 624.275 45.17 624.275 44.84C624.275 44.51 624.165 44.26 623.945 44.09C623.735 43.92 623.425 43.835 623.015 43.835H620.84V45.845ZM620.84 42.68H622.88C623.24 42.68 623.52 42.6 623.72 42.44C623.92 42.27 624.02 42.035 624.02 41.735C624.02 41.435 623.92 41.21 623.72 41.06C623.52 40.9 623.24 40.82 622.88 40.82H620.84V42.68ZM634.309 47V38.03H630.679V36.425H639.859V38.03H636.229V47H634.309ZM643.338 47.15C642.508 47.15 641.793 46.995 641.193 46.685C640.593 46.375 640.128 45.935 639.798 45.365C639.478 44.795 639.318 44.12 639.318 43.34C639.318 42.58 639.473 41.915 639.783 41.345C640.103 40.775 640.538 40.33 641.088 40.01C641.648 39.68 642.283 39.515 642.993 39.515C643.693 39.515 644.293 39.665 644.793 39.965C645.293 40.265 645.678 40.69 645.948 41.24C646.228 41.79 646.368 42.445 646.368 43.205V43.76H640.833V42.68H645.048L644.808 42.905C644.808 42.225 644.658 41.705 644.358 41.345C644.058 40.975 643.628 40.79 643.068 40.79C642.648 40.79 642.288 40.89 641.988 41.09C641.698 41.28 641.473 41.555 641.313 41.915C641.163 42.265 641.088 42.685 641.088 43.175V43.28C641.088 43.83 641.173 44.285 641.343 44.645C641.513 45.005 641.768 45.275 642.108 45.455C642.448 45.635 642.868 45.725 643.368 45.725C643.778 45.725 644.188 45.665 644.598 45.545C645.008 45.415 645.383 45.215 645.723 44.945L646.248 46.205C645.898 46.495 645.458 46.725 644.928 46.895C644.398 47.065 643.868 47.15 643.338 47.15ZM650.403 47.15C649.533 47.15 648.888 46.915 648.468 46.445C648.058 45.965 647.853 45.265 647.853 44.345V36.425H649.728V44.255C649.728 44.545 649.768 44.795 649.848 45.005C649.938 45.205 650.068 45.355 650.238 45.455C650.408 45.555 650.618 45.605 650.868 45.605C650.978 45.605 651.088 45.6 651.198 45.59C651.308 45.58 651.413 45.56 651.513 45.53L651.483 47.015C651.303 47.055 651.123 47.085 650.943 47.105C650.773 47.135 650.593 47.15 650.403 47.15ZM656.185 47.15C655.355 47.15 654.64 46.995 654.04 46.685C653.44 46.375 652.975 45.935 652.645 45.365C652.325 44.795 652.165 44.12 652.165 43.34C652.165 42.58 652.32 41.915 652.63 41.345C652.95 40.775 653.385 40.33 653.935 40.01C654.495 39.68 655.13 39.515 655.84 39.515C656.54 39.515 657.14 39.665 657.64 39.965C658.14 40.265 658.525 40.69 658.795 41.24C659.075 41.79 659.215 42.445 659.215 43.205V43.76H653.68V42.68H657.895L657.655 42.905C657.655 42.225 657.505 41.705 657.205 41.345C656.905 40.975 656.475 40.79 655.915 40.79C655.495 40.79 655.135 40.89 654.835 41.09C654.545 41.28 654.32 41.555 654.16 41.915C654.01 42.265 653.935 42.685 653.935 43.175V43.28C653.935 43.83 654.02 44.285 654.19 44.645C654.36 45.005 654.615 45.275 654.955 45.455C655.295 45.635 655.715 45.725 656.215 45.725C656.625 45.725 657.035 45.665 657.445 45.545C657.855 45.415 658.23 45.215 658.57 44.945L659.095 46.205C658.745 46.495 658.305 46.725 657.775 46.895C657.245 47.065 656.715 47.15 656.185 47.15ZM664.12 49.85C663.44 49.85 662.8 49.77 662.2 49.61C661.61 49.46 661.09 49.225 660.64 48.905L661.18 47.6C661.46 47.78 661.755 47.93 662.065 48.05C662.375 48.18 662.69 48.275 663.01 48.335C663.33 48.395 663.65 48.425 663.97 48.425C664.64 48.425 665.14 48.26 665.47 47.93C665.81 47.61 665.98 47.13 665.98 46.49V45.14H666.115C665.965 45.65 665.65 46.06 665.17 46.37C664.7 46.67 664.165 46.82 663.565 46.82C662.905 46.82 662.33 46.67 661.84 46.37C661.35 46.06 660.97 45.63 660.7 45.08C660.43 44.53 660.295 43.89 660.295 43.16C660.295 42.43 660.43 41.795 660.7 41.255C660.97 40.705 661.35 40.28 661.84 39.98C662.33 39.67 662.905 39.515 663.565 39.515C664.185 39.515 664.725 39.67 665.185 39.98C665.655 40.28 665.96 40.68 666.1 41.18H665.98V39.665H667.81V46.265C667.81 47.055 667.67 47.715 667.39 48.245C667.11 48.785 666.695 49.185 666.145 49.445C665.595 49.715 664.92 49.85 664.12 49.85ZM664.075 45.395C664.655 45.395 665.115 45.195 665.455 44.795C665.795 44.395 665.965 43.85 665.965 43.16C665.965 42.47 665.795 41.93 665.455 41.54C665.115 41.14 664.655 40.94 664.075 40.94C663.495 40.94 663.035 41.14 662.695 41.54C662.355 41.93 662.185 42.47 662.185 43.16C662.185 43.85 662.355 44.395 662.695 44.795C663.035 45.195 663.495 45.395 664.075 45.395ZM669.752 47V39.665H671.582V41.435H671.432C671.572 40.835 671.847 40.38 672.257 40.07C672.667 39.75 673.212 39.565 673.892 39.515L674.462 39.47L674.582 41.06L673.502 41.165C672.892 41.225 672.432 41.415 672.122 41.735C671.812 42.045 671.657 42.485 671.657 43.055V47H669.752ZM677.968 47.15C677.438 47.15 676.963 47.05 676.543 46.85C676.133 46.64 675.808 46.36 675.568 46.01C675.338 45.66 675.223 45.265 675.223 44.825C675.223 44.285 675.363 43.86 675.643 43.55C675.923 43.23 676.378 43 677.008 42.86C677.638 42.72 678.483 42.65 679.543 42.65H680.293V43.73H679.558C679.088 43.73 678.693 43.75 678.373 43.79C678.053 43.82 677.793 43.875 677.593 43.955C677.403 44.025 677.263 44.125 677.173 44.255C677.093 44.385 677.053 44.545 677.053 44.735C677.053 45.065 677.168 45.335 677.398 45.545C677.628 45.755 677.948 45.86 678.358 45.86C678.688 45.86 678.978 45.785 679.228 45.635C679.488 45.475 679.693 45.26 679.843 44.99C679.993 44.72 680.068 44.41 680.068 44.06V42.335C680.068 41.835 679.958 41.475 679.738 41.255C679.518 41.035 679.148 40.925 678.628 40.925C678.218 40.925 677.798 40.99 677.368 41.12C676.938 41.24 676.503 41.43 676.063 41.69L675.523 40.415C675.783 40.235 676.088 40.08 676.438 39.95C676.798 39.81 677.173 39.705 677.563 39.635C677.963 39.555 678.338 39.515 678.688 39.515C679.408 39.515 679.998 39.625 680.458 39.845C680.928 40.065 681.278 40.4 681.508 40.85C681.738 41.29 681.853 41.86 681.853 42.56V47H680.098V45.44H680.218C680.148 45.79 680.008 46.095 679.798 46.355C679.598 46.605 679.343 46.8 679.033 46.94C678.723 47.08 678.368 47.15 677.968 47.15ZM683.786 47V39.665H685.616V41.135H685.451C685.581 40.795 685.761 40.505 685.991 40.265C686.221 40.025 686.496 39.84 686.816 39.71C687.136 39.58 687.491 39.515 687.881 39.515C688.471 39.515 688.956 39.655 689.336 39.935C689.716 40.215 689.981 40.645 690.131 41.225H689.921C690.121 40.695 690.451 40.28 690.911 39.98C691.371 39.67 691.901 39.515 692.501 39.515C693.061 39.515 693.521 39.625 693.881 39.845C694.251 40.065 694.526 40.4 694.706 40.85C694.886 41.29 694.976 41.85 694.976 42.53V47H693.101V42.605C693.101 42.045 693.006 41.635 692.816 41.375C692.636 41.115 692.326 40.985 691.886 40.985C691.566 40.985 691.286 41.065 691.046 41.225C690.806 41.375 690.621 41.595 690.491 41.885C690.371 42.175 690.311 42.525 690.311 42.935V47H688.436V42.605C688.436 42.045 688.341 41.635 688.151 41.375C687.971 41.115 687.666 40.985 687.236 40.985C686.906 40.985 686.621 41.065 686.381 41.225C686.151 41.375 685.971 41.595 685.841 41.885C685.721 42.175 685.661 42.525 685.661 42.935V47H683.786Z" fill="white"/>
<path opacity="0.64" d="M104.715 75L106.515 71.475V72.075L101.79 64.425H103.845L107.445 70.35H107.1L110.115 64.425H112.095L106.71 75H104.715ZM111.812 75L113.357 72.27C113.537 71.95 113.717 71.685 113.897 71.475C114.087 71.255 114.287 71.085 114.497 70.965C114.717 70.845 114.962 70.77 115.232 70.74L114.887 71.34L112.142 67.665H114.152L116.282 70.515H117.167V67.665H119.042V70.515H119.927L122.042 67.665H124.052L121.322 71.34L120.962 70.74C121.232 70.77 121.472 70.845 121.682 70.965C121.902 71.085 122.107 71.255 122.297 71.475C122.487 71.685 122.672 71.95 122.852 72.27L124.382 75H122.387L121.157 72.84C121.027 72.61 120.897 72.435 120.767 72.315C120.647 72.185 120.507 72.095 120.347 72.045C120.197 71.995 120.012 71.97 119.792 71.97H119.042V75H117.167V71.97H116.417C116.197 71.97 116.007 71.995 115.847 72.045C115.697 72.095 115.557 72.185 115.427 72.315C115.307 72.435 115.182 72.61 115.052 72.84L113.822 75H111.812ZM128.99 75.15C128.16 75.15 127.445 74.995 126.845 74.685C126.245 74.375 125.78 73.935 125.45 73.365C125.13 72.795 124.97 72.12 124.97 71.34C124.97 70.58 125.125 69.915 125.435 69.345C125.755 68.775 126.19 68.33 126.74 68.01C127.3 67.68 127.935 67.515 128.645 67.515C129.345 67.515 129.945 67.665 130.445 67.965C130.945 68.265 131.33 68.69 131.6 69.24C131.88 69.79 132.02 70.445 132.02 71.205V71.76H126.485V70.68H130.7L130.46 70.905C130.46 70.225 130.31 69.705 130.01 69.345C129.71 68.975 129.28 68.79 128.72 68.79C128.3 68.79 127.94 68.89 127.64 69.09C127.35 69.28 127.125 69.555 126.965 69.915C126.815 70.265 126.74 70.685 126.74 71.175V71.28C126.74 71.83 126.825 72.285 126.995 72.645C127.165 73.005 127.42 73.275 127.76 73.455C128.1 73.635 128.52 73.725 129.02 73.725C129.43 73.725 129.84 73.665 130.25 73.545C130.66 73.415 131.035 73.215 131.375 72.945L131.9 74.205C131.55 74.495 131.11 74.725 130.58 74.895C130.05 75.065 129.52 75.15 128.99 75.15ZM141.173 75.15C140.393 75.15 139.713 74.99 139.133 74.67C138.563 74.35 138.123 73.875 137.813 73.245C137.503 72.605 137.348 71.82 137.348 70.89V69.795C137.348 69.205 137.398 68.675 137.498 68.205C137.608 67.725 137.768 67.305 137.978 66.945C138.198 66.575 138.463 66.25 138.773 65.97C139.093 65.69 139.458 65.455 139.868 65.265C140.288 65.075 140.758 64.915 141.278 64.785L143.843 64.155L144.398 65.64L141.413 66.345C140.663 66.525 140.093 66.86 139.703 67.35C139.313 67.83 139.118 68.44 139.118 69.18V69.99H138.863C138.963 69.56 139.133 69.175 139.373 68.835C139.623 68.495 139.943 68.23 140.333 68.04C140.723 67.84 141.178 67.74 141.698 67.74C142.158 67.74 142.578 67.825 142.958 67.995C143.348 68.165 143.683 68.41 143.963 68.73C144.243 69.04 144.458 69.42 144.608 69.87C144.768 70.31 144.848 70.81 144.848 71.37C144.848 72.14 144.693 72.81 144.383 73.38C144.083 73.94 143.658 74.375 143.108 74.685C142.558 74.995 141.913 75.15 141.173 75.15ZM141.098 73.725C141.688 73.725 142.143 73.53 142.463 73.14C142.793 72.75 142.958 72.185 142.958 71.445C142.958 70.715 142.793 70.155 142.463 69.765C142.143 69.365 141.688 69.165 141.098 69.165C140.518 69.165 140.063 69.36 139.733 69.75C139.403 70.14 139.238 70.68 139.238 71.37C139.238 72.14 139.398 72.725 139.718 73.125C140.048 73.525 140.508 73.725 141.098 73.725ZM149.946 75.15C149.186 75.15 148.526 74.995 147.966 74.685C147.406 74.375 146.971 73.935 146.661 73.365C146.351 72.785 146.196 72.105 146.196 71.325C146.196 70.545 146.351 69.87 146.661 69.3C146.971 68.73 147.406 68.29 147.966 67.98C148.526 67.67 149.186 67.515 149.946 67.515C150.706 67.515 151.366 67.67 151.926 67.98C152.486 68.29 152.921 68.73 153.231 69.3C153.541 69.87 153.696 70.545 153.696 71.325C153.696 72.105 153.541 72.785 153.231 73.365C152.921 73.935 152.486 74.375 151.926 74.685C151.366 74.995 150.706 75.15 149.946 75.15ZM149.946 73.725C150.506 73.725 150.956 73.525 151.296 73.125C151.636 72.715 151.806 72.115 151.806 71.325C151.806 70.525 151.636 69.93 151.296 69.54C150.956 69.14 150.506 68.94 149.946 68.94C149.386 68.94 148.936 69.14 148.596 69.54C148.256 69.93 148.086 70.525 148.086 71.325C148.086 72.115 148.256 72.715 148.596 73.125C148.936 73.525 149.386 73.725 149.946 73.725ZM155.092 75.21L154.507 73.725C154.827 73.615 155.092 73.47 155.302 73.29C155.522 73.1 155.697 72.86 155.827 72.57C155.957 72.27 156.052 71.905 156.112 71.475C156.172 71.045 156.202 70.53 156.202 69.93V67.665H162.112V75H160.237V69.135H157.927V69.99C157.927 70.78 157.872 71.475 157.762 72.075C157.652 72.675 157.482 73.185 157.252 73.605C157.032 74.025 156.742 74.37 156.382 74.64C156.022 74.9 155.592 75.09 155.092 75.21ZM164.237 75V67.665H166.112V70.095H168.047C169.017 70.095 169.747 70.3 170.237 70.71C170.737 71.12 170.987 71.72 170.987 72.51C170.987 73.01 170.867 73.45 170.627 73.83C170.387 74.2 170.047 74.49 169.607 74.7C169.177 74.9 168.657 75 168.047 75H164.237ZM166.112 73.77H167.762C168.232 73.77 168.597 73.67 168.857 73.47C169.117 73.26 169.247 72.945 169.247 72.525C169.247 72.115 169.117 71.815 168.857 71.625C168.597 71.425 168.232 71.325 167.762 71.325H166.112V73.77ZM172.528 75V67.665H174.298V73.53H176.818V67.665H178.588V73.53H181.108V67.665H182.878V75H172.528ZM188.638 75.15C187.808 75.15 187.093 74.995 186.493 74.685C185.893 74.375 185.428 73.935 185.098 73.365C184.778 72.795 184.618 72.12 184.618 71.34C184.618 70.58 184.773 69.915 185.083 69.345C185.403 68.775 185.838 68.33 186.388 68.01C186.948 67.68 187.583 67.515 188.293 67.515C188.993 67.515 189.593 67.665 190.093 67.965C190.593 68.265 190.978 68.69 191.248 69.24C191.528 69.79 191.668 70.445 191.668 71.205V71.76H186.133V70.68H190.348L190.108 70.905C190.108 70.225 189.958 69.705 189.658 69.345C189.358 68.975 188.928 68.79 188.368 68.79C187.948 68.79 187.588 68.89 187.288 69.09C186.998 69.28 186.773 69.555 186.613 69.915C186.463 70.265 186.388 70.685 186.388 71.175V71.28C186.388 71.83 186.473 72.285 186.643 72.645C186.813 73.005 187.068 73.275 187.408 73.455C187.748 73.635 188.168 73.725 188.668 73.725C189.078 73.725 189.488 73.665 189.898 73.545C190.308 73.415 190.683 73.215 191.023 72.945L191.548 74.205C191.198 74.495 190.758 74.725 190.228 74.895C189.698 75.065 189.168 75.15 188.638 75.15ZM197.956 75V73.41H200.341V66.045H201.271L198.496 67.725L197.746 66.315L200.896 64.425H202.261V73.41H204.496V75H197.956ZM209.815 75.15C208.985 75.15 208.28 74.94 207.7 74.52C207.13 74.09 206.695 73.47 206.395 72.66C206.105 71.85 205.96 70.86 205.96 69.69C205.96 68.51 206.105 67.52 206.395 66.72C206.695 65.91 207.13 65.3 207.7 64.89C208.28 64.48 208.985 64.275 209.815 64.275C210.655 64.275 211.36 64.48 211.93 64.89C212.51 65.3 212.945 65.905 213.235 66.705C213.525 67.505 213.67 68.495 213.67 69.675C213.67 70.845 213.52 71.84 213.22 72.66C212.93 73.47 212.5 74.09 211.93 74.52C211.36 74.94 210.655 75.15 209.815 75.15ZM209.815 73.575C210.495 73.575 210.995 73.265 211.315 72.645C211.645 72.015 211.81 71.025 211.81 69.675C211.81 68.335 211.645 67.365 211.315 66.765C210.995 66.155 210.495 65.85 209.815 65.85C209.145 65.85 208.645 66.155 208.315 66.765C207.985 67.365 207.82 68.34 207.82 69.69C207.82 71.03 207.985 72.015 208.315 72.645C208.645 73.265 209.145 73.575 209.815 73.575ZM218.81 75.15C217.98 75.15 217.275 74.94 216.695 74.52C216.125 74.09 215.69 73.47 215.39 72.66C215.1 71.85 214.955 70.86 214.955 69.69C214.955 68.51 215.1 67.52 215.39 66.72C215.69 65.91 216.125 65.3 216.695 64.89C217.275 64.48 217.98 64.275 218.81 64.275C219.65 64.275 220.355 64.48 220.925 64.89C221.505 65.3 221.94 65.905 222.23 66.705C222.52 67.505 222.665 68.495 222.665 69.675C222.665 70.845 222.515 71.84 222.215 72.66C221.925 73.47 221.495 74.09 220.925 74.52C220.355 74.94 219.65 75.15 218.81 75.15ZM218.81 73.575C219.49 73.575 219.99 73.265 220.31 72.645C220.64 72.015 220.805 71.025 220.805 69.675C220.805 68.335 220.64 67.365 220.31 66.765C219.99 66.155 219.49 65.85 218.81 65.85C218.14 65.85 217.64 66.155 217.31 66.765C216.98 67.365 216.815 68.34 216.815 69.69C216.815 71.03 216.98 72.015 217.31 72.645C217.64 73.265 218.14 73.575 218.81 73.575ZM231.847 75.15C231.017 75.15 230.312 74.94 229.732 74.52C229.162 74.09 228.727 73.47 228.427 72.66C228.137 71.85 227.992 70.86 227.992 69.69C227.992 68.51 228.137 67.52 228.427 66.72C228.727 65.91 229.162 65.3 229.732 64.89C230.312 64.48 231.017 64.275 231.847 64.275C232.687 64.275 233.392 64.48 233.962 64.89C234.542 65.3 234.977 65.905 235.267 66.705C235.557 67.505 235.702 68.495 235.702 69.675C235.702 70.845 235.552 71.84 235.252 72.66C234.962 73.47 234.532 74.09 233.962 74.52C233.392 74.94 232.687 75.15 231.847 75.15ZM231.847 73.575C232.527 73.575 233.027 73.265 233.347 72.645C233.677 72.015 233.842 71.025 233.842 69.675C233.842 68.335 233.677 67.365 233.347 66.765C233.027 66.155 232.527 65.85 231.847 65.85C231.177 65.85 230.677 66.155 230.347 66.765C230.017 67.365 229.852 68.34 229.852 69.69C229.852 71.03 230.017 72.015 230.347 72.645C230.677 73.265 231.177 73.575 231.847 73.575ZM240.841 75.15C240.011 75.15 239.306 74.94 238.726 74.52C238.156 74.09 237.721 73.47 237.421 72.66C237.131 71.85 236.986 70.86 236.986 69.69C236.986 68.51 237.131 67.52 237.421 66.72C237.721 65.91 238.156 65.3 238.726 64.89C239.306 64.48 240.011 64.275 240.841 64.275C241.681 64.275 242.386 64.48 242.956 64.89C243.536 65.3 243.971 65.905 244.261 66.705C244.551 67.505 244.696 68.495 244.696 69.675C244.696 70.845 244.546 71.84 244.246 72.66C243.956 73.47 243.526 74.09 242.956 74.52C242.386 74.94 241.681 75.15 240.841 75.15ZM240.841 73.575C241.521 73.575 242.021 73.265 242.341 72.645C242.671 72.015 242.836 71.025 242.836 69.675C242.836 68.335 242.671 67.365 242.341 66.765C242.021 66.155 241.521 65.85 240.841 65.85C240.171 65.85 239.671 66.155 239.341 66.765C239.011 67.365 238.846 68.34 238.846 69.69C238.846 71.03 239.011 72.015 239.341 72.645C239.671 73.265 240.171 73.575 240.841 73.575ZM249.835 75.15C249.005 75.15 248.3 74.94 247.72 74.52C247.15 74.09 246.715 73.47 246.415 72.66C246.125 71.85 245.98 70.86 245.98 69.69C245.98 68.51 246.125 67.52 246.415 66.72C246.715 65.91 247.15 65.3 247.72 64.89C248.3 64.48 249.005 64.275 249.835 64.275C250.675 64.275 251.38 64.48 251.95 64.89C252.53 65.3 252.965 65.905 253.255 66.705C253.545 67.505 253.69 68.495 253.69 69.675C253.69 70.845 253.54 71.84 253.24 72.66C252.95 73.47 252.52 74.09 251.95 74.52C251.38 74.94 250.675 75.15 249.835 75.15ZM249.835 73.575C250.515 73.575 251.015 73.265 251.335 72.645C251.665 72.015 251.83 71.025 251.83 69.675C251.83 68.335 251.665 67.365 251.335 66.765C251.015 66.155 250.515 65.85 249.835 65.85C249.165 65.85 248.665 66.155 248.335 66.765C248.005 67.365 247.84 68.34 247.84 69.69C247.84 71.03 248.005 72.015 248.335 72.645C248.665 73.265 249.165 73.575 249.835 73.575ZM259.437 75V67.665H266.382V75H264.507V69.135H261.312V75H259.437ZM271.879 75.15C271.119 75.15 270.459 74.995 269.899 74.685C269.339 74.375 268.904 73.935 268.594 73.365C268.284 72.785 268.129 72.105 268.129 71.325C268.129 70.545 268.284 69.87 268.594 69.3C268.904 68.73 269.339 68.29 269.899 67.98C270.459 67.67 271.119 67.515 271.879 67.515C272.639 67.515 273.299 67.67 273.859 67.98C274.419 68.29 274.854 68.73 275.164 69.3C275.474 69.87 275.629 70.545 275.629 71.325C275.629 72.105 275.474 72.785 275.164 73.365C274.854 73.935 274.419 74.375 273.859 74.685C273.299 74.995 272.639 75.15 271.879 75.15ZM271.879 73.725C272.439 73.725 272.889 73.525 273.229 73.125C273.569 72.715 273.739 72.115 273.739 71.325C273.739 70.525 273.569 69.93 273.229 69.54C272.889 69.14 272.439 68.94 271.879 68.94C271.319 68.94 270.869 69.14 270.529 69.54C270.189 69.93 270.019 70.525 270.019 71.325C270.019 72.115 270.189 72.715 270.529 73.125C270.869 73.525 271.319 73.725 271.879 73.725ZM276.692 76.95V73.53H277.532C277.732 73.22 277.887 72.89 277.997 72.54C278.117 72.18 278.202 71.775 278.252 71.325C278.312 70.865 278.342 70.34 278.342 69.75V67.665H284.057V73.53H285.257V76.95H283.667V75H278.282V76.95H276.692ZM279.227 73.53H282.302V69.105H279.947V70.185C279.947 70.815 279.882 71.425 279.752 72.015C279.632 72.605 279.457 73.11 279.227 73.53ZM286.639 75V67.665H293.584V75H291.709V69.135H288.514V75H286.639ZM295.721 75V67.665H297.416V73.08H297.026L301.091 67.665H302.651V75H300.956V69.57H301.361L297.281 75H295.721ZM308.179 75.15C307.409 75.15 306.739 74.995 306.169 74.685C305.599 74.365 305.159 73.915 304.849 73.335C304.539 72.755 304.384 72.075 304.384 71.295C304.384 70.515 304.539 69.845 304.849 69.285C305.159 68.715 305.599 68.28 306.169 67.98C306.739 67.67 307.409 67.515 308.179 67.515C308.649 67.515 309.114 67.59 309.574 67.74C310.034 67.89 310.414 68.1 310.714 68.37L310.159 69.675C309.899 69.445 309.604 69.27 309.274 69.15C308.954 69.03 308.644 68.97 308.344 68.97C307.694 68.97 307.189 69.175 306.829 69.585C306.479 69.985 306.304 70.56 306.304 71.31C306.304 72.05 306.479 72.635 306.829 73.065C307.189 73.485 307.694 73.695 308.344 73.695C308.634 73.695 308.944 73.635 309.274 73.515C309.604 73.395 309.899 73.215 310.159 72.975L310.714 74.295C310.414 74.555 310.029 74.765 309.559 74.925C309.099 75.075 308.639 75.15 308.179 75.15ZM316.704 75V72.345C316.434 72.475 316.154 72.575 315.864 72.645C315.584 72.705 315.294 72.735 314.994 72.735C314.274 72.735 313.674 72.62 313.194 72.39C312.714 72.15 312.354 71.795 312.114 71.325C311.884 70.855 311.769 70.27 311.769 69.57V67.665H313.644V69.405C313.644 69.825 313.699 70.17 313.809 70.44C313.929 70.71 314.109 70.91 314.349 71.04C314.599 71.16 314.924 71.22 315.324 71.22C315.594 71.22 315.839 71.19 316.059 71.13C316.279 71.07 316.484 70.975 316.674 70.845V67.665H318.549V75H316.704ZM320.682 75V67.665H322.377V73.08H321.987L326.052 67.665H327.612V75H325.917V69.57H326.322L322.242 75H320.682ZM329.735 75V67.665H331.61V70.515H332.675L334.805 67.665H336.815L334.13 71.34L333.725 70.74C333.995 70.77 334.235 70.845 334.445 70.965C334.665 71.085 334.865 71.255 335.045 71.475C335.235 71.685 335.42 71.95 335.6 72.27L337.145 75H335.135L333.905 72.84C333.775 72.61 333.645 72.435 333.515 72.315C333.395 72.185 333.255 72.095 333.095 72.045C332.945 71.995 332.76 71.97 332.54 71.97H331.61V75H329.735ZM341.474 75.15C340.714 75.15 340.054 74.995 339.494 74.685C338.934 74.375 338.499 73.935 338.189 73.365C337.879 72.785 337.724 72.105 337.724 71.325C337.724 70.545 337.879 69.87 338.189 69.3C338.499 68.73 338.934 68.29 339.494 67.98C340.054 67.67 340.714 67.515 341.474 67.515C342.234 67.515 342.894 67.67 343.454 67.98C344.014 68.29 344.449 68.73 344.759 69.3C345.069 69.87 345.224 70.545 345.224 71.325C345.224 72.105 345.069 72.785 344.759 73.365C344.449 73.935 344.014 74.375 343.454 74.685C342.894 74.995 342.234 75.15 341.474 75.15ZM341.474 73.725C342.034 73.725 342.484 73.525 342.824 73.125C343.164 72.715 343.334 72.115 343.334 71.325C343.334 70.525 343.164 69.93 342.824 69.54C342.484 69.14 342.034 68.94 341.474 68.94C340.914 68.94 340.464 69.14 340.124 69.54C339.784 69.93 339.614 70.525 339.614 71.325C339.614 72.115 339.784 72.715 340.124 73.125C340.464 73.525 340.914 73.725 341.474 73.725ZM346.961 75V67.665H350.921C351.551 67.665 352.061 67.74 352.451 67.89C352.851 68.04 353.141 68.26 353.321 68.55C353.501 68.83 353.591 69.175 353.591 69.585C353.591 70.045 353.431 70.435 353.111 70.755C352.801 71.065 352.386 71.255 351.866 71.325V71.115C352.306 71.135 352.671 71.225 352.961 71.385C353.251 71.545 353.471 71.76 353.621 72.03C353.771 72.29 353.846 72.595 353.846 72.945C353.846 73.575 353.606 74.075 353.126 74.445C352.646 74.815 351.951 75 351.041 75H346.961ZM348.701 73.845H350.876C351.286 73.845 351.596 73.76 351.806 73.59C352.026 73.42 352.136 73.17 352.136 72.84C352.136 72.51 352.026 72.26 351.806 72.09C351.596 71.92 351.286 71.835 350.876 71.835H348.701V73.845ZM348.701 70.68H350.741C351.101 70.68 351.381 70.6 351.581 70.44C351.781 70.27 351.881 70.035 351.881 69.735C351.881 69.435 351.781 69.21 351.581 69.06C351.381 68.9 351.101 68.82 350.741 68.82H348.701V70.68Z" fill="white"/>
<path fill-rule="evenodd" clip-rule="evenodd" d="M56 88C38.3269 88 24 73.6731 24 56C24 38.3269 38.3269 24 56 24C73.6731 24 88 38.3269 88 56C88 73.6731 73.6731 88 56 88ZM57.3837 48.0148C54.5177 49.2068 48.7897 51.6741 40.1998 55.4166C38.805 55.9713 38.0743 56.5139 38.0078 57.0445C37.8953 57.9413 39.0183 58.2944 40.5475 58.7752C40.7555 58.8406 40.971 58.9084 41.192 58.9802C42.6964 59.4693 44.7202 60.0414 45.7723 60.0641C46.7267 60.0847 47.7918 59.6913 48.9678 58.8838C56.9936 53.4661 61.1366 50.7278 61.3967 50.6688C61.5802 50.6271 61.8345 50.5747 62.0068 50.7279C62.1791 50.881 62.1621 51.171 62.1439 51.2488C62.0326 51.7231 57.6246 55.8212 55.3434 57.9419C54.6323 58.6031 54.1278 59.0721 54.0247 59.1792C53.7937 59.4191 53.5583 59.6461 53.332 59.8642C51.9343 61.2116 50.8862 62.222 53.3901 63.872C54.5933 64.6649 55.5562 65.3206 56.5167 65.9748C57.5658 66.6892 58.6121 67.4017 59.9659 68.2891C60.3108 68.5152 60.6402 68.7501 60.961 68.9788C62.1819 69.8491 63.2787 70.6311 64.6337 70.5064C65.4211 70.4339 66.2344 69.6936 66.6474 67.4854C67.6236 62.267 69.5423 50.9602 69.9858 46.3009C70.0246 45.8927 69.9757 45.3703 69.9365 45.141C69.8973 44.9116 69.8152 44.5849 69.5171 44.343C69.1641 44.0565 68.6191 43.9961 68.3753 44.0002C67.2671 44.0199 65.5667 44.6112 57.3837 48.0148Z" fill="white"/>
</svg>
