<svg width="21" height="20" viewBox="0 0 21 20" fill="none" xmlns="http://www.w3.org/2000/svg">
<path d="M3.8335 9.99998C3.8335 6.85728 3.8335 5.28594 4.8098 4.30962C5.78612 3.33331 7.35746 3.33331 10.5002 3.33331C13.6428 3.33331 15.2142 3.33331 16.1905 4.30962C17.1668 5.28594 17.1668 6.85728 17.1668 9.99998C17.1668 13.1426 17.1668 14.7141 16.1905 15.6903C15.2142 16.6666 13.6428 16.6666 10.5002 16.6666C7.35746 16.6666 5.78612 16.6666 4.8098 15.6903C3.8335 14.7141 3.8335 13.1426 3.8335 9.99998Z" stroke="currentColor" stroke-width="1.5" stroke-linejoin="round"/>
<path d="M6.94369 13.5565C7.55389 14.1666 8.53598 14.1666 10.5002 14.1666C11.1583 14.1666 11.7062 14.1666 12.1668 14.1436L14.6438 11.6666C14.6668 11.2061 14.6668 10.6581 14.6668 9.99998C14.6668 8.0358 14.6668 7.0537 14.0567 6.4435C13.4464 5.83331 12.4643 5.83331 10.5002 5.83331C8.53598 5.83331 7.55389 5.83331 6.94369 6.4435C6.3335 7.0537 6.3335 8.0358 6.3335 9.99998C6.3335 11.9641 6.3335 12.9462 6.94369 13.5565Z" stroke="currentColor" stroke-width="1.5" stroke-linejoin="round"/>
<path d="M7.1665 1.66669V3.33335M13.8332 1.66669V3.33335M10.4998 1.66669V3.33335M7.1665 16.6667V18.3334M10.4998 16.6667V18.3334M13.8332 16.6667V18.3334M18.8332 13.3334H17.1665M3.83317 6.66669H2.1665M3.83317 13.3334H2.1665M3.83317 10H2.1665M18.8332 6.66669H17.1665M18.8332 10H17.1665" stroke="currentColor" stroke-width="1.5" stroke-linecap="round" stroke-linejoin="round"/>
</svg>
