<svg width="21" height="20" viewBox="0 0 21 20" fill="none" xmlns="http://www.w3.org/2000/svg">
<path d="M14.0523 8.75H6.94771C4.79643 8.75 3.72078 8.75 3.22619 9.4605C2.73161 10.171 3.0992 11.1882 3.83438 13.2225L4.73788 15.7225C5.12121 16.7832 5.31288 17.3136 5.74075 17.6151C6.16863 17.9167 6.72948 17.9167 7.85119 17.9167H13.1488C14.2705 17.9167 14.8313 17.9167 15.2593 17.6151C15.6871 17.3136 15.8788 16.7832 16.2622 15.7225L17.1656 13.2225C17.9008 11.1882 18.2684 10.171 17.7738 9.4605C17.2793 8.75 16.2036 8.75 14.0523 8.75Z" stroke="currentColor" stroke-width="1.5" stroke-linecap="square"/>
<path d="M16.3332 6.66669C16.3332 6.2784 16.3332 6.08426 16.2698 5.93112C16.1852 5.72693 16.0229 5.5647 15.8188 5.48012C15.6656 5.41669 15.4714 5.41669 15.0832 5.41669H5.9165C5.52822 5.41669 5.33408 5.41669 5.18094 5.48012C4.97675 5.5647 4.81451 5.72693 4.72994 5.93112C4.6665 6.08426 4.6665 6.2784 4.6665 6.66669" stroke="currentColor" stroke-width="1.5" stroke-linecap="round" stroke-linejoin="round"/>
<path d="M14.25 3.33331C14.25 2.94503 14.25 2.75089 14.1866 2.59775C14.102 2.39355 13.9397 2.23132 13.7356 2.14675C13.5824 2.08331 13.3882 2.08331 13 2.08331H8C7.61172 2.08331 7.41758 2.08331 7.26443 2.14675C7.06024 2.23132 6.89801 2.39355 6.81343 2.59775C6.75 2.75089 6.75 2.94503 6.75 3.33331" stroke="currentColor" stroke-width="1.5" stroke-linecap="round" stroke-linejoin="round"/>
</svg>
