<svg width="21" height="20" viewBox="0 0 21 20" fill="none" xmlns="http://www.w3.org/2000/svg">
<path d="M16.3333 8.01732C16.3333 10.1667 15.2752 11.8211 13.6652 12.9098C13.2902 13.1634 13.1027 13.2902 13.0102 13.4344C12.9177 13.5786 12.8861 13.7679 12.823 14.1465L12.7739 14.4407C12.6631 15.1059 12.6077 15.4384 12.3745 15.6359C12.1414 15.8334 11.8042 15.8334 11.1299 15.8334H8.95366C8.2794 15.8334 7.94224 15.8334 7.70912 15.6359C7.476 15.4384 7.42057 15.1059 7.30972 14.4407L7.26067 14.1465C7.19778 13.7692 7.16634 13.5805 7.07473 13.437C6.98313 13.2935 6.79523 13.1651 6.41943 12.9082C4.82658 11.8194 3.83333 10.1656 3.83333 8.01732C3.83333 4.51 6.63155 1.66675 10.0833 1.66675C10.5114 1.66675 10.9294 1.71048 11.3333 1.79378" stroke="currentColor" stroke-width="1.5" stroke-linecap="round" stroke-linejoin="round"/>
<path d="M14.25 1.66675L14.4649 2.24761C14.7468 3.00926 14.8877 3.3901 15.1655 3.66791C15.4433 3.94572 15.8242 4.08664 16.5858 4.36848L17.1667 4.58341L16.5858 4.79835C15.8242 5.08019 15.4433 5.22111 15.1655 5.49892C14.8877 5.77673 14.7468 6.15756 14.4649 6.91922L14.25 7.50008L14.0351 6.91922C13.7533 6.15756 13.6123 5.77673 13.3345 5.49892C13.0567 5.22111 12.6758 5.08019 11.9142 4.79835L11.3333 4.58341L11.9142 4.36848C12.6758 4.08664 13.0567 3.94572 13.3345 3.66791C13.6123 3.3901 13.7533 3.00926 14.0351 2.24761L14.25 1.66675Z" stroke="currentColor" stroke-width="1.5" stroke-linejoin="round"/>
<path d="M11.75 15.8333V16.6666C11.75 17.4523 11.75 17.8451 11.5059 18.0892C11.2618 18.3333 10.869 18.3333 10.0833 18.3333C9.29767 18.3333 8.90483 18.3333 8.66074 18.0892C8.41667 17.8451 8.41667 17.4523 8.41667 16.6666V15.8333" stroke="currentColor" stroke-width="1.5" stroke-linejoin="round"/>
</svg>
