<svg width="20" height="20" viewBox="0 0 20 20" fill="none" xmlns="http://www.w3.org/2000/svg">
<path d="M1.6665 9.16634C1.6665 6.41648 1.6665 5.04155 2.52078 4.18728C3.37505 3.33301 4.74998 3.33301 7.49984 3.33301H8.33317C11.083 3.33301 12.4579 3.33301 13.3123 4.18728C14.1665 5.04155 14.1665 6.41648 14.1665 9.16634V10.833C14.1665 13.5828 14.1665 14.9578 13.3123 15.8121C12.4579 16.6663 11.083 16.6663 8.33317 16.6663H7.49984C4.74998 16.6663 3.37505 16.6663 2.52078 15.8121C1.6665 14.9578 1.6665 13.5828 1.6665 10.833V9.16634Z" stroke="currentColor" stroke-width="1.5"/>
<path d="M14.1665 7.42187L14.2714 7.33529C16.0346 5.88052 16.9162 5.15313 17.6247 5.50434C18.3332 5.85556 18.3332 7.01995 18.3332 9.34874V10.6519C18.3332 12.9807 18.3332 14.1451 17.6247 14.4963C16.9162 14.8475 16.0346 14.1202 14.2714 12.6653L14.1665 12.5787" stroke="currentColor" stroke-width="1.5" stroke-linecap="round"/>
<path d="M9.5835 9.16699C10.2739 9.16699 10.8335 8.60735 10.8335 7.91699C10.8335 7.22664 10.2739 6.66699 9.5835 6.66699C8.89314 6.66699 8.3335 7.22664 8.3335 7.91699C8.3335 8.60735 8.89314 9.16699 9.5835 9.16699Z" stroke="currentColor" stroke-width="1.5"/>
</svg>
