<svg width="24" height="24" viewBox="0 0 24 24" fill="none" xmlns="http://www.w3.org/2000/svg">
<path d="M3 10.9873V15.4927C3 18.3245 3 19.7405 3.87868 20.6202C4.75736 21.5 6.17157 21.5 9 21.5H15C17.8284 21.5 19.2426 21.5 20.1213 20.6202C21 19.7405 21 18.3245 21 15.4927V10.9873" stroke="currentColor" stroke-width="1.5"/>
<path d="M15 16.9766C14.3159 17.5838 13.2268 17.9766 12 17.9766C10.7732 17.9766 9.68409 17.5838 9 16.9766" stroke="currentColor" stroke-width="1.5" stroke-linecap="round"/>
<path d="M17.7957 2.50318L6.14983 2.53226C4.41166 2.44272 3.966 3.78283 3.966 4.43792C3.966 5.02383 3.89055 5.87798 2.82524 7.48334C1.75993 9.0887 1.83998 9.5656 2.44071 10.6769C2.93928 11.5993 4.20741 11.9596 4.86862 12.0202C6.96883 12.068 7.99065 10.2519 7.99065 8.97547C9.03251 12.1827 11.9956 12.1827 13.3158 11.8159C14.6386 11.4485 15.7717 10.1333 16.0391 8.97547C16.195 10.4144 16.6682 11.254 18.0663 11.831C19.5145 12.4286 20.7599 11.5152 21.3848 10.9296C22.0097 10.3441 22.4107 9.04425 21.2968 7.61554C20.5286 6.63025 20.2084 5.70204 20.1033 4.74001C20.0423 4.18258 19.9888 3.5836 19.5972 3.20243C19.0248 2.64539 18.2036 2.47637 17.7957 2.50318Z" stroke="currentColor" stroke-width="1.5" stroke-linecap="round" stroke-linejoin="round"/>
</svg>
