<svg width="20" height="20" viewBox="0 0 20 20" fill="none" xmlns="http://www.w3.org/2000/svg">
<path d="M17.0832 14.1075V8.33366C17.0832 5.19096 17.0832 3.61962 16.1068 2.6433C15.1306 1.66699 13.5592 1.66699 10.4165 1.66699H9.58317C6.44047 1.66699 4.86913 1.66699 3.89281 2.6433C2.9165 3.61962 2.9165 5.19096 2.9165 8.33366V16.2503" stroke="currentColor" stroke-width="1.5" stroke-linecap="round"/>
<path d="M6.6665 2.5V5.57503C6.6665 6.19178 6.6665 6.50016 6.86493 6.61976C6.87347 6.62491 6.8822 6.62976 6.8911 6.63429C7.0978 6.73955 7.36754 6.58089 7.907 6.26358C8.31029 6.02637 8.51192 5.90776 8.73442 5.90372C8.74467 5.90354 8.755 5.90354 8.76525 5.90372C8.98775 5.90776 9.18942 6.02637 9.59267 6.26358C10.1322 6.58089 10.4018 6.73956 10.6086 6.63429C10.6175 6.62976 10.6262 6.62491 10.6348 6.61977C10.8332 6.50016 10.8332 6.19178 10.8332 5.57503V2.5" stroke="currentColor" stroke-width="1.5" stroke-linecap="round" stroke-linejoin="round"/>
<path d="M17.0832 14.167H4.99984C3.84925 14.167 2.9165 15.0997 2.9165 16.2503C2.9165 17.4009 3.84925 18.3337 4.99984 18.3337H17.0832" stroke="currentColor" stroke-width="1.5" stroke-linecap="round"/>
<path d="M17.0833 14.167C15.9327 14.167 15 15.0997 15 16.2503C15 17.4009 15.9327 18.3337 17.0833 18.3337" stroke="currentColor" stroke-width="1.5" stroke-linecap="round"/>
</svg>
