<svg width="20" height="20" viewBox="0 0 20 20" fill="none" xmlns="http://www.w3.org/2000/svg">
<path d="M4.31705 12.7473C3.26907 13.3616 0.521335 14.6158 2.19489 16.1853C3.01241 16.952 3.92291 17.5003 5.06763 17.5003H11.5997C12.7444 17.5003 13.6549 16.952 14.4724 16.1853C16.146 14.6158 13.3982 13.3616 12.3502 12.7473C9.89274 11.3069 6.77454 11.3069 4.31705 12.7473Z" stroke="currentColor" stroke-width="1.5" stroke-linecap="round" stroke-linejoin="round"/>
<path d="M11.6667 5.83333C11.6667 7.67428 10.1742 9.16667 8.33333 9.16667C6.49238 9.16667 5 7.67428 5 5.83333C5 3.99238 6.49238 2.5 8.33333 2.5C10.1742 2.5 11.6667 3.99238 11.6667 5.83333Z" stroke="currentColor" stroke-width="1.5"/>
<path d="M16.2503 3.33301V7.49967M18.3337 5.41634H14.167" stroke="currentColor" stroke-width="1.5" stroke-linecap="round" stroke-linejoin="round"/>
</svg>
