<svg  viewBox="0 0 16 16" fill="none" xmlns="http://www.w3.org/2000/svg">
<path d="M2.33301 6.33301V12.333C2.33301 12.6436 2.33301 12.7989 2.38375 12.9215C2.45141 13.0848 2.5812 13.2146 2.74455 13.2823C2.86707 13.333 3.02238 13.333 3.33301 13.333C3.64363 13.333 3.79895 13.333 3.92146 13.2823C4.08481 13.2146 4.2146 13.0848 4.28226 12.9215C4.33301 12.7989 4.33301 12.6436 4.33301 12.333V6.33301C4.33301 6.02238 4.33301 5.86707 4.28226 5.74455C4.2146 5.5812 4.08481 5.45141 3.92146 5.38375C3.79895 5.33301 3.64363 5.33301 3.33301 5.33301C3.02238 5.33301 2.86707 5.33301 2.74455 5.38375C2.5812 5.45141 2.45141 5.5812 2.38375 5.74455C2.33301 5.86707 2.33301 6.02238 2.33301 6.33301Z" stroke="currentColor" stroke-width="1.5" stroke-linecap="square" stroke-linejoin="round"/>
<path d="M7 3.66699V12.3333C7 12.6439 7 12.7993 7.05073 12.9218C7.1184 13.0851 7.2482 13.2149 7.41153 13.2826C7.53407 13.3333 7.6894 13.3333 8 13.3333C8.3106 13.3333 8.46593 13.3333 8.58847 13.2826C8.7518 13.2149 8.8816 13.0851 8.94927 12.9218C9 12.7993 9 12.6439 9 12.3333V3.66699C9 3.35637 9 3.20105 8.94927 3.07854C8.8816 2.91519 8.7518 2.7854 8.58847 2.71774C8.46593 2.66699 8.3106 2.66699 8 2.66699C7.6894 2.66699 7.53407 2.66699 7.41153 2.71774C7.2482 2.7854 7.1184 2.91519 7.05073 3.07854C7 3.20105 7 3.35637 7 3.66699Z" stroke="currentColor" stroke-width="1.5" stroke-linecap="square" stroke-linejoin="round"/>
<path d="M11.667 8.33301V12.333C11.667 12.6436 11.667 12.7989 11.7177 12.9215C11.7854 13.0848 11.9152 13.2146 12.0785 13.2823C12.2011 13.333 12.3564 13.333 12.667 13.333C12.9776 13.333 13.1329 13.333 13.2555 13.2823C13.4188 13.2146 13.5486 13.0848 13.6163 12.9215C13.667 12.7989 13.667 12.6436 13.667 12.333V8.33301C13.667 8.02241 13.667 7.86707 13.6163 7.74454C13.5486 7.58121 13.4188 7.45141 13.2555 7.38374C13.1329 7.33301 12.9776 7.33301 12.667 7.33301C12.3564 7.33301 12.2011 7.33301 12.0785 7.38374C11.9152 7.45141 11.7854 7.58121 11.7177 7.74454C11.667 7.86707 11.667 8.02241 11.667 8.33301Z" stroke="currentColor" stroke-width="1.5" stroke-linecap="square" stroke-linejoin="round"/>
</svg>
