<svg width="20" height="20" viewBox="0 0 20 20" fill="none" xmlns="http://www.w3.org/2000/svg">
<g clip-path="url(#clip0_921_3326)">
<path d="M7.22656 11.9412C7.22656 13.0162 8.05156 13.8828 9.07658 13.8828H11.1682C12.0599 13.8828 12.7849 13.1245 12.7849 12.1912C12.7849 11.1745 12.3432 10.8162 11.6849 10.5828L8.32655 9.41618C7.66822 9.18284 7.22656 8.82451 7.22656 7.80788C7.22656 6.87454 7.95155 6.11621 8.84325 6.11621H10.9349C11.9599 6.11621 12.7849 6.98288 12.7849 8.05788" stroke="currentColor" stroke-width="1.5" stroke-linecap="round" stroke-linejoin="round"/>
<path d="M10 5V15" stroke="currentColor" stroke-width="1.5" stroke-linecap="round" stroke-linejoin="round"/>
<path d="M10.0003 18.3337C14.6027 18.3337 18.3337 14.6027 18.3337 10.0003C18.3337 5.39795 14.6027 1.66699 10.0003 1.66699C5.39795 1.66699 1.66699 5.39795 1.66699 10.0003C1.66699 14.6027 5.39795 18.3337 10.0003 18.3337Z" stroke="currentColor" stroke-width="1.5" stroke-linecap="round" stroke-linejoin="round"/>
</g>
<defs>
<clipPath id="clip0_921_3326">
<rect width="20" height="20" fill="white"/>
</clipPath>
</defs>
</svg>
