<svg width="20" height="20" viewBox="0 0 20 20" fill="none" xmlns="http://www.w3.org/2000/svg">
<path d="M5.55572 16.2497H6.66683V17.4997C6.66683 17.9599 6.29373 18.333 5.8335 18.333H4.16683C3.7066 18.333 3.3335 17.9599 3.3335 17.4997V14.1663C3.3335 13.7061 3.7066 13.333 4.16683 13.333H5.8335C6.29373 13.333 6.66683 13.7061 6.66683 14.1663M9.16683 13.333H10.4168M10.4168 13.333H11.6668M10.4168 13.333V18.333M10.4168 18.333H9.16683M10.4168 18.333H11.6668M16.6668 13.333H15.0002C14.5399 13.333 14.1668 13.7061 14.1668 14.1663V15.833M14.1668 15.833V18.333M14.1668 15.833H16.2502" stroke="#B0B0B0" stroke-width="1.5" stroke-linecap="round" stroke-linejoin="round"/>
<path d="M16.6668 10.8337V8.88108C16.6668 8.19978 16.6668 7.85916 16.54 7.55288C16.4131 7.24659 16.1722 7.00573 15.6905 6.52402L11.7434 2.57689C11.3277 2.16116 11.1198 1.95328 10.8622 1.83012C10.8087 1.80449 10.7538 1.78176 10.6978 1.762C10.4286 1.66699 10.1347 1.66699 9.54666 1.66699C6.84251 1.66699 5.49042 1.66699 4.5746 2.40538C4.38959 2.55456 4.22106 2.72308 4.07189 2.9081C3.3335 3.82392 3.3335 5.17601 3.3335 7.88019V10.8337M10.8335 2.08366V2.50033C10.8335 4.85735 10.8335 6.03586 11.5657 6.76809C12.298 7.50033 13.4765 7.50033 15.8335 7.50033H16.2502" stroke="#B0B0B0" stroke-width="1.5" stroke-linecap="round" stroke-linejoin="round"/>
</svg>
