<svg  viewBox="0 0 16 16" fill="none" xmlns="http://www.w3.org/2000/svg">
<path d="M12.667 6.41347C12.667 8.13294 11.8205 9.45647 10.5325 10.3275C10.2325 10.5303 10.0825 10.6318 10.0085 10.7471C9.93446 10.8625 9.90919 11.0139 9.85873 11.3168L9.81946 11.5522C9.73079 12.0843 9.68646 12.3503 9.49993 12.5083C9.31346 12.6663 9.04373 12.6663 8.50426 12.6663H6.76326C6.22385 12.6663 5.95412 12.6663 5.76763 12.5083C5.58113 12.3503 5.53679 12.0843 5.4481 11.5522L5.40887 11.3168C5.35855 11.0149 5.3334 10.864 5.26011 10.7492C5.18683 10.6344 5.03651 10.5317 4.73587 10.3261C3.46159 9.45514 2.66699 8.13207 2.66699 6.41347C2.66699 3.60761 4.90557 1.33301 7.66699 1.33301C8.00946 1.33301 8.34386 1.36799 8.66699 1.43463" stroke="currentColor" stroke-width="1.5" stroke-linecap="round" stroke-linejoin="round"/>
<path d="M11.0003 1.33301L11.1723 1.79769C11.3977 2.40702 11.5105 2.71169 11.7327 2.93393C11.955 3.15619 12.2597 3.26892 12.869 3.49439L13.3337 3.66634L12.869 3.83829C12.2597 4.06376 11.955 4.1765 11.7327 4.39875C11.5105 4.62099 11.3977 4.92566 11.1723 5.53499L11.0003 5.99967L10.8284 5.53499C10.6029 4.92566 10.4902 4.62099 10.2679 4.39875C10.0457 4.1765 9.74099 4.06376 9.13166 3.83829L8.66699 3.66634L9.13166 3.49439C9.74099 3.26892 10.0457 3.15619 10.2679 2.93393C10.4902 2.71169 10.6029 2.40702 10.8284 1.79769L11.0003 1.33301Z" stroke="currentColor" stroke-width="1.5" stroke-linejoin="round"/>
<path d="M8.99967 12.667V13.3337C8.99967 13.9622 8.99967 14.2765 8.80441 14.4717C8.60914 14.667 8.29487 14.667 7.66634 14.667C7.03781 14.667 6.72354 14.667 6.52827 14.4717C6.33301 14.2765 6.33301 13.9622 6.33301 13.3337V12.667" stroke="currentColor" stroke-width="1.5" stroke-linejoin="round"/>
</svg>
