<svg width="20" height="20" viewBox="0 0 20 20" fill="none" xmlns="http://www.w3.org/2000/svg">
<g clip-path="url(#clip0_921_4595)">
<path d="M9.99984 18.3337V5.00033C9.99984 3.42898 9.99984 2.6433 9.51167 2.15515C9.0235 1.66699 8.23785 1.66699 6.6665 1.66699H4.99984C3.42849 1.66699 2.64281 1.66699 2.15466 2.15515C1.6665 2.6433 1.6665 3.42898 1.6665 5.00033V15.0003C1.6665 16.5717 1.6665 17.3573 2.15466 17.8455C2.64281 18.3337 3.42849 18.3337 4.99984 18.3337H9.99984Z" stroke="#B0B0B0" stroke-width="1.5"/>
<path d="M10 18.3337H15C16.5713 18.3337 17.357 18.3337 17.8452 17.8455C18.3333 17.3573 18.3333 16.5717 18.3333 15.0003V10.0003C18.3333 8.42899 18.3333 7.6433 17.8452 7.15515C17.357 6.66699 16.5713 6.66699 15 6.66699H10" stroke="#B0B0B0" stroke-width="1.5"/>
<path d="M15.4165 13.3333H12.9165M15.4165 10H12.9165" stroke="#B0B0B0" stroke-width="1.5" stroke-linecap="round"/>
<path d="M7.0835 11.6667H4.5835M7.0835 8.33333H4.5835M7.0835 5H4.5835" stroke="#B0B0B0" stroke-width="1.5" stroke-linecap="round"/>
</g>
<defs>
<clipPath id="clip0_921_4595">
<rect width="20" height="20" fill="white"/>
</clipPath>
</defs>
</svg>
