<svg width="20" height="20" viewBox="0 0 20 20" fill="none" xmlns="http://www.w3.org/2000/svg">
<g clip-path="url(#clip0_921_3307)">
<path d="M18.2641 8.74998C18.2796 8.87965 18.2916 9.01048 18.3002 9.14223C18.3448 9.83407 18.3448 10.5506 18.3002 11.2424C18.0717 14.7777 15.295 17.5937 11.8092 17.8254C10.6199 17.9045 9.37835 17.9043 8.19149 17.8254C7.78279 17.7982 7.33732 17.7007 6.95367 17.5427C6.5268 17.3669 6.31332 17.279 6.20486 17.2923C6.09638 17.3057 5.93899 17.4217 5.62422 17.6538C5.06922 18.0631 4.37005 18.3571 3.33318 18.3318C2.80887 18.3191 2.54672 18.3127 2.42936 18.1126C2.312 17.9125 2.45817 17.6355 2.7505 17.0815C3.15594 16.3132 3.41283 15.4336 3.02358 14.7288C2.35318 13.7222 1.78374 12.53 1.70052 11.2424C1.65582 10.5506 1.65582 9.83407 1.70052 9.14223C1.929 5.60699 4.70565 2.79094 8.19149 2.55923C9.19352 2.49262 10.2347 2.48213 11.2503 2.52807" stroke="currentColor" stroke-width="1.5" stroke-linecap="round" stroke-linejoin="round"/>
<path d="M7.08301 12.4997H12.9164M7.08301 8.33301H9.16637" stroke="currentColor" stroke-width="1.5" stroke-linecap="round" stroke-linejoin="round"/>
<path d="M17.3905 2.0331L17.9675 2.61008C18.4557 3.09823 18.4557 3.88969 17.9675 4.37785L14.9447 7.45756C14.7069 7.69535 14.4027 7.85565 14.0722 7.9174L12.1987 8.3241C11.9029 8.3883 11.6395 8.12567 11.7029 7.8297L12.1016 5.96693C12.1634 5.63635 12.3237 5.33219 12.5614 5.0944L15.6228 2.0331C16.1109 1.54495 16.9024 1.54495 17.3905 2.0331Z" stroke="currentColor" stroke-width="1.5" stroke-linecap="round" stroke-linejoin="round"/>
</g>
<defs>
<clipPath id="clip0_921_3307">
<rect width="20" height="20" fill="white"/>
</clipPath>
</defs>
</svg>
