<svg viewBox="0 0 16 16" fill="none" xmlns="http://www.w3.org/2000/svg">
<g clip-path="url(#clip0_921_2811)">
<path d="M5.66699 9.66634H10.3337M5.66699 6.33301H8.00033" stroke="currentColor" stroke-width="1.5" stroke-linecap="round" stroke-linejoin="round"/>
<path d="M9.44674 13.9273C12.2354 13.742 14.4567 11.4891 14.6395 8.66093C14.6753 8.10746 14.6753 7.53426 14.6395 6.98079C14.4567 4.15258 12.2354 1.89975 9.44674 1.71437C8.49534 1.65113 7.50207 1.65127 6.55261 1.71437C3.76393 1.89975 1.54261 4.15258 1.35983 6.98079C1.32407 7.53426 1.32407 8.10746 1.35983 8.66093C1.42641 9.69099 1.88196 10.6447 2.41828 11.4501C2.72968 12.0139 2.52417 12.7175 2.19981 13.3322C1.96595 13.7754 1.84901 13.997 1.9429 14.1571C2.03679 14.3171 2.24651 14.3223 2.66596 14.3325C3.49545 14.3527 4.05479 14.1175 4.49879 13.7901C4.75061 13.6044 4.87652 13.5115 4.9633 13.5009C5.05007 13.4902 5.22085 13.5605 5.56235 13.7012C5.86927 13.8276 6.22565 13.9056 6.55261 13.9273C7.50207 13.9905 8.49534 13.9906 9.44674 13.9273Z" stroke="currentColor" stroke-width="1.5" stroke-linejoin="round"/>
</g>
<defs>
<clipPath id="clip0_921_2811">
<rect width="16" height="16" fill="white"/>
</clipPath>
</defs>
</svg>
