<svg width="20" height="20" viewBox="0 0 20 20" fill="none" xmlns="http://www.w3.org/2000/svg">
<path d="M16.6668 18.334V14.1673C16.6668 12.596 16.6668 11.8103 16.1787 11.3222C15.6905 10.834 14.9048 10.834 13.3335 10.834L10.0002 18.334L6.66683 10.834C5.09548 10.834 4.3098 10.834 3.82165 11.3222C3.3335 11.8103 3.3335 12.596 3.3335 14.1673V18.334" stroke="#B0B0B0" stroke-width="1.5" stroke-linecap="round" stroke-linejoin="round"/>
<path d="M9.99984 12.4997L9.58317 15.833L9.99984 17.083L10.4165 15.833L9.99984 12.4997ZM9.99984 12.4997L9.1665 10.833H10.8332L9.99984 12.4997Z" stroke="#B0B0B0" stroke-width="1.5" stroke-linecap="round" stroke-linejoin="round"/>
<path d="M12.9168 5.41699V4.58366C12.9168 2.97283 11.611 1.66699 10.0002 1.66699C8.38933 1.66699 7.0835 2.97283 7.0835 4.58366V5.41699C7.0835 7.02783 8.38933 8.33364 10.0002 8.33364C11.611 8.33364 12.9168 7.02783 12.9168 5.41699Z" stroke="#B0B0B0" stroke-width="1.5" stroke-linecap="round" stroke-linejoin="round"/>
</svg>
