<svg width="20" height="20" viewBox="0 0 20 20" fill="none" xmlns="http://www.w3.org/2000/svg">
<path d="M15.9932 7.86733L14.3554 6.22383C13.1753 5.03967 12.7128 4.40265 12.0738 4.62785C11.2771 4.90865 11.5393 6.68044 11.5393 7.2786C10.3006 7.2786 9.01267 7.1685 7.79154 7.3979C3.76049 8.15521 2.5 11.4291 2.5 14.9997C3.64092 14.1915 4.78069 13.3305 6.15194 12.956C7.86364 12.4884 9.77533 12.7115 11.5393 12.7115C11.5393 13.3097 11.2771 15.0815 12.0738 15.3623C12.7979 15.6174 13.1753 14.9504 14.3554 13.7663L15.9932 12.1228C16.9977 11.1147 17.5 10.6107 17.5 9.99509C17.5 9.37951 16.9977 8.87543 15.9932 7.86733Z" stroke="currentColor" stroke-width="1.5" stroke-linecap="round" stroke-linejoin="round"/>
</svg>
