<svg width="20" height="20" viewBox="0 0 20 20" fill="none" xmlns="http://www.w3.org/2000/svg">
<g clip-path="url(#clip0_921_3293)">
<path d="M11.44 2.87047L12.9065 5.82772C13.1065 6.23938 13.6397 6.63424 14.0897 6.70985L16.7477 7.15511C18.4476 7.44076 18.8476 8.68416 17.6227 9.91074L15.5562 11.9942C15.2062 12.3471 15.0147 13.0276 15.1229 13.5149L15.7146 16.0941C16.1812 18.1356 15.1062 18.9253 13.3148 17.8583L10.8234 16.3713C10.3735 16.1025 9.63191 16.1025 9.17357 16.3713L6.68222 17.8583C4.89907 18.9253 3.81587 18.1272 4.28248 16.0941L4.87408 13.5149C4.9824 13.0276 4.79076 12.3471 4.44079 11.9942L2.37436 9.91074C1.15782 8.68416 1.54945 7.44076 3.24926 7.15511L5.9073 6.70985C6.34892 6.63424 6.88219 6.23938 7.08217 5.82772L8.54866 2.87047C9.34857 1.26583 10.6484 1.26583 11.44 2.87047Z" stroke="currentColor" stroke-width="1.5" stroke-linecap="round" stroke-linejoin="round"/>
</g>
<defs>
<clipPath id="clip0_921_3293">
<rect width="20" height="20" fill="white"/>
</clipPath>
</defs>
</svg>
