<svg width="20" height="20" viewBox="0 0 20 20" fill="none" xmlns="http://www.w3.org/2000/svg">
<g clip-path="url(#clip0_516_3754)">
<path d="M4.1665 17.4999C7.67482 13.5405 11.6175 8.28947 17.4998 12.2277" stroke="currentColor" stroke-width="1.5"/>
<path d="M11.6665 2.50193C11.2748 2.5 10.0254 2.5 9.58317 2.5C5.85122 2.5 3.98525 2.5 2.82587 3.65937C1.6665 4.81874 1.6665 6.68472 1.6665 10.4167C1.6665 14.1486 1.6665 16.0146 2.82587 17.174C3.98525 18.3333 5.85122 18.3333 9.58317 18.3333C13.3151 18.3333 15.1811 18.3333 16.3405 17.174C17.4558 16.0586 17.4982 14.2892 17.4998 10.8333" stroke="currentColor" stroke-width="1.5" stroke-linecap="round"/>
<path d="M14.1665 6.25008C14.5761 6.6715 15.6663 8.33341 16.2498 8.33341M16.2498 8.33341C16.8333 8.33341 17.9236 6.6715 18.3332 6.25008M16.2498 8.33341V1.66675" stroke="currentColor" stroke-width="1.5" stroke-linecap="round" stroke-linejoin="round"/>
</g>
<defs>
<clipPath id="clip0_516_3754">
<rect width="20" height="20" fill="white"/>
</clipPath>
</defs>
</svg>
