<svg width="20" height="20" viewBox="0 0 20 20" fill="none" xmlns="http://www.w3.org/2000/svg">
<g clip-path="url(#clip0_516_3747)">
<path d="M5.83366 5.00049C4.81646 5.00354 4.25351 5.02787 3.79093 5.22203C3.14299 5.49399 2.61533 5.99635 2.30708 6.63474C2.05547 7.1558 2.01431 7.82341 1.93196 9.15861L1.80292 11.2509C1.59815 14.5712 1.49576 16.2314 2.47006 17.2824C3.44436 18.3334 5.08576 18.3334 8.36859 18.3334H11.6321C14.9149 18.3334 16.5563 18.3334 17.5306 17.2824C18.5049 16.2314 18.4025 14.5712 18.1978 11.2509L18.0687 9.15861C17.9863 7.82341 17.9452 7.1558 17.6936 6.63474C17.3853 5.99635 16.8577 5.49399 16.2098 5.22203C15.7472 5.02787 15.1842 5.00354 14.167 5.00049" stroke="currentColor" stroke-width="1.5" stroke-linecap="round"/>
<path d="M14.1668 5.83341L13.4287 3.98794C13.1102 3.19171 12.833 2.2885 12.014 1.88304C11.5772 1.66675 11.0515 1.66675 10.0002 1.66675C8.94883 1.66675 8.42316 1.66675 7.98629 1.88304C7.16733 2.2885 6.89017 3.19171 6.57169 3.98794L5.8335 5.83341" stroke="currentColor" stroke-width="1.5" stroke-linecap="round" stroke-linejoin="round"/>
<path d="M12.9168 11.6667C12.9168 13.2775 11.611 14.5833 10.0002 14.5833C8.38933 14.5833 7.0835 13.2775 7.0835 11.6667C7.0835 10.0558 8.38933 8.75 10.0002 8.75C11.611 8.75 12.9168 10.0558 12.9168 11.6667Z" stroke="currentColor" stroke-width="1.5"/>
<path d="M10 5H10.0075" stroke="currentColor" stroke-width="2" stroke-linecap="round" stroke-linejoin="round"/>
</g>
<defs>
<clipPath id="clip0_516_3747">
<rect width="20" height="20" fill="white"/>
</clipPath>
</defs>
</svg>
