<svg  viewBox="0 0 16 16" fill="none" xmlns="http://www.w3.org/2000/svg">
<path d="M1.33301 7.33366C1.33301 5.13377 1.33301 4.03383 2.01643 3.35041C2.69984 2.66699 3.79979 2.66699 5.99967 2.66699H6.66634C8.86621 2.66699 9.96614 2.66699 10.6496 3.35041C11.333 4.03383 11.333 5.13377 11.333 7.33366V8.66699C11.333 10.8669 11.333 11.9668 10.6496 12.6503C9.96614 13.3337 8.86621 13.3337 6.66634 13.3337H5.99967C3.79979 13.3337 2.69984 13.3337 2.01643 12.6503C1.33301 11.9668 1.33301 10.8669 1.33301 8.66699V7.33366Z" stroke="currentColor" stroke-width="1.5"/>
<path d="M11.333 5.93691L11.4169 5.86765C12.8275 4.70383 13.5327 4.12192 14.0995 4.40289C14.6663 4.68386 14.6663 5.61538 14.6663 7.47841V8.52094C14.6663 10.384 14.6663 11.3155 14.0995 11.5965C13.5327 11.8774 12.8275 11.2955 11.4169 10.1317L11.333 10.0624" stroke="currentColor" stroke-width="1.5" stroke-linecap="round"/>
<path d="M7.66699 7.33301C8.21928 7.33301 8.66699 6.88529 8.66699 6.33301C8.66699 5.78072 8.21928 5.33301 7.66699 5.33301C7.11471 5.33301 6.66699 5.78072 6.66699 6.33301C6.66699 6.88529 7.11471 7.33301 7.66699 7.33301Z" stroke="currentColor" stroke-width="1.5"/>
</svg>
