<svg  viewBox="0 0 17 16" fill="none" xmlns="http://www.w3.org/2000/svg">
<path d="M8.5 14.6667C7.95453 14.6667 7.43347 14.4465 6.39129 14.0063C3.79709 12.9105 2.5 12.3625 2.5 11.4409C2.5 11.1828 2.5 6.70966 2.5 4.66666M8.5 14.6667C9.04547 14.6667 9.56653 14.4465 10.6087 14.0063C13.2029 12.9105 14.5 12.3625 14.5 11.4409V4.66666M8.5 14.6667V7.56986" stroke="currentColor" stroke-width="1.5" stroke-linecap="round" stroke-linejoin="round"/>
<path d="M6.05061 6.46093L4.10315 5.51858C3.03438 5.00141 2.5 4.74283 2.5 4.33334C2.5 3.92386 3.03438 3.66528 4.10315 3.14811L6.05061 2.20576C7.25253 1.62415 7.85353 1.33334 8.5 1.33334C9.14647 1.33334 9.74747 1.62414 10.9494 2.20576L12.8969 3.14811C13.9656 3.66528 14.5 3.92386 14.5 4.33334C14.5 4.74283 13.9656 5.00141 12.8969 5.51858L10.9494 6.46093C9.74747 7.04254 9.14647 7.33334 8.5 7.33334C7.85353 7.33334 7.25253 7.04254 6.05061 6.46093Z" stroke="currentColor" stroke-width="1.5" stroke-linecap="round" stroke-linejoin="round"/>
<path d="M4.5 8L5.83333 8.66667" stroke="currentColor" stroke-width="1.5" stroke-linecap="round" stroke-linejoin="round"/>
<path d="M11.8334 2.66666L5.16675 5.99999" stroke="currentColor" stroke-width="1.5" stroke-linecap="round" stroke-linejoin="round"/>
</svg>
