<svg width="17" height="16" viewBox="0 0 17 16" fill="none" xmlns="http://www.w3.org/2000/svg">
<path d="M5.83301 10.6667L11.6464 10.1822C13.4654 10.0307 13.8737 9.63333 14.0753 7.81927L14.4997 4" stroke="currentColor" stroke-width="1.5" stroke-linecap="round"/>
<path d="M4.5 4H15.1667" stroke="currentColor" stroke-width="1.5" stroke-linecap="round"/>
<path d="M4.50033 14.6667C5.23671 14.6667 5.83366 14.0697 5.83366 13.3333C5.83366 12.597 5.23671 12 4.50033 12C3.76395 12 3.16699 12.597 3.16699 13.3333C3.16699 14.0697 3.76395 14.6667 4.50033 14.6667Z" stroke="currentColor" stroke-width="1.5"/>
<path d="M11.8333 14.6667C12.5697 14.6667 13.1667 14.0697 13.1667 13.3333C13.1667 12.597 12.5697 12 11.8333 12C11.097 12 10.5 12.597 10.5 13.3333C10.5 14.0697 11.097 14.6667 11.8333 14.6667Z" stroke="currentColor" stroke-width="1.5"/>
<path d="M5.83301 13.3334H10.4997" stroke="currentColor" stroke-width="1.5" stroke-linecap="round"/>
<path d="M1.83301 1.33337H2.47701C3.10679 1.33337 3.65577 1.74977 3.80851 2.34333L5.79202 10.051C5.89225 10.4406 5.80647 10.8532 5.5585 11.1744L4.92109 12" stroke="currentColor" stroke-width="1.5" stroke-linecap="round"/>
</svg>
