<svg viewBox="0 0 16 16" fill="none" xmlns="http://www.w3.org/2000/svg">
<path d="M12.4055 13.3327H12.7323C13.4989 13.3327 14.1086 12.9834 14.6561 12.4951C16.0468 11.2544 12.7775 9.99934 11.6615 9.99934M10.3281 3.37852C10.4795 3.34849 10.6367 3.33267 10.798 3.33267C12.0113 3.33267 12.9948 4.22811 12.9948 5.33267C12.9948 6.43724 12.0113 7.33267 10.798 7.33267C10.6367 7.33267 10.4795 7.31687 10.3281 7.28681" stroke="currentColor" stroke-width="1.5" stroke-linecap="round"/>
<path d="M2.98949 10.7404C2.20351 11.1616 0.142712 12.0216 1.39787 13.0978C2.01101 13.6236 2.69389 13.9996 3.55243 13.9996H8.45149C9.31002 13.9996 9.99289 13.6236 10.606 13.0978C11.8612 12.0216 9.80042 11.1616 9.01442 10.7404C7.17129 9.75264 4.83261 9.75264 2.98949 10.7404Z" stroke="currentColor" stroke-width="1.5"/>
<path d="M8.66732 5.0001C8.66732 6.47286 7.47338 7.66677 6.00065 7.66677C4.52789 7.66677 3.33398 6.47286 3.33398 5.0001C3.33398 3.52734 4.52789 2.33344 6.00065 2.33344C7.47338 2.33344 8.66732 3.52734 8.66732 5.0001Z" stroke="currentColor" stroke-width="1.5"/>
</svg>
