<svg width="20" height="20" viewBox="0 0 20 20" fill="none" xmlns="http://www.w3.org/2000/svg">
<g clip-path="url(#clip0_1412_1217)">
<path d="M8.71367 2.19945C9.42375 1.48821 10.5763 1.48821 11.2863 2.19945L12.1275 3.04195C12.4688 3.38384 12.9322 3.57578 13.4153 3.57538L14.6058 3.57441C15.6108 3.57359 16.4258 4.38853 16.4249 5.39356L16.424 6.58406C16.4236 7.06717 16.6155 7.53056 16.9574 7.87189L17.7999 8.71301C18.5112 9.4231 18.5112 10.5756 17.7999 11.2857L16.9574 12.1268C16.6155 12.4681 16.4236 12.9315 16.424 13.4146L16.4249 14.6051C16.4258 15.6102 15.6108 16.4251 14.6058 16.4243L13.4153 16.4233C12.9322 16.4229 12.4688 16.6148 12.1275 16.9568L11.2863 17.7993C10.5763 18.5105 9.42375 18.5105 8.71367 17.7993L7.87254 16.9568C7.53121 16.6148 7.06783 16.4229 6.58472 16.4233L5.39422 16.4243C4.38919 16.4251 3.57424 15.6102 3.57506 14.6051L3.57604 13.4146C3.57644 12.9315 3.38449 12.4681 3.0426 12.1268L2.2001 11.2857C1.48886 10.5756 1.48886 9.4231 2.2001 8.71301L3.0426 7.87189C3.38449 7.53056 3.57644 7.06717 3.57604 6.58406L3.57506 5.39356C3.57424 4.38853 4.38919 3.57359 5.39422 3.57441L6.58472 3.57538C7.06783 3.57578 7.53121 3.38384 7.87254 3.04195L8.71367 2.19945Z" stroke="white" stroke-width="1.5"/>
<path d="M8.33333 7.50065C8.33333 6.58018 9.0795 5.83398 10 5.83398C10.9205 5.83398 11.6667 6.58018 11.6667 7.50065C11.6667 7.83244 11.5697 8.14159 11.4026 8.40132C10.9045 9.1754 10 9.91348 10 10.834V11.2507" stroke="white" stroke-width="1.5" stroke-linecap="round"/>
<path d="M9.99333 14.166H10.0008" stroke="white" stroke-width="2" stroke-linecap="round" stroke-linejoin="round"/>
</g>
<defs>
<clipPath id="clip0_1412_1217">
<rect width="20" height="20" fill="white"/>
</clipPath>
</defs>
</svg>
