<svg viewBox="0 0 20 20" fill="currentColor" xmlns="http://www.w3.org/2000/svg">
<path d="M11.4419 2.87096L12.9084 5.82821C13.1084 6.23987 13.6417 6.63473 14.0917 6.71034L16.7497 7.1556C18.4495 7.44125 18.8495 8.68464 17.6246 9.91123L15.5582 11.9947C15.2082 12.3476 15.0166 13.0281 15.1249 13.5154L15.7165 16.0946C16.1831 18.1361 15.1082 18.9258 13.3168 17.8588L10.8254 16.3718C10.3754 16.103 9.63386 16.103 9.17553 16.3718L6.68417 17.8588C4.90103 18.9258 3.81782 18.1276 4.28444 16.0946L4.87604 13.5154C4.98435 13.0281 4.79271 12.3476 4.44274 11.9947L2.37631 9.91123C1.15978 8.68464 1.5514 7.44125 3.25121 7.1556L5.90925 6.71034C6.35087 6.63473 6.88414 6.23987 7.08412 5.82821L8.55061 2.87096C9.35053 1.26632 10.6504 1.26632 11.4419 2.87096Z" stroke="currentColor" stroke-width="1.00667" stroke-linecap="round" stroke-linejoin="round"/>
</svg>
