<svg width="16" height="16" viewBox="0 0 16 16" fill="none" xmlns="http://www.w3.org/2000/svg">
<g clip-path="url(#clip0_817_15492)">
<path d="M7.99999 14.6667C4.31809 14.6667 1.33333 11.6819 1.33333 8.00004C1.33333 6.13835 2.09643 4.45489 3.32691 3.24539M7.99999 14.6667C7.35799 14.191 7.46046 13.637 7.78253 13.0832C8.27773 12.2316 8.27773 12.2316 8.27773 11.0963C8.27773 9.96097 8.95239 9.42864 11.3333 9.90477C12.4031 10.1188 13.1827 8.64064 14.5715 9.12871M7.99999 14.6667C11.2972 14.6667 14.0353 12.2731 14.5715 9.12871M3.32691 3.24539C3.8931 3.30514 4.21011 3.60847 4.73663 4.16481C5.73626 5.22105 6.73586 5.30919 7.40233 4.95711C8.40193 4.42899 7.56193 3.57357 8.73513 3.10869C9.45439 2.82371 9.59146 2.07737 9.25106 1.45057M3.32691 3.24539C4.52996 2.06285 6.17979 1.33337 7.99999 1.33337C8.42759 1.33337 8.84579 1.37363 9.25106 1.45057M14.5715 9.12871C14.6341 8.76184 14.6667 8.38477 14.6667 8.00004C14.6667 4.74575 12.3349 2.03607 9.25106 1.45057" stroke="white" stroke-width="1.5" stroke-linejoin="round"/>
</g>
<defs>
<clipPath id="clip0_817_15492">
<rect width="16" height="16" fill="white"/>
</clipPath>
</defs>
</svg>
