<svg viewBox="0 0 17 16" fill="none" xmlns="http://www.w3.org/2000/svg">
<path d="M9.83325 14H11.1666M9.83325 14C9.28099 14 8.83325 13.5523 8.83325 13V11.3334H8.49992M9.83325 14H7.16659M8.49992 11.3334H8.16659V13C8.16659 13.5523 7.71885 14 7.16659 14M8.49992 11.3334V14M7.16659 14H5.83325" stroke="currentColor" stroke-width="1.5" stroke-linecap="round" stroke-linejoin="round"/>
<path d="M11.1666 2H5.83325C3.94763 2 3.00483 2 2.41904 2.58579C1.83325 3.17157 1.83325 4.11438 1.83325 6V7.33333C1.83325 9.21893 1.83325 10.1617 2.41904 10.7475C3.00483 11.3333 3.94763 11.3333 5.83325 11.3333H11.1666C13.0522 11.3333 13.995 11.3333 14.5808 10.7475C15.1666 10.1617 15.1666 9.21893 15.1666 7.33333V6C15.1666 4.11438 15.1666 3.17157 14.5808 2.58579C13.995 2 13.0522 2 11.1666 2Z" stroke="currentColor" stroke-width="1.5" stroke-linecap="round" stroke-linejoin="round"/>
<path d="M10.2174 6.15663L7.95941 4.74537C7.87708 4.69391 7.78195 4.66663 7.68481 4.66663C7.39868 4.66663 7.16675 4.89858 7.16675 5.18471V8.14856C7.16675 8.43469 7.39868 8.66663 7.68481 8.66663C7.78195 8.66663 7.87708 8.63936 7.95941 8.58789L10.2174 7.17663C10.3933 7.06669 10.5001 6.87396 10.5001 6.66663C10.5001 6.45927 10.3933 6.26653 10.2174 6.15663Z" stroke="currentColor" stroke-width="1.5" stroke-linecap="round" stroke-linejoin="round"/>
</svg>
