<svg viewBox="0 0 16 16" fill="none" xmlns="http://www.w3.org/2000/svg">
<g clip-path="url(#clip0_2016_4861)">
<path d="M6.97085 1.76C7.53892 1.191 8.46092 1.191 9.02898 1.76L9.70192 2.434C9.97492 2.70751 10.3457 2.86106 10.7321 2.86074L11.6845 2.85996C12.4886 2.85931 13.1405 3.51126 13.1398 4.31529L13.1391 5.26769C13.1388 5.65418 13.2923 6.02488 13.5658 6.29795L14.2398 6.97085C14.8088 7.53892 14.8088 8.46092 14.2398 9.02898L13.5658 9.70192C13.2923 9.97492 13.1388 10.3457 13.1391 10.7321L13.1398 11.6845C13.1405 12.4886 12.4886 13.1405 11.6845 13.1398L10.7321 13.1391C10.3457 13.1388 9.97492 13.2923 9.70192 13.5658L9.02898 14.2398C8.46092 14.8088 7.53892 14.8088 6.97085 14.2398L6.29795 13.5658C6.02488 13.2923 5.65418 13.1388 5.26769 13.1391L4.31529 13.1398C3.51126 13.1405 2.85931 12.4886 2.85996 11.6845L2.86074 10.7321C2.86106 10.3457 2.70751 9.97492 2.434 9.70192L1.76 9.02898C1.191 8.46092 1.191 7.53892 1.76 6.97085L2.434 6.29795C2.70751 6.02488 2.86106 5.65418 2.86074 5.26769L2.85996 4.31529C2.85931 3.51126 3.51126 2.85931 4.31529 2.85996L5.26769 2.86074C5.65418 2.86106 6.02488 2.70751 6.29795 2.434L6.97085 1.76Z" stroke="currentColor" stroke-width="1.5"/>
<path d="M6.66675 6.00008C6.66675 5.2637 7.26368 4.66675 8.00008 4.66675C8.73648 4.66675 9.33341 5.2637 9.33341 6.00008C9.33341 6.26551 9.25588 6.51283 9.12215 6.72061C8.72368 7.33988 8.00008 7.93035 8.00008 8.66675V9.00008" stroke="currentColor" stroke-width="1.5" stroke-linecap="round"/>
<path d="M7.99463 11.3333H8.00063" stroke="currentColor" stroke-width="2" stroke-linecap="round" stroke-linejoin="round"/>
</g>
<defs>
<clipPath id="clip0_2016_4861">
<rect width="16" height="16" fill="white"/>
</clipPath>
</defs>
</svg>
