<svg width="16" height="16" viewBox="0 0 16 16" fill="none" xmlns="http://www.w3.org/2000/svg">
<path d="M12.7945 6.29413L11.4843 4.97933C10.5403 4.032 10.1703 3.52239 9.65907 3.70255C9.02167 3.92719 9.23147 5.34462 9.23147 5.82315C8.24047 5.82315 7.21013 5.73507 6.23323 5.91859C3.00839 6.52443 2 9.14354 2 12C2.91273 11.3535 3.82455 10.6647 4.92155 10.3651C6.29091 9.99101 7.82027 10.1695 9.23147 10.1695C9.23147 10.648 9.02167 12.0655 9.65907 12.2901C10.2383 12.4942 10.5403 11.9606 11.4843 11.0133L12.7945 9.69847C13.5982 8.89201 14 8.48881 14 7.99634C14 7.50387 13.5982 7.10061 12.7945 6.29413Z" stroke="currentColor" stroke-linecap="round" stroke-linejoin="round"/>
</svg>
