<svg width="28" height="28" viewBox="0 0 28 28" fill="none" xmlns="http://www.w3.org/2000/svg">
<path d="M2.9516 17.2309C2.7035 18.8572 3.81269 19.9861 5.17075 20.5486C10.3773 22.7056 17.6228 22.7056 22.8292 20.5486C24.1874 19.9861 25.2965 18.8572 25.0485 17.2309C24.896 16.2314 24.1421 15.3991 23.5835 14.5864C22.8519 13.5089 22.7792 12.3334 22.7791 11.083C22.7791 6.25051 18.8486 2.33301 14 2.33301C9.15151 2.33301 5.22101 6.25051 5.22101 11.083C5.22089 12.3334 5.14819 13.5089 4.41657 14.5864C3.858 15.3991 3.10407 16.2314 2.9516 17.2309Z" stroke="white" stroke-width="1.5" stroke-linecap="round" stroke-linejoin="round"/>
<path d="M9.33331 22.167C9.86822 24.1797 11.7547 25.667 14 25.667C16.2452 25.667 18.1317 24.1797 18.6666 22.167" stroke="white" stroke-width="1.5" stroke-linecap="round" stroke-linejoin="round"/>
</svg>
