<svg viewBox="0 0 17 16" fill="none" xmlns="http://www.w3.org/2000/svg">
<path d="M13.833 5.99998C13.3029 3.34301 10.8415 1.33331 7.88587 1.33331C4.54333 1.33331 1.83301 3.90345 1.83301 7.07331C1.83301 8.59638 2.45847 9.98025 3.47871 11.0072C3.70333 11.2333 3.85331 11.5422 3.79278 11.8602C3.69289 12.38 3.46651 12.865 3.13504 13.2691C4.00716 13.4299 4.91399 13.2851 5.69168 12.8751C5.9666 12.7302 6.10405 12.6578 6.20105 12.643C6.26895 12.6328 6.3574 12.6424 6.49967 12.6668" stroke="currentColor" stroke-width="1.5" stroke-linecap="round" stroke-linejoin="round"/>
<path d="M7.83301 10.8411C7.83301 12.7782 9.47487 14.3489 11.4997 14.3489C11.7377 14.3492 11.9751 14.3272 12.209 14.2833C12.3773 14.2516 12.4615 14.2358 12.5203 14.2448C12.579 14.2538 12.6623 14.2981 12.8289 14.3866C13.2999 14.6372 13.8493 14.7256 14.3776 14.6274C14.1768 14.3804 14.0397 14.0841 13.9791 13.7664C13.9425 13.5721 14.0333 13.3833 14.1694 13.2451C14.7875 12.6175 15.1663 11.7718 15.1663 10.8411C15.1663 8.90398 13.5245 7.33331 11.4997 7.33331C9.47487 7.33331 7.83301 8.90398 7.83301 10.8411Z" stroke="currentColor" stroke-width="1.5" stroke-linejoin="round"/>
</svg>
