<svg width="20" height="20" viewBox="0 0 20 20" fill="none" xmlns="http://www.w3.org/2000/svg">
<path d="M9.59526 1.74435C9.85543 1.64072 10.1446 1.64072 10.4048 1.74435C11.2434 2.07834 11.4073 3.36449 12.3968 3.43609C13.0937 3.48651 13.7775 2.9056 14.4768 3.07974C14.7588 3.14998 15.0023 3.32978 15.155 3.58043C15.6227 4.34849 15.0191 5.47739 15.7819 6.11469C16.3119 6.55727 17.1876 6.49999 17.6483 7.04254C17.8423 7.27108 17.9377 7.56915 17.9128 7.86971C17.839 8.76379 16.6991 9.32296 16.9496 10.2865C17.1229 10.9535 17.8544 11.4225 17.9128 12.1302C17.9377 12.4308 17.8423 12.7289 17.6483 12.9574C17.0693 13.639 15.8173 13.4145 15.4563 14.3385C15.2028 14.987 15.5283 15.8064 15.155 16.4195C15.0023 16.6701 14.7588 16.85 14.4768 16.9202C13.6085 17.1364 12.7273 16.2037 11.8918 16.7298C11.2953 17.1053 11.0815 17.9862 10.4048 18.2555C10.1446 18.3592 9.85543 18.3592 9.59526 18.2555C8.91851 17.9862 8.70476 17.1053 8.10825 16.7298C7.2831 16.2103 6.37679 17.1327 5.52327 16.9202C5.24124 16.85 4.99768 16.6701 4.84505 16.4195C4.37739 15.6515 4.98088 14.5225 4.21809 13.8852C3.68819 13.4426 2.81246 13.5 2.35171 12.9574C2.15769 12.7289 2.06238 12.4308 2.08722 12.1302C2.14572 11.4225 2.87701 10.9535 3.05043 10.2865C3.29841 9.33304 2.16004 8.75071 2.08722 7.86971C2.06238 7.56915 2.15769 7.27108 2.35171 7.04254C2.93064 6.36066 4.1825 6.5854 4.54366 5.66148C4.79719 5.01296 4.47174 4.19352 4.84505 3.58043C4.99768 3.32978 5.24124 3.14998 5.52327 3.07974C6.22255 2.9056 6.90632 3.48652 7.60316 3.43609C8.59276 3.36451 8.75659 2.07834 9.59526 1.74435Z" fill="#A06AFF"/>
<path d="M7.5 11.1111C7.5 11.1111 8.22917 11.1111 8.95833 12.5C8.95833 12.5 11.2745 9.02779 13.3333 8.33337" stroke="white" stroke-linecap="round" stroke-linejoin="round"/>
</svg>
