<svg width="16" height="16" viewBox="0 0 16 16" fill="none" xmlns="http://www.w3.org/2000/svg">
<path d="M11.3337 5.33332V3.33332C11.3337 3.15651 11.2634 2.98694 11.1384 2.86192C11.0134 2.73689 10.8438 2.66666 10.667 2.66666H4.00033C3.6467 2.66666 3.30756 2.80713 3.05752 3.05718C2.80747 3.30723 2.66699 3.64637 2.66699 3.99999M2.66699 3.99999C2.66699 4.35361 2.80747 4.69275 3.05752 4.9428C3.30756 5.19285 3.6467 5.33332 4.00033 5.33332H12.0003C12.1771 5.33332 12.3467 5.40356 12.4717 5.52859C12.5968 5.65361 12.667 5.82318 12.667 5.99999V7.99999M2.66699 3.99999V12C2.66699 12.3536 2.80747 12.6928 3.05752 12.9428C3.30756 13.1928 3.6467 13.3333 4.00033 13.3333H12.0003C12.1771 13.3333 12.3467 13.2631 12.4717 13.1381C12.5968 13.013 12.667 12.8435 12.667 12.6667V10.6667" stroke="currentColor" stroke-linecap="round" stroke-linejoin="round"/>
<path d="M13.333 8V10.6667H10.6663C10.3127 10.6667 9.97358 10.5262 9.72353 10.2761C9.47348 10.0261 9.33301 9.68696 9.33301 9.33333C9.33301 8.97971 9.47348 8.64057 9.72353 8.39052C9.97358 8.14048 10.3127 8 10.6663 8H13.333Z" stroke="currentColor" stroke-linecap="round" stroke-linejoin="round"/>
</svg>
