<svg width="17" height="16" viewBox="0 0 17 16" fill="none" xmlns="http://www.w3.org/2000/svg">
<path d="M8.5 4V13.3333" stroke="currentColor" stroke-width="1.5" stroke-linecap="round"/>
<path d="M4.48671 2.19029C6.71417 2.6144 8.04174 3.50154 8.49967 4.01085C8.95761 3.50154 10.2851 2.6144 12.5126 2.19029C13.6411 1.97543 14.2053 1.86801 14.6858 2.27976C15.1663 2.69151 15.1663 3.36015 15.1663 4.69741V9.50333C15.1663 10.7261 15.1663 11.3374 14.8579 11.7191C14.5495 12.1008 13.8706 12.2301 12.5126 12.4887C11.3021 12.7191 10.3574 13.0863 9.67354 13.4554C9.00074 13.8185 8.66434 14 8.49967 14C8.33501 14 7.99861 13.8185 7.32581 13.4554C6.64197 13.0863 5.69723 12.7191 4.48671 12.4887C3.12877 12.2301 2.44981 12.1008 2.14141 11.7191C1.83301 11.3374 1.83301 10.7261 1.83301 9.50333V4.69741C1.83301 3.36015 1.83301 2.69151 2.31353 2.27976C2.79405 1.86801 3.35827 1.97543 4.48671 2.19029Z" stroke="currentColor" stroke-width="1.5" stroke-linecap="round" stroke-linejoin="round"/>
</svg>
