<svg width="50" height="64" viewBox="0 0 50 64" fill="none" xmlns="http://www.w3.org/2000/svg">
<g clip-path="url(#clip0_1272_1925)">
<path fill-rule="evenodd" clip-rule="evenodd" d="M25.7985 2.25917L41.9328 18.4017V16.143L25.7985 0V2.25917ZM24.2017 0.000434916L8.06726 16.1441V18.4017L24.2017 2.2596V0.000434916Z" fill="url(#paint0_linear_1272_1925)"/>
<path fill-rule="evenodd" clip-rule="evenodd" d="M9.74807 26.7207L17.7316 18.732V16.4741L0.000183105 34.2152V36.4737L8.06743 28.4019V48.024L9.6644 49.6219V26.8045L9.74807 26.7207Z" fill="#F7F7F7"/>
<path fill-rule="evenodd" clip-rule="evenodd" d="M25.7985 11.8164H24.2015V64H25.7985V11.8164Z" fill="#F7F7F7"/>
<path fill-rule="evenodd" clip-rule="evenodd" d="M32.2683 18.732L40.3356 26.8045V49.6219L41.9325 48.024V28.4019L50 36.4737V34.2152L32.2683 16.4741V18.732Z" fill="#F7F7F7"/>
</g>
<defs>
<linearGradient id="paint0_linear_1272_1925" x1="20.4569" y1="18.9921" x2="29.552" y2="-1.38463" gradientUnits="userSpaceOnUse">
<stop stop-color="#8B61BD"/>
<stop offset="0.501961" stop-color="#BF69DB"/>
<stop offset="1" stop-color="#8B61BD"/>
</linearGradient>
<clipPath id="clip0_1272_1925">
<rect width="50" height="64" fill="white"/>
</clipPath>
</defs>
</svg>
