<svg width="16" height="16" viewBox="0 0 16 16" fill="none" xmlns="http://www.w3.org/2000/svg">
<path d="M13.1668 7.33331V6.66665C13.1668 4.15249 13.1668 2.89541 12.3857 2.11436C11.6047 1.33331 10.3476 1.33331 7.83347 1.33331H7.16687C4.65272 1.33331 3.39564 1.33331 2.6146 2.11435C1.83355 2.89539 1.83354 4.15246 1.83352 6.6666L1.8335 9.33331C1.83347 11.8474 1.83346 13.1045 2.61448 13.8856C3.39553 14.6666 4.65265 14.6666 7.1668 14.6666" stroke="currentColor" stroke-width="1.5" stroke-linecap="round" stroke-linejoin="round"/>
<path d="M4.8335 4.66669H10.1668M4.8335 8.00002H10.1668" stroke="currentColor" stroke-width="1.5" stroke-linecap="round"/>
<path d="M8.8335 13.8845V14.6666H9.61576C9.8887 14.6666 10.0252 14.6666 10.1478 14.6158C10.2706 14.565 10.367 14.4685 10.56 14.2756L13.7758 11.0596C13.9578 10.8776 14.0488 10.7866 14.0974 10.6884C14.19 10.5016 14.19 10.2824 14.0974 10.0956C14.0488 9.99738 13.9578 9.90638 13.7758 9.72438C13.5937 9.54238 13.5027 9.45138 13.4045 9.40271C13.2177 9.31018 12.9984 9.31018 12.8116 9.40271C12.7134 9.45138 12.6224 9.54238 12.4404 9.72438L9.22463 12.9404C9.03163 13.1333 8.93516 13.2298 8.88436 13.3524C8.8335 13.4752 8.8335 13.6116 8.8335 13.8845Z" stroke="currentColor" stroke-width="1.5" stroke-linejoin="round"/>
</svg>
