<svg width="16" height="16" viewBox="0 0 16 16" fill="none" xmlns="http://www.w3.org/2000/svg">
<g clip-path="url(#clip0_36_3443)">
<path d="M1.3335 12C1.3335 10.9731 1.3335 10.4595 1.56465 10.0823C1.69399 9.87127 1.87145 9.6938 2.08252 9.56447C2.45972 9.33334 2.9732 9.33334 4.00016 9.33334C5.02712 9.33334 5.5406 9.33334 5.91781 9.56447C6.12888 9.6938 6.30634 9.87127 6.43568 10.0823C6.66683 10.4595 6.66683 10.9731 6.66683 12C6.66683 13.0269 6.66683 13.5405 6.43568 13.9177C6.30634 14.1287 6.12888 14.3062 5.91781 14.4355C5.5406 14.6667 5.02712 14.6667 4.00016 14.6667C2.9732 14.6667 2.45972 14.6667 2.08252 14.4355C1.87145 14.3062 1.69399 14.1287 1.56465 13.9177C1.3335 13.5405 1.3335 13.0269 1.3335 12Z" stroke="white" stroke-width="1.5"/>
<path d="M9.3335 12C9.3335 10.9731 9.3335 10.4595 9.56463 10.0823C9.69396 9.87127 9.87143 9.6938 10.0825 9.56447C10.4597 9.33334 10.9732 9.33334 12.0002 9.33334C13.0271 9.33334 13.5406 9.33334 13.9178 9.56447C14.1289 9.6938 14.3064 9.87127 14.4357 10.0823C14.6668 10.4595 14.6668 10.9731 14.6668 12C14.6668 13.0269 14.6668 13.5405 14.4357 13.9177C14.3064 14.1287 14.1289 14.3062 13.9178 14.4355C13.5406 14.6667 13.0271 14.6667 12.0002 14.6667C10.9732 14.6667 10.4597 14.6667 10.0825 14.4355C9.87143 14.3062 9.69396 14.1287 9.56463 13.9177C9.3335 13.5405 9.3335 13.0269 9.3335 12Z" stroke="white" stroke-width="1.5"/>
<path d="M1.3335 4C1.3335 2.97304 1.3335 2.45956 1.56465 2.08235C1.69399 1.87129 1.87145 1.69383 2.08252 1.56449C2.45972 1.33333 2.9732 1.33333 4.00016 1.33333C5.02712 1.33333 5.5406 1.33333 5.91781 1.56449C6.12888 1.69383 6.30634 1.87129 6.43568 2.08235C6.66683 2.45956 6.66683 2.97304 6.66683 4C6.66683 5.02696 6.66683 5.54044 6.43568 5.91764C6.30634 6.12871 6.12888 6.30617 5.91781 6.43551C5.5406 6.66666 5.02712 6.66667 4.00016 6.66667C2.9732 6.66667 2.45972 6.66666 2.08252 6.43551C1.87145 6.30617 1.69399 6.12871 1.56465 5.91764C1.3335 5.54044 1.3335 5.02696 1.3335 4Z" stroke="white" stroke-width="1.5"/>
<path d="M9.3335 4C9.3335 2.97304 9.3335 2.45956 9.56463 2.08235C9.69396 1.87129 9.87143 1.69383 10.0825 1.56449C10.4597 1.33333 10.9732 1.33333 12.0002 1.33333C13.0271 1.33333 13.5406 1.33333 13.9178 1.56449C14.1289 1.69383 14.3064 1.87129 14.4357 2.08235C14.6668 2.45956 14.6668 2.97304 14.6668 4C14.6668 5.02696 14.6668 5.54044 14.4357 5.91764C14.3064 6.12871 14.1289 6.30617 13.9178 6.43551C13.5406 6.66666 13.0271 6.66667 12.0002 6.66667C10.9732 6.66667 10.4597 6.66666 10.0825 6.43551C9.87143 6.30617 9.69396 6.12871 9.56463 5.91764C9.3335 5.54044 9.3335 5.02696 9.3335 4Z" stroke="white" stroke-width="1.5"/>
</g>
<defs>
<clipPath id="clip0_36_3443">
<rect width="16" height="16" fill="white"/>
</clipPath>
</defs>
</svg>
