<svg width="24" height="24" viewBox="0 0 24 24" fill="none" xmlns="http://www.w3.org/2000/svg">
<path d="M13.73 3.44515L15.4898 6.99385C15.7298 7.48784 16.3697 7.96167 16.9097 8.0524L20.0993 8.58672C22.1391 8.9295 22.6191 10.4216 21.1492 11.8935L18.6695 14.3937C18.2495 14.8171 18.0196 15.6337 18.1495 16.2185L18.8595 19.3135C19.4194 21.7633 18.1295 22.711 15.9798 21.4306L12.9901 19.6462C12.4502 19.3236 11.5603 19.3236 11.0103 19.6462L8.02071 21.4306C5.88094 22.711 4.58109 21.7532 5.14103 19.3135L5.85095 16.2185C5.98093 15.6337 5.75096 14.8171 5.331 14.3937L2.85128 11.8935C1.39144 10.4216 1.86139 8.9295 3.90116 8.58672L7.09081 8.0524C7.62075 7.96167 8.26068 7.48784 8.50065 6.99385L10.2604 3.44515C11.2203 1.51958 12.7801 1.51958 13.73 3.44515Z" stroke="currentColor" stroke-width="1.00667" stroke-linecap="round" stroke-linejoin="round"/>
</svg>
