<svg width="17" height="16" viewBox="0 0 17 16" fill="none" xmlns="http://www.w3.org/2000/svg">
<path d="M3.28025 10.2L6.30025 13.22C7.54025 14.46 9.55359 14.46 10.8003 13.22L13.7269 10.2934C14.9669 9.05337 14.9669 7.04003 13.7269 5.79337L10.7003 2.78003C10.0669 2.1467 9.19359 1.8067 8.30025 1.85337L4.96692 2.01337C3.63359 2.07337 2.57359 3.13337 2.50692 4.46003L2.34692 7.79337C2.30692 8.69337 2.64692 9.5667 3.28025 10.2Z" stroke="currentColor" stroke-width="1.5" stroke-linecap="round" stroke-linejoin="round"/>
<path d="M6.83366 8.00008C7.75413 8.00008 8.50033 7.25389 8.50033 6.33341C8.50033 5.41294 7.75413 4.66675 6.83366 4.66675C5.91318 4.66675 5.16699 5.41294 5.16699 6.33341C5.16699 7.25389 5.91318 8.00008 6.83366 8.00008Z" stroke="currentColor" stroke-width="1.5" stroke-linecap="round"/>
</svg>
