<svg width="8" height="15" viewBox="0 0 8 15" fill="none" xmlns="http://www.w3.org/2000/svg">
<path d="M3.4 14.725V12.76L3.745 13.09C3.015 13.07 2.325 12.96 1.675 12.76C1.035 12.55 0.48 12.26 0.01 11.89L0.595 10.375C0.905 10.605 1.235 10.805 1.585 10.975C1.945 11.135 2.32 11.26 2.71 11.35C3.11 11.43 3.535 11.47 3.985 11.47C4.715 11.47 5.25 11.34 5.59 11.08C5.93 10.82 6.1 10.495 6.1 10.105C6.1 9.755 5.985 9.475 5.755 9.265C5.525 9.055 5.115 8.885 4.525 8.755L2.935 8.41C2.035 8.21 1.355 7.88 0.895 7.42C0.445 6.95 0.22 6.33 0.22 5.56C0.22 4.97 0.365 4.445 0.655 3.985C0.945 3.515 1.35 3.14 1.87 2.86C2.39 2.58 3 2.415 3.7 2.365L3.4 2.59V0.699999H4.9V2.59L4.585 2.35C5.155 2.38 5.715 2.495 6.265 2.695C6.825 2.895 7.29 3.185 7.66 3.565L7.09 5.005C6.71 4.655 6.275 4.395 5.785 4.225C5.295 4.045 4.76 3.955 4.18 3.955C3.56 3.955 3.06 4.1 2.68 4.39C2.31 4.67 2.125 5.04 2.125 5.5C2.125 5.84 2.24 6.115 2.47 6.325C2.7 6.535 3.07 6.695 3.58 6.805L5.17 7.15C6.13 7.36 6.84 7.695 7.3 8.155C7.77 8.605 8.005 9.205 8.005 9.955C8.005 10.535 7.86 11.05 7.57 11.5C7.28 11.94 6.88 12.295 6.37 12.565C5.87 12.825 5.285 12.99 4.615 13.06L4.9 12.745V14.725H3.4Z" fill="#B0B0B0"/>
</svg>
