<svg viewBox="0 0 24 24" fill="none" xmlns="http://www.w3.org/2000/svg">
<path d="M12.5 3H11.5C10.9477 3 10.5 3.44772 10.5 4V5C10.5 5.55228 10.9477 6 11.5 6H12.5C13.0523 6 13.5 5.55228 13.5 5V4C13.5 3.44772 13.0523 3 12.5 3Z" stroke="white" stroke-width="1.5"/>
<path d="M12.5 10.5H11.5C10.9477 10.5 10.5 10.9477 10.5 11.5V12.5C10.5 13.0523 10.9477 13.5 11.5 13.5H12.5C13.0523 13.5 13.5 13.0523 13.5 12.5V11.5C13.5 10.9477 13.0523 10.5 12.5 10.5Z" stroke="white" stroke-width="1.5"/>
<path d="M12.5 18H11.5C10.9477 18 10.5 18.4477 10.5 19V20C10.5 20.5523 10.9477 21 11.5 21H12.5C13.0523 21 13.5 20.5523 13.5 20V19C13.5 18.4477 13.0523 18 12.5 18Z" stroke="white" stroke-width="1.5"/>
</svg>
