<svg width="16" height="16" viewBox="0 0 16 16" fill="none" xmlns="http://www.w3.org/2000/svg">
<path d="M9.1519 2.29604L10.3251 4.66184C10.4851 4.99116 10.9117 5.30705 11.2717 5.36754L13.3981 5.72375C14.758 5.95227 15.078 6.94698 14.098 7.92825L12.4449 9.59505C12.1649 9.87732 12.0116 10.4217 12.0982 10.8116L12.5716 12.8749C12.9448 14.5081 12.0849 15.1399 10.6518 14.2863L8.65863 13.0967C8.2987 12.8817 7.70543 12.8817 7.33876 13.0967L5.34567 14.2863C3.91916 15.1399 3.0526 14.5014 3.42589 12.8749L3.89917 10.8116C3.98582 10.4217 3.83251 9.87732 3.55254 9.59505L1.89939 7.92825C0.926162 6.94698 1.23946 5.95227 2.59931 5.72375L4.72574 5.36754C5.07904 5.30705 5.50566 4.99116 5.66564 4.66184L6.83883 2.29604C7.47876 1.01232 8.51863 1.01232 9.1519 2.29604Z" fill="#FFA800"/>
</svg>
