<svg width="16" height="16" viewBox="0 0 16 16" fill="none" xmlns="http://www.w3.org/2000/svg">
<path d="M6.09527 7.12732L6.23321 6.98939C7.55234 5.6702 9.69114 5.6702 11.0103 6.98939C12.3295 8.30852 12.3295 10.4473 11.0103 11.7665L9.09947 13.6773C7.78034 14.9965 5.64153 14.9965 4.32237 13.6773C3.00322 12.3581 3.00322 10.2193 4.32237 8.90019L4.63194 8.59066" stroke="white" stroke-width="1.5" stroke-linecap="round"/>
<path d="M11.3677 7.40901L11.6773 7.09947C12.9965 5.78031 12.9965 3.64153 11.6773 2.32237C10.3581 1.00322 8.21933 1.00322 6.9002 2.32237L4.98936 4.23321C3.67021 5.55237 3.67021 7.69114 4.98936 9.01027C6.30852 10.3295 8.44733 10.3295 9.76647 9.01027L9.9044 8.87234" stroke="white" stroke-width="1.5" stroke-linecap="round"/>
</svg>
