<svg width="16" height="16" viewBox="0 0 16 16" fill="none" xmlns="http://www.w3.org/2000/svg">
<path d="M2 14.0003L5.33333 10.667" stroke="white" stroke-width="1.5" stroke-linecap="round" stroke-linejoin="round"/>
<path d="M8.83867 12.5809C6.34311 12.0143 3.9853 9.65653 3.41869 7.161C3.329 6.76593 3.28415 6.56844 3.41408 6.24798C3.54401 5.92753 3.70272 5.82837 4.02015 5.63006C4.73771 5.18177 5.5147 5.03925 6.32107 5.11057C7.45254 5.21065 8.01827 5.26069 8.30047 5.11365C8.58274 4.96661 8.77447 4.62278 9.15807 3.93513L9.64394 3.06403C9.96401 2.49019 10.1241 2.20327 10.5005 2.06801C10.877 1.93275 11.1035 2.01466 11.5567 2.17847C12.6163 2.56157 13.4381 3.38337 13.8212 4.44299C13.985 4.89611 14.0669 5.12267 13.9317 5.49913C13.7964 5.8756 13.5095 6.03564 12.9356 6.35572L12.0445 6.8528C11.3581 7.2356 11.0149 7.42707 10.8679 7.712C10.7209 7.997 10.7743 8.5504 10.8811 9.65727C10.9596 10.4712 10.8243 11.2533 10.37 11.9798C10.1715 12.2972 10.0722 12.4559 9.75187 12.5857C9.43147 12.7155 9.23387 12.6707 8.83867 12.5809Z" stroke="white" stroke-width="1.5" stroke-linecap="round" stroke-linejoin="round"/>
</svg>
