<svg width="16" height="16" viewBox="0 0 16 16" fill="none" xmlns="http://www.w3.org/2000/svg">
<path fill-rule="evenodd" clip-rule="evenodd" d="M4.12089 6.88854C3.46905 6.88854 3.33301 7.01647 3.33301 7.62927V8.74041C3.33301 9.35327 3.46905 9.48114 4.12089 9.48114H5.69664V13.9256C5.69664 14.5384 5.83268 14.6663 6.48452 14.6663H8.06027C8.71214 14.6663 8.84814 14.5384 8.84814 13.9256V9.48114H10.6175C11.1119 9.48114 11.2393 9.39081 11.3751 8.94394L11.7127 7.83281C11.9453 7.06727 11.802 6.88854 10.9551 6.88854H8.84814V5.03671C8.84814 4.62761 9.20087 4.29597 9.63601 4.29597H11.8785C12.5303 4.29597 12.6663 4.16807 12.6663 3.55523V2.07375C12.6663 1.46091 12.5303 1.33301 11.8785 1.33301H9.63601C7.46034 1.33301 5.69664 2.99121 5.69664 5.03671V6.88854H4.12089Z" stroke="white" stroke-width="1.5" stroke-linejoin="round"/>
</svg>
