<svg width="408" height="374" viewBox="0 0 408 374" fill="none" xmlns="http://www.w3.org/2000/svg">
<rect x="0.5" y="0.5" width="407" height="373" rx="23.5" fill="#0B0E11" fill-opacity="0.5"/>
<rect x="0.5" y="0.5" width="407" height="373" rx="23.5" stroke="#523A83"/>
<path d="M23.695 35.19C22.3017 35.19 21.1047 34.9113 20.104 34.354C19.116 33.784 18.356 32.986 17.824 31.96C17.292 30.9213 17.026 29.699 17.026 28.293C17.026 26.887 17.292 25.671 17.824 24.645C18.356 23.619 19.116 22.8273 20.104 22.27C21.1047 21.7 22.3017 21.415 23.695 21.415C24.5943 21.415 25.443 21.5543 26.241 21.833C27.0517 22.1117 27.7167 22.5107 28.236 23.03L27.438 24.968C26.868 24.4867 26.2853 24.1383 25.69 23.923C25.0947 23.695 24.455 23.581 23.771 23.581C22.4157 23.581 21.3833 23.9927 20.674 24.816C19.9647 25.6267 19.61 26.7857 19.61 28.293C19.61 29.8003 19.9647 30.9657 20.674 31.789C21.3833 32.6123 22.4157 33.024 23.771 33.024C24.455 33.024 25.0947 32.9163 25.69 32.701C26.2853 32.473 26.868 32.1183 27.438 31.637L28.236 33.575C27.7167 34.0817 27.0517 34.4807 26.241 34.772C25.443 35.0507 24.5943 35.19 23.695 35.19ZM32.8555 35.19C32.1842 35.19 31.5825 35.0633 31.0505 34.81C30.5312 34.544 30.1195 34.1893 29.8155 33.746C29.5242 33.3027 29.3785 32.8023 29.3785 32.245C29.3785 31.561 29.5559 31.0227 29.9105 30.63C30.2652 30.2247 30.8415 29.9333 31.6395 29.756C32.4375 29.5787 33.5079 29.49 34.8505 29.49H35.8005V30.858H34.8695C34.2742 30.858 33.7739 30.8833 33.3685 30.934C32.9632 30.972 32.6339 31.0417 32.3805 31.143C32.1399 31.2317 31.9625 31.3583 31.8485 31.523C31.7472 31.6877 31.6965 31.8903 31.6965 32.131C31.6965 32.549 31.8422 32.891 32.1335 33.157C32.4249 33.423 32.8302 33.556 33.3495 33.556C33.7675 33.556 34.1349 33.461 34.4515 33.271C34.7809 33.0683 35.0405 32.796 35.2305 32.454C35.4205 32.112 35.5155 31.7193 35.5155 31.276V29.091C35.5155 28.4577 35.3762 28.0017 35.0975 27.723C34.8189 27.4443 34.3502 27.305 33.6915 27.305C33.1722 27.305 32.6402 27.3873 32.0955 27.552C31.5509 27.704 30.9999 27.9447 30.4425 28.274L29.7585 26.659C30.0879 26.431 30.4742 26.2347 30.9175 26.07C31.3735 25.8927 31.8485 25.7597 32.3425 25.671C32.8492 25.5697 33.3242 25.519 33.7675 25.519C34.6795 25.519 35.4269 25.6583 36.0095 25.937C36.6049 26.2157 37.0482 26.64 37.3395 27.21C37.6309 27.7673 37.7765 28.4893 37.7765 29.376V35H35.5535V33.024H35.7055C35.6169 33.4673 35.4395 33.8537 35.1735 34.183C34.9202 34.4997 34.5972 34.7467 34.2045 34.924C33.8119 35.1013 33.3622 35.19 32.8555 35.19ZM43.4171 35.19C42.3151 35.19 41.4981 34.8923 40.9661 34.297C40.4468 33.689 40.1871 32.8023 40.1871 31.637V21.605H42.5621V31.523C42.5621 31.8903 42.6128 32.207 42.7141 32.473C42.8281 32.7263 42.9928 32.9163 43.2081 33.043C43.4235 33.1697 43.6895 33.233 44.0061 33.233C44.1455 33.233 44.2848 33.2267 44.4241 33.214C44.5635 33.2013 44.6965 33.176 44.8231 33.138L44.7851 35.019C44.5571 35.0697 44.3291 35.1077 44.1011 35.133C43.8858 35.171 43.6578 35.19 43.4171 35.19ZM50.7408 35.19C49.6894 35.19 48.7838 34.9937 48.0238 34.601C47.2638 34.2083 46.6748 33.651 46.2568 32.929C45.8514 32.207 45.6488 31.352 45.6488 30.364C45.6488 29.4013 45.8451 28.559 46.2378 27.837C46.6431 27.115 47.1941 26.5513 47.8908 26.146C48.6001 25.728 49.4044 25.519 50.3038 25.519C51.1904 25.519 51.9504 25.709 52.5838 26.089C53.2171 26.469 53.7048 27.0073 54.0468 27.704C54.4014 28.4007 54.5788 29.2303 54.5788 30.193V30.896H47.5678V29.528H52.9068L52.6028 29.813C52.6028 28.9517 52.4128 28.293 52.0328 27.837C51.6528 27.3683 51.1081 27.134 50.3988 27.134C49.8668 27.134 49.4108 27.2607 49.0308 27.514C48.6634 27.7547 48.3784 28.103 48.1758 28.559C47.9858 29.0023 47.8908 29.5343 47.8908 30.155V30.288C47.8908 30.9847 47.9984 31.561 48.2138 32.017C48.4291 32.473 48.7521 32.815 49.1828 33.043C49.6134 33.271 50.1454 33.385 50.7788 33.385C51.2981 33.385 51.8174 33.309 52.3368 33.157C52.8561 32.9923 53.3311 32.739 53.7618 32.397L54.4268 33.993C53.9834 34.3603 53.4261 34.6517 52.7548 34.867C52.0834 35.0823 51.4121 35.19 50.7408 35.19ZM56.4596 35V25.709H58.7776V27.571H58.5686C58.8473 26.8997 59.2779 26.393 59.8606 26.051C60.4559 25.6963 61.1273 25.519 61.8746 25.519C62.6219 25.519 63.2363 25.6583 63.7176 25.937C64.1989 26.2157 64.5599 26.64 64.8006 27.21C65.0413 27.7673 65.1616 28.4767 65.1616 29.338V35H62.7866V29.452C62.7866 28.9707 62.7233 28.578 62.5966 28.274C62.4826 27.97 62.2989 27.7483 62.0456 27.609C61.8049 27.457 61.4946 27.381 61.1146 27.381C60.6586 27.381 60.2596 27.4823 59.9176 27.685C59.5756 27.875 59.3096 28.1537 59.1196 28.521C58.9296 28.8757 58.8346 29.2937 58.8346 29.775V35H56.4596ZM71.1459 35.19C70.3352 35.19 69.6195 34.9937 68.9989 34.601C68.3909 34.2083 67.9159 33.651 67.5739 32.929C67.2319 32.1943 67.0609 31.333 67.0609 30.345C67.0609 29.3443 67.2319 28.4893 67.5739 27.78C67.9159 27.058 68.3909 26.5007 68.9989 26.108C69.6195 25.7153 70.3352 25.519 71.1459 25.519C71.9185 25.519 72.5899 25.709 73.1599 26.089C73.7425 26.469 74.1352 26.9693 74.3379 27.59H74.1289V21.605H76.5039V35H74.1859V33.024H74.3569C74.1669 33.6827 73.7805 34.2083 73.1979 34.601C72.6152 34.9937 71.9312 35.19 71.1459 35.19ZM71.8109 33.385C72.5202 33.385 73.0902 33.1317 73.5209 32.625C73.9515 32.1057 74.1669 31.3457 74.1669 30.345C74.1669 29.3317 73.9515 28.578 73.5209 28.084C73.0902 27.5773 72.5202 27.324 71.8109 27.324C71.1015 27.324 70.5315 27.5773 70.1009 28.084C69.6702 28.578 69.4549 29.3317 69.4549 30.345C69.4549 31.3457 69.6702 32.1057 70.1009 32.625C70.5315 33.1317 71.1015 33.385 71.8109 33.385ZM82.0254 35.19C81.3541 35.19 80.7524 35.0633 80.2204 34.81C79.7011 34.544 79.2894 34.1893 78.9854 33.746C78.6941 33.3027 78.5484 32.8023 78.5484 32.245C78.5484 31.561 78.7258 31.0227 79.0804 30.63C79.4351 30.2247 80.0114 29.9333 80.8094 29.756C81.6074 29.5787 82.6778 29.49 84.0204 29.49H84.9704V30.858H84.0394C83.4441 30.858 82.9438 30.8833 82.5384 30.934C82.1331 30.972 81.8038 31.0417 81.5504 31.143C81.3098 31.2317 81.1324 31.3583 81.0184 31.523C80.9171 31.6877 80.8664 31.8903 80.8664 32.131C80.8664 32.549 81.0121 32.891 81.3034 33.157C81.5948 33.423 82.0001 33.556 82.5194 33.556C82.9374 33.556 83.3048 33.461 83.6214 33.271C83.9508 33.0683 84.2104 32.796 84.4004 32.454C84.5904 32.112 84.6854 31.7193 84.6854 31.276V29.091C84.6854 28.4577 84.5461 28.0017 84.2674 27.723C83.9888 27.4443 83.5201 27.305 82.8614 27.305C82.3421 27.305 81.8101 27.3873 81.2654 27.552C80.7208 27.704 80.1698 27.9447 79.6124 28.274L78.9284 26.659C79.2578 26.431 79.6441 26.2347 80.0874 26.07C80.5434 25.8927 81.0184 25.7597 81.5124 25.671C82.0191 25.5697 82.4941 25.519 82.9374 25.519C83.8494 25.519 84.5968 25.6583 85.1794 25.937C85.7748 26.2157 86.2181 26.64 86.5094 27.21C86.8008 27.7673 86.9464 28.4893 86.9464 29.376V35H84.7234V33.024H84.8754C84.7868 33.4673 84.6094 33.8537 84.3434 34.183C84.0901 34.4997 83.7671 34.7467 83.3744 34.924C82.9818 35.1013 82.5321 35.19 82.0254 35.19ZM89.3571 35V25.709H91.6751V27.951H91.4851C91.6624 27.191 92.0107 26.6147 92.5301 26.222C93.0494 25.8167 93.7397 25.5823 94.6011 25.519L95.3231 25.462L95.4751 27.476L94.1071 27.609C93.3344 27.685 92.7517 27.9257 92.3591 28.331C91.9664 28.7237 91.7701 29.281 91.7701 30.003V35H89.3571Z" fill="white"/>
<path d="M380 39.75C374.07 39.75 369.25 34.93 369.25 29C369.25 23.07 374.07 18.25 380 18.25C385.93 18.25 390.75 23.07 390.75 29C390.75 34.93 385.93 39.75 380 39.75ZM380 19.75C374.9 19.75 370.75 23.9 370.75 29C370.75 34.1 374.9 38.25 380 38.25C385.1 38.25 389.25 34.1 389.25 29C389.25 23.9 385.1 19.75 380 19.75Z" fill="#808283"/>
<path d="M377.169 32.5794C376.979 32.5794 376.789 32.5094 376.639 32.3594C376.349 32.0694 376.349 31.5894 376.639 31.2994L382.299 25.6394C382.589 25.3494 383.069 25.3494 383.359 25.6394C383.649 25.9294 383.649 26.4094 383.359 26.6994L377.699 32.3594C377.559 32.5094 377.359 32.5794 377.169 32.5794Z" fill="#808283"/>
<path d="M382.829 32.5794C382.639 32.5794 382.449 32.5094 382.299 32.3594L376.639 26.6994C376.349 26.4094 376.349 25.9294 376.639 25.6394C376.929 25.3494 377.409 25.3494 377.699 25.6394L383.359 31.2994C383.649 31.5894 383.649 32.0694 383.359 32.3594C383.209 32.5094 383.019 32.5794 382.829 32.5794Z" fill="#808283"/>
<g opacity="0.8">
<rect x="16.5" y="58.5" width="118" height="39" rx="7.5" fill="#0C1014" fill-opacity="0.5"/>
<rect x="16.5" y="58.5" width="118" height="39" rx="7.5" stroke="#523A83"/>
<path d="M37.55 83.15C36.1 83.15 34.99 82.775 34.22 82.025C33.46 81.265 33.08 80.145 33.08 78.665V72.425H35V78.65C35 79.6 35.215 80.315 35.645 80.795C36.085 81.265 36.72 81.5 37.55 81.5C38.38 81.5 39.01 81.265 39.44 80.795C39.87 80.315 40.085 79.6 40.085 78.65V72.425H41.99V78.665C41.99 80.145 41.615 81.265 40.865 82.025C40.115 82.775 39.01 83.15 37.55 83.15ZM44.0492 85.7V75.665H45.8792V77.21H45.7292C45.8792 76.7 46.1842 76.29 46.6442 75.98C47.1142 75.67 47.6592 75.515 48.2792 75.515C48.9192 75.515 49.4792 75.67 49.9592 75.98C50.4492 76.29 50.8292 76.73 51.0992 77.3C51.3692 77.86 51.5042 78.535 51.5042 79.325C51.5042 80.105 51.3692 80.785 51.0992 81.365C50.8292 81.935 50.4542 82.375 49.9742 82.685C49.4942 82.995 48.9292 83.15 48.2792 83.15C47.6692 83.15 47.1342 83 46.6742 82.7C46.2142 82.39 45.9042 81.99 45.7442 81.5H45.9242V85.7H44.0492ZM47.7542 81.725C48.3142 81.725 48.7642 81.525 49.1042 81.125C49.4442 80.715 49.6142 80.115 49.6142 79.325C49.6142 78.525 49.4442 77.93 49.1042 77.54C48.7642 77.14 48.3142 76.94 47.7542 76.94C47.1942 76.94 46.7442 77.14 46.4042 77.54C46.0642 77.93 45.8942 78.525 45.8942 79.325C45.8942 80.115 46.0642 80.715 46.4042 81.125C46.7442 81.525 47.1942 81.725 47.7542 81.725ZM56.4334 83.15C55.6634 83.15 54.9934 82.995 54.4234 82.685C53.8534 82.365 53.4134 81.915 53.1034 81.335C52.7934 80.755 52.6384 80.075 52.6384 79.295C52.6384 78.515 52.7934 77.845 53.1034 77.285C53.4134 76.715 53.8534 76.28 54.4234 75.98C54.9934 75.67 55.6634 75.515 56.4334 75.515C56.9034 75.515 57.3684 75.59 57.8284 75.74C58.2884 75.89 58.6684 76.1 58.9684 76.37L58.4134 77.675C58.1534 77.445 57.8584 77.27 57.5284 77.15C57.2084 77.03 56.8984 76.97 56.5984 76.97C55.9484 76.97 55.4434 77.175 55.0834 77.585C54.7334 77.985 54.5584 78.56 54.5584 79.31C54.5584 80.05 54.7334 80.635 55.0834 81.065C55.4434 81.485 55.9484 81.695 56.5984 81.695C56.8884 81.695 57.1984 81.635 57.5284 81.515C57.8584 81.395 58.1534 81.215 58.4134 80.975L58.9684 82.295C58.6684 82.555 58.2834 82.765 57.8134 82.925C57.3534 83.075 56.8934 83.15 56.4334 83.15ZM63.3171 83.15C62.5571 83.15 61.8971 82.995 61.3371 82.685C60.7771 82.375 60.3421 81.935 60.0321 81.365C59.7221 80.785 59.5671 80.105 59.5671 79.325C59.5671 78.545 59.7221 77.87 60.0321 77.3C60.3421 76.73 60.7771 76.29 61.3371 75.98C61.8971 75.67 62.5571 75.515 63.3171 75.515C64.0771 75.515 64.7371 75.67 65.2971 75.98C65.8571 76.29 66.2921 76.73 66.6021 77.3C66.9121 77.87 67.0671 78.545 67.0671 79.325C67.0671 80.105 66.9121 80.785 66.6021 81.365C66.2921 81.935 65.8571 82.375 65.2971 82.685C64.7371 82.995 64.0771 83.15 63.3171 83.15ZM63.3171 81.725C63.8771 81.725 64.3271 81.525 64.6671 81.125C65.0071 80.715 65.1771 80.115 65.1771 79.325C65.1771 78.525 65.0071 77.93 64.6671 77.54C64.3271 77.14 63.8771 76.94 63.3171 76.94C62.7571 76.94 62.3071 77.14 61.9671 77.54C61.6271 77.93 61.4571 78.525 61.4571 79.325C61.4571 80.115 61.6271 80.715 61.9671 81.125C62.3071 81.525 62.7571 81.725 63.3171 81.725ZM68.6446 83V75.665H70.4746V77.135H70.3096C70.4396 76.795 70.6196 76.505 70.8496 76.265C71.0796 76.025 71.3546 75.84 71.6746 75.71C71.9946 75.58 72.3496 75.515 72.7396 75.515C73.3296 75.515 73.8146 75.655 74.1946 75.935C74.5746 76.215 74.8396 76.645 74.9896 77.225H74.7796C74.9796 76.695 75.3096 76.28 75.7696 75.98C76.2296 75.67 76.7596 75.515 77.3596 75.515C77.9196 75.515 78.3796 75.625 78.7396 75.845C79.1096 76.065 79.3846 76.4 79.5646 76.85C79.7446 77.29 79.8346 77.85 79.8346 78.53V83H77.9596V78.605C77.9596 78.045 77.8646 77.635 77.6746 77.375C77.4946 77.115 77.1846 76.985 76.7446 76.985C76.4246 76.985 76.1446 77.065 75.9046 77.225C75.6646 77.375 75.4796 77.595 75.3496 77.885C75.2296 78.175 75.1696 78.525 75.1696 78.935V83H73.2946V78.605C73.2946 78.045 73.1996 77.635 73.0096 77.375C72.8296 77.115 72.5246 76.985 72.0946 76.985C71.7646 76.985 71.4796 77.065 71.2396 77.225C71.0096 77.375 70.8296 77.595 70.6996 77.885C70.5796 78.175 70.5196 78.525 70.5196 78.935V83H68.6446ZM81.6489 74.09V72.26H83.7489V74.09H81.6489ZM81.7689 83V75.665H83.6439V83H81.7689ZM85.5922 83V75.665H87.4222V77.135H87.2572C87.4772 76.605 87.8172 76.205 88.2772 75.935C88.7472 75.655 89.2772 75.515 89.8672 75.515C90.4572 75.515 90.9422 75.625 91.3222 75.845C91.7022 76.065 91.9872 76.4 92.1772 76.85C92.3672 77.29 92.4622 77.85 92.4622 78.53V83H90.5872V78.62C90.5872 78.24 90.5372 77.93 90.4372 77.69C90.3472 77.45 90.2022 77.275 90.0022 77.165C89.8122 77.045 89.5672 76.985 89.2672 76.985C88.9072 76.985 88.5922 77.065 88.3222 77.225C88.0522 77.375 87.8422 77.595 87.6922 77.885C87.5422 78.165 87.4672 78.495 87.4672 78.875V83H85.5922ZM97.7866 85.85C97.1066 85.85 96.4666 85.77 95.8666 85.61C95.2766 85.46 94.7566 85.225 94.3066 84.905L94.8466 83.6C95.1266 83.78 95.4216 83.93 95.7316 84.05C96.0416 84.18 96.3566 84.275 96.6766 84.335C96.9966 84.395 97.3166 84.425 97.6366 84.425C98.3066 84.425 98.8066 84.26 99.1366 83.93C99.4766 83.61 99.6466 83.13 99.6466 82.49V81.14H99.7816C99.6316 81.65 99.3166 82.06 98.8366 82.37C98.3666 82.67 97.8316 82.82 97.2316 82.82C96.5716 82.82 95.9966 82.67 95.5066 82.37C95.0166 82.06 94.6366 81.63 94.3666 81.08C94.0966 80.53 93.9616 79.89 93.9616 79.16C93.9616 78.43 94.0966 77.795 94.3666 77.255C94.6366 76.705 95.0166 76.28 95.5066 75.98C95.9966 75.67 96.5716 75.515 97.2316 75.515C97.8516 75.515 98.3916 75.67 98.8516 75.98C99.3216 76.28 99.6266 76.68 99.7666 77.18H99.6466V75.665H101.477V82.265C101.477 83.055 101.337 83.715 101.057 84.245C100.777 84.785 100.362 85.185 99.8116 85.445C99.2616 85.715 98.5866 85.85 97.7866 85.85ZM97.7416 81.395C98.3216 81.395 98.7816 81.195 99.1216 80.795C99.4616 80.395 99.6316 79.85 99.6316 79.16C99.6316 78.47 99.4616 77.93 99.1216 77.54C98.7816 77.14 98.3216 76.94 97.7416 76.94C97.1616 76.94 96.7016 77.14 96.3616 77.54C96.0216 77.93 95.8516 78.47 95.8516 79.16C95.8516 79.85 96.0216 80.395 96.3616 80.795C96.7016 81.195 97.1616 81.395 97.7416 81.395Z" fill="white"/>
<path d="M111.47 76.74L115 80.26L118.53 76.74" stroke="#B0B0B0" stroke-width="1.5" stroke-linecap="round" stroke-linejoin="round"/>
</g>
<mask id="path-11-inside-1_60_1004" fill="white">
<path d="M16 114H392V236H16V114Z"/>
</mask>
<path d="M16 114V115H392V114V113H16V114Z" fill="#2E2744" mask="url(#path-11-inside-1_60_1004)"/>
<path d="M15.976 154.216L15.76 151.696L17.464 151.6C17.944 151.568 18.336 151.464 18.64 151.288C18.96 151.096 19.2 150.832 19.36 150.496C19.52 150.144 19.6 149.728 19.6 149.248V137.08H22.672V149.224C22.672 150.232 22.496 151.088 22.144 151.792C21.792 152.496 21.264 153.04 20.56 153.424C19.856 153.808 18.984 154.04 17.944 154.12L15.976 154.216ZM30.3393 154.24C29.3633 154.24 28.5553 154.064 27.9153 153.712C27.2753 153.344 26.7953 152.8 26.4753 152.08C26.1713 151.36 26.0193 150.464 26.0193 149.392V142.264H29.0193V149.44C29.0193 149.984 29.0913 150.44 29.2353 150.808C29.3953 151.176 29.6273 151.448 29.9313 151.624C30.2513 151.8 30.6513 151.888 31.1313 151.888C31.6753 151.888 32.1473 151.768 32.5473 151.528C32.9633 151.272 33.2833 150.92 33.5073 150.472C33.7473 150.008 33.8673 149.472 33.8673 148.864V142.264H36.8672V154H33.9393V151.552H34.2753C33.9393 152.416 33.4273 153.08 32.7393 153.544C32.0673 154.008 31.2673 154.24 30.3393 154.24ZM39.9897 154V142.264H42.9177V144.616H42.6537C43.0057 143.768 43.5497 143.128 44.2857 142.696C45.0377 142.248 45.8857 142.024 46.8297 142.024C47.7737 142.024 48.5497 142.2 49.1577 142.552C49.7657 142.904 50.2217 143.44 50.5257 144.16C50.8297 144.864 50.9817 145.76 50.9817 146.848V154H47.9817V146.992C47.9817 146.384 47.9017 145.888 47.7417 145.504C47.5977 145.12 47.3657 144.84 47.0457 144.664C46.7417 144.472 46.3497 144.376 45.8697 144.376C45.2937 144.376 44.7897 144.504 44.3577 144.76C43.9257 145 43.5897 145.352 43.3497 145.816C43.1097 146.264 42.9897 146.792 42.9897 147.4V154H39.9897Z" fill="#B0B0B0"/>
<path d="M25.3 194.31C23.5847 194.31 22.1277 193.876 20.929 193.008C19.751 192.119 18.852 190.838 18.232 189.164C17.6327 187.49 17.333 185.444 17.333 183.026C17.333 180.587 17.6327 178.541 18.232 176.888C18.852 175.214 19.751 173.953 20.929 173.106C22.1277 172.259 23.5847 171.835 25.3 171.835C27.036 171.835 28.493 172.259 29.671 173.106C30.8697 173.953 31.7687 175.204 32.368 176.857C32.9673 178.51 33.267 180.556 33.267 182.995C33.267 185.413 32.957 187.469 32.337 189.164C31.7377 190.838 30.849 192.119 29.671 193.008C28.493 193.876 27.036 194.31 25.3 194.31ZM25.3 191.055C26.7053 191.055 27.7387 190.414 28.4 189.133C29.082 187.831 29.423 185.785 29.423 182.995C29.423 180.226 29.082 178.221 28.4 176.981C27.7387 175.72 26.7053 175.09 25.3 175.09C23.9153 175.09 22.882 175.72 22.2 176.981C21.518 178.221 21.177 180.236 21.177 183.026C21.177 185.795 21.518 187.831 22.2 189.133C22.882 190.414 23.9153 191.055 25.3 191.055ZM43.4539 194.31C42.4619 194.31 41.4906 194.207 40.5399 194C39.6099 193.814 38.7419 193.535 37.9359 193.163C37.1299 192.791 36.4272 192.347 35.8279 191.83L37.1299 188.792C38.1012 189.536 39.0932 190.084 40.1059 190.435C41.1186 190.786 42.1932 190.962 43.3299 190.962C44.2392 190.962 45.0039 190.838 45.6239 190.59C46.2439 190.342 46.7089 189.97 47.0189 189.474C47.3496 188.978 47.5149 188.379 47.5149 187.676C47.5149 186.643 47.1636 185.878 46.4609 185.382C45.7789 184.865 44.7766 184.607 43.4539 184.607H39.9509V181.321H43.0819C43.8672 181.321 44.5389 181.197 45.0969 180.949C45.6549 180.68 46.0889 180.308 46.3989 179.833C46.7089 179.358 46.8639 178.779 46.8639 178.097C46.8639 177.146 46.5436 176.423 45.9029 175.927C45.2829 175.431 44.3736 175.183 43.1749 175.183C42.1002 175.183 41.0979 175.369 40.1679 175.741C39.2379 176.092 38.3492 176.65 37.5019 177.415L36.1999 174.439C37.0679 173.612 38.1529 172.972 39.4549 172.517C40.7569 172.062 42.1106 171.835 43.5159 171.835C45.0246 171.835 46.3162 172.073 47.3909 172.548C48.4656 173.003 49.2819 173.664 49.8399 174.532C50.4186 175.379 50.7079 176.413 50.7079 177.632C50.7079 178.934 50.3462 180.06 49.6229 181.011C48.8996 181.941 47.9076 182.561 46.6469 182.871V182.499C47.6389 182.664 48.4862 182.995 49.1889 183.491C49.8916 183.987 50.4289 184.617 50.8009 185.382C51.1729 186.147 51.3589 187.025 51.3589 188.017C51.3589 189.298 51.0386 190.414 50.3979 191.365C49.7572 192.316 48.8479 193.049 47.6699 193.566C46.4919 194.062 45.0866 194.31 43.4539 194.31Z" fill="white"/>
<rect x="82" y="130" width="4" height="106" rx="2" fill="#2E2744"/>
<path d="M95.155 145V134.425H96.595L102.67 142.315H102.28V134.425H104.065V145H102.64L96.565 137.095H96.94V145H95.155ZM106.376 145V134.425H108.296V145H106.376ZM115.334 145.15C114.564 145.15 113.864 145.025 113.234 144.775C112.614 144.515 112.079 144.145 111.629 143.665C111.189 143.185 110.849 142.61 110.609 141.94C110.369 141.27 110.249 140.525 110.249 139.705C110.249 138.875 110.369 138.13 110.609 137.47C110.849 136.8 111.189 136.23 111.629 135.76C112.079 135.28 112.614 134.915 113.234 134.665C113.864 134.405 114.564 134.275 115.334 134.275C116.104 134.275 116.799 134.405 117.419 134.665C118.049 134.915 118.584 135.275 119.024 135.745C119.474 136.215 119.819 136.785 120.059 137.455C120.299 138.115 120.419 138.86 120.419 139.69C120.419 140.52 120.299 141.27 120.059 141.94C119.819 142.61 119.474 143.185 119.024 143.665C118.584 144.145 118.049 144.515 117.419 144.775C116.799 145.025 116.104 145.15 115.334 145.15ZM115.334 143.5C115.984 143.5 116.534 143.35 116.984 143.05C117.444 142.75 117.794 142.315 118.034 141.745C118.284 141.175 118.409 140.495 118.409 139.705C118.409 138.905 118.289 138.225 118.049 137.665C117.809 137.095 117.459 136.665 116.999 136.375C116.539 136.075 115.984 135.925 115.334 135.925C114.694 135.925 114.144 136.075 113.684 136.375C113.224 136.665 112.869 137.095 112.619 137.665C112.379 138.225 112.259 138.905 112.259 139.705C112.259 140.495 112.379 141.175 112.619 141.745C112.869 142.315 113.224 142.75 113.684 143.05C114.144 143.35 114.694 143.5 115.334 143.5Z" fill="white"/>
<path d="M95.275 173V162.425H96.34L102.925 171.155H102.55V162.425H103.855V173H102.805L96.22 164.255H96.565V173H95.275ZM106.393 173V162.425H107.788V173H106.393ZM114.834 173.135C114.084 173.135 113.409 173.01 112.809 172.76C112.209 172.51 111.694 172.145 111.264 171.665C110.834 171.185 110.504 170.615 110.274 169.955C110.044 169.285 109.929 168.535 109.929 167.705C109.929 166.875 110.044 166.13 110.274 165.47C110.504 164.8 110.829 164.23 111.249 163.76C111.679 163.28 112.194 162.915 112.794 162.665C113.404 162.415 114.084 162.29 114.834 162.29C115.584 162.29 116.259 162.415 116.859 162.665C117.459 162.915 117.974 163.275 118.404 163.745C118.834 164.215 119.159 164.785 119.379 165.455C119.609 166.115 119.724 166.86 119.724 167.69C119.724 168.52 119.609 169.27 119.379 169.94C119.149 170.61 118.819 171.185 118.389 171.665C117.969 172.145 117.459 172.51 116.859 172.76C116.259 173.01 115.584 173.135 114.834 173.135ZM114.834 171.905C115.554 171.905 116.169 171.74 116.679 171.41C117.189 171.08 117.579 170.6 117.849 169.97C118.129 169.34 118.269 168.585 118.269 167.705C118.269 166.815 118.134 166.06 117.864 165.44C117.594 164.81 117.204 164.335 116.694 164.015C116.184 163.685 115.564 163.52 114.834 163.52C114.114 163.52 113.494 163.685 112.974 164.015C112.464 164.335 112.074 164.81 111.804 165.44C111.534 166.06 111.399 166.815 111.399 167.705C111.399 168.585 111.534 169.34 111.804 169.97C112.074 170.6 112.464 171.08 112.974 171.41C113.494 171.74 114.114 171.905 114.834 171.905ZM125.788 173V162.425H127.183V173H125.788ZM129.533 173V165.695H130.868V167.285H130.703C130.913 166.715 131.253 166.285 131.723 165.995C132.203 165.705 132.748 165.56 133.358 165.56C133.948 165.56 134.433 165.665 134.813 165.875C135.193 166.085 135.478 166.41 135.668 166.85C135.858 167.28 135.953 167.82 135.953 168.47V173H134.588V168.545C134.588 168.115 134.533 167.76 134.423 167.48C134.313 167.2 134.138 166.995 133.898 166.865C133.668 166.735 133.373 166.67 133.013 166.67C132.593 166.67 132.223 166.76 131.903 166.94C131.583 167.12 131.333 167.375 131.153 167.705C130.983 168.035 130.898 168.42 130.898 168.86V173H129.533ZM141.282 173.135C140.542 173.135 139.902 172.98 139.362 172.67C138.822 172.35 138.407 171.905 138.117 171.335C137.827 170.755 137.682 170.075 137.682 169.295C137.682 168.525 137.827 167.86 138.117 167.3C138.407 166.74 138.822 166.31 139.362 166.01C139.902 165.71 140.542 165.56 141.282 165.56C141.742 165.56 142.192 165.64 142.632 165.8C143.082 165.96 143.452 166.185 143.742 166.475L143.292 167.435C143.002 167.175 142.687 166.98 142.347 166.85C142.007 166.72 141.682 166.655 141.372 166.655C140.642 166.655 140.077 166.885 139.677 167.345C139.277 167.805 139.077 168.46 139.077 169.31C139.077 170.16 139.277 170.83 139.677 171.32C140.077 171.8 140.642 172.04 141.372 172.04C141.682 172.04 142.007 171.975 142.347 171.845C142.687 171.715 143.002 171.515 143.292 171.245L143.742 172.22C143.452 172.51 143.077 172.735 142.617 172.895C142.167 173.055 141.722 173.135 141.282 173.135Z" fill="#B0B0B0"/>
<path d="M95.155 203V192.425H97.075V196.835H102.52V192.425H104.44V203H102.52V198.44H97.075V203H95.155ZM106.757 203V192.425H111.347C112.127 192.425 112.787 192.555 113.327 192.815C113.867 193.075 114.277 193.45 114.557 193.94C114.837 194.43 114.977 195.025 114.977 195.725C114.977 196.415 114.837 197.01 114.557 197.51C114.277 198 113.867 198.38 113.327 198.65C112.787 198.91 112.127 199.04 111.347 199.04H108.677V203H106.757ZM108.677 197.525H111.047C111.727 197.525 112.242 197.375 112.592 197.075C112.942 196.765 113.117 196.315 113.117 195.725C113.117 195.135 112.942 194.69 112.592 194.39C112.242 194.09 111.727 193.94 111.047 193.94H108.677V197.525ZM116.542 203V192.425H123.577V193.955H118.387V196.865H123.247V198.395H118.387V201.47H123.577V203H116.542Z" fill="white"/>
<path d="M95.155 231V220.425H97.075V224.835H102.52V220.425H104.44V231H102.52V226.44H97.075V231H95.155ZM110.192 231.15C109.362 231.15 108.647 230.995 108.047 230.685C107.447 230.375 106.982 229.935 106.652 229.365C106.332 228.795 106.172 228.12 106.172 227.34C106.172 226.58 106.327 225.915 106.637 225.345C106.957 224.775 107.392 224.33 107.942 224.01C108.502 223.68 109.137 223.515 109.847 223.515C110.547 223.515 111.147 223.665 111.647 223.965C112.147 224.265 112.532 224.69 112.802 225.24C113.082 225.79 113.222 226.445 113.222 227.205V227.76H107.687V226.68H111.902L111.662 226.905C111.662 226.225 111.512 225.705 111.212 225.345C110.912 224.975 110.482 224.79 109.922 224.79C109.502 224.79 109.142 224.89 108.842 225.09C108.552 225.28 108.327 225.555 108.167 225.915C108.017 226.265 107.942 226.685 107.942 227.175V227.28C107.942 227.83 108.027 228.285 108.197 228.645C108.367 229.005 108.622 229.275 108.962 229.455C109.302 229.635 109.722 229.725 110.222 229.725C110.632 229.725 111.042 229.665 111.452 229.545C111.862 229.415 112.237 229.215 112.577 228.945L113.102 230.205C112.752 230.495 112.312 230.725 111.782 230.895C111.252 231.065 110.722 231.15 110.192 231.15ZM116.614 231L113.719 223.665H115.639L117.679 229.29H117.334L119.404 223.665H120.724L122.764 229.29H122.449L124.489 223.665H126.304L123.424 231H121.789L119.569 225.135H120.424L118.249 231H116.614ZM129.927 231.15C129.057 231.15 128.412 230.915 127.992 230.445C127.582 229.965 127.377 229.265 127.377 228.345V220.425H129.252V228.255C129.252 228.545 129.292 228.795 129.372 229.005C129.462 229.205 129.592 229.355 129.762 229.455C129.932 229.555 130.142 229.605 130.392 229.605C130.502 229.605 130.612 229.6 130.722 229.59C130.832 229.58 130.937 229.56 131.037 229.53L131.007 231.015C130.827 231.055 130.647 231.085 130.467 231.105C130.297 231.135 130.117 231.15 129.927 231.15ZM135.709 231.15C134.879 231.15 134.164 230.995 133.564 230.685C132.964 230.375 132.499 229.935 132.169 229.365C131.849 228.795 131.689 228.12 131.689 227.34C131.689 226.58 131.844 225.915 132.154 225.345C132.474 224.775 132.909 224.33 133.459 224.01C134.019 223.68 134.654 223.515 135.364 223.515C136.064 223.515 136.664 223.665 137.164 223.965C137.664 224.265 138.049 224.69 138.319 225.24C138.599 225.79 138.739 226.445 138.739 227.205V227.76H133.204V226.68H137.419L137.179 226.905C137.179 226.225 137.029 225.705 136.729 225.345C136.429 224.975 135.999 224.79 135.439 224.79C135.019 224.79 134.659 224.89 134.359 225.09C134.069 225.28 133.844 225.555 133.684 225.915C133.534 226.265 133.459 226.685 133.459 227.175V227.28C133.459 227.83 133.544 228.285 133.714 228.645C133.884 229.005 134.139 229.275 134.479 229.455C134.819 229.635 135.239 229.725 135.739 229.725C136.149 229.725 136.559 229.665 136.969 229.545C137.379 229.415 137.754 229.215 138.094 228.945L138.619 230.205C138.269 230.495 137.829 230.725 137.299 230.895C136.769 231.065 136.239 231.15 135.709 231.15ZM143.555 231.15C142.575 231.15 141.845 230.905 141.365 230.415C140.885 229.925 140.645 229.21 140.645 228.27V225.075H139.235V223.665H140.645V221.475H142.52V223.665H144.74V225.075H142.52V228.165C142.52 228.645 142.625 229.005 142.835 229.245C143.045 229.485 143.385 229.605 143.855 229.605C143.995 229.605 144.14 229.59 144.29 229.56C144.44 229.52 144.595 229.48 144.755 229.44L145.04 230.82C144.86 230.92 144.63 231 144.35 231.06C144.08 231.12 143.815 231.15 143.555 231.15ZM148.887 231.15C147.907 231.15 147.177 230.905 146.697 230.415C146.217 229.925 145.977 229.21 145.977 228.27V225.075H144.567V223.665H145.977V221.475H147.852V223.665H150.072V225.075H147.852V228.165C147.852 228.645 147.957 229.005 148.167 229.245C148.377 229.485 148.717 229.605 149.187 229.605C149.327 229.605 149.472 229.59 149.622 229.56C149.772 229.52 149.927 229.48 150.087 229.44L150.372 230.82C150.192 230.92 149.962 231 149.682 231.06C149.412 231.12 149.147 231.15 148.887 231.15ZM155.507 231V220.425H160.097C160.877 220.425 161.537 220.555 162.077 220.815C162.617 221.075 163.027 221.45 163.307 221.94C163.587 222.43 163.727 223.025 163.727 223.725C163.727 224.415 163.587 225.01 163.307 225.51C163.027 226 162.617 226.38 162.077 226.65C161.537 226.91 160.877 227.04 160.097 227.04H157.427V231H155.507ZM157.427 225.525H159.797C160.477 225.525 160.992 225.375 161.342 225.075C161.692 224.765 161.867 224.315 161.867 223.725C161.867 223.135 161.692 222.69 161.342 222.39C160.992 222.09 160.477 221.94 159.797 221.94H157.427V225.525ZM167.175 231.15C166.645 231.15 166.17 231.05 165.75 230.85C165.34 230.64 165.015 230.36 164.775 230.01C164.545 229.66 164.43 229.265 164.43 228.825C164.43 228.285 164.57 227.86 164.85 227.55C165.13 227.23 165.585 227 166.215 226.86C166.845 226.72 167.69 226.65 168.75 226.65H169.5V227.73H168.765C168.295 227.73 167.9 227.75 167.58 227.79C167.26 227.82 167 227.875 166.8 227.955C166.61 228.025 166.47 228.125 166.38 228.255C166.3 228.385 166.26 228.545 166.26 228.735C166.26 229.065 166.375 229.335 166.605 229.545C166.835 229.755 167.155 229.86 167.565 229.86C167.895 229.86 168.185 229.785 168.435 229.635C168.695 229.475 168.9 229.26 169.05 228.99C169.2 228.72 169.275 228.41 169.275 228.06V226.335C169.275 225.835 169.165 225.475 168.945 225.255C168.725 225.035 168.355 224.925 167.835 224.925C167.425 224.925 167.005 224.99 166.575 225.12C166.145 225.24 165.71 225.43 165.27 225.69L164.73 224.415C164.99 224.235 165.295 224.08 165.645 223.95C166.005 223.81 166.38 223.705 166.77 223.635C167.17 223.555 167.545 223.515 167.895 223.515C168.615 223.515 169.205 223.625 169.665 223.845C170.135 224.065 170.485 224.4 170.715 224.85C170.945 225.29 171.06 225.86 171.06 226.56V231H169.305V229.44H169.425C169.355 229.79 169.215 230.095 169.005 230.355C168.805 230.605 168.55 230.8 168.24 230.94C167.93 231.08 167.575 231.15 167.175 231.15ZM176.353 231.15C175.583 231.15 174.913 230.995 174.343 230.685C173.773 230.365 173.333 229.915 173.023 229.335C172.713 228.755 172.558 228.075 172.558 227.295C172.558 226.515 172.713 225.845 173.023 225.285C173.333 224.715 173.773 224.28 174.343 223.98C174.913 223.67 175.583 223.515 176.353 223.515C176.823 223.515 177.288 223.59 177.748 223.74C178.208 223.89 178.588 224.1 178.888 224.37L178.333 225.675C178.073 225.445 177.778 225.27 177.448 225.15C177.128 225.03 176.818 224.97 176.518 224.97C175.868 224.97 175.363 225.175 175.003 225.585C174.653 225.985 174.478 226.56 174.478 227.31C174.478 228.05 174.653 228.635 175.003 229.065C175.363 229.485 175.868 229.695 176.518 229.695C176.808 229.695 177.118 229.635 177.448 229.515C177.778 229.395 178.073 229.215 178.333 228.975L178.888 230.295C178.588 230.555 178.203 230.765 177.733 230.925C177.273 231.075 176.813 231.15 176.353 231.15ZM180.038 231V220.425H181.913V226.785H181.943L184.898 223.665H187.163L183.473 227.565V226.785L187.373 231H185.078L181.943 227.73H181.913V231H180.038ZM190.422 231.15C189.892 231.15 189.417 231.05 188.997 230.85C188.587 230.64 188.262 230.36 188.022 230.01C187.792 229.66 187.677 229.265 187.677 228.825C187.677 228.285 187.817 227.86 188.097 227.55C188.377 227.23 188.832 227 189.462 226.86C190.092 226.72 190.937 226.65 191.997 226.65H192.747V227.73H192.012C191.542 227.73 191.147 227.75 190.827 227.79C190.507 227.82 190.247 227.875 190.047 227.955C189.857 228.025 189.717 228.125 189.627 228.255C189.547 228.385 189.507 228.545 189.507 228.735C189.507 229.065 189.622 229.335 189.852 229.545C190.082 229.755 190.402 229.86 190.812 229.86C191.142 229.86 191.432 229.785 191.682 229.635C191.942 229.475 192.147 229.26 192.297 228.99C192.447 228.72 192.522 228.41 192.522 228.06V226.335C192.522 225.835 192.412 225.475 192.192 225.255C191.972 225.035 191.602 224.925 191.082 224.925C190.672 224.925 190.252 224.99 189.822 225.12C189.392 225.24 188.957 225.43 188.517 225.69L187.977 224.415C188.237 224.235 188.542 224.08 188.892 223.95C189.252 223.81 189.627 223.705 190.017 223.635C190.417 223.555 190.792 223.515 191.142 223.515C191.862 223.515 192.452 223.625 192.912 223.845C193.382 224.065 193.732 224.4 193.962 224.85C194.192 225.29 194.307 225.86 194.307 226.56V231H192.552V229.44H192.672C192.602 229.79 192.462 230.095 192.252 230.355C192.052 230.605 191.797 230.8 191.487 230.94C191.177 231.08 190.822 231.15 190.422 231.15ZM196.21 231V223.665H198.04V225.435H197.89C198.03 224.835 198.305 224.38 198.715 224.07C199.125 223.75 199.67 223.565 200.35 223.515L200.92 223.47L201.04 225.06L199.96 225.165C199.35 225.225 198.89 225.415 198.58 225.735C198.27 226.045 198.115 226.485 198.115 227.055V231H196.21ZM204.787 231.15C204.147 231.15 203.582 230.995 203.092 230.685C202.612 230.375 202.237 229.935 201.967 229.365C201.697 228.785 201.562 228.105 201.562 227.325C201.562 226.535 201.697 225.86 201.967 225.3C202.237 224.73 202.612 224.29 203.092 223.98C203.582 223.67 204.147 223.515 204.787 223.515C205.397 223.515 205.927 223.665 206.377 223.965C206.837 224.265 207.147 224.66 207.307 225.15H207.142V220.425H209.017V231H207.187V229.44H207.322C207.172 229.96 206.867 230.375 206.407 230.685C205.947 230.995 205.407 231.15 204.787 231.15ZM205.312 229.725C205.872 229.725 206.322 229.525 206.662 229.125C207.002 228.715 207.172 228.115 207.172 227.325C207.172 226.525 207.002 225.93 206.662 225.54C206.322 225.14 205.872 224.94 205.312 224.94C204.752 224.94 204.302 225.14 203.962 225.54C203.622 225.93 203.452 226.525 203.452 227.325C203.452 228.115 203.622 228.715 203.962 229.125C204.302 229.525 204.752 229.725 205.312 229.725ZM215.184 231V220.425H222.219V221.955H217.029V224.865H221.889V226.395H217.029V229.47H222.219V231H215.184ZM223.954 231V223.665H225.784V225.135H225.619C225.839 224.605 226.179 224.205 226.639 223.935C227.109 223.655 227.639 223.515 228.229 223.515C228.819 223.515 229.304 223.625 229.684 223.845C230.064 224.065 230.349 224.4 230.539 224.85C230.729 225.29 230.824 225.85 230.824 226.53V231H228.949V226.62C228.949 226.24 228.899 225.93 228.799 225.69C228.709 225.45 228.564 225.275 228.364 225.165C228.174 225.045 227.929 224.985 227.629 224.985C227.269 224.985 226.954 225.065 226.684 225.225C226.414 225.375 226.204 225.595 226.054 225.885C225.904 226.165 225.829 226.495 225.829 226.875V231H223.954ZM236.089 231.15C235.109 231.15 234.379 230.905 233.899 230.415C233.419 229.925 233.179 229.21 233.179 228.27V225.075H231.769V223.665H233.179V221.475H235.054V223.665H237.274V225.075H235.054V228.165C235.054 228.645 235.159 229.005 235.369 229.245C235.579 229.485 235.919 229.605 236.389 229.605C236.529 229.605 236.674 229.59 236.824 229.56C236.974 229.52 237.129 229.48 237.289 229.44L237.574 230.82C237.394 230.92 237.164 231 236.884 231.06C236.614 231.12 236.349 231.15 236.089 231.15ZM242.028 231.15C241.198 231.15 240.483 230.995 239.883 230.685C239.283 230.375 238.818 229.935 238.488 229.365C238.168 228.795 238.008 228.12 238.008 227.34C238.008 226.58 238.163 225.915 238.473 225.345C238.793 224.775 239.228 224.33 239.778 224.01C240.338 223.68 240.973 223.515 241.683 223.515C242.383 223.515 242.983 223.665 243.483 223.965C243.983 224.265 244.368 224.69 244.638 225.24C244.918 225.79 245.058 226.445 245.058 227.205V227.76H239.523V226.68H243.738L243.498 226.905C243.498 226.225 243.348 225.705 243.048 225.345C242.748 224.975 242.318 224.79 241.758 224.79C241.338 224.79 240.978 224.89 240.678 225.09C240.388 225.28 240.163 225.555 240.003 225.915C239.853 226.265 239.778 226.685 239.778 227.175V227.28C239.778 227.83 239.863 228.285 240.033 228.645C240.203 229.005 240.458 229.275 240.798 229.455C241.138 229.635 241.558 229.725 242.058 229.725C242.468 229.725 242.878 229.665 243.288 229.545C243.698 229.415 244.073 229.215 244.413 228.945L244.938 230.205C244.588 230.495 244.148 230.725 243.618 230.895C243.088 231.065 242.558 231.15 242.028 231.15ZM246.542 231V223.665H248.372V225.435H248.222C248.362 224.835 248.637 224.38 249.047 224.07C249.457 223.75 250.002 223.565 250.682 223.515L251.252 223.47L251.372 225.06L250.292 225.165C249.682 225.225 249.222 225.415 248.912 225.735C248.602 226.045 248.447 226.485 248.447 227.055V231H246.542ZM252.416 233.7V223.665H254.246V225.21H254.096C254.246 224.7 254.551 224.29 255.011 223.98C255.481 223.67 256.026 223.515 256.646 223.515C257.286 223.515 257.846 223.67 258.326 223.98C258.816 224.29 259.196 224.73 259.466 225.3C259.736 225.86 259.871 226.535 259.871 227.325C259.871 228.105 259.736 228.785 259.466 229.365C259.196 229.935 258.821 230.375 258.341 230.685C257.861 230.995 257.296 231.15 256.646 231.15C256.036 231.15 255.501 231 255.041 230.7C254.581 230.39 254.271 229.99 254.111 229.5H254.291V233.7H252.416ZM256.121 229.725C256.681 229.725 257.131 229.525 257.471 229.125C257.811 228.715 257.981 228.115 257.981 227.325C257.981 226.525 257.811 225.93 257.471 225.54C257.131 225.14 256.681 224.94 256.121 224.94C255.561 224.94 255.111 225.14 254.771 225.54C254.431 225.93 254.261 226.525 254.261 227.325C254.261 228.115 254.431 228.715 254.771 229.125C255.111 229.525 255.561 229.725 256.121 229.725ZM264.697 231.15C263.717 231.15 262.987 230.905 262.507 230.415C262.027 229.925 261.787 229.21 261.787 228.27V225.075H260.377V223.665H261.787V221.475H263.662V223.665H265.882V225.075H263.662V228.165C263.662 228.645 263.767 229.005 263.977 229.245C264.187 229.485 264.527 229.605 264.997 229.605C265.137 229.605 265.282 229.59 265.432 229.56C265.582 229.52 265.737 229.48 265.897 229.44L266.182 230.82C266.002 230.92 265.772 231 265.492 231.06C265.222 231.12 264.957 231.15 264.697 231.15ZM266.974 222.09V220.26H269.074V222.09H266.974ZM267.094 231V223.665H268.969V231H267.094ZM273.602 231.15C273.192 231.15 272.792 231.115 272.402 231.045C272.022 230.975 271.672 230.88 271.352 230.76C271.032 230.63 270.752 230.47 270.512 230.28L270.992 229.05C271.242 229.21 271.512 229.35 271.802 229.47C272.092 229.59 272.392 229.68 272.702 229.74C273.012 229.8 273.317 229.83 273.617 229.83C274.097 229.83 274.452 229.75 274.682 229.59C274.922 229.42 275.042 229.2 275.042 228.93C275.042 228.7 274.962 228.525 274.802 228.405C274.652 228.275 274.422 228.18 274.112 228.12L272.612 227.835C271.992 227.715 271.517 227.49 271.187 227.16C270.867 226.82 270.707 226.385 270.707 225.855C270.707 225.375 270.837 224.96 271.097 224.61C271.367 224.26 271.737 223.99 272.207 223.8C272.677 223.61 273.217 223.515 273.827 223.515C274.177 223.515 274.517 223.55 274.847 223.62C275.177 223.68 275.487 223.775 275.777 223.905C276.077 224.025 276.337 224.185 276.557 224.385L276.047 225.615C275.857 225.455 275.637 225.32 275.387 225.21C275.137 225.09 274.877 225 274.607 224.94C274.347 224.87 274.092 224.835 273.842 224.835C273.352 224.835 272.987 224.92 272.747 225.09C272.517 225.26 272.402 225.485 272.402 225.765C272.402 225.975 272.472 226.15 272.612 226.29C272.752 226.43 272.967 226.525 273.257 226.575L274.757 226.86C275.407 226.98 275.897 227.2 276.227 227.52C276.567 227.84 276.737 228.27 276.737 228.81C276.737 229.3 276.607 229.72 276.347 230.07C276.087 230.42 275.722 230.69 275.252 230.88C274.782 231.06 274.232 231.15 273.602 231.15ZM281.857 231.15C281.027 231.15 280.312 230.995 279.712 230.685C279.112 230.375 278.647 229.935 278.317 229.365C277.997 228.795 277.837 228.12 277.837 227.34C277.837 226.58 277.992 225.915 278.302 225.345C278.622 224.775 279.057 224.33 279.607 224.01C280.167 223.68 280.802 223.515 281.512 223.515C282.212 223.515 282.812 223.665 283.312 223.965C283.812 224.265 284.197 224.69 284.467 225.24C284.747 225.79 284.887 226.445 284.887 227.205V227.76H279.352V226.68H283.567L283.327 226.905C283.327 226.225 283.177 225.705 282.877 225.345C282.577 224.975 282.147 224.79 281.587 224.79C281.167 224.79 280.807 224.89 280.507 225.09C280.217 225.28 279.992 225.555 279.832 225.915C279.682 226.265 279.607 226.685 279.607 227.175V227.28C279.607 227.83 279.692 228.285 279.862 228.645C280.032 229.005 280.287 229.275 280.627 229.455C280.967 229.635 281.387 229.725 281.887 229.725C282.297 229.725 282.707 229.665 283.117 229.545C283.527 229.415 283.902 229.215 284.242 228.945L284.767 230.205C284.417 230.495 283.977 230.725 283.447 230.895C282.917 231.065 282.387 231.15 281.857 231.15ZM295.514 231.15C294.414 231.15 293.469 230.93 292.679 230.49C291.899 230.04 291.299 229.41 290.879 228.6C290.459 227.78 290.249 226.815 290.249 225.705C290.249 224.595 290.459 223.635 290.879 222.825C291.299 222.015 291.899 221.39 292.679 220.95C293.469 220.5 294.414 220.275 295.514 220.275C296.224 220.275 296.894 220.385 297.524 220.605C298.164 220.825 298.689 221.14 299.099 221.55L298.469 223.08C298.019 222.7 297.559 222.425 297.089 222.255C296.619 222.075 296.114 221.985 295.574 221.985C294.504 221.985 293.689 222.31 293.129 222.96C292.569 223.6 292.289 224.515 292.289 225.705C292.289 226.895 292.569 227.815 293.129 228.465C293.689 229.115 294.504 229.44 295.574 229.44C296.114 229.44 296.619 229.355 297.089 229.185C297.559 229.005 298.019 228.725 298.469 228.345L299.099 229.875C298.689 230.275 298.164 230.59 297.524 230.82C296.894 231.04 296.224 231.15 295.514 231.15ZM303.413 231.15C302.653 231.15 301.993 230.995 301.433 230.685C300.873 230.375 300.438 229.935 300.128 229.365C299.818 228.785 299.663 228.105 299.663 227.325C299.663 226.545 299.818 225.87 300.128 225.3C300.438 224.73 300.873 224.29 301.433 223.98C301.993 223.67 302.653 223.515 303.413 223.515C304.173 223.515 304.833 223.67 305.393 223.98C305.953 224.29 306.388 224.73 306.698 225.3C307.008 225.87 307.163 226.545 307.163 227.325C307.163 228.105 307.008 228.785 306.698 229.365C306.388 229.935 305.953 230.375 305.393 230.685C304.833 230.995 304.173 231.15 303.413 231.15ZM303.413 229.725C303.973 229.725 304.423 229.525 304.763 229.125C305.103 228.715 305.273 228.115 305.273 227.325C305.273 226.525 305.103 225.93 304.763 225.54C304.423 225.14 303.973 224.94 303.413 224.94C302.853 224.94 302.403 225.14 302.063 225.54C301.723 225.93 301.553 226.525 301.553 227.325C301.553 228.115 301.723 228.715 302.063 229.125C302.403 229.525 302.853 229.725 303.413 229.725Z" fill="#B0B0B0"/>
<path d="M15.976 276.216L15.76 273.696L17.464 273.6C17.944 273.568 18.336 273.464 18.64 273.288C18.96 273.096 19.2 272.832 19.36 272.496C19.52 272.144 19.6 271.728 19.6 271.248V259.08H22.672V271.224C22.672 272.232 22.496 273.088 22.144 273.792C21.792 274.496 21.264 275.04 20.56 275.424C19.856 275.808 18.984 276.04 17.944 276.12L15.976 276.216ZM30.3393 276.24C29.3633 276.24 28.5553 276.064 27.9153 275.712C27.2753 275.344 26.7953 274.8 26.4753 274.08C26.1713 273.36 26.0193 272.464 26.0193 271.392V264.264H29.0193V271.44C29.0193 271.984 29.0913 272.44 29.2353 272.808C29.3953 273.176 29.6273 273.448 29.9313 273.624C30.2513 273.8 30.6513 273.888 31.1313 273.888C31.6753 273.888 32.1473 273.768 32.5473 273.528C32.9633 273.272 33.2833 272.92 33.5073 272.472C33.7473 272.008 33.8673 271.472 33.8673 270.864V264.264H36.8672V276H33.9393V273.552H34.2753C33.9393 274.416 33.4273 275.08 32.7393 275.544C32.0673 276.008 31.2673 276.24 30.3393 276.24ZM39.9897 276V264.264H42.9177V266.616H42.6537C43.0057 265.768 43.5497 265.128 44.2857 264.696C45.0377 264.248 45.8857 264.024 46.8297 264.024C47.7737 264.024 48.5497 264.2 49.1577 264.552C49.7657 264.904 50.2217 265.44 50.5257 266.16C50.8297 266.864 50.9817 267.76 50.9817 268.848V276H47.9817V268.992C47.9817 268.384 47.9017 267.888 47.7417 267.504C47.5977 267.12 47.3657 266.84 47.0457 266.664C46.7417 266.472 46.3497 266.376 45.8697 266.376C45.2937 266.376 44.7897 266.504 44.3577 266.76C43.9257 267 43.5897 267.352 43.3497 267.816C43.1097 268.264 42.9897 268.792 42.9897 269.4V276H39.9897Z" fill="#B0B0B0"/>
<path d="M25.3 316.31C23.5847 316.31 22.1277 315.876 20.929 315.008C19.751 314.119 18.852 312.838 18.232 311.164C17.6327 309.49 17.333 307.444 17.333 305.026C17.333 302.587 17.6327 300.541 18.232 298.888C18.852 297.214 19.751 295.953 20.929 295.106C22.1277 294.259 23.5847 293.835 25.3 293.835C27.036 293.835 28.493 294.259 29.671 295.106C30.8697 295.953 31.7687 297.204 32.368 298.857C32.9673 300.51 33.267 302.556 33.267 304.995C33.267 307.413 32.957 309.469 32.337 311.164C31.7377 312.838 30.849 314.119 29.671 315.008C28.493 315.876 27.036 316.31 25.3 316.31ZM25.3 313.055C26.7053 313.055 27.7387 312.414 28.4 311.133C29.082 309.831 29.423 307.785 29.423 304.995C29.423 302.226 29.082 300.221 28.4 298.981C27.7387 297.72 26.7053 297.09 25.3 297.09C23.9153 297.09 22.882 297.72 22.2 298.981C21.518 300.221 21.177 302.236 21.177 305.026C21.177 307.795 21.518 309.831 22.2 311.133C22.882 312.414 23.9153 313.055 25.3 313.055ZM44.0739 316.31C43.1232 316.31 42.1829 316.207 41.2529 316C40.3436 315.793 39.4859 315.504 38.6799 315.132C37.8946 314.76 37.2126 314.326 36.6339 313.83L37.9359 310.792C38.8866 311.515 39.8682 312.063 40.8809 312.435C41.8936 312.786 42.9372 312.962 44.0119 312.962C45.3139 312.962 46.3266 312.631 47.0499 311.97C47.7939 311.288 48.1659 310.379 48.1659 309.242C48.1659 308.085 47.8146 307.155 47.1119 306.452C46.4092 305.729 45.4482 305.367 44.2289 305.367C43.3402 305.367 42.5446 305.543 41.8419 305.894C41.1392 306.225 40.4986 306.741 39.9199 307.444H37.2539V294.145H50.6769V297.431H41.1289V304.375H40.1059C40.6432 303.652 41.3459 303.094 42.2139 302.701C43.1026 302.308 44.0842 302.112 45.1589 302.112C46.5436 302.112 47.7422 302.412 48.7549 303.011C49.7882 303.59 50.5839 304.406 51.1419 305.46C51.7206 306.493 52.0099 307.702 52.0099 309.087C52.0099 310.513 51.6896 311.774 51.0489 312.869C50.4082 313.944 49.4886 314.791 48.2899 315.411C47.1119 316.01 45.7066 316.31 44.0739 316.31Z" fill="white"/>
<rect x="82" y="252" width="4" height="106" rx="2" fill="#2E2744"/>
<path d="M99.55 267.15C98.1 267.15 96.99 266.775 96.22 266.025C95.46 265.265 95.08 264.145 95.08 262.665V256.425H97V262.65C97 263.6 97.215 264.315 97.645 264.795C98.085 265.265 98.72 265.5 99.55 265.5C100.38 265.5 101.01 265.265 101.44 264.795C101.87 264.315 102.085 263.6 102.085 262.65V256.425H103.99V262.665C103.99 264.145 103.615 265.265 102.865 266.025C102.115 266.775 101.01 267.15 99.55 267.15ZM106.229 267V256.425H113.264V257.955H108.074V260.865H112.934V262.395H108.074V265.47H113.264V267H106.229ZM120.085 267.15C118.985 267.15 118.04 266.93 117.25 266.49C116.47 266.04 115.87 265.41 115.45 264.6C115.03 263.78 114.82 262.815 114.82 261.705C114.82 260.595 115.03 259.635 115.45 258.825C115.87 258.015 116.47 257.39 117.25 256.95C118.04 256.5 118.985 256.275 120.085 256.275C120.795 256.275 121.465 256.385 122.095 256.605C122.735 256.825 123.26 257.14 123.67 257.55L123.04 259.08C122.59 258.7 122.13 258.425 121.66 258.255C121.19 258.075 120.685 257.985 120.145 257.985C119.075 257.985 118.26 258.31 117.7 258.96C117.14 259.6 116.86 260.515 116.86 261.705C116.86 262.895 117.14 263.815 117.7 264.465C118.26 265.115 119.075 265.44 120.145 265.44C120.685 265.44 121.19 265.355 121.66 265.185C122.13 265.005 122.59 264.725 123.04 264.345L123.67 265.875C123.26 266.275 122.735 266.59 122.095 266.82C121.465 267.04 120.795 267.15 120.085 267.15Z" fill="white"/>
<path d="M99.49 295.135C98.09 295.135 97.025 294.765 96.295 294.025C95.565 293.285 95.2 292.2 95.2 290.77V284.425H96.595V290.725C96.595 291.795 96.84 292.595 97.33 293.125C97.82 293.645 98.54 293.905 99.49 293.905C100.44 293.905 101.16 293.645 101.65 293.125C102.14 292.595 102.385 291.795 102.385 290.725V284.425H103.765V290.77C103.765 292.2 103.4 293.285 102.67 294.025C101.95 294.765 100.89 295.135 99.49 295.135ZM106.067 295V287.695H107.402V289.435H107.252C107.412 288.835 107.702 288.385 108.122 288.085C108.542 287.775 109.097 287.595 109.787 287.545L110.252 287.5L110.357 288.685L109.502 288.76C108.842 288.83 108.332 289.045 107.972 289.405C107.622 289.765 107.447 290.26 107.447 290.89V295H106.067ZM113.797 295.135C113.297 295.135 112.842 295.035 112.432 294.835C112.032 294.635 111.717 294.365 111.487 294.025C111.267 293.685 111.157 293.305 111.157 292.885C111.157 292.345 111.292 291.92 111.562 291.61C111.832 291.3 112.287 291.08 112.927 290.95C113.567 290.81 114.427 290.74 115.507 290.74H116.212V291.61H115.537C114.957 291.61 114.472 291.63 114.082 291.67C113.692 291.71 113.382 291.775 113.152 291.865C112.922 291.955 112.757 292.08 112.657 292.24C112.557 292.39 112.507 292.58 112.507 292.81C112.507 293.2 112.642 293.52 112.912 293.77C113.192 294.02 113.572 294.145 114.052 294.145C114.432 294.145 114.767 294.055 115.057 293.875C115.347 293.685 115.577 293.435 115.747 293.125C115.917 292.805 116.002 292.44 116.002 292.03V290.305C116.002 289.715 115.882 289.29 115.642 289.03C115.402 288.76 114.997 288.625 114.427 288.625C114.007 288.625 113.587 288.69 113.167 288.82C112.757 288.95 112.332 289.15 111.892 289.42L111.457 288.445C111.717 288.265 112.012 288.11 112.342 287.98C112.682 287.84 113.032 287.735 113.392 287.665C113.762 287.595 114.117 287.56 114.457 287.56C115.107 287.56 115.642 287.665 116.062 287.875C116.482 288.075 116.797 288.39 117.007 288.82C117.217 289.24 117.322 289.78 117.322 290.44V295H116.032V293.335H116.167C116.087 293.705 115.937 294.025 115.717 294.295C115.497 294.565 115.222 294.775 114.892 294.925C114.572 295.065 114.207 295.135 113.797 295.135ZM119.47 295V287.695H120.805V289.285H120.64C120.85 288.715 121.19 288.285 121.66 287.995C122.14 287.705 122.685 287.56 123.295 287.56C123.885 287.56 124.37 287.665 124.75 287.875C125.13 288.085 125.415 288.41 125.605 288.85C125.795 289.28 125.89 289.82 125.89 290.47V295H124.525V290.545C124.525 290.115 124.47 289.76 124.36 289.48C124.25 289.2 124.075 288.995 123.835 288.865C123.605 288.735 123.31 288.67 122.95 288.67C122.53 288.67 122.16 288.76 121.84 288.94C121.52 289.12 121.27 289.375 121.09 289.705C120.92 290.035 120.835 290.42 120.835 290.86V295H119.47ZM127.919 285.94V284.47H129.554V285.94H127.919ZM128.054 295V287.695H129.419V295H128.054ZM134.224 295.135C133.634 295.135 133.139 295.025 132.739 294.805C132.349 294.585 132.059 294.26 131.869 293.83C131.679 293.4 131.584 292.86 131.584 292.21V287.695H132.949V292.21C132.949 292.62 133.004 292.96 133.114 293.23C133.224 293.5 133.394 293.7 133.624 293.83C133.864 293.96 134.164 294.025 134.524 294.025C134.924 294.025 135.274 293.935 135.574 293.755C135.874 293.575 136.109 293.32 136.279 292.99C136.449 292.66 136.534 292.275 136.534 291.835V287.695H137.899V295H136.564V293.35H136.759C136.559 293.93 136.234 294.375 135.784 294.685C135.344 294.985 134.824 295.135 134.224 295.135ZM140.125 295V287.695H141.46V289.285H141.295C141.425 288.915 141.605 288.605 141.835 288.355C142.065 288.095 142.34 287.9 142.66 287.77C142.99 287.63 143.35 287.56 143.74 287.56C144.36 287.56 144.86 287.71 145.24 288.01C145.62 288.3 145.875 288.745 146.005 289.345H145.795C145.975 288.795 146.295 288.36 146.755 288.04C147.225 287.72 147.77 287.56 148.39 287.56C148.94 287.56 149.39 287.67 149.74 287.89C150.1 288.1 150.37 288.42 150.55 288.85C150.73 289.27 150.82 289.81 150.82 290.47V295H149.455V290.53C149.455 289.89 149.345 289.42 149.125 289.12C148.905 288.82 148.535 288.67 148.015 288.67C147.635 288.67 147.305 288.76 147.025 288.94C146.745 289.12 146.53 289.375 146.38 289.705C146.23 290.035 146.155 290.43 146.155 290.89V295H144.79V290.53C144.79 289.89 144.68 289.42 144.46 289.12C144.24 288.82 143.87 288.67 143.35 288.67C142.97 288.67 142.64 288.76 142.36 288.94C142.08 289.12 141.865 289.375 141.715 289.705C141.565 290.035 141.49 290.43 141.49 290.89V295H140.125ZM157.091 295V284.425H163.841V285.565H158.441V289.06H163.526V290.2H158.441V293.86H163.841V295H157.091ZM165.7 295V287.695H167.035V289.285H166.87C167.08 288.715 167.42 288.285 167.89 287.995C168.37 287.705 168.915 287.56 169.525 287.56C170.115 287.56 170.6 287.665 170.98 287.875C171.36 288.085 171.645 288.41 171.835 288.85C172.025 289.28 172.12 289.82 172.12 290.47V295H170.755V290.545C170.755 290.115 170.7 289.76 170.59 289.48C170.48 289.2 170.305 288.995 170.065 288.865C169.835 288.735 169.54 288.67 169.18 288.67C168.76 288.67 168.39 288.76 168.07 288.94C167.75 289.12 167.5 289.375 167.32 289.705C167.15 290.035 167.065 290.42 167.065 290.86V295H165.7ZM177.659 295.135C176.869 295.135 176.189 294.985 175.619 294.685C175.059 294.375 174.624 293.94 174.314 293.38C174.004 292.81 173.849 292.14 173.849 291.37C173.849 290.61 173.999 289.945 174.299 289.375C174.609 288.805 175.029 288.36 175.559 288.04C176.099 287.72 176.714 287.56 177.404 287.56C178.074 287.56 178.644 287.705 179.114 287.995C179.594 288.285 179.959 288.7 180.209 289.24C180.469 289.77 180.599 290.41 180.599 291.16V291.655H174.914V290.785H179.699L179.444 290.995C179.444 290.215 179.274 289.615 178.934 289.195C178.594 288.765 178.094 288.55 177.434 288.55C176.954 288.55 176.544 288.665 176.204 288.895C175.864 289.115 175.604 289.43 175.424 289.84C175.244 290.24 175.154 290.705 175.154 291.235V291.325C175.154 291.925 175.249 292.43 175.439 292.84C175.639 293.24 175.924 293.545 176.294 293.755C176.664 293.955 177.119 294.055 177.659 294.055C178.089 294.055 178.504 293.99 178.904 293.86C179.314 293.72 179.699 293.505 180.059 293.215L180.479 294.16C180.149 294.46 179.724 294.7 179.204 294.88C178.694 295.05 178.179 295.135 177.659 295.135ZM182.297 295V287.695H183.632V289.435H183.482C183.642 288.835 183.932 288.385 184.352 288.085C184.772 287.775 185.327 287.595 186.017 287.545L186.482 287.5L186.587 288.685L185.732 288.76C185.072 288.83 184.562 289.045 184.202 289.405C183.852 289.765 183.677 290.26 183.677 290.89V295H182.297ZM190.958 297.835C190.308 297.835 189.703 297.755 189.143 297.595C188.583 297.435 188.083 297.19 187.643 296.86L188.078 295.87C188.378 296.07 188.673 296.235 188.963 296.365C189.263 296.505 189.568 296.605 189.878 296.665C190.198 296.725 190.528 296.755 190.868 296.755C191.578 296.755 192.108 296.57 192.458 296.2C192.818 295.84 192.998 295.31 192.998 294.61V292.99H193.133C192.993 293.55 192.678 293.995 192.188 294.325C191.708 294.655 191.148 294.82 190.508 294.82C189.848 294.82 189.273 294.67 188.783 294.37C188.293 294.06 187.913 293.635 187.643 293.095C187.373 292.545 187.238 291.91 187.238 291.19C187.238 290.46 187.373 289.825 187.643 289.285C187.913 288.735 188.293 288.31 188.783 288.01C189.273 287.71 189.848 287.56 190.508 287.56C191.158 287.56 191.723 287.725 192.203 288.055C192.683 288.385 192.993 288.83 193.133 289.39H192.998V287.695H194.333V294.43C194.333 295.18 194.203 295.81 193.943 296.32C193.693 296.83 193.318 297.21 192.818 297.46C192.318 297.71 191.698 297.835 190.958 297.835ZM190.808 293.74C191.478 293.74 192.008 293.51 192.398 293.05C192.788 292.59 192.983 291.97 192.983 291.19C192.983 290.4 192.788 289.78 192.398 289.33C192.008 288.87 191.478 288.64 190.808 288.64C190.138 288.64 189.603 288.87 189.203 289.33C188.813 289.78 188.618 290.4 188.618 291.19C188.618 291.97 188.813 292.59 189.203 293.05C189.603 293.51 190.138 293.74 190.808 293.74ZM197.331 297.7L198.726 294.565V295.135L195.531 287.695H197.001L199.536 293.935H199.116L201.696 287.695H203.106L198.756 297.7H197.331ZM212.996 295.135C211.946 295.135 211.046 294.915 210.296 294.475C209.546 294.035 208.966 293.41 208.556 292.6C208.156 291.78 207.956 290.815 207.956 289.705C207.956 288.595 208.156 287.635 208.556 286.825C208.966 286.015 209.546 285.39 210.296 284.95C211.046 284.51 211.946 284.29 212.996 284.29C213.716 284.29 214.386 284.405 215.006 284.635C215.636 284.855 216.161 285.185 216.581 285.625L216.071 286.735C215.611 286.325 215.136 286.025 214.646 285.835C214.156 285.645 213.616 285.55 213.026 285.55C211.866 285.55 210.976 285.91 210.356 286.63C209.746 287.35 209.441 288.375 209.441 289.705C209.441 291.035 209.746 292.065 210.356 292.795C210.976 293.515 211.866 293.875 213.026 293.875C213.616 293.875 214.156 293.78 214.646 293.59C215.136 293.4 215.611 293.1 216.071 292.69L216.581 293.8C216.161 294.23 215.636 294.56 215.006 294.79C214.386 295.02 213.716 295.135 212.996 295.135ZM220.851 295.135C220.131 295.135 219.506 294.98 218.976 294.67C218.446 294.36 218.036 293.92 217.746 293.35C217.456 292.78 217.311 292.11 217.311 291.34C217.311 290.57 217.456 289.905 217.746 289.345C218.036 288.775 218.446 288.335 218.976 288.025C219.506 287.715 220.131 287.56 220.851 287.56C221.571 287.56 222.196 287.715 222.726 288.025C223.256 288.335 223.666 288.775 223.956 289.345C224.246 289.905 224.391 290.57 224.391 291.34C224.391 292.11 224.246 292.78 223.956 293.35C223.666 293.92 223.256 294.36 222.726 294.67C222.196 294.98 221.571 295.135 220.851 295.135ZM220.851 294.055C221.511 294.055 222.036 293.825 222.426 293.365C222.816 292.895 223.011 292.22 223.011 291.34C223.011 290.46 222.816 289.79 222.426 289.33C222.036 288.87 221.511 288.64 220.851 288.64C220.201 288.64 219.676 288.87 219.276 289.33C218.886 289.79 218.691 290.46 218.691 291.34C218.691 292.22 218.886 292.895 219.276 293.365C219.676 293.825 220.201 294.055 220.851 294.055ZM226.14 295V287.695H227.475V289.435H227.325C227.485 288.835 227.775 288.385 228.195 288.085C228.615 287.775 229.17 287.595 229.86 287.545L230.325 287.5L230.43 288.685L229.575 288.76C228.915 288.83 228.405 289.045 228.045 289.405C227.695 289.765 227.52 290.26 227.52 290.89V295H226.14ZM231.618 297.7V287.695H232.953V289.375H232.803C232.963 288.825 233.278 288.385 233.748 288.055C234.218 287.725 234.783 287.56 235.443 287.56C236.093 287.56 236.658 287.715 237.138 288.025C237.618 288.325 237.993 288.76 238.263 289.33C238.533 289.89 238.668 290.56 238.668 291.34C238.668 292.11 238.533 292.785 238.263 293.365C238.003 293.935 237.628 294.375 237.138 294.685C236.658 294.985 236.093 295.135 235.443 295.135C234.793 295.135 234.233 294.97 233.763 294.64C233.293 294.31 232.978 293.875 232.818 293.335H232.983V297.7H231.618ZM235.128 294.055C235.788 294.055 236.313 293.825 236.703 293.365C237.093 292.895 237.288 292.22 237.288 291.34C237.288 290.46 237.093 289.79 236.703 289.33C236.313 288.87 235.788 288.64 235.128 288.64C234.468 288.64 233.943 288.87 233.553 289.33C233.163 289.79 232.968 290.46 232.968 291.34C232.968 292.22 233.163 292.895 233.553 293.365C233.943 293.825 234.468 294.055 235.128 294.055Z" fill="#B0B0B0"/>
<path d="M94.015 325L98.8 314.425H100.375L105.16 325H103.21L101.935 322.03L102.745 322.555H96.415L97.225 322.03L95.965 325H94.015ZM99.565 316.51L97.465 321.505L97.075 321.025H102.085L101.71 321.505L99.595 316.51H99.565ZM108.814 325L104.104 314.425H106.159L109.984 323.29H109.339L113.149 314.425H115.129L110.419 325H108.814ZM120.938 325.15C119.768 325.15 118.778 324.93 117.968 324.49C117.168 324.05 116.558 323.425 116.138 322.615C115.718 321.805 115.508 320.845 115.508 319.735C115.508 318.615 115.723 317.65 116.153 316.84C116.583 316.02 117.203 315.39 118.013 314.95C118.823 314.5 119.793 314.275 120.923 314.275C121.423 314.275 121.898 314.325 122.348 314.425C122.808 314.515 123.233 314.65 123.623 314.83C124.013 315.01 124.348 315.23 124.628 315.49L123.983 316.99C123.513 316.62 123.033 316.355 122.543 316.195C122.053 316.035 121.513 315.955 120.923 315.955C119.803 315.955 118.953 316.28 118.373 316.93C117.803 317.58 117.518 318.515 117.518 319.735C117.518 320.965 117.813 321.9 118.403 322.54C118.993 323.18 119.868 323.5 121.028 323.5C121.428 323.5 121.833 323.46 122.243 323.38C122.653 323.3 123.053 323.19 123.443 323.05L123.068 323.905V320.71H120.638V319.285H124.673V324.37C124.353 324.53 123.983 324.67 123.563 324.79C123.153 324.9 122.723 324.985 122.273 325.045C121.823 325.115 121.378 325.15 120.938 325.15ZM131.638 325.15C130.868 325.15 130.168 325.025 129.538 324.775C128.918 324.515 128.383 324.145 127.933 323.665C127.493 323.185 127.153 322.61 126.913 321.94C126.673 321.27 126.553 320.525 126.553 319.705C126.553 318.875 126.673 318.13 126.913 317.47C127.153 316.8 127.493 316.23 127.933 315.76C128.383 315.28 128.918 314.915 129.538 314.665C130.168 314.405 130.868 314.275 131.638 314.275C132.408 314.275 133.103 314.405 133.723 314.665C134.353 314.915 134.888 315.275 135.328 315.745C135.778 316.215 136.123 316.785 136.363 317.455C136.603 318.115 136.723 318.86 136.723 319.69C136.723 320.52 136.603 321.27 136.363 321.94C136.123 322.61 135.778 323.185 135.328 323.665C134.888 324.145 134.353 324.515 133.723 324.775C133.103 325.025 132.408 325.15 131.638 325.15ZM131.638 323.5C132.288 323.5 132.838 323.35 133.288 323.05C133.748 322.75 134.098 322.315 134.338 321.745C134.588 321.175 134.713 320.495 134.713 319.705C134.713 318.905 134.593 318.225 134.353 317.665C134.113 317.095 133.763 316.665 133.303 316.375C132.843 316.075 132.288 315.925 131.638 315.925C130.998 315.925 130.448 316.075 129.988 316.375C129.528 316.665 129.173 317.095 128.923 317.665C128.683 318.225 128.563 318.905 128.563 319.705C128.563 320.495 128.683 321.175 128.923 321.745C129.173 322.315 129.528 322.75 129.988 323.05C130.448 323.35 130.998 323.5 131.638 323.5Z" fill="white"/>
<path d="M95.155 353V342.425H99.775C100.885 342.425 101.745 342.67 102.355 343.16C102.965 343.64 103.27 344.31 103.27 345.17C103.27 345.81 103.085 346.35 102.715 346.79C102.345 347.23 101.84 347.525 101.2 347.675V347.45C101.69 347.52 102.11 347.67 102.46 347.9C102.81 348.13 103.075 348.425 103.255 348.785C103.445 349.145 103.54 349.565 103.54 350.045C103.54 350.665 103.395 351.2 103.105 351.65C102.825 352.09 102.415 352.425 101.875 352.655C101.335 352.885 100.69 353 99.94 353H95.155ZM97 351.545H99.7C99.97 351.545 100.21 351.525 100.42 351.485C100.64 351.445 100.825 351.385 100.975 351.305C101.135 351.215 101.265 351.105 101.365 350.975C101.475 350.845 101.555 350.695 101.605 350.525C101.655 350.355 101.68 350.165 101.68 349.955C101.68 349.735 101.655 349.54 101.605 349.37C101.555 349.2 101.475 349.055 101.365 348.935C101.265 348.805 101.135 348.7 100.975 348.62C100.825 348.53 100.64 348.465 100.42 348.425C100.21 348.385 99.97 348.365 99.7 348.365H97V351.545ZM97 346.91H99.445C100.105 346.91 100.595 346.785 100.915 346.535C101.245 346.275 101.41 345.895 101.41 345.395C101.41 344.895 101.245 344.52 100.915 344.27C100.595 344.01 100.105 343.88 99.445 343.88H97V346.91ZM105.302 353V345.665H107.132V347.435H106.982C107.122 346.835 107.397 346.38 107.807 346.07C108.217 345.75 108.762 345.565 109.442 345.515L110.012 345.47L110.132 347.06L109.052 347.165C108.442 347.225 107.982 347.415 107.672 347.735C107.362 348.045 107.207 348.485 107.207 349.055V353H105.302ZM114.404 353.15C113.644 353.15 112.984 352.995 112.424 352.685C111.864 352.375 111.429 351.935 111.119 351.365C110.809 350.785 110.654 350.105 110.654 349.325C110.654 348.545 110.809 347.87 111.119 347.3C111.429 346.73 111.864 346.29 112.424 345.98C112.984 345.67 113.644 345.515 114.404 345.515C115.164 345.515 115.824 345.67 116.384 345.98C116.944 346.29 117.379 346.73 117.689 347.3C117.999 347.87 118.154 348.545 118.154 349.325C118.154 350.105 117.999 350.785 117.689 351.365C117.379 351.935 116.944 352.375 116.384 352.685C115.824 352.995 115.164 353.15 114.404 353.15ZM114.404 351.725C114.964 351.725 115.414 351.525 115.754 351.125C116.094 350.715 116.264 350.115 116.264 349.325C116.264 348.525 116.094 347.93 115.754 347.54C115.414 347.14 114.964 346.94 114.404 346.94C113.844 346.94 113.394 347.14 113.054 347.54C112.714 347.93 112.544 348.525 112.544 349.325C112.544 350.115 112.714 350.715 113.054 351.125C113.394 351.525 113.844 351.725 114.404 351.725ZM122.117 353.15C121.587 353.15 121.112 353.05 120.692 352.85C120.282 352.64 119.957 352.36 119.717 352.01C119.487 351.66 119.372 351.265 119.372 350.825C119.372 350.285 119.512 349.86 119.792 349.55C120.072 349.23 120.527 349 121.157 348.86C121.787 348.72 122.632 348.65 123.692 348.65H124.442V349.73H123.707C123.237 349.73 122.842 349.75 122.522 349.79C122.202 349.82 121.942 349.875 121.742 349.955C121.552 350.025 121.412 350.125 121.322 350.255C121.242 350.385 121.202 350.545 121.202 350.735C121.202 351.065 121.317 351.335 121.547 351.545C121.777 351.755 122.097 351.86 122.507 351.86C122.837 351.86 123.127 351.785 123.377 351.635C123.637 351.475 123.842 351.26 123.992 350.99C124.142 350.72 124.217 350.41 124.217 350.06V348.335C124.217 347.835 124.107 347.475 123.887 347.255C123.667 347.035 123.297 346.925 122.777 346.925C122.367 346.925 121.947 346.99 121.517 347.12C121.087 347.24 120.652 347.43 120.212 347.69L119.672 346.415C119.932 346.235 120.237 346.08 120.587 345.95C120.947 345.81 121.322 345.705 121.712 345.635C122.112 345.555 122.487 345.515 122.837 345.515C123.557 345.515 124.147 345.625 124.607 345.845C125.077 346.065 125.427 346.4 125.657 346.85C125.887 347.29 126.002 347.86 126.002 348.56V353H124.247V351.44H124.367C124.297 351.79 124.157 352.095 123.947 352.355C123.747 352.605 123.492 352.8 123.182 352.94C122.872 353.08 122.517 353.15 122.117 353.15ZM130.725 353.15C130.085 353.15 129.52 352.995 129.03 352.685C128.55 352.375 128.175 351.935 127.905 351.365C127.635 350.785 127.5 350.105 127.5 349.325C127.5 348.535 127.635 347.86 127.905 347.3C128.175 346.73 128.55 346.29 129.03 345.98C129.52 345.67 130.085 345.515 130.725 345.515C131.335 345.515 131.865 345.665 132.315 345.965C132.775 346.265 133.085 346.66 133.245 347.15H133.08V342.425H134.955V353H133.125V351.44H133.26C133.11 351.96 132.805 352.375 132.345 352.685C131.885 352.995 131.345 353.15 130.725 353.15ZM131.25 351.725C131.81 351.725 132.26 351.525 132.6 351.125C132.94 350.715 133.11 350.115 133.11 349.325C133.11 348.525 132.94 347.93 132.6 347.54C132.26 347.14 131.81 346.94 131.25 346.94C130.69 346.94 130.24 347.14 129.9 347.54C129.56 347.93 129.39 348.525 129.39 349.325C129.39 350.115 129.56 350.715 129.9 351.125C130.24 351.525 130.69 351.725 131.25 351.725ZM140.289 353.15C139.519 353.15 138.849 352.995 138.279 352.685C137.709 352.365 137.269 351.915 136.959 351.335C136.649 350.755 136.494 350.075 136.494 349.295C136.494 348.515 136.649 347.845 136.959 347.285C137.269 346.715 137.709 346.28 138.279 345.98C138.849 345.67 139.519 345.515 140.289 345.515C140.759 345.515 141.224 345.59 141.684 345.74C142.144 345.89 142.524 346.1 142.824 346.37L142.269 347.675C142.009 347.445 141.714 347.27 141.384 347.15C141.064 347.03 140.754 346.97 140.454 346.97C139.804 346.97 139.299 347.175 138.939 347.585C138.589 347.985 138.414 348.56 138.414 349.31C138.414 350.05 138.589 350.635 138.939 351.065C139.299 351.485 139.804 351.695 140.454 351.695C140.744 351.695 141.054 351.635 141.384 351.515C141.714 351.395 142.009 351.215 142.269 350.975L142.824 352.295C142.524 352.555 142.139 352.765 141.669 352.925C141.209 353.075 140.749 353.15 140.289 353.15ZM147.173 353.15C146.413 353.15 145.753 352.995 145.193 352.685C144.633 352.375 144.198 351.935 143.888 351.365C143.578 350.785 143.423 350.105 143.423 349.325C143.423 348.545 143.578 347.87 143.888 347.3C144.198 346.73 144.633 346.29 145.193 345.98C145.753 345.67 146.413 345.515 147.173 345.515C147.933 345.515 148.593 345.67 149.153 345.98C149.713 346.29 150.148 346.73 150.458 347.3C150.768 347.87 150.923 348.545 150.923 349.325C150.923 350.105 150.768 350.785 150.458 351.365C150.148 351.935 149.713 352.375 149.153 352.685C148.593 352.995 147.933 353.15 147.173 353.15ZM147.173 351.725C147.733 351.725 148.183 351.525 148.523 351.125C148.863 350.715 149.033 350.115 149.033 349.325C149.033 348.525 148.863 347.93 148.523 347.54C148.183 347.14 147.733 346.94 147.173 346.94C146.613 346.94 146.163 347.14 145.823 347.54C145.483 347.93 145.313 348.525 145.313 349.325C145.313 350.115 145.483 350.715 145.823 351.125C146.163 351.525 146.613 351.725 147.173 351.725ZM152.5 353V345.665H154.33V347.135H154.165C154.295 346.795 154.475 346.505 154.705 346.265C154.935 346.025 155.21 345.84 155.53 345.71C155.85 345.58 156.205 345.515 156.595 345.515C157.185 345.515 157.67 345.655 158.05 345.935C158.43 346.215 158.695 346.645 158.845 347.225H158.635C158.835 346.695 159.165 346.28 159.625 345.98C160.085 345.67 160.615 345.515 161.215 345.515C161.775 345.515 162.235 345.625 162.595 345.845C162.965 346.065 163.24 346.4 163.42 346.85C163.6 347.29 163.69 347.85 163.69 348.53V353H161.815V348.605C161.815 348.045 161.72 347.635 161.53 347.375C161.35 347.115 161.04 346.985 160.6 346.985C160.28 346.985 160 347.065 159.76 347.225C159.52 347.375 159.335 347.595 159.205 347.885C159.085 348.175 159.025 348.525 159.025 348.935V353H157.15V348.605C157.15 348.045 157.055 347.635 156.865 347.375C156.685 347.115 156.38 346.985 155.95 346.985C155.62 346.985 155.335 347.065 155.095 347.225C154.865 347.375 154.685 347.595 154.555 347.885C154.435 348.175 154.375 348.525 154.375 348.935V353H152.5ZM169.847 353V342.425H171.767V353H169.847ZM173.886 353V345.665H175.716V347.135H175.551C175.771 346.605 176.111 346.205 176.571 345.935C177.041 345.655 177.571 345.515 178.161 345.515C178.751 345.515 179.236 345.625 179.616 345.845C179.996 346.065 180.281 346.4 180.471 346.85C180.661 347.29 180.756 347.85 180.756 348.53V353H178.881V348.62C178.881 348.24 178.831 347.93 178.731 347.69C178.641 347.45 178.496 347.275 178.296 347.165C178.106 347.045 177.861 346.985 177.561 346.985C177.201 346.985 176.886 347.065 176.616 347.225C176.346 347.375 176.136 347.595 175.986 347.885C175.836 348.165 175.761 348.495 175.761 348.875V353H173.886ZM186.051 353.15C185.281 353.15 184.611 352.995 184.041 352.685C183.471 352.365 183.031 351.915 182.721 351.335C182.411 350.755 182.256 350.075 182.256 349.295C182.256 348.515 182.411 347.845 182.721 347.285C183.031 346.715 183.471 346.28 184.041 345.98C184.611 345.67 185.281 345.515 186.051 345.515C186.521 345.515 186.986 345.59 187.446 345.74C187.906 345.89 188.286 346.1 188.586 346.37L188.031 347.675C187.771 347.445 187.476 347.27 187.146 347.15C186.826 347.03 186.516 346.97 186.216 346.97C185.566 346.97 185.061 347.175 184.701 347.585C184.351 347.985 184.176 348.56 184.176 349.31C184.176 350.05 184.351 350.635 184.701 351.065C185.061 351.485 185.566 351.695 186.216 351.695C186.506 351.695 186.816 351.635 187.146 351.515C187.476 351.395 187.771 351.215 188.031 350.975L188.586 352.295C188.286 352.555 187.901 352.765 187.431 352.925C186.971 353.075 186.511 353.15 186.051 353.15Z" fill="#B0B0B0"/>
</svg>
