<svg width="408" height="194" viewBox="0 0 408 194" fill="none" xmlns="http://www.w3.org/2000/svg">
<rect x="0.5" y="0.5" width="407" height="193" rx="11.5" fill="#0C1014" fill-opacity="0.5"/>
<rect x="0.5" y="0.5" width="407" height="193" rx="11.5" stroke="#523A83"/>
<path d="M17.463 35V21.605H23.277C24.265 21.605 25.101 21.7697 25.785 22.099C26.469 22.4283 26.9883 22.9033 27.343 23.524C27.6977 24.1447 27.875 24.8983 27.875 25.785C27.875 26.659 27.6977 27.4127 27.343 28.046C26.9883 28.6667 26.469 29.148 25.785 29.49C25.101 29.8193 24.265 29.984 23.277 29.984H19.895V35H17.463ZM19.895 28.065H22.897C23.7583 28.065 24.4107 27.875 24.854 27.495C25.2973 27.1023 25.519 26.5323 25.519 25.785C25.519 25.0377 25.2973 24.474 24.854 24.094C24.4107 23.714 23.7583 23.524 22.897 23.524H19.895V28.065ZM33.4027 35.19C32.44 35.19 31.604 34.9937 30.8947 34.601C30.1853 34.2083 29.6343 33.651 29.2417 32.929C28.849 32.1943 28.6527 31.333 28.6527 30.345C28.6527 29.357 28.849 28.502 29.2417 27.78C29.6343 27.058 30.1853 26.5007 30.8947 26.108C31.604 25.7153 32.44 25.519 33.4027 25.519C34.3653 25.519 35.2013 25.7153 35.9107 26.108C36.62 26.5007 37.171 27.058 37.5637 27.78C37.9563 28.502 38.1527 29.357 38.1527 30.345C38.1527 31.333 37.9563 32.1943 37.5637 32.929C37.171 33.651 36.62 34.2083 35.9107 34.601C35.2013 34.9937 34.3653 35.19 33.4027 35.19ZM33.4027 33.385C34.112 33.385 34.682 33.1317 35.1127 32.625C35.5433 32.1057 35.7587 31.3457 35.7587 30.345C35.7587 29.3317 35.5433 28.578 35.1127 28.084C34.682 27.5773 34.112 27.324 33.4027 27.324C32.6933 27.324 32.1233 27.5773 31.6927 28.084C31.262 28.578 31.0467 29.3317 31.0467 30.345C31.0467 31.3457 31.262 32.1057 31.6927 32.625C32.1233 33.1317 32.6933 33.385 33.4027 33.385ZM40.1129 35V25.709H42.4309V27.951H42.2409C42.4183 27.191 42.7666 26.6147 43.2859 26.222C43.8053 25.8167 44.4956 25.5823 45.3569 25.519L46.0789 25.462L46.2309 27.476L44.8629 27.609C44.0903 27.685 43.5076 27.9257 43.1149 28.331C42.7223 28.7237 42.5259 29.281 42.5259 30.003V35H40.1129ZM52.3474 35.19C51.1061 35.19 50.1814 34.8797 49.5734 34.259C48.9654 33.6383 48.6614 32.7327 48.6614 31.542V27.495H46.8754V25.709H48.6614V22.935H51.0364V25.709H53.8484V27.495H51.0364V31.409C51.0364 32.017 51.1694 32.473 51.4354 32.777C51.7014 33.081 52.1321 33.233 52.7274 33.233C52.9048 33.233 53.0884 33.214 53.2784 33.176C53.4684 33.1253 53.6648 33.0747 53.8674 33.024L54.2284 34.772C54.0004 34.8987 53.7091 35 53.3544 35.076C53.0124 35.152 52.6768 35.19 52.3474 35.19ZM55.9733 35V27.495H54.1873V25.709H56.6573L55.9733 26.336V25.69C55.9733 24.3727 56.3153 23.3783 56.9993 22.707C57.696 22.0357 58.7727 21.6557 60.2293 21.567L61.1603 21.51L61.3123 23.258L60.4383 23.315C59.9317 23.3403 59.5263 23.4353 59.2223 23.6C58.9183 23.752 58.6967 23.9673 58.5573 24.246C58.418 24.5247 58.3483 24.8793 58.3483 25.31V26.013L58.0443 25.709H60.8753V27.495H58.3483V35H55.9733ZM66.263 35.19C65.3003 35.19 64.4643 34.9937 63.755 34.601C63.0457 34.2083 62.4947 33.651 62.102 32.929C61.7093 32.1943 61.513 31.333 61.513 30.345C61.513 29.357 61.7093 28.502 62.102 27.78C62.4947 27.058 63.0457 26.5007 63.755 26.108C64.4643 25.7153 65.3003 25.519 66.263 25.519C67.2257 25.519 68.0617 25.7153 68.771 26.108C69.4803 26.5007 70.0313 27.058 70.424 27.78C70.8167 28.502 71.013 29.357 71.013 30.345C71.013 31.333 70.8167 32.1943 70.424 32.929C70.0313 33.651 69.4803 34.2083 68.771 34.601C68.0617 34.9937 67.2257 35.19 66.263 35.19ZM66.263 33.385C66.9723 33.385 67.5423 33.1317 67.973 32.625C68.4037 32.1057 68.619 31.3457 68.619 30.345C68.619 29.3317 68.4037 28.578 67.973 28.084C67.5423 27.5773 66.9723 27.324 66.263 27.324C65.5537 27.324 64.9837 27.5773 64.553 28.084C64.1223 28.578 63.907 29.3317 63.907 30.345C63.907 31.3457 64.1223 32.1057 64.553 32.625C64.9837 33.1317 65.5537 33.385 66.263 33.385ZM76.2033 35.19C75.1013 35.19 74.2843 34.8923 73.7523 34.297C73.2329 33.689 72.9733 32.8023 72.9733 31.637V21.605H75.3483V31.523C75.3483 31.8903 75.3989 32.207 75.5003 32.473C75.6143 32.7263 75.7789 32.9163 75.9943 33.043C76.2096 33.1697 76.4756 33.233 76.7923 33.233C76.9316 33.233 77.0709 33.2267 77.2103 33.214C77.3496 33.2013 77.4826 33.176 77.6093 33.138L77.5713 35.019C77.3433 35.0697 77.1153 35.1077 76.8873 35.133C76.6719 35.171 76.4439 35.19 76.2033 35.19ZM78.8887 23.714V21.396H81.5487V23.714H78.8887ZM79.0407 35V25.709H81.4157V35H79.0407ZM88.1204 35.19C87.1578 35.19 86.3218 34.9937 85.6124 34.601C84.9031 34.2083 84.3521 33.651 83.9594 32.929C83.5668 32.1943 83.3704 31.333 83.3704 30.345C83.3704 29.357 83.5668 28.502 83.9594 27.78C84.3521 27.058 84.9031 26.5007 85.6124 26.108C86.3218 25.7153 87.1578 25.519 88.1204 25.519C89.0831 25.519 89.9191 25.7153 90.6284 26.108C91.3378 26.5007 91.8888 27.058 92.2814 27.78C92.6741 28.502 92.8704 29.357 92.8704 30.345C92.8704 31.333 92.6741 32.1943 92.2814 32.929C91.8888 33.651 91.3378 34.2083 90.6284 34.601C89.9191 34.9937 89.0831 35.19 88.1204 35.19ZM88.1204 33.385C88.8298 33.385 89.3998 33.1317 89.8304 32.625C90.2611 32.1057 90.4764 31.3457 90.4764 30.345C90.4764 29.3317 90.2611 28.578 89.8304 28.084C89.3998 27.5773 88.8298 27.324 88.1204 27.324C87.4111 27.324 86.8411 27.5773 86.4104 28.084C85.9798 28.578 85.7644 29.3317 85.7644 30.345C85.7644 31.3457 85.9798 32.1057 86.4104 32.625C86.8411 33.1317 87.4111 33.385 88.1204 33.385Z" fill="white"/>
<path d="M104.8 81.15C104.25 81.15 103.72 81.1 103.21 81C102.71 80.91 102.245 80.775 101.815 80.595C101.395 80.415 101.02 80.2 100.69 79.95L101.275 78.435C101.605 78.665 101.95 78.865 102.31 79.035C102.68 79.195 103.07 79.32 103.48 79.41C103.9 79.49 104.34 79.53 104.8 79.53C105.59 79.53 106.165 79.4 106.525 79.14C106.885 78.87 107.065 78.525 107.065 78.105C107.065 77.875 107.01 77.68 106.9 77.52C106.79 77.35 106.61 77.205 106.36 77.085C106.11 76.965 105.78 76.865 105.37 76.785L103.72 76.44C102.77 76.24 102.06 75.905 101.59 75.435C101.13 74.955 100.9 74.325 100.9 73.545C100.9 72.885 101.075 72.31 101.425 71.82C101.775 71.33 102.26 70.95 102.88 70.68C103.5 70.41 104.215 70.275 105.025 70.275C105.505 70.275 105.965 70.325 106.405 70.425C106.855 70.515 107.265 70.655 107.635 70.845C108.015 71.025 108.345 71.245 108.625 71.505L108.04 72.945C107.62 72.595 107.16 72.335 106.66 72.165C106.16 71.985 105.61 71.895 105.01 71.895C104.55 71.895 104.155 71.96 103.825 72.09C103.495 72.22 103.24 72.405 103.06 72.645C102.89 72.875 102.805 73.15 102.805 73.47C102.805 73.83 102.925 74.12 103.165 74.34C103.405 74.55 103.815 74.715 104.395 74.835L106.03 75.18C107.02 75.39 107.755 75.72 108.235 76.17C108.725 76.62 108.97 77.22 108.97 77.97C108.97 78.6 108.8 79.155 108.46 79.635C108.12 80.115 107.635 80.49 107.005 80.76C106.385 81.02 105.65 81.15 104.8 81.15ZM110.318 72.09V70.26H112.418V72.09H110.318ZM110.438 81V73.665H112.313V81H110.438ZM117.681 83.85C117.001 83.85 116.361 83.77 115.761 83.61C115.171 83.46 114.651 83.225 114.201 82.905L114.741 81.6C115.021 81.78 115.316 81.93 115.626 82.05C115.936 82.18 116.251 82.275 116.571 82.335C116.891 82.395 117.211 82.425 117.531 82.425C118.201 82.425 118.701 82.26 119.031 81.93C119.371 81.61 119.541 81.13 119.541 80.49V79.14H119.676C119.526 79.65 119.211 80.06 118.731 80.37C118.261 80.67 117.726 80.82 117.126 80.82C116.466 80.82 115.891 80.67 115.401 80.37C114.911 80.06 114.531 79.63 114.261 79.08C113.991 78.53 113.856 77.89 113.856 77.16C113.856 76.43 113.991 75.795 114.261 75.255C114.531 74.705 114.911 74.28 115.401 73.98C115.891 73.67 116.466 73.515 117.126 73.515C117.746 73.515 118.286 73.67 118.746 73.98C119.216 74.28 119.521 74.68 119.661 75.18H119.541V73.665H121.371V80.265C121.371 81.055 121.231 81.715 120.951 82.245C120.671 82.785 120.256 83.185 119.706 83.445C119.156 83.715 118.481 83.85 117.681 83.85ZM117.636 79.395C118.216 79.395 118.676 79.195 119.016 78.795C119.356 78.395 119.526 77.85 119.526 77.16C119.526 76.47 119.356 75.93 119.016 75.54C118.676 75.14 118.216 74.94 117.636 74.94C117.056 74.94 116.596 75.14 116.256 75.54C115.916 75.93 115.746 76.47 115.746 77.16C115.746 77.85 115.916 78.395 116.256 78.795C116.596 79.195 117.056 79.395 117.636 79.395ZM123.314 81V73.665H125.144V75.135H124.979C125.199 74.605 125.539 74.205 125.999 73.935C126.469 73.655 126.999 73.515 127.589 73.515C128.179 73.515 128.664 73.625 129.044 73.845C129.424 74.065 129.709 74.4 129.899 74.85C130.089 75.29 130.184 75.85 130.184 76.53V81H128.309V76.62C128.309 76.24 128.259 75.93 128.159 75.69C128.069 75.45 127.924 75.275 127.724 75.165C127.534 75.045 127.289 74.985 126.989 74.985C126.629 74.985 126.314 75.065 126.044 75.225C125.774 75.375 125.564 75.595 125.414 75.885C125.264 76.165 125.189 76.495 125.189 76.875V81H123.314ZM136.011 72.09V70.26H138.111V72.09H136.011ZM136.131 81V73.665H138.006V81H136.131ZM139.954 81V73.665H141.784V75.135H141.619C141.839 74.605 142.179 74.205 142.639 73.935C143.109 73.655 143.639 73.515 144.229 73.515C144.819 73.515 145.304 73.625 145.684 73.845C146.064 74.065 146.349 74.4 146.539 74.85C146.729 75.29 146.824 75.85 146.824 76.53V81H144.949V76.62C144.949 76.24 144.899 75.93 144.799 75.69C144.709 75.45 144.564 75.275 144.364 75.165C144.174 75.045 143.929 74.985 143.629 74.985C143.269 74.985 142.954 75.065 142.684 75.225C142.414 75.375 142.204 75.595 142.054 75.885C141.904 76.165 141.829 76.495 141.829 76.875V81H139.954ZM156.132 81.15C155.152 81.15 154.422 80.905 153.942 80.415C153.462 79.925 153.222 79.21 153.222 78.27V75.075H151.812V73.665H153.222V71.475H155.097V73.665H157.317V75.075H155.097V78.165C155.097 78.645 155.202 79.005 155.412 79.245C155.622 79.485 155.962 79.605 156.432 79.605C156.572 79.605 156.717 79.59 156.867 79.56C157.017 79.52 157.172 79.48 157.332 79.44L157.617 80.82C157.437 80.92 157.207 81 156.927 81.06C156.657 81.12 156.392 81.15 156.132 81.15ZM161.8 81.15C161.04 81.15 160.38 80.995 159.82 80.685C159.26 80.375 158.825 79.935 158.515 79.365C158.205 78.785 158.05 78.105 158.05 77.325C158.05 76.545 158.205 75.87 158.515 75.3C158.825 74.73 159.26 74.29 159.82 73.98C160.38 73.67 161.04 73.515 161.8 73.515C162.56 73.515 163.22 73.67 163.78 73.98C164.34 74.29 164.775 74.73 165.085 75.3C165.395 75.87 165.55 76.545 165.55 77.325C165.55 78.105 165.395 78.785 165.085 79.365C164.775 79.935 164.34 80.375 163.78 80.685C163.22 80.995 162.56 81.15 161.8 81.15ZM161.8 79.725C162.36 79.725 162.81 79.525 163.15 79.125C163.49 78.715 163.66 78.115 163.66 77.325C163.66 76.525 163.49 75.93 163.15 75.54C162.81 75.14 162.36 74.94 161.8 74.94C161.24 74.94 160.79 75.14 160.45 75.54C160.11 75.93 159.94 76.525 159.94 77.325C159.94 78.115 160.11 78.715 160.45 79.125C160.79 79.525 161.24 79.725 161.8 79.725ZM173.556 81.15C173.026 81.15 172.551 81.05 172.131 80.85C171.721 80.64 171.396 80.36 171.156 80.01C170.926 79.66 170.811 79.265 170.811 78.825C170.811 78.285 170.951 77.86 171.231 77.55C171.511 77.23 171.966 77 172.596 76.86C173.226 76.72 174.071 76.65 175.131 76.65H175.881V77.73H175.146C174.676 77.73 174.281 77.75 173.961 77.79C173.641 77.82 173.381 77.875 173.181 77.955C172.991 78.025 172.851 78.125 172.761 78.255C172.681 78.385 172.641 78.545 172.641 78.735C172.641 79.065 172.756 79.335 172.986 79.545C173.216 79.755 173.536 79.86 173.946 79.86C174.276 79.86 174.566 79.785 174.816 79.635C175.076 79.475 175.281 79.26 175.431 78.99C175.581 78.72 175.656 78.41 175.656 78.06V76.335C175.656 75.835 175.546 75.475 175.326 75.255C175.106 75.035 174.736 74.925 174.216 74.925C173.806 74.925 173.386 74.99 172.956 75.12C172.526 75.24 172.091 75.43 171.651 75.69L171.111 74.415C171.371 74.235 171.676 74.08 172.026 73.95C172.386 73.81 172.761 73.705 173.151 73.635C173.551 73.555 173.926 73.515 174.276 73.515C174.996 73.515 175.586 73.625 176.046 73.845C176.516 74.065 176.866 74.4 177.096 74.85C177.326 75.29 177.441 75.86 177.441 76.56V81H175.686V79.44H175.806C175.736 79.79 175.596 80.095 175.386 80.355C175.186 80.605 174.931 80.8 174.621 80.94C174.311 81.08 173.956 81.15 173.556 81.15ZM182.734 81.15C181.964 81.15 181.294 80.995 180.724 80.685C180.154 80.365 179.714 79.915 179.404 79.335C179.094 78.755 178.939 78.075 178.939 77.295C178.939 76.515 179.094 75.845 179.404 75.285C179.714 74.715 180.154 74.28 180.724 73.98C181.294 73.67 181.964 73.515 182.734 73.515C183.204 73.515 183.669 73.59 184.129 73.74C184.589 73.89 184.969 74.1 185.269 74.37L184.714 75.675C184.454 75.445 184.159 75.27 183.829 75.15C183.509 75.03 183.199 74.97 182.899 74.97C182.249 74.97 181.744 75.175 181.384 75.585C181.034 75.985 180.859 76.56 180.859 77.31C180.859 78.05 181.034 78.635 181.384 79.065C181.744 79.485 182.249 79.695 182.899 79.695C183.189 79.695 183.499 79.635 183.829 79.515C184.159 79.395 184.454 79.215 184.714 78.975L185.269 80.295C184.969 80.555 184.584 80.765 184.114 80.925C183.654 81.075 183.194 81.15 182.734 81.15ZM189.888 81.15C189.058 81.15 188.343 80.995 187.743 80.685C187.143 80.375 186.678 79.935 186.348 79.365C186.028 78.795 185.868 78.12 185.868 77.34C185.868 76.58 186.023 75.915 186.333 75.345C186.653 74.775 187.088 74.33 187.638 74.01C188.198 73.68 188.833 73.515 189.543 73.515C190.243 73.515 190.843 73.665 191.343 73.965C191.843 74.265 192.228 74.69 192.498 75.24C192.778 75.79 192.918 76.445 192.918 77.205V77.76H187.383V76.68H191.598L191.358 76.905C191.358 76.225 191.208 75.705 190.908 75.345C190.608 74.975 190.178 74.79 189.618 74.79C189.198 74.79 188.838 74.89 188.538 75.09C188.248 75.28 188.023 75.555 187.863 75.915C187.713 76.265 187.638 76.685 187.638 77.175V77.28C187.638 77.83 187.723 78.285 187.893 78.645C188.063 79.005 188.318 79.275 188.658 79.455C188.998 79.635 189.418 79.725 189.918 79.725C190.328 79.725 190.738 79.665 191.148 79.545C191.558 79.415 191.933 79.215 192.273 78.945L192.798 80.205C192.448 80.495 192.008 80.725 191.478 80.895C190.948 81.065 190.418 81.15 189.888 81.15ZM197.088 81.15C196.678 81.15 196.278 81.115 195.888 81.045C195.508 80.975 195.158 80.88 194.838 80.76C194.518 80.63 194.238 80.47 193.998 80.28L194.478 79.05C194.728 79.21 194.998 79.35 195.288 79.47C195.578 79.59 195.878 79.68 196.188 79.74C196.498 79.8 196.803 79.83 197.103 79.83C197.583 79.83 197.938 79.75 198.168 79.59C198.408 79.42 198.528 79.2 198.528 78.93C198.528 78.7 198.448 78.525 198.288 78.405C198.138 78.275 197.908 78.18 197.598 78.12L196.098 77.835C195.478 77.715 195.003 77.49 194.673 77.16C194.353 76.82 194.193 76.385 194.193 75.855C194.193 75.375 194.323 74.96 194.583 74.61C194.853 74.26 195.223 73.99 195.693 73.8C196.163 73.61 196.703 73.515 197.313 73.515C197.663 73.515 198.003 73.55 198.333 73.62C198.663 73.68 198.973 73.775 199.263 73.905C199.563 74.025 199.823 74.185 200.043 74.385L199.533 75.615C199.343 75.455 199.123 75.32 198.873 75.21C198.623 75.09 198.363 75 198.093 74.94C197.833 74.87 197.578 74.835 197.328 74.835C196.838 74.835 196.473 74.92 196.233 75.09C196.003 75.26 195.888 75.485 195.888 75.765C195.888 75.975 195.958 76.15 196.098 76.29C196.238 76.43 196.453 76.525 196.743 76.575L198.243 76.86C198.893 76.98 199.383 77.2 199.713 77.52C200.053 77.84 200.223 78.27 200.223 78.81C200.223 79.3 200.093 79.72 199.833 80.07C199.573 80.42 199.208 80.69 198.738 80.88C198.268 81.06 197.718 81.15 197.088 81.15ZM204.412 81.15C204.002 81.15 203.602 81.115 203.212 81.045C202.832 80.975 202.482 80.88 202.162 80.76C201.842 80.63 201.562 80.47 201.322 80.28L201.802 79.05C202.052 79.21 202.322 79.35 202.612 79.47C202.902 79.59 203.202 79.68 203.512 79.74C203.822 79.8 204.127 79.83 204.427 79.83C204.907 79.83 205.262 79.75 205.492 79.59C205.732 79.42 205.852 79.2 205.852 78.93C205.852 78.7 205.772 78.525 205.612 78.405C205.462 78.275 205.232 78.18 204.922 78.12L203.422 77.835C202.802 77.715 202.327 77.49 201.997 77.16C201.677 76.82 201.517 76.385 201.517 75.855C201.517 75.375 201.647 74.96 201.907 74.61C202.177 74.26 202.547 73.99 203.017 73.8C203.487 73.61 204.027 73.515 204.637 73.515C204.987 73.515 205.327 73.55 205.657 73.62C205.987 73.68 206.297 73.775 206.587 73.905C206.887 74.025 207.147 74.185 207.367 74.385L206.857 75.615C206.667 75.455 206.447 75.32 206.197 75.21C205.947 75.09 205.687 75 205.417 74.94C205.157 74.87 204.902 74.835 204.652 74.835C204.162 74.835 203.797 74.92 203.557 75.09C203.327 75.26 203.212 75.485 203.212 75.765C203.212 75.975 203.282 76.15 203.422 76.29C203.562 76.43 203.777 76.525 204.067 76.575L205.567 76.86C206.217 76.98 206.707 77.2 207.037 77.52C207.377 77.84 207.547 78.27 207.547 78.81C207.547 79.3 207.417 79.72 207.157 80.07C206.897 80.42 206.532 80.69 206.062 80.88C205.592 81.06 205.042 81.15 204.412 81.15ZM213.754 83.7L215.284 80.325V81.105L212.059 73.665H214.054L216.334 79.35H215.884L218.209 73.665H220.099L215.689 83.7H213.754ZM224.188 81.15C223.428 81.15 222.768 80.995 222.208 80.685C221.648 80.375 221.213 79.935 220.903 79.365C220.593 78.785 220.438 78.105 220.438 77.325C220.438 76.545 220.593 75.87 220.903 75.3C221.213 74.73 221.648 74.29 222.208 73.98C222.768 73.67 223.428 73.515 224.188 73.515C224.948 73.515 225.608 73.67 226.168 73.98C226.728 74.29 227.163 74.73 227.473 75.3C227.783 75.87 227.938 76.545 227.938 77.325C227.938 78.105 227.783 78.785 227.473 79.365C227.163 79.935 226.728 80.375 226.168 80.685C225.608 80.995 224.948 81.15 224.188 81.15ZM224.188 79.725C224.748 79.725 225.198 79.525 225.538 79.125C225.878 78.715 226.048 78.115 226.048 77.325C226.048 76.525 225.878 75.93 225.538 75.54C225.198 75.14 224.748 74.94 224.188 74.94C223.628 74.94 223.178 75.14 222.838 75.54C222.498 75.93 222.328 76.525 222.328 77.325C222.328 78.115 222.498 78.715 222.838 79.125C223.178 79.525 223.628 79.725 224.188 79.725ZM232.141 81.15C231.531 81.15 231.026 81.04 230.626 80.82C230.226 80.59 229.926 80.25 229.726 79.8C229.536 79.35 229.441 78.79 229.441 78.12V73.665H231.316V78.15C231.316 78.49 231.361 78.775 231.451 79.005C231.551 79.235 231.696 79.405 231.886 79.515C232.086 79.625 232.336 79.68 232.636 79.68C232.976 79.68 233.271 79.605 233.521 79.455C233.781 79.295 233.981 79.075 234.121 78.795C234.271 78.505 234.346 78.17 234.346 77.79V73.665H236.221V81H234.391V79.47H234.601C234.391 80.01 234.071 80.425 233.641 80.715C233.221 81.005 232.721 81.15 232.141 81.15ZM238.172 81V73.665H240.002V75.435H239.852C239.992 74.835 240.267 74.38 240.677 74.07C241.087 73.75 241.632 73.565 242.312 73.515L242.882 73.47L243.002 75.06L241.922 75.165C241.312 75.225 240.852 75.415 240.542 75.735C240.232 76.045 240.077 76.485 240.077 77.055V81H238.172ZM248.089 83.7V73.665H249.919V75.21H249.769C249.919 74.7 250.224 74.29 250.684 73.98C251.154 73.67 251.699 73.515 252.319 73.515C252.959 73.515 253.519 73.67 253.999 73.98C254.489 74.29 254.869 74.73 255.139 75.3C255.409 75.86 255.544 76.535 255.544 77.325C255.544 78.105 255.409 78.785 255.139 79.365C254.869 79.935 254.494 80.375 254.014 80.685C253.534 80.995 252.969 81.15 252.319 81.15C251.709 81.15 251.174 81 250.714 80.7C250.254 80.39 249.944 79.99 249.784 79.5H249.964V83.7H248.089ZM251.794 79.725C252.354 79.725 252.804 79.525 253.144 79.125C253.484 78.715 253.654 78.115 253.654 77.325C253.654 76.525 253.484 75.93 253.144 75.54C252.804 75.14 252.354 74.94 251.794 74.94C251.234 74.94 250.784 75.14 250.444 75.54C250.104 75.93 249.934 76.525 249.934 77.325C249.934 78.115 250.104 78.715 250.444 79.125C250.784 79.525 251.234 79.725 251.794 79.725ZM260.428 81.15C259.668 81.15 259.008 80.995 258.448 80.685C257.888 80.375 257.453 79.935 257.143 79.365C256.833 78.785 256.678 78.105 256.678 77.325C256.678 76.545 256.833 75.87 257.143 75.3C257.453 74.73 257.888 74.29 258.448 73.98C259.008 73.67 259.668 73.515 260.428 73.515C261.188 73.515 261.848 73.67 262.408 73.98C262.968 74.29 263.403 74.73 263.713 75.3C264.023 75.87 264.178 76.545 264.178 77.325C264.178 78.105 264.023 78.785 263.713 79.365C263.403 79.935 262.968 80.375 262.408 80.685C261.848 80.995 261.188 81.15 260.428 81.15ZM260.428 79.725C260.988 79.725 261.438 79.525 261.778 79.125C262.118 78.715 262.288 78.115 262.288 77.325C262.288 76.525 262.118 75.93 261.778 75.54C261.438 75.14 260.988 74.94 260.428 74.94C259.868 74.94 259.418 75.14 259.078 75.54C258.738 75.93 258.568 76.525 258.568 77.325C258.568 78.115 258.738 78.715 259.078 79.125C259.418 79.525 259.868 79.725 260.428 79.725ZM265.726 81V73.665H267.556V75.435H267.406C267.546 74.835 267.821 74.38 268.231 74.07C268.641 73.75 269.186 73.565 269.866 73.515L270.436 73.47L270.556 75.06L269.476 75.165C268.866 75.225 268.406 75.415 268.096 75.735C267.786 76.045 267.631 76.485 267.631 77.055V81H265.726ZM275.385 81.15C274.405 81.15 273.675 80.905 273.195 80.415C272.715 79.925 272.475 79.21 272.475 78.27V75.075H271.065V73.665H272.475V71.475H274.35V73.665H276.57V75.075H274.35V78.165C274.35 78.645 274.455 79.005 274.665 79.245C274.875 79.485 275.215 79.605 275.685 79.605C275.825 79.605 275.97 79.59 276.12 79.56C276.27 79.52 276.425 79.48 276.585 79.44L276.87 80.82C276.69 80.92 276.46 81 276.18 81.06C275.91 81.12 275.645 81.15 275.385 81.15ZM278.247 81V75.075H276.837V73.665H278.787L278.247 74.16V73.65C278.247 72.61 278.517 71.825 279.057 71.295C279.607 70.765 280.457 70.465 281.607 70.395L282.342 70.35L282.462 71.73L281.772 71.775C281.372 71.795 281.052 71.87 280.812 72C280.572 72.12 280.397 72.29 280.287 72.51C280.177 72.73 280.122 73.01 280.122 73.35V73.905L279.882 73.665H282.117V75.075H280.122V81H278.247ZM286.371 81.15C285.611 81.15 284.951 80.995 284.391 80.685C283.831 80.375 283.396 79.935 283.086 79.365C282.776 78.785 282.621 78.105 282.621 77.325C282.621 76.545 282.776 75.87 283.086 75.3C283.396 74.73 283.831 74.29 284.391 73.98C284.951 73.67 285.611 73.515 286.371 73.515C287.131 73.515 287.791 73.67 288.351 73.98C288.911 74.29 289.346 74.73 289.656 75.3C289.966 75.87 290.121 76.545 290.121 77.325C290.121 78.105 289.966 78.785 289.656 79.365C289.346 79.935 288.911 80.375 288.351 80.685C287.791 80.995 287.131 81.15 286.371 81.15ZM286.371 79.725C286.931 79.725 287.381 79.525 287.721 79.125C288.061 78.715 288.231 78.115 288.231 77.325C288.231 76.525 288.061 75.93 287.721 75.54C287.381 75.14 286.931 74.94 286.371 74.94C285.811 74.94 285.361 75.14 285.021 75.54C284.681 75.93 284.511 76.525 284.511 77.325C284.511 78.115 284.681 78.715 285.021 79.125C285.361 79.525 285.811 79.725 286.371 79.725ZM294.218 81.15C293.348 81.15 292.703 80.915 292.283 80.445C291.873 79.965 291.668 79.265 291.668 78.345V70.425H293.543V78.255C293.543 78.545 293.583 78.795 293.663 79.005C293.753 79.205 293.883 79.355 294.053 79.455C294.223 79.555 294.433 79.605 294.683 79.605C294.793 79.605 294.903 79.6 295.013 79.59C295.123 79.58 295.228 79.56 295.328 79.53L295.298 81.015C295.118 81.055 294.938 81.085 294.758 81.105C294.588 81.135 294.408 81.15 294.218 81.15ZM296.338 72.09V70.26H298.438V72.09H296.338ZM296.458 81V73.665H298.333V81H296.458ZM303.627 81.15C302.867 81.15 302.207 80.995 301.647 80.685C301.087 80.375 300.652 79.935 300.342 79.365C300.032 78.785 299.877 78.105 299.877 77.325C299.877 76.545 300.032 75.87 300.342 75.3C300.652 74.73 301.087 74.29 301.647 73.98C302.207 73.67 302.867 73.515 303.627 73.515C304.387 73.515 305.047 73.67 305.607 73.98C306.167 74.29 306.602 74.73 306.912 75.3C307.222 75.87 307.377 76.545 307.377 77.325C307.377 78.105 307.222 78.785 306.912 79.365C306.602 79.935 306.167 80.375 305.607 80.685C305.047 80.995 304.387 81.15 303.627 81.15ZM303.627 79.725C304.187 79.725 304.637 79.525 304.977 79.125C305.317 78.715 305.487 78.115 305.487 77.325C305.487 76.525 305.317 75.93 304.977 75.54C304.637 75.14 304.187 74.94 303.627 74.94C303.067 74.94 302.617 75.14 302.277 75.54C301.937 75.93 301.767 76.525 301.767 77.325C301.767 78.115 301.937 78.715 302.277 79.125C302.617 79.525 303.067 79.725 303.627 79.725Z" fill="white"/>
<rect x="144" y="102" width="120" height="44" rx="8" fill="url(#paint0_linear_60_761)"/>
<path d="M184.725 129.15C184.175 129.15 183.645 129.1 183.135 129C182.635 128.91 182.17 128.775 181.74 128.595C181.32 128.415 180.945 128.2 180.615 127.95L181.2 126.435C181.53 126.665 181.875 126.865 182.235 127.035C182.605 127.195 182.995 127.32 183.405 127.41C183.825 127.49 184.265 127.53 184.725 127.53C185.515 127.53 186.09 127.4 186.45 127.14C186.81 126.87 186.99 126.525 186.99 126.105C186.99 125.875 186.935 125.68 186.825 125.52C186.715 125.35 186.535 125.205 186.285 125.085C186.035 124.965 185.705 124.865 185.295 124.785L183.645 124.44C182.695 124.24 181.985 123.905 181.515 123.435C181.055 122.955 180.825 122.325 180.825 121.545C180.825 120.885 181 120.31 181.35 119.82C181.7 119.33 182.185 118.95 182.805 118.68C183.425 118.41 184.14 118.275 184.95 118.275C185.43 118.275 185.89 118.325 186.33 118.425C186.78 118.515 187.19 118.655 187.56 118.845C187.94 119.025 188.27 119.245 188.55 119.505L187.965 120.945C187.545 120.595 187.085 120.335 186.585 120.165C186.085 119.985 185.535 119.895 184.935 119.895C184.475 119.895 184.08 119.96 183.75 120.09C183.42 120.22 183.165 120.405 182.985 120.645C182.815 120.875 182.73 121.15 182.73 121.47C182.73 121.83 182.85 122.12 183.09 122.34C183.33 122.55 183.74 122.715 184.32 122.835L185.955 123.18C186.945 123.39 187.68 123.72 188.16 124.17C188.65 124.62 188.895 125.22 188.895 125.97C188.895 126.6 188.725 127.155 188.385 127.635C188.045 128.115 187.56 128.49 186.93 128.76C186.31 129.02 185.575 129.15 184.725 129.15ZM190.243 120.09V118.26H192.343V120.09H190.243ZM190.363 129V121.665H192.238V129H190.363ZM197.606 131.85C196.926 131.85 196.286 131.77 195.686 131.61C195.096 131.46 194.576 131.225 194.126 130.905L194.666 129.6C194.946 129.78 195.241 129.93 195.551 130.05C195.861 130.18 196.176 130.275 196.496 130.335C196.816 130.395 197.136 130.425 197.456 130.425C198.126 130.425 198.626 130.26 198.956 129.93C199.296 129.61 199.466 129.13 199.466 128.49V127.14H199.601C199.451 127.65 199.136 128.06 198.656 128.37C198.186 128.67 197.651 128.82 197.051 128.82C196.391 128.82 195.816 128.67 195.326 128.37C194.836 128.06 194.456 127.63 194.186 127.08C193.916 126.53 193.781 125.89 193.781 125.16C193.781 124.43 193.916 123.795 194.186 123.255C194.456 122.705 194.836 122.28 195.326 121.98C195.816 121.67 196.391 121.515 197.051 121.515C197.671 121.515 198.211 121.67 198.671 121.98C199.141 122.28 199.446 122.68 199.586 123.18H199.466V121.665H201.296V128.265C201.296 129.055 201.156 129.715 200.876 130.245C200.596 130.785 200.181 131.185 199.631 131.445C199.081 131.715 198.406 131.85 197.606 131.85ZM197.561 127.395C198.141 127.395 198.601 127.195 198.941 126.795C199.281 126.395 199.451 125.85 199.451 125.16C199.451 124.47 199.281 123.93 198.941 123.54C198.601 123.14 198.141 122.94 197.561 122.94C196.981 122.94 196.521 123.14 196.181 123.54C195.841 123.93 195.671 124.47 195.671 125.16C195.671 125.85 195.841 126.395 196.181 126.795C196.521 127.195 196.981 127.395 197.561 127.395ZM203.239 129V121.665H205.069V123.135H204.904C205.124 122.605 205.464 122.205 205.924 121.935C206.394 121.655 206.924 121.515 207.514 121.515C208.104 121.515 208.589 121.625 208.969 121.845C209.349 122.065 209.634 122.4 209.824 122.85C210.014 123.29 210.109 123.85 210.109 124.53V129H208.234V124.62C208.234 124.24 208.184 123.93 208.084 123.69C207.994 123.45 207.849 123.275 207.649 123.165C207.459 123.045 207.214 122.985 206.914 122.985C206.554 122.985 206.239 123.065 205.969 123.225C205.699 123.375 205.489 123.595 205.339 123.885C205.189 124.165 205.114 124.495 205.114 124.875V129H203.239ZM216.237 129V118.425H218.157V129H216.237ZM220.275 129V121.665H222.105V123.135H221.94C222.16 122.605 222.5 122.205 222.96 121.935C223.43 121.655 223.96 121.515 224.55 121.515C225.14 121.515 225.625 121.625 226.005 121.845C226.385 122.065 226.67 122.4 226.86 122.85C227.05 123.29 227.145 123.85 227.145 124.53V129H225.27V124.62C225.27 124.24 225.22 123.93 225.12 123.69C225.03 123.45 224.885 123.275 224.685 123.165C224.495 123.045 224.25 122.985 223.95 122.985C223.59 122.985 223.275 123.065 223.005 123.225C222.735 123.375 222.525 123.595 222.375 123.885C222.225 124.165 222.15 124.495 222.15 124.875V129H220.275Z" fill="white"/>
<path d="M380 38.75C374.07 38.75 369.25 33.93 369.25 28C369.25 22.07 374.07 17.25 380 17.25C385.93 17.25 390.75 22.07 390.75 28C390.75 33.93 385.93 38.75 380 38.75ZM380 18.75C374.9 18.75 370.75 22.9 370.75 28C370.75 33.1 374.9 37.25 380 37.25C385.1 37.25 389.25 33.1 389.25 28C389.25 22.9 385.1 18.75 380 18.75Z" fill="#808283"/>
<path d="M377.169 31.5794C376.979 31.5794 376.789 31.5094 376.639 31.3594C376.349 31.0694 376.349 30.5894 376.639 30.2994L382.299 24.6394C382.589 24.3494 383.069 24.3494 383.359 24.6394C383.649 24.9294 383.649 25.4094 383.359 25.6994L377.699 31.3594C377.559 31.5094 377.359 31.5794 377.169 31.5794Z" fill="#808283"/>
<path d="M382.829 31.5794C382.639 31.5794 382.449 31.5094 382.299 31.3594L376.639 25.6994C376.349 25.4094 376.349 24.9294 376.639 24.6394C376.929 24.3494 377.409 24.3494 377.699 24.6394L383.359 30.2994C383.649 30.5894 383.649 31.0694 383.359 31.3594C383.209 31.5094 383.019 31.5794 382.829 31.5794Z" fill="#808283"/>
<defs>
<linearGradient id="paint0_linear_60_761" x1="264" y1="124" x2="144" y2="124" gradientUnits="userSpaceOnUse">
<stop stop-color="#A06AFF"/>
<stop offset="1" stop-color="#482090"/>
</linearGradient>
</defs>
</svg>
