<svg width="366" height="57" viewBox="0 0 366 57" fill="none" xmlns="http://www.w3.org/2000/svg">
<path d="M3.71641 36.9779L1 38.9593V57H365V3.39853L356.172 6.21419L350.06 11.0113L343.269 10.6984L339.873 11.7412L331.724 2.04284L329.007 3.39853L324.254 2.77283L314.067 3.91995L308.634 8.92557L304.56 7.67417C302.975 8.82129 299.806 11.0947 299.806 11.0113C299.806 10.9278 297.09 9.37747 295.731 8.61272L291.657 11.1155L286.224 8.50844L279.433 7.77845L276.037 1L265.851 4.33708H262.455L259.739 5.06707L257.701 3.81566L251.59 9.86413L249.552 8.19559L242.761 7.77845L238.687 9.55128L237.328 5.79706L233.933 7.77845L229.179 5.06707L225.104 6.52705L223.067 5.79706L221.03 6.21419L216.955 2.56426L213.56 10.3855L208.127 7.04846L202.694 6.21419L197.261 11.637L188.433 14.7655L181.642 14.1398L180.963 16.7469L177.567 14.6612L172.134 17.4769L168.06 23.8382L163.306 24.151L158.552 24.5682L155.836 28.6352L152.44 29.1566L144.291 28.6352L134.104 26.341L130.709 29.4695L121.881 30.6166L118.485 30.1995L117.127 31.2423L108.298 29.4695L106.94 30.3038L97.4328 29.7824L89.2835 31.9723L88.6045 33.5366L84.5299 33.1194L79.776 34.6837L76.3806 33.5366H68.2313L66.8731 34.058H64.1567L59.403 35.3094L51.2537 34.2666L47.1791 32.0766L42.4253 32.1809L37.6716 34.6837L34.2761 33.8494L32.2388 34.9965L28.8433 34.2666L17.2985 34.9965L11.8656 37.7079L3.71641 36.9779Z" fill="url(#paint0_linear_1024_1355)"/>
<path d="M1 38.3333L3.71645 36.3846L11.8657 37.1026L17.2985 34.4359L28.8433 33.7179L32.2388 34.4359L34.2761 33.3077L37.6717 34.1282L42.4253 31.6667L47.1791 31.5641L51.2537 33.7179L59.403 34.7436L64.1567 33.5128H66.8731L68.2314 33H76.3806L79.7762 34.1282L84.5298 32.5897L88.6045 33L89.2836 31.4615L97.4328 29.3077L106.94 29.8205L108.298 29L117.127 30.7436L118.485 29.7179L121.881 30.1282L130.709 29L134.104 25.9231L144.291 28.1795L152.44 28.6923L155.836 28.1795L158.552 24.1795L163.306 23.7692L168.06 23.4615L172.134 17.2051L177.567 14.4359L180.963 16.4872L181.642 13.9231L188.433 14.5385L197.261 11.4615L202.694 6.12821L208.127 6.94872L213.56 10.2308L216.955 2.53846L221.03 6.12821L223.067 5.71795L225.104 6.4359L229.179 5L233.933 7.66667L237.328 5.71795L238.687 9.41026L242.761 7.66667L249.552 8.07692L251.59 9.71795L257.702 3.76923L259.739 5L262.455 4.28205H265.851L276.037 1L279.433 7.66667L286.224 8.38462L291.657 10.9487L295.731 8.48718C297.09 9.23932 299.806 10.7641 299.806 10.8462C299.806 10.9282 302.975 8.69231 304.56 7.5641L308.634 8.79487L314.067 3.87179L324.254 2.74359L329.007 3.35897L331.724 2.02564L339.873 11.5641L343.269 10.5385L350.06 10.8462L356.172 6.12821L365 3.35897" stroke="#523A83" stroke-width="1.00667" stroke-linecap="round"/>
<defs>
<linearGradient id="paint0_linear_1024_1355" x1="-154.855" y1="1" x2="-154.855" y2="57" gradientUnits="userSpaceOnUse">
<stop stop-color="#A06AFF" stop-opacity="0.32"/>
<stop offset="1" stop-color="#181A20" stop-opacity="0"/>
</linearGradient>
</defs>
</svg>
