<svg width="689" height="221" viewBox="0 0 689 221" fill="none" xmlns="http://www.w3.org/2000/svg">
<rect x="9" y="11.5" width="638" height="1" fill="#23252D"/>
<path d="M652.12 17.38V15.808L652.396 16.072C651.812 16.056 651.26 15.968 650.74 15.808C650.228 15.64 649.784 15.408 649.408 15.112L649.876 13.9C650.124 14.084 650.388 14.244 650.668 14.38C650.956 14.508 651.256 14.608 651.568 14.68C651.888 14.744 652.228 14.776 652.588 14.776C653.172 14.776 653.6 14.672 653.872 14.464C654.144 14.256 654.28 13.996 654.28 13.684C654.28 13.404 654.188 13.18 654.004 13.012C653.82 12.844 653.492 12.708 653.02 12.604L651.748 12.328C651.028 12.168 650.484 11.904 650.116 11.536C649.756 11.16 649.576 10.664 649.576 10.048C649.576 9.576 649.692 9.156 649.924 8.788C650.156 8.412 650.48 8.112 650.896 7.888C651.312 7.664 651.8 7.532 652.36 7.492L652.12 7.672V6.16H653.32V7.672L653.068 7.48C653.524 7.504 653.972 7.596 654.412 7.756C654.86 7.916 655.232 8.148 655.528 8.452L655.072 9.604C654.768 9.324 654.42 9.116 654.028 8.98C653.636 8.836 653.208 8.764 652.744 8.764C652.248 8.764 651.848 8.88 651.544 9.112C651.248 9.336 651.1 9.632 651.1 10C651.1 10.272 651.192 10.492 651.376 10.66C651.56 10.828 651.856 10.956 652.264 11.044L653.536 11.32C654.304 11.488 654.872 11.756 655.24 12.124C655.616 12.484 655.804 12.964 655.804 13.564C655.804 14.028 655.688 14.44 655.456 14.8C655.224 15.152 654.904 15.436 654.496 15.652C654.096 15.86 653.628 15.992 653.092 16.048L653.32 15.796V17.38H652.12ZM659.867 16.12C659.499 16.12 659.135 16.08 658.775 16C658.423 15.92 658.091 15.808 657.779 15.664C657.475 15.52 657.211 15.352 656.987 15.16L657.491 13.984C657.859 14.264 658.239 14.476 658.631 14.62C659.023 14.756 659.427 14.824 659.843 14.824C660.347 14.824 660.739 14.696 661.019 14.44C661.307 14.176 661.451 13.824 661.451 13.384C661.451 12.936 661.315 12.576 661.043 12.304C660.771 12.024 660.399 11.884 659.927 11.884C659.583 11.884 659.275 11.952 659.003 12.088C658.731 12.216 658.483 12.416 658.259 12.688H657.227V7.54H662.423V8.812H658.727V11.5H658.331C658.539 11.22 658.811 11.004 659.147 10.852C659.491 10.7 659.871 10.624 660.287 10.624C660.823 10.624 661.287 10.74 661.679 10.972C662.079 11.196 662.387 11.512 662.603 11.92C662.827 12.32 662.939 12.788 662.939 13.324C662.939 13.876 662.815 14.364 662.567 14.788C662.319 15.204 661.963 15.532 661.499 15.772C661.043 16.004 660.499 16.12 659.867 16.12ZM666.991 16.12C666.327 16.12 665.763 15.952 665.299 15.616C664.843 15.272 664.495 14.776 664.255 14.128C664.023 13.48 663.907 12.688 663.907 11.752C663.907 10.808 664.023 10.016 664.255 9.376C664.495 8.728 664.843 8.24 665.299 7.912C665.763 7.584 666.327 7.42 666.991 7.42C667.663 7.42 668.227 7.584 668.683 7.912C669.147 8.24 669.495 8.724 669.727 9.364C669.959 10.004 670.075 10.796 670.075 11.74C670.075 12.676 669.955 13.472 669.715 14.128C669.483 14.776 669.139 15.272 668.683 15.616C668.227 15.952 667.663 16.12 666.991 16.12ZM666.991 14.86C667.535 14.86 667.935 14.612 668.191 14.116C668.455 13.612 668.587 12.82 668.587 11.74C668.587 10.668 668.455 9.892 668.191 9.412C667.935 8.924 667.535 8.68 666.991 8.68C666.455 8.68 666.055 8.924 665.791 9.412C665.527 9.892 665.395 10.672 665.395 11.752C665.395 12.824 665.527 13.612 665.791 14.116C666.055 14.612 666.455 14.86 666.991 14.86ZM674.186 16.12C673.522 16.12 672.958 15.952 672.494 15.616C672.038 15.272 671.69 14.776 671.45 14.128C671.218 13.48 671.102 12.688 671.102 11.752C671.102 10.808 671.218 10.016 671.45 9.376C671.69 8.728 672.038 8.24 672.494 7.912C672.958 7.584 673.522 7.42 674.186 7.42C674.858 7.42 675.422 7.584 675.878 7.912C676.342 8.24 676.69 8.724 676.922 9.364C677.154 10.004 677.27 10.796 677.27 11.74C677.27 12.676 677.15 13.472 676.91 14.128C676.678 14.776 676.334 15.272 675.878 15.616C675.422 15.952 674.858 16.12 674.186 16.12ZM674.186 14.86C674.73 14.86 675.13 14.612 675.386 14.116C675.65 13.612 675.782 12.82 675.782 11.74C675.782 10.668 675.65 9.892 675.386 9.412C675.13 8.924 674.73 8.68 674.186 8.68C673.65 8.68 673.25 8.924 672.986 9.412C672.722 9.892 672.59 10.672 672.59 11.752C672.59 12.824 672.722 13.612 672.986 14.116C673.25 14.612 673.65 14.86 674.186 14.86ZM678.705 16V7.54H680.241V11.284H680.265L683.997 7.54H685.869L681.405 11.956L681.417 11.26L686.073 16H684.177L680.265 12.088H680.241V16H678.705Z" fill="#808283"/>
<rect x="9" y="51.5" width="638" height="1" fill="#23252D"/>
<path d="M652.12 57.38V55.808L652.396 56.072C651.812 56.056 651.26 55.968 650.74 55.808C650.228 55.64 649.784 55.408 649.408 55.112L649.876 53.9C650.124 54.084 650.388 54.244 650.668 54.38C650.956 54.508 651.256 54.608 651.568 54.68C651.888 54.744 652.228 54.776 652.588 54.776C653.172 54.776 653.6 54.672 653.872 54.464C654.144 54.256 654.28 53.996 654.28 53.684C654.28 53.404 654.188 53.18 654.004 53.012C653.82 52.844 653.492 52.708 653.02 52.604L651.748 52.328C651.028 52.168 650.484 51.904 650.116 51.536C649.756 51.16 649.576 50.664 649.576 50.048C649.576 49.576 649.692 49.156 649.924 48.788C650.156 48.412 650.48 48.112 650.896 47.888C651.312 47.664 651.8 47.532 652.36 47.492L652.12 47.672V46.16H653.32V47.672L653.068 47.48C653.524 47.504 653.972 47.596 654.412 47.756C654.86 47.916 655.232 48.148 655.528 48.452L655.072 49.604C654.768 49.324 654.42 49.116 654.028 48.98C653.636 48.836 653.208 48.764 652.744 48.764C652.248 48.764 651.848 48.88 651.544 49.112C651.248 49.336 651.1 49.632 651.1 50C651.1 50.272 651.192 50.492 651.376 50.66C651.56 50.828 651.856 50.956 652.264 51.044L653.536 51.32C654.304 51.488 654.872 51.756 655.24 52.124C655.616 52.484 655.804 52.964 655.804 53.564C655.804 54.028 655.688 54.44 655.456 54.8C655.224 55.152 654.904 55.436 654.496 55.652C654.096 55.86 653.628 55.992 653.092 56.048L653.32 55.796V57.38H652.12ZM657.503 56V54.728H659.411V48.836H660.155L657.935 50.18L657.335 49.052L659.855 47.54H660.947V54.728H662.735V56H657.503ZM666.991 56.12C666.327 56.12 665.763 55.952 665.299 55.616C664.843 55.272 664.495 54.776 664.255 54.128C664.023 53.48 663.907 52.688 663.907 51.752C663.907 50.808 664.023 50.016 664.255 49.376C664.495 48.728 664.843 48.24 665.299 47.912C665.763 47.584 666.327 47.42 666.991 47.42C667.663 47.42 668.227 47.584 668.683 47.912C669.147 48.24 669.495 48.724 669.727 49.364C669.959 50.004 670.075 50.796 670.075 51.74C670.075 52.676 669.955 53.472 669.715 54.128C669.483 54.776 669.139 55.272 668.683 55.616C668.227 55.952 667.663 56.12 666.991 56.12ZM666.991 54.86C667.535 54.86 667.935 54.612 668.191 54.116C668.455 53.612 668.587 52.82 668.587 51.74C668.587 50.668 668.455 49.892 668.191 49.412C667.935 48.924 667.535 48.68 666.991 48.68C666.455 48.68 666.055 48.924 665.791 49.412C665.527 49.892 665.395 50.672 665.395 51.752C665.395 52.824 665.527 53.612 665.791 54.116C666.055 54.612 666.455 54.86 666.991 54.86ZM674.186 56.12C673.522 56.12 672.958 55.952 672.494 55.616C672.038 55.272 671.69 54.776 671.45 54.128C671.218 53.48 671.102 52.688 671.102 51.752C671.102 50.808 671.218 50.016 671.45 49.376C671.69 48.728 672.038 48.24 672.494 47.912C672.958 47.584 673.522 47.42 674.186 47.42C674.858 47.42 675.422 47.584 675.878 47.912C676.342 48.24 676.69 48.724 676.922 49.364C677.154 50.004 677.27 50.796 677.27 51.74C677.27 52.676 677.15 53.472 676.91 54.128C676.678 54.776 676.334 55.272 675.878 55.616C675.422 55.952 674.858 56.12 674.186 56.12ZM674.186 54.86C674.73 54.86 675.13 54.612 675.386 54.116C675.65 53.612 675.782 52.82 675.782 51.74C675.782 50.668 675.65 49.892 675.386 49.412C675.13 48.924 674.73 48.68 674.186 48.68C673.65 48.68 673.25 48.924 672.986 49.412C672.722 49.892 672.59 50.672 672.59 51.752C672.59 52.824 672.722 53.612 672.986 54.116C673.25 54.612 673.65 54.86 674.186 54.86ZM678.705 56V47.54H680.241V51.284H680.265L683.997 47.54H685.869L681.405 51.956L681.417 51.26L686.073 56H684.177L680.265 52.088H680.241V56H678.705Z" fill="#808283"/>
<rect x="9" y="91.5" width="638" height="1" fill="#23252D"/>
<path d="M652.12 97.38V95.808L652.396 96.072C651.812 96.056 651.26 95.968 650.74 95.808C650.228 95.64 649.784 95.408 649.408 95.112L649.876 93.9C650.124 94.084 650.388 94.244 650.668 94.38C650.956 94.508 651.256 94.608 651.568 94.68C651.888 94.744 652.228 94.776 652.588 94.776C653.172 94.776 653.6 94.672 653.872 94.464C654.144 94.256 654.28 93.996 654.28 93.684C654.28 93.404 654.188 93.18 654.004 93.012C653.82 92.844 653.492 92.708 653.02 92.604L651.748 92.328C651.028 92.168 650.484 91.904 650.116 91.536C649.756 91.16 649.576 90.664 649.576 90.048C649.576 89.576 649.692 89.156 649.924 88.788C650.156 88.412 650.48 88.112 650.896 87.888C651.312 87.664 651.8 87.532 652.36 87.492L652.12 87.672V86.16H653.32V87.672L653.068 87.48C653.524 87.504 653.972 87.596 654.412 87.756C654.86 87.916 655.232 88.148 655.528 88.452L655.072 89.604C654.768 89.324 654.42 89.116 654.028 88.98C653.636 88.836 653.208 88.764 652.744 88.764C652.248 88.764 651.848 88.88 651.544 89.112C651.248 89.336 651.1 89.632 651.1 90C651.1 90.272 651.192 90.492 651.376 90.66C651.56 90.828 651.856 90.956 652.264 91.044L653.536 91.32C654.304 91.488 654.872 91.756 655.24 92.124C655.616 92.484 655.804 92.964 655.804 93.564C655.804 94.028 655.688 94.44 655.456 94.8C655.224 95.152 654.904 95.436 654.496 95.652C654.096 95.86 653.628 95.992 653.092 96.048L653.32 95.796V97.38H652.12ZM657.503 96V94.728H659.411V88.836H660.155L657.935 90.18L657.335 89.052L659.855 87.54H660.947V94.728H662.735V96H657.503ZM666.991 96.12C666.327 96.12 665.763 95.952 665.299 95.616C664.843 95.272 664.495 94.776 664.255 94.128C664.023 93.48 663.907 92.688 663.907 91.752C663.907 90.808 664.023 90.016 664.255 89.376C664.495 88.728 664.843 88.24 665.299 87.912C665.763 87.584 666.327 87.42 666.991 87.42C667.663 87.42 668.227 87.584 668.683 87.912C669.147 88.24 669.495 88.724 669.727 89.364C669.959 90.004 670.075 90.796 670.075 91.74C670.075 92.676 669.955 93.472 669.715 94.128C669.483 94.776 669.139 95.272 668.683 95.616C668.227 95.952 667.663 96.12 666.991 96.12ZM666.991 94.86C667.535 94.86 667.935 94.612 668.191 94.116C668.455 93.612 668.587 92.82 668.587 91.74C668.587 90.668 668.455 89.892 668.191 89.412C667.935 88.924 667.535 88.68 666.991 88.68C666.455 88.68 666.055 88.924 665.791 89.412C665.527 89.892 665.395 90.672 665.395 91.752C665.395 92.824 665.527 93.612 665.791 94.116C666.055 94.612 666.455 94.86 666.991 94.86ZM671.51 96V87.54H673.046V91.284H673.07L676.802 87.54H678.674L674.21 91.956L674.222 91.26L678.878 96H676.982L673.07 92.088H673.046V96H671.51Z" fill="#808283"/>
<rect x="9" y="131.5" width="638" height="1" fill="#23252D"/>
<path d="M652.12 137.38V135.808L652.396 136.072C651.812 136.056 651.26 135.968 650.74 135.808C650.228 135.64 649.784 135.408 649.408 135.112L649.876 133.9C650.124 134.084 650.388 134.244 650.668 134.38C650.956 134.508 651.256 134.608 651.568 134.68C651.888 134.744 652.228 134.776 652.588 134.776C653.172 134.776 653.6 134.672 653.872 134.464C654.144 134.256 654.28 133.996 654.28 133.684C654.28 133.404 654.188 133.18 654.004 133.012C653.82 132.844 653.492 132.708 653.02 132.604L651.748 132.328C651.028 132.168 650.484 131.904 650.116 131.536C649.756 131.16 649.576 130.664 649.576 130.048C649.576 129.576 649.692 129.156 649.924 128.788C650.156 128.412 650.48 128.112 650.896 127.888C651.312 127.664 651.8 127.532 652.36 127.492L652.12 127.672V126.16H653.32V127.672L653.068 127.48C653.524 127.504 653.972 127.596 654.412 127.756C654.86 127.916 655.232 128.148 655.528 128.452L655.072 129.604C654.768 129.324 654.42 129.116 654.028 128.98C653.636 128.836 653.208 128.764 652.744 128.764C652.248 128.764 651.848 128.88 651.544 129.112C651.248 129.336 651.1 129.632 651.1 130C651.1 130.272 651.192 130.492 651.376 130.66C651.56 130.828 651.856 130.956 652.264 131.044L653.536 131.32C654.304 131.488 654.872 131.756 655.24 132.124C655.616 132.484 655.804 132.964 655.804 133.564C655.804 134.028 655.688 134.44 655.456 134.8C655.224 135.152 654.904 135.436 654.496 135.652C654.096 135.86 653.628 135.992 653.092 136.048L653.32 135.796V137.38H652.12ZM657.503 136V134.728H659.411V128.836H660.155L657.935 130.18L657.335 129.052L659.855 127.54H660.947V134.728H662.735V136H657.503ZM666.991 136.12C666.327 136.12 665.763 135.952 665.299 135.616C664.843 135.272 664.495 134.776 664.255 134.128C664.023 133.48 663.907 132.688 663.907 131.752C663.907 130.808 664.023 130.016 664.255 129.376C664.495 128.728 664.843 128.24 665.299 127.912C665.763 127.584 666.327 127.42 666.991 127.42C667.663 127.42 668.227 127.584 668.683 127.912C669.147 128.24 669.495 128.724 669.727 129.364C669.959 130.004 670.075 130.796 670.075 131.74C670.075 132.676 669.955 133.472 669.715 134.128C669.483 134.776 669.139 135.272 668.683 135.616C668.227 135.952 667.663 136.12 666.991 136.12ZM666.991 134.86C667.535 134.86 667.935 134.612 668.191 134.116C668.455 133.612 668.587 132.82 668.587 131.74C668.587 130.668 668.455 129.892 668.191 129.412C667.935 128.924 667.535 128.68 666.991 128.68C666.455 128.68 666.055 128.924 665.791 129.412C665.527 129.892 665.395 130.672 665.395 131.752C665.395 132.824 665.527 133.612 665.791 134.116C666.055 134.612 666.455 134.86 666.991 134.86ZM674.186 136.12C673.522 136.12 672.958 135.952 672.494 135.616C672.038 135.272 671.69 134.776 671.45 134.128C671.218 133.48 671.102 132.688 671.102 131.752C671.102 130.808 671.218 130.016 671.45 129.376C671.69 128.728 672.038 128.24 672.494 127.912C672.958 127.584 673.522 127.42 674.186 127.42C674.858 127.42 675.422 127.584 675.878 127.912C676.342 128.24 676.69 128.724 676.922 129.364C677.154 130.004 677.27 130.796 677.27 131.74C677.27 132.676 677.15 133.472 676.91 134.128C676.678 134.776 676.334 135.272 675.878 135.616C675.422 135.952 674.858 136.12 674.186 136.12ZM674.186 134.86C674.73 134.86 675.13 134.612 675.386 134.116C675.65 133.612 675.782 132.82 675.782 131.74C675.782 130.668 675.65 129.892 675.386 129.412C675.13 128.924 674.73 128.68 674.186 128.68C673.65 128.68 673.25 128.924 672.986 129.412C672.722 129.892 672.59 130.672 672.59 131.752C672.59 132.824 672.722 133.612 672.986 134.116C673.25 134.612 673.65 134.86 674.186 134.86Z" fill="#808283"/>
<rect x="9" y="171.5" width="638" height="1" fill="#23252D"/>
<path d="M652.12 177.38V175.808L652.396 176.072C651.812 176.056 651.26 175.968 650.74 175.808C650.228 175.64 649.784 175.408 649.408 175.112L649.876 173.9C650.124 174.084 650.388 174.244 650.668 174.38C650.956 174.508 651.256 174.608 651.568 174.68C651.888 174.744 652.228 174.776 652.588 174.776C653.172 174.776 653.6 174.672 653.872 174.464C654.144 174.256 654.28 173.996 654.28 173.684C654.28 173.404 654.188 173.18 654.004 173.012C653.82 172.844 653.492 172.708 653.02 172.604L651.748 172.328C651.028 172.168 650.484 171.904 650.116 171.536C649.756 171.16 649.576 170.664 649.576 170.048C649.576 169.576 649.692 169.156 649.924 168.788C650.156 168.412 650.48 168.112 650.896 167.888C651.312 167.664 651.8 167.532 652.36 167.492L652.12 167.672V166.16H653.32V167.672L653.068 167.48C653.524 167.504 653.972 167.596 654.412 167.756C654.86 167.916 655.232 168.148 655.528 168.452L655.072 169.604C654.768 169.324 654.42 169.116 654.028 168.98C653.636 168.836 653.208 168.764 652.744 168.764C652.248 168.764 651.848 168.88 651.544 169.112C651.248 169.336 651.1 169.632 651.1 170C651.1 170.272 651.192 170.492 651.376 170.66C651.56 170.828 651.856 170.956 652.264 171.044L653.536 171.32C654.304 171.488 654.872 171.756 655.24 172.124C655.616 172.484 655.804 172.964 655.804 173.564C655.804 174.028 655.688 174.44 655.456 174.8C655.224 175.152 654.904 175.436 654.496 175.652C654.096 175.86 653.628 175.992 653.092 176.048L653.32 175.796V177.38H652.12ZM657.503 176V174.728H659.411V168.836H660.155L657.935 170.18L657.335 169.052L659.855 167.54H660.947V174.728H662.735V176H657.503Z" fill="#808283"/>
<rect x="9" y="211.5" width="638" height="1" fill="#313338"/>
<path d="M652.12 217.38V215.808L652.396 216.072C651.812 216.056 651.26 215.968 650.74 215.808C650.228 215.64 649.784 215.408 649.408 215.112L649.876 213.9C650.124 214.084 650.388 214.244 650.668 214.38C650.956 214.508 651.256 214.608 651.568 214.68C651.888 214.744 652.228 214.776 652.588 214.776C653.172 214.776 653.6 214.672 653.872 214.464C654.144 214.256 654.28 213.996 654.28 213.684C654.28 213.404 654.188 213.18 654.004 213.012C653.82 212.844 653.492 212.708 653.02 212.604L651.748 212.328C651.028 212.168 650.484 211.904 650.116 211.536C649.756 211.16 649.576 210.664 649.576 210.048C649.576 209.576 649.692 209.156 649.924 208.788C650.156 208.412 650.48 208.112 650.896 207.888C651.312 207.664 651.8 207.532 652.36 207.492L652.12 207.672V206.16H653.32V207.672L653.068 207.48C653.524 207.504 653.972 207.596 654.412 207.756C654.86 207.916 655.232 208.148 655.528 208.452L655.072 209.604C654.768 209.324 654.42 209.116 654.028 208.98C653.636 208.836 653.208 208.764 652.744 208.764C652.248 208.764 651.848 208.88 651.544 209.112C651.248 209.336 651.1 209.632 651.1 210C651.1 210.272 651.192 210.492 651.376 210.66C651.56 210.828 651.856 210.956 652.264 211.044L653.536 211.32C654.304 211.488 654.872 211.756 655.24 212.124C655.616 212.484 655.804 212.964 655.804 213.564C655.804 214.028 655.688 214.44 655.456 214.8C655.224 215.152 654.904 215.436 654.496 215.652C654.096 215.86 653.628 215.992 653.092 216.048L653.32 215.796V217.38H652.12ZM659.795 216.12C659.131 216.12 658.567 215.952 658.103 215.616C657.647 215.272 657.299 214.776 657.059 214.128C656.827 213.48 656.711 212.688 656.711 211.752C656.711 210.808 656.827 210.016 657.059 209.376C657.299 208.728 657.647 208.24 658.103 207.912C658.567 207.584 659.131 207.42 659.795 207.42C660.467 207.42 661.031 207.584 661.487 207.912C661.951 208.24 662.299 208.724 662.531 209.364C662.763 210.004 662.879 210.796 662.879 211.74C662.879 212.676 662.759 213.472 662.519 214.128C662.287 214.776 661.943 215.272 661.487 215.616C661.031 215.952 660.467 216.12 659.795 216.12ZM659.795 214.86C660.339 214.86 660.739 214.612 660.995 214.116C661.259 213.612 661.391 212.82 661.391 211.74C661.391 210.668 661.259 209.892 660.995 209.412C660.739 208.924 660.339 208.68 659.795 208.68C659.259 208.68 658.859 208.924 658.595 209.412C658.331 209.892 658.199 210.672 658.199 211.752C658.199 212.824 658.331 213.612 658.595 214.116C658.859 214.612 659.259 214.86 659.795 214.86ZM664.039 216V214.332H665.719V216H664.039ZM669.967 216.12C669.303 216.12 668.739 215.952 668.275 215.616C667.819 215.272 667.471 214.776 667.231 214.128C666.999 213.48 666.883 212.688 666.883 211.752C666.883 210.808 666.999 210.016 667.231 209.376C667.471 208.728 667.819 208.24 668.275 207.912C668.739 207.584 669.303 207.42 669.967 207.42C670.639 207.42 671.203 207.584 671.659 207.912C672.123 208.24 672.471 208.724 672.703 209.364C672.935 210.004 673.051 210.796 673.051 211.74C673.051 212.676 672.931 213.472 672.691 214.128C672.459 214.776 672.115 215.272 671.659 215.616C671.203 215.952 670.639 216.12 669.967 216.12ZM669.967 214.86C670.511 214.86 670.911 214.612 671.167 214.116C671.431 213.612 671.563 212.82 671.563 211.74C671.563 210.668 671.431 209.892 671.167 209.412C670.911 208.924 670.511 208.68 669.967 208.68C669.431 208.68 669.031 208.924 668.767 209.412C668.503 209.892 668.371 210.672 668.371 211.752C668.371 212.824 668.503 213.612 668.767 214.116C669.031 214.612 669.431 214.86 669.967 214.86ZM674.871 216V214.728H676.779V208.836H677.523L675.303 210.18L674.703 209.052L677.223 207.54H678.315V214.728H680.103V216H674.871Z" fill="#808283"/>
<g filter="url(#filter0_d_2_6)">
<path d="M9 208.911L16.454 212L21.0091 205.822L25.1502 208.028L26.3926 204.498L29.7054 205.822L33.8465 202.291L37.5735 204.498L49.5826 185.08L51.2391 186.404L56.6225 176.696L58.2789 180.226L60.3494 178.02L62.42 180.226L64.0764 176.696L66.9752 179.343L69.8739 176.696L72.3586 178.02C73.6009 174.048 76.0856 166.016 76.0856 165.663C76.0856 165.31 76.0856 157.278 76.0856 153.307L79.3984 157.278L81.8831 153.307C81.8831 154.189 81.8831 155.601 81.8831 154.189C81.8831 152.777 84.6438 143.009 86.0242 138.302L89.337 151.1L93.8922 140.067L97.2051 139.185L98.4474 131.683L100.932 133.007L102.174 128.593L105.487 136.537L107.144 145.804L108.8 137.42L110.457 142.274L112.113 154.189L114.184 139.185L117.911 149.776L122.88 131.683L127.021 135.213L128.677 130.8L130.748 134.33L134.061 129.917L138.616 144.922L141.101 137.42L144.828 140.067L147.726 129.917L148.555 135.213L151.453 130.8L155.594 147.57L157.665 143.157L158.493 147.57L162.22 144.922L163.462 152.865L165.119 146.687L168.846 143.157L170.502 145.804L171.745 140.067L175.057 147.57L177.542 146.687L181.269 152.865L183.754 146.687L187.067 161.691L190.379 160.367V151.1L192.864 148.452L199.076 157.72L201.975 149.776L203.217 157.72L205.702 156.837L208.186 152.865L209.843 156.837L211.499 144.922L212.741 147.57L214.812 142.274C216.192 145.216 218.953 150.57 218.953 148.452C218.953 146.334 219.781 137.861 220.195 133.889L225.579 142.274L228.063 143.157L228.892 141.391H231.376L234.689 144.922L237.588 145.804L238.416 141.391L240.487 144.039L245.87 143.157L249.183 136.537L252.496 143.157H254.152L255.395 140.067L258.707 146.687L260.364 143.157L263.263 149.776L269.888 148.452L272.373 162.574L274.443 155.072L278.17 152.865L281.483 166.104L283.554 161.691L288.109 168.311C289.904 165.222 293.575 159.308 293.907 160.367C294.238 161.427 298.186 169.341 300.118 173.165L302.603 169.635L303.845 174.93H306.33L308.815 170.517L310.057 174.048L317.097 165.222L319.167 152.865L322.066 156.396L324.137 151.1L328.692 146.687C330.9 150.953 335.317 159.397 335.317 159.043C335.317 158.69 336.422 153.601 336.974 151.1H339.459L340.701 149.776L345.256 160.367L346.912 157.72L348.983 166.104L351.054 168.311L353.538 184.198L355.609 178.461L358.093 180.226L360.164 163.457L360.992 166.104L363.477 165.222L365.133 170.517L365.547 163.457L368.86 160.367L372.173 170.517L374.658 164.339L377.557 169.635L379.627 163.457H381.283L382.526 157.72L382.94 159.926L385.425 149.776H390.394L392.464 161.25L394.121 163.015L395.777 161.25L400.747 167.428L402.817 164.78L404.474 172.724L406.544 171.4L409.857 177.578L412.342 177.137L414.412 174.489L417.311 166.104L421.038 169.635L422.694 161.25L427.664 164.339L430.976 152.865L438.016 149.776L440.087 152.865L441.329 148.011L443.4 151.541L446.299 140.95L449.197 140.509L451.682 149.776L456.651 154.189L459.55 148.893H461.206L462.035 146.687H467.004L469.074 151.541L471.973 144.922L474.458 146.687L474.872 140.067L479.841 130.8L485.639 133.007L486.467 129.476L491.85 136.978L492.679 132.565L494.749 134.33L500.133 129.476L502.203 116.237L508.415 125.946L513.384 128.152L515.455 125.946L517.111 108.735L520.01 106.97L522.909 105.646L525.393 78.7261L528.706 66.8109L530.777 75.637L531.191 64.6043L535.332 67.2522L540.715 54.013L544.028 31.0652L547.341 34.5957L550.654 48.7174L552.724 15.6196L555.209 31.0652L556.451 29.3L557.694 32.3891L560.178 26.2109L563.077 37.6848L565.148 29.3L565.976 45.187L568.46 37.6848L572.602 39.45L573.844 46.5109L577.571 20.9152L578.813 26.2109L580.47 23.1217H582.54L588.752 9L590.822 37.6848L594.963 40.7739L598.276 51.8065L600.761 41.2152C601.589 44.4514 603.246 51.0122 603.246 51.3652C603.246 51.7183 605.178 42.0978 606.144 37.2435L608.629 42.5391L611.942 21.3565L618.154 16.5022L621.052 19.15L622.709 13.413L627.678 54.4543L629.749 50.0413L633.89 51.3652L637.617 31.0652L643 19.15" stroke="#A06AFF" stroke-width="1.5" stroke-linecap="round"/>
</g>
<rect x="643" y="6" width="45" height="20" rx="4" fill="#A06AFF"/>
<path d="M650.245 21.38V19.808L650.521 20.072C649.937 20.056 649.385 19.968 648.865 19.808C648.353 19.64 647.909 19.408 647.533 19.112L648.001 17.9C648.249 18.084 648.513 18.244 648.793 18.38C649.081 18.508 649.381 18.608 649.693 18.68C650.013 18.744 650.353 18.776 650.713 18.776C651.297 18.776 651.725 18.672 651.997 18.464C652.269 18.256 652.405 17.996 652.405 17.684C652.405 17.404 652.313 17.18 652.129 17.012C651.945 16.844 651.617 16.708 651.145 16.604L649.873 16.328C649.153 16.168 648.609 15.904 648.241 15.536C647.881 15.16 647.701 14.664 647.701 14.048C647.701 13.576 647.817 13.156 648.049 12.788C648.281 12.412 648.605 12.112 649.021 11.888C649.437 11.664 649.925 11.532 650.485 11.492L650.245 11.672V10.16H651.445V11.672L651.193 11.48C651.649 11.504 652.097 11.596 652.537 11.756C652.985 11.916 653.357 12.148 653.653 12.452L653.197 13.604C652.893 13.324 652.545 13.116 652.153 12.98C651.761 12.836 651.333 12.764 650.869 12.764C650.373 12.764 649.973 12.88 649.669 13.112C649.373 13.336 649.225 13.632 649.225 14C649.225 14.272 649.317 14.492 649.501 14.66C649.685 14.828 649.981 14.956 650.389 15.044L651.661 15.32C652.429 15.488 652.997 15.756 653.365 16.124C653.741 16.484 653.929 16.964 653.929 17.564C653.929 18.028 653.813 18.44 653.581 18.8C653.349 19.152 653.029 19.436 652.621 19.652C652.221 19.86 651.753 19.992 651.217 20.048L651.445 19.796V21.38H650.245ZM657.992 20.12C657.624 20.12 657.26 20.08 656.9 20C656.548 19.92 656.216 19.808 655.904 19.664C655.6 19.52 655.336 19.352 655.112 19.16L655.616 17.984C655.984 18.264 656.364 18.476 656.756 18.62C657.148 18.756 657.552 18.824 657.968 18.824C658.472 18.824 658.864 18.696 659.144 18.44C659.432 18.176 659.576 17.824 659.576 17.384C659.576 16.936 659.44 16.576 659.168 16.304C658.896 16.024 658.524 15.884 658.052 15.884C657.708 15.884 657.4 15.952 657.128 16.088C656.856 16.216 656.608 16.416 656.384 16.688H655.352V11.54H660.548V12.812H656.852V15.5H656.456C656.664 15.22 656.936 15.004 657.272 14.852C657.616 14.7 657.996 14.624 658.412 14.624C658.948 14.624 659.412 14.74 659.804 14.972C660.204 15.196 660.512 15.512 660.728 15.92C660.952 16.32 661.064 16.788 661.064 17.324C661.064 17.876 660.94 18.364 660.692 18.788C660.444 19.204 660.088 19.532 659.624 19.772C659.168 20.004 658.624 20.12 657.992 20.12ZM665.116 20.12C664.452 20.12 663.888 19.952 663.424 19.616C662.968 19.272 662.62 18.776 662.38 18.128C662.148 17.48 662.032 16.688 662.032 15.752C662.032 14.808 662.148 14.016 662.38 13.376C662.62 12.728 662.968 12.24 663.424 11.912C663.888 11.584 664.452 11.42 665.116 11.42C665.788 11.42 666.352 11.584 666.808 11.912C667.272 12.24 667.62 12.724 667.852 13.364C668.084 14.004 668.2 14.796 668.2 15.74C668.2 16.676 668.08 17.472 667.84 18.128C667.608 18.776 667.264 19.272 666.808 19.616C666.352 19.952 665.788 20.12 665.116 20.12ZM665.116 18.86C665.66 18.86 666.06 18.612 666.316 18.116C666.58 17.612 666.712 16.82 666.712 15.74C666.712 14.668 666.58 13.892 666.316 13.412C666.06 12.924 665.66 12.68 665.116 12.68C664.58 12.68 664.18 12.924 663.916 13.412C663.652 13.892 663.52 14.672 663.52 15.752C663.52 16.824 663.652 17.612 663.916 18.116C664.18 18.612 664.58 18.86 665.116 18.86ZM669.743 20L673.835 12.296V12.824H669.371V11.54H675.263V12.692L671.435 20H669.743ZM676.83 20V11.54H678.366V15.284H678.39L682.122 11.54H683.994L679.53 15.956L679.542 15.26L684.198 20H682.302L678.39 16.088H678.366V20H676.83Z" fill="white"/>
<defs>
<filter id="filter0_d_2_6" x="0.249804" y="0.698021" width="651.5" height="220.22" filterUnits="userSpaceOnUse" color-interpolation-filters="sRGB">
<feFlood flood-opacity="0" result="BackgroundImageFix"/>
<feColorMatrix in="SourceAlpha" type="matrix" values="0 0 0 0 0 0 0 0 0 0 0 0 0 0 0 0 0 0 127 0" result="hardAlpha"/>
<feOffset/>
<feGaussianBlur stdDeviation="4"/>
<feComposite in2="hardAlpha" operator="out"/>
<feColorMatrix type="matrix" values="0 0 0 0 0.627451 0 0 0 0 0.415686 0 0 0 0 1 0 0 0 0.24 0"/>
<feBlend mode="normal" in2="BackgroundImageFix" result="effect1_dropShadow_2_6"/>
<feBlend mode="normal" in="SourceGraphic" in2="effect1_dropShadow_2_6" result="shape"/>
</filter>
</defs>
</svg>
