<svg width="470" height="274" viewBox="0 0 470 274" fill="none" xmlns="http://www.w3.org/2000/svg">
<path d="M0 73H470V262C470 268.627 464.627 274 458 274H12C5.37257 274 0 268.627 0 262V73Z" fill="#181A20"/>
<mask id="path-2-inside-1_4700_8255" fill="white">
<path d="M0 12C0 5.37259 5.37258 0 12 0H458C464.627 0 470 5.37258 470 12V73H0V12Z"/>
</mask>
<path d="M0 12C0 5.37259 5.37258 0 12 0H458C464.627 0 470 5.37258 470 12V73H0V12Z" fill="#181A20"/>
<path d="M0 0H470H0ZM470 74H0V72H470V74ZM0 73V0V73ZM470 0V73V0Z" fill="#23252D" mask="url(#path-2-inside-1_4700_8255)"/>
<path d="M25.848 48V31.08H32.136C34.024 31.08 35.624 31.408 36.936 32.064C38.264 32.72 39.272 33.68 39.96 34.944C40.664 36.192 41.016 37.72 41.016 39.528C41.016 41.336 40.664 42.872 39.96 44.136C39.272 45.4 38.264 46.36 36.936 47.016C35.624 47.672 34.024 48 32.136 48H25.848ZM28.92 45.456H31.944C33.912 45.456 35.376 44.968 36.336 43.992C37.312 43 37.8 41.512 37.8 39.528C37.8 37.544 37.312 36.064 36.336 35.088C35.36 34.112 33.896 33.624 31.944 33.624H28.92V45.456ZM49.6253 48.24C48.2973 48.24 47.1533 47.992 46.1933 47.496C45.2333 47 44.4893 46.296 43.9613 45.384C43.4493 44.472 43.1933 43.392 43.1933 42.144C43.1933 40.928 43.4413 39.864 43.9373 38.952C44.4493 38.04 45.1453 37.328 46.0253 36.816C46.9213 36.288 47.9373 36.024 49.0733 36.024C50.1933 36.024 51.1533 36.264 51.9533 36.744C52.7533 37.224 53.3693 37.904 53.8013 38.784C54.2493 39.664 54.4733 40.712 54.4733 41.928V42.816H45.6173V41.088H52.3613L51.9773 41.448C51.9773 40.36 51.7373 39.528 51.2573 38.952C50.7773 38.36 50.0893 38.064 49.1933 38.064C48.5213 38.064 47.9453 38.224 47.4653 38.544C47.0013 38.848 46.6413 39.288 46.3853 39.864C46.1453 40.424 46.0253 41.096 46.0253 41.88V42.048C46.0253 42.928 46.1613 43.656 46.4333 44.232C46.7053 44.808 47.1133 45.24 47.6573 45.528C48.2013 45.816 48.8733 45.96 49.6733 45.96C50.3293 45.96 50.9853 45.864 51.6413 45.672C52.2973 45.464 52.8973 45.144 53.4413 44.712L54.2812 46.728C53.7213 47.192 53.0173 47.56 52.1693 47.832C51.3213 48.104 50.4733 48.24 49.6253 48.24ZM60.9291 48.24C59.5371 48.24 58.5051 47.864 57.8331 47.112C57.1771 46.344 56.8491 45.224 56.8491 43.752V31.08H59.8491V43.608C59.8491 44.072 59.9131 44.472 60.0411 44.808C60.1851 45.128 60.3931 45.368 60.6651 45.528C60.9371 45.688 61.2731 45.768 61.6731 45.768C61.8491 45.768 62.0251 45.76 62.2011 45.744C62.3771 45.728 62.5451 45.696 62.7051 45.648L62.6571 48.024C62.3691 48.088 62.0811 48.136 61.7931 48.168C61.5211 48.216 61.2331 48.24 60.9291 48.24ZM70.1799 48.24C68.8519 48.24 67.7079 47.992 66.7479 47.496C65.7879 47 65.0439 46.296 64.5159 45.384C64.0039 44.472 63.7479 43.392 63.7479 42.144C63.7479 40.928 63.9959 39.864 64.4919 38.952C65.0039 38.04 65.6999 37.328 66.5799 36.816C67.4759 36.288 68.4919 36.024 69.6279 36.024C70.7479 36.024 71.7079 36.264 72.5079 36.744C73.3079 37.224 73.9239 37.904 74.3559 38.784C74.8039 39.664 75.0279 40.712 75.0279 41.928V42.816H66.1719V41.088H72.9159L72.5319 41.448C72.5319 40.36 72.2919 39.528 71.8119 38.952C71.3319 38.36 70.6439 38.064 69.7479 38.064C69.0759 38.064 68.4999 38.224 68.0199 38.544C67.5559 38.848 67.1959 39.288 66.9399 39.864C66.6999 40.424 66.5799 41.096 66.5799 41.88V42.048C66.5799 42.928 66.7159 43.656 66.9879 44.232C67.2599 44.808 67.6679 45.24 68.2119 45.528C68.7559 45.816 69.4279 45.96 70.2279 45.96C70.8839 45.96 71.5399 45.864 72.1959 45.672C72.8519 45.464 73.4519 45.144 73.9959 44.712L74.8359 46.728C74.2759 47.192 73.5719 47.56 72.7239 47.832C71.8759 48.104 71.0279 48.24 70.1799 48.24ZM82.7329 48.24C81.1649 48.24 79.9969 47.848 79.2289 47.064C78.4609 46.28 78.0769 45.136 78.0769 43.632V38.52H75.8209V36.264H78.0769V32.76H81.0769V36.264H84.6289V38.52H81.0769V43.464C81.0769 44.232 81.2449 44.808 81.5809 45.192C81.9169 45.576 82.4609 45.768 83.2129 45.768C83.4369 45.768 83.6689 45.744 83.9089 45.696C84.1489 45.632 84.3969 45.568 84.6529 45.504L85.1089 47.712C84.8209 47.872 84.4529 48 84.0049 48.096C83.5729 48.192 83.1489 48.24 82.7329 48.24ZM92.2346 48.24C90.9066 48.24 89.7626 47.992 88.8026 47.496C87.8426 47 87.0986 46.296 86.5706 45.384C86.0586 44.472 85.8026 43.392 85.8026 42.144C85.8026 40.928 86.0506 39.864 86.5466 38.952C87.0586 38.04 87.7546 37.328 88.6346 36.816C89.5306 36.288 90.5466 36.024 91.6826 36.024C92.8026 36.024 93.7626 36.264 94.5626 36.744C95.3626 37.224 95.9786 37.904 96.4106 38.784C96.8586 39.664 97.0826 40.712 97.0826 41.928V42.816H88.2266V41.088H94.9706L94.5866 41.448C94.5866 40.36 94.3466 39.528 93.8666 38.952C93.3866 38.36 92.6986 38.064 91.8026 38.064C91.1306 38.064 90.5546 38.224 90.0746 38.544C89.6106 38.848 89.2506 39.288 88.9946 39.864C88.7546 40.424 88.6346 41.096 88.6346 41.88V42.048C88.6346 42.928 88.7706 43.656 89.0426 44.232C89.3146 44.808 89.7226 45.24 90.2666 45.528C90.8106 45.816 91.4826 45.96 92.2826 45.96C92.9386 45.96 93.5946 45.864 94.2506 45.672C94.9066 45.464 95.5066 45.144 96.0506 44.712L96.8906 46.728C96.3306 47.192 95.6266 47.56 94.7786 47.832C93.9306 48.104 93.0826 48.24 92.2346 48.24ZM106.215 48V31.08H113.559C114.807 31.08 115.863 31.288 116.727 31.704C117.591 32.12 118.247 32.72 118.695 33.504C119.143 34.288 119.367 35.24 119.367 36.36C119.367 37.464 119.143 38.416 118.695 39.216C118.247 40 117.591 40.608 116.727 41.04C115.863 41.456 114.807 41.664 113.559 41.664H109.287V48H106.215ZM109.287 39.24H113.079C114.167 39.24 114.991 39 115.551 38.52C116.111 38.024 116.391 37.304 116.391 36.36C116.391 35.416 116.111 34.704 115.551 34.224C114.991 33.744 114.167 33.504 113.079 33.504H109.287V39.24ZM126.35 48.24C125.134 48.24 124.078 47.992 123.182 47.496C122.286 47 121.59 46.296 121.094 45.384C120.598 44.456 120.35 43.368 120.35 42.12C120.35 40.872 120.598 39.792 121.094 38.88C121.59 37.968 122.286 37.264 123.182 36.768C124.078 36.272 125.134 36.024 126.35 36.024C127.566 36.024 128.622 36.272 129.518 36.768C130.414 37.264 131.11 37.968 131.606 38.88C132.102 39.792 132.35 40.872 132.35 42.12C132.35 43.368 132.102 44.456 131.606 45.384C131.11 46.296 130.414 47 129.518 47.496C128.622 47.992 127.566 48.24 126.35 48.24ZM126.35 45.96C127.246 45.96 127.966 45.64 128.51 45C129.054 44.344 129.326 43.384 129.326 42.12C129.326 40.84 129.054 39.888 128.51 39.264C127.966 38.624 127.246 38.304 126.35 38.304C125.454 38.304 124.734 38.624 124.19 39.264C123.646 39.888 123.374 40.84 123.374 42.12C123.374 43.384 123.646 44.344 124.19 45C124.734 45.64 125.454 45.96 126.35 45.96ZM134.826 48V36.264H137.754V39.096H137.514C137.738 38.136 138.178 37.408 138.834 36.912C139.49 36.4 140.362 36.104 141.45 36.024L142.362 35.952L142.554 38.496L140.826 38.664C139.85 38.76 139.114 39.064 138.618 39.576C138.122 40.072 137.874 40.776 137.874 41.688V48H134.826ZM150.28 48.24C148.712 48.24 147.544 47.848 146.776 47.064C146.008 46.28 145.624 45.136 145.624 43.632V38.52H143.368V36.264H145.624V32.76H148.624V36.264H152.176V38.52H148.624V43.464C148.624 44.232 148.792 44.808 149.128 45.192C149.464 45.576 150.008 45.768 150.76 45.768C150.984 45.768 151.216 45.744 151.456 45.696C151.696 45.632 151.944 45.568 152.2 45.504L152.656 47.712C152.368 47.872 152 48 151.552 48.096C151.12 48.192 150.696 48.24 150.28 48.24ZM154.86 48V38.52H152.604V36.264H155.724L154.86 37.056V36.24C154.86 34.576 155.292 33.32 156.156 32.472C157.036 31.624 158.396 31.144 160.236 31.032L161.412 30.96L161.604 33.168L160.5 33.24C159.86 33.272 159.348 33.392 158.964 33.6C158.58 33.792 158.3 34.064 158.124 34.416C157.948 34.768 157.86 35.216 157.86 35.76V36.648L157.476 36.264H161.052V38.52H157.86V48H154.86ZM167.857 48.24C166.641 48.24 165.585 47.992 164.689 47.496C163.793 47 163.097 46.296 162.601 45.384C162.105 44.456 161.857 43.368 161.857 42.12C161.857 40.872 162.105 39.792 162.601 38.88C163.097 37.968 163.793 37.264 164.689 36.768C165.585 36.272 166.641 36.024 167.857 36.024C169.073 36.024 170.129 36.272 171.025 36.768C171.921 37.264 172.617 37.968 173.113 38.88C173.609 39.792 173.857 40.872 173.857 42.12C173.857 43.368 173.609 44.456 173.113 45.384C172.617 46.296 171.921 47 171.025 47.496C170.129 47.992 169.073 48.24 167.857 48.24ZM167.857 45.96C168.753 45.96 169.473 45.64 170.017 45C170.561 44.344 170.833 43.384 170.833 42.12C170.833 40.84 170.561 39.888 170.017 39.264C169.473 38.624 168.753 38.304 167.857 38.304C166.961 38.304 166.241 38.624 165.697 39.264C165.153 39.888 164.881 40.84 164.881 42.12C164.881 43.384 165.153 44.344 165.697 45C166.241 45.64 166.961 45.96 167.857 45.96ZM180.413 48.24C179.021 48.24 177.989 47.864 177.317 47.112C176.661 46.344 176.333 45.224 176.333 43.752V31.08H179.333V43.608C179.333 44.072 179.397 44.472 179.525 44.808C179.669 45.128 179.877 45.368 180.149 45.528C180.421 45.688 180.757 45.768 181.157 45.768C181.333 45.768 181.509 45.76 181.685 45.744C181.861 45.728 182.029 45.696 182.189 45.648L182.141 48.024C181.853 48.088 181.565 48.136 181.277 48.168C181.005 48.216 180.717 48.24 180.413 48.24ZM183.806 33.744V30.816H187.166V33.744H183.806ZM183.998 48V36.264H186.998V48H183.998ZM195.467 48.24C194.251 48.24 193.195 47.992 192.299 47.496C191.403 47 190.707 46.296 190.211 45.384C189.715 44.456 189.467 43.368 189.467 42.12C189.467 40.872 189.715 39.792 190.211 38.88C190.707 37.968 191.403 37.264 192.299 36.768C193.195 36.272 194.251 36.024 195.467 36.024C196.683 36.024 197.739 36.272 198.635 36.768C199.531 37.264 200.227 37.968 200.723 38.88C201.219 39.792 201.467 40.872 201.467 42.12C201.467 43.368 201.219 44.456 200.723 45.384C200.227 46.296 199.531 47 198.635 47.496C197.739 47.992 196.683 48.24 195.467 48.24ZM195.467 45.96C196.363 45.96 197.083 45.64 197.627 45C198.171 44.344 198.443 43.384 198.443 42.12C198.443 40.84 198.171 39.888 197.627 39.264C197.083 38.624 196.363 38.304 195.467 38.304C194.571 38.304 193.851 38.624 193.307 39.264C192.763 39.888 192.491 40.84 192.491 42.12C192.491 43.384 192.763 44.344 193.307 45C193.851 45.64 194.571 45.96 195.467 45.96Z" fill="white"/>
<path d="M24.225 112L28.905 101.425H30.09L34.77 112H33.345L32.055 109L32.7 109.36H26.28L26.925 109L25.65 112H24.225ZM29.475 103L27.135 108.535L26.775 108.22H32.205L31.86 108.535L29.505 103H29.475ZM38.421 112.135C37.641 112.135 37.056 111.915 36.666 111.475C36.286 111.025 36.096 110.38 36.096 109.54V101.425H37.461V109.435C37.461 109.775 37.506 110.065 37.596 110.305C37.696 110.535 37.836 110.705 38.016 110.815C38.206 110.925 38.441 110.98 38.721 110.98C38.831 110.98 38.941 110.975 39.051 110.965C39.171 110.955 39.281 110.935 39.381 110.905L39.351 112.015C39.191 112.055 39.031 112.085 38.871 112.105C38.721 112.125 38.571 112.135 38.421 112.135ZM42.9327 112.135C42.1527 112.135 41.5677 111.915 41.1777 111.475C40.7977 111.025 40.6077 110.38 40.6077 109.54V101.425H41.9727V109.435C41.9727 109.775 42.0177 110.065 42.1077 110.305C42.2077 110.535 42.3477 110.705 42.5277 110.815C42.7177 110.925 42.9527 110.98 43.2327 110.98C43.3427 110.98 43.4527 110.975 43.5627 110.965C43.6827 110.955 43.7927 110.935 43.8927 110.905L43.8627 112.015C43.7027 112.055 43.5427 112.085 43.3827 112.105C43.2327 112.125 43.0827 112.135 42.9327 112.135ZM52.1809 112.135C51.4409 112.135 50.8009 111.98 50.2609 111.67C49.7209 111.35 49.3059 110.905 49.0159 110.335C48.7259 109.755 48.5809 109.075 48.5809 108.295C48.5809 107.525 48.7259 106.86 49.0159 106.3C49.3059 105.74 49.7209 105.31 50.2609 105.01C50.8009 104.71 51.4409 104.56 52.1809 104.56C52.6409 104.56 53.0909 104.64 53.5309 104.8C53.9809 104.96 54.3509 105.185 54.6409 105.475L54.1909 106.435C53.9009 106.175 53.5859 105.98 53.2459 105.85C52.9059 105.72 52.5809 105.655 52.2709 105.655C51.5409 105.655 50.9759 105.885 50.5759 106.345C50.1759 106.805 49.9759 107.46 49.9759 108.31C49.9759 109.16 50.1759 109.83 50.5759 110.32C50.9759 110.8 51.5409 111.04 52.2709 111.04C52.5809 111.04 52.9059 110.975 53.2459 110.845C53.5859 110.715 53.9009 110.515 54.1909 110.245L54.6409 111.22C54.3509 111.51 53.9759 111.735 53.5159 111.895C53.0659 112.055 52.6209 112.135 52.1809 112.135ZM58.9471 112.135C58.2271 112.135 57.6021 111.98 57.0721 111.67C56.5421 111.36 56.1321 110.92 55.8421 110.35C55.5521 109.78 55.4071 109.11 55.4071 108.34C55.4071 107.57 55.5521 106.905 55.8421 106.345C56.1321 105.775 56.5421 105.335 57.0721 105.025C57.6021 104.715 58.2271 104.56 58.9471 104.56C59.6671 104.56 60.2921 104.715 60.8221 105.025C61.3521 105.335 61.7621 105.775 62.0521 106.345C62.3421 106.905 62.4871 107.57 62.4871 108.34C62.4871 109.11 62.3421 109.78 62.0521 110.35C61.7621 110.92 61.3521 111.36 60.8221 111.67C60.2921 111.98 59.6671 112.135 58.9471 112.135ZM58.9471 111.055C59.6071 111.055 60.1321 110.825 60.5221 110.365C60.9121 109.895 61.1071 109.22 61.1071 108.34C61.1071 107.46 60.9121 106.79 60.5221 106.33C60.1321 105.87 59.6071 105.64 58.9471 105.64C58.2971 105.64 57.7721 105.87 57.3721 106.33C56.9821 106.79 56.7871 107.46 56.7871 108.34C56.7871 109.22 56.9821 109.895 57.3721 110.365C57.7721 110.825 58.2971 111.055 58.9471 111.055ZM64.2356 112V104.695H65.5706V106.285H65.4056C65.6156 105.715 65.9556 105.285 66.4256 104.995C66.9056 104.705 67.4506 104.56 68.0606 104.56C68.6506 104.56 69.1356 104.665 69.5156 104.875C69.8956 105.085 70.1806 105.41 70.3706 105.85C70.5606 106.28 70.6556 106.82 70.6556 107.47V112H69.2906V107.545C69.2906 107.115 69.2356 106.76 69.1256 106.48C69.0156 106.2 68.8406 105.995 68.6006 105.865C68.3706 105.735 68.0756 105.67 67.7156 105.67C67.2956 105.67 66.9256 105.76 66.6056 105.94C66.2856 106.12 66.0356 106.375 65.8556 106.705C65.6856 107.035 65.6006 107.42 65.6006 107.86V112H64.2356ZM75.8496 112.135C74.9596 112.135 74.2946 111.905 73.8546 111.445C73.4146 110.975 73.1946 110.305 73.1946 109.435V105.745H71.7696V104.695H73.1946V102.475H74.5596V104.695H76.8546V105.745H74.5596V109.315C74.5596 109.865 74.6746 110.28 74.9046 110.56C75.1346 110.84 75.5146 110.98 76.0446 110.98C76.2046 110.98 76.3596 110.965 76.5096 110.935C76.6696 110.895 76.8196 110.855 76.9596 110.815L77.1846 111.835C77.0446 111.925 76.8446 111.995 76.5846 112.045C76.3346 112.105 76.0896 112.135 75.8496 112.135ZM80.5206 112.135C80.0206 112.135 79.5656 112.035 79.1556 111.835C78.7556 111.635 78.4406 111.365 78.2106 111.025C77.9906 110.685 77.8806 110.305 77.8806 109.885C77.8806 109.345 78.0156 108.92 78.2856 108.61C78.5556 108.3 79.0106 108.08 79.6506 107.95C80.2906 107.81 81.1506 107.74 82.2306 107.74H82.9356V108.61H82.2606C81.6806 108.61 81.1956 108.63 80.8056 108.67C80.4156 108.71 80.1056 108.775 79.8756 108.865C79.6456 108.955 79.4806 109.08 79.3806 109.24C79.2806 109.39 79.2306 109.58 79.2306 109.81C79.2306 110.2 79.3656 110.52 79.6356 110.77C79.9156 111.02 80.2956 111.145 80.7756 111.145C81.1556 111.145 81.4906 111.055 81.7806 110.875C82.0706 110.685 82.3006 110.435 82.4706 110.125C82.6406 109.805 82.7256 109.44 82.7256 109.03V107.305C82.7256 106.715 82.6056 106.29 82.3656 106.03C82.1256 105.76 81.7206 105.625 81.1506 105.625C80.7306 105.625 80.3106 105.69 79.8906 105.82C79.4806 105.95 79.0556 106.15 78.6156 106.42L78.1806 105.445C78.4406 105.265 78.7356 105.11 79.0656 104.98C79.4056 104.84 79.7556 104.735 80.1156 104.665C80.4856 104.595 80.8406 104.56 81.1806 104.56C81.8306 104.56 82.3656 104.665 82.7856 104.875C83.2056 105.075 83.5206 105.39 83.7306 105.82C83.9406 106.24 84.0456 106.78 84.0456 107.44V112H82.7556V110.335H82.8906C82.8106 110.705 82.6606 111.025 82.4406 111.295C82.2206 111.565 81.9456 111.775 81.6156 111.925C81.2956 112.065 80.9306 112.135 80.5206 112.135ZM86.0586 102.94V101.47H87.6936V102.94H86.0586ZM86.1936 112V104.695H87.5586V112H86.1936ZM89.7532 112V104.695H91.0882V106.285H90.9232C91.1332 105.715 91.4732 105.285 91.9432 104.995C92.4232 104.705 92.9682 104.56 93.5782 104.56C94.1682 104.56 94.6532 104.665 95.0332 104.875C95.4132 105.085 95.6982 105.41 95.8882 105.85C96.0782 106.28 96.1732 106.82 96.1732 107.47V112H94.8082V107.545C94.8082 107.115 94.7532 106.76 94.6432 106.48C94.5332 106.2 94.3582 105.995 94.1182 105.865C93.8882 105.735 93.5932 105.67 93.2332 105.67C92.8132 105.67 92.4432 105.76 92.1232 105.94C91.8032 106.12 91.5532 106.375 91.3732 106.705C91.2032 107.035 91.1182 107.42 91.1182 107.86V112H89.7532ZM101.712 112.135C100.922 112.135 100.242 111.985 99.6722 111.685C99.1122 111.375 98.6772 110.94 98.3672 110.38C98.0572 109.81 97.9022 109.14 97.9022 108.37C97.9022 107.61 98.0522 106.945 98.3522 106.375C98.6622 105.805 99.0822 105.36 99.6122 105.04C100.152 104.72 100.767 104.56 101.457 104.56C102.127 104.56 102.697 104.705 103.167 104.995C103.647 105.285 104.012 105.7 104.262 106.24C104.522 106.77 104.652 107.41 104.652 108.16V108.655H98.9672V107.785H103.752L103.497 107.995C103.497 107.215 103.327 106.615 102.987 106.195C102.647 105.765 102.147 105.55 101.487 105.55C101.007 105.55 100.597 105.665 100.257 105.895C99.9172 106.115 99.6572 106.43 99.4772 106.84C99.2972 107.24 99.2072 107.705 99.2072 108.235V108.325C99.2072 108.925 99.3022 109.43 99.4922 109.84C99.6922 110.24 99.9772 110.545 100.347 110.755C100.717 110.955 101.172 111.055 101.712 111.055C102.142 111.055 102.557 110.99 102.957 110.86C103.367 110.72 103.752 110.505 104.112 110.215L104.532 111.16C104.202 111.46 103.777 111.7 103.257 111.88C102.747 112.05 102.232 112.135 101.712 112.135ZM109.14 112.135C108.5 112.135 107.935 111.985 107.445 111.685C106.965 111.375 106.59 110.935 106.32 110.365C106.05 109.785 105.915 109.11 105.915 108.34C105.915 107.56 106.045 106.89 106.305 106.33C106.575 105.76 106.95 105.325 107.43 105.025C107.92 104.715 108.49 104.56 109.14 104.56C109.79 104.56 110.35 104.725 110.82 105.055C111.29 105.375 111.605 105.805 111.765 106.345H111.6V101.425H112.965V112H111.615V110.305H111.765C111.615 110.865 111.3 111.31 110.82 111.64C110.35 111.97 109.79 112.135 109.14 112.135ZM109.455 111.055C110.115 111.055 110.64 110.825 111.03 110.365C111.42 109.895 111.615 109.22 111.615 108.34C111.615 107.46 111.42 106.79 111.03 106.33C110.64 105.87 110.115 105.64 109.455 105.64C108.805 105.64 108.28 105.87 107.88 106.33C107.49 106.79 107.295 107.46 107.295 108.34C107.295 109.22 107.49 109.895 107.88 110.365C108.28 110.825 108.805 111.055 109.455 111.055ZM121.375 112.135C120.875 112.135 120.42 112.035 120.01 111.835C119.61 111.635 119.295 111.365 119.065 111.025C118.845 110.685 118.735 110.305 118.735 109.885C118.735 109.345 118.87 108.92 119.14 108.61C119.41 108.3 119.865 108.08 120.505 107.95C121.145 107.81 122.005 107.74 123.085 107.74H123.79V108.61H123.115C122.535 108.61 122.05 108.63 121.66 108.67C121.27 108.71 120.96 108.775 120.73 108.865C120.5 108.955 120.335 109.08 120.235 109.24C120.135 109.39 120.085 109.58 120.085 109.81C120.085 110.2 120.22 110.52 120.49 110.77C120.77 111.02 121.15 111.145 121.63 111.145C122.01 111.145 122.345 111.055 122.635 110.875C122.925 110.685 123.155 110.435 123.325 110.125C123.495 109.805 123.58 109.44 123.58 109.03V107.305C123.58 106.715 123.46 106.29 123.22 106.03C122.98 105.76 122.575 105.625 122.005 105.625C121.585 105.625 121.165 105.69 120.745 105.82C120.335 105.95 119.91 106.15 119.47 106.42L119.035 105.445C119.295 105.265 119.59 105.11 119.92 104.98C120.26 104.84 120.61 104.735 120.97 104.665C121.34 104.595 121.695 104.56 122.035 104.56C122.685 104.56 123.22 104.665 123.64 104.875C124.06 105.075 124.375 105.39 124.585 105.82C124.795 106.24 124.9 106.78 124.9 107.44V112H123.61V110.335H123.745C123.665 110.705 123.515 111.025 123.295 111.295C123.075 111.565 122.8 111.775 122.47 111.925C122.15 112.065 121.785 112.135 121.375 112.135ZM129.568 112.135C129.188 112.135 128.813 112.1 128.443 112.03C128.083 111.96 127.748 111.86 127.438 111.73C127.138 111.59 126.873 111.425 126.643 111.235L127.048 110.29C127.288 110.47 127.548 110.625 127.828 110.755C128.108 110.875 128.398 110.965 128.698 111.025C128.998 111.085 129.298 111.115 129.598 111.115C130.148 111.115 130.563 111.015 130.843 110.815C131.123 110.615 131.263 110.35 131.263 110.02C131.263 109.74 131.168 109.525 130.978 109.375C130.798 109.215 130.513 109.095 130.123 109.015L128.728 108.73C128.108 108.59 127.638 108.36 127.318 108.04C127.008 107.71 126.853 107.29 126.853 106.78C126.853 106.33 126.973 105.94 127.213 105.61C127.463 105.27 127.808 105.01 128.248 104.83C128.688 104.65 129.193 104.56 129.763 104.56C130.103 104.56 130.433 104.595 130.753 104.665C131.073 104.735 131.373 104.835 131.653 104.965C131.933 105.095 132.168 105.265 132.358 105.475L131.938 106.405C131.748 106.225 131.533 106.075 131.293 105.955C131.053 105.835 130.803 105.745 130.543 105.685C130.283 105.615 130.023 105.58 129.763 105.58C129.223 105.58 128.813 105.685 128.533 105.895C128.263 106.105 128.128 106.38 128.128 106.72C128.128 106.98 128.208 107.195 128.368 107.365C128.538 107.535 128.803 107.66 129.163 107.74L130.558 108.025C131.208 108.165 131.698 108.39 132.028 108.7C132.358 109 132.523 109.41 132.523 109.93C132.523 110.39 132.398 110.785 132.148 111.115C131.908 111.445 131.563 111.7 131.113 111.88C130.673 112.05 130.158 112.135 129.568 112.135ZM136.819 112.135C136.439 112.135 136.064 112.1 135.694 112.03C135.334 111.96 134.999 111.86 134.689 111.73C134.389 111.59 134.124 111.425 133.894 111.235L134.299 110.29C134.539 110.47 134.799 110.625 135.079 110.755C135.359 110.875 135.649 110.965 135.949 111.025C136.249 111.085 136.549 111.115 136.849 111.115C137.399 111.115 137.814 111.015 138.094 110.815C138.374 110.615 138.514 110.35 138.514 110.02C138.514 109.74 138.419 109.525 138.229 109.375C138.049 109.215 137.764 109.095 137.374 109.015L135.979 108.73C135.359 108.59 134.889 108.36 134.569 108.04C134.259 107.71 134.104 107.29 134.104 106.78C134.104 106.33 134.224 105.94 134.464 105.61C134.714 105.27 135.059 105.01 135.499 104.83C135.939 104.65 136.444 104.56 137.014 104.56C137.354 104.56 137.684 104.595 138.004 104.665C138.324 104.735 138.624 104.835 138.904 104.965C139.184 105.095 139.419 105.265 139.609 105.475L139.189 106.405C138.999 106.225 138.784 106.075 138.544 105.955C138.304 105.835 138.054 105.745 137.794 105.685C137.534 105.615 137.274 105.58 137.014 105.58C136.474 105.58 136.064 105.685 135.784 105.895C135.514 106.105 135.379 106.38 135.379 106.72C135.379 106.98 135.459 107.195 135.619 107.365C135.789 107.535 136.054 107.66 136.414 107.74L137.809 108.025C138.459 108.165 138.949 108.39 139.279 108.7C139.609 109 139.774 109.41 139.774 109.93C139.774 110.39 139.649 110.785 139.399 111.115C139.159 111.445 138.814 111.7 138.364 111.88C137.924 112.05 137.409 112.135 136.819 112.135ZM144.925 112.135C144.135 112.135 143.455 111.985 142.885 111.685C142.325 111.375 141.89 110.94 141.58 110.38C141.27 109.81 141.115 109.14 141.115 108.37C141.115 107.61 141.265 106.945 141.565 106.375C141.875 105.805 142.295 105.36 142.825 105.04C143.365 104.72 143.98 104.56 144.67 104.56C145.34 104.56 145.91 104.705 146.38 104.995C146.86 105.285 147.225 105.7 147.475 106.24C147.735 106.77 147.865 107.41 147.865 108.16V108.655H142.18V107.785H146.965L146.71 107.995C146.71 107.215 146.54 106.615 146.2 106.195C145.86 105.765 145.36 105.55 144.7 105.55C144.22 105.55 143.81 105.665 143.47 105.895C143.13 106.115 142.87 106.43 142.69 106.84C142.51 107.24 142.42 107.705 142.42 108.235V108.325C142.42 108.925 142.515 109.43 142.705 109.84C142.905 110.24 143.19 110.545 143.56 110.755C143.93 110.955 144.385 111.055 144.925 111.055C145.355 111.055 145.77 110.99 146.17 110.86C146.58 110.72 146.965 110.505 147.325 110.215L147.745 111.16C147.415 111.46 146.99 111.7 146.47 111.88C145.96 112.05 145.445 112.135 144.925 112.135ZM152.578 112.135C151.688 112.135 151.023 111.905 150.583 111.445C150.143 110.975 149.923 110.305 149.923 109.435V105.745H148.498V104.695H149.923V102.475H151.288V104.695H153.583V105.745H151.288V109.315C151.288 109.865 151.403 110.28 151.633 110.56C151.863 110.84 152.243 110.98 152.773 110.98C152.933 110.98 153.088 110.965 153.238 110.935C153.398 110.895 153.548 110.855 153.688 110.815L153.913 111.835C153.773 111.925 153.573 111.995 153.313 112.045C153.063 112.105 152.818 112.135 152.578 112.135ZM157.444 112.135C157.064 112.135 156.689 112.1 156.319 112.03C155.959 111.96 155.624 111.86 155.314 111.73C155.014 111.59 154.749 111.425 154.519 111.235L154.924 110.29C155.164 110.47 155.424 110.625 155.704 110.755C155.984 110.875 156.274 110.965 156.574 111.025C156.874 111.085 157.174 111.115 157.474 111.115C158.024 111.115 158.439 111.015 158.719 110.815C158.999 110.615 159.139 110.35 159.139 110.02C159.139 109.74 159.044 109.525 158.854 109.375C158.674 109.215 158.389 109.095 157.999 109.015L156.604 108.73C155.984 108.59 155.514 108.36 155.194 108.04C154.884 107.71 154.729 107.29 154.729 106.78C154.729 106.33 154.849 105.94 155.089 105.61C155.339 105.27 155.684 105.01 156.124 104.83C156.564 104.65 157.069 104.56 157.639 104.56C157.979 104.56 158.309 104.595 158.629 104.665C158.949 104.735 159.249 104.835 159.529 104.965C159.809 105.095 160.044 105.265 160.234 105.475L159.814 106.405C159.624 106.225 159.409 106.075 159.169 105.955C158.929 105.835 158.679 105.745 158.419 105.685C158.159 105.615 157.899 105.58 157.639 105.58C157.099 105.58 156.689 105.685 156.409 105.895C156.139 106.105 156.004 106.38 156.004 106.72C156.004 106.98 156.084 107.195 156.244 107.365C156.414 107.535 156.679 107.66 157.039 107.74L158.434 108.025C159.084 108.165 159.574 108.39 159.904 108.7C160.234 109 160.399 109.41 160.399 109.93C160.399 110.39 160.274 110.785 160.024 111.115C159.784 111.445 159.439 111.7 158.989 111.88C158.549 112.05 158.034 112.135 157.444 112.135ZM168.397 112.135C167.897 112.135 167.442 112.035 167.032 111.835C166.632 111.635 166.317 111.365 166.087 111.025C165.867 110.685 165.757 110.305 165.757 109.885C165.757 109.345 165.892 108.92 166.162 108.61C166.432 108.3 166.887 108.08 167.527 107.95C168.167 107.81 169.027 107.74 170.107 107.74H170.812V108.61H170.137C169.557 108.61 169.072 108.63 168.682 108.67C168.292 108.71 167.982 108.775 167.752 108.865C167.522 108.955 167.357 109.08 167.257 109.24C167.157 109.39 167.107 109.58 167.107 109.81C167.107 110.2 167.242 110.52 167.512 110.77C167.792 111.02 168.172 111.145 168.652 111.145C169.032 111.145 169.367 111.055 169.657 110.875C169.947 110.685 170.177 110.435 170.347 110.125C170.517 109.805 170.602 109.44 170.602 109.03V107.305C170.602 106.715 170.482 106.29 170.242 106.03C170.002 105.76 169.597 105.625 169.027 105.625C168.607 105.625 168.187 105.69 167.767 105.82C167.357 105.95 166.932 106.15 166.492 106.42L166.057 105.445C166.317 105.265 166.612 105.11 166.942 104.98C167.282 104.84 167.632 104.735 167.992 104.665C168.362 104.595 168.717 104.56 169.057 104.56C169.707 104.56 170.242 104.665 170.662 104.875C171.082 105.075 171.397 105.39 171.607 105.82C171.817 106.24 171.922 106.78 171.922 107.44V112H170.632V110.335H170.767C170.687 110.705 170.537 111.025 170.317 111.295C170.097 111.565 169.822 111.775 169.492 111.925C169.172 112.065 168.807 112.135 168.397 112.135ZM174.07 112V104.695H175.405V106.285H175.24C175.45 105.715 175.79 105.285 176.26 104.995C176.74 104.705 177.285 104.56 177.895 104.56C178.485 104.56 178.97 104.665 179.35 104.875C179.73 105.085 180.015 105.41 180.205 105.85C180.395 106.28 180.49 106.82 180.49 107.47V112H179.125V107.545C179.125 107.115 179.07 106.76 178.96 106.48C178.85 106.2 178.675 105.995 178.435 105.865C178.205 105.735 177.91 105.67 177.55 105.67C177.13 105.67 176.76 105.76 176.44 105.94C176.12 106.12 175.87 106.375 175.69 106.705C175.52 107.035 175.435 107.42 175.435 107.86V112H174.07ZM185.444 112.135C184.804 112.135 184.239 111.985 183.749 111.685C183.269 111.375 182.894 110.935 182.624 110.365C182.354 109.785 182.219 109.11 182.219 108.34C182.219 107.56 182.349 106.89 182.609 106.33C182.879 105.76 183.254 105.325 183.734 105.025C184.224 104.715 184.794 104.56 185.444 104.56C186.094 104.56 186.654 104.725 187.124 105.055C187.594 105.375 187.909 105.805 188.069 106.345H187.904V101.425H189.269V112H187.919V110.305H188.069C187.919 110.865 187.604 111.31 187.124 111.64C186.654 111.97 186.094 112.135 185.444 112.135ZM185.759 111.055C186.419 111.055 186.944 110.825 187.334 110.365C187.724 109.895 187.919 109.22 187.919 108.34C187.919 107.46 187.724 106.79 187.334 106.33C186.944 105.87 186.419 105.64 185.759 105.64C185.109 105.64 184.584 105.87 184.184 106.33C183.794 106.79 183.599 107.46 183.599 108.34C183.599 109.22 183.794 109.895 184.184 110.365C184.584 110.825 185.109 111.055 185.759 111.055ZM198.384 112.135C197.494 112.135 196.829 111.905 196.389 111.445C195.949 110.975 195.729 110.305 195.729 109.435V105.745H194.304V104.695H195.729V102.475H197.094V104.695H199.389V105.745H197.094V109.315C197.094 109.865 197.209 110.28 197.439 110.56C197.669 110.84 198.049 110.98 198.579 110.98C198.739 110.98 198.894 110.965 199.044 110.935C199.204 110.895 199.354 110.855 199.494 110.815L199.719 111.835C199.579 111.925 199.379 111.995 199.119 112.045C198.869 112.105 198.624 112.135 198.384 112.135ZM200.73 112V104.695H202.065V106.435H201.915C202.075 105.835 202.365 105.385 202.785 105.085C203.205 104.775 203.76 104.595 204.45 104.545L204.915 104.5L205.02 105.685L204.165 105.76C203.505 105.83 202.995 106.045 202.635 106.405C202.285 106.765 202.11 107.26 202.11 107.89V112H200.73ZM208.46 112.135C207.96 112.135 207.505 112.035 207.095 111.835C206.695 111.635 206.38 111.365 206.15 111.025C205.93 110.685 205.82 110.305 205.82 109.885C205.82 109.345 205.955 108.92 206.225 108.61C206.495 108.3 206.95 108.08 207.59 107.95C208.23 107.81 209.09 107.74 210.17 107.74H210.875V108.61H210.2C209.62 108.61 209.135 108.63 208.745 108.67C208.355 108.71 208.045 108.775 207.815 108.865C207.585 108.955 207.42 109.08 207.32 109.24C207.22 109.39 207.17 109.58 207.17 109.81C207.17 110.2 207.305 110.52 207.575 110.77C207.855 111.02 208.235 111.145 208.715 111.145C209.095 111.145 209.43 111.055 209.72 110.875C210.01 110.685 210.24 110.435 210.41 110.125C210.58 109.805 210.665 109.44 210.665 109.03V107.305C210.665 106.715 210.545 106.29 210.305 106.03C210.065 105.76 209.66 105.625 209.09 105.625C208.67 105.625 208.25 105.69 207.83 105.82C207.42 105.95 206.995 106.15 206.555 106.42L206.12 105.445C206.38 105.265 206.675 105.11 207.005 104.98C207.345 104.84 207.695 104.735 208.055 104.665C208.425 104.595 208.78 104.56 209.12 104.56C209.77 104.56 210.305 104.665 210.725 104.875C211.145 105.075 211.46 105.39 211.67 105.82C211.88 106.24 211.985 106.78 211.985 107.44V112H210.695V110.335H210.83C210.75 110.705 210.6 111.025 210.38 111.295C210.16 111.565 209.885 111.775 209.555 111.925C209.235 112.065 208.87 112.135 208.46 112.135ZM214.133 112V104.695H215.468V106.285H215.303C215.513 105.715 215.853 105.285 216.323 104.995C216.803 104.705 217.348 104.56 217.958 104.56C218.548 104.56 219.033 104.665 219.413 104.875C219.793 105.085 220.078 105.41 220.268 105.85C220.458 106.28 220.553 106.82 220.553 107.47V112H219.188V107.545C219.188 107.115 219.133 106.76 219.023 106.48C218.913 106.2 218.738 105.995 218.498 105.865C218.268 105.735 217.973 105.67 217.613 105.67C217.193 105.67 216.823 105.76 216.503 105.94C216.183 106.12 215.933 106.375 215.753 106.705C215.583 107.035 215.498 107.42 215.498 107.86V112H214.133ZM225.237 112.135C224.857 112.135 224.482 112.1 224.112 112.03C223.752 111.96 223.417 111.86 223.107 111.73C222.807 111.59 222.542 111.425 222.312 111.235L222.717 110.29C222.957 110.47 223.217 110.625 223.497 110.755C223.777 110.875 224.067 110.965 224.367 111.025C224.667 111.085 224.967 111.115 225.267 111.115C225.817 111.115 226.232 111.015 226.512 110.815C226.792 110.615 226.932 110.35 226.932 110.02C226.932 109.74 226.837 109.525 226.647 109.375C226.467 109.215 226.182 109.095 225.792 109.015L224.397 108.73C223.777 108.59 223.307 108.36 222.987 108.04C222.677 107.71 222.522 107.29 222.522 106.78C222.522 106.33 222.642 105.94 222.882 105.61C223.132 105.27 223.477 105.01 223.917 104.83C224.357 104.65 224.862 104.56 225.432 104.56C225.772 104.56 226.102 104.595 226.422 104.665C226.742 104.735 227.042 104.835 227.322 104.965C227.602 105.095 227.837 105.265 228.027 105.475L227.607 106.405C227.417 106.225 227.202 106.075 226.962 105.955C226.722 105.835 226.472 105.745 226.212 105.685C225.952 105.615 225.692 105.58 225.432 105.58C224.892 105.58 224.482 105.685 224.202 105.895C223.932 106.105 223.797 106.38 223.797 106.72C223.797 106.98 223.877 107.195 224.037 107.365C224.207 107.535 224.472 107.66 224.832 107.74L226.227 108.025C226.877 108.165 227.367 108.39 227.697 108.7C228.027 109 228.192 109.41 228.192 109.93C228.192 110.39 228.067 110.785 227.817 111.115C227.577 111.445 227.232 111.7 226.782 111.88C226.342 112.05 225.827 112.135 225.237 112.135ZM232.293 112.135C231.793 112.135 231.338 112.035 230.928 111.835C230.528 111.635 230.213 111.365 229.983 111.025C229.763 110.685 229.653 110.305 229.653 109.885C229.653 109.345 229.788 108.92 230.058 108.61C230.328 108.3 230.783 108.08 231.423 107.95C232.063 107.81 232.923 107.74 234.003 107.74H234.708V108.61H234.033C233.453 108.61 232.968 108.63 232.578 108.67C232.188 108.71 231.878 108.775 231.648 108.865C231.418 108.955 231.253 109.08 231.153 109.24C231.053 109.39 231.003 109.58 231.003 109.81C231.003 110.2 231.138 110.52 231.408 110.77C231.688 111.02 232.068 111.145 232.548 111.145C232.928 111.145 233.263 111.055 233.553 110.875C233.843 110.685 234.073 110.435 234.243 110.125C234.413 109.805 234.498 109.44 234.498 109.03V107.305C234.498 106.715 234.378 106.29 234.138 106.03C233.898 105.76 233.493 105.625 232.923 105.625C232.503 105.625 232.083 105.69 231.663 105.82C231.253 105.95 230.828 106.15 230.388 106.42L229.953 105.445C230.213 105.265 230.508 105.11 230.838 104.98C231.178 104.84 231.528 104.735 231.888 104.665C232.258 104.595 232.613 104.56 232.953 104.56C233.603 104.56 234.138 104.665 234.558 104.875C234.978 105.075 235.293 105.39 235.503 105.82C235.713 106.24 235.818 106.78 235.818 107.44V112H234.528V110.335H234.663C234.583 110.705 234.433 111.025 234.213 111.295C233.993 111.565 233.718 111.775 233.388 111.925C233.068 112.065 232.703 112.135 232.293 112.135ZM241.131 112.135C240.391 112.135 239.751 111.98 239.211 111.67C238.671 111.35 238.256 110.905 237.966 110.335C237.676 109.755 237.531 109.075 237.531 108.295C237.531 107.525 237.676 106.86 237.966 106.3C238.256 105.74 238.671 105.31 239.211 105.01C239.751 104.71 240.391 104.56 241.131 104.56C241.591 104.56 242.041 104.64 242.481 104.8C242.931 104.96 243.301 105.185 243.591 105.475L243.141 106.435C242.851 106.175 242.536 105.98 242.196 105.85C241.856 105.72 241.531 105.655 241.221 105.655C240.491 105.655 239.926 105.885 239.526 106.345C239.126 106.805 238.926 107.46 238.926 108.31C238.926 109.16 239.126 109.83 239.526 110.32C239.926 110.8 240.491 111.04 241.221 111.04C241.531 111.04 241.856 110.975 242.196 110.845C242.536 110.715 242.851 110.515 243.141 110.245L243.591 111.22C243.301 111.51 242.926 111.735 242.466 111.895C242.016 112.055 241.571 112.135 241.131 112.135ZM247.983 112.135C247.093 112.135 246.428 111.905 245.988 111.445C245.548 110.975 245.328 110.305 245.328 109.435V105.745H243.903V104.695H245.328V102.475H246.693V104.695H248.988V105.745H246.693V109.315C246.693 109.865 246.808 110.28 247.038 110.56C247.268 110.84 247.648 110.98 248.178 110.98C248.338 110.98 248.493 110.965 248.643 110.935C248.803 110.895 248.953 110.855 249.093 110.815L249.318 111.835C249.178 111.925 248.978 111.995 248.718 112.045C248.468 112.105 248.223 112.135 247.983 112.135ZM250.194 102.94V101.47H251.829V102.94H250.194ZM250.329 112V104.695H251.694V112H250.329ZM256.994 112.135C256.274 112.135 255.649 111.98 255.119 111.67C254.589 111.36 254.179 110.92 253.889 110.35C253.599 109.78 253.454 109.11 253.454 108.34C253.454 107.57 253.599 106.905 253.889 106.345C254.179 105.775 254.589 105.335 255.119 105.025C255.649 104.715 256.274 104.56 256.994 104.56C257.714 104.56 258.339 104.715 258.869 105.025C259.399 105.335 259.809 105.775 260.099 106.345C260.389 106.905 260.534 107.57 260.534 108.34C260.534 109.11 260.389 109.78 260.099 110.35C259.809 110.92 259.399 111.36 258.869 111.67C258.339 111.98 257.714 112.135 256.994 112.135ZM256.994 111.055C257.654 111.055 258.179 110.825 258.569 110.365C258.959 109.895 259.154 109.22 259.154 108.34C259.154 107.46 258.959 106.79 258.569 106.33C258.179 105.87 257.654 105.64 256.994 105.64C256.344 105.64 255.819 105.87 255.419 106.33C255.029 106.79 254.834 107.46 254.834 108.34C254.834 109.22 255.029 109.895 255.419 110.365C255.819 110.825 256.344 111.055 256.994 111.055ZM262.283 112V104.695H263.618V106.285H263.453C263.663 105.715 264.003 105.285 264.473 104.995C264.953 104.705 265.498 104.56 266.108 104.56C266.698 104.56 267.183 104.665 267.563 104.875C267.943 105.085 268.228 105.41 268.418 105.85C268.608 106.28 268.703 106.82 268.703 107.47V112H267.338V107.545C267.338 107.115 267.283 106.76 267.173 106.48C267.063 106.2 266.888 105.995 266.648 105.865C266.418 105.735 266.123 105.67 265.763 105.67C265.343 105.67 264.973 105.76 264.653 105.94C264.333 106.12 264.083 106.375 263.903 106.705C263.733 107.035 263.648 107.42 263.648 107.86V112H262.283ZM274.763 112V101.425H276.128V106.285H275.933C276.143 105.715 276.483 105.285 276.953 104.995C277.433 104.705 277.978 104.56 278.588 104.56C279.178 104.56 279.663 104.67 280.043 104.89C280.423 105.1 280.708 105.42 280.898 105.85C281.088 106.28 281.183 106.82 281.183 107.47V112H279.818V107.545C279.818 107.115 279.763 106.76 279.653 106.48C279.543 106.2 279.368 105.995 279.128 105.865C278.898 105.735 278.603 105.67 278.243 105.67C277.823 105.67 277.453 105.76 277.133 105.94C276.813 106.12 276.563 106.375 276.383 106.705C276.213 107.035 276.128 107.42 276.128 107.86V112H274.763ZM283.212 102.94V101.47H284.847V102.94H283.212ZM283.347 112V104.695H284.712V112H283.347ZM289.427 112.135C289.047 112.135 288.672 112.1 288.302 112.03C287.942 111.96 287.607 111.86 287.297 111.73C286.997 111.59 286.732 111.425 286.502 111.235L286.907 110.29C287.147 110.47 287.407 110.625 287.687 110.755C287.967 110.875 288.257 110.965 288.557 111.025C288.857 111.085 289.157 111.115 289.457 111.115C290.007 111.115 290.422 111.015 290.702 110.815C290.982 110.615 291.122 110.35 291.122 110.02C291.122 109.74 291.027 109.525 290.837 109.375C290.657 109.215 290.372 109.095 289.982 109.015L288.587 108.73C287.967 108.59 287.497 108.36 287.177 108.04C286.867 107.71 286.712 107.29 286.712 106.78C286.712 106.33 286.832 105.94 287.072 105.61C287.322 105.27 287.667 105.01 288.107 104.83C288.547 104.65 289.052 104.56 289.622 104.56C289.962 104.56 290.292 104.595 290.612 104.665C290.932 104.735 291.232 104.835 291.512 104.965C291.792 105.095 292.027 105.265 292.217 105.475L291.797 106.405C291.607 106.225 291.392 106.075 291.152 105.955C290.912 105.835 290.662 105.745 290.402 105.685C290.142 105.615 289.882 105.58 289.622 105.58C289.082 105.58 288.672 105.685 288.392 105.895C288.122 106.105 287.987 106.38 287.987 106.72C287.987 106.98 288.067 107.195 288.227 107.365C288.397 107.535 288.662 107.66 289.022 107.74L290.417 108.025C291.067 108.165 291.557 108.39 291.887 108.7C292.217 109 292.382 109.41 292.382 109.93C292.382 110.39 292.257 110.785 292.007 111.115C291.767 111.445 291.422 111.7 290.972 111.88C290.532 112.05 290.017 112.135 289.427 112.135ZM297.114 112.135C296.224 112.135 295.559 111.905 295.119 111.445C294.679 110.975 294.459 110.305 294.459 109.435V105.745H293.034V104.695H294.459V102.475H295.824V104.695H298.119V105.745H295.824V109.315C295.824 109.865 295.939 110.28 296.169 110.56C296.399 110.84 296.779 110.98 297.309 110.98C297.469 110.98 297.624 110.965 297.774 110.935C297.934 110.895 298.084 110.855 298.224 110.815L298.449 111.835C298.309 111.925 298.109 111.995 297.849 112.045C297.599 112.105 297.354 112.135 297.114 112.135ZM302.492 112.135C301.772 112.135 301.147 111.98 300.617 111.67C300.087 111.36 299.677 110.92 299.387 110.35C299.097 109.78 298.952 109.11 298.952 108.34C298.952 107.57 299.097 106.905 299.387 106.345C299.677 105.775 300.087 105.335 300.617 105.025C301.147 104.715 301.772 104.56 302.492 104.56C303.212 104.56 303.837 104.715 304.367 105.025C304.897 105.335 305.307 105.775 305.597 106.345C305.887 106.905 306.032 107.57 306.032 108.34C306.032 109.11 305.887 109.78 305.597 110.35C305.307 110.92 304.897 111.36 304.367 111.67C303.837 111.98 303.212 112.135 302.492 112.135ZM302.492 111.055C303.152 111.055 303.677 110.825 304.067 110.365C304.457 109.895 304.652 109.22 304.652 108.34C304.652 107.46 304.457 106.79 304.067 106.33C303.677 105.87 303.152 105.64 302.492 105.64C301.842 105.64 301.317 105.87 300.917 106.33C300.527 106.79 300.332 107.46 300.332 108.34C300.332 109.22 300.527 109.895 300.917 110.365C301.317 110.825 301.842 111.055 302.492 111.055ZM307.781 112V104.695H309.116V106.435H308.966C309.126 105.835 309.416 105.385 309.836 105.085C310.256 104.775 310.811 104.595 311.501 104.545L311.966 104.5L312.071 105.685L311.216 105.76C310.556 105.83 310.046 106.045 309.686 106.405C309.336 106.765 309.161 107.26 309.161 107.89V112H307.781ZM314.523 114.7L315.918 111.565V112.135L312.723 104.695H314.193L316.728 110.935H316.308L318.888 104.695H320.298L315.948 114.7H314.523ZM27.06 132L24.315 124.695H25.725L27.915 130.905H27.555L29.82 124.695H30.915L33.135 130.905H32.79L35.01 124.695H36.345L33.6 132H32.325L29.985 125.61H30.675L28.335 132H27.06ZM37.6163 122.94V121.47H39.2513V122.94H37.6163ZM37.7513 132V124.695H39.1163V132H37.7513ZM43.6358 132.135C42.8558 132.135 42.2708 131.915 41.8808 131.475C41.5008 131.025 41.3108 130.38 41.3108 129.54V121.425H42.6758V129.435C42.6758 129.775 42.7208 130.065 42.8108 130.305C42.9108 130.535 43.0508 130.705 43.2308 130.815C43.4208 130.925 43.6558 130.98 43.9358 130.98C44.0458 130.98 44.1558 130.975 44.2658 130.965C44.3858 130.955 44.4958 130.935 44.5958 130.905L44.5658 132.015C44.4058 132.055 44.2458 132.085 44.0858 132.105C43.9358 132.125 43.7858 132.135 43.6358 132.135ZM48.1475 132.135C47.3675 132.135 46.7825 131.915 46.3925 131.475C46.0125 131.025 45.8225 130.38 45.8225 129.54V121.425H47.1875V129.435C47.1875 129.775 47.2325 130.065 47.3225 130.305C47.4225 130.535 47.5625 130.705 47.7425 130.815C47.9325 130.925 48.1675 130.98 48.4475 130.98C48.5575 130.98 48.6675 130.975 48.7775 130.965C48.8975 130.955 49.0075 130.935 49.1075 130.905L49.0775 132.015C48.9175 132.055 48.7575 132.085 48.5975 132.105C48.4475 132.125 48.2975 132.135 48.1475 132.135ZM58.0557 132.135C57.3957 132.135 56.8307 131.97 56.3607 131.64C55.8907 131.31 55.5757 130.865 55.4157 130.305H55.5657V132H54.2307V121.425H55.5957V126.345H55.4307C55.5907 125.805 55.9057 125.375 56.3757 125.055C56.8457 124.725 57.4057 124.56 58.0557 124.56C58.7057 124.56 59.2707 124.715 59.7507 125.025C60.2407 125.325 60.6157 125.76 60.8757 126.33C61.1457 126.89 61.2807 127.56 61.2807 128.34C61.2807 129.11 61.1457 129.785 60.8757 130.365C60.6057 130.935 60.2307 131.375 59.7507 131.685C59.2707 131.985 58.7057 132.135 58.0557 132.135ZM57.7407 131.055C58.4007 131.055 58.9257 130.825 59.3157 130.365C59.7057 129.895 59.9007 129.22 59.9007 128.34C59.9007 127.46 59.7057 126.79 59.3157 126.33C58.9257 125.87 58.4007 125.64 57.7407 125.64C57.0807 125.64 56.5557 125.87 56.1657 126.33C55.7757 126.79 55.5807 127.46 55.5807 128.34C55.5807 129.22 55.7757 129.895 56.1657 130.365C56.5557 130.825 57.0807 131.055 57.7407 131.055ZM66.4095 132.135C65.6195 132.135 64.9395 131.985 64.3695 131.685C63.8095 131.375 63.3745 130.94 63.0645 130.38C62.7545 129.81 62.5995 129.14 62.5995 128.37C62.5995 127.61 62.7495 126.945 63.0495 126.375C63.3595 125.805 63.7795 125.36 64.3095 125.04C64.8495 124.72 65.4645 124.56 66.1545 124.56C66.8245 124.56 67.3945 124.705 67.8645 124.995C68.3445 125.285 68.7095 125.7 68.9595 126.24C69.2195 126.77 69.3495 127.41 69.3495 128.16V128.655H63.6645V127.785H68.4495L68.1945 127.995C68.1945 127.215 68.0245 126.615 67.6845 126.195C67.3445 125.765 66.8445 125.55 66.1845 125.55C65.7045 125.55 65.2945 125.665 64.9545 125.895C64.6145 126.115 64.3545 126.43 64.1745 126.84C63.9945 127.24 63.9045 127.705 63.9045 128.235V128.325C63.9045 128.925 63.9995 129.43 64.1895 129.84C64.3895 130.24 64.6745 130.545 65.0445 130.755C65.4145 130.955 65.8695 131.055 66.4095 131.055C66.8395 131.055 67.2545 130.99 67.6545 130.86C68.0645 130.72 68.4495 130.505 68.8095 130.215L69.2295 131.16C68.8995 131.46 68.4745 131.7 67.9545 131.88C67.4445 132.05 66.9295 132.135 66.4095 132.135ZM74.9436 134.7V124.695H76.2786V126.375H76.1286C76.2886 125.825 76.6036 125.385 77.0736 125.055C77.5436 124.725 78.1086 124.56 78.7686 124.56C79.4186 124.56 79.9836 124.715 80.4636 125.025C80.9436 125.325 81.3186 125.76 81.5886 126.33C81.8586 126.89 81.9936 127.56 81.9936 128.34C81.9936 129.11 81.8586 129.785 81.5886 130.365C81.3286 130.935 80.9536 131.375 80.4636 131.685C79.9836 131.985 79.4186 132.135 78.7686 132.135C78.1186 132.135 77.5586 131.97 77.0886 131.64C76.6186 131.31 76.3036 130.875 76.1436 130.335H76.3086V134.7H74.9436ZM78.4536 131.055C79.1136 131.055 79.6386 130.825 80.0286 130.365C80.4186 129.895 80.6136 129.22 80.6136 128.34C80.6136 127.46 80.4186 126.79 80.0286 126.33C79.6386 125.87 79.1136 125.64 78.4536 125.64C77.7936 125.64 77.2686 125.87 76.8786 126.33C76.4886 126.79 76.2936 127.46 76.2936 128.34C76.2936 129.22 76.4886 129.895 76.8786 130.365C77.2686 130.825 77.7936 131.055 78.4536 131.055ZM87.1223 132.135C86.3323 132.135 85.6523 131.985 85.0823 131.685C84.5223 131.375 84.0873 130.94 83.7773 130.38C83.4673 129.81 83.3123 129.14 83.3123 128.37C83.3123 127.61 83.4623 126.945 83.7623 126.375C84.0723 125.805 84.4923 125.36 85.0223 125.04C85.5623 124.72 86.1773 124.56 86.8673 124.56C87.5373 124.56 88.1073 124.705 88.5773 124.995C89.0573 125.285 89.4223 125.7 89.6723 126.24C89.9323 126.77 90.0623 127.41 90.0623 128.16V128.655H84.3773V127.785H89.1623L88.9073 127.995C88.9073 127.215 88.7373 126.615 88.3973 126.195C88.0573 125.765 87.5573 125.55 86.8973 125.55C86.4173 125.55 86.0073 125.665 85.6673 125.895C85.3273 126.115 85.0673 126.43 84.8873 126.84C84.7073 127.24 84.6173 127.705 84.6173 128.235V128.325C84.6173 128.925 84.7123 129.43 84.9023 129.84C85.1023 130.24 85.3873 130.545 85.7573 130.755C86.1273 130.955 86.5823 131.055 87.1223 131.055C87.5523 131.055 87.9673 130.99 88.3673 130.86C88.7773 130.72 89.1623 130.505 89.5223 130.215L89.9423 131.16C89.6123 131.46 89.1873 131.7 88.6673 131.88C88.1573 132.05 87.6423 132.135 87.1223 132.135ZM91.76 132V124.695H93.095V126.435H92.945C93.105 125.835 93.395 125.385 93.815 125.085C94.235 124.775 94.79 124.595 95.48 124.545L95.945 124.5L96.05 125.685L95.195 125.76C94.535 125.83 94.025 126.045 93.665 126.405C93.315 126.765 93.14 127.26 93.14 127.89V132H91.76ZM97.2686 132V124.695H98.6036V126.285H98.4386C98.5686 125.915 98.7486 125.605 98.9786 125.355C99.2086 125.095 99.4836 124.9 99.8036 124.77C100.134 124.63 100.494 124.56 100.884 124.56C101.504 124.56 102.004 124.71 102.384 125.01C102.764 125.3 103.019 125.745 103.149 126.345H102.939C103.119 125.795 103.439 125.36 103.899 125.04C104.369 124.72 104.914 124.56 105.534 124.56C106.084 124.56 106.534 124.67 106.884 124.89C107.244 125.1 107.514 125.42 107.694 125.85C107.874 126.27 107.964 126.81 107.964 127.47V132H106.599V127.53C106.599 126.89 106.489 126.42 106.269 126.12C106.049 125.82 105.679 125.67 105.159 125.67C104.779 125.67 104.449 125.76 104.169 125.94C103.889 126.12 103.674 126.375 103.524 126.705C103.374 127.035 103.299 127.43 103.299 127.89V132H101.934V127.53C101.934 126.89 101.824 126.42 101.604 126.12C101.384 125.82 101.014 125.67 100.494 125.67C100.114 125.67 99.7836 125.76 99.5036 125.94C99.2236 126.12 99.0086 126.375 98.8586 126.705C98.7086 127.035 98.6336 127.43 98.6336 127.89V132H97.2686ZM112.483 132.135C111.983 132.135 111.528 132.035 111.118 131.835C110.718 131.635 110.403 131.365 110.173 131.025C109.953 130.685 109.843 130.305 109.843 129.885C109.843 129.345 109.978 128.92 110.248 128.61C110.518 128.3 110.973 128.08 111.613 127.95C112.253 127.81 113.113 127.74 114.193 127.74H114.898V128.61H114.223C113.643 128.61 113.158 128.63 112.768 128.67C112.378 128.71 112.068 128.775 111.838 128.865C111.608 128.955 111.443 129.08 111.343 129.24C111.243 129.39 111.193 129.58 111.193 129.81C111.193 130.2 111.328 130.52 111.598 130.77C111.878 131.02 112.258 131.145 112.738 131.145C113.118 131.145 113.453 131.055 113.743 130.875C114.033 130.685 114.263 130.435 114.433 130.125C114.603 129.805 114.688 129.44 114.688 129.03V127.305C114.688 126.715 114.568 126.29 114.328 126.03C114.088 125.76 113.683 125.625 113.113 125.625C112.693 125.625 112.273 125.69 111.853 125.82C111.443 125.95 111.018 126.15 110.578 126.42L110.143 125.445C110.403 125.265 110.698 125.11 111.028 124.98C111.368 124.84 111.718 124.735 112.078 124.665C112.448 124.595 112.803 124.56 113.143 124.56C113.793 124.56 114.328 124.665 114.748 124.875C115.168 125.075 115.483 125.39 115.693 125.82C115.903 126.24 116.008 126.78 116.008 127.44V132H114.718V130.335H114.853C114.773 130.705 114.623 131.025 114.403 131.295C114.183 131.565 113.908 131.775 113.578 131.925C113.258 132.065 112.893 132.135 112.483 132.135ZM118.157 132V124.695H119.492V126.285H119.327C119.537 125.715 119.877 125.285 120.347 124.995C120.827 124.705 121.372 124.56 121.982 124.56C122.572 124.56 123.057 124.665 123.437 124.875C123.817 125.085 124.102 125.41 124.292 125.85C124.482 126.28 124.577 126.82 124.577 127.47V132H123.212V127.545C123.212 127.115 123.157 126.76 123.047 126.48C122.937 126.2 122.762 125.995 122.522 125.865C122.292 125.735 121.997 125.67 121.637 125.67C121.217 125.67 120.847 125.76 120.527 125.94C120.207 126.12 119.957 126.375 119.777 126.705C119.607 127.035 119.522 127.42 119.522 127.86V132H118.157ZM130.116 132.135C129.326 132.135 128.646 131.985 128.076 131.685C127.516 131.375 127.081 130.94 126.771 130.38C126.461 129.81 126.306 129.14 126.306 128.37C126.306 127.61 126.456 126.945 126.756 126.375C127.066 125.805 127.486 125.36 128.016 125.04C128.556 124.72 129.171 124.56 129.861 124.56C130.531 124.56 131.101 124.705 131.571 124.995C132.051 125.285 132.416 125.7 132.666 126.24C132.926 126.77 133.056 127.41 133.056 128.16V128.655H127.371V127.785H132.156L131.901 127.995C131.901 127.215 131.731 126.615 131.391 126.195C131.051 125.765 130.551 125.55 129.891 125.55C129.411 125.55 129.001 125.665 128.661 125.895C128.321 126.115 128.061 126.43 127.881 126.84C127.701 127.24 127.611 127.705 127.611 128.235V128.325C127.611 128.925 127.706 129.43 127.896 129.84C128.096 130.24 128.381 130.545 128.751 130.755C129.121 130.955 129.576 131.055 130.116 131.055C130.546 131.055 130.961 130.99 131.361 130.86C131.771 130.72 132.156 130.505 132.516 130.215L132.936 131.16C132.606 131.46 132.181 131.7 131.661 131.88C131.151 132.05 130.636 132.135 130.116 132.135ZM134.753 132V124.695H136.088V126.285H135.923C136.133 125.715 136.473 125.285 136.943 124.995C137.423 124.705 137.968 124.56 138.578 124.56C139.168 124.56 139.653 124.665 140.033 124.875C140.413 125.085 140.698 125.41 140.888 125.85C141.078 126.28 141.173 126.82 141.173 127.47V132H139.808V127.545C139.808 127.115 139.753 126.76 139.643 126.48C139.533 126.2 139.358 125.995 139.118 125.865C138.888 125.735 138.593 125.67 138.233 125.67C137.813 125.67 137.443 125.76 137.123 125.94C136.803 126.12 136.553 126.375 136.373 126.705C136.203 127.035 136.118 127.42 136.118 127.86V132H134.753ZM146.367 132.135C145.477 132.135 144.812 131.905 144.372 131.445C143.932 130.975 143.712 130.305 143.712 129.435V125.745H142.287V124.695H143.712V122.475H145.077V124.695H147.372V125.745H145.077V129.315C145.077 129.865 145.192 130.28 145.422 130.56C145.652 130.84 146.032 130.98 146.562 130.98C146.722 130.98 146.877 130.965 147.027 130.935C147.187 130.895 147.337 130.855 147.477 130.815L147.702 131.835C147.562 131.925 147.362 131.995 147.102 132.045C146.852 132.105 146.607 132.135 146.367 132.135ZM151.038 132.135C150.258 132.135 149.673 131.915 149.283 131.475C148.903 131.025 148.713 130.38 148.713 129.54V121.425H150.078V129.435C150.078 129.775 150.123 130.065 150.213 130.305C150.313 130.535 150.453 130.705 150.633 130.815C150.823 130.925 151.058 130.98 151.338 130.98C151.448 130.98 151.558 130.975 151.668 130.965C151.788 130.955 151.898 130.935 151.998 130.905L151.968 132.015C151.808 132.055 151.648 132.085 151.488 132.105C151.338 132.125 151.188 132.135 151.038 132.135ZM153.859 134.7L155.254 131.565V132.135L152.059 124.695H153.529L156.064 130.935H155.644L158.224 124.695H159.634L155.284 134.7H153.859ZM167.485 132.135C166.845 132.135 166.28 131.985 165.79 131.685C165.31 131.375 164.935 130.935 164.665 130.365C164.395 129.785 164.26 129.11 164.26 128.34C164.26 127.56 164.39 126.89 164.65 126.33C164.92 125.76 165.295 125.325 165.775 125.025C166.265 124.715 166.835 124.56 167.485 124.56C168.135 124.56 168.695 124.725 169.165 125.055C169.635 125.375 169.95 125.805 170.11 126.345H169.945V121.425H171.31V132H169.96V130.305H170.11C169.96 130.865 169.645 131.31 169.165 131.64C168.695 131.97 168.135 132.135 167.485 132.135ZM167.8 131.055C168.46 131.055 168.985 130.825 169.375 130.365C169.765 129.895 169.96 129.22 169.96 128.34C169.96 127.46 169.765 126.79 169.375 126.33C168.985 125.87 168.46 125.64 167.8 125.64C167.15 125.64 166.625 125.87 166.225 126.33C165.835 126.79 165.64 127.46 165.64 128.34C165.64 129.22 165.835 129.895 166.225 130.365C166.625 130.825 167.15 131.055 167.8 131.055ZM176.873 132.135C176.083 132.135 175.403 131.985 174.833 131.685C174.273 131.375 173.838 130.94 173.528 130.38C173.218 129.81 173.063 129.14 173.063 128.37C173.063 127.61 173.213 126.945 173.513 126.375C173.823 125.805 174.243 125.36 174.773 125.04C175.313 124.72 175.928 124.56 176.618 124.56C177.288 124.56 177.858 124.705 178.328 124.995C178.808 125.285 179.173 125.7 179.423 126.24C179.683 126.77 179.813 127.41 179.813 128.16V128.655H174.128V127.785H178.913L178.658 127.995C178.658 127.215 178.488 126.615 178.148 126.195C177.808 125.765 177.308 125.55 176.648 125.55C176.168 125.55 175.758 125.665 175.418 125.895C175.078 126.115 174.818 126.43 174.638 126.84C174.458 127.24 174.368 127.705 174.368 128.235V128.325C174.368 128.925 174.463 129.43 174.653 129.84C174.853 130.24 175.138 130.545 175.508 130.755C175.878 130.955 176.333 131.055 176.873 131.055C177.303 131.055 177.718 130.99 178.118 130.86C178.528 130.72 178.913 130.505 179.273 130.215L179.693 131.16C179.363 131.46 178.938 131.7 178.418 131.88C177.908 132.05 177.393 132.135 176.873 132.135ZM183.836 132.135C183.056 132.135 182.471 131.915 182.081 131.475C181.701 131.025 181.511 130.38 181.511 129.54V121.425H182.876V129.435C182.876 129.775 182.921 130.065 183.011 130.305C183.111 130.535 183.251 130.705 183.431 130.815C183.621 130.925 183.856 130.98 184.136 130.98C184.246 130.98 184.356 130.975 184.466 130.965C184.586 130.955 184.696 130.935 184.796 130.905L184.766 132.015C184.606 132.055 184.446 132.085 184.286 132.105C184.136 132.125 183.986 132.135 183.836 132.135ZM189.324 132.135C188.534 132.135 187.854 131.985 187.284 131.685C186.724 131.375 186.289 130.94 185.979 130.38C185.669 129.81 185.514 129.14 185.514 128.37C185.514 127.61 185.664 126.945 185.964 126.375C186.274 125.805 186.694 125.36 187.224 125.04C187.764 124.72 188.379 124.56 189.069 124.56C189.739 124.56 190.309 124.705 190.779 124.995C191.259 125.285 191.624 125.7 191.874 126.24C192.134 126.77 192.264 127.41 192.264 128.16V128.655H186.579V127.785H191.364L191.109 127.995C191.109 127.215 190.939 126.615 190.599 126.195C190.259 125.765 189.759 125.55 189.099 125.55C188.619 125.55 188.209 125.665 187.869 125.895C187.529 126.115 187.269 126.43 187.089 126.84C186.909 127.24 186.819 127.705 186.819 128.235V128.325C186.819 128.925 186.914 129.43 187.104 129.84C187.304 130.24 187.589 130.545 187.959 130.755C188.329 130.955 188.784 131.055 189.324 131.055C189.754 131.055 190.169 130.99 190.569 130.86C190.979 130.72 191.364 130.505 191.724 130.215L192.144 131.16C191.814 131.46 191.389 131.7 190.869 131.88C190.359 132.05 189.844 132.135 189.324 132.135ZM196.978 132.135C196.088 132.135 195.423 131.905 194.983 131.445C194.543 130.975 194.323 130.305 194.323 129.435V125.745H192.898V124.695H194.323V122.475H195.688V124.695H197.983V125.745H195.688V129.315C195.688 129.865 195.803 130.28 196.033 130.56C196.263 130.84 196.643 130.98 197.173 130.98C197.333 130.98 197.488 130.965 197.638 130.935C197.798 130.895 197.948 130.855 198.088 130.815L198.313 131.835C198.173 131.925 197.973 131.995 197.713 132.045C197.463 132.105 197.218 132.135 196.978 132.135ZM202.625 132.135C201.835 132.135 201.155 131.985 200.585 131.685C200.025 131.375 199.59 130.94 199.28 130.38C198.97 129.81 198.815 129.14 198.815 128.37C198.815 127.61 198.965 126.945 199.265 126.375C199.575 125.805 199.995 125.36 200.525 125.04C201.065 124.72 201.68 124.56 202.37 124.56C203.04 124.56 203.61 124.705 204.08 124.995C204.56 125.285 204.925 125.7 205.175 126.24C205.435 126.77 205.565 127.41 205.565 128.16V128.655H199.88V127.785H204.665L204.41 127.995C204.41 127.215 204.24 126.615 203.9 126.195C203.56 125.765 203.06 125.55 202.4 125.55C201.92 125.55 201.51 125.665 201.17 125.895C200.83 126.115 200.57 126.43 200.39 126.84C200.21 127.24 200.12 127.705 200.12 128.235V128.325C200.12 128.925 200.215 129.43 200.405 129.84C200.605 130.24 200.89 130.545 201.26 130.755C201.63 130.955 202.085 131.055 202.625 131.055C203.055 131.055 203.47 130.99 203.87 130.86C204.28 130.72 204.665 130.505 205.025 130.215L205.445 131.16C205.115 131.46 204.69 131.7 204.17 131.88C203.66 132.05 203.145 132.135 202.625 132.135ZM210.053 132.135C209.413 132.135 208.848 131.985 208.358 131.685C207.878 131.375 207.503 130.935 207.233 130.365C206.963 129.785 206.828 129.11 206.828 128.34C206.828 127.56 206.958 126.89 207.218 126.33C207.488 125.76 207.863 125.325 208.343 125.025C208.833 124.715 209.403 124.56 210.053 124.56C210.703 124.56 211.263 124.725 211.733 125.055C212.203 125.375 212.518 125.805 212.678 126.345H212.513V121.425H213.878V132H212.528V130.305H212.678C212.528 130.865 212.213 131.31 211.733 131.64C211.263 131.97 210.703 132.135 210.053 132.135ZM210.368 131.055C211.028 131.055 211.553 130.825 211.943 130.365C212.333 129.895 212.528 129.22 212.528 128.34C212.528 127.46 212.333 126.79 211.943 126.33C211.553 125.87 211.028 125.64 210.368 125.64C209.718 125.64 209.193 125.87 208.793 126.33C208.403 126.79 208.208 127.46 208.208 128.34C208.208 129.22 208.403 129.895 208.793 130.365C209.193 130.825 209.718 131.055 210.368 131.055ZM215.887 132V130.335H217.552V132H215.887Z" fill="#808283"/>
<rect x="145.5" y="210.5" width="179" height="39" rx="7.5" stroke="#EF454A"/>
<path d="M180.41 235V224.425H184.34C185.52 224.425 186.52 224.63 187.34 225.04C188.17 225.45 188.8 226.05 189.23 226.84C189.67 227.62 189.89 228.575 189.89 229.705C189.89 230.835 189.67 231.795 189.23 232.585C188.8 233.375 188.17 233.975 187.34 234.385C186.52 234.795 185.52 235 184.34 235H180.41ZM182.33 233.41H184.22C185.45 233.41 186.365 233.105 186.965 232.495C187.575 231.875 187.88 230.945 187.88 229.705C187.88 228.465 187.575 227.54 186.965 226.93C186.355 226.32 185.44 226.015 184.22 226.015H182.33V233.41ZM195.271 235.15C194.441 235.15 193.726 234.995 193.126 234.685C192.526 234.375 192.061 233.935 191.731 233.365C191.411 232.795 191.251 232.12 191.251 231.34C191.251 230.58 191.406 229.915 191.716 229.345C192.036 228.775 192.471 228.33 193.021 228.01C193.581 227.68 194.216 227.515 194.926 227.515C195.626 227.515 196.226 227.665 196.726 227.965C197.226 228.265 197.611 228.69 197.881 229.24C198.161 229.79 198.301 230.445 198.301 231.205V231.76H192.766V230.68H196.981L196.741 230.905C196.741 230.225 196.591 229.705 196.291 229.345C195.991 228.975 195.561 228.79 195.001 228.79C194.581 228.79 194.221 228.89 193.921 229.09C193.631 229.28 193.406 229.555 193.246 229.915C193.096 230.265 193.021 230.685 193.021 231.175V231.28C193.021 231.83 193.106 232.285 193.276 232.645C193.446 233.005 193.701 233.275 194.041 233.455C194.381 233.635 194.801 233.725 195.301 233.725C195.711 233.725 196.121 233.665 196.531 233.545C196.941 233.415 197.316 233.215 197.656 232.945L198.181 234.205C197.831 234.495 197.391 234.725 196.861 234.895C196.331 235.065 195.801 235.15 195.271 235.15ZM202.336 235.15C201.466 235.15 200.821 234.915 200.401 234.445C199.991 233.965 199.786 233.265 199.786 232.345V224.425H201.661V232.255C201.661 232.545 201.701 232.795 201.781 233.005C201.871 233.205 202.001 233.355 202.171 233.455C202.341 233.555 202.551 233.605 202.801 233.605C202.911 233.605 203.021 233.6 203.131 233.59C203.241 233.58 203.346 233.56 203.446 233.53L203.416 235.015C203.236 235.055 203.056 235.085 202.876 235.105C202.706 235.135 202.526 235.15 202.336 235.15ZM208.118 235.15C207.288 235.15 206.573 234.995 205.973 234.685C205.373 234.375 204.908 233.935 204.578 233.365C204.258 232.795 204.098 232.12 204.098 231.34C204.098 230.58 204.253 229.915 204.563 229.345C204.883 228.775 205.318 228.33 205.868 228.01C206.428 227.68 207.063 227.515 207.773 227.515C208.473 227.515 209.073 227.665 209.573 227.965C210.073 228.265 210.458 228.69 210.728 229.24C211.008 229.79 211.148 230.445 211.148 231.205V231.76H205.613V230.68H209.828L209.588 230.905C209.588 230.225 209.438 229.705 209.138 229.345C208.838 228.975 208.408 228.79 207.848 228.79C207.428 228.79 207.068 228.89 206.768 229.09C206.478 229.28 206.253 229.555 206.093 229.915C205.943 230.265 205.868 230.685 205.868 231.175V231.28C205.868 231.83 205.953 232.285 206.123 232.645C206.293 233.005 206.548 233.275 206.888 233.455C207.228 233.635 207.648 233.725 208.148 233.725C208.558 233.725 208.968 233.665 209.378 233.545C209.788 233.415 210.163 233.215 210.503 232.945L211.028 234.205C210.678 234.495 210.238 234.725 209.708 234.895C209.178 235.065 208.648 235.15 208.118 235.15ZM215.963 235.15C214.983 235.15 214.253 234.905 213.773 234.415C213.293 233.925 213.053 233.21 213.053 232.27V229.075H211.643V227.665H213.053V225.475H214.928V227.665H217.148V229.075H214.928V232.165C214.928 232.645 215.033 233.005 215.243 233.245C215.453 233.485 215.793 233.605 216.263 233.605C216.403 233.605 216.548 233.59 216.698 233.56C216.848 233.52 217.003 233.48 217.163 233.44L217.448 234.82C217.268 234.92 217.038 235 216.758 235.06C216.488 235.12 216.223 235.15 215.963 235.15ZM221.902 235.15C221.072 235.15 220.357 234.995 219.757 234.685C219.157 234.375 218.692 233.935 218.362 233.365C218.042 232.795 217.882 232.12 217.882 231.34C217.882 230.58 218.037 229.915 218.347 229.345C218.667 228.775 219.102 228.33 219.652 228.01C220.212 227.68 220.847 227.515 221.557 227.515C222.257 227.515 222.857 227.665 223.357 227.965C223.857 228.265 224.242 228.69 224.512 229.24C224.792 229.79 224.932 230.445 224.932 231.205V231.76H219.397V230.68H223.612L223.372 230.905C223.372 230.225 223.222 229.705 222.922 229.345C222.622 228.975 222.192 228.79 221.632 228.79C221.212 228.79 220.852 228.89 220.552 229.09C220.262 229.28 220.037 229.555 219.877 229.915C219.727 230.265 219.652 230.685 219.652 231.175V231.28C219.652 231.83 219.737 232.285 219.907 232.645C220.077 233.005 220.332 233.275 220.672 233.455C221.012 233.635 221.432 233.725 221.932 233.725C222.342 233.725 222.752 233.665 223.162 233.545C223.572 233.415 223.947 233.215 224.287 232.945L224.812 234.205C224.462 234.495 224.022 234.725 223.492 234.895C222.962 235.065 222.432 235.15 221.902 235.15ZM230.64 235V224.425H235.23C236.01 224.425 236.67 224.555 237.21 224.815C237.75 225.075 238.16 225.45 238.44 225.94C238.72 226.43 238.86 227.025 238.86 227.725C238.86 228.415 238.72 229.01 238.44 229.51C238.16 230 237.75 230.38 237.21 230.65C236.67 230.91 236.01 231.04 235.23 231.04H232.56V235H230.64ZM232.56 229.525H234.93C235.61 229.525 236.125 229.375 236.475 229.075C236.825 228.765 237 228.315 237 227.725C237 227.135 236.825 226.69 236.475 226.39C236.125 226.09 235.61 225.94 234.93 225.94H232.56V229.525ZM243.224 235.15C242.464 235.15 241.804 234.995 241.244 234.685C240.684 234.375 240.249 233.935 239.939 233.365C239.629 232.785 239.474 232.105 239.474 231.325C239.474 230.545 239.629 229.87 239.939 229.3C240.249 228.73 240.684 228.29 241.244 227.98C241.804 227.67 242.464 227.515 243.224 227.515C243.984 227.515 244.644 227.67 245.204 227.98C245.764 228.29 246.199 228.73 246.509 229.3C246.819 229.87 246.974 230.545 246.974 231.325C246.974 232.105 246.819 232.785 246.509 233.365C246.199 233.935 245.764 234.375 245.204 234.685C244.644 234.995 243.984 235.15 243.224 235.15ZM243.224 233.725C243.784 233.725 244.234 233.525 244.574 233.125C244.914 232.715 245.084 232.115 245.084 231.325C245.084 230.525 244.914 229.93 244.574 229.54C244.234 229.14 243.784 228.94 243.224 228.94C242.664 228.94 242.214 229.14 241.874 229.54C241.534 229.93 241.364 230.525 241.364 231.325C241.364 232.115 241.534 232.715 241.874 233.125C242.214 233.525 242.664 233.725 243.224 233.725ZM248.521 235V227.665H250.351V229.435H250.201C250.341 228.835 250.616 228.38 251.026 228.07C251.436 227.75 251.981 227.565 252.661 227.515L253.231 227.47L253.351 229.06L252.271 229.165C251.661 229.225 251.201 229.415 250.891 229.735C250.581 230.045 250.426 230.485 250.426 231.055V235H248.521ZM258.18 235.15C257.2 235.15 256.47 234.905 255.99 234.415C255.51 233.925 255.27 233.21 255.27 232.27V229.075H253.86V227.665H255.27V225.475H257.145V227.665H259.365V229.075H257.145V232.165C257.145 232.645 257.25 233.005 257.46 233.245C257.67 233.485 258.01 233.605 258.48 233.605C258.62 233.605 258.765 233.59 258.915 233.56C259.065 233.52 259.22 233.48 259.38 233.44L259.665 234.82C259.485 234.92 259.255 235 258.975 235.06C258.705 235.12 258.44 235.15 258.18 235.15ZM261.043 235V229.075H259.633V227.665H261.583L261.043 228.16V227.65C261.043 226.61 261.313 225.825 261.853 225.295C262.403 224.765 263.253 224.465 264.403 224.395L265.138 224.35L265.258 225.73L264.568 225.775C264.168 225.795 263.848 225.87 263.608 226C263.368 226.12 263.193 226.29 263.083 226.51C262.973 226.73 262.918 227.01 262.918 227.35V227.905L262.678 227.665H264.913V229.075H262.918V235H261.043ZM269.166 235.15C268.406 235.15 267.746 234.995 267.186 234.685C266.626 234.375 266.191 233.935 265.881 233.365C265.571 232.785 265.416 232.105 265.416 231.325C265.416 230.545 265.571 229.87 265.881 229.3C266.191 228.73 266.626 228.29 267.186 227.98C267.746 227.67 268.406 227.515 269.166 227.515C269.926 227.515 270.586 227.67 271.146 227.98C271.706 228.29 272.141 228.73 272.451 229.3C272.761 229.87 272.916 230.545 272.916 231.325C272.916 232.105 272.761 232.785 272.451 233.365C272.141 233.935 271.706 234.375 271.146 234.685C270.586 234.995 269.926 235.15 269.166 235.15ZM269.166 233.725C269.726 233.725 270.176 233.525 270.516 233.125C270.856 232.715 271.026 232.115 271.026 231.325C271.026 230.525 270.856 229.93 270.516 229.54C270.176 229.14 269.726 228.94 269.166 228.94C268.606 228.94 268.156 229.14 267.816 229.54C267.476 229.93 267.306 230.525 267.306 231.325C267.306 232.115 267.476 232.715 267.816 233.125C268.156 233.525 268.606 233.725 269.166 233.725ZM277.014 235.15C276.144 235.15 275.499 234.915 275.079 234.445C274.669 233.965 274.464 233.265 274.464 232.345V224.425H276.339V232.255C276.339 232.545 276.379 232.795 276.459 233.005C276.549 233.205 276.679 233.355 276.849 233.455C277.019 233.555 277.229 233.605 277.479 233.605C277.589 233.605 277.699 233.6 277.809 233.59C277.919 233.58 278.024 233.56 278.124 233.53L278.094 235.015C277.914 235.055 277.734 235.085 277.554 235.105C277.384 235.135 277.204 235.15 277.014 235.15ZM279.134 226.09V224.26H281.234V226.09H279.134ZM279.254 235V227.665H281.129V235H279.254ZM286.422 235.15C285.662 235.15 285.002 234.995 284.442 234.685C283.882 234.375 283.447 233.935 283.137 233.365C282.827 232.785 282.672 232.105 282.672 231.325C282.672 230.545 282.827 229.87 283.137 229.3C283.447 228.73 283.882 228.29 284.442 227.98C285.002 227.67 285.662 227.515 286.422 227.515C287.182 227.515 287.842 227.67 288.402 227.98C288.962 228.29 289.397 228.73 289.707 229.3C290.017 229.87 290.172 230.545 290.172 231.325C290.172 232.105 290.017 232.785 289.707 233.365C289.397 233.935 288.962 234.375 288.402 234.685C287.842 234.995 287.182 235.15 286.422 235.15ZM286.422 233.725C286.982 233.725 287.432 233.525 287.772 233.125C288.112 232.715 288.282 232.115 288.282 231.325C288.282 230.525 288.112 229.93 287.772 229.54C287.432 229.14 286.982 228.94 286.422 228.94C285.862 228.94 285.412 229.14 285.072 229.54C284.732 229.93 284.562 230.525 284.562 231.325C284.562 232.115 284.732 232.715 285.072 233.125C285.412 233.525 285.862 233.725 286.422 233.725Z" fill="#EF454A"/>
<rect y="185" width="470" height="1" fill="#23252D"/>
</svg>
