<svg width="24" height="24" viewBox="0 0 24 24" fill="none" xmlns="http://www.w3.org/2000/svg">
<g clip-path="url(#clip0_1352_7585)">
<path d="M0 0H24V24H0V0Z" fill="#E7B426"/>
<path d="M17.7 4.75H6.3C5.44396 4.75 4.75 5.44396 4.75 6.3V17.7C4.75 18.556 5.44396 19.25 6.3 19.25H17.7C18.556 19.25 19.25 18.556 19.25 17.7V6.3C19.25 5.44396 18.556 4.75 17.7 4.75Z" fill="white"/>
<path d="M14.7 9.30081L11 13.0008C10.9561 13.0441 10.9031 13.0771 10.8449 13.0974C10.7866 13.1177 10.7246 13.1247 10.6633 13.118C10.602 13.1113 10.543 13.091 10.4905 13.0586C10.438 13.0263 10.3934 12.9826 10.36 12.9308L8.53496 10.1308C8.48812 10.0529 8.46814 9.96185 8.47807 9.87153C8.48801 9.78121 8.52732 9.69664 8.58996 9.63081L11.325 6.89581C11.3909 6.83319 11.4759 6.79429 11.5664 6.78524C11.6569 6.77619 11.7479 6.7975 11.825 6.84581L14.63 8.67081C14.6801 8.70444 14.7222 8.74859 14.7535 8.80019C14.7848 8.85179 14.8045 8.90959 14.8112 8.96957C14.8178 9.02955 14.8113 9.09025 14.7921 9.14746C14.7729 9.20467 14.7415 9.25701 14.7 9.30081Z" fill="#E7B426"/>
<path d="M13.2599 16.6148L12.3049 11.2598C12.293 11.1984 12.295 11.1351 12.3107 11.0745C12.3263 11.0139 12.3554 10.9576 12.3956 10.9096C12.4359 10.8617 12.4864 10.8234 12.5433 10.7975C12.6003 10.7715 12.6624 10.7587 12.7249 10.7598L16.0699 10.8898C16.1666 10.896 16.2585 10.9343 16.3309 10.9986C16.4034 11.0629 16.4523 11.1496 16.4699 11.2448L17.1699 15.1948C17.1874 15.2906 17.1723 15.3894 17.1269 15.4755C17.0816 15.5616 17.0087 15.63 16.9199 15.6698L13.8249 16.9448C13.7664 16.9682 13.7032 16.9779 13.6403 16.9732C13.5774 16.9685 13.5164 16.9495 13.4619 16.9177C13.4074 16.8859 13.3609 16.8421 13.3259 16.7896C13.2909 16.7371 13.2684 16.6774 13.2599 16.6148Z" fill="#E7B426"/>
<path d="M7.73001 11.7243L12.88 13.4993C12.9401 13.518 12.9953 13.5499 13.0414 13.5927C13.0875 13.6355 13.1234 13.6881 13.1465 13.7467C13.1695 13.8053 13.1791 13.8682 13.1745 13.931C13.1699 13.9938 13.1513 14.0547 13.12 14.1093L11.385 16.9743C11.3338 17.0558 11.2564 17.1175 11.1656 17.1492C11.0748 17.181 10.9759 17.1811 10.885 17.1493L7.09001 15.8543C6.9978 15.8249 6.91858 15.7646 6.86573 15.6835C6.81289 15.6024 6.78967 15.5055 6.80001 15.4093L7.18001 12.0793C7.18562 12.0164 7.20549 11.9557 7.23812 11.9016C7.27075 11.8476 7.31528 11.8017 7.36831 11.7675C7.42135 11.7333 7.48149 11.7116 7.54417 11.7041C7.60685 11.6966 7.67041 11.7035 7.73001 11.7243Z" fill="#E7B426"/>
</g>
<defs>
<clipPath id="clip0_1352_7585">
<rect width="24" height="24" rx="12" fill="white"/>
</clipPath>
</defs>
</svg>
