<svg width="192" height="18" viewBox="0 0 192 18" fill="none" xmlns="http://www.w3.org/2000/svg">
<circle opacity="0.24" cx="5" cy="5" r="5" transform="matrix(-1 0 0 1 178 0)" fill="#EF454A"/>
<circle opacity="0.48" cx="5" cy="5" r="5" transform="matrix(-1 0 0 1 164 0)" fill="#EF454A"/>
<circle opacity="0.64" cx="5" cy="5" r="5" transform="matrix(-1 0 0 1 150 0)" fill="#EF454A"/>
<circle opacity="0.8" cx="5" cy="5" r="5" transform="matrix(-1 0 0 1 136 0)" fill="#EF454A"/>
<g filter="url(#filter0_d_2191_2093)">
<circle cx="5" cy="5" r="5" transform="matrix(-1 0 0 1 122 0)" fill="#EF454A"/>
</g>
<g filter="url(#filter1_d_2191_2093)">
<circle cx="5" cy="5" r="5" transform="matrix(-1 0 0 1 108 0)" fill="#2EBD85"/>
</g>
<circle opacity="0.16" cx="5" cy="5" r="5" transform="matrix(-1 0 0 1 192 0)" fill="#EF454A"/>
<circle opacity="0.16" cx="5" cy="5" r="5" transform="matrix(-1 0 0 1 10 0)" fill="#2EBD85"/>
<g filter="url(#filter2_d_2191_2093)">
<circle cx="5" cy="5" r="5" transform="matrix(-1 0 0 1 94 0)" fill="#2EBD85"/>
</g>
<g filter="url(#filter3_d_2191_2093)">
<circle cx="5" cy="5" r="5" transform="matrix(-1 0 0 1 80 0)" fill="#2EBD85"/>
</g>
<circle opacity="0.8" cx="5" cy="5" r="5" transform="matrix(-1 0 0 1 66 0)" fill="#2EBD85"/>
<circle opacity="0.64" cx="5" cy="5" r="5" transform="matrix(-1 0 0 1 52 0)" fill="#2EBD85"/>
<circle opacity="0.48" cx="5" cy="5" r="5" transform="matrix(-1 0 0 1 38 0)" fill="#2EBD85"/>
<circle opacity="0.24" cx="5" cy="5" r="5" transform="matrix(-1 0 0 1 24 0)" fill="#2EBD85"/>
<defs>
<filter id="filter0_d_2191_2093" x="108" y="0" width="18" height="18" filterUnits="userSpaceOnUse" color-interpolation-filters="sRGB">
<feFlood flood-opacity="0" result="BackgroundImageFix"/>
<feColorMatrix in="SourceAlpha" type="matrix" values="0 0 0 0 0 0 0 0 0 0 0 0 0 0 0 0 0 0 127 0" result="hardAlpha"/>
<feOffset dy="4"/>
<feGaussianBlur stdDeviation="2"/>
<feComposite in2="hardAlpha" operator="out"/>
<feColorMatrix type="matrix" values="0 0 0 0 0.937255 0 0 0 0 0.270588 0 0 0 0 0.290196 0 0 0 0.25 0"/>
<feBlend mode="normal" in2="BackgroundImageFix" result="effect1_dropShadow_2191_2093"/>
<feBlend mode="normal" in="SourceGraphic" in2="effect1_dropShadow_2191_2093" result="shape"/>
</filter>
<filter id="filter1_d_2191_2093" x="94" y="0" width="18" height="18" filterUnits="userSpaceOnUse" color-interpolation-filters="sRGB">
<feFlood flood-opacity="0" result="BackgroundImageFix"/>
<feColorMatrix in="SourceAlpha" type="matrix" values="0 0 0 0 0 0 0 0 0 0 0 0 0 0 0 0 0 0 127 0" result="hardAlpha"/>
<feOffset dy="4"/>
<feGaussianBlur stdDeviation="2"/>
<feComposite in2="hardAlpha" operator="out"/>
<feColorMatrix type="matrix" values="0 0 0 0 0.180392 0 0 0 0 0.741176 0 0 0 0 0.521569 0 0 0 0.25 0"/>
<feBlend mode="normal" in2="BackgroundImageFix" result="effect1_dropShadow_2191_2093"/>
<feBlend mode="normal" in="SourceGraphic" in2="effect1_dropShadow_2191_2093" result="shape"/>
</filter>
<filter id="filter2_d_2191_2093" x="80" y="0" width="18" height="18" filterUnits="userSpaceOnUse" color-interpolation-filters="sRGB">
<feFlood flood-opacity="0" result="BackgroundImageFix"/>
<feColorMatrix in="SourceAlpha" type="matrix" values="0 0 0 0 0 0 0 0 0 0 0 0 0 0 0 0 0 0 127 0" result="hardAlpha"/>
<feOffset dy="4"/>
<feGaussianBlur stdDeviation="2"/>
<feComposite in2="hardAlpha" operator="out"/>
<feColorMatrix type="matrix" values="0 0 0 0 0.180392 0 0 0 0 0.741176 0 0 0 0 0.521569 0 0 0 0.25 0"/>
<feBlend mode="normal" in2="BackgroundImageFix" result="effect1_dropShadow_2191_2093"/>
<feBlend mode="normal" in="SourceGraphic" in2="effect1_dropShadow_2191_2093" result="shape"/>
</filter>
<filter id="filter3_d_2191_2093" x="66" y="0" width="18" height="18" filterUnits="userSpaceOnUse" color-interpolation-filters="sRGB">
<feFlood flood-opacity="0" result="BackgroundImageFix"/>
<feColorMatrix in="SourceAlpha" type="matrix" values="0 0 0 0 0 0 0 0 0 0 0 0 0 0 0 0 0 0 127 0" result="hardAlpha"/>
<feOffset dy="4"/>
<feGaussianBlur stdDeviation="2"/>
<feComposite in2="hardAlpha" operator="out"/>
<feColorMatrix type="matrix" values="0 0 0 0 0.180392 0 0 0 0 0.741176 0 0 0 0 0.521569 0 0 0 0.25 0"/>
<feBlend mode="normal" in2="BackgroundImageFix" result="effect1_dropShadow_2191_2093"/>
<feBlend mode="normal" in="SourceGraphic" in2="effect1_dropShadow_2191_2093" result="shape"/>
</filter>
</defs>
</svg>
