<svg width="14" height="14" viewBox="0 0 14 14" fill="none" xmlns="http://www.w3.org/2000/svg">
<mask id="path-1-inside-1_1004_826" fill="white">
<path d="M5.10759 1.17467C4.95829 0.715069 4.46146 0.45863 4.02405 0.66407C2.7082 1.28209 1.61018 2.29835 0.892717 3.57931C0.0319535 5.11612 -0.217786 6.92095 0.19332 8.63374C0.604427 10.3465 1.64615 11.8414 3.11069 12.8201C4.57522 13.7988 6.35489 14.1893 8.09466 13.9139C9.83443 13.6384 11.4064 12.7172 12.497 11.334C13.5876 9.95073 14.1166 8.20719 13.9785 6.45117C13.8403 4.69515 13.0453 3.05574 11.7519 1.86C10.6738 0.863327 9.31556 0.235965 7.87315 0.0546499C7.39368 -0.00562179 7.00036 0.391751 7.00034 0.875C7.00031 1.35825 7.39472 1.74258 7.87127 1.82278C8.87214 1.99122 9.80949 2.44754 10.5639 3.145C11.534 4.04181 12.1303 5.27136 12.2338 6.58838C12.3374 7.90539 11.9407 9.21305 11.1227 10.2505C10.3048 11.2879 9.12582 11.9788 7.82099 12.1854C6.51617 12.392 5.18141 12.0991 4.08302 11.3651C2.98462 10.631 2.20332 9.5099 1.89499 8.22531C1.58666 6.94071 1.77397 5.58709 2.41954 4.43449C2.92161 3.53809 3.67215 2.81453 4.57204 2.34514C5.00051 2.12166 5.2569 1.63428 5.10759 1.17467Z"/>
</mask>
<path d="M5.10759 1.17467C4.95829 0.715069 4.46146 0.45863 4.02405 0.66407C2.7082 1.28209 1.61018 2.29835 0.892717 3.57931C0.0319535 5.11612 -0.217786 6.92095 0.19332 8.63374C0.604427 10.3465 1.64615 11.8414 3.11069 12.8201C4.57522 13.7988 6.35489 14.1893 8.09466 13.9139C9.83443 13.6384 11.4064 12.7172 12.497 11.334C13.5876 9.95073 14.1166 8.20719 13.9785 6.45117C13.8403 4.69515 13.0453 3.05574 11.7519 1.86C10.6738 0.863327 9.31556 0.235965 7.87315 0.0546499C7.39368 -0.00562179 7.00036 0.391751 7.00034 0.875C7.00031 1.35825 7.39472 1.74258 7.87127 1.82278C8.87214 1.99122 9.80949 2.44754 10.5639 3.145C11.534 4.04181 12.1303 5.27136 12.2338 6.58838C12.3374 7.90539 11.9407 9.21305 11.1227 10.2505C10.3048 11.2879 9.12582 11.9788 7.82099 12.1854C6.51617 12.392 5.18141 12.0991 4.08302 11.3651C2.98462 10.631 2.20332 9.5099 1.89499 8.22531C1.58666 6.94071 1.77397 5.58709 2.41954 4.43449C2.92161 3.53809 3.67215 2.81453 4.57204 2.34514C5.00051 2.12166 5.2569 1.63428 5.10759 1.17467Z" stroke="#A06AFF" stroke-width="3" mask="url(#path-1-inside-1_1004_826)"/>
</svg>
