<svg width="823" height="444" viewBox="0 0 823 444" fill="none" xmlns="http://www.w3.org/2000/svg">
<rect x="8" width="749" height="2" fill="white" fill-opacity="0.16"/>
<rect x="8" y="64" width="749" height="2" fill="white" fill-opacity="0.04"/>
<rect x="8" y="134" width="749" height="2" fill="white" fill-opacity="0.04"/>
<rect x="8" y="204" width="747" height="2" fill="white" fill-opacity="0.04"/>
<rect x="8" y="274" width="749" height="2" fill="white" fill-opacity="0.04"/>
<rect x="8" y="344" width="749" height="2" fill="white" fill-opacity="0.04"/>
<rect x="8" y="414" width="749" height="2" fill="white" fill-opacity="0.16"/>
<g opacity="0.24" filter="url(#filter0_i_1117_69)">
<path d="M8 386H44.0964V398H81.1954V371H117.229V385H153.388V381H187.479V377H226.584V386H262.68V389H298.776V386H327.854V375H359.94V402H390.02V390H418.095V382H449.178V373H481.264V369H511.344V378H542.427V370H571.505V377H602.588V369H633.671V364H663.751V366H695.837V360H724.914V369H757V414H8V386Z" fill="#2EBD85"/>
</g>
<g filter="url(#filter1_d_1117_69)">
<path d="M571.5 377H602.584V414H571.5V377Z" fill="#2EBD85"/>
</g>
<path opacity="0.48" d="M37.0593 440V431.54H38.3433L41.5353 437.432H41.1513L44.3313 431.54H45.5913V440H44.1993V433.82H44.4633L41.7753 438.716H40.8753L38.1633 433.808H38.4513V440H37.0593ZM46.5413 440L50.3693 431.54H51.6293L55.4573 440H53.8973L52.8773 437.624L53.5253 438.044H48.4613L49.1093 437.624L48.1013 440H46.5413ZM50.9813 433.208L49.3013 437.204L48.9893 436.82H52.9973L52.6973 437.204L51.0053 433.208H50.9813ZM56.383 440V431.54H60.055C60.679 431.54 61.207 431.644 61.639 431.852C62.071 432.06 62.399 432.36 62.623 432.752C62.847 433.144 62.959 433.62 62.959 434.18C62.959 434.732 62.847 435.208 62.623 435.608C62.399 436 62.071 436.304 61.639 436.52C61.207 436.728 60.679 436.832 60.055 436.832H57.919V440H56.383ZM57.919 435.62H59.815C60.359 435.62 60.771 435.5 61.051 435.26C61.331 435.012 61.471 434.652 61.471 434.18C61.471 433.708 61.331 433.352 61.051 433.112C60.771 432.872 60.359 432.752 59.815 432.752H57.919V435.62ZM67.1695 434.708V433.616C67.1695 433.344 67.1975 433.088 67.2535 432.848C67.3175 432.608 67.4175 432.372 67.5535 432.14C67.6975 431.908 67.8855 431.676 68.1175 431.444L68.7415 431.936C68.5735 432.112 68.4375 432.28 68.3335 432.44C68.2295 432.592 68.1535 432.748 68.1055 432.908C68.0655 433.06 68.0455 433.22 68.0455 433.388L67.6735 433.04H68.8495V434.708H67.1695ZM70.458 440V438.86L73.194 435.944C73.442 435.68 73.638 435.436 73.782 435.212C73.934 434.988 74.046 434.772 74.118 434.564C74.19 434.356 74.226 434.148 74.226 433.94C74.226 433.54 74.098 433.236 73.842 433.028C73.594 432.82 73.23 432.716 72.75 432.716C72.374 432.716 72.006 432.788 71.646 432.932C71.294 433.068 70.954 433.284 70.626 433.58L70.11 432.428C70.446 432.124 70.866 431.88 71.37 431.696C71.874 431.512 72.398 431.42 72.942 431.42C73.55 431.42 74.062 431.512 74.478 431.696C74.894 431.88 75.21 432.148 75.426 432.5C75.642 432.852 75.75 433.28 75.75 433.784C75.75 434.04 75.718 434.292 75.654 434.54C75.598 434.78 75.506 435.02 75.378 435.26C75.258 435.5 75.102 435.748 74.91 436.004C74.726 436.252 74.502 436.512 74.238 436.784L71.982 439.136V438.728H76.074V440H70.458ZM80.8814 440V438.392H77.1974V437.264L81.1454 431.54H82.4174V437.12H83.6054V438.392H82.4174V440H80.8814ZM80.8814 437.12V433.376H81.2294L78.3974 437.528V437.12H80.8814Z" fill="white"/>
<path opacity="0.48" d="M169.985 440V431.54H171.269L174.461 437.432H174.077L177.257 431.54H178.517V440H177.125V433.82H177.389L174.701 438.716H173.801L171.089 433.808H171.377V440H169.985ZM179.467 440L183.295 431.54H184.555L188.383 440H186.823L185.803 437.624L186.451 438.044H181.387L182.035 437.624L181.027 440H179.467ZM183.907 433.208L182.227 437.204L181.915 436.82H185.923L185.623 437.204L183.931 433.208H183.907ZM189.309 440V431.54H190.737V437.852H190.461L195.285 431.54H196.437V440H195.009V433.676H195.273L190.449 440H189.309ZM192.861 430.88C192.437 430.88 192.061 430.812 191.733 430.676C191.413 430.532 191.145 430.336 190.929 430.088C190.721 429.832 190.573 429.536 190.485 429.2L191.253 428.936C191.413 429.328 191.621 429.612 191.877 429.788C192.133 429.956 192.465 430.04 192.873 430.04C193.289 430.04 193.621 429.952 193.869 429.776C194.125 429.6 194.341 429.324 194.517 428.948L195.261 429.2C195.077 429.752 194.773 430.172 194.349 430.46C193.933 430.74 193.437 430.88 192.861 430.88ZM201.244 434.708V433.616C201.244 433.344 201.272 433.088 201.328 432.848C201.392 432.608 201.492 432.372 201.628 432.14C201.772 431.908 201.96 431.676 202.192 431.444L202.816 431.936C202.648 432.112 202.512 432.28 202.408 432.44C202.304 432.592 202.228 432.748 202.18 432.908C202.14 433.06 202.12 433.22 202.12 433.388L201.748 433.04H202.924V434.708H201.244ZM204.532 440V438.86L207.268 435.944C207.516 435.68 207.712 435.436 207.856 435.212C208.008 434.988 208.12 434.772 208.192 434.564C208.264 434.356 208.3 434.148 208.3 433.94C208.3 433.54 208.172 433.236 207.916 433.028C207.668 432.82 207.304 432.716 206.824 432.716C206.448 432.716 206.08 432.788 205.72 432.932C205.368 433.068 205.028 433.284 204.7 433.58L204.184 432.428C204.52 432.124 204.94 431.88 205.444 431.696C205.948 431.512 206.472 431.42 207.016 431.42C207.624 431.42 208.136 431.512 208.552 431.696C208.968 431.88 209.284 432.148 209.5 432.5C209.716 432.852 209.824 433.28 209.824 433.784C209.824 434.04 209.792 434.292 209.728 434.54C209.672 434.78 209.58 435.02 209.452 435.26C209.332 435.5 209.176 435.748 208.984 436.004C208.8 436.252 208.576 436.512 208.312 436.784L206.056 439.136V438.728H210.148V440H204.532ZM214.956 440V438.392H211.272V437.264L215.22 431.54H216.492V437.12H217.68V438.392H216.492V440H214.956ZM214.956 437.12V433.376H215.304L212.472 437.528V437.12H214.956Z" fill="white"/>
<path opacity="0.48" d="M302.36 440V431.54H303.788V437.852H303.512L308.336 431.54H309.488V440H308.06V433.676H308.324L303.5 440H302.36ZM318.368 440.12C317.632 440.12 316.984 439.968 316.424 439.664C315.864 439.352 315.416 438.916 315.08 438.356C314.744 437.788 314.536 437.12 314.456 436.352H312.872V440H311.336V431.54H312.872V435.068H314.468C314.556 434.316 314.768 433.668 315.104 433.124C315.448 432.58 315.896 432.16 316.448 431.864C317 431.568 317.64 431.42 318.368 431.42C319.176 431.42 319.876 431.6 320.468 431.96C321.06 432.312 321.516 432.812 321.836 433.46C322.164 434.108 322.328 434.876 322.328 435.764C322.328 436.428 322.232 437.028 322.04 437.564C321.856 438.1 321.592 438.56 321.248 438.944C320.904 439.32 320.488 439.612 320 439.82C319.512 440.02 318.968 440.12 318.368 440.12ZM318.368 438.8C318.864 438.8 319.288 438.68 319.64 438.44C319.992 438.2 320.26 437.852 320.444 437.396C320.628 436.94 320.72 436.396 320.72 435.764C320.72 434.804 320.516 434.06 320.108 433.532C319.7 433.004 319.12 432.74 318.368 432.74C317.872 432.74 317.448 432.86 317.096 433.1C316.744 433.332 316.476 433.676 316.292 434.132C316.108 434.58 316.016 435.124 316.016 435.764C316.016 436.716 316.22 437.46 316.628 437.996C317.044 438.532 317.624 438.8 318.368 438.8ZM323.863 440.204L323.107 439.064C323.427 438.88 323.707 438.668 323.947 438.428C324.195 438.18 324.399 437.872 324.559 437.504C324.727 437.128 324.851 436.664 324.931 436.112C325.019 435.56 325.063 434.892 325.063 434.108V431.54H331.039V440H329.503V432.824H326.479V434.504C326.479 435.32 326.419 436.036 326.299 436.652C326.187 437.268 326.019 437.804 325.795 438.26C325.571 438.716 325.295 439.104 324.967 439.424C324.647 439.736 324.279 439.996 323.863 440.204ZM335.845 434.708V433.616C335.845 433.344 335.873 433.088 335.929 432.848C335.993 432.608 336.093 432.372 336.229 432.14C336.373 431.908 336.561 431.676 336.793 431.444L337.417 431.936C337.249 432.112 337.113 432.28 337.009 432.44C336.905 432.592 336.829 432.748 336.781 432.908C336.741 433.06 336.721 433.22 336.721 433.388L336.349 433.04H337.525V434.708H335.845ZM339.134 440V438.86L341.87 435.944C342.118 435.68 342.314 435.436 342.458 435.212C342.61 434.988 342.722 434.772 342.794 434.564C342.866 434.356 342.902 434.148 342.902 433.94C342.902 433.54 342.774 433.236 342.518 433.028C342.27 432.82 341.906 432.716 341.426 432.716C341.05 432.716 340.682 432.788 340.322 432.932C339.97 433.068 339.63 433.284 339.302 433.58L338.786 432.428C339.122 432.124 339.542 431.88 340.046 431.696C340.55 431.512 341.074 431.42 341.618 431.42C342.226 431.42 342.738 431.512 343.154 431.696C343.57 431.88 343.886 432.148 344.102 432.5C344.318 432.852 344.426 433.28 344.426 433.784C344.426 434.04 344.394 434.292 344.33 434.54C344.274 434.78 344.182 435.02 344.054 435.26C343.934 435.5 343.778 435.748 343.586 436.004C343.402 436.252 343.178 436.512 342.914 436.784L340.658 439.136V438.728H344.75V440H339.134ZM349.557 440V438.392H345.873V437.264L349.821 431.54H351.093V437.12H352.281V438.392H351.093V440H349.557ZM349.557 437.12V433.376H349.905L347.073 437.528V437.12H349.557Z" fill="white"/>
<path opacity="0.48" d="M442.266 440.12C441.386 440.12 440.63 439.944 439.998 439.592C439.374 439.232 438.894 438.728 438.558 438.08C438.222 437.424 438.054 436.652 438.054 435.764C438.054 434.876 438.222 434.108 438.558 433.46C438.894 432.812 439.374 432.312 439.998 431.96C440.63 431.6 441.386 431.42 442.266 431.42C442.834 431.42 443.37 431.508 443.874 431.684C444.386 431.86 444.806 432.112 445.134 432.44L444.63 433.664C444.27 433.36 443.902 433.14 443.526 433.004C443.15 432.86 442.746 432.788 442.314 432.788C441.458 432.788 440.806 433.048 440.358 433.568C439.91 434.08 439.686 434.812 439.686 435.764C439.686 436.716 439.91 437.452 440.358 437.972C440.806 438.492 441.458 438.752 442.314 438.752C442.746 438.752 443.15 438.684 443.526 438.548C443.902 438.404 444.27 438.18 444.63 437.876L445.134 439.1C444.806 439.42 444.386 439.672 443.874 439.856C443.37 440.032 442.834 440.12 442.266 440.12ZM446.475 440V431.54H452.103V432.764H447.951V435.092H451.839V436.316H447.951V438.776H452.103V440H446.475ZM453.635 440V431.54H455.171V435.068H459.527V431.54H461.063V440H459.527V436.352H455.171V440H453.635ZM465.875 434.708V433.616C465.875 433.344 465.903 433.088 465.959 432.848C466.023 432.608 466.123 432.372 466.259 432.14C466.403 431.908 466.591 431.676 466.823 431.444L467.447 431.936C467.279 432.112 467.143 432.28 467.039 432.44C466.935 432.592 466.859 432.748 466.811 432.908C466.771 433.06 466.751 433.22 466.751 433.388L466.379 433.04H467.555V434.708H465.875ZM469.163 440V438.86L471.899 435.944C472.147 435.68 472.343 435.436 472.487 435.212C472.639 434.988 472.751 434.772 472.823 434.564C472.895 434.356 472.931 434.148 472.931 433.94C472.931 433.54 472.803 433.236 472.547 433.028C472.299 432.82 471.935 432.716 471.455 432.716C471.079 432.716 470.711 432.788 470.351 432.932C469.999 433.068 469.659 433.284 469.331 433.58L468.815 432.428C469.151 432.124 469.571 431.88 470.075 431.696C470.579 431.512 471.103 431.42 471.647 431.42C472.255 431.42 472.767 431.512 473.183 431.696C473.599 431.88 473.915 432.148 474.131 432.5C474.347 432.852 474.455 433.28 474.455 433.784C474.455 434.04 474.423 434.292 474.359 434.54C474.303 434.78 474.211 435.02 474.083 435.26C473.963 435.5 473.807 435.748 473.615 436.004C473.431 436.252 473.207 436.512 472.943 436.784L470.687 439.136V438.728H474.779V440H469.163ZM479.586 440V438.392H475.902V437.264L479.85 431.54H481.122V437.12H482.31V438.392H481.122V440H479.586ZM479.586 437.12V433.376H479.934L477.102 437.528V437.12H479.586Z" fill="white"/>
<path opacity="0.48" d="M569.135 440V431.54H570.671V435.068H575.027V431.54H576.563V440H575.027V436.352H570.671V440H569.135ZM582.208 440.12C581.592 440.12 581.032 440.02 580.528 439.82C580.032 439.612 579.604 439.316 579.244 438.932C578.892 438.548 578.62 438.088 578.428 437.552C578.236 437.016 578.14 436.42 578.14 435.764C578.14 435.1 578.236 434.504 578.428 433.976C578.62 433.44 578.892 432.984 579.244 432.608C579.604 432.224 580.032 431.932 580.528 431.732C581.032 431.524 581.592 431.42 582.208 431.42C582.824 431.42 583.38 431.524 583.876 431.732C584.38 431.932 584.808 432.22 585.16 432.596C585.52 432.972 585.796 433.428 585.988 433.964C586.18 434.492 586.276 435.088 586.276 435.752C586.276 436.416 586.18 437.016 585.988 437.552C585.796 438.088 585.52 438.548 585.16 438.932C584.808 439.316 584.38 439.612 583.876 439.82C583.38 440.02 582.824 440.12 582.208 440.12ZM582.208 438.8C582.728 438.8 583.168 438.68 583.528 438.44C583.896 438.2 584.176 437.852 584.368 437.396C584.568 436.94 584.668 436.396 584.668 435.764C584.668 435.124 584.572 434.58 584.38 434.132C584.188 433.676 583.908 433.332 583.54 433.1C583.172 432.86 582.728 432.74 582.208 432.74C581.696 432.74 581.256 432.86 580.888 433.1C580.52 433.332 580.236 433.676 580.036 434.132C579.844 434.58 579.748 435.124 579.748 435.764C579.748 436.396 579.844 436.94 580.036 437.396C580.236 437.852 580.52 438.2 580.888 438.44C581.256 438.68 581.696 438.8 582.208 438.8ZM587.274 440L588.69 437.396C588.874 437.052 589.09 436.8 589.338 436.64C589.586 436.48 589.874 436.4 590.202 436.4H590.598L590.574 436.58C589.966 436.58 589.442 436.48 589.002 436.28C588.57 436.08 588.238 435.792 588.006 435.416C587.782 435.04 587.67 434.592 587.67 434.072C587.67 433.272 587.922 432.652 588.426 432.212C588.93 431.764 589.646 431.54 590.574 431.54H594.258V440H592.722V436.616H591.69C591.498 436.616 591.326 436.636 591.174 436.676C591.022 436.716 590.886 436.788 590.766 436.892C590.646 436.988 590.538 437.124 590.442 437.3L588.966 440H587.274ZM590.838 435.476H592.722V432.752H590.838C590.286 432.752 589.866 432.868 589.578 433.1C589.298 433.324 589.158 433.66 589.158 434.108C589.158 434.564 589.298 434.908 589.578 435.14C589.866 435.364 590.286 435.476 590.838 435.476ZM599.07 434.708V433.616C599.07 433.344 599.098 433.088 599.154 432.848C599.218 432.608 599.318 432.372 599.454 432.14C599.598 431.908 599.786 431.676 600.018 431.444L600.642 431.936C600.474 432.112 600.338 432.28 600.234 432.44C600.13 432.592 600.054 432.748 600.006 432.908C599.966 433.06 599.946 433.22 599.946 433.388L599.574 433.04H600.75V434.708H599.07ZM602.358 440V438.86L605.094 435.944C605.342 435.68 605.538 435.436 605.682 435.212C605.834 434.988 605.946 434.772 606.018 434.564C606.09 434.356 606.126 434.148 606.126 433.94C606.126 433.54 605.998 433.236 605.742 433.028C605.494 432.82 605.13 432.716 604.65 432.716C604.274 432.716 603.906 432.788 603.546 432.932C603.194 433.068 602.854 433.284 602.526 433.58L602.01 432.428C602.346 432.124 602.766 431.88 603.27 431.696C603.774 431.512 604.298 431.42 604.842 431.42C605.45 431.42 605.962 431.512 606.378 431.696C606.794 431.88 607.11 432.148 607.326 432.5C607.542 432.852 607.65 433.28 607.65 433.784C607.65 434.04 607.618 434.292 607.554 434.54C607.498 434.78 607.406 435.02 607.278 435.26C607.158 435.5 607.002 435.748 606.81 436.004C606.626 436.252 606.402 436.512 606.138 436.784L603.882 439.136V438.728H607.974V440H602.358ZM612.782 440V438.392H609.098V437.264L613.046 431.54H614.318V437.12H615.506V438.392H614.318V440H612.782ZM612.782 437.12V433.376H613.13L610.298 437.528V437.12H612.782Z" fill="white"/>
<path opacity="0.48" d="M700.651 440L702.067 437.396C702.251 437.052 702.467 436.8 702.715 436.64C702.963 436.48 703.251 436.4 703.579 436.4H703.975L703.951 436.58C703.343 436.58 702.819 436.48 702.379 436.28C701.947 436.08 701.615 435.792 701.383 435.416C701.159 435.04 701.047 434.592 701.047 434.072C701.047 433.272 701.299 432.652 701.803 432.212C702.307 431.764 703.023 431.54 703.951 431.54H707.635V440H706.099V436.616H705.067C704.875 436.616 704.703 436.636 704.551 436.676C704.399 436.716 704.263 436.788 704.143 436.892C704.023 436.988 703.915 437.124 703.819 437.3L702.343 440H700.651ZM704.215 435.476H706.099V432.752H704.215C703.663 432.752 703.243 432.868 702.955 433.1C702.675 433.324 702.535 433.66 702.535 434.108C702.535 434.564 702.675 434.908 702.955 435.14C703.243 435.364 703.663 435.476 704.215 435.476ZM709.488 440V431.54H711.024V435.068H715.38V431.54H716.916V440H715.38V436.352H711.024V440H709.488ZM718.77 440V431.54H722.466C723.354 431.54 724.042 431.736 724.53 432.128C725.018 432.512 725.262 433.048 725.262 433.736C725.262 434.248 725.114 434.68 724.818 435.032C724.522 435.384 724.118 435.62 723.606 435.74V435.56C723.998 435.616 724.334 435.736 724.614 435.92C724.894 436.104 725.106 436.34 725.25 436.628C725.402 436.916 725.478 437.252 725.478 437.636C725.478 438.132 725.362 438.56 725.13 438.92C724.906 439.272 724.578 439.54 724.146 439.724C723.714 439.908 723.198 440 722.598 440H718.77ZM720.246 438.836H722.406C722.622 438.836 722.814 438.82 722.982 438.788C723.158 438.756 723.306 438.708 723.426 438.644C723.554 438.572 723.658 438.484 723.738 438.38C723.826 438.276 723.89 438.156 723.93 438.02C723.97 437.884 723.99 437.732 723.99 437.564C723.99 437.388 723.97 437.232 723.93 437.096C723.89 436.96 723.826 436.844 723.738 436.748C723.658 436.644 723.554 436.56 723.426 436.496C723.306 436.424 723.158 436.372 722.982 436.34C722.814 436.308 722.622 436.292 722.406 436.292H720.246V438.836ZM720.246 435.128H722.202C722.73 435.128 723.122 435.028 723.378 434.828C723.642 434.62 723.774 434.316 723.774 433.916C723.774 433.516 723.642 433.216 723.378 433.016C723.122 432.808 722.73 432.704 722.202 432.704H720.246V435.128ZM729.99 434.708V433.616C729.99 433.344 730.018 433.088 730.074 432.848C730.138 432.608 730.238 432.372 730.374 432.14C730.518 431.908 730.706 431.676 730.938 431.444L731.562 431.936C731.394 432.112 731.258 432.28 731.154 432.44C731.05 432.592 730.974 432.748 730.926 432.908C730.886 433.06 730.866 433.22 730.866 433.388L730.494 433.04H731.67V434.708H729.99ZM733.278 440V438.86L736.014 435.944C736.262 435.68 736.458 435.436 736.602 435.212C736.754 434.988 736.866 434.772 736.938 434.564C737.01 434.356 737.046 434.148 737.046 433.94C737.046 433.54 736.918 433.236 736.662 433.028C736.414 432.82 736.05 432.716 735.57 432.716C735.194 432.716 734.826 432.788 734.466 432.932C734.114 433.068 733.774 433.284 733.446 433.58L732.93 432.428C733.266 432.124 733.686 431.88 734.19 431.696C734.694 431.512 735.218 431.42 735.762 431.42C736.37 431.42 736.882 431.512 737.298 431.696C737.714 431.88 738.03 432.148 738.246 432.5C738.462 432.852 738.57 433.28 738.57 433.784C738.57 434.04 738.538 434.292 738.474 434.54C738.418 434.78 738.326 435.02 738.198 435.26C738.078 435.5 737.922 435.748 737.73 436.004C737.546 436.252 737.322 436.512 737.058 436.784L734.802 439.136V438.728H738.894V440H733.278ZM743.186 440.12C742.818 440.12 742.454 440.08 742.094 440C741.742 439.92 741.41 439.808 741.098 439.664C740.794 439.52 740.53 439.352 740.306 439.16L740.81 437.984C741.178 438.264 741.558 438.476 741.95 438.62C742.342 438.756 742.746 438.824 743.162 438.824C743.666 438.824 744.058 438.696 744.338 438.44C744.626 438.176 744.77 437.824 744.77 437.384C744.77 436.936 744.634 436.576 744.362 436.304C744.09 436.024 743.718 435.884 743.246 435.884C742.902 435.884 742.594 435.952 742.322 436.088C742.05 436.216 741.802 436.416 741.578 436.688H740.546V431.54H745.742V432.812H742.046V435.5H741.65C741.858 435.22 742.13 435.004 742.466 434.852C742.81 434.7 743.19 434.624 743.606 434.624C744.142 434.624 744.606 434.74 744.998 434.972C745.398 435.196 745.706 435.512 745.922 435.92C746.146 436.32 746.258 436.788 746.258 437.324C746.258 437.876 746.134 438.364 745.886 438.788C745.638 439.204 745.282 439.532 744.818 439.772C744.362 440.004 743.818 440.12 743.186 440.12Z" fill="white"/>
<path opacity="0.48" d="M794.882 410V401.54H798.386C799.298 401.54 800.002 401.756 800.498 402.188C800.994 402.62 801.242 403.232 801.242 404.024C801.242 404.536 801.13 404.976 800.906 405.344C800.682 405.712 800.354 405.992 799.922 406.184C799.498 406.376 798.986 406.472 798.386 406.472L798.494 406.304H798.806C799.126 406.304 799.402 406.384 799.634 406.544C799.874 406.704 800.09 406.96 800.282 407.312L801.746 410H800.378L798.914 407.3C798.802 407.092 798.678 406.932 798.542 406.82C798.414 406.7 798.262 406.62 798.086 406.58C797.918 406.532 797.718 406.508 797.486 406.508H796.13V410H794.882ZM796.13 405.572H798.182C798.79 405.572 799.25 405.444 799.562 405.188C799.874 404.932 800.03 404.552 800.03 404.048C800.03 403.552 799.874 403.176 799.562 402.92C799.25 402.664 798.79 402.536 798.182 402.536H796.13V405.572ZM806.424 410.108C805.296 410.108 804.432 409.812 803.832 409.22C803.24 408.628 802.944 407.752 802.944 406.592V401.54H804.192V406.568C804.192 407.392 804.38 408.008 804.756 408.416C805.14 408.824 805.696 409.028 806.424 409.028C807.16 409.028 807.716 408.824 808.092 408.416C808.468 408.008 808.656 407.392 808.656 406.568V401.54H809.88V406.592C809.88 407.752 809.588 408.628 809.004 409.22C808.42 409.812 807.56 410.108 806.424 410.108ZM811.804 410V401.54H815.332C816.212 401.54 816.892 401.736 817.372 402.128C817.86 402.512 818.104 403.052 818.104 403.748C818.104 404.26 817.952 404.692 817.648 405.044C817.344 405.396 816.932 405.632 816.412 405.752V405.572C816.804 405.628 817.14 405.748 817.42 405.932C817.708 406.108 817.928 406.344 818.08 406.64C818.232 406.928 818.308 407.268 818.308 407.66C818.308 408.156 818.196 408.58 817.972 408.932C817.748 409.284 817.424 409.552 817 409.736C816.576 409.912 816.068 410 815.476 410H811.804ZM813.004 409.04H815.332C815.572 409.04 815.784 409.024 815.968 408.992C816.16 408.952 816.324 408.896 816.46 408.824C816.604 408.744 816.724 408.648 816.82 408.536C816.916 408.416 816.984 408.28 817.024 408.128C817.072 407.976 817.096 407.804 817.096 407.612C817.096 407.42 817.072 407.248 817.024 407.096C816.984 406.944 816.916 406.812 816.82 406.7C816.724 406.588 816.604 406.496 816.46 406.424C816.324 406.344 816.16 406.288 815.968 406.256C815.784 406.216 815.572 406.196 815.332 406.196H813.004V409.04ZM813.004 405.236H815.14C815.716 405.236 816.152 405.12 816.448 404.888C816.744 404.656 816.892 404.316 816.892 403.868C816.892 403.42 816.744 403.08 816.448 402.848C816.152 402.616 815.716 402.5 815.14 402.5H813.004V405.236Z" fill="white"/>
<path opacity="0.48" d="M785.25 349V348.076L788.07 345.052C788.334 344.764 788.546 344.5 788.706 344.26C788.866 344.012 788.982 343.776 789.054 343.552C789.134 343.32 789.174 343.088 789.174 342.856C789.174 342.408 789.038 342.068 788.766 341.836C788.494 341.604 788.094 341.488 787.566 341.488C787.158 341.488 786.77 341.564 786.402 341.716C786.042 341.868 785.698 342.1 785.37 342.412L784.926 341.464C785.246 341.152 785.654 340.904 786.15 340.72C786.646 340.528 787.162 340.432 787.698 340.432C788.282 340.432 788.774 340.524 789.174 340.708C789.582 340.884 789.89 341.144 790.098 341.488C790.306 341.832 790.41 342.252 790.41 342.748C790.41 343.004 790.378 343.256 790.314 343.504C790.258 343.744 790.166 343.984 790.038 344.224C789.918 344.464 789.762 344.712 789.57 344.968C789.386 345.224 789.162 345.488 788.898 345.76L786.486 348.304V347.956H790.746V349H785.25ZM792.134 349V347.572H793.562V349H792.134ZM797.873 349.108C797.217 349.108 796.665 348.94 796.217 348.604C795.769 348.268 795.429 347.78 795.197 347.14C794.965 346.492 794.849 345.7 794.849 344.764C794.849 343.812 794.965 343.016 795.197 342.376C795.429 341.736 795.769 341.252 796.217 340.924C796.665 340.596 797.217 340.432 797.873 340.432C798.537 340.432 799.093 340.596 799.541 340.924C799.989 341.244 800.325 341.724 800.549 342.364C800.781 343.004 800.897 343.8 800.897 344.752C800.897 345.688 800.781 346.48 800.549 347.128C800.317 347.776 799.977 348.268 799.529 348.604C799.081 348.94 798.529 349.108 797.873 349.108ZM797.873 348.076C798.489 348.076 798.941 347.808 799.229 347.272C799.525 346.736 799.673 345.896 799.673 344.752C799.673 343.608 799.525 342.776 799.229 342.256C798.941 341.728 798.489 341.464 797.873 341.464C797.265 341.464 796.813 341.728 796.517 342.256C796.221 342.776 796.073 343.608 796.073 344.752C796.073 345.896 796.221 346.736 796.517 347.272C796.813 347.808 797.265 348.076 797.873 348.076ZM805.069 349.108C804.413 349.108 803.861 348.94 803.413 348.604C802.965 348.268 802.625 347.78 802.393 347.14C802.161 346.492 802.045 345.7 802.045 344.764C802.045 343.812 802.161 343.016 802.393 342.376C802.625 341.736 802.965 341.252 803.413 340.924C803.861 340.596 804.413 340.432 805.069 340.432C805.733 340.432 806.289 340.596 806.737 340.924C807.185 341.244 807.521 341.724 807.745 342.364C807.977 343.004 808.093 343.8 808.093 344.752C808.093 345.688 807.977 346.48 807.745 347.128C807.513 347.776 807.173 348.268 806.725 348.604C806.277 348.94 805.725 349.108 805.069 349.108ZM805.069 348.076C805.685 348.076 806.137 347.808 806.425 347.272C806.721 346.736 806.869 345.896 806.869 344.752C806.869 343.608 806.721 342.776 806.425 342.256C806.137 341.728 805.685 341.464 805.069 341.464C804.461 341.464 804.009 341.728 803.713 342.256C803.417 342.776 803.269 343.608 803.269 344.752C803.269 345.896 803.417 346.736 803.713 347.272C804.009 347.808 804.461 348.076 805.069 348.076ZM809.672 349V340.54H810.716L814.04 346.732H813.668L816.968 340.54H817.988V349H816.872V342.304H817.136L814.22 347.704H813.464L810.512 342.292H810.8V349H809.672Z" fill="white"/>
<path opacity="0.48" d="M788.598 279V277.284H784.794V276.36L788.814 270.54H789.834V276.24H791.07V277.284H789.834V279H788.598ZM788.598 276.24V272.028H788.922L785.802 276.576V276.24H788.598ZM792.134 279V277.572H793.562V279H792.134ZM797.873 279.108C797.217 279.108 796.665 278.94 796.217 278.604C795.769 278.268 795.429 277.78 795.197 277.14C794.965 276.492 794.849 275.7 794.849 274.764C794.849 273.812 794.965 273.016 795.197 272.376C795.429 271.736 795.769 271.252 796.217 270.924C796.665 270.596 797.217 270.432 797.873 270.432C798.537 270.432 799.093 270.596 799.541 270.924C799.989 271.244 800.325 271.724 800.549 272.364C800.781 273.004 800.897 273.8 800.897 274.752C800.897 275.688 800.781 276.48 800.549 277.128C800.317 277.776 799.977 278.268 799.529 278.604C799.081 278.94 798.529 279.108 797.873 279.108ZM797.873 278.076C798.489 278.076 798.941 277.808 799.229 277.272C799.525 276.736 799.673 275.896 799.673 274.752C799.673 273.608 799.525 272.776 799.229 272.256C798.941 271.728 798.489 271.464 797.873 271.464C797.265 271.464 796.813 271.728 796.517 272.256C796.221 272.776 796.073 273.608 796.073 274.752C796.073 275.896 796.221 276.736 796.517 277.272C796.813 277.808 797.265 278.076 797.873 278.076ZM805.069 279.108C804.413 279.108 803.861 278.94 803.413 278.604C802.965 278.268 802.625 277.78 802.393 277.14C802.161 276.492 802.045 275.7 802.045 274.764C802.045 273.812 802.161 273.016 802.393 272.376C802.625 271.736 802.965 271.252 803.413 270.924C803.861 270.596 804.413 270.432 805.069 270.432C805.733 270.432 806.289 270.596 806.737 270.924C807.185 271.244 807.521 271.724 807.745 272.364C807.977 273.004 808.093 273.8 808.093 274.752C808.093 275.688 807.977 276.48 807.745 277.128C807.513 277.776 807.173 278.268 806.725 278.604C806.277 278.94 805.725 279.108 805.069 279.108ZM805.069 278.076C805.685 278.076 806.137 277.808 806.425 277.272C806.721 276.736 806.869 275.896 806.869 274.752C806.869 273.608 806.721 272.776 806.425 272.256C806.137 271.728 805.685 271.464 805.069 271.464C804.461 271.464 804.009 271.728 803.713 272.256C803.417 272.776 803.269 273.608 803.269 274.752C803.269 275.896 803.417 276.736 803.713 277.272C804.009 277.808 804.461 278.076 805.069 278.076ZM809.672 279V270.54H810.716L814.04 276.732H813.668L816.968 270.54H817.988V279H816.872V272.304H817.136L814.22 277.704H813.464L810.512 272.292H810.8V279H809.672Z" fill="white"/>
<path opacity="0.48" d="M788.13 209.108C787.45 209.108 786.87 208.944 786.39 208.616C785.918 208.288 785.554 207.816 785.298 207.2C785.05 206.576 784.926 205.828 784.926 204.956C784.926 203.98 785.066 203.16 785.346 202.496C785.626 201.824 786.03 201.312 786.558 200.96C787.086 200.608 787.718 200.432 788.454 200.432C788.742 200.432 789.034 200.472 789.33 200.552C789.626 200.632 789.906 200.744 790.17 200.888C790.442 201.032 790.674 201.208 790.866 201.416L790.434 202.352C790.138 202.064 789.818 201.848 789.474 201.704C789.138 201.56 788.79 201.488 788.43 201.488C788.054 201.488 787.722 201.556 787.434 201.692C787.154 201.828 786.914 202.032 786.714 202.304C786.522 202.576 786.374 202.912 786.27 203.312C786.174 203.712 786.126 204.18 786.126 204.716V205.736H785.994C786.05 205.304 786.182 204.932 786.39 204.62C786.606 204.3 786.882 204.056 787.218 203.888C787.554 203.72 787.926 203.636 788.334 203.636C788.83 203.636 789.266 203.752 789.642 203.984C790.026 204.208 790.326 204.524 790.542 204.932C790.758 205.34 790.866 205.804 790.866 206.324C790.866 206.86 790.75 207.34 790.518 207.764C790.286 208.188 789.962 208.52 789.546 208.76C789.138 208.992 788.666 209.108 788.13 209.108ZM788.058 208.1C788.386 208.1 788.674 208.028 788.922 207.884C789.17 207.74 789.362 207.54 789.498 207.284C789.634 207.02 789.702 206.716 789.702 206.372C789.702 206.028 789.634 205.728 789.498 205.472C789.362 205.216 789.17 205.016 788.922 204.872C788.674 204.72 788.386 204.644 788.058 204.644C787.73 204.644 787.442 204.72 787.194 204.872C786.954 205.016 786.762 205.216 786.618 205.472C786.482 205.728 786.414 206.028 786.414 206.372C786.414 206.716 786.482 207.02 786.618 207.284C786.762 207.54 786.958 207.74 787.206 207.884C787.454 208.028 787.738 208.1 788.058 208.1ZM792.134 209V207.572H793.562V209H792.134ZM797.873 209.108C797.217 209.108 796.665 208.94 796.217 208.604C795.769 208.268 795.429 207.78 795.197 207.14C794.965 206.492 794.849 205.7 794.849 204.764C794.849 203.812 794.965 203.016 795.197 202.376C795.429 201.736 795.769 201.252 796.217 200.924C796.665 200.596 797.217 200.432 797.873 200.432C798.537 200.432 799.093 200.596 799.541 200.924C799.989 201.244 800.325 201.724 800.549 202.364C800.781 203.004 800.897 203.8 800.897 204.752C800.897 205.688 800.781 206.48 800.549 207.128C800.317 207.776 799.977 208.268 799.529 208.604C799.081 208.94 798.529 209.108 797.873 209.108ZM797.873 208.076C798.489 208.076 798.941 207.808 799.229 207.272C799.525 206.736 799.673 205.896 799.673 204.752C799.673 203.608 799.525 202.776 799.229 202.256C798.941 201.728 798.489 201.464 797.873 201.464C797.265 201.464 796.813 201.728 796.517 202.256C796.221 202.776 796.073 203.608 796.073 204.752C796.073 205.896 796.221 206.736 796.517 207.272C796.813 207.808 797.265 208.076 797.873 208.076ZM805.069 209.108C804.413 209.108 803.861 208.94 803.413 208.604C802.965 208.268 802.625 207.78 802.393 207.14C802.161 206.492 802.045 205.7 802.045 204.764C802.045 203.812 802.161 203.016 802.393 202.376C802.625 201.736 802.965 201.252 803.413 200.924C803.861 200.596 804.413 200.432 805.069 200.432C805.733 200.432 806.289 200.596 806.737 200.924C807.185 201.244 807.521 201.724 807.745 202.364C807.977 203.004 808.093 203.8 808.093 204.752C808.093 205.688 807.977 206.48 807.745 207.128C807.513 207.776 807.173 208.268 806.725 208.604C806.277 208.94 805.725 209.108 805.069 209.108ZM805.069 208.076C805.685 208.076 806.137 207.808 806.425 207.272C806.721 206.736 806.869 205.896 806.869 204.752C806.869 203.608 806.721 202.776 806.425 202.256C806.137 201.728 805.685 201.464 805.069 201.464C804.461 201.464 804.009 201.728 803.713 202.256C803.417 202.776 803.269 203.608 803.269 204.752C803.269 205.896 803.417 206.736 803.713 207.272C804.009 207.808 804.461 208.076 805.069 208.076ZM809.672 209V200.54H810.716L814.04 206.732H813.668L816.968 200.54H817.988V209H816.872V202.304H817.136L814.22 207.704H813.464L810.512 202.292H810.8V209H809.672Z" fill="white"/>
<path opacity="0.48" d="M787.83 139.108C786.862 139.108 786.106 138.9 785.562 138.484C785.026 138.068 784.758 137.488 784.758 136.744C784.758 136.344 784.838 135.992 784.998 135.688C785.158 135.376 785.382 135.124 785.67 134.932C785.958 134.74 786.29 134.62 786.666 134.572V134.788C786.322 134.716 786.022 134.584 785.766 134.392C785.51 134.192 785.31 133.948 785.166 133.66C785.03 133.364 784.962 133.04 784.962 132.688C784.962 131.984 785.222 131.432 785.742 131.032C786.262 130.632 786.958 130.432 787.83 130.432C788.71 130.432 789.41 130.632 789.93 131.032C790.45 131.432 790.71 131.984 790.71 132.688C790.71 133.04 790.638 133.364 790.494 133.66C790.358 133.948 790.162 134.192 789.906 134.392C789.65 134.584 789.35 134.712 789.006 134.776V134.572C789.39 134.62 789.722 134.744 790.002 134.944C790.282 135.136 790.502 135.384 790.662 135.688C790.822 135.992 790.902 136.344 790.902 136.744C790.902 137.488 790.63 138.068 790.086 138.484C789.55 138.9 788.798 139.108 787.83 139.108ZM787.83 138.124C788.462 138.124 788.938 138.004 789.258 137.764C789.578 137.516 789.738 137.148 789.738 136.66C789.738 136.172 789.578 135.808 789.258 135.568C788.938 135.328 788.462 135.208 787.83 135.208C787.206 135.208 786.73 135.328 786.402 135.568C786.082 135.808 785.922 136.172 785.922 136.66C785.922 137.148 786.082 137.516 786.402 137.764C786.73 138.004 787.206 138.124 787.83 138.124ZM787.83 134.224C788.366 134.224 788.782 134.1 789.078 133.852C789.382 133.596 789.534 133.248 789.534 132.808C789.534 132.376 789.382 132.036 789.078 131.788C788.782 131.54 788.366 131.416 787.83 131.416C787.294 131.416 786.878 131.54 786.582 131.788C786.286 132.036 786.138 132.376 786.138 132.808C786.138 133.248 786.286 133.596 786.582 133.852C786.878 134.1 787.294 134.224 787.83 134.224ZM792.134 139V137.572H793.562V139H792.134ZM797.873 139.108C797.217 139.108 796.665 138.94 796.217 138.604C795.769 138.268 795.429 137.78 795.197 137.14C794.965 136.492 794.849 135.7 794.849 134.764C794.849 133.812 794.965 133.016 795.197 132.376C795.429 131.736 795.769 131.252 796.217 130.924C796.665 130.596 797.217 130.432 797.873 130.432C798.537 130.432 799.093 130.596 799.541 130.924C799.989 131.244 800.325 131.724 800.549 132.364C800.781 133.004 800.897 133.8 800.897 134.752C800.897 135.688 800.781 136.48 800.549 137.128C800.317 137.776 799.977 138.268 799.529 138.604C799.081 138.94 798.529 139.108 797.873 139.108ZM797.873 138.076C798.489 138.076 798.941 137.808 799.229 137.272C799.525 136.736 799.673 135.896 799.673 134.752C799.673 133.608 799.525 132.776 799.229 132.256C798.941 131.728 798.489 131.464 797.873 131.464C797.265 131.464 796.813 131.728 796.517 132.256C796.221 132.776 796.073 133.608 796.073 134.752C796.073 135.896 796.221 136.736 796.517 137.272C796.813 137.808 797.265 138.076 797.873 138.076ZM805.069 139.108C804.413 139.108 803.861 138.94 803.413 138.604C802.965 138.268 802.625 137.78 802.393 137.14C802.161 136.492 802.045 135.7 802.045 134.764C802.045 133.812 802.161 133.016 802.393 132.376C802.625 131.736 802.965 131.252 803.413 130.924C803.861 130.596 804.413 130.432 805.069 130.432C805.733 130.432 806.289 130.596 806.737 130.924C807.185 131.244 807.521 131.724 807.745 132.364C807.977 133.004 808.093 133.8 808.093 134.752C808.093 135.688 807.977 136.48 807.745 137.128C807.513 137.776 807.173 138.268 806.725 138.604C806.277 138.94 805.725 139.108 805.069 139.108ZM805.069 138.076C805.685 138.076 806.137 137.808 806.425 137.272C806.721 136.736 806.869 135.896 806.869 134.752C806.869 133.608 806.721 132.776 806.425 132.256C806.137 131.728 805.685 131.464 805.069 131.464C804.461 131.464 804.009 131.728 803.713 132.256C803.417 132.776 803.269 133.608 803.269 134.752C803.269 135.896 803.417 136.736 803.713 137.272C804.009 137.808 804.461 138.076 805.069 138.076ZM809.672 139V130.54H810.716L814.04 136.732H813.668L816.968 130.54H817.988V139H816.872V132.304H817.136L814.22 137.704H813.464L810.512 132.292H810.8V139H809.672Z" fill="white"/>
<path opacity="0.48" d="M778.439 69V67.956H780.359V61.596H780.983L778.859 62.916L778.355 61.992L780.719 60.54H781.595V67.956H783.395V69H778.439ZM787.83 69.108C787.174 69.108 786.622 68.94 786.174 68.604C785.726 68.268 785.386 67.78 785.154 67.14C784.922 66.492 784.806 65.7 784.806 64.764C784.806 63.812 784.922 63.016 785.154 62.376C785.386 61.736 785.726 61.252 786.174 60.924C786.622 60.596 787.174 60.432 787.83 60.432C788.494 60.432 789.05 60.596 789.498 60.924C789.946 61.244 790.282 61.724 790.506 62.364C790.738 63.004 790.854 63.8 790.854 64.752C790.854 65.688 790.738 66.48 790.506 67.128C790.274 67.776 789.934 68.268 789.486 68.604C789.038 68.94 788.486 69.108 787.83 69.108ZM787.83 68.076C788.446 68.076 788.898 67.808 789.186 67.272C789.482 66.736 789.63 65.896 789.63 64.752C789.63 63.608 789.482 62.776 789.186 62.256C788.898 61.728 788.446 61.464 787.83 61.464C787.222 61.464 786.77 61.728 786.474 62.256C786.178 62.776 786.03 63.608 786.03 64.752C786.03 65.896 786.178 66.736 786.474 67.272C786.77 67.808 787.222 68.076 787.83 68.076ZM792.134 69V67.572H793.562V69H792.134ZM797.873 69.108C797.217 69.108 796.665 68.94 796.217 68.604C795.769 68.268 795.429 67.78 795.197 67.14C794.965 66.492 794.849 65.7 794.849 64.764C794.849 63.812 794.965 63.016 795.197 62.376C795.429 61.736 795.769 61.252 796.217 60.924C796.665 60.596 797.217 60.432 797.873 60.432C798.537 60.432 799.093 60.596 799.541 60.924C799.989 61.244 800.325 61.724 800.549 62.364C800.781 63.004 800.897 63.8 800.897 64.752C800.897 65.688 800.781 66.48 800.549 67.128C800.317 67.776 799.977 68.268 799.529 68.604C799.081 68.94 798.529 69.108 797.873 69.108ZM797.873 68.076C798.489 68.076 798.941 67.808 799.229 67.272C799.525 66.736 799.673 65.896 799.673 64.752C799.673 63.608 799.525 62.776 799.229 62.256C798.941 61.728 798.489 61.464 797.873 61.464C797.265 61.464 796.813 61.728 796.517 62.256C796.221 62.776 796.073 63.608 796.073 64.752C796.073 65.896 796.221 66.736 796.517 67.272C796.813 67.808 797.265 68.076 797.873 68.076ZM805.069 69.108C804.413 69.108 803.861 68.94 803.413 68.604C802.965 68.268 802.625 67.78 802.393 67.14C802.161 66.492 802.045 65.7 802.045 64.764C802.045 63.812 802.161 63.016 802.393 62.376C802.625 61.736 802.965 61.252 803.413 60.924C803.861 60.596 804.413 60.432 805.069 60.432C805.733 60.432 806.289 60.596 806.737 60.924C807.185 61.244 807.521 61.724 807.745 62.364C807.977 63.004 808.093 63.8 808.093 64.752C808.093 65.688 807.977 66.48 807.745 67.128C807.513 67.776 807.173 68.268 806.725 68.604C806.277 68.94 805.725 69.108 805.069 69.108ZM805.069 68.076C805.685 68.076 806.137 67.808 806.425 67.272C806.721 66.736 806.869 65.896 806.869 64.752C806.869 63.608 806.721 62.776 806.425 62.256C806.137 61.728 805.685 61.464 805.069 61.464C804.461 61.464 804.009 61.728 803.713 62.256C803.417 62.776 803.269 63.608 803.269 64.752C803.269 65.896 803.417 66.736 803.713 67.272C804.009 67.808 804.461 68.076 805.069 68.076ZM809.672 69V60.54H810.716L814.04 66.732H813.668L816.968 60.54H817.988V69H816.872V62.304H817.136L814.22 67.704H813.464L810.512 62.292H810.8V69H809.672Z" fill="white"/>
<line opacity="0.32" x1="8.5" y1="305.5" x2="756.5" y2="305.5" stroke="white" stroke-linecap="round" stroke-dasharray="0.05 6"/>
<path d="M17.7825 317.254L9 312.913V365H756V46.2627L749.657 63.0058L745.266 91.5312L740.387 89.6709L737.947 95.872L732.092 38.2012L730.14 46.2627L726.725 42.542L719.406 49.3633L715.503 79.1289L712.575 71.6875C711.437 78.5088 709.16 92.0273 709.16 91.5312C709.16 91.0351 707.208 81.816 706.232 77.2685L703.305 92.1513L699.402 76.6484L694.523 72.3076L692.083 32L684.764 51.8437H682.325L680.373 56.1846L678.909 48.7432L674.518 84.7099L673.054 74.7881L668.175 72.3076L665.248 82.8496L664.272 60.5254L661.832 72.3076L658.417 56.1846L655.489 64.8662L654.025 60.5254L652.562 63.0058L649.634 41.3018L647.195 87.8105L643.291 67.9668L639.388 63.0058L635.485 95.2519L629.142 113.855L624.263 110.135L623.775 125.638L621.335 113.235L617.432 129.978L614.504 167.806L611.089 169.666L607.673 172.146L605.722 196.331L603.282 199.432L597.427 196.331L590.108 182.688L587.669 201.292L581.326 208.113L578.886 205.633L577.911 211.834L571.568 201.292L570.592 206.253L563.761 203.152L557.906 216.175L557.418 225.476L554.491 222.996L551.075 232.298L548.635 225.476H542.781L541.805 228.577H539.853L536.438 236.018L530.583 229.817L527.655 216.795L524.24 217.415L520.824 232.298L518.385 227.337L516.921 234.158L514.481 229.817L506.187 234.158L502.283 250.281L496.428 245.94L494.477 257.722L490.086 252.762L486.67 264.544L484.231 268.264L481.303 268.885L477.4 260.203L474.96 262.063L473.008 250.901L470.569 254.622L464.714 245.94L462.762 248.421L460.811 245.94L458.371 229.817H452.516L449.589 244.08L449.101 240.979L447.637 249.041H445.685L443.246 257.722L439.83 250.281L436.903 258.963L432.999 244.7L429.096 249.041L428.608 258.963L426.656 251.521L423.729 252.762L422.753 249.041L420.314 272.605L417.386 270.125L414.946 278.186L412.019 255.862L409.579 252.762L407.14 240.979L405.188 244.7L399.821 229.817L398.357 231.678H395.43C394.779 235.192 393.478 242.344 393.478 242.84C393.478 243.336 388.274 231.471 385.671 225.476L380.304 231.678L377.865 239.119L374.449 234.158L372.01 251.521L363.715 263.924L362.251 258.963L359.324 265.164H356.396L354.933 257.722L352.005 262.683C349.728 257.309 345.077 246.188 344.686 244.7C344.296 243.212 339.97 251.521 337.856 255.862L332.489 246.56L330.049 252.762L326.146 234.158L321.754 237.259L319.315 247.801L316.387 227.957L308.581 229.817L305.165 220.515L303.214 225.476L299.31 216.175L297.846 220.515H295.895L291.991 211.214L288.088 220.515L281.745 221.756L279.306 218.035L278.33 224.236L274.914 222.996L271.011 218.035H268.084L267.108 220.515L264.18 219.275L257.837 207.493C257.349 213.074 256.374 224.98 256.374 227.957C256.374 230.933 253.121 223.409 251.494 219.275L249.055 226.717L247.591 222.996L245.639 239.739L243.688 234.158L240.76 239.739L237.833 240.979L236.369 229.817L232.954 240.979L225.635 227.957L222.707 231.678V244.7L218.804 246.56L214.901 225.476L211.973 234.158L207.582 225.476L204.654 226.717L200.751 216.175L199.287 224.236L197.336 220.515L192.944 225.476L190.993 234.158L189.529 222.996L185.138 226.717L184.162 220.515L181.722 226.717L176.843 203.152L173.428 209.353L172.452 201.912L169.037 216.175L164.645 212.454L161.718 222.996L156.351 201.912L152.447 208.113L150.008 203.152L148.056 209.353L143.177 204.392L137.322 229.817L132.931 214.934L130.491 236.018L128.54 219.275L126.588 212.454L124.636 224.236L122.685 211.214L118.781 200.052L117.317 206.253L114.39 204.392L112.926 214.934L109.023 216.175L103.656 231.678L99.7524 213.694C98.1261 220.309 94.8733 234.034 94.8733 236.018V234.778L91.9458 240.359L88.0424 234.778V252.141C88.0424 252.638 85.115 263.924 83.6512 269.505L80.7237 267.644L77.3083 271.365L73.8929 267.644L71.9412 272.605L69.5016 269.505L67.062 272.605L65.1104 267.644L58.7675 281.287L56.8158 279.427L42.6662 306.712L38.275 303.611L33.3958 308.572L29.4925 306.712L28.0287 311.673L23.1496 308.572L17.7825 317.254Z" fill="url(#paint0_linear_1117_69)"/>
<g filter="url(#filter2_d_1117_69)">
<path d="M9 305.913L17.7825 310.254L23.1496 301.572L28.0287 304.673L29.4925 299.712L33.3958 301.572L38.275 296.611L42.6662 299.712L56.8158 272.427L58.7675 274.287L65.1104 260.644L67.062 265.605L69.5016 262.505L71.9412 265.605L73.8929 260.644L77.3083 264.365L80.7237 260.644L83.6512 262.505C85.115 256.924 88.0425 245.638 88.0425 245.141C88.0425 244.645 88.0425 233.359 88.0425 227.778L91.9458 233.359L94.8733 227.778C94.8733 229.018 94.8733 231.003 94.8733 229.018C94.8733 227.034 98.1261 213.309 99.7524 206.694L103.656 224.678L109.023 209.175L112.926 207.934L114.39 197.392L117.317 199.253L118.781 193.052L122.685 204.214L124.636 217.236L126.588 205.454L128.54 212.275L130.491 229.018L132.931 207.934L137.322 222.817L143.177 197.392L148.056 202.353L150.008 196.152L152.447 201.113L156.351 194.912L161.718 215.996L164.645 205.454L169.037 209.175L172.452 194.912L173.428 202.353L176.843 196.152L181.722 219.717L184.162 213.515L185.138 219.717L189.529 215.996L190.993 227.158L192.944 218.476L197.336 213.515L199.287 217.236L200.751 209.175L204.654 219.717L207.582 218.476L211.973 227.158L214.901 218.476L218.804 239.56L222.707 237.7V224.678L225.635 220.957L232.954 233.979L236.369 222.817L237.833 233.979L240.76 232.739L243.688 227.158L245.639 232.739L247.591 215.996L249.055 219.717L251.494 212.275C253.121 216.409 256.374 223.933 256.374 220.957C256.374 217.98 257.349 206.074 257.837 200.493L264.18 212.275L267.108 213.515L268.084 211.035H271.011L274.914 215.996L278.33 217.236L279.306 211.035L281.745 214.756L288.088 213.515L291.992 204.214L295.895 213.515H297.846L299.31 209.175L303.214 218.476L305.165 213.515L308.581 222.817L316.387 220.957L319.315 240.801L321.754 230.259L326.146 227.158L330.049 245.762L332.489 239.56L337.856 248.862C339.97 244.521 344.296 236.212 344.686 237.7C345.077 239.188 349.728 250.309 352.005 255.683L354.933 250.722L356.396 258.164H359.324L362.251 251.963L363.715 256.924L372.01 244.521L374.449 227.158L377.865 232.119L380.304 224.678L385.671 218.476C388.274 224.471 393.478 236.336 393.478 235.84C393.478 235.344 394.779 228.192 395.43 224.678H398.357L399.821 222.817L405.188 237.7L407.14 233.979L409.579 245.762L412.019 248.862L414.946 271.186L417.386 263.125L420.314 265.605L422.753 242.041L423.729 245.762L426.656 244.521L428.608 251.963L429.096 242.041L432.999 237.7L436.903 251.963L439.83 243.281L443.246 250.722L445.685 242.041H447.637L449.101 233.979L449.588 237.08L452.516 222.817H458.371L460.811 238.94L462.762 241.421L464.714 238.94L470.569 247.622L473.008 243.901L474.96 255.063L477.4 253.203L481.303 261.885L484.231 261.264L486.67 257.544L490.086 245.762L494.477 250.722L496.428 238.94L502.283 243.281L506.187 227.158L514.481 222.817L516.921 227.158L518.385 220.337L520.824 225.298L524.24 210.415L527.655 209.795L530.583 222.817L536.438 229.018L539.853 221.577H541.805L542.781 218.476H548.636L551.075 225.298L554.491 215.996L557.418 218.476L557.906 209.175L563.761 196.152L570.592 199.253L571.568 194.292L577.91 204.834L578.886 198.633L581.326 201.113L587.669 194.292L590.108 175.688L597.427 189.331L603.282 192.431L605.722 189.331L607.673 165.146L611.089 162.666L614.504 160.806L617.432 122.978L621.335 106.235L623.775 118.638L624.263 103.135L629.142 106.855L635.485 88.2519L639.388 56.0058L643.291 60.9668L647.195 80.8105L649.634 34.3017L652.562 56.0058L654.025 53.5254L655.489 57.8662L658.417 49.1845L661.832 65.3076L664.272 53.5254L665.248 75.8496L668.175 65.3076L673.054 67.788L674.518 77.7099L678.909 41.7431L680.373 49.1845L682.325 44.8437H684.764L692.083 25L694.523 65.3076L699.402 69.6484L703.305 85.1513L706.233 70.2685C707.208 74.816 709.16 84.0351 709.16 84.5312C709.16 85.0273 711.437 71.5087 712.575 64.6875L715.503 72.1289L719.406 42.3633L726.725 35.542L730.14 39.2627L732.092 31.2012L737.947 88.872L740.387 82.6708L745.266 84.5312L749.657 56.0058L756 39.2627" stroke="#A06AFF" stroke-width="1.5" stroke-linecap="round"/>
</g>
<rect x="12" y="294" width="47" height="24" rx="12" fill="#181A20"/>
<path opacity="0.48" d="M21.5832 310.108C21.2072 310.108 20.8392 310.072 20.4792 310C20.1272 309.92 19.7952 309.808 19.4832 309.664C19.1792 309.512 18.9112 309.332 18.6792 309.124L19.1112 308.164C19.4872 308.468 19.8752 308.692 20.2752 308.836C20.6752 308.98 21.0992 309.052 21.5472 309.052C21.9312 309.052 22.2552 308.996 22.5192 308.884C22.7832 308.772 22.9792 308.608 23.1072 308.392C23.2432 308.176 23.3112 307.916 23.3112 307.612C23.3112 307.156 23.1592 306.816 22.8552 306.592C22.5592 306.36 22.1272 306.244 21.5592 306.244H20.2512V305.2H21.4392C21.7832 305.2 22.0752 305.144 22.3152 305.032C22.5552 304.912 22.7392 304.748 22.8672 304.54C23.0032 304.324 23.0712 304.064 23.0712 303.76C23.0712 303.352 22.9352 303.04 22.6632 302.824C22.3992 302.6 22.0112 302.488 21.4992 302.488C21.0672 302.488 20.6672 302.564 20.2992 302.716C19.9312 302.868 19.5832 303.1 19.2552 303.412L18.8232 302.464C19.1512 302.136 19.5592 301.884 20.0472 301.708C20.5432 301.524 21.0592 301.432 21.5952 301.432C22.1552 301.432 22.6352 301.52 23.0352 301.696C23.4432 301.872 23.7512 302.124 23.9592 302.452C24.1752 302.78 24.2832 303.172 24.2832 303.628C24.2832 304.14 24.1392 304.584 23.8512 304.96C23.5712 305.328 23.1832 305.572 22.6872 305.692V305.56C23.0792 305.624 23.4112 305.752 23.6832 305.944C23.9552 306.136 24.1632 306.38 24.3072 306.676C24.4512 306.972 24.5232 307.312 24.5232 307.696C24.5232 308.192 24.4032 308.624 24.1632 308.992C23.9312 309.352 23.5952 309.628 23.1552 309.82C22.7152 310.012 22.1912 310.108 21.5832 310.108ZM26.0185 310V308.572H27.4465V310H26.0185ZM32.0582 310.108C31.3782 310.108 30.7982 309.944 30.3182 309.616C29.8462 309.288 29.4822 308.816 29.2262 308.2C28.9782 307.576 28.8542 306.828 28.8542 305.956C28.8542 304.98 28.9942 304.16 29.2742 303.496C29.5542 302.824 29.9582 302.312 30.4862 301.96C31.0142 301.608 31.6462 301.432 32.3822 301.432C32.6702 301.432 32.9622 301.472 33.2582 301.552C33.5542 301.632 33.8342 301.744 34.0982 301.888C34.3702 302.032 34.6022 302.208 34.7942 302.416L34.3622 303.352C34.0662 303.064 33.7462 302.848 33.4022 302.704C33.0662 302.56 32.7182 302.488 32.3582 302.488C31.9822 302.488 31.6502 302.556 31.3622 302.692C31.0822 302.828 30.8422 303.032 30.6422 303.304C30.4502 303.576 30.3022 303.912 30.1982 304.312C30.1022 304.712 30.0542 305.18 30.0542 305.716V306.736H29.9222C29.9782 306.304 30.1102 305.932 30.3182 305.62C30.5342 305.3 30.8102 305.056 31.1462 304.888C31.4822 304.72 31.8542 304.636 32.2622 304.636C32.7582 304.636 33.1942 304.752 33.5702 304.984C33.9542 305.208 34.2542 305.524 34.4702 305.932C34.6862 306.34 34.7942 306.804 34.7942 307.324C34.7942 307.86 34.6782 308.34 34.4462 308.764C34.2142 309.188 33.8902 309.52 33.4742 309.76C33.0662 309.992 32.5942 310.108 32.0582 310.108ZM31.9862 309.1C32.3142 309.1 32.6022 309.028 32.8502 308.884C33.0982 308.74 33.2902 308.54 33.4262 308.284C33.5622 308.02 33.6302 307.716 33.6302 307.372C33.6302 307.028 33.5622 306.728 33.4262 306.472C33.2902 306.216 33.0982 306.016 32.8502 305.872C32.6022 305.72 32.3142 305.644 31.9862 305.644C31.6582 305.644 31.3702 305.72 31.1222 305.872C30.8822 306.016 30.6902 306.216 30.5462 306.472C30.4102 306.728 30.3422 307.028 30.3422 307.372C30.3422 307.716 30.4102 308.02 30.5462 308.284C30.6902 308.54 30.8862 308.74 31.1342 308.884C31.3822 309.028 31.6662 309.1 31.9862 309.1ZM36.5535 310L40.6815 302.116V302.584H36.0975V301.54H41.8215V302.464L37.9215 310H36.5535ZM43.5568 310V301.54H44.6008L47.9248 307.732H47.5528L50.8528 301.54H51.8728V310H50.7568V303.304H51.0208L48.1048 308.704H47.3488L44.3968 303.292H44.6848V310H43.5568Z" fill="white"/>
<rect x="769" y="27" width="54" height="24" rx="8" fill="#A06AFF"/>
<path d="M778.439 43V41.956H780.359V35.596H780.983L778.859 36.916L778.355 35.992L780.719 34.54H781.595V41.956H783.395V43H778.439ZM787.83 43.108C787.174 43.108 786.622 42.94 786.174 42.604C785.726 42.268 785.386 41.78 785.154 41.14C784.922 40.492 784.806 39.7 784.806 38.764C784.806 37.812 784.922 37.016 785.154 36.376C785.386 35.736 785.726 35.252 786.174 34.924C786.622 34.596 787.174 34.432 787.83 34.432C788.494 34.432 789.05 34.596 789.498 34.924C789.946 35.244 790.282 35.724 790.506 36.364C790.738 37.004 790.854 37.8 790.854 38.752C790.854 39.688 790.738 40.48 790.506 41.128C790.274 41.776 789.934 42.268 789.486 42.604C789.038 42.94 788.486 43.108 787.83 43.108ZM787.83 42.076C788.446 42.076 788.898 41.808 789.186 41.272C789.482 40.736 789.63 39.896 789.63 38.752C789.63 37.608 789.482 36.776 789.186 36.256C788.898 35.728 788.446 35.464 787.83 35.464C787.222 35.464 786.77 35.728 786.474 36.256C786.178 36.776 786.03 37.608 786.03 38.752C786.03 39.896 786.178 40.736 786.474 41.272C786.77 41.808 787.222 42.076 787.83 42.076ZM792.134 43V41.572H793.562V43H792.134ZM795.473 43L799.601 35.116V35.584H795.017V34.54H800.741V35.464L796.841 43H795.473ZM805.201 43.108C804.833 43.108 804.473 43.068 804.121 42.988C803.777 42.908 803.453 42.796 803.149 42.652C802.845 42.508 802.581 42.332 802.357 42.124L802.777 41.164C803.161 41.468 803.549 41.692 803.941 41.836C804.333 41.98 804.745 42.052 805.177 42.052C805.729 42.052 806.161 41.904 806.473 41.608C806.785 41.312 806.941 40.916 806.941 40.42C806.941 39.916 806.793 39.504 806.497 39.184C806.201 38.864 805.789 38.704 805.261 38.704C804.885 38.704 804.549 38.78 804.253 38.932C803.965 39.084 803.705 39.316 803.473 39.628H802.609V34.54H807.649V35.584H803.821V38.632H803.485C803.701 38.328 803.985 38.092 804.337 37.924C804.697 37.756 805.093 37.672 805.525 37.672C806.061 37.672 806.525 37.784 806.917 38.008C807.309 38.232 807.613 38.548 807.829 38.956C808.045 39.356 808.153 39.824 808.153 40.36C808.153 40.904 808.033 41.384 807.793 41.8C807.553 42.208 807.213 42.528 806.773 42.76C806.333 42.992 805.809 43.108 805.201 43.108ZM809.672 43V34.54H810.716L814.04 40.732H813.668L816.968 34.54H817.988V43H816.872V36.304H817.136L814.22 41.704H813.464L810.512 36.292H810.8V43H809.672Z" fill="white"/>
<defs>
<filter id="filter0_i_1117_69" x="8" y="360" width="749" height="56" filterUnits="userSpaceOnUse" color-interpolation-filters="sRGB">
<feFlood flood-opacity="0" result="BackgroundImageFix"/>
<feBlend mode="normal" in="SourceGraphic" in2="BackgroundImageFix" result="shape"/>
<feColorMatrix in="SourceAlpha" type="matrix" values="0 0 0 0 0 0 0 0 0 0 0 0 0 0 0 0 0 0 127 0" result="hardAlpha"/>
<feOffset dy="2"/>
<feGaussianBlur stdDeviation="3"/>
<feComposite in2="hardAlpha" operator="arithmetic" k2="-1" k3="1"/>
<feColorMatrix type="matrix" values="0 0 0 0 0 0 0 0 0 0 0 0 0 0 0 0 0 0 0.48 0"/>
<feBlend mode="normal" in2="shape" result="effect1_innerShadow_1117_69"/>
</filter>
<filter id="filter1_d_1117_69" x="563.5" y="367" width="47.084" height="53" filterUnits="userSpaceOnUse" color-interpolation-filters="sRGB">
<feFlood flood-opacity="0" result="BackgroundImageFix"/>
<feColorMatrix in="SourceAlpha" type="matrix" values="0 0 0 0 0 0 0 0 0 0 0 0 0 0 0 0 0 0 127 0" result="hardAlpha"/>
<feOffset dy="-2"/>
<feGaussianBlur stdDeviation="4"/>
<feComposite in2="hardAlpha" operator="out"/>
<feColorMatrix type="matrix" values="0 0 0 0 0.180392 0 0 0 0 0.741176 0 0 0 0 0.521569 0 0 0 0.24 0"/>
<feBlend mode="normal" in2="BackgroundImageFix" result="effect1_dropShadow_1117_69"/>
<feBlend mode="normal" in="SourceGraphic" in2="effect1_dropShadow_1117_69" result="shape"/>
</filter>
<filter id="filter2_d_1117_69" x="0.25" y="16.7402" width="764.5" height="302.488" filterUnits="userSpaceOnUse" color-interpolation-filters="sRGB">
<feFlood flood-opacity="0" result="BackgroundImageFix"/>
<feColorMatrix in="SourceAlpha" type="matrix" values="0 0 0 0 0 0 0 0 0 0 0 0 0 0 0 0 0 0 127 0" result="hardAlpha"/>
<feOffset/>
<feGaussianBlur stdDeviation="4"/>
<feComposite in2="hardAlpha" operator="out"/>
<feColorMatrix type="matrix" values="0 0 0 0 0.627451 0 0 0 0 0.415686 0 0 0 0 1 0 0 0 0.24 0"/>
<feBlend mode="normal" in2="BackgroundImageFix" result="effect1_dropShadow_1117_69"/>
<feBlend mode="normal" in="SourceGraphic" in2="effect1_dropShadow_1117_69" result="shape"/>
</filter>
<linearGradient id="paint0_linear_1117_69" x1="382.5" y1="32" x2="382.5" y2="365" gradientUnits="userSpaceOnUse">
<stop stop-color="#A06AFF" stop-opacity="0.32"/>
<stop offset="1" stop-color="#181A20" stop-opacity="0"/>
</linearGradient>
</defs>
</svg>
