<svg width="306" height="286" viewBox="0 0 306 286" fill="none" xmlns="http://www.w3.org/2000/svg">
<rect x="20" y="20" width="266" height="266" rx="133" fill="#23252D"/>
<rect x="44" y="42" width="218" height="218" rx="109" fill="#181A20"/>
<rect x="68" y="66" width="170" height="170" rx="85" fill="#23252D"/>
<rect x="92" y="90" width="122" height="122" rx="61" fill="#181A20"/>
<rect x="116" y="114" width="74" height="74" rx="37" fill="#23252D"/>
<circle cx="153" cy="6" r="6" fill="#A06AFF"/>
<circle cx="300" cy="114" r="6" fill="#6AA5FF"/>
<circle cx="248" cy="272" r="6" fill="#FF6A79"/>
<circle cx="58" cy="272" r="6" fill="#6AFF9C"/>
<circle cx="6" cy="114" r="6" fill="#FFB46A"/>
<path d="M153.487 19L163.637 135.34L251.5 123.5L169.91 158.732L220.5 242.5L153.487 173.189L120.5 196.5L137.064 158.732L75.5 130L143.337 135.34L153.487 19Z" fill="#A06AFF"/>
</svg>
