<svg width="16" height="16" viewBox="0 0 16 16" fill="none" xmlns="http://www.w3.org/2000/svg">
<path d="M9.15177 2.29677L10.325 4.66257C10.485 4.9919 10.9116 5.30778 11.2716 5.36827L13.398 5.72448C14.7578 5.953 15.0778 6.94772 14.0979 7.92898L12.4448 9.59578C12.1648 9.87805 12.0115 10.4224 12.0981 10.8123L12.5714 12.8757C12.9447 14.5089 12.0848 15.1407 10.6516 14.287L8.65851 13.0975C8.29857 12.8824 7.70531 12.8824 7.33864 13.0975L5.34555 14.287C3.91904 15.1407 3.05247 14.5021 3.42577 12.8757L3.89905 10.8123C3.9857 10.4224 3.83239 9.87805 3.55241 9.59578L1.89927 7.92898C0.92604 6.94772 1.23934 5.953 2.59919 5.72448L4.72562 5.36827C5.07891 5.30778 5.50553 4.9919 5.66551 4.66257L6.83871 2.29677C7.47864 1.01306 8.51851 1.01306 9.15177 2.29677Z" stroke="currentColor" stroke-width="1.5" stroke-linecap="round" stroke-linejoin="round"/>
</svg>
