<svg width="20" height="20" viewBox="0 0 20 20" fill="none" xmlns="http://www.w3.org/2000/svg">
<path d="M2.5 3.33398V11.6673C2.5 14.0243 2.5 15.2028 3.23223 15.9351C3.96447 16.6673 5.14297 16.6673 7.5 16.6673H17.5" stroke="currentColor" stroke-width="1.5" stroke-linecap="round" stroke-linejoin="round"/>
<path d="M5 11.6673L7.70833 8.95898C8.24504 8.42223 8.51342 8.15392 8.82725 8.06537C9.04925 8.00277 9.28408 8.00277 9.50608 8.06537C9.81992 8.15392 10.0882 8.42223 10.625 8.95898C11.1617 9.49573 11.4301 9.76407 11.7439 9.85257C11.9659 9.91523 12.2007 9.91523 12.4227 9.85257C12.7366 9.76407 13.0049 9.49573 13.5417 8.95898L16.6667 5.83398" stroke="currentColor" stroke-width="1.5" stroke-linecap="round" stroke-linejoin="round"/>
</svg>
