<svg width="16" height="16" viewBox="0 0 16 16" fill="none" xmlns="http://www.w3.org/2000/svg">
<g opacity="0.48" clip-path="url(#clip0_771_1772)">
<path d="M6.97097 1.75975C7.53904 1.19076 8.46104 1.19076 9.02911 1.75975L9.70204 2.43375C9.97504 2.70727 10.3458 2.86082 10.7322 2.8605L11.6846 2.85972C12.4887 2.85907 13.1406 3.51102 13.14 4.31505L13.1392 5.26745C13.1389 5.65393 13.2924 6.02464 13.566 6.29771L14.24 6.97061C14.809 7.53867 14.809 8.46067 14.24 9.02874L13.566 9.70167C13.2924 9.97467 13.1389 10.3454 13.1392 10.7319L13.14 11.6843C13.1406 12.4883 12.4887 13.1403 11.6846 13.1396L10.7322 13.1389C10.3458 13.1385 9.97504 13.2921 9.70204 13.5656L9.02911 14.2396C8.46104 14.8086 7.53904 14.8086 6.97097 14.2396L6.29807 13.5656C6.02501 13.2921 5.6543 13.1385 5.26781 13.1389L4.31541 13.1396C3.51139 13.1403 2.85943 12.4883 2.86009 11.6843L2.86087 10.7319C2.86119 10.3454 2.70763 9.97467 2.43412 9.70167L1.76012 9.02874C1.19113 8.46067 1.19113 7.53867 1.76012 6.97061L2.43412 6.29771C2.70763 6.02464 2.86119 5.65393 2.86087 5.26745L2.86009 4.31505C2.85943 3.51102 3.51139 2.85907 4.31541 2.85972L5.26781 2.8605C5.6543 2.86082 6.02501 2.70727 6.29807 2.43375L6.97097 1.75975Z" stroke="white"/>
<path d="M6.66663 6.00033C6.66663 5.26395 7.26356 4.66699 7.99996 4.66699C8.73636 4.66699 9.33329 5.26395 9.33329 6.00033C9.33329 6.26576 9.25576 6.51308 9.12203 6.72086C8.72356 7.34013 7.99996 7.93059 7.99996 8.66699V9.00033" stroke="white" stroke-linecap="round"/>
<path d="M7.99463 11.333H8.00063" stroke="white" stroke-linecap="round" stroke-linejoin="round"/>
</g>
<defs>
<clipPath id="clip0_771_1772">
<rect width="16" height="16" fill="white"/>
</clipPath>
</defs>
</svg>
