<svg width="16" height="16" viewBox="0 0 16 16" fill="none" xmlns="http://www.w3.org/2000/svg">
<g clip-path="url(#clip0_237_1233)">
<path d="M13.6666 10.5519C11.999 14.504 6.57601 15.6557 3.46758 12.5761C0.419615 9.55647 1.36325 4.08589 5.37098 2.33333" stroke="#A06AFF" stroke-width="1.5" stroke-linecap="round"/>
<path d="M11.7887 8.33333C13.0472 8.33333 13.6764 8.33333 14.0827 7.77C14.0979 7.74893 14.1232 7.71113 14.1368 7.68906C14.5018 7.09806 14.3136 6.644 13.9375 5.73585C13.5964 4.91235 13.0964 4.1641 12.4662 3.53382C11.8358 2.90354 11.0876 2.40357 10.2641 2.06246C9.35596 1.6863 8.90189 1.49822 8.31089 1.86318C8.28883 1.87682 8.25103 1.90206 8.22996 1.91724C7.66663 2.3236 7.66663 2.95281 7.66663 4.21124V5.61832C7.66663 6.8982 7.66663 7.53813 8.06423 7.93573C8.46183 8.33333 9.10176 8.33333 10.3816 8.33333H11.7887Z" fill="#A06AFF" stroke="#A06AFF" stroke-width="1.5"/>
</g>
<defs>
<clipPath id="clip0_237_1233">
<rect width="16" height="16" fill="white"/>
</clipPath>
</defs>
</svg>
