<svg width="16" height="16" viewBox="0 0 16 16" fill="none" xmlns="http://www.w3.org/2000/svg">
<g opacity="0.48" clip-path="url(#clip0_237_381)">
<path d="M14.6667 7.71114C14.6667 11.2333 11.6815 14.0889 8.00004 14.0889C7.56717 14.0895 7.13551 14.0495 6.71031 13.9697C6.40426 13.9121 6.25123 13.8834 6.14439 13.8997C6.03755 13.9161 5.88616 13.9965 5.58337 14.1576C4.7268 14.6131 3.72801 14.774 2.76745 14.5953C3.13253 14.1463 3.38187 13.6075 3.49189 13.0299C3.55856 12.6765 3.39337 12.3333 3.14597 12.0821C2.02226 10.941 1.33337 9.40341 1.33337 7.71114C1.33337 4.18906 4.31856 1.33334 8.00004 1.33334C11.6815 1.33334 14.6667 4.18906 14.6667 7.71114Z" stroke="white" stroke-width="1.5" stroke-linejoin="round"/>
<path d="M7.99704 8H8.00304M10.6607 8H10.6667M5.33337 8H5.33935" stroke="white" stroke-width="2" stroke-linecap="round" stroke-linejoin="round"/>
</g>
<defs>
<clipPath id="clip0_237_381">
<rect width="16" height="16" fill="white"/>
</clipPath>
</defs>
</svg>
