<svg width="234" height="224" viewBox="0 0 234 224" fill="none" xmlns="http://www.w3.org/2000/svg">
<g filter="url(#filter0_d_4700_10899)">
<rect x="24" y="8" width="186" height="176" rx="8" fill="#181A20" shape-rendering="crispEdges"/>
<rect x="24.5" y="8.5" width="185" height="175" rx="7.5" stroke="#23252D" shape-rendering="crispEdges"/>
<mask id="path-3-inside-1_4700_10899" fill="white">
<path d="M24 16C24 11.5817 27.5817 8 32 8H202C206.418 8 210 11.5817 210 16V52H24V16Z"/>
</mask>
<path d="M24 8H210H24ZM210 53H24V51H210V53ZM24 52V8V52ZM210 8V52V8Z" fill="#23252D" mask="url(#path-3-inside-1_4700_10899)"/>
<path d="M51.7294 23.2377C52.3504 22.5649 52.6609 22.2285 52.9908 22.0323C53.7869 21.5588 54.7672 21.5441 55.5766 21.9934C55.9121 22.1797 56.2321 22.5066 56.8721 23.1605C57.5122 23.8143 57.8323 24.1413 58.0146 24.4839C58.4545 25.3108 58.4401 26.3122 57.9766 27.1254C57.7845 27.4625 57.4551 27.7797 56.7966 28.414L48.9601 35.9618C47.712 37.1639 47.088 37.765 46.308 38.0696C45.5281 38.3743 44.6706 38.3518 42.9558 38.307L42.7225 38.3009C42.2004 38.2873 41.9394 38.2804 41.7876 38.1082C41.6359 37.936 41.6566 37.6701 41.698 37.1383L41.7205 36.8496C41.8371 35.3528 41.8954 34.6044 42.1877 33.9317C42.48 33.2589 42.9842 32.7128 43.9925 31.6203L51.7294 23.2377Z" stroke="white" stroke-linejoin="round"/>
<path d="M50.832 23.3335L56.6654 29.1668" stroke="white" stroke-linejoin="round"/>
<path d="M51.668 38.3335H58.3346" stroke="white" stroke-linecap="round" stroke-linejoin="round"/>
<path d="M68.924 34V25.54H74.552V26.764H70.4V29.092H74.288V30.316H70.4V32.776H74.552V34H68.924ZM76.0842 34V25.54H79.2282C80.1722 25.54 80.9722 25.704 81.6282 26.032C82.2922 26.36 82.7962 26.84 83.1402 27.472C83.4922 28.096 83.6682 28.86 83.6682 29.764C83.6682 30.668 83.4922 31.436 83.1402 32.068C82.7962 32.7 82.2922 33.18 81.6282 33.508C80.9722 33.836 80.1722 34 79.2282 34H76.0842ZM77.6202 32.728H79.1322C80.1162 32.728 80.8482 32.484 81.3282 31.996C81.8162 31.5 82.0602 30.756 82.0602 29.764C82.0602 28.772 81.8162 28.032 81.3282 27.544C80.8402 27.056 80.1082 26.812 79.1322 26.812H77.6202V32.728ZM85.2248 34V25.54H86.7608V34H85.2248ZM90.6398 34V26.824H87.7358V25.54H95.0798V26.824H92.1758V34H90.6398ZM99.2873 34V25.54H102.959C103.583 25.54 104.111 25.644 104.543 25.852C104.975 26.06 105.303 26.36 105.527 26.752C105.751 27.144 105.863 27.62 105.863 28.18C105.863 28.732 105.751 29.208 105.527 29.608C105.303 30 104.975 30.304 104.543 30.52C104.111 30.728 103.583 30.832 102.959 30.832H100.823V34H99.2873ZM100.823 29.62H102.719C103.263 29.62 103.675 29.5 103.955 29.26C104.235 29.012 104.375 28.652 104.375 28.18C104.375 27.708 104.235 27.352 103.955 27.112C103.675 26.872 103.263 26.752 102.719 26.752H100.823V29.62ZM110.849 34.12C110.233 34.12 109.673 34.02 109.169 33.82C108.673 33.612 108.245 33.316 107.885 32.932C107.533 32.548 107.261 32.088 107.069 31.552C106.877 31.016 106.781 30.42 106.781 29.764C106.781 29.1 106.877 28.504 107.069 27.976C107.261 27.44 107.533 26.984 107.885 26.608C108.245 26.224 108.673 25.932 109.169 25.732C109.673 25.524 110.233 25.42 110.849 25.42C111.465 25.42 112.021 25.524 112.517 25.732C113.021 25.932 113.449 26.22 113.801 26.596C114.161 26.972 114.437 27.428 114.629 27.964C114.821 28.492 114.917 29.088 114.917 29.752C114.917 30.416 114.821 31.016 114.629 31.552C114.437 32.088 114.161 32.548 113.801 32.932C113.449 33.316 113.021 33.612 112.517 33.82C112.021 34.02 111.465 34.12 110.849 34.12ZM110.849 32.8C111.369 32.8 111.809 32.68 112.169 32.44C112.537 32.2 112.817 31.852 113.009 31.396C113.209 30.94 113.309 30.396 113.309 29.764C113.309 29.124 113.213 28.58 113.021 28.132C112.829 27.676 112.549 27.332 112.181 27.1C111.813 26.86 111.369 26.74 110.849 26.74C110.337 26.74 109.897 26.86 109.529 27.1C109.161 27.332 108.877 27.676 108.677 28.132C108.485 28.58 108.389 29.124 108.389 29.764C108.389 30.396 108.485 30.94 108.677 31.396C108.877 31.852 109.161 32.2 109.529 32.44C109.897 32.68 110.337 32.8 110.849 32.8ZM116.479 34V25.54H120.151C121.079 25.54 121.795 25.764 122.299 26.212C122.803 26.652 123.055 27.272 123.055 28.072C123.055 28.592 122.939 29.04 122.707 29.416C122.483 29.792 122.155 30.08 121.723 30.28C121.291 30.48 120.767 30.58 120.151 30.58L120.259 30.4H120.655C120.983 30.4 121.267 30.48 121.507 30.64C121.755 30.8 121.971 31.052 122.155 31.396L123.571 34H121.879L120.415 31.3C120.319 31.124 120.211 30.988 120.091 30.892C119.971 30.788 119.835 30.716 119.683 30.676C119.531 30.636 119.355 30.616 119.155 30.616H118.015V34H116.479ZM118.015 29.476H119.887C120.439 29.476 120.855 29.364 121.135 29.14C121.423 28.908 121.567 28.564 121.567 28.108C121.567 27.66 121.423 27.324 121.135 27.1C120.855 26.868 120.439 26.752 119.887 26.752H118.015V29.476ZM126.511 34V26.824H123.607V25.54H130.951V26.824H128.047V34H126.511ZM131.924 34V25.54H137.456V26.764H133.46V29.152H137.204V30.376H133.46V34H131.924ZM142.302 34.12C141.686 34.12 141.126 34.02 140.622 33.82C140.126 33.612 139.698 33.316 139.338 32.932C138.986 32.548 138.714 32.088 138.522 31.552C138.33 31.016 138.234 30.42 138.234 29.764C138.234 29.1 138.33 28.504 138.522 27.976C138.714 27.44 138.986 26.984 139.338 26.608C139.698 26.224 140.126 25.932 140.622 25.732C141.126 25.524 141.686 25.42 142.302 25.42C142.918 25.42 143.474 25.524 143.97 25.732C144.474 25.932 144.902 26.22 145.254 26.596C145.614 26.972 145.89 27.428 146.082 27.964C146.274 28.492 146.37 29.088 146.37 29.752C146.37 30.416 146.274 31.016 146.082 31.552C145.89 32.088 145.614 32.548 145.254 32.932C144.902 33.316 144.474 33.612 143.97 33.82C143.474 34.02 142.918 34.12 142.302 34.12ZM142.302 32.8C142.822 32.8 143.262 32.68 143.622 32.44C143.99 32.2 144.27 31.852 144.462 31.396C144.662 30.94 144.762 30.396 144.762 29.764C144.762 29.124 144.666 28.58 144.474 28.132C144.282 27.676 144.002 27.332 143.634 27.1C143.266 26.86 142.822 26.74 142.302 26.74C141.79 26.74 141.35 26.86 140.982 27.1C140.614 27.332 140.33 27.676 140.13 28.132C139.938 28.58 139.842 29.124 139.842 29.764C139.842 30.396 139.938 30.94 140.13 31.396C140.33 31.852 140.614 32.2 140.982 32.44C141.35 32.68 141.79 32.8 142.302 32.8ZM147.932 34V25.54H149.468V32.692H153.524V34H147.932ZM154.67 34V25.54H156.206V34H154.67ZM161.837 34.12C161.221 34.12 160.661 34.02 160.157 33.82C159.661 33.612 159.233 33.316 158.873 32.932C158.521 32.548 158.249 32.088 158.057 31.552C157.865 31.016 157.769 30.42 157.769 29.764C157.769 29.1 157.865 28.504 158.057 27.976C158.249 27.44 158.521 26.984 158.873 26.608C159.233 26.224 159.661 25.932 160.157 25.732C160.661 25.524 161.221 25.42 161.837 25.42C162.453 25.42 163.009 25.524 163.505 25.732C164.009 25.932 164.437 26.22 164.789 26.596C165.149 26.972 165.425 27.428 165.617 27.964C165.809 28.492 165.905 29.088 165.905 29.752C165.905 30.416 165.809 31.016 165.617 31.552C165.425 32.088 165.149 32.548 164.789 32.932C164.437 33.316 164.009 33.612 163.505 33.82C163.009 34.02 162.453 34.12 161.837 34.12ZM161.837 32.8C162.357 32.8 162.797 32.68 163.157 32.44C163.525 32.2 163.805 31.852 163.997 31.396C164.197 30.94 164.297 30.396 164.297 29.764C164.297 29.124 164.201 28.58 164.009 28.132C163.817 27.676 163.537 27.332 163.169 27.1C162.801 26.86 162.357 26.74 161.837 26.74C161.325 26.74 160.885 26.86 160.517 27.1C160.149 27.332 159.865 27.676 159.665 28.132C159.473 28.58 159.377 29.124 159.377 29.764C159.377 30.396 159.473 30.94 159.665 31.396C159.865 31.852 160.149 32.2 160.517 32.44C160.885 32.68 161.325 32.8 161.837 32.8Z" fill="white"/>
<mask id="path-9-inside-2_4700_10899" fill="white">
<path d="M24 52H210V96H24V52Z"/>
</mask>
<path d="M210 95H24V97H210V95Z" fill="#23252D" mask="url(#path-9-inside-2_4700_10899)"/>
<path d="M54.1355 71.4852C54.1335 69.0267 54.0963 67.7533 53.3806 66.8814C53.2424 66.713 53.088 66.5586 52.9197 66.4204C51.9997 65.6655 50.6332 65.6655 47.8998 65.6655C45.1665 65.6655 43.7998 65.6655 42.88 66.4204C42.7116 66.5586 42.5572 66.713 42.419 66.8814C41.6641 67.8011 41.6641 69.1677 41.6641 71.9008C41.6641 74.634 41.6641 76.0005 42.419 76.9203C42.5572 77.0887 42.7116 77.2431 42.88 77.3812C43.752 78.0969 45.0255 78.1341 47.4841 78.1361" stroke="white" stroke-linecap="round" stroke-linejoin="round"/>
<path d="M51.6893 71.5204L54.1607 71.4849M51.6777 82.3343L54.149 82.2988M58.3087 75.685L58.2854 78.1514M47.5077 75.6963L47.4844 78.1627M49.5718 71.5204C48.8778 71.6447 47.7639 71.7725 47.5077 73.2073M56.2446 82.2988C56.9404 82.1852 58.0562 82.0744 58.3345 80.6438M56.2446 71.5204C56.9386 71.6447 58.0525 71.7725 58.3087 73.2073M49.5824 82.2977C48.8884 82.1738 47.7744 82.0465 47.5174 80.6119" stroke="white" stroke-linecap="round" stroke-linejoin="round"/>
<path d="M72.86 78.12C71.98 78.12 71.224 77.944 70.592 77.592C69.968 77.232 69.488 76.728 69.152 76.08C68.816 75.424 68.648 74.652 68.648 73.764C68.648 72.876 68.816 72.108 69.152 71.46C69.488 70.812 69.968 70.312 70.592 69.96C71.224 69.6 71.98 69.42 72.86 69.42C73.428 69.42 73.964 69.508 74.468 69.684C74.98 69.86 75.4 70.112 75.728 70.44L75.224 71.664C74.864 71.36 74.496 71.14 74.12 71.004C73.744 70.86 73.34 70.788 72.908 70.788C72.052 70.788 71.4 71.048 70.952 71.568C70.504 72.08 70.28 72.812 70.28 73.764C70.28 74.716 70.504 75.452 70.952 75.972C71.4 76.492 72.052 76.752 72.908 76.752C73.34 76.752 73.744 76.684 74.12 76.548C74.496 76.404 74.864 76.18 75.224 75.876L75.728 77.1C75.4 77.42 74.98 77.672 74.468 77.856C73.964 78.032 73.428 78.12 72.86 78.12ZM77.0685 78V69.54H78.6045V76.692H82.6605V78H77.0685ZM87.1418 78.12C86.5258 78.12 85.9658 78.02 85.4618 77.82C84.9658 77.612 84.5378 77.316 84.1778 76.932C83.8258 76.548 83.5538 76.088 83.3618 75.552C83.1698 75.016 83.0738 74.42 83.0738 73.764C83.0738 73.1 83.1698 72.504 83.3618 71.976C83.5538 71.44 83.8258 70.984 84.1778 70.608C84.5378 70.224 84.9658 69.932 85.4618 69.732C85.9658 69.524 86.5258 69.42 87.1418 69.42C87.7578 69.42 88.3138 69.524 88.8098 69.732C89.3138 69.932 89.7418 70.22 90.0938 70.596C90.4538 70.972 90.7298 71.428 90.9218 71.964C91.1138 72.492 91.2098 73.088 91.2098 73.752C91.2098 74.416 91.1138 75.016 90.9218 75.552C90.7298 76.088 90.4538 76.548 90.0938 76.932C89.7418 77.316 89.3138 77.612 88.8098 77.82C88.3138 78.02 87.7578 78.12 87.1418 78.12ZM87.1418 76.8C87.6618 76.8 88.1018 76.68 88.4618 76.44C88.8298 76.2 89.1098 75.852 89.3018 75.396C89.5018 74.94 89.6018 74.396 89.6018 73.764C89.6018 73.124 89.5058 72.58 89.3138 72.132C89.1218 71.676 88.8418 71.332 88.4738 71.1C88.1058 70.86 87.6618 70.74 87.1418 70.74C86.6298 70.74 86.1898 70.86 85.8218 71.1C85.4538 71.332 85.1698 71.676 84.9698 72.132C84.7778 72.58 84.6818 73.124 84.6818 73.764C84.6818 74.396 84.7778 74.94 84.9698 75.396C85.1698 75.852 85.4538 76.2 85.8218 76.44C86.1898 76.68 86.6298 76.8 87.1418 76.8ZM92.7717 78V69.54H93.9237L98.7837 75.852H98.4717V69.54H99.8997V78H98.7597L93.8997 71.676H94.1997V78H92.7717ZM101.748 78V69.54H107.376V70.764H103.224V73.092H107.112V74.316H103.224V76.776H107.376V78H101.748ZM112.143 78V69.54H115.815C116.439 69.54 116.967 69.644 117.399 69.852C117.831 70.06 118.159 70.36 118.383 70.752C118.607 71.144 118.719 71.62 118.719 72.18C118.719 72.732 118.607 73.208 118.383 73.608C118.159 74 117.831 74.304 117.399 74.52C116.967 74.728 116.439 74.832 115.815 74.832H113.679V78H112.143ZM113.679 73.62H115.575C116.119 73.62 116.531 73.5 116.811 73.26C117.091 73.012 117.231 72.652 117.231 72.18C117.231 71.708 117.091 71.352 116.811 71.112C116.531 70.872 116.119 70.752 115.575 70.752H113.679V73.62ZM123.704 78.12C123.088 78.12 122.528 78.02 122.024 77.82C121.528 77.612 121.1 77.316 120.74 76.932C120.388 76.548 120.116 76.088 119.924 75.552C119.732 75.016 119.636 74.42 119.636 73.764C119.636 73.1 119.732 72.504 119.924 71.976C120.116 71.44 120.388 70.984 120.74 70.608C121.1 70.224 121.528 69.932 122.024 69.732C122.528 69.524 123.088 69.42 123.704 69.42C124.32 69.42 124.876 69.524 125.372 69.732C125.876 69.932 126.304 70.22 126.656 70.596C127.016 70.972 127.292 71.428 127.484 71.964C127.676 72.492 127.772 73.088 127.772 73.752C127.772 74.416 127.676 75.016 127.484 75.552C127.292 76.088 127.016 76.548 126.656 76.932C126.304 77.316 125.876 77.612 125.372 77.82C124.876 78.02 124.32 78.12 123.704 78.12ZM123.704 76.8C124.224 76.8 124.664 76.68 125.024 76.44C125.392 76.2 125.672 75.852 125.864 75.396C126.064 74.94 126.164 74.396 126.164 73.764C126.164 73.124 126.068 72.58 125.876 72.132C125.684 71.676 125.404 71.332 125.036 71.1C124.668 70.86 124.224 70.74 123.704 70.74C123.192 70.74 122.752 70.86 122.384 71.1C122.016 71.332 121.732 71.676 121.532 72.132C121.34 72.58 121.244 73.124 121.244 73.764C121.244 74.396 121.34 74.94 121.532 75.396C121.732 75.852 122.016 76.2 122.384 76.44C122.752 76.68 123.192 76.8 123.704 76.8ZM129.334 78V69.54H133.006C133.934 69.54 134.65 69.764 135.154 70.212C135.658 70.652 135.91 71.272 135.91 72.072C135.91 72.592 135.794 73.04 135.562 73.416C135.338 73.792 135.01 74.08 134.578 74.28C134.146 74.48 133.622 74.58 133.006 74.58L133.114 74.4H133.51C133.838 74.4 134.122 74.48 134.362 74.64C134.61 74.8 134.826 75.052 135.01 75.396L136.426 78H134.734L133.27 75.3C133.174 75.124 133.066 74.988 132.946 74.892C132.826 74.788 132.69 74.716 132.538 74.676C132.386 74.636 132.21 74.616 132.01 74.616H130.87V78H129.334ZM130.87 73.476H132.742C133.294 73.476 133.71 73.364 133.99 73.14C134.278 72.908 134.422 72.564 134.422 72.108C134.422 71.66 134.278 71.324 133.99 71.1C133.71 70.868 133.294 70.752 132.742 70.752H130.87V73.476ZM139.366 78V70.824H136.462V69.54H143.806V70.824H140.902V78H139.366ZM144.779 78V69.54H150.311V70.764H146.315V73.152H150.059V74.376H146.315V78H144.779ZM155.157 78.12C154.541 78.12 153.981 78.02 153.477 77.82C152.981 77.612 152.553 77.316 152.193 76.932C151.841 76.548 151.569 76.088 151.377 75.552C151.185 75.016 151.089 74.42 151.089 73.764C151.089 73.1 151.185 72.504 151.377 71.976C151.569 71.44 151.841 70.984 152.193 70.608C152.553 70.224 152.981 69.932 153.477 69.732C153.981 69.524 154.541 69.42 155.157 69.42C155.773 69.42 156.329 69.524 156.825 69.732C157.329 69.932 157.757 70.22 158.109 70.596C158.469 70.972 158.745 71.428 158.937 71.964C159.129 72.492 159.225 73.088 159.225 73.752C159.225 74.416 159.129 75.016 158.937 75.552C158.745 76.088 158.469 76.548 158.109 76.932C157.757 77.316 157.329 77.612 156.825 77.82C156.329 78.02 155.773 78.12 155.157 78.12ZM155.157 76.8C155.677 76.8 156.117 76.68 156.477 76.44C156.845 76.2 157.125 75.852 157.317 75.396C157.517 74.94 157.617 74.396 157.617 73.764C157.617 73.124 157.521 72.58 157.329 72.132C157.137 71.676 156.857 71.332 156.489 71.1C156.121 70.86 155.677 70.74 155.157 70.74C154.645 70.74 154.205 70.86 153.837 71.1C153.469 71.332 153.185 71.676 152.985 72.132C152.793 72.58 152.697 73.124 152.697 73.764C152.697 74.396 152.793 74.94 152.985 75.396C153.185 75.852 153.469 76.2 153.837 76.44C154.205 76.68 154.645 76.8 155.157 76.8ZM160.787 78V69.54H162.323V76.692H166.379V78H160.787ZM167.526 78V69.54H169.062V78H167.526ZM174.693 78.12C174.077 78.12 173.517 78.02 173.013 77.82C172.517 77.612 172.089 77.316 171.729 76.932C171.377 76.548 171.105 76.088 170.913 75.552C170.721 75.016 170.625 74.42 170.625 73.764C170.625 73.1 170.721 72.504 170.913 71.976C171.105 71.44 171.377 70.984 171.729 70.608C172.089 70.224 172.517 69.932 173.013 69.732C173.517 69.524 174.077 69.42 174.693 69.42C175.309 69.42 175.865 69.524 176.361 69.732C176.865 69.932 177.293 70.22 177.645 70.596C178.005 70.972 178.281 71.428 178.473 71.964C178.665 72.492 178.761 73.088 178.761 73.752C178.761 74.416 178.665 75.016 178.473 75.552C178.281 76.088 178.005 76.548 177.645 76.932C177.293 77.316 176.865 77.612 176.361 77.82C175.865 78.02 175.309 78.12 174.693 78.12ZM174.693 76.8C175.213 76.8 175.653 76.68 176.013 76.44C176.381 76.2 176.661 75.852 176.853 75.396C177.053 74.94 177.153 74.396 177.153 73.764C177.153 73.124 177.057 72.58 176.865 72.132C176.673 71.676 176.393 71.332 176.025 71.1C175.657 70.86 175.213 70.74 174.693 70.74C174.181 70.74 173.741 70.86 173.373 71.1C173.005 71.332 172.721 71.676 172.521 72.132C172.329 72.58 172.233 73.124 172.233 73.764C172.233 74.396 172.329 74.94 172.521 75.396C172.721 75.852 173.005 76.2 173.373 76.44C173.741 76.68 174.181 76.8 174.693 76.8Z" fill="white"/>
<mask id="path-14-inside-3_4700_10899" fill="white">
<path d="M24 96H210V140H24V96Z"/>
</mask>
<path d="M210 139H24V141H210V139Z" fill="#23252D" mask="url(#path-14-inside-3_4700_10899)"/>
<path d="M50.0013 120.083V111.75M50.0013 120.083C49.4178 120.083 48.3276 118.421 47.918 118M50.0013 120.083C50.5848 120.083 51.6751 118.421 52.0846 118" stroke="white" stroke-linecap="round" stroke-linejoin="round"/>
<path d="M56.6654 121.75C56.6654 123.818 56.2337 124.25 54.1654 124.25H45.832C43.7637 124.25 43.332 123.818 43.332 121.75" stroke="white" stroke-linecap="round" stroke-linejoin="round"/>
<path d="M68.924 122V113.54H72.068C73.012 113.54 73.812 113.704 74.468 114.032C75.132 114.36 75.636 114.84 75.98 115.472C76.332 116.096 76.508 116.86 76.508 117.764C76.508 118.668 76.332 119.436 75.98 120.068C75.636 120.7 75.132 121.18 74.468 121.508C73.812 121.836 73.012 122 72.068 122H68.924ZM70.46 120.728H71.972C72.956 120.728 73.688 120.484 74.168 119.996C74.656 119.5 74.9 118.756 74.9 117.764C74.9 116.772 74.656 116.032 74.168 115.544C73.68 115.056 72.948 114.812 71.972 114.812H70.46V120.728ZM81.8566 122.12C81.2406 122.12 80.6806 122.02 80.1766 121.82C79.6806 121.612 79.2526 121.316 78.8926 120.932C78.5406 120.548 78.2686 120.088 78.0766 119.552C77.8846 119.016 77.7886 118.42 77.7886 117.764C77.7886 117.1 77.8846 116.504 78.0766 115.976C78.2686 115.44 78.5406 114.984 78.8926 114.608C79.2526 114.224 79.6806 113.932 80.1766 113.732C80.6806 113.524 81.2406 113.42 81.8566 113.42C82.4726 113.42 83.0286 113.524 83.5246 113.732C84.0286 113.932 84.4566 114.22 84.8086 114.596C85.1686 114.972 85.4446 115.428 85.6366 115.964C85.8286 116.492 85.9246 117.088 85.9246 117.752C85.9246 118.416 85.8286 119.016 85.6366 119.552C85.4446 120.088 85.1686 120.548 84.8086 120.932C84.4566 121.316 84.0286 121.612 83.5246 121.82C83.0286 122.02 82.4726 122.12 81.8566 122.12ZM81.8566 120.8C82.3766 120.8 82.8166 120.68 83.1766 120.44C83.5446 120.2 83.8246 119.852 84.0166 119.396C84.2166 118.94 84.3166 118.396 84.3166 117.764C84.3166 117.124 84.2206 116.58 84.0286 116.132C83.8366 115.676 83.5566 115.332 83.1886 115.1C82.8206 114.86 82.3766 114.74 81.8566 114.74C81.3446 114.74 80.9046 114.86 80.5366 115.1C80.1686 115.332 79.8846 115.676 79.6846 116.132C79.4926 116.58 79.3966 117.124 79.3966 117.764C79.3966 118.396 79.4926 118.94 79.6846 119.396C79.8846 119.852 80.1686 120.2 80.5366 120.44C80.9046 120.68 81.3446 120.8 81.8566 120.8ZM89.6036 122L86.6156 113.54H88.1996L90.5396 120.476H90.0596L92.5076 113.54H93.6476L96.0116 120.476H95.5916L97.9676 113.54H99.4676L96.4556 122H95.1836L92.9036 115.496H93.1796L90.8756 122H89.6036ZM100.635 122V113.54H101.787L106.647 119.852H106.335V113.54H107.763V122H106.623L101.763 115.676H102.063V122H100.635ZM109.612 122V113.54H111.148V120.692H115.204V122H109.612ZM119.685 122.12C119.069 122.12 118.509 122.02 118.005 121.82C117.509 121.612 117.081 121.316 116.721 120.932C116.369 120.548 116.097 120.088 115.905 119.552C115.713 119.016 115.617 118.42 115.617 117.764C115.617 117.1 115.713 116.504 115.905 115.976C116.097 115.44 116.369 114.984 116.721 114.608C117.081 114.224 117.509 113.932 118.005 113.732C118.509 113.524 119.069 113.42 119.685 113.42C120.301 113.42 120.857 113.524 121.353 113.732C121.857 113.932 122.285 114.22 122.637 114.596C122.997 114.972 123.273 115.428 123.465 115.964C123.657 116.492 123.753 117.088 123.753 117.752C123.753 118.416 123.657 119.016 123.465 119.552C123.273 120.088 122.997 120.548 122.637 120.932C122.285 121.316 121.857 121.612 121.353 121.82C120.857 122.02 120.301 122.12 119.685 122.12ZM119.685 120.8C120.205 120.8 120.645 120.68 121.005 120.44C121.373 120.2 121.653 119.852 121.845 119.396C122.045 118.94 122.145 118.396 122.145 117.764C122.145 117.124 122.049 116.58 121.857 116.132C121.665 115.676 121.385 115.332 121.017 115.1C120.649 114.86 120.205 114.74 119.685 114.74C119.173 114.74 118.733 114.86 118.365 115.1C117.997 115.332 117.713 115.676 117.513 116.132C117.321 116.58 117.225 117.124 117.225 117.764C117.225 118.396 117.321 118.94 117.513 119.396C117.713 119.852 117.997 120.2 118.365 120.44C118.733 120.68 119.173 120.8 119.685 120.8ZM124.227 122L128.055 113.54H129.315L133.143 122H131.583L130.563 119.624L131.211 120.044H126.147L126.795 119.624L125.787 122H124.227ZM128.667 115.208L126.987 119.204L126.675 118.82H130.683L130.383 119.204L128.691 115.208H128.667ZM134.069 122V113.54H137.213C138.157 113.54 138.957 113.704 139.613 114.032C140.277 114.36 140.781 114.84 141.125 115.472C141.477 116.096 141.653 116.86 141.653 117.764C141.653 118.668 141.477 119.436 141.125 120.068C140.781 120.7 140.277 121.18 139.613 121.508C138.957 121.836 138.157 122 137.213 122H134.069ZM135.605 120.728H137.117C138.101 120.728 138.833 120.484 139.313 119.996C139.801 119.5 140.045 118.756 140.045 117.764C140.045 116.772 139.801 116.032 139.313 115.544C138.825 115.056 138.093 114.812 137.117 114.812H135.605V120.728ZM148.484 122V114.824H145.58V113.54H152.924V114.824H150.02V122H148.484ZM153.897 122V113.54H157.569C158.497 113.54 159.213 113.764 159.717 114.212C160.221 114.652 160.473 115.272 160.473 116.072C160.473 116.592 160.357 117.04 160.125 117.416C159.901 117.792 159.573 118.08 159.141 118.28C158.709 118.48 158.185 118.58 157.569 118.58L157.677 118.4H158.073C158.401 118.4 158.685 118.48 158.925 118.64C159.173 118.8 159.389 119.052 159.573 119.396L160.989 122H159.297L157.833 119.3C157.737 119.124 157.629 118.988 157.509 118.892C157.389 118.788 157.253 118.716 157.101 118.676C156.949 118.636 156.773 118.616 156.573 118.616H155.433V122H153.897ZM155.433 117.476H157.305C157.857 117.476 158.273 117.364 158.553 117.14C158.841 116.908 158.985 116.564 158.985 116.108C158.985 115.66 158.841 115.324 158.553 115.1C158.273 114.868 157.857 114.752 157.305 114.752H155.433V117.476ZM161.059 122L164.887 113.54H166.147L169.975 122H168.415L167.395 119.624L168.043 120.044H162.979L163.627 119.624L162.619 122H161.059ZM165.499 115.208L163.819 119.204L163.507 118.82H167.515L167.215 119.204L165.523 115.208H165.499ZM170.901 122V113.54H174.045C174.989 113.54 175.789 113.704 176.445 114.032C177.109 114.36 177.613 114.84 177.957 115.472C178.309 116.096 178.485 116.86 178.485 117.764C178.485 118.668 178.309 119.436 177.957 120.068C177.613 120.7 177.109 121.18 176.445 121.508C175.789 121.836 174.989 122 174.045 122H170.901ZM172.437 120.728H173.949C174.933 120.728 175.665 120.484 176.145 119.996C176.633 119.5 176.877 118.756 176.877 117.764C176.877 116.772 176.633 116.032 176.145 115.544C175.657 115.056 174.925 114.812 173.949 114.812H172.437V120.728ZM180.041 122V113.54H185.669V114.764H181.517V117.092H185.405V118.316H181.517V120.776H185.669V122H180.041ZM190 122.12C189.56 122.12 189.136 122.08 188.728 122C188.328 121.928 187.956 121.82 187.612 121.676C187.276 121.532 186.976 121.36 186.712 121.16L187.18 119.948C187.444 120.132 187.72 120.292 188.008 120.428C188.304 120.556 188.616 120.656 188.944 120.728C189.28 120.792 189.632 120.824 190 120.824C190.632 120.824 191.092 120.72 191.38 120.512C191.668 120.296 191.812 120.02 191.812 119.684C191.812 119.5 191.768 119.344 191.68 119.216C191.592 119.08 191.448 118.964 191.248 118.868C191.048 118.772 190.784 118.692 190.456 118.628L189.136 118.352C188.376 118.192 187.808 117.924 187.432 117.548C187.064 117.164 186.88 116.66 186.88 116.036C186.88 115.508 187.02 115.048 187.3 114.656C187.58 114.264 187.968 113.96 188.464 113.744C188.96 113.528 189.532 113.42 190.18 113.42C190.564 113.42 190.932 113.46 191.284 113.54C191.644 113.612 191.972 113.724 192.268 113.876C192.572 114.02 192.836 114.196 193.06 114.404L192.592 115.556C192.256 115.276 191.888 115.068 191.488 114.932C191.088 114.788 190.648 114.716 190.168 114.716C189.8 114.716 189.484 114.768 189.22 114.872C188.956 114.976 188.752 115.124 188.608 115.316C188.472 115.5 188.404 115.72 188.404 115.976C188.404 116.264 188.5 116.496 188.692 116.672C188.884 116.84 189.212 116.972 189.676 117.068L190.984 117.344C191.776 117.512 192.364 117.776 192.748 118.136C193.14 118.496 193.336 118.976 193.336 119.576C193.336 120.08 193.2 120.524 192.928 120.908C192.656 121.292 192.268 121.592 191.764 121.808C191.268 122.016 190.68 122.12 190 122.12Z" fill="white"/>
<path d="M56.25 156.583L55.7336 164.938C55.6016 167.072 55.5357 168.139 55.0007 168.907C54.7361 169.286 54.3956 169.606 54.0006 169.847C53.2017 170.333 52.1325 170.333 49.9939 170.333C47.8526 170.333 46.7819 170.333 45.9825 169.846C45.5873 169.605 45.2467 169.284 44.9822 168.904C44.4474 168.136 44.3829 167.067 44.2538 164.929L43.75 156.583" stroke="#EF454A" stroke-linecap="round"/>
<path d="M42.5 156.583H57.5M53.3797 156.583L52.8109 155.41C52.433 154.63 52.244 154.24 51.9181 153.997C51.8458 153.943 51.7693 153.895 51.6892 153.854C51.3283 153.667 50.8951 153.667 50.0287 153.667C49.1407 153.667 48.6967 153.667 48.3297 153.862C48.2484 153.905 48.1708 153.955 48.0977 154.011C47.768 154.264 47.5839 154.668 47.2155 155.476L46.7108 156.583" stroke="#EF454A" stroke-linecap="round"/>
<path d="M47.918 165.75V160.75" stroke="#EF454A" stroke-linecap="round"/>
<path d="M52.082 165.75V160.75" stroke="#EF454A" stroke-linecap="round"/>
<path d="M68.924 166V157.54H72.068C73.012 157.54 73.812 157.704 74.468 158.032C75.132 158.36 75.636 158.84 75.98 159.472C76.332 160.096 76.508 160.86 76.508 161.764C76.508 162.668 76.332 163.436 75.98 164.068C75.636 164.7 75.132 165.18 74.468 165.508C73.812 165.836 73.012 166 72.068 166H68.924ZM70.46 164.728H71.972C72.956 164.728 73.688 164.484 74.168 163.996C74.656 163.5 74.9 162.756 74.9 161.764C74.9 160.772 74.656 160.032 74.168 159.544C73.68 159.056 72.948 158.812 71.972 158.812H70.46V164.728ZM78.0646 166V157.54H83.6926V158.764H79.5406V161.092H83.4286V162.316H79.5406V164.776H83.6926V166H78.0646ZM85.2248 166V157.54H86.7608V164.692H90.8168V166H85.2248ZM91.9631 166V157.54H97.5911V158.764H93.4391V161.092H97.3271V162.316H93.4391V164.776H97.5911V166H91.9631ZM101.105 166V158.824H98.2006V157.54H105.545V158.824H102.641V166H101.105ZM106.518 166V157.54H112.146V158.764H107.994V161.092H111.882V162.316H107.994V164.776H112.146V166H106.518Z" fill="#EF454A"/>
</g>
<defs>
<filter id="filter0_d_4700_10899" x="0" y="0" width="234" height="224" filterUnits="userSpaceOnUse" color-interpolation-filters="sRGB">
<feFlood flood-opacity="0" result="BackgroundImageFix"/>
<feColorMatrix in="SourceAlpha" type="matrix" values="0 0 0 0 0 0 0 0 0 0 0 0 0 0 0 0 0 0 127 0" result="hardAlpha"/>
<feOffset dy="16"/>
<feGaussianBlur stdDeviation="12"/>
<feComposite in2="hardAlpha" operator="out"/>
<feColorMatrix type="matrix" values="0 0 0 0 0 0 0 0 0 0 0 0 0 0 0 0 0 0 0.48 0"/>
<feBlend mode="normal" in2="BackgroundImageFix" result="effect1_dropShadow_4700_10899"/>
<feBlend mode="normal" in="SourceGraphic" in2="effect1_dropShadow_4700_10899" result="shape"/>
</filter>
</defs>
</svg>
