<svg width="48" height="48" viewBox="0 0 48 48" fill="none" xmlns="http://www.w3.org/2000/svg">
    <circle cx="24" cy="24" r="24" fill="white" />
    <path
        d="M13.334 18.6666C13.334 17.2521 13.8959 15.8955 14.8961 14.8953C15.8963 13.8952 17.2528 13.3333 18.6673 13.3333H29.334C30.7485 13.3333 32.105 13.8952 33.1052 14.8953C34.1054 15.8955 34.6673 17.2521 34.6673 18.6666V29.3333C34.6673 30.7477 34.1054 32.1043 33.1052 33.1045C32.105 34.1047 30.7485 34.6666 29.334 34.6666H18.6673C17.2528 34.6666 15.8963 34.1047 14.8961 33.1045C13.8959 32.1043 13.334 30.7477 13.334 29.3333V18.6666Z"
        stroke="#241F37" stroke-width="1.5" stroke-linecap="round" stroke-linejoin="round" />
    <path d="M20 24C20 25.0609 20.4214 26.0783 21.1716 26.8284C21.9217 27.5786 22.9391 28 24 28C25.0609 28 26.0783 27.5786 26.8284 26.8284C27.5786 26.0783 28 25.0609 28 24C28 22.9391 27.5786 21.9217 26.8284 21.1716C26.0783 20.4214 25.0609 20 24 20C22.9391 20 21.9217 20.4214 21.1716 21.1716C20.4214 21.9217 20 22.9391 20 24Z" stroke="#241F37" stroke-width="1.5" stroke-linecap="round"
        stroke-linejoin="round" />
    <path d="M30 18V18.0133" stroke="#241F37" stroke-width="1.5" stroke-linecap="round" stroke-linejoin="round" />
</svg>