<svg width="48" height="48" viewBox="0 0 48 48" fill="none" xmlns="http://www.w3.org/2000/svg">
<path fill-rule="evenodd" clip-rule="evenodd" d="M24.0001 47.9991C10.7453 47.9991 0.00012207 37.254 0.00012207 23.9991C0.00012207 10.7443 10.7453 -0.000854492 24.0001 -0.000854492C37.255 -0.000854492 48.0001 10.7443 48.0001 23.9991C48.0001 37.254 37.255 47.9991 24.0001 47.9991ZM25.0379 18.0102C22.8884 18.9043 18.5924 20.7547 12.15 23.5616C11.1038 23.9776 10.5558 24.3846 10.5059 24.7826C10.4216 25.4551 11.2638 25.7199 12.4107 26.0806C12.5667 26.1296 12.7284 26.1804 12.8941 26.2343C14.0225 26.6011 15.5403 27.0302 16.3294 27.0472C17.0451 27.0627 17.844 26.7676 18.726 26.162C24.7453 22.0987 27.8526 20.045 28.0476 20.0007C28.1853 19.9695 28.376 19.9302 28.5052 20.0451C28.6344 20.1599 28.6217 20.3774 28.608 20.4358C28.5246 20.7915 25.2186 23.865 23.5077 25.4556C22.9743 25.9515 22.596 26.3032 22.5187 26.3835C22.3454 26.5635 22.1688 26.7337 21.9991 26.8973C20.9509 27.9078 20.1648 28.6656 22.0427 29.9032C22.9451 30.4979 23.6672 30.9896 24.3877 31.4802C25.1745 32.016 25.9592 32.5504 26.9745 33.216C27.2332 33.3856 27.4803 33.5617 27.7209 33.7332C28.6365 34.386 29.4591 34.9725 30.4754 34.8789C31.0659 34.8246 31.6759 34.2693 31.9857 32.6132C32.7178 28.6994 34.1569 20.2193 34.4895 16.7248C34.5186 16.4187 34.4819 16.0269 34.4525 15.8549C34.4231 15.6829 34.3615 15.4378 34.138 15.2564C33.8732 15.0415 33.4644 14.9962 33.2816 14.9993C32.4504 15.0141 31.1751 15.4575 25.0379 18.0102Z" fill="currentColor"/>
</svg>
