<svg width="48" height="48" viewBox="0 0 48 48" fill="none" xmlns="http://www.w3.org/2000/svg">
<path fill-rule="evenodd" clip-rule="evenodd" d="M24.0001 -0.000854492C10.7453 -0.000854492 0.00012207 10.7443 0.00012207 23.9991C0.00012207 37.254 10.7453 47.9991 24.0001 47.9991C37.255 47.9991 48.0001 37.254 48.0001 23.9991C48.0001 10.7443 37.255 -0.000854492 24.0001 -0.000854492ZM24.1287 35.9991C24.2916 30.6849 24.4287 28.2591 26.3144 26.3134C28.2601 24.4277 30.6858 24.2991 36.0001 24.1277C36.0001 28.9191 35.983 32.502 34.2687 34.2677C32.503 35.982 29.083 35.9991 24.1287 35.9991ZM13.7316 34.2677C12.0173 32.502 12.0001 28.9191 12.0001 24.1277C17.3144 24.2906 19.7401 24.4277 21.6858 26.3134C23.5716 28.2591 23.7001 30.6849 23.8716 35.9991C18.9173 35.9991 15.4973 35.982 13.7316 34.2677ZM13.7316 13.7306C15.4973 12.0163 18.9258 11.9991 23.8716 11.9991C23.7087 17.3134 23.5716 19.7391 21.6858 21.6849C19.7401 23.5706 17.3144 23.6991 12.0001 23.8706C12.0001 19.0791 12.0173 15.4963 13.7316 13.7306ZM24.1287 11.9991C24.2916 17.3134 24.4287 19.7391 26.3144 21.6849C28.2601 23.5706 30.6858 23.6991 36.0001 23.8706C36.0001 19.0791 35.983 15.4963 34.2687 13.7306C32.503 12.0163 29.083 11.9991 24.1287 11.9991Z" fill="currentColor"/>
</svg>
