<svg width="48" height="48" viewBox="0 0 48 48" fill="none" xmlns="http://www.w3.org/2000/svg">
    <circle cx="24" cy="24" r="24" fill="white" />
    <path
        d="M10.666 18.6666C10.666 17.2521 11.2279 15.8955 12.2281 14.8953C13.2283 13.8952 14.5849 13.3333 15.9993 13.3333H31.9993C33.4138 13.3333 34.7704 13.8952 35.7706 14.8953C36.7708 15.8955 37.3327 17.2521 37.3327 18.6666V29.3333C37.3327 30.7477 36.7708 32.1043 35.7706 33.1045C34.7704 34.1047 33.4138 34.6666 31.9993 34.6666H15.9993C14.5849 34.6666 13.2283 34.1047 12.2281 33.1045C11.2279 32.1043 10.666 30.7477 10.666 29.3333V18.6666Z"
        stroke="#241F37" stroke-width="1.5" stroke-linecap="round" stroke-linejoin="round" />
    <path d="M21.334 20L28.0007 24L21.334 28V20Z" stroke="#241F37" stroke-width="1.5" stroke-linecap="round" stroke-linejoin="round" />
</svg>