<svg width="18" height="20" viewBox="0 0 18 20" fill="none" xmlns="http://www.w3.org/2000/svg">
<path d="M18 9.1833V6.28029C18 4.64029 18 3.82028 17.5959 3.28529C17.1918 2.75029 16.2781 2.49056 14.4507 1.9711C13.2022 1.6162 12.1016 1.18863 11.2223 0.79829C10.0234 0.2661 9.424 0 9 0C8.576 0 7.9766 0.2661 6.77771 0.79829C5.89839 1.18863 4.79784 1.61619 3.54933 1.9711C1.72193 2.49056 0.80822 2.75029 0.40411 3.28529C-5.96046e-08 3.82028 0 4.64029 0 6.28029V9.1833C0 14.8085 5.06277 18.1835 7.594 19.5194C8.2011 19.8398 8.5046 20 9 20C9.4954 20 9.7989 19.8398 10.406 19.5194C12.9372 18.1835 18 14.8085 18 9.1833Z" fill="url(#paint0_linear_921_3339)"/>
<path d="M8.432 14.12C8.048 14.12 7.672 14.08 7.304 14C6.944 13.928 6.608 13.82 6.296 13.676C5.984 13.532 5.712 13.36 5.48 13.16L5.984 11.984C6.36 12.272 6.744 12.484 7.136 12.62C7.528 12.756 7.944 12.824 8.384 12.824C8.736 12.824 9.032 12.776 9.272 12.68C9.512 12.584 9.692 12.44 9.812 12.248C9.94 12.056 10.004 11.824 10.004 11.552C10.004 11.152 9.868 10.856 9.596 10.664C9.332 10.464 8.944 10.364 8.432 10.364H7.076V9.092H8.288C8.592 9.092 8.852 9.044 9.068 8.948C9.284 8.844 9.452 8.7 9.572 8.516C9.692 8.332 9.752 8.108 9.752 7.844C9.752 7.476 9.628 7.196 9.38 7.004C9.14 6.812 8.788 6.716 8.324 6.716C7.908 6.716 7.52 6.788 7.16 6.932C6.8 7.068 6.456 7.284 6.128 7.58L5.624 6.428C5.96 6.108 6.38 5.86 6.884 5.684C7.388 5.508 7.912 5.42 8.456 5.42C9.04 5.42 9.54 5.512 9.956 5.696C10.372 5.872 10.688 6.128 10.904 6.464C11.128 6.792 11.24 7.192 11.24 7.664C11.24 8.168 11.1 8.604 10.82 8.972C10.54 9.332 10.156 9.572 9.668 9.692V9.548C10.052 9.612 10.38 9.74 10.652 9.932C10.924 10.124 11.132 10.368 11.276 10.664C11.42 10.96 11.492 11.3 11.492 11.684C11.492 12.18 11.368 12.612 11.12 12.98C10.872 13.348 10.52 13.632 10.064 13.832C9.608 14.024 9.064 14.12 8.432 14.12Z" fill="white"/>
<defs>
<linearGradient id="paint0_linear_921_3339" x1="0" y1="10" x2="18" y2="10" gradientUnits="userSpaceOnUse">
<stop stop-color="#734E2B"/>
<stop offset="1" stop-color="#D99351"/>
</linearGradient>
</defs>
</svg>
