<svg width="18" height="20" viewBox="0 0 18 20" fill="none" xmlns="http://www.w3.org/2000/svg">
<path d="M18 9.1833V6.28029C18 4.64029 18 3.82028 17.5959 3.28529C17.1918 2.75029 16.2781 2.49056 14.4507 1.9711C13.2022 1.6162 12.1016 1.18863 11.2223 0.79829C10.0234 0.2661 9.424 0 9 0C8.576 0 7.9766 0.2661 6.77771 0.79829C5.89839 1.18863 4.79784 1.61619 3.54933 1.9711C1.72193 2.49056 0.80822 2.75029 0.40411 3.28529C-5.96046e-08 3.82028 0 4.64029 0 6.28029V9.1833C0 14.8085 5.06277 18.1835 7.594 19.5194C8.2011 19.8398 8.5046 20 9 20C9.4954 20 9.7989 19.8398 10.406 19.5194C12.9372 18.1835 18 14.8085 18 9.1833Z" fill="url(#paint0_linear_921_3344)"/>
<path d="M5.96 14V12.86L8.696 9.944C8.944 9.68 9.14 9.436 9.284 9.212C9.436 8.988 9.548 8.772 9.62 8.564C9.692 8.356 9.728 8.148 9.728 7.94C9.728 7.54 9.6 7.236 9.344 7.028C9.096 6.82 8.732 6.716 8.252 6.716C7.876 6.716 7.508 6.788 7.148 6.932C6.796 7.068 6.456 7.284 6.128 7.58L5.612 6.428C5.948 6.124 6.368 5.88 6.872 5.696C7.376 5.512 7.9 5.42 8.444 5.42C9.052 5.42 9.564 5.512 9.98 5.696C10.396 5.88 10.712 6.148 10.928 6.5C11.144 6.852 11.252 7.28 11.252 7.784C11.252 8.04 11.22 8.292 11.156 8.54C11.1 8.78 11.008 9.02 10.88 9.26C10.76 9.5 10.604 9.748 10.412 10.004C10.228 10.252 10.004 10.512 9.74 10.784L7.484 13.136V12.728H11.576V14H5.96Z" fill="white"/>
<defs>
<linearGradient id="paint0_linear_921_3344" x1="18" y1="10" x2="0" y2="10" gradientUnits="userSpaceOnUse">
<stop stop-color="#9BE4FF"/>
<stop offset="1" stop-color="#5D8999"/>
</linearGradient>
</defs>
</svg>
