<svg width="18" height="20" viewBox="0 0 18 20" fill="none" xmlns="http://www.w3.org/2000/svg">
<path d="M18 9.1833V6.28029C18 4.64029 18 3.82028 17.5959 3.28529C17.1918 2.75029 16.2781 2.49056 14.4507 1.9711C13.2022 1.6162 12.1016 1.18863 11.2223 0.79829C10.0234 0.2661 9.424 0 9 0C8.576 0 7.9766 0.2661 6.77771 0.79829C5.89839 1.18863 4.79784 1.61619 3.54933 1.9711C1.72193 2.49056 0.80822 2.75029 0.40411 3.28529C-5.96046e-08 3.82028 0 4.64029 0 6.28029V9.1833C0 14.8085 5.06277 18.1835 7.594 19.5194C8.2011 19.8398 8.5046 20 9 20C9.4954 20 9.7989 19.8398 10.406 19.5194C12.9372 18.1835 18 14.8085 18 9.1833Z" fill="url(#paint0_linear_921_3334)"/>
<path d="M9.188 14V12.392H5.504V11.264L9.452 5.54H10.724V11.12H11.912V12.392H10.724V14H9.188ZM9.188 11.12V7.376H9.536L6.704 11.528V11.12H9.188Z" fill="white"/>
<defs>
<linearGradient id="paint0_linear_921_3334" x1="18" y1="10" x2="0" y2="10" gradientUnits="userSpaceOnUse">
<stop stop-color="#A06AFF"/>
<stop offset="1" stop-color="#482090"/>
</linearGradient>
</defs>
</svg>
