<svg width="373" height="72" viewBox="0 0 373 72" fill="none" xmlns="http://www.w3.org/2000/svg">
<rect x="1" y="28" width="372" height="24" rx="4" fill="#23252D"/>
<rect x="1" y="28" width="223" height="24" rx="4" fill="url(#paint0_linear_4683_3648)"/>
<circle cx="190" cy="40" r="12.5" fill="#A06AFF" stroke="#181A20" stroke-width="5"/>
<path d="M4.12 69.38V67.808L4.396 68.072C3.812 68.056 3.26 67.968 2.74 67.808C2.228 67.64 1.784 67.408 1.408 67.112L1.876 65.9C2.124 66.084 2.388 66.244 2.668 66.38C2.956 66.508 3.256 66.608 3.568 66.68C3.888 66.744 4.228 66.776 4.588 66.776C5.172 66.776 5.6 66.672 5.872 66.464C6.144 66.256 6.28 65.996 6.28 65.684C6.28 65.404 6.188 65.18 6.004 65.012C5.82 64.844 5.492 64.708 5.02 64.604L3.748 64.328C3.028 64.168 2.484 63.904 2.116 63.536C1.756 63.16 1.576 62.664 1.576 62.048C1.576 61.576 1.692 61.156 1.924 60.788C2.156 60.412 2.48 60.112 2.896 59.888C3.312 59.664 3.8 59.532 4.36 59.492L4.12 59.672V58.16H5.32V59.672L5.068 59.48C5.524 59.504 5.972 59.596 6.412 59.756C6.86 59.916 7.232 60.148 7.528 60.452L7.072 61.604C6.768 61.324 6.42 61.116 6.028 60.98C5.636 60.836 5.208 60.764 4.744 60.764C4.248 60.764 3.848 60.88 3.544 61.112C3.248 61.336 3.1 61.632 3.1 62C3.1 62.272 3.192 62.492 3.376 62.66C3.56 62.828 3.856 62.956 4.264 63.044L5.536 63.32C6.304 63.488 6.872 63.756 7.24 64.124C7.616 64.484 7.804 64.964 7.804 65.564C7.804 66.028 7.688 66.44 7.456 66.8C7.224 67.152 6.904 67.436 6.496 67.652C6.096 67.86 5.628 67.992 5.092 68.048L5.32 67.796V69.38H4.12ZM9.15531 68V66.86L11.8913 63.944C12.1393 63.68 12.3353 63.436 12.4793 63.212C12.6313 62.988 12.7433 62.772 12.8153 62.564C12.8873 62.356 12.9233 62.148 12.9233 61.94C12.9233 61.54 12.7953 61.236 12.5393 61.028C12.2913 60.82 11.9273 60.716 11.4473 60.716C11.0713 60.716 10.7033 60.788 10.3433 60.932C9.99131 61.068 9.65131 61.284 9.32331 61.58L8.80731 60.428C9.14331 60.124 9.56331 59.88 10.0673 59.696C10.5713 59.512 11.0953 59.42 11.6393 59.42C12.2473 59.42 12.7593 59.512 13.1753 59.696C13.5913 59.88 13.9073 60.148 14.1233 60.5C14.3393 60.852 14.4473 61.28 14.4473 61.784C14.4473 62.04 14.4153 62.292 14.3513 62.54C14.2953 62.78 14.2033 63.02 14.0753 63.26C13.9553 63.5 13.7993 63.748 13.6073 64.004C13.4233 64.252 13.1993 64.512 12.9353 64.784L10.6793 67.136V66.728H14.7713V68H9.15531ZM16.4226 68L20.5146 60.296V60.824H16.0506V59.54H21.9426V60.692L18.1146 68H16.4226ZM26.7739 68V66.392H23.0899V65.264L27.0379 59.54H28.3099V65.12H29.4979V66.392H28.3099V68H26.7739ZM26.7739 65.12V61.376H27.1219L24.2899 65.528V65.12H26.7739ZM30.4293 68V66.332H32.1093V68H30.4293ZM36.1898 68.12C35.8058 68.12 35.4298 68.08 35.0618 68C34.7018 67.928 34.3658 67.82 34.0538 67.676C33.7418 67.532 33.4698 67.36 33.2378 67.16L33.7418 65.984C34.1178 66.272 34.5018 66.484 34.8938 66.62C35.2858 66.756 35.7018 66.824 36.1418 66.824C36.4938 66.824 36.7898 66.776 37.0298 66.68C37.2698 66.584 37.4498 66.44 37.5698 66.248C37.6978 66.056 37.7618 65.824 37.7618 65.552C37.7618 65.152 37.6258 64.856 37.3538 64.664C37.0898 64.464 36.7018 64.364 36.1898 64.364H34.8338V63.092H36.0458C36.3498 63.092 36.6098 63.044 36.8258 62.948C37.0418 62.844 37.2098 62.7 37.3298 62.516C37.4498 62.332 37.5098 62.108 37.5098 61.844C37.5098 61.476 37.3858 61.196 37.1378 61.004C36.8978 60.812 36.5458 60.716 36.0818 60.716C35.6658 60.716 35.2778 60.788 34.9178 60.932C34.5578 61.068 34.2138 61.284 33.8858 61.58L33.3818 60.428C33.7178 60.108 34.1378 59.86 34.6418 59.684C35.1458 59.508 35.6698 59.42 36.2138 59.42C36.7978 59.42 37.2978 59.512 37.7138 59.696C38.1298 59.872 38.4458 60.128 38.6618 60.464C38.8858 60.792 38.9978 61.192 38.9978 61.664C38.9978 62.168 38.8578 62.604 38.5778 62.972C38.2978 63.332 37.9138 63.572 37.4258 63.692V63.548C37.8098 63.612 38.1378 63.74 38.4098 63.932C38.6818 64.124 38.8898 64.368 39.0338 64.664C39.1778 64.96 39.2498 65.3 39.2498 65.684C39.2498 66.18 39.1258 66.612 38.8778 66.98C38.6298 67.348 38.2778 67.632 37.8218 67.832C37.3658 68.024 36.8218 68.12 36.1898 68.12ZM43.5531 68.12C42.8891 68.12 42.3251 67.952 41.8611 67.616C41.4051 67.272 41.0571 66.776 40.8171 66.128C40.5851 65.48 40.4691 64.688 40.4691 63.752C40.4691 62.808 40.5851 62.016 40.8171 61.376C41.0571 60.728 41.4051 60.24 41.8611 59.912C42.3251 59.584 42.8891 59.42 43.5531 59.42C44.2251 59.42 44.7891 59.584 45.2451 59.912C45.7091 60.24 46.0571 60.724 46.2891 61.364C46.5211 62.004 46.6371 62.796 46.6371 63.74C46.6371 64.676 46.5171 65.472 46.2771 66.128C46.0451 66.776 45.7011 67.272 45.2451 67.616C44.7891 67.952 44.2251 68.12 43.5531 68.12ZM43.5531 66.86C44.0971 66.86 44.4971 66.612 44.7531 66.116C45.0171 65.612 45.1491 64.82 45.1491 63.74C45.1491 62.668 45.0171 61.892 44.7531 61.412C44.4971 60.924 44.0971 60.68 43.5531 60.68C43.0171 60.68 42.6171 60.924 42.3531 61.412C42.0891 61.892 41.9571 62.672 41.9571 63.752C41.9571 64.824 42.0891 65.612 42.3531 66.116C42.6171 66.612 43.0171 66.86 43.5531 66.86Z" fill="#808283"/>
<path d="M134.912 15.12C134.216 15.12 133.62 14.956 133.124 14.628C132.636 14.292 132.264 13.812 132.008 13.188C131.752 12.564 131.624 11.808 131.624 10.92C131.624 9.96 131.768 9.148 132.056 8.484C132.344 7.812 132.76 7.3 133.304 6.948C133.848 6.596 134.5 6.42 135.26 6.42C135.556 6.42 135.852 6.46 136.148 6.54C136.452 6.612 136.736 6.72 137 6.864C137.272 7 137.512 7.168 137.72 7.368L137.216 8.52C136.92 8.248 136.604 8.048 136.268 7.92C135.932 7.784 135.588 7.716 135.236 7.716C134.892 7.716 134.584 7.78 134.312 7.908C134.048 8.028 133.824 8.212 133.64 8.46C133.456 8.7 133.316 9.004 133.22 9.372C133.132 9.732 133.088 10.152 133.088 10.632V11.532H132.944C133.008 11.124 133.14 10.776 133.34 10.488C133.548 10.192 133.812 9.968 134.132 9.816C134.452 9.656 134.808 9.576 135.2 9.576C135.688 9.576 136.12 9.692 136.496 9.924C136.872 10.156 137.168 10.476 137.384 10.884C137.6 11.292 137.708 11.76 137.708 12.288C137.708 12.832 137.588 13.32 137.348 13.752C137.116 14.176 136.788 14.512 136.364 14.76C135.948 15 135.464 15.12 134.912 15.12ZM134.828 13.896C135.116 13.896 135.368 13.832 135.584 13.704C135.808 13.576 135.98 13.396 136.1 13.164C136.22 12.924 136.28 12.652 136.28 12.348C136.28 12.036 136.22 11.764 136.1 11.532C135.98 11.3 135.808 11.12 135.584 10.992C135.368 10.856 135.116 10.788 134.828 10.788C134.54 10.788 134.288 10.856 134.072 10.992C133.856 11.12 133.684 11.3 133.556 11.532C133.436 11.764 133.376 12.036 133.376 12.348C133.376 12.652 133.436 12.924 133.556 13.164C133.684 13.396 133.856 13.576 134.072 13.704C134.288 13.832 134.54 13.896 134.828 13.896ZM141.867 15.12C141.499 15.12 141.135 15.08 140.775 15C140.423 14.92 140.091 14.808 139.779 14.664C139.475 14.52 139.211 14.352 138.987 14.16L139.491 12.984C139.859 13.264 140.239 13.476 140.631 13.62C141.023 13.756 141.427 13.824 141.843 13.824C142.347 13.824 142.739 13.696 143.019 13.44C143.307 13.176 143.451 12.824 143.451 12.384C143.451 11.936 143.315 11.576 143.043 11.304C142.771 11.024 142.399 10.884 141.927 10.884C141.583 10.884 141.275 10.952 141.003 11.088C140.731 11.216 140.483 11.416 140.259 11.688H139.227V6.54H144.423V7.812H140.727V10.5H140.331C140.539 10.22 140.811 10.004 141.147 9.852C141.491 9.7 141.871 9.624 142.287 9.624C142.823 9.624 143.287 9.74 143.679 9.972C144.079 10.196 144.387 10.512 144.603 10.92C144.827 11.32 144.939 11.788 144.939 12.324C144.939 12.876 144.815 13.364 144.567 13.788C144.319 14.204 143.963 14.532 143.499 14.772C143.043 15.004 142.499 15.12 141.867 15.12ZM149.549 15V6.54H152.693C153.637 6.54 154.437 6.704 155.093 7.032C155.757 7.36 156.261 7.84 156.605 8.472C156.957 9.096 157.133 9.86 157.133 10.764C157.133 11.668 156.957 12.436 156.605 13.068C156.261 13.7 155.757 14.18 155.093 14.508C154.437 14.836 153.637 15 152.693 15H149.549ZM151.085 13.728H152.597C153.581 13.728 154.313 13.484 154.793 12.996C155.281 12.5 155.525 11.756 155.525 10.764C155.525 9.772 155.281 9.032 154.793 8.544C154.305 8.056 153.573 7.812 152.597 7.812H151.085V13.728ZM157.602 15L161.43 6.54H162.69L166.518 15H164.958L163.938 12.624L164.586 13.044H159.522L160.17 12.624L159.162 15H157.602ZM162.042 8.208L160.362 12.204L160.05 11.82H164.058L163.758 12.204L162.066 8.208H162.042ZM168.674 15V10.644L168.998 11.568L165.422 6.54H167.21L169.634 9.984H169.298L171.734 6.54H173.45L169.898 11.568L170.21 10.644V15H168.674ZM176.399 15L180.227 6.54H181.487L185.315 15H183.755L182.735 12.624L183.383 13.044H178.319L178.967 12.624L177.959 15H176.399ZM180.839 8.208L179.159 12.204L178.847 11.82H182.855L182.555 12.204L180.863 8.208H180.839ZM188.238 15L184.47 6.54H186.114L189.174 13.632H188.658L191.706 6.54H193.29L189.522 15H188.238ZM197.937 15.12C197.001 15.12 196.209 14.944 195.561 14.592C194.921 14.24 194.433 13.74 194.097 13.092C193.761 12.444 193.593 11.676 193.593 10.788C193.593 9.892 193.765 9.12 194.109 8.472C194.453 7.816 194.949 7.312 195.597 6.96C196.245 6.6 197.021 6.42 197.925 6.42C198.325 6.42 198.705 6.46 199.065 6.54C199.433 6.612 199.773 6.72 200.085 6.864C200.397 7.008 200.665 7.184 200.889 7.392L200.373 8.592C199.997 8.296 199.613 8.084 199.221 7.956C198.829 7.828 198.397 7.764 197.925 7.764C197.029 7.764 196.349 8.024 195.885 8.544C195.429 9.064 195.201 9.812 195.201 10.788C195.201 11.772 195.437 12.52 195.909 13.032C196.381 13.544 197.081 13.8 198.009 13.8C198.329 13.8 198.653 13.768 198.981 13.704C199.309 13.64 199.629 13.552 199.941 13.44L199.641 14.124V11.568H197.697V10.428H200.925V14.496C200.669 14.624 200.373 14.736 200.037 14.832C199.709 14.92 199.365 14.988 199.005 15.036C198.645 15.092 198.289 15.12 197.937 15.12ZM202.429 10.788V9.132H204.109V10.788H202.429ZM202.429 15V13.332H204.109V15H202.429ZM211.112 16.38V14.808L211.388 15.072C210.804 15.056 210.252 14.968 209.732 14.808C209.22 14.64 208.776 14.408 208.4 14.112L208.868 12.9C209.116 13.084 209.38 13.244 209.66 13.38C209.948 13.508 210.248 13.608 210.56 13.68C210.88 13.744 211.22 13.776 211.58 13.776C212.164 13.776 212.592 13.672 212.864 13.464C213.136 13.256 213.272 12.996 213.272 12.684C213.272 12.404 213.18 12.18 212.996 12.012C212.812 11.844 212.484 11.708 212.012 11.604L210.74 11.328C210.02 11.168 209.476 10.904 209.108 10.536C208.748 10.16 208.568 9.664 208.568 9.048C208.568 8.576 208.684 8.156 208.916 7.788C209.148 7.412 209.472 7.112 209.888 6.888C210.304 6.664 210.792 6.532 211.352 6.492L211.112 6.672V5.16H212.312V6.672L212.06 6.48C212.516 6.504 212.964 6.596 213.404 6.756C213.852 6.916 214.224 7.148 214.52 7.452L214.064 8.604C213.76 8.324 213.412 8.116 213.02 7.98C212.628 7.836 212.2 7.764 211.736 7.764C211.24 7.764 210.84 7.88 210.536 8.112C210.24 8.336 210.092 8.632 210.092 9C210.092 9.272 210.184 9.492 210.368 9.66C210.552 9.828 210.848 9.956 211.256 10.044L212.528 10.32C213.296 10.488 213.864 10.756 214.232 11.124C214.608 11.484 214.796 11.964 214.796 12.564C214.796 13.028 214.68 13.44 214.448 13.8C214.216 14.152 213.896 14.436 213.488 14.652C213.088 14.86 212.62 14.992 212.084 15.048L212.312 14.796V16.38H211.112ZM219.376 15V13.392H215.692V12.264L219.64 6.54H220.912V12.12H222.1V13.392H220.912V15H219.376ZM219.376 12.12V8.376H219.724L216.892 12.528V12.12H219.376ZM226.055 15.12C225.687 15.12 225.323 15.08 224.963 15C224.611 14.92 224.279 14.808 223.967 14.664C223.663 14.52 223.399 14.352 223.175 14.16L223.679 12.984C224.047 13.264 224.427 13.476 224.819 13.62C225.211 13.756 225.615 13.824 226.031 13.824C226.535 13.824 226.927 13.696 227.207 13.44C227.495 13.176 227.639 12.824 227.639 12.384C227.639 11.936 227.503 11.576 227.231 11.304C226.959 11.024 226.587 10.884 226.115 10.884C225.771 10.884 225.463 10.952 225.191 11.088C224.919 11.216 224.671 11.416 224.447 11.688H223.415V6.54H228.611V7.812H224.915V10.5H224.519C224.727 10.22 224.999 10.004 225.335 9.852C225.679 9.7 226.059 9.624 226.475 9.624C227.011 9.624 227.475 9.74 227.867 9.972C228.267 10.196 228.575 10.512 228.791 10.92C229.015 11.32 229.127 11.788 229.127 12.324C229.127 12.876 229.003 13.364 228.755 13.788C228.507 14.204 228.151 14.532 227.687 14.772C227.231 15.004 226.687 15.12 226.055 15.12ZM233.178 15.12C232.514 15.12 231.95 14.952 231.486 14.616C231.03 14.272 230.682 13.776 230.442 13.128C230.21 12.48 230.094 11.688 230.094 10.752C230.094 9.808 230.21 9.016 230.442 8.376C230.682 7.728 231.03 7.24 231.486 6.912C231.95 6.584 232.514 6.42 233.178 6.42C233.85 6.42 234.414 6.584 234.87 6.912C235.334 7.24 235.682 7.724 235.914 8.364C236.146 9.004 236.262 9.796 236.262 10.74C236.262 11.676 236.142 12.472 235.902 13.128C235.67 13.776 235.326 14.272 234.87 14.616C234.414 14.952 233.85 15.12 233.178 15.12ZM233.178 13.86C233.722 13.86 234.122 13.612 234.378 13.116C234.642 12.612 234.774 11.82 234.774 10.74C234.774 9.668 234.642 8.892 234.378 8.412C234.122 7.924 233.722 7.68 233.178 7.68C232.642 7.68 232.242 7.924 231.978 8.412C231.714 8.892 231.582 9.672 231.582 10.752C231.582 11.824 231.714 12.612 231.978 13.116C232.242 13.612 232.642 13.86 233.178 13.86ZM237.721 15V6.54H239.005L242.197 12.432H241.813L244.993 6.54H246.253V15H244.861V8.82H245.125L242.437 13.716H241.537L238.825 8.808H239.113V15H237.721Z" fill="#808283"/>
<path d="M7.856 46.34C7.264 45.46 6.84 44.564 6.584 43.652C6.328 42.732 6.2 41.796 6.2 40.844C6.2 39.884 6.328 38.948 6.584 38.036C6.84 37.124 7.264 36.228 7.856 35.348L8.876 35.756C8.628 36.364 8.424 36.948 8.264 37.508C8.104 38.06 7.988 38.608 7.916 39.152C7.844 39.696 7.808 40.26 7.808 40.844C7.808 41.42 7.844 41.984 7.916 42.536C7.988 43.08 8.104 43.628 8.264 44.18C8.424 44.732 8.628 45.316 8.876 45.932L7.856 46.34ZM10.6088 44V42.728H12.5168V36.836H13.2608L11.0408 38.18L10.4408 37.052L12.9608 35.54H14.0528V42.728H15.8408V44H10.6088ZM20.4081 44.12C19.7121 44.12 19.1161 43.956 18.6201 43.628C18.1321 43.292 17.7601 42.812 17.5041 42.188C17.2481 41.564 17.1201 40.808 17.1201 39.92C17.1201 38.96 17.2641 38.148 17.5521 37.484C17.8401 36.812 18.2561 36.3 18.8001 35.948C19.3441 35.596 19.9961 35.42 20.7561 35.42C21.0521 35.42 21.3481 35.46 21.6441 35.54C21.9481 35.612 22.2321 35.72 22.4961 35.864C22.7681 36 23.0081 36.168 23.2161 36.368L22.7121 37.52C22.4161 37.248 22.1001 37.048 21.7641 36.92C21.4281 36.784 21.0841 36.716 20.7321 36.716C20.3881 36.716 20.0801 36.78 19.8081 36.908C19.5441 37.028 19.3201 37.212 19.1361 37.46C18.9521 37.7 18.8121 38.004 18.7161 38.372C18.6281 38.732 18.5841 39.152 18.5841 39.632V40.532H18.4401C18.5041 40.124 18.6361 39.776 18.8361 39.488C19.0441 39.192 19.3081 38.968 19.6281 38.816C19.9481 38.656 20.3041 38.576 20.6961 38.576C21.1841 38.576 21.6161 38.692 21.9921 38.924C22.3681 39.156 22.6641 39.476 22.8801 39.884C23.0961 40.292 23.2041 40.76 23.2041 41.288C23.2041 41.832 23.0841 42.32 22.8441 42.752C22.6121 43.176 22.2841 43.512 21.8601 43.76C21.4441 44 20.9601 44.12 20.4081 44.12ZM20.3241 42.896C20.6121 42.896 20.8641 42.832 21.0801 42.704C21.3041 42.576 21.4761 42.396 21.5961 42.164C21.7161 41.924 21.7761 41.652 21.7761 41.348C21.7761 41.036 21.7161 40.764 21.5961 40.532C21.4761 40.3 21.3041 40.12 21.0801 39.992C20.8641 39.856 20.6121 39.788 20.3241 39.788C20.0361 39.788 19.7841 39.856 19.5681 39.992C19.3521 40.12 19.1801 40.3 19.0521 40.532C18.9321 40.764 18.8721 41.036 18.8721 41.348C18.8721 41.652 18.9321 41.924 19.0521 42.164C19.1801 42.396 19.3521 42.576 19.5681 42.704C19.7841 42.832 20.0361 42.896 20.3241 42.896ZM26.6434 44.12C26.3474 44.12 26.0474 44.08 25.7434 44C25.4474 43.928 25.1634 43.82 24.8914 43.676C24.6274 43.532 24.3874 43.36 24.1714 43.16L24.6874 42.008C24.9754 42.28 25.2874 42.484 25.6234 42.62C25.9674 42.756 26.3114 42.824 26.6554 42.824C27.0074 42.824 27.3154 42.764 27.5794 42.644C27.8514 42.516 28.0794 42.332 28.2634 42.092C28.4474 41.844 28.5834 41.54 28.6714 41.18C28.7674 40.812 28.8154 40.388 28.8154 39.908V39.008H28.9474C28.8914 39.408 28.7594 39.756 28.5514 40.052C28.3434 40.348 28.0794 40.576 27.7594 40.736C27.4474 40.888 27.0914 40.964 26.6914 40.964C26.2114 40.964 25.7834 40.848 25.4074 40.616C25.0314 40.384 24.7314 40.064 24.5074 39.656C24.2914 39.24 24.1834 38.772 24.1834 38.252C24.1834 37.7 24.3034 37.212 24.5434 36.788C24.7834 36.364 25.1114 36.032 25.5274 35.792C25.9514 35.544 26.4354 35.42 26.9794 35.42C27.6834 35.42 28.2794 35.584 28.7674 35.912C29.2554 36.24 29.6274 36.72 29.8834 37.352C30.1394 37.976 30.2674 38.732 30.2674 39.62C30.2674 40.572 30.1234 41.384 29.8354 42.056C29.5474 42.728 29.1314 43.24 28.5874 43.592C28.0514 43.944 27.4034 44.12 26.6434 44.12ZM27.0754 39.74C27.3634 39.74 27.6154 39.676 27.8314 39.548C28.0554 39.42 28.2274 39.24 28.3474 39.008C28.4674 38.768 28.5274 38.496 28.5274 38.192C28.5274 37.88 28.4674 37.608 28.3474 37.376C28.2274 37.144 28.0554 36.964 27.8314 36.836C27.6154 36.7 27.3634 36.632 27.0754 36.632C26.7874 36.632 26.5354 36.7 26.3194 36.836C26.1034 36.964 25.9314 37.144 25.8034 37.376C25.6834 37.608 25.6234 37.88 25.6234 38.192C25.6234 38.496 25.6834 38.768 25.8034 39.008C25.9314 39.24 26.1034 39.42 26.3194 39.548C26.5354 39.676 26.7874 39.74 27.0754 39.74ZM34.5827 44.336L33.5987 43.76L38.5427 35.204L39.5147 35.78L34.5827 44.336ZM33.5507 40.592C33.1027 40.592 32.7187 40.488 32.3987 40.28C32.0787 40.072 31.8347 39.776 31.6667 39.392C31.4987 39 31.4147 38.536 31.4147 38C31.4147 37.2 31.6027 36.572 31.9787 36.116C32.3547 35.652 32.8787 35.42 33.5507 35.42C33.9987 35.42 34.3827 35.524 34.7027 35.732C35.0227 35.94 35.2667 36.236 35.4347 36.62C35.6027 37.004 35.6867 37.464 35.6867 38C35.6867 38.536 35.6027 39 35.4347 39.392C35.2667 39.776 35.0227 40.072 34.7027 40.28C34.3827 40.488 33.9987 40.592 33.5507 40.592ZM33.5507 39.584C33.8387 39.584 34.0627 39.456 34.2227 39.2C34.3827 38.936 34.4627 38.536 34.4627 38C34.4627 37.464 34.3827 37.068 34.2227 36.812C34.0627 36.556 33.8387 36.428 33.5507 36.428C33.2627 36.428 33.0387 36.556 32.8787 36.812C32.7187 37.06 32.6387 37.456 32.6387 38C32.6387 38.544 32.7187 38.944 32.8787 39.2C33.0387 39.456 33.2627 39.584 33.5507 39.584ZM39.5747 44.12C39.1267 44.12 38.7427 44.016 38.4227 43.808C38.1027 43.6 37.8587 43.304 37.6907 42.92C37.5227 42.528 37.4387 42.064 37.4387 41.528C37.4387 40.728 37.6267 40.1 38.0027 39.644C38.3787 39.18 38.9027 38.948 39.5747 38.948C40.0227 38.948 40.4067 39.052 40.7267 39.26C41.0467 39.468 41.2907 39.764 41.4587 40.148C41.6267 40.532 41.7107 40.992 41.7107 41.528C41.7107 42.064 41.6267 42.528 41.4587 42.92C41.2907 43.304 41.0467 43.6 40.7267 43.808C40.4067 44.016 40.0227 44.12 39.5747 44.12ZM39.5747 43.112C39.8627 43.112 40.0867 42.984 40.2467 42.728C40.4067 42.464 40.4867 42.064 40.4867 41.528C40.4867 40.992 40.4067 40.596 40.2467 40.34C40.0867 40.084 39.8627 39.956 39.5747 39.956C39.2867 39.956 39.0627 40.084 38.9027 40.34C38.7427 40.588 38.6627 40.984 38.6627 41.528C38.6627 42.072 38.7427 42.472 38.9027 42.728C39.0627 42.984 39.2867 43.112 39.5747 43.112ZM49.1008 44L45.3328 35.54H46.9768L50.0368 42.632H49.5208L52.5688 35.54H54.1528L50.3848 44H49.1008ZM57.7072 44.12C57.2672 44.12 56.8432 44.08 56.4352 44C56.0352 43.928 55.6632 43.82 55.3192 43.676C54.9832 43.532 54.6832 43.36 54.4192 43.16L54.8872 41.948C55.1512 42.132 55.4272 42.292 55.7152 42.428C56.0112 42.556 56.3232 42.656 56.6512 42.728C56.9872 42.792 57.3392 42.824 57.7072 42.824C58.3392 42.824 58.7992 42.72 59.0872 42.512C59.3752 42.296 59.5192 42.02 59.5192 41.684C59.5192 41.5 59.4752 41.344 59.3872 41.216C59.2992 41.08 59.1552 40.964 58.9552 40.868C58.7552 40.772 58.4912 40.692 58.1632 40.628L56.8432 40.352C56.0832 40.192 55.5152 39.924 55.1392 39.548C54.7712 39.164 54.5872 38.66 54.5872 38.036C54.5872 37.508 54.7272 37.048 55.0072 36.656C55.2872 36.264 55.6752 35.96 56.1712 35.744C56.6672 35.528 57.2392 35.42 57.8872 35.42C58.2712 35.42 58.6392 35.46 58.9912 35.54C59.3512 35.612 59.6792 35.724 59.9752 35.876C60.2792 36.02 60.5432 36.196 60.7672 36.404L60.2992 37.556C59.9632 37.276 59.5952 37.068 59.1952 36.932C58.7952 36.788 58.3552 36.716 57.8752 36.716C57.5072 36.716 57.1912 36.768 56.9272 36.872C56.6632 36.976 56.4592 37.124 56.3152 37.316C56.1792 37.5 56.1112 37.72 56.1112 37.976C56.1112 38.264 56.2072 38.496 56.3992 38.672C56.5912 38.84 56.9192 38.972 57.3832 39.068L58.6912 39.344C59.4832 39.512 60.0712 39.776 60.4552 40.136C60.8472 40.496 61.0432 40.976 61.0432 41.576C61.0432 42.08 60.9072 42.524 60.6352 42.908C60.3632 43.292 59.9752 43.592 59.4712 43.808C58.9752 44.016 58.3872 44.12 57.7072 44.12ZM64.6839 44L68.5119 35.54H69.7719L73.5999 44H72.0399L71.0199 41.624L71.6679 42.044H66.6039L67.2519 41.624L66.2439 44H64.6839ZM69.1239 37.208L67.4439 41.204L67.1319 40.82H71.1399L70.8399 41.204L69.1479 37.208H69.1239ZM76.5227 44L72.7547 35.54H74.3987L77.4587 42.632H76.9427L79.9907 35.54H81.5747L77.8067 44H76.5227ZM86.2225 44.12C85.2865 44.12 84.4945 43.944 83.8465 43.592C83.2065 43.24 82.7185 42.74 82.3825 42.092C82.0465 41.444 81.8785 40.676 81.8785 39.788C81.8785 38.892 82.0505 38.12 82.3945 37.472C82.7385 36.816 83.2345 36.312 83.8825 35.96C84.5305 35.6 85.3065 35.42 86.2105 35.42C86.6105 35.42 86.9905 35.46 87.3505 35.54C87.7185 35.612 88.0585 35.72 88.3705 35.864C88.6825 36.008 88.9505 36.184 89.1745 36.392L88.6585 37.592C88.2825 37.296 87.8985 37.084 87.5065 36.956C87.1145 36.828 86.6825 36.764 86.2105 36.764C85.3145 36.764 84.6345 37.024 84.1705 37.544C83.7145 38.064 83.4865 38.812 83.4865 39.788C83.4865 40.772 83.7225 41.52 84.1945 42.032C84.6665 42.544 85.3665 42.8 86.2945 42.8C86.6145 42.8 86.9385 42.768 87.2665 42.704C87.5945 42.64 87.9145 42.552 88.2265 42.44L87.9265 43.124V40.568H85.9825V39.428H89.2105V43.496C88.9545 43.624 88.6585 43.736 88.3225 43.832C87.9945 43.92 87.6505 43.988 87.2905 44.036C86.9305 44.092 86.5745 44.12 86.2225 44.12ZM91.4713 46.34L90.4513 45.932C90.6992 45.308 90.8993 44.716 91.0513 44.156C91.2113 43.604 91.3273 43.06 91.3993 42.524C91.4793 41.98 91.5193 41.42 91.5193 40.844C91.5193 40.268 91.4793 39.712 91.3993 39.176C91.3273 38.632 91.2113 38.08 91.0513 37.52C90.8993 36.96 90.6992 36.372 90.4513 35.756L91.4713 35.348C92.0633 36.228 92.4873 37.128 92.7433 38.048C92.9993 38.96 93.1273 39.892 93.1273 40.844C93.1273 41.796 92.9993 42.732 92.7433 43.652C92.4873 44.564 92.0633 45.46 91.4713 46.34Z" fill="#808283"/>
<path d="M329.972 69.38V67.808L330.248 68.072C329.664 68.056 329.112 67.968 328.592 67.808C328.08 67.64 327.636 67.408 327.26 67.112L327.728 65.9C327.976 66.084 328.24 66.244 328.52 66.38C328.808 66.508 329.108 66.608 329.42 66.68C329.74 66.744 330.08 66.776 330.44 66.776C331.024 66.776 331.452 66.672 331.724 66.464C331.996 66.256 332.132 65.996 332.132 65.684C332.132 65.404 332.04 65.18 331.856 65.012C331.672 64.844 331.344 64.708 330.872 64.604L329.6 64.328C328.88 64.168 328.336 63.904 327.968 63.536C327.608 63.16 327.428 62.664 327.428 62.048C327.428 61.576 327.544 61.156 327.776 60.788C328.008 60.412 328.332 60.112 328.748 59.888C329.164 59.664 329.652 59.532 330.212 59.492L329.972 59.672V58.16H331.172V59.672L330.92 59.48C331.376 59.504 331.824 59.596 332.264 59.756C332.712 59.916 333.084 60.148 333.38 60.452L332.924 61.604C332.62 61.324 332.272 61.116 331.88 60.98C331.488 60.836 331.06 60.764 330.596 60.764C330.1 60.764 329.7 60.88 329.396 61.112C329.1 61.336 328.952 61.632 328.952 62C328.952 62.272 329.044 62.492 329.228 62.66C329.412 62.828 329.708 62.956 330.116 63.044L331.388 63.32C332.156 63.488 332.724 63.756 333.092 64.124C333.468 64.484 333.656 64.964 333.656 65.564C333.656 66.028 333.54 66.44 333.308 66.8C333.076 67.152 332.756 67.436 332.348 67.652C331.948 67.86 331.48 67.992 330.944 68.048L331.172 67.796V69.38H329.972ZM337.479 68.12C337.095 68.12 336.719 68.08 336.351 68C335.991 67.928 335.655 67.82 335.343 67.676C335.031 67.532 334.759 67.36 334.527 67.16L335.031 65.984C335.407 66.272 335.791 66.484 336.183 66.62C336.575 66.756 336.991 66.824 337.431 66.824C337.783 66.824 338.079 66.776 338.319 66.68C338.559 66.584 338.739 66.44 338.859 66.248C338.987 66.056 339.051 65.824 339.051 65.552C339.051 65.152 338.915 64.856 338.643 64.664C338.379 64.464 337.991 64.364 337.479 64.364H336.123V63.092H337.335C337.639 63.092 337.899 63.044 338.115 62.948C338.331 62.844 338.499 62.7 338.619 62.516C338.739 62.332 338.799 62.108 338.799 61.844C338.799 61.476 338.675 61.196 338.427 61.004C338.187 60.812 337.835 60.716 337.371 60.716C336.955 60.716 336.567 60.788 336.207 60.932C335.847 61.068 335.503 61.284 335.175 61.58L334.671 60.428C335.007 60.108 335.427 59.86 335.931 59.684C336.435 59.508 336.959 59.42 337.503 59.42C338.087 59.42 338.587 59.512 339.003 59.696C339.419 59.872 339.735 60.128 339.951 60.464C340.175 60.792 340.287 61.192 340.287 61.664C340.287 62.168 340.147 62.604 339.867 62.972C339.587 63.332 339.203 63.572 338.715 63.692V63.548C339.099 63.612 339.427 63.74 339.699 63.932C339.971 64.124 340.179 64.368 340.323 64.664C340.467 64.96 340.539 65.3 340.539 65.684C340.539 66.18 340.415 66.612 340.167 66.98C339.919 67.348 339.567 67.632 339.111 67.832C338.655 68.024 338.111 68.12 337.479 68.12ZM342.55 68V66.728H344.458V60.836H345.202L342.982 62.18L342.382 61.052L344.902 59.54H345.994V66.728H347.782V68H342.55ZM351.87 68.12C351.486 68.12 351.11 68.08 350.742 68C350.382 67.928 350.046 67.82 349.734 67.676C349.422 67.532 349.15 67.36 348.918 67.16L349.422 65.984C349.798 66.272 350.182 66.484 350.574 66.62C350.966 66.756 351.382 66.824 351.822 66.824C352.174 66.824 352.47 66.776 352.71 66.68C352.95 66.584 353.13 66.44 353.25 66.248C353.378 66.056 353.442 65.824 353.442 65.552C353.442 65.152 353.306 64.856 353.034 64.664C352.77 64.464 352.382 64.364 351.87 64.364H350.514V63.092H351.726C352.03 63.092 352.29 63.044 352.506 62.948C352.722 62.844 352.89 62.7 353.01 62.516C353.13 62.332 353.19 62.108 353.19 61.844C353.19 61.476 353.066 61.196 352.818 61.004C352.578 60.812 352.226 60.716 351.762 60.716C351.346 60.716 350.958 60.788 350.598 60.932C350.238 61.068 349.894 61.284 349.566 61.58L349.062 60.428C349.398 60.108 349.818 59.86 350.322 59.684C350.826 59.508 351.35 59.42 351.894 59.42C352.478 59.42 352.978 59.512 353.394 59.696C353.81 59.872 354.126 60.128 354.342 60.464C354.566 60.792 354.678 61.192 354.678 61.664C354.678 62.168 354.538 62.604 354.258 62.972C353.978 63.332 353.594 63.572 353.106 63.692V63.548C353.49 63.612 353.818 63.74 354.09 63.932C354.362 64.124 354.569 64.368 354.714 64.664C354.858 64.96 354.93 65.3 354.93 65.684C354.93 66.18 354.806 66.612 354.558 66.98C354.31 67.348 353.958 67.632 353.502 67.832C353.046 68.024 352.502 68.12 351.87 68.12ZM356.281 68V66.332H357.961V68H356.281ZM362.041 68.12C361.657 68.12 361.281 68.08 360.913 68C360.553 67.928 360.217 67.82 359.905 67.676C359.593 67.532 359.321 67.36 359.089 67.16L359.593 65.984C359.969 66.272 360.353 66.484 360.745 66.62C361.137 66.756 361.553 66.824 361.993 66.824C362.345 66.824 362.641 66.776 362.881 66.68C363.121 66.584 363.301 66.44 363.421 66.248C363.549 66.056 363.613 65.824 363.613 65.552C363.613 65.152 363.477 64.856 363.205 64.664C362.941 64.464 362.553 64.364 362.041 64.364H360.685V63.092H361.897C362.201 63.092 362.461 63.044 362.677 62.948C362.893 62.844 363.061 62.7 363.181 62.516C363.301 62.332 363.361 62.108 363.361 61.844C363.361 61.476 363.237 61.196 362.989 61.004C362.749 60.812 362.397 60.716 361.933 60.716C361.517 60.716 361.129 60.788 360.769 60.932C360.409 61.068 360.065 61.284 359.737 61.58L359.233 60.428C359.569 60.108 359.989 59.86 360.493 59.684C360.997 59.508 361.521 59.42 362.065 59.42C362.649 59.42 363.149 59.512 363.565 59.696C363.981 59.872 364.297 60.128 364.513 60.464C364.737 60.792 364.849 61.192 364.849 61.664C364.849 62.168 364.709 62.604 364.429 62.972C364.149 63.332 363.765 63.572 363.277 63.692V63.548C363.661 63.612 363.989 63.74 364.261 63.932C364.533 64.124 364.741 64.368 364.885 64.664C365.029 64.96 365.101 65.3 365.101 65.684C365.101 66.18 364.977 66.612 364.729 66.98C364.481 67.348 364.129 67.632 363.673 67.832C363.217 68.024 362.673 68.12 362.041 68.12ZM369.405 68.12C368.741 68.12 368.177 67.952 367.713 67.616C367.257 67.272 366.909 66.776 366.669 66.128C366.437 65.48 366.321 64.688 366.321 63.752C366.321 62.808 366.437 62.016 366.669 61.376C366.909 60.728 367.257 60.24 367.713 59.912C368.177 59.584 368.741 59.42 369.405 59.42C370.077 59.42 370.641 59.584 371.097 59.912C371.561 60.24 371.909 60.724 372.141 61.364C372.373 62.004 372.489 62.796 372.489 63.74C372.489 64.676 372.369 65.472 372.129 66.128C371.897 66.776 371.553 67.272 371.097 67.616C370.641 67.952 370.077 68.12 369.405 68.12ZM369.405 66.86C369.949 66.86 370.349 66.612 370.605 66.116C370.869 65.612 371.001 64.82 371.001 63.74C371.001 62.668 370.869 61.892 370.605 61.412C370.349 60.924 369.949 60.68 369.405 60.68C368.869 60.68 368.469 60.924 368.205 61.412C367.941 61.892 367.809 62.672 367.809 63.752C367.809 64.824 367.941 65.612 368.205 66.116C368.469 66.612 368.869 66.86 369.405 66.86Z" fill="#808283"/>
<path d="M5.545 15L0.835 4.425H2.89L6.715 13.29H6.07L9.88 4.425H11.86L7.15 15H5.545ZM15.0759 15.15C14.3159 15.15 13.6559 14.995 13.0959 14.685C12.5359 14.375 12.1009 13.935 11.7909 13.365C11.4809 12.785 11.3259 12.105 11.3259 11.325C11.3259 10.545 11.4809 9.87 11.7909 9.3C12.1009 8.73 12.5359 8.29 13.0959 7.98C13.6559 7.67 14.3159 7.515 15.0759 7.515C15.8359 7.515 16.4959 7.67 17.0559 7.98C17.6159 8.29 18.0509 8.73 18.3609 9.3C18.6709 9.87 18.8259 10.545 18.8259 11.325C18.8259 12.105 18.6709 12.785 18.3609 13.365C18.0509 13.935 17.6159 14.375 17.0559 14.685C16.4959 14.995 15.8359 15.15 15.0759 15.15ZM15.0759 13.725C15.6359 13.725 16.0859 13.525 16.4259 13.125C16.7659 12.715 16.9359 12.115 16.9359 11.325C16.9359 10.525 16.7659 9.93 16.4259 9.54C16.0859 9.14 15.6359 8.94 15.0759 8.94C14.5159 8.94 14.0659 9.14 13.7259 9.54C13.3859 9.93 13.2159 10.525 13.2159 11.325C13.2159 12.115 13.3859 12.715 13.7259 13.125C14.0659 13.525 14.5159 13.725 15.0759 13.725ZM22.9234 15.15C22.0534 15.15 21.4084 14.915 20.9884 14.445C20.5784 13.965 20.3734 13.265 20.3734 12.345V4.425H22.2484V12.255C22.2484 12.545 22.2884 12.795 22.3684 13.005C22.4584 13.205 22.5884 13.355 22.7584 13.455C22.9284 13.555 23.1384 13.605 23.3884 13.605C23.4984 13.605 23.6084 13.6 23.7184 13.59C23.8284 13.58 23.9334 13.56 24.0334 13.53L24.0034 15.015C23.8234 15.055 23.6434 15.085 23.4634 15.105C23.2934 15.135 23.1134 15.15 22.9234 15.15ZM27.8185 15.15C27.2085 15.15 26.7035 15.04 26.3035 14.82C25.9035 14.59 25.6035 14.25 25.4035 13.8C25.2135 13.35 25.1185 12.79 25.1185 12.12V7.665H26.9935V12.15C26.9935 12.49 27.0385 12.775 27.1285 13.005C27.2285 13.235 27.3735 13.405 27.5635 13.515C27.7635 13.625 28.0135 13.68 28.3135 13.68C28.6535 13.68 28.9485 13.605 29.1985 13.455C29.4585 13.295 29.6585 13.075 29.7985 12.795C29.9485 12.505 30.0235 12.17 30.0235 11.79V7.665H31.8985V15H30.0685V13.47H30.2785C30.0685 14.01 29.7485 14.425 29.3185 14.715C28.8985 15.005 28.3985 15.15 27.8185 15.15ZM33.88 15V7.665H35.71V9.135H35.545C35.675 8.795 35.855 8.505 36.085 8.265C36.315 8.025 36.59 7.84 36.91 7.71C37.23 7.58 37.585 7.515 37.975 7.515C38.565 7.515 39.05 7.655 39.43 7.935C39.81 8.215 40.075 8.645 40.225 9.225H40.015C40.215 8.695 40.545 8.28 41.005 7.98C41.465 7.67 41.995 7.515 42.595 7.515C43.155 7.515 43.615 7.625 43.975 7.845C44.345 8.065 44.62 8.4 44.8 8.85C44.98 9.29 45.07 9.85 45.07 10.53V15H43.195V10.605C43.195 10.045 43.1 9.635 42.91 9.375C42.73 9.115 42.42 8.985 41.98 8.985C41.66 8.985 41.38 9.065 41.14 9.225C40.9 9.375 40.715 9.595 40.585 9.885C40.465 10.175 40.405 10.525 40.405 10.935V15H38.53V10.605C38.53 10.045 38.435 9.635 38.245 9.375C38.065 9.115 37.76 8.985 37.33 8.985C37 8.985 36.715 9.065 36.475 9.225C36.245 9.375 36.065 9.595 35.935 9.885C35.815 10.175 35.755 10.525 35.755 10.935V15H33.88ZM50.6193 15.15C49.7893 15.15 49.0743 14.995 48.4743 14.685C47.8743 14.375 47.4093 13.935 47.0793 13.365C46.7593 12.795 46.5993 12.12 46.5993 11.34C46.5993 10.58 46.7543 9.915 47.0643 9.345C47.3843 8.775 47.8193 8.33 48.3693 8.01C48.9293 7.68 49.5643 7.515 50.2743 7.515C50.9743 7.515 51.5743 7.665 52.0743 7.965C52.5743 8.265 52.9593 8.69 53.2293 9.24C53.5093 9.79 53.6493 10.445 53.6493 11.205V11.76H48.1143V10.68H52.3293L52.0893 10.905C52.0893 10.225 51.9393 9.705 51.6393 9.345C51.3393 8.975 50.9093 8.79 50.3493 8.79C49.9293 8.79 49.5693 8.89 49.2693 9.09C48.9793 9.28 48.7543 9.555 48.5943 9.915C48.4443 10.265 48.3693 10.685 48.3693 11.175V11.28C48.3693 11.83 48.4543 12.285 48.6243 12.645C48.7943 13.005 49.0493 13.275 49.3893 13.455C49.7293 13.635 50.1493 13.725 50.6493 13.725C51.0593 13.725 51.4693 13.665 51.8793 13.545C52.2893 13.415 52.6643 13.215 53.0043 12.945L53.5293 14.205C53.1793 14.495 52.7393 14.725 52.2093 14.895C51.6793 15.065 51.1493 15.15 50.6193 15.15ZM54.9692 9.735V7.665H57.0692V9.735H54.9692ZM54.9692 15V12.915H57.0692V15H54.9692ZM65.8229 16.725V14.76L66.1679 15.09C65.4379 15.07 64.7479 14.96 64.0979 14.76C63.4579 14.55 62.9029 14.26 62.4329 13.89L63.0179 12.375C63.3279 12.605 63.6579 12.805 64.0079 12.975C64.3679 13.135 64.7429 13.26 65.1329 13.35C65.5329 13.43 65.9579 13.47 66.4079 13.47C67.1379 13.47 67.6729 13.34 68.0129 13.08C68.3529 12.82 68.5229 12.495 68.5229 12.105C68.5229 11.755 68.4079 11.475 68.1779 11.265C67.9479 11.055 67.5379 10.885 66.9479 10.755L65.3579 10.41C64.4579 10.21 63.7779 9.88 63.3179 9.42C62.8679 8.95 62.6429 8.33 62.6429 7.56C62.6429 6.97 62.7879 6.445 63.0779 5.985C63.3679 5.515 63.7729 5.14 64.2929 4.86C64.8129 4.58 65.4229 4.415 66.1229 4.365L65.8229 4.59V2.7H67.3229V4.59L67.0079 4.35C67.5779 4.38 68.1379 4.495 68.6879 4.695C69.2479 4.895 69.7129 5.185 70.0829 5.565L69.5129 7.005C69.1329 6.655 68.6979 6.395 68.2079 6.225C67.7179 6.045 67.1829 5.955 66.6029 5.955C65.9829 5.955 65.4829 6.1 65.1029 6.39C64.7329 6.67 64.5479 7.04 64.5479 7.5C64.5479 7.84 64.6629 8.115 64.8929 8.325C65.1229 8.535 65.4929 8.695 66.0029 8.805L67.5929 9.15C68.5529 9.36 69.2629 9.695 69.7229 10.155C70.1929 10.605 70.4279 11.205 70.4279 11.955C70.4279 12.535 70.2829 13.05 69.9929 13.5C69.7029 13.94 69.3029 14.295 68.7929 14.565C68.2929 14.825 67.7079 14.99 67.0379 15.06L67.3229 14.745V16.725H65.8229ZM72.207 15L77.322 5.37V6.03H71.742V4.425H79.107V5.865L74.322 15H72.207ZM84.4111 15.15C83.5811 15.15 82.8761 14.94 82.2961 14.52C81.7261 14.09 81.2911 13.47 80.9911 12.66C80.7011 11.85 80.5561 10.86 80.5561 9.69C80.5561 8.51 80.7011 7.52 80.9911 6.72C81.2911 5.91 81.7261 5.3 82.2961 4.89C82.8761 4.48 83.5811 4.275 84.4111 4.275C85.2511 4.275 85.9561 4.48 86.5261 4.89C87.1061 5.3 87.5411 5.905 87.8311 6.705C88.1211 7.505 88.2661 8.495 88.2661 9.675C88.2661 10.845 88.1161 11.84 87.8161 12.66C87.5261 13.47 87.0961 14.09 86.5261 14.52C85.9561 14.94 85.2511 15.15 84.4111 15.15ZM84.4111 13.575C85.0911 13.575 85.5911 13.265 85.9111 12.645C86.2411 12.015 86.4061 11.025 86.4061 9.675C86.4061 8.335 86.2411 7.365 85.9111 6.765C85.5911 6.155 85.0911 5.85 84.4111 5.85C83.7411 5.85 83.2411 6.155 82.9111 6.765C82.5811 7.365 82.4161 8.34 82.4161 9.69C82.4161 11.03 82.5811 12.015 82.9111 12.645C83.2411 13.265 83.7411 13.575 84.4111 13.575ZM93.4053 15.15C92.5753 15.15 91.8703 14.94 91.2903 14.52C90.7203 14.09 90.2853 13.47 89.9853 12.66C89.6953 11.85 89.5503 10.86 89.5503 9.69C89.5503 8.51 89.6953 7.52 89.9853 6.72C90.2853 5.91 90.7203 5.3 91.2903 4.89C91.8703 4.48 92.5753 4.275 93.4053 4.275C94.2453 4.275 94.9503 4.48 95.5203 4.89C96.1003 5.3 96.5353 5.905 96.8253 6.705C97.1153 7.505 97.2603 8.495 97.2603 9.675C97.2603 10.845 97.1103 11.84 96.8103 12.66C96.5203 13.47 96.0903 14.09 95.5203 14.52C94.9503 14.94 94.2453 15.15 93.4053 15.15ZM93.4053 13.575C94.0853 13.575 94.5853 13.265 94.9053 12.645C95.2353 12.015 95.4003 11.025 95.4003 9.675C95.4003 8.335 95.2353 7.365 94.9053 6.765C94.5853 6.155 94.0853 5.85 93.4053 5.85C92.7353 5.85 92.2353 6.155 91.9053 6.765C91.5753 7.365 91.4103 8.34 91.4103 9.69C91.4103 11.03 91.5753 12.015 91.9053 12.645C92.2353 13.265 92.7353 13.575 93.4053 13.575ZM99.0844 15V4.425H100.689L104.679 11.79H104.199L108.174 4.425H109.749V15H108.009V7.275H108.339L104.979 13.395H103.854L100.464 7.26H100.824V15H99.0844Z" fill="white"/>
<defs>
<linearGradient id="paint0_linear_4683_3648" x1="1" y1="40" x2="224" y2="40" gradientUnits="userSpaceOnUse">
<stop stop-color="#181A20"/>
<stop offset="1" stop-color="#A06AFF"/>
</linearGradient>
</defs>
</svg>
