<svg width="390" height="211" viewBox="0 0 390 211" fill="none" xmlns="http://www.w3.org/2000/svg">
<path d="M13.3736 183.891L9 181.456V210.664H381V31.9361L377.841 41.3246L375.654 57.3198L373.225 56.2766L372.01 59.7538L369.094 27.4157L368.122 31.9361L366.421 29.8497L362.777 33.6747L360.833 50.3653L359.375 46.1927C358.808 50.0176 357.674 57.5979 357.674 57.3198C357.674 57.0416 356.702 51.8721 356.216 49.3222L354.758 57.6675L352.814 48.9744L350.385 46.5404L349.17 23.9385L345.525 35.0656H344.31L343.338 37.4996L342.609 33.327L340.423 53.4948L339.694 47.9313L337.264 46.5404L335.806 52.4517L335.32 39.9337L334.105 46.5404L332.404 37.4996L330.946 42.3677L330.217 39.9337L329.489 41.3246L328.031 29.1543L326.816 55.2334L324.872 44.1063L322.928 41.3246L320.984 59.4061L317.826 69.8378L315.396 67.7514L315.153 76.4445L313.938 69.49L311.994 78.8785L310.536 100.09L308.835 101.133L307.135 102.524L306.163 116.085L304.948 117.823L302.032 116.085L298.387 108.435L297.172 118.867L294.014 122.691L292.799 121.301L292.313 124.778L289.154 118.867L288.668 121.648L285.266 119.91L282.351 127.212L282.108 132.428L280.65 131.037L278.949 136.253L277.734 132.428H274.818L274.332 134.166H273.361L271.66 138.339L268.744 134.862L267.286 127.56L265.585 127.907L263.884 136.253L262.669 133.471L261.941 137.296L260.726 134.862L256.595 137.296L254.651 146.337L251.735 143.903L250.764 150.509L248.577 147.727L246.876 154.334L245.661 156.421L244.203 156.768L242.259 151.9L241.044 152.943L240.073 146.684L238.858 148.771L235.942 143.903L234.97 145.293L233.998 143.903L232.783 134.862H229.867L228.41 142.859L228.167 141.121L227.438 145.641H226.466L225.251 150.509L223.55 146.337L222.092 151.205L220.148 143.207L218.204 145.641L217.961 151.205L216.99 147.032L215.532 147.727L215.046 145.641L213.831 158.855L212.373 157.464L211.158 161.984L209.7 149.466L208.485 147.727L207.27 141.121L206.299 143.207L203.626 134.862L202.897 135.905H201.439C201.115 137.875 200.467 141.886 200.467 142.164C200.467 142.442 197.875 135.789 196.579 132.428L193.907 135.905L192.692 140.078L190.991 137.296L189.776 147.032L185.645 153.986L184.916 151.205L183.459 154.682H182.001L181.272 150.509L179.814 153.291C178.68 150.277 176.364 144.042 176.169 143.207C175.975 142.373 173.82 147.032 172.767 149.466L170.095 144.25L168.88 147.727L166.936 137.296L164.749 139.034L163.534 144.946L162.076 133.819L158.189 134.862L156.488 129.646L155.516 132.428L153.572 127.212L152.843 129.646H151.871L149.927 124.43L147.984 129.646L144.825 130.341L143.61 128.255L143.124 131.732L141.423 131.037L139.479 128.255H138.022L137.536 129.646L136.078 128.95L132.919 122.344C132.676 125.473 132.19 132.15 132.19 133.819C132.19 135.488 130.57 131.269 129.76 128.95L128.545 133.123L127.816 131.037L126.845 140.425L125.873 137.296L124.415 140.425L122.957 141.121L122.228 134.862L120.527 141.121L116.882 133.819L115.425 135.905V143.207L113.481 144.25L111.537 132.428L110.079 137.296L107.892 132.428L106.434 133.123L104.491 127.212L103.762 131.732L102.79 129.646L100.603 132.428L99.631 137.296L98.902 131.037L96.7152 133.123L96.2293 129.646L95.0144 133.123L92.5846 119.91L90.8837 123.387L90.3978 119.214L88.6969 127.212L86.5101 125.126L85.0523 131.037L82.3795 119.214L80.4357 122.691L79.2208 119.91L78.2489 123.387L75.8191 120.605L72.9033 134.862L70.7165 126.516L69.5016 138.339L68.5297 128.95L67.5578 125.126L66.5859 131.732L65.614 124.43L63.6702 118.171L62.9412 121.648L61.4833 120.605L60.7544 126.516L58.8106 127.212L56.1378 135.905L54.194 125.821C53.3841 129.53 51.7642 137.226 51.7642 138.339V137.644L50.3063 140.773L48.3625 137.644V147.38C48.3625 147.658 46.9046 153.986 46.1757 157.116L44.7178 156.073L43.017 158.159L41.3161 156.073L40.3442 158.855L39.1293 157.116L37.9144 158.855L36.9425 156.073L33.7838 163.723L32.8119 162.679L25.7655 177.979L23.5787 176.241L21.1489 179.022L19.2051 177.979L18.4762 180.761L16.0464 179.022L13.3736 183.891Z" fill="url(#paint0_linear_921_3987)"/>
<g filter="url(#filter0_d_921_3987)">
<path d="M9 165.914L13.3736 168.339L16.0464 163.489L18.4762 165.221L19.2051 162.45L21.1489 163.489L23.5787 160.718L25.7655 162.45L32.8119 147.209L33.7838 148.248L36.9425 140.628L37.9144 143.399L39.1293 141.667L40.3442 143.399L41.3161 140.628L43.017 142.706L44.7178 140.628L46.1757 141.667C46.9046 138.549 48.3625 132.245 48.3625 131.968C48.3625 131.691 48.3625 125.387 48.3625 122.269L50.3063 125.387L51.7642 122.269C51.7642 122.962 51.7642 124.07 51.7642 122.962C51.7642 121.853 53.3841 114.187 54.194 110.492L56.1378 120.537L58.8106 111.877L60.7544 111.185L61.4833 105.296L62.9412 106.335L63.6702 102.871L65.614 109.106L66.5859 116.381L67.5578 109.799L68.5297 113.609L69.5016 122.962L70.7165 111.185L72.9033 119.498L75.8191 105.296L78.2489 108.067L79.2208 104.603L80.4357 107.374L82.3795 103.911L85.0523 115.688L86.5101 109.799L88.6969 111.877L90.3978 103.911L90.8837 108.067L92.5846 104.603L95.0144 117.766L96.2293 114.302L96.7152 117.766L98.902 115.688L99.631 121.923L100.603 117.073L102.79 114.302L103.762 116.381L104.491 111.877L106.434 117.766L107.892 117.073L110.079 121.923L111.537 117.073L113.481 128.85L115.425 127.811V120.537L116.882 118.459L120.527 125.733L122.228 119.498L122.957 125.733L124.415 125.04L125.873 121.923L126.845 125.04L127.816 115.688L128.545 117.766L129.76 113.609C130.57 115.919 132.19 120.122 132.19 118.459C132.19 116.796 132.676 110.146 132.919 107.028L136.078 113.609L137.536 114.302L138.022 112.917H139.479L141.423 115.688L143.124 116.381L143.61 112.917L144.825 114.995L147.984 114.302L149.927 109.106L151.871 114.302H152.843L153.572 111.877L155.516 117.073L156.488 114.302L158.189 119.498L162.076 118.459L163.534 129.543L164.749 123.655L166.936 121.923L168.88 132.314L170.095 128.85L172.767 134.046C173.82 131.622 175.975 126.98 176.169 127.811C176.364 128.643 178.68 134.855 179.814 137.857L181.272 135.085L182.001 139.242H183.459L184.916 135.778L185.645 138.549L189.776 131.622L190.991 121.923L192.692 124.694L193.907 120.537L196.579 117.073C197.875 120.422 200.467 127.049 200.467 126.772C200.467 126.495 201.115 122.5 201.439 120.537H202.897L203.626 119.498L206.299 127.811L207.27 125.733L208.485 132.314L209.7 134.046L211.158 146.516L212.373 142.013L213.831 143.399L215.046 130.236L215.532 132.314L216.99 131.622L217.961 135.778L218.204 130.236L220.148 127.811L222.092 135.778L223.55 130.929L225.251 135.085L226.466 130.236H227.438L228.167 125.733L228.41 127.465L229.867 119.498H232.783L233.998 128.504L234.97 129.89L235.942 128.504L238.858 133.354L240.073 131.275L241.044 137.51L242.259 136.471L244.203 141.32L245.661 140.974L246.876 138.896L248.577 132.314L250.764 135.085L251.735 128.504L254.651 130.929L256.595 121.923L260.726 119.498L261.941 121.923L262.669 118.112L263.884 120.884L265.585 112.57L267.286 112.224L268.744 119.498L271.66 122.962L273.361 118.805H274.332L274.818 117.073H277.734L278.949 120.884L280.65 115.688L282.108 117.073L282.351 111.877L285.266 104.603L288.668 106.335L289.154 103.564L292.313 109.453L292.799 105.989L294.014 107.374L297.172 103.564L298.387 93.1725L302.032 100.793L304.948 102.525L306.163 100.793L307.135 87.2838L308.835 85.8983L310.536 84.8591L311.994 63.7294L313.938 54.3769L315.153 61.3047L315.396 52.645L317.826 54.7233L320.984 44.3316L322.928 26.3194L324.872 29.0905L326.816 40.175L328.031 14.1958L329.489 26.3194L330.218 24.9339L330.946 27.3586L332.404 22.5092L334.105 31.5153L335.32 24.9339L335.806 37.4039L337.264 31.5153L339.694 32.9008L340.423 38.443L342.609 18.3525L343.338 22.5092L344.31 20.0844H345.525L349.17 9L350.385 31.5153L352.814 33.94L354.758 42.5997L356.216 34.2864C356.702 36.8266 357.674 41.9762 357.674 42.2533C357.674 42.5304 358.808 34.9792 359.375 31.1689L360.833 35.3255L362.777 18.6989L366.421 14.8886L368.122 16.9669L369.094 12.4639L372.01 44.678L373.225 41.2142L375.654 42.2533L377.841 26.3194L381 16.9669" stroke="#A06AFF" stroke-width="1.5" stroke-linecap="round"/>
</g>
<defs>
<filter id="filter0_d_921_3987" x="0.25" y="0.765625" width="389.5" height="176.594" filterUnits="userSpaceOnUse" color-interpolation-filters="sRGB">
<feFlood flood-opacity="0" result="BackgroundImageFix"/>
<feColorMatrix in="SourceAlpha" type="matrix" values="0 0 0 0 0 0 0 0 0 0 0 0 0 0 0 0 0 0 127 0" result="hardAlpha"/>
<feOffset/>
<feGaussianBlur stdDeviation="4"/>
<feComposite in2="hardAlpha" operator="out"/>
<feColorMatrix type="matrix" values="0 0 0 0 0.627451 0 0 0 0 0.415686 0 0 0 0 1 0 0 0 0.24 0"/>
<feBlend mode="normal" in2="BackgroundImageFix" result="effect1_dropShadow_921_3987"/>
<feBlend mode="normal" in="SourceGraphic" in2="effect1_dropShadow_921_3987" result="shape"/>
</filter>
<linearGradient id="paint0_linear_921_3987" x1="195" y1="23.9385" x2="195" y2="210.664" gradientUnits="userSpaceOnUse">
<stop stop-color="#A06AFF" stop-opacity="0.32"/>
<stop offset="1" stop-color="#181A20" stop-opacity="0"/>
</linearGradient>
</defs>
</svg>
