<svg width="45" height="44" viewBox="0 0 45 44" fill="none" xmlns="http://www.w3.org/2000/svg">
<g clip-path="url(#clip0_2_8423)">
<path d="M0.25 0H44.25V44H0.25V0Z" fill="#0D47A1"/>
<path d="M22.25 9.77778V0H0.25V22H10.0278V14.6667L17.3611 22H22.25V17.1111L14.9167 9.77778H22.25Z" fill="#F8F9FD"/>
<path d="M7.58333 2.44444V0H2.69444V2.44444H0.25V7.33333H2.69444V22H7.58333V7.33333H22.25V2.44444H7.58333Z" fill="#EF5350"/>
<path d="M22.25 19.5551L12.4722 9.77734H10.0278L22.25 21.9996V19.5551Z" fill="#EF5350"/>
<path d="M17.3611 31.7776L14.9166 32.9998V34.222H13.6944L12.4722 36.6664L11.25 34.222H10.0278V32.9998L7.58331 31.7776L10.0278 30.5553V29.3331H11.25L12.4722 26.8887L13.6944 29.3331H14.9166V30.5553L17.3611 31.7776Z" fill="#F8F9FD"/>
<path d="M32.1745 30.8484L32.7856 32.1195L34.1545 31.8018L33.5433 33.0484L34.6433 33.9284L33.2745 34.2218V35.6395L32.1745 34.7595L31.0989 35.6395V34.2218L29.73 33.9284L30.83 33.0484L30.2189 31.8018L31.5878 32.1195L32.1745 30.8484ZM26.5767 17.4529L27.1633 18.724L28.5322 18.4062L27.9211 19.6529L29.0211 20.5329L27.6522 20.8506V22.244L26.5767 21.364L25.4767 22.244V20.8506L24.1078 20.5329L25.2078 19.6529L24.5967 18.4062L25.9656 18.724L26.5767 17.4529ZM32.1745 9.80176L32.7856 11.0729L34.1545 10.7551L33.5433 12.0018L34.6433 12.8818L33.2745 13.1751V14.5929L32.1745 13.7129L31.0989 14.5929V13.1751L29.73 12.8818L30.83 12.0018L30.2189 10.7551L31.5878 11.0729L32.1745 9.80176ZM37.0878 15.5462L37.6989 16.8173L39.0678 16.4995L38.4567 17.7462L39.5322 18.6262L38.1878 18.9195V20.3373L37.0878 19.4573L35.9878 20.3373V18.9195L34.6433 18.6262L35.7433 17.7462L35.1322 16.4995L36.4767 16.8173L37.0878 15.5462ZM33.5922 22.244L34.0811 23.7106H35.5967L34.3745 24.6151L34.8389 26.0818L33.5922 25.1529L32.3456 26.0573L32.8345 24.5906L31.5633 23.7106H33.1033L33.5922 22.244Z" fill="#F8F9FD"/>
</g>
<defs>
<clipPath id="clip0_2_8423">
<rect x="0.25" width="44" height="44" rx="22" fill="white"/>
</clipPath>
</defs>
</svg>
