<svg width="44" height="44" viewBox="0 0 44 44" fill="none" xmlns="http://www.w3.org/2000/svg">
<g clip-path="url(#clip0_2_8358)">
<path d="M0 0H44V44H0V0Z" fill="#1565C0"/>
<path d="M21.8778 4.88867L22.7822 7.67534H25.7156L23.3444 9.38645L24.2489 12.1731L21.8778 10.462L19.5311 12.1731L20.4111 9.41089L18.0644 7.69978H20.9978L21.8533 4.88867H21.8778ZM9.87555 9.87534L12.4911 11.1953L14.5444 9.142L14.1044 12.0264L16.6956 13.3464L13.8111 13.8109L13.3467 16.6953L12.0267 14.1042L9.14222 14.5442L11.1956 12.4909L9.87555 9.87534ZM4.88889 21.8776L7.67555 20.9731V18.0398L9.38666 20.4109L12.1978 19.5553L10.4867 21.902L12.1978 24.2731L9.43555 23.3687L7.72444 25.7398V22.8064L4.88889 21.8776ZM9.87555 33.8798L11.1956 31.2887L9.14222 29.2109L12.0267 29.6753L13.3467 27.0598L13.8111 29.9687L16.6956 30.4087L14.1044 31.7531L14.5444 34.6376L12.4911 32.5598L9.87555 33.8798ZM21.8778 38.8664L20.9733 36.0798H18.04L20.4111 34.3687L19.5556 31.582L21.9022 33.2931L24.2733 31.582L23.3689 34.3687L25.74 36.0798H22.8067L21.9022 38.8664H21.8778ZM33.88 33.8798L31.2889 32.5598L29.2111 34.6376L29.6756 31.7531L27.06 30.4087L29.9689 29.9687L30.4089 27.0598L31.7533 29.6753L34.6378 29.2109L32.56 31.2887L33.88 33.8798ZM38.8667 21.8776L36.08 22.782V25.7153L34.3689 23.3442L31.5822 24.2487L33.2933 21.8776L31.5822 19.5309L34.3689 20.4109L36.08 18.0642V20.9976L38.8667 21.8776ZM33.88 9.87534L32.56 12.4909L34.6378 14.5442L31.7533 14.1042L30.4089 16.6953L29.9689 13.8109L27.06 13.3464L29.6756 12.0264L29.2111 9.142L31.2889 11.1953L33.88 9.87534Z" fill="#FDD835"/>
</g>
<defs>
<clipPath id="clip0_2_8358">
<rect width="44" height="44" rx="22" fill="white"/>
</clipPath>
</defs>
</svg>
