<svg width="44" height="44" viewBox="0 0 44 44" fill="none" xmlns="http://www.w3.org/2000/svg">
<g clip-path="url(#clip0_2_8370)">
<path d="M0 0H44V44H0V0Z" fill="white"/>
<path d="M17.1111 0H2.44444L17.1111 13.4444V0ZM26.8889 0V14.6667L42.7778 0H26.8889ZM44 11L36.6667 17.1111H44V11ZM44 26.8889H34.2222L44 35.4444V26.8889ZM41.5556 44L26.8889 30.5556V44H41.5556ZM17.1111 44V29.3333L1.22222 44H17.1111ZM0 33L7.33333 26.8889H0V33ZM0 17.1111H9.77778L0 8.55556V17.1111Z" fill="#0D47A1"/>
<path d="M17.1111 17.1107L-15.8889 -12.2227V-6.60043L12.2222 17.1107H17.1111ZM19.5556 19.5551V-0.000433922H24.4444V19.5551H44V24.444H24.4444V43.9996H19.5556V24.444H0V19.5551H19.5556ZM-22 56.2218L12.2222 26.8885H17.1111L-15.8889 56.2218H-22ZM26.8889 17.1107L56.2222 -9.77821H61.6L31.7778 17.1107H26.8889ZM31.7778 26.8885H26.8889L55 51.3329V46.444L31.7778 26.8885Z" fill="#EF5350"/>
</g>
<defs>
<clipPath id="clip0_2_8370">
<rect width="44" height="44" rx="22" fill="white"/>
</clipPath>
</defs>
</svg>
