<svg width="45" height="44" viewBox="0 0 45 44" fill="none" xmlns="http://www.w3.org/2000/svg">
<g clip-path="url(#clip0_2_8410)">
<path d="M0.25 44H44.25V0H0.25V44Z" fill="#F0F3FA"/>
<path d="M22.25 12.2227C24.8432 12.2227 27.3303 13.2528 29.1639 15.0865C30.9976 16.9202 32.0278 19.4072 32.0278 22.0004C32.0278 24.5937 30.9976 27.0807 29.1639 28.9144C27.3303 30.7481 24.8432 31.7782 22.25 31.7782C19.6568 31.7782 17.1698 30.7481 15.3361 28.9144C13.5024 27.0807 12.4722 24.5937 12.4722 22.0004C12.4722 19.4072 13.5024 16.9202 15.3361 15.0865C17.1698 13.2528 19.6568 12.2227 22.25 12.2227Z" fill="#F7525F"/>
<path fill-rule="evenodd" clip-rule="evenodd" d="M22.25 42.7778C24.9786 42.7778 27.6804 42.2403 30.2013 41.1962C32.7222 40.152 35.0127 38.6215 36.9421 36.6921C38.8715 34.7627 40.402 32.4722 41.4462 29.9513C42.4903 27.4304 43.0278 24.7286 43.0278 22C43.0278 19.2714 42.4903 16.5696 41.4462 14.0487C40.402 11.5278 38.8715 9.23729 36.9421 7.30789C35.0127 5.3785 32.7222 3.84802 30.2013 2.80384C27.6804 1.75966 24.9786 1.22222 22.25 1.22222C16.7394 1.22222 11.4545 3.4113 7.55789 7.30789C3.6613 11.2045 1.47222 16.4894 1.47222 22C1.47222 27.5106 3.6613 32.7955 7.55789 36.6921C11.4545 40.5887 16.7394 42.7778 22.25 42.7778ZM22.25 44C28.0848 44 33.6805 41.6821 37.8064 37.5564C41.9321 33.4305 44.25 27.8348 44.25 22C44.25 16.1652 41.9321 10.5695 37.8064 6.44365C33.6805 2.31785 28.0848 0 22.25 0C16.4152 0 10.8195 2.31785 6.69365 6.44365C2.56785 10.5695 0.25 16.1652 0.25 22C0.25 27.8348 2.56785 33.4305 6.69365 37.5564C10.8195 41.6821 16.4152 44 22.25 44Z" fill="#E0E3EB"/>
</g>
<defs>
<clipPath id="clip0_2_8410">
<rect x="0.25" width="44" height="44" rx="22" fill="white"/>
</clipPath>
</defs>
</svg>
