<svg width="45" height="44" viewBox="0 0 45 44" fill="none" xmlns="http://www.w3.org/2000/svg">
<g clip-path="url(#clip0_2_8452)">
<path d="M0.25 0H44.25V44H0.25V0Z" fill="#26C6DA"/>
<path d="M14.7944 22H10.0278C10.0278 23.8089 11.4944 25.2511 13.2055 25.2511H13.0833C13.0833 27.06 14.4522 28.5267 16.1389 28.5267C16.1389 30.3111 17.5078 31.7778 19.1944 31.7778H25.3055C26.9922 31.7778 28.3611 30.3111 28.3611 28.5267C30.0478 28.5267 31.4167 27.06 31.4167 25.2511H31.3189C33.0055 25.2511 34.4722 23.7844 34.4722 22H29.7055C29.0287 23.409 27.9725 24.6014 26.6555 25.4434C25.3385 26.2854 23.8129 26.7436 22.25 26.7667C20.687 26.7436 19.1615 26.2854 17.8445 25.4434C16.5275 24.6014 15.4713 23.409 14.7944 22Z" fill="#FDD835"/>
<path d="M28.3611 18.3338L25.8678 19.556L27.1878 22.1227L24.4989 21.5604L24.1078 24.4449L22.25 22.3182L20.3678 24.4449L20.0256 21.5604L17.3122 22.1227L18.6322 19.556L16.1389 18.3338L18.6322 17.1115L17.3122 14.5449L20.0011 15.1071L20.3922 12.2227L22.2745 14.3493L24.1567 12.2227L24.4989 15.1071L27.2122 14.5449L25.8678 17.1115L28.3611 18.3582V18.3338Z" fill="#FDD835"/>
</g>
<defs>
<clipPath id="clip0_2_8452">
<rect x="0.25" width="44" height="44" rx="22" fill="white"/>
</clipPath>
</defs>
</svg>
