<svg width="21" height="20" viewBox="0 0 21 20" fill="none" xmlns="http://www.w3.org/2000/svg">
<path d="M3.4165 10.4167V16.25C3.4165 16.6383 3.4165 16.8324 3.47994 16.9856C3.56451 17.1898 3.72675 17.352 3.93094 17.4366C4.08408 17.5 4.27822 17.5 4.6665 17.5C5.05479 17.5 5.24893 17.5 5.40207 17.4366C5.60626 17.352 5.7685 17.1898 5.85307 16.9856C5.9165 16.8324 5.9165 16.6383 5.9165 16.25V10.4167C5.9165 10.0284 5.9165 9.83427 5.85307 9.6811C5.7685 9.47694 5.60626 9.31469 5.40207 9.2301C5.24893 9.16669 5.05479 9.16669 4.6665 9.16669C4.27822 9.16669 4.08408 9.16669 3.93094 9.2301C3.72675 9.31469 3.56451 9.47694 3.47994 9.6811C3.4165 9.83427 3.4165 10.0284 3.4165 10.4167Z" stroke="currentColor" stroke-width="1.5" stroke-linecap="square" stroke-linejoin="round"/>
<path d="M9.25 12.0833V16.2496C9.25 16.6378 9.25 16.832 9.31342 16.9851C9.398 17.1893 9.56025 17.3516 9.76442 17.4361C9.91758 17.4996 10.1117 17.4996 10.5 17.4996C10.8882 17.4996 11.0824 17.4996 11.2356 17.4361C11.4397 17.3516 11.602 17.1893 11.6866 16.9851C11.75 16.832 11.75 16.6378 11.75 16.2496V12.0833C11.75 11.6951 11.75 11.5009 11.6866 11.3477C11.602 11.1436 11.4397 10.9813 11.2356 10.8967C11.0824 10.8333 10.8882 10.8333 10.5 10.8333C10.1117 10.8333 9.91758 10.8333 9.76442 10.8967C9.56025 10.9813 9.398 11.1436 9.31342 11.3477C9.25 11.5009 9.25 11.6951 9.25 12.0833Z" stroke="currentColor" stroke-width="1.5" stroke-linecap="square" stroke-linejoin="round"/>
<path d="M15.0835 8.75V16.25C15.0835 16.6382 15.0835 16.8324 15.1469 16.9856C15.2315 17.1897 15.3937 17.352 15.5979 17.4366C15.7511 17.5 15.9452 17.5 16.3335 17.5C16.7217 17.5 16.9159 17.5 17.0691 17.4366C17.2732 17.352 17.4355 17.1897 17.5201 16.9856C17.5835 16.8324 17.5835 16.6382 17.5835 16.25V8.75C17.5835 8.36175 17.5835 8.16758 17.5201 8.01443C17.4355 7.81024 17.2732 7.64801 17.0691 7.56343C16.9159 7.5 16.7217 7.5 16.3335 7.5C15.9452 7.5 15.7511 7.5 15.5979 7.56343C15.3937 7.64801 15.2315 7.81024 15.1469 8.01443C15.0835 8.16758 15.0835 8.36175 15.0835 8.75Z" stroke="currentColor" stroke-width="1.5" stroke-linecap="square" stroke-linejoin="round"/>
<path d="M5.9165 5.41669C5.9165 6.10705 5.35686 6.66669 4.6665 6.66669C3.97615 6.66669 3.4165 6.10705 3.4165 5.41669C3.4165 4.72633 3.97615 4.16669 4.6665 4.16669C5.35686 4.16669 5.9165 4.72633 5.9165 5.41669Z" stroke="currentColor" stroke-width="1.5"/>
<path d="M17.5835 3.75C17.5835 4.44036 17.0238 5 16.3335 5C15.6432 5 15.0835 4.44036 15.0835 3.75C15.0835 3.05964 15.6432 2.5 16.3335 2.5C17.0238 2.5 17.5835 3.05964 17.5835 3.75Z" stroke="currentColor" stroke-width="1.5"/>
<path d="M11.75 7.08331C11.75 7.77367 11.1903 8.33331 10.5 8.33331C9.80967 8.33331 9.25 7.77367 9.25 7.08331C9.25 6.39295 9.80967 5.83331 10.5 5.83331C11.1903 5.83331 11.75 6.39295 11.75 7.08331Z" stroke="currentColor" stroke-width="1.5"/>
<path d="M5.86963 5.75999L9.2985 6.73968M11.5862 6.46289L15.2486 4.37012" stroke="currentColor" stroke-width="1.5"/>
</svg>
