<svg width="20" height="20" viewBox="0 0 20 20" fill="none" xmlns="http://www.w3.org/2000/svg">
<path d="M2.9165 7.91699V15.417C2.9165 15.8052 2.9165 15.9994 2.97994 16.1526C3.06451 16.3567 3.22675 16.519 3.43094 16.6036C3.58408 16.667 3.77822 16.667 4.1665 16.667C4.55479 16.667 4.74893 16.667 4.90207 16.6036C5.10626 16.519 5.2685 16.3567 5.35307 16.1526C5.4165 15.9994 5.4165 15.8052 5.4165 15.417V7.91699C5.4165 7.52871 5.4165 7.33457 5.35307 7.18143C5.2685 6.97723 5.10626 6.815 4.90207 6.73043C4.74893 6.66699 4.55479 6.66699 4.1665 6.66699C3.77822 6.66699 3.58408 6.66699 3.43094 6.73043C3.22675 6.815 3.06451 6.97723 2.97994 7.18143C2.9165 7.33457 2.9165 7.52871 2.9165 7.91699Z" stroke="currentColor" stroke-width="1.5" stroke-linecap="square" stroke-linejoin="round"/>
<path d="M8.75 4.58301V15.4159C8.75 15.8042 8.75 15.9983 8.81342 16.1515C8.898 16.3557 9.06025 16.5179 9.26442 16.6025C9.41758 16.6659 9.61175 16.6659 10 16.6659C10.3882 16.6659 10.5824 16.6659 10.7356 16.6025C10.9397 16.5179 11.102 16.3557 11.1866 16.1515C11.25 15.9983 11.25 15.8042 11.25 15.4159V4.58301C11.25 4.19472 11.25 4.00058 11.1866 3.84744C11.102 3.64325 10.9397 3.48102 10.7356 3.39644C10.5824 3.33301 10.3882 3.33301 10 3.33301C9.61175 3.33301 9.41758 3.33301 9.26442 3.39644C9.06025 3.48102 8.898 3.64325 8.81342 3.84744C8.75 4.00058 8.75 4.19472 8.75 4.58301Z" stroke="currentColor" stroke-width="1.5" stroke-linecap="square" stroke-linejoin="round"/>
<path d="M14.5835 10.417V15.417C14.5835 15.8052 14.5835 15.9994 14.6469 16.1526C14.7315 16.3567 14.8937 16.519 15.0979 16.6036C15.2511 16.667 15.4452 16.667 15.8335 16.667C16.2217 16.667 16.4159 16.667 16.5691 16.6036C16.7732 16.519 16.9355 16.3567 17.0201 16.1526C17.0835 15.9994 17.0835 15.8052 17.0835 15.417V10.417C17.0835 10.0287 17.0835 9.83458 17.0201 9.68141C16.9355 9.47724 16.7732 9.31499 16.5691 9.23041C16.4159 9.16699 16.2217 9.16699 15.8335 9.16699C15.4452 9.16699 15.2511 9.16699 15.0979 9.23041C14.8937 9.31499 14.7315 9.47724 14.6469 9.68141C14.5835 9.83458 14.5835 10.0287 14.5835 10.417Z" stroke="currentColor" stroke-width="1.5" stroke-linecap="square" stroke-linejoin="round"/>
</svg>
