<svg width="21" height="20" viewBox="0 0 21 20" fill="none" xmlns="http://www.w3.org/2000/svg">
<path d="M13.4168 9.16667C13.4168 7.55583 12.111 6.25 10.5002 6.25C8.88933 6.25 7.5835 7.55583 7.5835 9.16667C7.5835 10.7775 8.88933 12.0833 10.5002 12.0833C12.111 12.0833 13.4168 10.7775 13.4168 9.16667Z" stroke="currentColor" stroke-width="1.5" stroke-linecap="round" stroke-linejoin="round"/>
<path d="M13.4022 9.45825C13.6705 9.53958 13.9551 9.58333 14.2499 9.58333C15.8607 9.58333 17.1666 8.2775 17.1666 6.66667C17.1666 5.05583 15.8607 3.75 14.2499 3.75C12.7375 3.75 11.4939 4.90117 11.3477 6.37511" stroke="currentColor" stroke-width="1.5" stroke-linecap="round" stroke-linejoin="round"/>
<path d="M9.65241 6.37511C9.50616 4.90117 8.2626 3.75 6.75016 3.75C5.13933 3.75 3.8335 5.05583 3.8335 6.66667C3.8335 8.2775 5.13933 9.58333 6.75016 9.58333C7.045 9.58333 7.32962 9.53958 7.59789 9.45825" stroke="currentColor" stroke-width="1.5" stroke-linecap="round" stroke-linejoin="round"/>
<path d="M18.8333 13.75C18.8333 11.4488 16.7813 9.58331 14.25 9.58331" stroke="currentColor" stroke-width="1.5" stroke-linecap="round" stroke-linejoin="round"/>
<path d="M15.0832 16.25C15.0832 13.9488 13.0312 12.0833 10.4998 12.0833C7.96853 12.0833 5.9165 13.9488 5.9165 16.25" stroke="currentColor" stroke-width="1.5" stroke-linecap="round" stroke-linejoin="round"/>
<path d="M6.74984 9.58331C4.21853 9.58331 2.1665 11.4488 2.1665 13.75" stroke="currentColor" stroke-width="1.5" stroke-linecap="round" stroke-linejoin="round"/>
</svg>
