<svg width="21" height="20" viewBox="0 0 21 20" fill="none" xmlns="http://www.w3.org/2000/svg">
<path d="M2.5835 9.99992C2.5835 6.26797 2.5835 4.40199 3.74286 3.24262C4.90224 2.08325 6.76821 2.08325 10.5002 2.08325C14.2321 2.08325 16.0981 2.08325 17.2575 3.24262C18.4168 4.40199 18.4168 6.26797 18.4168 9.99992C18.4168 13.7318 18.4168 15.5978 17.2575 16.7573C16.0981 17.9166 14.2321 17.9166 10.5002 17.9166C6.76821 17.9166 4.90224 17.9166 3.74286 16.7573C2.5835 15.5978 2.5835 13.7318 2.5835 9.99992Z" stroke="currentColor" stroke-width="1.5"/>
<path d="M5.50016 11.25L6.75016 7.5L8.31266 11.25M5.50016 11.25L5.0835 12.5M5.50016 11.25H8.31266M8.31266 11.25L8.8335 12.5" stroke="currentColor" stroke-width="1.5" stroke-linecap="round" stroke-linejoin="round"/>
<path d="M10.9165 10V8.08333C10.9165 7.92822 10.9165 7.85068 10.9369 7.78791C10.9781 7.66106 11.0776 7.56161 11.2044 7.52039C11.2672 7.5 11.3448 7.5 11.4998 7.5H12.5832C13.2735 7.5 13.8332 8.05964 13.8332 8.75C13.8332 9.44033 13.2735 10 12.5832 10H10.9165ZM10.9165 10V12.5" stroke="currentColor" stroke-width="1.5" stroke-linecap="round" stroke-linejoin="round"/>
<path d="M15.9165 7.5V12.5" stroke="currentColor" stroke-width="1.5" stroke-linecap="round" stroke-linejoin="round"/>
</svg>
