<svg width="21" height="20" viewBox="0 0 21 20" fill="none" xmlns="http://www.w3.org/2000/svg">
<path d="M2.60843 12.3081C2.43122 13.4697 3.2235 14.2761 4.19354 14.6779C7.91251 16.2186 13.0878 16.2186 16.8067 14.6779C17.7768 14.2761 18.5691 13.4697 18.3919 12.3081C18.283 11.5942 17.7445 10.9997 17.3455 10.4192C16.8229 9.6495 16.771 8.80992 16.7709 7.91675C16.7709 4.46496 13.9634 1.66675 10.5002 1.66675C7.03694 1.66675 4.22944 4.46496 4.22944 7.91675C4.22936 8.80992 4.17743 9.6495 3.65484 10.4192C3.25586 10.9997 2.71734 11.5942 2.60843 12.3081Z" stroke="currentColor" stroke-width="1.5" stroke-linecap="round" stroke-linejoin="round"/>
<path d="M7.1665 15.8333C7.54858 17.2709 8.89609 18.3333 10.4998 18.3333C12.1036 18.3333 13.4511 17.2709 13.8332 15.8333" stroke="currentColor" stroke-width="1.5" stroke-linecap="round" stroke-linejoin="round"/>
</svg>
