<svg width="21" height="20" viewBox="0 0 21 20" fill="none" xmlns="http://www.w3.org/2000/svg">
<path d="M13 6.66675C13 8.04746 11.8807 9.16675 10.5 9.16675C9.11925 9.16675 8 8.04746 8 6.66675C8 5.28604 9.11925 4.16675 10.5 4.16675C11.8807 4.16675 13 5.28604 13 6.66675Z" stroke="currentColor" stroke-width="1.5" stroke-linecap="round" stroke-linejoin="round"/>
<path d="M13.8335 3.33325C15.2142 3.33325 16.3335 4.45254 16.3335 5.83325C16.3335 6.85249 15.7235 7.72928 14.8487 8.1185" stroke="currentColor" stroke-width="1.5" stroke-linecap="round" stroke-linejoin="round"/>
<path d="M11.9286 11.6667H9.07143C7.09898 11.6667 5.5 13.2657 5.5 15.2382C5.5 16.0272 6.13959 16.6667 6.92857 16.6667H14.0714C14.8604 16.6667 15.5 16.0272 15.5 15.2382C15.5 13.2657 13.901 11.6667 11.9286 11.6667Z" stroke="currentColor" stroke-width="1.5" stroke-linecap="round" stroke-linejoin="round"/>
<path d="M15.2617 10.8333C17.2341 10.8333 18.8331 12.4323 18.8331 14.4047C18.8331 15.1937 18.1936 15.8333 17.4046 15.8333" stroke="currentColor" stroke-width="1.5" stroke-linecap="round" stroke-linejoin="round"/>
<path d="M7.1665 3.33325C5.7858 3.33325 4.6665 4.45254 4.6665 5.83325C4.6665 6.85249 5.27645 7.72928 6.15124 8.1185" stroke="currentColor" stroke-width="1.5" stroke-linecap="round" stroke-linejoin="round"/>
<path d="M3.59508 15.8333C2.8061 15.8333 2.1665 15.1937 2.1665 14.4047C2.1665 12.4323 3.76549 10.8333 5.73793 10.8333" stroke="currentColor" stroke-width="1.5" stroke-linecap="round" stroke-linejoin="round"/>
</svg>
