<svg  viewBox="0 0 20 20" fill="none" xmlns="http://www.w3.org/2000/svg">
<path d="M2.08337 10C2.08337 6.26806 2.08337 4.40209 3.24274 3.24271C4.40212 2.08334 6.26809 2.08334 10 2.08334C13.732 2.08334 15.598 2.08334 16.7574 3.24271C17.9167 4.40209 17.9167 6.26806 17.9167 10C17.9167 13.7319 17.9167 15.5979 16.7574 16.7573C15.598 17.9167 13.732 17.9167 10 17.9167C6.26809 17.9167 4.40212 17.9167 3.24274 16.7573C2.08337 15.5979 2.08337 13.7319 2.08337 10Z" stroke="currentColor" stroke-width="1.5"/>
<path d="M5.00004 11.25L6.25004 7.5L7.81254 11.25M5.00004 11.25L4.58337 12.5M5.00004 11.25H7.81254M7.81254 11.25L8.33337 12.5" stroke="currentColor" stroke-width="1.5" stroke-linecap="round" stroke-linejoin="round"/>
<path d="M10.4166 10V8.08333C10.4166 7.92822 10.4166 7.85068 10.437 7.78791C10.4782 7.66106 10.5777 7.56161 10.7045 7.52039C10.7673 7.5 10.8449 7.5 11 7.5H12.0833C12.7736 7.5 13.3333 8.05964 13.3333 8.75C13.3333 9.44033 12.7736 10 12.0833 10H10.4166ZM10.4166 10V12.5" stroke="currentColor" stroke-width="1.5" stroke-linecap="round" stroke-linejoin="round"/>
<path d="M15.4166 7.5V12.5" stroke="currentColor" stroke-width="1.5" stroke-linecap="round" stroke-linejoin="round"/>
</svg>
