<svg  viewBox="0 0 20 20" fill="none" xmlns="http://www.w3.org/2000/svg">
<path d="M12.0833 7.08335C12.0833 4.78217 10.2178 2.91669 7.91667 2.91669C5.61548 2.91669 3.75 4.78217 3.75 7.08335C3.75 9.38452 5.61548 11.25 7.91667 11.25C10.2178 11.25 12.0833 9.38452 12.0833 7.08335Z" stroke="currentColor" stroke-width="1.5" stroke-linecap="round" stroke-linejoin="round"/>
<path d="M13.75 17.0833C13.75 13.8617 11.1384 11.25 7.91671 11.25C4.69505 11.25 2.08337 13.8617 2.08337 17.0833" stroke="currentColor" stroke-width="1.5" stroke-linecap="round" stroke-linejoin="round"/>
<path d="M14.5834 8.20515C14.5834 7.35548 15.3295 6.66669 16.25 6.66669C17.1705 6.66669 17.9167 7.35548 17.9167 8.20515C17.9167 8.51144 17.8198 8.79677 17.6526 9.03652C17.1545 9.75102 16.25 10.0158 16.25 10.8654V11.25M16.2419 13.3334H16.2494" stroke="currentColor" stroke-width="1.5" stroke-linecap="round" stroke-linejoin="round"/>
</svg>
