<svg width="20" height="20" viewBox="0 0 20 20" fill="none" xmlns="http://www.w3.org/2000/svg">
<path d="M9.59517 1.74374C9.85534 1.64011 10.1445 1.64011 10.4047 1.74374C11.2433 2.07773 11.4072 3.36388 12.3968 3.43548C13.0936 3.4859 13.7774 2.90499 14.4767 3.07913C14.7587 3.14937 15.0023 3.32917 15.1549 3.57982C15.6226 4.34788 15.019 5.47678 15.7818 6.11408C16.3118 6.55666 17.1875 6.49938 17.6483 7.04193C17.8423 7.27047 17.9376 7.56854 17.9127 7.8691C17.8389 8.76318 16.699 9.32235 16.9495 10.2859C17.1228 10.9529 17.8543 11.4218 17.9127 12.1296C17.9376 12.4302 17.8423 12.7283 17.6483 12.9568C17.0693 13.6384 15.8173 13.4139 15.4563 14.3378C15.2028 14.9863 15.5283 15.8058 15.1549 16.4188C15.0023 16.6695 14.7587 16.8493 14.4767 16.9196C13.6084 17.1358 12.7272 16.2031 11.8917 16.7292C11.2952 17.1047 11.0814 17.9856 10.4047 18.2549C10.1445 18.3586 9.85534 18.3586 9.59517 18.2549C8.91842 17.9856 8.70467 17.1047 8.10816 16.7292C7.28301 16.2097 6.37669 17.1321 5.52318 16.9196C5.24114 16.8493 4.99759 16.6695 4.84496 16.4188C4.3773 15.6508 4.98079 14.5218 4.218 13.8846C3.6881 13.442 2.81237 13.4993 2.35162 12.9568C2.15759 12.7283 2.06229 12.4302 2.08713 12.1296C2.14563 11.4218 2.87692 10.9529 3.05034 10.2859C3.29832 9.33243 2.15995 8.7501 2.08713 7.8691C2.06229 7.56854 2.15759 7.27047 2.35162 7.04193C2.93055 6.36005 4.18241 6.58479 4.54357 5.66087C4.7971 5.01235 4.47165 4.19291 4.84496 3.57982C4.99759 3.32917 5.24114 3.14937 5.52318 3.07913C6.22246 2.90499 6.90623 3.48591 7.60307 3.43548C8.59267 3.3639 8.7565 2.07773 9.59517 1.74374Z" fill="url(#paint0_linear_158_440)"/>
<path d="M7.5 11.1117C7.5 11.1117 8.22917 11.1117 8.95833 12.5007C8.95833 12.5007 11.2745 9.0284 13.3333 8.33398" stroke="white" stroke-width="1.5" stroke-linecap="round" stroke-linejoin="round"/>
<defs>
<linearGradient id="paint0_linear_158_440" x1="17.9166" y1="9.99935" x2="2.08325" y2="9.99935" gradientUnits="userSpaceOnUse">
<stop stop-color="#A06AFF"/>
<stop offset="1" stop-color="#482090"/>
</linearGradient>
</defs>
</svg>
