<svg width="28" height="28" viewBox="0 0 28 28" fill="none" xmlns="http://www.w3.org/2000/svg">
<path d="M2.9519 17.2309C2.70381 18.8572 3.81299 19.9861 5.17105 20.5486C10.3776 22.7056 17.6231 22.7056 22.8295 20.5486C24.1877 19.9861 25.2968 18.8572 25.0488 17.2309C24.8963 16.2314 24.1424 15.3991 23.5838 14.5864C22.8522 13.5089 22.7795 12.3334 22.7794 11.083C22.7794 6.25051 18.8489 2.33301 14.0003 2.33301C9.15181 2.33301 5.22131 6.25051 5.22131 11.083C5.2212 12.3334 5.1485 13.5089 4.41687 14.5864C3.85831 15.3991 3.10437 16.2314 2.9519 17.2309Z" stroke="white" stroke-width="1.5" stroke-linecap="round" stroke-linejoin="round"/>
<path d="M9.33301 22.167C9.86791 24.1797 11.7544 25.667 13.9997 25.667C16.2449 25.667 18.1314 24.1797 18.6663 22.167" stroke="white" stroke-width="1.5" stroke-linecap="round" stroke-linejoin="round"/>
</svg>
