<svg width="1080" height="331" viewBox="0 0 1080 331" fill="none" xmlns="http://www.w3.org/2000/svg">
<path d="M0 12C0 5.37257 5.37258 0 12 0H1068C1074.63 0 1080 5.37258 1080 12V319C1080 325.627 1074.63 331 1068 331H12C5.37261 331 0 325.627 0 319V12Z" fill="#181A20"/>
<path d="M25.72 48.24C23.96 48.24 22.448 47.888 21.184 47.184C19.936 46.464 18.976 45.456 18.304 44.16C17.632 42.848 17.296 41.304 17.296 39.528C17.296 37.752 17.632 36.216 18.304 34.92C18.976 33.624 19.936 32.624 21.184 31.92C22.448 31.2 23.96 30.84 25.72 30.84C26.856 30.84 27.928 31.016 28.936 31.368C29.96 31.72 30.8 32.224 31.456 32.88L30.448 35.328C29.728 34.72 28.992 34.28 28.24 34.008C27.488 33.72 26.68 33.576 25.816 33.576C24.104 33.576 22.8 34.096 21.904 35.136C21.008 36.16 20.56 37.624 20.56 39.528C20.56 41.432 21.008 42.904 21.904 43.944C22.8 44.984 24.104 45.504 25.816 45.504C26.68 45.504 27.488 45.368 28.24 45.096C28.992 44.808 29.728 44.36 30.448 43.752L31.456 46.2C30.8 46.84 29.96 47.344 28.936 47.712C27.928 48.064 26.856 48.24 25.72 48.24ZM37.2912 48.24C36.4432 48.24 35.6832 48.08 35.0112 47.76C34.3552 47.424 33.8352 46.976 33.4512 46.416C33.0832 45.856 32.8992 45.224 32.8992 44.52C32.8992 43.656 33.1232 42.976 33.5712 42.48C34.0192 41.968 34.7472 41.6 35.7552 41.376C36.7632 41.152 38.1152 41.04 39.8112 41.04H41.0112V42.768H39.8352C39.0832 42.768 38.4512 42.8 37.9392 42.864C37.4272 42.912 37.0112 43 36.6912 43.128C36.3872 43.24 36.1632 43.4 36.0192 43.608C35.8912 43.816 35.8272 44.072 35.8272 44.376C35.8272 44.904 36.0112 45.336 36.3792 45.672C36.7472 46.008 37.2592 46.176 37.9152 46.176C38.4432 46.176 38.9072 46.056 39.3072 45.816C39.7232 45.56 40.0512 45.216 40.2912 44.784C40.5312 44.352 40.6512 43.856 40.6512 43.296V40.536C40.6512 39.736 40.4752 39.16 40.1232 38.808C39.7712 38.456 39.1792 38.28 38.3472 38.28C37.6912 38.28 37.0192 38.384 36.3312 38.592C35.6432 38.784 34.9472 39.088 34.2432 39.504L33.3792 37.464C33.7952 37.176 34.2832 36.928 34.8432 36.72C35.4192 36.496 36.0192 36.328 36.6432 36.216C37.2832 36.088 37.8832 36.024 38.4432 36.024C39.5952 36.024 40.5392 36.2 41.2752 36.552C42.0272 36.904 42.5872 37.44 42.9552 38.16C43.3232 38.864 43.5072 39.776 43.5072 40.896V48H40.6992V45.504H40.8912C40.7792 46.064 40.5552 46.552 40.2192 46.968C39.8992 47.368 39.4912 47.68 38.9952 47.904C38.4992 48.128 37.9312 48.24 37.2912 48.24ZM46.5522 52.32V36.264H49.4802V38.736H49.2402C49.4802 37.92 49.9682 37.264 50.7042 36.768C51.4562 36.272 52.3282 36.024 53.3202 36.024C54.3442 36.024 55.2402 36.272 56.0082 36.768C56.7922 37.264 57.4002 37.968 57.8322 38.88C58.2642 39.776 58.4802 40.856 58.4802 42.12C58.4802 43.368 58.2642 44.456 57.8322 45.384C57.4002 46.296 56.8002 47 56.0322 47.496C55.2642 47.992 54.3602 48.24 53.3202 48.24C52.3442 48.24 51.4882 48 50.7522 47.52C50.0162 47.024 49.5202 46.384 49.2642 45.6H49.5522V52.32H46.5522ZM52.4802 45.96C53.3762 45.96 54.0962 45.64 54.6402 45C55.1842 44.344 55.4562 43.384 55.4562 42.12C55.4562 40.84 55.1842 39.888 54.6402 39.264C54.0962 38.624 53.3762 38.304 52.4802 38.304C51.5842 38.304 50.8642 38.624 50.3202 39.264C49.7762 39.888 49.5042 40.84 49.5042 42.12C49.5042 43.384 49.7762 44.344 50.3202 45C50.8642 45.64 51.5842 45.96 52.4802 45.96ZM60.7508 33.744V30.816H64.1108V33.744H60.7508ZM60.9428 48V36.264H63.9428V48H60.9428ZM72.436 48.24C70.868 48.24 69.7 47.848 68.932 47.064C68.164 46.28 67.78 45.136 67.78 43.632V38.52H65.524V36.264H67.78V32.76H70.78V36.264H74.332V38.52H70.78V43.464C70.78 44.232 70.948 44.808 71.284 45.192C71.62 45.576 72.164 45.768 72.916 45.768C73.14 45.768 73.372 45.744 73.612 45.696C73.852 45.632 74.1 45.568 74.356 45.504L74.812 47.712C74.524 47.872 74.156 48 73.708 48.096C73.276 48.192 72.852 48.24 72.436 48.24ZM80.1349 48.24C79.2869 48.24 78.5269 48.08 77.8549 47.76C77.1989 47.424 76.6789 46.976 76.2949 46.416C75.9269 45.856 75.7429 45.224 75.7429 44.52C75.7429 43.656 75.9669 42.976 76.4149 42.48C76.8629 41.968 77.5909 41.6 78.5989 41.376C79.6069 41.152 80.9589 41.04 82.6549 41.04H83.8549V42.768H82.6789C81.9269 42.768 81.2949 42.8 80.7829 42.864C80.2709 42.912 79.8549 43 79.5349 43.128C79.2309 43.24 79.0069 43.4 78.8629 43.608C78.7349 43.816 78.6709 44.072 78.6709 44.376C78.6709 44.904 78.8549 45.336 79.2229 45.672C79.5909 46.008 80.1029 46.176 80.7589 46.176C81.2869 46.176 81.7509 46.056 82.1509 45.816C82.5669 45.56 82.8949 45.216 83.1349 44.784C83.3749 44.352 83.4949 43.856 83.4949 43.296V40.536C83.4949 39.736 83.3189 39.16 82.9669 38.808C82.6149 38.456 82.0229 38.28 81.1909 38.28C80.5349 38.28 79.8629 38.384 79.1749 38.592C78.4869 38.784 77.7909 39.088 77.0869 39.504L76.2229 37.464C76.6389 37.176 77.1269 36.928 77.6869 36.72C78.2629 36.496 78.8629 36.328 79.4869 36.216C80.1269 36.088 80.7269 36.024 81.2869 36.024C82.4389 36.024 83.3829 36.2 84.1189 36.552C84.8709 36.904 85.4309 37.44 85.7989 38.16C86.1669 38.864 86.3509 39.776 86.3509 40.896V48H83.5429V45.504H83.7349C83.6229 46.064 83.3989 46.552 83.0629 46.968C82.7429 47.368 82.3349 47.68 81.8389 47.904C81.3429 48.128 80.7749 48.24 80.1349 48.24ZM93.4759 48.24C92.0839 48.24 91.0519 47.864 90.3799 47.112C89.7239 46.344 89.3959 45.224 89.3959 43.752V31.08H92.3959V43.608C92.3959 44.072 92.4599 44.472 92.5879 44.808C92.7319 45.128 92.9399 45.368 93.2119 45.528C93.4839 45.688 93.8199 45.768 94.2199 45.768C94.3959 45.768 94.5719 45.76 94.7479 45.744C94.9239 45.728 95.0919 45.696 95.2519 45.648L95.2039 48.024C94.9159 48.088 94.6279 48.136 94.3399 48.168C94.0679 48.216 93.7799 48.24 93.4759 48.24ZM109.649 48.24C108.769 48.24 107.921 48.16 107.105 48C106.305 47.856 105.561 47.64 104.873 47.352C104.201 47.064 103.601 46.72 103.073 46.32L104.009 43.896C104.537 44.264 105.089 44.584 105.665 44.856C106.257 45.112 106.881 45.312 107.537 45.456C108.209 45.584 108.913 45.648 109.649 45.648C110.913 45.648 111.833 45.44 112.409 45.024C112.985 44.592 113.273 44.04 113.273 43.368C113.273 43 113.185 42.688 113.009 42.432C112.833 42.16 112.545 41.928 112.145 41.736C111.745 41.544 111.217 41.384 110.561 41.256L107.921 40.704C106.401 40.384 105.265 39.848 104.513 39.096C103.777 38.328 103.409 37.32 103.409 36.072C103.409 35.016 103.689 34.096 104.249 33.312C104.809 32.528 105.585 31.92 106.577 31.488C107.569 31.056 108.713 30.84 110.009 30.84C110.777 30.84 111.513 30.92 112.217 31.08C112.937 31.224 113.593 31.448 114.185 31.752C114.793 32.04 115.321 32.392 115.769 32.808L114.833 35.112C114.161 34.552 113.425 34.136 112.625 33.864C111.825 33.576 110.945 33.432 109.985 33.432C109.249 33.432 108.617 33.536 108.089 33.744C107.561 33.952 107.153 34.248 106.865 34.632C106.593 35 106.457 35.44 106.457 35.952C106.457 36.528 106.649 36.992 107.033 37.344C107.417 37.68 108.073 37.944 109.001 38.136L111.617 38.688C113.201 39.024 114.377 39.552 115.145 40.272C115.929 40.992 116.321 41.952 116.321 43.152C116.321 44.16 116.049 45.048 115.505 45.816C114.961 46.584 114.185 47.184 113.177 47.616C112.185 48.032 111.009 48.24 109.649 48.24ZM123.928 48.24C122.36 48.24 121.192 47.848 120.424 47.064C119.656 46.28 119.272 45.136 119.272 43.632V38.52H117.016V36.264H119.272V32.76H122.272V36.264H125.824V38.52H122.272V43.464C122.272 44.232 122.44 44.808 122.776 45.192C123.112 45.576 123.656 45.768 124.408 45.768C124.632 45.768 124.864 45.744 125.104 45.696C125.344 45.632 125.592 45.568 125.848 45.504L126.304 47.712C126.016 47.872 125.648 48 125.2 48.096C124.768 48.192 124.344 48.24 123.928 48.24ZM127.763 48V36.264H130.691V39.096H130.451C130.675 38.136 131.115 37.408 131.771 36.912C132.427 36.4 133.299 36.104 134.387 36.024L135.299 35.952L135.491 38.496L133.763 38.664C132.787 38.76 132.051 39.064 131.555 39.576C131.059 40.072 130.811 40.776 130.811 41.688V48H127.763ZM141.41 48.24C140.434 48.24 139.626 48.064 138.986 47.712C138.346 47.344 137.866 46.8 137.546 46.08C137.242 45.36 137.09 44.464 137.09 43.392V36.264H140.09V43.44C140.09 43.984 140.162 44.44 140.306 44.808C140.466 45.176 140.698 45.448 141.002 45.624C141.322 45.8 141.722 45.888 142.202 45.888C142.746 45.888 143.218 45.768 143.618 45.528C144.034 45.272 144.354 44.92 144.578 44.472C144.818 44.008 144.938 43.472 144.938 42.864V36.264H147.938V48H145.01V45.552H145.346C145.01 46.416 144.498 47.08 143.81 47.544C143.138 48.008 142.338 48.24 141.41 48.24ZM156.484 48.24C155.252 48.24 154.18 47.992 153.268 47.496C152.356 46.984 151.652 46.264 151.156 45.336C150.66 44.408 150.412 43.32 150.412 42.072C150.412 40.824 150.66 39.752 151.156 38.856C151.652 37.944 152.356 37.248 153.268 36.768C154.18 36.272 155.252 36.024 156.484 36.024C157.236 36.024 157.98 36.144 158.716 36.384C159.452 36.624 160.06 36.96 160.54 37.392L159.652 39.48C159.236 39.112 158.764 38.832 158.236 38.64C157.724 38.448 157.228 38.352 156.748 38.352C155.708 38.352 154.9 38.68 154.324 39.336C153.764 39.976 153.484 40.896 153.484 42.096C153.484 43.28 153.764 44.216 154.324 44.904C154.9 45.576 155.708 45.912 156.748 45.912C157.212 45.912 157.708 45.816 158.236 45.624C158.764 45.432 159.236 45.144 159.652 44.76L160.54 46.872C160.06 47.288 159.444 47.624 158.692 47.88C157.956 48.12 157.22 48.24 156.484 48.24ZM167.803 48.24C166.235 48.24 165.067 47.848 164.299 47.064C163.531 46.28 163.147 45.136 163.147 43.632V38.52H160.891V36.264H163.147V32.76H166.147V36.264H169.699V38.52H166.147V43.464C166.147 44.232 166.315 44.808 166.651 45.192C166.987 45.576 167.531 45.768 168.283 45.768C168.507 45.768 168.739 45.744 168.979 45.696C169.219 45.632 169.467 45.568 169.723 45.504L170.179 47.712C169.891 47.872 169.523 48 169.075 48.096C168.643 48.192 168.219 48.24 167.803 48.24ZM175.886 48.24C174.91 48.24 174.102 48.064 173.462 47.712C172.822 47.344 172.342 46.8 172.022 46.08C171.718 45.36 171.566 44.464 171.566 43.392V36.264H174.566V43.44C174.566 43.984 174.638 44.44 174.782 44.808C174.942 45.176 175.174 45.448 175.478 45.624C175.798 45.8 176.198 45.888 176.678 45.888C177.222 45.888 177.694 45.768 178.094 45.528C178.51 45.272 178.83 44.92 179.054 44.472C179.294 44.008 179.414 43.472 179.414 42.864V36.264H182.414V48H179.486V45.552H179.822C179.486 46.416 178.974 47.08 178.286 47.544C177.614 48.008 176.814 48.24 175.886 48.24ZM185.537 48V36.264H188.465V39.096H188.225C188.449 38.136 188.889 37.408 189.545 36.912C190.201 36.4 191.073 36.104 192.161 36.024L193.073 35.952L193.265 38.496L191.537 38.664C190.561 38.76 189.825 39.064 189.329 39.576C188.833 40.072 188.585 40.776 188.585 41.688V48H185.537ZM200.532 48.24C199.204 48.24 198.06 47.992 197.1 47.496C196.14 47 195.396 46.296 194.868 45.384C194.356 44.472 194.1 43.392 194.1 42.144C194.1 40.928 194.348 39.864 194.844 38.952C195.356 38.04 196.052 37.328 196.932 36.816C197.828 36.288 198.844 36.024 199.98 36.024C201.1 36.024 202.06 36.264 202.86 36.744C203.66 37.224 204.276 37.904 204.708 38.784C205.156 39.664 205.38 40.712 205.38 41.928V42.816H196.524V41.088H203.268L202.884 41.448C202.884 40.36 202.644 39.528 202.164 38.952C201.684 38.36 200.996 38.064 200.1 38.064C199.428 38.064 198.852 38.224 198.372 38.544C197.908 38.848 197.548 39.288 197.292 39.864C197.052 40.424 196.932 41.096 196.932 41.88V42.048C196.932 42.928 197.068 43.656 197.34 44.232C197.612 44.808 198.02 45.24 198.564 45.528C199.108 45.816 199.78 45.96 200.58 45.96C201.236 45.96 201.892 45.864 202.548 45.672C203.204 45.464 203.804 45.144 204.348 44.712L205.188 46.728C204.628 47.192 203.924 47.56 203.076 47.832C202.228 48.104 201.38 48.24 200.532 48.24Z" fill="white"/>
<rect x="107" y="301" width="2" height="6" fill="#313338"/>
<rect x="418" y="301" width="2" height="6" fill="#313338"/>
<rect x="16" y="299" width="496" height="2" fill="#313338"/>
<rect x="16" y="249" width="496" height="2" fill="#23252D"/>
<rect x="16" y="199" width="496" height="2" fill="#23252D"/>
<rect x="16" y="149" width="496" height="2" fill="#23252D"/>
<rect x="16" y="99" width="496" height="2" fill="#23252D"/>
<line x1="293" y1="137" x2="442" y2="137" stroke="#313338" stroke-width="2" stroke-dasharray="4 4"/>
<line x1="85" y1="129" x2="234" y2="129" stroke="#313338" stroke-width="2" stroke-dasharray="4 4"/>
<rect x="228" y="128" width="72" height="10" rx="5" fill="#EF454A"/>
<path d="M72 142C72 139.791 73.7909 138 76 138H140C142.209 138 144 139.791 144 142V299H72V142Z" fill="url(#paint0_linear_4661_7684)"/>
<path d="M383 140C383 137.791 384.791 136 387 136H451C453.209 136 455 137.791 455 140V299H383V140Z" fill="url(#paint1_linear_4661_7684)"/>
<rect x="72" y="128" width="72" height="5" rx="2.5" fill="#2EBD85"/>
<rect width="72" height="5" rx="2.5" transform="matrix(1 0 0 -1 72 138)" fill="#FFA800"/>
<rect x="568" y="250" width="496" height="1" fill="#313338"/>
<circle cx="574" cy="273" r="6" fill="#A06AFF"/>
<path d="M593.155 278V267.425H600.19V268.955H595V271.865H599.86V273.395H595V276.47H600.19V278H593.155ZM601.925 278V270.665H603.755V272.135H603.59C603.81 271.605 604.15 271.205 604.61 270.935C605.08 270.655 605.61 270.515 606.2 270.515C606.79 270.515 607.275 270.625 607.655 270.845C608.035 271.065 608.32 271.4 608.51 271.85C608.7 272.29 608.795 272.85 608.795 273.53V278H606.92V273.62C606.92 273.24 606.87 272.93 606.77 272.69C606.68 272.45 606.535 272.275 606.335 272.165C606.145 272.045 605.9 271.985 605.6 271.985C605.24 271.985 604.925 272.065 604.655 272.225C604.385 272.375 604.175 272.595 604.025 272.885C603.875 273.165 603.8 273.495 603.8 273.875V278H601.925ZM614.06 278.15C613.08 278.15 612.35 277.905 611.87 277.415C611.39 276.925 611.15 276.21 611.15 275.27V272.075H609.74V270.665H611.15V268.475H613.025V270.665H615.245V272.075H613.025V275.165C613.025 275.645 613.13 276.005 613.34 276.245C613.55 276.485 613.89 276.605 614.36 276.605C614.5 276.605 614.645 276.59 614.795 276.56C614.945 276.52 615.1 276.48 615.26 276.44L615.545 277.82C615.365 277.92 615.135 278 614.855 278.06C614.585 278.12 614.32 278.15 614.06 278.15ZM619.998 278.15C619.168 278.15 618.453 277.995 617.853 277.685C617.253 277.375 616.788 276.935 616.458 276.365C616.138 275.795 615.978 275.12 615.978 274.34C615.978 273.58 616.133 272.915 616.443 272.345C616.763 271.775 617.198 271.33 617.748 271.01C618.308 270.68 618.943 270.515 619.653 270.515C620.353 270.515 620.953 270.665 621.453 270.965C621.953 271.265 622.338 271.69 622.608 272.24C622.888 272.79 623.028 273.445 623.028 274.205V274.76H617.493V273.68H621.708L621.468 273.905C621.468 273.225 621.318 272.705 621.018 272.345C620.718 271.975 620.288 271.79 619.728 271.79C619.308 271.79 618.948 271.89 618.648 272.09C618.358 272.28 618.133 272.555 617.973 272.915C617.823 273.265 617.748 273.685 617.748 274.175V274.28C617.748 274.83 617.833 275.285 618.003 275.645C618.173 276.005 618.428 276.275 618.768 276.455C619.108 276.635 619.528 276.725 620.028 276.725C620.438 276.725 620.848 276.665 621.258 276.545C621.668 276.415 622.043 276.215 622.383 275.945L622.908 277.205C622.558 277.495 622.118 277.725 621.588 277.895C621.058 278.065 620.528 278.15 619.998 278.15ZM624.513 278V270.665H626.343V272.435H626.193C626.333 271.835 626.608 271.38 627.018 271.07C627.428 270.75 627.973 270.565 628.653 270.515L629.223 270.47L629.343 272.06L628.263 272.165C627.653 272.225 627.193 272.415 626.883 272.735C626.573 273.045 626.418 273.485 626.418 274.055V278H624.513ZM630.387 280.7V270.665H632.217V272.21H632.067C632.217 271.7 632.522 271.29 632.982 270.98C633.452 270.67 633.997 270.515 634.617 270.515C635.257 270.515 635.817 270.67 636.297 270.98C636.787 271.29 637.167 271.73 637.437 272.3C637.707 272.86 637.842 273.535 637.842 274.325C637.842 275.105 637.707 275.785 637.437 276.365C637.167 276.935 636.792 277.375 636.312 277.685C635.832 277.995 635.267 278.15 634.617 278.15C634.007 278.15 633.472 278 633.012 277.7C632.552 277.39 632.242 276.99 632.082 276.5H632.262V280.7H630.387ZM634.092 276.725C634.652 276.725 635.102 276.525 635.442 276.125C635.782 275.715 635.952 275.115 635.952 274.325C635.952 273.525 635.782 272.93 635.442 272.54C635.102 272.14 634.652 271.94 634.092 271.94C633.532 271.94 633.082 272.14 632.742 272.54C632.402 272.93 632.232 273.525 632.232 274.325C632.232 275.115 632.402 275.715 632.742 276.125C633.082 276.525 633.532 276.725 634.092 276.725ZM639.381 278V270.665H641.211V272.435H641.061C641.201 271.835 641.476 271.38 641.886 271.07C642.296 270.75 642.841 270.565 643.521 270.515L644.091 270.47L644.211 272.06L643.131 272.165C642.521 272.225 642.061 272.415 641.751 272.735C641.441 273.045 641.286 273.485 641.286 274.055V278H639.381ZM645.135 269.09V267.26H647.235V269.09H645.135ZM645.255 278V270.665H647.13V278H645.255ZM651.764 278.15C651.354 278.15 650.954 278.115 650.564 278.045C650.184 277.975 649.834 277.88 649.514 277.76C649.194 277.63 648.914 277.47 648.674 277.28L649.154 276.05C649.404 276.21 649.674 276.35 649.964 276.47C650.254 276.59 650.554 276.68 650.864 276.74C651.174 276.8 651.479 276.83 651.779 276.83C652.259 276.83 652.614 276.75 652.844 276.59C653.084 276.42 653.204 276.2 653.204 275.93C653.204 275.7 653.124 275.525 652.964 275.405C652.814 275.275 652.584 275.18 652.274 275.12L650.774 274.835C650.154 274.715 649.679 274.49 649.349 274.16C649.029 273.82 648.869 273.385 648.869 272.855C648.869 272.375 648.999 271.96 649.259 271.61C649.529 271.26 649.899 270.99 650.369 270.8C650.839 270.61 651.379 270.515 651.989 270.515C652.339 270.515 652.679 270.55 653.009 270.62C653.339 270.68 653.649 270.775 653.939 270.905C654.239 271.025 654.499 271.185 654.719 271.385L654.209 272.615C654.019 272.455 653.799 272.32 653.549 272.21C653.299 272.09 653.039 272 652.769 271.94C652.509 271.87 652.254 271.835 652.004 271.835C651.514 271.835 651.149 271.92 650.909 272.09C650.679 272.26 650.564 272.485 650.564 272.765C650.564 272.975 650.634 273.15 650.774 273.29C650.914 273.43 651.129 273.525 651.419 273.575L652.919 273.86C653.569 273.98 654.059 274.2 654.389 274.52C654.729 274.84 654.899 275.27 654.899 275.81C654.899 276.3 654.769 276.72 654.509 277.07C654.249 277.42 653.884 277.69 653.414 277.88C652.944 278.06 652.394 278.15 651.764 278.15ZM660.018 278.15C659.188 278.15 658.473 277.995 657.873 277.685C657.273 277.375 656.808 276.935 656.478 276.365C656.158 275.795 655.998 275.12 655.998 274.34C655.998 273.58 656.153 272.915 656.463 272.345C656.783 271.775 657.218 271.33 657.768 271.01C658.328 270.68 658.963 270.515 659.673 270.515C660.373 270.515 660.973 270.665 661.473 270.965C661.973 271.265 662.358 271.69 662.628 272.24C662.908 272.79 663.048 273.445 663.048 274.205V274.76H657.513V273.68H661.728L661.488 273.905C661.488 273.225 661.338 272.705 661.038 272.345C660.738 271.975 660.308 271.79 659.748 271.79C659.328 271.79 658.968 271.89 658.668 272.09C658.378 272.28 658.153 272.555 657.993 272.915C657.843 273.265 657.768 273.685 657.768 274.175V274.28C657.768 274.83 657.853 275.285 658.023 275.645C658.193 276.005 658.448 276.275 658.788 276.455C659.128 276.635 659.548 276.725 660.048 276.725C660.458 276.725 660.868 276.665 661.278 276.545C661.688 276.415 662.063 276.215 662.403 275.945L662.928 277.205C662.578 277.495 662.138 277.725 661.608 277.895C661.078 278.065 660.548 278.15 660.018 278.15ZM672.146 278L667.436 267.425H669.491L673.316 276.29H672.671L676.481 267.425H678.461L673.751 278H672.146ZM680.79 278.15C680.26 278.15 679.785 278.05 679.365 277.85C678.955 277.64 678.63 277.36 678.39 277.01C678.16 276.66 678.045 276.265 678.045 275.825C678.045 275.285 678.185 274.86 678.465 274.55C678.745 274.23 679.2 274 679.83 273.86C680.46 273.72 681.305 273.65 682.365 273.65H683.115V274.73H682.38C681.91 274.73 681.515 274.75 681.195 274.79C680.875 274.82 680.615 274.875 680.415 274.955C680.225 275.025 680.085 275.125 679.995 275.255C679.915 275.385 679.875 275.545 679.875 275.735C679.875 276.065 679.99 276.335 680.22 276.545C680.45 276.755 680.77 276.86 681.18 276.86C681.51 276.86 681.8 276.785 682.05 276.635C682.31 276.475 682.515 276.26 682.665 275.99C682.815 275.72 682.89 275.41 682.89 275.06V273.335C682.89 272.835 682.78 272.475 682.56 272.255C682.34 272.035 681.97 271.925 681.45 271.925C681.04 271.925 680.62 271.99 680.19 272.12C679.76 272.24 679.325 272.43 678.885 272.69L678.345 271.415C678.605 271.235 678.91 271.08 679.26 270.95C679.62 270.81 679.995 270.705 680.385 270.635C680.785 270.555 681.16 270.515 681.51 270.515C682.23 270.515 682.82 270.625 683.28 270.845C683.75 271.065 684.1 271.4 684.33 271.85C684.56 272.29 684.675 272.86 684.675 273.56V278H682.92V276.44H683.04C682.97 276.79 682.83 277.095 682.62 277.355C682.42 277.605 682.165 277.8 681.855 277.94C681.545 278.08 681.19 278.15 680.79 278.15ZM689.129 278.15C688.259 278.15 687.614 277.915 687.194 277.445C686.784 276.965 686.579 276.265 686.579 275.345V267.425H688.454V275.255C688.454 275.545 688.494 275.795 688.574 276.005C688.664 276.205 688.794 276.355 688.964 276.455C689.134 276.555 689.344 276.605 689.594 276.605C689.704 276.605 689.814 276.6 689.924 276.59C690.034 276.58 690.139 276.56 690.239 276.53L690.209 278.015C690.029 278.055 689.849 278.085 689.669 278.105C689.499 278.135 689.319 278.15 689.129 278.15ZM694.024 278.15C693.414 278.15 692.909 278.04 692.509 277.82C692.109 277.59 691.809 277.25 691.609 276.8C691.419 276.35 691.324 275.79 691.324 275.12V270.665H693.199V275.15C693.199 275.49 693.244 275.775 693.334 276.005C693.434 276.235 693.579 276.405 693.769 276.515C693.969 276.625 694.219 276.68 694.519 276.68C694.859 276.68 695.154 276.605 695.404 276.455C695.664 276.295 695.864 276.075 696.004 275.795C696.154 275.505 696.229 275.17 696.229 274.79V270.665H698.104V278H696.274V276.47H696.484C696.274 277.01 695.954 277.425 695.524 277.715C695.104 278.005 694.604 278.15 694.024 278.15ZM703.67 278.15C702.84 278.15 702.125 277.995 701.525 277.685C700.925 277.375 700.46 276.935 700.13 276.365C699.81 275.795 699.65 275.12 699.65 274.34C699.65 273.58 699.805 272.915 700.115 272.345C700.435 271.775 700.87 271.33 701.42 271.01C701.98 270.68 702.615 270.515 703.325 270.515C704.025 270.515 704.625 270.665 705.125 270.965C705.625 271.265 706.01 271.69 706.28 272.24C706.56 272.79 706.7 273.445 706.7 274.205V274.76H701.165V273.68H705.38L705.14 273.905C705.14 273.225 704.99 272.705 704.69 272.345C704.39 271.975 703.96 271.79 703.4 271.79C702.98 271.79 702.62 271.89 702.32 272.09C702.03 272.28 701.805 272.555 701.645 272.915C701.495 273.265 701.42 273.685 701.42 274.175V274.28C701.42 274.83 701.505 275.285 701.675 275.645C701.845 276.005 702.1 276.275 702.44 276.455C702.78 276.635 703.2 276.725 703.7 276.725C704.11 276.725 704.52 276.665 704.93 276.545C705.34 276.415 705.715 276.215 706.055 275.945L706.58 277.205C706.23 277.495 705.79 277.725 705.26 277.895C704.73 278.065 704.2 278.15 703.67 278.15ZM714.823 280.925C714.083 279.825 713.553 278.705 713.233 277.565C712.913 276.415 712.753 275.245 712.753 274.055C712.753 272.855 712.913 271.685 713.233 270.545C713.553 269.405 714.083 268.285 714.823 267.185L716.098 267.695C715.788 268.455 715.533 269.185 715.333 269.885C715.133 270.575 714.988 271.26 714.898 271.94C714.808 272.62 714.763 273.325 714.763 274.055C714.763 274.775 714.808 275.48 714.898 276.17C714.988 276.85 715.133 277.535 715.333 278.225C715.533 278.915 715.788 279.645 716.098 280.415L714.823 280.925ZM717.784 278V267.425H724.819V268.955H719.629V271.865H724.489V273.395H719.629V276.47H724.819V278H717.784ZM730.08 278L725.37 267.425H727.425L731.25 276.29H730.605L734.415 267.425H736.395L731.685 278H730.08ZM738.483 280.925L737.208 280.415C737.518 279.635 737.768 278.895 737.958 278.195C738.158 277.505 738.303 276.825 738.393 276.155C738.493 275.475 738.543 274.775 738.543 274.055C738.543 273.335 738.493 272.64 738.393 271.97C738.303 271.29 738.158 270.6 737.958 269.9C737.768 269.2 737.518 268.465 737.208 267.695L738.483 267.185C739.223 268.285 739.753 269.41 740.073 270.56C740.393 271.7 740.553 272.865 740.553 274.055C740.553 275.245 740.393 276.415 740.073 277.565C739.753 278.705 739.223 279.825 738.483 280.925Z" fill="white"/>
<path d="M1018.89 279.725V277.76L1019.23 278.09C1018.5 278.07 1017.81 277.96 1017.16 277.76C1016.52 277.55 1015.97 277.26 1015.5 276.89L1016.08 275.375C1016.39 275.605 1016.72 275.805 1017.07 275.975C1017.43 276.135 1017.81 276.26 1018.2 276.35C1018.6 276.43 1019.02 276.47 1019.47 276.47C1020.2 276.47 1020.74 276.34 1021.08 276.08C1021.42 275.82 1021.59 275.495 1021.59 275.105C1021.59 274.755 1021.47 274.475 1021.24 274.265C1021.01 274.055 1020.6 273.885 1020.01 273.755L1018.42 273.41C1017.52 273.21 1016.84 272.88 1016.38 272.42C1015.93 271.95 1015.71 271.33 1015.71 270.56C1015.71 269.97 1015.85 269.445 1016.14 268.985C1016.43 268.515 1016.84 268.14 1017.36 267.86C1017.88 267.58 1018.49 267.415 1019.19 267.365L1018.89 267.59V265.7H1020.39V267.59L1020.07 267.35C1020.64 267.38 1021.2 267.495 1021.75 267.695C1022.31 267.895 1022.78 268.185 1023.15 268.565L1022.58 270.005C1022.2 269.655 1021.76 269.395 1021.27 269.225C1020.78 269.045 1020.25 268.955 1019.67 268.955C1019.05 268.955 1018.55 269.1 1018.17 269.39C1017.8 269.67 1017.61 270.04 1017.61 270.5C1017.61 270.84 1017.73 271.115 1017.96 271.325C1018.19 271.535 1018.56 271.695 1019.07 271.805L1020.66 272.15C1021.62 272.36 1022.33 272.695 1022.79 273.155C1023.26 273.605 1023.49 274.205 1023.49 274.955C1023.49 275.535 1023.35 276.05 1023.06 276.5C1022.77 276.94 1022.37 277.295 1021.86 277.565C1021.36 277.825 1020.77 277.99 1020.1 278.06L1020.39 277.745V279.725H1018.89ZM1025.62 278V276.41H1028V269.045H1028.93L1026.16 270.725L1025.41 269.315L1028.56 267.425H1029.92V276.41H1032.16V278H1025.62ZM1033.78 278V275.915H1035.88V278H1033.78ZM1040.99 278.15C1040.51 278.15 1040.04 278.1 1039.58 278C1039.13 277.91 1038.71 277.775 1038.32 277.595C1037.93 277.415 1037.59 277.2 1037.3 276.95L1037.93 275.48C1038.4 275.84 1038.88 276.105 1039.37 276.275C1039.86 276.445 1040.38 276.53 1040.93 276.53C1041.37 276.53 1041.74 276.47 1042.04 276.35C1042.34 276.23 1042.56 276.05 1042.71 275.81C1042.87 275.57 1042.95 275.28 1042.95 274.94C1042.95 274.44 1042.78 274.07 1042.44 273.83C1042.11 273.58 1041.63 273.455 1040.99 273.455H1039.29V271.865H1040.81C1041.19 271.865 1041.51 271.805 1041.78 271.685C1042.05 271.555 1042.26 271.375 1042.41 271.145C1042.56 270.915 1042.64 270.635 1042.64 270.305C1042.64 269.845 1042.48 269.495 1042.17 269.255C1041.87 269.015 1041.43 268.895 1040.85 268.895C1040.33 268.895 1039.85 268.985 1039.4 269.165C1038.95 269.335 1038.52 269.605 1038.11 269.975L1037.48 268.535C1037.9 268.135 1038.42 267.825 1039.05 267.605C1039.68 267.385 1040.34 267.275 1041.02 267.275C1041.75 267.275 1042.37 267.39 1042.89 267.62C1043.41 267.84 1043.81 268.16 1044.08 268.58C1044.36 268.99 1044.5 269.49 1044.5 270.08C1044.5 270.71 1044.32 271.255 1043.97 271.715C1043.62 272.165 1043.14 272.465 1042.53 272.615V272.435C1043.01 272.515 1043.42 272.675 1043.76 272.915C1044.1 273.155 1044.36 273.46 1044.54 273.83C1044.72 274.2 1044.81 274.625 1044.81 275.105C1044.81 275.725 1044.66 276.265 1044.35 276.725C1044.04 277.185 1043.6 277.54 1043.03 277.79C1042.46 278.03 1041.78 278.15 1040.99 278.15ZM1050.28 278.15C1049.82 278.15 1049.36 278.1 1048.91 278C1048.47 277.9 1048.06 277.76 1047.67 277.58C1047.29 277.4 1046.96 277.19 1046.68 276.95L1047.31 275.48C1047.77 275.83 1048.24 276.095 1048.73 276.275C1049.22 276.445 1049.73 276.53 1050.25 276.53C1050.88 276.53 1051.37 276.37 1051.72 276.05C1052.08 275.72 1052.26 275.28 1052.26 274.73C1052.26 274.17 1052.09 273.72 1051.75 273.38C1051.41 273.03 1050.94 272.855 1050.35 272.855C1049.92 272.855 1049.54 272.94 1049.2 273.11C1048.86 273.27 1048.55 273.52 1048.27 273.86H1046.98V267.425H1053.47V269.015H1048.85V272.375H1048.36C1048.62 272.025 1048.96 271.755 1049.38 271.565C1049.81 271.375 1050.28 271.28 1050.8 271.28C1051.47 271.28 1052.05 271.425 1052.54 271.715C1053.04 271.995 1053.43 272.39 1053.7 272.9C1053.98 273.4 1054.12 273.985 1054.12 274.655C1054.12 275.345 1053.96 275.955 1053.65 276.485C1053.34 277.005 1052.9 277.415 1052.32 277.715C1051.75 278.005 1051.07 278.15 1050.28 278.15ZM1058.39 278V269.03H1054.76V267.425H1063.94V269.03H1060.31V278H1058.39Z" fill="white"/>
<circle cx="574" cy="228" r="6" fill="#EF454A"/>
<path d="M598.075 233.15C596.975 233.15 596.03 232.93 595.24 232.49C594.46 232.04 593.86 231.41 593.44 230.6C593.02 229.78 592.81 228.815 592.81 227.705C592.81 226.595 593.02 225.635 593.44 224.825C593.86 224.015 594.46 223.39 595.24 222.95C596.03 222.5 596.975 222.275 598.075 222.275C598.785 222.275 599.455 222.385 600.085 222.605C600.725 222.825 601.25 223.14 601.66 223.55L601.03 225.08C600.58 224.7 600.12 224.425 599.65 224.255C599.18 224.075 598.675 223.985 598.135 223.985C597.065 223.985 596.25 224.31 595.69 224.96C595.13 225.6 594.85 226.515 594.85 227.705C594.85 228.895 595.13 229.815 595.69 230.465C596.25 231.115 597.065 231.44 598.135 231.44C598.675 231.44 599.18 231.355 599.65 231.185C600.12 231.005 600.58 230.725 601.03 230.345L601.66 231.875C601.25 232.275 600.725 232.59 600.085 232.82C599.455 233.04 598.785 233.15 598.075 233.15ZM605.307 233.15C604.777 233.15 604.302 233.05 603.882 232.85C603.472 232.64 603.147 232.36 602.907 232.01C602.677 231.66 602.562 231.265 602.562 230.825C602.562 230.285 602.702 229.86 602.982 229.55C603.262 229.23 603.717 229 604.347 228.86C604.977 228.72 605.822 228.65 606.882 228.65H607.632V229.73H606.897C606.427 229.73 606.032 229.75 605.712 229.79C605.392 229.82 605.132 229.875 604.932 229.955C604.742 230.025 604.602 230.125 604.512 230.255C604.432 230.385 604.392 230.545 604.392 230.735C604.392 231.065 604.507 231.335 604.737 231.545C604.967 231.755 605.287 231.86 605.697 231.86C606.027 231.86 606.317 231.785 606.567 231.635C606.827 231.475 607.032 231.26 607.182 230.99C607.332 230.72 607.407 230.41 607.407 230.06V228.335C607.407 227.835 607.297 227.475 607.077 227.255C606.857 227.035 606.487 226.925 605.967 226.925C605.557 226.925 605.137 226.99 604.707 227.12C604.277 227.24 603.842 227.43 603.402 227.69L602.862 226.415C603.122 226.235 603.427 226.08 603.777 225.95C604.137 225.81 604.512 225.705 604.902 225.635C605.302 225.555 605.677 225.515 606.027 225.515C606.747 225.515 607.337 225.625 607.797 225.845C608.267 226.065 608.617 226.4 608.847 226.85C609.077 227.29 609.192 227.86 609.192 228.56V233H607.437V231.44H607.557C607.487 231.79 607.347 232.095 607.137 232.355C606.937 232.605 606.682 232.8 606.372 232.94C606.062 233.08 605.707 233.15 605.307 233.15ZM613.78 233.15C613.37 233.15 612.97 233.115 612.58 233.045C612.2 232.975 611.85 232.88 611.53 232.76C611.21 232.63 610.93 232.47 610.69 232.28L611.17 231.05C611.42 231.21 611.69 231.35 611.98 231.47C612.27 231.59 612.57 231.68 612.88 231.74C613.19 231.8 613.495 231.83 613.795 231.83C614.275 231.83 614.63 231.75 614.86 231.59C615.1 231.42 615.22 231.2 615.22 230.93C615.22 230.7 615.14 230.525 614.98 230.405C614.83 230.275 614.6 230.18 614.29 230.12L612.79 229.835C612.17 229.715 611.695 229.49 611.365 229.16C611.045 228.82 610.885 228.385 610.885 227.855C610.885 227.375 611.015 226.96 611.275 226.61C611.545 226.26 611.915 225.99 612.385 225.8C612.855 225.61 613.395 225.515 614.005 225.515C614.355 225.515 614.695 225.55 615.025 225.62C615.355 225.68 615.665 225.775 615.955 225.905C616.255 226.025 616.515 226.185 616.735 226.385L616.225 227.615C616.035 227.455 615.815 227.32 615.565 227.21C615.315 227.09 615.055 227 614.785 226.94C614.525 226.87 614.27 226.835 614.02 226.835C613.53 226.835 613.165 226.92 612.925 227.09C612.695 227.26 612.58 227.485 612.58 227.765C612.58 227.975 612.65 228.15 612.79 228.29C612.93 228.43 613.145 228.525 613.435 228.575L614.935 228.86C615.585 228.98 616.075 229.2 616.405 229.52C616.745 229.84 616.915 230.27 616.915 230.81C616.915 231.3 616.785 231.72 616.525 232.07C616.265 232.42 615.9 232.69 615.43 232.88C614.96 233.06 614.41 233.15 613.78 233.15ZM618.419 233V222.425H620.294V227.135H620.084C620.304 226.605 620.644 226.205 621.104 225.935C621.574 225.655 622.104 225.515 622.694 225.515C623.284 225.515 623.769 225.625 624.149 225.845C624.529 226.065 624.814 226.4 625.004 226.85C625.194 227.29 625.289 227.85 625.289 228.53V233H623.414V228.62C623.414 228.24 623.364 227.93 623.264 227.69C623.174 227.45 623.029 227.275 622.829 227.165C622.639 227.045 622.394 226.985 622.094 226.985C621.734 226.985 621.419 227.065 621.149 227.225C620.879 227.375 620.669 227.595 620.519 227.885C620.369 228.165 620.294 228.495 620.294 228.875V233H618.419ZM634.777 233.15C634.027 233.15 633.377 233.03 632.827 232.79C632.277 232.55 631.852 232.22 631.552 231.8C631.262 231.37 631.117 230.87 631.117 230.3C631.117 229.85 631.202 229.44 631.372 229.07C631.542 228.69 631.787 228.345 632.107 228.035C632.427 227.715 632.812 227.425 633.262 227.165L633.772 226.865L633.502 227.27C633.062 226.83 632.742 226.415 632.542 226.025C632.352 225.625 632.257 225.215 632.257 224.795C632.257 224.295 632.377 223.855 632.617 223.475C632.857 223.095 633.197 222.8 633.637 222.59C634.077 222.38 634.592 222.275 635.182 222.275C635.732 222.275 636.202 222.37 636.592 222.56C636.992 222.75 637.302 223.02 637.522 223.37C637.742 223.71 637.852 224.115 637.852 224.585C637.852 224.965 637.777 225.325 637.627 225.665C637.477 226.005 637.237 226.33 636.907 226.64C636.577 226.95 636.137 227.255 635.587 227.555L635.602 227.105L638.152 229.82H637.747C637.987 229.41 638.177 228.93 638.317 228.38C638.457 227.83 638.542 227.255 638.572 226.655H640.132C640.102 227.475 639.972 228.25 639.742 228.98C639.522 229.71 639.217 230.355 638.827 230.915L638.812 230.45L641.347 233H639.067L637.777 231.635H638.212C637.772 232.105 637.252 232.475 636.652 232.745C636.062 233.015 635.437 233.15 634.777 233.15ZM634.882 231.665C635.362 231.665 635.787 231.575 636.157 231.395C636.537 231.205 636.882 230.925 637.192 230.555L637.147 231.035L634.057 227.84L634.837 227.915L634.402 228.17C634.062 228.37 633.787 228.57 633.577 228.77C633.367 228.96 633.212 229.17 633.112 229.4C633.022 229.62 632.977 229.87 632.977 230.15C632.977 230.62 633.142 230.99 633.472 231.26C633.802 231.53 634.272 231.665 634.882 231.665ZM635.182 223.61C634.822 223.61 634.532 223.715 634.312 223.925C634.092 224.125 633.982 224.4 633.982 224.75C633.982 224.94 634.012 225.12 634.072 225.29C634.132 225.45 634.237 225.63 634.387 225.83C634.537 226.02 634.742 226.255 635.002 226.535L634.582 226.505C635.002 226.265 635.332 226.05 635.572 225.86C635.822 225.67 636.002 225.48 636.112 225.29C636.222 225.1 636.277 224.89 636.277 224.66C636.277 224.32 636.177 224.06 635.977 223.88C635.777 223.7 635.512 223.61 635.182 223.61ZM651.263 233.15C650.163 233.15 649.218 232.93 648.428 232.49C647.648 232.04 647.048 231.41 646.628 230.6C646.208 229.78 645.998 228.815 645.998 227.705C645.998 226.595 646.208 225.635 646.628 224.825C647.048 224.015 647.648 223.39 648.428 222.95C649.218 222.5 650.163 222.275 651.263 222.275C651.973 222.275 652.643 222.385 653.273 222.605C653.913 222.825 654.438 223.14 654.848 223.55L654.218 225.08C653.768 224.7 653.308 224.425 652.838 224.255C652.368 224.075 651.863 223.985 651.323 223.985C650.253 223.985 649.438 224.31 648.878 224.96C648.318 225.6 648.038 226.515 648.038 227.705C648.038 228.895 648.318 229.815 648.878 230.465C649.438 231.115 650.253 231.44 651.323 231.44C651.863 231.44 652.368 231.355 652.838 231.185C653.308 231.005 653.768 230.725 654.218 230.345L654.848 231.875C654.438 232.275 653.913 232.59 653.273 232.82C652.643 233.04 651.973 233.15 651.263 233.15ZM658.495 233.15C657.965 233.15 657.49 233.05 657.07 232.85C656.66 232.64 656.335 232.36 656.095 232.01C655.865 231.66 655.75 231.265 655.75 230.825C655.75 230.285 655.89 229.86 656.17 229.55C656.45 229.23 656.905 229 657.535 228.86C658.165 228.72 659.01 228.65 660.07 228.65H660.82V229.73H660.085C659.615 229.73 659.22 229.75 658.9 229.79C658.58 229.82 658.32 229.875 658.12 229.955C657.93 230.025 657.79 230.125 657.7 230.255C657.62 230.385 657.58 230.545 657.58 230.735C657.58 231.065 657.695 231.335 657.925 231.545C658.155 231.755 658.475 231.86 658.885 231.86C659.215 231.86 659.505 231.785 659.755 231.635C660.015 231.475 660.22 231.26 660.37 230.99C660.52 230.72 660.595 230.41 660.595 230.06V228.335C660.595 227.835 660.485 227.475 660.265 227.255C660.045 227.035 659.675 226.925 659.155 226.925C658.745 226.925 658.325 226.99 657.895 227.12C657.465 227.24 657.03 227.43 656.59 227.69L656.05 226.415C656.31 226.235 656.615 226.08 656.965 225.95C657.325 225.81 657.7 225.705 658.09 225.635C658.49 225.555 658.865 225.515 659.215 225.515C659.935 225.515 660.525 225.625 660.985 225.845C661.455 226.065 661.805 226.4 662.035 226.85C662.265 227.29 662.38 227.86 662.38 228.56V233H660.625V231.44H660.745C660.675 231.79 660.535 232.095 660.325 232.355C660.125 232.605 659.87 232.8 659.56 232.94C659.25 233.08 658.895 233.15 658.495 233.15ZM666.969 233.15C666.559 233.15 666.159 233.115 665.769 233.045C665.389 232.975 665.039 232.88 664.719 232.76C664.399 232.63 664.119 232.47 663.879 232.28L664.359 231.05C664.609 231.21 664.879 231.35 665.169 231.47C665.459 231.59 665.759 231.68 666.069 231.74C666.379 231.8 666.684 231.83 666.984 231.83C667.464 231.83 667.819 231.75 668.049 231.59C668.289 231.42 668.409 231.2 668.409 230.93C668.409 230.7 668.329 230.525 668.169 230.405C668.019 230.275 667.789 230.18 667.479 230.12L665.979 229.835C665.359 229.715 664.884 229.49 664.554 229.16C664.234 228.82 664.074 228.385 664.074 227.855C664.074 227.375 664.204 226.96 664.464 226.61C664.734 226.26 665.104 225.99 665.574 225.8C666.044 225.61 666.584 225.515 667.194 225.515C667.544 225.515 667.884 225.55 668.214 225.62C668.544 225.68 668.854 225.775 669.144 225.905C669.444 226.025 669.704 226.185 669.924 226.385L669.414 227.615C669.224 227.455 669.004 227.32 668.754 227.21C668.504 227.09 668.244 227 667.974 226.94C667.714 226.87 667.459 226.835 667.209 226.835C666.719 226.835 666.354 226.92 666.114 227.09C665.884 227.26 665.769 227.485 665.769 227.765C665.769 227.975 665.839 228.15 665.979 228.29C666.119 228.43 666.334 228.525 666.624 228.575L668.124 228.86C668.774 228.98 669.264 229.2 669.594 229.52C669.934 229.84 670.104 230.27 670.104 230.81C670.104 231.3 669.974 231.72 669.714 232.07C669.454 232.42 669.089 232.69 668.619 232.88C668.149 233.06 667.599 233.15 666.969 233.15ZM671.608 233V222.425H673.483V227.135H673.273C673.493 226.605 673.833 226.205 674.293 225.935C674.763 225.655 675.293 225.515 675.883 225.515C676.473 225.515 676.958 225.625 677.338 225.845C677.718 226.065 678.003 226.4 678.193 226.85C678.383 227.29 678.478 227.85 678.478 228.53V233H676.603V228.62C676.603 228.24 676.553 227.93 676.453 227.69C676.363 227.45 676.218 227.275 676.018 227.165C675.828 227.045 675.583 226.985 675.283 226.985C674.923 226.985 674.608 227.065 674.338 227.225C674.068 227.375 673.858 227.595 673.708 227.885C673.558 228.165 673.483 228.495 673.483 228.875V233H671.608ZM684.605 233V222.425H691.64V223.955H686.45V226.865H691.31V228.395H686.45V231.47H691.64V233H684.605ZM698.506 235.7V231.5H698.671C698.511 231.99 698.201 232.39 697.741 232.7C697.291 233 696.761 233.15 696.151 233.15C695.511 233.15 694.946 232.995 694.456 232.685C693.976 232.375 693.601 231.935 693.331 231.365C693.061 230.785 692.926 230.105 692.926 229.325C692.926 228.535 693.061 227.86 693.331 227.3C693.601 226.73 693.976 226.29 694.456 225.98C694.946 225.67 695.511 225.515 696.151 225.515C696.771 225.515 697.311 225.67 697.771 225.98C698.231 226.29 698.536 226.7 698.686 227.21H698.551V225.665H700.381V235.7H698.506ZM696.676 231.725C697.236 231.725 697.686 231.525 698.026 231.125C698.366 230.715 698.536 230.115 698.536 229.325C698.536 228.525 698.366 227.93 698.026 227.54C697.686 227.14 697.236 226.94 696.676 226.94C696.116 226.94 695.666 227.14 695.326 227.54C694.986 227.93 694.816 228.525 694.816 229.325C694.816 230.115 694.986 230.715 695.326 231.125C695.666 231.525 696.116 231.725 696.676 231.725ZM704.981 233.15C704.371 233.15 703.866 233.04 703.466 232.82C703.066 232.59 702.766 232.25 702.566 231.8C702.376 231.35 702.281 230.79 702.281 230.12V225.665H704.156V230.15C704.156 230.49 704.201 230.775 704.291 231.005C704.391 231.235 704.536 231.405 704.726 231.515C704.926 231.625 705.176 231.68 705.476 231.68C705.816 231.68 706.111 231.605 706.361 231.455C706.621 231.295 706.821 231.075 706.961 230.795C707.111 230.505 707.186 230.17 707.186 229.79V225.665H709.061V233H707.231V231.47H707.441C707.231 232.01 706.911 232.425 706.481 232.715C706.061 233.005 705.561 233.15 704.981 233.15ZM710.892 224.09V222.26H712.992V224.09H710.892ZM711.012 233V225.665H712.887V233H711.012ZM716.995 233L713.815 225.665H715.81L718.075 231.35H717.625L719.965 225.665H721.84L718.615 233H716.995ZM725.014 233.15C724.484 233.15 724.009 233.05 723.589 232.85C723.179 232.64 722.854 232.36 722.614 232.01C722.384 231.66 722.269 231.265 722.269 230.825C722.269 230.285 722.409 229.86 722.689 229.55C722.969 229.23 723.424 229 724.054 228.86C724.684 228.72 725.529 228.65 726.589 228.65H727.339V229.73H726.604C726.134 229.73 725.739 229.75 725.419 229.79C725.099 229.82 724.839 229.875 724.639 229.955C724.449 230.025 724.309 230.125 724.219 230.255C724.139 230.385 724.099 230.545 724.099 230.735C724.099 231.065 724.214 231.335 724.444 231.545C724.674 231.755 724.994 231.86 725.404 231.86C725.734 231.86 726.024 231.785 726.274 231.635C726.534 231.475 726.739 231.26 726.889 230.99C727.039 230.72 727.114 230.41 727.114 230.06V228.335C727.114 227.835 727.004 227.475 726.784 227.255C726.564 227.035 726.194 226.925 725.674 226.925C725.264 226.925 724.844 226.99 724.414 227.12C723.984 227.24 723.549 227.43 723.109 227.69L722.569 226.415C722.829 226.235 723.134 226.08 723.484 225.95C723.844 225.81 724.219 225.705 724.609 225.635C725.009 225.555 725.384 225.515 725.734 225.515C726.454 225.515 727.044 225.625 727.504 225.845C727.974 226.065 728.324 226.4 728.554 226.85C728.784 227.29 728.899 227.86 728.899 228.56V233H727.144V231.44H727.264C727.194 231.79 727.054 232.095 726.844 232.355C726.644 232.605 726.389 232.8 726.079 232.94C725.769 233.08 725.414 233.15 725.014 233.15ZM733.352 233.15C732.482 233.15 731.837 232.915 731.417 232.445C731.007 231.965 730.802 231.265 730.802 230.345V222.425H732.677V230.255C732.677 230.545 732.717 230.795 732.797 231.005C732.887 231.205 733.017 231.355 733.187 231.455C733.357 231.555 733.567 231.605 733.817 231.605C733.927 231.605 734.037 231.6 734.147 231.59C734.257 231.58 734.362 231.56 734.462 231.53L734.432 233.015C734.252 233.055 734.072 233.085 733.892 233.105C733.722 233.135 733.542 233.15 733.352 233.15ZM739.134 233.15C738.304 233.15 737.589 232.995 736.989 232.685C736.389 232.375 735.924 231.935 735.594 231.365C735.274 230.795 735.114 230.12 735.114 229.34C735.114 228.58 735.269 227.915 735.579 227.345C735.899 226.775 736.334 226.33 736.884 226.01C737.444 225.68 738.079 225.515 738.789 225.515C739.489 225.515 740.089 225.665 740.589 225.965C741.089 226.265 741.474 226.69 741.744 227.24C742.024 227.79 742.164 228.445 742.164 229.205V229.76H736.629V228.68H740.844L740.604 228.905C740.604 228.225 740.454 227.705 740.154 227.345C739.854 226.975 739.424 226.79 738.864 226.79C738.444 226.79 738.084 226.89 737.784 227.09C737.494 227.28 737.269 227.555 737.109 227.915C736.959 228.265 736.884 228.685 736.884 229.175V229.28C736.884 229.83 736.969 230.285 737.139 230.645C737.309 231.005 737.564 231.275 737.904 231.455C738.244 231.635 738.664 231.725 739.164 231.725C739.574 231.725 739.984 231.665 740.394 231.545C740.804 231.415 741.179 231.215 741.519 230.945L742.044 232.205C741.694 232.495 741.254 232.725 740.724 232.895C740.194 233.065 739.664 233.15 739.134 233.15ZM743.649 233V225.665H745.479V227.135H745.314C745.534 226.605 745.874 226.205 746.334 225.935C746.804 225.655 747.334 225.515 747.924 225.515C748.514 225.515 748.999 225.625 749.379 225.845C749.759 226.065 750.044 226.4 750.234 226.85C750.424 227.29 750.519 227.85 750.519 228.53V233H748.644V228.62C748.644 228.24 748.594 227.93 748.494 227.69C748.404 227.45 748.259 227.275 748.059 227.165C747.869 227.045 747.624 226.985 747.324 226.985C746.964 226.985 746.649 227.065 746.379 227.225C746.109 227.375 745.899 227.595 745.749 227.885C745.599 228.165 745.524 228.495 745.524 228.875V233H743.649ZM755.783 233.15C754.803 233.15 754.073 232.905 753.593 232.415C753.113 231.925 752.873 231.21 752.873 230.27V227.075H751.463V225.665H752.873V223.475H754.748V225.665H756.968V227.075H754.748V230.165C754.748 230.645 754.853 231.005 755.063 231.245C755.273 231.485 755.613 231.605 756.083 231.605C756.223 231.605 756.368 231.59 756.518 231.56C756.668 231.52 756.823 231.48 756.983 231.44L757.268 232.82C757.088 232.92 756.858 233 756.578 233.06C756.308 233.12 756.043 233.15 755.783 233.15ZM760.865 233.15C760.455 233.15 760.055 233.115 759.665 233.045C759.285 232.975 758.935 232.88 758.615 232.76C758.295 232.63 758.015 232.47 757.775 232.28L758.255 231.05C758.505 231.21 758.775 231.35 759.065 231.47C759.355 231.59 759.655 231.68 759.965 231.74C760.275 231.8 760.58 231.83 760.88 231.83C761.36 231.83 761.715 231.75 761.945 231.59C762.185 231.42 762.305 231.2 762.305 230.93C762.305 230.7 762.225 230.525 762.065 230.405C761.915 230.275 761.685 230.18 761.375 230.12L759.875 229.835C759.255 229.715 758.78 229.49 758.45 229.16C758.13 228.82 757.97 228.385 757.97 227.855C757.97 227.375 758.1 226.96 758.36 226.61C758.63 226.26 759 225.99 759.47 225.8C759.94 225.61 760.48 225.515 761.09 225.515C761.44 225.515 761.78 225.55 762.11 225.62C762.44 225.68 762.75 225.775 763.04 225.905C763.34 226.025 763.6 226.185 763.82 226.385L763.31 227.615C763.12 227.455 762.9 227.32 762.65 227.21C762.4 227.09 762.14 227 761.87 226.94C761.61 226.87 761.355 226.835 761.105 226.835C760.615 226.835 760.25 226.92 760.01 227.09C759.78 227.26 759.665 227.485 759.665 227.765C759.665 227.975 759.735 228.15 759.875 228.29C760.015 228.43 760.23 228.525 760.52 228.575L762.02 228.86C762.67 228.98 763.16 229.2 763.49 229.52C763.83 229.84 764 230.27 764 230.81C764 231.3 763.87 231.72 763.61 232.07C763.35 232.42 762.985 232.69 762.515 232.88C762.045 233.06 761.495 233.15 760.865 233.15Z" fill="white"/>
<path d="M1008.88 234.725V232.76L1009.23 233.09C1008.5 233.07 1007.81 232.96 1007.16 232.76C1006.52 232.55 1005.96 232.26 1005.49 231.89L1006.08 230.375C1006.39 230.605 1006.72 230.805 1007.07 230.975C1007.43 231.135 1007.8 231.26 1008.19 231.35C1008.59 231.43 1009.02 231.47 1009.47 231.47C1010.2 231.47 1010.73 231.34 1011.07 231.08C1011.41 230.82 1011.58 230.495 1011.58 230.105C1011.58 229.755 1011.47 229.475 1011.24 229.265C1011.01 229.055 1010.6 228.885 1010.01 228.755L1008.42 228.41C1007.52 228.21 1006.84 227.88 1006.38 227.42C1005.93 226.95 1005.7 226.33 1005.7 225.56C1005.7 224.97 1005.85 224.445 1006.14 223.985C1006.43 223.515 1006.83 223.14 1007.35 222.86C1007.87 222.58 1008.48 222.415 1009.18 222.365L1008.88 222.59V220.7H1010.38V222.59L1010.07 222.35C1010.64 222.38 1011.2 222.495 1011.75 222.695C1012.31 222.895 1012.77 223.185 1013.14 223.565L1012.57 225.005C1012.19 224.655 1011.76 224.395 1011.27 224.225C1010.78 224.045 1010.24 223.955 1009.66 223.955C1009.04 223.955 1008.54 224.1 1008.16 224.39C1007.79 224.67 1007.61 225.04 1007.61 225.5C1007.61 225.84 1007.72 226.115 1007.95 226.325C1008.18 226.535 1008.55 226.695 1009.06 226.805L1010.65 227.15C1011.61 227.36 1012.32 227.695 1012.78 228.155C1013.25 228.605 1013.49 229.205 1013.49 229.955C1013.49 230.535 1013.34 231.05 1013.05 231.5C1012.76 231.94 1012.36 232.295 1011.85 232.565C1011.35 232.825 1010.77 232.99 1010.1 233.06L1010.38 232.745V234.725H1008.88ZM1018.27 233.15C1017.79 233.15 1017.32 233.1 1016.86 233C1016.41 232.91 1015.99 232.775 1015.6 232.595C1015.21 232.415 1014.87 232.2 1014.58 231.95L1015.21 230.48C1015.68 230.84 1016.16 231.105 1016.65 231.275C1017.14 231.445 1017.66 231.53 1018.21 231.53C1018.65 231.53 1019.02 231.47 1019.32 231.35C1019.62 231.23 1019.84 231.05 1019.99 230.81C1020.15 230.57 1020.23 230.28 1020.23 229.94C1020.23 229.44 1020.06 229.07 1019.72 228.83C1019.39 228.58 1018.91 228.455 1018.27 228.455H1016.57V226.865H1018.09C1018.47 226.865 1018.79 226.805 1019.06 226.685C1019.33 226.555 1019.54 226.375 1019.69 226.145C1019.84 225.915 1019.92 225.635 1019.92 225.305C1019.92 224.845 1019.76 224.495 1019.45 224.255C1019.15 224.015 1018.71 223.895 1018.13 223.895C1017.61 223.895 1017.13 223.985 1016.68 224.165C1016.23 224.335 1015.8 224.605 1015.39 224.975L1014.76 223.535C1015.18 223.135 1015.7 222.825 1016.33 222.605C1016.96 222.385 1017.62 222.275 1018.3 222.275C1019.03 222.275 1019.65 222.39 1020.17 222.62C1020.69 222.84 1021.09 223.16 1021.36 223.58C1021.64 223.99 1021.78 224.49 1021.78 225.08C1021.78 225.71 1021.6 226.255 1021.25 226.715C1020.9 227.165 1020.42 227.465 1019.81 227.615V227.435C1020.29 227.515 1020.7 227.675 1021.04 227.915C1021.38 228.155 1021.64 228.46 1021.82 228.83C1022 229.2 1022.09 229.625 1022.09 230.105C1022.09 230.725 1021.94 231.265 1021.63 231.725C1021.32 232.185 1020.88 232.54 1020.31 232.79C1019.74 233.03 1019.06 233.15 1018.27 233.15ZM1028.2 233V230.99H1023.6V229.58L1028.53 222.425H1030.12V229.4H1031.61V230.99H1030.12V233H1028.2ZM1028.2 229.4V224.72H1028.64L1025.1 229.91V229.4H1028.2ZM1032.77 233V230.915H1034.87V233H1032.77ZM1037.32 233V231.41H1039.7V224.045H1040.63L1037.86 225.725L1037.11 224.315L1040.26 222.425H1041.62V231.41H1043.86V233H1037.32ZM1048.97 233.15C1048.49 233.15 1048.02 233.1 1047.56 233C1047.11 232.91 1046.69 232.775 1046.3 232.595C1045.91 232.415 1045.57 232.2 1045.28 231.95L1045.91 230.48C1046.38 230.84 1046.86 231.105 1047.35 231.275C1047.84 231.445 1048.36 231.53 1048.91 231.53C1049.35 231.53 1049.72 231.47 1050.02 231.35C1050.32 231.23 1050.54 231.05 1050.69 230.81C1050.85 230.57 1050.93 230.28 1050.93 229.94C1050.93 229.44 1050.76 229.07 1050.42 228.83C1050.09 228.58 1049.61 228.455 1048.97 228.455H1047.27V226.865H1048.79C1049.17 226.865 1049.49 226.805 1049.76 226.685C1050.03 226.555 1050.24 226.375 1050.39 226.145C1050.54 225.915 1050.62 225.635 1050.62 225.305C1050.62 224.845 1050.46 224.495 1050.15 224.255C1049.85 224.015 1049.41 223.895 1048.83 223.895C1048.31 223.895 1047.83 223.985 1047.38 224.165C1046.93 224.335 1046.5 224.605 1046.09 224.975L1045.46 223.535C1045.88 223.135 1046.4 222.825 1047.03 222.605C1047.66 222.385 1048.32 222.275 1049 222.275C1049.73 222.275 1050.35 222.39 1050.87 222.62C1051.39 222.84 1051.79 223.16 1052.06 223.58C1052.34 223.99 1052.48 224.49 1052.48 225.08C1052.48 225.71 1052.3 226.255 1051.95 226.715C1051.6 227.165 1051.12 227.465 1050.51 227.615V227.435C1050.99 227.515 1051.4 227.675 1051.74 227.915C1052.08 228.155 1052.34 228.46 1052.52 228.83C1052.7 229.2 1052.79 229.625 1052.79 230.105C1052.79 230.725 1052.64 231.265 1052.33 231.725C1052.02 232.185 1051.58 232.54 1051.01 232.79C1050.44 233.03 1049.76 233.15 1048.97 233.15ZM1054.83 233V222.425H1059.45C1060.56 222.425 1061.42 222.67 1062.03 223.16C1062.64 223.64 1062.94 224.31 1062.94 225.17C1062.94 225.81 1062.76 226.35 1062.39 226.79C1062.02 227.23 1061.51 227.525 1060.87 227.675V227.45C1061.36 227.52 1061.78 227.67 1062.13 227.9C1062.48 228.13 1062.75 228.425 1062.93 228.785C1063.12 229.145 1063.21 229.565 1063.21 230.045C1063.21 230.665 1063.07 231.2 1062.78 231.65C1062.5 232.09 1062.09 232.425 1061.55 232.655C1061.01 232.885 1060.36 233 1059.61 233H1054.83ZM1056.67 231.545H1059.37C1059.64 231.545 1059.88 231.525 1060.09 231.485C1060.31 231.445 1060.5 231.385 1060.65 231.305C1060.81 231.215 1060.94 231.105 1061.04 230.975C1061.15 230.845 1061.23 230.695 1061.28 230.525C1061.33 230.355 1061.35 230.165 1061.35 229.955C1061.35 229.735 1061.33 229.54 1061.28 229.37C1061.23 229.2 1061.15 229.055 1061.04 228.935C1060.94 228.805 1060.81 228.7 1060.65 228.62C1060.5 228.53 1060.31 228.465 1060.09 228.425C1059.88 228.385 1059.64 228.365 1059.37 228.365H1056.67V231.545ZM1056.67 226.91H1059.12C1059.78 226.91 1060.27 226.785 1060.59 226.535C1060.92 226.275 1061.08 225.895 1061.08 225.395C1061.08 224.895 1060.92 224.52 1060.59 224.27C1060.27 224.01 1059.78 223.88 1059.12 223.88H1056.67V226.91Z" fill="white"/>
<circle cx="574" cy="196" r="6" fill="#2EBD85"/>
<path d="M593.185 201V190.425H594.79L598.78 197.79H598.3L602.275 190.425H603.85V201H602.11V193.275H602.44L599.08 199.395H597.955L594.565 193.26H594.925V201H593.185ZM605.877 192.09V190.26H607.977V192.09H605.877ZM605.997 201V193.665H607.872V201H605.997ZM609.821 201V193.665H611.651V195.135H611.486C611.706 194.605 612.046 194.205 612.506 193.935C612.976 193.655 613.506 193.515 614.096 193.515C614.686 193.515 615.171 193.625 615.551 193.845C615.931 194.065 616.216 194.4 616.406 194.85C616.596 195.29 616.691 195.85 616.691 196.53V201H614.816V196.62C614.816 196.24 614.766 195.93 614.666 195.69C614.576 195.45 614.431 195.275 614.231 195.165C614.041 195.045 613.796 194.985 613.496 194.985C613.136 194.985 612.821 195.065 612.551 195.225C612.281 195.375 612.071 195.595 611.921 195.885C611.771 196.165 611.696 196.495 611.696 196.875V201H609.821ZM621.94 201.15C621.18 201.15 620.52 200.995 619.96 200.685C619.4 200.375 618.965 199.935 618.655 199.365C618.345 198.785 618.19 198.105 618.19 197.325C618.19 196.545 618.345 195.87 618.655 195.3C618.965 194.73 619.4 194.29 619.96 193.98C620.52 193.67 621.18 193.515 621.94 193.515C622.7 193.515 623.36 193.67 623.92 193.98C624.48 194.29 624.915 194.73 625.225 195.3C625.535 195.87 625.69 196.545 625.69 197.325C625.69 198.105 625.535 198.785 625.225 199.365C624.915 199.935 624.48 200.375 623.92 200.685C623.36 200.995 622.7 201.15 621.94 201.15ZM621.94 199.725C622.5 199.725 622.95 199.525 623.29 199.125C623.63 198.715 623.8 198.115 623.8 197.325C623.8 196.525 623.63 195.93 623.29 195.54C622.95 195.14 622.5 194.94 621.94 194.94C621.38 194.94 620.93 195.14 620.59 195.54C620.25 195.93 620.08 196.525 620.08 197.325C620.08 198.115 620.25 198.715 620.59 199.125C620.93 199.525 621.38 199.725 621.94 199.725ZM627.238 201V193.665H629.068V195.435H628.918C629.058 194.835 629.333 194.38 629.743 194.07C630.153 193.75 630.698 193.565 631.378 193.515L631.948 193.47L632.068 195.06L630.988 195.165C630.378 195.225 629.918 195.415 629.608 195.735C629.298 196.045 629.143 196.485 629.143 197.055V201H627.238ZM632.992 192.09V190.26H635.092V192.09H632.992ZM633.112 201V193.665H634.987V201H633.112ZM640.295 201.15C639.315 201.15 638.585 200.905 638.105 200.415C637.625 199.925 637.385 199.21 637.385 198.27V195.075H635.975V193.665H637.385V191.475H639.26V193.665H641.48V195.075H639.26V198.165C639.26 198.645 639.365 199.005 639.575 199.245C639.785 199.485 640.125 199.605 640.595 199.605C640.735 199.605 640.88 199.59 641.03 199.56C641.18 199.52 641.335 199.48 641.495 199.44L641.78 200.82C641.6 200.92 641.37 201 641.09 201.06C640.82 201.12 640.555 201.15 640.295 201.15ZM643.469 203.7L644.999 200.325V201.105L641.774 193.665H643.769L646.049 199.35H645.599L647.924 193.665H649.814L645.404 203.7H643.469ZM658.572 201.15C658.022 201.15 657.492 201.1 656.982 201C656.482 200.91 656.017 200.775 655.587 200.595C655.167 200.415 654.792 200.2 654.462 199.95L655.047 198.435C655.377 198.665 655.722 198.865 656.082 199.035C656.452 199.195 656.842 199.32 657.252 199.41C657.672 199.49 658.112 199.53 658.572 199.53C659.362 199.53 659.937 199.4 660.297 199.14C660.657 198.87 660.837 198.525 660.837 198.105C660.837 197.875 660.782 197.68 660.672 197.52C660.562 197.35 660.382 197.205 660.132 197.085C659.882 196.965 659.552 196.865 659.142 196.785L657.492 196.44C656.542 196.24 655.832 195.905 655.362 195.435C654.902 194.955 654.672 194.325 654.672 193.545C654.672 192.885 654.847 192.31 655.197 191.82C655.547 191.33 656.032 190.95 656.652 190.68C657.272 190.41 657.987 190.275 658.797 190.275C659.277 190.275 659.737 190.325 660.177 190.425C660.627 190.515 661.037 190.655 661.407 190.845C661.787 191.025 662.117 191.245 662.397 191.505L661.812 192.945C661.392 192.595 660.932 192.335 660.432 192.165C659.932 191.985 659.382 191.895 658.782 191.895C658.322 191.895 657.927 191.96 657.597 192.09C657.267 192.22 657.012 192.405 656.832 192.645C656.662 192.875 656.577 193.15 656.577 193.47C656.577 193.83 656.697 194.12 656.937 194.34C657.177 194.55 657.587 194.715 658.167 194.835L659.802 195.18C660.792 195.39 661.527 195.72 662.007 196.17C662.497 196.62 662.742 197.22 662.742 197.97C662.742 198.6 662.572 199.155 662.232 199.635C661.892 200.115 661.407 200.49 660.777 200.76C660.157 201.02 659.422 201.15 658.572 201.15ZM667.497 201.15C666.517 201.15 665.787 200.905 665.307 200.415C664.827 199.925 664.587 199.21 664.587 198.27V195.075H663.177V193.665H664.587V191.475H666.462V193.665H668.682V195.075H666.462V198.165C666.462 198.645 666.567 199.005 666.777 199.245C666.987 199.485 667.327 199.605 667.797 199.605C667.937 199.605 668.082 199.59 668.232 199.56C668.382 199.52 668.537 199.48 668.697 199.44L668.982 200.82C668.802 200.92 668.572 201 668.292 201.06C668.022 201.12 667.757 201.15 667.497 201.15ZM672.309 201.15C671.779 201.15 671.304 201.05 670.884 200.85C670.474 200.64 670.149 200.36 669.909 200.01C669.679 199.66 669.564 199.265 669.564 198.825C669.564 198.285 669.704 197.86 669.984 197.55C670.264 197.23 670.719 197 671.349 196.86C671.979 196.72 672.824 196.65 673.884 196.65H674.634V197.73H673.899C673.429 197.73 673.034 197.75 672.714 197.79C672.394 197.82 672.134 197.875 671.934 197.955C671.744 198.025 671.604 198.125 671.514 198.255C671.434 198.385 671.394 198.545 671.394 198.735C671.394 199.065 671.509 199.335 671.739 199.545C671.969 199.755 672.289 199.86 672.699 199.86C673.029 199.86 673.319 199.785 673.569 199.635C673.829 199.475 674.034 199.26 674.184 198.99C674.334 198.72 674.409 198.41 674.409 198.06V196.335C674.409 195.835 674.299 195.475 674.079 195.255C673.859 195.035 673.489 194.925 672.969 194.925C672.559 194.925 672.139 194.99 671.709 195.12C671.279 195.24 670.844 195.43 670.404 195.69L669.864 194.415C670.124 194.235 670.429 194.08 670.779 193.95C671.139 193.81 671.514 193.705 671.904 193.635C672.304 193.555 672.679 193.515 673.029 193.515C673.749 193.515 674.339 193.625 674.799 193.845C675.269 194.065 675.619 194.4 675.849 194.85C676.079 195.29 676.194 195.86 676.194 196.56V201H674.439V199.44H674.559C674.489 199.79 674.349 200.095 674.139 200.355C673.939 200.605 673.684 200.8 673.374 200.94C673.064 201.08 672.709 201.15 672.309 201.15ZM678.097 201V190.425H679.972V196.785H680.002L682.957 193.665H685.222L681.532 197.565V196.785L685.432 201H683.137L680.002 197.73H679.972V201H678.097ZM689.608 201.15C688.778 201.15 688.063 200.995 687.463 200.685C686.863 200.375 686.398 199.935 686.068 199.365C685.748 198.795 685.588 198.12 685.588 197.34C685.588 196.58 685.743 195.915 686.053 195.345C686.373 194.775 686.808 194.33 687.358 194.01C687.918 193.68 688.553 193.515 689.263 193.515C689.963 193.515 690.563 193.665 691.063 193.965C691.563 194.265 691.948 194.69 692.218 195.24C692.498 195.79 692.638 196.445 692.638 197.205V197.76H687.103V196.68H691.318L691.078 196.905C691.078 196.225 690.928 195.705 690.628 195.345C690.328 194.975 689.898 194.79 689.338 194.79C688.918 194.79 688.558 194.89 688.258 195.09C687.968 195.28 687.743 195.555 687.583 195.915C687.433 196.265 687.358 196.685 687.358 197.175V197.28C687.358 197.83 687.443 198.285 687.613 198.645C687.783 199.005 688.038 199.275 688.378 199.455C688.718 199.635 689.138 199.725 689.638 199.725C690.048 199.725 690.458 199.665 690.868 199.545C691.278 199.415 691.653 199.215 691.993 198.945L692.518 200.205C692.168 200.495 691.728 200.725 691.198 200.895C690.668 201.065 690.138 201.15 689.608 201.15Z" fill="white"/>
<path d="M997.192 202.725V200.76L997.537 201.09C996.807 201.07 996.117 200.96 995.467 200.76C994.827 200.55 994.272 200.26 993.802 199.89L994.387 198.375C994.697 198.605 995.027 198.805 995.377 198.975C995.737 199.135 996.112 199.26 996.502 199.35C996.902 199.43 997.327 199.47 997.777 199.47C998.507 199.47 999.042 199.34 999.382 199.08C999.722 198.82 999.892 198.495 999.892 198.105C999.892 197.755 999.777 197.475 999.547 197.265C999.317 197.055 998.907 196.885 998.317 196.755L996.727 196.41C995.827 196.21 995.147 195.88 994.687 195.42C994.237 194.95 994.012 194.33 994.012 193.56C994.012 192.97 994.157 192.445 994.447 191.985C994.737 191.515 995.142 191.14 995.662 190.86C996.182 190.58 996.792 190.415 997.492 190.365L997.192 190.59V188.7H998.692V190.59L998.377 190.35C998.947 190.38 999.507 190.495 1000.06 190.695C1000.62 190.895 1001.08 191.185 1001.45 191.565L1000.88 193.005C1000.5 192.655 1000.07 192.395 999.577 192.225C999.087 192.045 998.552 191.955 997.972 191.955C997.352 191.955 996.852 192.1 996.472 192.39C996.102 192.67 995.917 193.04 995.917 193.5C995.917 193.84 996.032 194.115 996.262 194.325C996.492 194.535 996.862 194.695 997.372 194.805L998.962 195.15C999.922 195.36 1000.63 195.695 1001.09 196.155C1001.56 196.605 1001.8 197.205 1001.8 197.955C1001.8 198.535 1001.65 199.05 1001.36 199.5C1001.07 199.94 1000.67 200.295 1000.16 200.565C999.662 200.825 999.077 200.99 998.407 201.06L998.692 200.745V202.725H997.192ZM1003.58 201L1008.69 191.37V192.03H1003.11V190.425H1010.48V191.865L1005.69 201H1003.58ZM1012.57 201L1017.69 191.37V192.03H1012.11V190.425H1019.47V191.865L1014.69 201H1012.57ZM1023.96 201.15C1023.59 201.15 1023.22 201.1 1022.84 201C1022.47 200.91 1022.11 200.775 1021.77 200.595C1021.44 200.415 1021.14 200.2 1020.87 199.95L1021.52 198.51C1021.88 198.85 1022.27 199.105 1022.69 199.275C1023.12 199.445 1023.55 199.53 1023.98 199.53C1024.42 199.53 1024.8 199.455 1025.13 199.305C1025.47 199.145 1025.76 198.915 1025.99 198.615C1026.22 198.305 1026.39 197.925 1026.5 197.475C1026.62 197.015 1026.68 196.485 1026.68 195.885V194.76H1026.84C1026.77 195.26 1026.61 195.695 1026.35 196.065C1026.09 196.435 1025.76 196.72 1025.36 196.92C1024.97 197.11 1024.52 197.205 1024.02 197.205C1023.42 197.205 1022.89 197.06 1022.42 196.77C1021.95 196.48 1021.57 196.08 1021.29 195.57C1021.02 195.05 1020.89 194.465 1020.89 193.815C1020.89 193.125 1021.04 192.515 1021.34 191.985C1021.64 191.455 1022.05 191.04 1022.57 190.74C1023.1 190.43 1023.7 190.275 1024.38 190.275C1025.26 190.275 1026.01 190.48 1026.62 190.89C1027.23 191.3 1027.69 191.9 1028.01 192.69C1028.33 193.47 1028.49 194.415 1028.49 195.525C1028.49 196.715 1028.31 197.73 1027.95 198.57C1027.59 199.41 1027.07 200.05 1026.39 200.49C1025.72 200.93 1024.91 201.15 1023.96 201.15ZM1024.5 195.675C1024.86 195.675 1025.18 195.595 1025.45 195.435C1025.73 195.275 1025.94 195.05 1026.09 194.76C1026.24 194.46 1026.32 194.12 1026.32 193.74C1026.32 193.35 1026.24 193.01 1026.09 192.72C1025.94 192.43 1025.73 192.205 1025.45 192.045C1025.18 191.875 1024.86 191.79 1024.5 191.79C1024.14 191.79 1023.83 191.875 1023.56 192.045C1023.29 192.205 1023.07 192.43 1022.91 192.72C1022.76 193.01 1022.69 193.35 1022.69 193.74C1022.69 194.12 1022.76 194.46 1022.91 194.76C1023.07 195.05 1023.29 195.275 1023.56 195.435C1023.83 195.595 1024.14 195.675 1024.5 195.675ZM1030.08 201V198.915H1032.18V201H1030.08ZM1037.49 201.15C1036.66 201.15 1035.95 200.94 1035.37 200.52C1034.8 200.09 1034.37 199.47 1034.07 198.66C1033.78 197.85 1033.63 196.86 1033.63 195.69C1033.63 194.51 1033.78 193.52 1034.07 192.72C1034.37 191.91 1034.8 191.3 1035.37 190.89C1035.95 190.48 1036.66 190.275 1037.49 190.275C1038.33 190.275 1039.03 190.48 1039.6 190.89C1040.18 191.3 1040.62 191.905 1040.91 192.705C1041.2 193.505 1041.34 194.495 1041.34 195.675C1041.34 196.845 1041.19 197.84 1040.89 198.66C1040.6 199.47 1040.17 200.09 1039.6 200.52C1039.03 200.94 1038.33 201.15 1037.49 201.15ZM1037.49 199.575C1038.17 199.575 1038.67 199.265 1038.99 198.645C1039.32 198.015 1039.48 197.025 1039.48 195.675C1039.48 194.335 1039.32 193.365 1038.99 192.765C1038.67 192.155 1038.17 191.85 1037.49 191.85C1036.82 191.85 1036.32 192.155 1035.99 192.765C1035.66 193.365 1035.49 194.34 1035.49 195.69C1035.49 197.03 1035.66 198.015 1035.99 198.645C1036.32 199.265 1036.82 199.575 1037.49 199.575ZM1046.48 201.15C1045.65 201.15 1044.95 200.94 1044.37 200.52C1043.8 200.09 1043.36 199.47 1043.06 198.66C1042.77 197.85 1042.63 196.86 1042.63 195.69C1042.63 194.51 1042.77 193.52 1043.06 192.72C1043.36 191.91 1043.8 191.3 1044.37 190.89C1044.95 190.48 1045.65 190.275 1046.48 190.275C1047.32 190.275 1048.03 190.48 1048.6 190.89C1049.18 191.3 1049.61 191.905 1049.9 192.705C1050.19 193.505 1050.34 194.495 1050.34 195.675C1050.34 196.845 1050.19 197.84 1049.89 198.66C1049.6 199.47 1049.17 200.09 1048.6 200.52C1048.03 200.94 1047.32 201.15 1046.48 201.15ZM1046.48 199.575C1047.16 199.575 1047.66 199.265 1047.98 198.645C1048.31 198.015 1048.48 197.025 1048.48 195.675C1048.48 194.335 1048.31 193.365 1047.98 192.765C1047.66 192.155 1047.16 191.85 1046.48 191.85C1045.81 191.85 1045.31 192.155 1044.98 192.765C1044.65 193.365 1044.49 194.34 1044.49 195.69C1044.49 197.03 1044.65 198.015 1044.98 198.645C1045.31 199.265 1045.81 199.575 1046.48 199.575ZM1052.16 201V190.425H1053.77L1057.76 197.79H1057.28L1061.25 190.425H1062.83V201H1061.09V193.275H1061.42L1058.06 199.395H1056.93L1053.54 193.26H1053.9V201H1052.16Z" fill="white"/>
<circle cx="574" cy="164" r="6" fill="#FFA800"/>
<path d="M593.155 169V158.425H597.085C598.265 158.425 599.265 158.63 600.085 159.04C600.915 159.45 601.545 160.05 601.975 160.84C602.415 161.62 602.635 162.575 602.635 163.705C602.635 164.835 602.415 165.795 601.975 166.585C601.545 167.375 600.915 167.975 600.085 168.385C599.265 168.795 598.265 169 597.085 169H593.155ZM595.075 167.41H596.965C598.195 167.41 599.11 167.105 599.71 166.495C600.32 165.875 600.625 164.945 600.625 163.705C600.625 162.465 600.32 161.54 599.71 160.93C599.1 160.32 598.185 160.015 596.965 160.015H595.075V167.41ZM608.016 169.15C607.186 169.15 606.471 168.995 605.871 168.685C605.271 168.375 604.806 167.935 604.476 167.365C604.156 166.795 603.996 166.12 603.996 165.34C603.996 164.58 604.151 163.915 604.461 163.345C604.781 162.775 605.216 162.33 605.766 162.01C606.326 161.68 606.961 161.515 607.671 161.515C608.371 161.515 608.971 161.665 609.471 161.965C609.971 162.265 610.356 162.69 610.626 163.24C610.906 163.79 611.046 164.445 611.046 165.205V165.76H605.511V164.68H609.726L609.486 164.905C609.486 164.225 609.336 163.705 609.036 163.345C608.736 162.975 608.306 162.79 607.746 162.79C607.326 162.79 606.966 162.89 606.666 163.09C606.376 163.28 606.151 163.555 605.991 163.915C605.841 164.265 605.766 164.685 605.766 165.175V165.28C605.766 165.83 605.851 166.285 606.021 166.645C606.191 167.005 606.446 167.275 606.786 167.455C607.126 167.635 607.546 167.725 608.046 167.725C608.456 167.725 608.866 167.665 609.276 167.545C609.686 167.415 610.061 167.215 610.401 166.945L610.926 168.205C610.576 168.495 610.136 168.725 609.606 168.895C609.076 169.065 608.546 169.15 608.016 169.15ZM616.761 169.15C616.141 169.15 615.596 168.995 615.126 168.685C614.666 168.375 614.361 167.96 614.211 167.44H614.361V169H612.531V158.425H614.406V163.15H614.226C614.386 162.66 614.696 162.265 615.156 161.965C615.616 161.665 616.151 161.515 616.761 161.515C617.411 161.515 617.976 161.67 618.456 161.98C618.936 162.29 619.311 162.73 619.581 163.3C619.851 163.86 619.986 164.535 619.986 165.325C619.986 166.105 619.851 166.785 619.581 167.365C619.311 167.935 618.931 168.375 618.441 168.685C617.961 168.995 617.401 169.15 616.761 169.15ZM616.236 167.725C616.796 167.725 617.246 167.525 617.586 167.125C617.926 166.715 618.096 166.115 618.096 165.325C618.096 164.525 617.926 163.93 617.586 163.54C617.246 163.14 616.796 162.94 616.236 162.94C615.676 162.94 615.226 163.14 614.886 163.54C614.546 163.93 614.376 164.525 614.376 165.325C614.376 166.115 614.546 166.715 614.886 167.125C615.226 167.525 615.676 167.725 616.236 167.725ZM624.812 169.15C623.832 169.15 623.102 168.905 622.622 168.415C622.142 167.925 621.902 167.21 621.902 166.27V163.075H620.492V161.665H621.902V159.475H623.777V161.665H625.997V163.075H623.777V166.165C623.777 166.645 623.882 167.005 624.092 167.245C624.302 167.485 624.642 167.605 625.112 167.605C625.252 167.605 625.397 167.59 625.547 167.56C625.697 167.52 625.852 167.48 626.012 167.44L626.297 168.82C626.117 168.92 625.887 169 625.607 169.06C625.337 169.12 625.072 169.15 624.812 169.15Z" fill="white"/>
<path d="M1008.88 170.725V168.76L1009.23 169.09C1008.5 169.07 1007.81 168.96 1007.16 168.76C1006.52 168.55 1005.96 168.26 1005.49 167.89L1006.08 166.375C1006.39 166.605 1006.72 166.805 1007.07 166.975C1007.43 167.135 1007.8 167.26 1008.19 167.35C1008.59 167.43 1009.02 167.47 1009.47 167.47C1010.2 167.47 1010.73 167.34 1011.07 167.08C1011.41 166.82 1011.58 166.495 1011.58 166.105C1011.58 165.755 1011.47 165.475 1011.24 165.265C1011.01 165.055 1010.6 164.885 1010.01 164.755L1008.42 164.41C1007.52 164.21 1006.84 163.88 1006.38 163.42C1005.93 162.95 1005.7 162.33 1005.7 161.56C1005.7 160.97 1005.85 160.445 1006.14 159.985C1006.43 159.515 1006.83 159.14 1007.35 158.86C1007.87 158.58 1008.48 158.415 1009.18 158.365L1008.88 158.59V156.7H1010.38V158.59L1010.07 158.35C1010.64 158.38 1011.2 158.495 1011.75 158.695C1012.31 158.895 1012.77 159.185 1013.14 159.565L1012.57 161.005C1012.19 160.655 1011.76 160.395 1011.27 160.225C1010.78 160.045 1010.24 159.955 1009.66 159.955C1009.04 159.955 1008.54 160.1 1008.16 160.39C1007.79 160.67 1007.61 161.04 1007.61 161.5C1007.61 161.84 1007.72 162.115 1007.95 162.325C1008.18 162.535 1008.55 162.695 1009.06 162.805L1010.65 163.15C1011.61 163.36 1012.32 163.695 1012.78 164.155C1013.25 164.605 1013.49 165.205 1013.49 165.955C1013.49 166.535 1013.34 167.05 1013.05 167.5C1012.76 167.94 1012.36 168.295 1011.85 168.565C1011.35 168.825 1010.77 168.99 1010.1 169.06L1010.38 168.745V170.725H1008.88ZM1015.61 169V167.41H1018V160.045H1018.93L1016.15 161.725L1015.4 160.315L1018.55 158.425H1019.92V167.41H1022.15V169H1015.61ZM1024.17 169V167.575L1027.59 163.93C1027.9 163.6 1028.14 163.295 1028.32 163.015C1028.51 162.735 1028.65 162.465 1028.74 162.205C1028.83 161.945 1028.88 161.685 1028.88 161.425C1028.88 160.925 1028.72 160.545 1028.4 160.285C1028.09 160.025 1027.63 159.895 1027.03 159.895C1026.56 159.895 1026.1 159.985 1025.65 160.165C1025.21 160.335 1024.79 160.605 1024.38 160.975L1023.73 159.535C1024.15 159.155 1024.68 158.85 1025.31 158.62C1025.94 158.39 1026.59 158.275 1027.27 158.275C1028.03 158.275 1028.67 158.39 1029.19 158.62C1029.71 158.85 1030.11 159.185 1030.38 159.625C1030.65 160.065 1030.78 160.6 1030.78 161.23C1030.78 161.55 1030.74 161.865 1030.66 162.175C1030.59 162.475 1030.48 162.775 1030.32 163.075C1030.17 163.375 1029.97 163.685 1029.73 164.005C1029.5 164.315 1029.22 164.64 1028.89 164.98L1026.07 167.92V167.41H1031.19V169H1024.17ZM1032.77 169V166.915H1034.87V169H1032.77ZM1036.97 169L1042.09 159.37V160.03H1036.51V158.425H1043.87V159.865L1039.09 169H1036.97ZM1049.18 169.15C1047.95 169.15 1046.98 168.885 1046.28 168.355C1045.59 167.825 1045.25 167.09 1045.25 166.15C1045.25 165.65 1045.35 165.21 1045.55 164.83C1045.76 164.44 1046.04 164.125 1046.4 163.885C1046.76 163.645 1047.17 163.495 1047.63 163.435V163.75C1047.21 163.66 1046.84 163.495 1046.52 163.255C1046.2 163.005 1045.95 162.7 1045.77 162.34C1045.6 161.97 1045.52 161.565 1045.52 161.125C1045.52 160.235 1045.85 159.54 1046.51 159.04C1047.17 158.53 1048.06 158.275 1049.19 158.275C1050.31 158.275 1051.2 158.53 1051.86 159.04C1052.52 159.54 1052.85 160.235 1052.85 161.125C1052.85 161.565 1052.76 161.97 1052.58 162.34C1052.41 162.71 1052.17 163.015 1051.85 163.255C1051.54 163.495 1051.17 163.655 1050.75 163.735V163.435C1051.22 163.495 1051.63 163.65 1051.98 163.9C1052.33 164.14 1052.61 164.455 1052.81 164.845C1053.01 165.225 1053.11 165.66 1053.11 166.15C1053.11 167.09 1052.76 167.825 1052.06 168.355C1051.37 168.885 1050.41 169.15 1049.18 169.15ZM1049.18 167.65C1049.89 167.65 1050.42 167.515 1050.78 167.245C1051.14 166.965 1051.32 166.555 1051.32 166.015C1051.32 165.475 1051.14 165.07 1050.78 164.8C1050.42 164.53 1049.89 164.395 1049.18 164.395C1048.48 164.395 1047.94 164.53 1047.57 164.8C1047.21 165.07 1047.03 165.475 1047.03 166.015C1047.03 166.555 1047.21 166.965 1047.57 167.245C1047.94 167.515 1048.48 167.65 1049.18 167.65ZM1049.18 162.895C1049.77 162.895 1050.23 162.755 1050.56 162.475C1050.9 162.195 1051.07 161.81 1051.07 161.32C1051.07 160.84 1050.9 160.465 1050.56 160.195C1050.23 159.915 1049.77 159.775 1049.18 159.775C1048.59 159.775 1048.13 159.915 1047.8 160.195C1047.47 160.465 1047.3 160.845 1047.3 161.335C1047.3 161.815 1047.47 162.195 1047.8 162.475C1048.13 162.755 1048.59 162.895 1049.18 162.895ZM1054.83 169V158.425H1059.45C1060.56 158.425 1061.42 158.67 1062.03 159.16C1062.64 159.64 1062.94 160.31 1062.94 161.17C1062.94 161.81 1062.76 162.35 1062.39 162.79C1062.02 163.23 1061.51 163.525 1060.87 163.675V163.45C1061.36 163.52 1061.78 163.67 1062.13 163.9C1062.48 164.13 1062.75 164.425 1062.93 164.785C1063.12 165.145 1063.21 165.565 1063.21 166.045C1063.21 166.665 1063.07 167.2 1062.78 167.65C1062.5 168.09 1062.09 168.425 1061.55 168.655C1061.01 168.885 1060.36 169 1059.61 169H1054.83ZM1056.67 167.545H1059.37C1059.64 167.545 1059.88 167.525 1060.09 167.485C1060.31 167.445 1060.5 167.385 1060.65 167.305C1060.81 167.215 1060.94 167.105 1061.04 166.975C1061.15 166.845 1061.23 166.695 1061.28 166.525C1061.33 166.355 1061.35 166.165 1061.35 165.955C1061.35 165.735 1061.33 165.54 1061.28 165.37C1061.23 165.2 1061.15 165.055 1061.04 164.935C1060.94 164.805 1060.81 164.7 1060.65 164.62C1060.5 164.53 1060.31 164.465 1060.09 164.425C1059.88 164.385 1059.64 164.365 1059.37 164.365H1056.67V167.545ZM1056.67 162.91H1059.12C1059.78 162.91 1060.27 162.785 1060.59 162.535C1060.92 162.275 1061.08 161.895 1061.08 161.395C1061.08 160.895 1060.92 160.52 1060.59 160.27C1060.27 160.01 1059.78 159.88 1059.12 159.88H1056.67V162.91Z" fill="white"/>
<circle cx="574" cy="132" r="6" fill="#6AA5FF"/>
<path d="M593.185 137V126.425H594.79L598.78 133.79H598.3L602.275 126.425H603.85V137H602.11V129.275H602.44L599.08 135.395H597.955L594.565 129.26H594.925V137H593.185ZM608.412 137.15C607.882 137.15 607.407 137.05 606.987 136.85C606.577 136.64 606.252 136.36 606.012 136.01C605.782 135.66 605.667 135.265 605.667 134.825C605.667 134.285 605.807 133.86 606.087 133.55C606.367 133.23 606.822 133 607.452 132.86C608.082 132.72 608.927 132.65 609.987 132.65H610.737V133.73H610.002C609.532 133.73 609.137 133.75 608.817 133.79C608.497 133.82 608.237 133.875 608.037 133.955C607.847 134.025 607.707 134.125 607.617 134.255C607.537 134.385 607.497 134.545 607.497 134.735C607.497 135.065 607.612 135.335 607.842 135.545C608.072 135.755 608.392 135.86 608.802 135.86C609.132 135.86 609.422 135.785 609.672 135.635C609.932 135.475 610.137 135.26 610.287 134.99C610.437 134.72 610.512 134.41 610.512 134.06V132.335C610.512 131.835 610.402 131.475 610.182 131.255C609.962 131.035 609.592 130.925 609.072 130.925C608.662 130.925 608.242 130.99 607.812 131.12C607.382 131.24 606.947 131.43 606.507 131.69L605.967 130.415C606.227 130.235 606.532 130.08 606.882 129.95C607.242 129.81 607.617 129.705 608.007 129.635C608.407 129.555 608.782 129.515 609.132 129.515C609.852 129.515 610.442 129.625 610.902 129.845C611.372 130.065 611.722 130.4 611.952 130.85C612.182 131.29 612.297 131.86 612.297 132.56V137H610.542V135.44H610.662C610.592 135.79 610.452 136.095 610.242 136.355C610.042 136.605 609.787 136.8 609.477 136.94C609.167 137.08 608.812 137.15 608.412 137.15ZM614.201 137V129.665H616.031V131.435H615.881C616.021 130.835 616.296 130.38 616.706 130.07C617.116 129.75 617.661 129.565 618.341 129.515L618.911 129.47L619.031 131.06L617.951 131.165C617.341 131.225 616.881 131.415 616.571 131.735C616.261 132.045 616.106 132.485 616.106 133.055V137H614.201ZM620.075 137V126.425H621.95V132.785H621.98L624.935 129.665H627.2L623.51 133.565V132.785L627.41 137H625.115L621.98 133.73H621.95V137H620.075ZM631.585 137.15C630.755 137.15 630.04 136.995 629.44 136.685C628.84 136.375 628.375 135.935 628.045 135.365C627.725 134.795 627.565 134.12 627.565 133.34C627.565 132.58 627.72 131.915 628.03 131.345C628.35 130.775 628.785 130.33 629.335 130.01C629.895 129.68 630.53 129.515 631.24 129.515C631.94 129.515 632.54 129.665 633.04 129.965C633.54 130.265 633.925 130.69 634.195 131.24C634.475 131.79 634.615 132.445 634.615 133.205V133.76H629.08V132.68H633.295L633.055 132.905C633.055 132.225 632.905 131.705 632.605 131.345C632.305 130.975 631.875 130.79 631.315 130.79C630.895 130.79 630.535 130.89 630.235 131.09C629.945 131.28 629.72 131.555 629.56 131.915C629.41 132.265 629.335 132.685 629.335 133.175V133.28C629.335 133.83 629.42 134.285 629.59 134.645C629.76 135.005 630.015 135.275 630.355 135.455C630.695 135.635 631.115 135.725 631.615 135.725C632.025 135.725 632.435 135.665 632.845 135.545C633.255 135.415 633.63 135.215 633.97 134.945L634.495 136.205C634.145 136.495 633.705 136.725 633.175 136.895C632.645 137.065 632.115 137.15 631.585 137.15ZM639.431 137.15C638.451 137.15 637.721 136.905 637.241 136.415C636.761 135.925 636.521 135.21 636.521 134.27V131.075H635.111V129.665H636.521V127.475H638.396V129.665H640.616V131.075H638.396V134.165C638.396 134.645 638.501 135.005 638.711 135.245C638.921 135.485 639.261 135.605 639.731 135.605C639.871 135.605 640.016 135.59 640.166 135.56C640.316 135.52 640.471 135.48 640.631 135.44L640.916 136.82C640.736 136.92 640.506 137 640.226 137.06C639.956 137.12 639.691 137.15 639.431 137.15ZM650.971 137.15C649.871 137.15 648.926 136.93 648.136 136.49C647.356 136.04 646.756 135.41 646.336 134.6C645.916 133.78 645.706 132.815 645.706 131.705C645.706 130.595 645.916 129.635 646.336 128.825C646.756 128.015 647.356 127.39 648.136 126.95C648.926 126.5 649.871 126.275 650.971 126.275C651.681 126.275 652.351 126.385 652.981 126.605C653.621 126.825 654.146 127.14 654.556 127.55L653.926 129.08C653.476 128.7 653.016 128.425 652.546 128.255C652.076 128.075 651.571 127.985 651.031 127.985C649.961 127.985 649.146 128.31 648.586 128.96C648.026 129.6 647.746 130.515 647.746 131.705C647.746 132.895 648.026 133.815 648.586 134.465C649.146 135.115 649.961 135.44 651.031 135.44C651.571 135.44 652.076 135.355 652.546 135.185C653.016 135.005 653.476 134.725 653.926 134.345L654.556 135.875C654.146 136.275 653.621 136.59 652.981 136.82C652.351 137.04 651.681 137.15 650.971 137.15ZM658.203 137.15C657.673 137.15 657.198 137.05 656.778 136.85C656.368 136.64 656.043 136.36 655.802 136.01C655.573 135.66 655.458 135.265 655.458 134.825C655.458 134.285 655.598 133.86 655.878 133.55C656.158 133.23 656.613 133 657.243 132.86C657.873 132.72 658.718 132.65 659.778 132.65H660.528V133.73H659.793C659.323 133.73 658.928 133.75 658.608 133.79C658.288 133.82 658.028 133.875 657.828 133.955C657.638 134.025 657.498 134.125 657.408 134.255C657.328 134.385 657.288 134.545 657.288 134.735C657.288 135.065 657.403 135.335 657.633 135.545C657.863 135.755 658.183 135.86 658.593 135.86C658.923 135.86 659.213 135.785 659.463 135.635C659.723 135.475 659.928 135.26 660.078 134.99C660.228 134.72 660.303 134.41 660.303 134.06V132.335C660.303 131.835 660.193 131.475 659.973 131.255C659.753 131.035 659.383 130.925 658.863 130.925C658.453 130.925 658.033 130.99 657.603 131.12C657.173 131.24 656.738 131.43 656.298 131.69L655.758 130.415C656.018 130.235 656.323 130.08 656.673 129.95C657.033 129.81 657.408 129.705 657.798 129.635C658.198 129.555 658.573 129.515 658.923 129.515C659.643 129.515 660.233 129.625 660.693 129.845C661.163 130.065 661.513 130.4 661.743 130.85C661.973 131.29 662.088 131.86 662.088 132.56V137H660.333V135.44H660.453C660.383 135.79 660.243 136.095 660.033 136.355C659.833 136.605 659.578 136.8 659.268 136.94C658.958 137.08 658.603 137.15 658.203 137.15ZM663.991 139.7V129.665H665.821V131.21H665.671C665.821 130.7 666.126 130.29 666.586 129.98C667.056 129.67 667.601 129.515 668.221 129.515C668.861 129.515 669.421 129.67 669.901 129.98C670.391 130.29 670.771 130.73 671.041 131.3C671.311 131.86 671.446 132.535 671.446 133.325C671.446 134.105 671.311 134.785 671.041 135.365C670.771 135.935 670.396 136.375 669.916 136.685C669.436 136.995 668.871 137.15 668.221 137.15C667.611 137.15 667.076 137 666.616 136.7C666.156 136.39 665.846 135.99 665.686 135.5H665.866V139.7H663.991ZM667.696 135.725C668.256 135.725 668.706 135.525 669.046 135.125C669.386 134.715 669.556 134.115 669.556 133.325C669.556 132.525 669.386 131.93 669.046 131.54C668.706 131.14 668.256 130.94 667.696 130.94C667.136 130.94 666.686 131.14 666.346 131.54C666.006 131.93 665.836 132.525 665.836 133.325C665.836 134.115 666.006 134.715 666.346 135.125C666.686 135.525 667.136 135.725 667.696 135.725ZM672.865 128.09V126.26H674.965V128.09H672.865ZM672.985 137V129.665H674.86V137H672.985ZM680.168 137.15C679.188 137.15 678.458 136.905 677.978 136.415C677.498 135.925 677.258 135.21 677.258 134.27V131.075H675.848V129.665H677.258V127.475H679.133V129.665H681.353V131.075H679.133V134.165C679.133 134.645 679.238 135.005 679.448 135.245C679.658 135.485 679.998 135.605 680.468 135.605C680.608 135.605 680.753 135.59 680.903 135.56C681.053 135.52 681.208 135.48 681.368 135.44L681.653 136.82C681.473 136.92 681.243 137 680.963 137.06C680.693 137.12 680.428 137.15 680.168 137.15ZM684.98 137.15C684.45 137.15 683.975 137.05 683.555 136.85C683.145 136.64 682.82 136.36 682.58 136.01C682.35 135.66 682.235 135.265 682.235 134.825C682.235 134.285 682.375 133.86 682.655 133.55C682.935 133.23 683.39 133 684.02 132.86C684.65 132.72 685.495 132.65 686.555 132.65H687.305V133.73H686.57C686.1 133.73 685.705 133.75 685.385 133.79C685.065 133.82 684.805 133.875 684.605 133.955C684.415 134.025 684.275 134.125 684.185 134.255C684.105 134.385 684.065 134.545 684.065 134.735C684.065 135.065 684.18 135.335 684.41 135.545C684.64 135.755 684.96 135.86 685.37 135.86C685.7 135.86 685.99 135.785 686.24 135.635C686.5 135.475 686.705 135.26 686.855 134.99C687.005 134.72 687.08 134.41 687.08 134.06V132.335C687.08 131.835 686.97 131.475 686.75 131.255C686.53 131.035 686.16 130.925 685.64 130.925C685.23 130.925 684.81 130.99 684.38 131.12C683.95 131.24 683.515 131.43 683.075 131.69L682.535 130.415C682.795 130.235 683.1 130.08 683.45 129.95C683.81 129.81 684.185 129.705 684.575 129.635C684.975 129.555 685.35 129.515 685.7 129.515C686.42 129.515 687.01 129.625 687.47 129.845C687.94 130.065 688.29 130.4 688.52 130.85C688.75 131.29 688.865 131.86 688.865 132.56V137H687.11V135.44H687.23C687.16 135.79 687.02 136.095 686.81 136.355C686.61 136.605 686.355 136.8 686.045 136.94C685.735 137.08 685.38 137.15 684.98 137.15ZM693.318 137.15C692.448 137.15 691.803 136.915 691.383 136.445C690.973 135.965 690.768 135.265 690.768 134.345V126.425H692.643V134.255C692.643 134.545 692.683 134.795 692.763 135.005C692.853 135.205 692.983 135.355 693.153 135.455C693.323 135.555 693.533 135.605 693.783 135.605C693.893 135.605 694.003 135.6 694.113 135.59C694.223 135.58 694.328 135.56 694.428 135.53L694.398 137.015C694.218 137.055 694.038 137.085 693.858 137.105C693.688 137.135 693.508 137.15 693.318 137.15ZM695.438 128.09V126.26H697.538V128.09H695.438ZM695.558 137V129.665H697.433V137H695.558ZM699.141 137V135.785L703.281 130.625V131.075H699.141V129.665H704.961V130.88L700.776 136.085V135.59H705.126V137H699.141ZM708.828 137.15C708.298 137.15 707.823 137.05 707.403 136.85C706.993 136.64 706.668 136.36 706.427 136.01C706.198 135.66 706.083 135.265 706.083 134.825C706.083 134.285 706.223 133.86 706.503 133.55C706.783 133.23 707.238 133 707.868 132.86C708.498 132.72 709.343 132.65 710.403 132.65H711.153V133.73H710.418C709.948 133.73 709.553 133.75 709.233 133.79C708.913 133.82 708.653 133.875 708.453 133.955C708.263 134.025 708.123 134.125 708.033 134.255C707.953 134.385 707.913 134.545 707.913 134.735C707.913 135.065 708.028 135.335 708.258 135.545C708.488 135.755 708.808 135.86 709.218 135.86C709.548 135.86 709.838 135.785 710.088 135.635C710.348 135.475 710.553 135.26 710.703 134.99C710.853 134.72 710.928 134.41 710.928 134.06V132.335C710.928 131.835 710.818 131.475 710.598 131.255C710.378 131.035 710.008 130.925 709.488 130.925C709.078 130.925 708.658 130.99 708.228 131.12C707.798 131.24 707.363 131.43 706.923 131.69L706.383 130.415C706.643 130.235 706.948 130.08 707.298 129.95C707.658 129.81 708.033 129.705 708.423 129.635C708.823 129.555 709.198 129.515 709.548 129.515C710.268 129.515 710.858 129.625 711.318 129.845C711.788 130.065 712.138 130.4 712.368 130.85C712.598 131.29 712.713 131.86 712.713 132.56V137H710.958V135.44H711.078C711.008 135.79 710.868 136.095 710.658 136.355C710.458 136.605 710.203 136.8 709.893 136.94C709.583 137.08 709.228 137.15 708.828 137.15ZM717.976 137.15C716.996 137.15 716.266 136.905 715.786 136.415C715.306 135.925 715.066 135.21 715.066 134.27V131.075H713.656V129.665H715.066V127.475H716.941V129.665H719.161V131.075H716.941V134.165C716.941 134.645 717.046 135.005 717.256 135.245C717.466 135.485 717.806 135.605 718.276 135.605C718.416 135.605 718.561 135.59 718.711 135.56C718.861 135.52 719.016 135.48 719.176 135.44L719.461 136.82C719.281 136.92 719.051 137 718.771 137.06C718.501 137.12 718.236 137.15 717.976 137.15ZM720.252 128.09V126.26H722.352V128.09H720.252ZM720.372 137V129.665H722.247V137H720.372ZM727.541 137.15C726.781 137.15 726.121 136.995 725.561 136.685C725.001 136.375 724.566 135.935 724.256 135.365C723.946 134.785 723.791 134.105 723.791 133.325C723.791 132.545 723.946 131.87 724.256 131.3C724.566 130.73 725.001 130.29 725.561 129.98C726.121 129.67 726.781 129.515 727.541 129.515C728.301 129.515 728.961 129.67 729.521 129.98C730.081 130.29 730.516 130.73 730.826 131.3C731.136 131.87 731.291 132.545 731.291 133.325C731.291 134.105 731.136 134.785 730.826 135.365C730.516 135.935 730.081 136.375 729.521 136.685C728.961 136.995 728.301 137.15 727.541 137.15ZM727.541 135.725C728.101 135.725 728.551 135.525 728.891 135.125C729.231 134.715 729.401 134.115 729.401 133.325C729.401 132.525 729.231 131.93 728.891 131.54C728.551 131.14 728.101 130.94 727.541 130.94C726.981 130.94 726.531 131.14 726.191 131.54C725.851 131.93 725.681 132.525 725.681 133.325C725.681 134.115 725.851 134.715 726.191 135.125C726.531 135.525 726.981 135.725 727.541 135.725ZM732.838 137V129.665H734.668V131.135H734.503C734.723 130.605 735.063 130.205 735.523 129.935C735.993 129.655 736.523 129.515 737.113 129.515C737.703 129.515 738.188 129.625 738.568 129.845C738.948 130.065 739.233 130.4 739.423 130.85C739.613 131.29 739.708 131.85 739.708 132.53V137H737.833V132.62C737.833 132.24 737.783 131.93 737.683 131.69C737.593 131.45 737.448 131.275 737.248 131.165C737.058 131.045 736.813 130.985 736.513 130.985C736.153 130.985 735.838 131.065 735.568 131.225C735.298 131.375 735.088 131.595 734.938 131.885C734.788 132.165 734.713 132.495 734.713 132.875V137H732.838Z" fill="white"/>
<path d="M1018.89 138.725V136.76L1019.23 137.09C1018.5 137.07 1017.81 136.96 1017.16 136.76C1016.52 136.55 1015.97 136.26 1015.5 135.89L1016.08 134.375C1016.39 134.605 1016.72 134.805 1017.07 134.975C1017.43 135.135 1017.81 135.26 1018.2 135.35C1018.6 135.43 1019.02 135.47 1019.47 135.47C1020.2 135.47 1020.74 135.34 1021.08 135.08C1021.42 134.82 1021.59 134.495 1021.59 134.105C1021.59 133.755 1021.47 133.475 1021.24 133.265C1021.01 133.055 1020.6 132.885 1020.01 132.755L1018.42 132.41C1017.52 132.21 1016.84 131.88 1016.38 131.42C1015.93 130.95 1015.71 130.33 1015.71 129.56C1015.71 128.97 1015.85 128.445 1016.14 127.985C1016.43 127.515 1016.84 127.14 1017.36 126.86C1017.88 126.58 1018.49 126.415 1019.19 126.365L1018.89 126.59V124.7H1020.39V126.59L1020.07 126.35C1020.64 126.38 1021.2 126.495 1021.75 126.695C1022.31 126.895 1022.78 127.185 1023.15 127.565L1022.58 129.005C1022.2 128.655 1021.76 128.395 1021.27 128.225C1020.78 128.045 1020.25 127.955 1019.67 127.955C1019.05 127.955 1018.55 128.1 1018.17 128.39C1017.8 128.67 1017.61 129.04 1017.61 129.5C1017.61 129.84 1017.73 130.115 1017.96 130.325C1018.19 130.535 1018.56 130.695 1019.07 130.805L1020.66 131.15C1021.62 131.36 1022.33 131.695 1022.79 132.155C1023.26 132.605 1023.49 133.205 1023.49 133.955C1023.49 134.535 1023.35 135.05 1023.06 135.5C1022.77 135.94 1022.37 136.295 1021.86 136.565C1021.36 136.825 1020.77 136.99 1020.1 137.06L1020.39 136.745V138.725H1018.89ZM1025.62 137V135.41H1028V128.045H1028.93L1026.16 129.725L1025.41 128.315L1028.56 126.425H1029.92V135.41H1032.16V137H1025.62ZM1033.78 137V134.915H1035.88V137H1033.78ZM1040.99 137.15C1040.51 137.15 1040.04 137.1 1039.58 137C1039.13 136.91 1038.71 136.775 1038.32 136.595C1037.93 136.415 1037.59 136.2 1037.3 135.95L1037.93 134.48C1038.4 134.84 1038.88 135.105 1039.37 135.275C1039.86 135.445 1040.38 135.53 1040.93 135.53C1041.37 135.53 1041.74 135.47 1042.04 135.35C1042.34 135.23 1042.56 135.05 1042.71 134.81C1042.87 134.57 1042.95 134.28 1042.95 133.94C1042.95 133.44 1042.78 133.07 1042.44 132.83C1042.11 132.58 1041.63 132.455 1040.99 132.455H1039.29V130.865H1040.81C1041.19 130.865 1041.51 130.805 1041.78 130.685C1042.05 130.555 1042.26 130.375 1042.41 130.145C1042.56 129.915 1042.64 129.635 1042.64 129.305C1042.64 128.845 1042.48 128.495 1042.17 128.255C1041.87 128.015 1041.43 127.895 1040.85 127.895C1040.33 127.895 1039.85 127.985 1039.4 128.165C1038.95 128.335 1038.52 128.605 1038.11 128.975L1037.48 127.535C1037.9 127.135 1038.42 126.825 1039.05 126.605C1039.68 126.385 1040.34 126.275 1041.02 126.275C1041.75 126.275 1042.37 126.39 1042.89 126.62C1043.41 126.84 1043.81 127.16 1044.08 127.58C1044.36 127.99 1044.5 128.49 1044.5 129.08C1044.5 129.71 1044.32 130.255 1043.97 130.715C1043.62 131.165 1043.14 131.465 1042.53 131.615V131.435C1043.01 131.515 1043.42 131.675 1043.76 131.915C1044.1 132.155 1044.36 132.46 1044.54 132.83C1044.72 133.2 1044.81 133.625 1044.81 134.105C1044.81 134.725 1044.66 135.265 1044.35 135.725C1044.04 136.185 1043.6 136.54 1043.03 136.79C1042.46 137.03 1041.78 137.15 1040.99 137.15ZM1046.98 137L1052.09 127.37V128.03H1046.51V126.425H1053.88V127.865L1049.09 137H1046.98ZM1058.39 137V128.03H1054.76V126.425H1063.94V128.03H1060.31V137H1058.39Z" fill="white"/>
<rect y="73" width="1080" height="2" fill="#313338"/>
<defs>
<linearGradient id="paint0_linear_4661_7684" x1="108" y1="299" x2="108" y2="138" gradientUnits="userSpaceOnUse">
<stop stop-color="#181A20"/>
<stop offset="1" stop-color="#6AA5FF"/>
</linearGradient>
<linearGradient id="paint1_linear_4661_7684" x1="419" y1="299" x2="419" y2="136" gradientUnits="userSpaceOnUse">
<stop stop-color="#181A20"/>
<stop offset="1" stop-color="#A06AFF"/>
</linearGradient>
</defs>
</svg>
