<svg width="1260" height="331" viewBox="0 0 1260 331" fill="none" xmlns="http://www.w3.org/2000/svg">
<rect width="1260" height="331" rx="12" fill="#181A20"/>
<path d="M33.552 48.216C31.84 48.216 30.376 47.864 29.16 47.16C27.944 46.456 27.008 45.456 26.352 44.16C25.712 42.848 25.392 41.304 25.392 39.528C25.392 37.752 25.712 36.216 26.352 34.92C27.008 33.624 27.944 32.624 29.16 31.92C30.376 31.216 31.84 30.864 33.552 30.864C34.704 30.864 35.776 31.048 36.768 31.416C37.776 31.768 38.616 32.28 39.288 32.952L38.424 34.944C37.688 34.288 36.928 33.816 36.144 33.528C35.376 33.224 34.536 33.072 33.624 33.072C31.8 33.072 30.408 33.632 29.448 34.752C28.488 35.872 28.008 37.464 28.008 39.528C28.008 41.592 28.488 43.192 29.448 44.328C30.408 45.448 31.8 46.008 33.624 46.008C34.536 46.008 35.376 45.864 36.144 45.576C36.928 45.272 37.688 44.792 38.424 44.136L39.288 46.128C38.616 46.8 37.776 47.32 36.768 47.688C35.776 48.04 34.704 48.216 33.552 48.216ZM44.4908 48V38.232H40.3628V36.288H51.0668V38.232H46.9148V48H44.4908ZM53.0355 52.32V36.288H55.4115V38.928H55.1475C55.4035 38.064 55.9075 37.376 56.6595 36.864C57.4115 36.336 58.2995 36.072 59.3235 36.072C60.3635 36.072 61.2675 36.32 62.0355 36.816C62.8195 37.312 63.4195 38.008 63.8355 38.904C64.2675 39.8 64.4835 40.88 64.4835 42.144C64.4835 43.376 64.2675 44.456 63.8355 45.384C63.4195 46.296 62.8275 47 62.0595 47.496C61.2915 47.976 60.3795 48.216 59.3235 48.216C58.3155 48.216 57.4355 47.96 56.6835 47.448C55.9315 46.936 55.4275 46.256 55.1715 45.408H55.4595V52.32H53.0355ZM58.7235 46.344C59.7315 46.344 60.5315 45.984 61.1235 45.264C61.7315 44.544 62.0355 43.504 62.0355 42.144C62.0355 40.768 61.7315 39.728 61.1235 39.024C60.5315 38.32 59.7315 37.968 58.7235 37.968C57.7315 37.968 56.9315 38.32 56.3235 39.024C55.7155 39.728 55.4115 40.768 55.4115 42.144C55.4115 43.504 55.7155 44.544 56.3235 45.264C56.9315 45.984 57.7315 46.344 58.7235 46.344ZM68.5089 52.32L70.8129 47.184V48.216L65.7009 36.288H68.2929L72.2289 46.008H71.5569L75.5409 36.288H78.0369L71.0529 52.32H68.5089ZM80.0349 48V36.288H82.4589V41.04H84.4269L88.0509 36.288H90.6909L86.3469 42.072L85.7469 41.304C86.1949 41.352 86.5869 41.464 86.9229 41.64C87.2589 41.816 87.5709 42.08 87.8589 42.432C88.1629 42.784 88.4829 43.248 88.8189 43.824L91.2429 48H88.6509L86.6109 44.496C86.3709 44.08 86.1309 43.76 85.8909 43.536C85.6669 43.312 85.4189 43.16 85.1469 43.08C84.8749 42.984 84.5309 42.936 84.1149 42.936H82.4589V48H80.0349ZM95.4673 48V38.232H91.3393V36.288H102.043V38.232H97.8913V48H95.4673ZM105.282 52.32L107.586 47.184V48.216L102.474 36.288H105.066L109.002 46.008H108.33L112.314 36.288H114.81L107.826 52.32H105.282ZM116.832 52.32V36.288H119.208V38.928H118.944C119.2 38.064 119.704 37.376 120.456 36.864C121.208 36.336 122.096 36.072 123.12 36.072C124.16 36.072 125.064 36.32 125.832 36.816C126.616 37.312 127.216 38.008 127.632 38.904C128.064 39.8 128.28 40.88 128.28 42.144C128.28 43.376 128.064 44.456 127.632 45.384C127.216 46.296 126.624 47 125.856 47.496C125.088 47.976 124.176 48.216 123.12 48.216C122.112 48.216 121.232 47.96 120.48 47.448C119.728 46.936 119.224 46.256 118.968 45.408H119.256V52.32H116.832ZM122.52 46.344C123.528 46.344 124.328 45.984 124.92 45.264C125.528 44.544 125.832 43.504 125.832 42.144C125.832 40.768 125.528 39.728 124.92 39.024C124.328 38.32 123.528 37.968 122.52 37.968C121.528 37.968 120.728 38.32 120.12 39.024C119.512 39.728 119.208 40.768 119.208 42.144C119.208 43.504 119.512 44.544 120.12 45.264C120.728 45.984 121.528 46.344 122.52 46.344ZM135.014 48.216C134.198 48.216 133.462 48.056 132.806 47.736C132.166 47.416 131.662 46.984 131.294 46.44C130.926 45.896 130.742 45.28 130.742 44.592C130.742 43.728 130.958 43.048 131.39 42.552C131.838 42.04 132.566 41.68 133.574 41.472C134.598 41.248 135.974 41.136 137.702 41.136H138.83V42.624H137.726C136.862 42.624 136.134 42.656 135.542 42.72C134.95 42.784 134.478 42.888 134.126 43.032C133.774 43.16 133.518 43.344 133.358 43.584C133.214 43.824 133.142 44.112 133.142 44.448C133.142 45.056 133.35 45.552 133.766 45.936C134.182 46.304 134.758 46.488 135.494 46.488C136.086 46.488 136.606 46.352 137.054 46.08C137.502 45.792 137.854 45.408 138.11 44.928C138.382 44.448 138.518 43.896 138.518 43.272V40.512C138.518 39.6 138.326 38.944 137.942 38.544C137.558 38.144 136.926 37.944 136.046 37.944C135.374 37.944 134.702 38.048 134.03 38.256C133.358 38.448 132.67 38.76 131.966 39.192L131.222 37.488C131.638 37.2 132.118 36.952 132.662 36.744C133.206 36.536 133.774 36.376 134.366 36.264C134.974 36.136 135.558 36.072 136.118 36.072C137.19 36.072 138.07 36.24 138.758 36.576C139.462 36.912 139.982 37.424 140.318 38.112C140.654 38.8 140.822 39.688 140.822 40.776V48H138.542V45.384H138.758C138.63 45.976 138.39 46.488 138.038 46.92C137.702 47.336 137.278 47.656 136.766 47.88C136.254 48.104 135.67 48.216 135.014 48.216ZM150.722 48V36.288H153.146V41.04H155.114L158.738 36.288H161.378L157.034 42.072L156.434 41.304C156.882 41.352 157.274 41.464 157.61 41.64C157.946 41.816 158.258 42.08 158.546 42.432C158.85 42.784 159.17 43.248 159.506 43.824L161.93 48H159.338L157.298 44.496C157.058 44.08 156.818 43.76 156.578 43.536C156.354 43.312 156.106 43.16 155.834 43.08C155.562 42.984 155.218 42.936 154.802 42.936H153.146V48H150.722ZM167.475 48.216C166.659 48.216 165.923 48.056 165.267 47.736C164.627 47.416 164.123 46.984 163.755 46.44C163.387 45.896 163.203 45.28 163.203 44.592C163.203 43.728 163.419 43.048 163.851 42.552C164.299 42.04 165.027 41.68 166.035 41.472C167.059 41.248 168.435 41.136 170.163 41.136H171.291V42.624H170.187C169.323 42.624 168.595 42.656 168.003 42.72C167.411 42.784 166.939 42.888 166.587 43.032C166.235 43.16 165.979 43.344 165.819 43.584C165.675 43.824 165.603 44.112 165.603 44.448C165.603 45.056 165.811 45.552 166.227 45.936C166.643 46.304 167.219 46.488 167.955 46.488C168.547 46.488 169.067 46.352 169.515 46.08C169.963 45.792 170.315 45.408 170.571 44.928C170.843 44.448 170.979 43.896 170.979 43.272V40.512C170.979 39.6 170.787 38.944 170.403 38.544C170.019 38.144 169.387 37.944 168.507 37.944C167.835 37.944 167.163 38.048 166.491 38.256C165.819 38.448 165.131 38.76 164.427 39.192L163.683 37.488C164.099 37.2 164.579 36.952 165.123 36.744C165.667 36.536 166.235 36.376 166.827 36.264C167.435 36.136 168.019 36.072 168.579 36.072C169.651 36.072 170.531 36.24 171.219 36.576C171.923 36.912 172.443 37.424 172.779 38.112C173.115 38.8 173.283 39.688 173.283 40.776V48H171.003V45.384H171.219C171.091 45.976 170.851 46.488 170.499 46.92C170.163 47.336 169.739 47.656 169.227 47.88C168.715 48.104 168.131 48.216 167.475 48.216ZM176.879 48V36.288H187.487V48H185.063V38.232H179.303V48H176.879ZM191.105 48V36.288H193.313V45.6H192.689L199.649 36.288H201.689V48H199.481V38.688H200.129L193.145 48H191.105ZM207.78 48V38.232H203.652V36.288H214.356V38.232H210.204V48H207.78ZM220.069 48.216C219.253 48.216 218.517 48.056 217.861 47.736C217.221 47.416 216.717 46.984 216.349 46.44C215.981 45.896 215.797 45.28 215.797 44.592C215.797 43.728 216.013 43.048 216.445 42.552C216.893 42.04 217.621 41.68 218.629 41.472C219.653 41.248 221.029 41.136 222.757 41.136H223.885V42.624H222.781C221.917 42.624 221.189 42.656 220.597 42.72C220.005 42.784 219.533 42.888 219.181 43.032C218.829 43.16 218.573 43.344 218.413 43.584C218.269 43.824 218.197 44.112 218.197 44.448C218.197 45.056 218.405 45.552 218.821 45.936C219.237 46.304 219.813 46.488 220.549 46.488C221.141 46.488 221.661 46.352 222.109 46.08C222.557 45.792 222.909 45.408 223.165 44.928C223.437 44.448 223.573 43.896 223.573 43.272V40.512C223.573 39.6 223.381 38.944 222.997 38.544C222.613 38.144 221.981 37.944 221.101 37.944C220.429 37.944 219.757 38.048 219.085 38.256C218.413 38.448 217.725 38.76 217.021 39.192L216.277 37.488C216.693 37.2 217.173 36.952 217.717 36.744C218.261 36.536 218.829 36.376 219.421 36.264C220.029 36.136 220.613 36.072 221.173 36.072C222.245 36.072 223.125 36.24 223.813 36.576C224.517 36.912 225.037 37.424 225.373 38.112C225.709 38.8 225.877 39.688 225.877 40.776V48H223.597V45.384H223.813C223.685 45.976 223.445 46.488 223.093 46.92C222.757 47.336 222.333 47.656 221.821 47.88C221.309 48.104 220.725 48.216 220.069 48.216ZM228.968 48.312L228.152 46.392C228.68 46.184 229.12 45.912 229.472 45.576C229.84 45.24 230.128 44.816 230.336 44.304C230.544 43.776 230.696 43.128 230.792 42.36C230.888 41.592 230.936 40.664 230.936 39.576V36.288H239.864V48H237.44V38.232H233.192V39.648C233.192 40.976 233.112 42.136 232.952 43.128C232.792 44.104 232.544 44.936 232.208 45.624C231.872 46.312 231.432 46.872 230.888 47.304C230.36 47.736 229.72 48.072 228.968 48.312ZM247.28 48.216C246.464 48.216 245.728 48.056 245.072 47.736C244.432 47.416 243.928 46.984 243.56 46.44C243.192 45.896 243.008 45.28 243.008 44.592C243.008 43.728 243.224 43.048 243.656 42.552C244.104 42.04 244.832 41.68 245.84 41.472C246.864 41.248 248.24 41.136 249.968 41.136H251.096V42.624H249.992C249.128 42.624 248.4 42.656 247.808 42.72C247.216 42.784 246.744 42.888 246.392 43.032C246.04 43.16 245.784 43.344 245.624 43.584C245.48 43.824 245.408 44.112 245.408 44.448C245.408 45.056 245.616 45.552 246.032 45.936C246.448 46.304 247.024 46.488 247.76 46.488C248.352 46.488 248.872 46.352 249.32 46.08C249.768 45.792 250.12 45.408 250.376 44.928C250.648 44.448 250.784 43.896 250.784 43.272V40.512C250.784 39.6 250.592 38.944 250.208 38.544C249.824 38.144 249.192 37.944 248.312 37.944C247.64 37.944 246.968 38.048 246.296 38.256C245.624 38.448 244.936 38.76 244.232 39.192L243.488 37.488C243.904 37.2 244.384 36.952 244.928 36.744C245.472 36.536 246.04 36.376 246.632 36.264C247.24 36.136 247.824 36.072 248.384 36.072C249.456 36.072 250.336 36.24 251.024 36.576C251.728 36.912 252.248 37.424 252.584 38.112C252.92 38.8 253.088 39.688 253.088 40.776V48H250.808V45.384H251.024C250.896 45.976 250.656 46.488 250.304 46.92C249.968 47.336 249.544 47.656 249.032 47.88C248.52 48.104 247.936 48.216 247.28 48.216Z" fill="white"/>
<rect x="131" y="301" width="2" height="6" fill="white" fill-opacity="0.16"/>
<rect x="505" y="301" width="2" height="6" fill="white" fill-opacity="0.16"/>
<rect x="24" y="299" width="590" height="2" fill="white" fill-opacity="0.16"/>
<rect x="24" y="249" width="590" height="2" fill="white" fill-opacity="0.04"/>
<rect x="24" y="199" width="590" height="2" fill="white" fill-opacity="0.04"/>
<rect x="24" y="149" width="590" height="2" fill="white" fill-opacity="0.04"/>
<rect x="24" y="99" width="590" height="2" fill="white" fill-opacity="0.04"/>
<line x1="348" y1="137" x2="497" y2="137" stroke="white" stroke-opacity="0.16" stroke-width="2" stroke-dasharray="4 4"/>
<line x1="140" y1="129" x2="289" y2="129" stroke="white" stroke-opacity="0.16" stroke-width="2" stroke-dasharray="4 4"/>
<rect x="283" y="128" width="72" height="10" rx="5" fill="#EF454A"/>
<path d="M96 146C96 141.582 99.5817 138 104 138H160C164.418 138 168 141.582 168 146V299H96V146Z" fill="#2EBD85"/>
<path d="M470 144C470 139.582 473.582 136 478 136H534C538.418 136 542 139.582 542 144V299H470V144Z" fill="#A06AFF"/>
<rect x="96" y="128" width="72" height="5" rx="2.5" fill="#6AA5FF"/>
<rect width="72" height="5" rx="2.5" transform="matrix(1 0 0 -1 96 138)" fill="#FFA800"/>
<rect x="686" y="250" width="590" height="1" fill="white" fill-opacity="0.16"/>
<circle cx="692" cy="273" r="6" fill="#A06AFF"/>
<path d="M715.97 278.135C714.9 278.135 713.985 277.915 713.225 277.475C712.465 277.035 711.88 276.41 711.47 275.6C711.07 274.78 710.87 273.815 710.87 272.705C710.87 271.595 711.07 270.635 711.47 269.825C711.88 269.015 712.465 268.39 713.225 267.95C713.985 267.51 714.9 267.29 715.97 267.29C716.69 267.29 717.36 267.405 717.98 267.635C718.61 267.855 719.135 268.175 719.555 268.595L719.015 269.84C718.555 269.43 718.08 269.135 717.59 268.955C717.11 268.765 716.585 268.67 716.015 268.67C714.875 268.67 714.005 269.02 713.405 269.72C712.805 270.42 712.505 271.415 712.505 272.705C712.505 273.995 712.805 274.995 713.405 275.705C714.005 276.405 714.875 276.755 716.015 276.755C716.585 276.755 717.11 276.665 717.59 276.485C718.08 276.295 718.555 275.995 719.015 275.585L719.555 276.83C719.135 277.25 718.61 277.575 717.98 277.805C717.36 278.025 716.69 278.135 715.97 278.135ZM722.807 278V271.895H720.227V270.68H726.917V271.895H724.322V278H722.807ZM731.283 278.135C730.543 278.135 729.903 277.98 729.363 277.67C728.833 277.36 728.418 276.92 728.118 276.35C727.818 275.78 727.668 275.11 727.668 274.34C727.668 273.56 727.818 272.89 728.118 272.33C728.418 271.76 728.833 271.32 729.363 271.01C729.903 270.7 730.543 270.545 731.283 270.545C732.013 270.545 732.643 270.7 733.173 271.01C733.713 271.32 734.133 271.76 734.433 272.33C734.733 272.9 734.883 273.57 734.883 274.34C734.883 275.11 734.733 275.78 734.433 276.35C734.133 276.92 733.713 277.36 733.173 277.67C732.643 277.98 732.013 278.135 731.283 278.135ZM731.268 276.965C731.898 276.965 732.403 276.74 732.783 276.29C733.163 275.84 733.353 275.19 733.353 274.34C733.353 273.48 733.163 272.83 732.783 272.39C732.403 271.95 731.898 271.73 731.268 271.73C730.648 271.73 730.148 271.95 729.768 272.39C729.388 272.83 729.198 273.48 729.198 274.34C729.198 275.19 729.388 275.84 729.768 276.29C730.148 276.74 730.648 276.965 731.268 276.965ZM736.745 278V270.68H738.125V276.5H737.735L742.085 270.68H743.36V278H741.98V272.18H742.385L738.02 278H736.745ZM745.637 278V270.68H746.882L749.537 275.315L752.177 270.68H753.422V278H752.087V272.435H752.432L749.897 276.815H749.162L746.627 272.435H746.972V278H745.637ZM758.896 278.135C758.156 278.135 757.516 277.98 756.976 277.67C756.446 277.36 756.031 276.92 755.731 276.35C755.431 275.78 755.281 275.11 755.281 274.34C755.281 273.56 755.431 272.89 755.731 272.33C756.031 271.76 756.446 271.32 756.976 271.01C757.516 270.7 758.156 270.545 758.896 270.545C759.626 270.545 760.256 270.7 760.786 271.01C761.326 271.32 761.746 271.76 762.046 272.33C762.346 272.9 762.496 273.57 762.496 274.34C762.496 275.11 762.346 275.78 762.046 276.35C761.746 276.92 761.326 277.36 760.786 277.67C760.256 277.98 759.626 278.135 758.896 278.135ZM758.881 276.965C759.511 276.965 760.016 276.74 760.396 276.29C760.776 275.84 760.966 275.19 760.966 274.34C760.966 273.48 760.776 272.83 760.396 272.39C760.016 271.95 759.511 271.73 758.881 271.73C758.261 271.73 757.761 271.95 757.381 272.39C757.001 272.83 756.811 273.48 756.811 274.34C756.811 275.19 757.001 275.84 757.381 276.29C757.761 276.74 758.261 276.965 758.881 276.965ZM767.598 278.135C766.848 278.135 766.198 277.98 765.648 277.67C765.108 277.35 764.688 276.905 764.388 276.335C764.088 275.755 763.938 275.075 763.938 274.295C763.938 273.525 764.088 272.86 764.388 272.3C764.688 271.74 765.108 271.31 765.648 271.01C766.198 270.7 766.848 270.545 767.598 270.545C768.058 270.545 768.513 270.625 768.963 270.785C769.413 270.935 769.783 271.155 770.073 271.445L769.593 272.51C769.323 272.25 769.018 272.06 768.678 271.94C768.338 271.81 768.018 271.745 767.718 271.745C767.008 271.745 766.458 271.97 766.068 272.42C765.688 272.86 765.498 273.49 765.498 274.31C765.498 275.13 765.688 275.775 766.068 276.245C766.458 276.705 767.008 276.935 767.718 276.935C768.018 276.935 768.338 276.875 768.678 276.755C769.018 276.625 769.323 276.43 769.593 276.17L770.073 277.25C769.783 277.52 769.408 277.735 768.948 277.895C768.498 278.055 768.048 278.135 767.598 278.135ZM773.066 278V271.895H770.486V270.68H777.176V271.895H774.581V278H773.066ZM778.391 278V270.68H779.906V273.215H781.991C782.931 273.215 783.646 273.42 784.136 273.83C784.626 274.23 784.871 274.815 784.871 275.585C784.871 276.075 784.756 276.505 784.526 276.875C784.296 277.235 783.966 277.515 783.536 277.715C783.106 277.905 782.591 278 781.991 278H778.391ZM779.906 276.965H781.796C782.316 276.965 782.721 276.855 783.011 276.635C783.301 276.405 783.446 276.055 783.446 275.585C783.446 275.125 783.301 274.79 783.011 274.58C782.721 274.36 782.316 274.25 781.796 274.25H779.906V276.965ZM790.491 278V270.68H792.006V273.65H793.236L795.501 270.68H797.151L794.436 274.295L794.061 273.815C794.341 273.845 794.586 273.915 794.796 274.025C795.006 274.135 795.201 274.3 795.381 274.52C795.571 274.74 795.771 275.03 795.981 275.39L797.496 278H795.876L794.601 275.81C794.451 275.55 794.301 275.35 794.151 275.21C794.011 275.07 793.856 274.975 793.686 274.925C793.516 274.865 793.301 274.835 793.041 274.835H792.006V278H790.491ZM801.801 278.135C801.061 278.135 800.421 277.98 799.881 277.67C799.351 277.36 798.936 276.92 798.636 276.35C798.336 275.78 798.186 275.11 798.186 274.34C798.186 273.56 798.336 272.89 798.636 272.33C798.936 271.76 799.351 271.32 799.881 271.01C800.421 270.7 801.061 270.545 801.801 270.545C802.531 270.545 803.161 270.7 803.691 271.01C804.231 271.32 804.651 271.76 804.951 272.33C805.251 272.9 805.401 273.57 805.401 274.34C805.401 275.11 805.251 275.78 804.951 276.35C804.651 276.92 804.231 277.36 803.691 277.67C803.161 277.98 802.531 278.135 801.801 278.135ZM801.786 276.965C802.416 276.965 802.921 276.74 803.301 276.29C803.681 275.84 803.871 275.19 803.871 274.34C803.871 273.48 803.681 272.83 803.301 272.39C802.921 271.95 802.416 271.73 801.786 271.73C801.166 271.73 800.666 271.95 800.286 272.39C799.906 272.83 799.716 273.48 799.716 274.34C799.716 275.19 799.906 275.84 800.286 276.29C800.666 276.74 801.166 276.965 801.786 276.965ZM807.263 278V270.68H808.508L811.163 275.315L813.803 270.68H815.048V278H813.713V272.435H814.058L811.523 276.815H810.788L808.253 272.435H808.598V278H807.263ZM817.327 278V270.68H823.957V278H822.442V271.895H818.842V278H817.327ZM828.573 278.135C828.063 278.135 827.603 278.035 827.193 277.835C826.793 277.635 826.478 277.365 826.248 277.025C826.018 276.685 825.903 276.3 825.903 275.87C825.903 275.33 826.038 274.905 826.308 274.595C826.588 274.275 827.043 274.05 827.673 273.92C828.313 273.78 829.173 273.71 830.253 273.71H830.958V274.64H830.268C829.728 274.64 829.273 274.66 828.903 274.7C828.533 274.74 828.238 274.805 828.018 274.895C827.798 274.975 827.638 275.09 827.538 275.24C827.448 275.39 827.403 275.57 827.403 275.78C827.403 276.16 827.533 276.47 827.793 276.71C828.053 276.94 828.413 277.055 828.873 277.055C829.243 277.055 829.568 276.97 829.848 276.8C830.128 276.62 830.348 276.38 830.508 276.08C830.678 275.78 830.763 275.435 830.763 275.045V273.32C830.763 272.75 830.643 272.34 830.403 272.09C830.163 271.84 829.768 271.715 829.218 271.715C828.798 271.715 828.378 271.78 827.958 271.91C827.538 272.03 827.108 272.225 826.668 272.495L826.203 271.43C826.463 271.25 826.763 271.095 827.103 270.965C827.443 270.835 827.798 270.735 828.168 270.665C828.548 270.585 828.913 270.545 829.263 270.545C829.933 270.545 830.483 270.65 830.913 270.86C831.353 271.07 831.678 271.39 831.888 271.82C832.098 272.25 832.203 272.805 832.203 273.485V278H830.778V276.365H830.913C830.833 276.735 830.683 277.055 830.463 277.325C830.253 277.585 829.988 277.785 829.668 277.925C829.348 278.065 828.983 278.135 828.573 278.135ZM834.451 278V270.68H835.966V273.635H839.611V270.68H841.126V278H839.611V274.835H835.966V278H834.451ZM843.386 278V270.68H844.766V276.5H844.376L848.726 270.68H850.001V278H848.621V272.18H849.026L844.661 278H843.386ZM852.278 278V270.68H853.658V276.5H853.268L857.618 270.68H858.893V278H857.513V272.18H857.918L853.553 278H852.278Z" fill="white"/>
<path d="M1225.11 278V276.695H1227.51V268.745H1228.29L1225.63 270.395L1225 269.24L1227.96 267.425H1229.05V276.695H1231.3V278H1225.11ZM1233.23 278V276.215H1235.02V278H1233.23ZM1240.24 278.135C1239.77 278.135 1239.31 278.09 1238.86 278C1238.42 277.9 1238.01 277.76 1237.62 277.58C1237.24 277.39 1236.9 277.165 1236.61 276.905L1237.15 275.705C1237.62 276.085 1238.11 276.365 1238.61 276.545C1239.11 276.725 1239.64 276.815 1240.2 276.815C1240.68 276.815 1241.08 276.745 1241.41 276.605C1241.74 276.465 1241.99 276.26 1242.15 275.99C1242.32 275.72 1242.4 275.395 1242.4 275.015C1242.4 274.445 1242.21 274.02 1241.83 273.74C1241.46 273.45 1240.92 273.305 1240.21 273.305H1238.58V272H1240.06C1240.49 272 1240.86 271.93 1241.16 271.79C1241.46 271.64 1241.69 271.435 1241.85 271.175C1242.02 270.905 1242.1 270.58 1242.1 270.2C1242.1 269.69 1241.93 269.3 1241.59 269.03C1241.26 268.75 1240.78 268.61 1240.14 268.61C1239.6 268.61 1239.1 268.705 1238.64 268.895C1238.18 269.085 1237.74 269.375 1237.33 269.765L1236.79 268.58C1237.2 268.17 1237.71 267.855 1238.32 267.635C1238.94 267.405 1239.59 267.29 1240.26 267.29C1240.96 267.29 1241.56 267.4 1242.06 267.62C1242.57 267.84 1242.95 268.155 1243.21 268.565C1243.48 268.975 1243.62 269.465 1243.62 270.035C1243.62 270.675 1243.44 271.23 1243.08 271.7C1242.73 272.16 1242.24 272.465 1241.62 272.615V272.45C1242.11 272.53 1242.53 272.69 1242.87 272.93C1243.21 273.17 1243.47 273.475 1243.65 273.845C1243.83 274.215 1243.92 274.64 1243.92 275.12C1243.92 275.74 1243.77 276.28 1243.47 276.74C1243.18 277.19 1242.76 277.535 1242.21 277.775C1241.66 278.015 1241 278.135 1240.24 278.135ZM1249.57 278.135C1249.11 278.135 1248.66 278.085 1248.22 277.985C1247.79 277.885 1247.38 277.745 1247 277.565C1246.62 277.385 1246.29 277.165 1246.01 276.905L1246.54 275.705C1247.02 276.085 1247.5 276.365 1247.99 276.545C1248.48 276.725 1249 276.815 1249.54 276.815C1250.23 276.815 1250.77 276.63 1251.16 276.26C1251.55 275.89 1251.74 275.395 1251.74 274.775C1251.74 274.145 1251.56 273.63 1251.19 273.23C1250.82 272.83 1250.3 272.63 1249.64 272.63C1249.17 272.63 1248.75 272.725 1248.38 272.915C1248.02 273.105 1247.7 273.395 1247.41 273.785H1246.33V267.425H1252.63V268.73H1247.84V272.54H1247.42C1247.69 272.16 1248.05 271.865 1248.49 271.655C1248.94 271.445 1249.43 271.34 1249.97 271.34C1250.64 271.34 1251.22 271.48 1251.71 271.76C1252.2 272.04 1252.58 272.435 1252.85 272.945C1253.12 273.445 1253.26 274.03 1253.26 274.7C1253.26 275.38 1253.11 275.98 1252.81 276.5C1252.51 277.01 1252.08 277.41 1251.53 277.7C1250.98 277.99 1250.33 278.135 1249.57 278.135ZM1257.71 278V268.73H1253.96V267.425H1263V268.73H1259.25V278H1257.71ZM1268.61 278V275.84H1267.28V274.745H1268.61V273.53H1267.28V272.435H1268.61V267.425H1272.12C1272.88 267.425 1273.53 267.555 1274.06 267.815C1274.59 268.065 1274.99 268.42 1275.26 268.88C1275.53 269.34 1275.66 269.89 1275.66 270.53C1275.66 271.14 1275.52 271.67 1275.24 272.12C1274.96 272.56 1274.57 272.905 1274.06 273.155C1273.55 273.405 1272.94 273.53 1272.23 273.53H1270.19V274.745H1272.71V275.84H1270.19V278H1268.61ZM1270.16 272.435H1271.97C1272.68 272.435 1273.22 272.29 1273.59 272C1273.97 271.7 1274.16 271.24 1274.16 270.62C1274.16 269.99 1273.98 269.52 1273.61 269.21C1273.24 268.9 1272.69 268.745 1271.96 268.745H1270.16V272.435Z" fill="white"/>
<circle cx="692" cy="228" r="6" fill="#EF454A"/>
<path d="M710.225 235.415V231.74H711.275C711.615 231.32 711.89 230.805 712.1 230.195C712.32 229.575 712.48 228.85 712.58 228.02C712.69 227.18 712.745 226.23 712.745 225.17V222.425H719.975V231.74H721.475V235.415H720.095V233H711.62V235.415H710.225ZM712.865 231.74H718.43V223.685H714.2V225.29C714.2 226.32 714.15 227.235 714.05 228.035C713.96 228.825 713.815 229.525 713.615 230.135C713.415 230.745 713.165 231.28 712.865 231.74ZM726.411 233.135C725.611 233.135 724.921 232.985 724.341 232.685C723.771 232.375 723.326 231.94 723.006 231.38C722.696 230.81 722.541 230.135 722.541 229.355C722.541 228.595 722.696 227.93 723.006 227.36C723.316 226.79 723.741 226.345 724.281 226.025C724.821 225.705 725.436 225.545 726.126 225.545C726.806 225.545 727.386 225.695 727.866 225.995C728.356 226.285 728.731 226.7 728.991 227.24C729.251 227.78 729.381 228.425 729.381 229.175V229.685H723.741V228.755H728.361L728.106 228.965C728.106 228.215 727.941 227.635 727.611 227.225C727.281 226.815 726.806 226.61 726.186 226.61C725.716 226.61 725.316 226.72 724.986 226.94C724.666 227.16 724.421 227.465 724.251 227.855C724.081 228.245 723.996 228.7 723.996 229.22V229.31C723.996 229.89 724.086 230.38 724.266 230.78C724.456 231.17 724.731 231.465 725.091 231.665C725.451 231.865 725.896 231.965 726.426 231.965C726.846 231.965 727.256 231.9 727.656 231.77C728.066 231.63 728.451 231.415 728.811 231.125L729.261 232.175C728.931 232.475 728.506 232.71 727.986 232.88C727.466 233.05 726.941 233.135 726.411 233.135ZM731.179 233V225.68H732.694V228.635H736.339V225.68H737.854V233H736.339V229.835H732.694V233H731.179ZM743.565 233.135C742.765 233.135 742.075 232.985 741.495 232.685C740.925 232.375 740.48 231.94 740.16 231.38C739.85 230.81 739.695 230.135 739.695 229.355C739.695 228.595 739.85 227.93 740.16 227.36C740.47 226.79 740.895 226.345 741.435 226.025C741.975 225.705 742.59 225.545 743.28 225.545C743.96 225.545 744.54 225.695 745.02 225.995C745.51 226.285 745.885 226.7 746.145 227.24C746.405 227.78 746.535 228.425 746.535 229.175V229.685H740.895V228.755H745.515L745.26 228.965C745.26 228.215 745.095 227.635 744.765 227.225C744.435 226.815 743.96 226.61 743.34 226.61C742.87 226.61 742.47 226.72 742.14 226.94C741.82 227.16 741.575 227.465 741.405 227.855C741.235 228.245 741.15 228.7 741.15 229.22V229.31C741.15 229.89 741.24 230.38 741.42 230.78C741.61 231.17 741.885 231.465 742.245 231.665C742.605 231.865 743.05 231.965 743.58 231.965C744 231.965 744.41 231.9 744.81 231.77C745.22 231.63 745.605 231.415 745.965 231.125L746.415 232.175C746.085 232.475 745.66 232.71 745.14 232.88C744.62 233.05 744.095 233.135 743.565 233.135ZM747.162 233L748.677 230.39C748.887 230.03 749.082 229.74 749.262 229.52C749.452 229.3 749.652 229.135 749.862 229.025C750.082 228.915 750.327 228.845 750.597 228.815L750.267 229.295L747.507 225.68H749.157L751.422 228.65H752.472V225.68H753.987V228.65H755.022L757.287 225.68H758.922L756.177 229.295L755.847 228.815C756.117 228.845 756.357 228.915 756.567 229.025C756.777 229.135 756.977 229.3 757.167 229.52C757.367 229.74 757.567 230.03 757.767 230.39L759.282 233H757.662L756.387 230.81C756.237 230.55 756.087 230.35 755.937 230.21C755.797 230.07 755.642 229.975 755.472 229.925C755.302 229.865 755.092 229.835 754.842 229.835H753.987V233H752.472V229.835H751.617C751.357 229.835 751.142 229.865 750.972 229.925C750.802 229.975 750.647 230.07 750.507 230.21C750.367 230.35 750.217 230.55 750.057 230.81L748.782 233H747.162ZM760.373 233V225.68H761.888V228.635H765.533V225.68H767.048V233H765.533V229.835H761.888V233H760.373ZM769.309 233V225.68H770.824V228.215H772.909C773.849 228.215 774.564 228.42 775.054 228.83C775.544 229.23 775.789 229.815 775.789 230.585C775.789 231.075 775.674 231.505 775.444 231.875C775.214 232.235 774.884 232.515 774.454 232.715C774.024 232.905 773.509 233 772.909 233H769.309ZM770.824 231.965H772.714C773.234 231.965 773.639 231.855 773.929 231.635C774.219 231.405 774.364 231.055 774.364 230.585C774.364 230.125 774.219 229.79 773.929 229.58C773.639 229.36 773.234 229.25 772.714 229.25H770.824V231.965ZM776.779 233V225.68H778.294V233H776.779ZM784.024 233.135C783.224 233.135 782.534 232.985 781.954 232.685C781.384 232.375 780.939 231.94 780.619 231.38C780.309 230.81 780.154 230.135 780.154 229.355C780.154 228.595 780.309 227.93 780.619 227.36C780.929 226.79 781.354 226.345 781.894 226.025C782.434 225.705 783.049 225.545 783.739 225.545C784.419 225.545 784.999 225.695 785.479 225.995C785.969 226.285 786.344 226.7 786.604 227.24C786.864 227.78 786.994 228.425 786.994 229.175V229.685H781.354V228.755H785.974L785.719 228.965C785.719 228.215 785.554 227.635 785.224 227.225C784.894 226.815 784.419 226.61 783.799 226.61C783.329 226.61 782.929 226.72 782.599 226.94C782.279 227.16 782.034 227.465 781.864 227.855C781.694 228.245 781.609 228.7 781.609 229.22V229.31C781.609 229.89 781.699 230.38 781.879 230.78C782.069 231.17 782.344 231.465 782.704 231.665C783.064 231.865 783.509 231.965 784.039 231.965C784.459 231.965 784.869 231.9 785.269 231.77C785.679 231.63 786.064 231.415 786.424 231.125L786.874 232.175C786.544 232.475 786.119 232.71 785.599 232.88C785.079 233.05 784.554 233.135 784.024 233.135ZM795.972 233.135C795.222 233.135 794.572 232.98 794.022 232.67C793.482 232.35 793.062 231.905 792.762 231.335C792.462 230.755 792.312 230.075 792.312 229.295C792.312 228.525 792.462 227.86 792.762 227.3C793.062 226.74 793.482 226.31 794.022 226.01C794.572 225.7 795.222 225.545 795.972 225.545C796.432 225.545 796.887 225.625 797.337 225.785C797.787 225.935 798.157 226.155 798.447 226.445L797.967 227.51C797.697 227.25 797.392 227.06 797.052 226.94C796.712 226.81 796.392 226.745 796.092 226.745C795.382 226.745 794.832 226.97 794.442 227.42C794.062 227.86 793.872 228.49 793.872 229.31C793.872 230.13 794.062 230.775 794.442 231.245C794.832 231.705 795.382 231.935 796.092 231.935C796.392 231.935 796.712 231.875 797.052 231.755C797.392 231.625 797.697 231.43 797.967 231.17L798.447 232.25C798.157 232.52 797.782 232.735 797.322 232.895C796.872 233.055 796.422 233.135 795.972 233.135ZM799.925 235.7V225.68H801.41V227.33H801.245C801.405 226.79 801.72 226.36 802.19 226.04C802.66 225.71 803.215 225.545 803.855 225.545C804.505 225.545 805.07 225.7 805.55 226.01C806.04 226.32 806.415 226.755 806.675 227.315C806.945 227.875 807.08 228.55 807.08 229.34C807.08 230.11 806.945 230.785 806.675 231.365C806.415 231.935 806.045 232.375 805.565 232.685C805.085 232.985 804.515 233.135 803.855 233.135C803.225 233.135 802.675 232.975 802.205 232.655C801.735 232.335 801.42 231.91 801.26 231.38H801.44V235.7H799.925ZM803.48 231.965C804.11 231.965 804.61 231.74 804.98 231.29C805.36 230.84 805.55 230.19 805.55 229.34C805.55 228.48 805.36 227.83 804.98 227.39C804.61 226.95 804.11 226.73 803.48 226.73C802.86 226.73 802.36 226.95 801.98 227.39C801.6 227.83 801.41 228.48 801.41 229.34C801.41 230.19 801.6 230.84 801.98 231.29C802.36 231.74 802.86 231.965 803.48 231.965ZM812.383 233.135C811.583 233.135 810.893 232.985 810.313 232.685C809.743 232.375 809.298 231.94 808.978 231.38C808.668 230.81 808.513 230.135 808.513 229.355C808.513 228.595 808.668 227.93 808.978 227.36C809.288 226.79 809.713 226.345 810.253 226.025C810.793 225.705 811.408 225.545 812.098 225.545C812.778 225.545 813.358 225.695 813.838 225.995C814.328 226.285 814.703 226.7 814.963 227.24C815.223 227.78 815.353 228.425 815.353 229.175V229.685H809.713V228.755H814.333L814.078 228.965C814.078 228.215 813.913 227.635 813.583 227.225C813.253 226.815 812.778 226.61 812.158 226.61C811.688 226.61 811.288 226.72 810.958 226.94C810.638 227.16 810.393 227.465 810.223 227.855C810.053 228.245 809.968 228.7 809.968 229.22V229.31C809.968 229.89 810.058 230.38 810.238 230.78C810.428 231.17 810.703 231.465 811.063 231.665C811.423 231.865 811.868 231.965 812.398 231.965C812.818 231.965 813.228 231.9 813.628 231.77C814.038 231.63 814.423 231.415 814.783 231.125L815.233 232.175C814.903 232.475 814.478 232.71 813.958 232.88C813.438 233.05 812.913 233.135 812.383 233.135ZM816.401 234.95V231.8H817.211C817.431 231.47 817.606 231.115 817.736 230.735C817.866 230.355 817.961 229.925 818.021 229.445C818.081 228.965 818.111 228.42 818.111 227.81V225.68H823.526V231.8H824.696V234.95H823.406V233H817.706V234.95H816.401ZM818.621 231.8H822.086V226.865H819.431V228.125C819.431 228.815 819.361 229.485 819.221 230.135C819.081 230.785 818.881 231.34 818.621 231.8ZM829.443 233.135C828.693 233.135 828.043 232.98 827.493 232.67C826.953 232.35 826.533 231.905 826.233 231.335C825.933 230.755 825.783 230.075 825.783 229.295C825.783 228.525 825.933 227.86 826.233 227.3C826.533 226.74 826.953 226.31 827.493 226.01C828.043 225.7 828.693 225.545 829.443 225.545C829.903 225.545 830.358 225.625 830.808 225.785C831.258 225.935 831.628 226.155 831.918 226.445L831.438 227.51C831.168 227.25 830.863 227.06 830.523 226.94C830.183 226.81 829.863 226.745 829.563 226.745C828.853 226.745 828.303 226.97 827.913 227.42C827.533 227.86 827.343 228.49 827.343 229.31C827.343 230.13 827.533 230.775 827.913 231.245C828.303 231.705 828.853 231.935 829.563 231.935C829.863 231.935 830.183 231.875 830.523 231.755C830.863 231.625 831.168 231.43 831.438 231.17L831.918 232.25C831.628 232.52 831.253 232.735 830.793 232.895C830.343 233.055 829.893 233.135 829.443 233.135ZM834.911 233V226.895H832.331V225.68H839.021V226.895H836.426V233H834.911ZM840.237 233V225.68H843.972C844.572 225.68 845.062 225.755 845.442 225.905C845.832 226.055 846.117 226.275 846.297 226.565C846.477 226.845 846.567 227.19 846.567 227.6C846.567 228.07 846.407 228.465 846.087 228.785C845.767 229.095 845.347 229.28 844.827 229.34V229.145C845.247 229.155 845.602 229.24 845.892 229.4C846.192 229.56 846.417 229.775 846.567 230.045C846.727 230.305 846.807 230.61 846.807 230.96C846.807 231.59 846.572 232.09 846.102 232.46C845.632 232.82 844.962 233 844.092 233H840.237ZM841.662 232.025H844.002C844.452 232.025 844.797 231.93 845.037 231.74C845.287 231.54 845.412 231.255 845.412 230.885C845.412 230.515 845.287 230.235 845.037 230.045C844.797 229.855 844.452 229.76 844.002 229.76H841.662V232.025ZM841.662 228.785H843.867C844.277 228.785 844.592 228.69 844.812 228.5C845.042 228.31 845.157 228.05 845.157 227.72C845.157 227.38 845.042 227.12 844.812 226.94C844.592 226.76 844.277 226.67 843.867 226.67H841.662V228.785ZM850.927 233.135C850.417 233.135 849.957 233.035 849.547 232.835C849.147 232.635 848.832 232.365 848.602 232.025C848.372 231.685 848.257 231.3 848.257 230.87C848.257 230.33 848.392 229.905 848.662 229.595C848.942 229.275 849.397 229.05 850.027 228.92C850.667 228.78 851.527 228.71 852.607 228.71H853.312V229.64H852.622C852.082 229.64 851.627 229.66 851.257 229.7C850.887 229.74 850.592 229.805 850.372 229.895C850.152 229.975 849.992 230.09 849.892 230.24C849.802 230.39 849.757 230.57 849.757 230.78C849.757 231.16 849.887 231.47 850.147 231.71C850.407 231.94 850.767 232.055 851.227 232.055C851.597 232.055 851.922 231.97 852.202 231.8C852.482 231.62 852.702 231.38 852.862 231.08C853.032 230.78 853.117 230.435 853.117 230.045V228.32C853.117 227.75 852.997 227.34 852.757 227.09C852.517 226.84 852.122 226.715 851.572 226.715C851.152 226.715 850.732 226.78 850.312 226.91C849.892 227.03 849.462 227.225 849.022 227.495L848.557 226.43C848.817 226.25 849.117 226.095 849.457 225.965C849.797 225.835 850.152 225.735 850.522 225.665C850.902 225.585 851.267 225.545 851.617 225.545C852.287 225.545 852.837 225.65 853.267 225.86C853.707 226.07 854.032 226.39 854.242 226.82C854.452 227.25 854.557 227.805 854.557 228.485V233H853.132V231.365H853.267C853.187 231.735 853.037 232.055 852.817 232.325C852.607 232.585 852.342 232.785 852.022 232.925C851.702 233.065 851.337 233.135 850.927 233.135ZM860.744 233V225.68H862.124V231.5H861.734L866.084 225.68H867.359V233H865.979V227.18H866.384L862.019 233H860.744ZM873.577 233V225.68H874.957V231.5H874.567L878.917 225.68H880.192V233H878.812V227.18H879.217L874.852 233H873.577ZM881.508 233L884.853 228.845V229.595L881.703 225.68H883.473L885.708 228.53H885.168L887.403 225.68H889.173L886.023 229.565V228.89L889.368 233H887.568L885.168 229.97H885.678L883.293 233H881.508ZM896.517 233.135C896.177 233.135 895.832 233.1 895.482 233.03C895.142 232.96 894.822 232.855 894.522 232.715C894.232 232.575 893.997 232.41 893.817 232.22L894.282 231.215C894.572 231.475 894.907 231.675 895.287 231.815C895.677 231.955 896.057 232.025 896.427 232.025C896.907 232.025 897.317 231.93 897.657 231.74C898.007 231.54 898.282 231.255 898.482 230.885C898.682 230.505 898.792 230.055 898.812 229.535L898.962 229.85H895.212V228.74H898.962L898.812 228.98C898.772 228.54 898.662 228.145 898.482 227.795C898.302 227.445 898.042 227.17 897.702 226.97C897.372 226.77 896.947 226.67 896.427 226.67C896.067 226.67 895.692 226.735 895.302 226.865C894.912 226.995 894.572 227.195 894.282 227.465L893.817 226.46C894.127 226.17 894.532 225.945 895.032 225.785C895.532 225.625 896.032 225.545 896.532 225.545C897.292 225.545 897.947 225.7 898.497 226.01C899.057 226.31 899.487 226.74 899.787 227.3C900.087 227.86 900.237 228.525 900.237 229.295C900.237 230.085 900.087 230.765 899.787 231.335C899.487 231.905 899.057 232.35 898.497 232.67C897.947 232.98 897.287 233.135 896.517 233.135ZM902.097 233V225.68H903.612V228.65H904.842L907.107 225.68H908.757L906.042 229.295L905.667 228.815C905.947 228.845 906.192 228.915 906.402 229.025C906.612 229.135 906.807 229.3 906.987 229.52C907.177 229.74 907.377 230.03 907.587 230.39L909.102 233H907.482L906.207 230.81C906.057 230.55 905.907 230.35 905.757 230.21C905.617 230.07 905.462 229.975 905.292 229.925C905.122 229.865 904.907 229.835 904.647 229.835H903.612V233H902.097ZM910.212 233V225.68H913.947C914.547 225.68 915.037 225.755 915.417 225.905C915.807 226.055 916.092 226.275 916.272 226.565C916.452 226.845 916.542 227.19 916.542 227.6C916.542 228.07 916.382 228.465 916.062 228.785C915.742 229.095 915.322 229.28 914.802 229.34V229.145C915.222 229.155 915.577 229.24 915.867 229.4C916.167 229.56 916.392 229.775 916.542 230.045C916.702 230.305 916.782 230.61 916.782 230.96C916.782 231.59 916.547 232.09 916.077 232.46C915.607 232.82 914.937 233 914.067 233H910.212ZM911.637 232.025H913.977C914.427 232.025 914.772 231.93 915.012 231.74C915.262 231.54 915.387 231.255 915.387 230.885C915.387 230.515 915.262 230.235 915.012 230.045C914.772 229.855 914.427 229.76 913.977 229.76H911.637V232.025ZM911.637 228.785H913.842C914.252 228.785 914.567 228.69 914.787 228.5C915.017 228.31 915.132 228.05 915.132 227.72C915.132 227.38 915.017 227.12 914.787 226.94C914.567 226.76 914.252 226.67 913.842 226.67H911.637V228.785ZM918.547 233V225.68H919.927V231.5H919.537L923.887 225.68H925.162V233H923.782V227.18H924.187L919.822 233H918.547ZM927.439 233V225.68H931.174C931.774 225.68 932.264 225.755 932.644 225.905C933.034 226.055 933.319 226.275 933.499 226.565C933.679 226.845 933.769 227.19 933.769 227.6C933.769 228.07 933.609 228.465 933.289 228.785C932.969 229.095 932.549 229.28 932.029 229.34V229.145C932.449 229.155 932.804 229.24 933.094 229.4C933.394 229.56 933.619 229.775 933.769 230.045C933.929 230.305 934.009 230.61 934.009 230.96C934.009 231.59 933.774 232.09 933.304 232.46C932.834 232.82 932.164 233 931.294 233H927.439ZM928.864 232.025H931.204C931.654 232.025 931.999 231.93 932.239 231.74C932.489 231.54 932.614 231.255 932.614 230.885C932.614 230.515 932.489 230.235 932.239 230.045C931.999 229.855 931.654 229.76 931.204 229.76H928.864V232.025ZM928.864 228.785H931.069C931.479 228.785 931.794 228.69 932.014 228.5C932.244 228.31 932.359 228.05 932.359 227.72C932.359 227.38 932.244 227.12 932.014 226.94C931.794 226.76 931.479 226.67 931.069 226.67H928.864V228.785ZM938.129 233.135C937.619 233.135 937.159 233.035 936.749 232.835C936.349 232.635 936.034 232.365 935.804 232.025C935.574 231.685 935.459 231.3 935.459 230.87C935.459 230.33 935.594 229.905 935.864 229.595C936.144 229.275 936.599 229.05 937.229 228.92C937.869 228.78 938.729 228.71 939.809 228.71H940.514V229.64H939.824C939.284 229.64 938.829 229.66 938.459 229.7C938.089 229.74 937.794 229.805 937.574 229.895C937.354 229.975 937.194 230.09 937.094 230.24C937.004 230.39 936.959 230.57 936.959 230.78C936.959 231.16 937.089 231.47 937.349 231.71C937.609 231.94 937.969 232.055 938.429 232.055C938.799 232.055 939.124 231.97 939.404 231.8C939.684 231.62 939.904 231.38 940.064 231.08C940.234 230.78 940.319 230.435 940.319 230.045V228.32C940.319 227.75 940.199 227.34 939.959 227.09C939.719 226.84 939.324 226.715 938.774 226.715C938.354 226.715 937.934 226.78 937.514 226.91C937.094 227.03 936.664 227.225 936.224 227.495L935.759 226.43C936.019 226.25 936.319 226.095 936.659 225.965C936.999 225.835 937.354 225.735 937.724 225.665C938.104 225.585 938.469 225.545 938.819 225.545C939.489 225.545 940.039 225.65 940.469 225.86C940.909 226.07 941.234 226.39 941.444 226.82C941.654 227.25 941.759 227.805 941.759 228.485V233H940.334V231.365H940.469C940.389 231.735 940.239 232.055 940.019 232.325C939.809 232.585 939.544 232.785 939.224 232.925C938.904 233.065 938.539 233.135 938.129 233.135ZM943.691 233.195L943.181 231.995C943.511 231.865 943.786 231.695 944.006 231.485C944.236 231.275 944.416 231.01 944.546 230.69C944.676 230.36 944.771 229.955 944.831 229.475C944.891 228.995 944.921 228.415 944.921 227.735V225.68H950.501V233H948.986V226.895H946.331V227.78C946.331 228.61 946.281 229.335 946.181 229.955C946.081 230.565 945.926 231.085 945.716 231.515C945.506 231.945 945.231 232.295 944.891 232.565C944.561 232.835 944.161 233.045 943.691 233.195ZM956.231 233.135C955.431 233.135 954.741 232.985 954.161 232.685C953.591 232.375 953.146 231.94 952.826 231.38C952.516 230.81 952.361 230.135 952.361 229.355C952.361 228.595 952.516 227.93 952.826 227.36C953.136 226.79 953.561 226.345 954.101 226.025C954.641 225.705 955.256 225.545 955.946 225.545C956.626 225.545 957.206 225.695 957.686 225.995C958.176 226.285 958.551 226.7 958.811 227.24C959.071 227.78 959.201 228.425 959.201 229.175V229.685H953.561V228.755H958.181L957.926 228.965C957.926 228.215 957.761 227.635 957.431 227.225C957.101 226.815 956.626 226.61 956.006 226.61C955.536 226.61 955.136 226.72 954.806 226.94C954.486 227.16 954.241 227.465 954.071 227.855C953.901 228.245 953.816 228.7 953.816 229.22V229.31C953.816 229.89 953.906 230.38 954.086 230.78C954.276 231.17 954.551 231.465 954.911 231.665C955.271 231.865 955.716 231.965 956.246 231.965C956.666 231.965 957.076 231.9 957.476 231.77C957.886 231.63 958.271 231.415 958.631 231.125L959.081 232.175C958.751 232.475 958.326 232.71 957.806 232.88C957.286 233.05 956.761 233.135 956.231 233.135ZM960.998 233V225.68H962.513V228.635H966.158V225.68H967.673V233H966.158V229.835H962.513V233H960.998ZM971.464 233V226.895H968.884V225.68H975.574V226.895H972.979V233H971.464ZM976.789 233V225.68H978.304V228.215H980.389C981.329 228.215 982.044 228.42 982.534 228.83C983.024 229.23 983.269 229.815 983.269 230.585C983.269 231.075 983.154 231.505 982.924 231.875C982.694 232.235 982.364 232.515 981.934 232.715C981.504 232.905 980.989 233 980.389 233H976.789ZM978.304 231.965H980.194C980.714 231.965 981.119 231.855 981.409 231.635C981.699 231.405 981.844 231.055 981.844 230.585C981.844 230.125 981.699 229.79 981.409 229.58C981.119 229.36 980.714 229.25 980.194 229.25H978.304V231.965ZM984.259 233V225.68H985.774V233H984.259Z" fill="white"/>
<path d="M1217.64 233.135C1217.17 233.135 1216.71 233.09 1216.26 233C1215.82 232.9 1215.4 232.76 1215.01 232.58C1214.63 232.39 1214.3 232.165 1214.01 231.905L1214.55 230.705C1215.02 231.085 1215.5 231.365 1216 231.545C1216.5 231.725 1217.03 231.815 1217.59 231.815C1218.07 231.815 1218.48 231.745 1218.81 231.605C1219.14 231.465 1219.38 231.26 1219.54 230.99C1219.71 230.72 1219.8 230.395 1219.8 230.015C1219.8 229.445 1219.61 229.02 1219.23 228.74C1218.86 228.45 1218.32 228.305 1217.61 228.305H1215.97V227H1217.46C1217.89 227 1218.25 226.93 1218.55 226.79C1218.85 226.64 1219.08 226.435 1219.24 226.175C1219.41 225.905 1219.5 225.58 1219.5 225.2C1219.5 224.69 1219.33 224.3 1218.99 224.03C1218.66 223.75 1218.17 223.61 1217.53 223.61C1216.99 223.61 1216.49 223.705 1216.03 223.895C1215.57 224.085 1215.14 224.375 1214.73 224.765L1214.19 223.58C1214.6 223.17 1215.11 222.855 1215.72 222.635C1216.34 222.405 1216.98 222.29 1217.65 222.29C1218.35 222.29 1218.95 222.4 1219.45 222.62C1219.96 222.84 1220.35 223.155 1220.61 223.565C1220.88 223.975 1221.01 224.465 1221.01 225.035C1221.01 225.675 1220.83 226.23 1220.47 226.7C1220.12 227.16 1219.64 227.465 1219.02 227.615V227.45C1219.51 227.53 1219.92 227.69 1220.26 227.93C1220.6 228.17 1220.86 228.475 1221.04 228.845C1221.22 229.215 1221.31 229.64 1221.31 230.12C1221.31 230.74 1221.16 231.28 1220.86 231.74C1220.57 232.19 1220.15 232.535 1219.6 232.775C1219.05 233.015 1218.4 233.135 1217.64 233.135ZM1227.76 233V230.855H1223V229.7L1228.03 222.425H1229.3V229.55H1230.85V230.855H1229.3V233H1227.76ZM1227.76 229.55V224.285H1228.16L1224.26 229.97V229.55H1227.76ZM1232.18 233V231.215H1233.96V233H1232.18ZM1236.61 233V231.695H1239.01V223.745H1239.79L1237.13 225.395L1236.5 224.24L1239.46 222.425H1240.55V231.695H1242.8V233H1236.61ZM1248.18 233.135C1247.71 233.135 1247.25 233.09 1246.8 233C1246.36 232.9 1245.95 232.76 1245.56 232.58C1245.18 232.39 1244.84 232.165 1244.55 231.905L1245.09 230.705C1245.56 231.085 1246.05 231.365 1246.55 231.545C1247.05 231.725 1247.58 231.815 1248.14 231.815C1248.62 231.815 1249.02 231.745 1249.35 231.605C1249.68 231.465 1249.93 231.26 1250.09 230.99C1250.26 230.72 1250.34 230.395 1250.34 230.015C1250.34 229.445 1250.15 229.02 1249.77 228.74C1249.4 228.45 1248.86 228.305 1248.15 228.305H1246.52V227H1248C1248.43 227 1248.8 226.93 1249.1 226.79C1249.4 226.64 1249.63 226.435 1249.79 226.175C1249.96 225.905 1250.04 225.58 1250.04 225.2C1250.04 224.69 1249.87 224.3 1249.53 224.03C1249.2 223.75 1248.72 223.61 1248.08 223.61C1247.54 223.61 1247.04 223.705 1246.58 223.895C1246.12 224.085 1245.68 224.375 1245.27 224.765L1244.73 223.58C1245.14 223.17 1245.65 222.855 1246.26 222.635C1246.88 222.405 1247.53 222.29 1248.2 222.29C1248.9 222.29 1249.5 222.4 1250 222.62C1250.51 222.84 1250.89 223.155 1251.15 223.565C1251.42 223.975 1251.56 224.465 1251.56 225.035C1251.56 225.675 1251.38 226.23 1251.02 226.7C1250.67 227.16 1250.18 227.465 1249.56 227.615V227.45C1250.05 227.53 1250.47 227.69 1250.81 227.93C1251.15 228.17 1251.41 228.475 1251.59 228.845C1251.77 229.215 1251.86 229.64 1251.86 230.12C1251.86 230.74 1251.71 231.28 1251.41 231.74C1251.12 232.19 1250.7 232.535 1250.15 232.775C1249.6 233.015 1248.94 233.135 1248.18 233.135ZM1254.07 233V222.425H1258.48C1259.58 222.425 1260.43 222.67 1261.03 223.16C1261.64 223.64 1261.95 224.315 1261.95 225.185C1261.95 225.825 1261.76 226.365 1261.38 226.805C1261 227.245 1260.48 227.54 1259.83 227.69V227.465C1260.32 227.535 1260.74 227.685 1261.09 227.915C1261.45 228.135 1261.73 228.43 1261.92 228.8C1262.11 229.16 1262.2 229.585 1262.2 230.075C1262.2 230.695 1262.06 231.225 1261.78 231.665C1261.5 232.105 1261.1 232.44 1260.57 232.67C1260.04 232.89 1259.4 233 1258.66 233H1254.07ZM1255.57 231.8H1258.48C1258.78 231.8 1259.05 231.78 1259.28 231.74C1259.52 231.69 1259.72 231.62 1259.89 231.53C1260.07 231.43 1260.22 231.31 1260.34 231.17C1260.46 231.02 1260.55 230.85 1260.6 230.66C1260.66 230.47 1260.69 230.255 1260.69 230.015C1260.69 229.775 1260.66 229.56 1260.6 229.37C1260.55 229.18 1260.46 229.015 1260.34 228.875C1260.22 228.735 1260.07 228.62 1259.89 228.53C1259.72 228.43 1259.52 228.36 1259.28 228.32C1259.05 228.27 1258.78 228.245 1258.48 228.245H1255.57V231.8ZM1255.57 227.045H1258.24C1258.96 227.045 1259.51 226.9 1259.88 226.61C1260.25 226.32 1260.43 225.895 1260.43 225.335C1260.43 224.775 1260.25 224.35 1259.88 224.06C1259.51 223.77 1258.96 223.625 1258.24 223.625H1255.57V227.045ZM1268.61 233V230.84H1267.28V229.745H1268.61V228.53H1267.28V227.435H1268.61V222.425H1272.12C1272.88 222.425 1273.53 222.555 1274.06 222.815C1274.59 223.065 1274.99 223.42 1275.26 223.88C1275.53 224.34 1275.66 224.89 1275.66 225.53C1275.66 226.14 1275.52 226.67 1275.24 227.12C1274.96 227.56 1274.57 227.905 1274.06 228.155C1273.55 228.405 1272.94 228.53 1272.23 228.53H1270.19V229.745H1272.71V230.84H1270.19V233H1268.61ZM1270.16 227.435H1271.97C1272.68 227.435 1273.22 227.29 1273.59 227C1273.97 226.7 1274.16 226.24 1274.16 225.62C1274.16 224.99 1273.98 224.52 1273.61 224.21C1273.24 223.9 1272.69 223.745 1271.96 223.745H1270.16V227.435Z" fill="white"/>
<circle cx="692" cy="196" r="6" fill="#6AA5FF"/>
<path d="M711.26 201V190.425H712.565L716.72 198.165H716.255L720.38 190.425H721.655V201H720.26V192.63H720.59L716.945 199.38H716L712.31 192.615H712.67V201H711.26ZM724.06 201V193.68H725.44V199.5H725.05L729.4 193.68H730.675V201H729.295V195.18H729.7L725.335 201H724.06ZM732.952 201V193.68H734.467V196.635H738.112V193.68H739.627V201H738.112V197.835H734.467V201H732.952ZM745.082 201.135C744.342 201.135 743.702 200.98 743.162 200.67C742.632 200.36 742.217 199.92 741.917 199.35C741.617 198.78 741.467 198.11 741.467 197.34C741.467 196.56 741.617 195.89 741.917 195.33C742.217 194.76 742.632 194.32 743.162 194.01C743.702 193.7 744.342 193.545 745.082 193.545C745.812 193.545 746.442 193.7 746.972 194.01C747.512 194.32 747.932 194.76 748.232 195.33C748.532 195.9 748.682 196.57 748.682 197.34C748.682 198.11 748.532 198.78 748.232 199.35C747.932 199.92 747.512 200.36 746.972 200.67C746.442 200.98 745.812 201.135 745.082 201.135ZM745.067 199.965C745.697 199.965 746.202 199.74 746.582 199.29C746.962 198.84 747.152 198.19 747.152 197.34C747.152 196.48 746.962 195.83 746.582 195.39C746.202 194.95 745.697 194.73 745.067 194.73C744.447 194.73 743.947 194.95 743.567 195.39C743.187 195.83 742.997 196.48 742.997 197.34C742.997 198.19 743.187 198.84 743.567 199.29C743.947 199.74 744.447 199.965 745.067 199.965ZM750.559 203.7V193.68H752.044V195.33H751.879C752.039 194.79 752.354 194.36 752.824 194.04C753.294 193.71 753.849 193.545 754.489 193.545C755.139 193.545 755.704 193.7 756.184 194.01C756.674 194.32 757.049 194.755 757.309 195.315C757.579 195.875 757.714 196.55 757.714 197.34C757.714 198.11 757.579 198.785 757.309 199.365C757.049 199.935 756.679 200.375 756.199 200.685C755.719 200.985 755.149 201.135 754.489 201.135C753.859 201.135 753.309 200.975 752.839 200.655C752.369 200.335 752.054 199.91 751.894 199.38H752.074V203.7H750.559ZM754.114 199.965C754.744 199.965 755.244 199.74 755.614 199.29C755.994 198.84 756.184 198.19 756.184 197.34C756.184 196.48 755.994 195.83 755.614 195.39C755.244 194.95 754.744 194.73 754.114 194.73C753.494 194.73 752.994 194.95 752.614 195.39C752.234 195.83 752.044 196.48 752.044 197.34C752.044 198.19 752.234 198.84 752.614 199.29C752.994 199.74 753.494 199.965 754.114 199.965ZM759.568 201V193.68H760.948V199.5H760.558L764.908 193.68H766.183V201H764.803V195.18H765.208L760.843 201H759.568ZM769.989 201V194.895H767.409V193.68H774.099V194.895H771.504V201H769.989ZM777.67 201.135C777.16 201.135 776.7 201.035 776.29 200.835C775.89 200.635 775.575 200.365 775.345 200.025C775.115 199.685 775 199.3 775 198.87C775 198.33 775.135 197.905 775.405 197.595C775.685 197.275 776.14 197.05 776.77 196.92C777.41 196.78 778.27 196.71 779.35 196.71H780.055V197.64H779.365C778.825 197.64 778.37 197.66 778 197.7C777.63 197.74 777.335 197.805 777.115 197.895C776.895 197.975 776.735 198.09 776.635 198.24C776.545 198.39 776.5 198.57 776.5 198.78C776.5 199.16 776.63 199.47 776.89 199.71C777.15 199.94 777.51 200.055 777.97 200.055C778.34 200.055 778.665 199.97 778.945 199.8C779.225 199.62 779.445 199.38 779.605 199.08C779.775 198.78 779.86 198.435 779.86 198.045V196.32C779.86 195.75 779.74 195.34 779.5 195.09C779.26 194.84 778.865 194.715 778.315 194.715C777.895 194.715 777.475 194.78 777.055 194.91C776.635 195.03 776.205 195.225 775.765 195.495L775.3 194.43C775.56 194.25 775.86 194.095 776.2 193.965C776.54 193.835 776.895 193.735 777.265 193.665C777.645 193.585 778.01 193.545 778.36 193.545C779.03 193.545 779.58 193.65 780.01 193.86C780.45 194.07 780.775 194.39 780.985 194.82C781.195 195.25 781.3 195.805 781.3 196.485V201H779.875V199.365H780.01C779.93 199.735 779.78 200.055 779.56 200.325C779.35 200.585 779.085 200.785 778.765 200.925C778.445 201.065 778.08 201.135 777.67 201.135ZM783.562 203.7V193.68H785.047V195.33H784.882C785.042 194.79 785.357 194.36 785.827 194.04C786.297 193.71 786.852 193.545 787.492 193.545C788.142 193.545 788.707 193.7 789.187 194.01C789.677 194.32 790.052 194.755 790.312 195.315C790.582 195.875 790.717 196.55 790.717 197.34C790.717 198.11 790.582 198.785 790.312 199.365C790.052 199.935 789.682 200.375 789.202 200.685C788.722 200.985 788.152 201.135 787.492 201.135C786.862 201.135 786.312 200.975 785.842 200.655C785.372 200.335 785.057 199.91 784.897 199.38H785.077V203.7H783.562ZM787.117 199.965C787.747 199.965 788.247 199.74 788.617 199.29C788.997 198.84 789.187 198.19 789.187 197.34C789.187 196.48 788.997 195.83 788.617 195.39C788.247 194.95 787.747 194.73 787.117 194.73C786.497 194.73 785.997 194.95 785.617 195.39C785.237 195.83 785.047 196.48 785.047 197.34C785.047 198.19 785.237 198.84 785.617 199.29C785.997 199.74 786.497 199.965 787.117 199.965ZM792.571 201V193.68H794.086V196.635H797.731V193.68H799.246V201H797.731V197.835H794.086V201H792.571ZM801.506 201V193.68H803.021V196.215H805.106C806.046 196.215 806.761 196.42 807.251 196.83C807.741 197.23 807.986 197.815 807.986 198.585C807.986 199.075 807.871 199.505 807.641 199.875C807.411 200.235 807.081 200.515 806.651 200.715C806.221 200.905 805.706 201 805.106 201H801.506ZM803.021 199.965H804.911C805.431 199.965 805.836 199.855 806.126 199.635C806.416 199.405 806.561 199.055 806.561 198.585C806.561 198.125 806.416 197.79 806.126 197.58C805.836 197.36 805.431 197.25 804.911 197.25H803.021V199.965ZM808.976 201V193.68H810.491V201H808.976ZM812.771 201V193.68H814.151V199.5H813.761L818.111 193.68H819.386V201H818.006V195.18H818.411L814.046 201H812.771ZM816.071 192.75C815.631 192.75 815.236 192.675 814.886 192.525C814.536 192.365 814.236 192.135 813.986 191.835C813.736 191.525 813.551 191.155 813.431 190.725L814.256 190.44C814.436 190.93 814.671 191.29 814.961 191.52C815.261 191.75 815.636 191.865 816.086 191.865C816.546 191.865 816.921 191.755 817.211 191.535C817.501 191.305 817.751 190.945 817.961 190.455L818.756 190.725C818.596 191.195 818.381 191.58 818.111 191.88C817.851 192.18 817.551 192.4 817.211 192.54C816.871 192.68 816.491 192.75 816.071 192.75ZM825.603 201V193.68H832.233V201H830.718V194.895H827.118V201H825.603ZM836.849 201.135C836.339 201.135 835.879 201.035 835.469 200.835C835.069 200.635 834.754 200.365 834.524 200.025C834.294 199.685 834.179 199.3 834.179 198.87C834.179 198.33 834.314 197.905 834.584 197.595C834.864 197.275 835.319 197.05 835.949 196.92C836.589 196.78 837.449 196.71 838.529 196.71H839.234V197.64H838.544C838.004 197.64 837.549 197.66 837.179 197.7C836.809 197.74 836.514 197.805 836.294 197.895C836.074 197.975 835.914 198.09 835.814 198.24C835.724 198.39 835.679 198.57 835.679 198.78C835.679 199.16 835.809 199.47 836.069 199.71C836.329 199.94 836.689 200.055 837.149 200.055C837.519 200.055 837.844 199.97 838.124 199.8C838.404 199.62 838.624 199.38 838.784 199.08C838.954 198.78 839.039 198.435 839.039 198.045V196.32C839.039 195.75 838.919 195.34 838.679 195.09C838.439 194.84 838.044 194.715 837.494 194.715C837.074 194.715 836.654 194.78 836.234 194.91C835.814 195.03 835.384 195.225 834.944 195.495L834.479 194.43C834.739 194.25 835.039 194.095 835.379 193.965C835.719 193.835 836.074 193.735 836.444 193.665C836.824 193.585 837.189 193.545 837.539 193.545C838.209 193.545 838.759 193.65 839.189 193.86C839.629 194.07 839.954 194.39 840.164 194.82C840.374 195.25 840.479 195.805 840.479 196.485V201H839.054V199.365H839.189C839.109 199.735 838.959 200.055 838.739 200.325C838.529 200.585 838.264 200.785 837.944 200.925C837.624 201.065 837.259 201.135 836.849 201.135ZM842.727 201V193.68H844.242V196.65H845.472L847.737 193.68H849.387L846.672 197.295L846.297 196.815C846.577 196.845 846.822 196.915 847.032 197.025C847.242 197.135 847.437 197.3 847.617 197.52C847.807 197.74 848.007 198.03 848.217 198.39L849.732 201H848.112L846.837 198.81C846.687 198.55 846.537 198.35 846.387 198.21C846.247 198.07 846.092 197.975 845.922 197.925C845.752 197.865 845.537 197.835 845.277 197.835H844.242V201H842.727ZM854.292 201.135C853.492 201.135 852.802 200.985 852.222 200.685C851.652 200.375 851.207 199.94 850.887 199.38C850.577 198.81 850.422 198.135 850.422 197.355C850.422 196.595 850.577 195.93 850.887 195.36C851.197 194.79 851.622 194.345 852.162 194.025C852.702 193.705 853.317 193.545 854.007 193.545C854.687 193.545 855.267 193.695 855.747 193.995C856.237 194.285 856.612 194.7 856.872 195.24C857.132 195.78 857.262 196.425 857.262 197.175V197.685H851.622V196.755H856.242L855.987 196.965C855.987 196.215 855.822 195.635 855.492 195.225C855.162 194.815 854.687 194.61 854.067 194.61C853.597 194.61 853.197 194.72 852.867 194.94C852.547 195.16 852.302 195.465 852.132 195.855C851.962 196.245 851.877 196.7 851.877 197.22V197.31C851.877 197.89 851.967 198.38 852.147 198.78C852.337 199.17 852.612 199.465 852.972 199.665C853.332 199.865 853.777 199.965 854.307 199.965C854.727 199.965 855.137 199.9 855.537 199.77C855.947 199.63 856.332 199.415 856.692 199.125L857.142 200.175C856.812 200.475 856.387 200.71 855.867 200.88C855.347 201.05 854.822 201.135 854.292 201.135ZM860.59 201V194.895H858.01V193.68H864.7V194.895H862.105V201H860.59ZM872.211 201.135C871.701 201.135 871.241 201.035 870.831 200.835C870.431 200.635 870.116 200.365 869.886 200.025C869.656 199.685 869.541 199.3 869.541 198.87C869.541 198.33 869.676 197.905 869.946 197.595C870.226 197.275 870.681 197.05 871.311 196.92C871.951 196.78 872.811 196.71 873.891 196.71H874.596V197.64H873.906C873.366 197.64 872.911 197.66 872.541 197.7C872.171 197.74 871.876 197.805 871.656 197.895C871.436 197.975 871.276 198.09 871.176 198.24C871.086 198.39 871.041 198.57 871.041 198.78C871.041 199.16 871.171 199.47 871.431 199.71C871.691 199.94 872.051 200.055 872.511 200.055C872.881 200.055 873.206 199.97 873.486 199.8C873.766 199.62 873.986 199.38 874.146 199.08C874.316 198.78 874.401 198.435 874.401 198.045V196.32C874.401 195.75 874.281 195.34 874.041 195.09C873.801 194.84 873.406 194.715 872.856 194.715C872.436 194.715 872.016 194.78 871.596 194.91C871.176 195.03 870.746 195.225 870.306 195.495L869.841 194.43C870.101 194.25 870.401 194.095 870.741 193.965C871.081 193.835 871.436 193.735 871.806 193.665C872.186 193.585 872.551 193.545 872.901 193.545C873.571 193.545 874.121 193.65 874.551 193.86C874.991 194.07 875.316 194.39 875.526 194.82C875.736 195.25 875.841 195.805 875.841 196.485V201H874.416V199.365H874.551C874.471 199.735 874.321 200.055 874.101 200.325C873.891 200.585 873.626 200.785 873.306 200.925C872.986 201.065 872.621 201.135 872.211 201.135ZM878.088 201V193.68H879.603V196.65H880.833L883.098 193.68H884.748L882.033 197.295L881.658 196.815C881.938 196.845 882.183 196.915 882.393 197.025C882.603 197.135 882.798 197.3 882.978 197.52C883.168 197.74 883.368 198.03 883.578 198.39L885.093 201H883.473L882.198 198.81C882.048 198.55 881.898 198.35 881.748 198.21C881.608 198.07 881.453 197.975 881.283 197.925C881.113 197.865 880.898 197.835 880.638 197.835H879.603V201H878.088ZM892.533 202.95V201H886.203V193.68H887.718V199.8H891.138V193.68H892.653V199.8H893.823V202.95H892.533ZM895.344 201V193.68H896.724V199.5H896.334L900.684 193.68H901.959V201H900.579V195.18H900.984L896.619 201H895.344ZM904.236 201V193.68H905.616V199.5H905.226L909.576 193.68H910.851V201H909.471V195.18H909.876L905.511 201H904.236ZM907.536 192.75C907.096 192.75 906.701 192.675 906.351 192.525C906.001 192.365 905.701 192.135 905.451 191.835C905.201 191.525 905.016 191.155 904.896 190.725L905.721 190.44C905.901 190.93 906.136 191.29 906.426 191.52C906.726 191.75 907.101 191.865 907.551 191.865C908.011 191.865 908.386 191.755 908.676 191.535C908.966 191.305 909.216 190.945 909.426 190.455L910.221 190.725C910.061 191.195 909.846 191.58 909.576 191.88C909.316 192.18 909.016 192.4 908.676 192.54C908.336 192.68 907.956 192.75 907.536 192.75Z" fill="white"/>
<path d="M1203.12 201L1208.28 191.145V191.73H1202.55V190.425H1209.7V191.58L1204.83 201H1203.12ZM1212.11 201L1217.27 191.145V191.73H1211.54V190.425H1218.69V191.58L1213.82 201H1212.11ZM1223.34 201.135C1222.98 201.135 1222.61 201.09 1222.23 201C1221.86 200.9 1221.51 200.755 1221.18 200.565C1220.85 200.375 1220.56 200.155 1220.31 199.905L1220.85 198.72C1221.22 199.08 1221.62 199.355 1222.05 199.545C1222.48 199.725 1222.91 199.815 1223.35 199.815C1223.82 199.815 1224.24 199.73 1224.6 199.56C1224.96 199.39 1225.26 199.135 1225.5 198.795C1225.75 198.455 1225.93 198.035 1226.05 197.535C1226.18 197.025 1226.25 196.44 1226.25 195.78V194.505H1226.4C1226.33 195.035 1226.16 195.5 1225.89 195.9C1225.63 196.3 1225.29 196.605 1224.87 196.815C1224.46 197.025 1223.99 197.13 1223.47 197.13C1222.86 197.13 1222.32 196.985 1221.84 196.695C1221.37 196.405 1220.99 196.005 1220.71 195.495C1220.44 194.985 1220.31 194.41 1220.31 193.77C1220.31 193.09 1220.45 192.49 1220.74 191.97C1221.04 191.44 1221.45 191.03 1221.96 190.74C1222.47 190.44 1223.06 190.29 1223.73 190.29C1224.59 190.29 1225.31 190.495 1225.9 190.905C1226.49 191.305 1226.94 191.895 1227.25 192.675C1227.57 193.455 1227.73 194.39 1227.73 195.48C1227.73 196.69 1227.56 197.715 1227.21 198.555C1226.86 199.395 1226.36 200.035 1225.71 200.475C1225.06 200.915 1224.27 201.135 1223.34 201.135ZM1223.83 195.855C1224.23 195.855 1224.59 195.765 1224.9 195.585C1225.21 195.405 1225.45 195.155 1225.62 194.835C1225.8 194.505 1225.89 194.125 1225.89 193.695C1225.89 193.275 1225.8 192.905 1225.62 192.585C1225.45 192.255 1225.21 192 1224.9 191.82C1224.59 191.63 1224.23 191.535 1223.83 191.535C1223.42 191.535 1223.06 191.63 1222.75 191.82C1222.45 192 1222.21 192.255 1222.03 192.585C1221.86 192.905 1221.78 193.275 1221.78 193.695C1221.78 194.125 1221.86 194.505 1222.03 194.835C1222.21 195.155 1222.45 195.405 1222.75 195.585C1223.06 195.765 1223.42 195.855 1223.83 195.855ZM1229.48 201V199.215H1231.27V201H1229.48ZM1236.66 201.135C1235.84 201.135 1235.15 200.925 1234.59 200.505C1234.03 200.085 1233.6 199.475 1233.31 198.675C1233.02 197.865 1232.88 196.875 1232.88 195.705C1232.88 194.515 1233.02 193.52 1233.31 192.72C1233.6 191.92 1234.03 191.315 1234.59 190.905C1235.15 190.495 1235.84 190.29 1236.66 190.29C1237.49 190.29 1238.18 190.495 1238.74 190.905C1239.3 191.305 1239.72 191.905 1240 192.705C1240.29 193.505 1240.44 194.5 1240.44 195.69C1240.44 196.86 1240.29 197.85 1240 198.66C1239.71 199.47 1239.29 200.085 1238.73 200.505C1238.17 200.925 1237.48 201.135 1236.66 201.135ZM1236.66 199.845C1237.43 199.845 1237.99 199.51 1238.35 198.84C1238.72 198.17 1238.91 197.12 1238.91 195.69C1238.91 194.26 1238.72 193.22 1238.35 192.57C1237.99 191.91 1237.43 191.58 1236.66 191.58C1235.9 191.58 1235.33 191.91 1234.96 192.57C1234.59 193.22 1234.41 194.26 1234.41 195.69C1234.41 197.12 1234.59 198.17 1234.96 198.84C1235.33 199.51 1235.9 199.845 1236.66 199.845ZM1245.65 201.135C1244.83 201.135 1244.14 200.925 1243.58 200.505C1243.02 200.085 1242.6 199.475 1242.31 198.675C1242.02 197.865 1241.87 196.875 1241.87 195.705C1241.87 194.515 1242.02 193.52 1242.31 192.72C1242.6 191.92 1243.02 191.315 1243.58 190.905C1244.14 190.495 1244.83 190.29 1245.65 190.29C1246.48 190.29 1247.18 190.495 1247.74 190.905C1248.3 191.305 1248.72 191.905 1249 192.705C1249.29 193.505 1249.43 194.5 1249.43 195.69C1249.43 196.86 1249.29 197.85 1249 198.66C1248.71 199.47 1248.28 200.085 1247.72 200.505C1247.16 200.925 1246.47 201.135 1245.65 201.135ZM1245.65 199.845C1246.42 199.845 1246.99 199.51 1247.35 198.84C1247.72 198.17 1247.9 197.12 1247.9 195.69C1247.9 194.26 1247.72 193.22 1247.35 192.57C1246.99 191.91 1246.42 191.58 1245.65 191.58C1244.89 191.58 1244.33 191.91 1243.96 192.57C1243.59 193.22 1243.4 194.26 1243.4 195.69C1243.4 197.12 1243.59 198.17 1243.96 198.84C1244.33 199.51 1244.89 199.845 1245.65 199.845ZM1251.41 201V190.425H1252.71L1256.87 198.165H1256.4L1260.53 190.425H1261.8V201H1260.41V192.63H1260.74L1257.09 199.38H1256.15L1252.46 192.615H1252.82V201H1251.41ZM1268.61 201V198.84H1267.28V197.745H1268.61V196.53H1267.28V195.435H1268.61V190.425H1272.12C1272.88 190.425 1273.53 190.555 1274.06 190.815C1274.59 191.065 1274.99 191.42 1275.26 191.88C1275.53 192.34 1275.66 192.89 1275.66 193.53C1275.66 194.14 1275.52 194.67 1275.24 195.12C1274.96 195.56 1274.57 195.905 1274.06 196.155C1273.55 196.405 1272.94 196.53 1272.23 196.53H1270.19V197.745H1272.71V198.84H1270.19V201H1268.61ZM1270.16 195.435H1271.97C1272.68 195.435 1273.22 195.29 1273.59 195C1273.97 194.7 1274.16 194.24 1274.16 193.62C1274.16 192.99 1273.98 192.52 1273.61 192.21C1273.24 191.9 1272.69 191.745 1271.96 191.745H1270.16V195.435Z" fill="white"/>
<circle cx="692" cy="164" r="6" fill="#FFA800"/>
<path d="M714.62 169.135C714.03 169.135 713.48 169.085 712.97 168.985C712.47 168.885 712.015 168.735 711.605 168.535C711.195 168.325 710.835 168.085 710.525 167.815L711.05 166.63C711.51 167.02 712.02 167.315 712.58 167.515C713.14 167.705 713.785 167.8 714.515 167.8C715.425 167.8 716.09 167.65 716.51 167.35C716.94 167.04 717.155 166.58 717.155 165.97C717.155 165.39 716.975 164.96 716.615 164.68C716.255 164.4 715.7 164.26 714.95 164.26H712.37V163.015H714.71C715.44 163.015 715.985 162.875 716.345 162.595C716.715 162.315 716.9 161.9 716.9 161.35C716.9 160.81 716.705 160.385 716.315 160.075C715.925 159.765 715.33 159.61 714.53 159.61C713.92 159.61 713.335 159.705 712.775 159.895C712.225 160.085 711.725 160.37 711.275 160.75L710.765 159.565C711.075 159.285 711.435 159.05 711.845 158.86C712.265 158.67 712.715 158.53 713.195 158.44C713.675 158.34 714.17 158.29 714.68 158.29C715.52 158.29 716.215 158.41 716.765 158.65C717.325 158.89 717.745 159.23 718.025 159.67C718.305 160.1 718.445 160.605 718.445 161.185C718.445 161.825 718.255 162.365 717.875 162.805C717.495 163.245 716.98 163.54 716.33 163.69V163.465C717.07 163.565 717.65 163.845 718.07 164.305C718.49 164.755 718.7 165.345 718.7 166.075C718.7 166.695 718.55 167.24 718.25 167.71C717.96 168.17 717.515 168.525 716.915 168.775C716.315 169.015 715.55 169.135 714.62 169.135ZM723.046 169.135C722.536 169.135 722.076 169.035 721.666 168.835C721.266 168.635 720.951 168.365 720.721 168.025C720.491 167.685 720.376 167.3 720.376 166.87C720.376 166.33 720.511 165.905 720.781 165.595C721.061 165.275 721.516 165.05 722.146 164.92C722.786 164.78 723.646 164.71 724.726 164.71H725.431V165.64H724.741C724.201 165.64 723.746 165.66 723.376 165.7C723.006 165.74 722.711 165.805 722.491 165.895C722.271 165.975 722.111 166.09 722.011 166.24C721.921 166.39 721.876 166.57 721.876 166.78C721.876 167.16 722.006 167.47 722.266 167.71C722.526 167.94 722.886 168.055 723.346 168.055C723.716 168.055 724.041 167.97 724.321 167.8C724.601 167.62 724.821 167.38 724.981 167.08C725.151 166.78 725.236 166.435 725.236 166.045V164.32C725.236 163.75 725.116 163.34 724.876 163.09C724.636 162.84 724.241 162.715 723.691 162.715C723.271 162.715 722.851 162.78 722.431 162.91C722.011 163.03 721.581 163.225 721.141 163.495L720.676 162.43C720.936 162.25 721.236 162.095 721.576 161.965C721.916 161.835 722.271 161.735 722.641 161.665C723.021 161.585 723.386 161.545 723.736 161.545C724.406 161.545 724.956 161.65 725.386 161.86C725.826 162.07 726.151 162.39 726.361 162.82C726.571 163.25 726.676 163.805 726.676 164.485V169H725.251V167.365H725.386C725.306 167.735 725.156 168.055 724.936 168.325C724.726 168.585 724.461 168.785 724.141 168.925C723.821 169.065 723.456 169.135 723.046 169.135ZM728.173 170.95V167.8H728.983C729.203 167.47 729.378 167.115 729.508 166.735C729.638 166.355 729.733 165.925 729.793 165.445C729.853 164.965 729.883 164.42 729.883 163.81V161.68H735.298V167.8H736.468V170.95H735.178V169H729.478V170.95H728.173ZM730.393 167.8H733.858V162.865H731.203V164.125C731.203 164.815 731.133 165.485 730.993 166.135C730.853 166.785 730.653 167.34 730.393 167.8ZM741.171 169.135C740.431 169.135 739.791 168.98 739.251 168.67C738.721 168.36 738.306 167.92 738.006 167.35C737.706 166.78 737.556 166.11 737.556 165.34C737.556 164.56 737.706 163.89 738.006 163.33C738.306 162.76 738.721 162.32 739.251 162.01C739.791 161.7 740.431 161.545 741.171 161.545C741.901 161.545 742.531 161.7 743.061 162.01C743.601 162.32 744.021 162.76 744.321 163.33C744.621 163.9 744.771 164.57 744.771 165.34C744.771 166.11 744.621 166.78 744.321 167.35C744.021 167.92 743.601 168.36 743.061 168.67C742.531 168.98 741.901 169.135 741.171 169.135ZM741.156 167.965C741.786 167.965 742.291 167.74 742.671 167.29C743.051 166.84 743.241 166.19 743.241 165.34C743.241 164.48 743.051 163.83 742.671 163.39C742.291 162.95 741.786 162.73 741.156 162.73C740.536 162.73 740.036 162.95 739.656 163.39C739.276 163.83 739.086 164.48 739.086 165.34C739.086 166.19 739.276 166.84 739.656 167.29C740.036 167.74 740.536 167.965 741.156 167.965ZM746.172 169.195L745.662 167.995C745.992 167.865 746.267 167.695 746.487 167.485C746.717 167.275 746.897 167.01 747.027 166.69C747.157 166.36 747.252 165.955 747.312 165.475C747.372 164.995 747.402 164.415 747.402 163.735V161.68H752.982V169H751.467V162.895H748.812V163.78C748.812 164.61 748.762 165.335 748.662 165.955C748.562 166.565 748.407 167.085 748.197 167.515C747.987 167.945 747.712 168.295 747.372 168.565C747.042 168.835 746.642 169.045 746.172 169.195ZM754.091 169L755.606 166.39C755.816 166.03 756.011 165.74 756.191 165.52C756.381 165.3 756.581 165.135 756.791 165.025C757.011 164.915 757.256 164.845 757.526 164.815L757.196 165.295L754.436 161.68H756.086L758.351 164.65H759.401V161.68H760.916V164.65H761.951L764.216 161.68H765.851L763.106 165.295L762.776 164.815C763.046 164.845 763.286 164.915 763.496 165.025C763.706 165.135 763.906 165.3 764.096 165.52C764.296 165.74 764.496 166.03 764.696 166.39L766.211 169H764.591L763.316 166.81C763.166 166.55 763.016 166.35 762.866 166.21C762.726 166.07 762.571 165.975 762.401 165.925C762.231 165.865 762.021 165.835 761.771 165.835H760.916V169H759.401V165.835H758.546C758.286 165.835 758.071 165.865 757.901 165.925C757.731 165.975 757.576 166.07 757.436 166.21C757.296 166.35 757.146 166.55 756.986 166.81L755.711 169H754.091ZM767.302 169V161.68H768.817V164.635H772.462V161.68H773.977V169H772.462V165.835H768.817V169H767.302ZM779.433 169.135C778.693 169.135 778.053 168.98 777.513 168.67C776.983 168.36 776.568 167.92 776.268 167.35C775.968 166.78 775.818 166.11 775.818 165.34C775.818 164.56 775.968 163.89 776.268 163.33C776.568 162.76 776.983 162.32 777.513 162.01C778.053 161.7 778.693 161.545 779.433 161.545C780.163 161.545 780.793 161.7 781.323 162.01C781.863 162.32 782.283 162.76 782.583 163.33C782.883 163.9 783.033 164.57 783.033 165.34C783.033 166.11 782.883 166.78 782.583 167.35C782.283 167.92 781.863 168.36 781.323 168.67C780.793 168.98 780.163 169.135 779.433 169.135ZM779.418 167.965C780.048 167.965 780.553 167.74 780.933 167.29C781.313 166.84 781.503 166.19 781.503 165.34C781.503 164.48 781.313 163.83 780.933 163.39C780.553 162.95 780.048 162.73 779.418 162.73C778.798 162.73 778.298 162.95 777.918 163.39C777.538 163.83 777.348 164.48 777.348 165.34C777.348 166.19 777.538 166.84 777.918 167.29C778.298 167.74 778.798 167.965 779.418 167.965ZM788.135 169.135C787.385 169.135 786.735 168.98 786.185 168.67C785.645 168.35 785.225 167.905 784.925 167.335C784.625 166.755 784.475 166.075 784.475 165.295C784.475 164.525 784.625 163.86 784.925 163.3C785.225 162.74 785.645 162.31 786.185 162.01C786.735 161.7 787.385 161.545 788.135 161.545C788.595 161.545 789.05 161.625 789.5 161.785C789.95 161.935 790.32 162.155 790.61 162.445L790.13 163.51C789.86 163.25 789.555 163.06 789.215 162.94C788.875 162.81 788.555 162.745 788.255 162.745C787.545 162.745 786.995 162.97 786.605 163.42C786.225 163.86 786.035 164.49 786.035 165.31C786.035 166.13 786.225 166.775 786.605 167.245C786.995 167.705 787.545 167.935 788.255 167.935C788.555 167.935 788.875 167.875 789.215 167.755C789.555 167.625 789.86 167.43 790.13 167.17L790.61 168.25C790.32 168.52 789.945 168.735 789.485 168.895C789.035 169.055 788.585 169.135 788.135 169.135ZM793.603 169V162.895H791.023V161.68H797.713V162.895H795.118V169H793.603ZM798.928 169V161.68H800.443V164.215H802.528C803.468 164.215 804.183 164.42 804.673 164.83C805.163 165.23 805.408 165.815 805.408 166.585C805.408 167.075 805.293 167.505 805.063 167.875C804.833 168.235 804.503 168.515 804.073 168.715C803.643 168.905 803.128 169 802.528 169H798.928ZM800.443 167.965H802.333C802.853 167.965 803.258 167.855 803.548 167.635C803.838 167.405 803.983 167.055 803.983 166.585C803.983 166.125 803.838 165.79 803.548 165.58C803.258 165.36 802.853 165.25 802.333 165.25H800.443V167.965Z" fill="white"/>
<path d="M1215.06 169V167.695H1217.46V159.745H1218.24L1215.58 161.395L1214.95 160.24L1217.91 158.425H1219V167.695H1221.25V169H1215.06ZM1223.57 169V167.845L1227.1 164.065C1227.43 163.705 1227.69 163.375 1227.89 163.075C1228.09 162.765 1228.24 162.47 1228.33 162.19C1228.43 161.9 1228.48 161.61 1228.48 161.32C1228.48 160.76 1228.31 160.335 1227.97 160.045C1227.63 159.755 1227.13 159.61 1226.47 159.61C1225.96 159.61 1225.47 159.705 1225.01 159.895C1224.56 160.085 1224.13 160.375 1223.72 160.765L1223.17 159.58C1223.57 159.19 1224.08 158.88 1224.7 158.65C1225.32 158.41 1225.96 158.29 1226.63 158.29C1227.36 158.29 1227.98 158.405 1228.48 158.635C1228.99 158.855 1229.37 159.18 1229.63 159.61C1229.89 160.04 1230.02 160.565 1230.02 161.185C1230.02 161.505 1229.98 161.82 1229.9 162.13C1229.83 162.43 1229.72 162.73 1229.56 163.03C1229.41 163.33 1229.21 163.64 1228.97 163.96C1228.74 164.28 1228.46 164.61 1228.13 164.95L1225.12 168.13V167.695H1230.44V169H1223.57ZM1232.18 169V167.215H1233.96V169H1232.18ZM1236.35 169L1241.51 159.145V159.73H1235.78V158.425H1242.94V159.58L1238.06 169H1236.35ZM1248.35 169.135C1247.14 169.135 1246.19 168.875 1245.51 168.355C1244.84 167.835 1244.51 167.11 1244.51 166.18C1244.51 165.68 1244.61 165.24 1244.81 164.86C1245.01 164.47 1245.29 164.155 1245.65 163.915C1246.01 163.675 1246.42 163.525 1246.89 163.465V163.735C1246.46 163.645 1246.09 163.48 1245.77 163.24C1245.45 162.99 1245.2 162.685 1245.02 162.325C1244.85 161.955 1244.76 161.55 1244.76 161.11C1244.76 160.23 1245.09 159.54 1245.74 159.04C1246.39 158.54 1247.26 158.29 1248.35 158.29C1249.45 158.29 1250.32 158.54 1250.97 159.04C1251.62 159.54 1251.95 160.23 1251.95 161.11C1251.95 161.55 1251.86 161.955 1251.68 162.325C1251.51 162.685 1251.26 162.99 1250.94 163.24C1250.62 163.48 1250.25 163.64 1249.82 163.72V163.465C1250.3 163.525 1250.71 163.68 1251.06 163.93C1251.41 164.17 1251.69 164.48 1251.89 164.86C1252.09 165.24 1252.19 165.68 1252.19 166.18C1252.19 167.11 1251.85 167.835 1251.17 168.355C1250.5 168.875 1249.56 169.135 1248.35 169.135ZM1248.35 167.905C1249.14 167.905 1249.73 167.755 1250.13 167.455C1250.53 167.145 1250.73 166.685 1250.73 166.075C1250.73 165.465 1250.53 165.01 1250.13 164.71C1249.73 164.41 1249.14 164.26 1248.35 164.26C1247.57 164.26 1246.97 164.41 1246.56 164.71C1246.16 165.01 1245.96 165.465 1245.96 166.075C1245.96 166.685 1246.16 167.145 1246.56 167.455C1246.97 167.755 1247.57 167.905 1248.35 167.905ZM1248.35 163.03C1249.02 163.03 1249.54 162.875 1249.91 162.565C1250.29 162.245 1250.48 161.81 1250.48 161.26C1250.48 160.72 1250.29 160.295 1249.91 159.985C1249.54 159.675 1249.02 159.52 1248.35 159.52C1247.68 159.52 1247.16 159.675 1246.79 159.985C1246.42 160.295 1246.23 160.72 1246.23 161.26C1246.23 161.81 1246.42 162.245 1246.79 162.565C1247.16 162.875 1247.68 163.03 1248.35 163.03ZM1254.07 169V158.425H1258.48C1259.58 158.425 1260.43 158.67 1261.03 159.16C1261.64 159.64 1261.95 160.315 1261.95 161.185C1261.95 161.825 1261.76 162.365 1261.38 162.805C1261 163.245 1260.48 163.54 1259.83 163.69V163.465C1260.32 163.535 1260.74 163.685 1261.09 163.915C1261.45 164.135 1261.73 164.43 1261.92 164.8C1262.11 165.16 1262.2 165.585 1262.2 166.075C1262.2 166.695 1262.06 167.225 1261.78 167.665C1261.5 168.105 1261.1 168.44 1260.57 168.67C1260.04 168.89 1259.4 169 1258.66 169H1254.07ZM1255.57 167.8H1258.48C1258.78 167.8 1259.05 167.78 1259.28 167.74C1259.52 167.69 1259.72 167.62 1259.89 167.53C1260.07 167.43 1260.22 167.31 1260.34 167.17C1260.46 167.02 1260.55 166.85 1260.6 166.66C1260.66 166.47 1260.69 166.255 1260.69 166.015C1260.69 165.775 1260.66 165.56 1260.6 165.37C1260.55 165.18 1260.46 165.015 1260.34 164.875C1260.22 164.735 1260.07 164.62 1259.89 164.53C1259.72 164.43 1259.52 164.36 1259.28 164.32C1259.05 164.27 1258.78 164.245 1258.48 164.245H1255.57V167.8ZM1255.57 163.045H1258.24C1258.96 163.045 1259.51 162.9 1259.88 162.61C1260.25 162.32 1260.43 161.895 1260.43 161.335C1260.43 160.775 1260.25 160.35 1259.88 160.06C1259.51 159.77 1258.96 159.625 1258.24 159.625H1255.57V163.045ZM1268.61 169V166.84H1267.28V165.745H1268.61V164.53H1267.28V163.435H1268.61V158.425H1272.12C1272.88 158.425 1273.53 158.555 1274.06 158.815C1274.59 159.065 1274.99 159.42 1275.26 159.88C1275.53 160.34 1275.66 160.89 1275.66 161.53C1275.66 162.14 1275.52 162.67 1275.24 163.12C1274.96 163.56 1274.57 163.905 1274.06 164.155C1273.55 164.405 1272.94 164.53 1272.23 164.53H1270.19V165.745H1272.71V166.84H1270.19V169H1268.61ZM1270.16 163.435H1271.97C1272.68 163.435 1273.22 163.29 1273.59 163C1273.97 162.7 1274.16 162.24 1274.16 161.62C1274.16 160.99 1273.98 160.52 1273.61 160.21C1273.24 159.9 1272.69 159.745 1271.96 159.745H1270.16V163.435Z" fill="white"/>
<circle cx="692" cy="132" r="6" fill="#2EBD85"/>
<path d="M711.23 137V126.425H712.79V131.03H714.68L714.32 131.285L717.455 126.425H719.18L715.775 131.555L715.19 131.09C715.6 131.14 715.97 131.26 716.3 131.45C716.64 131.63 716.94 131.875 717.2 132.185C717.47 132.485 717.71 132.85 717.92 133.28L719.735 137H718.055L716.615 133.925C716.345 133.355 716.03 132.95 715.67 132.71C715.31 132.46 714.865 132.335 714.335 132.335H712.79V137H711.23ZM723.339 137.135C722.829 137.135 722.369 137.035 721.959 136.835C721.559 136.635 721.244 136.365 721.014 136.025C720.784 135.685 720.669 135.3 720.669 134.87C720.669 134.33 720.804 133.905 721.074 133.595C721.354 133.275 721.809 133.05 722.439 132.92C723.079 132.78 723.939 132.71 725.019 132.71H725.724V133.64H725.034C724.494 133.64 724.039 133.66 723.669 133.7C723.299 133.74 723.004 133.805 722.784 133.895C722.564 133.975 722.404 134.09 722.304 134.24C722.214 134.39 722.169 134.57 722.169 134.78C722.169 135.16 722.299 135.47 722.559 135.71C722.819 135.94 723.179 136.055 723.639 136.055C724.009 136.055 724.334 135.97 724.614 135.8C724.894 135.62 725.114 135.38 725.274 135.08C725.444 134.78 725.529 134.435 725.529 134.045V132.32C725.529 131.75 725.409 131.34 725.169 131.09C724.929 130.84 724.534 130.715 723.984 130.715C723.564 130.715 723.144 130.78 722.724 130.91C722.304 131.03 721.874 131.225 721.434 131.495L720.969 130.43C721.229 130.25 721.529 130.095 721.869 129.965C722.209 129.835 722.564 129.735 722.934 129.665C723.314 129.585 723.679 129.545 724.029 129.545C724.699 129.545 725.249 129.65 725.679 129.86C726.119 130.07 726.444 130.39 726.654 130.82C726.864 131.25 726.969 131.805 726.969 132.485V137H725.544V135.365H725.679C725.599 135.735 725.449 136.055 725.229 136.325C725.019 136.585 724.754 136.785 724.434 136.925C724.114 137.065 723.749 137.135 723.339 137.135ZM729.216 137V129.68H735.846V137H734.331V130.895H730.731V137H729.216ZM738.108 137V129.68H739.488V135.5H739.098L743.448 129.68H744.723V137H743.343V131.18H743.748L739.383 137H738.108ZM748.529 137V130.895H745.949V129.68H752.639V130.895H750.044V137H748.529ZM756.21 137.135C755.7 137.135 755.24 137.035 754.83 136.835C754.43 136.635 754.115 136.365 753.885 136.025C753.655 135.685 753.54 135.3 753.54 134.87C753.54 134.33 753.675 133.905 753.945 133.595C754.225 133.275 754.68 133.05 755.31 132.92C755.95 132.78 756.81 132.71 757.89 132.71H758.595V133.64H757.905C757.365 133.64 756.91 133.66 756.54 133.7C756.17 133.74 755.875 133.805 755.655 133.895C755.435 133.975 755.275 134.09 755.175 134.24C755.085 134.39 755.04 134.57 755.04 134.78C755.04 135.16 755.17 135.47 755.43 135.71C755.69 135.94 756.05 136.055 756.51 136.055C756.88 136.055 757.205 135.97 757.485 135.8C757.765 135.62 757.985 135.38 758.145 135.08C758.315 134.78 758.4 134.435 758.4 134.045V132.32C758.4 131.75 758.28 131.34 758.04 131.09C757.8 130.84 757.405 130.715 756.855 130.715C756.435 130.715 756.015 130.78 755.595 130.91C755.175 131.03 754.745 131.225 754.305 131.495L753.84 130.43C754.1 130.25 754.4 130.095 754.74 129.965C755.08 129.835 755.435 129.735 755.805 129.665C756.185 129.585 756.55 129.545 756.9 129.545C757.57 129.545 758.12 129.65 758.55 129.86C758.99 130.07 759.315 130.39 759.525 130.82C759.735 131.25 759.84 131.805 759.84 132.485V137H758.415V135.365H758.55C758.47 135.735 758.32 136.055 758.1 136.325C757.89 136.585 757.625 136.785 757.305 136.925C756.985 137.065 756.62 137.135 756.21 137.135ZM761.772 137.195L761.262 135.995C761.592 135.865 761.867 135.695 762.087 135.485C762.317 135.275 762.497 135.01 762.627 134.69C762.757 134.36 762.852 133.955 762.912 133.475C762.972 132.995 763.002 132.415 763.002 131.735V129.68H768.582V137H767.067V130.895H764.412V131.78C764.412 132.61 764.362 133.335 764.262 133.955C764.162 134.565 764.007 135.085 763.797 135.515C763.587 135.945 763.312 136.295 762.972 136.565C762.642 136.835 762.242 137.045 761.772 137.195ZM770.862 137V129.68H772.242V135.5H771.852L776.202 129.68H777.477V137H776.097V131.18H776.502L772.137 137H770.862ZM782.303 137.135C781.663 137.135 781.058 137.055 780.488 136.895C779.918 136.735 779.453 136.51 779.093 136.22L779.528 135.2C779.878 135.47 780.293 135.675 780.773 135.815C781.263 135.945 781.763 136.01 782.273 136.01C782.943 136.01 783.428 135.92 783.728 135.74C784.028 135.56 784.178 135.285 784.178 134.915C784.178 134.575 784.058 134.315 783.818 134.135C783.588 133.945 783.248 133.85 782.798 133.85H780.968V132.74H782.633C783.033 132.74 783.348 132.655 783.578 132.485C783.808 132.305 783.923 132.055 783.923 131.735C783.923 131.405 783.788 131.145 783.518 130.955C783.258 130.765 782.823 130.67 782.213 130.67C781.713 130.67 781.253 130.735 780.833 130.865C780.413 130.985 780.013 131.17 779.633 131.42L779.198 130.415C779.608 130.125 780.088 129.91 780.638 129.77C781.188 129.62 781.788 129.545 782.438 129.545C783.388 129.545 784.103 129.73 784.583 130.1C785.073 130.46 785.318 130.96 785.318 131.6C785.318 132.07 785.158 132.465 784.838 132.785C784.528 133.095 784.113 133.28 783.593 133.34V133.145C784.003 133.155 784.353 133.24 784.643 133.4C784.943 133.55 785.173 133.76 785.333 134.03C785.503 134.3 785.588 134.61 785.588 134.96C785.588 135.62 785.308 136.15 784.748 136.55C784.188 136.94 783.373 137.135 782.303 137.135ZM789.711 137.135C789.201 137.135 788.741 137.035 788.331 136.835C787.931 136.635 787.616 136.365 787.386 136.025C787.156 135.685 787.041 135.3 787.041 134.87C787.041 134.33 787.176 133.905 787.446 133.595C787.726 133.275 788.181 133.05 788.811 132.92C789.451 132.78 790.311 132.71 791.391 132.71H792.096V133.64H791.406C790.866 133.64 790.411 133.66 790.041 133.7C789.671 133.74 789.376 133.805 789.156 133.895C788.936 133.975 788.776 134.09 788.676 134.24C788.586 134.39 788.541 134.57 788.541 134.78C788.541 135.16 788.671 135.47 788.931 135.71C789.191 135.94 789.551 136.055 790.011 136.055C790.381 136.055 790.706 135.97 790.986 135.8C791.266 135.62 791.486 135.38 791.646 135.08C791.816 134.78 791.901 134.435 791.901 134.045V132.32C791.901 131.75 791.781 131.34 791.541 131.09C791.301 130.84 790.906 130.715 790.356 130.715C789.936 130.715 789.516 130.78 789.096 130.91C788.676 131.03 788.246 131.225 787.806 131.495L787.341 130.43C787.601 130.25 787.901 130.095 788.241 129.965C788.581 129.835 788.936 129.735 789.306 129.665C789.686 129.585 790.051 129.545 790.401 129.545C791.071 129.545 791.621 129.65 792.051 129.86C792.491 130.07 792.816 130.39 793.026 130.82C793.236 131.25 793.341 131.805 793.341 132.485V137H791.916V135.365H792.051C791.971 135.735 791.821 136.055 791.601 136.325C791.391 136.585 791.126 136.785 790.806 136.925C790.486 137.065 790.121 137.135 789.711 137.135ZM801.918 138.95V137H795.588V129.68H797.103V135.8H800.523V129.68H802.038V135.8H803.208V138.95H801.918ZM804.729 137V129.68H806.109V135.5H805.719L810.069 129.68H811.344V137H809.964V131.18H810.369L806.004 137H804.729ZM813.005 137L814.115 135.08C814.305 134.74 814.545 134.47 814.835 134.27C815.125 134.06 815.42 133.955 815.72 133.955H815.96V134.105C815.41 134.105 814.935 134.02 814.535 133.85C814.145 133.68 813.845 133.43 813.635 133.1C813.435 132.77 813.335 132.375 813.335 131.915C813.335 131.235 813.565 130.695 814.025 130.295C814.485 129.885 815.17 129.68 816.08 129.68H819.575V137H818.165V134.33H817.22C816.87 134.33 816.57 134.42 816.32 134.6C816.07 134.78 815.865 135.01 815.705 135.29L814.73 137H813.005ZM816.395 133.295H818.165V130.715H816.395C815.845 130.715 815.44 130.83 815.18 131.06C814.92 131.28 814.79 131.59 814.79 131.99C814.79 132.4 814.92 132.72 815.18 132.95C815.44 133.18 815.845 133.295 816.395 133.295Z" fill="white"/>
<path d="M1225.11 137V135.695H1227.51V127.745H1228.29L1225.63 129.395L1225 128.24L1227.96 126.425H1229.05V135.695H1231.3V137H1225.11ZM1233.23 137V135.215H1235.02V137H1233.23ZM1240.24 137.135C1239.77 137.135 1239.31 137.09 1238.86 137C1238.42 136.9 1238.01 136.76 1237.62 136.58C1237.24 136.39 1236.9 136.165 1236.61 135.905L1237.15 134.705C1237.62 135.085 1238.11 135.365 1238.61 135.545C1239.11 135.725 1239.64 135.815 1240.2 135.815C1240.68 135.815 1241.08 135.745 1241.41 135.605C1241.74 135.465 1241.99 135.26 1242.15 134.99C1242.32 134.72 1242.4 134.395 1242.4 134.015C1242.4 133.445 1242.21 133.02 1241.83 132.74C1241.46 132.45 1240.92 132.305 1240.21 132.305H1238.58V131H1240.06C1240.49 131 1240.86 130.93 1241.16 130.79C1241.46 130.64 1241.69 130.435 1241.85 130.175C1242.02 129.905 1242.1 129.58 1242.1 129.2C1242.1 128.69 1241.93 128.3 1241.59 128.03C1241.26 127.75 1240.78 127.61 1240.14 127.61C1239.6 127.61 1239.1 127.705 1238.64 127.895C1238.18 128.085 1237.74 128.375 1237.33 128.765L1236.79 127.58C1237.2 127.17 1237.71 126.855 1238.32 126.635C1238.94 126.405 1239.59 126.29 1240.26 126.29C1240.96 126.29 1241.56 126.4 1242.06 126.62C1242.57 126.84 1242.95 127.155 1243.21 127.565C1243.48 127.975 1243.62 128.465 1243.62 129.035C1243.62 129.675 1243.44 130.23 1243.08 130.7C1242.73 131.16 1242.24 131.465 1241.62 131.615V131.45C1242.11 131.53 1242.53 131.69 1242.87 131.93C1243.21 132.17 1243.47 132.475 1243.65 132.845C1243.83 133.215 1243.92 133.64 1243.92 134.12C1243.92 134.74 1243.77 135.28 1243.47 135.74C1243.18 136.19 1242.76 136.535 1242.21 136.775C1241.66 137.015 1241 137.135 1240.24 137.135ZM1246.4 137L1251.56 127.145V127.73H1245.83V126.425H1252.99V127.58L1248.11 137H1246.4ZM1257.71 137V127.73H1253.96V126.425H1263V127.73H1259.25V137H1257.71ZM1268.61 137V134.84H1267.28V133.745H1268.61V132.53H1267.28V131.435H1268.61V126.425H1272.12C1272.88 126.425 1273.53 126.555 1274.06 126.815C1274.59 127.065 1274.99 127.42 1275.26 127.88C1275.53 128.34 1275.66 128.89 1275.66 129.53C1275.66 130.14 1275.52 130.67 1275.24 131.12C1274.96 131.56 1274.57 131.905 1274.06 132.155C1273.55 132.405 1272.94 132.53 1272.23 132.53H1270.19V133.745H1272.71V134.84H1270.19V137H1268.61ZM1270.16 131.435H1271.97C1272.68 131.435 1273.22 131.29 1273.59 131C1273.97 130.7 1274.16 130.24 1274.16 129.62C1274.16 128.99 1273.98 128.52 1273.61 128.21C1273.24 127.9 1272.69 127.745 1271.96 127.745H1270.16V131.435Z" fill="white"/>
<rect y="73" width="1260" height="2" fill="white" fill-opacity="0.08"/>
</svg>
