<svg width="17" height="16" viewBox="0 0 17 16" fill="none" xmlns="http://www.w3.org/2000/svg">
<path d="M1.83325 4L6.44193 6.61131C8.14098 7.574 8.85885 7.574 10.5579 6.61131L15.1666 4" stroke="currentColor" stroke-width="1.5" stroke-linejoin="round"/>
<path d="M1.84377 8.98377C1.88735 11.0275 1.90914 12.0493 2.66323 12.8063C3.41731 13.5632 4.46681 13.5896 6.56581 13.6423C7.85945 13.6748 9.14039 13.6748 10.4341 13.6423C12.5331 13.5896 13.5825 13.5632 14.3367 12.8063C15.0907 12.0493 15.1125 11.0275 15.1561 8.98377C15.1701 8.32664 15.1701 7.67344 15.1561 7.01631C15.1125 4.97261 15.0907 3.95077 14.3367 3.19381C13.5825 2.43686 12.5331 2.41049 10.4341 2.35775C9.14039 2.32525 7.85945 2.32525 6.5658 2.35775C4.4668 2.41048 3.41731 2.43685 2.66322 3.19381C1.90913 3.95076 1.88735 4.97261 1.84376 7.01631C1.82975 7.67344 1.82975 8.32664 1.84377 8.98377Z" stroke="currentColor" stroke-width="1.5" stroke-linejoin="round"/>
</svg>
