<svg width="20" height="20" viewBox="0 0 20 20" fill="none" xmlns="http://www.w3.org/2000/svg">
<path d="M15 1.66699V3.33366M5 1.66699V3.33366" stroke="currentColor" stroke-width="1.5" stroke-linecap="round" stroke-linejoin="round"/>
<path d="M9.99365 10.833H10.0011M9.99365 14.1663H10.0011M13.3232 10.833H13.3307M6.66406 10.833H6.67154M6.66406 14.1663H6.67154" stroke="currentColor" stroke-width="2" stroke-linecap="round" stroke-linejoin="round"/>
<path d="M2.91406 6.66699H17.0807" stroke="currentColor" stroke-width="1.5" stroke-linecap="round" stroke-linejoin="round"/>
<path d="M2.08594 10.2027C2.08594 6.57162 2.08594 4.75607 3.12937 3.62803C4.1728 2.5 5.85218 2.5 9.21094 2.5H10.7943C14.153 2.5 15.8324 2.5 16.8759 3.62803C17.9193 4.75607 17.9193 6.57162 17.9193 10.2027V10.6307C17.9193 14.2617 17.9193 16.0773 16.8759 17.2053C15.8324 18.3333 14.153 18.3333 10.7943 18.3333H9.21094C5.85218 18.3333 4.1728 18.3333 3.12937 17.2053C2.08594 16.0773 2.08594 14.2617 2.08594 10.6307V10.2027Z" stroke="currentColor" stroke-width="1.5" stroke-linecap="round" stroke-linejoin="round"/>
<path d="M2.5 6.66699H17.5" stroke="currentColor" stroke-width="1.5" stroke-linecap="round" stroke-linejoin="round"/>
</svg>
