<svg width="20" height="20" viewBox="0 0 20 20" fill="none" xmlns="http://www.w3.org/2000/svg">
<g clip-path="url(#clip0_1467_15530)">
<path d="M6.66406 13.3333L13.9308 12.7277C16.2046 12.5383 16.715 12.0417 16.967 9.77408L17.4974 5" stroke="currentColor" stroke-width="1.5" stroke-linecap="round"/>
<path d="M5 5H18.3333" stroke="currentColor" stroke-width="1.5" stroke-linecap="round"/>
<path d="M5.0026 18.3333C5.92308 18.3333 6.66927 17.5871 6.66927 16.6667C6.66927 15.7462 5.92308 15 5.0026 15C4.08213 15 3.33594 15.7462 3.33594 16.6667C3.33594 17.5871 4.08213 18.3333 5.0026 18.3333Z" stroke="currentColor" stroke-width="1.5"/>
<path d="M14.1667 18.3333C15.0871 18.3333 15.8333 17.5871 15.8333 16.6667C15.8333 15.7462 15.0871 15 14.1667 15C13.2462 15 12.5 15.7462 12.5 16.6667C12.5 17.5871 13.2462 18.3333 14.1667 18.3333Z" stroke="currentColor" stroke-width="1.5"/>
<path d="M6.66406 16.667H12.4974" stroke="currentColor" stroke-width="1.5" stroke-linecap="round"/>
<path d="M1.66406 1.66699H2.46906C3.2563 1.66699 3.94251 2.18748 4.13345 2.92943L6.61283 12.5641C6.73812 13.051 6.6309 13.5667 6.32093 13.9683L5.52417 15.0003" stroke="currentColor" stroke-width="1.5" stroke-linecap="round"/>
</g>
<defs>
<clipPath id="clip0_1467_15530">
<rect width="20" height="20" fill="white"/>
</clipPath>
</defs>
</svg>
