<svg width="20" height="20" viewBox="0 0 20 20" fill="none" xmlns="http://www.w3.org/2000/svg">
<g clip-path="url(#clip0_1467_15601)">
<path d="M17.5 14.1663L15 8.33301L12.5 14.1663" stroke="#B0B0B0" stroke-width="1.5" stroke-linecap="round" stroke-linejoin="round"/>
<path d="M7.5 14.1663L5 8.33301L2.5 14.1663" stroke="#B0B0B0" stroke-width="1.5" stroke-linecap="round" stroke-linejoin="round"/>
<path d="M3.33594 8.33334H4.20944C5.26232 8.33334 6.28385 7.74555 7.10602 6.66667C8.79944 4.44444 11.2058 4.44444 12.8992 6.66667C13.7214 7.74555 14.7429 8.33334 15.7958 8.33334H16.6693" stroke="#B0B0B0" stroke-width="1.5" stroke-linecap="round" stroke-linejoin="round"/>
<path d="M14.9974 18.3337C16.2977 18.3337 17.4292 17.4572 18.0125 16.1648C18.3063 15.5137 18.4532 15.1882 18.2037 14.6776C17.9543 14.167 17.5412 14.167 16.7149 14.167H13.2799C12.4537 14.167 12.0405 14.167 11.7911 14.6776C11.5416 15.1882 11.6885 15.5137 11.9823 16.1648C12.5656 17.4572 13.6972 18.3337 14.9974 18.3337Z" stroke="#B0B0B0" stroke-width="1.5"/>
<path d="M4.9974 18.3337C6.29769 18.3337 7.42923 17.4572 8.01247 16.1648C8.3063 15.5137 8.45323 15.1882 8.20375 14.6776C7.9543 14.167 7.54115 14.167 6.71487 14.167H3.27992C2.45364 14.167 2.04049 14.167 1.79104 14.6776C1.54158 15.1882 1.6885 15.5137 1.98232 16.1648C2.56556 17.4572 3.6971 18.3337 4.9974 18.3337Z" stroke="#B0B0B0" stroke-width="1.5"/>
<path d="M11.6693 3.33366C11.6693 4.25413 10.9231 5.00033 10.0026 5.00033C9.0821 5.00033 8.33594 4.25413 8.33594 3.33366C8.33594 2.41318 9.0821 1.66699 10.0026 1.66699C10.9231 1.66699 11.6693 2.41318 11.6693 3.33366Z" stroke="#B0B0B0" stroke-width="1.5"/>
</g>
<defs>
<clipPath id="clip0_1467_15601">
<rect width="20" height="20" fill="white"/>
</clipPath>
</defs>
</svg>
