<svg width="20" height="20" viewBox="0 0 20 20" fill="none" xmlns="http://www.w3.org/2000/svg">
<g clip-path="url(#clip0_1467_15495)">
<path d="M16.6641 7.50033C16.0014 4.17912 12.9247 1.66699 9.23015 1.66699C5.05197 1.66699 1.66406 4.87967 1.66406 8.84199C1.66406 10.7458 2.44589 12.4757 3.72119 13.7593C4.00197 14.042 4.18944 14.4282 4.11378 14.8256C3.98891 15.4754 3.70595 16.0816 3.2916 16.5867C4.38175 16.7877 5.51529 16.6067 6.4874 16.0942C6.83105 15.9132 7.00287 15.8226 7.12412 15.8042C7.209 15.7913 7.31955 15.8033 7.4974 15.8338" stroke="currentColor" stroke-width="1.5" stroke-linecap="round" stroke-linejoin="round"/>
<path d="M9.16406 13.5517C9.16406 15.9732 11.2164 17.9365 13.7474 17.9365C14.045 17.9368 14.3417 17.9093 14.6341 17.8545C14.8445 17.8149 14.9497 17.7952 15.0231 17.8064C15.0966 17.8176 15.2007 17.873 15.4089 17.9837C15.9977 18.2968 16.6844 18.4074 17.3448 18.2846C17.0938 17.9759 16.9224 17.6055 16.8467 17.2083C16.8009 16.9655 16.9145 16.7295 17.0846 16.5567C17.8571 15.7722 18.3307 14.7152 18.3307 13.5517C18.3307 11.1303 16.2784 9.16699 13.7474 9.16699C11.2164 9.16699 9.16406 11.1303 9.16406 13.5517Z" stroke="currentColor" stroke-width="1.5" stroke-linejoin="round"/>
</g>
<defs>
<clipPath id="clip0_1467_15495">
<rect width="20" height="20" fill="currentColor"/>
</clipPath>
</defs>
</svg>
