<svg width="20" height="20" viewBox="0 0 20 20" fill="none" xmlns="http://www.w3.org/2000/svg">
<path d="M2.08203 9.99967C2.08203 6.26772 2.08203 4.40175 3.2414 3.24237C4.40077 2.08301 6.26675 2.08301 9.9987 2.08301C13.7306 2.08301 15.5966 2.08301 16.756 3.24237C17.9154 4.40175 17.9154 6.26772 17.9154 9.99967C17.9154 13.7316 17.9154 15.5976 16.756 16.757C15.5966 17.9163 13.7306 17.9163 9.9987 17.9163C6.26675 17.9163 4.40077 17.9163 3.2414 16.757C2.08203 15.5976 2.08203 13.7316 2.08203 9.99967Z" stroke="currentColor" stroke-width="1.5" stroke-linejoin="round"/>
<path d="M2.08203 12.0833H2.53099C2.92458 12.0833 3.12137 12.0833 3.2925 12.0011C3.46362 11.9188 3.58656 11.7652 3.83244 11.4578L4.9987 10L6.2487 12.0833L7.4987 9.16667L9.58203 13.3333L12.4987 7.5L14.1654 10.4167L15.4154 9.16667L16.6198 10.9733C16.8298 11.2883 16.9348 11.4458 17.0882 11.5412C17.1187 11.5601 17.1504 11.5771 17.183 11.5919C17.3474 11.6667 17.5368 11.6667 17.9154 11.6667" stroke="currentColor" stroke-width="1.5" stroke-linejoin="round"/>
<path d="M12.5 2.08301V4.58301M12.5 17.9163V12.083" stroke="currentColor" stroke-width="1.5" stroke-linecap="round" stroke-linejoin="round"/>
<path d="M12.5013 8.33366C12.9615 8.33366 13.3346 7.96056 13.3346 7.50033C13.3346 7.04009 12.9615 6.66699 12.5013 6.66699C12.0411 6.66699 11.668 7.04009 11.668 7.50033C11.668 7.96056 12.0411 8.33366 12.5013 8.33366Z" stroke="currentColor" stroke-width="1.5" stroke-linejoin="round"/>
</svg>
