<svg width="20" height="20" viewBox="0 0 20 20" fill="none" xmlns="http://www.w3.org/2000/svg">
<path d="M13.3359 4.99967H15.8359C16.057 4.99967 16.2689 5.08747 16.4252 5.24375C16.5815 5.40003 16.6693 5.61199 16.6693 5.83301V14.9997C16.6693 15.4417 16.4937 15.8656 16.1811 16.1782C15.8686 16.4907 15.4446 16.6663 15.0026 16.6663M15.0026 16.6663C14.5606 16.6663 14.1367 16.4907 13.8241 16.1782C13.5115 15.8656 13.3359 15.4417 13.3359 14.9997V4.16634C13.3359 3.94533 13.2481 3.73337 13.0919 3.57709C12.9356 3.42081 12.7236 3.33301 12.5026 3.33301H4.16927C3.94826 3.33301 3.7363 3.42081 3.58002 3.57709C3.42374 3.73337 3.33594 3.94533 3.33594 4.16634V14.1663C3.33594 14.8294 3.59933 15.4653 4.06817 15.9341C4.53701 16.4029 5.1729 16.6663 5.83594 16.6663H15.0026Z" stroke="currentColor" stroke-width="1.5" stroke-linecap="round" stroke-linejoin="round"/>
<path d="M6.66406 6.66699H9.9974" stroke="currentColor" stroke-width="1.5" stroke-linecap="round" stroke-linejoin="round"/>
<path d="M6.66406 10H9.9974" stroke="currentColor" stroke-width="1.5" stroke-linecap="round" stroke-linejoin="round"/>
<path d="M6.66406 13.333H9.9974" stroke="currentColor" stroke-width="1.5" stroke-linecap="round" stroke-linejoin="round"/>
</svg>
