<svg width="42" height="42" viewBox="0 0 42 42" fill="none" xmlns="http://www.w3.org/2000/svg">
<path d="M34.4453 15.4999C33.0758 8.63606 26.7174 3.44434 19.0819 3.44434C10.447 3.44434 3.44531 10.0839 3.44531 18.2727C3.44531 22.2073 5.06108 25.7822 7.6967 28.4352C8.27699 29.0193 8.66442 29.8174 8.50806 30.6387C8.25 31.9817 7.6652 33.2345 6.8089 34.2785C9.06188 34.6939 11.4045 34.3198 13.4136 33.2607C14.1238 32.8864 14.4788 32.6992 14.7294 32.6611C14.9048 32.6346 15.1333 32.6594 15.5009 32.7225" stroke="#808283" stroke-width="2.58333" stroke-linecap="round" stroke-linejoin="round"/>
<path d="M18.9443 28.0062C18.9443 33.0104 23.1858 37.068 28.4166 37.068C29.0316 37.0687 29.6448 37.0118 30.249 36.8985C30.6839 36.8167 30.9014 36.7759 31.0531 36.7991C31.2048 36.8222 31.4201 36.9367 31.8503 37.1654C33.0672 37.8127 34.4864 38.0412 35.8512 37.7873C35.3325 37.1494 34.9782 36.3839 34.8218 35.5631C34.7271 35.0612 34.9619 34.5735 35.3134 34.2165C36.91 32.5952 37.8888 30.4105 37.8888 28.0062C37.8888 23.0019 33.6473 18.9443 28.4166 18.9443C23.1858 18.9443 18.9443 23.0019 18.9443 28.0062Z" stroke="#808283" stroke-width="2.58333" stroke-linejoin="round"/>
</svg>
