<svg width="24" height="24" viewBox="0 0 24 24" fill="none" xmlns="http://www.w3.org/2000/svg">
<path fill-rule="evenodd" clip-rule="evenodd" d="M4.875 4.5C4.57663 4.5 4.29048 4.61853 4.0795 4.8295C3.86853 5.04048 3.75 5.32663 3.75 5.625V9C3.75 9.41421 3.41421 9.75 3 9.75C2.58579 9.75 2.25 9.41421 2.25 9V5.625C2.25 4.92881 2.52656 4.26113 3.01884 3.76884C3.51113 3.27656 4.17881 3 4.875 3H8.43234C8.95062 3.00001 9.45731 3.15345 9.88853 3.44096C9.88854 3.44097 9.88856 3.44099 9.88858 3.441L11.1936 4.311C11.3784 4.43423 11.5955 4.49999 11.8177 4.5C11.8176 4.5 11.8177 4.5 11.8177 4.5H19.125C19.8212 4.5 20.4889 4.77656 20.9812 5.26884C21.4734 5.76113 21.75 6.42881 21.75 7.125V9C21.75 9.41421 21.4142 9.75 21 9.75C20.5858 9.75 20.25 9.41421 20.25 9V7.125C20.25 6.82663 20.1315 6.54048 19.9205 6.3295C19.7095 6.11853 19.4234 6 19.125 6H11.8177C11.2994 5.99999 10.7927 5.84655 10.3615 5.55904C10.3615 5.55903 10.3614 5.55901 10.3614 5.559L9.05642 4.689C8.87161 4.56577 8.65446 4.50001 8.43234 4.5C8.43234 4.5 8.43235 4.5 8.43234 4.5H4.875Z" fill="white"/>
<path fill-rule="evenodd" clip-rule="evenodd" d="M3.00004 9.75C2.89651 9.74999 2.7941 9.77142 2.69926 9.81294C2.60441 9.85446 2.51919 9.91516 2.44896 9.99122C2.37873 10.0673 2.325 10.1571 2.29117 10.2549C2.25795 10.351 2.24462 10.4528 2.25196 10.5542L3.0115 18.3018C3.01389 18.3261 3.01508 18.3506 3.01508 18.375C3.01508 18.673 3.13334 18.9589 3.34389 19.1698C3.55428 19.3806 3.83964 19.4993 4.13742 19.5H19.8627C20.1605 19.4993 20.4459 19.3806 20.6563 19.1698C20.8668 18.9589 20.9851 18.673 20.9851 18.375C20.9851 18.3506 20.9863 18.3261 20.9887 18.3018L21.7482 10.5542C21.7555 10.453 21.7423 10.3514 21.7092 10.2555C21.6755 10.1578 21.622 10.0681 21.552 9.99208C21.482 9.91605 21.3971 9.8553 21.3025 9.81364C21.2082 9.77211 21.1064 9.75045 21.0034 9.75H3.00004ZM3.00008 8.25C2.6895 8.24999 2.38228 8.31428 2.09777 8.43882C1.81324 8.56336 1.55757 8.74547 1.34688 8.97367C1.13618 9.20187 0.975009 9.47122 0.873516 9.76477C0.772023 10.0583 0.732405 10.3697 0.757155 10.6793C0.757513 10.6838 0.757911 10.6882 0.758349 10.6927L1.51538 18.4147C1.52568 19.0958 1.80038 19.7468 2.2823 20.2295C2.77359 20.7217 3.44009 20.9988 4.13549 21L4.1368 21H19.8634L19.8647 21C20.5601 20.9988 21.2266 20.7217 21.7179 20.2295C22.1998 19.7468 22.4745 19.0958 22.4848 18.4147L23.2418 10.6927C23.2423 10.6882 23.2427 10.6838 23.243 10.6793C23.2677 10.3703 23.2283 10.0595 23.1272 9.76643C23.0262 9.47337 22.8656 9.20435 22.6557 8.97625C22.4457 8.74816 22.1909 8.56591 21.9072 8.44093C21.6235 8.31596 21.3171 8.25096 21.0071 8.25L21.0048 8.25H3.00008C3.0001 8.25 3.00007 8.25 3.00008 8.25Z" fill="white"/>
</svg>
