<svg width="25" height="24" viewBox="0 0 25 24" fill="none" xmlns="http://www.w3.org/2000/svg">
    <path fill-rule="evenodd" clip-rule="evenodd"
        d="M5.37109 4.5C5.07273 4.5 4.78658 4.61853 4.5756 4.8295C4.36462 5.04048 4.24609 5.32663 4.24609 5.625V9C4.24609 9.41421 3.91031 9.75 3.49609 9.75C3.08188 9.75 2.74609 9.41421 2.74609 9V5.625C2.74609 4.92881 3.02266 4.26113 3.51494 3.76884C4.00722 3.27656 4.6749 3 5.37109 3H8.92844C9.44671 3.00001 9.95341 3.15345 10.3846 3.44096C10.3846 3.44097 10.3847 3.44099 10.3847 3.441L11.6897 4.311C11.8745 4.43423 12.0916 4.49999 12.3138 4.5C12.3137 4.5 12.3138 4.5 12.3138 4.5H19.6211C20.3173 4.5 20.985 4.77656 21.4772 5.26884C21.9695 5.76113 22.2461 6.42881 22.2461 7.125V9C22.2461 9.41421 21.9103 9.75 21.4961 9.75C21.0819 9.75 20.7461 9.41421 20.7461 9V7.125C20.7461 6.82663 20.6276 6.54048 20.4166 6.3295C20.2056 6.11853 19.9195 6 19.6211 6H12.3138C11.7955 5.99999 11.2888 5.84655 10.8576 5.55904C10.8575 5.55903 10.8575 5.55901 10.8575 5.559L9.55251 4.689C9.36771 4.56577 9.15056 4.50001 8.92844 4.5C8.92843 4.5 8.92844 4.5 8.92844 4.5H5.37109Z"
        fill="white" />
    <path fill-rule="evenodd" clip-rule="evenodd"
        d="M3.49614 9.75C3.3926 9.74999 3.29019 9.77142 3.19535 9.81294C3.10051 9.85446 3.01528 9.91516 2.94505 9.99122C2.87482 10.0673 2.8211 10.1571 2.78727 10.2549C2.75404 10.351 2.74071 10.4528 2.74806 10.5542L3.5076 18.3018C3.50998 18.3261 3.51118 18.3506 3.51118 18.375C3.51118 18.673 3.62943 18.9589 3.83999 19.1698C4.05037 19.3806 4.33574 19.4993 4.63351 19.5H20.3588C20.6566 19.4993 20.942 19.3806 21.1524 19.1698C21.3629 18.9589 21.4812 18.673 21.4812 18.375C21.4812 18.3506 21.4824 18.3261 21.4848 18.3018L22.2443 10.5542C22.2516 10.453 22.2384 10.3514 22.2053 10.2555C22.1716 10.1578 22.1181 10.0681 22.0481 9.99208C21.9781 9.91605 21.8932 9.8553 21.7986 9.81364C21.7043 9.77211 21.6025 9.75045 21.4995 9.75H3.49614ZM3.49618 8.25C3.1856 8.24999 2.87838 8.31428 2.59386 8.43882C2.30933 8.56336 2.05367 8.74547 1.84297 8.97367C1.63227 9.20187 1.4711 9.47122 1.36961 9.76477C1.26812 10.0583 1.2285 10.3697 1.25325 10.6793C1.25361 10.6838 1.254 10.6882 1.25444 10.6927L2.01148 18.4147C2.02177 19.0958 2.29647 19.7468 2.7784 20.2295C3.26969 20.7217 3.93619 20.9988 4.63158 21L4.6329 21H20.3595L20.3608 21C21.0562 20.9988 21.7227 20.7217 22.214 20.2295C22.6959 19.7468 22.9706 19.0958 22.9809 18.4147L23.7379 10.6927C23.7383 10.6882 23.7387 10.6838 23.7391 10.6793C23.7638 10.3703 23.7244 10.0595 23.6233 9.76643C23.5222 9.47337 23.3617 9.20435 23.1518 8.97625C22.9418 8.74816 22.687 8.56591 22.4033 8.44093C22.1196 8.31596 21.8132 8.25096 21.5032 8.25L21.5009 8.25H3.49618Z"
        fill="white" />
</svg>