<svg width="24" height="24" viewBox="0 0 24 24" fill="none" xmlns="http://www.w3.org/2000/svg">
<path fill-rule="evenodd" clip-rule="evenodd" d="M9.22361 3.77567C9.55938 2.64985 10.5415 1.5 12 1.5C13.4584 1.5 14.4409 2.64926 14.7785 3.77395C14.7801 3.77605 14.7824 3.77868 14.7853 3.78172C14.7923 3.78895 14.8001 3.79559 14.8075 3.80075C14.8132 3.80467 14.8166 3.80636 14.817 3.80656C15.6655 4.15581 16.664 4.71367 17.4449 5.73473C18.2322 6.76406 18.7444 8.19285 18.7444 10.1859C18.7444 11.8131 18.8845 12.8391 19.1052 13.5697C19.3196 14.2797 19.6206 14.7478 20.0188 15.253C20.2751 15.5783 20.2192 16.0499 19.8939 16.3063C19.5686 16.5626 19.097 16.5067 18.8406 16.1814C18.3725 15.5874 17.9559 14.9527 17.6692 14.0033C17.3888 13.0746 17.2444 11.8846 17.2444 10.1859C17.2444 8.46184 16.8068 7.36946 16.2535 6.64602C15.6939 5.91441 14.961 5.4879 14.2458 5.19356C13.8596 5.03476 13.4826 4.67989 13.3458 4.2188L13.3452 4.21656C13.1295 3.48116 12.5784 3 12 3C11.422 3 10.8716 3.48107 10.6576 4.21607L10.6571 4.21761C10.5193 4.68731 10.1372 5.03776 9.75161 5.19461C9.49264 5.30026 9.24104 5.42313 8.9985 5.56242C8.6393 5.76869 8.18089 5.64472 7.97461 5.28553C7.76834 4.92633 7.89231 4.46792 8.2515 4.26165C8.5523 4.08891 8.86433 3.93653 9.18551 3.80554L9.18647 3.80515C9.18602 3.80533 9.1905 3.80348 9.19811 3.79827C9.2056 3.79314 9.21302 3.78688 9.21923 3.78046C9.22097 3.77866 9.22243 3.77705 9.22361 3.77567ZM6.06895 8.84151C6.48241 8.86639 6.79743 9.22173 6.77255 9.6352C6.76195 9.81135 6.75656 9.99567 6.75656 10.1883C6.75656 12.2618 6.54127 13.5773 6.12426 14.5876C5.7616 15.4662 5.25506 16.0769 4.75266 16.6825C4.67949 16.7708 4.60639 16.8589 4.53385 16.9477L4.53371 16.9479C4.50382 16.9845 4.49544 17.0145 4.49338 17.0371C4.49107 17.0626 4.49587 17.0932 4.5119 17.1246C4.53965 17.179 4.60893 17.25 4.76344 17.25H15C15.4142 17.25 15.75 17.5858 15.75 18V18.75C15.75 19.7446 15.3549 20.6984 14.6516 21.4016C13.9484 22.1049 12.9946 22.5 12 22.5C11.0054 22.5 10.0516 22.1049 9.34835 21.4016C8.64509 20.6984 8.25 19.7446 8.25 18.75H4.76344C3.32649 18.75 2.43068 17.1511 3.37209 15.9989C3.37213 15.9988 3.37218 15.9987 3.37222 15.9987C3.45309 15.8997 3.53052 15.8059 3.60472 15.716C4.11101 15.1025 4.46695 14.6713 4.73773 14.0153C5.04669 13.2668 5.25656 12.1765 5.25656 10.1883C5.25656 9.96777 5.26273 9.75334 5.27526 9.54512C5.30013 9.13165 5.65548 8.81664 6.06895 8.84151ZM9.75 18.75C9.75 19.3467 9.98705 19.919 10.409 20.341C10.831 20.7629 11.4033 21 12 21C12.5967 21 13.169 20.7629 13.591 20.341C14.0129 19.919 14.25 19.3467 14.25 18.75H9.75Z" fill="white"/>
<path fill-rule="evenodd" clip-rule="evenodd" d="M2.46967 2.46967C2.76256 2.17678 3.23744 2.17678 3.53033 2.46967L21.5303 20.4697C21.8232 20.7626 21.8232 21.2374 21.5303 21.5303C21.2374 21.8232 20.7626 21.8232 20.4697 21.5303L2.46967 3.53033C2.17678 3.23744 2.17678 2.76256 2.46967 2.46967Z" fill="white"/>
</svg>
