<svg width="45" height="44" viewBox="0 0 45 44" fill="none" xmlns="http://www.w3.org/2000/svg">
<rect x="0.5" width="44" height="44" rx="22" fill="#523A83"/>
<path d="M29.1161 30H29.6063C30.7561 30 31.6707 29.4761 32.4919 28.7436C34.578 26.8826 29.6741 25 28 25M26 15.0688C26.2271 15.0237 26.4629 15 26.7048 15C28.5247 15 30 16.3432 30 18C30 19.6568 28.5247 21 26.7048 21C26.4629 21 26.2271 20.9763 26 20.9312" stroke="white" stroke-width="1.5" stroke-linecap="round"/>
<path d="M14.9813 26.1112C13.8023 26.743 10.7111 28.0331 12.5939 29.6474C13.5136 30.436 14.5379 31 15.8257 31H23.1743C24.4621 31 25.4864 30.436 26.4061 29.6474C28.2889 28.0331 25.1977 26.743 24.0187 26.1112C21.254 24.6296 17.746 24.6296 14.9813 26.1112Z" stroke="white" stroke-width="1.5"/>
<path d="M23.5 17.5C23.5 19.7091 21.7091 21.5 19.5 21.5C17.2909 21.5 15.5 19.7091 15.5 17.5C15.5 15.2909 17.2909 13.5 19.5 13.5C21.7091 13.5 23.5 15.2909 23.5 17.5Z" stroke="white" stroke-width="1.5"/>
</svg>
