<svg width="24" height="24" viewBox="0 0 24 24" fill="none" xmlns="http://www.w3.org/2000/svg">
<path d="M4.26759 4.32782C5.95399 3.02741 8.57337 2 12 2C15.4266 2 18.046 3.02741 19.7324 4.32782C19.9693 4.51048 20.0877 4.60181 20.1849 4.76366C20.2665 4.89952 20.3252 5.10558 20.3275 5.26404C20.3302 5.4528 20.2672 5.62069 20.1413 5.95648C19.8305 6.78539 19.6751 7.19984 19.6122 7.61031C19.533 8.12803 19.5322 8.25474 19.6053 8.77338C19.6632 9.18457 19.9795 10.0598 20.6121 11.8103C20.844 12.452 21 13.1792 21 14C21 17 18.5 19.375 16 20C13.8082 20.548 12.6667 21.3333 12 22C11.3333 21.3333 10.1918 20.548 8 20C5.5 19.375 3 17 3 14C3 13.1792 3.15595 12.452 3.38785 11.8103C4.0205 10.0598 4.33682 9.18457 4.39473 8.77338C4.46777 8.25474 4.46702 8.12803 4.38777 7.61031C4.32494 7.19984 4.16952 6.78539 3.85868 5.95648C3.73276 5.62069 3.6698 5.4528 3.67252 5.26404C3.6748 5.10558 3.73351 4.89952 3.81509 4.76366C3.91227 4.60181 4.03071 4.51048 4.26759 4.32782Z" stroke="white" stroke-width="1.5" stroke-linecap="round" stroke-linejoin="round"/>
<path d="M14.5 12H9.5" stroke="white" stroke-width="1.5" stroke-linecap="round" stroke-linejoin="round"/>
</svg>
