<svg width="20" height="20" viewBox="0 0 20 20" fill="none" xmlns="http://www.w3.org/2000/svg">
<path d="M5 1.66699L2.5 5.00033V16.667C2.5 17.109 2.67559 17.5329 2.98816 17.8455C3.30072 18.1581 3.72464 18.3337 4.16667 18.3337H15.8333C16.2754 18.3337 16.6993 18.1581 17.0118 17.8455C17.3244 17.5329 17.5 17.109 17.5 16.667V5.00033L15 1.66699H5Z" stroke="#B0B0B0" stroke-width="1.66667" stroke-linecap="round" stroke-linejoin="round"/>
<path d="M2.5 5H17.5" stroke="#B0B0B0" stroke-width="1.66667" stroke-linecap="round" stroke-linejoin="round"/>
<path d="M13.3346 8.33301C13.3346 9.21706 12.9834 10.0649 12.3583 10.69C11.7332 11.3152 10.8854 11.6663 10.0013 11.6663C9.11725 11.6663 8.2694 11.3152 7.64428 10.69C7.01916 10.0649 6.66797 9.21706 6.66797 8.33301" stroke="#B0B0B0" stroke-width="1.66667" stroke-linecap="round" stroke-linejoin="round"/>
</svg>
