<svg width="21" height="20" viewBox="0 0 21 20" fill="none" xmlns="http://www.w3.org/2000/svg">
<path d="M17.168 7.50033C16.5053 4.17912 13.4286 1.66699 9.73405 1.66699C5.55588 1.66699 2.16797 4.87967 2.16797 8.84199C2.16797 10.7458 2.94979 12.4757 4.22509 13.7593C4.50588 14.042 4.69334 14.4282 4.61769 14.8256C4.49282 15.4754 4.20985 16.0816 3.79551 16.5867C4.88566 16.7877 6.01919 16.6067 6.99131 16.0942C7.33496 15.9132 7.50678 15.8226 7.62803 15.8042C7.7129 15.7913 7.82346 15.8033 8.0013 15.8338" stroke="#B0B0B0" stroke-width="1.5" stroke-linecap="round" stroke-linejoin="round"/>
<path d="M9.66797 13.5517C9.66797 15.9732 11.7203 17.9365 14.2513 17.9365C14.5489 17.9368 14.8456 17.9093 15.138 17.8545C15.3484 17.8149 15.4536 17.7952 15.5271 17.8064C15.6005 17.8176 15.7046 17.873 15.9128 17.9837C16.5016 18.2968 17.1883 18.4074 17.8487 18.2846C17.5977 17.9759 17.4263 17.6055 17.3506 17.2083C17.3048 16.9655 17.4184 16.7295 17.5885 16.5567C18.3611 15.7722 18.8346 14.7152 18.8346 13.5517C18.8346 11.1303 16.7823 9.16699 14.2513 9.16699C11.7203 9.16699 9.66797 11.1303 9.66797 13.5517Z" stroke="#B0B0B0" stroke-width="1.5" stroke-linejoin="round"/>
</svg>
