<svg width="20" height="20" viewBox="0 0 20 20" fill="none" xmlns="http://www.w3.org/2000/svg">
<path d="M7.08203 12.0837H12.9154M7.08203 7.91699H9.9987" stroke="#B0B0B0" stroke-width="1.5" stroke-linecap="round" stroke-linejoin="round"/>
<path d="M11.8101 17.4084C15.296 17.1768 18.0726 14.3607 18.3011 10.8254C18.3458 10.1336 18.3458 9.41709 18.3011 8.72526C18.0726 5.18999 15.296 2.37395 11.8101 2.14223C10.6209 2.06318 9.3793 2.06335 8.19247 2.14223C4.70662 2.37395 1.92998 5.18999 1.7015 8.72526C1.65679 9.41709 1.65679 10.1336 1.7015 10.8254C1.78472 12.113 2.35416 13.3052 3.02456 14.3118C3.41381 15.0166 3.15692 15.8962 2.75147 16.6645C2.45914 17.2185 2.31297 17.4955 2.43033 17.6956C2.5477 17.8957 2.80985 17.9021 3.33416 17.9148C4.37102 17.9401 5.0702 17.6461 5.6252 17.2368C5.93997 17.0048 6.09736 16.8887 6.20583 16.8753C6.3143 16.862 6.52778 16.9499 6.95464 17.1258C7.3383 17.2838 7.78377 17.3813 8.19247 17.4084C9.3793 17.4873 10.6209 17.4875 11.8101 17.4084Z" stroke="#B0B0B0" stroke-width="1.5" stroke-linejoin="round"/>
</svg>
