<svg width="20" height="20" viewBox="0 0 20 20" fill="none" xmlns="http://www.w3.org/2000/svg">
<path d="M1.66797 9.99967C1.66797 7.05177 1.66797 5.57782 2.5453 4.59376C2.68563 4.43637 2.84029 4.2908 3.00752 4.15873C4.05308 3.33301 5.61915 3.33301 8.7513 3.33301H11.2513C14.3835 3.33301 15.9496 3.33301 16.9951 4.15873C17.1623 4.2908 17.317 4.43637 17.4573 4.59376C18.3346 5.57782 18.3346 7.05177 18.3346 9.99967C18.3346 12.9476 18.3346 14.4215 17.4573 15.4056C17.317 15.563 17.1623 15.7085 16.9951 15.8406C15.9496 16.6663 14.3835 16.6663 11.2513 16.6663H8.7513C5.61915 16.6663 4.05308 16.6663 3.00752 15.8406C2.84029 15.7085 2.68563 15.563 2.5453 15.4056C1.66797 14.4215 1.66797 12.9476 1.66797 9.99967Z" stroke="#B0B0B0" stroke-width="1.5" stroke-linecap="round" stroke-linejoin="round"/>
<path d="M8.33203 13.333H9.58203" stroke="#B0B0B0" stroke-width="1.5" stroke-miterlimit="10" stroke-linecap="round" stroke-linejoin="round"/>
<path d="M12.082 13.333H14.9987" stroke="#B0B0B0" stroke-width="1.5" stroke-miterlimit="10" stroke-linecap="round" stroke-linejoin="round"/>
<path d="M1.66797 7.5H18.3346" stroke="#B0B0B0" stroke-width="1.5" stroke-linejoin="round"/>
</svg>
