<svg width="21" height="20" viewBox="0 0 21 20" fill="none" xmlns="http://www.w3.org/2000/svg">
<path d="M10.5 15V12.5" stroke="#B0B0B0" stroke-width="1.5" stroke-linecap="round"/>
<path d="M2.46079 11.0116C2.16661 9.09716 2.01952 8.14002 2.38144 7.29148C2.74336 6.44293 3.54633 5.86235 5.15225 4.70121L6.35213 3.83366C8.34988 2.38922 9.34874 1.66699 10.5013 1.66699C11.6538 1.66699 12.6527 2.38922 14.6505 3.83366L15.8503 4.70121C17.4563 5.86235 18.2592 6.44293 18.6212 7.29148C18.9831 8.14002 18.836 9.09716 18.5418 11.0116L18.291 12.644C17.8739 15.3577 17.6654 16.7147 16.6922 17.5242C15.7189 18.3337 14.296 18.3337 11.4503 18.3337H9.55232C6.70659 18.3337 5.28373 18.3337 4.31047 17.5242C3.33721 16.7147 3.12869 15.3577 2.71166 12.644L2.46079 11.0116Z" stroke="#B0B0B0" stroke-width="1.5" stroke-linejoin="round"/>
</svg>
