<svg width="21" height="20" viewBox="0 0 21 20" fill="none" xmlns="http://www.w3.org/2000/svg">
<path d="M8.83203 11.1111C8.83203 10.8527 8.83203 10.7236 8.86045 10.6177C8.93745 10.3301 9.16211 10.1054 9.4497 10.0284C9.55561 10 9.68478 10 9.94311 10H11.0543C11.3126 10 11.4418 10 11.5477 10.0284C11.8353 10.1054 12.0599 10.3301 12.1369 10.6177C12.1654 10.7236 12.1654 10.8527 12.1654 11.1111V11.6667C12.1654 12.5872 11.4192 13.3333 10.4987 13.3333C9.5782 13.3333 8.83203 12.5872 8.83203 11.6667V11.1111Z" stroke="#B0B0B0" stroke-width="1.5" stroke-linecap="round" stroke-linejoin="round"/>
<path d="M12.082 11.2503H13.0675C14.1377 11.2503 14.6728 11.2503 15.1284 11.1538C16.447 10.8745 17.5229 10.0176 17.9936 8.87158C18.1563 8.47566 18.2226 7.99659 18.3554 7.03841C18.4052 6.6787 18.4301 6.49885 18.4062 6.35173C18.3364 5.92328 17.993 5.57231 17.5304 5.45669C17.3716 5.41699 17.1708 5.41699 16.769 5.41699H4.22838C3.82662 5.41699 3.62574 5.41699 3.46692 5.45669C3.00438 5.57231 2.661 5.92328 2.59123 6.35173C2.56727 6.49885 2.59219 6.6787 2.64201 7.03841C2.77476 7.99659 2.84113 8.47566 3.00377 8.87158C3.47453 10.0176 4.55035 10.8745 5.869 11.1538C6.32457 11.2503 6.85968 11.2503 7.92989 11.2503H8.91536" stroke="#B0B0B0" stroke-width="1.5"/>
<path d="M3.41797 9.58301V11.2497C3.41797 14.3923 3.41797 15.9638 4.34004 16.94C5.26211 17.9163 6.74616 17.9163 9.7143 17.9163H11.2883C14.2565 17.9163 15.7405 17.9163 16.6626 16.94C17.5846 15.9638 17.5846 14.3923 17.5846 11.2497V9.58301" stroke="#B0B0B0" stroke-width="1.5" stroke-linecap="round" stroke-linejoin="round"/>
<path d="M13.4154 5.41634L13.3509 5.122C13.0301 3.65528 12.8697 2.92193 12.4878 2.50247C12.1059 2.08301 11.5986 2.08301 10.5839 2.08301H10.4134C9.39878 2.08301 8.89153 2.08301 8.50961 2.50247C8.12768 2.92193 7.96726 3.65528 7.64642 5.122L7.58203 5.41634" stroke="#B0B0B0" stroke-width="1.5"/>
</svg>
