<svg width="21" height="20" viewBox="0 0 21 20" fill="none" xmlns="http://www.w3.org/2000/svg">
<path d="M5.98131 12.9017C4.80234 13.6037 1.71114 15.0371 3.59389 16.8308C4.51359 17.707 5.53791 18.3337 6.82573 18.3337H14.1743C15.4621 18.3337 16.4864 17.707 17.4061 16.8308C19.2888 15.0371 16.1977 13.6037 15.0187 12.9017C12.254 11.2554 8.74599 11.2554 5.98131 12.9017Z" stroke="#B0B0B0" stroke-width="1.5" stroke-linecap="round" stroke-linejoin="round"/>
<path d="M14.25 5.41699C14.25 7.48806 12.5711 9.16699 10.5 9.16699C8.42893 9.16699 6.75 7.48806 6.75 5.41699C6.75 3.34593 8.42893 1.66699 10.5 1.66699C12.5711 1.66699 14.25 3.34593 14.25 5.41699Z" stroke="#B0B0B0" stroke-width="1.5"/>
</svg>
