<svg width="20" height="20" viewBox="0 0 20 20" fill="none" xmlns="http://www.w3.org/2000/svg">
<g clip-path="url(#clip0_3643_4203)">
<path d="M11.441 2.87047L12.9075 5.82772C13.1075 6.23938 13.6407 6.63424 14.0907 6.70985L16.7487 7.15511C18.4486 7.44076 18.8486 8.68416 17.6236 9.91074L15.5572 11.9942C15.2072 12.3471 15.0156 13.0276 15.1239 13.5149L15.7156 16.0941C16.1821 18.1356 15.1072 18.9253 13.3158 17.8583L10.8244 16.3713C10.3745 16.1025 9.63288 16.1025 9.17455 16.3713L6.68319 17.8583C4.90005 18.9253 3.81684 18.1272 4.28346 16.0941L4.87506 13.5149C4.98338 13.0276 4.79173 12.3471 4.44177 11.9942L2.37533 9.91074C1.1588 8.68416 1.55043 7.44076 3.25023 7.15511L5.90828 6.70985C6.34989 6.63424 6.88317 6.23938 7.08314 5.82772L8.54963 2.87047C9.34955 1.26583 10.6494 1.26583 11.441 2.87047Z" stroke="#B0B0B0" stroke-width="1.5" stroke-linecap="round" stroke-linejoin="round"/>
</g>
<defs>
<clipPath id="clip0_3643_4203">
<rect width="20" height="20" fill="white"/>
</clipPath>
</defs>
</svg>
