<svg width="21" height="20" viewBox="0 0 21 20" fill="none" xmlns="http://www.w3.org/2000/svg">
<path d="M3 9.15625V12.9108C3 15.2706 3 16.4506 3.73223 17.1837C4.46447 17.9168 5.64297 17.9168 8 17.9168H13C15.357 17.9168 16.5355 17.9168 17.2677 17.1837C18 16.4506 18 15.2706 18 12.9108V9.15625" stroke="white" stroke-width="1.5"/>
<path d="M13 14.1475C12.4299 14.6535 11.5223 14.9808 10.5 14.9808C9.47764 14.9808 8.57008 14.6535 8 14.1475" stroke="white" stroke-width="1.5" stroke-linecap="round"/>
<path d="M15.3286 2.08623L5.62372 2.11046C4.17524 2.03585 3.80386 3.1526 3.80386 3.69851C3.80386 4.18677 3.74098 4.89856 2.85323 6.23636C1.96547 7.57416 2.03218 7.97158 2.53278 8.8977C2.94826 9.66636 4.00503 9.96661 4.55604 10.0171C6.30622 10.0569 7.15773 8.54353 7.15773 7.4798C8.02595 10.1525 10.4952 10.1525 11.5953 9.84686C12.6977 9.5407 13.6419 8.4447 13.8648 7.4798C13.9947 8.67895 14.389 9.37861 15.5541 9.85945C16.7609 10.3574 17.7987 9.59628 18.3195 9.10828C18.8402 8.62036 19.1744 7.53712 18.2462 6.34653C17.606 5.52545 17.3392 4.75195 17.2516 3.95025C17.2008 3.48573 17.1562 2.98658 16.8298 2.66894C16.3528 2.20474 15.6685 2.06389 15.3286 2.08623Z" stroke="white" stroke-width="1.5" stroke-linecap="round" stroke-linejoin="round"/>
</svg>
