<svg width="21" height="20" viewBox="0 0 21 20" fill="none" xmlns="http://www.w3.org/2000/svg">
<path d="M2.16797 9.16634C2.16797 6.41648 2.16797 5.04155 3.02224 4.18728C3.87651 3.33301 5.25144 3.33301 8.0013 3.33301H8.83464C11.5845 3.33301 12.9594 3.33301 13.8137 4.18728C14.668 5.04155 14.668 6.41648 14.668 9.16634V10.833C14.668 13.5828 14.668 14.9578 13.8137 15.8121C12.9594 16.6663 11.5845 16.6663 8.83464 16.6663H8.0013C5.25144 16.6663 3.87651 16.6663 3.02224 15.8121C2.16797 14.9578 2.16797 13.5828 2.16797 10.833V9.16634Z" stroke="#B0B0B0" stroke-width="1.5"/>
<path d="M14.668 7.42187L14.7729 7.33529C16.5361 5.88052 17.4176 5.15313 18.1261 5.50434C18.8346 5.85556 18.8346 7.01995 18.8346 9.34874V10.6519C18.8346 12.9807 18.8346 14.1451 18.1261 14.4963C17.4176 14.8475 16.5361 14.1202 14.7729 12.6653L14.668 12.5787" stroke="#B0B0B0" stroke-width="1.5" stroke-linecap="round"/>
<path d="M10.082 9.16699C10.7724 9.16699 11.332 8.60735 11.332 7.91699C11.332 7.22664 10.7724 6.66699 10.082 6.66699C9.39168 6.66699 8.83203 7.22664 8.83203 7.91699C8.83203 8.60735 9.39168 9.16699 10.082 9.16699Z" stroke="#B0B0B0" stroke-width="1.5"/>
</svg>
