<svg  viewBox="0 0 20 20" fill="none" xmlns="http://www.w3.org/2000/svg">
<path d="M11.4397 2.86999L12.9062 5.82724C13.1062 6.23889 13.6395 6.63375 14.0895 6.70936L16.7475 7.15463C18.4473 7.44028 18.8473 8.68367 17.6224 9.91025L15.556 11.9938C15.206 12.3466 15.0144 13.0271 15.1227 13.5144L15.7143 16.0936C16.1809 18.1351 15.106 18.9248 13.3146 17.8578L10.8232 16.3708C10.3732 16.102 9.63166 16.102 9.17333 16.3708L6.68197 17.8578C4.89883 18.9248 3.81562 18.1267 4.28224 16.0936L4.87384 13.5144C4.98216 13.0271 4.79051 12.3466 4.44055 11.9938L2.37411 9.91025C1.15758 8.68367 1.54921 7.44028 3.24901 7.15463L5.90706 6.70936C6.34867 6.63375 6.88195 6.23889 7.08192 5.82724L8.54841 2.86999C9.34833 1.26534 10.6482 1.26534 11.4397 2.86999Z" stroke="currentColor" stroke-width="1.5" stroke-linecap="round" stroke-linejoin="round"/>
</svg>
