<svg width="21" height="20" viewBox="0 0 21 20" fill="none" xmlns="http://www.w3.org/2000/svg">
<path d="M12.5833 7.08341C12.5833 4.78223 10.7178 2.91675 8.41667 2.91675C6.11548 2.91675 4.25 4.78223 4.25 7.08341C4.25 9.38458 6.11548 11.2501 8.41667 11.2501C10.7178 11.2501 12.5833 9.38458 12.5833 7.08341Z" stroke="currentColor" stroke-width="1.5" stroke-linecap="round" stroke-linejoin="round"/>
<path d="M14.2502 17.0833C14.2502 13.8617 11.6385 11.25 8.41683 11.25C5.19517 11.25 2.5835 13.8617 2.5835 17.0833" stroke="currentColor" stroke-width="1.5" stroke-linecap="round" stroke-linejoin="round"/>
<path d="M15.0835 8.20521C15.0835 7.35554 15.8297 6.66675 16.7502 6.66675C17.6707 6.66675 18.4168 7.35554 18.4168 8.20521C18.4168 8.5115 18.3199 8.79683 18.1527 9.03658C17.6547 9.75108 16.7502 10.0158 16.7502 10.8655V11.2501M16.742 13.3334H16.7495" stroke="currentColor" stroke-width="1.5" stroke-linecap="round" stroke-linejoin="round"/>
</svg>
