<svg width="21" height="20" viewBox="0 0 21 20" fill="none" xmlns="http://www.w3.org/2000/svg">
<path d="M5.98131 12.9014C4.80234 13.6034 1.71114 15.0369 3.59389 16.8306C4.51359 17.7068 5.53791 18.3334 6.82573 18.3334H14.1743C15.4621 18.3334 16.4864 17.7068 17.4061 16.8306C19.2888 15.0369 16.1977 13.6034 15.0187 12.9014C12.254 11.2552 8.74599 11.2552 5.98131 12.9014Z" stroke="currentColor" stroke-width="1.5" stroke-linecap="round" stroke-linejoin="round"/>
<path d="M14.25 5.41675C14.25 7.48781 12.5711 9.16675 10.5 9.16675C8.42893 9.16675 6.75 7.48781 6.75 5.41675C6.75 3.34568 8.42893 1.66675 10.5 1.66675C12.5711 1.66675 14.25 3.34568 14.25 5.41675Z" stroke="currentColor" stroke-width="1.5"/>
</svg>
