<svg width="21" height="20" viewBox="0 0 21 20" fill="none" xmlns="http://www.w3.org/2000/svg">
<path d="M2.33594 11.1908V6.66699H19.0026V11.1908C19.0026 14.558 19.0026 16.2416 17.9179 17.2876C16.833 18.3337 15.0871 18.3337 11.5952 18.3337H9.74335C6.25146 18.3337 4.50552 18.3337 3.42073 17.2876C2.33594 16.2416 2.33594 14.558 2.33594 11.1908Z" stroke="#EF454A" stroke-width="1.5" stroke-linecap="round" stroke-linejoin="round"/>
<path d="M2.33594 6.66699L3.13722 4.74392C3.75865 3.25247 4.06938 2.50674 4.69919 2.08687C5.329 1.66699 6.13687 1.66699 7.7526 1.66699H13.5859C15.2017 1.66699 16.0095 1.66699 16.6394 2.08687C17.2692 2.50674 17.5799 3.25247 18.2014 4.74392L19.0026 6.66699" stroke="#EF454A" stroke-width="1.5" stroke-linecap="round"/>
<path d="M10.668 6.66699V1.66699" stroke="#EF454A" stroke-width="1.5" stroke-linecap="round"/>
<path d="M9 10H12.3333" stroke="#EF454A" stroke-width="1.5" stroke-linecap="round"/>
</svg>
