<svg width="14" height="14" viewBox="0 0 14 14" fill="none" xmlns="http://www.w3.org/2000/svg">
<path d="M8.15043 1.29579L9.32363 3.66159C9.48363 3.99092 9.91023 4.30681 10.2702 4.36729L12.3966 4.72351C13.7565 4.95203 14.0765 5.94674 13.0966 6.92801L11.4434 8.59481C11.1634 8.87707 11.0102 9.42147 11.0968 9.81134L11.5701 11.8747C11.9434 13.5079 11.0834 14.1397 9.6503 13.2861L7.65716 12.0965C7.29723 11.8814 6.70396 11.8814 6.3373 12.0965L4.34421 13.2861C2.9177 14.1397 2.05113 13.5011 2.42442 11.8747L2.8977 9.81134C2.98436 9.42147 2.83104 8.87707 2.55107 8.59481L0.897924 6.92801C-0.0753025 5.94674 0.237998 4.95203 1.59784 4.72351L3.72428 4.36729C4.07757 4.30681 4.50419 3.99092 4.66417 3.66159L5.83736 1.29579C6.4773 0.0120795 7.51716 0.0120795 8.15043 1.29579Z" fill="currentColor"/>
</svg>
