<svg width="21" height="20" viewBox="0 0 21 20" fill="none" xmlns="http://www.w3.org/2000/svg">
<path d="M9.08203 12.917C9.08203 12.2267 9.6217 11.667 10.2874 11.667H10.3767C11.0424 11.667 11.582 12.2267 11.582 12.917C11.582 13.6073 11.0424 14.167 10.3767 14.167H10.2874C9.6217 14.167 9.08203 13.6073 9.08203 12.917Z" stroke="#6AA5FF" stroke-width="1.5"/>
<path d="M10.3307 18.3333C13.3223 18.3333 15.7474 15.9082 15.7474 12.9167C15.7474 9.92512 13.3223 7.5 10.3307 7.5C7.33919 7.5 4.91406 9.92512 4.91406 12.9167C4.91406 15.9082 7.33919 18.3333 10.3307 18.3333Z" stroke="#6AA5FF" stroke-width="1.5"/>
<path d="M7.83073 7.91699L4.91406 1.66699" stroke="#6AA5FF" stroke-width="1.5" stroke-linecap="round" stroke-linejoin="round"/>
<path d="M12.832 7.91699L15.7487 1.66699" stroke="#6AA5FF" stroke-width="1.5" stroke-linecap="round" stroke-linejoin="round"/>
<path d="M12.8333 1.66699L12 3.75033" stroke="#6AA5FF" stroke-width="1.5" stroke-linecap="round" stroke-linejoin="round"/>
<path d="M10.75 7.50033L8.25 1.66699" stroke="#6AA5FF" stroke-width="1.5" stroke-linecap="round" stroke-linejoin="round"/>
</svg>
