<svg width="20" height="20" viewBox="0 0 20 20" fill="none" xmlns="http://www.w3.org/2000/svg">
<path d="M12.9154 9.99967C12.9154 11.6105 11.6095 12.9163 9.9987 12.9163C8.38786 12.9163 7.08203 11.6105 7.08203 9.99967C7.08203 8.38884 8.38786 7.08301 9.9987 7.08301C11.6095 7.08301 12.9154 8.38884 12.9154 9.99967Z" stroke="#B0B0B0" stroke-width="1.5"/>
<path d="M17.5105 11.7473C17.9454 11.6301 18.1629 11.5714 18.2487 11.4593C18.3346 11.3472 18.3346 11.1668 18.3346 10.806V9.19459C18.3346 8.83384 18.3346 8.65343 18.2487 8.54134C18.1628 8.42918 17.9454 8.37051 17.5105 8.25324C15.8851 7.81492 14.8679 6.11568 15.2874 4.50098C15.4027 4.05692 15.4604 3.83489 15.4053 3.70467C15.3502 3.57444 15.1922 3.48471 14.8761 3.30523L13.4388 2.4892C13.1286 2.31308 12.9736 2.22503 12.8344 2.24378C12.6951 2.26253 12.5381 2.4192 12.224 2.73253C11.008 3.94566 8.99597 3.94561 7.77992 2.73246C7.46583 2.41912 7.30879 2.26245 7.16958 2.24369C7.03038 2.22494 6.87528 2.313 6.56508 2.48912L5.12784 3.30515C4.81174 3.48462 4.65369 3.57435 4.59862 3.70455C4.54354 3.83476 4.60119 4.05682 4.71651 4.50093C5.13578 6.11568 4.11774 7.81495 2.49215 8.25326C2.05724 8.37051 1.83978 8.42918 1.75387 8.54126C1.66797 8.65343 1.66797 8.83384 1.66797 9.19459V10.806C1.66797 11.1668 1.66797 11.3472 1.75387 11.4593C1.83976 11.5714 2.05723 11.6301 2.49215 11.7473C4.11747 12.1857 5.1347 13.8849 4.71524 15.4996C4.59988 15.9437 4.54219 16.1657 4.59727 16.2959C4.65235 16.4262 4.8104 16.5159 5.12651 16.6953L6.56376 17.5114C6.87398 17.6875 7.02909 17.7756 7.1683 17.7568C7.30752 17.7381 7.46454 17.5813 7.77856 17.268C8.99522 16.0539 11.0086 16.0538 12.2254 17.2679C12.5394 17.5813 12.6964 17.738 12.8356 17.7568C12.9748 17.7755 13.13 17.6874 13.4401 17.5113L14.8774 16.6953C15.1936 16.5158 15.3516 16.4261 15.4066 16.2958C15.4617 16.1656 15.4041 15.9436 15.2886 15.4995C14.869 13.8849 15.8854 12.1858 17.5105 11.7473Z" stroke="#B0B0B0" stroke-width="1.5" stroke-linecap="round"/>
</svg>
