<svg width="21" height="20" viewBox="0 0 21 20" fill="none" xmlns="http://www.w3.org/2000/svg">
<path d="M10.332 18.333C9.6502 18.333 8.99886 18.0578 7.69614 17.5076C4.4534 16.1378 2.83203 15.4528 2.83203 14.3008C2.83203 13.9782 2.83203 8.38676 2.83203 5.83301M10.332 18.333C11.0139 18.333 11.6652 18.0578 12.9679 17.5076C16.2107 16.1378 17.832 15.4528 17.832 14.3008V5.83301M10.332 18.333V9.46201" stroke="#B0B0B0" stroke-width="1.5" stroke-linecap="round" stroke-linejoin="round"/>
<path d="M7.2703 8.07647L4.83596 6.89853C3.50001 6.25208 2.83203 5.92885 2.83203 5.41699C2.83203 4.90513 3.50001 4.58191 4.83596 3.93545L7.2703 2.75751C8.7727 2.0305 9.52395 1.66699 10.332 1.66699C11.1401 1.66699 11.8914 2.03049 13.3938 2.75751L15.8281 3.93545C17.164 4.58191 17.832 4.90513 17.832 5.41699C17.832 5.92885 17.164 6.25208 15.8281 6.89853L13.3938 8.07647C11.8914 8.80349 11.1401 9.16699 10.332 9.16699C9.52395 9.16699 8.7727 8.80349 7.2703 8.07647Z" stroke="#B0B0B0" stroke-width="1.5" stroke-linecap="round" stroke-linejoin="round"/>
<path d="M5.33203 10L6.9987 10.8333" stroke="#B0B0B0" stroke-width="1.5" stroke-linecap="round" stroke-linejoin="round"/>
<path d="M14.4974 3.33301L6.16406 7.49967" stroke="#B0B0B0" stroke-width="1.5" stroke-linecap="round" stroke-linejoin="round"/>
</svg>
