<svg width="21" height="20" viewBox="0 0 21 20" fill="none" xmlns="http://www.w3.org/2000/svg">
<path d="M4.5 17.083H16.1667" stroke="#FFA800" stroke-width="1.5" stroke-linecap="round" stroke-linejoin="round"/>
<path d="M14.3931 14.5837H6.27358C5.41681 14.5837 4.98842 14.5837 4.66352 14.3532C4.33862 14.1227 4.19707 13.7183 3.91399 12.9097L2.04269 7.56423C1.9431 7.2697 2.02086 6.94499 2.24354 6.72546C2.52378 6.44919 2.96287 6.40633 3.29264 6.62305L4.31957 7.29798C5.35616 7.97924 5.87446 8.31987 6.39846 8.19606C6.92247 8.07225 7.23349 7.53567 7.85554 6.4625L9.701 3.27876C9.83067 3.05505 10.072 2.91699 10.3333 2.91699C10.5947 2.91699 10.836 3.05505 10.9657 3.27876L12.8111 6.4625C13.4332 7.53567 13.7442 8.07225 14.2682 8.19606C14.7922 8.31987 15.3105 7.97924 16.3471 7.29798L17.374 6.62305C17.7037 6.40633 18.1429 6.44919 18.4232 6.72546C18.6458 6.94499 18.7236 7.2697 18.624 7.56423L16.7527 12.9097C16.4696 13.7183 16.3281 14.1227 16.0032 14.3532C15.6783 14.5837 15.2498 14.5837 14.3931 14.5837Z" stroke="#FFA800" stroke-width="1.5" stroke-linecap="round" stroke-linejoin="round"/>
</svg>
