<svg width="21" height="20" viewBox="0 0 21 20" fill="none" xmlns="http://www.w3.org/2000/svg">
<path d="M11.773 2.87047L13.2395 5.82772C13.4395 6.23938 13.9727 6.63424 14.4227 6.70985L17.0808 7.15511C18.7806 7.44076 19.1806 8.68416 17.9557 9.91074L15.8893 11.9942C15.5393 12.3471 15.3477 13.0276 15.4559 13.5149L16.0476 16.0941C16.5142 18.1356 15.4392 18.9253 13.6478 17.8583L11.1564 16.3713C10.7065 16.1025 9.96492 16.1025 9.50658 16.3713L7.01522 17.8583C5.23208 18.9253 4.14887 18.1272 4.61549 16.0941L5.20709 13.5149C5.31541 13.0276 5.12377 12.3471 4.7738 11.9942L2.70737 9.91074C1.49083 8.68416 1.88246 7.44076 3.58227 7.15511L6.24031 6.70985C6.68192 6.63424 7.2152 6.23938 7.41517 5.82772L8.88167 2.87047C9.68158 1.26583 10.9814 1.26583 11.773 2.87047Z" stroke="#A06AFF" stroke-width="1.5" stroke-linecap="round" stroke-linejoin="round"/>
</svg>
