<svg viewBox="0 0 40 40" fill="none" xmlns="http://www.w3.org/2000/svg">
<path d="M20 27.5001V24.1667" stroke="currentColor" stroke-width="1.5" stroke-linecap="round"/>
<path d="M7.11237 31.4078C7.48717 34.1917 9.7929 36.3725 12.5988 36.5015C14.9598 36.61 17.3582 36.6667 19.9994 36.6667C22.6405 36.6667 25.0389 36.61 27.3999 36.5015C30.2059 36.3725 32.5115 34.1917 32.8864 31.4078C33.1309 29.5912 33.3327 27.7293 33.3327 25.8333C33.3327 23.9373 33.1309 22.0755 32.8864 20.2588C32.5115 17.475 30.2059 15.2941 27.3999 15.1651C25.0389 15.0566 22.6405 15 19.9994 15C17.3582 15 14.9598 15.0566 12.5988 15.1651C9.7929 15.2941 7.48717 17.475 7.11237 20.2588C6.86777 22.0755 6.66602 23.9373 6.66602 25.8333C6.66602 27.7293 6.86777 29.5912 7.11237 31.4078Z" stroke="currentColor" stroke-width="1.5"/>
<path d="M12.5 14.9999V10.8333C12.5 6.69112 15.8579 3.33325 20 3.33325C24.1422 3.33325 27.5 6.69112 27.5 10.8333V14.9999" stroke="currentColor" stroke-width="1.5" stroke-linecap="round" stroke-linejoin="round"/>
</svg>
