<svg width="20" height="20" viewBox="0 0 20 20" fill="none" xmlns="http://www.w3.org/2000/svg">
<path d="M9.59541 1.74374C9.85558 1.64011 10.1447 1.64011 10.4049 1.74374C11.2436 2.07773 11.4074 3.36388 12.397 3.43548C13.0938 3.4859 13.7777 2.90499 14.4769 3.07913C14.7589 3.14937 15.0025 3.32917 15.1552 3.57982C15.6228 4.34788 15.0192 5.47678 15.7821 6.11408C16.3121 6.55666 17.1877 6.49938 17.6485 7.04193C17.8425 7.27047 17.9378 7.56854 17.9129 7.8691C17.8392 8.76318 16.6992 9.32235 16.9497 10.2859C17.1231 10.9529 17.8546 11.4218 17.9129 12.1296C17.9378 12.4302 17.8425 12.7283 17.6485 12.9568C17.0695 13.6384 15.8175 13.4139 15.4565 14.3378C15.203 14.9863 15.5285 15.8058 15.1552 16.4188C15.0025 16.6695 14.7589 16.8493 14.4769 16.9196C13.6087 17.1358 12.7274 16.2031 11.8919 16.7292C11.2954 17.1047 11.0817 17.9856 10.4049 18.2549C10.1447 18.3586 9.85558 18.3586 9.59541 18.2549C8.91866 17.9856 8.70491 17.1047 8.10841 16.7292C7.28326 16.2097 6.37694 17.1321 5.52342 16.9196C5.24139 16.8493 4.99783 16.6695 4.84521 16.4188C4.37755 15.6508 4.98103 14.5218 4.21825 13.8846C3.68835 13.442 2.81261 13.4993 2.35186 12.9568C2.15784 12.7283 2.06253 12.4302 2.08737 12.1296C2.14587 11.4218 2.87716 10.9529 3.05058 10.2859C3.29856 9.33243 2.1602 8.7501 2.08737 7.8691C2.06253 7.56854 2.15784 7.27047 2.35186 7.04193C2.9308 6.36005 4.18266 6.58479 4.54381 5.66087C4.79735 5.01235 4.4719 4.19291 4.84521 3.57982C4.99783 3.32917 5.24139 3.14937 5.52342 3.07913C6.22271 2.90499 6.90647 3.48591 7.60331 3.43548C8.59291 3.3639 8.75675 2.07773 9.59541 1.74374Z" fill="#A06AFF"/>
<path d="M7.5 11.1117C7.5 11.1117 8.22917 11.1117 8.95833 12.5007C8.95833 12.5007 11.2745 9.0284 13.3333 8.33398" stroke="white" stroke-linecap="round" stroke-linejoin="round"/>
</svg>
