<svg width="20" height="20" viewBox="0 0 20 20" fill="none" xmlns="http://www.w3.org/2000/svg">
<path d="M5.36345 6.66602C5.12907 7.36786 5 8.13503 5 8.93877C5 12.2859 7.23857 14.9993 10 14.9993C12.7614 14.9993 15 12.2859 15 8.93877C15 8.13503 14.8709 7.36786 14.6366 6.66602" stroke="#FFD700" stroke-linecap="round" stroke-linejoin="round"/>
<path d="M12.0832 17.5C12.0832 17.5 11.5148 15 9.99984 15C8.48484 15 7.9165 17.5 7.9165 17.5" stroke="#FFD700" stroke-linecap="round" stroke-linejoin="round"/>
<path d="M15.4334 4.35806C15.6766 5.74695 14.5836 6.66667 14.5836 6.66667C14.5836 6.66667 13.2473 6.1975 13.0041 4.80861C12.7608 3.41972 13.8539 2.5 13.8539 2.5C13.8539 2.5 15.1902 2.96918 15.4334 4.35806Z" stroke="#FFD700" stroke-linecap="round" stroke-linejoin="round"/>
<path d="M17.5786 10.1161C16.5108 11.1718 15.065 10.7503 15.065 10.7503C15.065 10.7503 14.6869 9.273 15.7547 8.21728C16.8225 7.16157 18.2684 7.5831 18.2684 7.5831C18.2684 7.5831 18.6465 9.06033 17.5786 10.1161Z" stroke="#FFD700" stroke-linecap="round" stroke-linejoin="round"/>
<path d="M15.1946 15.1579C13.9446 14.6782 13.75 13.3332 13.75 13.3332C13.75 13.3332 14.8054 12.4679 16.0554 12.9476C17.3054 13.4272 17.5 14.7722 17.5 14.7722C17.5 14.7722 16.4446 15.6376 15.1946 15.1579Z" stroke="#FFD700" stroke-linecap="round" stroke-linejoin="round"/>
<path d="M4.80542 15.1579C6.05542 14.6782 6.25 13.3332 6.25 13.3332C6.25 13.3332 5.19457 12.4679 3.94457 12.9476C2.69457 13.4272 2.5 14.7722 2.5 14.7722C2.5 14.7722 3.55542 15.6376 4.80542 15.1579Z" stroke="#FFD700" stroke-linecap="round" stroke-linejoin="round"/>
<path d="M2.4212 10.1161C3.489 11.1718 4.93486 10.7503 4.93486 10.7503C4.93486 10.7503 5.31293 9.273 4.24513 8.21728C3.17734 7.16157 1.73148 7.5831 1.73148 7.5831C1.73148 7.5831 1.35341 9.06033 2.4212 10.1161Z" stroke="#FFD700" stroke-linecap="round" stroke-linejoin="round"/>
<path d="M4.56656 4.35806C4.32333 5.74695 5.4164 6.66667 5.4164 6.66667C5.4164 6.66667 6.75271 6.1975 6.99594 4.80861C7.23918 3.41972 6.1461 2.5 6.1461 2.5C6.1461 2.5 4.80979 2.96918 4.56656 4.35806Z" stroke="#FFD700" stroke-linecap="round" stroke-linejoin="round"/>
</svg>
