<svg width="25" height="24" viewBox="0 0 25 24" fill="none" xmlns="http://www.w3.org/2000/svg">
<path d="M19.109 19.999H19.5992C20.749 19.999 21.6636 19.4751 22.4848 18.7426C24.5709 16.8816 19.667 14.999 17.9929 14.999M15.9929 5.06779C16.22 5.02275 16.4558 4.99902 16.6977 4.99902C18.5176 4.99902 19.9929 6.34217 19.9929 7.99902C19.9929 9.65587 18.5176 10.999 16.6977 10.999C16.4558 10.999 16.22 10.9753 15.9929 10.9302" stroke="white" stroke-width="1.5" stroke-linecap="round"/>
<path d="M4.98467 16.1107C3.8057 16.7425 0.714496 18.0326 2.59724 19.6469C3.51695 20.4355 4.54127 20.9995 5.82908 20.9995H13.1777C14.4655 20.9995 15.4898 20.4355 16.4095 19.6469C18.2923 18.0326 15.2011 16.7425 14.0221 16.1107C11.2574 14.6291 7.74935 14.6291 4.98467 16.1107Z" stroke="white" stroke-width="1.5"/>
<path d="M13.5007 7.5C13.5007 9.70914 11.7098 11.5 9.50073 11.5C7.29159 11.5 5.50073 9.70914 5.50073 7.5C5.50073 5.29086 7.29159 3.5 9.50073 3.5C11.7098 3.5 13.5007 5.29086 13.5007 7.5Z" stroke="white" stroke-width="1.5"/>
</svg>
