<svg width="20" height="20" viewBox="0 0 20 20" fill="none" xmlns="http://www.w3.org/2000/svg">
<path d="M17.5 10C17.5 6.46447 17.5 4.6967 16.4017 3.59835C15.3033 2.5 13.5355 2.5 10 2.5C6.46447 2.5 4.6967 2.5 3.59835 3.59835C2.5 4.6967 2.5 6.46447 2.5 10C2.5 13.5355 2.5 15.3033 3.59835 16.4017C4.6967 17.5 5.46447 17.5 9 17.5" stroke="#B0B0B0" stroke-width="1.5" stroke-linecap="round" stroke-linejoin="round"/>
<path d="M5.8335 11.6663L8.1609 9.33892C8.48633 9.01351 9.014 9.01351 9.33941 9.33892L10.6609 10.6604C10.9863 10.9858 11.514 10.9858 11.8394 10.6604L14.1668 8.33301" stroke="#B0B0B0" stroke-width="1.5" stroke-linecap="round" stroke-linejoin="round"/>
<path d="M14.1663 11.667V18.3337M17.4997 15.0003H10.833" stroke="#B0B0B0" stroke-width="1.5" stroke-linecap="round" stroke-linejoin="round"/>
</svg>
