<svg width="16" height="16" viewBox="0 0 16 16" fill="none" xmlns="http://www.w3.org/2000/svg">
<path d="M12.406 13.3327H12.7328C13.4993 13.3327 14.109 12.9834 14.6565 12.4951C16.0472 11.2544 12.778 9.99937 11.6619 9.99937M10.3286 3.37855C10.48 3.34852 10.6372 3.3327 10.7984 3.3327C12.0117 3.3327 12.9952 4.22814 12.9952 5.3327C12.9952 6.43727 12.0117 7.3327 10.7984 7.3327C10.6372 7.3327 10.48 7.3169 10.3286 7.28684" stroke="#808283" stroke-width="1.5" stroke-linecap="round"/>
<path d="M2.98978 10.7404C2.2038 11.1616 0.142995 12.0216 1.39816 13.0978C2.0113 13.6236 2.69418 13.9996 3.55272 13.9996H8.45177C9.3103 13.9996 9.99317 13.6236 10.6063 13.0978C11.8615 12.0216 9.8007 11.1616 9.0147 10.7404C7.17157 9.75264 4.8329 9.75264 2.98978 10.7404Z" stroke="#808283" stroke-width="1.5"/>
<path d="M8.66715 5.0001C8.66715 6.47286 7.47322 7.66677 6.00048 7.66677C4.52772 7.66677 3.33382 6.47286 3.33382 5.0001C3.33382 3.52734 4.52772 2.33344 6.00048 2.33344C7.47322 2.33344 8.66715 3.52734 8.66715 5.0001Z" stroke="#808283" stroke-width="1.5"/>
</svg>
