<svg width="20" height="20" viewBox="0 0 20 20" fill="none" xmlns="http://www.w3.org/2000/svg">
<path d="M11.4397 2.87011L12.9062 5.82736C13.1062 6.23902 13.6394 6.63387 14.0894 6.70948L16.7474 7.15475C18.4473 7.4404 18.8473 8.68379 17.6224 9.91037L15.5559 11.9939C15.2059 12.3467 15.0144 13.0272 15.1226 13.5145L15.7143 16.0937C16.1809 18.1352 15.1059 18.925 13.3145 17.858L10.8231 16.371C10.3732 16.1021 9.6316 16.1021 9.17327 16.371L6.68191 17.858C4.89877 18.925 3.81556 18.1268 4.28218 16.0937L4.87378 13.5145C4.98209 13.0272 4.79045 12.3467 4.44049 11.9939L2.37405 9.91037C1.15752 8.68379 1.54914 7.4404 3.24895 7.15475L5.90699 6.70948C6.34861 6.63387 6.88189 6.23902 7.08186 5.82736L8.54835 2.87011C9.34827 1.26547 10.6481 1.26547 11.4397 2.87011Z" stroke="white" stroke-width="1.5" stroke-linecap="round" stroke-linejoin="round"/>
</svg>
