<svg width="21" height="20" viewBox="0 0 21 20" fill="none" xmlns="http://www.w3.org/2000/svg">
<path d="M7.39307 11.9414C7.39307 13.0164 8.21807 13.8831 9.24308 13.8831H11.3348C12.2264 13.8831 12.9514 13.1248 12.9514 12.1914C12.9514 11.1748 12.5097 10.8164 11.8514 10.5831L8.49306 9.41642C7.83472 9.18309 7.39307 8.82475 7.39307 7.80812C7.39307 6.87479 8.11806 6.11646 9.00975 6.11646H11.1014C12.1264 6.11646 12.9514 6.98312 12.9514 8.05812" stroke="currentColor" stroke-width="1.5" stroke-linecap="round" stroke-linejoin="round"/>
<path d="M10.1665 5V15" stroke="currentColor" stroke-width="1.5" stroke-linecap="round" stroke-linejoin="round"/>
<path d="M10.1663 18.3334C14.7687 18.3334 18.4997 14.6024 18.4997 10.0001C18.4997 5.39771 14.7687 1.66675 10.1663 1.66675C5.56397 1.66675 1.83301 5.39771 1.83301 10.0001C1.83301 14.6024 5.56397 18.3334 10.1663 18.3334Z" stroke="currentColor" stroke-width="1.5" stroke-linecap="round" stroke-linejoin="round"/>
</svg>
