<svg width="20" height="20" viewBox="0 0 20 20" fill="none" xmlns="http://www.w3.org/2000/svg">
<path d="M12.5 2.0835V3.3335C12.5 4.512 12.5 5.10126 12.8661 5.46738C13.2322 5.8335 13.8215 5.8335 15 5.8335H16.25" stroke="white" stroke-width="1.5" stroke-linecap="round" stroke-linejoin="round"/>
<path d="M3.33301 13.3332V6.6665C3.33301 4.30948 3.33301 3.13097 4.06524 2.39874C4.79747 1.6665 5.97598 1.6665 8.33301 1.6665H11.8093C12.1499 1.6665 12.3203 1.6665 12.4734 1.72994C12.6265 1.79337 12.747 1.9138 12.9878 2.15466L16.1782 5.34501C16.419 5.58587 16.5395 5.7063 16.6029 5.85945C16.6663 6.01259 16.6663 6.1829 16.6663 6.52353V13.3332C16.6663 15.6902 16.6663 16.8687 15.9341 17.6009C15.2018 18.3332 14.0233 18.3332 11.6663 18.3332H8.33301C5.97598 18.3332 4.79747 18.3332 4.06524 17.6009C3.33301 16.8687 3.33301 15.6902 3.33301 13.3332Z" stroke="white" stroke-width="1.5" stroke-linecap="round" stroke-linejoin="round"/>
<path d="M6.66699 9.1665H13.3337M6.66699 11.6665H13.3337M6.66699 14.1665H10.1427" stroke="white" stroke-width="1.5" stroke-linecap="round" stroke-linejoin="round"/>
</svg>
