<svg width="20" height="20" viewBox="0 0 20 20" fill="none" xmlns="http://www.w3.org/2000/svg">
<path d="M15.5137 16.6665H15.9222C16.8804 16.6665 17.6426 16.2299 18.3269 15.6195C20.0653 14.0687 15.9787 12.4998 14.5837 12.4998M12.917 4.22381C13.1062 4.18628 13.3027 4.1665 13.5043 4.1665C15.0209 4.1665 16.2503 5.2858 16.2503 6.6665C16.2503 8.04721 15.0209 9.1665 13.5043 9.1665C13.3027 9.1665 13.1062 9.14675 12.917 9.10917" stroke="white" stroke-width="1.5" stroke-linecap="round"/>
<path d="M3.73443 13.426C2.75195 13.9525 0.175949 15.0276 1.7449 16.3728C2.51133 17.03 3.36493 17.5 4.4381 17.5H10.5619C11.6351 17.5 12.4887 17.03 13.2551 16.3728C14.8241 15.0276 12.2481 13.9525 11.2656 13.426C8.96167 12.1913 6.03833 12.1913 3.73443 13.426Z" stroke="white" stroke-width="1.5"/>
<path d="M10.8337 6.24984C10.8337 8.09079 9.34124 9.58317 7.50033 9.58317C5.65938 9.58317 4.16699 8.09079 4.16699 6.24984C4.16699 4.40889 5.65938 2.9165 7.50033 2.9165C9.34124 2.9165 10.8337 4.40889 10.8337 6.24984Z" stroke="white" stroke-width="1.5"/>
</svg>
