<svg width="20" height="20" viewBox="0 0 20 20" fill="none" xmlns="http://www.w3.org/2000/svg">
<path d="M11.6667 10.5403L13.6423 8.56458C13.8863 8.32058 14.0083 8.19856 14.0736 8.06693C14.1977 7.8165 14.1977 7.52247 14.0736 7.27203C14.0083 7.14041 13.8863 7.01839 13.6423 6.77436C13.3982 6.53032 13.2762 6.4083 13.1447 6.34307C12.8942 6.21898 12.6002 6.21898 12.3497 6.34307C12.2181 6.4083 12.0961 6.53032 11.8521 6.77436L9.87642 8.75M11.6667 10.5403L4.81462 17.3923C4.57058 17.6363 4.44856 17.7583 4.31693 17.8236C4.0665 17.9477 3.77247 17.9477 3.52203 17.8236C3.39041 17.7583 3.26839 17.6363 3.02436 17.3923C2.78032 17.1482 2.6583 17.0262 2.59307 16.8947C2.46898 16.6442 2.46898 16.3502 2.59307 16.0997C2.6583 15.9681 2.78032 15.8461 3.02436 15.6021L9.87642 8.75M11.6667 10.5403L9.87642 8.75" stroke="currentColor" stroke-width="1.5" stroke-linecap="round" stroke-linejoin="round"/>
<path d="M16.25 2.08301L16.1579 2.33195C16.0371 2.65837 15.9767 2.82158 15.8577 2.94065C15.7386 3.05971 15.5753 3.12011 15.2489 3.24089L15 3.33301L15.2489 3.42512C15.5753 3.54591 15.7386 3.60631 15.8577 3.72537C15.9767 3.84443 16.0371 4.00764 16.1579 4.33407L16.25 4.58301L16.3421 4.33407C16.4629 4.00764 16.5233 3.84443 16.6423 3.72537C16.7614 3.60631 16.9247 3.54591 17.2511 3.42512L17.5 3.33301L17.2511 3.24089C16.9247 3.12011 16.7614 3.05971 16.6423 2.94065C16.5233 2.82158 16.4629 2.65837 16.3421 2.33195L16.25 2.08301Z" stroke="currentColor" stroke-width="1.5" stroke-linejoin="round"/>
<path d="M16.25 10.417L16.1579 10.6659C16.0371 10.9923 15.9767 11.1556 15.8577 11.2747C15.7386 11.3937 15.5753 11.4541 15.2489 11.5749L15 11.667L15.2489 11.7591C15.5753 11.8799 15.7386 11.9403 15.8577 12.0593C15.9767 12.1784 16.0371 12.3417 16.1579 12.6681L16.25 12.917L16.3421 12.6681C16.4629 12.3417 16.5233 12.1784 16.6423 12.0593C16.7614 11.9403 16.9247 11.8799 17.2511 11.7591L17.5 11.667L17.2511 11.5749C16.9247 11.4541 16.7614 11.3937 16.6423 11.2747C16.5233 11.1556 16.4629 10.9923 16.3421 10.6659L16.25 10.417Z" stroke="currentColor" stroke-width="1.5" stroke-linejoin="round"/>
<path d="M8.75 2.08301L8.65792 2.33195C8.53708 2.65837 8.47667 2.82158 8.35767 2.94065C8.23857 3.05971 8.07537 3.12011 7.74894 3.24089L7.5 3.33301L7.74894 3.42512C8.07537 3.54591 8.23857 3.60631 8.35767 3.72537C8.47667 3.84443 8.53708 4.00764 8.65792 4.33407L8.75 4.58301L8.84208 4.33407C8.96292 4.00764 9.02333 3.84443 9.14233 3.72537C9.26142 3.60631 9.42467 3.54591 9.75108 3.42512L10 3.33301L9.75108 3.24089C9.42467 3.12011 9.26142 3.05971 9.14233 2.94065C9.02333 2.82158 8.96292 2.65837 8.84208 2.33195L8.75 2.08301Z" stroke="currentColor" stroke-width="1.5" stroke-linejoin="round"/>
</svg>
