<svg width="21" height="20" viewBox="0 0 21 20" fill="none" xmlns="http://www.w3.org/2000/svg">
<path d="M10.4998 18.3337C15.1022 18.3337 18.8332 14.6027 18.8332 10.0003C18.8332 5.39795 15.1022 1.66699 10.4998 1.66699C5.89746 1.66699 2.1665 5.39795 2.1665 10.0003C2.1665 14.6027 5.89746 18.3337 10.4998 18.3337Z" stroke="currentColor" stroke-width="1.5"/>
<path d="M8.4165 13.3337V6.66699" stroke="currentColor" stroke-width="1.5" stroke-linecap="round"/>
<path d="M9.6665 6.66667V5M11.7498 6.66667V5" stroke="currentColor" stroke-width="1.5" stroke-linecap="round"/>
<path d="M9.6665 14.9997V13.333M11.7498 14.9997V13.333" stroke="currentColor" stroke-width="1.5" stroke-linecap="round"/>
<path d="M8.4165 10H12.5832C13.2735 10 13.8332 10.5597 13.8332 11.25V12.0833C13.8332 12.7737 13.2735 13.3333 12.5832 13.3333H7.1665" stroke="currentColor" stroke-width="1.5" stroke-linecap="round" stroke-linejoin="round"/>
<path d="M7.1665 6.66699H12.5832C13.2735 6.66699 13.8332 7.22663 13.8332 7.91699V8.75033C13.8332 9.44066 13.2735 10.0003 12.5832 10.0003H8.4165" stroke="currentColor" stroke-width="1.5" stroke-linecap="round" stroke-linejoin="round"/>
</svg>
