<svg width="20" height="20" viewBox="0 0 20 20" fill="none" xmlns="http://www.w3.org/2000/svg">
<path d="M8.3335 11.1111C8.3335 10.8527 8.3335 10.7236 8.36191 10.6177C8.43891 10.3301 8.66358 10.1054 8.95116 10.0284C9.05708 10 9.18625 10 9.44458 10H10.5557C10.8141 10 10.9432 10 11.0492 10.0284C11.3367 10.1054 11.5614 10.3301 11.6384 10.6177C11.6668 10.7236 11.6668 10.8527 11.6668 11.1111V11.6667C11.6668 12.5872 10.9207 13.3333 10.0002 13.3333C9.07966 13.3333 8.3335 12.5872 8.3335 11.6667V11.1111Z" stroke="currentColor" stroke-width="1.5" stroke-linecap="round" stroke-linejoin="round"/>
<path d="M11.5835 11.2503H12.569C13.6392 11.2503 14.1742 11.2503 14.6298 11.1538C15.9485 10.8745 17.0243 10.0176 17.4951 8.87158C17.6577 8.47566 17.7241 7.99659 17.8568 7.03841C17.9067 6.6787 17.9316 6.49885 17.9077 6.35173C17.8378 5.92328 17.4945 5.57231 17.0319 5.45669C16.8731 5.41699 16.6722 5.41699 16.2705 5.41699H3.72984C3.32808 5.41699 3.1272 5.41699 2.96839 5.45669C2.50584 5.57231 2.16247 5.92328 2.09269 6.35173C2.06874 6.49885 2.09365 6.6787 2.14348 7.03841C2.27623 7.99659 2.34259 8.47566 2.50524 8.87158C2.97599 10.0176 4.05181 10.8745 5.37046 11.1538C5.82603 11.2503 6.36114 11.2503 7.43135 11.2503H8.41683" stroke="currentColor" stroke-width="1.5"/>
<path d="M2.9165 9.58301V11.2497C2.9165 14.3923 2.9165 15.9638 3.83858 16.94C4.76065 17.9163 6.2447 17.9163 9.21284 17.9163H10.7868C13.755 17.9163 15.239 17.9163 16.1611 16.94C17.0832 15.9638 17.0832 14.3923 17.0832 11.2497V9.58301" stroke="currentColor" stroke-width="1.5" stroke-linecap="round" stroke-linejoin="round"/>
<path d="M12.9168 5.41634L12.8524 5.122C12.5316 3.65528 12.3712 2.92193 11.9892 2.50247C11.6073 2.08301 11.1001 2.08301 10.0854 2.08301H9.91491C8.90025 2.08301 8.393 2.08301 8.01107 2.50247C7.62915 2.92193 7.46873 3.65528 7.14789 5.122L7.0835 5.41634" stroke="currentColor" stroke-width="1.5"/>
</svg>
