<svg width="27" height="26" viewBox="0 0 27 26" fill="none" xmlns="http://www.w3.org/2000/svg">
<rect x="1" y="0.5" width="25" height="25" rx="7.5" fill="#0B0E11"/>
<rect x="1" y="0.5" width="25" height="25" rx="7.5" stroke="#523A83"/>
<path d="M18.5 8.6665L18.0869 15.3499C17.9813 17.0574 17.9285 17.9112 17.5005 18.5251C17.2889 18.8286 17.0165 19.0847 16.7005 19.2772C16.0614 19.6665 15.206 19.6665 13.4951 19.6665C11.7821 19.6665 10.9255 19.6665 10.286 19.2764C9.96987 19.0836 9.69733 18.827 9.48579 18.523C9.05792 17.9082 9.0063 17.0532 8.90307 15.3433L8.5 8.6665" stroke="#EF454A" stroke-width="1.5" stroke-linecap="round"/>
<path d="M7.5 8.66683H19.5M16.2038 8.66683L15.7487 7.72798C15.4464 7.10434 15.2952 6.79251 15.0345 6.59804C14.9767 6.5549 14.9154 6.51652 14.8513 6.4833C14.5626 6.3335 14.2161 6.3335 13.523 6.3335C12.8125 6.3335 12.4573 6.3335 12.1638 6.48958C12.0987 6.52417 12.0367 6.5641 11.9782 6.60894C11.7144 6.8113 11.5671 7.13453 11.2724 7.781L10.8686 8.66683" stroke="#EF454A" stroke-width="1.5" stroke-linecap="round"/>
<path d="M11.8333 16V12" stroke="#EF454A" stroke-width="1.5" stroke-linecap="round"/>
<path d="M15.1667 16V12" stroke="#EF454A" stroke-width="1.5" stroke-linecap="round"/>
</svg>
