<svg width="20" height="20" viewBox="0 0 20 20" fill="none" xmlns="http://www.w3.org/2000/svg">
<path d="M9.59541 1.74435C9.85558 1.64072 10.1447 1.64072 10.4049 1.74435C11.2436 2.07834 11.4074 3.36449 12.397 3.43609C13.0938 3.48651 13.7777 2.9056 14.4769 3.07974C14.7589 3.14998 15.0025 3.32978 15.1552 3.58043C15.6228 4.34849 15.0192 5.47739 15.7821 6.11469C16.3121 6.55727 17.1877 6.49999 17.6485 7.04254C17.8425 7.27108 17.9378 7.56915 17.9129 7.86971C17.8392 8.76379 16.6992 9.32296 16.9497 10.2865C17.1231 10.9535 17.8546 11.4225 17.9129 12.1302C17.9378 12.4308 17.8425 12.7289 17.6485 12.9574C17.0695 13.639 15.8175 13.4145 15.4565 14.3385C15.203 14.987 15.5285 15.8064 15.1552 16.4195C15.0025 16.6701 14.7589 16.85 14.4769 16.9202C13.6087 17.1364 12.7274 16.2037 11.8919 16.7298C11.2954 17.1053 11.0817 17.9862 10.4049 18.2555C10.1447 18.3592 9.85558 18.3592 9.59541 18.2555C8.91866 17.9862 8.70491 17.1053 8.10841 16.7298C7.28326 16.2103 6.37694 17.1327 5.52342 16.9202C5.24139 16.85 4.99783 16.6701 4.84521 16.4195C4.37755 15.6515 4.98103 14.5225 4.21825 13.8852C3.68835 13.4426 2.81261 13.5 2.35186 12.9574C2.15784 12.7289 2.06253 12.4308 2.08737 12.1302C2.14587 11.4225 2.87716 10.9535 3.05058 10.2865C3.29856 9.33304 2.1602 8.75071 2.08737 7.86971C2.06253 7.56915 2.15784 7.27108 2.35186 7.04254C2.9308 6.36066 4.18266 6.5854 4.54381 5.66148C4.79735 5.01296 4.4719 4.19352 4.84521 3.58043C4.99783 3.32978 5.24139 3.14998 5.52342 3.07974C6.22271 2.9056 6.90647 3.48652 7.60331 3.43609C8.59291 3.36451 8.75675 2.07834 9.59541 1.74435Z" fill="#A06AFF"/>
<path d="M7.5 11.1111C7.5 11.1111 8.22917 11.1111 8.95833 12.5C8.95833 12.5 11.2745 9.02779 13.3333 8.33337" stroke="white" stroke-width="1.5" stroke-linecap="round" stroke-linejoin="round"/>
</svg>
