<svg width="84" height="85" viewBox="0 0 84 85" fill="none" xmlns="http://www.w3.org/2000/svg">
<path opacity="0.981" fill-rule="evenodd" clip-rule="evenodd" d="M41.9717 6.00269C42.1502 6.12805 42.3213 6.26495 42.485 6.41335C42.4975 18.1671 42.4975 29.9208 42.485 41.6747C42.3159 41.5366 42.1418 41.4059 41.9624 41.2827C41.8071 41.4132 41.6514 41.5438 41.4957 41.6747C41.4832 29.9147 41.4832 18.1547 41.4957 6.39469C41.654 6.26144 41.8127 6.13078 41.9717 6.00269Z" fill="white"/>
<path opacity="0.981" fill-rule="evenodd" clip-rule="evenodd" d="M38.7807 8.52271C38.8026 20.2547 38.8056 31.9899 38.7901 43.728C38.4608 43.9797 38.1341 44.2347 37.8101 44.4934C37.7882 32.7645 37.7852 21.0355 37.8007 9.30671C38.1255 9.04082 38.4522 8.77948 38.7807 8.52271Z" fill="white"/>
<path opacity="0.981" fill-rule="evenodd" clip-rule="evenodd" d="M45.1828 8.61597C45.5172 8.86304 45.847 9.11816 46.1722 9.3813C46.1908 21.1101 46.197 32.8391 46.1908 44.568C46.1712 44.5708 46.1526 44.5676 46.1348 44.5586C45.8207 44.3066 45.5063 44.0546 45.1922 43.8026C45.1828 32.0738 45.1797 20.3448 45.1828 8.61597Z" fill="white"/>
<path opacity="0.999" fill-rule="evenodd" clip-rule="evenodd" d="M35.0843 11.4348C35.1092 23.1668 35.1092 34.902 35.0843 46.6401C34.767 46.889 34.4497 47.138 34.1323 47.3868C34.1105 35.658 34.1075 23.929 34.123 12.2001C34.4431 11.9424 34.7634 11.6873 35.0843 11.4348Z" fill="white"/>
<path opacity="0.999" fill-rule="evenodd" clip-rule="evenodd" d="M48.8781 11.5281C49.2121 11.7716 49.5388 12.0267 49.8581 12.2934C49.8736 24.0222 49.8707 35.7513 49.8488 47.4801C49.5257 47.2285 49.2052 46.9735 48.8875 46.7147C48.8781 34.9859 48.875 23.2569 48.8781 11.5281Z" fill="white"/>
<path opacity="0.981" fill-rule="evenodd" clip-rule="evenodd" d="M31.3871 14.3467C31.4119 20.2048 31.4244 26.0693 31.4244 31.94C31.4212 37.8045 31.4182 43.6688 31.4151 49.5333C31.0867 49.7863 30.7601 50.0413 30.4351 50.2987C30.4132 38.5699 30.4102 26.8408 30.4257 15.112C30.7459 14.8543 31.0662 14.5992 31.3871 14.3467Z" fill="white"/>
<path opacity="0.981" fill-rule="evenodd" clip-rule="evenodd" d="M52.555 14.4214C52.8897 14.6689 53.2196 14.924 53.5444 15.1867C53.5662 26.9219 53.5692 38.6569 53.5537 50.3921C53.2244 50.1404 52.8978 49.8854 52.5737 49.6267C52.555 37.8915 52.5489 26.1566 52.555 14.4214Z" fill="white"/>
<path opacity="0.981" fill-rule="evenodd" clip-rule="evenodd" d="M27.7104 17.24C27.7323 28.972 27.7352 40.7072 27.7198 52.4453C27.3914 52.6983 27.0647 52.9532 26.7398 53.2107C26.7179 41.4818 26.7149 29.7528 26.7304 18.024C27.0601 17.7645 27.3867 17.5032 27.7104 17.24Z" fill="white"/>
<path opacity="0.981" fill-rule="evenodd" clip-rule="evenodd" d="M56.2512 17.3335C56.5855 17.5806 56.9154 17.8357 57.2405 18.0988C57.2624 29.834 57.2654 41.569 57.2499 53.3042C56.9148 53.0499 56.585 52.7886 56.2605 52.5202C56.2512 40.7913 56.248 29.0623 56.2512 17.3335Z" fill="white"/>
<path opacity="0.999" fill-rule="evenodd" clip-rule="evenodd" d="M24.0156 20.1521C24.0375 31.8841 24.0405 43.6193 24.025 55.3574C23.6961 55.6055 23.3726 55.8605 23.0543 56.1228C23.0418 44.3876 23.0418 32.6526 23.0543 20.9174C23.3812 20.6686 23.7017 20.4136 24.0156 20.1521Z" fill="white"/>
<path opacity="0.999" fill-rule="evenodd" clip-rule="evenodd" d="M59.9485 20.2454C60.2428 20.4681 60.5353 20.695 60.8258 20.9267C60.8445 20.9392 60.8631 20.9392 60.8818 20.9267C60.895 20.9034 60.9105 20.8815 60.9285 20.8614C60.944 32.64 60.941 44.4187 60.9191 56.1974C60.596 55.9457 60.2755 55.6907 59.9578 55.432C59.9485 43.7032 59.9453 31.9742 59.9485 20.2454Z" fill="white"/>
<path opacity="0.984" fill-rule="evenodd" clip-rule="evenodd" d="M28.1783 57.8027C28.4956 57.8027 28.8129 57.8027 29.1303 57.8027C30.9471 61.7102 32.7641 65.6179 34.5809 69.5254C33.9463 69.5286 33.3116 69.5254 32.6769 69.5161C32.1516 68.3572 31.6228 67.1999 31.0903 66.0441C29.2111 66.0286 27.3321 66.0316 25.4529 66.0534C24.9396 67.2046 24.4263 68.3556 23.9129 69.5067C23.6251 69.5252 23.3357 69.5314 23.0449 69.5254C24.7486 65.6149 26.4598 61.7074 28.1783 57.8027ZM28.2716 59.7814C29.1112 61.6337 29.9512 63.4879 30.7916 65.3441C29.1179 65.3659 27.4441 65.3689 25.7703 65.3534C26.606 63.4966 27.4396 61.6393 28.2716 59.7814Z" fill="white"/>
<path opacity="0.983" fill-rule="evenodd" clip-rule="evenodd" d="M36.708 57.8027C37.38 57.7995 38.052 57.8027 38.724 57.812C39.8968 59.408 41.0699 61.004 42.2427 62.6C43.4379 61.0098 44.6294 59.4168 45.8174 57.8214C46.0974 57.7965 46.3774 57.7965 46.6574 57.8214C45.3479 59.6255 44.0349 61.4268 42.7187 63.2254C44.2383 65.3269 45.769 67.4205 47.3107 69.5067C46.6262 69.5315 45.9419 69.5315 45.2574 69.5067C43.9822 67.7619 42.7036 66.0196 41.4214 64.28C40.1261 66.017 38.8381 67.7593 37.5574 69.5067C37.2755 69.5313 36.9923 69.5313 36.708 69.5067C38.1244 67.554 39.5431 65.6033 40.964 63.6547C39.556 61.7177 38.1403 59.7857 36.7174 57.8587C36.7084 57.841 36.7052 57.8223 36.708 57.8027Z" fill="white"/>
<path opacity="0.984" fill-rule="evenodd" clip-rule="evenodd" d="M54.5337 57.8028C54.8512 57.7967 55.1686 57.8028 55.4857 57.8215C57.31 61.7204 59.1268 65.6217 60.9364 69.5255C60.3015 69.5317 59.6669 69.5255 59.0324 69.5068C58.4991 68.3532 57.9764 67.1959 57.4644 66.0348C55.5791 66.0348 53.6937 66.0348 51.8084 66.0348C51.302 67.1931 50.7918 68.3504 50.2777 69.5068C49.9856 69.5255 49.6931 69.5317 49.4004 69.5255C51.1116 65.618 52.8226 61.7103 54.5337 57.8028ZM54.6271 59.7628C55.4712 61.6194 56.3112 63.4798 57.1471 65.3442C55.4734 65.366 53.7996 65.369 52.1257 65.3535C52.9724 63.4952 53.8063 61.6316 54.6271 59.7628Z" fill="white"/>
<path opacity="0.97" fill-rule="evenodd" clip-rule="evenodd" d="M25.6201 73.016C26.2322 72.9611 26.8231 73.0451 27.3934 73.268C28.0992 73.5874 28.5037 74.1317 28.6067 74.9014C28.3142 74.9014 28.0219 74.9014 27.7294 74.9014C27.6234 74.0582 27.1567 73.5448 26.3294 73.3614C25.3153 73.2413 24.6091 73.649 24.2107 74.584C23.8731 75.5045 23.8544 76.4316 24.1547 77.3654C24.597 78.5275 25.4276 78.9787 26.6467 78.7187C27.3266 78.4648 27.7124 77.9763 27.8041 77.2534C28.0966 77.2534 28.3889 77.2534 28.6814 77.2534C28.5134 78.1835 27.9721 78.7715 27.0574 79.0174C26.3016 79.2007 25.5549 79.1695 24.8174 78.924C24.0528 78.6199 23.527 78.0816 23.2401 77.3094C23.059 76.7695 22.9969 76.2157 23.0534 75.648C23.1301 74.6899 23.5625 73.9464 24.3507 73.4174C24.7489 73.1967 25.1719 73.0629 25.6201 73.016Z" fill="white"/>
<path opacity="0.975" fill-rule="evenodd" clip-rule="evenodd" d="M32.0977 73.072C32.2704 73.066 32.4415 73.0724 32.611 73.0907C33.5405 75.0802 34.4645 77.0713 35.383 79.064C35.0532 79.064 34.7235 79.064 34.3937 79.064C34.1391 78.4646 33.8716 77.8703 33.591 77.2813C32.639 77.2688 31.687 77.2688 30.735 77.2813C30.467 77.8675 30.2027 78.4555 29.9417 79.0453C29.7909 79.0636 29.6384 79.07 29.4844 79.064C30.3503 77.0646 31.2213 75.0673 32.0977 73.072ZM32.1537 74.0987C32.5899 75.0367 33.0193 75.9793 33.4417 76.9267C32.5892 76.9392 31.7369 76.9392 30.8844 76.9267C31.3102 75.9849 31.7333 75.0423 32.1537 74.0987Z" fill="white"/>
<path opacity="0.988" fill-rule="evenodd" clip-rule="evenodd" d="M36.7266 73.072C37.5044 73.0688 38.2821 73.072 39.0599 73.0813C39.6139 73.1207 40.0993 73.3197 40.5159 73.6787C40.9908 74.1912 41.1121 74.7792 40.8799 75.4427C40.6635 75.9104 40.3119 76.2308 39.8252 76.404C39.6318 76.4768 39.4329 76.5264 39.2279 76.5533C38.681 76.58 38.1333 76.5894 37.5852 76.5813C37.5852 77.4088 37.5852 78.2365 37.5852 79.064C37.2991 79.064 37.0127 79.064 36.7266 79.064C36.7266 77.0667 36.7266 75.0693 36.7266 73.072ZM37.5852 73.4267C37.9836 73.4235 38.3817 73.4267 38.7799 73.436C39.3854 73.5127 39.7991 73.8332 40.0212 74.3973C40.1797 74.9738 40.0461 75.4684 39.6199 75.8813C39.377 76.0661 39.1034 76.1781 38.7986 76.2173C38.3946 76.2422 37.9901 76.2515 37.5852 76.2453C37.5852 75.3058 37.5852 74.3662 37.5852 73.4267Z" fill="white"/>
<path opacity="0.978" fill-rule="evenodd" clip-rule="evenodd" d="M42.4199 73.072C42.7124 73.072 43.0047 73.072 43.2973 73.072C43.2973 75.0694 43.2973 77.0667 43.2973 79.064C43.0047 79.064 42.7124 79.064 42.4199 79.064C42.4199 77.0667 42.4199 75.0694 42.4199 73.072Z" fill="white"/>
<path opacity="0.974" fill-rule="evenodd" clip-rule="evenodd" d="M44.623 73.072C46.3777 73.072 48.1324 73.072 49.887 73.072C49.887 73.1902 49.887 73.3085 49.887 73.4267C49.1529 73.4267 48.4185 73.4267 47.6844 73.4267C47.6844 75.3059 47.6844 77.1849 47.6844 79.064C47.3919 79.064 47.0996 79.064 46.807 79.064C46.807 77.1849 46.807 75.3059 46.807 73.4267C46.079 73.4267 45.351 73.4267 44.623 73.4267C44.623 73.3085 44.623 73.1902 44.623 73.072Z" fill="white"/>
<path opacity="0.976" fill-rule="evenodd" clip-rule="evenodd" d="M52.3312 73.0721C52.4996 73.066 52.6676 73.0721 52.8352 73.0908C53.7572 75.0779 54.6843 77.0629 55.6166 79.0455C55.2867 79.0703 54.9571 79.0703 54.6272 79.0455C54.3597 78.4606 54.092 77.8756 53.8246 77.2908C52.8664 77.266 51.908 77.266 50.9499 77.2908C50.6886 77.8756 50.4272 78.4606 50.1659 79.0455C50.0104 79.0703 49.8547 79.0703 49.6992 79.0455C50.5767 77.0539 51.4541 75.0627 52.3312 73.0721ZM52.3686 74.0988C52.8175 75.034 53.2468 75.9798 53.6566 76.9361C52.8102 76.9423 51.964 76.9361 51.1179 76.9175C51.5403 75.9795 51.9571 75.04 52.3686 74.0988Z" fill="white"/>
<path opacity="0.976" fill-rule="evenodd" clip-rule="evenodd" d="M56.9434 73.072C57.2359 73.072 57.5282 73.072 57.8207 73.072C57.8207 74.9512 57.8207 76.8302 57.8207 78.7094C58.8599 78.7094 59.8989 78.7094 60.938 78.7094C60.938 78.8275 60.938 78.9459 60.938 79.064C59.6065 79.064 58.2749 79.064 56.9434 79.064C56.9434 77.0667 56.9434 75.0694 56.9434 73.072Z" fill="white"/>
</svg>
