<svg width="20" height="20" viewBox="0 0 20 20" fill="none" xmlns="http://www.w3.org/2000/svg">
<circle cx="10" cy="10" r="10" fill="#FF6A6A"/>
<path d="M11.75 4.4585V5.3335C11.75 6.15845 11.75 6.57093 12.0063 6.82721C12.2626 7.0835 12.675 7.0835 13.5 7.0835H14.375" stroke="white" stroke-width="1.5" stroke-linecap="round" stroke-linejoin="round"/>
<path d="M5.3335 12.3332V7.6665C5.3335 6.01659 5.3335 5.19163 5.84606 4.67907C6.35862 4.1665 7.18358 4.1665 8.8335 4.1665H11.2669C11.5053 4.1665 11.6246 4.1665 11.7318 4.21091C11.8389 4.25531 11.9233 4.33961 12.0919 4.50821L14.3251 6.74146C14.4937 6.91006 14.578 6.99436 14.6224 7.10156C14.6668 7.20876 14.6668 7.32798 14.6668 7.56642V12.3332C14.6668 13.9831 14.6668 14.808 14.1543 15.3206C13.6417 15.8332 12.8167 15.8332 11.1668 15.8332H8.8335C7.18358 15.8332 6.35862 15.8332 5.84606 15.3206C5.3335 14.808 5.3335 13.9831 5.3335 12.3332Z" stroke="white" stroke-width="1.5" stroke-linecap="round" stroke-linejoin="round"/>
<path d="M7.6665 9.4165H12.3332M7.6665 11.1665H12.3332M7.6665 12.9165H10.0995" stroke="white" stroke-width="1.5" stroke-linecap="round" stroke-linejoin="round"/>
</svg>
