<svg width="20" height="20" viewBox="0 0 20 20" fill="none" xmlns="http://www.w3.org/2000/svg">
<circle cx="10" cy="10" r="10" fill="#F7A350"/>
<path d="M12.1 7.90019V10.5252C12.1 11.395 12.8051 12.1002 13.675 12.1002C14.5449 12.1002 15.25 11.395 15.25 10.5252V10C15.25 7.10051 12.8995 4.75 10 4.75C7.10051 4.75 4.75 7.10051 4.75 10C4.75 12.8995 7.10051 15.25 10 15.25C11.1821 15.25 12.273 14.8593 13.1505 14.2M12.1 10.0002C12.1 11.16 11.1598 12.1002 10 12.1002C8.84022 12.1002 7.9 11.16 7.9 10.0002C7.9 8.84039 8.84022 7.90019 10 7.90019C11.1598 7.90019 12.1 8.84039 12.1 10.0002Z" stroke="white" stroke-width="1.5" stroke-linecap="round"/>
</svg>
