<svg width="20" height="20" viewBox="0 0 20 20" fill="none" xmlns="http://www.w3.org/2000/svg">
<circle cx="10" cy="10" r="10" fill="#6A8DFF"/>
<path d="M6.83692 12.0308C6.01164 12.5222 3.8478 13.5256 5.16572 14.7812C5.80952 15.3945 6.52654 15.8332 7.42801 15.8332H12.572C13.4735 15.8332 14.1905 15.3945 14.8343 14.7812C16.1522 13.5256 13.9884 12.5222 13.1631 12.0308C11.2278 10.8784 8.7722 10.8784 6.83692 12.0308Z" stroke="white" stroke-width="1.5" stroke-linecap="round" stroke-linejoin="round"/>
<path d="M12.625 6.7915C12.625 8.24125 11.4498 9.4165 10 9.4165C8.55025 9.4165 7.375 8.24125 7.375 6.7915C7.375 5.34176 8.55025 4.1665 10 4.1665C11.4498 4.1665 12.625 5.34176 12.625 6.7915Z" stroke="white" stroke-width="1.5"/>
</svg>
