<svg  viewBox="0 0 28 28" fill="none" xmlns="http://www.w3.org/2000/svg">
<path d="M2.95141 17.2312C2.70332 18.8575 3.81251 19.9864 5.17056 20.549C10.3771 22.7059 17.6226 22.7059 22.8291 20.549C24.1872 19.9864 25.2963 18.8575 25.0483 17.2312C24.8958 16.2317 24.1419 15.3994 23.5833 14.5867C22.8517 13.5092 22.779 12.3338 22.7789 11.0833C22.7789 6.25084 18.8484 2.33333 13.9998 2.33333C9.15132 2.33333 5.22082 6.25084 5.22082 11.0833C5.22071 12.3338 5.14801 13.5092 4.41638 14.5867C3.85782 15.3994 3.10388 16.2317 2.95141 17.2312Z" stroke="currentColor" stroke-width="1.5" stroke-linecap="round" stroke-linejoin="round"/>
<path d="M9.3335 22.1667C9.8684 24.1794 11.7549 25.6667 14.0002 25.6667C16.2454 25.6667 18.1319 24.1794 18.6668 22.1667" stroke="currentColor" stroke-width="1.5" stroke-linecap="round" stroke-linejoin="round"/>
</svg>
