<svg width="20" height="20" viewBox="0 0 20 20" fill="none" xmlns="http://www.w3.org/2000/svg">
<path d="M15.5133 16.6667H15.9218C16.8799 16.6667 17.6421 16.2301 18.3264 15.6197C20.0648 14.0689 15.9783 12.5 14.5832 12.5M12.9165 4.224C13.1058 4.18646 13.3023 4.16669 13.5038 4.16669C15.0204 4.16669 16.2498 5.28598 16.2498 6.66669C16.2498 8.0474 15.0204 9.16669 13.5038 9.16669C13.3023 9.16669 13.1058 9.14694 12.9165 9.10935" stroke="#B0B0B0" stroke-width="1.5" stroke-linecap="round"/>
<path d="M3.73443 13.426C2.75195 13.9525 0.175949 15.0276 1.7449 16.3728C2.51133 17.03 3.36493 17.5 4.4381 17.5H10.5619C11.6351 17.5 12.4887 17.03 13.2551 16.3728C14.8241 15.0276 12.2481 13.9525 11.2656 13.426C8.96167 12.1913 6.03833 12.1913 3.73443 13.426Z" stroke="#B0B0B0" stroke-width="1.5"/>
<path d="M10.8332 6.25002C10.8332 8.09097 9.34075 9.58335 7.49984 9.58335C5.65889 9.58335 4.1665 8.09097 4.1665 6.25002C4.1665 4.40907 5.65889 2.91669 7.49984 2.91669C9.34075 2.91669 10.8332 4.40907 10.8332 6.25002Z" stroke="#B0B0B0" stroke-width="1.5"/>
</svg>
