<svg width="21" height="20" viewBox="0 0 21 20" fill="none" xmlns="http://www.w3.org/2000/svg">
<path d="M6.33333 14.1666V10.8333" stroke="currentColor" stroke-width="1.5" stroke-linecap="round"/>
<path d="M10.5 14.1666V5.83325" stroke="currentColor" stroke-width="1.5" stroke-linecap="round"/>
<path d="M14.6667 14.1667V9.16675" stroke="currentColor" stroke-width="1.5" stroke-linecap="round"/>
<path d="M2.58333 9.99992C2.58333 6.26797 2.58333 4.40199 3.7427 3.24262C4.90207 2.08325 6.76805 2.08325 10.5 2.08325C14.2319 2.08325 16.0979 2.08325 17.2573 3.24262C18.4167 4.40199 18.4167 6.26797 18.4167 9.99992C18.4167 13.7318 18.4167 15.5978 17.2573 16.7573C16.0979 17.9166 14.2319 17.9166 10.5 17.9166C6.76805 17.9166 4.90207 17.9166 3.7427 16.7573C2.58333 15.5978 2.58333 13.7318 2.58333 9.99992Z" stroke="currentColor" stroke-width="1.5" stroke-linejoin="round"/>
</svg>
