<svg width="21" height="20" viewBox="0 0 21 20" fill="none" xmlns="http://www.w3.org/2000/svg">
<path d="M18.7638 8.74998C18.7793 8.87965 18.7913 9.01048 18.7998 9.14223C18.8445 9.83407 18.8445 10.5506 18.7998 11.2424C18.5713 14.7777 15.7947 17.5937 12.3088 17.8254C11.1196 17.9045 9.878 17.9043 8.69114 17.8254C8.28244 17.7982 7.83698 17.7007 7.45332 17.5427C7.02645 17.3669 6.81298 17.279 6.70451 17.2923C6.59603 17.3057 6.43864 17.4217 6.12388 17.6538C5.56888 18.0631 4.8697 18.3571 3.83283 18.3318C3.30853 18.3191 3.04638 18.3127 2.92901 18.1126C2.81165 17.9125 2.95782 17.6355 3.25015 17.0815C3.65559 16.3132 3.91248 15.4336 3.52323 14.7288C2.85283 13.7222 2.28339 12.53 2.20018 11.2424C2.15547 10.5506 2.15547 9.83407 2.20018 9.14223C2.42865 5.60699 5.2053 2.79094 8.69114 2.55923C9.69317 2.49262 10.7343 2.48213 11.75 2.52807" stroke="currentColor" stroke-width="1.5" stroke-linecap="round" stroke-linejoin="round"/>
<path d="M7.58331 12.5002H13.4167M7.58331 8.3335H9.66667" stroke="currentColor" stroke-width="1.5" stroke-linecap="round" stroke-linejoin="round"/>
<path d="M17.8903 2.03286L18.4673 2.60984C18.9554 3.09799 18.9554 3.88944 18.4673 4.3776L15.4444 7.45732C15.2066 7.69511 14.9024 7.85541 14.5719 7.91715L12.6984 8.32385C12.4027 8.38806 12.1393 8.12543 12.2026 7.82945L12.6013 5.96669C12.6631 5.63611 12.8234 5.33194 13.0612 5.09415L16.1225 2.03286C16.6107 1.54471 17.4021 1.54471 17.8903 2.03286Z" stroke="currentColor" stroke-width="1.5" stroke-linecap="round" stroke-linejoin="round"/>
</svg>
