<svg width="21" height="20" viewBox="0 0 21 20" fill="none" xmlns="http://www.w3.org/2000/svg">
<path d="M13.8335 8.33331L14.8556 9.21431C15.2853 9.58465 15.5002 9.7699 15.5002 9.99998C15.5002 10.2301 15.2853 10.4153 14.8556 10.7856L13.8335 11.6666" stroke="currentColor
" stroke-width="1.5" stroke-linecap="round" stroke-linejoin="round"/>
<path d="M7.16667 8.33331L6.14455 9.21431C5.71485 9.58465 5.5 9.7699 5.5 9.99998C5.5 10.2301 5.71485 10.4153 6.14455 10.7856L7.16667 11.6666" stroke="currentColor
" stroke-width="1.5" stroke-linecap="round" stroke-linejoin="round"/>
<path d="M11.3332 7.5L9.6665 12.5" stroke="currentColor
" stroke-width="1.5" stroke-linecap="round" stroke-linejoin="round"/>
<path d="M2.5835 9.99998C2.5835 6.26803 2.5835 4.40205 3.74286 3.24268C4.90224 2.08331 6.76821 2.08331 10.5002 2.08331C14.2321 2.08331 16.0981 2.08331 17.2575 3.24268C18.4168 4.40205 18.4168 6.26803 18.4168 9.99998C18.4168 13.7319 18.4168 15.5979 17.2575 16.7573C16.0981 17.9166 14.2321 17.9166 10.5002 17.9166C6.76821 17.9166 4.90224 17.9166 3.74286 16.7573C2.5835 15.5979 2.5835 13.7319 2.5835 9.99998Z" stroke="currentColor
" stroke-width="1.5"/>
</svg>
