<svg width="20" height="20" viewBox="0 0 20 20" fill="none" xmlns="http://www.w3.org/2000/svg">
<g clip-path="url(#clip0_921_3723)">
<path d="M12.9167 10.8333C15.9082 10.8333 18.3333 10.0871 18.3333 9.16667C18.3333 8.24619 15.9082 7.5 12.9167 7.5C9.92512 7.5 7.5 8.24619 7.5 9.16667C7.5 10.0871 9.92512 10.8333 12.9167 10.8333Z" stroke="currentColor" stroke-width="1.5"/>
<path d="M18.3333 12.917C18.3333 13.8375 15.9082 14.5837 12.9167 14.5837C9.92508 14.5837 7.5 13.8375 7.5 12.917" stroke="currentColor" stroke-width="1.5"/>
<path d="M18.3333 9.16699V16.5003C18.3333 17.5128 15.9082 18.3337 12.9167 18.3337C9.92508 18.3337 7.5 17.5128 7.5 16.5003V9.16699" stroke="currentColor" stroke-width="1.5"/>
<path d="M7.08317 5.00033C10.0747 5.00033 12.4998 4.25413 12.4998 3.33366C12.4998 2.41318 10.0747 1.66699 7.08317 1.66699C4.09163 1.66699 1.6665 2.41318 1.6665 3.33366C1.6665 4.25413 4.09163 5.00033 7.08317 5.00033Z" stroke="currentColor" stroke-width="1.5"/>
<path d="M4.99984 9.16667C3.42333 8.97483 1.97476 8.47875 1.6665 7.5M4.99984 13.3333C3.42333 13.1415 1.97476 12.6454 1.6665 11.6667" stroke="currentColor" stroke-width="1.5" stroke-linecap="round"/>
<path d="M4.99984 17.4997C3.42333 17.3078 1.97476 16.8118 1.6665 15.833V3.33301" stroke="currentColor" stroke-width="1.5" stroke-linecap="round"/>
<path d="M12.5 4.99967V3.33301" stroke="currentColor" stroke-width="1.5" stroke-linecap="round"/>
</g>
<defs>
<clipPath id="clip0_921_3723">
<rect width="20" height="20" fill="white"/>
</clipPath>
</defs>
</svg>
