<svg width="20" height="20" viewBox="0 0 20 20" fill="none" xmlns="http://www.w3.org/2000/svg">
<g clip-path="url(#clip0_921_3683)">
<path d="M9.99984 18.3337C5.39746 18.3337 1.6665 14.6027 1.6665 10.0003C1.6665 7.67321 2.62038 5.56888 4.15848 4.05701M9.99984 18.3337C9.19734 17.739 9.32542 17.0466 9.728 16.3542C10.347 15.2898 10.347 15.2898 10.347 13.8707C10.347 12.4515 11.1903 11.7861 14.1665 12.3812C15.5038 12.6487 16.4783 10.8011 18.2143 11.4112M9.99984 18.3337C14.1213 18.3337 17.544 15.3417 18.2143 11.4112M4.15848 4.05701C4.86622 4.1317 5.26248 4.51086 5.92064 5.20629C7.17017 6.52659 8.41967 6.63676 9.25275 6.19666C10.5023 5.53652 9.45225 4.46724 10.9188 3.88614C11.8178 3.52992 11.9892 2.59698 11.5637 1.81348M4.15848 4.05701C5.6623 2.57883 7.72458 1.66699 9.99984 1.66699C10.5343 1.66699 11.0571 1.71732 11.5637 1.81348M18.2143 11.4112C18.2924 10.9526 18.3332 10.4812 18.3332 10.0003C18.3332 5.93247 15.4185 2.54537 11.5637 1.81348" stroke="currentColor" stroke-width="1.5" stroke-linejoin="round"/>
</g>
<defs>
<clipPath id="clip0_921_3683">
<rect width="20" height="20" fill="white"/>
</clipPath>
</defs>
</svg>
