<svg width="21" height="20" viewBox="0 0 21 20" fill="none" xmlns="http://www.w3.org/2000/svg">
<path d="M7.58333 12.0834H13.4167M7.58333 7.91675H10.5" stroke="currentColor" stroke-width="1.5" stroke-linecap="round" stroke-linejoin="round"/>
<path d="M12.3088 17.4087C15.7947 17.177 18.5713 14.3609 18.7998 10.8257C18.8445 10.1338 18.8445 9.41734 18.7998 8.7255C18.5713 5.19024 15.7947 2.37419 12.3088 2.14248C11.1196 2.06343 9.878 2.06359 8.69117 2.14248C5.20532 2.37419 2.42867 5.19024 2.2002 8.7255C2.15549 9.41734 2.15549 10.1338 2.2002 10.8257C2.28342 12.1133 2.85286 13.3054 3.52326 14.3121C3.91251 15.0168 3.65562 15.8964 3.25017 16.6648C2.95784 17.2188 2.81167 17.4958 2.92903 17.6958C3.0464 17.8959 3.30855 17.9023 3.83286 17.9151C4.86972 17.9403 5.5689 17.6463 6.1239 17.2371C6.43867 17.005 6.59606 16.8889 6.70453 16.8756C6.813 16.8623 7.02647 16.9502 7.45334 17.126C7.837 17.284 8.28247 17.3815 8.69117 17.4087C9.878 17.4876 11.1196 17.4878 12.3088 17.4087Z" stroke="currentColor" stroke-width="1.5" stroke-linejoin="round"/>
</svg>
