<svg width="21" height="20" viewBox="0 0 21 20" fill="none" xmlns="http://www.w3.org/2000/svg">
<path d="M6.33333 5.83325L7.35545 6.71424C7.78515 7.08461 8 7.2698 8 7.49992C8 7.73004 7.78515 7.91522 7.35545 8.28559L6.33333 9.16659" stroke="currentColor" stroke-width="1.5" stroke-linecap="round" stroke-linejoin="round"/>
<path d="M9.66666 9.16675H12.1667" stroke="currentColor" stroke-width="1.5" stroke-linecap="round" stroke-linejoin="round"/>
<path d="M10.5 17.5C13.6247 17.5 15.1872 17.5 16.2824 16.7042C16.6362 16.4472 16.9472 16.1362 17.2042 15.7824C18 14.6872 18 13.1247 18 10C18 6.87522 18 5.31283 17.2042 4.21756C16.9472 3.86383 16.6362 3.55276 16.2824 3.29576C15.1872 2.5 13.6247 2.5 10.5 2.5C7.37522 2.5 5.81283 2.5 4.71756 3.29576C4.36383 3.55276 4.05276 3.86383 3.79576 4.21756C3 5.31283 3 6.87522 3 10C3 13.1247 3 14.6872 3.79576 15.7824C4.05276 16.1362 4.36383 16.4472 4.71756 16.7042C5.81283 17.5 7.37522 17.5 10.5 17.5Z" stroke="currentColor" stroke-width="1.5" stroke-linecap="round" stroke-linejoin="round"/>
</svg>
