<svg width="380" height="50" viewBox="0 0 380 50" fill="none" xmlns="http://www.w3.org/2000/svg">
<rect y="1" width="44" height="44" rx="4" fill="#181A20"/>
<path d="M26.659 28L27.834 26.825L24.0173 23L27.834 19.175L26.659 18L21.659 23L26.659 28Z" fill="#808283"/>
<path d="M21.1668 28L22.3418 26.825L18.5251 23L22.3418 19.175L21.1668 18L16.1668 23L21.1668 28Z" fill="#808283"/>
<rect x="48" y="1" width="44" height="44" rx="4" fill="#181A20"/>
<path d="M72.575 28L73.75 26.825L69.9333 23L73.75 19.175L72.575 18L67.575 23L72.575 28Z" fill="#808283"/>
<rect x="96" y="1" width="44" height="44" rx="4" fill="#A06AFF"/>
<path d="M115.138 28V26.41H117.523V19.045H118.453L115.678 20.725L114.928 19.315L118.078 17.425H119.443V26.41H121.678V28H115.138Z" fill="white"/>
<rect x="144" y="1" width="44" height="44" rx="4" fill="#181A20"/>
<path d="M162.703 28V26.575L166.123 22.93C166.433 22.6 166.678 22.295 166.858 22.015C167.048 21.735 167.188 21.465 167.278 21.205C167.368 20.945 167.413 20.685 167.413 20.425C167.413 19.925 167.253 19.545 166.933 19.285C166.623 19.025 166.168 18.895 165.568 18.895C165.098 18.895 164.638 18.985 164.188 19.165C163.748 19.335 163.323 19.605 162.913 19.975L162.268 18.535C162.688 18.155 163.213 17.85 163.843 17.62C164.473 17.39 165.128 17.275 165.808 17.275C166.568 17.275 167.208 17.39 167.728 17.62C168.248 17.85 168.643 18.185 168.913 18.625C169.183 19.065 169.318 19.6 169.318 20.23C169.318 20.55 169.278 20.865 169.198 21.175C169.128 21.475 169.013 21.775 168.853 22.075C168.703 22.375 168.508 22.685 168.268 23.005C168.038 23.315 167.758 23.64 167.428 23.98L164.608 26.92V26.41H169.723V28H162.703Z" fill="#808283"/>
<rect x="192" y="1" width="44" height="44" rx="4" fill="#181A20"/>
<path d="M213.793 28.15C213.313 28.15 212.843 28.1 212.383 28C211.933 27.91 211.513 27.775 211.123 27.595C210.733 27.415 210.393 27.2 210.103 26.95L210.733 25.48C211.203 25.84 211.683 26.105 212.173 26.275C212.663 26.445 213.183 26.53 213.733 26.53C214.173 26.53 214.543 26.47 214.843 26.35C215.143 26.23 215.368 26.05 215.518 25.81C215.678 25.57 215.758 25.28 215.758 24.94C215.758 24.44 215.588 24.07 215.248 23.83C214.918 23.58 214.433 23.455 213.793 23.455H212.098V21.865H213.613C213.993 21.865 214.318 21.805 214.588 21.685C214.858 21.555 215.068 21.375 215.218 21.145C215.368 20.915 215.443 20.635 215.443 20.305C215.443 19.845 215.288 19.495 214.978 19.255C214.678 19.015 214.238 18.895 213.658 18.895C213.138 18.895 212.653 18.985 212.203 19.165C211.753 19.335 211.323 19.605 210.913 19.975L210.283 18.535C210.703 18.135 211.228 17.825 211.858 17.605C212.488 17.385 213.143 17.275 213.823 17.275C214.553 17.275 215.178 17.39 215.698 17.62C216.218 17.84 216.613 18.16 216.883 18.58C217.163 18.99 217.303 19.49 217.303 20.08C217.303 20.71 217.128 21.255 216.778 21.715C216.428 22.165 215.948 22.465 215.338 22.615V22.435C215.818 22.515 216.228 22.675 216.568 22.915C216.908 23.155 217.168 23.46 217.348 23.83C217.528 24.2 217.618 24.625 217.618 25.105C217.618 25.725 217.463 26.265 217.153 26.725C216.843 27.185 216.403 27.54 215.833 27.79C215.263 28.03 214.583 28.15 213.793 28.15Z" fill="#808283"/>
<g filter="url(#filter0_d_5127_3922)">
<rect x="240" y="1" width="44" height="44" rx="4" fill="#181A20" shape-rendering="crispEdges"/>
<path d="M262.738 28V25.99H258.133V24.58L263.068 17.425H264.658V24.4H266.143V25.99H264.658V28H262.738ZM262.738 24.4V19.72H263.173L259.633 24.91V24.4H262.738Z" fill="#808283"/>
</g>
<rect x="288" y="1" width="44" height="44" rx="4" fill="#181A20"/>
<path d="M308.675 18L307.5 19.175L311.317 23L307.5 26.825L308.675 28L313.675 23L308.675 18Z" fill="#808283"/>
<rect x="336" y="1" width="44" height="44" rx="4" fill="#181A20"/>
<path d="M353.341 18L352.166 19.175L355.983 23L352.166 26.825L353.341 28L358.341 23L353.341 18Z" fill="#808283"/>
<path d="M358.833 18L357.658 19.175L361.475 23L357.658 26.825L358.833 28L363.833 23L358.833 18Z" fill="#808283"/>
<defs>
<filter id="filter0_d_5127_3922" x="237" y="0" width="50" height="50" filterUnits="userSpaceOnUse" color-interpolation-filters="sRGB">
<feFlood flood-opacity="0" result="BackgroundImageFix"/>
<feColorMatrix in="SourceAlpha" type="matrix" values="0 0 0 0 0 0 0 0 0 0 0 0 0 0 0 0 0 0 127 0" result="hardAlpha"/>
<feOffset dy="2"/>
<feGaussianBlur stdDeviation="1.5"/>
<feComposite in2="hardAlpha" operator="out"/>
<feColorMatrix type="matrix" values="0 0 0 0 0.121569 0 0 0 0 0.12549 0 0 0 0 0.219608 0 0 0 0.16 0"/>
<feBlend mode="normal" in2="BackgroundImageFix" result="effect1_dropShadow_5127_3922"/>
<feBlend mode="normal" in="SourceGraphic" in2="effect1_dropShadow_5127_3922" result="shape"/>
</filter>
</defs>
</svg>
