<svg width="21" height="21" viewBox="0 0 21 21" fill="none" xmlns="http://www.w3.org/2000/svg">
<g clip-path="url(#clip0_789_994)">
<rect width="21" height="21" fill="white"/>
<path d="M27.4482 20.9655H-3.44825C-3.75294 20.9655 -4 20.7185 -4 20.4138V0.551749C-4 0.247062 -3.75294 0 -3.44825 0H27.4483C27.7529 0 28 0.247062 28 0.551749V20.4138C27.9999 20.7185 27.7529 20.9655 27.4482 20.9655Z" fill="#F5F5F5"/>
<path d="M27.9999 1.61281H-4V0.551748C-4 0.247062 -3.75294 0 -3.44825 0H27.4483C27.7529 0 28 0.247062 28 0.551748L27.9999 1.61281Z" fill="#FF4B55"/>
<path d="M27.9999 6.45068H-4V8.06343H27.9999V6.45068Z" fill="#FF4B55"/>
<path d="M27.9999 3.2251H-4V4.83784H27.9999V3.2251Z" fill="#FF4B55"/>
<path d="M27.9999 11.2891H-3.44825C-3.75294 11.2891 -4 11.042 -4 10.7373V9.67627H27.9999V11.2891Z" fill="#FF4B55"/>
<path d="M27.9999 16.1279H-4V17.7407H27.9999V16.1279Z" fill="#FF4B55"/>
<path d="M27.4482 20.9653H-3.44825C-3.75294 20.9653 -4 20.7182 -4 20.4135V19.3525H27.9999V20.4136C27.9999 20.7183 27.7529 20.9653 27.4482 20.9653Z" fill="#FF4B55"/>
<path d="M27.9999 12.9023H-4V14.5151H27.9999V12.9023Z" fill="#FF4B55"/>
<path d="M10.3448 0H-3.44825C-3.75294 0 -4 0.246999 -4 0.551686V10.7373C-4 11.042 -3.75294 11.289 -3.44825 11.289H10.3448C10.6495 11.289 10.8966 11.042 10.8966 10.7373V0.551686C10.8965 0.246999 10.6495 0 10.3448 0Z" fill="#41479B"/>
<path d="M0.521802 1.26654L0.643927 1.63278L1.02999 1.63572C1.07999 1.63616 1.10068 1.69991 1.06049 1.7296L0.749927 1.95897L0.866427 2.32703C0.881552 2.37466 0.827239 2.41416 0.786552 2.38503L0.47249 2.16053L0.158428 2.38503C0.11774 2.41409 0.0635531 2.37466 0.078553 2.32703L0.195053 1.95897L-0.115509 1.7296C-0.155696 1.69985 -0.135009 1.63616 -0.085009 1.63572L0.301053 1.63278L0.423177 1.26654C0.438927 1.2191 0.50599 1.2191 0.521802 1.26654Z" fill="#F5F5F5"/>
<path d="M0.521802 3.1825L0.643927 3.54875L1.02999 3.55169C1.07999 3.55213 1.10068 3.61588 1.06049 3.64556L0.749927 3.87494L0.866427 4.243C0.881552 4.29063 0.827239 4.33013 0.786552 4.301L0.47249 4.0765L0.158428 4.301C0.11774 4.33006 0.0635531 4.29063 0.078553 4.243L0.195053 3.87494L-0.115509 3.64556C-0.155696 3.61582 -0.135009 3.55213 -0.085009 3.55169L0.301053 3.54875L0.423177 3.1825C0.438927 3.13513 0.50599 3.13513 0.521802 3.1825Z" fill="#F5F5F5"/>
<path d="M0.521802 5.09852L0.643927 5.46477L1.02999 5.46771C1.07999 5.46815 1.10068 5.5319 1.06049 5.56158L0.749927 5.79096L0.866427 6.15902C0.881552 6.20664 0.827239 6.24614 0.786552 6.21702L0.47249 5.99252L0.158428 6.21702C0.11774 6.24608 0.0635531 6.20664 0.078553 6.15902L0.195053 5.79096L-0.115509 5.56158C-0.155696 5.53183 -0.135009 5.46815 -0.085009 5.46771L0.301053 5.46477L0.423177 5.09852C0.438927 5.05114 0.50599 5.05114 0.521802 5.09852Z" fill="#F5F5F5"/>
<path d="M0.521802 7.01409L0.643927 7.38034L1.02999 7.38328C1.07999 7.38372 1.10068 7.44747 1.06049 7.47715L0.749927 7.70653L0.866427 8.07459C0.881552 8.12222 0.827239 8.16172 0.786552 8.13259L0.47249 7.90809L0.158428 8.13259C0.11774 8.16165 0.0635531 8.12222 0.078553 8.07459L0.195053 7.70653L-0.115509 7.47715C-0.155696 7.44741 -0.135009 7.38372 -0.085009 7.38328L0.301053 7.38034L0.423177 7.01409C0.438927 6.96666 0.50599 6.96666 0.521802 7.01409Z" fill="#F5F5F5"/>
<path d="M0.521802 8.93016L0.643927 9.29641L1.02999 9.29934C1.07999 9.29978 1.10068 9.36353 1.06049 9.39322L0.749927 9.62259L0.866427 9.99065C0.881552 10.0383 0.827239 10.0778 0.786552 10.0487L0.47249 9.82415L0.158428 10.0487C0.11774 10.0777 0.0635531 10.0383 0.078553 9.99065L0.195053 9.62259L-0.115509 9.39322C-0.155696 9.36347 -0.135009 9.29978 -0.085009 9.29934L0.301053 9.29641L0.423177 8.93016C0.438927 8.88266 0.50599 8.88266 0.521802 8.93016Z" fill="#F5F5F5"/>
<path d="M2.01008 2.20594L2.13221 2.57219L2.51827 2.57513C2.56827 2.57557 2.58896 2.63932 2.54877 2.669L2.23821 2.89838L2.35471 3.26644C2.36983 3.31407 2.31552 3.35356 2.27483 3.32444L1.96077 3.09994L1.64671 3.32444C1.60602 3.3535 1.55183 3.31407 1.56683 3.26644L1.68333 2.89838L1.37277 2.669C1.33258 2.63925 1.35327 2.57557 1.40327 2.57513L1.78933 2.57219L1.91146 2.20594C1.92715 2.15857 1.99427 2.15857 2.01008 2.20594Z" fill="#F5F5F5"/>
<path d="M2.01008 4.12152L2.13221 4.48776L2.51827 4.4907C2.56827 4.49114 2.58896 4.55489 2.54877 4.58458L2.23821 4.81395L2.35471 5.18201C2.36983 5.22964 2.31552 5.26914 2.27483 5.24001L1.96077 5.01551L1.64671 5.24001C1.60602 5.26907 1.55183 5.2297 1.56683 5.18201L1.68333 4.81395L1.37277 4.58458C1.33258 4.55483 1.35327 4.49114 1.40327 4.4907L1.78933 4.48776L1.91146 4.12152C1.92715 4.07408 1.99427 4.07408 2.01008 4.12152Z" fill="#F5F5F5"/>
<path d="M2.01008 6.03753L2.13221 6.40378L2.51827 6.40672C2.56827 6.40716 2.58896 6.47091 2.54877 6.50059L2.23821 6.72997L2.35471 7.09803C2.36983 7.14565 2.31552 7.18515 2.27483 7.15603L1.96077 6.93153L1.64671 7.15603C1.60602 7.18509 1.55183 7.14565 1.56683 7.09803L1.68333 6.72997L1.37277 6.50059C1.33258 6.47084 1.35327 6.40716 1.40327 6.40672L1.78933 6.40378L1.91146 6.03753C1.92715 5.99009 1.99427 5.99009 2.01008 6.03753Z" fill="#F5F5F5"/>
<path d="M2.01008 7.9535L2.13221 8.31975L2.51827 8.32269C2.56827 8.32312 2.58896 8.38687 2.54877 8.41656L2.23821 8.64594L2.35471 9.014C2.36983 9.06162 2.31552 9.10112 2.27483 9.072L1.96077 8.8475L1.64671 9.072C1.60602 9.10106 1.55183 9.06162 1.56683 9.014L1.68333 8.64594L1.37277 8.41656C1.33258 8.38681 1.35327 8.32312 1.40327 8.32269L1.78933 8.31975L1.91146 7.9535C1.92715 7.90613 1.99427 7.90613 2.01008 7.9535Z" fill="#F5F5F5"/>
<path d="M3.49843 1.26654L3.62055 1.63278L4.00661 1.63572C4.05661 1.63616 4.0773 1.69991 4.03711 1.7296L3.72655 1.95897L3.84305 2.32703C3.85818 2.37466 3.80386 2.41416 3.76318 2.38503L3.44905 2.16053L3.13499 2.38503C3.0943 2.41409 3.04012 2.37466 3.05512 2.32703L3.17162 1.95897L2.86105 1.7296C2.82087 1.69985 2.84155 1.63616 2.89155 1.63572L3.27762 1.63278L3.39974 1.26654C3.41555 1.2191 3.48261 1.2191 3.49843 1.26654Z" fill="#F5F5F5"/>
<path d="M3.49843 3.1825L3.62055 3.54875L4.00661 3.55169C4.05661 3.55213 4.0773 3.61588 4.03711 3.64556L3.72655 3.87494L3.84305 4.243C3.85818 4.29063 3.80386 4.33013 3.76318 4.301L3.44905 4.0765L3.13499 4.301C3.0943 4.33006 3.04012 4.29063 3.05512 4.243L3.17162 3.87494L2.86105 3.64556C2.82087 3.61582 2.84155 3.55213 2.89155 3.55169L3.27762 3.54875L3.39974 3.1825C3.41555 3.13513 3.48261 3.13513 3.49843 3.1825Z" fill="#F5F5F5"/>
<path d="M3.49843 5.09852L3.62055 5.46477L4.00661 5.46771C4.05661 5.46815 4.0773 5.5319 4.03711 5.56158L3.72655 5.79096L3.84305 6.15902C3.85818 6.20664 3.80386 6.24614 3.76318 6.21702L3.44905 5.99252L3.13499 6.21702C3.0943 6.24608 3.04012 6.20664 3.05512 6.15902L3.17162 5.79096L2.86105 5.56158C2.82087 5.53183 2.84155 5.46815 2.89155 5.46771L3.27762 5.46477L3.39974 5.09852C3.41555 5.05114 3.48261 5.05114 3.49843 5.09852Z" fill="#F5F5F5"/>
<path d="M3.49843 7.01409L3.62055 7.38034L4.00661 7.38328C4.05661 7.38372 4.0773 7.44747 4.03711 7.47715L3.72655 7.70653L3.84305 8.07459C3.85818 8.12222 3.80386 8.16172 3.76318 8.13259L3.44905 7.90809L3.13499 8.13259C3.0943 8.16165 3.04012 8.12222 3.05512 8.07459L3.17162 7.70653L2.86105 7.47715C2.82087 7.44741 2.84155 7.38372 2.89155 7.38328L3.27762 7.38034L3.39974 7.01409C3.41555 6.96666 3.48261 6.96666 3.49843 7.01409Z" fill="#F5F5F5"/>
<path d="M3.49843 8.93016L3.62055 9.29641L4.00661 9.29934C4.05661 9.29978 4.0773 9.36353 4.03711 9.39322L3.72655 9.62259L3.84305 9.99065C3.85818 10.0383 3.80386 10.0778 3.76318 10.0487L3.44905 9.82415L3.13499 10.0487C3.0943 10.0777 3.04012 10.0383 3.05512 9.99065L3.17162 9.62259L2.86105 9.39322C2.82087 9.36347 2.84155 9.29978 2.89155 9.29934L3.27762 9.29641L3.39974 8.93016C3.41555 8.88266 3.48261 8.88266 3.49843 8.93016Z" fill="#F5F5F5"/>
<path d="M4.98274 2.20594L5.10487 2.57219L5.49093 2.57513C5.54093 2.57557 5.56161 2.63932 5.52143 2.669L5.21086 2.89838L5.32736 3.26644C5.34249 3.31407 5.28818 3.35356 5.24749 3.32444L4.93343 3.09994L4.61937 3.32444C4.57868 3.3535 4.52449 3.31407 4.53949 3.26644L4.65599 2.89838L4.34543 2.669C4.30524 2.63925 4.32593 2.57557 4.37593 2.57513L4.76199 2.57219L4.88412 2.20594C4.89993 2.15857 4.96693 2.15857 4.98274 2.20594Z" fill="#F5F5F5"/>
<path d="M4.98274 4.12152L5.10487 4.48776L5.49093 4.4907C5.54093 4.49114 5.56161 4.55489 5.52143 4.58458L5.21086 4.81395L5.32736 5.18201C5.34249 5.22964 5.28818 5.26914 5.24749 5.24001L4.93343 5.01551L4.61937 5.24001C4.57868 5.26907 4.52449 5.2297 4.53949 5.18201L4.65599 4.81395L4.34543 4.58458C4.30524 4.55483 4.32593 4.49114 4.37593 4.4907L4.76199 4.48776L4.88412 4.12152C4.89993 4.07408 4.96693 4.07408 4.98274 4.12152Z" fill="#F5F5F5"/>
<path d="M4.98274 6.03753L5.10487 6.40378L5.49093 6.40672C5.54093 6.40716 5.56161 6.47091 5.52143 6.50059L5.21086 6.72997L5.32736 7.09803C5.34249 7.14565 5.28818 7.18515 5.24749 7.15603L4.93343 6.93153L4.61937 7.15603C4.57868 7.18509 4.52449 7.14565 4.53949 7.09803L4.65599 6.72997L4.34543 6.50059C4.30524 6.47084 4.32593 6.40716 4.37593 6.40672L4.76199 6.40378L4.88412 6.03753C4.89993 5.99009 4.96693 5.99009 4.98274 6.03753Z" fill="#F5F5F5"/>
<path d="M4.98274 7.9535L5.10487 8.31975L5.49093 8.32269C5.54093 8.32312 5.56161 8.38687 5.52143 8.41656L5.21086 8.64594L5.32736 9.014C5.34249 9.06162 5.28818 9.10112 5.24749 9.072L4.93343 8.8475L4.61937 9.072C4.57868 9.10106 4.52449 9.06162 4.53949 9.014L4.65599 8.64594L4.34543 8.41656C4.30524 8.38681 4.32593 8.32312 4.37593 8.32269L4.76199 8.31975L4.88412 7.9535C4.89993 7.90613 4.96693 7.90613 4.98274 7.9535Z" fill="#F5F5F5"/>
<path d="M6.47102 1.26654L6.59315 1.63278L6.97921 1.63572C7.02921 1.63616 7.0499 1.69991 7.00971 1.7296L6.69915 1.95897L6.81565 2.32703C6.83077 2.37466 6.77646 2.41416 6.73577 2.38503L6.42171 2.16053L6.10765 2.38503C6.06696 2.41409 6.01277 2.37466 6.02777 2.32703L6.14427 1.95897L5.83371 1.7296C5.79352 1.69985 5.81421 1.63616 5.86421 1.63572L6.25027 1.63278L6.3724 1.26654C6.38808 1.2191 6.45521 1.2191 6.47102 1.26654Z" fill="#F5F5F5"/>
<path d="M6.47102 3.1825L6.59315 3.54875L6.97921 3.55169C7.02921 3.55213 7.0499 3.61588 7.00971 3.64556L6.69915 3.87494L6.81565 4.243C6.83077 4.29063 6.77646 4.33013 6.73577 4.301L6.42171 4.0765L6.10765 4.301C6.06696 4.33006 6.01277 4.29063 6.02777 4.243L6.14427 3.87494L5.83371 3.64556C5.79352 3.61582 5.81421 3.55213 5.86421 3.55169L6.25027 3.54875L6.3724 3.1825C6.38808 3.13513 6.45521 3.13513 6.47102 3.1825Z" fill="#F5F5F5"/>
<path d="M6.47102 5.09852L6.59315 5.46477L6.97921 5.46771C7.02921 5.46815 7.0499 5.5319 7.00971 5.56158L6.69915 5.79096L6.81565 6.15902C6.83077 6.20664 6.77646 6.24614 6.73577 6.21702L6.42171 5.99252L6.10765 6.21702C6.06696 6.24608 6.01277 6.20664 6.02777 6.15902L6.14427 5.79096L5.83371 5.56158C5.79352 5.53183 5.81421 5.46815 5.86421 5.46771L6.25027 5.46477L6.3724 5.09852C6.38808 5.05114 6.45521 5.05114 6.47102 5.09852Z" fill="#F5F5F5"/>
<path d="M6.47102 7.01409L6.59315 7.38034L6.97921 7.38328C7.02921 7.38372 7.0499 7.44747 7.00971 7.47715L6.69915 7.70653L6.81565 8.07459C6.83077 8.12222 6.77646 8.16172 6.73577 8.13259L6.42171 7.90809L6.10765 8.13259C6.06696 8.16165 6.01277 8.12222 6.02777 8.07459L6.14427 7.70653L5.83371 7.47715C5.79352 7.44741 5.81421 7.38372 5.86421 7.38328L6.25027 7.38034L6.3724 7.01409C6.38808 6.96666 6.45521 6.96666 6.47102 7.01409Z" fill="#F5F5F5"/>
<path d="M6.47102 8.93016L6.59315 9.29641L6.97921 9.29934C7.02921 9.29978 7.0499 9.36353 7.00971 9.39322L6.69915 9.62259L6.81565 9.99065C6.83077 10.0383 6.77646 10.0778 6.73577 10.0487L6.42171 9.82415L6.10765 10.0487C6.06696 10.0777 6.01277 10.0383 6.02777 9.99065L6.14427 9.62259L5.83371 9.39322C5.79352 9.36347 5.81421 9.29978 5.86421 9.29934L6.25027 9.29641L6.3724 8.93016C6.38808 8.88266 6.45521 8.88266 6.47102 8.93016Z" fill="#F5F5F5"/>
<path d="M7.9593 2.20594L8.08143 2.57219L8.46749 2.57513C8.51749 2.57557 8.53818 2.63932 8.49799 2.669L8.18743 2.89838L8.30393 3.26644C8.31905 3.31407 8.26474 3.35356 8.22405 3.32444L7.90999 3.09994L7.59593 3.32444C7.55524 3.3535 7.50105 3.31407 7.51605 3.26644L7.63255 2.89838L7.32199 2.669C7.2818 2.63925 7.30249 2.57557 7.35249 2.57513L7.73855 2.57219L7.86068 2.20594C7.87643 2.15857 7.94355 2.15857 7.9593 2.20594Z" fill="#F5F5F5"/>
<path d="M7.9593 4.12152L8.08143 4.48776L8.46749 4.4907C8.51749 4.49114 8.53818 4.55489 8.49799 4.58458L8.18743 4.81395L8.30393 5.18201C8.31905 5.22964 8.26474 5.26914 8.22405 5.24001L7.90999 5.01551L7.59593 5.24001C7.55524 5.26907 7.50105 5.2297 7.51605 5.18201L7.63255 4.81395L7.32199 4.58458C7.2818 4.55483 7.30249 4.49114 7.35249 4.4907L7.73855 4.48776L7.86068 4.12152C7.87643 4.07408 7.94355 4.07408 7.9593 4.12152Z" fill="#F5F5F5"/>
<path d="M7.9593 6.03753L8.08143 6.40378L8.46749 6.40672C8.51749 6.40716 8.53818 6.47091 8.49799 6.50059L8.18743 6.72997L8.30393 7.09803C8.31905 7.14565 8.26474 7.18515 8.22405 7.15603L7.90999 6.93153L7.59593 7.15603C7.55524 7.18509 7.50105 7.14565 7.51605 7.09803L7.63255 6.72997L7.32199 6.50059C7.2818 6.47084 7.30249 6.40716 7.35249 6.40672L7.73855 6.40378L7.86068 6.03753C7.87643 5.99009 7.94355 5.99009 7.9593 6.03753Z" fill="#F5F5F5"/>
<path d="M7.9593 7.9535L8.08143 8.31975L8.46749 8.32269C8.51749 8.32312 8.53818 8.38687 8.49799 8.41656L8.18743 8.64594L8.30393 9.014C8.31905 9.06162 8.26474 9.10112 8.22405 9.072L7.90999 8.8475L7.59593 9.072C7.55524 9.10106 7.50105 9.06162 7.51605 9.014L7.63255 8.64594L7.32199 8.41656C7.2818 8.38681 7.30249 8.32312 7.35249 8.32269L7.73855 8.31975L7.86068 7.9535C7.87643 7.90613 7.94355 7.90613 7.9593 7.9535Z" fill="#F5F5F5"/>
<path d="M9.44758 1.26654L9.56971 1.63278L9.95577 1.63572C10.0058 1.63616 10.0265 1.69991 9.98627 1.7296L9.67571 1.95897L9.79221 2.32703C9.80733 2.37466 9.75302 2.41416 9.71233 2.38503L9.39827 2.16053L9.08421 2.38503C9.04352 2.41409 8.98934 2.37466 9.00434 2.32703L9.12083 1.95897L8.81027 1.7296C8.77008 1.69985 8.79077 1.63616 8.84077 1.63572L9.22683 1.63278L9.34896 1.26654C9.36471 1.2191 9.43171 1.2191 9.44758 1.26654Z" fill="#F5F5F5"/>
<path d="M9.44758 3.1825L9.56971 3.54875L9.95577 3.55169C10.0058 3.55213 10.0265 3.61588 9.98627 3.64556L9.67571 3.87494L9.79221 4.243C9.80733 4.29063 9.75302 4.33013 9.71233 4.301L9.39827 4.0765L9.08421 4.301C9.04352 4.33006 8.98934 4.29063 9.00434 4.243L9.12083 3.87494L8.81027 3.64556C8.77008 3.61582 8.79077 3.55213 8.84077 3.55169L9.22683 3.54875L9.34896 3.1825C9.36471 3.13513 9.43171 3.13513 9.44758 3.1825Z" fill="#F5F5F5"/>
<path d="M9.44758 5.09852L9.56971 5.46477L9.95577 5.46771C10.0058 5.46815 10.0265 5.5319 9.98627 5.56158L9.67571 5.79096L9.79221 6.15902C9.80733 6.20664 9.75302 6.24614 9.71233 6.21702L9.39827 5.99252L9.08421 6.21702C9.04352 6.24608 8.98934 6.20664 9.00434 6.15902L9.12083 5.79096L8.81027 5.56158C8.77008 5.53183 8.79077 5.46815 8.84077 5.46771L9.22683 5.46477L9.34896 5.09852C9.36471 5.05114 9.43171 5.05114 9.44758 5.09852Z" fill="#F5F5F5"/>
<path d="M9.44758 7.01409L9.56971 7.38034L9.95577 7.38328C10.0058 7.38372 10.0265 7.44747 9.98627 7.47715L9.67571 7.70653L9.79221 8.07459C9.80733 8.12222 9.75302 8.16172 9.71233 8.13259L9.39827 7.90809L9.08421 8.13259C9.04352 8.16165 8.98934 8.12222 9.00434 8.07459L9.12083 7.70653L8.81027 7.47715C8.77008 7.44741 8.79077 7.38372 8.84077 7.38328L9.22683 7.38034L9.34896 7.01409C9.36471 6.96666 9.43171 6.96666 9.44758 7.01409Z" fill="#F5F5F5"/>
<path d="M9.44758 8.93016L9.56971 9.29641L9.95577 9.29934C10.0058 9.29978 10.0265 9.36353 9.98627 9.39322L9.67571 9.62259L9.79221 9.99065C9.80733 10.0383 9.75302 10.0778 9.71233 10.0487L9.39827 9.82415L9.08421 10.0487C9.04352 10.0777 8.98934 10.0383 9.00434 9.99065L9.12083 9.62259L8.81027 9.39322C8.77008 9.36347 8.79077 9.29978 8.84077 9.29934L9.22683 9.29641L9.34896 8.93016C9.36471 8.88266 9.43171 8.88266 9.44758 8.93016Z" fill="#F5F5F5"/>
</g>
<defs>
<clipPath id="clip0_789_994">
<rect width="21" height="21" fill="white"/>
</clipPath>
</defs>
</svg>
