<svg width="528" height="414" viewBox="0 0 528 414" fill="none" xmlns="http://www.w3.org/2000/svg">
<rect width="528" height="414" rx="8" fill="#181A20"/>
<path d="M21.928 42V27.648H16.12V25.08H30.808V27.648H25V42H21.928ZM35.9433 42.24C34.7273 42.24 33.6713 41.992 32.7753 41.496C31.8793 41 31.1833 40.296 30.6873 39.384C30.1913 38.456 29.9433 37.368 29.9433 36.12C29.9433 34.872 30.1913 33.792 30.6873 32.88C31.1833 31.968 31.8793 31.264 32.7753 30.768C33.6713 30.272 34.7273 30.024 35.9433 30.024C37.1593 30.024 38.2153 30.272 39.1113 30.768C40.0073 31.264 40.7033 31.968 41.1993 32.88C41.6953 33.792 41.9433 34.872 41.9433 36.12C41.9433 37.368 41.6953 38.456 41.1993 39.384C40.7033 40.296 40.0073 41 39.1113 41.496C38.2153 41.992 37.1593 42.24 35.9433 42.24ZM35.9433 39.96C36.8393 39.96 37.5593 39.64 38.1033 39C38.6473 38.344 38.9193 37.384 38.9193 36.12C38.9193 34.84 38.6473 33.888 38.1033 33.264C37.5593 32.624 36.8393 32.304 35.9433 32.304C35.0473 32.304 34.3273 32.624 33.7833 33.264C33.2393 33.888 32.9673 34.84 32.9673 36.12C32.9673 37.384 33.2393 38.344 33.7833 39C34.3273 39.64 35.0473 39.96 35.9433 39.96ZM49.6782 42.24C48.1102 42.24 46.9422 41.848 46.1742 41.064C45.4062 40.28 45.0222 39.136 45.0222 37.632V32.52H42.7662V30.264H45.0222V26.76H48.0222V30.264H51.5742V32.52H48.0222V37.464C48.0222 38.232 48.1902 38.808 48.5262 39.192C48.8622 39.576 49.4062 39.768 50.1582 39.768C50.3822 39.768 50.6142 39.744 50.8542 39.696C51.0942 39.632 51.3422 39.568 51.5982 39.504L52.0542 41.712C51.7662 41.872 51.3982 42 50.9502 42.096C50.5182 42.192 50.0942 42.24 49.6782 42.24ZM57.3771 42.24C56.5291 42.24 55.7691 42.08 55.0971 41.76C54.4411 41.424 53.9211 40.976 53.5371 40.416C53.1691 39.856 52.9851 39.224 52.9851 38.52C52.9851 37.656 53.2091 36.976 53.6571 36.48C54.1051 35.968 54.8331 35.6 55.8411 35.376C56.8491 35.152 58.2011 35.04 59.8971 35.04H61.0971V36.768H59.9211C59.1691 36.768 58.5371 36.8 58.0251 36.864C57.5131 36.912 57.0971 37 56.7771 37.128C56.4731 37.24 56.2491 37.4 56.1051 37.608C55.9771 37.816 55.9131 38.072 55.9131 38.376C55.9131 38.904 56.0971 39.336 56.4651 39.672C56.8331 40.008 57.3451 40.176 58.0011 40.176C58.5291 40.176 58.9931 40.056 59.3931 39.816C59.8091 39.56 60.1371 39.216 60.3771 38.784C60.6171 38.352 60.7371 37.856 60.7371 37.296V34.536C60.7371 33.736 60.5611 33.16 60.2091 32.808C59.8571 32.456 59.2651 32.28 58.4331 32.28C57.7771 32.28 57.1051 32.384 56.4171 32.592C55.7291 32.784 55.0331 33.088 54.3291 33.504L53.4651 31.464C53.8811 31.176 54.3691 30.928 54.9291 30.72C55.5051 30.496 56.1051 30.328 56.7291 30.216C57.3691 30.088 57.9691 30.024 58.5291 30.024C59.6811 30.024 60.6251 30.2 61.3611 30.552C62.1131 30.904 62.6731 31.44 63.0411 32.16C63.4091 32.864 63.5931 33.776 63.5931 34.896V42H60.7851V39.504H60.9771C60.8651 40.064 60.6411 40.552 60.3051 40.968C59.9851 41.368 59.5771 41.68 59.0811 41.904C58.5851 42.128 58.0171 42.24 57.3771 42.24ZM70.7181 42.24C69.3261 42.24 68.2941 41.864 67.6221 41.112C66.9661 40.344 66.6381 39.224 66.6381 37.752V25.08H69.6381V37.608C69.6381 38.072 69.7021 38.472 69.8301 38.808C69.9741 39.128 70.1821 39.368 70.4541 39.528C70.7261 39.688 71.0621 39.768 71.4621 39.768C71.6381 39.768 71.8141 39.76 71.9901 39.744C72.1661 39.728 72.3341 39.696 72.4941 39.648L72.4461 42.024C72.1581 42.088 71.8701 42.136 71.5821 42.168C71.3101 42.216 71.0221 42.24 70.7181 42.24ZM81.0589 42V25.08H92.3149V27.528H84.0109V32.184H91.7869V34.632H84.0109V39.552H92.3149V42H81.0589ZM93.4592 42L98.9553 35.232V36.648L93.7713 30.264H97.2753L100.635 34.56H99.5793L102.939 30.264H106.443L101.259 36.624V35.28L106.755 42H103.227L99.5793 37.392H100.587L96.9633 42H93.4592ZM113.312 42.24C112.08 42.24 111.008 41.992 110.096 41.496C109.184 40.984 108.48 40.264 107.984 39.336C107.488 38.408 107.24 37.32 107.24 36.072C107.24 34.824 107.488 33.752 107.984 32.856C108.48 31.944 109.184 31.248 110.096 30.768C111.008 30.272 112.08 30.024 113.312 30.024C114.064 30.024 114.808 30.144 115.544 30.384C116.28 30.624 116.888 30.96 117.368 31.392L116.48 33.48C116.064 33.112 115.592 32.832 115.064 32.64C114.552 32.448 114.056 32.352 113.576 32.352C112.536 32.352 111.728 32.68 111.152 33.336C110.592 33.976 110.312 34.896 110.312 36.096C110.312 37.28 110.592 38.216 111.152 38.904C111.728 39.576 112.536 39.912 113.576 39.912C114.04 39.912 114.536 39.816 115.064 39.624C115.592 39.432 116.064 39.144 116.48 38.76L117.368 40.872C116.888 41.288 116.272 41.624 115.52 41.88C114.784 42.12 114.048 42.24 113.312 42.24ZM119.208 42V25.08H122.208V32.616H121.872C122.224 31.768 122.768 31.128 123.504 30.696C124.256 30.248 125.104 30.024 126.048 30.024C126.992 30.024 127.768 30.2 128.376 30.552C128.984 30.904 129.44 31.44 129.744 32.16C130.048 32.864 130.2 33.76 130.2 34.848V42H127.2V34.992C127.2 34.384 127.12 33.888 126.96 33.504C126.816 33.12 126.584 32.84 126.264 32.664C125.96 32.472 125.568 32.376 125.088 32.376C124.512 32.376 124.008 32.504 123.576 32.76C123.144 33 122.808 33.352 122.568 33.816C122.328 34.264 122.208 34.792 122.208 35.4V42H119.208ZM137.112 42.24C136.264 42.24 135.504 42.08 134.832 41.76C134.176 41.424 133.656 40.976 133.271 40.416C132.904 39.856 132.72 39.224 132.72 38.52C132.72 37.656 132.944 36.976 133.392 36.48C133.84 35.968 134.568 35.6 135.576 35.376C136.584 35.152 137.936 35.04 139.632 35.04H140.832V36.768H139.656C138.904 36.768 138.272 36.8 137.76 36.864C137.248 36.912 136.832 37 136.512 37.128C136.208 37.24 135.984 37.4 135.84 37.608C135.712 37.816 135.648 38.072 135.648 38.376C135.648 38.904 135.832 39.336 136.2 39.672C136.568 40.008 137.08 40.176 137.736 40.176C138.264 40.176 138.728 40.056 139.128 39.816C139.544 39.56 139.872 39.216 140.112 38.784C140.352 38.352 140.472 37.856 140.472 37.296V34.536C140.472 33.736 140.296 33.16 139.944 32.808C139.592 32.456 139 32.28 138.168 32.28C137.512 32.28 136.84 32.384 136.152 32.592C135.464 32.784 134.768 33.088 134.064 33.504L133.2 31.464C133.616 31.176 134.104 30.928 134.664 30.72C135.24 30.496 135.84 30.328 136.464 30.216C137.104 30.088 137.704 30.024 138.264 30.024C139.416 30.024 140.36 30.2 141.096 30.552C141.848 30.904 142.408 31.44 142.776 32.16C143.144 32.864 143.328 33.776 143.328 34.896V42H140.52V39.504H140.712C140.6 40.064 140.376 40.552 140.04 40.968C139.72 41.368 139.312 41.68 138.816 41.904C138.32 42.128 137.752 42.24 137.112 42.24ZM146.373 42V30.264H149.301V32.616H149.037C149.389 31.768 149.933 31.128 150.669 30.696C151.421 30.248 152.269 30.024 153.213 30.024C154.157 30.024 154.933 30.2 155.541 30.552C156.149 30.904 156.605 31.44 156.909 32.16C157.213 32.864 157.365 33.76 157.365 34.848V42H154.365V34.992C154.365 34.384 154.285 33.888 154.125 33.504C153.981 33.12 153.749 32.84 153.429 32.664C153.125 32.472 152.733 32.376 152.253 32.376C151.677 32.376 151.173 32.504 150.741 32.76C150.309 33 149.973 33.352 149.733 33.816C149.493 34.264 149.373 34.792 149.373 35.4V42H146.373ZM165.884 46.56C164.796 46.56 163.772 46.432 162.812 46.176C161.868 45.936 161.036 45.56 160.316 45.048L161.18 42.96C161.628 43.248 162.1 43.488 162.596 43.68C163.092 43.888 163.596 44.04 164.108 44.136C164.62 44.232 165.132 44.28 165.644 44.28C166.716 44.28 167.516 44.016 168.044 43.488C168.588 42.976 168.86 42.208 168.86 41.184V39.024H169.076C168.836 39.84 168.332 40.496 167.564 40.992C166.812 41.472 165.956 41.712 164.996 41.712C163.94 41.712 163.02 41.472 162.236 40.992C161.452 40.496 160.844 39.808 160.412 38.928C159.98 38.048 159.764 37.024 159.764 35.856C159.764 34.688 159.98 33.672 160.412 32.808C160.844 31.928 161.452 31.248 162.236 30.768C163.02 30.272 163.94 30.024 164.996 30.024C165.988 30.024 166.852 30.272 167.588 30.768C168.34 31.248 168.828 31.888 169.052 32.688H168.86V30.264H171.788V40.824C171.788 42.088 171.564 43.144 171.116 43.992C170.668 44.856 170.004 45.496 169.124 45.912C168.244 46.344 167.164 46.56 165.884 46.56ZM165.812 39.432C166.74 39.432 167.476 39.112 168.02 38.472C168.564 37.832 168.836 36.96 168.836 35.856C168.836 34.752 168.564 33.888 168.02 33.264C167.476 32.624 166.74 32.304 165.812 32.304C164.884 32.304 164.148 32.624 163.604 33.264C163.06 33.888 162.788 34.752 162.788 35.856C162.788 36.96 163.06 37.832 163.604 38.472C164.148 39.112 164.884 39.432 165.812 39.432ZM180.68 42.24C179.352 42.24 178.208 41.992 177.248 41.496C176.288 41 175.544 40.296 175.016 39.384C174.504 38.472 174.248 37.392 174.248 36.144C174.248 34.928 174.496 33.864 174.992 32.952C175.504 32.04 176.2 31.328 177.08 30.816C177.976 30.288 178.992 30.024 180.128 30.024C181.248 30.024 182.208 30.264 183.008 30.744C183.808 31.224 184.424 31.904 184.856 32.784C185.304 33.664 185.528 34.712 185.528 35.928V36.816H176.672V35.088H183.416L183.032 35.448C183.032 34.36 182.792 33.528 182.312 32.952C181.832 32.36 181.144 32.064 180.248 32.064C179.576 32.064 179 32.224 178.52 32.544C178.056 32.848 177.696 33.288 177.44 33.864C177.2 34.424 177.08 35.096 177.08 35.88V36.048C177.08 36.928 177.216 37.656 177.488 38.232C177.76 38.808 178.168 39.24 178.712 39.528C179.256 39.816 179.928 39.96 180.728 39.96C181.384 39.96 182.04 39.864 182.696 39.672C183.352 39.464 183.952 39.144 184.496 38.712L185.336 40.728C184.776 41.192 184.072 41.56 183.224 41.832C182.376 42.104 181.528 42.24 180.68 42.24ZM194.661 42V25.08H202.053C203.829 25.08 205.205 25.472 206.181 26.256C207.157 27.024 207.645 28.096 207.645 29.472C207.645 30.496 207.349 31.36 206.757 32.064C206.165 32.768 205.357 33.24 204.333 33.48V33.12C205.117 33.232 205.789 33.472 206.349 33.84C206.909 34.208 207.333 34.68 207.621 35.256C207.925 35.832 208.077 36.504 208.077 37.272C208.077 38.264 207.845 39.12 207.381 39.84C206.933 40.544 206.277 41.08 205.413 41.448C204.549 41.816 203.517 42 202.317 42H194.661ZM197.613 39.672H201.933C202.365 39.672 202.749 39.64 203.085 39.576C203.437 39.512 203.733 39.416 203.973 39.288C204.229 39.144 204.437 38.968 204.597 38.76C204.773 38.552 204.901 38.312 204.981 38.04C205.061 37.768 205.101 37.464 205.101 37.128C205.101 36.776 205.061 36.464 204.981 36.192C204.901 35.92 204.773 35.688 204.597 35.496C204.437 35.288 204.229 35.12 203.973 34.992C203.733 34.848 203.437 34.744 203.085 34.68C202.749 34.616 202.365 34.584 201.933 34.584H197.613V39.672ZM197.613 32.256H201.525C202.581 32.256 203.365 32.056 203.877 31.656C204.405 31.24 204.669 30.632 204.669 29.832C204.669 29.032 204.405 28.432 203.877 28.032C203.365 27.616 202.581 27.408 201.525 27.408H197.613V32.256ZM214.76 42.24C213.912 42.24 213.152 42.08 212.48 41.76C211.824 41.424 211.304 40.976 210.92 40.416C210.552 39.856 210.368 39.224 210.368 38.52C210.368 37.656 210.592 36.976 211.04 36.48C211.488 35.968 212.216 35.6 213.224 35.376C214.232 35.152 215.584 35.04 217.28 35.04H218.48V36.768H217.304C216.552 36.768 215.92 36.8 215.408 36.864C214.896 36.912 214.48 37 214.16 37.128C213.856 37.24 213.632 37.4 213.488 37.608C213.36 37.816 213.296 38.072 213.296 38.376C213.296 38.904 213.48 39.336 213.848 39.672C214.216 40.008 214.728 40.176 215.384 40.176C215.912 40.176 216.376 40.056 216.776 39.816C217.192 39.56 217.52 39.216 217.76 38.784C218 38.352 218.12 37.856 218.12 37.296V34.536C218.12 33.736 217.944 33.16 217.592 32.808C217.24 32.456 216.648 32.28 215.816 32.28C215.16 32.28 214.488 32.384 213.8 32.592C213.112 32.784 212.416 33.088 211.712 33.504L210.848 31.464C211.264 31.176 211.752 30.928 212.312 30.72C212.888 30.496 213.488 30.328 214.112 30.216C214.752 30.088 215.352 30.024 215.912 30.024C217.064 30.024 218.008 30.2 218.744 30.552C219.496 30.904 220.056 31.44 220.424 32.16C220.792 32.864 220.976 33.776 220.976 34.896V42H218.168V39.504H218.36C218.248 40.064 218.024 40.552 217.688 40.968C217.368 41.368 216.96 41.68 216.464 41.904C215.968 42.128 215.4 42.24 214.76 42.24ZM229.397 42.24C227.829 42.24 226.661 41.848 225.893 41.064C225.125 40.28 224.741 39.136 224.741 37.632V32.52H222.485V30.264H224.741V26.76H227.741V30.264H231.293V32.52H227.741V37.464C227.741 38.232 227.909 38.808 228.245 39.192C228.581 39.576 229.125 39.768 229.877 39.768C230.101 39.768 230.333 39.744 230.573 39.696C230.813 39.632 231.061 39.568 231.317 39.504L231.773 41.712C231.485 41.872 231.117 42 230.669 42.096C230.237 42.192 229.813 42.24 229.397 42.24ZM237.928 42.24C236.36 42.24 235.192 41.848 234.424 41.064C233.656 40.28 233.272 39.136 233.272 37.632V32.52H231.016V30.264H233.272V26.76H236.272V30.264H239.824V32.52H236.272V37.464C236.272 38.232 236.44 38.808 236.776 39.192C237.112 39.576 237.656 39.768 238.408 39.768C238.632 39.768 238.864 39.744 239.104 39.696C239.344 39.632 239.592 39.568 239.848 39.504L240.304 41.712C240.016 41.872 239.648 42 239.2 42.096C238.768 42.192 238.344 42.24 237.928 42.24ZM245.843 42.24C244.451 42.24 243.419 41.864 242.747 41.112C242.091 40.344 241.763 39.224 241.763 37.752V25.08H244.763V37.608C244.763 38.072 244.827 38.472 244.955 38.808C245.099 39.128 245.307 39.368 245.579 39.528C245.851 39.688 246.187 39.768 246.587 39.768C246.763 39.768 246.939 39.76 247.115 39.744C247.291 39.728 247.459 39.696 247.619 39.648L247.571 42.024C247.283 42.088 246.995 42.136 246.707 42.168C246.435 42.216 246.147 42.24 245.843 42.24ZM255.094 42.24C253.766 42.24 252.622 41.992 251.662 41.496C250.702 41 249.958 40.296 249.43 39.384C248.918 38.472 248.662 37.392 248.662 36.144C248.662 34.928 248.91 33.864 249.406 32.952C249.918 32.04 250.614 31.328 251.494 30.816C252.39 30.288 253.406 30.024 254.542 30.024C255.662 30.024 256.622 30.264 257.422 30.744C258.222 31.224 258.838 31.904 259.27 32.784C259.718 33.664 259.942 34.712 259.942 35.928V36.816H251.086V35.088H257.83L257.446 35.448C257.446 34.36 257.206 33.528 256.726 32.952C256.246 32.36 255.558 32.064 254.662 32.064C253.99 32.064 253.414 32.224 252.934 32.544C252.47 32.848 252.11 33.288 251.854 33.864C251.614 34.424 251.494 35.096 251.494 35.88V36.048C251.494 36.928 251.63 37.656 251.902 38.232C252.174 38.808 252.582 39.24 253.126 39.528C253.67 39.816 254.342 39.96 255.142 39.96C255.798 39.96 256.454 39.864 257.11 39.672C257.766 39.464 258.366 39.144 258.91 38.712L259.75 40.728C259.19 41.192 258.486 41.56 257.638 41.832C256.79 42.104 255.942 42.24 255.094 42.24ZM266.614 42.24C265.958 42.24 265.318 42.184 264.694 42.072C264.086 41.96 263.526 41.808 263.014 41.616C262.502 41.408 262.054 41.152 261.67 40.848L262.438 38.88C262.838 39.136 263.27 39.36 263.734 39.552C264.198 39.744 264.678 39.888 265.174 39.984C265.67 40.08 266.158 40.128 266.638 40.128C267.406 40.128 267.974 40 268.342 39.744C268.726 39.472 268.918 39.12 268.918 38.688C268.918 38.32 268.79 38.04 268.534 37.848C268.294 37.64 267.926 37.488 267.43 37.392L265.03 36.936C264.038 36.744 263.278 36.384 262.75 35.856C262.238 35.312 261.982 34.616 261.982 33.768C261.982 33 262.19 32.336 262.606 31.776C263.038 31.216 263.63 30.784 264.382 30.48C265.134 30.176 265.998 30.024 266.974 30.024C267.534 30.024 268.078 30.08 268.606 30.192C269.134 30.288 269.63 30.44 270.094 30.648C270.574 30.84 270.99 31.096 271.342 31.416L270.526 33.384C270.222 33.128 269.87 32.912 269.47 32.736C269.07 32.544 268.654 32.4 268.222 32.304C267.806 32.192 267.398 32.136 266.998 32.136C266.214 32.136 265.63 32.272 265.246 32.544C264.878 32.816 264.694 33.176 264.694 33.624C264.694 33.96 264.806 34.24 265.03 34.464C265.254 34.688 265.598 34.84 266.062 34.92L268.462 35.376C269.502 35.568 270.286 35.92 270.814 36.432C271.358 36.944 271.63 37.632 271.63 38.496C271.63 39.28 271.422 39.952 271.006 40.512C270.59 41.072 270.006 41.504 269.254 41.808C268.502 42.096 267.622 42.24 266.614 42.24Z" fill="white"/>
<rect y="59" width="528" height="1" fill="#313338"/>
<rect x="16" y="80" width="8" height="8" rx="4" fill="#FFA800"/>
<path d="M28.924 88V79.54H34.552V80.764H30.4V83.092H34.288V84.316H30.4V86.776H34.552V88H28.924ZM35.0296 88L38.5096 83.368V84.028L35.1496 79.54H36.9376L39.3856 82.912H38.8936L41.3296 79.54H43.1296L39.7696 84.028V83.368L43.2376 88H41.4376L38.8696 84.472H39.3976L36.8416 88H35.0296ZM47.6842 88.12C46.8042 88.12 46.0482 87.944 45.4162 87.592C44.7922 87.232 44.3122 86.728 43.9762 86.08C43.6402 85.424 43.4722 84.652 43.4722 83.764C43.4722 82.876 43.6402 82.108 43.9762 81.46C44.3122 80.812 44.7922 80.312 45.4162 79.96C46.0482 79.6 46.8042 79.42 47.6842 79.42C48.2522 79.42 48.7882 79.508 49.2922 79.684C49.8042 79.86 50.2242 80.112 50.5522 80.44L50.0482 81.664C49.6882 81.36 49.3202 81.14 48.9442 81.004C48.5682 80.86 48.1642 80.788 47.7322 80.788C46.8762 80.788 46.2242 81.048 45.7762 81.568C45.3282 82.08 45.1042 82.812 45.1042 83.764C45.1042 84.716 45.3282 85.452 45.7762 85.972C46.2242 86.492 46.8762 86.752 47.7322 86.752C48.1642 86.752 48.5682 86.684 48.9442 86.548C49.3202 86.404 49.6882 86.18 50.0482 85.876L50.5522 87.1C50.2242 87.42 49.8042 87.672 49.2922 87.856C48.7882 88.032 48.2522 88.12 47.6842 88.12ZM51.8928 88V79.54H53.4288V83.068H57.7848V79.54H59.3208V88H57.7848V84.352H53.4288V88H51.8928ZM60.262 88L64.09 79.54H65.35L69.178 88H67.618L66.598 85.624L67.246 86.044H62.182L62.83 85.624L61.822 88H60.262ZM64.702 81.208L63.022 85.204L62.71 84.82H66.718L66.418 85.204L64.726 81.208H64.702ZM70.1037 88V79.54H71.2557L76.1157 85.852H75.8037V79.54H77.2317V88H76.0917L71.2317 81.676H71.5317V88H70.1037ZM83.1483 88.12C82.2123 88.12 81.4203 87.944 80.7723 87.592C80.1323 87.24 79.6443 86.74 79.3083 86.092C78.9723 85.444 78.8043 84.676 78.8043 83.788C78.8043 82.892 78.9763 82.12 79.3203 81.472C79.6643 80.816 80.1603 80.312 80.8083 79.96C81.4563 79.6 82.2323 79.42 83.1363 79.42C83.5363 79.42 83.9163 79.46 84.2763 79.54C84.6443 79.612 84.9843 79.72 85.2963 79.864C85.6083 80.008 85.8763 80.184 86.1003 80.392L85.5843 81.592C85.2083 81.296 84.8243 81.084 84.4323 80.956C84.0403 80.828 83.6083 80.764 83.1363 80.764C82.2403 80.764 81.5603 81.024 81.0963 81.544C80.6403 82.064 80.4123 82.812 80.4123 83.788C80.4123 84.772 80.6483 85.52 81.1203 86.032C81.5923 86.544 82.2923 86.8 83.2203 86.8C83.5403 86.8 83.8643 86.768 84.1923 86.704C84.5203 86.64 84.8403 86.552 85.1523 86.44L84.8523 87.124V84.568H82.9083V83.428H86.1363V87.496C85.8803 87.624 85.5843 87.736 85.2483 87.832C84.9203 87.92 84.5763 87.988 84.2162 88.036C83.8563 88.092 83.5003 88.12 83.1483 88.12ZM87.9162 88V79.54H93.5442V80.764H89.3922V83.092H93.2802V84.316H89.3922V86.776H93.5442V88H87.9162ZM98.3107 88V79.54H102.007C102.895 79.54 103.583 79.736 104.071 80.128C104.559 80.512 104.803 81.048 104.803 81.736C104.803 82.248 104.655 82.68 104.359 83.032C104.063 83.384 103.659 83.62 103.147 83.74V83.56C103.539 83.616 103.875 83.736 104.155 83.92C104.435 84.104 104.647 84.34 104.791 84.628C104.943 84.916 105.019 85.252 105.019 85.636C105.019 86.132 104.903 86.56 104.671 86.92C104.447 87.272 104.119 87.54 103.687 87.724C103.255 87.908 102.739 88 102.139 88H98.3107ZM99.7867 86.836H101.947C102.163 86.836 102.355 86.82 102.523 86.788C102.699 86.756 102.847 86.708 102.967 86.644C103.095 86.572 103.199 86.484 103.279 86.38C103.367 86.276 103.431 86.156 103.471 86.02C103.511 85.884 103.531 85.732 103.531 85.564C103.531 85.388 103.511 85.232 103.471 85.096C103.431 84.96 103.367 84.844 103.279 84.748C103.199 84.644 103.095 84.56 102.967 84.496C102.847 84.424 102.699 84.372 102.523 84.34C102.355 84.308 102.163 84.292 101.947 84.292H99.7867V86.836ZM99.7867 83.128H101.743C102.271 83.128 102.663 83.028 102.919 82.828C103.183 82.62 103.315 82.316 103.315 81.916C103.315 81.516 103.183 81.216 102.919 81.016C102.663 80.808 102.271 80.704 101.743 80.704H99.7867V83.128ZM105.602 88L109.43 79.54H110.69L114.518 88H112.958L111.938 85.624L112.586 86.044H107.522L108.17 85.624L107.162 88H105.602ZM110.042 81.208L108.362 85.204L108.05 84.82H112.058L111.758 85.204L110.066 81.208H110.042ZM115.444 88V79.54H116.98V86.692H121.036V88H115.444ZM121.082 88L124.91 79.54H126.17L129.998 88H128.438L127.418 85.624L128.066 86.044H123.002L123.65 85.624L122.642 88H121.082ZM125.522 81.208L123.842 85.204L123.53 84.82H127.538L127.238 85.204L125.546 81.208H125.522ZM130.924 88V79.54H132.076L136.936 85.852H136.624V79.54H138.052V88H136.912L132.052 81.676H132.352V88H130.924ZM143.837 88.12C142.957 88.12 142.201 87.944 141.569 87.592C140.945 87.232 140.465 86.728 140.129 86.08C139.793 85.424 139.625 84.652 139.625 83.764C139.625 82.876 139.793 82.108 140.129 81.46C140.465 80.812 140.945 80.312 141.569 79.96C142.201 79.6 142.957 79.42 143.837 79.42C144.405 79.42 144.941 79.508 145.445 79.684C145.957 79.86 146.377 80.112 146.705 80.44L146.201 81.664C145.841 81.36 145.473 81.14 145.097 81.004C144.721 80.86 144.317 80.788 143.885 80.788C143.029 80.788 142.377 81.048 141.929 81.568C141.481 82.08 141.257 82.812 141.257 83.764C141.257 84.716 141.481 85.452 141.929 85.972C142.377 86.492 143.029 86.752 143.885 86.752C144.317 86.752 144.721 86.684 145.097 86.548C145.473 86.404 145.841 86.18 146.201 85.876L146.705 87.1C146.377 87.42 145.957 87.672 145.445 87.856C144.941 88.032 144.405 88.12 143.837 88.12ZM148.045 88V79.54H153.673V80.764H149.521V83.092H153.409V84.316H149.521V86.776H153.673V88H148.045ZM158.332 85.384V84.184H161.908V85.384H158.332ZM165.965 88L169.793 79.54H171.053L174.881 88H173.321L172.301 85.624L172.949 86.044H167.885L168.533 85.624L167.525 88H165.965ZM170.405 81.208L168.725 85.204L168.413 84.82H172.421L172.121 85.204L170.429 81.208H170.405ZM175.807 88V79.54H177.343V86.692H181.399V88H175.807ZM182.545 88V79.54H184.081V86.692H188.137V88H182.545ZM192.518 88V79.54H198.146V80.764H193.994V83.092H197.882V84.316H193.994V86.776H198.146V88H192.518ZM198.623 88L202.103 83.368V84.028L198.743 79.54H200.531L202.979 82.912H202.487L204.923 79.54H206.723L203.363 84.028V83.368L206.831 88H205.031L202.463 84.472H202.991L200.435 88H198.623ZM211.278 88.12C210.398 88.12 209.642 87.944 209.01 87.592C208.386 87.232 207.906 86.728 207.57 86.08C207.234 85.424 207.066 84.652 207.066 83.764C207.066 82.876 207.234 82.108 207.57 81.46C207.906 80.812 208.386 80.312 209.01 79.96C209.642 79.6 210.398 79.42 211.278 79.42C211.846 79.42 212.382 79.508 212.886 79.684C213.398 79.86 213.818 80.112 214.146 80.44L213.642 81.664C213.282 81.36 212.914 81.14 212.538 81.004C212.162 80.86 211.758 80.788 211.326 80.788C210.47 80.788 209.818 81.048 209.37 81.568C208.922 82.08 208.698 82.812 208.698 83.764C208.698 84.716 208.922 85.452 209.37 85.972C209.818 86.492 210.47 86.752 211.326 86.752C211.758 86.752 212.162 86.684 212.538 86.548C212.914 86.404 213.282 86.18 213.642 85.876L214.146 87.1C213.818 87.42 213.398 87.672 212.886 87.856C212.382 88.032 211.846 88.12 211.278 88.12ZM215.487 88V79.54H217.023V83.068H221.379V79.54H222.915V88H221.379V84.352H217.023V88H215.487ZM223.856 88L227.684 79.54H228.944L232.772 88H231.212L230.192 85.624L230.84 86.044H225.776L226.424 85.624L225.416 88H223.856ZM228.296 81.208L226.616 85.204L226.304 84.82H230.312L230.012 85.204L228.32 81.208H228.296ZM233.697 88V79.54H234.849L239.709 85.852H239.397V79.54H240.825V88H239.685L234.825 81.676H235.125V88H233.697ZM246.742 88.12C245.806 88.12 245.014 87.944 244.366 87.592C243.726 87.24 243.238 86.74 242.902 86.092C242.566 85.444 242.398 84.676 242.398 83.788C242.398 82.892 242.57 82.12 242.914 81.472C243.258 80.816 243.754 80.312 244.402 79.96C245.05 79.6 245.826 79.42 246.73 79.42C247.13 79.42 247.51 79.46 247.87 79.54C248.238 79.612 248.578 79.72 248.89 79.864C249.202 80.008 249.47 80.184 249.694 80.392L249.178 81.592C248.802 81.296 248.418 81.084 248.026 80.956C247.634 80.828 247.202 80.764 246.73 80.764C245.834 80.764 245.154 81.024 244.69 81.544C244.234 82.064 244.006 82.812 244.006 83.788C244.006 84.772 244.242 85.52 244.714 86.032C245.186 86.544 245.886 86.8 246.814 86.8C247.134 86.8 247.458 86.768 247.786 86.704C248.114 86.64 248.434 86.552 248.746 86.44L248.446 87.124V84.568H246.502V83.428H249.73V87.496C249.474 87.624 249.178 87.736 248.842 87.832C248.514 87.92 248.17 87.988 247.81 88.036C247.45 88.092 247.094 88.12 246.742 88.12ZM251.51 88V79.54H257.138V80.764H252.986V83.092H256.874V84.316H252.986V86.776H257.138V88H251.51ZM261.469 88.12C261.029 88.12 260.605 88.08 260.197 88C259.797 87.928 259.425 87.82 259.081 87.676C258.745 87.532 258.445 87.36 258.181 87.16L258.649 85.948C258.913 86.132 259.189 86.292 259.477 86.428C259.773 86.556 260.085 86.656 260.413 86.728C260.749 86.792 261.101 86.824 261.469 86.824C262.101 86.824 262.561 86.72 262.849 86.512C263.137 86.296 263.281 86.02 263.281 85.684C263.281 85.5 263.237 85.344 263.149 85.216C263.061 85.08 262.917 84.964 262.717 84.868C262.517 84.772 262.253 84.692 261.925 84.628L260.605 84.352C259.845 84.192 259.277 83.924 258.901 83.548C258.533 83.164 258.349 82.66 258.349 82.036C258.349 81.508 258.489 81.048 258.769 80.656C259.049 80.264 259.437 79.96 259.933 79.744C260.429 79.528 261.001 79.42 261.649 79.42C262.033 79.42 262.401 79.46 262.753 79.54C263.113 79.612 263.441 79.724 263.737 79.876C264.041 80.02 264.305 80.196 264.529 80.404L264.061 81.556C263.725 81.276 263.357 81.068 262.957 80.932C262.557 80.788 262.117 80.716 261.637 80.716C261.269 80.716 260.953 80.768 260.689 80.872C260.425 80.976 260.221 81.124 260.077 81.316C259.941 81.5 259.873 81.72 259.873 81.976C259.873 82.264 259.969 82.496 260.161 82.672C260.353 82.84 260.681 82.972 261.145 83.068L262.453 83.344C263.245 83.512 263.833 83.776 264.217 84.136C264.609 84.496 264.805 84.976 264.805 85.576C264.805 86.08 264.669 86.524 264.397 86.908C264.125 87.292 263.737 87.592 263.233 87.808C262.737 88.016 262.149 88.12 261.469 88.12Z" fill="#808283"/>
<rect x="278" y="80" width="8" height="8" rx="4" fill="#A06AFF"/>
<path d="M290.924 88V79.54H294.596C295.22 79.54 295.748 79.644 296.18 79.852C296.612 80.06 296.94 80.36 297.164 80.752C297.388 81.144 297.5 81.62 297.5 82.18C297.5 82.732 297.388 83.208 297.164 83.608C296.94 84 296.612 84.304 296.18 84.52C295.748 84.728 295.22 84.832 294.596 84.832H292.46V88H290.924ZM292.46 83.62H294.356C294.9 83.62 295.312 83.5 295.592 83.26C295.872 83.012 296.012 82.652 296.012 82.18C296.012 81.708 295.872 81.352 295.592 81.112C295.312 80.872 294.9 80.752 294.356 80.752H292.46V83.62ZM298.752 88V79.54H302.424C303.352 79.54 304.068 79.764 304.572 80.212C305.076 80.652 305.328 81.272 305.328 82.072C305.328 82.592 305.212 83.04 304.98 83.416C304.756 83.792 304.428 84.08 303.996 84.28C303.564 84.48 303.04 84.58 302.424 84.58L302.532 84.4H302.928C303.256 84.4 303.54 84.48 303.78 84.64C304.028 84.8 304.244 85.052 304.428 85.396L305.844 88H304.152L302.688 85.3C302.592 85.124 302.484 84.988 302.364 84.892C302.244 84.788 302.108 84.716 301.956 84.676C301.804 84.636 301.628 84.616 301.428 84.616H300.288V88H298.752ZM300.288 83.476H302.16C302.712 83.476 303.128 83.364 303.408 83.14C303.696 82.908 303.84 82.564 303.84 82.108C303.84 81.66 303.696 81.324 303.408 81.1C303.128 80.868 302.712 80.752 302.16 80.752H300.288V83.476ZM306.979 88V79.54H308.515V88H306.979ZM314.29 88.12C313.41 88.12 312.654 87.944 312.022 87.592C311.398 87.232 310.918 86.728 310.582 86.08C310.246 85.424 310.078 84.652 310.078 83.764C310.078 82.876 310.246 82.108 310.582 81.46C310.918 80.812 311.398 80.312 312.022 79.96C312.654 79.6 313.41 79.42 314.29 79.42C314.858 79.42 315.394 79.508 315.898 79.684C316.41 79.86 316.83 80.112 317.158 80.44L316.654 81.664C316.294 81.36 315.926 81.14 315.55 81.004C315.174 80.86 314.77 80.788 314.338 80.788C313.482 80.788 312.83 81.048 312.382 81.568C311.934 82.08 311.71 82.812 311.71 83.764C311.71 84.716 311.934 85.452 312.382 85.972C312.83 86.492 313.482 86.752 314.338 86.752C314.77 86.752 315.174 86.684 315.55 86.548C315.926 86.404 316.294 86.18 316.654 85.876L317.158 87.1C316.83 87.42 316.41 87.672 315.898 87.856C315.394 88.032 314.858 88.12 314.29 88.12ZM318.498 88V79.54H324.126V80.764H319.974V83.092H323.862V84.316H319.974V86.776H324.126V88H318.498ZM330.825 90.34C330.233 89.46 329.809 88.564 329.553 87.652C329.297 86.732 329.169 85.796 329.169 84.844C329.169 83.884 329.297 82.948 329.553 82.036C329.809 81.124 330.233 80.228 330.825 79.348L331.845 79.756C331.597 80.364 331.393 80.948 331.233 81.508C331.073 82.06 330.957 82.608 330.885 83.152C330.813 83.696 330.777 84.26 330.777 84.844C330.777 85.42 330.813 85.984 330.885 86.536C330.957 87.08 331.073 87.628 331.233 88.18C331.393 88.732 331.597 89.316 331.845 89.932L330.825 90.34ZM335.39 89.38V87.808L335.666 88.072C335.082 88.056 334.53 87.968 334.01 87.808C333.498 87.64 333.054 87.408 332.678 87.112L333.146 85.9C333.394 86.084 333.658 86.244 333.938 86.38C334.226 86.508 334.526 86.608 334.838 86.68C335.158 86.744 335.498 86.776 335.858 86.776C336.442 86.776 336.87 86.672 337.142 86.464C337.414 86.256 337.55 85.996 337.55 85.684C337.55 85.404 337.458 85.18 337.274 85.012C337.09 84.844 336.762 84.708 336.29 84.604L335.018 84.328C334.298 84.168 333.754 83.904 333.386 83.536C333.026 83.16 332.846 82.664 332.846 82.048C332.846 81.576 332.962 81.156 333.194 80.788C333.426 80.412 333.75 80.112 334.166 79.888C334.582 79.664 335.07 79.532 335.63 79.492L335.39 79.672V78.16H336.59V79.672L336.338 79.48C336.794 79.504 337.242 79.596 337.682 79.756C338.13 79.916 338.502 80.148 338.798 80.452L338.342 81.604C338.038 81.324 337.69 81.116 337.298 80.98C336.906 80.836 336.478 80.764 336.014 80.764C335.518 80.764 335.118 80.88 334.814 81.112C334.518 81.336 334.37 81.632 334.37 82C334.37 82.272 334.462 82.492 334.646 82.66C334.83 82.828 335.126 82.956 335.534 83.044L336.806 83.32C337.574 83.488 338.142 83.756 338.51 84.124C338.886 84.484 339.074 84.964 339.074 85.564C339.074 86.028 338.958 86.44 338.726 86.8C338.494 87.152 338.174 87.436 337.766 87.652C337.366 87.86 336.898 87.992 336.362 88.048L336.59 87.796V89.38H335.39ZM340.905 90.34L339.885 89.932C340.133 89.308 340.333 88.716 340.485 88.156C340.645 87.604 340.761 87.06 340.833 86.524C340.913 85.98 340.953 85.42 340.953 84.844C340.953 84.268 340.913 83.712 340.833 83.176C340.761 82.632 340.645 82.08 340.485 81.52C340.333 80.96 340.133 80.372 339.885 79.756L340.905 79.348C341.497 80.228 341.921 81.128 342.177 82.048C342.433 82.96 342.561 83.892 342.561 84.844C342.561 85.796 342.433 86.732 342.177 87.652C341.921 88.564 341.497 89.46 340.905 90.34Z" fill="#808283"/>
<rect x="48" y="115.5" width="422" height="1" fill="#23252D"/>
<path d="M478.37 121.38V119.808L478.646 120.072C478.062 120.056 477.51 119.968 476.99 119.808C476.478 119.64 476.034 119.408 475.658 119.112L476.126 117.9C476.374 118.084 476.638 118.244 476.918 118.38C477.206 118.508 477.506 118.608 477.818 118.68C478.138 118.744 478.478 118.776 478.838 118.776C479.422 118.776 479.85 118.672 480.122 118.464C480.394 118.256 480.53 117.996 480.53 117.684C480.53 117.404 480.438 117.18 480.254 117.012C480.07 116.844 479.742 116.708 479.27 116.604L477.998 116.328C477.278 116.168 476.734 115.904 476.366 115.536C476.006 115.16 475.826 114.664 475.826 114.048C475.826 113.576 475.942 113.156 476.174 112.788C476.406 112.412 476.73 112.112 477.146 111.888C477.562 111.664 478.05 111.532 478.61 111.492L478.37 111.672V110.16H479.57V111.672L479.318 111.48C479.774 111.504 480.222 111.596 480.662 111.756C481.11 111.916 481.482 112.148 481.778 112.452L481.322 113.604C481.018 113.324 480.67 113.116 480.278 112.98C479.886 112.836 479.458 112.764 478.994 112.764C478.498 112.764 478.098 112.88 477.794 113.112C477.498 113.336 477.35 113.632 477.35 114C477.35 114.272 477.442 114.492 477.626 114.66C477.81 114.828 478.106 114.956 478.514 115.044L479.786 115.32C480.554 115.488 481.122 115.756 481.49 116.124C481.866 116.484 482.054 116.964 482.054 117.564C482.054 118.028 481.938 118.44 481.706 118.8C481.474 119.152 481.154 119.436 480.746 119.652C480.346 119.86 479.878 119.992 479.342 120.048L479.57 119.796V121.38H478.37ZM483.753 120V118.728H485.661V112.836H486.405L484.185 114.18L483.585 113.052L486.105 111.54H487.197V118.728H488.985V120H483.753ZM493.241 120.12C492.577 120.12 492.013 119.952 491.549 119.616C491.093 119.272 490.745 118.776 490.505 118.128C490.273 117.48 490.157 116.688 490.157 115.752C490.157 114.808 490.273 114.016 490.505 113.376C490.745 112.728 491.093 112.24 491.549 111.912C492.013 111.584 492.577 111.42 493.241 111.42C493.913 111.42 494.477 111.584 494.933 111.912C495.397 112.24 495.745 112.724 495.977 113.364C496.209 114.004 496.325 114.796 496.325 115.74C496.325 116.676 496.205 117.472 495.965 118.128C495.733 118.776 495.389 119.272 494.933 119.616C494.477 119.952 493.913 120.12 493.241 120.12ZM493.241 118.86C493.785 118.86 494.185 118.612 494.441 118.116C494.705 117.612 494.837 116.82 494.837 115.74C494.837 114.668 494.705 113.892 494.441 113.412C494.185 112.924 493.785 112.68 493.241 112.68C492.705 112.68 492.305 112.924 492.041 113.412C491.777 113.892 491.645 114.672 491.645 115.752C491.645 116.824 491.777 117.612 492.041 118.116C492.305 118.612 492.705 118.86 493.241 118.86ZM500.436 120.12C499.772 120.12 499.208 119.952 498.744 119.616C498.288 119.272 497.94 118.776 497.7 118.128C497.468 117.48 497.352 116.688 497.352 115.752C497.352 114.808 497.468 114.016 497.7 113.376C497.94 112.728 498.288 112.24 498.744 111.912C499.208 111.584 499.772 111.42 500.436 111.42C501.108 111.42 501.672 111.584 502.128 111.912C502.592 112.24 502.94 112.724 503.172 113.364C503.404 114.004 503.52 114.796 503.52 115.74C503.52 116.676 503.4 117.472 503.16 118.128C502.928 118.776 502.584 119.272 502.128 119.616C501.672 119.952 501.108 120.12 500.436 120.12ZM500.436 118.86C500.98 118.86 501.38 118.612 501.636 118.116C501.9 117.612 502.032 116.82 502.032 115.74C502.032 114.668 501.9 113.892 501.636 113.412C501.38 112.924 500.98 112.68 500.436 112.68C499.9 112.68 499.5 112.924 499.236 113.412C498.972 113.892 498.84 114.672 498.84 115.752C498.84 116.824 498.972 117.612 499.236 118.116C499.5 118.612 499.9 118.86 500.436 118.86ZM504.955 120V111.54H506.491V115.284H506.515L510.247 111.54H512.119L507.655 115.956L507.667 115.26L512.323 120H510.427L506.515 116.088H506.491V120H504.955Z" fill="#808283"/>
<rect x="48" y="143.278" width="422" height="1" fill="#23252D"/>
<path d="M485.565 149.158V147.586L485.841 147.85C485.257 147.834 484.705 147.746 484.185 147.586C483.673 147.418 483.229 147.186 482.853 146.89L483.321 145.678C483.569 145.862 483.833 146.022 484.113 146.158C484.401 146.286 484.701 146.386 485.013 146.458C485.333 146.522 485.673 146.554 486.033 146.554C486.617 146.554 487.045 146.45 487.317 146.242C487.589 146.034 487.725 145.774 487.725 145.462C487.725 145.182 487.633 144.958 487.449 144.79C487.265 144.622 486.937 144.486 486.465 144.382L485.193 144.106C484.473 143.946 483.929 143.682 483.561 143.314C483.201 142.938 483.021 142.442 483.021 141.826C483.021 141.354 483.137 140.934 483.369 140.566C483.601 140.19 483.925 139.89 484.341 139.666C484.757 139.442 485.245 139.31 485.805 139.27L485.565 139.45V137.938H486.765V139.45L486.513 139.258C486.969 139.282 487.417 139.374 487.857 139.534C488.305 139.694 488.677 139.926 488.973 140.23L488.517 141.382C488.213 141.102 487.865 140.894 487.473 140.758C487.081 140.614 486.653 140.542 486.189 140.542C485.693 140.542 485.293 140.658 484.989 140.89C484.693 141.114 484.545 141.41 484.545 141.778C484.545 142.05 484.637 142.27 484.821 142.438C485.005 142.606 485.301 142.734 485.709 142.822L486.981 143.098C487.749 143.266 488.317 143.534 488.685 143.902C489.061 144.262 489.249 144.742 489.249 145.342C489.249 145.806 489.133 146.218 488.901 146.578C488.669 146.93 488.349 147.214 487.941 147.43C487.541 147.638 487.073 147.77 486.537 147.826L486.765 147.574V149.158H485.565ZM493.553 147.898C492.857 147.898 492.261 147.734 491.765 147.406C491.277 147.07 490.905 146.59 490.649 145.966C490.393 145.342 490.265 144.586 490.265 143.698C490.265 142.738 490.409 141.926 490.697 141.262C490.985 140.59 491.401 140.078 491.945 139.726C492.489 139.374 493.141 139.198 493.901 139.198C494.197 139.198 494.493 139.238 494.789 139.318C495.093 139.39 495.377 139.498 495.641 139.642C495.913 139.778 496.153 139.946 496.361 140.146L495.857 141.298C495.561 141.026 495.245 140.826 494.909 140.698C494.573 140.562 494.229 140.494 493.877 140.494C493.533 140.494 493.225 140.558 492.953 140.686C492.689 140.806 492.465 140.99 492.281 141.238C492.097 141.478 491.957 141.782 491.861 142.15C491.773 142.51 491.729 142.93 491.729 143.41V144.31H491.585C491.649 143.902 491.781 143.554 491.981 143.266C492.189 142.97 492.453 142.746 492.773 142.594C493.093 142.434 493.449 142.354 493.841 142.354C494.329 142.354 494.761 142.47 495.137 142.702C495.513 142.934 495.809 143.254 496.025 143.662C496.241 144.07 496.349 144.538 496.349 145.066C496.349 145.61 496.229 146.098 495.989 146.53C495.757 146.954 495.429 147.29 495.005 147.538C494.589 147.778 494.105 147.898 493.553 147.898ZM493.469 146.674C493.757 146.674 494.009 146.61 494.225 146.482C494.449 146.354 494.621 146.174 494.741 145.942C494.861 145.702 494.921 145.43 494.921 145.126C494.921 144.814 494.861 144.542 494.741 144.31C494.621 144.078 494.449 143.898 494.225 143.77C494.009 143.634 493.757 143.566 493.469 143.566C493.181 143.566 492.929 143.634 492.713 143.77C492.497 143.898 492.325 144.078 492.197 144.31C492.077 144.542 492.017 144.814 492.017 145.126C492.017 145.43 492.077 145.702 492.197 145.942C492.325 146.174 492.497 146.354 492.713 146.482C492.929 146.61 493.181 146.674 493.469 146.674ZM500.436 147.898C499.772 147.898 499.208 147.73 498.744 147.394C498.288 147.05 497.94 146.554 497.7 145.906C497.468 145.258 497.352 144.466 497.352 143.53C497.352 142.586 497.468 141.794 497.7 141.154C497.94 140.506 498.288 140.018 498.744 139.69C499.208 139.362 499.772 139.198 500.436 139.198C501.108 139.198 501.672 139.362 502.128 139.69C502.592 140.018 502.94 140.502 503.172 141.142C503.404 141.782 503.52 142.574 503.52 143.518C503.52 144.454 503.4 145.25 503.16 145.906C502.928 146.554 502.584 147.05 502.128 147.394C501.672 147.73 501.108 147.898 500.436 147.898ZM500.436 146.638C500.98 146.638 501.38 146.39 501.636 145.894C501.9 145.39 502.032 144.598 502.032 143.518C502.032 142.446 501.9 141.67 501.636 141.19C501.38 140.702 500.98 140.458 500.436 140.458C499.9 140.458 499.5 140.702 499.236 141.19C498.972 141.67 498.84 142.45 498.84 143.53C498.84 144.602 498.972 145.39 499.236 145.894C499.5 146.39 499.9 146.638 500.436 146.638ZM504.955 147.778V139.318H506.491V143.062H506.515L510.247 139.318H512.119L507.655 143.734L507.667 143.038L512.323 147.778H510.427L506.515 143.866H506.491V147.778H504.955Z" fill="#808283"/>
<rect x="48" y="171.056" width="422" height="1" fill="#23252D"/>
<path d="M485.565 176.936V175.364L485.841 175.628C485.257 175.612 484.705 175.524 484.185 175.364C483.673 175.196 483.229 174.964 482.853 174.668L483.321 173.456C483.569 173.64 483.833 173.8 484.113 173.936C484.401 174.064 484.701 174.164 485.013 174.236C485.333 174.3 485.673 174.332 486.033 174.332C486.617 174.332 487.045 174.228 487.317 174.02C487.589 173.812 487.725 173.552 487.725 173.24C487.725 172.96 487.633 172.736 487.449 172.568C487.265 172.4 486.937 172.264 486.465 172.16L485.193 171.884C484.473 171.724 483.929 171.46 483.561 171.092C483.201 170.716 483.021 170.22 483.021 169.604C483.021 169.132 483.137 168.712 483.369 168.344C483.601 167.968 483.925 167.668 484.341 167.444C484.757 167.22 485.245 167.088 485.805 167.048L485.565 167.228V165.716H486.765V167.228L486.513 167.036C486.969 167.06 487.417 167.152 487.857 167.312C488.305 167.472 488.677 167.704 488.973 168.008L488.517 169.16C488.213 168.88 487.865 168.672 487.473 168.536C487.081 168.392 486.653 168.32 486.189 168.32C485.693 168.32 485.293 168.436 484.989 168.668C484.693 168.892 484.545 169.188 484.545 169.556C484.545 169.828 484.637 170.048 484.821 170.216C485.005 170.384 485.301 170.512 485.709 170.6L486.981 170.876C487.749 171.044 488.317 171.312 488.685 171.68C489.061 172.04 489.249 172.52 489.249 173.12C489.249 173.584 489.133 173.996 488.901 174.356C488.669 174.708 488.349 174.992 487.941 175.208C487.541 175.416 487.073 175.548 486.537 175.604L486.765 175.352V176.936H485.565ZM490.601 175.556V174.416L493.337 171.5C493.585 171.236 493.781 170.992 493.925 170.768C494.077 170.544 494.189 170.328 494.261 170.12C494.333 169.912 494.369 169.704 494.369 169.496C494.369 169.096 494.241 168.792 493.985 168.584C493.737 168.376 493.373 168.272 492.893 168.272C492.517 168.272 492.149 168.344 491.789 168.488C491.437 168.624 491.097 168.84 490.769 169.136L490.253 167.984C490.589 167.68 491.009 167.436 491.513 167.252C492.017 167.068 492.541 166.976 493.085 166.976C493.693 166.976 494.205 167.068 494.621 167.252C495.037 167.436 495.353 167.704 495.569 168.056C495.785 168.408 495.893 168.836 495.893 169.34C495.893 169.596 495.861 169.848 495.797 170.096C495.741 170.336 495.649 170.576 495.521 170.816C495.401 171.056 495.245 171.304 495.053 171.56C494.869 171.808 494.645 172.068 494.381 172.34L492.125 174.692V174.284H496.217V175.556H490.601ZM500.436 175.676C499.772 175.676 499.208 175.508 498.744 175.172C498.288 174.828 497.94 174.332 497.7 173.684C497.468 173.036 497.352 172.244 497.352 171.308C497.352 170.364 497.468 169.572 497.7 168.932C497.94 168.284 498.288 167.796 498.744 167.468C499.208 167.14 499.772 166.976 500.436 166.976C501.108 166.976 501.672 167.14 502.128 167.468C502.592 167.796 502.94 168.28 503.172 168.92C503.404 169.56 503.52 170.352 503.52 171.296C503.52 172.232 503.4 173.028 503.16 173.684C502.928 174.332 502.584 174.828 502.128 175.172C501.672 175.508 501.108 175.676 500.436 175.676ZM500.436 174.416C500.98 174.416 501.38 174.168 501.636 173.672C501.9 173.168 502.032 172.376 502.032 171.296C502.032 170.224 501.9 169.448 501.636 168.968C501.38 168.48 500.98 168.236 500.436 168.236C499.9 168.236 499.5 168.48 499.236 168.968C498.972 169.448 498.84 170.228 498.84 171.308C498.84 172.38 498.972 173.168 499.236 173.672C499.5 174.168 499.9 174.416 500.436 174.416ZM504.955 175.556V167.096H506.491V170.84H506.515L510.247 167.096H512.119L507.655 171.512L507.667 170.816L512.323 175.556H510.427L506.515 171.644H506.491V175.556H504.955Z" fill="#808283"/>
<rect x="48" y="198.833" width="422" height="1" fill="#23252D"/>
<path d="M492.761 204.713V203.141L493.037 203.405C492.453 203.389 491.901 203.301 491.381 203.141C490.869 202.973 490.425 202.741 490.049 202.445L490.517 201.233C490.765 201.417 491.029 201.577 491.309 201.713C491.597 201.841 491.897 201.941 492.209 202.013C492.529 202.077 492.869 202.109 493.229 202.109C493.813 202.109 494.241 202.005 494.513 201.797C494.785 201.589 494.921 201.329 494.921 201.017C494.921 200.737 494.829 200.513 494.645 200.345C494.461 200.177 494.133 200.041 493.661 199.937L492.389 199.661C491.669 199.501 491.125 199.237 490.757 198.869C490.397 198.493 490.217 197.997 490.217 197.381C490.217 196.909 490.333 196.489 490.565 196.121C490.797 195.745 491.121 195.445 491.537 195.221C491.953 194.997 492.441 194.865 493.001 194.825L492.761 195.005V193.493H493.961V195.005L493.709 194.813C494.165 194.837 494.613 194.929 495.053 195.089C495.501 195.249 495.873 195.481 496.169 195.785L495.713 196.937C495.409 196.657 495.061 196.449 494.669 196.313C494.277 196.169 493.849 196.097 493.385 196.097C492.889 196.097 492.489 196.213 492.185 196.445C491.889 196.669 491.741 196.965 491.741 197.333C491.741 197.605 491.833 197.825 492.017 197.993C492.201 198.161 492.497 198.289 492.905 198.377L494.177 198.653C494.945 198.821 495.513 199.089 495.881 199.457C496.257 199.817 496.445 200.297 496.445 200.897C496.445 201.361 496.329 201.773 496.097 202.133C495.865 202.485 495.545 202.769 495.137 202.985C494.737 203.193 494.269 203.325 493.733 203.381L493.961 203.129V204.713H492.761ZM500.436 203.453C499.452 203.453 498.68 203.241 498.12 202.817C497.568 202.393 497.292 201.805 497.292 201.053C497.292 200.653 497.372 200.301 497.532 199.997C497.7 199.685 497.928 199.433 498.216 199.241C498.504 199.049 498.832 198.929 499.2 198.881V199.133C498.864 199.061 498.568 198.929 498.312 198.737C498.056 198.537 497.856 198.293 497.712 198.005C497.576 197.709 497.508 197.385 497.508 197.033C497.508 196.321 497.772 195.765 498.3 195.365C498.828 194.957 499.544 194.753 500.448 194.753C501.344 194.753 502.056 194.957 502.584 195.365C503.112 195.765 503.376 196.321 503.376 197.033C503.376 197.385 503.304 197.709 503.16 198.005C503.024 198.301 502.828 198.545 502.572 198.737C502.324 198.929 502.032 199.057 501.696 199.121V198.881C502.072 198.929 502.4 199.053 502.68 199.253C502.96 199.445 503.18 199.697 503.34 200.009C503.5 200.313 503.58 200.661 503.58 201.053C503.58 201.805 503.3 202.393 502.74 202.817C502.188 203.241 501.42 203.453 500.436 203.453ZM500.436 202.253C501.004 202.253 501.432 202.145 501.72 201.929C502.008 201.705 502.152 201.377 502.152 200.945C502.152 200.513 502.008 200.189 501.72 199.973C501.432 199.757 501.004 199.649 500.436 199.649C499.876 199.649 499.448 199.757 499.152 199.973C498.864 200.189 498.72 200.513 498.72 200.945C498.72 201.377 498.864 201.705 499.152 201.929C499.448 202.145 499.876 202.253 500.436 202.253ZM500.436 198.449C500.908 198.449 501.276 198.337 501.54 198.113C501.812 197.889 501.948 197.581 501.948 197.189C501.948 196.805 501.812 196.505 501.54 196.289C501.276 196.065 500.908 195.953 500.436 195.953C499.964 195.953 499.596 196.065 499.332 196.289C499.068 196.505 498.936 196.809 498.936 197.201C498.936 197.585 499.068 197.889 499.332 198.113C499.596 198.337 499.964 198.449 500.436 198.449ZM504.955 203.333V194.873H506.491V198.617H506.515L510.247 194.873H512.119L507.655 199.289L507.667 198.593L512.323 203.333H510.427L506.515 199.421H506.491V203.333H504.955Z" fill="#808283"/>
<rect x="48" y="226.611" width="422" height="1" fill="#23252D"/>
<path d="M492.761 232.491V230.919L493.037 231.183C492.453 231.167 491.901 231.079 491.381 230.919C490.869 230.751 490.425 230.519 490.049 230.223L490.517 229.011C490.765 229.195 491.029 229.355 491.309 229.491C491.597 229.619 491.897 229.719 492.209 229.791C492.529 229.855 492.869 229.887 493.229 229.887C493.813 229.887 494.241 229.783 494.513 229.575C494.785 229.367 494.921 229.107 494.921 228.795C494.921 228.515 494.829 228.291 494.645 228.123C494.461 227.955 494.133 227.819 493.661 227.715L492.389 227.439C491.669 227.279 491.125 227.015 490.757 226.647C490.397 226.271 490.217 225.775 490.217 225.159C490.217 224.687 490.333 224.267 490.565 223.899C490.797 223.523 491.121 223.223 491.537 222.999C491.953 222.775 492.441 222.643 493.001 222.603L492.761 222.783V221.271H493.961V222.783L493.709 222.591C494.165 222.615 494.613 222.707 495.053 222.867C495.501 223.027 495.873 223.259 496.169 223.563L495.713 224.715C495.409 224.435 495.061 224.227 494.669 224.091C494.277 223.947 493.849 223.875 493.385 223.875C492.889 223.875 492.489 223.991 492.185 224.223C491.889 224.447 491.741 224.743 491.741 225.111C491.741 225.383 491.833 225.603 492.017 225.771C492.201 225.939 492.497 226.067 492.905 226.155L494.177 226.431C494.945 226.599 495.513 226.867 495.881 227.235C496.257 227.595 496.445 228.075 496.445 228.675C496.445 229.139 496.329 229.551 496.097 229.911C495.865 230.263 495.545 230.547 495.137 230.763C494.737 230.971 494.269 231.103 493.733 231.159L493.961 230.907V232.491H492.761ZM498.144 231.111V229.839H500.052V223.947H500.796L498.576 225.291L497.976 224.163L500.496 222.651H501.588V229.839H503.376V231.111H498.144ZM504.955 231.111V222.651H506.491V226.395H506.515L510.247 222.651H512.119L507.655 227.067L507.667 226.371L512.323 231.111H510.427L506.515 227.199H506.491V231.111H504.955Z" fill="#808283"/>
<rect x="48" y="254.389" width="422" height="1" fill="#23252D"/>
<path d="M486.339 260.269V258.697L486.615 258.961C486.031 258.945 485.479 258.857 484.959 258.697C484.447 258.529 484.003 258.297 483.627 258.001L484.095 256.789C484.343 256.973 484.607 257.133 484.887 257.269C485.175 257.397 485.475 257.497 485.787 257.569C486.107 257.633 486.447 257.665 486.807 257.665C487.391 257.665 487.819 257.561 488.091 257.353C488.363 257.145 488.499 256.885 488.499 256.573C488.499 256.293 488.407 256.069 488.223 255.901C488.039 255.733 487.711 255.597 487.239 255.493L485.967 255.217C485.247 255.057 484.703 254.793 484.335 254.425C483.975 254.049 483.795 253.553 483.795 252.937C483.795 252.465 483.911 252.045 484.143 251.677C484.375 251.301 484.699 251.001 485.115 250.777C485.531 250.553 486.019 250.421 486.579 250.381L486.339 250.561V249.049H487.539V250.561L487.287 250.369C487.743 250.393 488.191 250.485 488.631 250.645C489.079 250.805 489.451 251.037 489.747 251.341L489.291 252.493C488.987 252.213 488.639 252.005 488.247 251.869C487.855 251.725 487.427 251.653 486.963 251.653C486.467 251.653 486.067 251.769 485.763 252.001C485.467 252.225 485.319 252.521 485.319 252.889C485.319 253.161 485.411 253.381 485.595 253.549C485.779 253.717 486.075 253.845 486.483 253.933L487.755 254.209C488.523 254.377 489.091 254.645 489.459 255.013C489.835 255.373 490.023 255.853 490.023 256.453C490.023 256.917 489.907 257.329 489.675 257.689C489.443 258.041 489.123 258.325 488.715 258.541C488.315 258.749 487.847 258.881 487.311 258.937L487.539 258.685V260.269H486.339ZM491.374 258.889V257.749L494.11 254.833C494.358 254.569 494.554 254.325 494.698 254.101C494.85 253.877 494.962 253.661 495.034 253.453C495.106 253.245 495.142 253.037 495.142 252.829C495.142 252.429 495.014 252.125 494.758 251.917C494.51 251.709 494.146 251.605 493.666 251.605C493.29 251.605 492.922 251.677 492.562 251.821C492.21 251.957 491.87 252.173 491.542 252.469L491.026 251.317C491.362 251.013 491.782 250.769 492.286 250.585C492.79 250.401 493.314 250.309 493.858 250.309C494.466 250.309 494.978 250.401 495.394 250.585C495.81 250.769 496.126 251.037 496.342 251.389C496.558 251.741 496.666 252.169 496.666 252.673C496.666 252.929 496.634 253.181 496.57 253.429C496.514 253.669 496.422 253.909 496.294 254.149C496.174 254.389 496.018 254.637 495.826 254.893C495.642 255.141 495.418 255.401 495.154 255.673L492.898 258.025V257.617H496.99V258.889H491.374ZM501.209 259.009C500.545 259.009 499.981 258.841 499.517 258.505C499.061 258.161 498.713 257.665 498.473 257.017C498.241 256.369 498.125 255.577 498.125 254.641C498.125 253.697 498.241 252.905 498.473 252.265C498.713 251.617 499.061 251.129 499.517 250.801C499.981 250.473 500.545 250.309 501.209 250.309C501.881 250.309 502.445 250.473 502.901 250.801C503.365 251.129 503.713 251.613 503.945 252.253C504.177 252.893 504.293 253.685 504.293 254.629C504.293 255.565 504.173 256.361 503.933 257.017C503.701 257.665 503.357 258.161 502.901 258.505C502.445 258.841 501.881 259.009 501.209 259.009ZM501.209 257.749C501.753 257.749 502.153 257.501 502.409 257.005C502.673 256.501 502.805 255.709 502.805 254.629C502.805 253.557 502.673 252.781 502.409 252.301C502.153 251.813 501.753 251.569 501.209 251.569C500.673 251.569 500.273 251.813 500.009 252.301C499.745 252.781 499.613 253.561 499.613 254.641C499.613 255.713 499.745 256.501 500.009 257.005C500.273 257.501 500.673 257.749 501.209 257.749ZM508.405 259.009C507.741 259.009 507.177 258.841 506.713 258.505C506.257 258.161 505.909 257.665 505.669 257.017C505.437 256.369 505.321 255.577 505.321 254.641C505.321 253.697 505.437 252.905 505.669 252.265C505.909 251.617 506.257 251.129 506.713 250.801C507.177 250.473 507.741 250.309 508.405 250.309C509.077 250.309 509.641 250.473 510.097 250.801C510.561 251.129 510.909 251.613 511.141 252.253C511.373 252.893 511.489 253.685 511.489 254.629C511.489 255.565 511.369 256.361 511.129 257.017C510.897 257.665 510.553 258.161 510.097 258.505C509.641 258.841 509.077 259.009 508.405 259.009ZM508.405 257.749C508.949 257.749 509.349 257.501 509.605 257.005C509.869 256.501 510.001 255.709 510.001 254.629C510.001 253.557 509.869 252.781 509.605 252.301C509.349 251.813 508.949 251.569 508.405 251.569C507.869 251.569 507.469 251.813 507.205 252.301C506.941 252.781 506.809 253.561 506.809 254.641C506.809 255.713 506.941 256.501 507.205 257.005C507.469 257.501 507.869 257.749 508.405 257.749Z" fill="#808283"/>
<rect x="48" y="282.167" width="422" height="1" fill="#23252D"/>
<path d="M493.534 288.047V286.475L493.81 286.739C493.226 286.723 492.674 286.635 492.154 286.475C491.642 286.307 491.198 286.075 490.822 285.779L491.29 284.567C491.538 284.751 491.802 284.911 492.082 285.047C492.37 285.175 492.67 285.275 492.982 285.347C493.302 285.411 493.642 285.443 494.002 285.443C494.586 285.443 495.014 285.339 495.286 285.131C495.558 284.923 495.694 284.663 495.694 284.351C495.694 284.071 495.602 283.847 495.418 283.679C495.234 283.511 494.906 283.375 494.434 283.271L493.162 282.995C492.442 282.835 491.898 282.571 491.53 282.203C491.17 281.827 490.99 281.331 490.99 280.715C490.99 280.243 491.106 279.823 491.338 279.455C491.57 279.079 491.894 278.779 492.31 278.555C492.726 278.331 493.214 278.199 493.774 278.159L493.534 278.339V276.827H494.734V278.339L494.482 278.147C494.938 278.171 495.386 278.263 495.826 278.423C496.274 278.583 496.646 278.815 496.942 279.119L496.486 280.271C496.182 279.991 495.834 279.783 495.442 279.647C495.05 279.503 494.622 279.431 494.158 279.431C493.662 279.431 493.262 279.547 492.958 279.779C492.662 280.003 492.514 280.299 492.514 280.667C492.514 280.939 492.606 281.159 492.79 281.327C492.974 281.495 493.27 281.623 493.678 281.711L494.95 281.987C495.718 282.155 496.286 282.423 496.654 282.791C497.03 283.151 497.218 283.631 497.218 284.231C497.218 284.695 497.102 285.107 496.87 285.467C496.638 285.819 496.318 286.103 495.91 286.319C495.51 286.527 495.042 286.659 494.506 286.715L494.734 286.463V288.047H493.534ZM501.209 286.787C500.225 286.787 499.453 286.575 498.893 286.151C498.341 285.727 498.065 285.139 498.065 284.387C498.065 283.987 498.145 283.635 498.305 283.331C498.473 283.019 498.701 282.767 498.989 282.575C499.277 282.383 499.605 282.263 499.973 282.215V282.467C499.637 282.395 499.341 282.263 499.085 282.071C498.829 281.871 498.629 281.627 498.485 281.339C498.349 281.043 498.281 280.719 498.281 280.367C498.281 279.655 498.545 279.099 499.073 278.699C499.601 278.291 500.317 278.087 501.221 278.087C502.117 278.087 502.829 278.291 503.357 278.699C503.885 279.099 504.149 279.655 504.149 280.367C504.149 280.719 504.077 281.043 503.933 281.339C503.797 281.635 503.601 281.879 503.345 282.071C503.097 282.263 502.805 282.391 502.469 282.455V282.215C502.845 282.263 503.173 282.387 503.453 282.587C503.733 282.779 503.953 283.031 504.113 283.343C504.273 283.647 504.353 283.995 504.353 284.387C504.353 285.139 504.073 285.727 503.513 286.151C502.961 286.575 502.193 286.787 501.209 286.787ZM501.209 285.587C501.777 285.587 502.205 285.479 502.493 285.263C502.781 285.039 502.925 284.711 502.925 284.279C502.925 283.847 502.781 283.523 502.493 283.307C502.205 283.091 501.777 282.983 501.209 282.983C500.649 282.983 500.221 283.091 499.925 283.307C499.637 283.523 499.493 283.847 499.493 284.279C499.493 284.711 499.637 285.039 499.925 285.263C500.221 285.479 500.649 285.587 501.209 285.587ZM501.209 281.783C501.681 281.783 502.049 281.671 502.313 281.447C502.585 281.223 502.721 280.915 502.721 280.523C502.721 280.139 502.585 279.839 502.313 279.623C502.049 279.399 501.681 279.287 501.209 279.287C500.737 279.287 500.369 279.399 500.105 279.623C499.841 279.839 499.709 280.143 499.709 280.535C499.709 280.919 499.841 281.223 500.105 281.447C500.369 281.671 500.737 281.783 501.209 281.783ZM508.405 286.787C507.741 286.787 507.177 286.619 506.713 286.283C506.257 285.939 505.909 285.443 505.669 284.795C505.437 284.147 505.321 283.355 505.321 282.419C505.321 281.475 505.437 280.683 505.669 280.043C505.909 279.395 506.257 278.907 506.713 278.579C507.177 278.251 507.741 278.087 508.405 278.087C509.077 278.087 509.641 278.251 510.097 278.579C510.561 278.907 510.909 279.391 511.141 280.031C511.373 280.671 511.489 281.463 511.489 282.407C511.489 283.343 511.369 284.139 511.129 284.795C510.897 285.443 510.553 285.939 510.097 286.283C509.641 286.619 509.077 286.787 508.405 286.787ZM508.405 285.527C508.949 285.527 509.349 285.279 509.605 284.783C509.869 284.279 510.001 283.487 510.001 282.407C510.001 281.335 509.869 280.559 509.605 280.079C509.349 279.591 508.949 279.347 508.405 279.347C507.869 279.347 507.469 279.591 507.205 280.079C506.941 280.559 506.809 281.339 506.809 282.419C506.809 283.491 506.941 284.279 507.205 284.783C507.469 285.279 507.869 285.527 508.405 285.527Z" fill="#808283"/>
<rect x="48" y="309.944" width="422" height="1" fill="#23252D"/>
<path d="M493.534 315.824V314.252L493.81 314.516C493.226 314.5 492.674 314.412 492.154 314.252C491.642 314.084 491.198 313.852 490.822 313.556L491.29 312.344C491.538 312.528 491.802 312.688 492.082 312.824C492.37 312.952 492.67 313.052 492.982 313.124C493.302 313.188 493.642 313.22 494.002 313.22C494.586 313.22 495.014 313.116 495.286 312.908C495.558 312.7 495.694 312.44 495.694 312.128C495.694 311.848 495.602 311.624 495.418 311.456C495.234 311.288 494.906 311.152 494.434 311.048L493.162 310.772C492.442 310.612 491.898 310.348 491.53 309.98C491.17 309.604 490.99 309.108 490.99 308.492C490.99 308.02 491.106 307.6 491.338 307.232C491.57 306.856 491.894 306.556 492.31 306.332C492.726 306.108 493.214 305.976 493.774 305.936L493.534 306.116V304.604H494.734V306.116L494.482 305.924C494.938 305.948 495.386 306.04 495.826 306.2C496.274 306.36 496.646 306.592 496.942 306.896L496.486 308.048C496.182 307.768 495.834 307.56 495.442 307.424C495.05 307.28 494.622 307.208 494.158 307.208C493.662 307.208 493.262 307.324 492.958 307.556C492.662 307.78 492.514 308.076 492.514 308.444C492.514 308.716 492.606 308.936 492.79 309.104C492.974 309.272 493.27 309.4 493.678 309.488L494.95 309.764C495.718 309.932 496.286 310.2 496.654 310.568C497.03 310.928 497.218 311.408 497.218 312.008C497.218 312.472 497.102 312.884 496.87 313.244C496.638 313.596 496.318 313.88 495.91 314.096C495.51 314.304 495.042 314.436 494.506 314.492L494.734 314.24V315.824H493.534ZM498.917 314.444V313.172H500.825V307.28H501.569L499.349 308.624L498.749 307.496L501.269 305.984H502.361V313.172H504.149V314.444H498.917ZM508.405 314.564C507.741 314.564 507.177 314.396 506.713 314.06C506.257 313.716 505.909 313.22 505.669 312.572C505.437 311.924 505.321 311.132 505.321 310.196C505.321 309.252 505.437 308.46 505.669 307.82C505.909 307.172 506.257 306.684 506.713 306.356C507.177 306.028 507.741 305.864 508.405 305.864C509.077 305.864 509.641 306.028 510.097 306.356C510.561 306.684 510.909 307.168 511.141 307.808C511.373 308.448 511.489 309.24 511.489 310.184C511.489 311.12 511.369 311.916 511.129 312.572C510.897 313.22 510.553 313.716 510.097 314.06C509.641 314.396 509.077 314.564 508.405 314.564ZM508.405 313.304C508.949 313.304 509.349 313.056 509.605 312.56C509.869 312.056 510.001 311.264 510.001 310.184C510.001 309.112 509.869 308.336 509.605 307.856C509.349 307.368 508.949 307.124 508.405 307.124C507.869 307.124 507.469 307.368 507.205 307.856C506.941 308.336 506.809 309.116 506.809 310.196C506.809 311.268 506.941 312.056 507.205 312.56C507.469 313.056 507.869 313.304 508.405 313.304Z" fill="#808283"/>
<rect x="48" y="337.722" width="422" height="1" fill="#23252D"/>
<path d="M500.729 343.602V342.03L501.005 342.294C500.421 342.278 499.869 342.19 499.349 342.03C498.837 341.862 498.393 341.63 498.017 341.334L498.485 340.122C498.733 340.306 498.997 340.466 499.277 340.602C499.565 340.73 499.865 340.83 500.177 340.902C500.497 340.966 500.837 340.998 501.197 340.998C501.781 340.998 502.209 340.894 502.481 340.686C502.753 340.478 502.889 340.218 502.889 339.906C502.889 339.626 502.797 339.402 502.613 339.234C502.429 339.066 502.101 338.93 501.629 338.826L500.357 338.55C499.637 338.39 499.093 338.126 498.725 337.758C498.365 337.382 498.185 336.886 498.185 336.27C498.185 335.798 498.301 335.378 498.533 335.01C498.765 334.634 499.089 334.334 499.505 334.11C499.921 333.886 500.409 333.754 500.969 333.714L500.729 333.894V332.382H501.929V333.894L501.677 333.702C502.133 333.726 502.581 333.818 503.021 333.978C503.469 334.138 503.841 334.37 504.137 334.674L503.681 335.826C503.377 335.546 503.029 335.338 502.637 335.202C502.245 335.058 501.817 334.986 501.353 334.986C500.857 334.986 500.457 335.102 500.153 335.334C499.857 335.558 499.709 335.854 499.709 336.222C499.709 336.494 499.801 336.714 499.985 336.882C500.169 337.05 500.465 337.178 500.873 337.266L502.145 337.542C502.913 337.71 503.481 337.978 503.849 338.346C504.225 338.706 504.413 339.186 504.413 339.786C504.413 340.25 504.297 340.662 504.065 341.022C503.833 341.374 503.513 341.658 503.105 341.874C502.705 342.082 502.237 342.214 501.701 342.27L501.929 342.018V343.602H500.729ZM505.765 342.222V341.082L508.501 338.166C508.749 337.902 508.945 337.658 509.089 337.434C509.241 337.21 509.353 336.994 509.425 336.786C509.497 336.578 509.533 336.37 509.533 336.162C509.533 335.762 509.405 335.458 509.149 335.25C508.901 335.042 508.537 334.938 508.057 334.938C507.681 334.938 507.313 335.01 506.953 335.154C506.601 335.29 506.261 335.506 505.933 335.802L505.417 334.65C505.753 334.346 506.173 334.102 506.677 333.918C507.181 333.734 507.705 333.642 508.249 333.642C508.857 333.642 509.369 333.734 509.785 333.918C510.201 334.102 510.517 334.37 510.733 334.722C510.949 335.074 511.057 335.502 511.057 336.006C511.057 336.262 511.025 336.514 510.961 336.762C510.905 337.002 510.813 337.242 510.685 337.482C510.565 337.722 510.409 337.97 510.217 338.226C510.033 338.474 509.809 338.734 509.545 339.006L507.289 341.358V340.95H511.381V342.222H505.765Z" fill="#808283"/>
<rect x="48" y="365.5" width="422" height="1" fill="#313338"/>
<path d="M500.729 371.38V369.808L501.005 370.072C500.421 370.056 499.869 369.968 499.349 369.808C498.837 369.64 498.393 369.408 498.017 369.112L498.485 367.9C498.733 368.084 498.997 368.244 499.277 368.38C499.565 368.508 499.865 368.608 500.177 368.68C500.497 368.744 500.837 368.776 501.197 368.776C501.781 368.776 502.209 368.672 502.481 368.464C502.753 368.256 502.889 367.996 502.889 367.684C502.889 367.404 502.797 367.18 502.613 367.012C502.429 366.844 502.101 366.708 501.629 366.604L500.357 366.328C499.637 366.168 499.093 365.904 498.725 365.536C498.365 365.16 498.185 364.664 498.185 364.048C498.185 363.576 498.301 363.156 498.533 362.788C498.765 362.412 499.089 362.112 499.505 361.888C499.921 361.664 500.409 361.532 500.969 361.492L500.729 361.672V360.16H501.929V361.672L501.677 361.48C502.133 361.504 502.581 361.596 503.021 361.756C503.469 361.916 503.841 362.148 504.137 362.452L503.681 363.604C503.377 363.324 503.029 363.116 502.637 362.98C502.245 362.836 501.817 362.764 501.353 362.764C500.857 362.764 500.457 362.88 500.153 363.112C499.857 363.336 499.709 363.632 499.709 364C499.709 364.272 499.801 364.492 499.985 364.66C500.169 364.828 500.465 364.956 500.873 365.044L502.145 365.32C502.913 365.488 503.481 365.756 503.849 366.124C504.225 366.484 504.413 366.964 504.413 367.564C504.413 368.028 504.297 368.44 504.065 368.8C503.833 369.152 503.513 369.436 503.105 369.652C502.705 369.86 502.237 369.992 501.701 370.048L501.929 369.796V371.38H500.729ZM506.113 370V368.728H508.021V362.836H508.765L506.545 364.18L505.945 363.052L508.465 361.54H509.557V368.728H511.345V370H506.113Z" fill="#808283"/>
<rect x="69.7734" y="366" width="1" height="8" fill="#313338"/>
<path d="M62.2371 380.708V379.616C62.2371 379.344 62.2651 379.088 62.3211 378.848C62.3851 378.608 62.4851 378.372 62.6211 378.14C62.7651 377.908 62.9531 377.676 63.1851 377.444L63.8091 377.936C63.6411 378.112 63.5051 378.28 63.4011 378.44C63.2971 378.592 63.2211 378.748 63.1731 378.908C63.1331 379.06 63.1131 379.22 63.1131 379.388L62.7411 379.04H63.9171V380.708H62.2371ZM65.8737 386V384.728H67.7817V378.836H68.5257L66.3057 380.18L65.7057 379.052L68.2257 377.54H69.3177V384.728H71.1057V386H65.8737ZM72.721 386V384.86L75.457 381.944C75.705 381.68 75.901 381.436 76.045 381.212C76.197 380.988 76.309 380.772 76.381 380.564C76.453 380.356 76.489 380.148 76.489 379.94C76.489 379.54 76.361 379.236 76.105 379.028C75.857 378.82 75.493 378.716 75.013 378.716C74.637 378.716 74.269 378.788 73.909 378.932C73.557 379.068 73.217 379.284 72.889 379.58L72.373 378.428C72.709 378.124 73.129 377.88 73.633 377.696C74.137 377.512 74.661 377.42 75.205 377.42C75.813 377.42 76.325 377.512 76.741 377.696C77.157 377.88 77.473 378.148 77.689 378.5C77.905 378.852 78.013 379.28 78.013 379.784C78.013 380.04 77.981 380.292 77.917 380.54C77.861 380.78 77.769 381.02 77.641 381.26C77.521 381.5 77.365 381.748 77.173 382.004C76.989 382.252 76.765 382.512 76.501 382.784L74.245 385.136V384.728H78.337V386H72.721Z" fill="#808283"/>
<rect x="108.32" y="366" width="1" height="8" fill="#313338"/>
<path d="M100.784 380.708V379.616C100.784 379.344 100.812 379.088 100.868 378.848C100.932 378.608 101.032 378.372 101.168 378.14C101.312 377.908 101.5 377.676 101.732 377.444L102.356 377.936C102.188 378.112 102.052 378.28 101.948 378.44C101.844 378.592 101.768 378.748 101.72 378.908C101.68 379.06 101.66 379.22 101.66 379.388L101.288 379.04H102.464V380.708H100.784ZM104.421 386V384.728H106.329V378.836H107.073L104.853 380.18L104.253 379.052L106.773 377.54H107.865V384.728H109.653V386H104.421ZM113.74 386.12C113.356 386.12 112.98 386.08 112.612 386C112.252 385.928 111.916 385.82 111.604 385.676C111.292 385.532 111.02 385.36 110.788 385.16L111.292 383.984C111.668 384.272 112.052 384.484 112.444 384.62C112.836 384.756 113.252 384.824 113.692 384.824C114.044 384.824 114.34 384.776 114.58 384.68C114.82 384.584 115 384.44 115.12 384.248C115.248 384.056 115.312 383.824 115.312 383.552C115.312 383.152 115.176 382.856 114.904 382.664C114.64 382.464 114.252 382.364 113.74 382.364H112.384V381.092H113.596C113.9 381.092 114.16 381.044 114.376 380.948C114.592 380.844 114.76 380.7 114.88 380.516C115 380.332 115.06 380.108 115.06 379.844C115.06 379.476 114.936 379.196 114.688 379.004C114.448 378.812 114.096 378.716 113.632 378.716C113.216 378.716 112.828 378.788 112.468 378.932C112.108 379.068 111.764 379.284 111.436 379.58L110.932 378.428C111.268 378.108 111.688 377.86 112.192 377.684C112.696 377.508 113.22 377.42 113.764 377.42C114.348 377.42 114.848 377.512 115.264 377.696C115.68 377.872 115.996 378.128 116.212 378.464C116.436 378.792 116.548 379.192 116.548 379.664C116.548 380.168 116.408 380.604 116.128 380.972C115.848 381.332 115.464 381.572 114.976 381.692V381.548C115.36 381.612 115.688 381.74 115.96 381.932C116.232 382.124 116.44 382.368 116.584 382.664C116.728 382.96 116.8 383.3 116.8 383.684C116.8 384.18 116.676 384.612 116.428 384.98C116.18 385.348 115.828 385.632 115.372 385.832C114.916 386.024 114.372 386.12 113.74 386.12Z" fill="#808283"/>
<rect x="146.863" y="366" width="1" height="8" fill="#313338"/>
<path d="M139.327 380.708V379.616C139.327 379.344 139.355 379.088 139.411 378.848C139.475 378.608 139.575 378.372 139.711 378.14C139.855 377.908 140.043 377.676 140.275 377.444L140.899 377.936C140.731 378.112 140.595 378.28 140.491 378.44C140.387 378.592 140.311 378.748 140.263 378.908C140.223 379.06 140.203 379.22 140.203 379.388L139.831 379.04H141.007V380.708H139.327ZM142.964 386V384.728H144.872V378.836H145.616L143.396 380.18L142.796 379.052L145.316 377.54H146.408V384.728H148.196V386H142.964ZM153.039 386V384.392H149.355V383.264L153.303 377.54H154.575V383.12H155.763V384.392H154.575V386H153.039ZM153.039 383.12V379.376H153.387L150.555 383.528V383.12H153.039Z" fill="#808283"/>
<rect x="185.41" y="366" width="1" height="8" fill="#313338"/>
<path d="M177.874 380.708V379.616C177.874 379.344 177.902 379.088 177.958 378.848C178.022 378.608 178.122 378.372 178.258 378.14C178.402 377.908 178.59 377.676 178.822 377.444L179.446 377.936C179.278 378.112 179.142 378.28 179.038 378.44C178.934 378.592 178.858 378.748 178.81 378.908C178.77 379.06 178.75 379.22 178.75 379.388L178.378 379.04H179.554V380.708H177.874ZM181.51 386V384.728H183.418V378.836H184.162L181.942 380.18L181.342 379.052L183.862 377.54H184.954V384.728H186.742V386H181.51ZM191.07 386.12C190.702 386.12 190.338 386.08 189.978 386C189.626 385.92 189.294 385.808 188.982 385.664C188.678 385.52 188.414 385.352 188.19 385.16L188.694 383.984C189.062 384.264 189.442 384.476 189.834 384.62C190.226 384.756 190.63 384.824 191.046 384.824C191.55 384.824 191.942 384.696 192.222 384.44C192.51 384.176 192.654 383.824 192.654 383.384C192.654 382.936 192.518 382.576 192.246 382.304C191.974 382.024 191.602 381.884 191.13 381.884C190.786 381.884 190.478 381.952 190.206 382.088C189.934 382.216 189.686 382.416 189.462 382.688H188.43V377.54H193.626V378.812H189.93V381.5H189.534C189.742 381.22 190.014 381.004 190.35 380.852C190.694 380.7 191.074 380.624 191.49 380.624C192.026 380.624 192.49 380.74 192.882 380.972C193.282 381.196 193.59 381.512 193.806 381.92C194.03 382.32 194.142 382.788 194.142 383.324C194.142 383.876 194.018 384.364 193.77 384.788C193.522 385.204 193.166 385.532 192.702 385.772C192.246 386.004 191.702 386.12 191.07 386.12Z" fill="#808283"/>
<rect x="223.957" y="366" width="1" height="8" fill="#313338"/>
<path d="M216.421 380.708V379.616C216.421 379.344 216.449 379.088 216.505 378.848C216.569 378.608 216.669 378.372 216.805 378.14C216.949 377.908 217.137 377.676 217.369 377.444L217.993 377.936C217.825 378.112 217.689 378.28 217.585 378.44C217.481 378.592 217.405 378.748 217.357 378.908C217.317 379.06 217.297 379.22 217.297 379.388L216.925 379.04H218.101V380.708H216.421ZM220.057 386V384.728H221.965V378.836H222.709L220.489 380.18L219.889 379.052L222.409 377.54H223.501V384.728H225.289V386H220.057ZM229.857 386.12C229.161 386.12 228.565 385.956 228.069 385.628C227.581 385.292 227.209 384.812 226.953 384.188C226.697 383.564 226.569 382.808 226.569 381.92C226.569 380.96 226.713 380.148 227.001 379.484C227.289 378.812 227.705 378.3 228.249 377.948C228.793 377.596 229.445 377.42 230.205 377.42C230.501 377.42 230.797 377.46 231.093 377.54C231.397 377.612 231.681 377.72 231.945 377.864C232.217 378 232.457 378.168 232.665 378.368L232.161 379.52C231.865 379.248 231.549 379.048 231.213 378.92C230.877 378.784 230.533 378.716 230.181 378.716C229.837 378.716 229.529 378.78 229.257 378.908C228.993 379.028 228.769 379.212 228.585 379.46C228.401 379.7 228.261 380.004 228.165 380.372C228.077 380.732 228.033 381.152 228.033 381.632V382.532H227.889C227.953 382.124 228.085 381.776 228.285 381.488C228.493 381.192 228.757 380.968 229.077 380.816C229.397 380.656 229.753 380.576 230.145 380.576C230.633 380.576 231.065 380.692 231.441 380.924C231.817 381.156 232.113 381.476 232.329 381.884C232.545 382.292 232.653 382.76 232.653 383.288C232.653 383.832 232.533 384.32 232.293 384.752C232.061 385.176 231.733 385.512 231.309 385.76C230.893 386 230.409 386.12 229.857 386.12ZM229.773 384.896C230.061 384.896 230.313 384.832 230.529 384.704C230.753 384.576 230.925 384.396 231.045 384.164C231.165 383.924 231.225 383.652 231.225 383.348C231.225 383.036 231.165 382.764 231.045 382.532C230.925 382.3 230.753 382.12 230.529 381.992C230.313 381.856 230.061 381.788 229.773 381.788C229.485 381.788 229.233 381.856 229.017 381.992C228.801 382.12 228.629 382.3 228.501 382.532C228.381 382.764 228.321 383.036 228.321 383.348C228.321 383.652 228.381 383.924 228.501 384.164C228.629 384.396 228.801 384.576 229.017 384.704C229.233 384.832 229.485 384.896 229.773 384.896Z" fill="#808283"/>
<rect x="262.5" y="366" width="1" height="8" fill="#313338"/>
<path d="M254.964 380.708V379.616C254.964 379.344 254.992 379.088 255.048 378.848C255.112 378.608 255.212 378.372 255.348 378.14C255.492 377.908 255.68 377.676 255.912 377.444L256.536 377.936C256.368 378.112 256.232 378.28 256.128 378.44C256.024 378.592 255.948 378.748 255.9 378.908C255.86 379.06 255.84 379.22 255.84 379.388L255.468 379.04H256.644V380.708H254.964ZM258.6 386V384.728H260.508V378.836H261.252L259.032 380.18L258.432 379.052L260.952 377.54H262.044V384.728H263.832V386H258.6ZM265.52 386L269.612 378.296V378.824H265.148V377.54H271.04V378.692L267.212 386H265.52Z" fill="#808283"/>
<rect x="301.047" y="366" width="1" height="8" fill="#313338"/>
<path d="M293.511 380.708V379.616C293.511 379.344 293.539 379.088 293.595 378.848C293.659 378.608 293.759 378.372 293.895 378.14C294.039 377.908 294.227 377.676 294.459 377.444L295.083 377.936C294.915 378.112 294.779 378.28 294.675 378.44C294.571 378.592 294.495 378.748 294.447 378.908C294.407 379.06 294.387 379.22 294.387 379.388L294.015 379.04H295.191V380.708H293.511ZM297.147 386V384.728H299.055V378.836H299.799L297.579 380.18L296.979 379.052L299.499 377.54H300.591V384.728H302.379V386H297.147ZM306.634 386.12C305.65 386.12 304.878 385.908 304.318 385.484C303.766 385.06 303.49 384.472 303.49 383.72C303.49 383.32 303.57 382.968 303.73 382.664C303.898 382.352 304.126 382.1 304.414 381.908C304.702 381.716 305.03 381.596 305.398 381.548V381.8C305.062 381.728 304.766 381.596 304.51 381.404C304.254 381.204 304.054 380.96 303.91 380.672C303.774 380.376 303.706 380.052 303.706 379.7C303.706 378.988 303.97 378.432 304.498 378.032C305.026 377.624 305.742 377.42 306.646 377.42C307.542 377.42 308.254 377.624 308.782 378.032C309.31 378.432 309.574 378.988 309.574 379.7C309.574 380.052 309.502 380.376 309.358 380.672C309.222 380.968 309.026 381.212 308.77 381.404C308.522 381.596 308.23 381.724 307.894 381.788V381.548C308.27 381.596 308.598 381.72 308.878 381.92C309.158 382.112 309.378 382.364 309.538 382.676C309.698 382.98 309.778 383.328 309.778 383.72C309.778 384.472 309.498 385.06 308.938 385.484C308.386 385.908 307.618 386.12 306.634 386.12ZM306.634 384.92C307.202 384.92 307.63 384.812 307.918 384.596C308.206 384.372 308.35 384.044 308.35 383.612C308.35 383.18 308.206 382.856 307.918 382.64C307.63 382.424 307.202 382.316 306.634 382.316C306.074 382.316 305.646 382.424 305.35 382.64C305.062 382.856 304.918 383.18 304.918 383.612C304.918 384.044 305.062 384.372 305.35 384.596C305.646 384.812 306.074 384.92 306.634 384.92ZM306.634 381.116C307.106 381.116 307.474 381.004 307.738 380.78C308.01 380.556 308.146 380.248 308.146 379.856C308.146 379.472 308.01 379.172 307.738 378.956C307.474 378.732 307.106 378.62 306.634 378.62C306.162 378.62 305.794 378.732 305.53 378.956C305.266 379.172 305.134 379.476 305.134 379.868C305.134 380.252 305.266 380.556 305.53 380.78C305.794 381.004 306.162 381.116 306.634 381.116Z" fill="#808283"/>
<rect x="339.59" y="366" width="1" height="8" fill="#313338"/>
<path d="M332.054 380.708V379.616C332.054 379.344 332.082 379.088 332.138 378.848C332.202 378.608 332.302 378.372 332.438 378.14C332.582 377.908 332.77 377.676 333.002 377.444L333.626 377.936C333.458 378.112 333.322 378.28 333.218 378.44C333.114 378.592 333.038 378.748 332.99 378.908C332.95 379.06 332.93 379.22 332.93 379.388L332.558 379.04H333.734V380.708H332.054ZM335.69 386V384.728H337.598V378.836H338.342L336.122 380.18L335.522 379.052L338.042 377.54H339.134V384.728H340.922V386H335.69ZM344.529 386.12C344.233 386.12 343.933 386.08 343.629 386C343.333 385.928 343.049 385.82 342.777 385.676C342.513 385.532 342.273 385.36 342.057 385.16L342.573 384.008C342.861 384.28 343.173 384.484 343.509 384.62C343.853 384.756 344.197 384.824 344.541 384.824C344.893 384.824 345.201 384.764 345.465 384.644C345.737 384.516 345.965 384.332 346.149 384.092C346.333 383.844 346.469 383.54 346.557 383.18C346.653 382.812 346.701 382.388 346.701 381.908V381.008H346.833C346.777 381.408 346.645 381.756 346.437 382.052C346.229 382.348 345.965 382.576 345.645 382.736C345.333 382.888 344.977 382.964 344.577 382.964C344.097 382.964 343.669 382.848 343.293 382.616C342.917 382.384 342.617 382.064 342.393 381.656C342.177 381.24 342.069 380.772 342.069 380.252C342.069 379.7 342.189 379.212 342.429 378.788C342.669 378.364 342.997 378.032 343.413 377.792C343.837 377.544 344.321 377.42 344.865 377.42C345.569 377.42 346.165 377.584 346.653 377.912C347.141 378.24 347.513 378.72 347.769 379.352C348.025 379.976 348.153 380.732 348.153 381.62C348.153 382.572 348.009 383.384 347.721 384.056C347.433 384.728 347.017 385.24 346.473 385.592C345.937 385.944 345.289 386.12 344.529 386.12ZM344.961 381.74C345.249 381.74 345.501 381.676 345.717 381.548C345.941 381.42 346.113 381.24 346.233 381.008C346.353 380.768 346.413 380.496 346.413 380.192C346.413 379.88 346.353 379.608 346.233 379.376C346.113 379.144 345.941 378.964 345.717 378.836C345.501 378.7 345.249 378.632 344.961 378.632C344.673 378.632 344.421 378.7 344.205 378.836C343.989 378.964 343.817 379.144 343.689 379.376C343.569 379.608 343.509 379.88 343.509 380.192C343.509 380.496 343.569 380.768 343.689 381.008C343.817 381.24 343.989 381.42 344.205 381.548C344.421 381.676 344.673 381.74 344.961 381.74Z" fill="#808283"/>
<rect x="378.137" y="366" width="1" height="8" fill="#313338"/>
<path d="M370.6 380.708V379.616C370.6 379.344 370.628 379.088 370.684 378.848C370.748 378.608 370.848 378.372 370.984 378.14C371.128 377.908 371.316 377.676 371.548 377.444L372.172 377.936C372.004 378.112 371.868 378.28 371.764 378.44C371.66 378.592 371.584 378.748 371.536 378.908C371.496 379.06 371.476 379.22 371.476 379.388L371.104 379.04H372.28V380.708H370.6ZM373.889 386V384.86L376.625 381.944C376.873 381.68 377.069 381.436 377.213 381.212C377.365 380.988 377.477 380.772 377.549 380.564C377.621 380.356 377.657 380.148 377.657 379.94C377.657 379.54 377.529 379.236 377.273 379.028C377.025 378.82 376.661 378.716 376.181 378.716C375.805 378.716 375.437 378.788 375.077 378.932C374.725 379.068 374.385 379.284 374.057 379.58L373.541 378.428C373.877 378.124 374.297 377.88 374.801 377.696C375.305 377.512 375.829 377.42 376.373 377.42C376.981 377.42 377.493 377.512 377.909 377.696C378.325 377.88 378.641 378.148 378.857 378.5C379.073 378.852 379.181 379.28 379.181 379.784C379.181 380.04 379.149 380.292 379.085 380.54C379.029 380.78 378.937 381.02 378.809 381.26C378.689 381.5 378.533 381.748 378.341 382.004C378.157 382.252 377.933 382.512 377.669 382.784L375.413 385.136V384.728H379.505V386H373.889ZM383.724 386.12C383.06 386.12 382.496 385.952 382.032 385.616C381.576 385.272 381.228 384.776 380.988 384.128C380.756 383.48 380.64 382.688 380.64 381.752C380.64 380.808 380.756 380.016 380.988 379.376C381.228 378.728 381.576 378.24 382.032 377.912C382.496 377.584 383.06 377.42 383.724 377.42C384.396 377.42 384.96 377.584 385.416 377.912C385.88 378.24 386.228 378.724 386.46 379.364C386.692 380.004 386.808 380.796 386.808 381.74C386.808 382.676 386.688 383.472 386.448 384.128C386.216 384.776 385.872 385.272 385.416 385.616C384.96 385.952 384.396 386.12 383.724 386.12ZM383.724 384.86C384.268 384.86 384.668 384.612 384.924 384.116C385.188 383.612 385.32 382.82 385.32 381.74C385.32 380.668 385.188 379.892 384.924 379.412C384.668 378.924 384.268 378.68 383.724 378.68C383.188 378.68 382.788 378.924 382.524 379.412C382.26 379.892 382.128 380.672 382.128 381.752C382.128 382.824 382.26 383.612 382.524 384.116C382.788 384.612 383.188 384.86 383.724 384.86Z" fill="#808283"/>
<rect x="416.684" y="366" width="1" height="8" fill="#313338"/>
<path d="M409.147 380.708V379.616C409.147 379.344 409.175 379.088 409.231 378.848C409.295 378.608 409.395 378.372 409.531 378.14C409.675 377.908 409.863 377.676 410.095 377.444L410.719 377.936C410.551 378.112 410.415 378.28 410.311 378.44C410.207 378.592 410.131 378.748 410.083 378.908C410.043 379.06 410.023 379.22 410.023 379.388L409.651 379.04H410.827V380.708H409.147ZM412.436 386V384.86L415.172 381.944C415.42 381.68 415.616 381.436 415.76 381.212C415.912 380.988 416.024 380.772 416.096 380.564C416.168 380.356 416.204 380.148 416.204 379.94C416.204 379.54 416.076 379.236 415.82 379.028C415.572 378.82 415.208 378.716 414.728 378.716C414.352 378.716 413.984 378.788 413.624 378.932C413.272 379.068 412.932 379.284 412.604 379.58L412.088 378.428C412.424 378.124 412.844 377.88 413.348 377.696C413.852 377.512 414.376 377.42 414.92 377.42C415.528 377.42 416.04 377.512 416.456 377.696C416.872 377.88 417.188 378.148 417.404 378.5C417.62 378.852 417.728 379.28 417.728 379.784C417.728 380.04 417.696 380.292 417.632 380.54C417.576 380.78 417.484 381.02 417.356 381.26C417.236 381.5 417.08 381.748 416.888 382.004C416.704 382.252 416.48 382.512 416.216 382.784L413.96 385.136V384.728H418.052V386H412.436ZM419.979 386V384.728H421.887V378.836H422.631L420.411 380.18L419.811 379.052L422.331 377.54H423.423V384.728H425.211V386H419.979Z" fill="#808283"/>
<rect x="455.227" y="366" width="1" height="8" fill="#313338"/>
<path d="M447.69 380.708V379.616C447.69 379.344 447.718 379.088 447.774 378.848C447.838 378.608 447.938 378.372 448.074 378.14C448.218 377.908 448.406 377.676 448.638 377.444L449.262 377.936C449.094 378.112 448.958 378.28 448.854 378.44C448.75 378.592 448.674 378.748 448.626 378.908C448.586 379.06 448.566 379.22 448.566 379.388L448.194 379.04H449.37V380.708H447.69ZM450.979 386V384.86L453.715 381.944C453.963 381.68 454.159 381.436 454.303 381.212C454.455 380.988 454.567 380.772 454.639 380.564C454.711 380.356 454.747 380.148 454.747 379.94C454.747 379.54 454.619 379.236 454.363 379.028C454.115 378.82 453.751 378.716 453.271 378.716C452.895 378.716 452.527 378.788 452.167 378.932C451.815 379.068 451.475 379.284 451.147 379.58L450.631 378.428C450.967 378.124 451.387 377.88 451.891 377.696C452.395 377.512 452.919 377.42 453.463 377.42C454.071 377.42 454.583 377.512 454.999 377.696C455.415 377.88 455.731 378.148 455.947 378.5C456.163 378.852 456.271 379.28 456.271 379.784C456.271 380.04 456.239 380.292 456.175 380.54C456.119 380.78 456.027 381.02 455.899 381.26C455.779 381.5 455.623 381.748 455.431 382.004C455.247 382.252 455.023 382.512 454.759 382.784L452.503 385.136V384.728H456.595V386H450.979ZM458.174 386V384.86L460.91 381.944C461.158 381.68 461.354 381.436 461.498 381.212C461.65 380.988 461.762 380.772 461.834 380.564C461.906 380.356 461.942 380.148 461.942 379.94C461.942 379.54 461.814 379.236 461.558 379.028C461.31 378.82 460.946 378.716 460.466 378.716C460.09 378.716 459.722 378.788 459.362 378.932C459.01 379.068 458.67 379.284 458.342 379.58L457.826 378.428C458.162 378.124 458.582 377.88 459.086 377.696C459.59 377.512 460.114 377.42 460.658 377.42C461.266 377.42 461.778 377.512 462.194 377.696C462.61 377.88 462.926 378.148 463.142 378.5C463.358 378.852 463.466 379.28 463.466 379.784C463.466 380.04 463.434 380.292 463.37 380.54C463.314 380.78 463.222 381.02 463.094 381.26C462.974 381.5 462.818 381.748 462.626 382.004C462.442 382.252 462.218 382.512 461.954 382.784L459.698 385.136V384.728H463.79V386H458.174Z" fill="#808283"/>
<path d="M19.12 149.38V147.808L19.396 148.072C18.812 148.056 18.26 147.968 17.74 147.808C17.228 147.64 16.784 147.408 16.408 147.112L16.876 145.9C17.124 146.084 17.388 146.244 17.668 146.38C17.956 146.508 18.256 146.608 18.568 146.68C18.888 146.744 19.228 146.776 19.588 146.776C20.172 146.776 20.6 146.672 20.872 146.464C21.144 146.256 21.28 145.996 21.28 145.684C21.28 145.404 21.188 145.18 21.004 145.012C20.82 144.844 20.492 144.708 20.02 144.604L18.748 144.328C18.028 144.168 17.484 143.904 17.116 143.536C16.756 143.16 16.576 142.664 16.576 142.048C16.576 141.576 16.692 141.156 16.924 140.788C17.156 140.412 17.48 140.112 17.896 139.888C18.312 139.664 18.8 139.532 19.36 139.492L19.12 139.672V138.16H20.32V139.672L20.068 139.48C20.524 139.504 20.972 139.596 21.412 139.756C21.86 139.916 22.232 140.148 22.528 140.452L22.072 141.604C21.768 141.324 21.42 141.116 21.028 140.98C20.636 140.836 20.208 140.764 19.744 140.764C19.248 140.764 18.848 140.88 18.544 141.112C18.248 141.336 18.1 141.632 18.1 142C18.1 142.272 18.192 142.492 18.376 142.66C18.56 142.828 18.856 142.956 19.264 143.044L20.536 143.32C21.304 143.488 21.872 143.756 22.24 144.124C22.616 144.484 22.804 144.964 22.804 145.564C22.804 146.028 22.688 146.44 22.456 146.8C22.224 147.152 21.904 147.436 21.496 147.652C21.096 147.86 20.628 147.992 20.092 148.048L20.32 147.796V149.38H19.12ZM27.3833 148V146.392H23.6993V145.264L27.6473 139.54H28.9193V145.12H30.1073V146.392H28.9193V148H27.3833ZM27.3833 145.12V141.376H27.7313L24.8993 145.528V145.12H27.3833ZM31.3386 148V139.54H32.6226L35.8146 145.432H35.4306L38.6106 139.54H39.8706V148H38.4786V141.82H38.7426L36.0546 146.716H35.1546L32.4426 141.808H32.7306V148H31.3386Z" fill="#808283"/>
<path d="M19.12 204.88V203.308L19.396 203.572C18.812 203.556 18.26 203.468 17.74 203.308C17.228 203.14 16.784 202.908 16.408 202.612L16.876 201.4C17.124 201.584 17.388 201.744 17.668 201.88C17.956 202.008 18.256 202.108 18.568 202.18C18.888 202.244 19.228 202.276 19.588 202.276C20.172 202.276 20.6 202.172 20.872 201.964C21.144 201.756 21.28 201.496 21.28 201.184C21.28 200.904 21.188 200.68 21.004 200.512C20.82 200.344 20.492 200.208 20.02 200.104L18.748 199.828C18.028 199.668 17.484 199.404 17.116 199.036C16.756 198.66 16.576 198.164 16.576 197.548C16.576 197.076 16.692 196.656 16.924 196.288C17.156 195.912 17.48 195.612 17.896 195.388C18.312 195.164 18.8 195.032 19.36 194.992L19.12 195.172V193.66H20.32V195.172L20.068 194.98C20.524 195.004 20.972 195.096 21.412 195.256C21.86 195.416 22.232 195.648 22.528 195.952L22.072 197.104C21.768 196.824 21.42 196.616 21.028 196.48C20.636 196.336 20.208 196.264 19.744 196.264C19.248 196.264 18.848 196.38 18.544 196.612C18.248 196.836 18.1 197.132 18.1 197.5C18.1 197.772 18.192 197.992 18.376 198.16C18.56 198.328 18.856 198.456 19.264 198.544L20.536 198.82C21.304 198.988 21.872 199.256 22.24 199.624C22.616 199.984 22.804 200.464 22.804 201.064C22.804 201.528 22.688 201.94 22.456 202.3C22.224 202.652 21.904 202.936 21.496 203.152C21.096 203.36 20.628 203.492 20.092 203.548L20.32 203.296V204.88H19.12ZM26.6273 203.62C26.2433 203.62 25.8673 203.58 25.4993 203.5C25.1393 203.428 24.8033 203.32 24.4913 203.176C24.1793 203.032 23.9073 202.86 23.6753 202.66L24.1793 201.484C24.5553 201.772 24.9393 201.984 25.3313 202.12C25.7233 202.256 26.1393 202.324 26.5793 202.324C26.9313 202.324 27.2273 202.276 27.4673 202.18C27.7073 202.084 27.8873 201.94 28.0073 201.748C28.1353 201.556 28.1993 201.324 28.1993 201.052C28.1993 200.652 28.0633 200.356 27.7913 200.164C27.5273 199.964 27.1393 199.864 26.6273 199.864H25.2713V198.592H26.4833C26.7873 198.592 27.0473 198.544 27.2633 198.448C27.4793 198.344 27.6473 198.2 27.7673 198.016C27.8873 197.832 27.9473 197.608 27.9473 197.344C27.9473 196.976 27.8233 196.696 27.5753 196.504C27.3353 196.312 26.9833 196.216 26.5193 196.216C26.1033 196.216 25.7153 196.288 25.3553 196.432C24.9953 196.568 24.6513 196.784 24.3233 197.08L23.8193 195.928C24.1553 195.608 24.5753 195.36 25.0793 195.184C25.5833 195.008 26.1073 194.92 26.6513 194.92C27.2353 194.92 27.7353 195.012 28.1513 195.196C28.5673 195.372 28.8833 195.628 29.0993 195.964C29.3233 196.292 29.4353 196.692 29.4353 197.164C29.4353 197.668 29.2953 198.104 29.0153 198.472C28.7353 198.832 28.3513 199.072 27.8633 199.192V199.048C28.2473 199.112 28.5753 199.24 28.8473 199.432C29.1193 199.624 29.3273 199.868 29.4713 200.164C29.6153 200.46 29.6873 200.8 29.6873 201.184C29.6873 201.68 29.5633 202.112 29.3153 202.48C29.0673 202.848 28.7153 203.132 28.2593 203.332C27.8033 203.524 27.2593 203.62 26.6273 203.62ZM31.3386 203.5V195.04H32.6226L35.8146 200.932H35.4306L38.6106 195.04H39.8706V203.5H38.4786V197.32H38.7426L36.0546 202.216H35.1546L32.4426 197.308H32.7306V203.5H31.3386Z" fill="#808283"/>
<path d="M19.12 260.38V258.808L19.396 259.072C18.812 259.056 18.26 258.968 17.74 258.808C17.228 258.64 16.784 258.408 16.408 258.112L16.876 256.9C17.124 257.084 17.388 257.244 17.668 257.38C17.956 257.508 18.256 257.608 18.568 257.68C18.888 257.744 19.228 257.776 19.588 257.776C20.172 257.776 20.6 257.672 20.872 257.464C21.144 257.256 21.28 256.996 21.28 256.684C21.28 256.404 21.188 256.18 21.004 256.012C20.82 255.844 20.492 255.708 20.02 255.604L18.748 255.328C18.028 255.168 17.484 254.904 17.116 254.536C16.756 254.16 16.576 253.664 16.576 253.048C16.576 252.576 16.692 252.156 16.924 251.788C17.156 251.412 17.48 251.112 17.896 250.888C18.312 250.664 18.8 250.532 19.36 250.492L19.12 250.672V249.16H20.32V250.672L20.068 250.48C20.524 250.504 20.972 250.596 21.412 250.756C21.86 250.916 22.232 251.148 22.528 251.452L22.072 252.604C21.768 252.324 21.42 252.116 21.028 251.98C20.636 251.836 20.208 251.764 19.744 251.764C19.248 251.764 18.848 251.88 18.544 252.112C18.248 252.336 18.1 252.632 18.1 253C18.1 253.272 18.192 253.492 18.376 253.66C18.56 253.828 18.856 253.956 19.264 254.044L20.536 254.32C21.304 254.488 21.872 254.756 22.24 255.124C22.616 255.484 22.804 255.964 22.804 256.564C22.804 257.028 22.688 257.44 22.456 257.8C22.224 258.152 21.904 258.436 21.496 258.652C21.096 258.86 20.628 258.992 20.092 259.048L20.32 258.796V260.38H19.12ZM24.1553 259V257.86L26.8913 254.944C27.1393 254.68 27.3353 254.436 27.4793 254.212C27.6313 253.988 27.7433 253.772 27.8153 253.564C27.8873 253.356 27.9233 253.148 27.9233 252.94C27.9233 252.54 27.7953 252.236 27.5393 252.028C27.2913 251.82 26.9273 251.716 26.4473 251.716C26.0713 251.716 25.7033 251.788 25.3433 251.932C24.9913 252.068 24.6513 252.284 24.3233 252.58L23.8073 251.428C24.1433 251.124 24.5633 250.88 25.0673 250.696C25.5713 250.512 26.0953 250.42 26.6393 250.42C27.2473 250.42 27.7593 250.512 28.1753 250.696C28.5913 250.88 28.9073 251.148 29.1233 251.5C29.3393 251.852 29.4473 252.28 29.4473 252.784C29.4473 253.04 29.4153 253.292 29.3513 253.54C29.2953 253.78 29.2033 254.02 29.0753 254.26C28.9553 254.5 28.7993 254.748 28.6073 255.004C28.4233 255.252 28.1993 255.512 27.9353 255.784L25.6793 258.136V257.728H29.7713V259H24.1553ZM31.3386 259V250.54H32.6226L35.8146 256.432H35.4306L38.6106 250.54H39.8706V259H38.4786V252.82H38.7426L36.0546 257.716H35.1546L32.4426 252.808H32.7306V259H31.3386Z" fill="#808283"/>
<path d="M19.12 315.88V314.308L19.396 314.572C18.812 314.556 18.26 314.468 17.74 314.308C17.228 314.14 16.784 313.908 16.408 313.612L16.876 312.4C17.124 312.584 17.388 312.744 17.668 312.88C17.956 313.008 18.256 313.108 18.568 313.18C18.888 313.244 19.228 313.276 19.588 313.276C20.172 313.276 20.6 313.172 20.872 312.964C21.144 312.756 21.28 312.496 21.28 312.184C21.28 311.904 21.188 311.68 21.004 311.512C20.82 311.344 20.492 311.208 20.02 311.104L18.748 310.828C18.028 310.668 17.484 310.404 17.116 310.036C16.756 309.66 16.576 309.164 16.576 308.548C16.576 308.076 16.692 307.656 16.924 307.288C17.156 306.912 17.48 306.612 17.896 306.388C18.312 306.164 18.8 306.032 19.36 305.992L19.12 306.172V304.66H20.32V306.172L20.068 305.98C20.524 306.004 20.972 306.096 21.412 306.256C21.86 306.416 22.232 306.648 22.528 306.952L22.072 308.104C21.768 307.824 21.42 307.616 21.028 307.48C20.636 307.336 20.208 307.264 19.744 307.264C19.248 307.264 18.848 307.38 18.544 307.612C18.248 307.836 18.1 308.132 18.1 308.5C18.1 308.772 18.192 308.992 18.376 309.16C18.56 309.328 18.856 309.456 19.264 309.544L20.536 309.82C21.304 309.988 21.872 310.256 22.24 310.624C22.616 310.984 22.804 311.464 22.804 312.064C22.804 312.528 22.688 312.94 22.456 313.3C22.224 313.652 21.904 313.936 21.496 314.152C21.096 314.36 20.628 314.492 20.092 314.548L20.32 314.296V315.88H19.12ZM24.5033 314.5V313.228H26.4113V307.336H27.1553L24.9353 308.68L24.3353 307.552L26.8553 306.04H27.9473V313.228H29.7353V314.5H24.5033ZM31.3386 314.5V306.04H32.6226L35.8146 311.932H35.4306L38.6106 306.04H39.8706V314.5H38.4786V308.32H38.7426L36.0546 313.216H35.1546L32.4426 308.308H32.7306V314.5H31.3386Z" fill="#808283"/>
<path d="M19.6 370.12C18.936 370.12 18.372 369.952 17.908 369.616C17.452 369.272 17.104 368.776 16.864 368.128C16.632 367.48 16.516 366.688 16.516 365.752C16.516 364.808 16.632 364.016 16.864 363.376C17.104 362.728 17.452 362.24 17.908 361.912C18.372 361.584 18.936 361.42 19.6 361.42C20.272 361.42 20.836 361.584 21.292 361.912C21.756 362.24 22.104 362.724 22.336 363.364C22.568 364.004 22.684 364.796 22.684 365.74C22.684 366.676 22.564 367.472 22.324 368.128C22.092 368.776 21.748 369.272 21.292 369.616C20.836 369.952 20.272 370.12 19.6 370.12ZM19.6 368.86C20.144 368.86 20.544 368.612 20.8 368.116C21.064 367.612 21.196 366.82 21.196 365.74C21.196 364.668 21.064 363.892 20.8 363.412C20.544 362.924 20.144 362.68 19.6 362.68C19.064 362.68 18.664 362.924 18.4 363.412C18.136 363.892 18.004 364.672 18.004 365.752C18.004 366.824 18.136 367.612 18.4 368.116C18.664 368.612 19.064 368.86 19.6 368.86Z" fill="#808283"/>
<g filter="url(#filter0_d_2198_7295)">
<path d="M58 365H114.22L114.918 363.554L122.251 364.277L123.299 362.831L133.076 363.554L140.41 346.564L141.457 348.733L142.505 343.672L143.901 345.841L144.949 340.057L147.393 344.757L149.489 341.503C149.838 342.106 150.536 343.166 150.536 342.588C150.536 342.009 151.002 339.696 151.234 338.612L153.679 341.503L155.425 338.25L160.314 339.334L164.504 334.997L165.551 336.804L172.884 330.659L173.932 325.96L177.424 327.405L180.218 324.514L181.614 329.213L183.36 327.405L184.757 329.936L187.551 325.96L189.646 326.682L192.09 322.345L196.28 323.068L198.376 320.899H203.613L206.756 311.5L210.248 314.753L213.042 312.946L214.089 314.03L217.581 308.608L220.025 313.669L225.962 302.463L231.549 304.27L232.946 295.233L235.39 298.848C236.438 296.92 238.812 293.281 239.929 294.149C241.047 295.016 243.189 296.92 244.12 297.763C245.4 296.318 248.101 293.57 248.659 294.149C249.218 294.727 251.453 293.667 252.5 293.064L255.294 297.041L258.437 291.618L263.675 295.233C264.606 289.57 266.538 278.316 266.817 278.605C267.167 278.966 271.008 286.196 270.658 284.75C270.379 283.593 273.103 273.664 274.5 268.844L277.642 275.713L282.88 256.554L286.721 257.638L289.166 243.54L291.61 245.709L293.705 228.358L295.102 230.165L296.848 221.851L297.546 222.936L299.991 209.922L301.387 212.091L304.879 206.669L307.673 207.753L311.863 202.331L314.308 205.946L321.291 191.848L325.133 194.017L331.767 176.304L341.195 174.858L345.386 180.28L352.37 165.098L354.814 167.267L361.449 159.676L363.544 162.206L372.972 154.976L375.067 157.507L376.115 151L386.241 169.074L389.733 164.375L400.558 184.98L404.05 182.088L407.193 186.064L408.59 183.895L415.224 191.848L419.065 181.365L421.51 182.449L425.351 179.557L428.494 185.703L429.541 183.895L433.033 189.679L435.477 186.426L437.573 188.956L439.319 186.064L441.065 188.233L443.858 183.172L447.35 186.426L448.048 184.618L453.636 195.101L456.778 190.04L460.969 200.524L462.365 198.716L466.556 207.03L469 202.331" stroke="#FFA800" stroke-width="1.5"/>
</g>
<g filter="url(#filter1_d_2198_7295)">
<path d="M58 319.935L60.7959 338.022C61.0289 336.213 61.5648 332.74 61.8444 333.319C62.124 333.898 63.8248 345.618 64.6403 351.406L66.0383 344.895C66.5043 348.03 67.5061 354.011 67.7857 352.853C68.1352 351.406 72.6786 328.617 73.0281 330.063C73.3077 331.221 75.7075 336.816 76.8724 339.469L79.6684 335.128L83.8622 338.022L87.7066 331.149L90.852 333.319L93.9975 317.764L96.0944 327.17L99.5893 317.764L102.385 323.552L106.23 317.041L109.026 318.849L118.811 262.417L120.209 285.207L122.306 271.823L127.898 286.654L133.49 273.27L136.635 277.249L143.276 230.946L145.722 245.777L149.217 236.733L151.663 245.054L153.411 241.436L156.556 252.65L161.099 241.436L164.594 245.054L167.041 241.436L174.031 254.821L176.827 249.756L185.564 267.482L190.806 256.991L195.349 262.417L201.99 256.268L208.63 264.226L213.523 251.927L216.668 255.544L219.115 247.948L222.959 253.735L225.406 249.033L232.046 247.948L235.541 250.118L237.288 237.457L242.181 245.777L245.327 243.245L249.52 243.607L251.617 238.904H255.811L257.209 230.946L259.306 237.457L263.5 229.137L266.296 235.648L272.587 211.773L277.48 218.646L281.673 203.091L284.12 208.156L293.556 175.599L299.497 194.409L300.546 185.727L303.342 195.495L306.837 189.345L313.477 196.58L315.923 192.601L317.671 196.58L320.467 193.686L326.059 197.303L329.903 211.773L332 205.623L334.796 208.517L336.543 205.623L342.135 206.709L349.824 183.557L352.969 189.345L354.367 185.004L359.61 192.962L361.707 189.345L365.901 196.58L371.842 188.26L376.735 202.006L381.628 188.621L388.617 190.792L391.064 185.004L394.908 187.536L401.548 174.513L403.645 176.684L407.14 161.129L409.936 167.278L412.732 153.894L415.179 157.511L417.625 152.085L423.566 165.832L426.362 166.555L429.857 155.703L431.954 161.129L436.497 151L444.885 164.746L446.982 161.129L448.38 162.938L451.176 159.682L456.069 167.278L457.467 165.832L462.01 174.513L465.505 171.981L469 176.322" stroke="#A06AFF" stroke-width="1.5" stroke-linecap="round"/>
</g>
<defs>
<filter id="filter0_d_2198_7295" x="50" y="140.755" width="427.664" height="232.995" filterUnits="userSpaceOnUse" color-interpolation-filters="sRGB">
<feFlood flood-opacity="0" result="BackgroundImageFix"/>
<feColorMatrix in="SourceAlpha" type="matrix" values="0 0 0 0 0 0 0 0 0 0 0 0 0 0 0 0 0 0 127 0" result="hardAlpha"/>
<feOffset/>
<feGaussianBlur stdDeviation="4"/>
<feComposite in2="hardAlpha" operator="out"/>
<feColorMatrix type="matrix" values="0 0 0 0 1 0 0 0 0 0.658824 0 0 0 0 0 0 0 0 0.24 0"/>
<feBlend mode="normal" in2="BackgroundImageFix" result="effect1_dropShadow_2198_7295"/>
<feBlend mode="normal" in="SourceGraphic" in2="effect1_dropShadow_2198_7295" result="shape"/>
</filter>
<filter id="filter1_d_2198_7295" x="49.25" y="141.394" width="428.5" height="220.356" filterUnits="userSpaceOnUse" color-interpolation-filters="sRGB">
<feFlood flood-opacity="0" result="BackgroundImageFix"/>
<feColorMatrix in="SourceAlpha" type="matrix" values="0 0 0 0 0 0 0 0 0 0 0 0 0 0 0 0 0 0 127 0" result="hardAlpha"/>
<feOffset/>
<feGaussianBlur stdDeviation="4"/>
<feComposite in2="hardAlpha" operator="out"/>
<feColorMatrix type="matrix" values="0 0 0 0 0.627451 0 0 0 0 0.415686 0 0 0 0 1 0 0 0 0.24 0"/>
<feBlend mode="normal" in2="BackgroundImageFix" result="effect1_dropShadow_2198_7295"/>
<feBlend mode="normal" in="SourceGraphic" in2="effect1_dropShadow_2198_7295" result="shape"/>
</filter>
</defs>
</svg>
