<svg width="528" height="414" viewBox="0 0 528 414" fill="none" xmlns="http://www.w3.org/2000/svg">
<rect width="528" height="414" rx="8" fill="#181A20"/>
<path d="M17.848 42V25.08H25.24C27.016 25.08 28.392 25.472 29.368 26.256C30.344 27.024 30.832 28.096 30.832 29.472C30.832 30.496 30.536 31.36 29.944 32.064C29.352 32.768 28.544 33.24 27.52 33.48V33.12C28.304 33.232 28.976 33.472 29.536 33.84C30.096 34.208 30.52 34.68 30.808 35.256C31.112 35.832 31.264 36.504 31.264 37.272C31.264 38.264 31.032 39.12 30.568 39.84C30.12 40.544 29.464 41.08 28.6 41.448C27.736 41.816 26.704 42 25.504 42H17.848ZM20.8 39.672H25.12C25.552 39.672 25.936 39.64 26.272 39.576C26.624 39.512 26.92 39.416 27.16 39.288C27.416 39.144 27.624 38.968 27.784 38.76C27.96 38.552 28.088 38.312 28.168 38.04C28.248 37.768 28.288 37.464 28.288 37.128C28.288 36.776 28.248 36.464 28.168 36.192C28.088 35.92 27.96 35.688 27.784 35.496C27.624 35.288 27.416 35.12 27.16 34.992C26.92 34.848 26.624 34.744 26.272 34.68C25.936 34.616 25.552 34.584 25.12 34.584H20.8V39.672ZM20.8 32.256H24.712C25.768 32.256 26.552 32.056 27.064 31.656C27.592 31.24 27.856 30.632 27.856 29.832C27.856 29.032 27.592 28.432 27.064 28.032C26.552 27.616 25.768 27.408 24.712 27.408H20.8V32.256ZM38.2171 42V27.648H32.4091V25.08H47.0971V27.648H41.2891V42H38.2171ZM55.8841 42.24C54.1241 42.24 52.6121 41.888 51.3481 41.184C50.1001 40.464 49.1401 39.456 48.4681 38.16C47.7961 36.848 47.4601 35.304 47.4601 33.528C47.4601 31.752 47.7961 30.216 48.4681 28.92C49.1401 27.624 50.1001 26.624 51.3481 25.92C52.6121 25.2 54.1241 24.84 55.8841 24.84C57.0201 24.84 58.0921 25.016 59.1001 25.368C60.1241 25.72 60.9641 26.224 61.6201 26.88L60.6121 29.328C59.8921 28.72 59.1561 28.28 58.4041 28.008C57.6521 27.72 56.8441 27.576 55.9801 27.576C54.2681 27.576 52.9641 28.096 52.0681 29.136C51.1721 30.16 50.7241 31.624 50.7241 33.528C50.7241 35.432 51.1721 36.904 52.0681 37.944C52.9641 38.984 54.2681 39.504 55.9801 39.504C56.8441 39.504 57.6521 39.368 58.4041 39.096C59.1561 38.808 59.8921 38.36 60.6121 37.752L61.6201 40.2C60.9641 40.84 60.1241 41.344 59.1001 41.712C58.0921 42.064 57.0201 42.24 55.8841 42.24ZM70.7699 42V25.08H78.1139C79.3619 25.08 80.4179 25.288 81.2819 25.704C82.1459 26.12 82.8019 26.72 83.2499 27.504C83.6979 28.288 83.9219 29.24 83.9219 30.36C83.9219 31.464 83.6979 32.416 83.2499 33.216C82.8019 34 82.1459 34.608 81.2819 35.04C80.4179 35.456 79.3619 35.664 78.1139 35.664H73.8419V42H70.7699ZM73.8419 33.24H77.6339C78.7219 33.24 79.5459 33 80.1059 32.52C80.6659 32.024 80.9459 31.304 80.9459 30.36C80.9459 29.416 80.6659 28.704 80.1059 28.224C79.5459 27.744 78.7219 27.504 77.6339 27.504H73.8419V33.24ZM85.9038 42V30.264H88.8318V33.096H88.5918C88.8158 32.136 89.2558 31.408 89.9118 30.912C90.5678 30.4 91.4398 30.104 92.5278 30.024L93.4398 29.952L93.6318 32.496L91.9038 32.664C90.9278 32.76 90.1918 33.064 89.6958 33.576C89.1998 34.072 88.9518 34.776 88.9518 35.688V42H85.9038ZM95.1102 27.744V24.816H98.4702V27.744H95.1102ZM95.3022 42V30.264H98.3022V42H95.3022ZM106.843 42.24C105.611 42.24 104.539 41.992 103.627 41.496C102.715 40.984 102.011 40.264 101.515 39.336C101.019 38.408 100.771 37.32 100.771 36.072C100.771 34.824 101.019 33.752 101.515 32.856C102.011 31.944 102.715 31.248 103.627 30.768C104.539 30.272 105.611 30.024 106.843 30.024C107.595 30.024 108.339 30.144 109.075 30.384C109.811 30.624 110.419 30.96 110.899 31.392L110.011 33.48C109.595 33.112 109.123 32.832 108.595 32.64C108.083 32.448 107.587 32.352 107.107 32.352C106.067 32.352 105.259 32.68 104.683 33.336C104.123 33.976 103.843 34.896 103.843 36.096C103.843 37.28 104.123 38.216 104.683 38.904C105.259 39.576 106.067 39.912 107.107 39.912C107.571 39.912 108.067 39.816 108.595 39.624C109.123 39.432 109.595 39.144 110.011 38.76L110.899 40.872C110.419 41.288 109.803 41.624 109.051 41.88C108.315 42.12 107.579 42.24 106.843 42.24ZM118.289 42.24C116.961 42.24 115.817 41.992 114.857 41.496C113.897 41 113.153 40.296 112.625 39.384C112.113 38.472 111.857 37.392 111.857 36.144C111.857 34.928 112.105 33.864 112.601 32.952C113.113 32.04 113.809 31.328 114.689 30.816C115.585 30.288 116.601 30.024 117.737 30.024C118.857 30.024 119.817 30.264 120.617 30.744C121.417 31.224 122.033 31.904 122.465 32.784C122.913 33.664 123.137 34.712 123.137 35.928V36.816H114.281V35.088H121.025L120.641 35.448C120.641 34.36 120.401 33.528 119.921 32.952C119.441 32.36 118.753 32.064 117.857 32.064C117.185 32.064 116.609 32.224 116.129 32.544C115.665 32.848 115.305 33.288 115.049 33.864C114.809 34.424 114.689 35.096 114.689 35.88V36.048C114.689 36.928 114.825 37.656 115.097 38.232C115.369 38.808 115.777 39.24 116.321 39.528C116.865 39.816 117.537 39.96 118.337 39.96C118.993 39.96 119.649 39.864 120.305 39.672C120.961 39.464 121.561 39.144 122.105 38.712L122.945 40.728C122.385 41.192 121.681 41.56 120.833 41.832C119.985 42.104 119.137 42.24 118.289 42.24ZM139.854 42.24C138.622 42.24 137.502 42.04 136.494 41.64C135.502 41.224 134.646 40.632 133.926 39.864C133.222 39.096 132.678 38.176 132.294 37.104C131.91 36.032 131.718 34.84 131.718 33.528C131.718 32.2 131.91 31.008 132.294 29.952C132.678 28.88 133.222 27.968 133.926 27.216C134.646 26.448 135.502 25.864 136.494 25.464C137.502 25.048 138.622 24.84 139.854 24.84C141.086 24.84 142.198 25.048 143.19 25.464C144.198 25.864 145.054 26.44 145.758 27.192C146.478 27.944 147.03 28.856 147.414 29.928C147.798 30.984 147.99 32.176 147.99 33.504C147.99 34.832 147.798 36.032 147.414 37.104C147.03 38.176 146.478 39.096 145.758 39.864C145.054 40.632 144.198 41.224 143.19 41.64C142.198 42.04 141.086 42.24 139.854 42.24ZM139.854 39.6C140.894 39.6 141.774 39.36 142.494 38.88C143.23 38.4 143.79 37.704 144.174 36.792C144.574 35.88 144.774 34.792 144.774 33.528C144.774 32.248 144.582 31.16 144.198 30.264C143.814 29.352 143.254 28.664 142.518 28.2C141.782 27.72 140.894 27.48 139.854 27.48C138.83 27.48 137.95 27.72 137.214 28.2C136.478 28.664 135.91 29.352 135.51 30.264C135.126 31.16 134.934 32.248 134.934 33.528C134.934 34.792 135.126 35.88 135.51 36.792C135.91 37.704 136.478 38.4 137.214 38.88C137.95 39.36 138.83 39.6 139.854 39.6ZM151.114 42V25.08H154.186V32.136H162.898V25.08H165.97V42H162.898V34.704H154.186V42H151.114ZM169.676 42V25.08H172.748V39.384H180.86V42H169.676Z" fill="white"/>
<rect y="59" width="528" height="1" fill="#313338"/>
<rect x="16" y="80" width="8" height="8" rx="4" fill="#A06AFF"/>
<path d="M32.716 88.12C32.1 88.12 31.54 88.02 31.036 87.82C30.54 87.612 30.112 87.316 29.752 86.932C29.4 86.548 29.128 86.088 28.936 85.552C28.744 85.016 28.648 84.42 28.648 83.764C28.648 83.1 28.744 82.504 28.936 81.976C29.128 81.44 29.4 80.984 29.752 80.608C30.112 80.224 30.54 79.932 31.036 79.732C31.54 79.524 32.1 79.42 32.716 79.42C33.332 79.42 33.888 79.524 34.384 79.732C34.888 79.932 35.316 80.22 35.668 80.596C36.028 80.972 36.304 81.428 36.496 81.964C36.688 82.492 36.784 83.088 36.784 83.752C36.784 84.416 36.688 85.016 36.496 85.552C36.304 86.088 36.028 86.548 35.668 86.932C35.316 87.316 34.888 87.612 34.384 87.82C33.888 88.02 33.332 88.12 32.716 88.12ZM32.716 86.8C33.236 86.8 33.676 86.68 34.036 86.44C34.404 86.2 34.684 85.852 34.876 85.396C35.076 84.94 35.176 84.396 35.176 83.764C35.176 83.124 35.08 82.58 34.888 82.132C34.696 81.676 34.416 81.332 34.048 81.1C33.68 80.86 33.236 80.74 32.716 80.74C32.204 80.74 31.764 80.86 31.396 81.1C31.028 81.332 30.744 81.676 30.544 82.132C30.352 82.58 30.256 83.124 30.256 83.764C30.256 84.396 30.352 84.94 30.544 85.396C30.744 85.852 31.028 86.2 31.396 86.44C31.764 86.68 32.204 86.8 32.716 86.8ZM38.3459 88V79.54H39.8819V83.068H44.2379V79.54H45.7739V88H44.2379V84.352H39.8819V88H38.3459ZM47.6271 88V79.54H49.1631V86.692H53.2191V88H47.6271ZM57.8444 88.12C56.9644 88.12 56.2084 87.944 55.5764 87.592C54.9524 87.232 54.4724 86.728 54.1364 86.08C53.8004 85.424 53.6324 84.652 53.6324 83.764C53.6324 82.876 53.8004 82.108 54.1364 81.46C54.4724 80.812 54.9524 80.312 55.5764 79.96C56.2084 79.6 56.9644 79.42 57.8444 79.42C58.4124 79.42 58.9484 79.508 59.4524 79.684C59.9644 79.86 60.3844 80.112 60.7124 80.44L60.2084 81.664C59.8484 81.36 59.4804 81.14 59.1044 81.004C58.7284 80.86 58.3244 80.788 57.8924 80.788C57.0364 80.788 56.3844 81.048 55.9364 81.568C55.4884 82.08 55.2644 82.812 55.2644 83.764C55.2644 84.716 55.4884 85.452 55.9364 85.972C56.3844 86.492 57.0364 86.752 57.8924 86.752C58.3244 86.752 58.7284 86.684 59.1044 86.548C59.4804 86.404 59.8484 86.18 60.2084 85.876L60.7124 87.1C60.3844 87.42 59.9644 87.672 59.4524 87.856C58.9484 88.032 58.4124 88.12 57.8444 88.12ZM65.2873 88V79.54H68.9593C69.5833 79.54 70.1113 79.644 70.5433 79.852C70.9753 80.06 71.3033 80.36 71.5273 80.752C71.7513 81.144 71.8633 81.62 71.8633 82.18C71.8633 82.732 71.7513 83.208 71.5273 83.608C71.3033 84 70.9753 84.304 70.5433 84.52C70.1113 84.728 69.5833 84.832 68.9593 84.832H66.8233V88H65.2873ZM66.8233 83.62H68.7193C69.2633 83.62 69.6753 83.5 69.9553 83.26C70.2353 83.012 70.3753 82.652 70.3753 82.18C70.3753 81.708 70.2353 81.352 69.9553 81.112C69.6753 80.872 69.2633 80.752 68.7193 80.752H66.8233V83.62ZM73.1154 88V79.54H76.7874C77.7154 79.54 78.4314 79.764 78.9354 80.212C79.4394 80.652 79.6914 81.272 79.6914 82.072C79.6914 82.592 79.5754 83.04 79.3434 83.416C79.1194 83.792 78.7914 84.08 78.3594 84.28C77.9274 84.48 77.4034 84.58 76.7874 84.58L76.8954 84.4H77.2914C77.6194 84.4 77.9034 84.48 78.1434 84.64C78.3914 84.8 78.6074 85.052 78.7914 85.396L80.2074 88H78.5154L77.0514 85.3C76.9554 85.124 76.8474 84.988 76.7274 84.892C76.6074 84.788 76.4714 84.716 76.3194 84.676C76.1674 84.636 75.9914 84.616 75.7914 84.616H74.6514V88H73.1154ZM74.6514 83.476H76.5234C77.0754 83.476 77.4914 83.364 77.7714 83.14C78.0594 82.908 78.2034 82.564 78.2034 82.108C78.2034 81.66 78.0594 81.324 77.7714 81.1C77.4914 80.868 77.0754 80.752 76.5234 80.752H74.6514V83.476ZM81.342 88V79.54H82.878V88H81.342ZM88.653 88.12C87.773 88.12 87.017 87.944 86.385 87.592C85.761 87.232 85.281 86.728 84.945 86.08C84.609 85.424 84.441 84.652 84.441 83.764C84.441 82.876 84.609 82.108 84.945 81.46C85.281 80.812 85.761 80.312 86.385 79.96C87.017 79.6 87.773 79.42 88.653 79.42C89.221 79.42 89.757 79.508 90.261 79.684C90.773 79.86 91.193 80.112 91.521 80.44L91.017 81.664C90.657 81.36 90.289 81.14 89.913 81.004C89.537 80.86 89.133 80.788 88.701 80.788C87.845 80.788 87.193 81.048 86.745 81.568C86.297 82.08 86.073 82.812 86.073 83.764C86.073 84.716 86.297 85.452 86.745 85.972C87.193 86.492 87.845 86.752 88.701 86.752C89.133 86.752 89.537 86.684 89.913 86.548C90.289 86.404 90.657 86.18 91.017 85.876L91.521 87.1C91.193 87.42 90.773 87.672 90.261 87.856C89.757 88.032 89.221 88.12 88.653 88.12ZM92.8615 88V79.54H98.4895V80.764H94.3375V83.092H98.2255V84.316H94.3375V86.776H98.4895V88H92.8615ZM105.188 90.34C104.596 89.46 104.172 88.564 103.916 87.652C103.66 86.732 103.532 85.796 103.532 84.844C103.532 83.884 103.66 82.948 103.916 82.036C104.172 81.124 104.596 80.228 105.188 79.348L106.208 79.756C105.96 80.364 105.756 80.948 105.596 81.508C105.436 82.06 105.32 82.608 105.248 83.152C105.176 83.696 105.14 84.26 105.14 84.844C105.14 85.42 105.176 85.984 105.248 86.536C105.32 87.08 105.436 87.628 105.596 88.18C105.756 88.732 105.96 89.316 106.208 89.932L105.188 90.34ZM109.753 89.38V87.808L110.029 88.072C109.445 88.056 108.893 87.968 108.373 87.808C107.861 87.64 107.417 87.408 107.041 87.112L107.509 85.9C107.757 86.084 108.021 86.244 108.301 86.38C108.589 86.508 108.889 86.608 109.201 86.68C109.521 86.744 109.861 86.776 110.221 86.776C110.805 86.776 111.233 86.672 111.505 86.464C111.777 86.256 111.913 85.996 111.913 85.684C111.913 85.404 111.821 85.18 111.637 85.012C111.453 84.844 111.125 84.708 110.653 84.604L109.381 84.328C108.661 84.168 108.117 83.904 107.749 83.536C107.389 83.16 107.209 82.664 107.209 82.048C107.209 81.576 107.325 81.156 107.557 80.788C107.789 80.412 108.113 80.112 108.529 79.888C108.945 79.664 109.433 79.532 109.993 79.492L109.753 79.672V78.16H110.953V79.672L110.701 79.48C111.157 79.504 111.605 79.596 112.045 79.756C112.493 79.916 112.865 80.148 113.161 80.452L112.705 81.604C112.401 81.324 112.053 81.116 111.661 80.98C111.269 80.836 110.841 80.764 110.377 80.764C109.881 80.764 109.481 80.88 109.177 81.112C108.881 81.336 108.733 81.632 108.733 82C108.733 82.272 108.825 82.492 109.009 82.66C109.193 82.828 109.489 82.956 109.897 83.044L111.169 83.32C111.937 83.488 112.505 83.756 112.873 84.124C113.249 84.484 113.437 84.964 113.437 85.564C113.437 86.028 113.321 86.44 113.089 86.8C112.857 87.152 112.537 87.436 112.129 87.652C111.729 87.86 111.261 87.992 110.725 88.048L110.953 87.796V89.38H109.753ZM115.268 90.34L114.248 89.932C114.496 89.308 114.696 88.716 114.848 88.156C115.008 87.604 115.124 87.06 115.196 86.524C115.276 85.98 115.316 85.42 115.316 84.844C115.316 84.268 115.276 83.712 115.196 83.176C115.124 82.632 115.008 82.08 114.848 81.52C114.696 80.96 114.496 80.372 114.248 79.756L115.268 79.348C115.86 80.228 116.284 81.128 116.54 82.048C116.796 82.96 116.924 83.892 116.924 84.844C116.924 85.796 116.796 86.732 116.54 87.652C116.284 88.564 115.86 89.46 115.268 90.34Z" fill="#808283"/>
<path d="M17.308 120V118.728H19.216V112.836H19.96L17.74 114.18L17.14 113.052L19.66 111.54H20.752V118.728H22.54V120H17.308ZM26.7953 120.12C26.1313 120.12 25.5673 119.952 25.1033 119.616C24.6473 119.272 24.2993 118.776 24.0593 118.128C23.8273 117.48 23.7113 116.688 23.7113 115.752C23.7113 114.808 23.8273 114.016 24.0593 113.376C24.2993 112.728 24.6473 112.24 25.1033 111.912C25.5673 111.584 26.1313 111.42 26.7953 111.42C27.4673 111.42 28.0313 111.584 28.4873 111.912C28.9513 112.24 29.2993 112.724 29.5313 113.364C29.7633 114.004 29.8793 114.796 29.8793 115.74C29.8793 116.676 29.7593 117.472 29.5193 118.128C29.2873 118.776 28.9433 119.272 28.4873 119.616C28.0313 119.952 27.4673 120.12 26.7953 120.12ZM26.7953 118.86C27.3393 118.86 27.7393 118.612 27.9953 118.116C28.2593 117.612 28.3913 116.82 28.3913 115.74C28.3913 114.668 28.2593 113.892 27.9953 113.412C27.7393 112.924 27.3393 112.68 26.7953 112.68C26.2593 112.68 25.8593 112.924 25.5953 113.412C25.3313 113.892 25.1993 114.672 25.1993 115.752C25.1993 116.824 25.3313 117.612 25.5953 118.116C25.8593 118.612 26.2593 118.86 26.7953 118.86ZM33.9906 120.12C33.3266 120.12 32.7626 119.952 32.2986 119.616C31.8426 119.272 31.4946 118.776 31.2546 118.128C31.0226 117.48 30.9066 116.688 30.9066 115.752C30.9066 114.808 31.0226 114.016 31.2546 113.376C31.4946 112.728 31.8426 112.24 32.2986 111.912C32.7626 111.584 33.3266 111.42 33.9906 111.42C34.6626 111.42 35.2266 111.584 35.6826 111.912C36.1466 112.24 36.4946 112.724 36.7266 113.364C36.9586 114.004 37.0746 114.796 37.0746 115.74C37.0746 116.676 36.9546 117.472 36.7146 118.128C36.4826 118.776 36.1386 119.272 35.6826 119.616C35.2266 119.952 34.6626 120.12 33.9906 120.12ZM33.9906 118.86C34.5346 118.86 34.9346 118.612 35.1906 118.116C35.4546 117.612 35.5866 116.82 35.5866 115.74C35.5866 114.668 35.4546 113.892 35.1906 113.412C34.9346 112.924 34.5346 112.68 33.9906 112.68C33.4546 112.68 33.0546 112.924 32.7906 113.412C32.5266 113.892 32.3946 114.672 32.3946 115.752C32.3946 116.824 32.5266 117.612 32.7906 118.116C33.0546 118.612 33.4546 118.86 33.9906 118.86ZM38.5099 120V111.54H40.0459V115.284H40.0699L43.8019 111.54H45.6739L41.2099 115.956L41.2219 115.26L45.8779 120H43.9819L40.0699 116.088H40.0459V120H38.5099Z" fill="#808283"/>
<rect x="52" y="115.5" width="460" height="1" fill="#23252D"/>
<path d="M19.6 170.12C18.616 170.12 17.844 169.908 17.284 169.484C16.732 169.06 16.456 168.472 16.456 167.72C16.456 167.32 16.536 166.968 16.696 166.664C16.864 166.352 17.092 166.1 17.38 165.908C17.668 165.716 17.996 165.596 18.364 165.548V165.8C18.028 165.728 17.732 165.596 17.476 165.404C17.22 165.204 17.02 164.96 16.876 164.672C16.74 164.376 16.672 164.052 16.672 163.7C16.672 162.988 16.936 162.432 17.464 162.032C17.992 161.624 18.708 161.42 19.612 161.42C20.508 161.42 21.22 161.624 21.748 162.032C22.276 162.432 22.54 162.988 22.54 163.7C22.54 164.052 22.468 164.376 22.324 164.672C22.188 164.968 21.992 165.212 21.736 165.404C21.488 165.596 21.196 165.724 20.86 165.788V165.548C21.236 165.596 21.564 165.72 21.844 165.92C22.124 166.112 22.344 166.364 22.504 166.676C22.664 166.98 22.744 167.328 22.744 167.72C22.744 168.472 22.464 169.06 21.904 169.484C21.352 169.908 20.584 170.12 19.6 170.12ZM19.6 168.92C20.168 168.92 20.596 168.812 20.884 168.596C21.172 168.372 21.316 168.044 21.316 167.612C21.316 167.18 21.172 166.856 20.884 166.64C20.596 166.424 20.168 166.316 19.6 166.316C19.04 166.316 18.612 166.424 18.316 166.64C18.028 166.856 17.884 167.18 17.884 167.612C17.884 168.044 18.028 168.372 18.316 168.596C18.612 168.812 19.04 168.92 19.6 168.92ZM19.6 165.116C20.072 165.116 20.44 165.004 20.704 164.78C20.976 164.556 21.112 164.248 21.112 163.856C21.112 163.472 20.976 163.172 20.704 162.956C20.44 162.732 20.072 162.62 19.6 162.62C19.128 162.62 18.76 162.732 18.496 162.956C18.232 163.172 18.1 163.476 18.1 163.868C18.1 164.252 18.232 164.556 18.496 164.78C18.76 165.004 19.128 165.116 19.6 165.116ZM26.7953 170.12C26.1313 170.12 25.5673 169.952 25.1033 169.616C24.6473 169.272 24.2993 168.776 24.0593 168.128C23.8273 167.48 23.7113 166.688 23.7113 165.752C23.7113 164.808 23.8273 164.016 24.0593 163.376C24.2993 162.728 24.6473 162.24 25.1033 161.912C25.5673 161.584 26.1313 161.42 26.7953 161.42C27.4673 161.42 28.0313 161.584 28.4873 161.912C28.9513 162.24 29.2993 162.724 29.5313 163.364C29.7633 164.004 29.8793 164.796 29.8793 165.74C29.8793 166.676 29.7593 167.472 29.5193 168.128C29.2873 168.776 28.9433 169.272 28.4873 169.616C28.0313 169.952 27.4673 170.12 26.7953 170.12ZM26.7953 168.86C27.3393 168.86 27.7393 168.612 27.9953 168.116C28.2593 167.612 28.3913 166.82 28.3913 165.74C28.3913 164.668 28.2593 163.892 27.9953 163.412C27.7393 162.924 27.3393 162.68 26.7953 162.68C26.2593 162.68 25.8593 162.924 25.5953 163.412C25.3313 163.892 25.1993 164.672 25.1993 165.752C25.1993 166.824 25.3313 167.612 25.5953 168.116C25.8593 168.612 26.2593 168.86 26.7953 168.86ZM31.3146 170V161.54H32.8506V165.284H32.8746L36.6066 161.54H38.4786L34.0146 165.956L34.0266 165.26L38.6826 170H36.7866L32.8746 166.088H32.8506V170H31.3146Z" fill="#808283"/>
<rect x="52" y="165.5" width="460" height="1" fill="#23252D"/>
<path d="M19.912 220.12C19.216 220.12 18.62 219.956 18.124 219.628C17.636 219.292 17.264 218.812 17.008 218.188C16.752 217.564 16.624 216.808 16.624 215.92C16.624 214.96 16.768 214.148 17.056 213.484C17.344 212.812 17.76 212.3 18.304 211.948C18.848 211.596 19.5 211.42 20.26 211.42C20.556 211.42 20.852 211.46 21.148 211.54C21.452 211.612 21.736 211.72 22 211.864C22.272 212 22.512 212.168 22.72 212.368L22.216 213.52C21.92 213.248 21.604 213.048 21.268 212.92C20.932 212.784 20.588 212.716 20.236 212.716C19.892 212.716 19.584 212.78 19.312 212.908C19.048 213.028 18.824 213.212 18.64 213.46C18.456 213.7 18.316 214.004 18.22 214.372C18.132 214.732 18.088 215.152 18.088 215.632V216.532H17.944C18.008 216.124 18.14 215.776 18.34 215.488C18.548 215.192 18.812 214.968 19.132 214.816C19.452 214.656 19.808 214.576 20.2 214.576C20.688 214.576 21.12 214.692 21.496 214.924C21.872 215.156 22.168 215.476 22.384 215.884C22.6 216.292 22.708 216.76 22.708 217.288C22.708 217.832 22.588 218.32 22.348 218.752C22.116 219.176 21.788 219.512 21.364 219.76C20.948 220 20.464 220.12 19.912 220.12ZM19.828 218.896C20.116 218.896 20.368 218.832 20.584 218.704C20.808 218.576 20.98 218.396 21.1 218.164C21.22 217.924 21.28 217.652 21.28 217.348C21.28 217.036 21.22 216.764 21.1 216.532C20.98 216.3 20.808 216.12 20.584 215.992C20.368 215.856 20.116 215.788 19.828 215.788C19.54 215.788 19.288 215.856 19.072 215.992C18.856 216.12 18.684 216.3 18.556 216.532C18.436 216.764 18.376 217.036 18.376 217.348C18.376 217.652 18.436 217.924 18.556 218.164C18.684 218.396 18.856 218.576 19.072 218.704C19.288 218.832 19.54 218.896 19.828 218.896ZM26.7953 220.12C26.1313 220.12 25.5673 219.952 25.1033 219.616C24.6473 219.272 24.2993 218.776 24.0593 218.128C23.8273 217.48 23.7113 216.688 23.7113 215.752C23.7113 214.808 23.8273 214.016 24.0593 213.376C24.2993 212.728 24.6473 212.24 25.1033 211.912C25.5673 211.584 26.1313 211.42 26.7953 211.42C27.4673 211.42 28.0313 211.584 28.4873 211.912C28.9513 212.24 29.2993 212.724 29.5313 213.364C29.7633 214.004 29.8793 214.796 29.8793 215.74C29.8793 216.676 29.7593 217.472 29.5193 218.128C29.2873 218.776 28.9433 219.272 28.4873 219.616C28.0313 219.952 27.4673 220.12 26.7953 220.12ZM26.7953 218.86C27.3393 218.86 27.7393 218.612 27.9953 218.116C28.2593 217.612 28.3913 216.82 28.3913 215.74C28.3913 214.668 28.2593 213.892 27.9953 213.412C27.7393 212.924 27.3393 212.68 26.7953 212.68C26.2593 212.68 25.8593 212.924 25.5953 213.412C25.3313 213.892 25.1993 214.672 25.1993 215.752C25.1993 216.824 25.3313 217.612 25.5953 218.116C25.8593 218.612 26.2593 218.86 26.7953 218.86ZM31.3146 220V211.54H32.8506V215.284H32.8746L36.6066 211.54H38.4786L34.0146 215.956L34.0266 215.26L38.6826 220H36.7866L32.8746 216.088H32.8506V220H31.3146Z" fill="#808283"/>
<rect x="52" y="215.5" width="460" height="1" fill="#23252D"/>
<path d="M20.188 270V268.392H16.504V267.264L20.452 261.54H21.724V267.12H22.912V268.392H21.724V270H20.188ZM20.188 267.12V263.376H20.536L17.704 267.528V267.12H20.188ZM26.7953 270.12C26.1313 270.12 25.5673 269.952 25.1033 269.616C24.6473 269.272 24.2993 268.776 24.0593 268.128C23.8273 267.48 23.7113 266.688 23.7113 265.752C23.7113 264.808 23.8273 264.016 24.0593 263.376C24.2993 262.728 24.6473 262.24 25.1033 261.912C25.5673 261.584 26.1313 261.42 26.7953 261.42C27.4673 261.42 28.0313 261.584 28.4873 261.912C28.9513 262.24 29.2993 262.724 29.5313 263.364C29.7633 264.004 29.8793 264.796 29.8793 265.74C29.8793 266.676 29.7593 267.472 29.5193 268.128C29.2873 268.776 28.9433 269.272 28.4873 269.616C28.0313 269.952 27.4673 270.12 26.7953 270.12ZM26.7953 268.86C27.3393 268.86 27.7393 268.612 27.9953 268.116C28.2593 267.612 28.3913 266.82 28.3913 265.74C28.3913 264.668 28.2593 263.892 27.9953 263.412C27.7393 262.924 27.3393 262.68 26.7953 262.68C26.2593 262.68 25.8593 262.924 25.5953 263.412C25.3313 263.892 25.1993 264.672 25.1993 265.752C25.1993 266.824 25.3313 267.612 25.5953 268.116C25.8593 268.612 26.2593 268.86 26.7953 268.86ZM31.3146 270V261.54H32.8506V265.284H32.8746L36.6066 261.54H38.4786L34.0146 265.956L34.0266 265.26L38.6826 270H36.7866L32.8746 266.088H32.8506V270H31.3146Z" fill="#808283"/>
<rect x="52" y="265.5" width="460" height="1" fill="#23252D"/>
<path d="M16.96 320V318.86L19.696 315.944C19.944 315.68 20.14 315.436 20.284 315.212C20.436 314.988 20.548 314.772 20.62 314.564C20.692 314.356 20.728 314.148 20.728 313.94C20.728 313.54 20.6 313.236 20.344 313.028C20.096 312.82 19.732 312.716 19.252 312.716C18.876 312.716 18.508 312.788 18.148 312.932C17.796 313.068 17.456 313.284 17.128 313.58L16.612 312.428C16.948 312.124 17.368 311.88 17.872 311.696C18.376 311.512 18.9 311.42 19.444 311.42C20.052 311.42 20.564 311.512 20.98 311.696C21.396 311.88 21.712 312.148 21.928 312.5C22.144 312.852 22.252 313.28 22.252 313.784C22.252 314.04 22.22 314.292 22.156 314.54C22.1 314.78 22.008 315.02 21.88 315.26C21.76 315.5 21.604 315.748 21.412 316.004C21.228 316.252 21.004 316.512 20.74 316.784L18.484 319.136V318.728H22.576V320H16.96ZM26.7953 320.12C26.1313 320.12 25.5673 319.952 25.1033 319.616C24.6473 319.272 24.2993 318.776 24.0593 318.128C23.8273 317.48 23.7113 316.688 23.7113 315.752C23.7113 314.808 23.8273 314.016 24.0593 313.376C24.2993 312.728 24.6473 312.24 25.1033 311.912C25.5673 311.584 26.1313 311.42 26.7953 311.42C27.4673 311.42 28.0313 311.584 28.4873 311.912C28.9513 312.24 29.2993 312.724 29.5313 313.364C29.7633 314.004 29.8793 314.796 29.8793 315.74C29.8793 316.676 29.7593 317.472 29.5193 318.128C29.2873 318.776 28.9433 319.272 28.4873 319.616C28.0313 319.952 27.4673 320.12 26.7953 320.12ZM26.7953 318.86C27.3393 318.86 27.7393 318.612 27.9953 318.116C28.2593 317.612 28.3913 316.82 28.3913 315.74C28.3913 314.668 28.2593 313.892 27.9953 313.412C27.7393 312.924 27.3393 312.68 26.7953 312.68C26.2593 312.68 25.8593 312.924 25.5953 313.412C25.3313 313.892 25.1993 314.672 25.1993 315.752C25.1993 316.824 25.3313 317.612 25.5953 318.116C25.8593 318.612 26.2593 318.86 26.7953 318.86ZM31.3146 320V311.54H32.8506V315.284H32.8746L36.6066 311.54H38.4786L34.0146 315.956L34.0266 315.26L38.6826 320H36.7866L32.8746 316.088H32.8506V320H31.3146Z" fill="#808283"/>
<rect x="52" y="315.5" width="460" height="1" fill="#23252D"/>
<path d="M19.6 370.12C18.936 370.12 18.372 369.952 17.908 369.616C17.452 369.272 17.104 368.776 16.864 368.128C16.632 367.48 16.516 366.688 16.516 365.752C16.516 364.808 16.632 364.016 16.864 363.376C17.104 362.728 17.452 362.24 17.908 361.912C18.372 361.584 18.936 361.42 19.6 361.42C20.272 361.42 20.836 361.584 21.292 361.912C21.756 362.24 22.104 362.724 22.336 363.364C22.568 364.004 22.684 364.796 22.684 365.74C22.684 366.676 22.564 367.472 22.324 368.128C22.092 368.776 21.748 369.272 21.292 369.616C20.836 369.952 20.272 370.12 19.6 370.12ZM19.6 368.86C20.144 368.86 20.544 368.612 20.8 368.116C21.064 367.612 21.196 366.82 21.196 365.74C21.196 364.668 21.064 363.892 20.8 363.412C20.544 362.924 20.144 362.68 19.6 362.68C19.064 362.68 18.664 362.924 18.4 363.412C18.136 363.892 18.004 364.672 18.004 365.752C18.004 366.824 18.136 367.612 18.4 368.116C18.664 368.612 19.064 368.86 19.6 368.86Z" fill="#808283"/>
<rect x="52" y="365.5" width="460" height="1" fill="#313338"/>
<rect x="69.75" y="366" width="1" height="8" fill="#313338"/>
<path d="M62.2144 380.708V379.616C62.2144 379.344 62.2424 379.088 62.2984 378.848C62.3624 378.608 62.4624 378.372 62.5984 378.14C62.7424 377.908 62.9304 377.676 63.1624 377.444L63.7864 377.936C63.6184 378.112 63.4824 378.28 63.3784 378.44C63.2744 378.592 63.1984 378.748 63.1504 378.908C63.1104 379.06 63.0904 379.22 63.0904 379.388L62.7184 379.04H63.8944V380.708H62.2144ZM65.851 386V384.728H67.759V378.836H68.503L66.283 380.18L65.683 379.052L68.203 377.54H69.295V384.728H71.083V386H65.851ZM73.0463 386V384.728H74.9543V378.836H75.6983L73.4783 380.18L72.8783 379.052L75.3983 377.54H76.4903V384.728H78.2783V386H73.0463Z" fill="#808283"/>
<rect x="108.25" y="366" width="1" height="8" fill="#313338"/>
<path d="M100.714 380.708V379.616C100.714 379.344 100.742 379.088 100.798 378.848C100.862 378.608 100.962 378.372 101.098 378.14C101.242 377.908 101.43 377.676 101.662 377.444L102.286 377.936C102.118 378.112 101.982 378.28 101.878 378.44C101.774 378.592 101.698 378.748 101.65 378.908C101.61 379.06 101.59 379.22 101.59 379.388L101.218 379.04H102.394V380.708H100.714ZM104.351 386V384.728H106.259V378.836H107.003L104.783 380.18L104.183 379.052L106.703 377.54H107.795V384.728H109.583V386H104.351ZM111.198 386V384.86L113.934 381.944C114.182 381.68 114.378 381.436 114.522 381.212C114.674 380.988 114.786 380.772 114.858 380.564C114.93 380.356 114.966 380.148 114.966 379.94C114.966 379.54 114.838 379.236 114.582 379.028C114.334 378.82 113.97 378.716 113.49 378.716C113.114 378.716 112.746 378.788 112.386 378.932C112.034 379.068 111.694 379.284 111.366 379.58L110.85 378.428C111.186 378.124 111.606 377.88 112.11 377.696C112.614 377.512 113.138 377.42 113.682 377.42C114.29 377.42 114.802 377.512 115.218 377.696C115.634 377.88 115.95 378.148 116.166 378.5C116.382 378.852 116.49 379.28 116.49 379.784C116.49 380.04 116.458 380.292 116.394 380.54C116.338 380.78 116.246 381.02 116.118 381.26C115.998 381.5 115.842 381.748 115.65 382.004C115.466 382.252 115.242 382.512 114.978 382.784L112.722 385.136V384.728H116.814V386H111.198Z" fill="#808283"/>
<rect x="146.75" y="366" width="1" height="8" fill="#313338"/>
<path d="M139.214 380.708V379.616C139.214 379.344 139.242 379.088 139.298 378.848C139.362 378.608 139.462 378.372 139.598 378.14C139.742 377.908 139.93 377.676 140.162 377.444L140.786 377.936C140.618 378.112 140.482 378.28 140.378 378.44C140.274 378.592 140.198 378.748 140.15 378.908C140.11 379.06 140.09 379.22 140.09 379.388L139.718 379.04H140.894V380.708H139.214ZM142.851 386V384.728H144.759V378.836H145.503L143.283 380.18L142.683 379.052L145.203 377.54H146.295V384.728H148.083V386H142.851ZM152.17 386.12C151.786 386.12 151.41 386.08 151.042 386C150.682 385.928 150.346 385.82 150.034 385.676C149.722 385.532 149.45 385.36 149.218 385.16L149.722 383.984C150.098 384.272 150.482 384.484 150.874 384.62C151.266 384.756 151.682 384.824 152.122 384.824C152.474 384.824 152.77 384.776 153.01 384.68C153.25 384.584 153.43 384.44 153.55 384.248C153.678 384.056 153.742 383.824 153.742 383.552C153.742 383.152 153.606 382.856 153.334 382.664C153.07 382.464 152.682 382.364 152.17 382.364H150.814V381.092H152.026C152.33 381.092 152.59 381.044 152.806 380.948C153.022 380.844 153.19 380.7 153.31 380.516C153.43 380.332 153.49 380.108 153.49 379.844C153.49 379.476 153.366 379.196 153.118 379.004C152.878 378.812 152.526 378.716 152.062 378.716C151.646 378.716 151.258 378.788 150.898 378.932C150.538 379.068 150.194 379.284 149.866 379.58L149.362 378.428C149.698 378.108 150.118 377.86 150.622 377.684C151.126 377.508 151.65 377.42 152.194 377.42C152.778 377.42 153.278 377.512 153.694 377.696C154.11 377.872 154.426 378.128 154.642 378.464C154.866 378.792 154.978 379.192 154.978 379.664C154.978 380.168 154.838 380.604 154.558 380.972C154.278 381.332 153.894 381.572 153.406 381.692V381.548C153.79 381.612 154.118 381.74 154.39 381.932C154.662 382.124 154.87 382.368 155.014 382.664C155.158 382.96 155.23 383.3 155.23 383.684C155.23 384.18 155.106 384.612 154.858 384.98C154.61 385.348 154.258 385.632 153.802 385.832C153.346 386.024 152.802 386.12 152.17 386.12Z" fill="#808283"/>
<rect x="185.25" y="366" width="1" height="8" fill="#313338"/>
<path d="M177.714 380.708V379.616C177.714 379.344 177.742 379.088 177.798 378.848C177.862 378.608 177.962 378.372 178.098 378.14C178.242 377.908 178.43 377.676 178.662 377.444L179.286 377.936C179.118 378.112 178.982 378.28 178.878 378.44C178.774 378.592 178.698 378.748 178.65 378.908C178.61 379.06 178.59 379.22 178.59 379.388L178.218 379.04H179.394V380.708H177.714ZM181.351 386V384.728H183.259V378.836H184.003L181.783 380.18L181.183 379.052L183.703 377.54H184.795V384.728H186.583V386H181.351ZM191.426 386V384.392H187.742V383.264L191.69 377.54H192.962V383.12H194.15V384.392H192.962V386H191.426ZM191.426 383.12V379.376H191.774L188.942 383.528V383.12H191.426Z" fill="#808283"/>
<rect x="223.75" y="366" width="1" height="8" fill="#313338"/>
<path d="M216.214 380.708V379.616C216.214 379.344 216.242 379.088 216.298 378.848C216.362 378.608 216.462 378.372 216.598 378.14C216.742 377.908 216.93 377.676 217.162 377.444L217.786 377.936C217.618 378.112 217.482 378.28 217.378 378.44C217.274 378.592 217.198 378.748 217.15 378.908C217.11 379.06 217.09 379.22 217.09 379.388L216.718 379.04H217.894V380.708H216.214ZM219.851 386V384.728H221.759V378.836H222.503L220.283 380.18L219.683 379.052L222.203 377.54H223.295V384.728H225.083V386H219.851ZM229.41 386.12C229.042 386.12 228.678 386.08 228.318 386C227.966 385.92 227.634 385.808 227.322 385.664C227.018 385.52 226.754 385.352 226.53 385.16L227.034 383.984C227.402 384.264 227.782 384.476 228.174 384.62C228.566 384.756 228.97 384.824 229.386 384.824C229.89 384.824 230.282 384.696 230.562 384.44C230.85 384.176 230.994 383.824 230.994 383.384C230.994 382.936 230.858 382.576 230.586 382.304C230.314 382.024 229.942 381.884 229.47 381.884C229.126 381.884 228.818 381.952 228.546 382.088C228.274 382.216 228.026 382.416 227.802 382.688H226.77V377.54H231.966V378.812H228.27V381.5H227.874C228.082 381.22 228.354 381.004 228.69 380.852C229.034 380.7 229.414 380.624 229.83 380.624C230.366 380.624 230.83 380.74 231.222 380.972C231.622 381.196 231.93 381.512 232.146 381.92C232.37 382.32 232.482 382.788 232.482 383.324C232.482 383.876 232.358 384.364 232.11 384.788C231.862 385.204 231.506 385.532 231.042 385.772C230.586 386.004 230.042 386.12 229.41 386.12Z" fill="#808283"/>
<rect x="262.25" y="366" width="1" height="8" fill="#313338"/>
<path d="M254.714 380.708V379.616C254.714 379.344 254.742 379.088 254.798 378.848C254.862 378.608 254.962 378.372 255.098 378.14C255.242 377.908 255.43 377.676 255.662 377.444L256.286 377.936C256.118 378.112 255.982 378.28 255.878 378.44C255.774 378.592 255.698 378.748 255.65 378.908C255.61 379.06 255.59 379.22 255.59 379.388L255.218 379.04H256.394V380.708H254.714ZM258.351 386V384.728H260.259V378.836H261.003L258.783 380.18L258.183 379.052L260.703 377.54H261.795V384.728H263.583V386H258.351ZM268.15 386.12C267.454 386.12 266.858 385.956 266.362 385.628C265.874 385.292 265.502 384.812 265.246 384.188C264.99 383.564 264.862 382.808 264.862 381.92C264.862 380.96 265.006 380.148 265.294 379.484C265.582 378.812 265.998 378.3 266.542 377.948C267.086 377.596 267.738 377.42 268.498 377.42C268.794 377.42 269.09 377.46 269.386 377.54C269.69 377.612 269.974 377.72 270.238 377.864C270.51 378 270.75 378.168 270.958 378.368L270.454 379.52C270.158 379.248 269.842 379.048 269.506 378.92C269.17 378.784 268.826 378.716 268.474 378.716C268.13 378.716 267.822 378.78 267.55 378.908C267.286 379.028 267.062 379.212 266.878 379.46C266.694 379.7 266.554 380.004 266.458 380.372C266.37 380.732 266.326 381.152 266.326 381.632V382.532H266.182C266.246 382.124 266.378 381.776 266.578 381.488C266.786 381.192 267.05 380.968 267.37 380.816C267.69 380.656 268.046 380.576 268.438 380.576C268.926 380.576 269.358 380.692 269.734 380.924C270.11 381.156 270.406 381.476 270.622 381.884C270.838 382.292 270.946 382.76 270.946 383.288C270.946 383.832 270.826 384.32 270.586 384.752C270.354 385.176 270.026 385.512 269.602 385.76C269.186 386 268.702 386.12 268.15 386.12ZM268.066 384.896C268.354 384.896 268.606 384.832 268.822 384.704C269.046 384.576 269.218 384.396 269.338 384.164C269.458 383.924 269.518 383.652 269.518 383.348C269.518 383.036 269.458 382.764 269.338 382.532C269.218 382.3 269.046 382.12 268.822 381.992C268.606 381.856 268.354 381.788 268.066 381.788C267.778 381.788 267.526 381.856 267.31 381.992C267.094 382.12 266.922 382.3 266.794 382.532C266.674 382.764 266.614 383.036 266.614 383.348C266.614 383.652 266.674 383.924 266.794 384.164C266.922 384.396 267.094 384.576 267.31 384.704C267.526 384.832 267.778 384.896 268.066 384.896Z" fill="#808283"/>
<rect x="300.75" y="366" width="1" height="8" fill="#313338"/>
<path d="M293.214 380.708V379.616C293.214 379.344 293.242 379.088 293.298 378.848C293.362 378.608 293.462 378.372 293.598 378.14C293.742 377.908 293.93 377.676 294.162 377.444L294.786 377.936C294.618 378.112 294.482 378.28 294.378 378.44C294.274 378.592 294.198 378.748 294.15 378.908C294.11 379.06 294.09 379.22 294.09 379.388L293.718 379.04H294.894V380.708H293.214ZM296.851 386V384.728H298.759V378.836H299.503L297.283 380.18L296.683 379.052L299.203 377.54H300.295V384.728H302.083V386H296.851ZM303.77 386L307.862 378.296V378.824H303.398V377.54H309.29V378.692L305.462 386H303.77Z" fill="#808283"/>
<rect x="339.25" y="366" width="1" height="8" fill="#313338"/>
<path d="M331.714 380.708V379.616C331.714 379.344 331.742 379.088 331.798 378.848C331.862 378.608 331.962 378.372 332.098 378.14C332.242 377.908 332.43 377.676 332.662 377.444L333.286 377.936C333.118 378.112 332.982 378.28 332.878 378.44C332.774 378.592 332.698 378.748 332.65 378.908C332.61 379.06 332.59 379.22 332.59 379.388L332.218 379.04H333.394V380.708H331.714ZM335.351 386V384.728H337.259V378.836H338.003L335.783 380.18L335.183 379.052L337.703 377.54H338.795V384.728H340.583V386H335.351ZM344.838 386.12C343.854 386.12 343.082 385.908 342.522 385.484C341.97 385.06 341.694 384.472 341.694 383.72C341.694 383.32 341.774 382.968 341.934 382.664C342.102 382.352 342.33 382.1 342.618 381.908C342.906 381.716 343.234 381.596 343.602 381.548V381.8C343.266 381.728 342.97 381.596 342.714 381.404C342.458 381.204 342.258 380.96 342.114 380.672C341.978 380.376 341.91 380.052 341.91 379.7C341.91 378.988 342.174 378.432 342.702 378.032C343.23 377.624 343.946 377.42 344.85 377.42C345.746 377.42 346.458 377.624 346.986 378.032C347.514 378.432 347.778 378.988 347.778 379.7C347.778 380.052 347.706 380.376 347.562 380.672C347.426 380.968 347.23 381.212 346.974 381.404C346.726 381.596 346.434 381.724 346.098 381.788V381.548C346.474 381.596 346.802 381.72 347.082 381.92C347.362 382.112 347.582 382.364 347.742 382.676C347.902 382.98 347.982 383.328 347.982 383.72C347.982 384.472 347.702 385.06 347.142 385.484C346.59 385.908 345.822 386.12 344.838 386.12ZM344.838 384.92C345.406 384.92 345.834 384.812 346.122 384.596C346.41 384.372 346.554 384.044 346.554 383.612C346.554 383.18 346.41 382.856 346.122 382.64C345.834 382.424 345.406 382.316 344.838 382.316C344.278 382.316 343.85 382.424 343.554 382.64C343.266 382.856 343.122 383.18 343.122 383.612C343.122 384.044 343.266 384.372 343.554 384.596C343.85 384.812 344.278 384.92 344.838 384.92ZM344.838 381.116C345.31 381.116 345.678 381.004 345.942 380.78C346.214 380.556 346.35 380.248 346.35 379.856C346.35 379.472 346.214 379.172 345.942 378.956C345.678 378.732 345.31 378.62 344.838 378.62C344.366 378.62 343.998 378.732 343.734 378.956C343.47 379.172 343.338 379.476 343.338 379.868C343.338 380.252 343.47 380.556 343.734 380.78C343.998 381.004 344.366 381.116 344.838 381.116Z" fill="#808283"/>
<rect x="377.75" y="366" width="1" height="8" fill="#313338"/>
<path d="M370.214 380.708V379.616C370.214 379.344 370.242 379.088 370.298 378.848C370.362 378.608 370.462 378.372 370.598 378.14C370.742 377.908 370.93 377.676 371.162 377.444L371.786 377.936C371.618 378.112 371.482 378.28 371.378 378.44C371.274 378.592 371.198 378.748 371.15 378.908C371.11 379.06 371.09 379.22 371.09 379.388L370.718 379.04H371.894V380.708H370.214ZM373.851 386V384.728H375.759V378.836H376.503L374.283 380.18L373.683 379.052L376.203 377.54H377.295V384.728H379.083V386H373.851ZM382.69 386.12C382.394 386.12 382.094 386.08 381.79 386C381.494 385.928 381.21 385.82 380.938 385.676C380.674 385.532 380.434 385.36 380.218 385.16L380.734 384.008C381.022 384.28 381.334 384.484 381.67 384.62C382.014 384.756 382.358 384.824 382.702 384.824C383.054 384.824 383.362 384.764 383.626 384.644C383.898 384.516 384.126 384.332 384.31 384.092C384.494 383.844 384.63 383.54 384.718 383.18C384.814 382.812 384.862 382.388 384.862 381.908V381.008H384.994C384.938 381.408 384.806 381.756 384.598 382.052C384.39 382.348 384.126 382.576 383.806 382.736C383.494 382.888 383.138 382.964 382.738 382.964C382.258 382.964 381.83 382.848 381.454 382.616C381.078 382.384 380.778 382.064 380.554 381.656C380.338 381.24 380.23 380.772 380.23 380.252C380.23 379.7 380.35 379.212 380.59 378.788C380.83 378.364 381.158 378.032 381.574 377.792C381.998 377.544 382.482 377.42 383.026 377.42C383.73 377.42 384.326 377.584 384.814 377.912C385.302 378.24 385.674 378.72 385.93 379.352C386.186 379.976 386.314 380.732 386.314 381.62C386.314 382.572 386.17 383.384 385.882 384.056C385.594 384.728 385.178 385.24 384.634 385.592C384.098 385.944 383.45 386.12 382.69 386.12ZM383.122 381.74C383.41 381.74 383.662 381.676 383.878 381.548C384.102 381.42 384.274 381.24 384.394 381.008C384.514 380.768 384.574 380.496 384.574 380.192C384.574 379.88 384.514 379.608 384.394 379.376C384.274 379.144 384.102 378.964 383.878 378.836C383.662 378.7 383.41 378.632 383.122 378.632C382.834 378.632 382.582 378.7 382.366 378.836C382.15 378.964 381.978 379.144 381.85 379.376C381.73 379.608 381.67 379.88 381.67 380.192C381.67 380.496 381.73 380.768 381.85 381.008C381.978 381.24 382.15 381.42 382.366 381.548C382.582 381.676 382.834 381.74 383.122 381.74Z" fill="#808283"/>
<rect x="416.25" y="366" width="1" height="8" fill="#313338"/>
<path d="M408.714 380.708V379.616C408.714 379.344 408.742 379.088 408.798 378.848C408.862 378.608 408.962 378.372 409.098 378.14C409.242 377.908 409.43 377.676 409.662 377.444L410.286 377.936C410.118 378.112 409.982 378.28 409.878 378.44C409.774 378.592 409.698 378.748 409.65 378.908C409.61 379.06 409.59 379.22 409.59 379.388L409.218 379.04H410.394V380.708H408.714ZM412.003 386V384.86L414.739 381.944C414.987 381.68 415.183 381.436 415.327 381.212C415.479 380.988 415.591 380.772 415.663 380.564C415.735 380.356 415.771 380.148 415.771 379.94C415.771 379.54 415.643 379.236 415.387 379.028C415.139 378.82 414.775 378.716 414.295 378.716C413.919 378.716 413.551 378.788 413.191 378.932C412.839 379.068 412.499 379.284 412.171 379.58L411.655 378.428C411.991 378.124 412.411 377.88 412.915 377.696C413.419 377.512 413.943 377.42 414.487 377.42C415.095 377.42 415.607 377.512 416.023 377.696C416.439 377.88 416.755 378.148 416.971 378.5C417.187 378.852 417.295 379.28 417.295 379.784C417.295 380.04 417.263 380.292 417.199 380.54C417.143 380.78 417.051 381.02 416.923 381.26C416.803 381.5 416.647 381.748 416.455 382.004C416.271 382.252 416.047 382.512 415.783 382.784L413.527 385.136V384.728H417.619V386H412.003ZM421.838 386.12C421.174 386.12 420.61 385.952 420.146 385.616C419.69 385.272 419.342 384.776 419.102 384.128C418.87 383.48 418.754 382.688 418.754 381.752C418.754 380.808 418.87 380.016 419.102 379.376C419.342 378.728 419.69 378.24 420.146 377.912C420.61 377.584 421.174 377.42 421.838 377.42C422.51 377.42 423.074 377.584 423.53 377.912C423.994 378.24 424.342 378.724 424.574 379.364C424.806 380.004 424.922 380.796 424.922 381.74C424.922 382.676 424.802 383.472 424.562 384.128C424.33 384.776 423.986 385.272 423.53 385.616C423.074 385.952 422.51 386.12 421.838 386.12ZM421.838 384.86C422.382 384.86 422.782 384.612 423.038 384.116C423.302 383.612 423.434 382.82 423.434 381.74C423.434 380.668 423.302 379.892 423.038 379.412C422.782 378.924 422.382 378.68 421.838 378.68C421.302 378.68 420.902 378.924 420.638 379.412C420.374 379.892 420.242 380.672 420.242 381.752C420.242 382.824 420.374 383.612 420.638 384.116C420.902 384.612 421.302 384.86 421.838 384.86Z" fill="#808283"/>
<rect x="454.75" y="366" width="1" height="8" fill="#313338"/>
<path d="M447.214 380.708V379.616C447.214 379.344 447.242 379.088 447.298 378.848C447.362 378.608 447.462 378.372 447.598 378.14C447.742 377.908 447.93 377.676 448.162 377.444L448.786 377.936C448.618 378.112 448.482 378.28 448.378 378.44C448.274 378.592 448.198 378.748 448.15 378.908C448.11 379.06 448.09 379.22 448.09 379.388L447.718 379.04H448.894V380.708H447.214ZM450.503 386V384.86L453.239 381.944C453.487 381.68 453.683 381.436 453.827 381.212C453.979 380.988 454.091 380.772 454.163 380.564C454.235 380.356 454.271 380.148 454.271 379.94C454.271 379.54 454.143 379.236 453.887 379.028C453.639 378.82 453.275 378.716 452.795 378.716C452.419 378.716 452.051 378.788 451.691 378.932C451.339 379.068 450.999 379.284 450.671 379.58L450.155 378.428C450.491 378.124 450.911 377.88 451.415 377.696C451.919 377.512 452.443 377.42 452.987 377.42C453.595 377.42 454.107 377.512 454.523 377.696C454.939 377.88 455.255 378.148 455.471 378.5C455.687 378.852 455.795 379.28 455.795 379.784C455.795 380.04 455.763 380.292 455.699 380.54C455.643 380.78 455.551 381.02 455.423 381.26C455.303 381.5 455.147 381.748 454.955 382.004C454.771 382.252 454.547 382.512 454.283 382.784L452.027 385.136V384.728H456.119V386H450.503ZM458.046 386V384.728H459.954V378.836H460.698L458.478 380.18L457.878 379.052L460.398 377.54H461.49V384.728H463.278V386H458.046Z" fill="#808283"/>
<rect x="493.25" y="366" width="1" height="8" fill="#313338"/>
<path d="M485.714 380.708V379.616C485.714 379.344 485.742 379.088 485.798 378.848C485.862 378.608 485.962 378.372 486.098 378.14C486.242 377.908 486.43 377.676 486.662 377.444L487.286 377.936C487.118 378.112 486.982 378.28 486.878 378.44C486.774 378.592 486.698 378.748 486.65 378.908C486.61 379.06 486.59 379.22 486.59 379.388L486.218 379.04H487.394V380.708H485.714ZM489.003 386V384.86L491.739 381.944C491.987 381.68 492.183 381.436 492.327 381.212C492.479 380.988 492.591 380.772 492.663 380.564C492.735 380.356 492.771 380.148 492.771 379.94C492.771 379.54 492.643 379.236 492.387 379.028C492.139 378.82 491.775 378.716 491.295 378.716C490.919 378.716 490.551 378.788 490.191 378.932C489.839 379.068 489.499 379.284 489.171 379.58L488.655 378.428C488.991 378.124 489.411 377.88 489.915 377.696C490.419 377.512 490.943 377.42 491.487 377.42C492.095 377.42 492.607 377.512 493.023 377.696C493.439 377.88 493.755 378.148 493.971 378.5C494.187 378.852 494.295 379.28 494.295 379.784C494.295 380.04 494.263 380.292 494.199 380.54C494.143 380.78 494.051 381.02 493.923 381.26C493.803 381.5 493.647 381.748 493.455 382.004C493.271 382.252 493.047 382.512 492.783 382.784L490.527 385.136V384.728H494.619V386H489.003ZM496.198 386V384.86L498.934 381.944C499.182 381.68 499.378 381.436 499.522 381.212C499.674 380.988 499.786 380.772 499.858 380.564C499.93 380.356 499.966 380.148 499.966 379.94C499.966 379.54 499.838 379.236 499.582 379.028C499.334 378.82 498.97 378.716 498.49 378.716C498.114 378.716 497.746 378.788 497.386 378.932C497.034 379.068 496.694 379.284 496.366 379.58L495.85 378.428C496.186 378.124 496.606 377.88 497.11 377.696C497.614 377.512 498.138 377.42 498.682 377.42C499.29 377.42 499.802 377.512 500.218 377.696C500.634 377.88 500.95 378.148 501.166 378.5C501.382 378.852 501.49 379.28 501.49 379.784C501.49 380.04 501.458 380.292 501.394 380.54C501.338 380.78 501.246 381.02 501.118 381.26C500.998 381.5 500.842 381.748 500.65 382.004C500.466 382.252 500.242 382.512 499.978 382.784L497.722 385.136V384.728H501.814V386H496.198Z" fill="#808283"/>
<path d="M58.0986 309.472H56.5635V300.975H55.5391V309.472H54V329.298H58.0986V309.472Z" fill="#EF454A"/>
<path d="M61.6807 329.297H63.2197V322.925H61.6807V318.677H60.6562V322.925H59.1211V329.297H60.6562V333.546H61.6807V329.297Z" fill="#2EBD85"/>
<path d="M68.3486 309.473H66.8135V303.1H65.7891V309.473H64.25V322.926H68.3486V309.473Z" fill="#2EBD85"/>
<path d="M71.9268 327.173H73.4697V309.472H71.9268V302.391H70.9023V309.472H69.3711V327.173H70.9023V329.298H71.9268V327.173Z" fill="#EF454A"/>
<path d="M77.0557 327.174H78.5908V316.554H77.0557V306.64H76.0312V316.554H74.4922V327.174H76.0312V347H77.0557V327.174Z" fill="#2EBD85"/>
<path d="M82.1768 315.845H83.7158V313.721H82.1768V300.267H81.1523V313.721H79.6172V315.845H81.1523V329.298H82.1768V315.845Z" fill="#2EBD85"/>
<path d="M87.3057 314.428H88.8408V305.224H87.3057V300.266H86.2812V305.224H84.7422V314.428H86.2812V319.384H87.3057V314.428Z" fill="#2EBD85"/>
<path d="M93.9658 305.223H92.4268V298.851H91.4023V305.223H89.8672V333.546H93.9658V305.223Z" fill="#EF454A"/>
<path d="M97.5518 333.547H99.0869V305.224H97.5518V302.392H96.5273V305.224H94.9883V333.547H96.5273V347H97.5518V333.547Z" fill="#2EBD85"/>
<rect width="4.09887" height="12.0372" transform="matrix(1 0 0 -1 100.113 305.931)" fill="#2EBD85"/>
<path d="M107.802 294.603H109.337V292.479H107.802V275.485H106.777V292.479H105.238V294.603H106.777V311.596H107.802V294.603Z" fill="#EF454A"/>
<path d="M112.919 318.677H114.458V293.895H112.919V293.894H111.895V293.895H110.359V318.677H111.895V327.881H112.919V318.677Z" fill="#EF454A"/>
<path d="M118.044 319.386H119.579V307.349H118.044V293.895H117.02V307.349H115.48V319.386H117.02V322.926H118.044V319.386Z" fill="#2EBD85"/>
<path d="M123.165 308.056H124.704V300.975H123.165V296.727H122.141V300.975H120.605V308.056H122.141V320.093H123.165V308.056Z" fill="#2EBD85"/>
<path d="M128.294 307.348H129.829V301.683H128.294V297.435H127.27V301.683H125.73V307.348H127.27V315.845H128.294V307.348Z" fill="#EF454A"/>
<path d="M140.075 283.274H138.536V280.441H137.512V283.274H135.977V298.851H140.075V283.274Z" fill="#2EBD85"/>
<path d="M133.419 307.348H134.954V298.143H133.419V292.478H132.395V298.143H130.855V307.348H132.395V320.801H133.419V307.348Z" fill="#2EBD85"/>
<path d="M143.657 283.274H145.196V258.492H143.657V249.994H142.633V258.492H141.098V283.274H142.633V289.646H143.657V283.274Z" fill="#2EBD85"/>
<path d="M148.79 280.44H150.325V258.49H148.79V254.95H147.766V258.49H146.227V280.44H147.766V283.981H148.79V280.44Z" fill="#EF454A"/>
<path d="M153.911 288.23H155.446V281.149H153.911V271.945H152.887V281.149H151.348V288.23H152.887V297.435H153.911V288.23Z" fill="#EF454A"/>
<path d="M159.028 288.229H160.567V281.148H159.028V268.404H158.004V281.148H156.469V288.229H158.004V300.976H159.028V288.229Z" fill="#2EBD85"/>
<path d="M164.157 310.181H165.692V281.149H164.157V276.193H163.133V281.149H161.594V310.181H163.133V312.305H164.157V310.181Z" fill="#EF454A"/>
<path d="M169.282 310.18H170.817V296.727H169.282V293.895H168.258V296.727H166.719V310.18H168.258V318.677H169.282V310.18Z" fill="#2EBD85"/>
<path d="M174.407 297.435H175.942V287.522H174.407V284.689H173.383V287.522H171.844V297.435H173.383V301.684H174.407V297.435Z" fill="#2EBD85"/>
<path d="M179.528 287.521H181.063V283.273H179.528V281.149H178.504V283.273H176.965V287.521H178.504V293.187H179.528V287.521Z" fill="#2EBD85"/>
<path d="M184.649 283.274H186.185V274.777H184.649V269.82H183.625V274.777H182.086V283.274H183.625V288.23H184.649V283.274Z" fill="#2EBD85"/>
<path d="M189.778 274.775H191.313V268.403H187.215V274.775H188.754V283.981H189.778V274.775Z" fill="#2EBD85"/>
<path d="M194.899 267.695H196.435V266.279H194.899V263.447H193.875V266.279H192.336V267.695H193.875V279.733H194.899V267.695Z" fill="#EF454A"/>
<path d="M201.556 258.49H200.021V246.453H198.996V258.49H197.457V267.695H201.556V258.49Z" fill="#2EBD85"/>
<path d="M205.146 259.198H206.681V254.242H205.146V248.578H204.121V254.242H202.582V259.198H204.121V264.864H205.146V259.198Z" fill="#2EBD85"/>
<path d="M210.271 254.95H211.806V221.671H210.271V206.095H209.246V221.671H207.707V254.95H209.246V259.2H210.271V254.95Z" fill="#2EBD85"/>
<path d="M215.392 221.671H216.931V212.467H215.392V206.093H214.367V212.467H212.832V221.671H214.367V223.795H215.392V221.671Z" fill="#2EBD85"/>
<path d="M220.517 217.422H222.052V212.466H217.953V217.422H219.492V225.92H220.517V217.422Z" fill="#EF454A"/>
<path d="M225.638 223.795H227.173V217.423H225.638V203.97H224.613V217.423H223.074V223.795H224.613V235.833H225.638V223.795Z" fill="#EF454A"/>
<path d="M231.274 223.794H232.81V217.422H231.274V196.888H230.25V217.422H228.711V223.794H230.25V228.043H231.274V223.794Z" fill="#2EBD85"/>
<path d="M236.399 248.578H237.935V217.424H236.399V217.423H235.375V217.424H233.836V248.578H235.375V250.702H236.399V248.578Z" fill="#EF454A"/>
<path d="M241.521 257.784H243.06V247.871H241.521V236.542H240.496V247.871H238.961V257.784H240.496V259.2H241.521V257.784Z" fill="#EF454A"/>
<path d="M246.642 265.57H248.181V257.782H246.642V254.951H245.617V257.782H244.082V265.57H245.617V270.528H246.642V265.57Z" fill="#EF454A"/>
<rect width="4.09887" height="20.5341" transform="matrix(1 0 0 -1 249.211 266.28)" fill="#2EBD85"/>
<path d="M256.896 245.037H258.431V243.621H256.896V240.789H255.871V243.621H254.332V245.037H255.871V262.739H256.896V245.037Z" fill="#2EBD85"/>
<path d="M262.017 258.49H263.552V243.621H259.453V258.49H260.992V263.447H262.017V258.49Z" fill="#EF454A"/>
<path d="M268.673 259.198H267.138V256.366H266.113V259.198H264.574V277.608H268.673V259.198Z" fill="#EF454A"/>
<path d="M273.798 266.28H272.263V262.74H271.238V266.28H269.699V276.901H273.798V266.28Z" fill="#2EBD85"/>
<path d="M277.388 265.57H278.923V262.738H277.388V256.367H276.363V262.738H274.824V265.57H276.363V271.944H277.388V265.57Z" fill="#2EBD85"/>
<path d="M282.513 264.864H284.048V257.076H282.513V252.118H281.488V257.076H279.949V264.864H281.488V268.404H282.513V264.864Z" fill="#2EBD85"/>
<path d="M287.634 257.783H289.169V255.659H287.634V252.119H286.609V255.659H285.07V257.783H286.609V261.324H287.634V257.783Z" fill="#EF454A"/>
<path d="M292.755 257.075H294.29V254.243H292.755V254.242H291.73V254.243H290.191V257.075H291.73V274.068H292.755V257.075Z" fill="#2EBD85"/>
<path d="M297.88 254.95H299.419V247.87H297.88V245.747H296.855V247.87H295.32V254.95H296.855V261.324H297.88V254.95Z" fill="#2EBD85"/>
<path d="M303.005 252.119H304.54V247.871H303.005V241.497H301.98V247.871H300.441V252.119H301.98V258.491H303.005V252.119Z" fill="#EF454A"/>
<path d="M308.126 252.118H309.661V245.746H308.126V240.789H307.102V245.746H305.562V252.118H307.102V254.95H308.126V252.118Z" fill="#2EBD85"/>
<path d="M313.247 274.776H314.786V245.038H310.688V274.776H312.223V281.149H313.247V274.776Z" fill="#EF454A"/>
<path d="M319.911 231.583H318.372V223.086H317.348V231.583H315.812V251.41H319.911V231.583Z" fill="#EF454A"/>
<path d="M323.505 251.41H325.04V245.037H323.505V240.79H322.48V245.037H320.941V251.41H322.48V255.659H323.505V251.41Z" fill="#2EBD85"/>
<path d="M330.157 231.585H328.618V225.212H327.594V231.585H326.059V245.038H330.157V231.585Z" fill="#2EBD85"/>
<path d="M333.751 249.286H335.29V231.583H333.751V224.502H332.727V231.583H331.191V249.286H332.727V251.41H333.751V249.286Z" fill="#EF454A"/>
<path d="M338.868 249.286H340.407V238.666H338.868V228.751H337.844V238.666H336.309V249.286H337.844V269.112H338.868V249.286Z" fill="#2EBD85"/>
<path d="M343.993 237.957H345.528V235.833H343.993V222.378H342.969V235.833H341.43V237.957H342.969V251.41H343.993V237.957Z" fill="#2EBD85"/>
<path d="M349.11 236.542H350.649V227.336H349.11V222.379H348.086V227.336H346.551V236.542H348.086V241.498H349.11V236.542Z" fill="#2EBD85"/>
<path d="M355.786 227.335H354.251V220.963H353.227V227.335H351.688V255.659H355.786V227.335Z" fill="#EF454A"/>
<path d="M359.368 255.66H360.907V227.336H359.368V224.503H358.344V227.336H356.809V255.66H358.344V269.112H359.368V255.66Z" fill="#2EBD85"/>
<rect width="4.09887" height="12.0372" transform="matrix(1 0 0 -1 361.93 228.043)" fill="#2EBD85"/>
<path d="M369.603 216.714H371.146V214.59H369.603V197.596H368.578V214.59H367.047V216.714H368.578V233.708H369.603V216.714Z" fill="#EF454A"/>
<path d="M374.743 240.789H376.278V216.007H372.18V240.789H373.719V249.994H374.743V240.789Z" fill="#EF454A"/>
<path d="M379.856 241.497H381.396V229.46H379.856V216.007H378.832V229.46H377.297V241.497H378.832V245.038H379.856V241.497Z" fill="#2EBD85"/>
<path d="M384.989 230.167H386.524V223.087H384.989V218.839H383.965V223.087H382.426V230.167H383.965V242.205H384.989V230.167Z" fill="#2EBD85"/>
<path d="M390.106 229.459H391.646V223.795H390.106V219.547H389.082V223.795H387.547V229.459H389.082V237.957H390.106V229.459Z" fill="#EF454A"/>
<path d="M401.896 205.385H400.36V202.552H399.336V205.385H397.797V220.962H401.896V205.385Z" fill="#2EBD85"/>
<path d="M395.239 229.46H396.774V220.255H395.239V214.591H394.215V220.255H392.676V229.46H394.215V242.914H395.239V229.46Z" fill="#2EBD85"/>
<path d="M405.481 205.384H407.017V180.602H405.481V172.105H404.457V180.602H402.918V205.384H404.457V211.757H405.481V205.384Z" fill="#2EBD85"/>
<path d="M410.606 202.553H412.142V180.603H410.606V177.062H409.582V180.603H408.043V202.553H409.582V206.094H410.606V202.553Z" fill="#EF454A"/>
<path d="M415.731 210.342H417.267V203.261H415.731V194.057H414.707V203.261H413.168V210.342H414.707V219.547H415.731V210.342Z" fill="#EF454A"/>
<path d="M420.856 210.34H422.392V203.26H420.856V190.516H419.832V203.26H418.293V210.34H419.832V223.087H420.856V210.34Z" fill="#2EBD85"/>
<path d="M425.974 232.292H427.513V203.262H425.974V198.306H424.949V203.262H423.414V232.292H424.949V234.417H425.974V232.292Z" fill="#EF454A"/>
<path d="M431.099 232.292H432.634V218.839H431.099V216.007H430.074V218.839H428.535V232.292H430.074V240.789H431.099V232.292Z" fill="#2EBD85"/>
<path d="M436.228 219.546H437.763V209.634H436.228V206.801H435.203V209.634H433.664V219.546H435.203V223.795H436.228V219.546Z" fill="#2EBD85"/>
<path d="M441.345 209.634H442.884V205.386H441.345V203.261H440.32V205.386H438.785V209.634H440.32V215.298H441.345V209.634Z" fill="#2EBD85"/>
<path d="M446.466 205.385H448.005V196.889H446.466V191.932H445.441V196.889H443.906V205.385H445.441V210.342H446.466V205.385Z" fill="#2EBD85"/>
<path d="M451.591 196.889H453.13V190.516H449.031V196.889H450.566V206.094H451.591V196.889Z" fill="#2EBD85"/>
<path d="M456.716 189.807H458.255V188.391H456.716V185.559H455.691V188.391H454.156V189.807H455.691V201.845H456.716V189.807Z" fill="#EF454A"/>
<path d="M463.38 180.603H461.845V168.565H460.82V180.603H459.281V189.808H463.38V180.603Z" fill="#2EBD85"/>
<path d="M466.966 181.31H468.501V176.354H466.966V170.69H465.941V176.354H464.402V181.31H465.941V186.976H466.966V181.31Z" fill="#2EBD85"/>
<path d="M472.087 177.063H473.622V143.784H472.087V128.206H471.062V143.784H469.523V177.063H471.062V181.312H472.087V177.063Z" fill="#2EBD85"/>
<path d="M477.216 143.783H478.751V134.578H477.216V128.205H476.191V134.578H474.652V143.783H476.191V145.907H477.216V143.783Z" fill="#2EBD85"/>
<path d="M482.337 139.534H483.872V134.578H479.773V139.534H481.312V148.032H482.337V139.534Z" fill="#EF454A"/>
<path d="M487.458 145.907H488.993V139.535H487.458V126.082H486.434V139.535H484.895V145.907H486.434V157.945H487.458V145.907Z" fill="#EF454A"/>
<path d="M493.095 145.906H494.63V139.534H493.095V119H492.07V139.534H490.531V145.906H492.07V150.155H493.095V145.906Z" fill="#2EBD85"/>
<path d="M498.212 170.691H499.751V139.536H498.212V139.535H497.188V139.536H495.652V170.691H497.188V172.814H498.212V170.691Z" fill="#EF454A"/>
<path d="M503.341 179.895H504.88V169.983H503.341V158.654H502.316V169.983H500.781V179.895H502.316V181.312H503.341V179.895Z" fill="#EF454A"/>
<path d="M508.462 187.683H510.001V179.895H508.462V177.063H507.438V179.895H505.902V187.683H507.438V192.64H508.462V187.683Z" fill="#EF454A"/>
</svg>
