<svg width="528" height="414" viewBox="0 0 528 414" fill="none" xmlns="http://www.w3.org/2000/svg">
<rect width="528" height="414" rx="8" fill="#181A20"/>
<path d="M25.72 42.24C23.96 42.24 22.448 41.888 21.184 41.184C19.936 40.464 18.976 39.456 18.304 38.16C17.632 36.848 17.296 35.304 17.296 33.528C17.296 31.752 17.632 30.216 18.304 28.92C18.976 27.624 19.936 26.624 21.184 25.92C22.448 25.2 23.96 24.84 25.72 24.84C26.856 24.84 27.928 25.016 28.936 25.368C29.96 25.72 30.8 26.224 31.456 26.88L30.448 29.328C29.728 28.72 28.992 28.28 28.24 28.008C27.488 27.72 26.68 27.576 25.816 27.576C24.104 27.576 22.8 28.096 21.904 29.136C21.008 30.16 20.56 31.624 20.56 33.528C20.56 35.432 21.008 36.904 21.904 37.944C22.8 38.984 24.104 39.504 25.816 39.504C26.68 39.504 27.488 39.368 28.24 39.096C28.992 38.808 29.728 38.36 30.448 37.752L31.456 40.2C30.8 40.84 29.96 41.344 28.936 41.712C27.928 42.064 26.856 42.24 25.72 42.24ZM38.3573 42.24C37.1413 42.24 36.0853 41.992 35.1893 41.496C34.2933 41 33.5973 40.296 33.1013 39.384C32.6053 38.456 32.3573 37.368 32.3573 36.12C32.3573 34.872 32.6053 33.792 33.1013 32.88C33.5973 31.968 34.2933 31.264 35.1893 30.768C36.0853 30.272 37.1413 30.024 38.3573 30.024C39.5733 30.024 40.6293 30.272 41.5253 30.768C42.4213 31.264 43.1173 31.968 43.6133 32.88C44.1093 33.792 44.3573 34.872 44.3573 36.12C44.3573 37.368 44.1093 38.456 43.6133 39.384C43.1173 40.296 42.4213 41 41.5253 41.496C40.6293 41.992 39.5733 42.24 38.3573 42.24ZM38.3573 39.96C39.2533 39.96 39.9733 39.64 40.5173 39C41.0613 38.344 41.3333 37.384 41.3333 36.12C41.3333 34.84 41.0613 33.888 40.5173 33.264C39.9733 32.624 39.2533 32.304 38.3573 32.304C37.4613 32.304 36.7413 32.624 36.1973 33.264C35.6533 33.888 35.3813 34.84 35.3813 36.12C35.3813 37.384 35.6533 38.344 36.1973 39C36.7413 39.64 37.4613 39.96 38.3573 39.96ZM46.6414 27.744V24.816H50.0014V27.744H46.6414ZM46.8334 42V30.264H49.8334V42H46.8334ZM52.9506 42V30.264H55.8786V32.616H55.6146C55.9666 31.768 56.5106 31.128 57.2466 30.696C57.9986 30.248 58.8466 30.024 59.7906 30.024C60.7346 30.024 61.5106 30.2 62.1186 30.552C62.7266 30.904 63.1826 31.44 63.4866 32.16C63.7906 32.864 63.9426 33.76 63.9426 34.848V42H60.9426V34.992C60.9426 34.384 60.8626 33.888 60.7026 33.504C60.5586 33.12 60.3266 32.84 60.0066 32.664C59.7026 32.472 59.3106 32.376 58.8306 32.376C58.2546 32.376 57.7506 32.504 57.3186 32.76C56.8866 33 56.5506 33.352 56.3106 33.816C56.0706 34.264 55.9506 34.792 55.9506 35.4V42H52.9506ZM73.7464 42V25.08H80.0344C81.9224 25.08 83.5224 25.408 84.8344 26.064C86.1624 26.72 87.1704 27.68 87.8584 28.944C88.5624 30.192 88.9144 31.72 88.9144 33.528C88.9144 35.336 88.5624 36.872 87.8584 38.136C87.1704 39.4 86.1624 40.36 84.8344 41.016C83.5224 41.672 81.9224 42 80.0344 42H73.7464ZM76.8184 39.456H79.8424C81.8104 39.456 83.2744 38.968 84.2344 37.992C85.2104 37 85.6984 35.512 85.6984 33.528C85.6984 31.544 85.2104 30.064 84.2344 29.088C83.2584 28.112 81.7944 27.624 79.8424 27.624H76.8184V39.456ZM97.0917 42.24C95.8757 42.24 94.8197 41.992 93.9237 41.496C93.0277 41 92.3317 40.296 91.8357 39.384C91.3397 38.456 91.0917 37.368 91.0917 36.12C91.0917 34.872 91.3397 33.792 91.8357 32.88C92.3317 31.968 93.0277 31.264 93.9237 30.768C94.8197 30.272 95.8757 30.024 97.0917 30.024C98.3077 30.024 99.3637 30.272 100.26 30.768C101.156 31.264 101.852 31.968 102.348 32.88C102.844 33.792 103.092 34.872 103.092 36.12C103.092 37.368 102.844 38.456 102.348 39.384C101.852 40.296 101.156 41 100.26 41.496C99.3637 41.992 98.3077 42.24 97.0917 42.24ZM97.0917 39.96C97.9877 39.96 98.7077 39.64 99.2517 39C99.7957 38.344 100.068 37.384 100.068 36.12C100.068 34.84 99.7957 33.888 99.2517 33.264C98.7077 32.624 97.9877 32.304 97.0917 32.304C96.1957 32.304 95.4757 32.624 94.9317 33.264C94.3877 33.888 94.1157 34.84 94.1157 36.12C94.1157 37.384 94.3877 38.344 94.9317 39C95.4757 39.64 96.1957 39.96 97.0917 39.96ZM105.616 42V30.264H108.544V32.616H108.28C108.488 32.072 108.776 31.608 109.144 31.224C109.512 30.84 109.952 30.544 110.464 30.336C110.976 30.128 111.544 30.024 112.168 30.024C113.112 30.024 113.888 30.248 114.496 30.696C115.104 31.144 115.528 31.832 115.768 32.76H115.432C115.752 31.912 116.28 31.248 117.016 30.768C117.752 30.272 118.6 30.024 119.56 30.024C120.456 30.024 121.192 30.2 121.768 30.552C122.36 30.904 122.8 31.44 123.088 32.16C123.376 32.864 123.52 33.76 123.52 34.848V42H120.52V34.968C120.52 34.072 120.368 33.416 120.064 33C119.776 32.584 119.28 32.376 118.576 32.376C118.064 32.376 117.616 32.504 117.232 32.76C116.848 33 116.552 33.352 116.344 33.816C116.152 34.28 116.056 34.84 116.056 35.496V42H113.056V34.968C113.056 34.072 112.904 33.416 112.6 33C112.312 32.584 111.824 32.376 111.136 32.376C110.608 32.376 110.152 32.504 109.768 32.76C109.4 33 109.112 33.352 108.904 33.816C108.712 34.28 108.616 34.84 108.616 35.496V42H105.616ZM126.423 27.744V24.816H129.783V27.744H126.423ZM126.615 42V30.264H129.615V42H126.615ZM132.732 42V30.264H135.66V32.616H135.396C135.748 31.768 136.292 31.128 137.028 30.696C137.78 30.248 138.628 30.024 139.572 30.024C140.516 30.024 141.292 30.2 141.9 30.552C142.508 30.904 142.964 31.44 143.268 32.16C143.572 32.864 143.724 33.76 143.724 34.848V42H140.724V34.992C140.724 34.384 140.644 33.888 140.484 33.504C140.34 33.12 140.108 32.84 139.788 32.664C139.484 32.472 139.092 32.376 138.612 32.376C138.036 32.376 137.532 32.504 137.1 32.76C136.668 33 136.332 33.352 136.092 33.816C135.852 34.264 135.732 34.792 135.732 35.4V42H132.732ZM150.635 42.24C149.787 42.24 149.027 42.08 148.355 41.76C147.699 41.424 147.179 40.976 146.795 40.416C146.427 39.856 146.243 39.224 146.243 38.52C146.243 37.656 146.467 36.976 146.915 36.48C147.363 35.968 148.091 35.6 149.099 35.376C150.107 35.152 151.459 35.04 153.155 35.04H154.355V36.768H153.179C152.427 36.768 151.795 36.8 151.283 36.864C150.771 36.912 150.355 37 150.035 37.128C149.731 37.24 149.507 37.4 149.363 37.608C149.235 37.816 149.171 38.072 149.171 38.376C149.171 38.904 149.355 39.336 149.723 39.672C150.091 40.008 150.603 40.176 151.259 40.176C151.787 40.176 152.251 40.056 152.651 39.816C153.067 39.56 153.395 39.216 153.635 38.784C153.875 38.352 153.995 37.856 153.995 37.296V34.536C153.995 33.736 153.819 33.16 153.467 32.808C153.115 32.456 152.523 32.28 151.691 32.28C151.035 32.28 150.363 32.384 149.675 32.592C148.987 32.784 148.291 33.088 147.587 33.504L146.723 31.464C147.139 31.176 147.627 30.928 148.187 30.72C148.763 30.496 149.363 30.328 149.987 30.216C150.627 30.088 151.227 30.024 151.787 30.024C152.939 30.024 153.883 30.2 154.619 30.552C155.371 30.904 155.931 31.44 156.299 32.16C156.667 32.864 156.851 33.776 156.851 34.896V42H154.043V39.504H154.235C154.123 40.064 153.899 40.552 153.563 40.968C153.243 41.368 152.835 41.68 152.339 41.904C151.843 42.128 151.275 42.24 150.635 42.24ZM159.896 42V30.264H162.824V32.616H162.56C162.912 31.768 163.456 31.128 164.192 30.696C164.944 30.248 165.792 30.024 166.736 30.024C167.68 30.024 168.456 30.2 169.064 30.552C169.672 30.904 170.128 31.44 170.432 32.16C170.736 32.864 170.888 33.76 170.888 34.848V42H167.888V34.992C167.888 34.384 167.808 33.888 167.648 33.504C167.504 33.12 167.272 32.84 166.952 32.664C166.648 32.472 166.256 32.376 165.776 32.376C165.2 32.376 164.696 32.504 164.264 32.76C163.832 33 163.496 33.352 163.256 33.816C163.016 34.264 162.896 34.792 162.896 35.4V42H159.896ZM179.359 42.24C178.127 42.24 177.055 41.992 176.143 41.496C175.231 40.984 174.527 40.264 174.031 39.336C173.535 38.408 173.287 37.32 173.287 36.072C173.287 34.824 173.535 33.752 174.031 32.856C174.527 31.944 175.231 31.248 176.143 30.768C177.055 30.272 178.127 30.024 179.359 30.024C180.111 30.024 180.855 30.144 181.591 30.384C182.327 30.624 182.935 30.96 183.415 31.392L182.527 33.48C182.111 33.112 181.639 32.832 181.111 32.64C180.599 32.448 180.103 32.352 179.623 32.352C178.583 32.352 177.775 32.68 177.199 33.336C176.639 33.976 176.359 34.896 176.359 36.096C176.359 37.28 176.639 38.216 177.199 38.904C177.775 39.576 178.583 39.912 179.623 39.912C180.087 39.912 180.583 39.816 181.111 39.624C181.639 39.432 182.111 39.144 182.527 38.76L183.415 40.872C182.935 41.288 182.319 41.624 181.567 41.88C180.831 42.12 180.095 42.24 179.359 42.24ZM190.805 42.24C189.477 42.24 188.333 41.992 187.373 41.496C186.413 41 185.669 40.296 185.141 39.384C184.629 38.472 184.373 37.392 184.373 36.144C184.373 34.928 184.621 33.864 185.117 32.952C185.629 32.04 186.325 31.328 187.205 30.816C188.101 30.288 189.117 30.024 190.253 30.024C191.373 30.024 192.333 30.264 193.133 30.744C193.933 31.224 194.549 31.904 194.981 32.784C195.429 33.664 195.653 34.712 195.653 35.928V36.816H186.797V35.088H193.541L193.157 35.448C193.157 34.36 192.917 33.528 192.437 32.952C191.957 32.36 191.269 32.064 190.373 32.064C189.701 32.064 189.125 32.224 188.645 32.544C188.181 32.848 187.821 33.288 187.565 33.864C187.325 34.424 187.205 35.096 187.205 35.88V36.048C187.205 36.928 187.341 37.656 187.613 38.232C187.885 38.808 188.293 39.24 188.837 39.528C189.381 39.816 190.053 39.96 190.853 39.96C191.509 39.96 192.165 39.864 192.821 39.672C193.477 39.464 194.077 39.144 194.621 38.712L195.461 40.728C194.901 41.192 194.197 41.56 193.349 41.832C192.501 42.104 191.653 42.24 190.805 42.24Z" fill="white"/>
<rect y="59" width="528" height="1" fill="#313338"/>
<rect x="16" y="80" width="8" height="8" rx="4" fill="#FFA800"/>
<path d="M32.86 88.12C31.98 88.12 31.224 87.944 30.592 87.592C29.968 87.232 29.488 86.728 29.152 86.08C28.816 85.424 28.648 84.652 28.648 83.764C28.648 82.876 28.816 82.108 29.152 81.46C29.488 80.812 29.968 80.312 30.592 79.96C31.224 79.6 31.98 79.42 32.86 79.42C33.428 79.42 33.964 79.508 34.468 79.684C34.98 79.86 35.4 80.112 35.728 80.44L35.224 81.664C34.864 81.36 34.496 81.14 34.12 81.004C33.744 80.86 33.34 80.788 32.908 80.788C32.052 80.788 31.4 81.048 30.952 81.568C30.504 82.08 30.28 82.812 30.28 83.764C30.28 84.716 30.504 85.452 30.952 85.972C31.4 86.492 32.052 86.752 32.908 86.752C33.34 86.752 33.744 86.684 34.12 86.548C34.496 86.404 34.864 86.18 35.224 85.876L35.728 87.1C35.4 87.42 34.98 87.672 34.468 87.856C33.964 88.032 33.428 88.12 32.86 88.12ZM40.591 88.12C39.975 88.12 39.415 88.02 38.911 87.82C38.415 87.612 37.987 87.316 37.627 86.932C37.275 86.548 37.003 86.088 36.811 85.552C36.619 85.016 36.523 84.42 36.523 83.764C36.523 83.1 36.619 82.504 36.811 81.976C37.003 81.44 37.275 80.984 37.627 80.608C37.987 80.224 38.415 79.932 38.911 79.732C39.415 79.524 39.975 79.42 40.591 79.42C41.207 79.42 41.763 79.524 42.259 79.732C42.763 79.932 43.191 80.22 43.543 80.596C43.903 80.972 44.179 81.428 44.371 81.964C44.563 82.492 44.659 83.088 44.659 83.752C44.659 84.416 44.563 85.016 44.371 85.552C44.179 86.088 43.903 86.548 43.543 86.932C43.191 87.316 42.763 87.612 42.259 87.82C41.763 88.02 41.207 88.12 40.591 88.12ZM40.591 86.8C41.111 86.8 41.551 86.68 41.911 86.44C42.279 86.2 42.559 85.852 42.751 85.396C42.951 84.94 43.051 84.396 43.051 83.764C43.051 83.124 42.955 82.58 42.763 82.132C42.571 81.676 42.291 81.332 41.923 81.1C41.555 80.86 41.111 80.74 40.591 80.74C40.079 80.74 39.639 80.86 39.271 81.1C38.903 81.332 38.619 81.676 38.419 82.132C38.227 82.58 38.131 83.124 38.131 83.764C38.131 84.396 38.227 84.94 38.419 85.396C38.619 85.852 38.903 86.2 39.271 86.44C39.639 86.68 40.079 86.8 40.591 86.8ZM46.2209 88V79.54H47.7569V88H46.2209ZM49.5959 88V79.54H50.7479L55.6079 85.852H55.2959V79.54H56.7239V88H55.5839L50.7239 81.676H51.0239V88H49.5959ZM61.8068 88V79.54H64.9508C65.8948 79.54 66.6948 79.704 67.3508 80.032C68.0148 80.36 68.5188 80.84 68.8628 81.472C69.2148 82.096 69.3908 82.86 69.3908 83.764C69.3908 84.668 69.2148 85.436 68.8628 86.068C68.5188 86.7 68.0148 87.18 67.3508 87.508C66.6948 87.836 65.8948 88 64.9508 88H61.8068ZM63.3428 86.728H64.8548C65.8388 86.728 66.5708 86.484 67.0508 85.996C67.5388 85.5 67.7828 84.756 67.7828 83.764C67.7828 82.772 67.5388 82.032 67.0508 81.544C66.5628 81.056 65.8308 80.812 64.8548 80.812H63.3428V86.728ZM74.7394 88.12C74.1234 88.12 73.5634 88.02 73.0594 87.82C72.5634 87.612 72.1354 87.316 71.7754 86.932C71.4234 86.548 71.1514 86.088 70.9594 85.552C70.7674 85.016 70.6714 84.42 70.6714 83.764C70.6714 83.1 70.7674 82.504 70.9594 81.976C71.1514 81.44 71.4234 80.984 71.7754 80.608C72.1354 80.224 72.5634 79.932 73.0594 79.732C73.5634 79.524 74.1234 79.42 74.7394 79.42C75.3554 79.42 75.9114 79.524 76.4074 79.732C76.9114 79.932 77.3394 80.22 77.6914 80.596C78.0514 80.972 78.3274 81.428 78.5194 81.964C78.7114 82.492 78.8074 83.088 78.8074 83.752C78.8074 84.416 78.7114 85.016 78.5194 85.552C78.3274 86.088 78.0514 86.548 77.6914 86.932C77.3394 87.316 76.9114 87.612 76.4074 87.82C75.9114 88.02 75.3554 88.12 74.7394 88.12ZM74.7394 86.8C75.2594 86.8 75.6994 86.68 76.0594 86.44C76.4274 86.2 76.7074 85.852 76.8994 85.396C77.0994 84.94 77.1994 84.396 77.1994 83.764C77.1994 83.124 77.1034 82.58 76.9114 82.132C76.7194 81.676 76.4394 81.332 76.0714 81.1C75.7034 80.86 75.2594 80.74 74.7394 80.74C74.2274 80.74 73.7874 80.86 73.4194 81.1C73.0514 81.332 72.7674 81.676 72.5674 82.132C72.3754 82.58 72.2794 83.124 72.2794 83.764C72.2794 84.396 72.3754 84.94 72.5674 85.396C72.7674 85.852 73.0514 86.2 73.4194 86.44C73.7874 86.68 74.2274 86.8 74.7394 86.8ZM80.3933 88V79.54H81.6773L84.8693 85.432H84.4853L87.6653 79.54H88.9253V88H87.5333V81.82H87.7973L85.1093 86.716H84.2093L81.4973 81.808H81.7853V88H80.3933ZM90.7873 88V79.54H92.3233V88H90.7873ZM94.1623 88V79.54H95.3143L100.174 85.852H99.8623V79.54H101.29V88H100.15L95.2903 81.676H95.5903V88H94.1623ZM102.227 88L106.055 79.54H107.315L111.143 88H109.583L108.563 85.624L109.211 86.044H104.147L104.795 85.624L103.787 88H102.227ZM106.667 81.208L104.987 85.204L104.675 84.82H108.683L108.383 85.204L106.691 81.208H106.667ZM112.069 88V79.54H113.221L118.081 85.852H117.769V79.54H119.197V88H118.057L113.197 81.676H113.497V88H112.069ZM124.981 88.12C124.101 88.12 123.345 87.944 122.713 87.592C122.089 87.232 121.609 86.728 121.273 86.08C120.937 85.424 120.769 84.652 120.769 83.764C120.769 82.876 120.937 82.108 121.273 81.46C121.609 80.812 122.089 80.312 122.713 79.96C123.345 79.6 124.101 79.42 124.981 79.42C125.549 79.42 126.085 79.508 126.589 79.684C127.101 79.86 127.521 80.112 127.849 80.44L127.345 81.664C126.985 81.36 126.617 81.14 126.241 81.004C125.865 80.86 125.461 80.788 125.029 80.788C124.173 80.788 123.521 81.048 123.073 81.568C122.625 82.08 122.401 82.812 122.401 83.764C122.401 84.716 122.625 85.452 123.073 85.972C123.521 86.492 124.173 86.752 125.029 86.752C125.461 86.752 125.865 86.684 126.241 86.548C126.617 86.404 126.985 86.18 127.345 85.876L127.849 87.1C127.521 87.42 127.101 87.672 126.589 87.856C126.085 88.032 125.549 88.12 124.981 88.12ZM129.19 88V79.54H134.818V80.764H130.666V83.092H134.554V84.316H130.666V86.776H134.818V88H129.19Z" fill="#808283"/>
<rect x="148" y="80" width="8" height="8" rx="4" fill="#A06AFF"/>
<path d="M160.924 88V79.54H164.596C165.22 79.54 165.748 79.644 166.18 79.852C166.612 80.06 166.94 80.36 167.164 80.752C167.388 81.144 167.5 81.62 167.5 82.18C167.5 82.732 167.388 83.208 167.164 83.608C166.94 84 166.612 84.304 166.18 84.52C165.748 84.728 165.22 84.832 164.596 84.832H162.46V88H160.924ZM162.46 83.62H164.356C164.9 83.62 165.312 83.5 165.592 83.26C165.872 83.012 166.012 82.652 166.012 82.18C166.012 81.708 165.872 81.352 165.592 81.112C165.312 80.872 164.9 80.752 164.356 80.752H162.46V83.62ZM168.752 88V79.54H172.424C173.352 79.54 174.068 79.764 174.572 80.212C175.076 80.652 175.328 81.272 175.328 82.072C175.328 82.592 175.212 83.04 174.98 83.416C174.756 83.792 174.428 84.08 173.996 84.28C173.564 84.48 173.04 84.58 172.424 84.58L172.532 84.4H172.928C173.256 84.4 173.54 84.48 173.78 84.64C174.028 84.8 174.244 85.052 174.428 85.396L175.844 88H174.152L172.688 85.3C172.592 85.124 172.484 84.988 172.364 84.892C172.244 84.788 172.108 84.716 171.956 84.676C171.804 84.636 171.628 84.616 171.428 84.616H170.288V88H168.752ZM170.288 83.476H172.16C172.712 83.476 173.128 83.364 173.408 83.14C173.696 82.908 173.84 82.564 173.84 82.108C173.84 81.66 173.696 81.324 173.408 81.1C173.128 80.868 172.712 80.752 172.16 80.752H170.288V83.476ZM176.979 88V79.54H178.515V88H176.979ZM184.29 88.12C183.41 88.12 182.654 87.944 182.022 87.592C181.398 87.232 180.918 86.728 180.582 86.08C180.246 85.424 180.078 84.652 180.078 83.764C180.078 82.876 180.246 82.108 180.582 81.46C180.918 80.812 181.398 80.312 182.022 79.96C182.654 79.6 183.41 79.42 184.29 79.42C184.858 79.42 185.394 79.508 185.898 79.684C186.41 79.86 186.83 80.112 187.158 80.44L186.654 81.664C186.294 81.36 185.926 81.14 185.55 81.004C185.174 80.86 184.77 80.788 184.338 80.788C183.482 80.788 182.83 81.048 182.382 81.568C181.934 82.08 181.71 82.812 181.71 83.764C181.71 84.716 181.934 85.452 182.382 85.972C182.83 86.492 183.482 86.752 184.338 86.752C184.77 86.752 185.174 86.684 185.55 86.548C185.926 86.404 186.294 86.18 186.654 85.876L187.158 87.1C186.83 87.42 186.41 87.672 185.898 87.856C185.394 88.032 184.858 88.12 184.29 88.12ZM188.498 88V79.54H194.126V80.764H189.974V83.092H193.862V84.316H189.974V86.776H194.126V88H188.498ZM200.825 90.34C200.233 89.46 199.809 88.564 199.553 87.652C199.297 86.732 199.169 85.796 199.169 84.844C199.169 83.884 199.297 82.948 199.553 82.036C199.809 81.124 200.233 80.228 200.825 79.348L201.845 79.756C201.597 80.364 201.393 80.948 201.233 81.508C201.073 82.06 200.957 82.608 200.885 83.152C200.813 83.696 200.777 84.26 200.777 84.844C200.777 85.42 200.813 85.984 200.885 86.536C200.957 87.08 201.073 87.628 201.233 88.18C201.393 88.732 201.597 89.316 201.845 89.932L200.825 90.34ZM205.39 89.38V87.808L205.666 88.072C205.082 88.056 204.53 87.968 204.01 87.808C203.498 87.64 203.054 87.408 202.678 87.112L203.146 85.9C203.394 86.084 203.658 86.244 203.938 86.38C204.226 86.508 204.526 86.608 204.838 86.68C205.158 86.744 205.498 86.776 205.858 86.776C206.442 86.776 206.87 86.672 207.142 86.464C207.414 86.256 207.55 85.996 207.55 85.684C207.55 85.404 207.458 85.18 207.274 85.012C207.09 84.844 206.762 84.708 206.29 84.604L205.018 84.328C204.298 84.168 203.754 83.904 203.386 83.536C203.026 83.16 202.846 82.664 202.846 82.048C202.846 81.576 202.962 81.156 203.194 80.788C203.426 80.412 203.75 80.112 204.166 79.888C204.582 79.664 205.07 79.532 205.63 79.492L205.39 79.672V78.16H206.59V79.672L206.338 79.48C206.794 79.504 207.242 79.596 207.682 79.756C208.13 79.916 208.502 80.148 208.798 80.452L208.342 81.604C208.038 81.324 207.69 81.116 207.298 80.98C206.906 80.836 206.478 80.764 206.014 80.764C205.518 80.764 205.118 80.88 204.814 81.112C204.518 81.336 204.37 81.632 204.37 82C204.37 82.272 204.462 82.492 204.646 82.66C204.83 82.828 205.126 82.956 205.534 83.044L206.806 83.32C207.574 83.488 208.142 83.756 208.51 84.124C208.886 84.484 209.074 84.964 209.074 85.564C209.074 86.028 208.958 86.44 208.726 86.8C208.494 87.152 208.174 87.436 207.766 87.652C207.366 87.86 206.898 87.992 206.362 88.048L206.59 87.796V89.38H205.39ZM210.905 90.34L209.885 89.932C210.133 89.308 210.333 88.716 210.485 88.156C210.645 87.604 210.761 87.06 210.833 86.524C210.913 85.98 210.953 85.42 210.953 84.844C210.953 84.268 210.913 83.712 210.833 83.176C210.761 82.632 210.645 82.08 210.485 81.52C210.333 80.96 210.133 80.372 209.885 79.756L210.905 79.348C211.497 80.228 211.921 81.128 212.177 82.048C212.433 82.96 212.561 83.892 212.561 84.844C212.561 85.796 212.433 86.732 212.177 87.652C211.921 88.564 211.497 89.46 210.905 90.34Z" fill="#808283"/>
<rect x="58" y="115.5" width="404" height="1" fill="#23252D"/>
<rect x="58" y="151.214" width="404" height="1" fill="#23252D"/>
<path d="M485.565 157.094V155.522L485.841 155.786C485.257 155.77 484.705 155.682 484.185 155.522C483.673 155.354 483.229 155.122 482.853 154.826L483.321 153.614C483.569 153.798 483.833 153.958 484.113 154.094C484.401 154.222 484.701 154.322 485.013 154.394C485.333 154.458 485.673 154.49 486.033 154.49C486.617 154.49 487.045 154.386 487.317 154.178C487.589 153.97 487.725 153.71 487.725 153.398C487.725 153.118 487.633 152.894 487.449 152.726C487.265 152.558 486.937 152.422 486.465 152.318L485.193 152.042C484.473 151.882 483.929 151.618 483.561 151.25C483.201 150.874 483.021 150.378 483.021 149.762C483.021 149.29 483.137 148.87 483.369 148.502C483.601 148.126 483.925 147.826 484.341 147.602C484.757 147.378 485.245 147.246 485.805 147.206L485.565 147.386V145.874H486.765V147.386L486.513 147.194C486.969 147.218 487.417 147.31 487.857 147.47C488.305 147.63 488.677 147.862 488.973 148.166L488.517 149.318C488.213 149.038 487.865 148.83 487.473 148.694C487.081 148.55 486.653 148.478 486.189 148.478C485.693 148.478 485.293 148.594 484.989 148.826C484.693 149.05 484.545 149.346 484.545 149.714C484.545 149.986 484.637 150.206 484.821 150.374C485.005 150.542 485.301 150.67 485.709 150.758L486.981 151.034C487.749 151.202 488.317 151.47 488.685 151.838C489.061 152.198 489.249 152.678 489.249 153.278C489.249 153.742 489.133 154.154 488.901 154.514C488.669 154.866 488.349 155.15 487.941 155.366C487.541 155.574 487.073 155.706 486.537 155.762L486.765 155.51V157.094H485.565ZM493.553 155.834C492.857 155.834 492.261 155.67 491.765 155.342C491.277 155.006 490.905 154.526 490.649 153.902C490.393 153.278 490.265 152.522 490.265 151.634C490.265 150.674 490.409 149.862 490.697 149.198C490.985 148.526 491.401 148.014 491.945 147.662C492.489 147.31 493.141 147.134 493.901 147.134C494.197 147.134 494.493 147.174 494.789 147.254C495.093 147.326 495.377 147.434 495.641 147.578C495.913 147.714 496.153 147.882 496.361 148.082L495.857 149.234C495.561 148.962 495.245 148.762 494.909 148.634C494.573 148.498 494.229 148.43 493.877 148.43C493.533 148.43 493.225 148.494 492.953 148.622C492.689 148.742 492.465 148.926 492.281 149.174C492.097 149.414 491.957 149.718 491.861 150.086C491.773 150.446 491.729 150.866 491.729 151.346V152.246H491.585C491.649 151.838 491.781 151.49 491.981 151.202C492.189 150.906 492.453 150.682 492.773 150.53C493.093 150.37 493.449 150.29 493.841 150.29C494.329 150.29 494.761 150.406 495.137 150.638C495.513 150.87 495.809 151.19 496.025 151.598C496.241 152.006 496.349 152.474 496.349 153.002C496.349 153.546 496.229 154.034 495.989 154.466C495.757 154.89 495.429 155.226 495.005 155.474C494.589 155.714 494.105 155.834 493.553 155.834ZM493.469 154.61C493.757 154.61 494.009 154.546 494.225 154.418C494.449 154.29 494.621 154.11 494.741 153.878C494.861 153.638 494.921 153.366 494.921 153.062C494.921 152.75 494.861 152.478 494.741 152.246C494.621 152.014 494.449 151.834 494.225 151.706C494.009 151.57 493.757 151.502 493.469 151.502C493.181 151.502 492.929 151.57 492.713 151.706C492.497 151.834 492.325 152.014 492.197 152.246C492.077 152.478 492.017 152.75 492.017 153.062C492.017 153.366 492.077 153.638 492.197 153.878C492.325 154.11 492.497 154.29 492.713 154.418C492.929 154.546 493.181 154.61 493.469 154.61ZM500.436 155.834C499.772 155.834 499.208 155.666 498.744 155.33C498.288 154.986 497.94 154.49 497.7 153.842C497.468 153.194 497.352 152.402 497.352 151.466C497.352 150.522 497.468 149.73 497.7 149.09C497.94 148.442 498.288 147.954 498.744 147.626C499.208 147.298 499.772 147.134 500.436 147.134C501.108 147.134 501.672 147.298 502.128 147.626C502.592 147.954 502.94 148.438 503.172 149.078C503.404 149.718 503.52 150.51 503.52 151.454C503.52 152.39 503.4 153.186 503.16 153.842C502.928 154.49 502.584 154.986 502.128 155.33C501.672 155.666 501.108 155.834 500.436 155.834ZM500.436 154.574C500.98 154.574 501.38 154.326 501.636 153.83C501.9 153.326 502.032 152.534 502.032 151.454C502.032 150.382 501.9 149.606 501.636 149.126C501.38 148.638 500.98 148.394 500.436 148.394C499.9 148.394 499.5 148.638 499.236 149.126C498.972 149.606 498.84 150.386 498.84 151.466C498.84 152.538 498.972 153.326 499.236 153.83C499.5 154.326 499.9 154.574 500.436 154.574ZM504.955 155.714V147.254H506.491V150.998H506.515L510.247 147.254H512.119L507.655 151.67L507.667 150.974L512.323 155.714H510.427L506.515 151.802H506.491V155.714H504.955Z" fill="#808283"/>
<rect x="58" y="186.929" width="404" height="1" fill="#23252D"/>
<rect x="58" y="222.643" width="404" height="1" fill="#23252D"/>
<path d="M485.565 228.523V226.951L485.841 227.215C485.257 227.199 484.705 227.111 484.185 226.951C483.673 226.783 483.229 226.551 482.853 226.255L483.321 225.043C483.569 225.227 483.833 225.387 484.113 225.523C484.401 225.651 484.701 225.751 485.013 225.823C485.333 225.887 485.673 225.919 486.033 225.919C486.617 225.919 487.045 225.815 487.317 225.607C487.589 225.399 487.725 225.139 487.725 224.827C487.725 224.547 487.633 224.323 487.449 224.155C487.265 223.987 486.937 223.851 486.465 223.747L485.193 223.471C484.473 223.311 483.929 223.047 483.561 222.679C483.201 222.303 483.021 221.807 483.021 221.191C483.021 220.719 483.137 220.299 483.369 219.931C483.601 219.555 483.925 219.255 484.341 219.031C484.757 218.807 485.245 218.675 485.805 218.635L485.565 218.815V217.303H486.765V218.815L486.513 218.623C486.969 218.647 487.417 218.739 487.857 218.899C488.305 219.059 488.677 219.291 488.973 219.595L488.517 220.747C488.213 220.467 487.865 220.259 487.473 220.123C487.081 219.979 486.653 219.907 486.189 219.907C485.693 219.907 485.293 220.023 484.989 220.255C484.693 220.479 484.545 220.775 484.545 221.143C484.545 221.415 484.637 221.635 484.821 221.803C485.005 221.971 485.301 222.099 485.709 222.187L486.981 222.463C487.749 222.631 488.317 222.899 488.685 223.267C489.061 223.627 489.249 224.107 489.249 224.707C489.249 225.171 489.133 225.583 488.901 225.943C488.669 226.295 488.349 226.579 487.941 226.795C487.541 227.003 487.073 227.135 486.537 227.191L486.765 226.939V228.523H485.565ZM490.601 227.143V226.003L493.337 223.087C493.585 222.823 493.781 222.579 493.925 222.355C494.077 222.131 494.189 221.915 494.261 221.707C494.333 221.499 494.369 221.291 494.369 221.083C494.369 220.683 494.241 220.379 493.985 220.171C493.737 219.963 493.373 219.859 492.893 219.859C492.517 219.859 492.149 219.931 491.789 220.075C491.437 220.211 491.097 220.427 490.769 220.723L490.253 219.571C490.589 219.267 491.009 219.023 491.513 218.839C492.017 218.655 492.541 218.563 493.085 218.563C493.693 218.563 494.205 218.655 494.621 218.839C495.037 219.023 495.353 219.291 495.569 219.643C495.785 219.995 495.893 220.423 495.893 220.927C495.893 221.183 495.861 221.435 495.797 221.683C495.741 221.923 495.649 222.163 495.521 222.403C495.401 222.643 495.245 222.891 495.053 223.147C494.869 223.395 494.645 223.655 494.381 223.927L492.125 226.279V225.871H496.217V227.143H490.601ZM500.436 227.263C499.772 227.263 499.208 227.095 498.744 226.759C498.288 226.415 497.94 225.919 497.7 225.271C497.468 224.623 497.352 223.831 497.352 222.895C497.352 221.951 497.468 221.159 497.7 220.519C497.94 219.871 498.288 219.383 498.744 219.055C499.208 218.727 499.772 218.563 500.436 218.563C501.108 218.563 501.672 218.727 502.128 219.055C502.592 219.383 502.94 219.867 503.172 220.507C503.404 221.147 503.52 221.939 503.52 222.883C503.52 223.819 503.4 224.615 503.16 225.271C502.928 225.919 502.584 226.415 502.128 226.759C501.672 227.095 501.108 227.263 500.436 227.263ZM500.436 226.003C500.98 226.003 501.38 225.755 501.636 225.259C501.9 224.755 502.032 223.963 502.032 222.883C502.032 221.811 501.9 221.035 501.636 220.555C501.38 220.067 500.98 219.823 500.436 219.823C499.9 219.823 499.5 220.067 499.236 220.555C498.972 221.035 498.84 221.815 498.84 222.895C498.84 223.967 498.972 224.755 499.236 225.259C499.5 225.755 499.9 226.003 500.436 226.003ZM504.955 227.143V218.683H506.491V222.427H506.515L510.247 218.683H512.119L507.655 223.099L507.667 222.403L512.323 227.143H510.427L506.515 223.231H506.491V227.143H504.955Z" fill="#808283"/>
<rect x="58" y="258.357" width="404" height="1" fill="#23252D"/>
<rect x="58" y="294.071" width="404" height="1" fill="#23252D"/>
<path d="M492.761 299.951V298.379L493.037 298.643C492.453 298.627 491.901 298.539 491.381 298.379C490.869 298.211 490.425 297.979 490.049 297.683L490.517 296.471C490.765 296.655 491.029 296.815 491.309 296.951C491.597 297.079 491.897 297.179 492.209 297.251C492.529 297.315 492.869 297.347 493.229 297.347C493.813 297.347 494.241 297.243 494.513 297.035C494.785 296.827 494.921 296.567 494.921 296.255C494.921 295.975 494.829 295.751 494.645 295.583C494.461 295.415 494.133 295.279 493.661 295.175L492.389 294.899C491.669 294.739 491.125 294.475 490.757 294.107C490.397 293.731 490.217 293.235 490.217 292.619C490.217 292.147 490.333 291.727 490.565 291.359C490.797 290.983 491.121 290.683 491.537 290.459C491.953 290.235 492.441 290.103 493.001 290.063L492.761 290.243V288.731H493.961V290.243L493.709 290.051C494.165 290.075 494.613 290.167 495.053 290.327C495.501 290.487 495.873 290.719 496.169 291.023L495.713 292.175C495.409 291.895 495.061 291.687 494.669 291.551C494.277 291.407 493.849 291.335 493.385 291.335C492.889 291.335 492.489 291.451 492.185 291.683C491.889 291.907 491.741 292.203 491.741 292.571C491.741 292.843 491.833 293.063 492.017 293.231C492.201 293.399 492.497 293.527 492.905 293.615L494.177 293.891C494.945 294.059 495.513 294.327 495.881 294.695C496.257 295.055 496.445 295.535 496.445 296.135C496.445 296.599 496.329 297.011 496.097 297.371C495.865 297.723 495.545 298.007 495.137 298.223C494.737 298.431 494.269 298.563 493.733 298.619L493.961 298.367V299.951H492.761ZM500.436 298.691C499.452 298.691 498.68 298.479 498.12 298.055C497.568 297.631 497.292 297.043 497.292 296.291C497.292 295.891 497.372 295.539 497.532 295.235C497.7 294.923 497.928 294.671 498.216 294.479C498.504 294.287 498.832 294.167 499.2 294.119V294.371C498.864 294.299 498.568 294.167 498.312 293.975C498.056 293.775 497.856 293.531 497.712 293.243C497.576 292.947 497.508 292.623 497.508 292.271C497.508 291.559 497.772 291.003 498.3 290.603C498.828 290.195 499.544 289.991 500.448 289.991C501.344 289.991 502.056 290.195 502.584 290.603C503.112 291.003 503.376 291.559 503.376 292.271C503.376 292.623 503.304 292.947 503.16 293.243C503.024 293.539 502.828 293.783 502.572 293.975C502.324 294.167 502.032 294.295 501.696 294.359V294.119C502.072 294.167 502.4 294.291 502.68 294.491C502.96 294.683 503.18 294.935 503.34 295.247C503.5 295.551 503.58 295.899 503.58 296.291C503.58 297.043 503.3 297.631 502.74 298.055C502.188 298.479 501.42 298.691 500.436 298.691ZM500.436 297.491C501.004 297.491 501.432 297.383 501.72 297.167C502.008 296.943 502.152 296.615 502.152 296.183C502.152 295.751 502.008 295.427 501.72 295.211C501.432 294.995 501.004 294.887 500.436 294.887C499.876 294.887 499.448 294.995 499.152 295.211C498.864 295.427 498.72 295.751 498.72 296.183C498.72 296.615 498.864 296.943 499.152 297.167C499.448 297.383 499.876 297.491 500.436 297.491ZM500.436 293.687C500.908 293.687 501.276 293.575 501.54 293.351C501.812 293.127 501.948 292.819 501.948 292.427C501.948 292.043 501.812 291.743 501.54 291.527C501.276 291.303 500.908 291.191 500.436 291.191C499.964 291.191 499.596 291.303 499.332 291.527C499.068 291.743 498.936 292.047 498.936 292.439C498.936 292.823 499.068 293.127 499.332 293.351C499.596 293.575 499.964 293.687 500.436 293.687ZM504.955 298.571V290.111H506.491V293.855H506.515L510.247 290.111H512.119L507.655 294.527L507.667 293.831L512.323 298.571H510.427L506.515 294.659H506.491V298.571H504.955Z" fill="#808283"/>
<rect x="58" y="329.786" width="404" height="1" fill="#23252D"/>
<rect x="58" y="365.5" width="404" height="1" fill="#313338"/>
<path d="M508.405 370.12C507.741 370.12 507.177 369.952 506.713 369.616C506.257 369.272 505.909 368.776 505.669 368.128C505.437 367.48 505.321 366.688 505.321 365.752C505.321 364.808 505.437 364.016 505.669 363.376C505.909 362.728 506.257 362.24 506.713 361.912C507.177 361.584 507.741 361.42 508.405 361.42C509.077 361.42 509.641 361.584 510.097 361.912C510.561 362.24 510.909 362.724 511.141 363.364C511.373 364.004 511.489 364.796 511.489 365.74C511.489 366.676 511.369 367.472 511.129 368.128C510.897 368.776 510.553 369.272 510.097 369.616C509.641 369.952 509.077 370.12 508.405 370.12ZM508.405 368.86C508.949 368.86 509.349 368.612 509.605 368.116C509.869 367.612 510.001 366.82 510.001 365.74C510.001 364.668 509.869 363.892 509.605 363.412C509.349 362.924 508.949 362.68 508.405 362.68C507.869 362.68 507.469 362.924 507.205 363.412C506.941 363.892 506.809 364.672 506.809 365.752C506.809 366.824 506.941 367.612 507.205 368.116C507.469 368.612 507.869 368.86 508.405 368.86Z" fill="#808283"/>
<rect x="73.1992" y="366" width="1" height="8" fill="#313338"/>
<path d="M65.9648 386.12C65.3488 386.12 64.7888 386.02 64.2848 385.82C63.7888 385.612 63.3608 385.316 63.0008 384.932C62.6488 384.548 62.3768 384.088 62.1848 383.552C61.9928 383.016 61.8968 382.42 61.8968 381.764C61.8968 381.1 61.9928 380.504 62.1848 379.976C62.3768 379.44 62.6488 378.984 63.0008 378.608C63.3608 378.224 63.7888 377.932 64.2848 377.732C64.7888 377.524 65.3488 377.42 65.9648 377.42C66.5808 377.42 67.1368 377.524 67.6328 377.732C68.1368 377.932 68.5648 378.22 68.9168 378.596C69.2768 378.972 69.5528 379.428 69.7448 379.964C69.9368 380.492 70.0328 381.088 70.0328 381.752C70.0328 382.416 69.9368 383.016 69.7448 383.552C69.5528 384.088 69.2768 384.548 68.9168 384.932C68.5648 385.316 68.1368 385.612 67.6328 385.82C67.1368 386.02 66.5808 386.12 65.9648 386.12ZM65.9648 384.8C66.4848 384.8 66.9248 384.68 67.2848 384.44C67.6528 384.2 67.9328 383.852 68.1248 383.396C68.3248 382.94 68.4248 382.396 68.4248 381.764C68.4248 381.124 68.3288 380.58 68.1368 380.132C67.9448 379.676 67.6648 379.332 67.2968 379.1C66.9288 378.86 66.4848 378.74 65.9648 378.74C65.4528 378.74 65.0128 378.86 64.6448 379.1C64.2768 379.332 63.9928 379.676 63.7928 380.132C63.6008 380.58 63.5048 381.124 63.5048 381.764C63.5048 382.396 63.6008 382.94 63.7928 383.396C63.9928 383.852 64.2768 384.2 64.6448 384.44C65.0128 384.68 65.4528 384.8 65.9648 384.8ZM75.5307 386.12C74.6507 386.12 73.8947 385.944 73.2627 385.592C72.6387 385.232 72.1587 384.728 71.8227 384.08C71.4867 383.424 71.3187 382.652 71.3187 381.764C71.3187 380.876 71.4867 380.108 71.8227 379.46C72.1587 378.812 72.6387 378.312 73.2627 377.96C73.8947 377.6 74.6507 377.42 75.5307 377.42C76.0987 377.42 76.6347 377.508 77.1387 377.684C77.6507 377.86 78.0707 378.112 78.3987 378.44L77.8947 379.664C77.5347 379.36 77.1667 379.14 76.7907 379.004C76.4147 378.86 76.0107 378.788 75.5787 378.788C74.7227 378.788 74.0707 379.048 73.6227 379.568C73.1747 380.08 72.9507 380.812 72.9507 381.764C72.9507 382.716 73.1747 383.452 73.6227 383.972C74.0707 384.492 74.7227 384.752 75.5787 384.752C76.0107 384.752 76.4147 384.684 76.7907 384.548C77.1667 384.404 77.5347 384.18 77.8947 383.876L78.3987 385.1C78.0707 385.42 77.6507 385.672 77.1387 385.856C76.6347 386.032 76.0987 386.12 75.5307 386.12ZM81.662 386V378.824H78.758V377.54H86.102V378.824H83.198V386H81.662Z" fill="#808283"/>
<rect x="114.598" y="366" width="1" height="8" fill="#313338"/>
<path d="M104.001 386.108L103.893 384.848L104.745 384.8C104.985 384.784 105.181 384.732 105.333 384.644C105.493 384.548 105.613 384.416 105.693 384.248C105.773 384.072 105.813 383.864 105.813 383.624V377.54H107.349V383.612C107.349 384.116 107.261 384.544 107.085 384.896C106.909 385.248 106.645 385.52 106.293 385.712C105.941 385.904 105.505 386.02 104.985 386.06L104.001 386.108ZM108.29 386L112.118 377.54H113.378L117.206 386H115.646L114.626 383.624L115.274 384.044H110.21L110.858 383.624L109.85 386H108.29ZM112.73 379.208L111.05 383.204L110.738 382.82H114.746L114.446 383.204L112.754 379.208H112.73ZM118.132 386V377.54H119.284L124.144 383.852H123.832V377.54H125.26V386H124.12L119.26 379.676H119.56V386H118.132Z" fill="#808283"/>
<rect x="156" y="366" width="1" height="8" fill="#313338"/>
<path d="M144.021 386L147.849 377.54H149.109L152.937 386H151.377L150.357 383.624L151.005 384.044H145.941L146.589 383.624L145.581 386H144.021ZM148.461 379.208L146.781 383.204L146.469 382.82H150.477L150.177 383.204L148.485 379.208H148.461ZM153.862 386V377.54H157.534C158.158 377.54 158.686 377.644 159.118 377.852C159.55 378.06 159.878 378.36 160.102 378.752C160.326 379.144 160.438 379.62 160.438 380.18C160.438 380.732 160.326 381.208 160.102 381.608C159.878 382 159.55 382.304 159.118 382.52C158.686 382.728 158.158 382.832 157.534 382.832H155.398V386H153.862ZM155.398 381.62H157.294C157.838 381.62 158.25 381.5 158.53 381.26C158.81 381.012 158.95 380.652 158.95 380.18C158.95 379.708 158.81 379.352 158.53 379.112C158.25 378.872 157.838 378.752 157.294 378.752H155.398V381.62ZM161.69 386V377.54H165.362C166.29 377.54 167.006 377.764 167.51 378.212C168.014 378.652 168.266 379.272 168.266 380.072C168.266 380.592 168.15 381.04 167.918 381.416C167.694 381.792 167.366 382.08 166.934 382.28C166.502 382.48 165.978 382.58 165.362 382.58L165.47 382.4H165.866C166.194 382.4 166.478 382.48 166.718 382.64C166.966 382.8 167.182 383.052 167.366 383.396L168.782 386H167.09L165.626 383.3C165.53 383.124 165.422 382.988 165.302 382.892C165.182 382.788 165.046 382.716 164.894 382.676C164.742 382.636 164.566 382.616 164.366 382.616H163.226V386H161.69ZM163.226 381.476H165.098C165.65 381.476 166.066 381.364 166.346 381.14C166.634 380.908 166.778 380.564 166.778 380.108C166.778 379.66 166.634 379.324 166.346 379.1C166.066 378.868 165.65 378.752 165.098 378.752H163.226V381.476Z" fill="#808283"/>
<rect x="197.398" y="366" width="1" height="8" fill="#313338"/>
<path d="M187.956 386.108L187.848 384.848L188.7 384.8C188.94 384.784 189.136 384.732 189.288 384.644C189.448 384.548 189.568 384.416 189.648 384.248C189.728 384.072 189.768 383.864 189.768 383.624V377.54H191.304V383.612C191.304 384.116 191.216 384.544 191.04 384.896C190.864 385.248 190.6 385.52 190.248 385.712C189.896 385.904 189.46 386.02 188.94 386.06L187.956 386.108ZM196.673 386.12C195.513 386.12 194.625 385.82 194.009 385.22C193.401 384.612 193.097 383.716 193.097 382.532V377.54H194.633V382.52C194.633 383.28 194.805 383.852 195.149 384.236C195.501 384.612 196.009 384.8 196.673 384.8C197.337 384.8 197.841 384.612 198.185 384.236C198.529 383.852 198.701 383.28 198.701 382.52V377.54H200.225V382.532C200.225 383.716 199.925 384.612 199.325 385.22C198.725 385.82 197.841 386.12 196.673 386.12ZM202.017 386V377.54H203.553V384.692H207.609V386H202.017Z" fill="#808283"/>
<rect x="238.801" y="366" width="1" height="8" fill="#313338"/>
<path d="M231.566 386.12C230.95 386.12 230.39 386.02 229.886 385.82C229.39 385.612 228.962 385.316 228.602 384.932C228.25 384.548 227.978 384.088 227.786 383.552C227.594 383.016 227.498 382.42 227.498 381.764C227.498 381.1 227.594 380.504 227.786 379.976C227.978 379.44 228.25 378.984 228.602 378.608C228.962 378.224 229.39 377.932 229.886 377.732C230.39 377.524 230.95 377.42 231.566 377.42C232.182 377.42 232.738 377.524 233.234 377.732C233.738 377.932 234.166 378.22 234.518 378.596C234.878 378.972 235.154 379.428 235.346 379.964C235.538 380.492 235.634 381.088 235.634 381.752C235.634 382.416 235.538 383.016 235.346 383.552C235.154 384.088 234.878 384.548 234.518 384.932C234.166 385.316 233.738 385.612 233.234 385.82C232.738 386.02 232.182 386.12 231.566 386.12ZM231.566 384.8C232.086 384.8 232.526 384.68 232.886 384.44C233.254 384.2 233.534 383.852 233.726 383.396C233.926 382.94 234.026 382.396 234.026 381.764C234.026 381.124 233.93 380.58 233.738 380.132C233.546 379.676 233.266 379.332 232.898 379.1C232.53 378.86 232.086 378.74 231.566 378.74C231.054 378.74 230.614 378.86 230.246 379.1C229.878 379.332 229.594 379.676 229.394 380.132C229.202 380.58 229.106 381.124 229.106 381.764C229.106 382.396 229.202 382.94 229.394 383.396C229.594 383.852 229.878 384.2 230.246 384.44C230.614 384.68 231.054 384.8 231.566 384.8ZM241.132 386.12C240.252 386.12 239.496 385.944 238.864 385.592C238.24 385.232 237.76 384.728 237.424 384.08C237.088 383.424 236.92 382.652 236.92 381.764C236.92 380.876 237.088 380.108 237.424 379.46C237.76 378.812 238.24 378.312 238.864 377.96C239.496 377.6 240.252 377.42 241.132 377.42C241.7 377.42 242.236 377.508 242.74 377.684C243.252 377.86 243.672 378.112 244 378.44L243.496 379.664C243.136 379.36 242.768 379.14 242.392 379.004C242.016 378.86 241.612 378.788 241.18 378.788C240.324 378.788 239.672 379.048 239.224 379.568C238.776 380.08 238.552 380.812 238.552 381.764C238.552 382.716 238.776 383.452 239.224 383.972C239.672 384.492 240.324 384.752 241.18 384.752C241.612 384.752 242.016 384.684 242.392 384.548C242.768 384.404 243.136 384.18 243.496 383.876L244 385.1C243.672 385.42 243.252 385.672 242.74 385.856C242.236 386.032 241.7 386.12 241.132 386.12ZM247.264 386V378.824H244.36V377.54H251.704V378.824H248.8V386H247.264Z" fill="#808283"/>
<rect x="280.199" y="366" width="1" height="8" fill="#313338"/>
<path d="M272.664 380.708V379.616C272.664 379.344 272.692 379.088 272.748 378.848C272.812 378.608 272.912 378.372 273.048 378.14C273.192 377.908 273.38 377.676 273.612 377.444L274.236 377.936C274.068 378.112 273.932 378.28 273.828 378.44C273.724 378.592 273.648 378.748 273.6 378.908C273.56 379.06 273.54 379.22 273.54 379.388L273.168 379.04H274.344V380.708H272.664ZM275.953 386V384.86L278.689 381.944C278.937 381.68 279.133 381.436 279.277 381.212C279.429 380.988 279.541 380.772 279.613 380.564C279.685 380.356 279.721 380.148 279.721 379.94C279.721 379.54 279.593 379.236 279.337 379.028C279.089 378.82 278.725 378.716 278.245 378.716C277.869 378.716 277.501 378.788 277.141 378.932C276.789 379.068 276.449 379.284 276.121 379.58L275.605 378.428C275.941 378.124 276.361 377.88 276.865 377.696C277.369 377.512 277.893 377.42 278.437 377.42C279.045 377.42 279.557 377.512 279.973 377.696C280.389 377.88 280.705 378.148 280.921 378.5C281.137 378.852 281.245 379.28 281.245 379.784C281.245 380.04 281.213 380.292 281.149 380.54C281.093 380.78 281.001 381.02 280.873 381.26C280.753 381.5 280.597 381.748 280.405 382.004C280.221 382.252 279.997 382.512 279.733 382.784L277.477 385.136V384.728H281.569V386H275.953ZM283.148 386V384.86L285.884 381.944C286.132 381.68 286.328 381.436 286.472 381.212C286.624 380.988 286.736 380.772 286.808 380.564C286.88 380.356 286.916 380.148 286.916 379.94C286.916 379.54 286.788 379.236 286.532 379.028C286.284 378.82 285.92 378.716 285.44 378.716C285.064 378.716 284.696 378.788 284.336 378.932C283.984 379.068 283.644 379.284 283.316 379.58L282.8 378.428C283.136 378.124 283.556 377.88 284.06 377.696C284.564 377.512 285.088 377.42 285.632 377.42C286.24 377.42 286.752 377.512 287.168 377.696C287.584 377.88 287.9 378.148 288.116 378.5C288.332 378.852 288.44 379.28 288.44 379.784C288.44 380.04 288.408 380.292 288.344 380.54C288.288 380.78 288.196 381.02 288.068 381.26C287.948 381.5 287.792 381.748 287.6 382.004C287.416 382.252 287.192 382.512 286.928 382.784L284.672 385.136V384.728H288.764V386H283.148Z" fill="#808283"/>
<rect x="321.598" y="366" width="1" height="8" fill="#313338"/>
<path d="M311 386.108L310.892 384.848L311.744 384.8C311.984 384.784 312.18 384.732 312.332 384.644C312.492 384.548 312.612 384.416 312.692 384.248C312.772 384.072 312.812 383.864 312.812 383.624V377.54H314.349V383.612C314.349 384.116 314.261 384.544 314.084 384.896C313.908 385.248 313.644 385.52 313.292 385.712C312.94 385.904 312.504 386.02 311.984 386.06L311 386.108ZM315.29 386L319.118 377.54H320.378L324.206 386H322.646L321.626 383.624L322.274 384.044H317.21L317.858 383.624L316.85 386H315.29ZM319.73 379.208L318.05 383.204L317.738 382.82H321.746L321.446 383.204L319.754 379.208H319.73ZM325.132 386V377.54H326.284L331.144 383.852H330.832V377.54H332.26V386H331.12L326.26 379.676H326.56V386H325.132Z" fill="#808283"/>
<rect x="363" y="366" width="1" height="8" fill="#313338"/>
<path d="M351.021 386L354.849 377.54H356.109L359.937 386H358.377L357.357 383.624L358.005 384.044H352.941L353.589 383.624L352.581 386H351.021ZM355.461 379.208L353.781 383.204L353.469 382.82H357.477L357.177 383.204L355.485 379.208H355.461ZM360.862 386V377.54H364.534C365.158 377.54 365.686 377.644 366.118 377.852C366.55 378.06 366.878 378.36 367.102 378.752C367.326 379.144 367.438 379.62 367.438 380.18C367.438 380.732 367.326 381.208 367.102 381.608C366.878 382 366.55 382.304 366.118 382.52C365.686 382.728 365.158 382.832 364.534 382.832H362.398V386H360.862ZM362.398 381.62H364.294C364.838 381.62 365.25 381.5 365.53 381.26C365.81 381.012 365.95 380.652 365.95 380.18C365.95 379.708 365.81 379.352 365.53 379.112C365.25 378.872 364.838 378.752 364.294 378.752H362.398V381.62ZM368.69 386V377.54H372.362C373.29 377.54 374.006 377.764 374.51 378.212C375.014 378.652 375.266 379.272 375.266 380.072C375.266 380.592 375.15 381.04 374.918 381.416C374.694 381.792 374.366 382.08 373.934 382.28C373.502 382.48 372.978 382.58 372.362 382.58L372.47 382.4H372.866C373.194 382.4 373.478 382.48 373.718 382.64C373.966 382.8 374.182 383.052 374.366 383.396L375.782 386H374.09L372.626 383.3C372.53 383.124 372.422 382.988 372.302 382.892C372.182 382.788 372.046 382.716 371.894 382.676C371.742 382.636 371.566 382.616 371.366 382.616H370.226V386H368.69ZM370.226 381.476H372.098C372.65 381.476 373.066 381.364 373.346 381.14C373.634 380.908 373.778 380.564 373.778 380.108C373.778 379.66 373.634 379.324 373.346 379.1C373.066 378.868 372.65 378.752 372.098 378.752H370.226V381.476Z" fill="#808283"/>
<rect x="404.398" y="366" width="1" height="8" fill="#313338"/>
<path d="M394.956 386.108L394.848 384.848L395.7 384.8C395.94 384.784 396.136 384.732 396.288 384.644C396.448 384.548 396.568 384.416 396.648 384.248C396.728 384.072 396.768 383.864 396.768 383.624V377.54H398.304V383.612C398.304 384.116 398.216 384.544 398.04 384.896C397.864 385.248 397.6 385.52 397.248 385.712C396.896 385.904 396.46 386.02 395.94 386.06L394.956 386.108ZM403.673 386.12C402.513 386.12 401.625 385.82 401.009 385.22C400.401 384.612 400.097 383.716 400.097 382.532V377.54H401.633V382.52C401.633 383.28 401.805 383.852 402.149 384.236C402.501 384.612 403.009 384.8 403.673 384.8C404.337 384.8 404.841 384.612 405.185 384.236C405.529 383.852 405.701 383.28 405.701 382.52V377.54H407.225V382.532C407.225 383.716 406.925 384.612 406.325 385.22C405.725 385.82 404.841 386.12 403.673 386.12ZM409.017 386V377.54H410.553V384.692H414.609V386H409.017Z" fill="#808283"/>
<rect x="445.801" y="366" width="1" height="8" fill="#313338"/>
<path d="M438.566 386.12C437.95 386.12 437.39 386.02 436.886 385.82C436.39 385.612 435.962 385.316 435.602 384.932C435.25 384.548 434.978 384.088 434.786 383.552C434.594 383.016 434.498 382.42 434.498 381.764C434.498 381.1 434.594 380.504 434.786 379.976C434.978 379.44 435.25 378.984 435.602 378.608C435.962 378.224 436.39 377.932 436.886 377.732C437.39 377.524 437.95 377.42 438.566 377.42C439.182 377.42 439.738 377.524 440.234 377.732C440.738 377.932 441.166 378.22 441.518 378.596C441.878 378.972 442.154 379.428 442.346 379.964C442.538 380.492 442.634 381.088 442.634 381.752C442.634 382.416 442.538 383.016 442.346 383.552C442.154 384.088 441.878 384.548 441.518 384.932C441.166 385.316 440.738 385.612 440.234 385.82C439.738 386.02 439.182 386.12 438.566 386.12ZM438.566 384.8C439.086 384.8 439.526 384.68 439.886 384.44C440.254 384.2 440.534 383.852 440.726 383.396C440.926 382.94 441.026 382.396 441.026 381.764C441.026 381.124 440.93 380.58 440.738 380.132C440.546 379.676 440.266 379.332 439.898 379.1C439.53 378.86 439.086 378.74 438.566 378.74C438.054 378.74 437.614 378.86 437.246 379.1C436.878 379.332 436.594 379.676 436.394 380.132C436.202 380.58 436.106 381.124 436.106 381.764C436.106 382.396 436.202 382.94 436.394 383.396C436.594 383.852 436.878 384.2 437.246 384.44C437.614 384.68 438.054 384.8 438.566 384.8ZM448.132 386.12C447.252 386.12 446.496 385.944 445.864 385.592C445.24 385.232 444.76 384.728 444.424 384.08C444.088 383.424 443.92 382.652 443.92 381.764C443.92 380.876 444.088 380.108 444.424 379.46C444.76 378.812 445.24 378.312 445.864 377.96C446.496 377.6 447.252 377.42 448.132 377.42C448.7 377.42 449.236 377.508 449.74 377.684C450.252 377.86 450.672 378.112 451 378.44L450.496 379.664C450.136 379.36 449.768 379.14 449.392 379.004C449.016 378.86 448.612 378.788 448.18 378.788C447.324 378.788 446.672 379.048 446.224 379.568C445.776 380.08 445.552 380.812 445.552 381.764C445.552 382.716 445.776 383.452 446.224 383.972C446.672 384.492 447.324 384.752 448.18 384.752C448.612 384.752 449.016 384.684 449.392 384.548C449.768 384.404 450.136 384.18 450.496 383.876L451 385.1C450.672 385.42 450.252 385.672 449.74 385.856C449.236 386.032 448.7 386.12 448.132 386.12ZM454.264 386V378.824H451.36V377.54H458.704V378.824H455.8V386H454.264Z" fill="#808283"/>
<path d="M17.308 120V118.728H19.216V112.836H19.96L17.74 114.18L17.14 113.052L19.66 111.54H20.752V118.728H22.54V120H17.308ZM26.7953 120.12C26.1313 120.12 25.5673 119.952 25.1033 119.616C24.6473 119.272 24.2993 118.776 24.0593 118.128C23.8273 117.48 23.7113 116.688 23.7113 115.752C23.7113 114.808 23.8273 114.016 24.0593 113.376C24.2993 112.728 24.6473 112.24 25.1033 111.912C25.5673 111.584 26.1313 111.42 26.7953 111.42C27.4673 111.42 28.0313 111.584 28.4873 111.912C28.9513 112.24 29.2993 112.724 29.5313 113.364C29.7633 114.004 29.8793 114.796 29.8793 115.74C29.8793 116.676 29.7593 117.472 29.5193 118.128C29.2873 118.776 28.9433 119.272 28.4873 119.616C28.0313 119.952 27.4673 120.12 26.7953 120.12ZM26.7953 118.86C27.3393 118.86 27.7393 118.612 27.9953 118.116C28.2593 117.612 28.3913 116.82 28.3913 115.74C28.3913 114.668 28.2593 113.892 27.9953 113.412C27.7393 112.924 27.3393 112.68 26.7953 112.68C26.2593 112.68 25.8593 112.924 25.5953 113.412C25.3313 113.892 25.1993 114.672 25.1993 115.752C25.1993 116.824 25.3313 117.612 25.5953 118.116C25.8593 118.612 26.2593 118.86 26.7953 118.86ZM33.9906 120.12C33.3266 120.12 32.7626 119.952 32.2986 119.616C31.8426 119.272 31.4946 118.776 31.2546 118.128C31.0226 117.48 30.9066 116.688 30.9066 115.752C30.9066 114.808 31.0226 114.016 31.2546 113.376C31.4946 112.728 31.8426 112.24 32.2986 111.912C32.7626 111.584 33.3266 111.42 33.9906 111.42C34.6626 111.42 35.2266 111.584 35.6826 111.912C36.1466 112.24 36.4946 112.724 36.7266 113.364C36.9586 114.004 37.0746 114.796 37.0746 115.74C37.0746 116.676 36.9546 117.472 36.7146 118.128C36.4826 118.776 36.1386 119.272 35.6826 119.616C35.2266 119.952 34.6626 120.12 33.9906 120.12ZM33.9906 118.86C34.5346 118.86 34.9346 118.612 35.1906 118.116C35.4546 117.612 35.5866 116.82 35.5866 115.74C35.5866 114.668 35.4546 113.892 35.1906 113.412C34.9346 112.924 34.5346 112.68 33.9906 112.68C33.4546 112.68 33.0546 112.924 32.7906 113.412C32.5266 113.892 32.3946 114.672 32.3946 115.752C32.3946 116.824 32.5266 117.612 32.7906 118.116C33.0546 118.612 33.4546 118.86 33.9906 118.86ZM41.2819 120.336L40.2979 119.76L45.2419 111.204L46.2139 111.78L41.2819 120.336ZM40.2499 116.592C39.8019 116.592 39.4179 116.488 39.0979 116.28C38.7779 116.072 38.5339 115.776 38.3659 115.392C38.1979 115 38.1139 114.536 38.1139 114C38.1139 113.2 38.3019 112.572 38.6779 112.116C39.0539 111.652 39.5779 111.42 40.2499 111.42C40.6979 111.42 41.0819 111.524 41.4019 111.732C41.7219 111.94 41.9659 112.236 42.1339 112.62C42.3019 113.004 42.3859 113.464 42.3859 114C42.3859 114.536 42.3019 115 42.1339 115.392C41.9659 115.776 41.7219 116.072 41.4019 116.28C41.0819 116.488 40.6979 116.592 40.2499 116.592ZM40.2499 115.584C40.5379 115.584 40.7619 115.456 40.9219 115.2C41.0819 114.936 41.1619 114.536 41.1619 114C41.1619 113.464 41.0819 113.068 40.9219 112.812C40.7619 112.556 40.5379 112.428 40.2499 112.428C39.9619 112.428 39.7379 112.556 39.5779 112.812C39.4179 113.06 39.3379 113.456 39.3379 114C39.3379 114.544 39.4179 114.944 39.5779 115.2C39.7379 115.456 39.9619 115.584 40.2499 115.584ZM46.2739 120.12C45.8259 120.12 45.4419 120.016 45.1219 119.808C44.8019 119.6 44.5579 119.304 44.3899 118.92C44.2219 118.528 44.1379 118.064 44.1379 117.528C44.1379 116.728 44.3259 116.1 44.7019 115.644C45.0779 115.18 45.6019 114.948 46.2739 114.948C46.7219 114.948 47.1059 115.052 47.4259 115.26C47.7459 115.468 47.9899 115.764 48.1579 116.148C48.3259 116.532 48.4099 116.992 48.4099 117.528C48.4099 118.064 48.3259 118.528 48.1579 118.92C47.9899 119.304 47.7459 119.6 47.4259 119.808C47.1059 120.016 46.7219 120.12 46.2739 120.12ZM46.2739 119.112C46.5619 119.112 46.7859 118.984 46.9459 118.728C47.1059 118.464 47.1859 118.064 47.1859 117.528C47.1859 116.992 47.1059 116.596 46.9459 116.34C46.7859 116.084 46.5619 115.956 46.2739 115.956C45.9859 115.956 45.7619 116.084 45.6019 116.34C45.4419 116.588 45.3619 116.984 45.3619 117.528C45.3619 118.072 45.4419 118.472 45.6019 118.728C45.7619 118.984 45.9859 119.112 46.2739 119.112Z" fill="#808283"/>
<path d="M19.6 170.12C18.616 170.12 17.844 169.908 17.284 169.484C16.732 169.06 16.456 168.472 16.456 167.72C16.456 167.32 16.536 166.968 16.696 166.664C16.864 166.352 17.092 166.1 17.38 165.908C17.668 165.716 17.996 165.596 18.364 165.548V165.8C18.028 165.728 17.732 165.596 17.476 165.404C17.22 165.204 17.02 164.96 16.876 164.672C16.74 164.376 16.672 164.052 16.672 163.7C16.672 162.988 16.936 162.432 17.464 162.032C17.992 161.624 18.708 161.42 19.612 161.42C20.508 161.42 21.22 161.624 21.748 162.032C22.276 162.432 22.54 162.988 22.54 163.7C22.54 164.052 22.468 164.376 22.324 164.672C22.188 164.968 21.992 165.212 21.736 165.404C21.488 165.596 21.196 165.724 20.86 165.788V165.548C21.236 165.596 21.564 165.72 21.844 165.92C22.124 166.112 22.344 166.364 22.504 166.676C22.664 166.98 22.744 167.328 22.744 167.72C22.744 168.472 22.464 169.06 21.904 169.484C21.352 169.908 20.584 170.12 19.6 170.12ZM19.6 168.92C20.168 168.92 20.596 168.812 20.884 168.596C21.172 168.372 21.316 168.044 21.316 167.612C21.316 167.18 21.172 166.856 20.884 166.64C20.596 166.424 20.168 166.316 19.6 166.316C19.04 166.316 18.612 166.424 18.316 166.64C18.028 166.856 17.884 167.18 17.884 167.612C17.884 168.044 18.028 168.372 18.316 168.596C18.612 168.812 19.04 168.92 19.6 168.92ZM19.6 165.116C20.072 165.116 20.44 165.004 20.704 164.78C20.976 164.556 21.112 164.248 21.112 163.856C21.112 163.472 20.976 163.172 20.704 162.956C20.44 162.732 20.072 162.62 19.6 162.62C19.128 162.62 18.76 162.732 18.496 162.956C18.232 163.172 18.1 163.476 18.1 163.868C18.1 164.252 18.232 164.556 18.496 164.78C18.76 165.004 19.128 165.116 19.6 165.116ZM26.7953 170.12C26.1313 170.12 25.5673 169.952 25.1033 169.616C24.6473 169.272 24.2993 168.776 24.0593 168.128C23.8273 167.48 23.7113 166.688 23.7113 165.752C23.7113 164.808 23.8273 164.016 24.0593 163.376C24.2993 162.728 24.6473 162.24 25.1033 161.912C25.5673 161.584 26.1313 161.42 26.7953 161.42C27.4673 161.42 28.0313 161.584 28.4873 161.912C28.9513 162.24 29.2993 162.724 29.5313 163.364C29.7633 164.004 29.8793 164.796 29.8793 165.74C29.8793 166.676 29.7593 167.472 29.5193 168.128C29.2873 168.776 28.9433 169.272 28.4873 169.616C28.0313 169.952 27.4673 170.12 26.7953 170.12ZM26.7953 168.86C27.3393 168.86 27.7393 168.612 27.9953 168.116C28.2593 167.612 28.3913 166.82 28.3913 165.74C28.3913 164.668 28.2593 163.892 27.9953 163.412C27.7393 162.924 27.3393 162.68 26.7953 162.68C26.2593 162.68 25.8593 162.924 25.5953 163.412C25.3313 163.892 25.1993 164.672 25.1993 165.752C25.1993 166.824 25.3313 167.612 25.5953 168.116C25.8593 168.612 26.2593 168.86 26.7953 168.86ZM34.0866 170.336L33.1026 169.76L38.0466 161.204L39.0186 161.78L34.0866 170.336ZM33.0546 166.592C32.6066 166.592 32.2226 166.488 31.9026 166.28C31.5826 166.072 31.3386 165.776 31.1706 165.392C31.0026 165 30.9186 164.536 30.9186 164C30.9186 163.2 31.1066 162.572 31.4826 162.116C31.8586 161.652 32.3826 161.42 33.0546 161.42C33.5026 161.42 33.8866 161.524 34.2066 161.732C34.5266 161.94 34.7706 162.236 34.9386 162.62C35.1066 163.004 35.1906 163.464 35.1906 164C35.1906 164.536 35.1066 165 34.9386 165.392C34.7706 165.776 34.5266 166.072 34.2066 166.28C33.8866 166.488 33.5026 166.592 33.0546 166.592ZM33.0546 165.584C33.3426 165.584 33.5666 165.456 33.7266 165.2C33.8866 164.936 33.9666 164.536 33.9666 164C33.9666 163.464 33.8866 163.068 33.7266 162.812C33.5666 162.556 33.3426 162.428 33.0546 162.428C32.7666 162.428 32.5426 162.556 32.3826 162.812C32.2226 163.06 32.1426 163.456 32.1426 164C32.1426 164.544 32.2226 164.944 32.3826 165.2C32.5426 165.456 32.7666 165.584 33.0546 165.584ZM39.0786 170.12C38.6306 170.12 38.2466 170.016 37.9266 169.808C37.6066 169.6 37.3626 169.304 37.1946 168.92C37.0266 168.528 36.9426 168.064 36.9426 167.528C36.9426 166.728 37.1306 166.1 37.5066 165.644C37.8826 165.18 38.4066 164.948 39.0786 164.948C39.5266 164.948 39.9106 165.052 40.2306 165.26C40.5506 165.468 40.7946 165.764 40.9626 166.148C41.1306 166.532 41.2146 166.992 41.2146 167.528C41.2146 168.064 41.1306 168.528 40.9626 168.92C40.7946 169.304 40.5506 169.6 40.2306 169.808C39.9106 170.016 39.5266 170.12 39.0786 170.12ZM39.0786 169.112C39.3666 169.112 39.5906 168.984 39.7506 168.728C39.9106 168.464 39.9906 168.064 39.9906 167.528C39.9906 166.992 39.9106 166.596 39.7506 166.34C39.5906 166.084 39.3666 165.956 39.0786 165.956C38.7906 165.956 38.5666 166.084 38.4066 166.34C38.2466 166.588 38.1666 166.984 38.1666 167.528C38.1666 168.072 38.2466 168.472 38.4066 168.728C38.5666 168.984 38.7906 169.112 39.0786 169.112Z" fill="#808283"/>
<path d="M19.912 220.12C19.216 220.12 18.62 219.956 18.124 219.628C17.636 219.292 17.264 218.812 17.008 218.188C16.752 217.564 16.624 216.808 16.624 215.92C16.624 214.96 16.768 214.148 17.056 213.484C17.344 212.812 17.76 212.3 18.304 211.948C18.848 211.596 19.5 211.42 20.26 211.42C20.556 211.42 20.852 211.46 21.148 211.54C21.452 211.612 21.736 211.72 22 211.864C22.272 212 22.512 212.168 22.72 212.368L22.216 213.52C21.92 213.248 21.604 213.048 21.268 212.92C20.932 212.784 20.588 212.716 20.236 212.716C19.892 212.716 19.584 212.78 19.312 212.908C19.048 213.028 18.824 213.212 18.64 213.46C18.456 213.7 18.316 214.004 18.22 214.372C18.132 214.732 18.088 215.152 18.088 215.632V216.532H17.944C18.008 216.124 18.14 215.776 18.34 215.488C18.548 215.192 18.812 214.968 19.132 214.816C19.452 214.656 19.808 214.576 20.2 214.576C20.688 214.576 21.12 214.692 21.496 214.924C21.872 215.156 22.168 215.476 22.384 215.884C22.6 216.292 22.708 216.76 22.708 217.288C22.708 217.832 22.588 218.32 22.348 218.752C22.116 219.176 21.788 219.512 21.364 219.76C20.948 220 20.464 220.12 19.912 220.12ZM19.828 218.896C20.116 218.896 20.368 218.832 20.584 218.704C20.808 218.576 20.98 218.396 21.1 218.164C21.22 217.924 21.28 217.652 21.28 217.348C21.28 217.036 21.22 216.764 21.1 216.532C20.98 216.3 20.808 216.12 20.584 215.992C20.368 215.856 20.116 215.788 19.828 215.788C19.54 215.788 19.288 215.856 19.072 215.992C18.856 216.12 18.684 216.3 18.556 216.532C18.436 216.764 18.376 217.036 18.376 217.348C18.376 217.652 18.436 217.924 18.556 218.164C18.684 218.396 18.856 218.576 19.072 218.704C19.288 218.832 19.54 218.896 19.828 218.896ZM26.7953 220.12C26.1313 220.12 25.5673 219.952 25.1033 219.616C24.6473 219.272 24.2993 218.776 24.0593 218.128C23.8273 217.48 23.7113 216.688 23.7113 215.752C23.7113 214.808 23.8273 214.016 24.0593 213.376C24.2993 212.728 24.6473 212.24 25.1033 211.912C25.5673 211.584 26.1313 211.42 26.7953 211.42C27.4673 211.42 28.0313 211.584 28.4873 211.912C28.9513 212.24 29.2993 212.724 29.5313 213.364C29.7633 214.004 29.8793 214.796 29.8793 215.74C29.8793 216.676 29.7593 217.472 29.5193 218.128C29.2873 218.776 28.9433 219.272 28.4873 219.616C28.0313 219.952 27.4673 220.12 26.7953 220.12ZM26.7953 218.86C27.3393 218.86 27.7393 218.612 27.9953 218.116C28.2593 217.612 28.3913 216.82 28.3913 215.74C28.3913 214.668 28.2593 213.892 27.9953 213.412C27.7393 212.924 27.3393 212.68 26.7953 212.68C26.2593 212.68 25.8593 212.924 25.5953 213.412C25.3313 213.892 25.1993 214.672 25.1993 215.752C25.1993 216.824 25.3313 217.612 25.5953 218.116C25.8593 218.612 26.2593 218.86 26.7953 218.86ZM34.0866 220.336L33.1026 219.76L38.0466 211.204L39.0186 211.78L34.0866 220.336ZM33.0546 216.592C32.6066 216.592 32.2226 216.488 31.9026 216.28C31.5826 216.072 31.3386 215.776 31.1706 215.392C31.0026 215 30.9186 214.536 30.9186 214C30.9186 213.2 31.1066 212.572 31.4826 212.116C31.8586 211.652 32.3826 211.42 33.0546 211.42C33.5026 211.42 33.8866 211.524 34.2066 211.732C34.5266 211.94 34.7706 212.236 34.9386 212.62C35.1066 213.004 35.1906 213.464 35.1906 214C35.1906 214.536 35.1066 215 34.9386 215.392C34.7706 215.776 34.5266 216.072 34.2066 216.28C33.8866 216.488 33.5026 216.592 33.0546 216.592ZM33.0546 215.584C33.3426 215.584 33.5666 215.456 33.7266 215.2C33.8866 214.936 33.9666 214.536 33.9666 214C33.9666 213.464 33.8866 213.068 33.7266 212.812C33.5666 212.556 33.3426 212.428 33.0546 212.428C32.7666 212.428 32.5426 212.556 32.3826 212.812C32.2226 213.06 32.1426 213.456 32.1426 214C32.1426 214.544 32.2226 214.944 32.3826 215.2C32.5426 215.456 32.7666 215.584 33.0546 215.584ZM39.0786 220.12C38.6306 220.12 38.2466 220.016 37.9266 219.808C37.6066 219.6 37.3626 219.304 37.1946 218.92C37.0266 218.528 36.9426 218.064 36.9426 217.528C36.9426 216.728 37.1306 216.1 37.5066 215.644C37.8826 215.18 38.4066 214.948 39.0786 214.948C39.5266 214.948 39.9106 215.052 40.2306 215.26C40.5506 215.468 40.7946 215.764 40.9626 216.148C41.1306 216.532 41.2146 216.992 41.2146 217.528C41.2146 218.064 41.1306 218.528 40.9626 218.92C40.7946 219.304 40.5506 219.6 40.2306 219.808C39.9106 220.016 39.5266 220.12 39.0786 220.12ZM39.0786 219.112C39.3666 219.112 39.5906 218.984 39.7506 218.728C39.9106 218.464 39.9906 218.064 39.9906 217.528C39.9906 216.992 39.9106 216.596 39.7506 216.34C39.5906 216.084 39.3666 215.956 39.0786 215.956C38.7906 215.956 38.5666 216.084 38.4066 216.34C38.2466 216.588 38.1666 216.984 38.1666 217.528C38.1666 218.072 38.2466 218.472 38.4066 218.728C38.5666 218.984 38.7906 219.112 39.0786 219.112Z" fill="#808283"/>
<path d="M20.188 270V268.392H16.504V267.264L20.452 261.54H21.724V267.12H22.912V268.392H21.724V270H20.188ZM20.188 267.12V263.376H20.536L17.704 267.528V267.12H20.188ZM26.7953 270.12C26.1313 270.12 25.5673 269.952 25.1033 269.616C24.6473 269.272 24.2993 268.776 24.0593 268.128C23.8273 267.48 23.7113 266.688 23.7113 265.752C23.7113 264.808 23.8273 264.016 24.0593 263.376C24.2993 262.728 24.6473 262.24 25.1033 261.912C25.5673 261.584 26.1313 261.42 26.7953 261.42C27.4673 261.42 28.0313 261.584 28.4873 261.912C28.9513 262.24 29.2993 262.724 29.5313 263.364C29.7633 264.004 29.8793 264.796 29.8793 265.74C29.8793 266.676 29.7593 267.472 29.5193 268.128C29.2873 268.776 28.9433 269.272 28.4873 269.616C28.0313 269.952 27.4673 270.12 26.7953 270.12ZM26.7953 268.86C27.3393 268.86 27.7393 268.612 27.9953 268.116C28.2593 267.612 28.3913 266.82 28.3913 265.74C28.3913 264.668 28.2593 263.892 27.9953 263.412C27.7393 262.924 27.3393 262.68 26.7953 262.68C26.2593 262.68 25.8593 262.924 25.5953 263.412C25.3313 263.892 25.1993 264.672 25.1993 265.752C25.1993 266.824 25.3313 267.612 25.5953 268.116C25.8593 268.612 26.2593 268.86 26.7953 268.86ZM34.0866 270.336L33.1026 269.76L38.0466 261.204L39.0186 261.78L34.0866 270.336ZM33.0546 266.592C32.6066 266.592 32.2226 266.488 31.9026 266.28C31.5826 266.072 31.3386 265.776 31.1706 265.392C31.0026 265 30.9186 264.536 30.9186 264C30.9186 263.2 31.1066 262.572 31.4826 262.116C31.8586 261.652 32.3826 261.42 33.0546 261.42C33.5026 261.42 33.8866 261.524 34.2066 261.732C34.5266 261.94 34.7706 262.236 34.9386 262.62C35.1066 263.004 35.1906 263.464 35.1906 264C35.1906 264.536 35.1066 265 34.9386 265.392C34.7706 265.776 34.5266 266.072 34.2066 266.28C33.8866 266.488 33.5026 266.592 33.0546 266.592ZM33.0546 265.584C33.3426 265.584 33.5666 265.456 33.7266 265.2C33.8866 264.936 33.9666 264.536 33.9666 264C33.9666 263.464 33.8866 263.068 33.7266 262.812C33.5666 262.556 33.3426 262.428 33.0546 262.428C32.7666 262.428 32.5426 262.556 32.3826 262.812C32.2226 263.06 32.1426 263.456 32.1426 264C32.1426 264.544 32.2226 264.944 32.3826 265.2C32.5426 265.456 32.7666 265.584 33.0546 265.584ZM39.0786 270.12C38.6306 270.12 38.2466 270.016 37.9266 269.808C37.6066 269.6 37.3626 269.304 37.1946 268.92C37.0266 268.528 36.9426 268.064 36.9426 267.528C36.9426 266.728 37.1306 266.1 37.5066 265.644C37.8826 265.18 38.4066 264.948 39.0786 264.948C39.5266 264.948 39.9106 265.052 40.2306 265.26C40.5506 265.468 40.7946 265.764 40.9626 266.148C41.1306 266.532 41.2146 266.992 41.2146 267.528C41.2146 268.064 41.1306 268.528 40.9626 268.92C40.7946 269.304 40.5506 269.6 40.2306 269.808C39.9106 270.016 39.5266 270.12 39.0786 270.12ZM39.0786 269.112C39.3666 269.112 39.5906 268.984 39.7506 268.728C39.9106 268.464 39.9906 268.064 39.9906 267.528C39.9906 266.992 39.9106 266.596 39.7506 266.34C39.5906 266.084 39.3666 265.956 39.0786 265.956C38.7906 265.956 38.5666 266.084 38.4066 266.34C38.2466 266.588 38.1666 266.984 38.1666 267.528C38.1666 268.072 38.2466 268.472 38.4066 268.728C38.5666 268.984 38.7906 269.112 39.0786 269.112Z" fill="#808283"/>
<path d="M16.96 320V318.86L19.696 315.944C19.944 315.68 20.14 315.436 20.284 315.212C20.436 314.988 20.548 314.772 20.62 314.564C20.692 314.356 20.728 314.148 20.728 313.94C20.728 313.54 20.6 313.236 20.344 313.028C20.096 312.82 19.732 312.716 19.252 312.716C18.876 312.716 18.508 312.788 18.148 312.932C17.796 313.068 17.456 313.284 17.128 313.58L16.612 312.428C16.948 312.124 17.368 311.88 17.872 311.696C18.376 311.512 18.9 311.42 19.444 311.42C20.052 311.42 20.564 311.512 20.98 311.696C21.396 311.88 21.712 312.148 21.928 312.5C22.144 312.852 22.252 313.28 22.252 313.784C22.252 314.04 22.22 314.292 22.156 314.54C22.1 314.78 22.008 315.02 21.88 315.26C21.76 315.5 21.604 315.748 21.412 316.004C21.228 316.252 21.004 316.512 20.74 316.784L18.484 319.136V318.728H22.576V320H16.96ZM26.7953 320.12C26.1313 320.12 25.5673 319.952 25.1033 319.616C24.6473 319.272 24.2993 318.776 24.0593 318.128C23.8273 317.48 23.7113 316.688 23.7113 315.752C23.7113 314.808 23.8273 314.016 24.0593 313.376C24.2993 312.728 24.6473 312.24 25.1033 311.912C25.5673 311.584 26.1313 311.42 26.7953 311.42C27.4673 311.42 28.0313 311.584 28.4873 311.912C28.9513 312.24 29.2993 312.724 29.5313 313.364C29.7633 314.004 29.8793 314.796 29.8793 315.74C29.8793 316.676 29.7593 317.472 29.5193 318.128C29.2873 318.776 28.9433 319.272 28.4873 319.616C28.0313 319.952 27.4673 320.12 26.7953 320.12ZM26.7953 318.86C27.3393 318.86 27.7393 318.612 27.9953 318.116C28.2593 317.612 28.3913 316.82 28.3913 315.74C28.3913 314.668 28.2593 313.892 27.9953 313.412C27.7393 312.924 27.3393 312.68 26.7953 312.68C26.2593 312.68 25.8593 312.924 25.5953 313.412C25.3313 313.892 25.1993 314.672 25.1993 315.752C25.1993 316.824 25.3313 317.612 25.5953 318.116C25.8593 318.612 26.2593 318.86 26.7953 318.86ZM34.0866 320.336L33.1026 319.76L38.0466 311.204L39.0186 311.78L34.0866 320.336ZM33.0546 316.592C32.6066 316.592 32.2226 316.488 31.9026 316.28C31.5826 316.072 31.3386 315.776 31.1706 315.392C31.0026 315 30.9186 314.536 30.9186 314C30.9186 313.2 31.1066 312.572 31.4826 312.116C31.8586 311.652 32.3826 311.42 33.0546 311.42C33.5026 311.42 33.8866 311.524 34.2066 311.732C34.5266 311.94 34.7706 312.236 34.9386 312.62C35.1066 313.004 35.1906 313.464 35.1906 314C35.1906 314.536 35.1066 315 34.9386 315.392C34.7706 315.776 34.5266 316.072 34.2066 316.28C33.8866 316.488 33.5026 316.592 33.0546 316.592ZM33.0546 315.584C33.3426 315.584 33.5666 315.456 33.7266 315.2C33.8866 314.936 33.9666 314.536 33.9666 314C33.9666 313.464 33.8866 313.068 33.7266 312.812C33.5666 312.556 33.3426 312.428 33.0546 312.428C32.7666 312.428 32.5426 312.556 32.3826 312.812C32.2226 313.06 32.1426 313.456 32.1426 314C32.1426 314.544 32.2226 314.944 32.3826 315.2C32.5426 315.456 32.7666 315.584 33.0546 315.584ZM39.0786 320.12C38.6306 320.12 38.2466 320.016 37.9266 319.808C37.6066 319.6 37.3626 319.304 37.1946 318.92C37.0266 318.528 36.9426 318.064 36.9426 317.528C36.9426 316.728 37.1306 316.1 37.5066 315.644C37.8826 315.18 38.4066 314.948 39.0786 314.948C39.5266 314.948 39.9106 315.052 40.2306 315.26C40.5506 315.468 40.7946 315.764 40.9626 316.148C41.1306 316.532 41.2146 316.992 41.2146 317.528C41.2146 318.064 41.1306 318.528 40.9626 318.92C40.7946 319.304 40.5506 319.6 40.2306 319.808C39.9106 320.016 39.5266 320.12 39.0786 320.12ZM39.0786 319.112C39.3666 319.112 39.5906 318.984 39.7506 318.728C39.9106 318.464 39.9906 318.064 39.9906 317.528C39.9906 316.992 39.9106 316.596 39.7506 316.34C39.5906 316.084 39.3666 315.956 39.0786 315.956C38.7906 315.956 38.5666 316.084 38.4066 316.34C38.2466 316.588 38.1666 316.984 38.1666 317.528C38.1666 318.072 38.2466 318.472 38.4066 318.728C38.5666 318.984 38.7906 319.112 39.0786 319.112Z" fill="#808283"/>
<path d="M19.6 370.12C18.936 370.12 18.372 369.952 17.908 369.616C17.452 369.272 17.104 368.776 16.864 368.128C16.632 367.48 16.516 366.688 16.516 365.752C16.516 364.808 16.632 364.016 16.864 363.376C17.104 362.728 17.452 362.24 17.908 361.912C18.372 361.584 18.936 361.42 19.6 361.42C20.272 361.42 20.836 361.584 21.292 361.912C21.756 362.24 22.104 362.724 22.336 363.364C22.568 364.004 22.684 364.796 22.684 365.74C22.684 366.676 22.564 367.472 22.324 368.128C22.092 368.776 21.748 369.272 21.292 369.616C20.836 369.952 20.272 370.12 19.6 370.12ZM19.6 368.86C20.144 368.86 20.544 368.612 20.8 368.116C21.064 367.612 21.196 366.82 21.196 365.74C21.196 364.668 21.064 363.892 20.8 363.412C20.544 362.924 20.144 362.68 19.6 362.68C19.064 362.68 18.664 362.924 18.4 363.412C18.136 363.892 18.004 364.672 18.004 365.752C18.004 366.824 18.136 367.612 18.4 368.116C18.664 368.612 19.064 368.86 19.6 368.86ZM26.8913 370.336L25.9073 369.76L30.8513 361.204L31.8233 361.78L26.8913 370.336ZM25.8593 366.592C25.4113 366.592 25.0273 366.488 24.7073 366.28C24.3873 366.072 24.1433 365.776 23.9753 365.392C23.8073 365 23.7233 364.536 23.7233 364C23.7233 363.2 23.9113 362.572 24.2873 362.116C24.6633 361.652 25.1873 361.42 25.8593 361.42C26.3073 361.42 26.6913 361.524 27.0113 361.732C27.3313 361.94 27.5753 362.236 27.7433 362.62C27.9113 363.004 27.9953 363.464 27.9953 364C27.9953 364.536 27.9113 365 27.7433 365.392C27.5753 365.776 27.3313 366.072 27.0113 366.28C26.6913 366.488 26.3073 366.592 25.8593 366.592ZM25.8593 365.584C26.1473 365.584 26.3713 365.456 26.5313 365.2C26.6913 364.936 26.7713 364.536 26.7713 364C26.7713 363.464 26.6913 363.068 26.5313 362.812C26.3713 362.556 26.1473 362.428 25.8593 362.428C25.5713 362.428 25.3473 362.556 25.1873 362.812C25.0273 363.06 24.9473 363.456 24.9473 364C24.9473 364.544 25.0273 364.944 25.1873 365.2C25.3473 365.456 25.5713 365.584 25.8593 365.584ZM31.8833 370.12C31.4353 370.12 31.0513 370.016 30.7313 369.808C30.4113 369.6 30.1673 369.304 29.9993 368.92C29.8313 368.528 29.7473 368.064 29.7473 367.528C29.7473 366.728 29.9353 366.1 30.3113 365.644C30.6873 365.18 31.2113 364.948 31.8833 364.948C32.3313 364.948 32.7153 365.052 33.0353 365.26C33.3553 365.468 33.5993 365.764 33.7673 366.148C33.9353 366.532 34.0193 366.992 34.0193 367.528C34.0193 368.064 33.9353 368.528 33.7673 368.92C33.5993 369.304 33.3553 369.6 33.0353 369.808C32.7153 370.016 32.3313 370.12 31.8833 370.12ZM31.8833 369.112C32.1713 369.112 32.3953 368.984 32.5553 368.728C32.7153 368.464 32.7953 368.064 32.7953 367.528C32.7953 366.992 32.7153 366.596 32.5553 366.34C32.3953 366.084 32.1713 365.956 31.8833 365.956C31.5953 365.956 31.3713 366.084 31.2113 366.34C31.0513 366.588 30.9713 366.984 30.9713 367.528C30.9713 368.072 31.0513 368.472 31.2113 368.728C31.3713 368.984 31.5953 369.112 31.8833 369.112Z" fill="#808283"/>
<rect x="466" y="115" width="2" height="252" rx="1" fill="#A06AFF"/>
<g filter="url(#filter0_d_2198_8437)">
<path d="M68 337L70.6405 332L72.9037 333.5L74.4126 330C75.0413 330.667 76.4495 332 77.053 332C77.6566 332 82.0825 327.333 84.22 325L89.1238 331L92.1415 327.5L95.5363 345L97.7996 339L99.3084 341.5L100.44 337.5L101.572 340L105.344 335.5L108.361 338L109.493 335.5L110.625 337.5L113.642 330L115.528 332L117.037 326L118.546 330.5L120.432 326.5L123.073 331L125.713 326L129.862 328.5L134.012 326.5L136.275 328.5L139.293 327.5L144.196 329L147.969 321.5L150.232 322.5L152.495 319.5L154.381 321.5L156.644 318L159.662 321.5L160.794 318.5L163.434 325L168.338 322.5L170.601 325L173.242 322.5L175.882 323.5L178.523 319.5L180.031 321L181.54 315L185.69 313L186.821 305.5L187.953 308.5L193.988 294L195.497 298L196.629 291.5L199.646 294.5L203.418 277H206.436L208.322 243.5L210.585 247.5L212.849 217L215.866 250L218.507 240L220.77 244.5L228.314 157L231.709 200L235.481 143.5L237.367 162L238.876 154L241.139 172.5L243.403 151L246.043 158.5L248.684 134.5L252.833 186L255.851 157L256.605 167.5L258.491 154L263.395 236.5L265.281 222.5L266.035 236L267.921 224L269.807 241.5L272.825 217L274.711 249L276.597 240L277.729 249L279.992 237.5L286.782 254L288.668 210.5L291.308 224L294.326 196.5L295.458 202.5C296.086 198.5 297.344 190.7 297.344 191.5C297.344 192.3 298.098 197.5 298.475 200L303.002 176L306.397 201.5L308.283 189.5C309.54 197.167 312.055 212.6 312.055 213C312.055 213.4 314.067 179.167 315.073 162L316.582 169L321.108 129.5C322.365 137.333 324.88 152.9 324.88 152.5C324.88 152.1 325.886 142.333 326.389 137.5L327.143 142L330.538 120L332.047 157.5L333.933 150L335.819 170L338.837 157.5C339.466 168.5 340.798 190.6 341.1 191C341.402 191.4 342.735 185.5 343.363 182.5L345.25 194.5L347.513 179.5L352.039 214L355.434 203.5L358.829 235L360.715 225L362.224 228.5L366.373 200.5L369.768 228.5L373.163 203.5L376.181 226L377.312 215.5L378.444 221.5L382.216 192.5L388.251 220.5L391.646 214L392.401 223L395.041 218.5L397.682 228L400.699 258L403.34 250L405.226 257.5L408.244 250L415.788 294L418.051 286L419.56 293L422.2 286L424.086 293L430.876 276L433.14 285L436.912 275L439.929 286L442.57 281.5L445.21 293L448.982 282.5L452 295.5" stroke="#A06AFF" stroke-width="1.5" stroke-linecap="round"/>
</g>
<g filter="url(#filter1_d_2198_8437)">
<path d="M68 319L82.7166 315.156L94.0107 314.195L104.278 310.671H110.096L111.123 308.749C118.538 308.322 133.437 307.275 133.711 306.506C133.985 305.737 137.704 301.06 139.529 298.818L147.059 297.216H149.797L160.406 292.09L162.118 293.372L167.594 292.09L172.727 287.605L173.412 290.168L176.834 288.246H180.941L186.417 284.722L190.524 278.315H194.631L198.396 275.432V276.073L203.187 274.15L213.112 258.453L213.797 260.375L232.278 249.163H235.016L249.733 240.513H253.155L261.711 230.582L263.422 214.565L266.16 212.642V227.058L268.556 213.283L270.61 229.301L276.086 220.011L277.112 221.612L279.508 218.409H281.562L282.93 216.807L283.615 217.448L291.829 208.798L292.856 210.08L298.332 203.673L300.385 204.634L303.123 197.906L304.492 198.867L307.914 193.101L308.941 196.625L309.626 194.382L311.337 195.984L317.134 330L320.578 179.326L321.947 178.044L322.631 180.927L324.342 178.044L326.053 180.287L330.503 175.802L332.214 176.763L340.77 172.598L345.904 179.326L353.775 172.598L355.829 174.2L360.963 170.356L363.016 170.996L370.203 161.065L373.626 163.308L385.604 155.94L393.134 153.697L396.556 157.542L398.61 153.697L402.374 155.94L408.877 152.096L411.615 154.338L416.406 157.542L417.433 160.104L426.332 155.94L429.754 156.901L434.888 155.299L436.257 155.94L438.995 152.096L442.075 150.814L445.155 146.97L446.866 141.204L452 138" stroke="#FFA800" stroke-width="1.5"/>
</g>
<defs>
<filter id="filter0_d_2198_8437" x="59.25" y="111.886" width="401.5" height="243.855" filterUnits="userSpaceOnUse" color-interpolation-filters="sRGB">
<feFlood flood-opacity="0" result="BackgroundImageFix"/>
<feColorMatrix in="SourceAlpha" type="matrix" values="0 0 0 0 0 0 0 0 0 0 0 0 0 0 0 0 0 0 127 0" result="hardAlpha"/>
<feOffset/>
<feGaussianBlur stdDeviation="4"/>
<feComposite in2="hardAlpha" operator="out"/>
<feColorMatrix type="matrix" values="0 0 0 0 0.627451 0 0 0 0 0.415686 0 0 0 0 1 0 0 0 0.24 0"/>
<feBlend mode="normal" in2="BackgroundImageFix" result="effect1_dropShadow_2198_8437"/>
<feBlend mode="normal" in="SourceGraphic" in2="effect1_dropShadow_2198_8437" result="shape"/>
</filter>
<filter id="filter1_d_2198_8437" x="59.8086" y="129.363" width="400.59" height="208.669" filterUnits="userSpaceOnUse" color-interpolation-filters="sRGB">
<feFlood flood-opacity="0" result="BackgroundImageFix"/>
<feColorMatrix in="SourceAlpha" type="matrix" values="0 0 0 0 0 0 0 0 0 0 0 0 0 0 0 0 0 0 127 0" result="hardAlpha"/>
<feOffset/>
<feGaussianBlur stdDeviation="4"/>
<feComposite in2="hardAlpha" operator="out"/>
<feColorMatrix type="matrix" values="0 0 0 0 1 0 0 0 0 0.658824 0 0 0 0 0 0 0 0 0.24 0"/>
<feBlend mode="normal" in2="BackgroundImageFix" result="effect1_dropShadow_2198_8437"/>
<feBlend mode="normal" in="SourceGraphic" in2="effect1_dropShadow_2198_8437" result="shape"/>
</filter>
</defs>
</svg>
