<svg width="528" height="414" viewBox="0 0 528 414" fill="none" xmlns="http://www.w3.org/2000/svg">
<rect width="528" height="414" rx="8" fill="#181A20"/>
<rect x="16" y="319" width="454" height="16" fill="#1C3430"/>
<rect x="16" y="183" width="454" height="48" fill="#3A2127"/>
<path d="M17.896 42V25.08H20.464L26.848 36.864H26.08L32.44 25.08H34.96V42H32.176V29.64H32.704L27.328 39.432H25.528L20.104 29.616H20.68V42H17.896ZM44.1079 42L36.5719 25.08H39.8599L45.9799 39.264H44.9479L51.0439 25.08H54.2119L46.6759 42H44.1079ZM55.7933 42V25.08H63.1373C64.9933 25.08 66.4253 25.528 67.4333 26.424C68.4413 27.304 68.9453 28.544 68.9453 30.144C68.9453 31.184 68.7133 32.08 68.2493 32.832C67.8013 33.584 67.1453 34.16 66.2813 34.56C65.4173 34.96 64.3693 35.16 63.1373 35.16L63.3533 34.8H64.1453C64.8013 34.8 65.3693 34.96 65.8493 35.28C66.3453 35.6 66.7773 36.104 67.1453 36.792L69.9773 42H66.5933L63.6653 36.6C63.4733 36.248 63.2573 35.976 63.0173 35.784C62.7773 35.576 62.5053 35.432 62.2013 35.352C61.8973 35.272 61.5453 35.232 61.1453 35.232H58.8653V42H55.7933ZM58.8653 32.952H62.6093C63.7133 32.952 64.5453 32.728 65.1053 32.28C65.6813 31.816 65.9693 31.128 65.9693 30.216C65.9693 29.32 65.6813 28.648 65.1053 28.2C64.5453 27.736 63.7133 27.504 62.6093 27.504H58.8653V32.952ZM77.3658 42L69.8297 25.08H73.1178L79.2378 39.264H78.2058L84.3018 25.08H87.4698L79.9338 42H77.3658ZM94.7999 42V39.744L104.448 26.664V27.648H94.7999V25.08H107.328V27.336L97.6799 40.392V39.432H107.688V42H94.7999ZM109.366 36.768V34.368H116.518V36.768H109.366ZM125.352 42.24C124.472 42.24 123.624 42.16 122.808 42C122.008 41.856 121.264 41.64 120.576 41.352C119.904 41.064 119.304 40.72 118.776 40.32L119.712 37.896C120.24 38.264 120.792 38.584 121.368 38.856C121.96 39.112 122.584 39.312 123.24 39.456C123.912 39.584 124.616 39.648 125.352 39.648C126.616 39.648 127.536 39.44 128.112 39.024C128.688 38.592 128.976 38.04 128.976 37.368C128.976 37 128.888 36.688 128.712 36.432C128.536 36.16 128.248 35.928 127.848 35.736C127.448 35.544 126.92 35.384 126.264 35.256L123.624 34.704C122.104 34.384 120.968 33.848 120.216 33.096C119.48 32.328 119.112 31.32 119.112 30.072C119.112 29.016 119.392 28.096 119.952 27.312C120.512 26.528 121.288 25.92 122.28 25.488C123.272 25.056 124.416 24.84 125.712 24.84C126.48 24.84 127.216 24.92 127.92 25.08C128.64 25.224 129.296 25.448 129.888 25.752C130.496 26.04 131.024 26.392 131.472 26.808L130.536 29.112C129.864 28.552 129.128 28.136 128.328 27.864C127.528 27.576 126.648 27.432 125.688 27.432C124.952 27.432 124.32 27.536 123.792 27.744C123.264 27.952 122.856 28.248 122.568 28.632C122.296 29 122.16 29.44 122.16 29.952C122.16 30.528 122.352 30.992 122.736 31.344C123.12 31.68 123.776 31.944 124.704 32.136L127.32 32.688C128.904 33.024 130.08 33.552 130.848 34.272C131.632 34.992 132.024 35.952 132.024 37.152C132.024 38.16 131.752 39.048 131.208 39.816C130.664 40.584 129.888 41.184 128.88 41.616C127.888 42.032 126.712 42.24 125.352 42.24ZM139.797 42.24C138.565 42.24 137.493 41.992 136.581 41.496C135.669 40.984 134.965 40.264 134.469 39.336C133.973 38.408 133.725 37.32 133.725 36.072C133.725 34.824 133.973 33.752 134.469 32.856C134.965 31.944 135.669 31.248 136.581 30.768C137.493 30.272 138.565 30.024 139.797 30.024C140.549 30.024 141.293 30.144 142.029 30.384C142.765 30.624 143.373 30.96 143.853 31.392L142.965 33.48C142.549 33.112 142.077 32.832 141.549 32.64C141.037 32.448 140.541 32.352 140.061 32.352C139.021 32.352 138.213 32.68 137.637 33.336C137.077 33.976 136.797 34.896 136.797 36.096C136.797 37.28 137.077 38.216 137.637 38.904C138.213 39.576 139.021 39.912 140.061 39.912C140.525 39.912 141.021 39.816 141.549 39.624C142.077 39.432 142.549 39.144 142.965 38.76L143.853 40.872C143.373 41.288 142.757 41.624 142.005 41.88C141.269 42.12 140.533 42.24 139.797 42.24ZM150.81 42.24C149.594 42.24 148.538 41.992 147.642 41.496C146.746 41 146.05 40.296 145.554 39.384C145.058 38.456 144.81 37.368 144.81 36.12C144.81 34.872 145.058 33.792 145.554 32.88C146.05 31.968 146.746 31.264 147.642 30.768C148.538 30.272 149.594 30.024 150.81 30.024C152.026 30.024 153.082 30.272 153.978 30.768C154.874 31.264 155.57 31.968 156.066 32.88C156.562 33.792 156.81 34.872 156.81 36.12C156.81 37.368 156.562 38.456 156.066 39.384C155.57 40.296 154.874 41 153.978 41.496C153.082 41.992 152.026 42.24 150.81 42.24ZM150.81 39.96C151.706 39.96 152.426 39.64 152.97 39C153.514 38.344 153.786 37.384 153.786 36.12C153.786 34.84 153.514 33.888 152.97 33.264C152.426 32.624 151.706 32.304 150.81 32.304C149.914 32.304 149.194 32.624 148.65 33.264C148.106 33.888 147.834 34.84 147.834 36.12C147.834 37.384 148.106 38.344 148.65 39C149.194 39.64 149.914 39.96 150.81 39.96ZM159.287 42V30.264H162.215V33.096H161.975C162.199 32.136 162.639 31.408 163.295 30.912C163.951 30.4 164.823 30.104 165.911 30.024L166.823 29.952L167.015 32.496L165.287 32.664C164.311 32.76 163.575 33.064 163.079 33.576C162.583 34.072 162.335 34.776 162.335 35.688V42H159.287ZM174.282 42.24C172.954 42.24 171.81 41.992 170.85 41.496C169.89 41 169.146 40.296 168.618 39.384C168.106 38.472 167.85 37.392 167.85 36.144C167.85 34.928 168.098 33.864 168.594 32.952C169.106 32.04 169.802 31.328 170.682 30.816C171.578 30.288 172.594 30.024 173.73 30.024C174.85 30.024 175.81 30.264 176.61 30.744C177.41 31.224 178.026 31.904 178.458 32.784C178.906 33.664 179.13 34.712 179.13 35.928V36.816H170.274V35.088H177.018L176.634 35.448C176.634 34.36 176.394 33.528 175.914 32.952C175.434 32.36 174.746 32.064 173.85 32.064C173.178 32.064 172.602 32.224 172.122 32.544C171.658 32.848 171.298 33.288 171.042 33.864C170.802 34.424 170.682 35.096 170.682 35.88V36.048C170.682 36.928 170.818 37.656 171.09 38.232C171.362 38.808 171.77 39.24 172.314 39.528C172.858 39.816 173.53 39.96 174.33 39.96C174.986 39.96 175.642 39.864 176.298 39.672C176.954 39.464 177.554 39.144 178.098 38.712L178.938 40.728C178.378 41.192 177.674 41.56 176.826 41.832C175.978 42.104 175.13 42.24 174.282 42.24Z" fill="white"/>
<rect y="59" width="528" height="1" fill="#313338"/>
<rect x="16" y="80" width="8" height="8" rx="4" fill="#FFA800"/>
<path d="M28.948 88V79.54H30.232L33.424 85.432H33.04L36.22 79.54H37.48V88H36.088V81.82H36.352L33.664 86.716H32.764L30.052 81.808H30.34V88H28.948ZM42.054 88L38.286 79.54H39.93L42.99 86.632H42.474L45.522 79.54H47.106L43.338 88H42.054ZM47.8967 88V79.54H51.5687C52.4967 79.54 53.2127 79.764 53.7167 80.212C54.2207 80.652 54.4727 81.272 54.4727 82.072C54.4727 82.592 54.3567 83.04 54.1247 83.416C53.9007 83.792 53.5727 84.08 53.1407 84.28C52.7087 84.48 52.1847 84.58 51.5687 84.58L51.6767 84.4H52.0727C52.4007 84.4 52.6847 84.48 52.9247 84.64C53.1727 84.8 53.3887 85.052 53.5727 85.396L54.9887 88H53.2967L51.8327 85.3C51.7367 85.124 51.6287 84.988 51.5087 84.892C51.3887 84.788 51.2527 84.716 51.1007 84.676C50.9487 84.636 50.7727 84.616 50.5727 84.616H49.4327V88H47.8967ZM49.4327 83.476H51.3047C51.8567 83.476 52.2727 83.364 52.5527 83.14C52.8407 82.908 52.9847 82.564 52.9847 82.108C52.9847 81.66 52.8407 81.324 52.5527 81.1C52.2727 80.868 51.8567 80.752 51.3047 80.752H49.4327V83.476ZM58.6829 88L54.9149 79.54H56.5589L59.6189 86.632H59.1029L62.1509 79.54H63.7349L59.9669 88H58.6829ZM67.3999 88V86.872L72.2239 80.332V80.824H67.3999V79.54H73.6639V80.668L68.8399 87.196V86.716H73.8439V88H67.3999ZM74.6832 85.384V84.184H78.2592V85.384H74.6832ZM82.6759 88.12C82.2359 88.12 81.8119 88.08 81.4039 88C81.0039 87.928 80.6319 87.82 80.2879 87.676C79.9519 87.532 79.6519 87.36 79.3879 87.16L79.8559 85.948C80.1199 86.132 80.3959 86.292 80.6839 86.428C80.9799 86.556 81.2919 86.656 81.6199 86.728C81.9559 86.792 82.3079 86.824 82.6759 86.824C83.3079 86.824 83.7679 86.72 84.0559 86.512C84.3439 86.296 84.4879 86.02 84.4879 85.684C84.4879 85.5 84.4439 85.344 84.3559 85.216C84.2679 85.08 84.1239 84.964 83.9239 84.868C83.7239 84.772 83.4599 84.692 83.1319 84.628L81.8119 84.352C81.0519 84.192 80.4839 83.924 80.1079 83.548C79.7399 83.164 79.5559 82.66 79.5559 82.036C79.5559 81.508 79.6959 81.048 79.9759 80.656C80.2559 80.264 80.6439 79.96 81.1399 79.744C81.6359 79.528 82.2079 79.42 82.8559 79.42C83.2399 79.42 83.6079 79.46 83.9599 79.54C84.3199 79.612 84.6479 79.724 84.9439 79.876C85.2479 80.02 85.5119 80.196 85.7359 80.404L85.2679 81.556C84.9319 81.276 84.5639 81.068 84.1639 80.932C83.7639 80.788 83.3239 80.716 82.8439 80.716C82.4759 80.716 82.1599 80.768 81.8959 80.872C81.6319 80.976 81.4279 81.124 81.2839 81.316C81.1479 81.5 81.0799 81.72 81.0799 81.976C81.0799 82.264 81.1759 82.496 81.3679 82.672C81.5599 82.84 81.8879 82.972 82.3519 83.068L83.6599 83.344C84.4519 83.512 85.0399 83.776 85.4239 84.136C85.8159 84.496 86.0119 84.976 86.0119 85.576C86.0119 86.08 85.8759 86.524 85.6039 86.908C85.3319 87.292 84.9439 87.592 84.4399 87.808C83.9439 88.016 83.3559 88.12 82.6759 88.12ZM91.2663 88.12C90.3863 88.12 89.6303 87.944 88.9983 87.592C88.3743 87.232 87.8943 86.728 87.5583 86.08C87.2223 85.424 87.0543 84.652 87.0543 83.764C87.0543 82.876 87.2223 82.108 87.5583 81.46C87.8943 80.812 88.3743 80.312 88.9983 79.96C89.6303 79.6 90.3863 79.42 91.2663 79.42C91.8343 79.42 92.3703 79.508 92.8743 79.684C93.3863 79.86 93.8063 80.112 94.1343 80.44L93.6303 81.664C93.2703 81.36 92.9023 81.14 92.5263 81.004C92.1503 80.86 91.7463 80.788 91.3143 80.788C90.4583 80.788 89.8063 81.048 89.3583 81.568C88.9103 82.08 88.6863 82.812 88.6863 83.764C88.6863 84.716 88.9103 85.452 89.3583 85.972C89.8063 86.492 90.4583 86.752 91.3143 86.752C91.7463 86.752 92.1503 86.684 92.5263 86.548C92.9023 86.404 93.2703 86.18 93.6303 85.876L94.1343 87.1C93.8063 87.42 93.3863 87.672 92.8743 87.856C92.3703 88.032 91.8343 88.12 91.2663 88.12ZM98.9973 88.12C98.3813 88.12 97.8213 88.02 97.3173 87.82C96.8213 87.612 96.3933 87.316 96.0333 86.932C95.6813 86.548 95.4093 86.088 95.2173 85.552C95.0253 85.016 94.9293 84.42 94.9293 83.764C94.9293 83.1 95.0253 82.504 95.2173 81.976C95.4093 81.44 95.6813 80.984 96.0333 80.608C96.3933 80.224 96.8213 79.932 97.3173 79.732C97.8213 79.524 98.3813 79.42 98.9973 79.42C99.6133 79.42 100.169 79.524 100.665 79.732C101.169 79.932 101.597 80.22 101.949 80.596C102.309 80.972 102.585 81.428 102.777 81.964C102.969 82.492 103.065 83.088 103.065 83.752C103.065 84.416 102.969 85.016 102.777 85.552C102.585 86.088 102.309 86.548 101.949 86.932C101.597 87.316 101.169 87.612 100.665 87.82C100.169 88.02 99.6133 88.12 98.9973 88.12ZM98.9973 86.8C99.5173 86.8 99.9573 86.68 100.317 86.44C100.685 86.2 100.965 85.852 101.157 85.396C101.357 84.94 101.457 84.396 101.457 83.764C101.457 83.124 101.361 82.58 101.169 82.132C100.977 81.676 100.697 81.332 100.329 81.1C99.9613 80.86 99.5173 80.74 98.9973 80.74C98.4853 80.74 98.0453 80.86 97.6773 81.1C97.3093 81.332 97.0253 81.676 96.8253 82.132C96.6333 82.58 96.5373 83.124 96.5373 83.764C96.5373 84.396 96.6333 84.94 96.8253 85.396C97.0253 85.852 97.3093 86.2 97.6773 86.44C98.0453 86.68 98.4853 86.8 98.9973 86.8ZM104.627 88V79.54H108.299C109.227 79.54 109.943 79.764 110.447 80.212C110.951 80.652 111.203 81.272 111.203 82.072C111.203 82.592 111.087 83.04 110.855 83.416C110.631 83.792 110.303 84.08 109.871 84.28C109.439 84.48 108.915 84.58 108.299 84.58L108.407 84.4H108.803C109.131 84.4 109.415 84.48 109.655 84.64C109.903 84.8 110.119 85.052 110.303 85.396L111.719 88H110.027L108.563 85.3C108.467 85.124 108.359 84.988 108.239 84.892C108.119 84.788 107.983 84.716 107.831 84.676C107.679 84.636 107.503 84.616 107.303 84.616H106.163V88H104.627ZM106.163 83.476H108.035C108.587 83.476 109.003 83.364 109.283 83.14C109.571 82.908 109.715 82.564 109.715 82.108C109.715 81.66 109.571 81.324 109.283 81.1C109.003 80.868 108.587 80.752 108.035 80.752H106.163V83.476ZM112.854 88V79.54H118.482V80.764H114.33V83.092H118.218V84.316H114.33V86.776H118.482V88H112.854Z" fill="#808283"/>
<rect x="132" y="80" width="8" height="8" rx="4" fill="#A06AFF"/>
<path d="M144.924 88V79.54H148.596C149.22 79.54 149.748 79.644 150.18 79.852C150.612 80.06 150.94 80.36 151.164 80.752C151.388 81.144 151.5 81.62 151.5 82.18C151.5 82.732 151.388 83.208 151.164 83.608C150.94 84 150.612 84.304 150.18 84.52C149.748 84.728 149.22 84.832 148.596 84.832H146.46V88H144.924ZM146.46 83.62H148.356C148.9 83.62 149.312 83.5 149.592 83.26C149.872 83.012 150.012 82.652 150.012 82.18C150.012 81.708 149.872 81.352 149.592 81.112C149.312 80.872 148.9 80.752 148.356 80.752H146.46V83.62ZM152.752 88V79.54H156.424C157.352 79.54 158.068 79.764 158.572 80.212C159.076 80.652 159.328 81.272 159.328 82.072C159.328 82.592 159.212 83.04 158.98 83.416C158.756 83.792 158.428 84.08 157.996 84.28C157.564 84.48 157.04 84.58 156.424 84.58L156.532 84.4H156.928C157.256 84.4 157.54 84.48 157.78 84.64C158.028 84.8 158.244 85.052 158.428 85.396L159.844 88H158.152L156.688 85.3C156.592 85.124 156.484 84.988 156.364 84.892C156.244 84.788 156.108 84.716 155.956 84.676C155.804 84.636 155.628 84.616 155.428 84.616H154.288V88H152.752ZM154.288 83.476H156.16C156.712 83.476 157.128 83.364 157.408 83.14C157.696 82.908 157.84 82.564 157.84 82.108C157.84 81.66 157.696 81.324 157.408 81.1C157.128 80.868 156.712 80.752 156.16 80.752H154.288V83.476ZM160.979 88V79.54H162.515V88H160.979ZM168.29 88.12C167.41 88.12 166.654 87.944 166.022 87.592C165.398 87.232 164.918 86.728 164.582 86.08C164.246 85.424 164.078 84.652 164.078 83.764C164.078 82.876 164.246 82.108 164.582 81.46C164.918 80.812 165.398 80.312 166.022 79.96C166.654 79.6 167.41 79.42 168.29 79.42C168.858 79.42 169.394 79.508 169.898 79.684C170.41 79.86 170.83 80.112 171.158 80.44L170.654 81.664C170.294 81.36 169.926 81.14 169.55 81.004C169.174 80.86 168.77 80.788 168.338 80.788C167.482 80.788 166.83 81.048 166.382 81.568C165.934 82.08 165.71 82.812 165.71 83.764C165.71 84.716 165.934 85.452 166.382 85.972C166.83 86.492 167.482 86.752 168.338 86.752C168.77 86.752 169.174 86.684 169.55 86.548C169.926 86.404 170.294 86.18 170.654 85.876L171.158 87.1C170.83 87.42 170.41 87.672 169.898 87.856C169.394 88.032 168.858 88.12 168.29 88.12ZM172.498 88V79.54H178.126V80.764H173.974V83.092H177.862V84.316H173.974V86.776H178.126V88H172.498ZM184.825 90.34C184.233 89.46 183.809 88.564 183.553 87.652C183.297 86.732 183.169 85.796 183.169 84.844C183.169 83.884 183.297 82.948 183.553 82.036C183.809 81.124 184.233 80.228 184.825 79.348L185.845 79.756C185.597 80.364 185.393 80.948 185.233 81.508C185.073 82.06 184.957 82.608 184.885 83.152C184.813 83.696 184.777 84.26 184.777 84.844C184.777 85.42 184.813 85.984 184.885 86.536C184.957 87.08 185.073 87.628 185.233 88.18C185.393 88.732 185.597 89.316 185.845 89.932L184.825 90.34ZM189.39 89.38V87.808L189.666 88.072C189.082 88.056 188.53 87.968 188.01 87.808C187.498 87.64 187.054 87.408 186.678 87.112L187.146 85.9C187.394 86.084 187.658 86.244 187.938 86.38C188.226 86.508 188.526 86.608 188.838 86.68C189.158 86.744 189.498 86.776 189.858 86.776C190.442 86.776 190.87 86.672 191.142 86.464C191.414 86.256 191.55 85.996 191.55 85.684C191.55 85.404 191.458 85.18 191.274 85.012C191.09 84.844 190.762 84.708 190.29 84.604L189.018 84.328C188.298 84.168 187.754 83.904 187.386 83.536C187.026 83.16 186.846 82.664 186.846 82.048C186.846 81.576 186.962 81.156 187.194 80.788C187.426 80.412 187.75 80.112 188.166 79.888C188.582 79.664 189.07 79.532 189.63 79.492L189.39 79.672V78.16H190.59V79.672L190.338 79.48C190.794 79.504 191.242 79.596 191.682 79.756C192.13 79.916 192.502 80.148 192.798 80.452L192.342 81.604C192.038 81.324 191.69 81.116 191.298 80.98C190.906 80.836 190.478 80.764 190.014 80.764C189.518 80.764 189.118 80.88 188.814 81.112C188.518 81.336 188.37 81.632 188.37 82C188.37 82.272 188.462 82.492 188.646 82.66C188.83 82.828 189.126 82.956 189.534 83.044L190.806 83.32C191.574 83.488 192.142 83.756 192.51 84.124C192.886 84.484 193.074 84.964 193.074 85.564C193.074 86.028 192.958 86.44 192.726 86.8C192.494 87.152 192.174 87.436 191.766 87.652C191.366 87.86 190.898 87.992 190.362 88.048L190.59 87.796V89.38H189.39ZM194.905 90.34L193.885 89.932C194.133 89.308 194.333 88.716 194.485 88.156C194.645 87.604 194.761 87.06 194.833 86.524C194.913 85.98 194.953 85.42 194.953 84.844C194.953 84.268 194.913 83.712 194.833 83.176C194.761 82.632 194.645 82.08 194.485 81.52C194.333 80.96 194.133 80.372 193.885 79.756L194.905 79.348C195.497 80.228 195.921 81.128 196.177 82.048C196.433 82.96 196.561 83.892 196.561 84.844C196.561 85.796 196.433 86.732 196.177 87.652C195.921 88.564 195.497 89.46 194.905 90.34Z" fill="#808283"/>
<rect x="16" y="115.5" width="454" height="1" fill="#23252D"/>
<path d="M478.37 121.38V119.808L478.646 120.072C478.062 120.056 477.51 119.968 476.99 119.808C476.478 119.64 476.034 119.408 475.658 119.112L476.126 117.9C476.374 118.084 476.638 118.244 476.918 118.38C477.206 118.508 477.506 118.608 477.818 118.68C478.138 118.744 478.478 118.776 478.838 118.776C479.422 118.776 479.85 118.672 480.122 118.464C480.394 118.256 480.53 117.996 480.53 117.684C480.53 117.404 480.438 117.18 480.254 117.012C480.07 116.844 479.742 116.708 479.27 116.604L477.998 116.328C477.278 116.168 476.734 115.904 476.366 115.536C476.006 115.16 475.826 114.664 475.826 114.048C475.826 113.576 475.942 113.156 476.174 112.788C476.406 112.412 476.73 112.112 477.146 111.888C477.562 111.664 478.05 111.532 478.61 111.492L478.37 111.672V110.16H479.57V111.672L479.318 111.48C479.774 111.504 480.222 111.596 480.662 111.756C481.11 111.916 481.482 112.148 481.778 112.452L481.322 113.604C481.018 113.324 480.67 113.116 480.278 112.98C479.886 112.836 479.458 112.764 478.994 112.764C478.498 112.764 478.098 112.88 477.794 113.112C477.498 113.336 477.35 113.632 477.35 114C477.35 114.272 477.442 114.492 477.626 114.66C477.81 114.828 478.106 114.956 478.514 115.044L479.786 115.32C480.554 115.488 481.122 115.756 481.49 116.124C481.866 116.484 482.054 116.964 482.054 117.564C482.054 118.028 481.938 118.44 481.706 118.8C481.474 119.152 481.154 119.436 480.746 119.652C480.346 119.86 479.878 119.992 479.342 120.048L479.57 119.796V121.38H478.37ZM483.753 120V118.728H485.661V112.836H486.405L484.185 114.18L483.585 113.052L486.105 111.54H487.197V118.728H488.985V120H483.753ZM493.241 120.12C492.577 120.12 492.013 119.952 491.549 119.616C491.093 119.272 490.745 118.776 490.505 118.128C490.273 117.48 490.157 116.688 490.157 115.752C490.157 114.808 490.273 114.016 490.505 113.376C490.745 112.728 491.093 112.24 491.549 111.912C492.013 111.584 492.577 111.42 493.241 111.42C493.913 111.42 494.477 111.584 494.933 111.912C495.397 112.24 495.745 112.724 495.977 113.364C496.209 114.004 496.325 114.796 496.325 115.74C496.325 116.676 496.205 117.472 495.965 118.128C495.733 118.776 495.389 119.272 494.933 119.616C494.477 119.952 493.913 120.12 493.241 120.12ZM493.241 118.86C493.785 118.86 494.185 118.612 494.441 118.116C494.705 117.612 494.837 116.82 494.837 115.74C494.837 114.668 494.705 113.892 494.441 113.412C494.185 112.924 493.785 112.68 493.241 112.68C492.705 112.68 492.305 112.924 492.041 113.412C491.777 113.892 491.645 114.672 491.645 115.752C491.645 116.824 491.777 117.612 492.041 118.116C492.305 118.612 492.705 118.86 493.241 118.86ZM500.436 120.12C499.772 120.12 499.208 119.952 498.744 119.616C498.288 119.272 497.94 118.776 497.7 118.128C497.468 117.48 497.352 116.688 497.352 115.752C497.352 114.808 497.468 114.016 497.7 113.376C497.94 112.728 498.288 112.24 498.744 111.912C499.208 111.584 499.772 111.42 500.436 111.42C501.108 111.42 501.672 111.584 502.128 111.912C502.592 112.24 502.94 112.724 503.172 113.364C503.404 114.004 503.52 114.796 503.52 115.74C503.52 116.676 503.4 117.472 503.16 118.128C502.928 118.776 502.584 119.272 502.128 119.616C501.672 119.952 501.108 120.12 500.436 120.12ZM500.436 118.86C500.98 118.86 501.38 118.612 501.636 118.116C501.9 117.612 502.032 116.82 502.032 115.74C502.032 114.668 501.9 113.892 501.636 113.412C501.38 112.924 500.98 112.68 500.436 112.68C499.9 112.68 499.5 112.924 499.236 113.412C498.972 113.892 498.84 114.672 498.84 115.752C498.84 116.824 498.972 117.612 499.236 118.116C499.5 118.612 499.9 118.86 500.436 118.86ZM504.955 120V111.54H506.491V115.284H506.515L510.247 111.54H512.119L507.655 115.956L507.667 115.26L512.323 120H510.427L506.515 116.088H506.491V120H504.955Z" fill="#808283"/>
<rect x="16" y="134.731" width="454" height="1" fill="#23252D"/>
<path d="M485.565 140.611V139.039L485.841 139.303C485.257 139.287 484.705 139.199 484.185 139.039C483.673 138.871 483.229 138.639 482.853 138.343L483.321 137.131C483.569 137.315 483.833 137.475 484.113 137.611C484.401 137.739 484.701 137.839 485.013 137.911C485.333 137.975 485.673 138.007 486.033 138.007C486.617 138.007 487.045 137.903 487.317 137.695C487.589 137.487 487.725 137.227 487.725 136.915C487.725 136.635 487.633 136.411 487.449 136.243C487.265 136.075 486.937 135.939 486.465 135.835L485.193 135.559C484.473 135.399 483.929 135.135 483.561 134.767C483.201 134.391 483.021 133.895 483.021 133.279C483.021 132.807 483.137 132.387 483.369 132.019C483.601 131.643 483.925 131.343 484.341 131.119C484.757 130.895 485.245 130.763 485.805 130.723L485.565 130.903V129.391H486.765V130.903L486.513 130.711C486.969 130.735 487.417 130.827 487.857 130.987C488.305 131.147 488.677 131.379 488.973 131.683L488.517 132.835C488.213 132.555 487.865 132.347 487.473 132.211C487.081 132.067 486.653 131.995 486.189 131.995C485.693 131.995 485.293 132.111 484.989 132.343C484.693 132.567 484.545 132.863 484.545 133.231C484.545 133.503 484.637 133.723 484.821 133.891C485.005 134.059 485.301 134.187 485.709 134.275L486.981 134.551C487.749 134.719 488.317 134.987 488.685 135.355C489.061 135.715 489.249 136.195 489.249 136.795C489.249 137.259 489.133 137.671 488.901 138.031C488.669 138.383 488.349 138.667 487.941 138.883C487.541 139.091 487.073 139.223 486.537 139.279L486.765 139.027V140.611H485.565ZM493.553 139.351C492.857 139.351 492.261 139.187 491.765 138.859C491.277 138.523 490.905 138.043 490.649 137.419C490.393 136.795 490.265 136.039 490.265 135.151C490.265 134.191 490.409 133.379 490.697 132.715C490.985 132.043 491.401 131.531 491.945 131.179C492.489 130.827 493.141 130.651 493.901 130.651C494.197 130.651 494.493 130.691 494.789 130.771C495.093 130.843 495.377 130.951 495.641 131.095C495.913 131.231 496.153 131.399 496.361 131.599L495.857 132.751C495.561 132.479 495.245 132.279 494.909 132.151C494.573 132.015 494.229 131.947 493.877 131.947C493.533 131.947 493.225 132.011 492.953 132.139C492.689 132.259 492.465 132.443 492.281 132.691C492.097 132.931 491.957 133.235 491.861 133.603C491.773 133.963 491.729 134.383 491.729 134.863V135.763H491.585C491.649 135.355 491.781 135.007 491.981 134.719C492.189 134.423 492.453 134.199 492.773 134.047C493.093 133.887 493.449 133.807 493.841 133.807C494.329 133.807 494.761 133.923 495.137 134.155C495.513 134.387 495.809 134.707 496.025 135.115C496.241 135.523 496.349 135.991 496.349 136.519C496.349 137.063 496.229 137.551 495.989 137.983C495.757 138.407 495.429 138.743 495.005 138.991C494.589 139.231 494.105 139.351 493.553 139.351ZM493.469 138.127C493.757 138.127 494.009 138.063 494.225 137.935C494.449 137.807 494.621 137.627 494.741 137.395C494.861 137.155 494.921 136.883 494.921 136.579C494.921 136.267 494.861 135.995 494.741 135.763C494.621 135.531 494.449 135.351 494.225 135.223C494.009 135.087 493.757 135.019 493.469 135.019C493.181 135.019 492.929 135.087 492.713 135.223C492.497 135.351 492.325 135.531 492.197 135.763C492.077 135.995 492.017 136.267 492.017 136.579C492.017 136.883 492.077 137.155 492.197 137.395C492.325 137.627 492.497 137.807 492.713 137.935C492.929 138.063 493.181 138.127 493.469 138.127ZM500.436 139.351C499.772 139.351 499.208 139.183 498.744 138.847C498.288 138.503 497.94 138.007 497.7 137.359C497.468 136.711 497.352 135.919 497.352 134.983C497.352 134.039 497.468 133.247 497.7 132.607C497.94 131.959 498.288 131.471 498.744 131.143C499.208 130.815 499.772 130.651 500.436 130.651C501.108 130.651 501.672 130.815 502.128 131.143C502.592 131.471 502.94 131.955 503.172 132.595C503.404 133.235 503.52 134.027 503.52 134.971C503.52 135.907 503.4 136.703 503.16 137.359C502.928 138.007 502.584 138.503 502.128 138.847C501.672 139.183 501.108 139.351 500.436 139.351ZM500.436 138.091C500.98 138.091 501.38 137.843 501.636 137.347C501.9 136.843 502.032 136.051 502.032 134.971C502.032 133.899 501.9 133.123 501.636 132.643C501.38 132.155 500.98 131.911 500.436 131.911C499.9 131.911 499.5 132.155 499.236 132.643C498.972 133.123 498.84 133.903 498.84 134.983C498.84 136.055 498.972 136.843 499.236 137.347C499.5 137.843 499.9 138.091 500.436 138.091ZM504.955 139.231V130.771H506.491V134.515H506.515L510.247 130.771H512.119L507.655 135.187L507.667 134.491L512.323 139.231H510.427L506.515 135.319H506.491V139.231H504.955Z" fill="#808283"/>
<rect x="16" y="153.961" width="454" height="1" fill="#23252D"/>
<path d="M485.565 159.841V158.269L485.841 158.533C485.257 158.517 484.705 158.429 484.185 158.269C483.673 158.101 483.229 157.869 482.853 157.573L483.321 156.361C483.569 156.545 483.833 156.705 484.113 156.841C484.401 156.969 484.701 157.069 485.013 157.141C485.333 157.205 485.673 157.237 486.033 157.237C486.617 157.237 487.045 157.133 487.317 156.925C487.589 156.717 487.725 156.457 487.725 156.145C487.725 155.865 487.633 155.641 487.449 155.473C487.265 155.305 486.937 155.169 486.465 155.065L485.193 154.789C484.473 154.629 483.929 154.365 483.561 153.997C483.201 153.621 483.021 153.125 483.021 152.509C483.021 152.037 483.137 151.617 483.369 151.249C483.601 150.873 483.925 150.573 484.341 150.349C484.757 150.125 485.245 149.993 485.805 149.953L485.565 150.133V148.621H486.765V150.133L486.513 149.941C486.969 149.965 487.417 150.057 487.857 150.217C488.305 150.377 488.677 150.609 488.973 150.913L488.517 152.065C488.213 151.785 487.865 151.577 487.473 151.441C487.081 151.297 486.653 151.225 486.189 151.225C485.693 151.225 485.293 151.341 484.989 151.573C484.693 151.797 484.545 152.093 484.545 152.461C484.545 152.733 484.637 152.953 484.821 153.121C485.005 153.289 485.301 153.417 485.709 153.505L486.981 153.781C487.749 153.949 488.317 154.217 488.685 154.585C489.061 154.945 489.249 155.425 489.249 156.025C489.249 156.489 489.133 156.901 488.901 157.261C488.669 157.613 488.349 157.897 487.941 158.113C487.541 158.321 487.073 158.453 486.537 158.509L486.765 158.257V159.841H485.565ZM490.601 158.461V157.321L493.337 154.405C493.585 154.141 493.781 153.897 493.925 153.673C494.077 153.449 494.189 153.233 494.261 153.025C494.333 152.817 494.369 152.609 494.369 152.401C494.369 152.001 494.241 151.697 493.985 151.489C493.737 151.281 493.373 151.177 492.893 151.177C492.517 151.177 492.149 151.249 491.789 151.393C491.437 151.529 491.097 151.745 490.769 152.041L490.253 150.889C490.589 150.585 491.009 150.341 491.513 150.157C492.017 149.973 492.541 149.881 493.085 149.881C493.693 149.881 494.205 149.973 494.621 150.157C495.037 150.341 495.353 150.609 495.569 150.961C495.785 151.313 495.893 151.741 495.893 152.245C495.893 152.501 495.861 152.753 495.797 153.001C495.741 153.241 495.649 153.481 495.521 153.721C495.401 153.961 495.245 154.209 495.053 154.465C494.869 154.713 494.645 154.973 494.381 155.245L492.125 157.597V157.189H496.217V158.461H490.601ZM500.436 158.581C499.772 158.581 499.208 158.413 498.744 158.077C498.288 157.733 497.94 157.237 497.7 156.589C497.468 155.941 497.352 155.149 497.352 154.213C497.352 153.269 497.468 152.477 497.7 151.837C497.94 151.189 498.288 150.701 498.744 150.373C499.208 150.045 499.772 149.881 500.436 149.881C501.108 149.881 501.672 150.045 502.128 150.373C502.592 150.701 502.94 151.185 503.172 151.825C503.404 152.465 503.52 153.257 503.52 154.201C503.52 155.137 503.4 155.933 503.16 156.589C502.928 157.237 502.584 157.733 502.128 158.077C501.672 158.413 501.108 158.581 500.436 158.581ZM500.436 157.321C500.98 157.321 501.38 157.073 501.636 156.577C501.9 156.073 502.032 155.281 502.032 154.201C502.032 153.129 501.9 152.353 501.636 151.873C501.38 151.385 500.98 151.141 500.436 151.141C499.9 151.141 499.5 151.385 499.236 151.873C498.972 152.353 498.84 153.133 498.84 154.213C498.84 155.285 498.972 156.073 499.236 156.577C499.5 157.073 499.9 157.321 500.436 157.321ZM504.955 158.461V150.001H506.491V153.745H506.515L510.247 150.001H512.119L507.655 154.417L507.667 153.721L512.323 158.461H510.427L506.515 154.549H506.491V158.461H504.955Z" fill="#808283"/>
<rect x="16" y="173.192" width="454" height="1" fill="#23252D"/>
<path d="M492.761 179.072V177.5L493.037 177.764C492.453 177.748 491.901 177.66 491.381 177.5C490.869 177.332 490.425 177.1 490.049 176.804L490.517 175.592C490.765 175.776 491.029 175.936 491.309 176.072C491.597 176.2 491.897 176.3 492.209 176.372C492.529 176.436 492.869 176.468 493.229 176.468C493.813 176.468 494.241 176.364 494.513 176.156C494.785 175.948 494.921 175.688 494.921 175.376C494.921 175.096 494.829 174.872 494.645 174.704C494.461 174.536 494.133 174.4 493.661 174.296L492.389 174.02C491.669 173.86 491.125 173.596 490.757 173.228C490.397 172.852 490.217 172.356 490.217 171.74C490.217 171.268 490.333 170.848 490.565 170.48C490.797 170.104 491.121 169.804 491.537 169.58C491.953 169.356 492.441 169.224 493.001 169.184L492.761 169.364V167.852H493.961V169.364L493.709 169.172C494.165 169.196 494.613 169.288 495.053 169.448C495.501 169.608 495.873 169.84 496.169 170.144L495.713 171.296C495.409 171.016 495.061 170.808 494.669 170.672C494.277 170.528 493.849 170.456 493.385 170.456C492.889 170.456 492.489 170.572 492.185 170.804C491.889 171.028 491.741 171.324 491.741 171.692C491.741 171.964 491.833 172.184 492.017 172.352C492.201 172.52 492.497 172.648 492.905 172.736L494.177 173.012C494.945 173.18 495.513 173.448 495.881 173.816C496.257 174.176 496.445 174.656 496.445 175.256C496.445 175.72 496.329 176.132 496.097 176.492C495.865 176.844 495.545 177.128 495.137 177.344C494.737 177.552 494.269 177.684 493.733 177.74L493.961 177.488V179.072H492.761ZM500.436 177.812C499.452 177.812 498.68 177.6 498.12 177.176C497.568 176.752 497.292 176.164 497.292 175.412C497.292 175.012 497.372 174.66 497.532 174.356C497.7 174.044 497.928 173.792 498.216 173.6C498.504 173.408 498.832 173.288 499.2 173.24V173.492C498.864 173.42 498.568 173.288 498.312 173.096C498.056 172.896 497.856 172.652 497.712 172.364C497.576 172.068 497.508 171.744 497.508 171.392C497.508 170.68 497.772 170.124 498.3 169.724C498.828 169.316 499.544 169.112 500.448 169.112C501.344 169.112 502.056 169.316 502.584 169.724C503.112 170.124 503.376 170.68 503.376 171.392C503.376 171.744 503.304 172.068 503.16 172.364C503.024 172.66 502.828 172.904 502.572 173.096C502.324 173.288 502.032 173.416 501.696 173.48V173.24C502.072 173.288 502.4 173.412 502.68 173.612C502.96 173.804 503.18 174.056 503.34 174.368C503.5 174.672 503.58 175.02 503.58 175.412C503.58 176.164 503.3 176.752 502.74 177.176C502.188 177.6 501.42 177.812 500.436 177.812ZM500.436 176.612C501.004 176.612 501.432 176.504 501.72 176.288C502.008 176.064 502.152 175.736 502.152 175.304C502.152 174.872 502.008 174.548 501.72 174.332C501.432 174.116 501.004 174.008 500.436 174.008C499.876 174.008 499.448 174.116 499.152 174.332C498.864 174.548 498.72 174.872 498.72 175.304C498.72 175.736 498.864 176.064 499.152 176.288C499.448 176.504 499.876 176.612 500.436 176.612ZM500.436 172.808C500.908 172.808 501.276 172.696 501.54 172.472C501.812 172.248 501.948 171.94 501.948 171.548C501.948 171.164 501.812 170.864 501.54 170.648C501.276 170.424 500.908 170.312 500.436 170.312C499.964 170.312 499.596 170.424 499.332 170.648C499.068 170.864 498.936 171.168 498.936 171.56C498.936 171.944 499.068 172.248 499.332 172.472C499.596 172.696 499.964 172.808 500.436 172.808ZM504.955 177.692V169.232H506.491V172.976H506.515L510.247 169.232H512.119L507.655 173.648L507.667 172.952L512.323 177.692H510.427L506.515 173.78H506.491V177.692H504.955Z" fill="#808283"/>
<rect x="16" y="192.423" width="454" height="1" fill="#23252D"/>
<path d="M492.761 198.303V196.731L493.037 196.995C492.453 196.979 491.901 196.891 491.381 196.731C490.869 196.563 490.425 196.331 490.049 196.035L490.517 194.823C490.765 195.007 491.029 195.167 491.309 195.303C491.597 195.431 491.897 195.531 492.209 195.603C492.529 195.667 492.869 195.699 493.229 195.699C493.813 195.699 494.241 195.595 494.513 195.387C494.785 195.179 494.921 194.919 494.921 194.607C494.921 194.327 494.829 194.103 494.645 193.935C494.461 193.767 494.133 193.631 493.661 193.527L492.389 193.251C491.669 193.091 491.125 192.827 490.757 192.459C490.397 192.083 490.217 191.587 490.217 190.971C490.217 190.499 490.333 190.079 490.565 189.711C490.797 189.335 491.121 189.035 491.537 188.811C491.953 188.587 492.441 188.455 493.001 188.415L492.761 188.595V187.083H493.961V188.595L493.709 188.403C494.165 188.427 494.613 188.519 495.053 188.679C495.501 188.839 495.873 189.071 496.169 189.375L495.713 190.527C495.409 190.247 495.061 190.039 494.669 189.903C494.277 189.759 493.849 189.687 493.385 189.687C492.889 189.687 492.489 189.803 492.185 190.035C491.889 190.259 491.741 190.555 491.741 190.923C491.741 191.195 491.833 191.415 492.017 191.583C492.201 191.751 492.497 191.879 492.905 191.967L494.177 192.243C494.945 192.411 495.513 192.679 495.881 193.047C496.257 193.407 496.445 193.887 496.445 194.487C496.445 194.951 496.329 195.363 496.097 195.723C495.865 196.075 495.545 196.359 495.137 196.575C494.737 196.783 494.269 196.915 493.733 196.971L493.961 196.719V198.303H492.761ZM498.144 196.923V195.651H500.052V189.759H500.796L498.576 191.103L497.976 189.975L500.496 188.463H501.588V195.651H503.376V196.923H498.144ZM504.955 196.923V188.463H506.491V192.207H506.515L510.247 188.463H512.119L507.655 192.879L507.667 192.183L512.323 196.923H510.427L506.515 193.011H506.491V196.923H504.955Z" fill="#808283"/>
<rect x="16" y="211.654" width="454" height="1" fill="#23252D"/>
<path d="M486.339 217.534V215.962L486.615 216.226C486.031 216.21 485.479 216.122 484.959 215.962C484.447 215.794 484.003 215.562 483.627 215.266L484.095 214.054C484.343 214.238 484.607 214.398 484.887 214.534C485.175 214.662 485.475 214.762 485.787 214.834C486.107 214.898 486.447 214.93 486.807 214.93C487.391 214.93 487.819 214.826 488.091 214.618C488.363 214.41 488.499 214.15 488.499 213.838C488.499 213.558 488.407 213.334 488.223 213.166C488.039 212.998 487.711 212.862 487.239 212.758L485.967 212.482C485.247 212.322 484.703 212.058 484.335 211.69C483.975 211.314 483.795 210.818 483.795 210.202C483.795 209.73 483.911 209.31 484.143 208.942C484.375 208.566 484.699 208.266 485.115 208.042C485.531 207.818 486.019 207.686 486.579 207.646L486.339 207.826V206.314H487.539V207.826L487.287 207.634C487.743 207.658 488.191 207.75 488.631 207.91C489.079 208.07 489.451 208.302 489.747 208.606L489.291 209.758C488.987 209.478 488.639 209.27 488.247 209.134C487.855 208.99 487.427 208.918 486.963 208.918C486.467 208.918 486.067 209.034 485.763 209.266C485.467 209.49 485.319 209.786 485.319 210.154C485.319 210.426 485.411 210.646 485.595 210.814C485.779 210.982 486.075 211.11 486.483 211.198L487.755 211.474C488.523 211.642 489.091 211.91 489.459 212.278C489.835 212.638 490.023 213.118 490.023 213.718C490.023 214.182 489.907 214.594 489.675 214.954C489.443 215.306 489.123 215.59 488.715 215.806C488.315 216.014 487.847 216.146 487.311 216.202L487.539 215.95V217.534H486.339ZM491.374 216.154V215.014L494.11 212.098C494.358 211.834 494.554 211.59 494.698 211.366C494.85 211.142 494.962 210.926 495.034 210.718C495.106 210.51 495.142 210.302 495.142 210.094C495.142 209.694 495.014 209.39 494.758 209.182C494.51 208.974 494.146 208.87 493.666 208.87C493.29 208.87 492.922 208.942 492.562 209.086C492.21 209.222 491.87 209.438 491.542 209.734L491.026 208.582C491.362 208.278 491.782 208.034 492.286 207.85C492.79 207.666 493.314 207.574 493.858 207.574C494.466 207.574 494.978 207.666 495.394 207.85C495.81 208.034 496.126 208.302 496.342 208.654C496.558 209.006 496.666 209.434 496.666 209.938C496.666 210.194 496.634 210.446 496.57 210.694C496.514 210.934 496.422 211.174 496.294 211.414C496.174 211.654 496.018 211.902 495.826 212.158C495.642 212.406 495.418 212.666 495.154 212.938L492.898 215.29V214.882H496.99V216.154H491.374ZM501.209 216.274C500.545 216.274 499.981 216.106 499.517 215.77C499.061 215.426 498.713 214.93 498.473 214.282C498.241 213.634 498.125 212.842 498.125 211.906C498.125 210.962 498.241 210.17 498.473 209.53C498.713 208.882 499.061 208.394 499.517 208.066C499.981 207.738 500.545 207.574 501.209 207.574C501.881 207.574 502.445 207.738 502.901 208.066C503.365 208.394 503.713 208.878 503.945 209.518C504.177 210.158 504.293 210.95 504.293 211.894C504.293 212.83 504.173 213.626 503.933 214.282C503.701 214.93 503.357 215.426 502.901 215.77C502.445 216.106 501.881 216.274 501.209 216.274ZM501.209 215.014C501.753 215.014 502.153 214.766 502.409 214.27C502.673 213.766 502.805 212.974 502.805 211.894C502.805 210.822 502.673 210.046 502.409 209.566C502.153 209.078 501.753 208.834 501.209 208.834C500.673 208.834 500.273 209.078 500.009 209.566C499.745 210.046 499.613 210.826 499.613 211.906C499.613 212.978 499.745 213.766 500.009 214.27C500.273 214.766 500.673 215.014 501.209 215.014ZM508.405 216.274C507.741 216.274 507.177 216.106 506.713 215.77C506.257 215.426 505.909 214.93 505.669 214.282C505.437 213.634 505.321 212.842 505.321 211.906C505.321 210.962 505.437 210.17 505.669 209.53C505.909 208.882 506.257 208.394 506.713 208.066C507.177 207.738 507.741 207.574 508.405 207.574C509.077 207.574 509.641 207.738 510.097 208.066C510.561 208.394 510.909 208.878 511.141 209.518C511.373 210.158 511.489 210.95 511.489 211.894C511.489 212.83 511.369 213.626 511.129 214.282C510.897 214.93 510.553 215.426 510.097 215.77C509.641 216.106 509.077 216.274 508.405 216.274ZM508.405 215.014C508.949 215.014 509.349 214.766 509.605 214.27C509.869 213.766 510.001 212.974 510.001 211.894C510.001 210.822 509.869 210.046 509.605 209.566C509.349 209.078 508.949 208.834 508.405 208.834C507.869 208.834 507.469 209.078 507.205 209.566C506.941 210.046 506.809 210.826 506.809 211.906C506.809 212.978 506.941 213.766 507.205 214.27C507.469 214.766 507.869 215.014 508.405 215.014Z" fill="#808283"/>
<rect x="16" y="230.885" width="454" height="1" fill="#23252D"/>
<path d="M493.534 236.765V235.193L493.81 235.457C493.226 235.441 492.674 235.353 492.154 235.193C491.642 235.025 491.198 234.793 490.822 234.497L491.29 233.285C491.538 233.469 491.802 233.629 492.082 233.765C492.37 233.893 492.67 233.993 492.982 234.065C493.302 234.129 493.642 234.161 494.002 234.161C494.586 234.161 495.014 234.057 495.286 233.849C495.558 233.641 495.694 233.381 495.694 233.069C495.694 232.789 495.602 232.565 495.418 232.397C495.234 232.229 494.906 232.093 494.434 231.989L493.162 231.713C492.442 231.553 491.898 231.289 491.53 230.921C491.17 230.545 490.99 230.049 490.99 229.433C490.99 228.961 491.106 228.541 491.338 228.173C491.57 227.797 491.894 227.497 492.31 227.273C492.726 227.049 493.214 226.917 493.774 226.877L493.534 227.057V225.545H494.734V227.057L494.482 226.865C494.938 226.889 495.386 226.981 495.826 227.141C496.274 227.301 496.646 227.533 496.942 227.837L496.486 228.989C496.182 228.709 495.834 228.501 495.442 228.365C495.05 228.221 494.622 228.149 494.158 228.149C493.662 228.149 493.262 228.265 492.958 228.497C492.662 228.721 492.514 229.017 492.514 229.385C492.514 229.657 492.606 229.877 492.79 230.045C492.974 230.213 493.27 230.341 493.678 230.429L494.95 230.705C495.718 230.873 496.286 231.141 496.654 231.509C497.03 231.869 497.218 232.349 497.218 232.949C497.218 233.413 497.102 233.825 496.87 234.185C496.638 234.537 496.318 234.821 495.91 235.037C495.51 235.245 495.042 235.377 494.506 235.433L494.734 235.181V236.765H493.534ZM501.209 235.505C500.225 235.505 499.453 235.293 498.893 234.869C498.341 234.445 498.065 233.857 498.065 233.105C498.065 232.705 498.145 232.353 498.305 232.049C498.473 231.737 498.701 231.485 498.989 231.293C499.277 231.101 499.605 230.981 499.973 230.933V231.185C499.637 231.113 499.341 230.981 499.085 230.789C498.829 230.589 498.629 230.345 498.485 230.057C498.349 229.761 498.281 229.437 498.281 229.085C498.281 228.373 498.545 227.817 499.073 227.417C499.601 227.009 500.317 226.805 501.221 226.805C502.117 226.805 502.829 227.009 503.357 227.417C503.885 227.817 504.149 228.373 504.149 229.085C504.149 229.437 504.077 229.761 503.933 230.057C503.797 230.353 503.601 230.597 503.345 230.789C503.097 230.981 502.805 231.109 502.469 231.173V230.933C502.845 230.981 503.173 231.105 503.453 231.305C503.733 231.497 503.953 231.749 504.113 232.061C504.273 232.365 504.353 232.713 504.353 233.105C504.353 233.857 504.073 234.445 503.513 234.869C502.961 235.293 502.193 235.505 501.209 235.505ZM501.209 234.305C501.777 234.305 502.205 234.197 502.493 233.981C502.781 233.757 502.925 233.429 502.925 232.997C502.925 232.565 502.781 232.241 502.493 232.025C502.205 231.809 501.777 231.701 501.209 231.701C500.649 231.701 500.221 231.809 499.925 232.025C499.637 232.241 499.493 232.565 499.493 232.997C499.493 233.429 499.637 233.757 499.925 233.981C500.221 234.197 500.649 234.305 501.209 234.305ZM501.209 230.501C501.681 230.501 502.049 230.389 502.313 230.165C502.585 229.941 502.721 229.633 502.721 229.241C502.721 228.857 502.585 228.557 502.313 228.341C502.049 228.117 501.681 228.005 501.209 228.005C500.737 228.005 500.369 228.117 500.105 228.341C499.841 228.557 499.709 228.861 499.709 229.253C499.709 229.637 499.841 229.941 500.105 230.165C500.369 230.389 500.737 230.501 501.209 230.501ZM508.405 235.505C507.741 235.505 507.177 235.337 506.713 235.001C506.257 234.657 505.909 234.161 505.669 233.513C505.437 232.865 505.321 232.073 505.321 231.137C505.321 230.193 505.437 229.401 505.669 228.761C505.909 228.113 506.257 227.625 506.713 227.297C507.177 226.969 507.741 226.805 508.405 226.805C509.077 226.805 509.641 226.969 510.097 227.297C510.561 227.625 510.909 228.109 511.141 228.749C511.373 229.389 511.489 230.181 511.489 231.125C511.489 232.061 511.369 232.857 511.129 233.513C510.897 234.161 510.553 234.657 510.097 235.001C509.641 235.337 509.077 235.505 508.405 235.505ZM508.405 234.245C508.949 234.245 509.349 233.997 509.605 233.501C509.869 232.997 510.001 232.205 510.001 231.125C510.001 230.053 509.869 229.277 509.605 228.797C509.349 228.309 508.949 228.065 508.405 228.065C507.869 228.065 507.469 228.309 507.205 228.797C506.941 229.277 506.809 230.057 506.809 231.137C506.809 232.209 506.941 232.997 507.205 233.501C507.469 233.997 507.869 234.245 508.405 234.245Z" fill="#808283"/>
<rect x="16" y="250.115" width="454" height="1" fill="#23252D"/>
<path d="M493.534 255.995V254.423L493.81 254.687C493.226 254.671 492.674 254.583 492.154 254.423C491.642 254.255 491.198 254.023 490.822 253.727L491.29 252.515C491.538 252.699 491.802 252.859 492.082 252.995C492.37 253.123 492.67 253.223 492.982 253.295C493.302 253.359 493.642 253.391 494.002 253.391C494.586 253.391 495.014 253.287 495.286 253.079C495.558 252.871 495.694 252.611 495.694 252.299C495.694 252.019 495.602 251.795 495.418 251.627C495.234 251.459 494.906 251.323 494.434 251.219L493.162 250.943C492.442 250.783 491.898 250.519 491.53 250.151C491.17 249.775 490.99 249.279 490.99 248.663C490.99 248.191 491.106 247.771 491.338 247.403C491.57 247.027 491.894 246.727 492.31 246.503C492.726 246.279 493.214 246.147 493.774 246.107L493.534 246.287V244.775H494.734V246.287L494.482 246.095C494.938 246.119 495.386 246.211 495.826 246.371C496.274 246.531 496.646 246.763 496.942 247.067L496.486 248.219C496.182 247.939 495.834 247.731 495.442 247.595C495.05 247.451 494.622 247.379 494.158 247.379C493.662 247.379 493.262 247.495 492.958 247.727C492.662 247.951 492.514 248.247 492.514 248.615C492.514 248.887 492.606 249.107 492.79 249.275C492.974 249.443 493.27 249.571 493.678 249.659L494.95 249.935C495.718 250.103 496.286 250.371 496.654 250.739C497.03 251.099 497.218 251.579 497.218 252.179C497.218 252.643 497.102 253.055 496.87 253.415C496.638 253.767 496.318 254.051 495.91 254.267C495.51 254.475 495.042 254.607 494.506 254.663L494.734 254.411V255.995H493.534ZM498.917 254.615V253.343H500.825V247.451H501.569L499.349 248.795L498.749 247.667L501.269 246.155H502.361V253.343H504.149V254.615H498.917ZM508.405 254.735C507.741 254.735 507.177 254.567 506.713 254.231C506.257 253.887 505.909 253.391 505.669 252.743C505.437 252.095 505.321 251.303 505.321 250.367C505.321 249.423 505.437 248.631 505.669 247.991C505.909 247.343 506.257 246.855 506.713 246.527C507.177 246.199 507.741 246.035 508.405 246.035C509.077 246.035 509.641 246.199 510.097 246.527C510.561 246.855 510.909 247.339 511.141 247.979C511.373 248.619 511.489 249.411 511.489 250.355C511.489 251.291 511.369 252.087 511.129 252.743C510.897 253.391 510.553 253.887 510.097 254.231C509.641 254.567 509.077 254.735 508.405 254.735ZM508.405 253.475C508.949 253.475 509.349 253.227 509.605 252.731C509.869 252.227 510.001 251.435 510.001 250.355C510.001 249.283 509.869 248.507 509.605 248.027C509.349 247.539 508.949 247.295 508.405 247.295C507.869 247.295 507.469 247.539 507.205 248.027C506.941 248.507 506.809 249.287 506.809 250.367C506.809 251.439 506.941 252.227 507.205 252.731C507.469 253.227 507.869 253.475 508.405 253.475Z" fill="#808283"/>
<rect x="16" y="269.346" width="454" height="1" fill="#23252D"/>
<path d="M500.729 275.226V273.654L501.005 273.918C500.421 273.902 499.869 273.814 499.349 273.654C498.837 273.486 498.393 273.254 498.017 272.958L498.485 271.746C498.733 271.93 498.997 272.09 499.277 272.226C499.565 272.354 499.865 272.454 500.177 272.526C500.497 272.59 500.837 272.622 501.197 272.622C501.781 272.622 502.209 272.518 502.481 272.31C502.753 272.102 502.889 271.842 502.889 271.53C502.889 271.25 502.797 271.026 502.613 270.858C502.429 270.69 502.101 270.554 501.629 270.45L500.357 270.174C499.637 270.014 499.093 269.75 498.725 269.382C498.365 269.006 498.185 268.51 498.185 267.894C498.185 267.422 498.301 267.002 498.533 266.634C498.765 266.258 499.089 265.958 499.505 265.734C499.921 265.51 500.409 265.378 500.969 265.338L500.729 265.518V264.006H501.929V265.518L501.677 265.326C502.133 265.35 502.581 265.442 503.021 265.602C503.469 265.762 503.841 265.994 504.137 266.298L503.681 267.45C503.377 267.17 503.029 266.962 502.637 266.826C502.245 266.682 501.817 266.61 501.353 266.61C500.857 266.61 500.457 266.726 500.153 266.958C499.857 267.182 499.709 267.478 499.709 267.846C499.709 268.118 499.801 268.338 499.985 268.506C500.169 268.674 500.465 268.802 500.873 268.89L502.145 269.166C502.913 269.334 503.481 269.602 503.849 269.97C504.225 270.33 504.413 270.81 504.413 271.41C504.413 271.874 504.297 272.286 504.065 272.646C503.833 272.998 503.513 273.282 503.105 273.498C502.705 273.706 502.237 273.838 501.701 273.894L501.929 273.642V275.226H500.729ZM505.765 273.846V272.706L508.501 269.79C508.749 269.526 508.945 269.282 509.089 269.058C509.241 268.834 509.353 268.618 509.425 268.41C509.497 268.202 509.533 267.994 509.533 267.786C509.533 267.386 509.405 267.082 509.149 266.874C508.901 266.666 508.537 266.562 508.057 266.562C507.681 266.562 507.313 266.634 506.953 266.778C506.601 266.914 506.261 267.13 505.933 267.426L505.417 266.274C505.753 265.97 506.173 265.726 506.677 265.542C507.181 265.358 507.705 265.266 508.249 265.266C508.857 265.266 509.369 265.358 509.785 265.542C510.201 265.726 510.517 265.994 510.733 266.346C510.949 266.698 511.057 267.126 511.057 267.63C511.057 267.886 511.025 268.138 510.961 268.386C510.905 268.626 510.813 268.866 510.685 269.106C510.565 269.346 510.409 269.594 510.217 269.85C510.033 270.098 509.809 270.358 509.545 270.63L507.289 272.982V272.574H511.381V273.846H505.765Z" fill="#808283"/>
<rect x="16" y="288.577" width="454" height="1" fill="#23252D"/>
<path d="M483.362 294.457V292.885L483.638 293.149C483.054 293.133 482.502 293.045 481.982 292.885C481.47 292.717 481.026 292.485 480.65 292.189L481.118 290.977C481.366 291.161 481.63 291.321 481.91 291.457C482.198 291.585 482.498 291.685 482.81 291.757C483.13 291.821 483.47 291.853 483.83 291.853C484.414 291.853 484.842 291.749 485.114 291.541C485.386 291.333 485.522 291.073 485.522 290.761C485.522 290.481 485.43 290.257 485.246 290.089C485.062 289.921 484.734 289.785 484.262 289.681L482.99 289.405C482.27 289.245 481.726 288.981 481.358 288.613C480.998 288.237 480.818 287.741 480.818 287.125C480.818 286.653 480.934 286.233 481.166 285.865C481.398 285.489 481.722 285.189 482.138 284.965C482.554 284.741 483.042 284.609 483.602 284.569L483.362 284.749V283.237H484.562V284.749L484.31 284.557C484.766 284.581 485.214 284.673 485.654 284.833C486.102 284.993 486.474 285.225 486.77 285.529L486.314 286.681C486.01 286.401 485.662 286.193 485.27 286.057C484.878 285.913 484.45 285.841 483.986 285.841C483.49 285.841 483.09 285.957 482.786 286.189C482.49 286.413 482.342 286.709 482.342 287.077C482.342 287.349 482.434 287.569 482.618 287.737C482.802 287.905 483.098 288.033 483.506 288.121L484.778 288.397C485.546 288.565 486.114 288.833 486.482 289.201C486.858 289.561 487.046 290.041 487.046 290.641C487.046 291.105 486.93 291.517 486.698 291.877C486.466 292.229 486.146 292.513 485.738 292.729C485.338 292.937 484.87 293.069 484.334 293.125L484.562 292.873V294.457H483.362ZM491.038 293.197C490.374 293.197 489.81 293.029 489.346 292.693C488.89 292.349 488.542 291.853 488.302 291.205C488.07 290.557 487.954 289.765 487.954 288.829C487.954 287.885 488.07 287.093 488.302 286.453C488.542 285.805 488.89 285.317 489.346 284.989C489.81 284.661 490.374 284.497 491.038 284.497C491.71 284.497 492.274 284.661 492.73 284.989C493.194 285.317 493.542 285.801 493.773 286.441C494.006 287.081 494.122 287.873 494.122 288.817C494.122 289.753 494.002 290.549 493.762 291.205C493.53 291.853 493.186 292.349 492.73 292.693C492.274 293.029 491.71 293.197 491.038 293.197ZM491.038 291.937C491.582 291.937 491.982 291.689 492.238 291.193C492.502 290.689 492.634 289.897 492.634 288.817C492.634 287.745 492.502 286.969 492.238 286.489C491.982 286.001 491.582 285.757 491.038 285.757C490.502 285.757 490.102 286.001 489.838 286.489C489.574 286.969 489.442 287.749 489.442 288.829C489.442 289.901 489.574 290.689 489.838 291.193C490.102 291.689 490.502 291.937 491.038 291.937ZM495.281 293.077V291.409H496.961V293.077H495.281ZM501.209 293.197C500.225 293.197 499.453 292.985 498.893 292.561C498.341 292.137 498.065 291.549 498.065 290.797C498.065 290.397 498.145 290.045 498.305 289.741C498.473 289.429 498.701 289.177 498.989 288.985C499.277 288.793 499.605 288.673 499.973 288.625V288.877C499.637 288.805 499.341 288.673 499.085 288.481C498.829 288.281 498.629 288.037 498.485 287.749C498.349 287.453 498.281 287.129 498.281 286.777C498.281 286.065 498.545 285.509 499.073 285.109C499.601 284.701 500.317 284.497 501.221 284.497C502.117 284.497 502.829 284.701 503.357 285.109C503.885 285.509 504.149 286.065 504.149 286.777C504.149 287.129 504.077 287.453 503.933 287.749C503.797 288.045 503.601 288.289 503.345 288.481C503.097 288.673 502.805 288.801 502.469 288.865V288.625C502.845 288.673 503.173 288.797 503.453 288.997C503.733 289.189 503.953 289.441 504.113 289.753C504.273 290.057 504.353 290.405 504.353 290.797C504.353 291.549 504.073 292.137 503.513 292.561C502.961 292.985 502.193 293.197 501.209 293.197ZM501.209 291.997C501.777 291.997 502.205 291.889 502.493 291.673C502.781 291.449 502.925 291.121 502.925 290.689C502.925 290.257 502.781 289.933 502.493 289.717C502.205 289.501 501.777 289.393 501.209 289.393C500.649 289.393 500.221 289.501 499.925 289.717C499.637 289.933 499.493 290.257 499.493 290.689C499.493 291.121 499.637 291.449 499.925 291.673C500.221 291.889 500.649 291.997 501.209 291.997ZM501.209 288.193C501.681 288.193 502.049 288.081 502.313 287.857C502.585 287.633 502.721 287.325 502.721 286.933C502.721 286.549 502.585 286.249 502.313 286.033C502.049 285.809 501.681 285.697 501.209 285.697C500.737 285.697 500.369 285.809 500.105 286.033C499.841 286.249 499.709 286.553 499.709 286.945C499.709 287.329 499.841 287.633 500.105 287.857C500.369 288.081 500.737 288.193 501.209 288.193ZM508.405 293.197C507.741 293.197 507.177 293.029 506.713 292.693C506.257 292.349 505.909 291.853 505.669 291.205C505.437 290.557 505.321 289.765 505.321 288.829C505.321 287.885 505.437 287.093 505.669 286.453C505.909 285.805 506.257 285.317 506.713 284.989C507.177 284.661 507.741 284.497 508.405 284.497C509.077 284.497 509.641 284.661 510.097 284.989C510.561 285.317 510.909 285.801 511.141 286.441C511.373 287.081 511.489 287.873 511.489 288.817C511.489 289.753 511.369 290.549 511.129 291.205C510.897 291.853 510.553 292.349 510.097 292.693C509.641 293.029 509.077 293.197 508.405 293.197ZM508.405 291.937C508.949 291.937 509.349 291.689 509.605 291.193C509.869 290.689 510.001 289.897 510.001 288.817C510.001 287.745 509.869 286.969 509.605 286.489C509.349 286.001 508.949 285.757 508.405 285.757C507.869 285.757 507.469 286.001 507.205 286.489C506.941 286.969 506.809 287.749 506.809 288.829C506.809 289.901 506.941 290.689 507.205 291.193C507.469 291.689 507.869 291.937 508.405 291.937Z" fill="#808283"/>
<rect x="16" y="307.808" width="454" height="1" fill="#23252D"/>
<path d="M483.362 313.688V312.116L483.638 312.38C483.054 312.364 482.502 312.276 481.982 312.116C481.47 311.948 481.026 311.716 480.65 311.42L481.118 310.208C481.366 310.392 481.63 310.552 481.91 310.688C482.198 310.816 482.498 310.916 482.81 310.988C483.13 311.052 483.47 311.084 483.83 311.084C484.414 311.084 484.842 310.98 485.114 310.772C485.386 310.564 485.522 310.304 485.522 309.992C485.522 309.712 485.43 309.488 485.246 309.32C485.062 309.152 484.734 309.016 484.262 308.912L482.99 308.636C482.27 308.476 481.726 308.212 481.358 307.844C480.998 307.468 480.818 306.972 480.818 306.356C480.818 305.884 480.934 305.464 481.166 305.096C481.398 304.72 481.722 304.42 482.138 304.196C482.554 303.972 483.042 303.84 483.602 303.8L483.362 303.98V302.468H484.562V303.98L484.31 303.788C484.766 303.812 485.214 303.904 485.654 304.064C486.102 304.224 486.474 304.456 486.77 304.76L486.314 305.912C486.01 305.632 485.662 305.424 485.27 305.288C484.878 305.144 484.45 305.072 483.986 305.072C483.49 305.072 483.09 305.188 482.786 305.42C482.49 305.644 482.342 305.94 482.342 306.308C482.342 306.58 482.434 306.8 482.618 306.968C482.802 307.136 483.098 307.264 483.506 307.352L484.778 307.628C485.546 307.796 486.114 308.064 486.482 308.432C486.858 308.792 487.046 309.272 487.046 309.872C487.046 310.336 486.93 310.748 486.698 311.108C486.466 311.46 486.146 311.744 485.738 311.96C485.338 312.168 484.87 312.3 484.334 312.356L484.562 312.104V313.688H483.362ZM491.038 312.428C490.374 312.428 489.81 312.26 489.346 311.924C488.89 311.58 488.542 311.084 488.302 310.436C488.07 309.788 487.954 308.996 487.954 308.06C487.954 307.116 488.07 306.324 488.302 305.684C488.542 305.036 488.89 304.548 489.346 304.22C489.81 303.892 490.374 303.728 491.038 303.728C491.71 303.728 492.274 303.892 492.73 304.22C493.194 304.548 493.542 305.032 493.773 305.672C494.006 306.312 494.122 307.104 494.122 308.048C494.122 308.984 494.002 309.78 493.762 310.436C493.53 311.084 493.186 311.58 492.73 311.924C492.274 312.26 491.71 312.428 491.038 312.428ZM491.038 311.168C491.582 311.168 491.982 310.92 492.238 310.424C492.502 309.92 492.634 309.128 492.634 308.048C492.634 306.976 492.502 306.2 492.238 305.72C491.982 305.232 491.582 304.988 491.038 304.988C490.502 304.988 490.102 305.232 489.838 305.72C489.574 306.2 489.442 306.98 489.442 308.06C489.442 309.132 489.574 309.92 489.838 310.424C490.102 310.92 490.502 311.168 491.038 311.168ZM495.281 312.308V310.64H496.961V312.308H495.281ZM501.797 312.308V310.7H498.113V309.572L502.061 303.848H503.333V309.428H504.521V310.7H503.333V312.308H501.797ZM501.797 309.428V305.684H502.145L499.313 309.836V309.428H501.797ZM508.405 312.428C507.741 312.428 507.177 312.26 506.713 311.924C506.257 311.58 505.909 311.084 505.669 310.436C505.437 309.788 505.321 308.996 505.321 308.06C505.321 307.116 505.437 306.324 505.669 305.684C505.909 305.036 506.257 304.548 506.713 304.22C507.177 303.892 507.741 303.728 508.405 303.728C509.077 303.728 509.641 303.892 510.097 304.22C510.561 304.548 510.909 305.032 511.141 305.672C511.373 306.312 511.489 307.104 511.489 308.048C511.489 308.984 511.369 309.78 511.129 310.436C510.897 311.084 510.553 311.58 510.097 311.924C509.641 312.26 509.077 312.428 508.405 312.428ZM508.405 311.168C508.949 311.168 509.349 310.92 509.605 310.424C509.869 309.92 510.001 309.128 510.001 308.048C510.001 306.976 509.869 306.2 509.605 305.72C509.349 305.232 508.949 304.988 508.405 304.988C507.869 304.988 507.469 305.232 507.205 305.72C506.941 306.2 506.809 306.98 506.809 308.06C506.809 309.132 506.941 309.92 507.205 310.424C507.469 310.92 507.869 311.168 508.405 311.168Z" fill="#808283"/>
<rect x="16" y="327.039" width="454" height="1" fill="#23252D"/>
<path d="M483.362 332.919V331.347L483.638 331.611C483.054 331.595 482.502 331.507 481.982 331.347C481.47 331.179 481.026 330.947 480.65 330.651L481.118 329.439C481.366 329.623 481.63 329.783 481.91 329.919C482.198 330.047 482.498 330.147 482.81 330.219C483.13 330.283 483.47 330.315 483.83 330.315C484.414 330.315 484.842 330.211 485.114 330.003C485.386 329.795 485.522 329.535 485.522 329.223C485.522 328.943 485.43 328.719 485.246 328.551C485.062 328.383 484.734 328.247 484.262 328.143L482.99 327.867C482.27 327.707 481.726 327.443 481.358 327.075C480.998 326.699 480.818 326.203 480.818 325.587C480.818 325.115 480.934 324.695 481.166 324.327C481.398 323.951 481.722 323.651 482.138 323.427C482.554 323.203 483.042 323.071 483.602 323.031L483.362 323.211V321.699H484.562V323.211L484.31 323.019C484.766 323.043 485.214 323.135 485.654 323.295C486.102 323.455 486.474 323.687 486.77 323.991L486.314 325.143C486.01 324.863 485.662 324.655 485.27 324.519C484.878 324.375 484.45 324.303 483.986 324.303C483.49 324.303 483.09 324.419 482.786 324.651C482.49 324.875 482.342 325.171 482.342 325.539C482.342 325.811 482.434 326.031 482.618 326.199C482.802 326.367 483.098 326.495 483.506 326.583L484.778 326.859C485.546 327.027 486.114 327.295 486.482 327.663C486.858 328.023 487.046 328.503 487.046 329.103C487.046 329.567 486.93 329.979 486.698 330.339C486.466 330.691 486.146 330.975 485.738 331.191C485.338 331.399 484.87 331.531 484.334 331.587L484.562 331.335V332.919H483.362ZM491.038 331.659C490.374 331.659 489.81 331.491 489.346 331.155C488.89 330.811 488.542 330.315 488.302 329.667C488.07 329.019 487.954 328.227 487.954 327.291C487.954 326.347 488.07 325.555 488.302 324.915C488.542 324.267 488.89 323.779 489.346 323.451C489.81 323.123 490.374 322.959 491.038 322.959C491.71 322.959 492.274 323.123 492.73 323.451C493.194 323.779 493.542 324.263 493.773 324.903C494.006 325.543 494.122 326.335 494.122 327.279C494.122 328.215 494.002 329.011 493.762 329.667C493.53 330.315 493.186 330.811 492.73 331.155C492.274 331.491 491.71 331.659 491.038 331.659ZM491.038 330.399C491.582 330.399 491.982 330.151 492.238 329.655C492.502 329.151 492.634 328.359 492.634 327.279C492.634 326.207 492.502 325.431 492.238 324.951C491.982 324.463 491.582 324.219 491.038 324.219C490.502 324.219 490.102 324.463 489.838 324.951C489.574 325.431 489.442 326.211 489.442 327.291C489.442 328.363 489.574 329.151 489.838 329.655C490.102 330.151 490.502 330.399 491.038 330.399ZM495.281 331.539V329.871H496.961V331.539H495.281ZM498.917 331.539V330.267H500.825V324.375H501.569L499.349 325.719L498.749 324.591L501.269 323.079H502.361V330.267H504.149V331.539H498.917ZM508.405 331.659C507.741 331.659 507.177 331.491 506.713 331.155C506.257 330.811 505.909 330.315 505.669 329.667C505.437 329.019 505.321 328.227 505.321 327.291C505.321 326.347 505.437 325.555 505.669 324.915C505.909 324.267 506.257 323.779 506.713 323.451C507.177 323.123 507.741 322.959 508.405 322.959C509.077 322.959 509.641 323.123 510.097 323.451C510.561 323.779 510.909 324.263 511.141 324.903C511.373 325.543 511.489 326.335 511.489 327.279C511.489 328.215 511.369 329.011 511.129 329.667C510.897 330.315 510.553 330.811 510.097 331.155C509.641 331.491 509.077 331.659 508.405 331.659ZM508.405 330.399C508.949 330.399 509.349 330.151 509.605 329.655C509.869 329.151 510.001 328.359 510.001 327.279C510.001 326.207 509.869 325.431 509.605 324.951C509.349 324.463 508.949 324.219 508.405 324.219C507.869 324.219 507.469 324.463 507.205 324.951C506.941 325.431 506.809 326.211 506.809 327.291C506.809 328.363 506.941 329.151 507.205 329.655C507.469 330.151 507.869 330.399 508.405 330.399Z" fill="#808283"/>
<rect x="16" y="346.269" width="454" height="1" fill="#23252D"/>
<path d="M483.362 352.149V350.577L483.638 350.841C483.054 350.825 482.502 350.737 481.982 350.577C481.47 350.409 481.026 350.177 480.65 349.881L481.118 348.669C481.366 348.853 481.63 349.013 481.91 349.149C482.198 349.277 482.498 349.377 482.81 349.449C483.13 349.513 483.47 349.545 483.83 349.545C484.414 349.545 484.842 349.441 485.114 349.233C485.386 349.025 485.522 348.765 485.522 348.453C485.522 348.173 485.43 347.949 485.246 347.781C485.062 347.613 484.734 347.477 484.262 347.373L482.99 347.097C482.27 346.937 481.726 346.673 481.358 346.305C480.998 345.929 480.818 345.433 480.818 344.817C480.818 344.345 480.934 343.925 481.166 343.557C481.398 343.181 481.722 342.881 482.138 342.657C482.554 342.433 483.042 342.301 483.602 342.261L483.362 342.441V340.929H484.562V342.441L484.31 342.249C484.766 342.273 485.214 342.365 485.654 342.525C486.102 342.685 486.474 342.917 486.77 343.221L486.314 344.373C486.01 344.093 485.662 343.885 485.27 343.749C484.878 343.605 484.45 343.533 483.986 343.533C483.49 343.533 483.09 343.649 482.786 343.881C482.49 344.105 482.342 344.401 482.342 344.769C482.342 345.041 482.434 345.261 482.618 345.429C482.802 345.597 483.098 345.725 483.506 345.813L484.778 346.089C485.546 346.257 486.114 346.525 486.482 346.893C486.858 347.253 487.046 347.733 487.046 348.333C487.046 348.797 486.93 349.209 486.698 349.569C486.466 349.921 486.146 350.205 485.738 350.421C485.338 350.629 484.87 350.761 484.334 350.817L484.562 350.565V352.149H483.362ZM491.038 350.889C490.374 350.889 489.81 350.721 489.346 350.385C488.89 350.041 488.542 349.545 488.302 348.897C488.07 348.249 487.954 347.457 487.954 346.521C487.954 345.577 488.07 344.785 488.302 344.145C488.542 343.497 488.89 343.009 489.346 342.681C489.81 342.353 490.374 342.189 491.038 342.189C491.71 342.189 492.274 342.353 492.73 342.681C493.194 343.009 493.542 343.493 493.773 344.133C494.006 344.773 494.122 345.565 494.122 346.509C494.122 347.445 494.002 348.241 493.762 348.897C493.53 349.545 493.186 350.041 492.73 350.385C492.274 350.721 491.71 350.889 491.038 350.889ZM491.038 349.629C491.582 349.629 491.982 349.381 492.238 348.885C492.502 348.381 492.634 347.589 492.634 346.509C492.634 345.437 492.502 344.661 492.238 344.181C491.982 343.693 491.582 343.449 491.038 343.449C490.502 343.449 490.102 343.693 489.838 344.181C489.574 344.661 489.442 345.441 489.442 346.521C489.442 347.593 489.574 348.381 489.838 348.885C490.102 349.381 490.502 349.629 491.038 349.629ZM495.281 350.769V349.101H496.961V350.769H495.281ZM501.209 350.889C500.545 350.889 499.981 350.721 499.517 350.385C499.061 350.041 498.713 349.545 498.473 348.897C498.241 348.249 498.125 347.457 498.125 346.521C498.125 345.577 498.241 344.785 498.473 344.145C498.713 343.497 499.061 343.009 499.517 342.681C499.981 342.353 500.545 342.189 501.209 342.189C501.881 342.189 502.445 342.353 502.901 342.681C503.365 343.009 503.713 343.493 503.945 344.133C504.177 344.773 504.293 345.565 504.293 346.509C504.293 347.445 504.173 348.241 503.933 348.897C503.701 349.545 503.357 350.041 502.901 350.385C502.445 350.721 501.881 350.889 501.209 350.889ZM501.209 349.629C501.753 349.629 502.153 349.381 502.409 348.885C502.673 348.381 502.805 347.589 502.805 346.509C502.805 345.437 502.673 344.661 502.409 344.181C502.153 343.693 501.753 343.449 501.209 343.449C500.673 343.449 500.273 343.693 500.009 344.181C499.745 344.661 499.613 345.441 499.613 346.521C499.613 347.593 499.745 348.381 500.009 348.885C500.273 349.381 500.673 349.629 501.209 349.629ZM508.717 350.889C508.021 350.889 507.425 350.725 506.929 350.397C506.441 350.061 506.069 349.581 505.813 348.957C505.557 348.333 505.429 347.577 505.429 346.689C505.429 345.729 505.573 344.917 505.861 344.253C506.149 343.581 506.565 343.069 507.109 342.717C507.653 342.365 508.305 342.189 509.065 342.189C509.361 342.189 509.657 342.229 509.953 342.309C510.257 342.381 510.541 342.489 510.805 342.633C511.077 342.769 511.317 342.937 511.525 343.137L511.021 344.289C510.725 344.017 510.409 343.817 510.073 343.689C509.737 343.553 509.393 343.485 509.041 343.485C508.697 343.485 508.389 343.549 508.117 343.677C507.853 343.797 507.629 343.981 507.445 344.229C507.261 344.469 507.121 344.773 507.025 345.141C506.937 345.501 506.893 345.921 506.893 346.401V347.301H506.749C506.813 346.893 506.945 346.545 507.145 346.257C507.353 345.961 507.617 345.737 507.937 345.585C508.257 345.425 508.613 345.345 509.005 345.345C509.493 345.345 509.925 345.461 510.301 345.693C510.677 345.925 510.973 346.245 511.189 346.653C511.405 347.061 511.513 347.529 511.513 348.057C511.513 348.601 511.393 349.089 511.153 349.521C510.921 349.945 510.593 350.281 510.169 350.529C509.753 350.769 509.269 350.889 508.717 350.889ZM508.633 349.665C508.921 349.665 509.173 349.601 509.389 349.473C509.613 349.345 509.785 349.165 509.905 348.933C510.025 348.693 510.085 348.421 510.085 348.117C510.085 347.805 510.025 347.533 509.905 347.301C509.785 347.069 509.613 346.889 509.389 346.761C509.173 346.625 508.921 346.557 508.633 346.557C508.345 346.557 508.093 346.625 507.877 346.761C507.661 346.889 507.489 347.069 507.361 347.301C507.241 347.533 507.181 347.805 507.181 348.117C507.181 348.421 507.241 348.693 507.361 348.933C507.489 349.165 507.661 349.345 507.877 349.473C508.093 349.601 508.345 349.665 508.633 349.665Z" fill="#808283"/>
<rect x="16" y="365.5" width="454" height="1" fill="#313338"/>
<path d="M483.362 371.38V369.808L483.638 370.072C483.054 370.056 482.502 369.968 481.982 369.808C481.47 369.64 481.026 369.408 480.65 369.112L481.118 367.9C481.366 368.084 481.63 368.244 481.91 368.38C482.198 368.508 482.498 368.608 482.81 368.68C483.13 368.744 483.47 368.776 483.83 368.776C484.414 368.776 484.842 368.672 485.114 368.464C485.386 368.256 485.522 367.996 485.522 367.684C485.522 367.404 485.43 367.18 485.246 367.012C485.062 366.844 484.734 366.708 484.262 366.604L482.99 366.328C482.27 366.168 481.726 365.904 481.358 365.536C480.998 365.16 480.818 364.664 480.818 364.048C480.818 363.576 480.934 363.156 481.166 362.788C481.398 362.412 481.722 362.112 482.138 361.888C482.554 361.664 483.042 361.532 483.602 361.492L483.362 361.672V360.16H484.562V361.672L484.31 361.48C484.766 361.504 485.214 361.596 485.654 361.756C486.102 361.916 486.474 362.148 486.77 362.452L486.314 363.604C486.01 363.324 485.662 363.116 485.27 362.98C484.878 362.836 484.45 362.764 483.986 362.764C483.49 362.764 483.09 362.88 482.786 363.112C482.49 363.336 482.342 363.632 482.342 364C482.342 364.272 482.434 364.492 482.618 364.66C482.802 364.828 483.098 364.956 483.506 365.044L484.778 365.32C485.546 365.488 486.114 365.756 486.482 366.124C486.858 366.484 487.046 366.964 487.046 367.564C487.046 368.028 486.93 368.44 486.698 368.8C486.466 369.152 486.146 369.436 485.738 369.652C485.338 369.86 484.87 369.992 484.334 370.048L484.562 369.796V371.38H483.362ZM491.038 370.12C490.374 370.12 489.81 369.952 489.346 369.616C488.89 369.272 488.542 368.776 488.302 368.128C488.07 367.48 487.954 366.688 487.954 365.752C487.954 364.808 488.07 364.016 488.302 363.376C488.542 362.728 488.89 362.24 489.346 361.912C489.81 361.584 490.374 361.42 491.038 361.42C491.71 361.42 492.274 361.584 492.73 361.912C493.194 362.24 493.542 362.724 493.773 363.364C494.006 364.004 494.122 364.796 494.122 365.74C494.122 366.676 494.002 367.472 493.762 368.128C493.53 368.776 493.186 369.272 492.73 369.616C492.274 369.952 491.71 370.12 491.038 370.12ZM491.038 368.86C491.582 368.86 491.982 368.612 492.238 368.116C492.502 367.612 492.634 366.82 492.634 365.74C492.634 364.668 492.502 363.892 492.238 363.412C491.982 362.924 491.582 362.68 491.038 362.68C490.502 362.68 490.102 362.924 489.838 363.412C489.574 363.892 489.442 364.672 489.442 365.752C489.442 366.824 489.574 367.612 489.838 368.116C490.102 368.612 490.502 368.86 491.038 368.86ZM495.281 370V368.332H496.961V370H495.281ZM501.209 370.12C500.545 370.12 499.981 369.952 499.517 369.616C499.061 369.272 498.713 368.776 498.473 368.128C498.241 367.48 498.125 366.688 498.125 365.752C498.125 364.808 498.241 364.016 498.473 363.376C498.713 362.728 499.061 362.24 499.517 361.912C499.981 361.584 500.545 361.42 501.209 361.42C501.881 361.42 502.445 361.584 502.901 361.912C503.365 362.24 503.713 362.724 503.945 363.364C504.177 364.004 504.293 364.796 504.293 365.74C504.293 366.676 504.173 367.472 503.933 368.128C503.701 368.776 503.357 369.272 502.901 369.616C502.445 369.952 501.881 370.12 501.209 370.12ZM501.209 368.86C501.753 368.86 502.153 368.612 502.409 368.116C502.673 367.612 502.805 366.82 502.805 365.74C502.805 364.668 502.673 363.892 502.409 363.412C502.153 362.924 501.753 362.68 501.209 362.68C500.673 362.68 500.273 362.924 500.009 363.412C499.745 363.892 499.613 364.672 499.613 365.752C499.613 366.824 499.745 367.612 500.009 368.116C500.273 368.612 500.673 368.86 501.209 368.86ZM505.765 370V368.86L508.501 365.944C508.749 365.68 508.945 365.436 509.089 365.212C509.241 364.988 509.353 364.772 509.425 364.564C509.497 364.356 509.533 364.148 509.533 363.94C509.533 363.54 509.405 363.236 509.149 363.028C508.901 362.82 508.537 362.716 508.057 362.716C507.681 362.716 507.313 362.788 506.953 362.932C506.601 363.068 506.261 363.284 505.933 363.58L505.417 362.428C505.753 362.124 506.173 361.88 506.677 361.696C507.181 361.512 507.705 361.42 508.249 361.42C508.857 361.42 509.369 361.512 509.785 361.696C510.201 361.88 510.517 362.148 510.733 362.5C510.949 362.852 511.057 363.28 511.057 363.784C511.057 364.04 511.025 364.292 510.961 364.54C510.905 364.78 510.813 365.02 510.685 365.26C510.565 365.5 510.409 365.748 510.217 366.004C510.033 366.252 509.809 366.512 509.545 366.784L507.289 369.136V368.728H511.381V370H505.765Z" fill="#808283"/>
<rect x="28.3477" y="366" width="1" height="8" fill="#313338"/>
<path d="M20.8106 380.708V379.616C20.8106 379.344 20.8386 379.088 20.8946 378.848C20.9586 378.608 21.0586 378.372 21.1946 378.14C21.3386 377.908 21.5266 377.676 21.7586 377.444L22.3826 377.936C22.2146 378.112 22.0786 378.28 21.9746 378.44C21.8706 378.592 21.7946 378.748 21.7466 378.908C21.7066 379.06 21.6866 379.22 21.6866 379.388L21.3146 379.04H22.4906V380.708H20.8106ZM24.4471 386V384.728H26.3551V378.836H27.0991L24.8791 380.18L24.2791 379.052L26.7991 377.54H27.8911V384.728H29.6791V386H24.4471ZM33.9344 386.12C33.2704 386.12 32.7064 385.952 32.2424 385.616C31.7864 385.272 31.4384 384.776 31.1984 384.128C30.9664 383.48 30.8504 382.688 30.8504 381.752C30.8504 380.808 30.9664 380.016 31.1984 379.376C31.4384 378.728 31.7864 378.24 32.2424 377.912C32.7064 377.584 33.2704 377.42 33.9344 377.42C34.6064 377.42 35.1704 377.584 35.6264 377.912C36.0904 378.24 36.4384 378.724 36.6704 379.364C36.9024 380.004 37.0184 380.796 37.0184 381.74C37.0184 382.676 36.8984 383.472 36.6584 384.128C36.4264 384.776 36.0824 385.272 35.6264 385.616C35.1704 385.952 34.6064 386.12 33.9344 386.12ZM33.9344 384.86C34.4784 384.86 34.8784 384.612 35.1344 384.116C35.3984 383.612 35.5304 382.82 35.5304 381.74C35.5304 380.668 35.3984 379.892 35.1344 379.412C34.8784 378.924 34.4784 378.68 33.9344 378.68C33.3984 378.68 32.9984 378.924 32.7344 379.412C32.4704 379.892 32.3384 380.672 32.3384 381.752C32.3384 382.824 32.4704 383.612 32.7344 384.116C32.9984 384.612 33.3984 384.86 33.9344 384.86Z" fill="#808283"/>
<rect x="64.0391" y="366" width="1" height="8" fill="#313338"/>
<path d="M56.502 380.708V379.616C56.502 379.344 56.53 379.088 56.586 378.848C56.65 378.608 56.75 378.372 56.886 378.14C57.03 377.908 57.218 377.676 57.45 377.444L58.074 377.936C57.906 378.112 57.77 378.28 57.666 378.44C57.562 378.592 57.486 378.748 57.438 378.908C57.398 379.06 57.378 379.22 57.378 379.388L57.006 379.04H58.182V380.708H56.502ZM60.1385 386V384.728H62.0465V378.836H62.7905L60.5705 380.18L59.9705 379.052L62.4905 377.54H63.5825V384.728H65.3705V386H60.1385ZM67.3338 386V384.728H69.2418V378.836H69.9858L67.7658 380.18L67.1658 379.052L69.6858 377.54H70.7778V384.728H72.5658V386H67.3338Z" fill="#808283"/>
<rect x="99.7305" y="366" width="1" height="8" fill="#313338"/>
<path d="M92.1934 380.708V379.616C92.1934 379.344 92.2214 379.088 92.2774 378.848C92.3414 378.608 92.4414 378.372 92.5774 378.14C92.7214 377.908 92.9094 377.676 93.1414 377.444L93.7654 377.936C93.5974 378.112 93.4614 378.28 93.3574 378.44C93.2534 378.592 93.1774 378.748 93.1294 378.908C93.0894 379.06 93.0694 379.22 93.0694 379.388L92.6974 379.04H93.8734V380.708H92.1934ZM95.8299 386V384.728H97.7379V378.836H98.4819L96.2619 380.18L95.6619 379.052L98.1819 377.54H99.2739V384.728H101.062V386H95.8299ZM102.677 386V384.86L105.413 381.944C105.661 381.68 105.857 381.436 106.001 381.212C106.153 380.988 106.265 380.772 106.337 380.564C106.409 380.356 106.445 380.148 106.445 379.94C106.445 379.54 106.317 379.236 106.061 379.028C105.813 378.82 105.449 378.716 104.969 378.716C104.593 378.716 104.225 378.788 103.865 378.932C103.513 379.068 103.173 379.284 102.845 379.58L102.329 378.428C102.665 378.124 103.085 377.88 103.589 377.696C104.093 377.512 104.617 377.42 105.161 377.42C105.769 377.42 106.281 377.512 106.697 377.696C107.113 377.88 107.429 378.148 107.645 378.5C107.861 378.852 107.969 379.28 107.969 379.784C107.969 380.04 107.937 380.292 107.873 380.54C107.817 380.78 107.725 381.02 107.597 381.26C107.477 381.5 107.321 381.748 107.129 382.004C106.945 382.252 106.721 382.512 106.457 382.784L104.201 385.136V384.728H108.293V386H102.677Z" fill="#808283"/>
<rect x="135.426" y="366" width="1" height="8" fill="#313338"/>
<path d="M127.889 380.708V379.616C127.889 379.344 127.917 379.088 127.973 378.848C128.037 378.608 128.137 378.372 128.273 378.14C128.417 377.908 128.605 377.676 128.837 377.444L129.461 377.936C129.293 378.112 129.157 378.28 129.053 378.44C128.949 378.592 128.873 378.748 128.825 378.908C128.785 379.06 128.765 379.22 128.765 379.388L128.393 379.04H129.569V380.708H127.889ZM131.525 386V384.728H133.433V378.836H134.177L131.957 380.18L131.357 379.052L133.877 377.54H134.969V384.728H136.757V386H131.525ZM140.845 386.12C140.461 386.12 140.085 386.08 139.717 386C139.357 385.928 139.021 385.82 138.709 385.676C138.397 385.532 138.125 385.36 137.893 385.16L138.397 383.984C138.773 384.272 139.157 384.484 139.549 384.62C139.941 384.756 140.357 384.824 140.797 384.824C141.149 384.824 141.445 384.776 141.685 384.68C141.925 384.584 142.105 384.44 142.225 384.248C142.353 384.056 142.417 383.824 142.417 383.552C142.417 383.152 142.281 382.856 142.009 382.664C141.745 382.464 141.357 382.364 140.845 382.364H139.489V381.092H140.701C141.005 381.092 141.265 381.044 141.481 380.948C141.697 380.844 141.865 380.7 141.985 380.516C142.105 380.332 142.165 380.108 142.165 379.844C142.165 379.476 142.041 379.196 141.793 379.004C141.553 378.812 141.201 378.716 140.737 378.716C140.321 378.716 139.933 378.788 139.573 378.932C139.213 379.068 138.869 379.284 138.541 379.58L138.037 378.428C138.373 378.108 138.793 377.86 139.297 377.684C139.801 377.508 140.325 377.42 140.869 377.42C141.453 377.42 141.953 377.512 142.369 377.696C142.785 377.872 143.101 378.128 143.317 378.464C143.541 378.792 143.653 379.192 143.653 379.664C143.653 380.168 143.513 380.604 143.233 380.972C142.953 381.332 142.569 381.572 142.081 381.692V381.548C142.465 381.612 142.793 381.74 143.065 381.932C143.337 382.124 143.545 382.368 143.689 382.664C143.833 382.96 143.905 383.3 143.905 383.684C143.905 384.18 143.781 384.612 143.533 384.98C143.285 385.348 142.933 385.632 142.477 385.832C142.021 386.024 141.477 386.12 140.845 386.12Z" fill="#808283"/>
<rect x="171.117" y="366" width="1" height="8" fill="#313338"/>
<path d="M163.58 380.708V379.616C163.58 379.344 163.608 379.088 163.664 378.848C163.728 378.608 163.828 378.372 163.964 378.14C164.108 377.908 164.296 377.676 164.528 377.444L165.152 377.936C164.984 378.112 164.848 378.28 164.744 378.44C164.64 378.592 164.564 378.748 164.516 378.908C164.476 379.06 164.456 379.22 164.456 379.388L164.084 379.04H165.26V380.708H163.58ZM167.217 386V384.728H169.125V378.836H169.869L167.649 380.18L167.049 379.052L169.569 377.54H170.661V384.728H172.449V386H167.217ZM177.292 386V384.392H173.608V383.264L177.556 377.54H178.828V383.12H180.016V384.392H178.828V386H177.292ZM177.292 383.12V379.376H177.64L174.808 383.528V383.12H177.292Z" fill="#808283"/>
<rect x="206.809" y="366" width="1" height="8" fill="#313338"/>
<path d="M199.271 380.708V379.616C199.271 379.344 199.299 379.088 199.355 378.848C199.419 378.608 199.519 378.372 199.655 378.14C199.799 377.908 199.987 377.676 200.219 377.444L200.843 377.936C200.675 378.112 200.539 378.28 200.435 378.44C200.331 378.592 200.255 378.748 200.207 378.908C200.167 379.06 200.147 379.22 200.147 379.388L199.775 379.04H200.951V380.708H199.271ZM202.908 386V384.728H204.816V378.836H205.56L203.34 380.18L202.74 379.052L205.26 377.54H206.352V384.728H208.14V386H202.908ZM212.467 386.12C212.099 386.12 211.735 386.08 211.375 386C211.023 385.92 210.691 385.808 210.379 385.664C210.075 385.52 209.811 385.352 209.587 385.16L210.091 383.984C210.459 384.264 210.839 384.476 211.231 384.62C211.623 384.756 212.027 384.824 212.443 384.824C212.947 384.824 213.339 384.696 213.619 384.44C213.907 384.176 214.051 383.824 214.051 383.384C214.051 382.936 213.915 382.576 213.643 382.304C213.371 382.024 212.999 381.884 212.527 381.884C212.183 381.884 211.875 381.952 211.603 382.088C211.331 382.216 211.083 382.416 210.859 382.688H209.827V377.54H215.023V378.812H211.327V381.5H210.931C211.139 381.22 211.411 381.004 211.747 380.852C212.091 380.7 212.471 380.624 212.887 380.624C213.423 380.624 213.887 380.74 214.279 380.972C214.679 381.196 214.987 381.512 215.203 381.92C215.427 382.32 215.539 382.788 215.539 383.324C215.539 383.876 215.415 384.364 215.167 384.788C214.919 385.204 214.563 385.532 214.099 385.772C213.643 386.004 213.099 386.12 212.467 386.12Z" fill="#808283"/>
<rect x="242.5" y="366" width="1" height="8" fill="#313338"/>
<path d="M234.963 380.708V379.616C234.963 379.344 234.991 379.088 235.047 378.848C235.111 378.608 235.211 378.372 235.347 378.14C235.491 377.908 235.679 377.676 235.911 377.444L236.535 377.936C236.367 378.112 236.231 378.28 236.127 378.44C236.023 378.592 235.947 378.748 235.899 378.908C235.859 379.06 235.839 379.22 235.839 379.388L235.467 379.04H236.643V380.708H234.963ZM238.599 386V384.728H240.507V378.836H241.251L239.031 380.18L238.431 379.052L240.951 377.54H242.043V384.728H243.831V386H238.599ZM248.399 386.12C247.703 386.12 247.107 385.956 246.611 385.628C246.123 385.292 245.751 384.812 245.495 384.188C245.239 383.564 245.111 382.808 245.111 381.92C245.111 380.96 245.255 380.148 245.543 379.484C245.831 378.812 246.247 378.3 246.791 377.948C247.335 377.596 247.987 377.42 248.747 377.42C249.043 377.42 249.339 377.46 249.635 377.54C249.939 377.612 250.223 377.72 250.487 377.864C250.759 378 250.999 378.168 251.207 378.368L250.703 379.52C250.407 379.248 250.091 379.048 249.755 378.92C249.419 378.784 249.075 378.716 248.723 378.716C248.379 378.716 248.071 378.78 247.799 378.908C247.535 379.028 247.311 379.212 247.127 379.46C246.943 379.7 246.803 380.004 246.707 380.372C246.619 380.732 246.575 381.152 246.575 381.632V382.532H246.431C246.495 382.124 246.627 381.776 246.827 381.488C247.035 381.192 247.299 380.968 247.619 380.816C247.939 380.656 248.295 380.576 248.687 380.576C249.175 380.576 249.607 380.692 249.983 380.924C250.359 381.156 250.655 381.476 250.871 381.884C251.087 382.292 251.195 382.76 251.195 383.288C251.195 383.832 251.075 384.32 250.835 384.752C250.603 385.176 250.275 385.512 249.851 385.76C249.435 386 248.951 386.12 248.399 386.12ZM248.315 384.896C248.603 384.896 248.855 384.832 249.071 384.704C249.295 384.576 249.467 384.396 249.587 384.164C249.707 383.924 249.767 383.652 249.767 383.348C249.767 383.036 249.707 382.764 249.587 382.532C249.467 382.3 249.295 382.12 249.071 381.992C248.855 381.856 248.603 381.788 248.315 381.788C248.027 381.788 247.775 381.856 247.559 381.992C247.343 382.12 247.171 382.3 247.043 382.532C246.923 382.764 246.863 383.036 246.863 383.348C246.863 383.652 246.923 383.924 247.043 384.164C247.171 384.396 247.343 384.576 247.559 384.704C247.775 384.832 248.027 384.896 248.315 384.896Z" fill="#808283"/>
<rect x="278.195" y="366" width="1" height="8" fill="#313338"/>
<path d="M270.658 380.708V379.616C270.658 379.344 270.686 379.088 270.742 378.848C270.806 378.608 270.906 378.372 271.042 378.14C271.186 377.908 271.374 377.676 271.606 377.444L272.23 377.936C272.062 378.112 271.926 378.28 271.822 378.44C271.718 378.592 271.642 378.748 271.594 378.908C271.554 379.06 271.534 379.22 271.534 379.388L271.162 379.04H272.338V380.708H270.658ZM274.295 386V384.728H276.203V378.836H276.947L274.727 380.18L274.127 379.052L276.647 377.54H277.739V384.728H279.527V386H274.295ZM281.214 386L285.306 378.296V378.824H280.842V377.54H286.734V378.692L282.906 386H281.214Z" fill="#808283"/>
<rect x="313.887" y="366" width="1" height="8" fill="#313338"/>
<path d="M306.35 380.708V379.616C306.35 379.344 306.378 379.088 306.434 378.848C306.498 378.608 306.598 378.372 306.734 378.14C306.878 377.908 307.066 377.676 307.298 377.444L307.922 377.936C307.754 378.112 307.618 378.28 307.514 378.44C307.41 378.592 307.334 378.748 307.286 378.908C307.246 379.06 307.226 379.22 307.226 379.388L306.854 379.04H308.03V380.708H306.35ZM309.986 386V384.728H311.894V378.836H312.638L310.418 380.18L309.818 379.052L312.338 377.54H313.43V384.728H315.218V386H309.986ZM319.473 386.12C318.489 386.12 317.717 385.908 317.157 385.484C316.605 385.06 316.329 384.472 316.329 383.72C316.329 383.32 316.409 382.968 316.569 382.664C316.737 382.352 316.965 382.1 317.253 381.908C317.541 381.716 317.869 381.596 318.237 381.548V381.8C317.901 381.728 317.605 381.596 317.349 381.404C317.093 381.204 316.893 380.96 316.749 380.672C316.613 380.376 316.545 380.052 316.545 379.7C316.545 378.988 316.809 378.432 317.337 378.032C317.865 377.624 318.581 377.42 319.485 377.42C320.381 377.42 321.093 377.624 321.621 378.032C322.149 378.432 322.413 378.988 322.413 379.7C322.413 380.052 322.341 380.376 322.197 380.672C322.061 380.968 321.865 381.212 321.609 381.404C321.361 381.596 321.069 381.724 320.733 381.788V381.548C321.109 381.596 321.437 381.72 321.717 381.92C321.997 382.112 322.217 382.364 322.377 382.676C322.537 382.98 322.617 383.328 322.617 383.72C322.617 384.472 322.337 385.06 321.777 385.484C321.225 385.908 320.457 386.12 319.473 386.12ZM319.473 384.92C320.041 384.92 320.469 384.812 320.757 384.596C321.045 384.372 321.189 384.044 321.189 383.612C321.189 383.18 321.045 382.856 320.757 382.64C320.469 382.424 320.041 382.316 319.473 382.316C318.913 382.316 318.485 382.424 318.189 382.64C317.901 382.856 317.757 383.18 317.757 383.612C317.757 384.044 317.901 384.372 318.189 384.596C318.485 384.812 318.913 384.92 319.473 384.92ZM319.473 381.116C319.945 381.116 320.313 381.004 320.577 380.78C320.849 380.556 320.985 380.248 320.985 379.856C320.985 379.472 320.849 379.172 320.577 378.956C320.313 378.732 319.945 378.62 319.473 378.62C319.001 378.62 318.633 378.732 318.369 378.956C318.105 379.172 317.973 379.476 317.973 379.868C317.973 380.252 318.105 380.556 318.369 380.78C318.633 381.004 319.001 381.116 319.473 381.116Z" fill="#808283"/>
<rect x="349.578" y="366" width="1" height="8" fill="#313338"/>
<path d="M342.041 380.708V379.616C342.041 379.344 342.069 379.088 342.125 378.848C342.189 378.608 342.289 378.372 342.425 378.14C342.569 377.908 342.757 377.676 342.989 377.444L343.613 377.936C343.445 378.112 343.309 378.28 343.205 378.44C343.101 378.592 343.025 378.748 342.977 378.908C342.937 379.06 342.917 379.22 342.917 379.388L342.545 379.04H343.721V380.708H342.041ZM345.678 386V384.728H347.586V378.836H348.33L346.11 380.18L345.51 379.052L348.03 377.54H349.122V384.728H350.91V386H345.678ZM354.517 386.12C354.221 386.12 353.921 386.08 353.617 386C353.321 385.928 353.037 385.82 352.765 385.676C352.501 385.532 352.261 385.36 352.045 385.16L352.561 384.008C352.849 384.28 353.161 384.484 353.497 384.62C353.841 384.756 354.185 384.824 354.529 384.824C354.881 384.824 355.189 384.764 355.453 384.644C355.725 384.516 355.953 384.332 356.137 384.092C356.321 383.844 356.457 383.54 356.545 383.18C356.641 382.812 356.689 382.388 356.689 381.908V381.008H356.821C356.765 381.408 356.633 381.756 356.425 382.052C356.217 382.348 355.953 382.576 355.633 382.736C355.321 382.888 354.965 382.964 354.565 382.964C354.085 382.964 353.657 382.848 353.281 382.616C352.905 382.384 352.605 382.064 352.381 381.656C352.165 381.24 352.057 380.772 352.057 380.252C352.057 379.7 352.177 379.212 352.417 378.788C352.657 378.364 352.985 378.032 353.401 377.792C353.825 377.544 354.309 377.42 354.853 377.42C355.557 377.42 356.153 377.584 356.641 377.912C357.129 378.24 357.501 378.72 357.757 379.352C358.013 379.976 358.141 380.732 358.141 381.62C358.141 382.572 357.997 383.384 357.709 384.056C357.421 384.728 357.005 385.24 356.461 385.592C355.925 385.944 355.277 386.12 354.517 386.12ZM354.949 381.74C355.237 381.74 355.489 381.676 355.705 381.548C355.929 381.42 356.101 381.24 356.221 381.008C356.341 380.768 356.401 380.496 356.401 380.192C356.401 379.88 356.341 379.608 356.221 379.376C356.101 379.144 355.929 378.964 355.705 378.836C355.489 378.7 355.237 378.632 354.949 378.632C354.661 378.632 354.409 378.7 354.193 378.836C353.977 378.964 353.805 379.144 353.677 379.376C353.557 379.608 353.497 379.88 353.497 380.192C353.497 380.496 353.557 380.768 353.677 381.008C353.805 381.24 353.977 381.42 354.193 381.548C354.409 381.676 354.661 381.74 354.949 381.74Z" fill="#808283"/>
<rect x="385.27" y="366" width="1" height="8" fill="#313338"/>
<path d="M377.732 380.708V379.616C377.732 379.344 377.76 379.088 377.816 378.848C377.88 378.608 377.98 378.372 378.116 378.14C378.26 377.908 378.448 377.676 378.68 377.444L379.304 377.936C379.136 378.112 379 378.28 378.896 378.44C378.792 378.592 378.716 378.748 378.668 378.908C378.628 379.06 378.608 379.22 378.608 379.388L378.236 379.04H379.412V380.708H377.732ZM381.021 386V384.86L383.757 381.944C384.005 381.68 384.201 381.436 384.345 381.212C384.497 380.988 384.609 380.772 384.681 380.564C384.753 380.356 384.789 380.148 384.789 379.94C384.789 379.54 384.661 379.236 384.405 379.028C384.157 378.82 383.793 378.716 383.313 378.716C382.937 378.716 382.569 378.788 382.209 378.932C381.857 379.068 381.517 379.284 381.189 379.58L380.673 378.428C381.009 378.124 381.429 377.88 381.933 377.696C382.437 377.512 382.961 377.42 383.505 377.42C384.113 377.42 384.625 377.512 385.041 377.696C385.457 377.88 385.773 378.148 385.989 378.5C386.205 378.852 386.313 379.28 386.313 379.784C386.313 380.04 386.281 380.292 386.217 380.54C386.161 380.78 386.069 381.02 385.941 381.26C385.821 381.5 385.665 381.748 385.473 382.004C385.289 382.252 385.065 382.512 384.801 382.784L382.545 385.136V384.728H386.637V386H381.021ZM390.856 386.12C390.192 386.12 389.628 385.952 389.164 385.616C388.708 385.272 388.36 384.776 388.12 384.128C387.888 383.48 387.772 382.688 387.772 381.752C387.772 380.808 387.888 380.016 388.12 379.376C388.36 378.728 388.708 378.24 389.164 377.912C389.628 377.584 390.192 377.42 390.856 377.42C391.528 377.42 392.092 377.584 392.548 377.912C393.012 378.24 393.36 378.724 393.592 379.364C393.824 380.004 393.94 380.796 393.94 381.74C393.94 382.676 393.82 383.472 393.58 384.128C393.348 384.776 393.004 385.272 392.548 385.616C392.092 385.952 391.528 386.12 390.856 386.12ZM390.856 384.86C391.4 384.86 391.8 384.612 392.056 384.116C392.32 383.612 392.452 382.82 392.452 381.74C392.452 380.668 392.32 379.892 392.056 379.412C391.8 378.924 391.4 378.68 390.856 378.68C390.32 378.68 389.92 378.924 389.656 379.412C389.392 379.892 389.26 380.672 389.26 381.752C389.26 382.824 389.392 383.612 389.656 384.116C389.92 384.612 390.32 384.86 390.856 384.86Z" fill="#808283"/>
<rect x="420.965" y="366" width="1" height="8" fill="#313338"/>
<path d="M413.428 380.708V379.616C413.428 379.344 413.456 379.088 413.512 378.848C413.576 378.608 413.676 378.372 413.812 378.14C413.956 377.908 414.144 377.676 414.376 377.444L415 377.936C414.832 378.112 414.696 378.28 414.592 378.44C414.488 378.592 414.412 378.748 414.364 378.908C414.324 379.06 414.304 379.22 414.304 379.388L413.932 379.04H415.108V380.708H413.428ZM416.716 386V384.86L419.452 381.944C419.7 381.68 419.896 381.436 420.04 381.212C420.192 380.988 420.304 380.772 420.376 380.564C420.448 380.356 420.484 380.148 420.484 379.94C420.484 379.54 420.356 379.236 420.1 379.028C419.852 378.82 419.488 378.716 419.008 378.716C418.632 378.716 418.264 378.788 417.904 378.932C417.552 379.068 417.212 379.284 416.884 379.58L416.368 378.428C416.704 378.124 417.124 377.88 417.628 377.696C418.132 377.512 418.656 377.42 419.2 377.42C419.808 377.42 420.32 377.512 420.736 377.696C421.152 377.88 421.468 378.148 421.684 378.5C421.9 378.852 422.008 379.28 422.008 379.784C422.008 380.04 421.976 380.292 421.912 380.54C421.856 380.78 421.764 381.02 421.636 381.26C421.516 381.5 421.36 381.748 421.168 382.004C420.984 382.252 420.76 382.512 420.496 382.784L418.24 385.136V384.728H422.332V386H416.716ZM424.26 386V384.728H426.168V378.836H426.912L424.692 380.18L424.092 379.052L426.612 377.54H427.704V384.728H429.492V386H424.26Z" fill="#808283"/>
<rect x="456.656" y="366" width="1" height="8" fill="#313338"/>
<path d="M449.119 380.708V379.616C449.119 379.344 449.147 379.088 449.203 378.848C449.267 378.608 449.367 378.372 449.503 378.14C449.647 377.908 449.835 377.676 450.067 377.444L450.691 377.936C450.523 378.112 450.387 378.28 450.283 378.44C450.179 378.592 450.103 378.748 450.055 378.908C450.015 379.06 449.995 379.22 449.995 379.388L449.623 379.04H450.799V380.708H449.119ZM452.408 386V384.86L455.144 381.944C455.392 381.68 455.588 381.436 455.732 381.212C455.884 380.988 455.996 380.772 456.068 380.564C456.14 380.356 456.176 380.148 456.176 379.94C456.176 379.54 456.048 379.236 455.792 379.028C455.544 378.82 455.18 378.716 454.7 378.716C454.324 378.716 453.956 378.788 453.596 378.932C453.244 379.068 452.904 379.284 452.576 379.58L452.06 378.428C452.396 378.124 452.816 377.88 453.32 377.696C453.824 377.512 454.348 377.42 454.892 377.42C455.5 377.42 456.012 377.512 456.428 377.696C456.844 377.88 457.16 378.148 457.376 378.5C457.592 378.852 457.7 379.28 457.7 379.784C457.7 380.04 457.668 380.292 457.604 380.54C457.548 380.78 457.456 381.02 457.328 381.26C457.208 381.5 457.052 381.748 456.86 382.004C456.676 382.252 456.452 382.512 456.188 382.784L453.932 385.136V384.728H458.024V386H452.408ZM459.603 386V384.86L462.339 381.944C462.587 381.68 462.783 381.436 462.927 381.212C463.079 380.988 463.191 380.772 463.263 380.564C463.335 380.356 463.371 380.148 463.371 379.94C463.371 379.54 463.243 379.236 462.987 379.028C462.739 378.82 462.375 378.716 461.895 378.716C461.519 378.716 461.151 378.788 460.791 378.932C460.439 379.068 460.099 379.284 459.771 379.58L459.255 378.428C459.591 378.124 460.011 377.88 460.515 377.696C461.019 377.512 461.543 377.42 462.087 377.42C462.695 377.42 463.207 377.512 463.623 377.696C464.039 377.88 464.355 378.148 464.571 378.5C464.787 378.852 464.895 379.28 464.895 379.784C464.895 380.04 464.863 380.292 464.799 380.54C464.743 380.78 464.651 381.02 464.523 381.26C464.403 381.5 464.247 381.748 464.055 382.004C463.871 382.252 463.647 382.512 463.383 382.784L461.127 385.136V384.728H465.219V386H459.603Z" fill="#808283"/>
<g filter="url(#filter0_d_2198_7197)">
<path d="M46 344L47.0275 336.087L48.0551 342.478L50.1101 338.826L53.5352 340.957L54.9053 333.652H55.9328L56.6178 324.826L57.6453 314.783C58.2162 317.116 59.4264 321.843 59.7004 322.087C59.9744 322.33 60.9563 320.565 61.413 319.652C61.9838 317.725 63.194 314.052 63.468 314.783C63.8105 315.696 64.153 319.044 64.4955 317.522C64.7696 316.304 64.6097 308.899 64.4955 305.348C64.9522 306.058 65.8656 307.357 65.8656 306.87C65.8656 306.383 66.7789 302 67.2356 299.87L72.0308 304.13V283.13L74.4283 284.652L75.1134 268.217C75.57 269.029 76.4834 270.409 76.4834 269.435C76.4834 268.217 78.5385 251.783 78.5385 252.391C78.5385 252.878 79.6802 258.681 80.251 261.522C80.7077 261.116 81.6211 260.426 81.6211 260.913C81.6211 261.4 82.0777 269.84 82.3061 274L84.3611 269.435L85.3887 277.043L86.4162 275.522L87.7862 278.869C88.0146 277.855 88.5398 276.191 88.8138 277.652C89.0878 279.113 89.3846 284.551 89.4988 287.087L91.8964 283.739L92.5814 288L97.3765 272.782L99.4316 275.522L101.144 274L101.829 278.869L104.569 276.435L106.624 277.652L107.652 275.522L109.364 277.652L112.447 272.782C113.132 273.594 114.502 274.974 114.502 274C114.502 273.026 115.415 269.739 115.872 268.217C116.1 268.826 116.557 269.922 116.557 269.435C116.557 268.948 118.155 264.565 118.955 262.435V270.043L121.352 263.652L125.805 266.696L129.572 262.435C130.486 263.551 132.313 265.356 132.313 263.652C132.313 261.948 136.194 249.348 138.135 243.261L139.505 244.174L140.533 222.565L141.903 239L142.93 228.348L144.643 232.913L145.67 230.478L149.096 239L154.233 229.261L156.973 232.913L162.796 198.826L165.536 208.869L167.591 202.478L171.016 208.869L173.414 205.217C174.099 208.768 175.469 215.748 175.469 215.261C175.469 214.774 176.611 211.811 177.181 210.391L178.551 212.217L180.606 205.217L181.634 208.261L184.717 206.435L187.114 208.869C187.799 208.768 189.238 208.748 189.512 209.478C189.786 210.209 190.539 213.638 190.882 215.261L194.307 213.435L196.019 216.174L197.047 213.435L199.787 218L202.185 225L207.322 217.391L209.377 221.348L214.172 220.739L216.913 223.174L219.31 216.782L222.735 222.261L224.105 220.739L225.475 222.261L228.558 212.826L230.955 217.391L234.038 211.304L237.121 215.261L241.231 211.913L245.341 213.435L247.396 210.695C247.853 211.304 248.835 212.4 249.109 211.913C249.383 211.426 251.278 206.84 252.191 204.609L255.274 208.869L259.384 206.435L262.466 208.261L270.687 198.522L272.057 203.391L275.824 197C276.623 198.724 278.222 202.052 278.222 201.565C278.222 201.078 283.474 190.609 286.1 185.435C286.785 187.565 288.223 191.826 288.497 191.826C288.84 191.826 292.607 176 292.95 176.304C293.224 176.548 294.662 180.667 295.347 182.696L298.772 173.869C299.115 172.246 299.937 169.365 300.485 170.826C301.17 172.043 302.54 157.435 302.883 157.739C303.157 157.983 305.509 162.507 306.65 164.739L308.705 171.435L310.418 166.565L312.815 171.435L316.24 167.783L320.008 173.869L323.776 170.826L324.803 173.869L327.886 172.044L328.571 173.869L335.764 173.261L336.449 179.348L338.846 184.217L340.216 180.261L342.614 182.087L345.354 180.261H346.381L348.436 181.174V177.826H350.492L353.232 169.304C353.802 170.42 354.944 172.409 354.944 171.435C354.944 170.461 354.944 165.957 354.944 163.826C356.2 165.652 358.78 169.304 359.054 169.304C359.328 169.304 360.538 166.87 361.109 165.652L363.507 169.304L365.904 166.565V170.826L368.645 169.304L373.782 174.783L380.29 167.174L382.002 176.304L386.113 168.087L393.305 169.913L397.073 163.217C398.9 165.043 402.485 168.391 402.211 167.174C401.937 165.957 404.38 159.362 405.636 156.217C406.663 157.841 408.718 160.904 408.718 160.174C408.718 159.443 410.317 151.348 411.116 147.391L413.856 150.739L415.911 141L419.336 144.652L421.391 142.522L422.076 147.391L426.529 150.739L430.981 144.652L433.036 147.391L436.119 141L439.202 145.87C439.772 144.855 441.12 142.948 441.942 143.435C442.764 143.922 445.253 147.29 446.394 148.913L451.875 145.87L454.957 150.739L457.355 148.304L460.78 154.087L465.232 158.043L467.287 155.609L469 158.043" stroke="#A06AFF" stroke-width="1.5" stroke-linecap="round"/>
</g>
<g filter="url(#filter1_d_2198_7197)">
<path d="M16 323.732H66.9135V288.82L70.5036 313.757L74.0937 317.864V288.82L76.3782 295.568L77.6837 201.688C78.6628 235.132 80.4905 301.787 79.9683 300.849C79.4461 299.91 83.232 252.735 85.1902 229.265L89.1066 300.849L92.0439 180.565L95.634 257.136L97.9186 164.722L99.5504 303.196L101.182 300.849L102.814 325.199L105.425 311.997L108.362 334L110.973 329.599L111.952 334L115.216 316.104L118.806 325.199L121.417 322.558L123.049 325.199C123.267 324.319 123.898 322.558 124.681 322.558C125.464 322.558 128.271 322.558 129.576 322.558L135.451 292.341L138.062 307.89L140.347 300.849L142.305 307.89L147.527 300.849L149.811 304.662L157.644 148V298.208L160.581 277.965L163.192 298.208L164.498 296.155L166.13 311.997L169.72 291.461L171.678 296.155V293.808L173.636 303.196L176.9 169.416L179.511 292.341L182.448 263.59C183.427 278.259 185.451 307.303 185.712 306.129C185.973 304.956 188.214 298.991 189.302 296.155L190.607 318.158L196.156 303.196L197.461 307.89L198.44 304.662L200.398 313.757L201.378 311.997L202.683 316.984L204.641 315.517L206.599 323.145L210.842 318.158L213.453 326.959L215.411 324.905L216.064 332.533L221.612 324.319L224.223 327.839L226.834 326.959L228.14 327.839L231.73 321.385L234.667 327.839L236.625 326.372L236.952 327.252L241.195 314.05L244.132 321.385L245.764 311.997L247.069 314.05V311.997L249.354 318.158L252.291 314.05L254.576 316.397L257.187 313.17L259.145 315.517L262.082 292.927C262.517 297.23 263.388 305.719 263.388 305.249C263.388 304.78 264.04 300.751 264.367 298.795L266.325 310.823L267.63 307.596L268.283 309.65L268.936 306.129L271.547 308.183L274.811 300.262L277.095 302.315L280.032 282.073L282.317 302.315L286.233 279.432L289.497 298.502L294.066 239.24L298.635 287.353L301.246 239.827L304.836 285.3L311.69 170.883L316.586 313.17L317.891 286.767L321.155 314.344L323.766 298.795L328.335 318.451L332.251 306.129L334.21 316.984L335.841 312.29L337.147 317.571L340.084 315.517L344.001 330.48L346.285 326.959L349.549 329.013L350.202 324.025L354.118 326.079L354.771 320.505H356.729L359.34 302.022C360.21 302.609 361.951 303.724 361.951 303.489C361.951 303.254 361.951 290.091 361.951 283.539C362.713 289.7 364.301 302.022 364.562 302.022C364.823 302.022 366.194 298.11 366.847 296.155L368.478 308.77L373.7 305.249V315.517L377.943 318.158L383.491 303.489L386.755 327.839L391.651 304.369L395.893 308.476L399.157 299.382L406.664 305.249L409.274 277.379L410.58 282.073L412.538 227.211L413.517 264.763L417.76 215.476V247.748L420.371 227.211L422.982 272.978L424.614 261.536L428.204 305.249L430.162 300.262L431.141 307.303L433.426 283.539C434.84 289.505 437.669 300.907 437.669 298.795C437.669 296.155 437.995 269.457 438.974 271.218C439.757 272.626 445.828 297.817 448.765 310.237L450.071 302.022L451.702 307.303L453.334 299.968L457.577 318.158L459.535 315.224L461.167 325.785L465.084 319.918L467.695 325.199L469 322.852" stroke="#FFA800" stroke-width="1.5" shape-rendering="crispEdges"/>
</g>
<defs>
<filter id="filter0_d_2198_7197" x="37.25" y="131.438" width="440.5" height="221.312" filterUnits="userSpaceOnUse" color-interpolation-filters="sRGB">
<feFlood flood-opacity="0" result="BackgroundImageFix"/>
<feColorMatrix in="SourceAlpha" type="matrix" values="0 0 0 0 0 0 0 0 0 0 0 0 0 0 0 0 0 0 127 0" result="hardAlpha"/>
<feOffset/>
<feGaussianBlur stdDeviation="4"/>
<feComposite in2="hardAlpha" operator="out"/>
<feColorMatrix type="matrix" values="0 0 0 0 0.627451 0 0 0 0 0.415686 0 0 0 0 1 0 0 0 0.24 0"/>
<feBlend mode="normal" in2="BackgroundImageFix" result="effect1_dropShadow_2198_7197"/>
<feBlend mode="normal" in="SourceGraphic" in2="effect1_dropShadow_2198_7197" result="shape"/>
</filter>
<filter id="filter1_d_2198_7197" x="8" y="139.962" width="469.656" height="204.278" filterUnits="userSpaceOnUse" color-interpolation-filters="sRGB">
<feFlood flood-opacity="0" result="BackgroundImageFix"/>
<feColorMatrix in="SourceAlpha" type="matrix" values="0 0 0 0 0 0 0 0 0 0 0 0 0 0 0 0 0 0 127 0" result="hardAlpha"/>
<feOffset/>
<feGaussianBlur stdDeviation="4"/>
<feComposite in2="hardAlpha" operator="out"/>
<feColorMatrix type="matrix" values="0 0 0 0 1 0 0 0 0 0.658824 0 0 0 0 0 0 0 0 0.24 0"/>
<feBlend mode="normal" in2="BackgroundImageFix" result="effect1_dropShadow_2198_7197"/>
<feBlend mode="normal" in="SourceGraphic" in2="effect1_dropShadow_2198_7197" result="shape"/>
</filter>
</defs>
</svg>
