<svg width="528" height="414" viewBox="0 0 528 414" fill="none" xmlns="http://www.w3.org/2000/svg">
<rect width="528" height="414" rx="8" fill="#181A20"/>
<path d="M17.896 43V26.08H20.464L26.848 37.864H26.08L32.44 26.08H34.96V43H32.176V30.64H32.704L27.328 40.432H25.528L20.104 30.616H20.68V43H17.896ZM44.1799 43.24C42.8519 43.24 41.7079 42.992 40.7479 42.496C39.7879 42 39.0439 41.296 38.5159 40.384C38.0039 39.472 37.7479 38.392 37.7479 37.144C37.7479 35.928 37.9959 34.864 38.4919 33.952C39.0039 33.04 39.6999 32.328 40.5799 31.816C41.4759 31.288 42.4919 31.024 43.6279 31.024C44.7479 31.024 45.7079 31.264 46.5079 31.744C47.3079 32.224 47.9239 32.904 48.3559 33.784C48.8039 34.664 49.0279 35.712 49.0279 36.928V37.816H40.1719V36.088H46.9159L46.5319 36.448C46.5319 35.36 46.2919 34.528 45.8119 33.952C45.3319 33.36 44.6439 33.064 43.7479 33.064C43.0759 33.064 42.4999 33.224 42.0199 33.544C41.5559 33.848 41.1959 34.288 40.9399 34.864C40.6999 35.424 40.5799 36.096 40.5799 36.88V37.048C40.5799 37.928 40.7159 38.656 40.9879 39.232C41.2599 39.808 41.6679 40.24 42.2119 40.528C42.7559 40.816 43.4279 40.96 44.2279 40.96C44.8839 40.96 45.5399 40.864 46.1959 40.672C46.8519 40.464 47.4519 40.144 47.9959 39.712L48.8359 41.728C48.2759 42.192 47.5719 42.56 46.7239 42.832C45.8759 43.104 45.0279 43.24 44.1799 43.24ZM55.2678 43.24C54.4198 43.24 53.6598 43.08 52.9878 42.76C52.3318 42.424 51.8118 41.976 51.4277 41.416C51.0598 40.856 50.8758 40.224 50.8758 39.52C50.8758 38.656 51.0998 37.976 51.5478 37.48C51.9958 36.968 52.7238 36.6 53.7318 36.376C54.7398 36.152 56.0918 36.04 57.7878 36.04H58.9878V37.768H57.8118C57.0598 37.768 56.4278 37.8 55.9158 37.864C55.4038 37.912 54.9878 38 54.6678 38.128C54.3638 38.24 54.1398 38.4 53.9958 38.608C53.8678 38.816 53.8038 39.072 53.8038 39.376C53.8038 39.904 53.9878 40.336 54.3558 40.672C54.7238 41.008 55.2358 41.176 55.8918 41.176C56.4198 41.176 56.8838 41.056 57.2838 40.816C57.6998 40.56 58.0278 40.216 58.2678 39.784C58.5078 39.352 58.6278 38.856 58.6278 38.296V35.536C58.6278 34.736 58.4518 34.16 58.0998 33.808C57.7478 33.456 57.1558 33.28 56.3238 33.28C55.6678 33.28 54.9958 33.384 54.3078 33.592C53.6198 33.784 52.9238 34.088 52.2198 34.504L51.3558 32.464C51.7718 32.176 52.2598 31.928 52.8198 31.72C53.3958 31.496 53.9958 31.328 54.6198 31.216C55.2598 31.088 55.8598 31.024 56.4198 31.024C57.5718 31.024 58.5158 31.2 59.2518 31.552C60.0038 31.904 60.5638 32.44 60.9318 33.16C61.2998 33.864 61.4838 34.776 61.4838 35.896V43H58.6758V40.504H58.8678C58.7558 41.064 58.5318 41.552 58.1958 41.968C57.8758 42.368 57.4678 42.68 56.9718 42.904C56.4758 43.128 55.9078 43.24 55.2678 43.24ZM64.5288 43V31.264H67.4568V33.616H67.1928C67.5448 32.768 68.0888 32.128 68.8248 31.696C69.5768 31.248 70.4248 31.024 71.3688 31.024C72.3128 31.024 73.0888 31.2 73.6968 31.552C74.3048 31.904 74.7608 32.44 75.0648 33.16C75.3688 33.864 75.5208 34.76 75.5208 35.848V43H72.5208V35.992C72.5208 35.384 72.4408 34.888 72.2808 34.504C72.1368 34.12 71.9048 33.84 71.5848 33.664C71.2808 33.472 70.8888 33.376 70.4088 33.376C69.8328 33.376 69.3288 33.504 68.8968 33.76C68.4648 34 68.1288 34.352 67.8888 34.816C67.6488 35.264 67.5288 35.792 67.5288 36.4V43H64.5288ZM85.3246 43V26.08H88.3966V33.136H97.1086V26.08H100.181V43H97.1086V35.704H88.3966V43H85.3246ZM107.463 43.24C106.615 43.24 105.855 43.08 105.183 42.76C104.527 42.424 104.007 41.976 103.623 41.416C103.255 40.856 103.071 40.224 103.071 39.52C103.071 38.656 103.295 37.976 103.743 37.48C104.191 36.968 104.919 36.6 105.927 36.376C106.935 36.152 108.287 36.04 109.983 36.04H111.183V37.768H110.007C109.255 37.768 108.623 37.8 108.111 37.864C107.599 37.912 107.183 38 106.863 38.128C106.559 38.24 106.335 38.4 106.191 38.608C106.063 38.816 105.999 39.072 105.999 39.376C105.999 39.904 106.183 40.336 106.551 40.672C106.919 41.008 107.431 41.176 108.087 41.176C108.615 41.176 109.079 41.056 109.479 40.816C109.895 40.56 110.223 40.216 110.463 39.784C110.703 39.352 110.823 38.856 110.823 38.296V35.536C110.823 34.736 110.647 34.16 110.295 33.808C109.943 33.456 109.351 33.28 108.519 33.28C107.863 33.28 107.191 33.384 106.503 33.592C105.815 33.784 105.119 34.088 104.415 34.504L103.551 32.464C103.967 32.176 104.455 31.928 105.015 31.72C105.591 31.496 106.191 31.328 106.815 31.216C107.455 31.088 108.055 31.024 108.615 31.024C109.767 31.024 110.711 31.2 111.447 31.552C112.199 31.904 112.759 32.44 113.127 33.16C113.495 33.864 113.679 34.776 113.679 35.896V43H110.871V40.504H111.063C110.951 41.064 110.727 41.552 110.391 41.968C110.071 42.368 109.663 42.68 109.167 42.904C108.671 43.128 108.103 43.24 107.463 43.24ZM121.02 43.24C120.364 43.24 119.724 43.184 119.1 43.072C118.492 42.96 117.932 42.808 117.42 42.616C116.908 42.408 116.46 42.152 116.076 41.848L116.844 39.88C117.244 40.136 117.676 40.36 118.14 40.552C118.604 40.744 119.084 40.888 119.58 40.984C120.076 41.08 120.564 41.128 121.044 41.128C121.812 41.128 122.38 41 122.748 40.744C123.132 40.472 123.324 40.12 123.324 39.688C123.324 39.32 123.196 39.04 122.94 38.848C122.7 38.64 122.332 38.488 121.836 38.392L119.436 37.936C118.444 37.744 117.684 37.384 117.156 36.856C116.644 36.312 116.388 35.616 116.388 34.768C116.388 34 116.596 33.336 117.012 32.776C117.444 32.216 118.036 31.784 118.788 31.48C119.54 31.176 120.404 31.024 121.38 31.024C121.94 31.024 122.484 31.08 123.012 31.192C123.54 31.288 124.036 31.44 124.5 31.648C124.98 31.84 125.396 32.096 125.748 32.416L124.932 34.384C124.628 34.128 124.276 33.912 123.876 33.736C123.476 33.544 123.06 33.4 122.628 33.304C122.212 33.192 121.804 33.136 121.404 33.136C120.62 33.136 120.036 33.272 119.652 33.544C119.284 33.816 119.1 34.176 119.1 34.624C119.1 34.96 119.212 35.24 119.436 35.464C119.66 35.688 120.004 35.84 120.468 35.92L122.868 36.376C123.908 36.568 124.692 36.92 125.22 37.432C125.764 37.944 126.036 38.632 126.036 39.496C126.036 40.28 125.828 40.952 125.412 41.512C124.996 42.072 124.412 42.504 123.66 42.808C122.908 43.096 122.028 43.24 121.02 43.24ZM128.443 43V26.08H131.443V33.616H131.107C131.459 32.768 132.003 32.128 132.739 31.696C133.491 31.248 134.339 31.024 135.283 31.024C136.227 31.024 137.003 31.2 137.611 31.552C138.219 31.904 138.675 32.44 138.979 33.16C139.283 33.864 139.435 34.76 139.435 35.848V43H136.435V35.992C136.435 35.384 136.355 34.888 136.195 34.504C136.051 34.12 135.819 33.84 135.499 33.664C135.195 33.472 134.803 33.376 134.323 33.376C133.747 33.376 133.243 33.504 132.811 33.76C132.379 34 132.043 34.352 131.803 34.816C131.563 35.264 131.443 35.792 131.443 36.4V43H128.443ZM149.239 43V26.08H156.583C158.439 26.08 159.871 26.528 160.879 27.424C161.887 28.304 162.391 29.544 162.391 31.144C162.391 32.184 162.159 33.08 161.695 33.832C161.247 34.584 160.591 35.16 159.727 35.56C158.863 35.96 157.815 36.16 156.583 36.16L156.799 35.8H157.591C158.247 35.8 158.815 35.96 159.295 36.28C159.791 36.6 160.223 37.104 160.591 37.792L163.423 43H160.039L157.111 37.6C156.919 37.248 156.703 36.976 156.463 36.784C156.223 36.576 155.951 36.432 155.647 36.352C155.343 36.272 154.991 36.232 154.591 36.232H152.311V43H149.239ZM152.311 33.952H156.055C157.159 33.952 157.991 33.728 158.551 33.28C159.127 32.816 159.415 32.128 159.415 31.216C159.415 30.32 159.127 29.648 158.551 29.2C157.991 28.736 157.159 28.504 156.055 28.504H152.311V33.952ZM169.151 43.24C168.303 43.24 167.543 43.08 166.871 42.76C166.215 42.424 165.695 41.976 165.311 41.416C164.943 40.856 164.759 40.224 164.759 39.52C164.759 38.656 164.983 37.976 165.431 37.48C165.879 36.968 166.607 36.6 167.615 36.376C168.623 36.152 169.975 36.04 171.671 36.04H172.871V37.768H171.695C170.943 37.768 170.311 37.8 169.799 37.864C169.287 37.912 168.871 38 168.551 38.128C168.247 38.24 168.023 38.4 167.879 38.608C167.751 38.816 167.687 39.072 167.687 39.376C167.687 39.904 167.871 40.336 168.239 40.672C168.607 41.008 169.119 41.176 169.775 41.176C170.303 41.176 170.767 41.056 171.167 40.816C171.583 40.56 171.911 40.216 172.151 39.784C172.391 39.352 172.511 38.856 172.511 38.296V35.536C172.511 34.736 172.335 34.16 171.983 33.808C171.631 33.456 171.039 33.28 170.207 33.28C169.551 33.28 168.879 33.384 168.191 33.592C167.503 33.784 166.807 34.088 166.103 34.504L165.239 32.464C165.655 32.176 166.143 31.928 166.703 31.72C167.279 31.496 167.879 31.328 168.503 31.216C169.143 31.088 169.743 31.024 170.303 31.024C171.455 31.024 172.399 31.2 173.135 31.552C173.887 31.904 174.447 32.44 174.815 33.16C175.183 33.864 175.367 34.776 175.367 35.896V43H172.559V40.504H172.751C172.639 41.064 172.415 41.552 172.079 41.968C171.759 42.368 171.351 42.68 170.855 42.904C170.359 43.128 169.791 43.24 169.151 43.24ZM183.788 43.24C182.22 43.24 181.052 42.848 180.284 42.064C179.516 41.28 179.132 40.136 179.132 38.632V33.52H176.876V31.264H179.132V27.76H182.132V31.264H185.684V33.52H182.132V38.464C182.132 39.232 182.3 39.808 182.636 40.192C182.972 40.576 183.516 40.768 184.268 40.768C184.492 40.768 184.724 40.744 184.964 40.696C185.204 40.632 185.452 40.568 185.708 40.504L186.164 42.712C185.876 42.872 185.508 43 185.06 43.096C184.628 43.192 184.204 43.24 183.788 43.24ZM193.289 43.24C191.961 43.24 190.817 42.992 189.857 42.496C188.897 42 188.153 41.296 187.625 40.384C187.113 39.472 186.857 38.392 186.857 37.144C186.857 35.928 187.105 34.864 187.601 33.952C188.113 33.04 188.809 32.328 189.689 31.816C190.585 31.288 191.601 31.024 192.737 31.024C193.857 31.024 194.817 31.264 195.617 31.744C196.417 32.224 197.033 32.904 197.465 33.784C197.913 34.664 198.137 35.712 198.137 36.928V37.816H189.281V36.088H196.025L195.641 36.448C195.641 35.36 195.401 34.528 194.921 33.952C194.441 33.36 193.753 33.064 192.857 33.064C192.185 33.064 191.609 33.224 191.129 33.544C190.665 33.848 190.305 34.288 190.049 34.864C189.809 35.424 189.689 36.096 189.689 36.88V37.048C189.689 37.928 189.825 38.656 190.097 39.232C190.369 39.808 190.777 40.24 191.321 40.528C191.865 40.816 192.537 40.96 193.337 40.96C193.993 40.96 194.649 40.864 195.305 40.672C195.961 40.464 196.561 40.144 197.105 39.712L197.945 41.728C197.385 42.192 196.681 42.56 195.833 42.832C194.985 43.104 194.137 43.24 193.289 43.24ZM211.134 47.68C209.95 45.92 209.102 44.128 208.59 42.304C208.078 40.464 207.822 38.592 207.822 36.688C207.822 34.768 208.078 32.896 208.59 31.072C209.102 29.248 209.95 27.456 211.134 25.696L213.174 26.512C212.678 27.728 212.27 28.896 211.95 30.016C211.63 31.12 211.398 32.216 211.254 33.304C211.11 34.392 211.038 35.52 211.038 36.688C211.038 37.84 211.11 38.968 211.254 40.072C211.398 41.16 211.63 42.256 211.95 43.36C212.27 44.464 212.678 45.632 213.174 46.864L211.134 47.68ZM216.087 43L224.271 27.592V28.648H215.343V26.08H227.127V28.384L219.471 43H216.087ZM234.486 43.24C233.462 43.24 232.558 42.992 231.774 42.496C231.006 42 230.406 41.296 229.974 40.384C229.542 39.456 229.326 38.368 229.326 37.12C229.326 35.856 229.542 34.776 229.974 33.88C230.406 32.968 231.006 32.264 231.774 31.768C232.558 31.272 233.462 31.024 234.486 31.024C235.462 31.024 236.31 31.264 237.03 31.744C237.766 32.224 238.262 32.856 238.518 33.64H238.254V26.08H241.254V43H238.326V40.504H238.542C238.302 41.336 237.814 42 237.078 42.496C236.342 42.992 235.478 43.24 234.486 43.24ZM235.326 40.96C236.222 40.96 236.942 40.64 237.486 40C238.03 39.344 238.302 38.384 238.302 37.12C238.302 35.84 238.03 34.888 237.486 34.264C236.942 33.624 236.222 33.304 235.326 33.304C234.43 33.304 233.71 33.624 233.166 34.264C232.622 34.888 232.35 35.84 232.35 37.12C232.35 38.384 232.622 39.344 233.166 40C233.71 40.64 234.43 40.96 235.326 40.96ZM256.953 43.24C256.073 43.24 255.225 43.16 254.409 43C253.609 42.856 252.865 42.64 252.177 42.352C251.505 42.064 250.905 41.72 250.377 41.32L251.313 38.896C251.841 39.264 252.393 39.584 252.969 39.856C253.561 40.112 254.185 40.312 254.841 40.456C255.513 40.584 256.217 40.648 256.953 40.648C258.217 40.648 259.137 40.44 259.713 40.024C260.289 39.592 260.577 39.04 260.577 38.368C260.577 38 260.489 37.688 260.313 37.432C260.137 37.16 259.849 36.928 259.449 36.736C259.049 36.544 258.521 36.384 257.865 36.256L255.225 35.704C253.705 35.384 252.569 34.848 251.817 34.096C251.081 33.328 250.713 32.32 250.713 31.072C250.713 30.016 250.993 29.096 251.553 28.312C252.113 27.528 252.889 26.92 253.881 26.488C254.873 26.056 256.017 25.84 257.313 25.84C258.081 25.84 258.817 25.92 259.521 26.08C260.241 26.224 260.897 26.448 261.489 26.752C262.097 27.04 262.625 27.392 263.073 27.808L262.137 30.112C261.465 29.552 260.729 29.136 259.929 28.864C259.129 28.576 258.249 28.432 257.289 28.432C256.553 28.432 255.921 28.536 255.393 28.744C254.865 28.952 254.457 29.248 254.169 29.632C253.897 30 253.761 30.44 253.761 30.952C253.761 31.528 253.953 31.992 254.337 32.344C254.721 32.68 255.377 32.944 256.305 33.136L258.921 33.688C260.505 34.024 261.681 34.552 262.449 35.272C263.233 35.992 263.625 36.952 263.625 38.152C263.625 39.16 263.353 40.048 262.809 40.816C262.265 41.584 261.489 42.184 260.481 42.616C259.489 43.032 258.313 43.24 256.953 43.24ZM266.31 43V26.08H268.878L275.262 37.864H274.494L280.854 26.08H283.374V43H280.59V30.64H281.118L275.742 40.432H273.942L268.518 30.616H269.094V43H266.31ZM285.274 43L292.93 26.08H295.45L303.106 43H299.986L297.946 38.248L299.242 39.088H289.114L290.41 38.248L288.394 43H285.274ZM294.154 29.416L290.794 37.408L290.17 36.64H298.186L297.586 37.408L294.202 29.416H294.154ZM305.989 47.68L303.949 46.864C304.445 45.616 304.845 44.432 305.149 43.312C305.469 42.208 305.701 41.12 305.845 40.048C306.005 38.96 306.085 37.84 306.085 36.688C306.085 35.536 306.005 34.424 305.845 33.352C305.701 32.264 305.469 31.16 305.149 30.04C304.845 28.92 304.445 27.744 303.949 26.512L305.989 25.696C307.173 27.456 308.021 29.256 308.533 31.096C309.045 32.92 309.301 34.784 309.301 36.688C309.301 38.592 309.045 40.464 308.533 42.304C308.021 44.128 307.173 45.92 305.989 47.68Z" fill="white"/>
<rect y="60" width="528" height="1" fill="#313338"/>
<rect x="453" y="76" width="59" height="32" rx="4" fill="#23252D"/>
<path d="M476 83.6665V85.3332M466 83.6665V85.3332" stroke="#808283" stroke-linecap="round" stroke-linejoin="round"/>
<path d="M470.998 92.8335H471.005M470.998 96.1668H471.005M474.327 92.8335H474.335M467.668 92.8335H467.675M467.668 96.1668H467.675" stroke="#808283" stroke-width="1.5" stroke-linecap="round" stroke-linejoin="round"/>
<path d="M463.918 88.6665H478.085" stroke="#808283" stroke-linecap="round" stroke-linejoin="round"/>
<path d="M463.082 92.2027C463.082 88.5716 463.082 86.7561 464.125 85.628C465.169 84.5 466.848 84.5 470.207 84.5H471.79C475.149 84.5 476.829 84.5 477.872 85.628C478.915 86.7561 478.915 88.5716 478.915 92.2027V92.6307C478.915 96.2618 478.915 98.0773 477.872 99.2053C476.829 100.333 475.149 100.333 471.79 100.333H470.207C466.848 100.333 465.169 100.333 464.125 99.2053C463.082 98.0773 463.082 96.2618 463.082 92.6307V92.2027Z" stroke="#808283" stroke-linecap="round" stroke-linejoin="round"/>
<path d="M463.5 88.6665H478.5" stroke="#808283" stroke-linecap="round" stroke-linejoin="round"/>
<path d="M492.672 96.12C492.304 96.12 491.94 96.08 491.58 96C491.228 95.92 490.896 95.808 490.584 95.664C490.28 95.52 490.016 95.352 489.792 95.16L490.296 93.984C490.664 94.264 491.044 94.476 491.436 94.62C491.828 94.756 492.232 94.824 492.648 94.824C493.152 94.824 493.544 94.696 493.824 94.44C494.112 94.176 494.256 93.824 494.256 93.384C494.256 92.936 494.12 92.576 493.848 92.304C493.576 92.024 493.204 91.884 492.732 91.884C492.388 91.884 492.08 91.952 491.808 92.088C491.536 92.216 491.288 92.416 491.064 92.688H490.032V87.54H495.228V88.812H491.532V91.5H491.136C491.344 91.22 491.616 91.004 491.952 90.852C492.296 90.7 492.676 90.624 493.092 90.624C493.628 90.624 494.092 90.74 494.484 90.972C494.884 91.196 495.192 91.512 495.408 91.92C495.632 92.32 495.744 92.788 495.744 93.324C495.744 93.876 495.62 94.364 495.372 94.788C495.124 95.204 494.768 95.532 494.304 95.772C493.848 96.004 493.304 96.12 492.672 96.12ZM499.135 96V91.644L499.459 92.568L495.883 87.54H497.671L500.095 90.984H499.759L502.195 87.54H503.911L500.359 92.568L500.671 91.644V96H499.135Z" fill="#808283"/>
<rect x="188.5" y="380" width="6" height="6" rx="3" fill="#FFA800"/>
<path d="M199.424 387V378.54H200.96V382.068H205.316V378.54H206.852V387H205.316V383.352H200.96V387H199.424ZM207.793 387L211.621 378.54H212.881L216.709 387H215.149L214.129 384.624L214.777 385.044H209.713L210.361 384.624L209.353 387H207.793ZM212.233 380.208L210.553 384.204L210.241 383.82H214.249L213.949 384.204L212.257 380.208H212.233ZM220.457 387.12C220.017 387.12 219.593 387.08 219.185 387C218.785 386.928 218.413 386.82 218.069 386.676C217.733 386.532 217.433 386.36 217.169 386.16L217.637 384.948C217.901 385.132 218.177 385.292 218.465 385.428C218.761 385.556 219.073 385.656 219.401 385.728C219.737 385.792 220.089 385.824 220.457 385.824C221.089 385.824 221.549 385.72 221.837 385.512C222.125 385.296 222.269 385.02 222.269 384.684C222.269 384.5 222.225 384.344 222.137 384.216C222.049 384.08 221.905 383.964 221.705 383.868C221.505 383.772 221.241 383.692 220.913 383.628L219.593 383.352C218.833 383.192 218.265 382.924 217.889 382.548C217.521 382.164 217.337 381.66 217.337 381.036C217.337 380.508 217.477 380.048 217.757 379.656C218.037 379.264 218.425 378.96 218.921 378.744C219.417 378.528 219.989 378.42 220.637 378.42C221.021 378.42 221.389 378.46 221.741 378.54C222.101 378.612 222.429 378.724 222.725 378.876C223.029 379.02 223.293 379.196 223.517 379.404L223.049 380.556C222.713 380.276 222.345 380.068 221.945 379.932C221.545 379.788 221.105 379.716 220.625 379.716C220.257 379.716 219.941 379.768 219.677 379.872C219.413 379.976 219.209 380.124 219.065 380.316C218.929 380.5 218.861 380.72 218.861 380.976C218.861 381.264 218.957 381.496 219.149 381.672C219.341 381.84 219.669 381.972 220.133 382.068L221.441 382.344C222.233 382.512 222.821 382.776 223.205 383.136C223.597 383.496 223.793 383.976 223.793 384.576C223.793 385.08 223.657 385.524 223.385 385.908C223.113 386.292 222.725 386.592 222.221 386.808C221.725 387.016 221.137 387.12 220.457 387.12ZM225.112 387V378.54H226.648V382.068H231.004V378.54H232.54V387H231.004V383.352H226.648V387H225.112ZM237.627 387V378.54H241.299C242.227 378.54 242.943 378.764 243.447 379.212C243.951 379.652 244.203 380.272 244.203 381.072C244.203 381.592 244.087 382.04 243.855 382.416C243.631 382.792 243.303 383.08 242.871 383.28C242.439 383.48 241.915 383.58 241.299 383.58L241.407 383.4H241.803C242.131 383.4 242.415 383.48 242.655 383.64C242.903 383.8 243.119 384.052 243.303 384.396L244.719 387H243.027L241.563 384.3C241.467 384.124 241.359 383.988 241.239 383.892C241.119 383.788 240.983 383.716 240.831 383.676C240.679 383.636 240.503 383.616 240.303 383.616H239.163V387H237.627ZM239.163 382.476H241.035C241.587 382.476 242.003 382.364 242.283 382.14C242.571 381.908 242.715 381.564 242.715 381.108C242.715 380.66 242.571 380.324 242.283 380.1C242.003 379.868 241.587 379.752 241.035 379.752H239.163V382.476ZM244.789 387L248.617 378.54H249.877L253.705 387H252.145L251.125 384.624L251.773 385.044H246.709L247.357 384.624L246.349 387H244.789ZM249.229 380.208L247.549 384.204L247.237 383.82H251.245L250.945 384.204L249.253 380.208H249.229ZM255.734 387V379.824H252.83V378.54H260.174V379.824H257.27V387H255.734ZM261.147 387V378.54H266.775V379.764H262.623V382.092H266.511V383.316H262.623V385.776H266.775V387H261.147Z" fill="#808283"/>
<rect x="275.5" y="380" width="6" height="6" rx="3" fill="#A06AFF"/>
<path d="M286.424 387V378.54H290.096C290.72 378.54 291.248 378.644 291.68 378.852C292.112 379.06 292.44 379.36 292.664 379.752C292.888 380.144 293 380.62 293 381.18C293 381.732 292.888 382.208 292.664 382.608C292.44 383 292.112 383.304 291.68 383.52C291.248 383.728 290.72 383.832 290.096 383.832H287.96V387H286.424ZM287.96 382.62H289.856C290.4 382.62 290.812 382.5 291.092 382.26C291.372 382.012 291.512 381.652 291.512 381.18C291.512 380.708 291.372 380.352 291.092 380.112C290.812 379.872 290.4 379.752 289.856 379.752H287.96V382.62ZM294.252 387V378.54H297.924C298.852 378.54 299.568 378.764 300.072 379.212C300.576 379.652 300.828 380.272 300.828 381.072C300.828 381.592 300.712 382.04 300.48 382.416C300.256 382.792 299.928 383.08 299.496 383.28C299.064 383.48 298.54 383.58 297.924 383.58L298.032 383.4H298.428C298.756 383.4 299.04 383.48 299.28 383.64C299.528 383.8 299.744 384.052 299.928 384.396L301.344 387H299.652L298.188 384.3C298.092 384.124 297.984 383.988 297.864 383.892C297.744 383.788 297.608 383.716 297.456 383.676C297.304 383.636 297.128 383.616 296.928 383.616H295.788V387H294.252ZM295.788 382.476H297.66C298.212 382.476 298.628 382.364 298.908 382.14C299.196 381.908 299.34 381.564 299.34 381.108C299.34 380.66 299.196 380.324 298.908 380.1C298.628 379.868 298.212 379.752 297.66 379.752H295.788V382.476ZM302.479 387V378.54H304.015V387H302.479ZM309.79 387.12C308.91 387.12 308.154 386.944 307.522 386.592C306.898 386.232 306.418 385.728 306.082 385.08C305.746 384.424 305.578 383.652 305.578 382.764C305.578 381.876 305.746 381.108 306.082 380.46C306.418 379.812 306.898 379.312 307.522 378.96C308.154 378.6 308.91 378.42 309.79 378.42C310.358 378.42 310.894 378.508 311.398 378.684C311.91 378.86 312.33 379.112 312.658 379.44L312.154 380.664C311.794 380.36 311.426 380.14 311.05 380.004C310.674 379.86 310.27 379.788 309.838 379.788C308.982 379.788 308.33 380.048 307.882 380.568C307.434 381.08 307.21 381.812 307.21 382.764C307.21 383.716 307.434 384.452 307.882 384.972C308.33 385.492 308.982 385.752 309.838 385.752C310.27 385.752 310.674 385.684 311.05 385.548C311.426 385.404 311.794 385.18 312.154 384.876L312.658 386.1C312.33 386.42 311.91 386.672 311.398 386.856C310.894 387.032 310.358 387.12 309.79 387.12ZM313.998 387V378.54H319.626V379.764H315.474V382.092H319.362V383.316H315.474V385.776H319.626V387H313.998ZM326.325 389.34C325.733 388.46 325.309 387.564 325.053 386.652C324.797 385.732 324.669 384.796 324.669 383.844C324.669 382.884 324.797 381.948 325.053 381.036C325.309 380.124 325.733 379.228 326.325 378.348L327.345 378.756C327.097 379.364 326.893 379.948 326.733 380.508C326.573 381.06 326.457 381.608 326.385 382.152C326.313 382.696 326.277 383.26 326.277 383.844C326.277 384.42 326.313 384.984 326.385 385.536C326.457 386.08 326.573 386.628 326.733 387.18C326.893 387.732 327.097 388.316 327.345 388.932L326.325 389.34ZM330.89 388.38V386.808L331.166 387.072C330.582 387.056 330.03 386.968 329.51 386.808C328.998 386.64 328.554 386.408 328.178 386.112L328.646 384.9C328.894 385.084 329.158 385.244 329.438 385.38C329.726 385.508 330.026 385.608 330.338 385.68C330.658 385.744 330.998 385.776 331.358 385.776C331.942 385.776 332.37 385.672 332.642 385.464C332.914 385.256 333.05 384.996 333.05 384.684C333.05 384.404 332.958 384.18 332.774 384.012C332.59 383.844 332.262 383.708 331.79 383.604L330.518 383.328C329.798 383.168 329.254 382.904 328.886 382.536C328.526 382.16 328.346 381.664 328.346 381.048C328.346 380.576 328.462 380.156 328.694 379.788C328.926 379.412 329.25 379.112 329.666 378.888C330.082 378.664 330.57 378.532 331.13 378.492L330.89 378.672V377.16H332.09V378.672L331.838 378.48C332.294 378.504 332.742 378.596 333.182 378.756C333.63 378.916 334.002 379.148 334.298 379.452L333.842 380.604C333.538 380.324 333.19 380.116 332.798 379.98C332.406 379.836 331.978 379.764 331.514 379.764C331.018 379.764 330.618 379.88 330.314 380.112C330.018 380.336 329.87 380.632 329.87 381C329.87 381.272 329.962 381.492 330.146 381.66C330.33 381.828 330.626 381.956 331.034 382.044L332.306 382.32C333.074 382.488 333.642 382.756 334.01 383.124C334.386 383.484 334.574 383.964 334.574 384.564C334.574 385.028 334.458 385.44 334.226 385.8C333.994 386.152 333.674 386.436 333.266 386.652C332.866 386.86 332.398 386.992 331.862 387.048L332.09 386.796V388.38H330.89ZM336.405 389.34L335.385 388.932C335.633 388.308 335.833 387.716 335.985 387.156C336.145 386.604 336.261 386.06 336.333 385.524C336.413 384.98 336.453 384.42 336.453 383.844C336.453 383.268 336.413 382.712 336.333 382.176C336.261 381.632 336.145 381.08 335.985 380.52C335.833 379.96 335.633 379.372 335.385 378.756L336.405 378.348C336.997 379.228 337.421 380.128 337.677 381.048C337.933 381.96 338.061 382.892 338.061 383.844C338.061 384.796 337.933 385.732 337.677 386.652C337.421 387.564 336.997 388.46 336.405 389.34Z" fill="#808283"/>
<rect x="48" y="131.5" width="414" height="1" fill="#23252D"/>
<path d="M490.311 137.38V135.808L490.587 136.072C490.003 136.056 489.451 135.968 488.931 135.808C488.419 135.64 487.975 135.408 487.599 135.112L488.067 133.9C488.315 134.084 488.579 134.244 488.859 134.38C489.147 134.508 489.447 134.608 489.759 134.68C490.079 134.744 490.419 134.776 490.779 134.776C491.363 134.776 491.791 134.672 492.063 134.464C492.335 134.256 492.471 133.996 492.471 133.684C492.471 133.404 492.379 133.18 492.195 133.012C492.011 132.844 491.683 132.708 491.211 132.604L489.939 132.328C489.219 132.168 488.675 131.904 488.307 131.536C487.947 131.16 487.767 130.664 487.767 130.048C487.767 129.576 487.883 129.156 488.115 128.788C488.347 128.412 488.671 128.112 489.087 127.888C489.503 127.664 489.991 127.532 490.551 127.492L490.311 127.672V126.16H491.511V127.672L491.259 127.48C491.715 127.504 492.163 127.596 492.603 127.756C493.051 127.916 493.423 128.148 493.719 128.452L493.263 129.604C492.959 129.324 492.611 129.116 492.219 128.98C491.827 128.836 491.399 128.764 490.935 128.764C490.439 128.764 490.039 128.88 489.735 129.112C489.439 129.336 489.291 129.632 489.291 130C489.291 130.272 489.383 130.492 489.567 130.66C489.751 130.828 490.047 130.956 490.455 131.044L491.727 131.32C492.495 131.488 493.063 131.756 493.431 132.124C493.807 132.484 493.995 132.964 493.995 133.564C493.995 134.028 493.879 134.44 493.647 134.8C493.415 135.152 493.095 135.436 492.687 135.652C492.287 135.86 491.819 135.992 491.283 136.048L491.511 135.796V137.38H490.311ZM495.695 136V134.728H497.603V128.836H498.347L496.127 130.18L495.527 129.052L498.047 127.54H499.139V134.728H500.927V136H495.695ZM502.53 136V127.54H503.814L507.006 133.432H506.622L509.802 127.54H511.062V136H509.67V129.82H509.934L507.246 134.716H506.346L503.634 129.808H503.922V136H502.53Z" fill="#808283"/>
<rect x="48" y="165.333" width="414" height="1" fill="#23252D"/>
<rect x="48" y="199.167" width="414" height="1" fill="#23252D"/>
<rect x="48" y="233" width="414" height="1" fill="#23252D"/>
<path d="M478.37 238.88V237.308L478.646 237.572C478.062 237.556 477.51 237.468 476.99 237.308C476.478 237.14 476.034 236.908 475.658 236.612L476.126 235.4C476.374 235.584 476.638 235.744 476.918 235.88C477.206 236.008 477.506 236.108 477.818 236.18C478.138 236.244 478.478 236.276 478.838 236.276C479.422 236.276 479.85 236.172 480.122 235.964C480.394 235.756 480.53 235.496 480.53 235.184C480.53 234.904 480.438 234.68 480.254 234.512C480.07 234.344 479.742 234.208 479.27 234.104L477.998 233.828C477.278 233.668 476.734 233.404 476.366 233.036C476.006 232.66 475.826 232.164 475.826 231.548C475.826 231.076 475.942 230.656 476.174 230.288C476.406 229.912 476.73 229.612 477.146 229.388C477.562 229.164 478.05 229.032 478.61 228.992L478.37 229.172V227.66H479.57V229.172L479.318 228.98C479.774 229.004 480.222 229.096 480.662 229.256C481.11 229.416 481.482 229.648 481.778 229.952L481.322 231.104C481.018 230.824 480.67 230.616 480.278 230.48C479.886 230.336 479.458 230.264 478.994 230.264C478.498 230.264 478.098 230.38 477.794 230.612C477.498 230.836 477.35 231.132 477.35 231.5C477.35 231.772 477.442 231.992 477.626 232.16C477.81 232.328 478.106 232.456 478.514 232.544L479.786 232.82C480.554 232.988 481.122 233.256 481.49 233.624C481.866 233.984 482.054 234.464 482.054 235.064C482.054 235.528 481.938 235.94 481.706 236.3C481.474 236.652 481.154 236.936 480.746 237.152C480.346 237.36 479.878 237.492 479.342 237.548L479.57 237.296V238.88H478.37ZM483.753 237.5V236.228H485.661V230.336H486.405L484.185 231.68L483.585 230.552L486.105 229.04H487.197V236.228H488.985V237.5H483.753ZM493.241 237.62C492.577 237.62 492.013 237.452 491.549 237.116C491.093 236.772 490.745 236.276 490.505 235.628C490.273 234.98 490.157 234.188 490.157 233.252C490.157 232.308 490.273 231.516 490.505 230.876C490.745 230.228 491.093 229.74 491.549 229.412C492.013 229.084 492.577 228.92 493.241 228.92C493.913 228.92 494.477 229.084 494.933 229.412C495.397 229.74 495.745 230.224 495.977 230.864C496.209 231.504 496.325 232.296 496.325 233.24C496.325 234.176 496.205 234.972 495.965 235.628C495.733 236.276 495.389 236.772 494.933 237.116C494.477 237.452 493.913 237.62 493.241 237.62ZM493.241 236.36C493.785 236.36 494.185 236.112 494.441 235.616C494.705 235.112 494.837 234.32 494.837 233.24C494.837 232.168 494.705 231.392 494.441 230.912C494.185 230.424 493.785 230.18 493.241 230.18C492.705 230.18 492.305 230.424 492.041 230.912C491.777 231.392 491.645 232.172 491.645 233.252C491.645 234.324 491.777 235.112 492.041 235.616C492.305 236.112 492.705 236.36 493.241 236.36ZM500.436 237.62C499.772 237.62 499.208 237.452 498.744 237.116C498.288 236.772 497.94 236.276 497.7 235.628C497.468 234.98 497.352 234.188 497.352 233.252C497.352 232.308 497.468 231.516 497.7 230.876C497.94 230.228 498.288 229.74 498.744 229.412C499.208 229.084 499.772 228.92 500.436 228.92C501.108 228.92 501.672 229.084 502.128 229.412C502.592 229.74 502.94 230.224 503.172 230.864C503.404 231.504 503.52 232.296 503.52 233.24C503.52 234.176 503.4 234.972 503.16 235.628C502.928 236.276 502.584 236.772 502.128 237.116C501.672 237.452 501.108 237.62 500.436 237.62ZM500.436 236.36C500.98 236.36 501.38 236.112 501.636 235.616C501.9 235.112 502.032 234.32 502.032 233.24C502.032 232.168 501.9 231.392 501.636 230.912C501.38 230.424 500.98 230.18 500.436 230.18C499.9 230.18 499.5 230.424 499.236 230.912C498.972 231.392 498.84 232.172 498.84 233.252C498.84 234.324 498.972 235.112 499.236 235.616C499.5 236.112 499.9 236.36 500.436 236.36ZM504.955 237.5V229.04H506.491V232.784H506.515L510.247 229.04H512.119L507.655 233.456L507.667 232.76L512.323 237.5H510.427L506.515 233.588H506.491V237.5H504.955Z" fill="#808283"/>
<rect x="48" y="266.833" width="414" height="1" fill="#23252D"/>
<rect x="48" y="300.667" width="414" height="1" fill="#23252D"/>
<rect x="48" y="334.5" width="414" height="1" fill="#313338"/>
<path d="M508.405 339.12C507.741 339.12 507.177 338.952 506.713 338.616C506.257 338.272 505.909 337.776 505.669 337.128C505.437 336.48 505.321 335.688 505.321 334.752C505.321 333.808 505.437 333.016 505.669 332.376C505.909 331.728 506.257 331.24 506.713 330.912C507.177 330.584 507.741 330.42 508.405 330.42C509.077 330.42 509.641 330.584 510.097 330.912C510.561 331.24 510.909 331.724 511.141 332.364C511.373 333.004 511.489 333.796 511.489 334.74C511.489 335.676 511.369 336.472 511.129 337.128C510.897 337.776 510.553 338.272 510.097 338.616C509.641 338.952 509.077 339.12 508.405 339.12ZM508.405 337.86C508.949 337.86 509.349 337.612 509.605 337.116C509.869 336.612 510.001 335.82 510.001 334.74C510.001 333.668 509.869 332.892 509.605 332.412C509.349 331.924 508.949 331.68 508.405 331.68C507.869 331.68 507.469 331.924 507.205 332.412C506.941 332.892 506.809 333.672 506.809 334.752C506.809 335.824 506.941 336.612 507.205 337.116C507.469 337.612 507.869 337.86 508.405 337.86Z" fill="#808283"/>
<rect x="84.8984" y="335" width="1" height="8" fill="#313338"/>
<path d="M71.9694 355V353.86L74.7054 350.944C74.9534 350.68 75.1494 350.436 75.2934 350.212C75.4454 349.988 75.5574 349.772 75.6294 349.564C75.7014 349.356 75.7374 349.148 75.7374 348.94C75.7374 348.54 75.6094 348.236 75.3534 348.028C75.1054 347.82 74.7414 347.716 74.2614 347.716C73.8854 347.716 73.5174 347.788 73.1574 347.932C72.8054 348.068 72.4654 348.284 72.1374 348.58L71.6214 347.428C71.9574 347.124 72.3774 346.88 72.8814 346.696C73.3854 346.512 73.9094 346.42 74.4534 346.42C75.0614 346.42 75.5734 346.512 75.9894 346.696C76.4054 346.88 76.7214 347.148 76.9374 347.5C77.1534 347.852 77.2614 348.28 77.2614 348.784C77.2614 349.04 77.2294 349.292 77.1654 349.54C77.1094 349.78 77.0174 350.02 76.8894 350.26C76.7694 350.5 76.6134 350.748 76.4214 351.004C76.2374 351.252 76.0134 351.512 75.7494 351.784L73.4934 354.136V353.728H77.5854V355H71.9694ZM81.8047 355.12C81.1407 355.12 80.5767 354.952 80.1127 354.616C79.6567 354.272 79.3087 353.776 79.0687 353.128C78.8367 352.48 78.7207 351.688 78.7207 350.752C78.7207 349.808 78.8367 349.016 79.0687 348.376C79.3087 347.728 79.6567 347.24 80.1127 346.912C80.5767 346.584 81.1407 346.42 81.8047 346.42C82.4767 346.42 83.0407 346.584 83.4967 346.912C83.9607 347.24 84.3087 347.724 84.5407 348.364C84.7727 349.004 84.8887 349.796 84.8887 350.74C84.8887 351.676 84.7687 352.472 84.5287 353.128C84.2967 353.776 83.9527 354.272 83.4967 354.616C83.0407 354.952 82.4767 355.12 81.8047 355.12ZM81.8047 353.86C82.3487 353.86 82.7487 353.612 83.0047 353.116C83.2687 352.612 83.4007 351.82 83.4007 350.74C83.4007 349.668 83.2687 348.892 83.0047 348.412C82.7487 347.924 82.3487 347.68 81.8047 347.68C81.2687 347.68 80.8687 347.924 80.6047 348.412C80.3407 348.892 80.2087 349.672 80.2087 350.752C80.2087 351.824 80.3407 352.612 80.6047 353.116C80.8687 353.612 81.2687 353.86 81.8047 353.86ZM86.36 355V353.86L89.096 350.944C89.344 350.68 89.54 350.436 89.684 350.212C89.836 349.988 89.948 349.772 90.02 349.564C90.092 349.356 90.128 349.148 90.128 348.94C90.128 348.54 90 348.236 89.744 348.028C89.496 347.82 89.132 347.716 88.652 347.716C88.276 347.716 87.908 347.788 87.548 347.932C87.196 348.068 86.856 348.284 86.528 348.58L86.012 347.428C86.348 347.124 86.768 346.88 87.272 346.696C87.776 346.512 88.3 346.42 88.844 346.42C89.452 346.42 89.964 346.512 90.38 346.696C90.796 346.88 91.112 347.148 91.328 347.5C91.544 347.852 91.652 348.28 91.652 348.784C91.652 349.04 91.62 349.292 91.556 349.54C91.5 349.78 91.408 350.02 91.28 350.26C91.16 350.5 91.004 350.748 90.812 351.004C90.628 351.252 90.404 351.512 90.14 351.784L87.884 354.136V353.728H91.976V355H86.36ZM93.9033 355V353.728H95.8113V347.836H96.5553L94.3353 349.18L93.7353 348.052L96.2553 346.54H97.3473V353.728H99.1353V355H93.9033Z" fill="#808283"/>
<rect x="169.699" y="335" width="1" height="8" fill="#313338"/>
<path d="M156.77 355V353.86L159.506 350.944C159.754 350.68 159.95 350.436 160.094 350.212C160.246 349.988 160.358 349.772 160.43 349.564C160.502 349.356 160.538 349.148 160.538 348.94C160.538 348.54 160.41 348.236 160.154 348.028C159.906 347.82 159.542 347.716 159.062 347.716C158.686 347.716 158.318 347.788 157.958 347.932C157.606 348.068 157.266 348.284 156.938 348.58L156.422 347.428C156.758 347.124 157.178 346.88 157.682 346.696C158.186 346.512 158.71 346.42 159.254 346.42C159.862 346.42 160.374 346.512 160.79 346.696C161.206 346.88 161.522 347.148 161.738 347.5C161.954 347.852 162.062 348.28 162.062 348.784C162.062 349.04 162.03 349.292 161.966 349.54C161.91 349.78 161.818 350.02 161.69 350.26C161.57 350.5 161.414 350.748 161.222 351.004C161.038 351.252 160.814 351.512 160.55 351.784L158.294 354.136V353.728H162.386V355H156.77ZM166.605 355.12C165.941 355.12 165.377 354.952 164.913 354.616C164.457 354.272 164.109 353.776 163.869 353.128C163.637 352.48 163.521 351.688 163.521 350.752C163.521 349.808 163.637 349.016 163.869 348.376C164.109 347.728 164.457 347.24 164.913 346.912C165.377 346.584 165.941 346.42 166.605 346.42C167.277 346.42 167.841 346.584 168.297 346.912C168.761 347.24 169.109 347.724 169.341 348.364C169.573 349.004 169.689 349.796 169.689 350.74C169.689 351.676 169.569 352.472 169.329 353.128C169.097 353.776 168.753 354.272 168.297 354.616C167.841 354.952 167.277 355.12 166.605 355.12ZM166.605 353.86C167.149 353.86 167.549 353.612 167.805 353.116C168.069 352.612 168.201 351.82 168.201 350.74C168.201 349.668 168.069 348.892 167.805 348.412C167.549 347.924 167.149 347.68 166.605 347.68C166.069 347.68 165.669 347.924 165.405 348.412C165.141 348.892 165.009 349.672 165.009 350.752C165.009 351.824 165.141 352.612 165.405 353.116C165.669 353.612 166.069 353.86 166.605 353.86ZM171.161 355V353.86L173.897 350.944C174.145 350.68 174.341 350.436 174.485 350.212C174.637 349.988 174.749 349.772 174.821 349.564C174.893 349.356 174.929 349.148 174.929 348.94C174.929 348.54 174.801 348.236 174.545 348.028C174.297 347.82 173.933 347.716 173.453 347.716C173.077 347.716 172.709 347.788 172.349 347.932C171.997 348.068 171.657 348.284 171.329 348.58L170.813 347.428C171.149 347.124 171.569 346.88 172.073 346.696C172.577 346.512 173.101 346.42 173.645 346.42C174.253 346.42 174.765 346.512 175.181 346.696C175.597 346.88 175.913 347.148 176.129 347.5C176.345 347.852 176.453 348.28 176.453 348.784C176.453 349.04 176.421 349.292 176.357 349.54C176.301 349.78 176.209 350.02 176.081 350.26C175.961 350.5 175.805 350.748 175.613 351.004C175.429 351.252 175.205 351.512 174.941 351.784L172.685 354.136V353.728H176.777V355H171.161ZM178.356 355V353.86L181.092 350.944C181.34 350.68 181.536 350.436 181.68 350.212C181.832 349.988 181.944 349.772 182.016 349.564C182.088 349.356 182.124 349.148 182.124 348.94C182.124 348.54 181.996 348.236 181.74 348.028C181.492 347.82 181.128 347.716 180.648 347.716C180.272 347.716 179.904 347.788 179.544 347.932C179.192 348.068 178.852 348.284 178.524 348.58L178.008 347.428C178.344 347.124 178.764 346.88 179.268 346.696C179.772 346.512 180.296 346.42 180.84 346.42C181.448 346.42 181.96 346.512 182.376 346.696C182.792 346.88 183.108 347.148 183.324 347.5C183.54 347.852 183.648 348.28 183.648 348.784C183.648 349.04 183.616 349.292 183.552 349.54C183.496 349.78 183.404 350.02 183.276 350.26C183.156 350.5 183 350.748 182.808 351.004C182.624 351.252 182.4 351.512 182.136 351.784L179.88 354.136V353.728H183.972V355H178.356Z" fill="#808283"/>
<rect x="254.5" y="335" width="1" height="8" fill="#313338"/>
<path d="M241.571 355V353.86L244.307 350.944C244.555 350.68 244.751 350.436 244.895 350.212C245.047 349.988 245.159 349.772 245.231 349.564C245.303 349.356 245.339 349.148 245.339 348.94C245.339 348.54 245.211 348.236 244.955 348.028C244.707 347.82 244.343 347.716 243.863 347.716C243.487 347.716 243.119 347.788 242.759 347.932C242.407 348.068 242.067 348.284 241.739 348.58L241.223 347.428C241.559 347.124 241.979 346.88 242.483 346.696C242.987 346.512 243.511 346.42 244.055 346.42C244.663 346.42 245.175 346.512 245.591 346.696C246.007 346.88 246.323 347.148 246.539 347.5C246.755 347.852 246.863 348.28 246.863 348.784C246.863 349.04 246.831 349.292 246.767 349.54C246.711 349.78 246.619 350.02 246.491 350.26C246.371 350.5 246.215 350.748 246.023 351.004C245.839 351.252 245.615 351.512 245.351 351.784L243.095 354.136V353.728H247.187V355H241.571ZM251.406 355.12C250.742 355.12 250.178 354.952 249.714 354.616C249.258 354.272 248.91 353.776 248.67 353.128C248.438 352.48 248.322 351.688 248.322 350.752C248.322 349.808 248.438 349.016 248.67 348.376C248.91 347.728 249.258 347.24 249.714 346.912C250.178 346.584 250.742 346.42 251.406 346.42C252.078 346.42 252.642 346.584 253.098 346.912C253.562 347.24 253.91 347.724 254.142 348.364C254.374 349.004 254.49 349.796 254.49 350.74C254.49 351.676 254.37 352.472 254.13 353.128C253.898 353.776 253.554 354.272 253.098 354.616C252.642 354.952 252.078 355.12 251.406 355.12ZM251.406 353.86C251.95 353.86 252.35 353.612 252.606 353.116C252.87 352.612 253.002 351.82 253.002 350.74C253.002 349.668 252.87 348.892 252.606 348.412C252.35 347.924 251.95 347.68 251.406 347.68C250.87 347.68 250.47 347.924 250.206 348.412C249.942 348.892 249.81 349.672 249.81 350.752C249.81 351.824 249.942 352.612 250.206 353.116C250.47 353.612 250.87 353.86 251.406 353.86ZM255.962 355V353.86L258.698 350.944C258.946 350.68 259.142 350.436 259.286 350.212C259.438 349.988 259.55 349.772 259.622 349.564C259.694 349.356 259.73 349.148 259.73 348.94C259.73 348.54 259.602 348.236 259.346 348.028C259.098 347.82 258.734 347.716 258.254 347.716C257.878 347.716 257.51 347.788 257.15 347.932C256.798 348.068 256.458 348.284 256.13 348.58L255.614 347.428C255.95 347.124 256.37 346.88 256.874 346.696C257.378 346.512 257.902 346.42 258.446 346.42C259.054 346.42 259.566 346.512 259.982 346.696C260.398 346.88 260.714 347.148 260.93 347.5C261.146 347.852 261.254 348.28 261.254 348.784C261.254 349.04 261.222 349.292 261.158 349.54C261.102 349.78 261.01 350.02 260.882 350.26C260.762 350.5 260.606 350.748 260.414 351.004C260.23 351.252 260.006 351.512 259.742 351.784L257.486 354.136V353.728H261.578V355H255.962ZM265.629 355.12C265.245 355.12 264.869 355.08 264.501 355C264.141 354.928 263.805 354.82 263.493 354.676C263.181 354.532 262.909 354.36 262.677 354.16L263.181 352.984C263.557 353.272 263.941 353.484 264.333 353.62C264.725 353.756 265.141 353.824 265.581 353.824C265.933 353.824 266.229 353.776 266.469 353.68C266.709 353.584 266.889 353.44 267.009 353.248C267.137 353.056 267.201 352.824 267.201 352.552C267.201 352.152 267.065 351.856 266.793 351.664C266.529 351.464 266.141 351.364 265.629 351.364H264.273V350.092H265.485C265.789 350.092 266.049 350.044 266.265 349.948C266.481 349.844 266.649 349.7 266.769 349.516C266.889 349.332 266.949 349.108 266.949 348.844C266.949 348.476 266.825 348.196 266.577 348.004C266.337 347.812 265.985 347.716 265.521 347.716C265.105 347.716 264.717 347.788 264.357 347.932C263.997 348.068 263.653 348.284 263.325 348.58L262.821 347.428C263.157 347.108 263.577 346.86 264.081 346.684C264.585 346.508 265.109 346.42 265.653 346.42C266.237 346.42 266.737 346.512 267.153 346.696C267.569 346.872 267.885 347.128 268.101 347.464C268.325 347.792 268.437 348.192 268.437 348.664C268.437 349.168 268.297 349.604 268.017 349.972C267.737 350.332 267.353 350.572 266.865 350.692V350.548C267.249 350.612 267.577 350.74 267.849 350.932C268.121 351.124 268.329 351.368 268.473 351.664C268.617 351.96 268.689 352.3 268.689 352.684C268.689 353.18 268.565 353.612 268.317 353.98C268.069 354.348 267.717 354.632 267.261 354.832C266.805 355.024 266.261 355.12 265.629 355.12Z" fill="#808283"/>
<rect x="339.297" y="335" width="1" height="8" fill="#313338"/>
<path d="M326.368 355V353.86L329.104 350.944C329.352 350.68 329.548 350.436 329.692 350.212C329.844 349.988 329.956 349.772 330.028 349.564C330.1 349.356 330.136 349.148 330.136 348.94C330.136 348.54 330.008 348.236 329.752 348.028C329.504 347.82 329.14 347.716 328.66 347.716C328.284 347.716 327.916 347.788 327.556 347.932C327.204 348.068 326.864 348.284 326.536 348.58L326.02 347.428C326.356 347.124 326.776 346.88 327.28 346.696C327.784 346.512 328.308 346.42 328.852 346.42C329.46 346.42 329.972 346.512 330.388 346.696C330.804 346.88 331.12 347.148 331.336 347.5C331.552 347.852 331.66 348.28 331.66 348.784C331.66 349.04 331.628 349.292 331.564 349.54C331.508 349.78 331.416 350.02 331.288 350.26C331.168 350.5 331.012 350.748 330.82 351.004C330.636 351.252 330.412 351.512 330.148 351.784L327.892 354.136V353.728H331.984V355H326.368ZM336.203 355.12C335.539 355.12 334.975 354.952 334.511 354.616C334.055 354.272 333.707 353.776 333.467 353.128C333.235 352.48 333.119 351.688 333.119 350.752C333.119 349.808 333.235 349.016 333.467 348.376C333.707 347.728 334.055 347.24 334.511 346.912C334.975 346.584 335.539 346.42 336.203 346.42C336.875 346.42 337.439 346.584 337.895 346.912C338.359 347.24 338.707 347.724 338.939 348.364C339.171 349.004 339.287 349.796 339.287 350.74C339.287 351.676 339.167 352.472 338.927 353.128C338.695 353.776 338.351 354.272 337.895 354.616C337.439 354.952 336.875 355.12 336.203 355.12ZM336.203 353.86C336.747 353.86 337.147 353.612 337.403 353.116C337.667 352.612 337.799 351.82 337.799 350.74C337.799 349.668 337.667 348.892 337.403 348.412C337.147 347.924 336.747 347.68 336.203 347.68C335.667 347.68 335.267 347.924 335.003 348.412C334.739 348.892 334.607 349.672 334.607 350.752C334.607 351.824 334.739 352.612 335.003 353.116C335.267 353.612 335.667 353.86 336.203 353.86ZM340.758 355V353.86L343.494 350.944C343.742 350.68 343.938 350.436 344.082 350.212C344.234 349.988 344.346 349.772 344.418 349.564C344.49 349.356 344.526 349.148 344.526 348.94C344.526 348.54 344.398 348.236 344.142 348.028C343.894 347.82 343.53 347.716 343.05 347.716C342.674 347.716 342.306 347.788 341.946 347.932C341.594 348.068 341.254 348.284 340.926 348.58L340.41 347.428C340.746 347.124 341.166 346.88 341.67 346.696C342.174 346.512 342.698 346.42 343.242 346.42C343.85 346.42 344.362 346.512 344.778 346.696C345.194 346.88 345.51 347.148 345.726 347.5C345.942 347.852 346.05 348.28 346.05 348.784C346.05 349.04 346.018 349.292 345.954 349.54C345.898 349.78 345.806 350.02 345.678 350.26C345.558 350.5 345.402 350.748 345.21 351.004C345.026 351.252 344.802 351.512 344.538 351.784L342.282 354.136V353.728H346.374V355H340.758ZM351.182 355V353.392H347.498V352.264L351.446 346.54H352.718V352.12H353.906V353.392H352.718V355H351.182ZM351.182 352.12V348.376H351.53L348.698 352.528V352.12H351.182Z" fill="#808283"/>
<rect x="424.098" y="335" width="1" height="8" fill="#313338"/>
<path d="M411.169 355V353.86L413.905 350.944C414.153 350.68 414.349 350.436 414.493 350.212C414.645 349.988 414.757 349.772 414.829 349.564C414.901 349.356 414.937 349.148 414.937 348.94C414.937 348.54 414.809 348.236 414.553 348.028C414.305 347.82 413.941 347.716 413.461 347.716C413.085 347.716 412.717 347.788 412.357 347.932C412.005 348.068 411.665 348.284 411.337 348.58L410.821 347.428C411.157 347.124 411.577 346.88 412.081 346.696C412.585 346.512 413.109 346.42 413.653 346.42C414.261 346.42 414.773 346.512 415.189 346.696C415.605 346.88 415.921 347.148 416.137 347.5C416.353 347.852 416.461 348.28 416.461 348.784C416.461 349.04 416.429 349.292 416.365 349.54C416.309 349.78 416.217 350.02 416.089 350.26C415.969 350.5 415.813 350.748 415.621 351.004C415.437 351.252 415.213 351.512 414.949 351.784L412.693 354.136V353.728H416.785V355H411.169ZM421.004 355.12C420.34 355.12 419.776 354.952 419.312 354.616C418.856 354.272 418.508 353.776 418.268 353.128C418.036 352.48 417.92 351.688 417.92 350.752C417.92 349.808 418.036 349.016 418.268 348.376C418.508 347.728 418.856 347.24 419.312 346.912C419.776 346.584 420.34 346.42 421.004 346.42C421.676 346.42 422.24 346.584 422.696 346.912C423.16 347.24 423.508 347.724 423.74 348.364C423.972 349.004 424.088 349.796 424.088 350.74C424.088 351.676 423.968 352.472 423.728 353.128C423.496 353.776 423.152 354.272 422.696 354.616C422.24 354.952 421.676 355.12 421.004 355.12ZM421.004 353.86C421.548 353.86 421.948 353.612 422.204 353.116C422.468 352.612 422.6 351.82 422.6 350.74C422.6 349.668 422.468 348.892 422.204 348.412C421.948 347.924 421.548 347.68 421.004 347.68C420.468 347.68 420.068 347.924 419.804 348.412C419.54 348.892 419.408 349.672 419.408 350.752C419.408 351.824 419.54 352.612 419.804 353.116C420.068 353.612 420.468 353.86 421.004 353.86ZM425.559 355V353.86L428.295 350.944C428.543 350.68 428.739 350.436 428.883 350.212C429.035 349.988 429.147 349.772 429.219 349.564C429.291 349.356 429.327 349.148 429.327 348.94C429.327 348.54 429.199 348.236 428.943 348.028C428.695 347.82 428.331 347.716 427.851 347.716C427.475 347.716 427.107 347.788 426.747 347.932C426.395 348.068 426.055 348.284 425.727 348.58L425.211 347.428C425.547 347.124 425.967 346.88 426.471 346.696C426.975 346.512 427.499 346.42 428.043 346.42C428.651 346.42 429.163 346.512 429.579 346.696C429.995 346.88 430.311 347.148 430.527 347.5C430.743 347.852 430.851 348.28 430.851 348.784C430.851 349.04 430.819 349.292 430.755 349.54C430.699 349.78 430.607 350.02 430.479 350.26C430.359 350.5 430.203 350.748 430.011 351.004C429.827 351.252 429.603 351.512 429.339 351.784L427.083 354.136V353.728H431.175V355H425.559ZM435.467 355.12C435.099 355.12 434.735 355.08 434.375 355C434.023 354.92 433.691 354.808 433.379 354.664C433.075 354.52 432.811 354.352 432.587 354.16L433.091 352.984C433.459 353.264 433.839 353.476 434.231 353.62C434.623 353.756 435.027 353.824 435.443 353.824C435.947 353.824 436.339 353.696 436.619 353.44C436.907 353.176 437.051 352.824 437.051 352.384C437.051 351.936 436.915 351.576 436.643 351.304C436.371 351.024 435.999 350.884 435.527 350.884C435.183 350.884 434.875 350.952 434.603 351.088C434.331 351.216 434.083 351.416 433.859 351.688H432.827V346.54H438.023V347.812H434.327V350.5H433.931C434.139 350.22 434.411 350.004 434.747 349.852C435.091 349.7 435.471 349.624 435.887 349.624C436.423 349.624 436.887 349.74 437.279 349.972C437.679 350.196 437.987 350.512 438.203 350.92C438.427 351.32 438.539 351.788 438.539 352.324C438.539 352.876 438.415 353.364 438.167 353.788C437.919 354.204 437.563 354.532 437.099 354.772C436.643 355.004 436.099 355.12 435.467 355.12Z" fill="#808283"/>
<path d="M19.6 136.12C18.616 136.12 17.844 135.908 17.284 135.484C16.732 135.06 16.456 134.472 16.456 133.72C16.456 133.32 16.536 132.968 16.696 132.664C16.864 132.352 17.092 132.1 17.38 131.908C17.668 131.716 17.996 131.596 18.364 131.548V131.8C18.028 131.728 17.732 131.596 17.476 131.404C17.22 131.204 17.02 130.96 16.876 130.672C16.74 130.376 16.672 130.052 16.672 129.7C16.672 128.988 16.936 128.432 17.464 128.032C17.992 127.624 18.708 127.42 19.612 127.42C20.508 127.42 21.22 127.624 21.748 128.032C22.276 128.432 22.54 128.988 22.54 129.7C22.54 130.052 22.468 130.376 22.324 130.672C22.188 130.968 21.992 131.212 21.736 131.404C21.488 131.596 21.196 131.724 20.86 131.788V131.548C21.236 131.596 21.564 131.72 21.844 131.92C22.124 132.112 22.344 132.364 22.504 132.676C22.664 132.98 22.744 133.328 22.744 133.72C22.744 134.472 22.464 135.06 21.904 135.484C21.352 135.908 20.584 136.12 19.6 136.12ZM19.6 134.92C20.168 134.92 20.596 134.812 20.884 134.596C21.172 134.372 21.316 134.044 21.316 133.612C21.316 133.18 21.172 132.856 20.884 132.64C20.596 132.424 20.168 132.316 19.6 132.316C19.04 132.316 18.612 132.424 18.316 132.64C18.028 132.856 17.884 133.18 17.884 133.612C17.884 134.044 18.028 134.372 18.316 134.596C18.612 134.812 19.04 134.92 19.6 134.92ZM19.6 131.116C20.072 131.116 20.44 131.004 20.704 130.78C20.976 130.556 21.112 130.248 21.112 129.856C21.112 129.472 20.976 129.172 20.704 128.956C20.44 128.732 20.072 128.62 19.6 128.62C19.128 128.62 18.76 128.732 18.496 128.956C18.232 129.172 18.1 129.476 18.1 129.868C18.1 130.252 18.232 130.556 18.496 130.78C18.76 131.004 19.128 131.116 19.6 131.116ZM26.7953 136.12C26.1313 136.12 25.5673 135.952 25.1033 135.616C24.6473 135.272 24.2993 134.776 24.0593 134.128C23.8273 133.48 23.7113 132.688 23.7113 131.752C23.7113 130.808 23.8273 130.016 24.0593 129.376C24.2993 128.728 24.6473 128.24 25.1033 127.912C25.5673 127.584 26.1313 127.42 26.7953 127.42C27.4673 127.42 28.0313 127.584 28.4873 127.912C28.9513 128.24 29.2993 128.724 29.5313 129.364C29.7633 130.004 29.8793 130.796 29.8793 131.74C29.8793 132.676 29.7593 133.472 29.5193 134.128C29.2873 134.776 28.9433 135.272 28.4873 135.616C28.0313 135.952 27.4673 136.12 26.7953 136.12ZM26.7953 134.86C27.3393 134.86 27.7393 134.612 27.9953 134.116C28.2593 133.612 28.3913 132.82 28.3913 131.74C28.3913 130.668 28.2593 129.892 27.9953 129.412C27.7393 128.924 27.3393 128.68 26.7953 128.68C26.2593 128.68 25.8593 128.924 25.5953 129.412C25.3313 129.892 25.1993 130.672 25.1993 131.752C25.1993 132.824 25.3313 133.612 25.5953 134.116C25.8593 134.612 26.2593 134.86 26.7953 134.86ZM33.9906 136.12C33.3266 136.12 32.7626 135.952 32.2986 135.616C31.8426 135.272 31.4946 134.776 31.2546 134.128C31.0226 133.48 30.9066 132.688 30.9066 131.752C30.9066 130.808 31.0226 130.016 31.2546 129.376C31.4946 128.728 31.8426 128.24 32.2986 127.912C32.7626 127.584 33.3266 127.42 33.9906 127.42C34.6626 127.42 35.2266 127.584 35.6826 127.912C36.1466 128.24 36.4946 128.724 36.7266 129.364C36.9586 130.004 37.0746 130.796 37.0746 131.74C37.0746 132.676 36.9546 133.472 36.7146 134.128C36.4826 134.776 36.1386 135.272 35.6826 135.616C35.2266 135.952 34.6626 136.12 33.9906 136.12ZM33.9906 134.86C34.5346 134.86 34.9346 134.612 35.1906 134.116C35.4546 133.612 35.5866 132.82 35.5866 131.74C35.5866 130.668 35.4546 129.892 35.1906 129.412C34.9346 128.924 34.5346 128.68 33.9906 128.68C33.4546 128.68 33.0546 128.924 32.7906 129.412C32.5266 129.892 32.3946 130.672 32.3946 131.752C32.3946 132.824 32.5266 133.612 32.7906 134.116C33.0546 134.612 33.4546 134.86 33.9906 134.86ZM38.5099 136V127.54H44.1379V128.764H39.9859V131.092H43.8739V132.316H39.9859V134.776H44.1379V136H38.5099Z" fill="#808283"/>
<path d="M19.912 186.87C19.216 186.87 18.62 186.706 18.124 186.378C17.636 186.042 17.264 185.562 17.008 184.938C16.752 184.314 16.624 183.558 16.624 182.67C16.624 181.71 16.768 180.898 17.056 180.234C17.344 179.562 17.76 179.05 18.304 178.698C18.848 178.346 19.5 178.17 20.26 178.17C20.556 178.17 20.852 178.21 21.148 178.29C21.452 178.362 21.736 178.47 22 178.614C22.272 178.75 22.512 178.918 22.72 179.118L22.216 180.27C21.92 179.998 21.604 179.798 21.268 179.67C20.932 179.534 20.588 179.466 20.236 179.466C19.892 179.466 19.584 179.53 19.312 179.658C19.048 179.778 18.824 179.962 18.64 180.21C18.456 180.45 18.316 180.754 18.22 181.122C18.132 181.482 18.088 181.902 18.088 182.382V183.282H17.944C18.008 182.874 18.14 182.526 18.34 182.238C18.548 181.942 18.812 181.718 19.132 181.566C19.452 181.406 19.808 181.326 20.2 181.326C20.688 181.326 21.12 181.442 21.496 181.674C21.872 181.906 22.168 182.226 22.384 182.634C22.6 183.042 22.708 183.51 22.708 184.038C22.708 184.582 22.588 185.07 22.348 185.502C22.116 185.926 21.788 186.262 21.364 186.51C20.948 186.75 20.464 186.87 19.912 186.87ZM19.828 185.646C20.116 185.646 20.368 185.582 20.584 185.454C20.808 185.326 20.98 185.146 21.1 184.914C21.22 184.674 21.28 184.402 21.28 184.098C21.28 183.786 21.22 183.514 21.1 183.282C20.98 183.05 20.808 182.87 20.584 182.742C20.368 182.606 20.116 182.538 19.828 182.538C19.54 182.538 19.288 182.606 19.072 182.742C18.856 182.87 18.684 183.05 18.556 183.282C18.436 183.514 18.376 183.786 18.376 184.098C18.376 184.402 18.436 184.674 18.556 184.914C18.684 185.146 18.856 185.326 19.072 185.454C19.288 185.582 19.54 185.646 19.828 185.646ZM26.7953 186.87C26.1313 186.87 25.5673 186.702 25.1033 186.366C24.6473 186.022 24.2993 185.526 24.0593 184.878C23.8273 184.23 23.7113 183.438 23.7113 182.502C23.7113 181.558 23.8273 180.766 24.0593 180.126C24.2993 179.478 24.6473 178.99 25.1033 178.662C25.5673 178.334 26.1313 178.17 26.7953 178.17C27.4673 178.17 28.0313 178.334 28.4873 178.662C28.9513 178.99 29.2993 179.474 29.5313 180.114C29.7633 180.754 29.8793 181.546 29.8793 182.49C29.8793 183.426 29.7593 184.222 29.5193 184.878C29.2873 185.526 28.9433 186.022 28.4873 186.366C28.0313 186.702 27.4673 186.87 26.7953 186.87ZM26.7953 185.61C27.3393 185.61 27.7393 185.362 27.9953 184.866C28.2593 184.362 28.3913 183.57 28.3913 182.49C28.3913 181.418 28.2593 180.642 27.9953 180.162C27.7393 179.674 27.3393 179.43 26.7953 179.43C26.2593 179.43 25.8593 179.674 25.5953 180.162C25.3313 180.642 25.1993 181.422 25.1993 182.502C25.1993 183.574 25.3313 184.362 25.5953 184.866C25.8593 185.362 26.2593 185.61 26.7953 185.61ZM33.9906 186.87C33.3266 186.87 32.7626 186.702 32.2986 186.366C31.8426 186.022 31.4946 185.526 31.2546 184.878C31.0226 184.23 30.9066 183.438 30.9066 182.502C30.9066 181.558 31.0226 180.766 31.2546 180.126C31.4946 179.478 31.8426 178.99 32.2986 178.662C32.7626 178.334 33.3266 178.17 33.9906 178.17C34.6626 178.17 35.2266 178.334 35.6826 178.662C36.1466 178.99 36.4946 179.474 36.7266 180.114C36.9586 180.754 37.0746 181.546 37.0746 182.49C37.0746 183.426 36.9546 184.222 36.7146 184.878C36.4826 185.526 36.1386 186.022 35.6826 186.366C35.2266 186.702 34.6626 186.87 33.9906 186.87ZM33.9906 185.61C34.5346 185.61 34.9346 185.362 35.1906 184.866C35.4546 184.362 35.5866 183.57 35.5866 182.49C35.5866 181.418 35.4546 180.642 35.1906 180.162C34.9346 179.674 34.5346 179.43 33.9906 179.43C33.4546 179.43 33.0546 179.674 32.7906 180.162C32.5266 180.642 32.3946 181.422 32.3946 182.502C32.3946 183.574 32.5266 184.362 32.7906 184.866C33.0546 185.362 33.4546 185.61 33.9906 185.61ZM38.5099 186.75V178.29H44.1379V179.514H39.9859V181.842H43.8739V183.066H39.9859V185.526H44.1379V186.75H38.5099Z" fill="#808283"/>
<path d="M20.188 237.5V235.892H16.504V234.764L20.452 229.04H21.724V234.62H22.912V235.892H21.724V237.5H20.188ZM20.188 234.62V230.876H20.536L17.704 235.028V234.62H20.188ZM26.7953 237.62C26.1313 237.62 25.5673 237.452 25.1033 237.116C24.6473 236.772 24.2993 236.276 24.0593 235.628C23.8273 234.98 23.7113 234.188 23.7113 233.252C23.7113 232.308 23.8273 231.516 24.0593 230.876C24.2993 230.228 24.6473 229.74 25.1033 229.412C25.5673 229.084 26.1313 228.92 26.7953 228.92C27.4673 228.92 28.0313 229.084 28.4873 229.412C28.9513 229.74 29.2993 230.224 29.5313 230.864C29.7633 231.504 29.8793 232.296 29.8793 233.24C29.8793 234.176 29.7593 234.972 29.5193 235.628C29.2873 236.276 28.9433 236.772 28.4873 237.116C28.0313 237.452 27.4673 237.62 26.7953 237.62ZM26.7953 236.36C27.3393 236.36 27.7393 236.112 27.9953 235.616C28.2593 235.112 28.3913 234.32 28.3913 233.24C28.3913 232.168 28.2593 231.392 27.9953 230.912C27.7393 230.424 27.3393 230.18 26.7953 230.18C26.2593 230.18 25.8593 230.424 25.5953 230.912C25.3313 231.392 25.1993 232.172 25.1993 233.252C25.1993 234.324 25.3313 235.112 25.5953 235.616C25.8593 236.112 26.2593 236.36 26.7953 236.36ZM33.9906 237.62C33.3266 237.62 32.7626 237.452 32.2986 237.116C31.8426 236.772 31.4946 236.276 31.2546 235.628C31.0226 234.98 30.9066 234.188 30.9066 233.252C30.9066 232.308 31.0226 231.516 31.2546 230.876C31.4946 230.228 31.8426 229.74 32.2986 229.412C32.7626 229.084 33.3266 228.92 33.9906 228.92C34.6626 228.92 35.2266 229.084 35.6826 229.412C36.1466 229.74 36.4946 230.224 36.7266 230.864C36.9586 231.504 37.0746 232.296 37.0746 233.24C37.0746 234.176 36.9546 234.972 36.7146 235.628C36.4826 236.276 36.1386 236.772 35.6826 237.116C35.2266 237.452 34.6626 237.62 33.9906 237.62ZM33.9906 236.36C34.5346 236.36 34.9346 236.112 35.1906 235.616C35.4546 235.112 35.5866 234.32 35.5866 233.24C35.5866 232.168 35.4546 231.392 35.1906 230.912C34.9346 230.424 34.5346 230.18 33.9906 230.18C33.4546 230.18 33.0546 230.424 32.7906 230.912C32.5266 231.392 32.3946 232.172 32.3946 233.252C32.3946 234.324 32.5266 235.112 32.7906 235.616C33.0546 236.112 33.4546 236.36 33.9906 236.36ZM38.5099 237.5V229.04H44.1379V230.264H39.9859V232.592H43.8739V233.816H39.9859V236.276H44.1379V237.5H38.5099Z" fill="#808283"/>
<path d="M16.96 288.25V287.11L19.696 284.194C19.944 283.93 20.14 283.686 20.284 283.462C20.436 283.238 20.548 283.022 20.62 282.814C20.692 282.606 20.728 282.398 20.728 282.19C20.728 281.79 20.6 281.486 20.344 281.278C20.096 281.07 19.732 280.966 19.252 280.966C18.876 280.966 18.508 281.038 18.148 281.182C17.796 281.318 17.456 281.534 17.128 281.83L16.612 280.678C16.948 280.374 17.368 280.13 17.872 279.946C18.376 279.762 18.9 279.67 19.444 279.67C20.052 279.67 20.564 279.762 20.98 279.946C21.396 280.13 21.712 280.398 21.928 280.75C22.144 281.102 22.252 281.53 22.252 282.034C22.252 282.29 22.22 282.542 22.156 282.79C22.1 283.03 22.008 283.27 21.88 283.51C21.76 283.75 21.604 283.998 21.412 284.254C21.228 284.502 21.004 284.762 20.74 285.034L18.484 287.386V286.978H22.576V288.25H16.96ZM26.7953 288.37C26.1313 288.37 25.5673 288.202 25.1033 287.866C24.6473 287.522 24.2993 287.026 24.0593 286.378C23.8273 285.73 23.7113 284.938 23.7113 284.002C23.7113 283.058 23.8273 282.266 24.0593 281.626C24.2993 280.978 24.6473 280.49 25.1033 280.162C25.5673 279.834 26.1313 279.67 26.7953 279.67C27.4673 279.67 28.0313 279.834 28.4873 280.162C28.9513 280.49 29.2993 280.974 29.5313 281.614C29.7633 282.254 29.8793 283.046 29.8793 283.99C29.8793 284.926 29.7593 285.722 29.5193 286.378C29.2873 287.026 28.9433 287.522 28.4873 287.866C28.0313 288.202 27.4673 288.37 26.7953 288.37ZM26.7953 287.11C27.3393 287.11 27.7393 286.862 27.9953 286.366C28.2593 285.862 28.3913 285.07 28.3913 283.99C28.3913 282.918 28.2593 282.142 27.9953 281.662C27.7393 281.174 27.3393 280.93 26.7953 280.93C26.2593 280.93 25.8593 281.174 25.5953 281.662C25.3313 282.142 25.1993 282.922 25.1993 284.002C25.1993 285.074 25.3313 285.862 25.5953 286.366C25.8593 286.862 26.2593 287.11 26.7953 287.11ZM33.9906 288.37C33.3266 288.37 32.7626 288.202 32.2986 287.866C31.8426 287.522 31.4946 287.026 31.2546 286.378C31.0226 285.73 30.9066 284.938 30.9066 284.002C30.9066 283.058 31.0226 282.266 31.2546 281.626C31.4946 280.978 31.8426 280.49 32.2986 280.162C32.7626 279.834 33.3266 279.67 33.9906 279.67C34.6626 279.67 35.2266 279.834 35.6826 280.162C36.1466 280.49 36.4946 280.974 36.7266 281.614C36.9586 282.254 37.0746 283.046 37.0746 283.99C37.0746 284.926 36.9546 285.722 36.7146 286.378C36.4826 287.026 36.1386 287.522 35.6826 287.866C35.2266 288.202 34.6626 288.37 33.9906 288.37ZM33.9906 287.11C34.5346 287.11 34.9346 286.862 35.1906 286.366C35.4546 285.862 35.5866 285.07 35.5866 283.99C35.5866 282.918 35.4546 282.142 35.1906 281.662C34.9346 281.174 34.5346 280.93 33.9906 280.93C33.4546 280.93 33.0546 281.174 32.7906 281.662C32.5266 282.142 32.3946 282.922 32.3946 284.002C32.3946 285.074 32.5266 285.862 32.7906 286.366C33.0546 286.862 33.4546 287.11 33.9906 287.11ZM38.5099 288.25V279.79H44.1379V281.014H39.9859V283.342H43.8739V284.566H39.9859V287.026H44.1379V288.25H38.5099Z" fill="#808283"/>
<path d="M19.6 339.12C18.936 339.12 18.372 338.952 17.908 338.616C17.452 338.272 17.104 337.776 16.864 337.128C16.632 336.48 16.516 335.688 16.516 334.752C16.516 333.808 16.632 333.016 16.864 332.376C17.104 331.728 17.452 331.24 17.908 330.912C18.372 330.584 18.936 330.42 19.6 330.42C20.272 330.42 20.836 330.584 21.292 330.912C21.756 331.24 22.104 331.724 22.336 332.364C22.568 333.004 22.684 333.796 22.684 334.74C22.684 335.676 22.564 336.472 22.324 337.128C22.092 337.776 21.748 338.272 21.292 338.616C20.836 338.952 20.272 339.12 19.6 339.12ZM19.6 337.86C20.144 337.86 20.544 337.612 20.8 337.116C21.064 336.612 21.196 335.82 21.196 334.74C21.196 333.668 21.064 332.892 20.8 332.412C20.544 331.924 20.144 331.68 19.6 331.68C19.064 331.68 18.664 331.924 18.4 332.412C18.136 332.892 18.004 333.672 18.004 334.752C18.004 335.824 18.136 336.612 18.4 337.116C18.664 337.612 19.064 337.86 19.6 337.86Z" fill="#808283"/>
<rect x="16" y="76" width="42" height="32" rx="4" fill="#23252D"/>
<path d="M29.808 96V94.728H31.716V88.836H32.46L30.24 90.18L29.64 89.052L32.16 87.54H33.252V94.728H35.04V96H29.808ZM36.6193 96V87.54H39.7633C40.7073 87.54 41.5073 87.704 42.1633 88.032C42.8273 88.36 43.3313 88.84 43.6753 89.472C44.0273 90.096 44.2033 90.86 44.2033 91.764C44.2033 92.668 44.0273 93.436 43.6753 94.068C43.3313 94.7 42.8273 95.18 42.1633 95.508C41.5073 95.836 40.7073 96 39.7633 96H36.6193ZM38.1553 94.728H39.6673C40.6513 94.728 41.3833 94.484 41.8633 93.996C42.3513 93.5 42.5953 92.756 42.5953 91.764C42.5953 90.772 42.3513 90.032 41.8633 89.544C41.3753 89.056 40.6433 88.812 39.6673 88.812H38.1553V94.728Z" fill="#808283"/>
<rect x="62" y="76" width="60" height="32" rx="4" fill="#23252D"/>
<path d="M70.924 96V87.54H72.46V94.692H76.516V96H70.924ZM77.6623 96V87.54H79.1983V96H77.6623ZM81.0373 96V87.54H82.1893L87.0493 93.852H86.7373V87.54H88.1653V96H87.0253L82.1653 89.676H82.4653V96H81.0373ZM90.0138 96V87.54H95.6418V88.764H91.4898V91.092H95.3778V92.316H91.4898V94.776H95.6418V96H90.0138ZM96.1097 96L99.9377 87.54H101.198L105.026 96H103.466L102.446 93.624L103.094 94.044H98.0297L98.6777 93.624L97.6697 96H96.1097ZM100.55 89.208L98.8697 93.204L98.5577 92.82H102.566L102.266 93.204L100.574 89.208H100.55ZM105.951 96V87.54H109.623C110.551 87.54 111.267 87.764 111.771 88.212C112.275 88.652 112.527 89.272 112.527 90.072C112.527 90.592 112.411 91.04 112.179 91.416C111.955 91.792 111.627 92.08 111.195 92.28C110.763 92.48 110.239 92.58 109.623 92.58L109.731 92.4H110.127C110.455 92.4 110.739 92.48 110.979 92.64C111.227 92.8 111.443 93.052 111.627 93.396L113.043 96H111.351L109.887 93.3C109.791 93.124 109.683 92.988 109.563 92.892C109.443 92.788 109.307 92.716 109.155 92.676C109.003 92.636 108.827 92.616 108.627 92.616H107.487V96H105.951ZM107.487 91.476H109.359C109.911 91.476 110.327 91.364 110.607 91.14C110.895 90.908 111.039 90.564 111.039 90.108C111.039 89.66 110.895 89.324 110.607 89.1C110.327 88.868 109.911 88.752 109.359 88.752H107.487V91.476Z" fill="#808283"/>
<rect x="126" y="76" width="33" height="32" rx="4" fill="#23252D"/>
<path d="M135.032 96L139.124 88.296V88.824H134.66V87.54H140.552V88.692L136.724 96H135.032ZM142.119 96V87.54H145.263C146.207 87.54 147.007 87.704 147.663 88.032C148.327 88.36 148.831 88.84 149.175 89.472C149.527 90.096 149.703 90.86 149.703 91.764C149.703 92.668 149.527 93.436 149.175 94.068C148.831 94.7 148.327 95.18 147.663 95.508C147.007 95.836 146.207 96 145.263 96H142.119ZM143.655 94.728H145.167C146.151 94.728 146.883 94.484 147.363 93.996C147.851 93.5 148.095 92.756 148.095 91.764C148.095 90.772 147.851 90.032 147.363 89.544C146.875 89.056 146.143 88.812 145.167 88.812H143.655V94.728Z" fill="#808283"/>
<rect x="466" y="131" width="2" height="205" rx="1" fill="#A06AFF"/>
<g filter="url(#filter0_d_2198_8698)">
<path d="M58 328L61.5351 320.968L64.1864 324.484L69.0471 309.416L71.6985 313.937L73.9079 307.407L84.5132 311.928L90.2577 299.371L92.909 302.887L94.6765 307.407L97.3279 304.896L99.0954 307.407L102.189 301.882L104.84 303.891L106.166 297.864L108.375 296.86V290.833L113.678 282.294L115.887 284.805L122.515 253.665L126.05 263.208L131.795 241.109L134.888 250.652L137.098 237.09L138.423 244.624L143.726 236.588L146.377 245.629L149.029 240.606L153.447 259.692L157.866 256.176L159.192 262.706L161.401 260.195L163.611 264.715L176.425 244.624L181.286 254.167L184.821 235.081L187.473 239.1L190.124 234.579L198.078 249.145L200.729 246.131L206.474 258.186L211.334 250.652L213.986 256.679L221.498 249.145L229.452 256.176L230.336 267.729L237.406 265.217L239.173 281.792L251.104 275.765L255.965 283.299L258.616 277.774L260.826 283.801L270.989 279.281V288.824L278.059 286.312L283.804 288.824L290.432 274.76L292.641 277.774L294.409 273.253L297.944 281.792L305.456 264.715L318.713 272.751L324.899 264.213L331.969 267.729L338.598 273.253L341.691 269.738L346.11 270.742L349.203 258.688L356.715 258.186L358.041 251.154L365.111 249.145L368.204 256.176L372.623 244.624L375.716 245.127L378.809 233.575L392.066 240.606L395.159 232.068L404.88 241.611L409.741 232.57L413.276 241.611L415.044 237.593L419.021 242.113L423.44 235.081L425.649 237.593L429.626 233.072L434.045 221.52L442.883 218.005L445.092 221.018L449.069 217L461 226.041" stroke="#A06AFF" stroke-width="1.5" stroke-linecap="round"/>
</g>
<g filter="url(#filter1_d_2198_8698)">
<path d="M58 304.697L64.255 299.92L73.6375 306L76.765 300.789L82.1264 304.697L90.6153 297.749C92.5514 298.762 96.5129 300.789 96.8703 300.789C97.2277 300.789 101.189 297.604 103.125 296.012L111.167 302.526L117.869 296.012L123.231 296.881L129.932 290.801L136.634 295.144L142.442 289.064L146.91 296.012L150.038 289.064L154.952 295.144L158.08 292.972L161.207 304.697L181.759 295.144L186.227 296.012L192.482 290.801L196.057 292.972L199.184 287.327L202.758 290.801L209.907 282.116L217.055 286.459L223.757 282.116L228.672 283.853L230.459 279.076L236.714 282.985L240.735 279.945L245.203 283.853L250.564 286.459L255.479 282.116L268.882 271.694L273.797 276.471L276.925 270.391L281.839 276.471L286.754 271.694L290.328 273.865L300.604 258.667L304.625 262.141L306.412 257.798L311.327 260.838L321.603 249.547L325.177 255.193L327.858 246.073L331.432 252.153L335.453 243.034L338.581 252.153L358.239 226.532L363.154 231.743L364.941 218.281L370.749 233.914L374.324 214.373L378.345 218.281L383.706 201.78L387.28 210.031L391.748 199.174L395.323 213.505L399.344 197.003L401.131 217.413L406.939 208.728L408.726 214.373L412.3 194.398L418.555 204.82L422.576 191.358L426.598 204.82L430.172 190.055L432.406 197.003L435.98 180.067L439.108 187.884L441.788 173.554L444.022 177.462L448.937 170.08L452.064 175.725L455.192 164L461 180.067" stroke="#FFA800" stroke-width="1.5"/>
</g>
<defs>
<filter id="filter0_d_2198_8698" x="49.25" y="208.005" width="420.5" height="128.745" filterUnits="userSpaceOnUse" color-interpolation-filters="sRGB">
<feFlood flood-opacity="0" result="BackgroundImageFix"/>
<feColorMatrix in="SourceAlpha" type="matrix" values="0 0 0 0 0 0 0 0 0 0 0 0 0 0 0 0 0 0 127 0" result="hardAlpha"/>
<feOffset/>
<feGaussianBlur stdDeviation="4"/>
<feComposite in2="hardAlpha" operator="out"/>
<feColorMatrix type="matrix" values="0 0 0 0 0.627451 0 0 0 0 0.415686 0 0 0 0 1 0 0 0 0.24 0"/>
<feBlend mode="normal" in2="BackgroundImageFix" result="effect1_dropShadow_2198_8698"/>
<feBlend mode="normal" in="SourceGraphic" in2="effect1_dropShadow_2198_8698" result="shape"/>
</filter>
<filter id="filter1_d_2198_8698" x="49.543" y="153.495" width="420.164" height="161.557" filterUnits="userSpaceOnUse" color-interpolation-filters="sRGB">
<feFlood flood-opacity="0" result="BackgroundImageFix"/>
<feColorMatrix in="SourceAlpha" type="matrix" values="0 0 0 0 0 0 0 0 0 0 0 0 0 0 0 0 0 0 127 0" result="hardAlpha"/>
<feOffset/>
<feGaussianBlur stdDeviation="4"/>
<feComposite in2="hardAlpha" operator="out"/>
<feColorMatrix type="matrix" values="0 0 0 0 1 0 0 0 0 0.658824 0 0 0 0 0 0 0 0 0.24 0"/>
<feBlend mode="normal" in2="BackgroundImageFix" result="effect1_dropShadow_2198_8698"/>
<feBlend mode="normal" in="SourceGraphic" in2="effect1_dropShadow_2198_8698" result="shape"/>
</filter>
</defs>
</svg>
