<svg width="528" height="414" viewBox="0 0 528 414" fill="none" xmlns="http://www.w3.org/2000/svg">
<rect width="528" height="414" rx="8" fill="#181A20"/>
<path d="M16.848 41V24.08H24.192C26.048 24.08 27.48 24.528 28.488 25.424C29.496 26.304 30 27.544 30 29.144C30 30.184 29.768 31.08 29.304 31.832C28.856 32.584 28.2 33.16 27.336 33.56C26.472 33.96 25.424 34.16 24.192 34.16L24.408 33.8H25.2C25.856 33.8 26.424 33.96 26.904 34.28C27.4 34.6 27.832 35.104 28.2 35.792L31.032 41H27.648L24.72 35.6C24.528 35.248 24.312 34.976 24.072 34.784C23.832 34.576 23.56 34.432 23.256 34.352C22.952 34.272 22.6 34.232 22.2 34.232H19.92V41H16.848ZM19.92 31.952H23.664C24.768 31.952 25.6 31.728 26.16 31.28C26.736 30.816 27.024 30.128 27.024 29.216C27.024 28.32 26.736 27.648 26.16 27.2C25.6 26.736 24.768 26.504 23.664 26.504H19.92V31.952ZM38.4924 41.24C37.1644 41.24 36.0204 40.992 35.0604 40.496C34.1004 40 33.3564 39.296 32.8284 38.384C32.3164 37.472 32.0604 36.392 32.0604 35.144C32.0604 33.928 32.3084 32.864 32.8044 31.952C33.3164 31.04 34.0124 30.328 34.8924 29.816C35.7884 29.288 36.8044 29.024 37.9404 29.024C39.0604 29.024 40.0204 29.264 40.8204 29.744C41.6204 30.224 42.2364 30.904 42.6684 31.784C43.1164 32.664 43.3404 33.712 43.3404 34.928V35.816H34.4844V34.088H41.2284L40.8444 34.448C40.8444 33.36 40.6044 32.528 40.1244 31.952C39.6444 31.36 38.9564 31.064 38.0604 31.064C37.3884 31.064 36.8124 31.224 36.3324 31.544C35.8684 31.848 35.5084 32.288 35.2524 32.864C35.0124 33.424 34.8924 34.096 34.8924 34.88V35.048C34.8924 35.928 35.0284 36.656 35.3004 37.232C35.5724 37.808 35.9804 38.24 36.5244 38.528C37.0684 38.816 37.7404 38.96 38.5404 38.96C39.1964 38.96 39.8524 38.864 40.5084 38.672C41.1644 38.464 41.7644 38.144 42.3084 37.712L43.1484 39.728C42.5884 40.192 41.8844 40.56 41.0364 40.832C40.1884 41.104 39.3404 41.24 38.4924 41.24ZM49.5803 41.24C48.7323 41.24 47.9723 41.08 47.3003 40.76C46.6443 40.424 46.1243 39.976 45.7402 39.416C45.3723 38.856 45.1883 38.224 45.1883 37.52C45.1883 36.656 45.4123 35.976 45.8603 35.48C46.3083 34.968 47.0363 34.6 48.0443 34.376C49.0523 34.152 50.4043 34.04 52.1003 34.04H53.3003V35.768H52.1243C51.3723 35.768 50.7403 35.8 50.2283 35.864C49.7163 35.912 49.3003 36 48.9803 36.128C48.6763 36.24 48.4523 36.4 48.3083 36.608C48.1803 36.816 48.1163 37.072 48.1163 37.376C48.1163 37.904 48.3003 38.336 48.6683 38.672C49.0363 39.008 49.5483 39.176 50.2043 39.176C50.7323 39.176 51.1963 39.056 51.5963 38.816C52.0123 38.56 52.3403 38.216 52.5803 37.784C52.8203 37.352 52.9403 36.856 52.9403 36.296V33.536C52.9403 32.736 52.7643 32.16 52.4123 31.808C52.0603 31.456 51.4683 31.28 50.6363 31.28C49.9803 31.28 49.3083 31.384 48.6203 31.592C47.9323 31.784 47.2363 32.088 46.5323 32.504L45.6683 30.464C46.0843 30.176 46.5723 29.928 47.1323 29.72C47.7083 29.496 48.3083 29.328 48.9323 29.216C49.5723 29.088 50.1723 29.024 50.7323 29.024C51.8843 29.024 52.8283 29.2 53.5643 29.552C54.3163 29.904 54.8763 30.44 55.2443 31.16C55.6123 31.864 55.7963 32.776 55.7963 33.896V41H52.9883V38.504H53.1803C53.0683 39.064 52.8443 39.552 52.5083 39.968C52.1883 40.368 51.7803 40.68 51.2843 40.904C50.7883 41.128 50.2203 41.24 49.5803 41.24ZM62.9213 41.24C61.5293 41.24 60.4973 40.864 59.8253 40.112C59.1693 39.344 58.8413 38.224 58.8413 36.752V24.08H61.8413V36.608C61.8413 37.072 61.9053 37.472 62.0333 37.808C62.1773 38.128 62.3853 38.368 62.6573 38.528C62.9293 38.688 63.2653 38.768 63.6653 38.768C63.8413 38.768 64.0173 38.76 64.1933 38.744C64.3693 38.728 64.5373 38.696 64.6973 38.648L64.6493 41.024C64.3613 41.088 64.0733 41.136 63.7853 41.168C63.5133 41.216 63.2253 41.24 62.9213 41.24ZM66.3133 26.744V23.816H69.6733V26.744H66.3133ZM66.5053 41V29.264H69.5053V41H66.5053ZM72.2385 41V39.056L78.8625 30.8V31.52H72.2385V29.264H81.5505V31.208L74.8545 39.536V38.744H81.8145V41H72.2385ZM89.5393 41.24C88.2113 41.24 87.0673 40.992 86.1073 40.496C85.1473 40 84.4033 39.296 83.8753 38.384C83.3633 37.472 83.1073 36.392 83.1073 35.144C83.1073 33.928 83.3553 32.864 83.8513 31.952C84.3633 31.04 85.0593 30.328 85.9393 29.816C86.8353 29.288 87.8513 29.024 88.9873 29.024C90.1073 29.024 91.0673 29.264 91.8673 29.744C92.6673 30.224 93.2833 30.904 93.7153 31.784C94.1633 32.664 94.3873 33.712 94.3873 34.928V35.816H85.5313V34.088H92.2753L91.8913 34.448C91.8913 33.36 91.6513 32.528 91.1713 31.952C90.6913 31.36 90.0033 31.064 89.1073 31.064C88.4353 31.064 87.8593 31.224 87.3793 31.544C86.9153 31.848 86.5553 32.288 86.2993 32.864C86.0593 33.424 85.9393 34.096 85.9393 34.88V35.048C85.9393 35.928 86.0753 36.656 86.3473 37.232C86.6193 37.808 87.0273 38.24 87.5713 38.528C88.1153 38.816 88.7873 38.96 89.5873 38.96C90.2433 38.96 90.8993 38.864 91.5553 38.672C92.2113 38.464 92.8113 38.144 93.3553 37.712L94.1953 39.728C93.6353 40.192 92.9313 40.56 92.0833 40.832C91.2353 41.104 90.3873 41.24 89.5393 41.24ZM101.275 41.24C100.251 41.24 99.3471 40.992 98.5631 40.496C97.7951 40 97.1951 39.296 96.7631 38.384C96.3311 37.456 96.1151 36.368 96.1151 35.12C96.1151 33.856 96.3311 32.776 96.7631 31.88C97.1951 30.968 97.7951 30.264 98.5631 29.768C99.3471 29.272 100.251 29.024 101.275 29.024C102.251 29.024 103.099 29.264 103.819 29.744C104.555 30.224 105.051 30.856 105.307 31.64H105.043V24.08H108.043V41H105.115V38.504H105.331C105.091 39.336 104.603 40 103.867 40.496C103.131 40.992 102.267 41.24 101.275 41.24ZM102.115 38.96C103.011 38.96 103.731 38.64 104.275 38C104.819 37.344 105.091 36.384 105.091 35.12C105.091 33.84 104.819 32.888 104.275 32.264C103.731 31.624 103.011 31.304 102.115 31.304C101.219 31.304 100.499 31.624 99.9551 32.264C99.4111 32.888 99.1391 33.84 99.1391 35.12C99.1391 36.384 99.4111 37.344 99.9551 38C100.499 38.64 101.219 38.96 102.115 38.96ZM117.911 41V24.08H125.255C126.503 24.08 127.559 24.288 128.423 24.704C129.287 25.12 129.943 25.72 130.391 26.504C130.839 27.288 131.062 28.24 131.062 29.36C131.062 30.464 130.839 31.416 130.391 32.216C129.943 33 129.287 33.608 128.423 34.04C127.559 34.456 126.503 34.664 125.255 34.664H120.983V41H117.911ZM120.983 32.24H124.775C125.863 32.24 126.687 32 127.247 31.52C127.807 31.024 128.087 30.304 128.087 29.36C128.087 28.416 127.807 27.704 127.247 27.224C126.687 26.744 125.863 26.504 124.775 26.504H120.983V32.24ZM133.044 41V29.264H135.972V32.096H135.732C135.956 31.136 136.396 30.408 137.052 29.912C137.708 29.4 138.58 29.104 139.668 29.024L140.58 28.952L140.772 31.496L139.044 31.664C138.068 31.76 137.332 32.064 136.836 32.576C136.34 33.072 136.092 33.776 136.092 34.688V41H133.044ZM142.251 26.744V23.816H145.611V26.744H142.251ZM142.443 41V29.264H145.443V41H142.443ZM153.984 41.24C152.752 41.24 151.68 40.992 150.768 40.496C149.856 39.984 149.152 39.264 148.656 38.336C148.16 37.408 147.912 36.32 147.912 35.072C147.912 33.824 148.16 32.752 148.656 31.856C149.152 30.944 149.856 30.248 150.768 29.768C151.68 29.272 152.752 29.024 153.984 29.024C154.736 29.024 155.48 29.144 156.216 29.384C156.952 29.624 157.56 29.96 158.04 30.392L157.152 32.48C156.736 32.112 156.264 31.832 155.736 31.64C155.224 31.448 154.728 31.352 154.248 31.352C153.208 31.352 152.4 31.68 151.824 32.336C151.264 32.976 150.984 33.896 150.984 35.096C150.984 36.28 151.264 37.216 151.824 37.904C152.4 38.576 153.208 38.912 154.248 38.912C154.712 38.912 155.208 38.816 155.736 38.624C156.264 38.432 156.736 38.144 157.152 37.76L158.04 39.872C157.56 40.288 156.944 40.624 156.192 40.88C155.456 41.12 154.72 41.24 153.984 41.24ZM165.43 41.24C164.102 41.24 162.958 40.992 161.998 40.496C161.038 40 160.294 39.296 159.766 38.384C159.254 37.472 158.998 36.392 158.998 35.144C158.998 33.928 159.246 32.864 159.742 31.952C160.254 31.04 160.95 30.328 161.83 29.816C162.726 29.288 163.742 29.024 164.878 29.024C165.998 29.024 166.958 29.264 167.758 29.744C168.558 30.224 169.174 30.904 169.606 31.784C170.054 32.664 170.278 33.712 170.278 34.928V35.816H161.422V34.088H168.166L167.782 34.448C167.782 33.36 167.542 32.528 167.062 31.952C166.582 31.36 165.894 31.064 164.998 31.064C164.326 31.064 163.75 31.224 163.27 31.544C162.806 31.848 162.446 32.288 162.19 32.864C161.95 33.424 161.83 34.096 161.83 34.88V35.048C161.83 35.928 161.966 36.656 162.238 37.232C162.51 37.808 162.918 38.24 163.462 38.528C164.006 38.816 164.678 38.96 165.478 38.96C166.134 38.96 166.79 38.864 167.446 38.672C168.102 38.464 168.702 38.144 169.246 37.712L170.086 39.728C169.526 40.192 168.822 40.56 167.974 40.832C167.126 41.104 166.278 41.24 165.43 41.24Z" fill="white"/>
<rect y="58" width="528" height="1" fill="#313338"/>
<rect x="16" y="79" width="8" height="8" rx="4" fill="#FFA800"/>
<path d="M28.924 87V78.54H32.596C33.524 78.54 34.24 78.764 34.744 79.212C35.248 79.652 35.5 80.272 35.5 81.072C35.5 81.592 35.384 82.04 35.152 82.416C34.928 82.792 34.6 83.08 34.168 83.28C33.736 83.48 33.212 83.58 32.596 83.58L32.704 83.4H33.1C33.428 83.4 33.712 83.48 33.952 83.64C34.2 83.8 34.416 84.052 34.6 84.396L36.016 87H34.324L32.86 84.3C32.764 84.124 32.656 83.988 32.536 83.892C32.416 83.788 32.28 83.716 32.128 83.676C31.976 83.636 31.8 83.616 31.6 83.616H30.46V87H28.924ZM30.46 82.476H32.332C32.884 82.476 33.3 82.364 33.58 82.14C33.868 81.908 34.012 81.564 34.012 81.108C34.012 80.66 33.868 80.324 33.58 80.1C33.3 79.868 32.884 79.752 32.332 79.752H30.46V82.476ZM37.1506 87V78.54H42.7786V79.764H38.6266V82.092H42.5146V83.316H38.6266V85.776H42.7786V87H37.1506ZM43.2464 87L47.0744 78.54H48.3344L52.1624 87H50.6024L49.5824 84.624L50.2304 85.044H45.1664L45.8144 84.624L44.8064 87H43.2464ZM47.6864 80.208L46.0064 84.204L45.6944 83.82H49.7024L49.4024 84.204L47.7104 80.208H47.6864ZM53.0881 87V78.54H54.6241V85.692H58.6801V87H53.0881ZM59.8263 87V78.54H61.3623V87H59.8263ZM62.8413 87V85.872L67.6653 79.332V79.824H62.8413V78.54H69.1053V79.668L64.2813 86.196V85.716H69.2853V87H62.8413ZM70.467 87V78.54H76.095V79.764H71.943V82.092H75.831V83.316H71.943V85.776H76.095V87H70.467ZM77.6271 87V78.54H80.7711C81.7151 78.54 82.5151 78.704 83.1711 79.032C83.8351 79.36 84.3391 79.84 84.6831 80.472C85.0351 81.096 85.2111 81.86 85.2111 82.764C85.2111 83.668 85.0351 84.436 84.6831 85.068C84.3391 85.7 83.8351 86.18 83.1711 86.508C82.5151 86.836 81.7151 87 80.7711 87H77.6271ZM79.1631 85.728H80.6751C81.6591 85.728 82.3911 85.484 82.8711 84.996C83.3591 84.5 83.6031 83.756 83.6031 82.764C83.6031 81.772 83.3591 81.032 82.8711 80.544C82.3831 80.056 81.6511 79.812 80.6751 79.812H79.1631V85.728ZM90.0021 87V78.54H93.6741C94.2981 78.54 94.8261 78.644 95.2581 78.852C95.6901 79.06 96.0181 79.36 96.2421 79.752C96.4661 80.144 96.5781 80.62 96.5781 81.18C96.5781 81.732 96.4661 82.208 96.2421 82.608C96.0181 83 95.6901 83.304 95.2581 83.52C94.8261 83.728 94.2981 83.832 93.6741 83.832H91.5381V87H90.0021ZM91.5381 82.62H93.4341C93.9781 82.62 94.3901 82.5 94.6701 82.26C94.9501 82.012 95.0901 81.652 95.0901 81.18C95.0901 80.708 94.9501 80.352 94.6701 80.112C94.3901 79.872 93.9781 79.752 93.4341 79.752H91.5381V82.62ZM97.8303 87V78.54H101.502C102.43 78.54 103.146 78.764 103.65 79.212C104.154 79.652 104.406 80.272 104.406 81.072C104.406 81.592 104.29 82.04 104.058 82.416C103.834 82.792 103.506 83.08 103.074 83.28C102.642 83.48 102.118 83.58 101.502 83.58L101.61 83.4H102.006C102.334 83.4 102.618 83.48 102.858 83.64C103.106 83.8 103.322 84.052 103.506 84.396L104.922 87H103.23L101.766 84.3C101.67 84.124 101.562 83.988 101.442 83.892C101.322 83.788 101.186 83.716 101.034 83.676C100.882 83.636 100.706 83.616 100.506 83.616H99.3663V87H97.8303ZM99.3663 82.476H101.238C101.79 82.476 102.206 82.364 102.486 82.14C102.774 81.908 102.918 81.564 102.918 81.108C102.918 80.66 102.774 80.324 102.486 80.1C102.206 79.868 101.79 79.752 101.238 79.752H99.3663V82.476ZM106.057 87V78.54H107.593V87H106.057ZM113.368 87.12C112.488 87.12 111.732 86.944 111.1 86.592C110.476 86.232 109.996 85.728 109.66 85.08C109.324 84.424 109.156 83.652 109.156 82.764C109.156 81.876 109.324 81.108 109.66 80.46C109.996 79.812 110.476 79.312 111.1 78.96C111.732 78.6 112.488 78.42 113.368 78.42C113.936 78.42 114.472 78.508 114.976 78.684C115.488 78.86 115.908 79.112 116.236 79.44L115.732 80.664C115.372 80.36 115.004 80.14 114.628 80.004C114.252 79.86 113.848 79.788 113.416 79.788C112.56 79.788 111.908 80.048 111.46 80.568C111.012 81.08 110.788 81.812 110.788 82.764C110.788 83.716 111.012 84.452 111.46 84.972C111.908 85.492 112.56 85.752 113.416 85.752C113.848 85.752 114.252 85.684 114.628 85.548C115.004 85.404 115.372 85.18 115.732 84.876L116.236 86.1C115.908 86.42 115.488 86.672 114.976 86.856C114.472 87.032 113.936 87.12 113.368 87.12ZM117.576 87V78.54H123.204V79.764H119.052V82.092H122.94V83.316H119.052V85.776H123.204V87H117.576ZM129.903 89.34C129.311 88.46 128.887 87.564 128.631 86.652C128.375 85.732 128.247 84.796 128.247 83.844C128.247 82.884 128.375 81.948 128.631 81.036C128.887 80.124 129.311 79.228 129.903 78.348L130.923 78.756C130.675 79.364 130.471 79.948 130.311 80.508C130.151 81.06 130.035 81.608 129.963 82.152C129.891 82.696 129.855 83.26 129.855 83.844C129.855 84.42 129.891 84.984 129.963 85.536C130.035 86.08 130.151 86.628 130.311 87.18C130.471 87.732 130.675 88.316 130.923 88.932L129.903 89.34ZM134.468 88.38V86.808L134.744 87.072C134.16 87.056 133.608 86.968 133.088 86.808C132.576 86.64 132.132 86.408 131.756 86.112L132.224 84.9C132.472 85.084 132.736 85.244 133.016 85.38C133.304 85.508 133.604 85.608 133.916 85.68C134.236 85.744 134.576 85.776 134.936 85.776C135.52 85.776 135.948 85.672 136.22 85.464C136.492 85.256 136.628 84.996 136.628 84.684C136.628 84.404 136.536 84.18 136.352 84.012C136.168 83.844 135.84 83.708 135.368 83.604L134.096 83.328C133.376 83.168 132.832 82.904 132.464 82.536C132.104 82.16 131.924 81.664 131.924 81.048C131.924 80.576 132.04 80.156 132.272 79.788C132.504 79.412 132.828 79.112 133.244 78.888C133.66 78.664 134.148 78.532 134.708 78.492L134.468 78.672V77.16H135.668V78.672L135.416 78.48C135.872 78.504 136.32 78.596 136.76 78.756C137.208 78.916 137.58 79.148 137.876 79.452L137.42 80.604C137.116 80.324 136.768 80.116 136.376 79.98C135.984 79.836 135.556 79.764 135.092 79.764C134.596 79.764 134.196 79.88 133.892 80.112C133.596 80.336 133.448 80.632 133.448 81C133.448 81.272 133.54 81.492 133.724 81.66C133.908 81.828 134.204 81.956 134.612 82.044L135.884 82.32C136.652 82.488 137.22 82.756 137.588 83.124C137.964 83.484 138.152 83.964 138.152 84.564C138.152 85.028 138.036 85.44 137.804 85.8C137.572 86.152 137.252 86.436 136.844 86.652C136.444 86.86 135.976 86.992 135.44 87.048L135.668 86.796V88.38H134.468ZM139.983 89.34L138.963 88.932C139.211 88.308 139.411 87.716 139.563 87.156C139.723 86.604 139.839 86.06 139.911 85.524C139.991 84.98 140.031 84.42 140.031 83.844C140.031 83.268 139.991 82.712 139.911 82.176C139.839 81.632 139.723 81.08 139.563 80.52C139.411 79.96 139.211 79.372 138.963 78.756L139.983 78.348C140.575 79.228 140.999 80.128 141.255 81.048C141.511 81.96 141.639 82.892 141.639 83.844C141.639 84.796 141.511 85.732 141.255 86.652C140.999 87.564 140.575 88.46 139.983 89.34Z" fill="#808283"/>
<rect x="155" y="79" width="8" height="8" rx="4" fill="#A06AFF"/>
<path d="M167.924 87V78.54H171.596C172.22 78.54 172.748 78.644 173.18 78.852C173.612 79.06 173.94 79.36 174.164 79.752C174.388 80.144 174.5 80.62 174.5 81.18C174.5 81.732 174.388 82.208 174.164 82.608C173.94 83 173.612 83.304 173.18 83.52C172.748 83.728 172.22 83.832 171.596 83.832H169.46V87H167.924ZM169.46 82.62H171.356C171.9 82.62 172.312 82.5 172.592 82.26C172.872 82.012 173.012 81.652 173.012 81.18C173.012 80.708 172.872 80.352 172.592 80.112C172.312 79.872 171.9 79.752 171.356 79.752H169.46V82.62ZM175.752 87V78.54H179.424C180.352 78.54 181.068 78.764 181.572 79.212C182.076 79.652 182.328 80.272 182.328 81.072C182.328 81.592 182.212 82.04 181.98 82.416C181.756 82.792 181.428 83.08 180.996 83.28C180.564 83.48 180.04 83.58 179.424 83.58L179.532 83.4H179.928C180.256 83.4 180.54 83.48 180.78 83.64C181.028 83.8 181.244 84.052 181.428 84.396L182.844 87H181.152L179.688 84.3C179.592 84.124 179.484 83.988 179.364 83.892C179.244 83.788 179.108 83.716 178.956 83.676C178.804 83.636 178.628 83.616 178.428 83.616H177.288V87H175.752ZM177.288 82.476H179.16C179.712 82.476 180.128 82.364 180.408 82.14C180.696 81.908 180.84 81.564 180.84 81.108C180.84 80.66 180.696 80.324 180.408 80.1C180.128 79.868 179.712 79.752 179.16 79.752H177.288V82.476ZM183.979 87V78.54H185.515V87H183.979ZM191.29 87.12C190.41 87.12 189.654 86.944 189.022 86.592C188.398 86.232 187.918 85.728 187.582 85.08C187.246 84.424 187.078 83.652 187.078 82.764C187.078 81.876 187.246 81.108 187.582 80.46C187.918 79.812 188.398 79.312 189.022 78.96C189.654 78.6 190.41 78.42 191.29 78.42C191.858 78.42 192.394 78.508 192.898 78.684C193.41 78.86 193.83 79.112 194.158 79.44L193.654 80.664C193.294 80.36 192.926 80.14 192.55 80.004C192.174 79.86 191.77 79.788 191.338 79.788C190.482 79.788 189.83 80.048 189.382 80.568C188.934 81.08 188.71 81.812 188.71 82.764C188.71 83.716 188.934 84.452 189.382 84.972C189.83 85.492 190.482 85.752 191.338 85.752C191.77 85.752 192.174 85.684 192.55 85.548C192.926 85.404 193.294 85.18 193.654 84.876L194.158 86.1C193.83 86.42 193.41 86.672 192.898 86.856C192.394 87.032 191.858 87.12 191.29 87.12ZM195.498 87V78.54H201.126V79.764H196.974V82.092H200.862V83.316H196.974V85.776H201.126V87H195.498ZM207.825 89.34C207.233 88.46 206.809 87.564 206.553 86.652C206.297 85.732 206.169 84.796 206.169 83.844C206.169 82.884 206.297 81.948 206.553 81.036C206.809 80.124 207.233 79.228 207.825 78.348L208.845 78.756C208.597 79.364 208.393 79.948 208.233 80.508C208.073 81.06 207.957 81.608 207.885 82.152C207.813 82.696 207.777 83.26 207.777 83.844C207.777 84.42 207.813 84.984 207.885 85.536C207.957 86.08 208.073 86.628 208.233 87.18C208.393 87.732 208.597 88.316 208.845 88.932L207.825 89.34ZM212.39 88.38V86.808L212.666 87.072C212.082 87.056 211.53 86.968 211.01 86.808C210.498 86.64 210.054 86.408 209.678 86.112L210.146 84.9C210.394 85.084 210.658 85.244 210.938 85.38C211.226 85.508 211.526 85.608 211.838 85.68C212.158 85.744 212.498 85.776 212.858 85.776C213.442 85.776 213.87 85.672 214.142 85.464C214.414 85.256 214.55 84.996 214.55 84.684C214.55 84.404 214.458 84.18 214.274 84.012C214.09 83.844 213.762 83.708 213.29 83.604L212.018 83.328C211.298 83.168 210.754 82.904 210.386 82.536C210.026 82.16 209.846 81.664 209.846 81.048C209.846 80.576 209.962 80.156 210.194 79.788C210.426 79.412 210.75 79.112 211.166 78.888C211.582 78.664 212.07 78.532 212.63 78.492L212.39 78.672V77.16H213.59V78.672L213.338 78.48C213.794 78.504 214.242 78.596 214.682 78.756C215.13 78.916 215.502 79.148 215.798 79.452L215.342 80.604C215.038 80.324 214.69 80.116 214.298 79.98C213.906 79.836 213.478 79.764 213.014 79.764C212.518 79.764 212.118 79.88 211.814 80.112C211.518 80.336 211.37 80.632 211.37 81C211.37 81.272 211.462 81.492 211.646 81.66C211.83 81.828 212.126 81.956 212.534 82.044L213.806 82.32C214.574 82.488 215.142 82.756 215.51 83.124C215.886 83.484 216.074 83.964 216.074 84.564C216.074 85.028 215.958 85.44 215.726 85.8C215.494 86.152 215.174 86.436 214.766 86.652C214.366 86.86 213.898 86.992 213.362 87.048L213.59 86.796V88.38H212.39ZM217.905 89.34L216.885 88.932C217.133 88.308 217.333 87.716 217.485 87.156C217.645 86.604 217.761 86.06 217.833 85.524C217.913 84.98 217.953 84.42 217.953 83.844C217.953 83.268 217.913 82.712 217.833 82.176C217.761 81.632 217.645 81.08 217.485 80.52C217.333 79.96 217.133 79.372 216.885 78.756L217.905 78.348C218.497 79.228 218.921 80.128 219.177 81.048C219.433 81.96 219.561 82.892 219.561 83.844C219.561 84.796 219.433 85.732 219.177 86.652C218.921 87.564 218.497 88.46 217.905 89.34Z" fill="#808283"/>
<path d="M19.12 120.38V118.808L19.396 119.072C18.812 119.056 18.26 118.968 17.74 118.808C17.228 118.64 16.784 118.408 16.408 118.112L16.876 116.9C17.124 117.084 17.388 117.244 17.668 117.38C17.956 117.508 18.256 117.608 18.568 117.68C18.888 117.744 19.228 117.776 19.588 117.776C20.172 117.776 20.6 117.672 20.872 117.464C21.144 117.256 21.28 116.996 21.28 116.684C21.28 116.404 21.188 116.18 21.004 116.012C20.82 115.844 20.492 115.708 20.02 115.604L18.748 115.328C18.028 115.168 17.484 114.904 17.116 114.536C16.756 114.16 16.576 113.664 16.576 113.048C16.576 112.576 16.692 112.156 16.924 111.788C17.156 111.412 17.48 111.112 17.896 110.888C18.312 110.664 18.8 110.532 19.36 110.492L19.12 110.672V109.16H20.32V110.672L20.068 110.48C20.524 110.504 20.972 110.596 21.412 110.756C21.86 110.916 22.232 111.148 22.528 111.452L22.072 112.604C21.768 112.324 21.42 112.116 21.028 111.98C20.636 111.836 20.208 111.764 19.744 111.764C19.248 111.764 18.848 111.88 18.544 112.112C18.248 112.336 18.1 112.632 18.1 113C18.1 113.272 18.192 113.492 18.376 113.66C18.56 113.828 18.856 113.956 19.264 114.044L20.536 114.32C21.304 114.488 21.872 114.756 22.24 115.124C22.616 115.484 22.804 115.964 22.804 116.564C22.804 117.028 22.688 117.44 22.456 117.8C22.224 118.152 21.904 118.436 21.496 118.652C21.096 118.86 20.628 118.992 20.092 119.048L20.32 118.796V120.38H19.12ZM26.8673 119.12C26.4993 119.12 26.1353 119.08 25.7753 119C25.4233 118.92 25.0913 118.808 24.7793 118.664C24.4753 118.52 24.2113 118.352 23.9873 118.16L24.4913 116.984C24.8593 117.264 25.2393 117.476 25.6313 117.62C26.0233 117.756 26.4273 117.824 26.8433 117.824C27.3473 117.824 27.7393 117.696 28.0193 117.44C28.3073 117.176 28.4513 116.824 28.4513 116.384C28.4513 115.936 28.3153 115.576 28.0433 115.304C27.7713 115.024 27.3993 114.884 26.9273 114.884C26.5833 114.884 26.2753 114.952 26.0033 115.088C25.7313 115.216 25.4833 115.416 25.2593 115.688H24.2273V110.54H29.4233V111.812H25.7273V114.5H25.3313C25.5393 114.22 25.8113 114.004 26.1473 113.852C26.4913 113.7 26.8713 113.624 27.2873 113.624C27.8233 113.624 28.2873 113.74 28.6793 113.972C29.0793 114.196 29.3873 114.512 29.6033 114.92C29.8273 115.32 29.9393 115.788 29.9393 116.324C29.9393 116.876 29.8153 117.364 29.5673 117.788C29.3193 118.204 28.9633 118.532 28.4993 118.772C28.0433 119.004 27.4993 119.12 26.8673 119.12ZM33.9906 119.12C33.3266 119.12 32.7626 118.952 32.2986 118.616C31.8426 118.272 31.4946 117.776 31.2546 117.128C31.0226 116.48 30.9066 115.688 30.9066 114.752C30.9066 113.808 31.0226 113.016 31.2546 112.376C31.4946 111.728 31.8426 111.24 32.2986 110.912C32.7626 110.584 33.3266 110.42 33.9906 110.42C34.6626 110.42 35.2266 110.584 35.6826 110.912C36.1466 111.24 36.4946 111.724 36.7266 112.364C36.9586 113.004 37.0746 113.796 37.0746 114.74C37.0746 115.676 36.9546 116.472 36.7146 117.128C36.4826 117.776 36.1386 118.272 35.6826 118.616C35.2266 118.952 34.6626 119.12 33.9906 119.12ZM33.9906 117.86C34.5346 117.86 34.9346 117.612 35.1906 117.116C35.4546 116.612 35.5866 115.82 35.5866 114.74C35.5866 113.668 35.4546 112.892 35.1906 112.412C34.9346 111.924 34.5346 111.68 33.9906 111.68C33.4546 111.68 33.0546 111.924 32.7906 112.412C32.5266 112.892 32.3946 113.672 32.3946 114.752C32.3946 115.824 32.5266 116.612 32.7906 117.116C33.0546 117.612 33.4546 117.86 33.9906 117.86ZM41.1859 119.12C40.5219 119.12 39.9579 118.952 39.4939 118.616C39.0379 118.272 38.6899 117.776 38.4499 117.128C38.2179 116.48 38.1019 115.688 38.1019 114.752C38.1019 113.808 38.2179 113.016 38.4499 112.376C38.6899 111.728 39.0379 111.24 39.4939 110.912C39.9579 110.584 40.5219 110.42 41.1859 110.42C41.8579 110.42 42.4219 110.584 42.8779 110.912C43.3419 111.24 43.6899 111.724 43.9219 112.364C44.1539 113.004 44.2699 113.796 44.2699 114.74C44.2699 115.676 44.1499 116.472 43.9099 117.128C43.6779 117.776 43.3339 118.272 42.8779 118.616C42.4219 118.952 41.8579 119.12 41.1859 119.12ZM41.1859 117.86C41.7299 117.86 42.1299 117.612 42.3859 117.116C42.6499 116.612 42.7819 115.82 42.7819 114.74C42.7819 113.668 42.6499 112.892 42.3859 112.412C42.1299 111.924 41.7299 111.68 41.1859 111.68C40.6499 111.68 40.2499 111.924 39.9859 112.412C39.7219 112.892 39.5899 113.672 39.5899 114.752C39.5899 115.824 39.7219 116.612 39.9859 117.116C40.2499 117.612 40.6499 117.86 41.1859 117.86ZM45.7053 119V110.54H47.2413V114.284H47.2653L50.9973 110.54H52.8693L48.4053 114.956L48.4173 114.26L53.0733 119H51.1773L47.2653 115.088H47.2413V119H45.7053Z" fill="#808283"/>
<rect x="58" y="114.5" width="454" height="1" fill="#23252D"/>
<path d="M19.12 170.38V168.808L19.396 169.072C18.812 169.056 18.26 168.968 17.74 168.808C17.228 168.64 16.784 168.408 16.408 168.112L16.876 166.9C17.124 167.084 17.388 167.244 17.668 167.38C17.956 167.508 18.256 167.608 18.568 167.68C18.888 167.744 19.228 167.776 19.588 167.776C20.172 167.776 20.6 167.672 20.872 167.464C21.144 167.256 21.28 166.996 21.28 166.684C21.28 166.404 21.188 166.18 21.004 166.012C20.82 165.844 20.492 165.708 20.02 165.604L18.748 165.328C18.028 165.168 17.484 164.904 17.116 164.536C16.756 164.16 16.576 163.664 16.576 163.048C16.576 162.576 16.692 162.156 16.924 161.788C17.156 161.412 17.48 161.112 17.896 160.888C18.312 160.664 18.8 160.532 19.36 160.492L19.12 160.672V159.16H20.32V160.672L20.068 160.48C20.524 160.504 20.972 160.596 21.412 160.756C21.86 160.916 22.232 161.148 22.528 161.452L22.072 162.604C21.768 162.324 21.42 162.116 21.028 161.98C20.636 161.836 20.208 161.764 19.744 161.764C19.248 161.764 18.848 161.88 18.544 162.112C18.248 162.336 18.1 162.632 18.1 163C18.1 163.272 18.192 163.492 18.376 163.66C18.56 163.828 18.856 163.956 19.264 164.044L20.536 164.32C21.304 164.488 21.872 164.756 22.24 165.124C22.616 165.484 22.804 165.964 22.804 166.564C22.804 167.028 22.688 167.44 22.456 167.8C22.224 168.152 21.904 168.436 21.496 168.652C21.096 168.86 20.628 168.992 20.092 169.048L20.32 168.796V170.38H19.12ZM24.5033 169V167.728H26.4113V161.836H27.1553L24.9353 163.18L24.3353 162.052L26.8553 160.54H27.9473V167.728H29.7353V169H24.5033ZM33.9906 169.12C33.3266 169.12 32.7626 168.952 32.2986 168.616C31.8426 168.272 31.4946 167.776 31.2546 167.128C31.0226 166.48 30.9066 165.688 30.9066 164.752C30.9066 163.808 31.0226 163.016 31.2546 162.376C31.4946 161.728 31.8426 161.24 32.2986 160.912C32.7626 160.584 33.3266 160.42 33.9906 160.42C34.6626 160.42 35.2266 160.584 35.6826 160.912C36.1466 161.24 36.4946 161.724 36.7266 162.364C36.9586 163.004 37.0746 163.796 37.0746 164.74C37.0746 165.676 36.9546 166.472 36.7146 167.128C36.4826 167.776 36.1386 168.272 35.6826 168.616C35.2266 168.952 34.6626 169.12 33.9906 169.12ZM33.9906 167.86C34.5346 167.86 34.9346 167.612 35.1906 167.116C35.4546 166.612 35.5866 165.82 35.5866 164.74C35.5866 163.668 35.4546 162.892 35.1906 162.412C34.9346 161.924 34.5346 161.68 33.9906 161.68C33.4546 161.68 33.0546 161.924 32.7906 162.412C32.5266 162.892 32.3946 163.672 32.3946 164.752C32.3946 165.824 32.5266 166.612 32.7906 167.116C33.0546 167.612 33.4546 167.86 33.9906 167.86ZM41.1859 169.12C40.5219 169.12 39.9579 168.952 39.4939 168.616C39.0379 168.272 38.6899 167.776 38.4499 167.128C38.2179 166.48 38.1019 165.688 38.1019 164.752C38.1019 163.808 38.2179 163.016 38.4499 162.376C38.6899 161.728 39.0379 161.24 39.4939 160.912C39.9579 160.584 40.5219 160.42 41.1859 160.42C41.8579 160.42 42.4219 160.584 42.8779 160.912C43.3419 161.24 43.6899 161.724 43.9219 162.364C44.1539 163.004 44.2699 163.796 44.2699 164.74C44.2699 165.676 44.1499 166.472 43.9099 167.128C43.6779 167.776 43.3339 168.272 42.8779 168.616C42.4219 168.952 41.8579 169.12 41.1859 169.12ZM41.1859 167.86C41.7299 167.86 42.1299 167.612 42.3859 167.116C42.6499 166.612 42.7819 165.82 42.7819 164.74C42.7819 163.668 42.6499 162.892 42.3859 162.412C42.1299 161.924 41.7299 161.68 41.1859 161.68C40.6499 161.68 40.2499 161.924 39.9859 162.412C39.7219 162.892 39.5899 163.672 39.5899 164.752C39.5899 165.824 39.7219 166.612 39.9859 167.116C40.2499 167.612 40.6499 167.86 41.1859 167.86ZM45.7053 169V160.54H47.2413V164.284H47.2653L50.9973 160.54H52.8693L48.4053 164.956L48.4173 164.26L53.0733 169H51.1773L47.2653 165.088H47.2413V169H45.7053Z" fill="#808283"/>
<rect x="58" y="164.5" width="454" height="1" fill="#23252D"/>
<path d="M19.12 220.38V218.808L19.396 219.072C18.812 219.056 18.26 218.968 17.74 218.808C17.228 218.64 16.784 218.408 16.408 218.112L16.876 216.9C17.124 217.084 17.388 217.244 17.668 217.38C17.956 217.508 18.256 217.608 18.568 217.68C18.888 217.744 19.228 217.776 19.588 217.776C20.172 217.776 20.6 217.672 20.872 217.464C21.144 217.256 21.28 216.996 21.28 216.684C21.28 216.404 21.188 216.18 21.004 216.012C20.82 215.844 20.492 215.708 20.02 215.604L18.748 215.328C18.028 215.168 17.484 214.904 17.116 214.536C16.756 214.16 16.576 213.664 16.576 213.048C16.576 212.576 16.692 212.156 16.924 211.788C17.156 211.412 17.48 211.112 17.896 210.888C18.312 210.664 18.8 210.532 19.36 210.492L19.12 210.672V209.16H20.32V210.672L20.068 210.48C20.524 210.504 20.972 210.596 21.412 210.756C21.86 210.916 22.232 211.148 22.528 211.452L22.072 212.604C21.768 212.324 21.42 212.116 21.028 211.98C20.636 211.836 20.208 211.764 19.744 211.764C19.248 211.764 18.848 211.88 18.544 212.112C18.248 212.336 18.1 212.632 18.1 213C18.1 213.272 18.192 213.492 18.376 213.66C18.56 213.828 18.856 213.956 19.264 214.044L20.536 214.32C21.304 214.488 21.872 214.756 22.24 215.124C22.616 215.484 22.804 215.964 22.804 216.564C22.804 217.028 22.688 217.44 22.456 217.8C22.224 218.152 21.904 218.436 21.496 218.652C21.096 218.86 20.628 218.992 20.092 219.048L20.32 218.796V220.38H19.12ZM24.5033 219V217.728H26.4113V211.836H27.1553L24.9353 213.18L24.3353 212.052L26.8553 210.54H27.9473V217.728H29.7353V219H24.5033ZM33.9906 219.12C33.3266 219.12 32.7626 218.952 32.2986 218.616C31.8426 218.272 31.4946 217.776 31.2546 217.128C31.0226 216.48 30.9066 215.688 30.9066 214.752C30.9066 213.808 31.0226 213.016 31.2546 212.376C31.4946 211.728 31.8426 211.24 32.2986 210.912C32.7626 210.584 33.3266 210.42 33.9906 210.42C34.6626 210.42 35.2266 210.584 35.6826 210.912C36.1466 211.24 36.4946 211.724 36.7266 212.364C36.9586 213.004 37.0746 213.796 37.0746 214.74C37.0746 215.676 36.9546 216.472 36.7146 217.128C36.4826 217.776 36.1386 218.272 35.6826 218.616C35.2266 218.952 34.6626 219.12 33.9906 219.12ZM33.9906 217.86C34.5346 217.86 34.9346 217.612 35.1906 217.116C35.4546 216.612 35.5866 215.82 35.5866 214.74C35.5866 213.668 35.4546 212.892 35.1906 212.412C34.9346 211.924 34.5346 211.68 33.9906 211.68C33.4546 211.68 33.0546 211.924 32.7906 212.412C32.5266 212.892 32.3946 213.672 32.3946 214.752C32.3946 215.824 32.5266 216.612 32.7906 217.116C33.0546 217.612 33.4546 217.86 33.9906 217.86ZM38.5099 219V210.54H40.0459V214.284H40.0699L43.8019 210.54H45.6739L41.2099 214.956L41.2219 214.26L45.8779 219H43.9819L40.0699 215.088H40.0459V219H38.5099Z" fill="#808283"/>
<rect x="58" y="214.5" width="454" height="1" fill="#23252D"/>
<path d="M19.12 270.38V268.808L19.396 269.072C18.812 269.056 18.26 268.968 17.74 268.808C17.228 268.64 16.784 268.408 16.408 268.112L16.876 266.9C17.124 267.084 17.388 267.244 17.668 267.38C17.956 267.508 18.256 267.608 18.568 267.68C18.888 267.744 19.228 267.776 19.588 267.776C20.172 267.776 20.6 267.672 20.872 267.464C21.144 267.256 21.28 266.996 21.28 266.684C21.28 266.404 21.188 266.18 21.004 266.012C20.82 265.844 20.492 265.708 20.02 265.604L18.748 265.328C18.028 265.168 17.484 264.904 17.116 264.536C16.756 264.16 16.576 263.664 16.576 263.048C16.576 262.576 16.692 262.156 16.924 261.788C17.156 261.412 17.48 261.112 17.896 260.888C18.312 260.664 18.8 260.532 19.36 260.492L19.12 260.672V259.16H20.32V260.672L20.068 260.48C20.524 260.504 20.972 260.596 21.412 260.756C21.86 260.916 22.232 261.148 22.528 261.452L22.072 262.604C21.768 262.324 21.42 262.116 21.028 261.98C20.636 261.836 20.208 261.764 19.744 261.764C19.248 261.764 18.848 261.88 18.544 262.112C18.248 262.336 18.1 262.632 18.1 263C18.1 263.272 18.192 263.492 18.376 263.66C18.56 263.828 18.856 263.956 19.264 264.044L20.536 264.32C21.304 264.488 21.872 264.756 22.24 265.124C22.616 265.484 22.804 265.964 22.804 266.564C22.804 267.028 22.688 267.44 22.456 267.8C22.224 268.152 21.904 268.436 21.496 268.652C21.096 268.86 20.628 268.992 20.092 269.048L20.32 268.796V270.38H19.12ZM24.5033 269V267.728H26.4113V261.836H27.1553L24.9353 263.18L24.3353 262.052L26.8553 260.54H27.9473V267.728H29.7353V269H24.5033ZM33.9906 269.12C33.3266 269.12 32.7626 268.952 32.2986 268.616C31.8426 268.272 31.4946 267.776 31.2546 267.128C31.0226 266.48 30.9066 265.688 30.9066 264.752C30.9066 263.808 31.0226 263.016 31.2546 262.376C31.4946 261.728 31.8426 261.24 32.2986 260.912C32.7626 260.584 33.3266 260.42 33.9906 260.42C34.6626 260.42 35.2266 260.584 35.6826 260.912C36.1466 261.24 36.4946 261.724 36.7266 262.364C36.9586 263.004 37.0746 263.796 37.0746 264.74C37.0746 265.676 36.9546 266.472 36.7146 267.128C36.4826 267.776 36.1386 268.272 35.6826 268.616C35.2266 268.952 34.6626 269.12 33.9906 269.12ZM33.9906 267.86C34.5346 267.86 34.9346 267.612 35.1906 267.116C35.4546 266.612 35.5866 265.82 35.5866 264.74C35.5866 263.668 35.4546 262.892 35.1906 262.412C34.9346 261.924 34.5346 261.68 33.9906 261.68C33.4546 261.68 33.0546 261.924 32.7906 262.412C32.5266 262.892 32.3946 263.672 32.3946 264.752C32.3946 265.824 32.5266 266.612 32.7906 267.116C33.0546 267.612 33.4546 267.86 33.9906 267.86ZM41.1859 269.12C40.5219 269.12 39.9579 268.952 39.4939 268.616C39.0379 268.272 38.6899 267.776 38.4499 267.128C38.2179 266.48 38.1019 265.688 38.1019 264.752C38.1019 263.808 38.2179 263.016 38.4499 262.376C38.6899 261.728 39.0379 261.24 39.4939 260.912C39.9579 260.584 40.5219 260.42 41.1859 260.42C41.8579 260.42 42.4219 260.584 42.8779 260.912C43.3419 261.24 43.6899 261.724 43.9219 262.364C44.1539 263.004 44.2699 263.796 44.2699 264.74C44.2699 265.676 44.1499 266.472 43.9099 267.128C43.6779 267.776 43.3339 268.272 42.8779 268.616C42.4219 268.952 41.8579 269.12 41.1859 269.12ZM41.1859 267.86C41.7299 267.86 42.1299 267.612 42.3859 267.116C42.6499 266.612 42.7819 265.82 42.7819 264.74C42.7819 263.668 42.6499 262.892 42.3859 262.412C42.1299 261.924 41.7299 261.68 41.1859 261.68C40.6499 261.68 40.2499 261.924 39.9859 262.412C39.7219 262.892 39.5899 263.672 39.5899 264.752C39.5899 265.824 39.7219 266.612 39.9859 267.116C40.2499 267.612 40.6499 267.86 41.1859 267.86Z" fill="#808283"/>
<rect x="58" y="264.5" width="454" height="1" fill="#23252D"/>
<path d="M19.12 320.38V318.808L19.396 319.072C18.812 319.056 18.26 318.968 17.74 318.808C17.228 318.64 16.784 318.408 16.408 318.112L16.876 316.9C17.124 317.084 17.388 317.244 17.668 317.38C17.956 317.508 18.256 317.608 18.568 317.68C18.888 317.744 19.228 317.776 19.588 317.776C20.172 317.776 20.6 317.672 20.872 317.464C21.144 317.256 21.28 316.996 21.28 316.684C21.28 316.404 21.188 316.18 21.004 316.012C20.82 315.844 20.492 315.708 20.02 315.604L18.748 315.328C18.028 315.168 17.484 314.904 17.116 314.536C16.756 314.16 16.576 313.664 16.576 313.048C16.576 312.576 16.692 312.156 16.924 311.788C17.156 311.412 17.48 311.112 17.896 310.888C18.312 310.664 18.8 310.532 19.36 310.492L19.12 310.672V309.16H20.32V310.672L20.068 310.48C20.524 310.504 20.972 310.596 21.412 310.756C21.86 310.916 22.232 311.148 22.528 311.452L22.072 312.604C21.768 312.324 21.42 312.116 21.028 311.98C20.636 311.836 20.208 311.764 19.744 311.764C19.248 311.764 18.848 311.88 18.544 312.112C18.248 312.336 18.1 312.632 18.1 313C18.1 313.272 18.192 313.492 18.376 313.66C18.56 313.828 18.856 313.956 19.264 314.044L20.536 314.32C21.304 314.488 21.872 314.756 22.24 315.124C22.616 315.484 22.804 315.964 22.804 316.564C22.804 317.028 22.688 317.44 22.456 317.8C22.224 318.152 21.904 318.436 21.496 318.652C21.096 318.86 20.628 318.992 20.092 319.048L20.32 318.796V320.38H19.12ZM24.5033 319V317.728H26.4113V311.836H27.1553L24.9353 313.18L24.3353 312.052L26.8553 310.54H27.9473V317.728H29.7353V319H24.5033Z" fill="#808283"/>
<rect x="58" y="314.5" width="454" height="1" fill="#23252D"/>
<path d="M19.12 370.38V368.808L19.396 369.072C18.812 369.056 18.26 368.968 17.74 368.808C17.228 368.64 16.784 368.408 16.408 368.112L16.876 366.9C17.124 367.084 17.388 367.244 17.668 367.38C17.956 367.508 18.256 367.608 18.568 367.68C18.888 367.744 19.228 367.776 19.588 367.776C20.172 367.776 20.6 367.672 20.872 367.464C21.144 367.256 21.28 366.996 21.28 366.684C21.28 366.404 21.188 366.18 21.004 366.012C20.82 365.844 20.492 365.708 20.02 365.604L18.748 365.328C18.028 365.168 17.484 364.904 17.116 364.536C16.756 364.16 16.576 363.664 16.576 363.048C16.576 362.576 16.692 362.156 16.924 361.788C17.156 361.412 17.48 361.112 17.896 360.888C18.312 360.664 18.8 360.532 19.36 360.492L19.12 360.672V359.16H20.32V360.672L20.068 360.48C20.524 360.504 20.972 360.596 21.412 360.756C21.86 360.916 22.232 361.148 22.528 361.452L22.072 362.604C21.768 362.324 21.42 362.116 21.028 361.98C20.636 361.836 20.208 361.764 19.744 361.764C19.248 361.764 18.848 361.88 18.544 362.112C18.248 362.336 18.1 362.632 18.1 363C18.1 363.272 18.192 363.492 18.376 363.66C18.56 363.828 18.856 363.956 19.264 364.044L20.536 364.32C21.304 364.488 21.872 364.756 22.24 365.124C22.616 365.484 22.804 365.964 22.804 366.564C22.804 367.028 22.688 367.44 22.456 367.8C22.224 368.152 21.904 368.436 21.496 368.652C21.096 368.86 20.628 368.992 20.092 369.048L20.32 368.796V370.38H19.12ZM26.7953 369.12C26.1313 369.12 25.5673 368.952 25.1033 368.616C24.6473 368.272 24.2993 367.776 24.0593 367.128C23.8273 366.48 23.7113 365.688 23.7113 364.752C23.7113 363.808 23.8273 363.016 24.0593 362.376C24.2993 361.728 24.6473 361.24 25.1033 360.912C25.5673 360.584 26.1313 360.42 26.7953 360.42C27.4673 360.42 28.0313 360.584 28.4873 360.912C28.9513 361.24 29.2993 361.724 29.5313 362.364C29.7633 363.004 29.8793 363.796 29.8793 364.74C29.8793 365.676 29.7593 366.472 29.5193 367.128C29.2873 367.776 28.9433 368.272 28.4873 368.616C28.0313 368.952 27.4673 369.12 26.7953 369.12ZM26.7953 367.86C27.3393 367.86 27.7393 367.612 27.9953 367.116C28.2593 366.612 28.3913 365.82 28.3913 364.74C28.3913 363.668 28.2593 362.892 27.9953 362.412C27.7393 361.924 27.3393 361.68 26.7953 361.68C26.2593 361.68 25.8593 361.924 25.5953 362.412C25.3313 362.892 25.1993 363.672 25.1993 364.752C25.1993 365.824 25.3313 366.612 25.5953 367.116C25.8593 367.612 26.2593 367.86 26.7953 367.86ZM31.0386 369V367.332H32.7186V369H31.0386ZM36.9672 369.12C36.3032 369.12 35.7392 368.952 35.2752 368.616C34.8192 368.272 34.4712 367.776 34.2312 367.128C33.9992 366.48 33.8832 365.688 33.8832 364.752C33.8832 363.808 33.9992 363.016 34.2312 362.376C34.4712 361.728 34.8192 361.24 35.2752 360.912C35.7392 360.584 36.3032 360.42 36.9672 360.42C37.6392 360.42 38.2032 360.584 38.6592 360.912C39.1232 361.24 39.4712 361.724 39.7032 362.364C39.9352 363.004 40.0512 363.796 40.0512 364.74C40.0512 365.676 39.9312 366.472 39.6912 367.128C39.4592 367.776 39.1152 368.272 38.6592 368.616C38.2032 368.952 37.6392 369.12 36.9672 369.12ZM36.9672 367.86C37.5112 367.86 37.9112 367.612 38.1672 367.116C38.4312 366.612 38.5632 365.82 38.5632 364.74C38.5632 363.668 38.4312 362.892 38.1672 362.412C37.9112 361.924 37.5112 361.68 36.9672 361.68C36.4312 361.68 36.0312 361.924 35.7672 362.412C35.5032 362.892 35.3712 363.672 35.3712 364.752C35.3712 365.824 35.5032 366.612 35.7672 367.116C36.0312 367.612 36.4312 367.86 36.9672 367.86ZM41.8705 369V367.728H43.7785V361.836H44.5225L42.3025 363.18L41.7025 362.052L44.2225 360.54H45.3145V367.728H47.1025V369H41.8705Z" fill="#808283"/>
<rect x="58" y="364.5" width="454" height="1" fill="#313338"/>
<rect x="75.5" y="365" width="1" height="8" fill="#313338"/>
<path d="M67.9644 379.708V378.616C67.9644 378.344 67.9924 378.088 68.0484 377.848C68.1124 377.608 68.2124 377.372 68.3484 377.14C68.4924 376.908 68.6804 376.676 68.9124 376.444L69.5364 376.936C69.3684 377.112 69.2324 377.28 69.1284 377.44C69.0244 377.592 68.9484 377.748 68.9004 377.908C68.8604 378.06 68.8404 378.22 68.8404 378.388L68.4684 378.04H69.6444V379.708H67.9644ZM71.601 385V383.728H73.509V377.836H74.253L72.033 379.18L71.433 378.052L73.953 376.54H75.045V383.728H76.833V385H71.601ZM78.7963 385V383.728H80.7043V377.836H81.4483L79.2283 379.18L78.6283 378.052L81.1483 376.54H82.2403V383.728H84.0283V385H78.7963Z" fill="#808283"/>
<rect x="113.5" y="365" width="1" height="8" fill="#313338"/>
<path d="M105.964 379.708V378.616C105.964 378.344 105.992 378.088 106.048 377.848C106.112 377.608 106.212 377.372 106.348 377.14C106.492 376.908 106.68 376.676 106.912 376.444L107.536 376.936C107.368 377.112 107.232 377.28 107.128 377.44C107.024 377.592 106.948 377.748 106.9 377.908C106.86 378.06 106.84 378.22 106.84 378.388L106.468 378.04H107.644V379.708H105.964ZM109.601 385V383.728H111.509V377.836H112.253L110.033 379.18L109.433 378.052L111.953 376.54H113.045V383.728H114.833V385H109.601ZM116.448 385V383.86L119.184 380.944C119.432 380.68 119.628 380.436 119.772 380.212C119.924 379.988 120.036 379.772 120.108 379.564C120.18 379.356 120.216 379.148 120.216 378.94C120.216 378.54 120.088 378.236 119.832 378.028C119.584 377.82 119.22 377.716 118.74 377.716C118.364 377.716 117.996 377.788 117.636 377.932C117.284 378.068 116.944 378.284 116.616 378.58L116.1 377.428C116.436 377.124 116.856 376.88 117.36 376.696C117.864 376.512 118.388 376.42 118.932 376.42C119.54 376.42 120.052 376.512 120.468 376.696C120.884 376.88 121.2 377.148 121.416 377.5C121.632 377.852 121.74 378.28 121.74 378.784C121.74 379.04 121.708 379.292 121.644 379.54C121.588 379.78 121.496 380.02 121.368 380.26C121.248 380.5 121.092 380.748 120.9 381.004C120.716 381.252 120.492 381.512 120.228 381.784L117.972 384.136V383.728H122.064V385H116.448Z" fill="#808283"/>
<rect x="151.5" y="365" width="1" height="8" fill="#313338"/>
<path d="M143.964 379.708V378.616C143.964 378.344 143.992 378.088 144.048 377.848C144.112 377.608 144.212 377.372 144.348 377.14C144.492 376.908 144.68 376.676 144.912 376.444L145.536 376.936C145.368 377.112 145.232 377.28 145.128 377.44C145.024 377.592 144.948 377.748 144.9 377.908C144.86 378.06 144.84 378.22 144.84 378.388L144.468 378.04H145.644V379.708H143.964ZM147.601 385V383.728H149.509V377.836H150.253L148.033 379.18L147.433 378.052L149.953 376.54H151.045V383.728H152.833V385H147.601ZM156.92 385.12C156.536 385.12 156.16 385.08 155.792 385C155.432 384.928 155.096 384.82 154.784 384.676C154.472 384.532 154.2 384.36 153.968 384.16L154.472 382.984C154.848 383.272 155.232 383.484 155.624 383.62C156.016 383.756 156.432 383.824 156.872 383.824C157.224 383.824 157.52 383.776 157.76 383.68C158 383.584 158.18 383.44 158.3 383.248C158.428 383.056 158.492 382.824 158.492 382.552C158.492 382.152 158.356 381.856 158.084 381.664C157.82 381.464 157.432 381.364 156.92 381.364H155.564V380.092H156.776C157.08 380.092 157.34 380.044 157.556 379.948C157.772 379.844 157.94 379.7 158.06 379.516C158.18 379.332 158.24 379.108 158.24 378.844C158.24 378.476 158.116 378.196 157.868 378.004C157.628 377.812 157.276 377.716 156.812 377.716C156.396 377.716 156.008 377.788 155.648 377.932C155.288 378.068 154.944 378.284 154.616 378.58L154.112 377.428C154.448 377.108 154.868 376.86 155.372 376.684C155.876 376.508 156.4 376.42 156.944 376.42C157.528 376.42 158.028 376.512 158.444 376.696C158.86 376.872 159.176 377.128 159.392 377.464C159.616 377.792 159.728 378.192 159.728 378.664C159.728 379.168 159.588 379.604 159.308 379.972C159.028 380.332 158.644 380.572 158.156 380.692V380.548C158.54 380.612 158.868 380.74 159.14 380.932C159.412 381.124 159.62 381.368 159.764 381.664C159.908 381.96 159.98 382.3 159.98 382.684C159.98 383.18 159.856 383.612 159.608 383.98C159.36 384.348 159.008 384.632 158.552 384.832C158.096 385.024 157.552 385.12 156.92 385.12Z" fill="#808283"/>
<rect x="189.5" y="365" width="1" height="8" fill="#313338"/>
<path d="M181.964 379.708V378.616C181.964 378.344 181.992 378.088 182.048 377.848C182.112 377.608 182.212 377.372 182.348 377.14C182.492 376.908 182.68 376.676 182.912 376.444L183.536 376.936C183.368 377.112 183.232 377.28 183.128 377.44C183.024 377.592 182.948 377.748 182.9 377.908C182.86 378.06 182.84 378.22 182.84 378.388L182.468 378.04H183.644V379.708H181.964ZM185.601 385V383.728H187.509V377.836H188.253L186.033 379.18L185.433 378.052L187.953 376.54H189.045V383.728H190.833V385H185.601ZM195.676 385V383.392H191.992V382.264L195.94 376.54H197.212V382.12H198.4V383.392H197.212V385H195.676ZM195.676 382.12V378.376H196.024L193.192 382.528V382.12H195.676Z" fill="#808283"/>
<rect x="227.5" y="365" width="1" height="8" fill="#313338"/>
<path d="M219.964 379.708V378.616C219.964 378.344 219.992 378.088 220.048 377.848C220.112 377.608 220.212 377.372 220.348 377.14C220.492 376.908 220.68 376.676 220.912 376.444L221.536 376.936C221.368 377.112 221.232 377.28 221.128 377.44C221.024 377.592 220.948 377.748 220.9 377.908C220.86 378.06 220.84 378.22 220.84 378.388L220.468 378.04H221.644V379.708H219.964ZM223.601 385V383.728H225.509V377.836H226.253L224.033 379.18L223.433 378.052L225.953 376.54H227.045V383.728H228.833V385H223.601ZM233.16 385.12C232.792 385.12 232.428 385.08 232.068 385C231.716 384.92 231.384 384.808 231.072 384.664C230.768 384.52 230.504 384.352 230.28 384.16L230.784 382.984C231.152 383.264 231.532 383.476 231.924 383.62C232.316 383.756 232.72 383.824 233.136 383.824C233.64 383.824 234.032 383.696 234.312 383.44C234.6 383.176 234.744 382.824 234.744 382.384C234.744 381.936 234.608 381.576 234.336 381.304C234.064 381.024 233.692 380.884 233.22 380.884C232.876 380.884 232.568 380.952 232.296 381.088C232.024 381.216 231.776 381.416 231.552 381.688H230.52V376.54H235.716V377.812H232.02V380.5H231.624C231.832 380.22 232.104 380.004 232.44 379.852C232.784 379.7 233.164 379.624 233.58 379.624C234.116 379.624 234.58 379.74 234.972 379.972C235.372 380.196 235.68 380.512 235.896 380.92C236.12 381.32 236.232 381.788 236.232 382.324C236.232 382.876 236.108 383.364 235.86 383.788C235.612 384.204 235.256 384.532 234.792 384.772C234.336 385.004 233.792 385.12 233.16 385.12Z" fill="#808283"/>
<rect x="265.5" y="365" width="1" height="8" fill="#313338"/>
<path d="M257.964 379.708V378.616C257.964 378.344 257.992 378.088 258.048 377.848C258.112 377.608 258.212 377.372 258.348 377.14C258.492 376.908 258.68 376.676 258.912 376.444L259.536 376.936C259.368 377.112 259.232 377.28 259.128 377.44C259.024 377.592 258.948 377.748 258.9 377.908C258.86 378.06 258.84 378.22 258.84 378.388L258.468 378.04H259.644V379.708H257.964ZM261.601 385V383.728H263.509V377.836H264.253L262.033 379.18L261.433 378.052L263.953 376.54H265.045V383.728H266.833V385H261.601ZM271.4 385.12C270.704 385.12 270.108 384.956 269.612 384.628C269.124 384.292 268.752 383.812 268.496 383.188C268.24 382.564 268.112 381.808 268.112 380.92C268.112 379.96 268.256 379.148 268.544 378.484C268.832 377.812 269.248 377.3 269.792 376.948C270.336 376.596 270.988 376.42 271.748 376.42C272.044 376.42 272.34 376.46 272.636 376.54C272.94 376.612 273.224 376.72 273.488 376.864C273.76 377 274 377.168 274.208 377.368L273.704 378.52C273.408 378.248 273.092 378.048 272.756 377.92C272.42 377.784 272.076 377.716 271.724 377.716C271.38 377.716 271.072 377.78 270.8 377.908C270.536 378.028 270.312 378.212 270.128 378.46C269.944 378.7 269.804 379.004 269.708 379.372C269.62 379.732 269.576 380.152 269.576 380.632V381.532H269.432C269.496 381.124 269.628 380.776 269.828 380.488C270.036 380.192 270.3 379.968 270.62 379.816C270.94 379.656 271.296 379.576 271.688 379.576C272.176 379.576 272.608 379.692 272.984 379.924C273.36 380.156 273.656 380.476 273.872 380.884C274.088 381.292 274.196 381.76 274.196 382.288C274.196 382.832 274.076 383.32 273.836 383.752C273.604 384.176 273.276 384.512 272.852 384.76C272.436 385 271.952 385.12 271.4 385.12ZM271.316 383.896C271.604 383.896 271.856 383.832 272.072 383.704C272.296 383.576 272.468 383.396 272.588 383.164C272.708 382.924 272.768 382.652 272.768 382.348C272.768 382.036 272.708 381.764 272.588 381.532C272.468 381.3 272.296 381.12 272.072 380.992C271.856 380.856 271.604 380.788 271.316 380.788C271.028 380.788 270.776 380.856 270.56 380.992C270.344 381.12 270.172 381.3 270.044 381.532C269.924 381.764 269.864 382.036 269.864 382.348C269.864 382.652 269.924 382.924 270.044 383.164C270.172 383.396 270.344 383.576 270.56 383.704C270.776 383.832 271.028 383.896 271.316 383.896Z" fill="#808283"/>
<rect x="303.5" y="365" width="1" height="8" fill="#313338"/>
<path d="M295.964 379.708V378.616C295.964 378.344 295.992 378.088 296.048 377.848C296.112 377.608 296.212 377.372 296.348 377.14C296.492 376.908 296.68 376.676 296.912 376.444L297.536 376.936C297.368 377.112 297.232 377.28 297.128 377.44C297.024 377.592 296.948 377.748 296.9 377.908C296.86 378.06 296.84 378.22 296.84 378.388L296.468 378.04H297.644V379.708H295.964ZM299.601 385V383.728H301.509V377.836H302.253L300.033 379.18L299.433 378.052L301.953 376.54H303.045V383.728H304.833V385H299.601ZM306.52 385L310.612 377.296V377.824H306.148V376.54H312.04V377.692L308.212 385H306.52Z" fill="#808283"/>
<rect x="341.5" y="365" width="1" height="8" fill="#313338"/>
<path d="M333.964 379.708V378.616C333.964 378.344 333.992 378.088 334.048 377.848C334.112 377.608 334.212 377.372 334.348 377.14C334.492 376.908 334.68 376.676 334.912 376.444L335.536 376.936C335.368 377.112 335.232 377.28 335.128 377.44C335.024 377.592 334.948 377.748 334.9 377.908C334.86 378.06 334.84 378.22 334.84 378.388L334.468 378.04H335.644V379.708H333.964ZM337.601 385V383.728H339.509V377.836H340.253L338.033 379.18L337.433 378.052L339.953 376.54H341.045V383.728H342.833V385H337.601ZM347.088 385.12C346.104 385.12 345.332 384.908 344.772 384.484C344.22 384.06 343.944 383.472 343.944 382.72C343.944 382.32 344.024 381.968 344.184 381.664C344.352 381.352 344.58 381.1 344.868 380.908C345.156 380.716 345.484 380.596 345.852 380.548V380.8C345.516 380.728 345.22 380.596 344.964 380.404C344.708 380.204 344.508 379.96 344.364 379.672C344.228 379.376 344.16 379.052 344.16 378.7C344.16 377.988 344.424 377.432 344.952 377.032C345.48 376.624 346.196 376.42 347.1 376.42C347.996 376.42 348.708 376.624 349.236 377.032C349.764 377.432 350.028 377.988 350.028 378.7C350.028 379.052 349.956 379.376 349.812 379.672C349.676 379.968 349.48 380.212 349.224 380.404C348.976 380.596 348.684 380.724 348.348 380.788V380.548C348.724 380.596 349.052 380.72 349.332 380.92C349.612 381.112 349.832 381.364 349.992 381.676C350.152 381.98 350.232 382.328 350.232 382.72C350.232 383.472 349.952 384.06 349.392 384.484C348.84 384.908 348.072 385.12 347.088 385.12ZM347.088 383.92C347.656 383.92 348.084 383.812 348.372 383.596C348.66 383.372 348.804 383.044 348.804 382.612C348.804 382.18 348.66 381.856 348.372 381.64C348.084 381.424 347.656 381.316 347.088 381.316C346.528 381.316 346.1 381.424 345.804 381.64C345.516 381.856 345.372 382.18 345.372 382.612C345.372 383.044 345.516 383.372 345.804 383.596C346.1 383.812 346.528 383.92 347.088 383.92ZM347.088 380.116C347.56 380.116 347.928 380.004 348.192 379.78C348.464 379.556 348.6 379.248 348.6 378.856C348.6 378.472 348.464 378.172 348.192 377.956C347.928 377.732 347.56 377.62 347.088 377.62C346.616 377.62 346.248 377.732 345.984 377.956C345.72 378.172 345.588 378.476 345.588 378.868C345.588 379.252 345.72 379.556 345.984 379.78C346.248 380.004 346.616 380.116 347.088 380.116Z" fill="#808283"/>
<rect x="379.5" y="365" width="1" height="8" fill="#313338"/>
<path d="M371.964 379.708V378.616C371.964 378.344 371.992 378.088 372.048 377.848C372.112 377.608 372.212 377.372 372.348 377.14C372.492 376.908 372.68 376.676 372.912 376.444L373.536 376.936C373.368 377.112 373.232 377.28 373.128 377.44C373.024 377.592 372.948 377.748 372.9 377.908C372.86 378.06 372.84 378.22 372.84 378.388L372.468 378.04H373.644V379.708H371.964ZM375.601 385V383.728H377.509V377.836H378.253L376.033 379.18L375.433 378.052L377.953 376.54H379.045V383.728H380.833V385H375.601ZM384.44 385.12C384.144 385.12 383.844 385.08 383.54 385C383.244 384.928 382.96 384.82 382.688 384.676C382.424 384.532 382.184 384.36 381.968 384.16L382.484 383.008C382.772 383.28 383.084 383.484 383.42 383.62C383.764 383.756 384.108 383.824 384.452 383.824C384.804 383.824 385.112 383.764 385.376 383.644C385.648 383.516 385.876 383.332 386.06 383.092C386.244 382.844 386.38 382.54 386.468 382.18C386.564 381.812 386.612 381.388 386.612 380.908V380.008H386.744C386.688 380.408 386.556 380.756 386.348 381.052C386.14 381.348 385.876 381.576 385.556 381.736C385.244 381.888 384.888 381.964 384.488 381.964C384.008 381.964 383.58 381.848 383.204 381.616C382.828 381.384 382.528 381.064 382.304 380.656C382.088 380.24 381.98 379.772 381.98 379.252C381.98 378.7 382.1 378.212 382.34 377.788C382.58 377.364 382.908 377.032 383.324 376.792C383.748 376.544 384.232 376.42 384.776 376.42C385.48 376.42 386.076 376.584 386.564 376.912C387.052 377.24 387.424 377.72 387.68 378.352C387.936 378.976 388.064 379.732 388.064 380.62C388.064 381.572 387.92 382.384 387.632 383.056C387.344 383.728 386.928 384.24 386.384 384.592C385.848 384.944 385.2 385.12 384.44 385.12ZM384.872 380.74C385.16 380.74 385.412 380.676 385.628 380.548C385.852 380.42 386.024 380.24 386.144 380.008C386.264 379.768 386.324 379.496 386.324 379.192C386.324 378.88 386.264 378.608 386.144 378.376C386.024 378.144 385.852 377.964 385.628 377.836C385.412 377.7 385.16 377.632 384.872 377.632C384.584 377.632 384.332 377.7 384.116 377.836C383.9 377.964 383.728 378.144 383.6 378.376C383.48 378.608 383.42 378.88 383.42 379.192C383.42 379.496 383.48 379.768 383.6 380.008C383.728 380.24 383.9 380.42 384.116 380.548C384.332 380.676 384.584 380.74 384.872 380.74Z" fill="#808283"/>
<rect x="417.5" y="365" width="1" height="8" fill="#313338"/>
<path d="M409.964 379.708V378.616C409.964 378.344 409.992 378.088 410.048 377.848C410.112 377.608 410.212 377.372 410.348 377.14C410.492 376.908 410.68 376.676 410.912 376.444L411.536 376.936C411.368 377.112 411.232 377.28 411.128 377.44C411.024 377.592 410.948 377.748 410.9 377.908C410.86 378.06 410.84 378.22 410.84 378.388L410.468 378.04H411.644V379.708H409.964ZM413.253 385V383.86L415.989 380.944C416.237 380.68 416.433 380.436 416.577 380.212C416.729 379.988 416.841 379.772 416.913 379.564C416.985 379.356 417.021 379.148 417.021 378.94C417.021 378.54 416.893 378.236 416.637 378.028C416.389 377.82 416.025 377.716 415.545 377.716C415.169 377.716 414.801 377.788 414.441 377.932C414.089 378.068 413.749 378.284 413.421 378.58L412.905 377.428C413.241 377.124 413.661 376.88 414.165 376.696C414.669 376.512 415.193 376.42 415.737 376.42C416.345 376.42 416.857 376.512 417.273 376.696C417.689 376.88 418.005 377.148 418.221 377.5C418.437 377.852 418.545 378.28 418.545 378.784C418.545 379.04 418.513 379.292 418.449 379.54C418.393 379.78 418.301 380.02 418.173 380.26C418.053 380.5 417.897 380.748 417.705 381.004C417.521 381.252 417.297 381.512 417.033 381.784L414.777 384.136V383.728H418.869V385H413.253ZM423.088 385.12C422.424 385.12 421.86 384.952 421.396 384.616C420.94 384.272 420.592 383.776 420.352 383.128C420.12 382.48 420.004 381.688 420.004 380.752C420.004 379.808 420.12 379.016 420.352 378.376C420.592 377.728 420.94 377.24 421.396 376.912C421.86 376.584 422.424 376.42 423.088 376.42C423.76 376.42 424.324 376.584 424.78 376.912C425.244 377.24 425.592 377.724 425.824 378.364C426.056 379.004 426.172 379.796 426.172 380.74C426.172 381.676 426.052 382.472 425.812 383.128C425.58 383.776 425.236 384.272 424.78 384.616C424.324 384.952 423.76 385.12 423.088 385.12ZM423.088 383.86C423.632 383.86 424.032 383.612 424.288 383.116C424.552 382.612 424.684 381.82 424.684 380.74C424.684 379.668 424.552 378.892 424.288 378.412C424.032 377.924 423.632 377.68 423.088 377.68C422.552 377.68 422.152 377.924 421.888 378.412C421.624 378.892 421.492 379.672 421.492 380.752C421.492 381.824 421.624 382.612 421.888 383.116C422.152 383.612 422.552 383.86 423.088 383.86Z" fill="#808283"/>
<rect x="455.5" y="365" width="1" height="8" fill="#313338"/>
<path d="M447.964 379.708V378.616C447.964 378.344 447.992 378.088 448.048 377.848C448.112 377.608 448.212 377.372 448.348 377.14C448.492 376.908 448.68 376.676 448.912 376.444L449.536 376.936C449.368 377.112 449.232 377.28 449.128 377.44C449.024 377.592 448.948 377.748 448.9 377.908C448.86 378.06 448.84 378.22 448.84 378.388L448.468 378.04H449.644V379.708H447.964ZM451.253 385V383.86L453.989 380.944C454.237 380.68 454.433 380.436 454.577 380.212C454.729 379.988 454.841 379.772 454.913 379.564C454.985 379.356 455.021 379.148 455.021 378.94C455.021 378.54 454.893 378.236 454.637 378.028C454.389 377.82 454.025 377.716 453.545 377.716C453.169 377.716 452.801 377.788 452.441 377.932C452.089 378.068 451.749 378.284 451.421 378.58L450.905 377.428C451.241 377.124 451.661 376.88 452.165 376.696C452.669 376.512 453.193 376.42 453.737 376.42C454.345 376.42 454.857 376.512 455.273 376.696C455.689 376.88 456.005 377.148 456.221 377.5C456.437 377.852 456.545 378.28 456.545 378.784C456.545 379.04 456.513 379.292 456.449 379.54C456.393 379.78 456.301 380.02 456.173 380.26C456.053 380.5 455.897 380.748 455.705 381.004C455.521 381.252 455.297 381.512 455.033 381.784L452.777 384.136V383.728H456.869V385H451.253ZM458.796 385V383.728H460.704V377.836H461.448L459.228 379.18L458.628 378.052L461.148 376.54H462.24V383.728H464.028V385H458.796Z" fill="#808283"/>
<rect x="493.5" y="365" width="1" height="8" fill="#313338"/>
<path d="M485.964 379.708V378.616C485.964 378.344 485.992 378.088 486.048 377.848C486.112 377.608 486.212 377.372 486.348 377.14C486.492 376.908 486.68 376.676 486.912 376.444L487.536 376.936C487.368 377.112 487.232 377.28 487.128 377.44C487.024 377.592 486.948 377.748 486.9 377.908C486.86 378.06 486.84 378.22 486.84 378.388L486.468 378.04H487.644V379.708H485.964ZM489.253 385V383.86L491.989 380.944C492.237 380.68 492.433 380.436 492.577 380.212C492.729 379.988 492.841 379.772 492.913 379.564C492.985 379.356 493.021 379.148 493.021 378.94C493.021 378.54 492.893 378.236 492.637 378.028C492.389 377.82 492.025 377.716 491.545 377.716C491.169 377.716 490.801 377.788 490.441 377.932C490.089 378.068 489.749 378.284 489.421 378.58L488.905 377.428C489.241 377.124 489.661 376.88 490.165 376.696C490.669 376.512 491.193 376.42 491.737 376.42C492.345 376.42 492.857 376.512 493.273 376.696C493.689 376.88 494.005 377.148 494.221 377.5C494.437 377.852 494.545 378.28 494.545 378.784C494.545 379.04 494.513 379.292 494.449 379.54C494.393 379.78 494.301 380.02 494.173 380.26C494.053 380.5 493.897 380.748 493.705 381.004C493.521 381.252 493.297 381.512 493.033 381.784L490.777 384.136V383.728H494.869V385H489.253ZM496.448 385V383.86L499.184 380.944C499.432 380.68 499.628 380.436 499.772 380.212C499.924 379.988 500.036 379.772 500.108 379.564C500.18 379.356 500.216 379.148 500.216 378.94C500.216 378.54 500.088 378.236 499.832 378.028C499.584 377.82 499.22 377.716 498.74 377.716C498.364 377.716 497.996 377.788 497.636 377.932C497.284 378.068 496.944 378.284 496.616 378.58L496.1 377.428C496.436 377.124 496.856 376.88 497.36 376.696C497.864 376.512 498.388 376.42 498.932 376.42C499.54 376.42 500.052 376.512 500.468 376.696C500.884 376.88 501.2 377.148 501.416 377.5C501.632 377.852 501.74 378.28 501.74 378.784C501.74 379.04 501.708 379.292 501.644 379.54C501.588 379.78 501.496 380.02 501.368 380.26C501.248 380.5 501.092 380.748 500.9 381.004C500.716 381.252 500.492 381.512 500.228 381.784L497.972 384.136V383.728H502.064V385H496.448Z" fill="#808283"/>
<g filter="url(#filter0_d_2198_7128)">
<path d="M113 347.607L117.573 351L120.368 344.213L122.909 346.637L123.671 342.759L125.704 344.213L128.245 340.335L130.532 342.759L137.9 321.428L138.916 322.883L142.219 312.217L143.236 316.096L144.506 313.672L145.777 316.096L146.793 312.217L148.572 315.126L150.35 312.217L151.875 313.672C152.637 309.309 154.161 300.486 154.161 300.098C154.161 299.71 154.161 290.887 154.161 286.524L156.194 290.887L157.718 286.524C157.718 287.493 157.718 289.045 157.718 287.493C157.718 285.942 159.412 275.212 160.259 270.041L162.292 284.1L165.087 271.98L167.12 271.011L167.882 262.77L169.406 264.224L170.169 259.376L172.201 268.102L173.218 278.283L174.234 269.072L175.25 274.404L176.266 287.493L177.537 271.011L179.824 282.646L182.873 262.77L185.413 266.648L186.43 261.8L187.7 265.678L189.733 260.83L192.528 277.313L194.052 269.072L196.339 271.98L198.118 260.83L198.626 266.648L200.404 261.8L202.945 280.222L204.216 275.374L204.724 280.222L207.01 277.313L207.773 286.039L208.789 279.252L211.076 275.374L212.092 278.283L212.854 271.98L214.887 280.222L216.411 279.252L218.698 286.039L220.223 279.252L222.255 295.735L224.288 294.28V284.1L225.813 281.191L229.624 291.372L231.402 282.646L232.165 291.372L233.689 290.402L235.214 286.039L236.23 290.402L237.246 277.313L238.008 280.222L239.279 274.404C240.126 277.636 241.82 283.518 241.82 281.191C241.82 278.864 242.328 269.557 242.582 265.193L245.885 274.404L247.41 275.374L247.918 273.435H249.442L251.475 277.313L253.253 278.283L253.762 273.435L255.032 276.343L258.335 275.374L260.368 268.102L262.4 275.374H263.417L264.179 271.98L266.212 279.252L267.228 275.374L269.007 282.646L273.072 281.191L274.596 296.704L275.867 288.463L278.153 286.039L280.186 300.583L281.457 295.735L284.251 303.007C285.352 299.613 287.605 293.117 287.809 294.28C288.012 295.444 290.434 304.138 291.62 308.339L293.144 304.461L293.907 310.278H295.431L296.956 305.43L297.718 309.309L302.037 299.613L303.308 286.039L305.086 289.917L306.357 284.1L309.152 279.252C310.507 283.938 313.217 293.214 313.217 292.826C313.217 292.438 313.894 286.847 314.233 284.1H315.758L316.52 282.646L319.315 294.28L320.331 291.372L321.602 300.583L322.872 303.007L324.396 320.459L325.667 314.157L327.191 316.096L328.462 297.674L328.97 300.583L330.494 299.613L331.511 305.43L331.765 297.674L333.798 294.28L335.83 305.43L337.355 298.643L339.133 304.461L340.404 297.674H341.42L342.182 291.372L342.436 293.796L343.961 282.646H347.01L348.28 295.25L349.297 297.189L350.313 295.25L353.362 302.037L354.632 299.128L355.649 307.854L356.919 306.4L358.952 313.187L360.476 312.702L361.747 309.793L363.525 300.583L365.812 304.461L366.828 295.25L369.877 298.643L371.91 286.039L376.229 282.646L377.5 286.039L378.262 280.707L379.532 284.585L381.311 272.95L383.089 272.465L384.614 282.646L387.663 287.493L389.442 281.676H390.458L390.966 279.252H394.015L395.285 284.585L397.064 277.313L398.588 279.252L398.843 271.98L401.892 261.8L405.449 264.224L405.957 260.346L409.26 268.587L409.768 263.739L411.039 265.678L414.342 260.346L415.612 245.802L419.423 256.467L422.472 258.891L423.743 256.467L424.759 237.561L426.538 235.622L428.316 234.167L429.841 204.596L431.873 191.507L433.144 201.202L433.398 189.083L435.939 191.991L439.242 177.448L441.274 152.239L443.307 156.117L445.34 171.63L446.61 135.272L448.135 152.239L448.897 150.3L449.659 153.693L451.184 146.907L452.962 159.511L454.233 150.3L454.741 167.752L456.265 159.511L458.806 161.45L459.568 169.207L461.855 141.089L462.617 146.907L463.634 143.513H464.904L468.715 128L469.986 159.511L472.526 162.904L474.559 175.024L476.084 163.389C476.592 166.944 477.608 174.151 477.608 174.539C477.608 174.927 478.794 164.359 479.387 159.026L480.911 164.843L482.944 141.574L486.755 136.241L488.534 139.15L489.55 132.848L492.599 177.933L493.869 173.085L496.41 174.539L498.697 152.239L502 139.15" stroke="#A06AFF" stroke-width="1.5" stroke-linecap="round"/>
</g>
<g filter="url(#filter1_d_2198_7128)">
<path d="M68 354C68.4928 354 105.373 353.285 123.752 352.928C124.368 350.307 125.723 344.993 126.216 344.707C126.832 344.35 132.068 341.133 132.376 340.419C132.623 339.847 133.711 334.223 134.224 331.483L135.456 330.769L136.072 326.837L139.769 324.693L142.541 305.393L144.697 298.959L145.929 280.731H148.393L150.857 281.446L153.938 282.876H157.942L158.558 285.735H163.794L165.95 284.663L171.187 285.735L173.651 288.237L177.039 286.45H179.503L184.432 282.161L191.208 281.446L193.672 280.017H196.136C197.984 276.323 201.681 268.794 201.681 268.222C201.681 267.65 202.502 258.215 202.913 253.569L203.837 256.07L204.761 253.569L207.225 251.424H211.845L219.238 250.352L223.858 228.55L229.71 225.333L231.251 226.406L232.483 223.904L238.335 225.333L246.035 222.831L259.588 225.333L282.074 227.835L287.31 225.333H302.711L304.559 222.831L319.96 221.044L321.808 219.615L326.737 218.9L327.661 217.113L331.357 216.398L334.745 209.607L338.133 208.893L342.138 202.102L345.834 199.957L352.302 184.946L354.767 183.517H357.539H360.311L362.159 184.946L380.64 183.517L395.425 186.376L402.202 183.517L419.451 182.802L422.223 181.015L427.151 182.802L441.936 181.015L449.637 172.437H451.793L454.873 167.433L461.033 163.144L472.43 163.859C473.457 162.906 475.634 161 476.126 161C476.619 161 487.215 161 492.451 161L502 163.144" stroke="#FFA800" stroke-width="1.5"/>
</g>
<defs>
<filter id="filter0_d_2198_7128" x="104.25" y="119.821" width="406.5" height="240.355" filterUnits="userSpaceOnUse" color-interpolation-filters="sRGB">
<feFlood flood-opacity="0" result="BackgroundImageFix"/>
<feColorMatrix in="SourceAlpha" type="matrix" values="0 0 0 0 0 0 0 0 0 0 0 0 0 0 0 0 0 0 127 0" result="hardAlpha"/>
<feOffset/>
<feGaussianBlur stdDeviation="4"/>
<feComposite in2="hardAlpha" operator="out"/>
<feColorMatrix type="matrix" values="0 0 0 0 0.627451 0 0 0 0 0.415686 0 0 0 0 1 0 0 0 0.24 0"/>
<feBlend mode="normal" in2="BackgroundImageFix" result="effect1_dropShadow_2198_7128"/>
<feBlend mode="normal" in="SourceGraphic" in2="effect1_dropShadow_2198_7128" result="shape"/>
</filter>
<filter id="filter1_d_2198_7128" x="60" y="152.25" width="450.164" height="210.5" filterUnits="userSpaceOnUse" color-interpolation-filters="sRGB">
<feFlood flood-opacity="0" result="BackgroundImageFix"/>
<feColorMatrix in="SourceAlpha" type="matrix" values="0 0 0 0 0 0 0 0 0 0 0 0 0 0 0 0 0 0 127 0" result="hardAlpha"/>
<feOffset/>
<feGaussianBlur stdDeviation="4"/>
<feComposite in2="hardAlpha" operator="out"/>
<feColorMatrix type="matrix" values="0 0 0 0 1 0 0 0 0 0.658824 0 0 0 0 0 0 0 0 0.24 0"/>
<feBlend mode="normal" in2="BackgroundImageFix" result="effect1_dropShadow_2198_7128"/>
<feBlend mode="normal" in="SourceGraphic" in2="effect1_dropShadow_2198_7128" result="shape"/>
</filter>
</defs>
</svg>
