<svg width="528" height="414" viewBox="0 0 528 414" fill="none" xmlns="http://www.w3.org/2000/svg">
<rect width="528" height="414" rx="8" fill="#181A20"/>
<path d="M17.848 43V26.08H28.912V28.528H20.92V33.304H28.408V35.752H20.92V43H17.848ZM36.3987 43.24C35.0707 43.24 33.9267 42.992 32.9667 42.496C32.0067 42 31.2627 41.296 30.7347 40.384C30.2227 39.472 29.9667 38.392 29.9667 37.144C29.9667 35.928 30.2147 34.864 30.7107 33.952C31.2227 33.04 31.9187 32.328 32.7987 31.816C33.6947 31.288 34.7107 31.024 35.8467 31.024C36.9667 31.024 37.9267 31.264 38.7267 31.744C39.5267 32.224 40.1427 32.904 40.5747 33.784C41.0227 34.664 41.2467 35.712 41.2467 36.928V37.816H32.3907V36.088H39.1347L38.7507 36.448C38.7507 35.36 38.5107 34.528 38.0307 33.952C37.5507 33.36 36.8627 33.064 35.9667 33.064C35.2947 33.064 34.7187 33.224 34.2387 33.544C33.7747 33.848 33.4147 34.288 33.1587 34.864C32.9187 35.424 32.7987 36.096 32.7987 36.88V37.048C32.7987 37.928 32.9347 38.656 33.2067 39.232C33.4787 39.808 33.8867 40.24 34.4307 40.528C34.9747 40.816 35.6467 40.96 36.4467 40.96C37.1027 40.96 37.7587 40.864 38.4147 40.672C39.0707 40.464 39.6707 40.144 40.2147 39.712L41.0547 41.728C40.4947 42.192 39.7907 42.56 38.9427 42.832C38.0947 43.104 37.2467 43.24 36.3987 43.24ZM47.4865 43.24C46.6385 43.24 45.8785 43.08 45.2065 42.76C44.5505 42.424 44.0305 41.976 43.6465 41.416C43.2785 40.856 43.0945 40.224 43.0945 39.52C43.0945 38.656 43.3185 37.976 43.7665 37.48C44.2145 36.968 44.9425 36.6 45.9505 36.376C46.9585 36.152 48.3105 36.04 50.0065 36.04H51.2065V37.768H50.0305C49.2785 37.768 48.6465 37.8 48.1345 37.864C47.6225 37.912 47.2065 38 46.8865 38.128C46.5825 38.24 46.3585 38.4 46.2145 38.608C46.0865 38.816 46.0225 39.072 46.0225 39.376C46.0225 39.904 46.2065 40.336 46.5745 40.672C46.9425 41.008 47.4545 41.176 48.1105 41.176C48.6385 41.176 49.1025 41.056 49.5025 40.816C49.9185 40.56 50.2465 40.216 50.4865 39.784C50.7265 39.352 50.8465 38.856 50.8465 38.296V35.536C50.8465 34.736 50.6705 34.16 50.3185 33.808C49.9665 33.456 49.3745 33.28 48.5425 33.28C47.8865 33.28 47.2145 33.384 46.5265 33.592C45.8385 33.784 45.1425 34.088 44.4385 34.504L43.5745 32.464C43.9905 32.176 44.4785 31.928 45.0385 31.72C45.6145 31.496 46.2145 31.328 46.8385 31.216C47.4785 31.088 48.0785 31.024 48.6385 31.024C49.7905 31.024 50.7345 31.2 51.4705 31.552C52.2225 31.904 52.7825 32.44 53.1505 33.16C53.5185 33.864 53.7025 34.776 53.7025 35.896V43H50.8945V40.504H51.0865C50.9745 41.064 50.7505 41.552 50.4145 41.968C50.0945 42.368 49.6865 42.68 49.1905 42.904C48.6945 43.128 48.1265 43.24 47.4865 43.24ZM56.7475 43V31.264H59.6755V34.096H59.4355C59.6595 33.136 60.0995 32.408 60.7555 31.912C61.4115 31.4 62.2835 31.104 63.3715 31.024L64.2835 30.952L64.4755 33.496L62.7475 33.664C61.7715 33.76 61.0355 34.064 60.5395 34.576C60.0435 35.072 59.7955 35.776 59.7955 36.688V43H56.7475ZM78.2787 43.24C77.0787 43.24 76.0387 43.048 75.1587 42.664C74.2787 42.28 73.5987 41.752 73.1187 41.08C72.6547 40.392 72.4227 39.592 72.4227 38.68C72.4227 37.96 72.5587 37.304 72.8307 36.712C73.1027 36.104 73.4947 35.552 74.0067 35.056C74.5187 34.544 75.1347 34.08 75.8547 33.664L76.6707 33.184L76.2387 33.832C75.5347 33.128 75.0227 32.464 74.7027 31.84C74.3987 31.2 74.2467 30.544 74.2467 29.872C74.2467 29.072 74.4387 28.368 74.8227 27.76C75.2067 27.152 75.7507 26.68 76.4547 26.344C77.1587 26.008 77.9827 25.84 78.9267 25.84C79.8067 25.84 80.5587 25.992 81.1827 26.296C81.8227 26.6 82.3187 27.032 82.6707 27.592C83.0227 28.136 83.1987 28.784 83.1987 29.536C83.1987 30.144 83.0787 30.72 82.8387 31.264C82.5987 31.808 82.2147 32.328 81.6867 32.824C81.1587 33.32 80.4547 33.808 79.5747 34.288L79.5987 33.568L83.6787 37.912H83.0307C83.4147 37.256 83.7187 36.488 83.9427 35.608C84.1667 34.728 84.3027 33.808 84.3507 32.848H86.8467C86.7987 34.16 86.5907 35.4 86.2227 36.568C85.8707 37.736 85.3827 38.768 84.7587 39.664L84.7347 38.92L88.7907 43H85.1427L83.0787 40.816H83.7747C83.0707 41.568 82.2387 42.16 81.2787 42.592C80.3347 43.024 79.3347 43.24 78.2787 43.24ZM78.4467 40.864C79.2147 40.864 79.8947 40.72 80.4867 40.432C81.0947 40.128 81.6467 39.68 82.1427 39.088L82.0707 39.856L77.1267 34.744L78.3747 34.864L77.6787 35.272C77.1347 35.592 76.6947 35.912 76.3587 36.232C76.0227 36.536 75.7747 36.872 75.6147 37.24C75.4707 37.592 75.3987 37.992 75.3987 38.44C75.3987 39.192 75.6627 39.784 76.1907 40.216C76.7187 40.648 77.4707 40.864 78.4467 40.864ZM78.9267 27.976C78.3507 27.976 77.8867 28.144 77.5347 28.48C77.1827 28.8 77.0067 29.24 77.0067 29.8C77.0067 30.104 77.0547 30.392 77.1507 30.664C77.2467 30.92 77.4147 31.208 77.6547 31.528C77.8947 31.832 78.2227 32.208 78.6387 32.656L77.9667 32.608C78.6387 32.224 79.1667 31.88 79.5507 31.576C79.9507 31.272 80.2387 30.968 80.4147 30.664C80.5907 30.36 80.6787 30.024 80.6787 29.656C80.6787 29.112 80.5187 28.696 80.1987 28.408C79.8787 28.12 79.4547 27.976 78.9267 27.976ZM104.922 43.24C103.05 43.24 101.466 42.888 100.17 42.184C98.8895 41.48 97.9135 40.48 97.2415 39.184C96.5695 37.888 96.2335 36.352 96.2335 34.576C96.2335 32.784 96.5775 31.24 97.2655 29.944C97.9535 28.632 98.9455 27.624 100.242 26.92C101.538 26.2 103.09 25.84 104.898 25.84C105.698 25.84 106.458 25.92 107.178 26.08C107.914 26.224 108.594 26.44 109.218 26.728C109.842 27.016 110.378 27.368 110.826 27.784L109.794 30.184C109.042 29.592 108.274 29.168 107.49 28.912C106.706 28.656 105.842 28.528 104.898 28.528C103.106 28.528 101.746 29.048 100.818 30.088C99.9055 31.128 99.4495 32.624 99.4495 34.576C99.4495 36.544 99.9215 38.04 100.866 39.064C101.81 40.088 103.21 40.6 105.066 40.6C105.706 40.6 106.354 40.536 107.01 40.408C107.666 40.28 108.306 40.104 108.93 39.88L108.33 41.248V36.136H104.442V33.856H110.898V41.992C110.386 42.248 109.794 42.472 109.122 42.664C108.466 42.84 107.778 42.976 107.057 43.072C106.338 43.184 105.626 43.24 104.922 43.24ZM114.169 43V31.264H117.097V34.096H116.857C117.081 33.136 117.521 32.408 118.177 31.912C118.833 31.4 119.705 31.104 120.793 31.024L121.705 30.952L121.897 33.496L120.169 33.664C119.193 33.76 118.457 34.064 117.961 34.576C117.465 35.072 117.217 35.776 117.217 36.688V43H114.169ZM129.164 43.24C127.836 43.24 126.692 42.992 125.732 42.496C124.772 42 124.028 41.296 123.5 40.384C122.988 39.472 122.732 38.392 122.732 37.144C122.732 35.928 122.98 34.864 123.476 33.952C123.988 33.04 124.684 32.328 125.564 31.816C126.46 31.288 127.476 31.024 128.612 31.024C129.732 31.024 130.692 31.264 131.492 31.744C132.292 32.224 132.908 32.904 133.34 33.784C133.788 34.664 134.012 35.712 134.012 36.928V37.816H125.156V36.088H131.9L131.516 36.448C131.516 35.36 131.276 34.528 130.796 33.952C130.316 33.36 129.628 33.064 128.732 33.064C128.06 33.064 127.484 33.224 127.004 33.544C126.54 33.848 126.18 34.288 125.924 34.864C125.684 35.424 125.564 36.096 125.564 36.88V37.048C125.564 37.928 125.7 38.656 125.972 39.232C126.244 39.808 126.652 40.24 127.196 40.528C127.74 40.816 128.412 40.96 129.212 40.96C129.868 40.96 130.524 40.864 131.18 40.672C131.836 40.464 132.436 40.144 132.98 39.712L133.82 41.728C133.26 42.192 132.556 42.56 131.708 42.832C130.86 43.104 130.012 43.24 129.164 43.24ZM142.172 43.24C140.844 43.24 139.7 42.992 138.74 42.496C137.78 42 137.036 41.296 136.508 40.384C135.996 39.472 135.74 38.392 135.74 37.144C135.74 35.928 135.988 34.864 136.484 33.952C136.996 33.04 137.692 32.328 138.572 31.816C139.468 31.288 140.484 31.024 141.62 31.024C142.74 31.024 143.7 31.264 144.5 31.744C145.3 32.224 145.916 32.904 146.348 33.784C146.796 34.664 147.02 35.712 147.02 36.928V37.816H138.164V36.088H144.908L144.524 36.448C144.524 35.36 144.284 34.528 143.804 33.952C143.324 33.36 142.636 33.064 141.74 33.064C141.068 33.064 140.492 33.224 140.012 33.544C139.548 33.848 139.188 34.288 138.932 34.864C138.692 35.424 138.572 36.096 138.572 36.88V37.048C138.572 37.928 138.708 38.656 138.98 39.232C139.252 39.808 139.66 40.24 140.204 40.528C140.748 40.816 141.42 40.96 142.22 40.96C142.876 40.96 143.532 40.864 144.188 40.672C144.844 40.464 145.444 40.144 145.988 39.712L146.828 41.728C146.268 42.192 145.564 42.56 144.716 42.832C143.868 43.104 143.02 43.24 142.172 43.24ZM153.908 43.24C152.884 43.24 151.98 42.992 151.196 42.496C150.428 42 149.828 41.296 149.396 40.384C148.964 39.456 148.748 38.368 148.748 37.12C148.748 35.856 148.964 34.776 149.396 33.88C149.828 32.968 150.428 32.264 151.196 31.768C151.98 31.272 152.884 31.024 153.908 31.024C154.884 31.024 155.732 31.264 156.452 31.744C157.188 32.224 157.684 32.856 157.94 33.64H157.676V26.08H160.676V43H157.748V40.504H157.964C157.724 41.336 157.236 42 156.5 42.496C155.764 42.992 154.9 43.24 153.908 43.24ZM154.748 40.96C155.644 40.96 156.364 40.64 156.908 40C157.452 39.344 157.724 38.384 157.724 37.12C157.724 35.84 157.452 34.888 156.908 34.264C156.364 33.624 155.644 33.304 154.748 33.304C153.852 33.304 153.132 33.624 152.588 34.264C152.044 34.888 151.772 35.84 151.772 37.12C151.772 38.384 152.044 39.344 152.588 40C153.132 40.64 153.852 40.96 154.748 40.96ZM170.543 43V26.08H173.615V43H170.543ZM177.005 43V31.264H179.933V33.616H179.669C180.021 32.768 180.565 32.128 181.301 31.696C182.053 31.248 182.901 31.024 183.845 31.024C184.789 31.024 185.565 31.2 186.173 31.552C186.781 31.904 187.237 32.44 187.541 33.16C187.845 33.864 187.997 34.76 187.997 35.848V43H184.997V35.992C184.997 35.384 184.917 34.888 184.757 34.504C184.613 34.12 184.381 33.84 184.061 33.664C183.757 33.472 183.365 33.376 182.885 33.376C182.309 33.376 181.805 33.504 181.373 33.76C180.941 34 180.605 34.352 180.365 34.816C180.125 35.264 180.005 35.792 180.005 36.4V43H177.005ZM195.556 43.24C194.532 43.24 193.628 42.992 192.844 42.496C192.076 42 191.476 41.296 191.044 40.384C190.612 39.456 190.396 38.368 190.396 37.12C190.396 35.856 190.612 34.776 191.044 33.88C191.476 32.968 192.076 32.264 192.844 31.768C193.628 31.272 194.532 31.024 195.556 31.024C196.532 31.024 197.38 31.264 198.1 31.744C198.836 32.224 199.332 32.856 199.588 33.64H199.324V26.08H202.324V43H199.396V40.504H199.612C199.372 41.336 198.884 42 198.148 42.496C197.412 42.992 196.548 43.24 195.556 43.24ZM196.396 40.96C197.292 40.96 198.012 40.64 198.556 40C199.1 39.344 199.372 38.384 199.372 37.12C199.372 35.84 199.1 34.888 198.556 34.264C198.012 33.624 197.292 33.304 196.396 33.304C195.5 33.304 194.78 33.624 194.236 34.264C193.692 34.888 193.42 35.84 193.42 37.12C193.42 38.384 193.692 39.344 194.236 40C194.78 40.64 195.5 40.96 196.396 40.96ZM211.219 43.24C209.891 43.24 208.747 42.992 207.787 42.496C206.827 42 206.083 41.296 205.555 40.384C205.043 39.472 204.787 38.392 204.787 37.144C204.787 35.928 205.035 34.864 205.531 33.952C206.043 33.04 206.739 32.328 207.619 31.816C208.515 31.288 209.531 31.024 210.667 31.024C211.787 31.024 212.747 31.264 213.547 31.744C214.347 32.224 214.963 32.904 215.395 33.784C215.843 34.664 216.067 35.712 216.067 36.928V37.816H207.211V36.088H213.955L213.571 36.448C213.571 35.36 213.331 34.528 212.851 33.952C212.371 33.36 211.683 33.064 210.787 33.064C210.115 33.064 209.539 33.224 209.059 33.544C208.595 33.848 208.235 34.288 207.979 34.864C207.739 35.424 207.619 36.096 207.619 36.88V37.048C207.619 37.928 207.755 38.656 208.027 39.232C208.299 39.808 208.707 40.24 209.251 40.528C209.795 40.816 210.467 40.96 211.267 40.96C211.923 40.96 212.579 40.864 213.235 40.672C213.891 40.464 214.491 40.144 215.035 39.712L215.875 41.728C215.315 42.192 214.611 42.56 213.763 42.832C212.915 43.104 212.067 43.24 211.219 43.24ZM216.74 43L222.237 36.232V37.648L217.053 31.264H220.557L223.917 35.56H222.861L226.221 31.264H229.725L224.541 37.624V36.28L230.036 43H226.509L222.861 38.392H223.868L220.245 43H216.74Z" fill="white"/>
<rect y="60" width="528" height="1" fill="#313338"/>
<rect x="453" y="76" width="59" height="32" rx="4" fill="#23252D"/>
<path d="M476 83.667V85.3337M466 83.667V85.3337" stroke="#808283" stroke-linecap="round" stroke-linejoin="round"/>
<path d="M470.998 92.833H471.005M470.998 96.1663H471.005M474.327 92.833H474.335M467.668 92.833H467.675M467.668 96.1663H467.675" stroke="#808283" stroke-width="1.5" stroke-linecap="round" stroke-linejoin="round"/>
<path d="M463.918 88.667H478.085" stroke="#808283" stroke-linecap="round" stroke-linejoin="round"/>
<path d="M463.082 92.2027C463.082 88.5716 463.082 86.7561 464.125 85.628C465.169 84.5 466.848 84.5 470.207 84.5H471.79C475.149 84.5 476.829 84.5 477.872 85.628C478.915 86.7561 478.915 88.5716 478.915 92.2027V92.6307C478.915 96.2618 478.915 98.0773 477.872 99.2053C476.829 100.333 475.149 100.333 471.79 100.333H470.207C466.848 100.333 465.169 100.333 464.125 99.2053C463.082 98.0773 463.082 96.2618 463.082 92.6307V92.2027Z" stroke="#808283" stroke-linecap="round" stroke-linejoin="round"/>
<path d="M463.5 88.667H478.5" stroke="#808283" stroke-linecap="round" stroke-linejoin="round"/>
<path d="M490.308 96V94.728H492.216V88.836H492.96L490.74 90.18L490.14 89.052L492.66 87.54H493.752V94.728H495.54V96H490.308ZM499.135 96V91.644L499.459 92.568L495.883 87.54H497.671L500.095 90.984H499.759L502.195 87.54H503.911L500.359 92.568L500.671 91.644V96H499.135Z" fill="#808283"/>
<rect x="24" y="380" width="6" height="6" rx="3" fill="#FF620B"/>
<path d="M34.924 387V378.54H40.552V379.764H36.4V382.092H40.288V383.316H36.4V385.776H40.552V387H34.924ZM41.0296 387L44.5096 382.368V383.028L41.1496 378.54H42.9376L45.3856 381.912H44.8936L47.3296 378.54H49.1296L45.7696 383.028V382.368L49.2376 387H47.4376L44.8696 383.472H45.3976L42.8416 387H41.0296ZM52.1281 387V379.824H49.2241V378.54H56.5681V379.824H53.6641V387H52.1281ZM57.5412 387V378.54H61.2132C62.1412 378.54 62.8572 378.764 63.3612 379.212C63.8652 379.652 64.1172 380.272 64.1172 381.072C64.1172 381.592 64.0012 382.04 63.7692 382.416C63.5452 382.792 63.2172 383.08 62.7852 383.28C62.3532 383.48 61.8292 383.58 61.2132 383.58L61.3212 383.4H61.7172C62.0452 383.4 62.3292 383.48 62.5692 383.64C62.8172 383.8 63.0332 384.052 63.2172 384.396L64.6332 387H62.9412L61.4772 384.3C61.3812 384.124 61.2732 383.988 61.1532 383.892C61.0332 383.788 60.8972 383.716 60.7452 383.676C60.5932 383.636 60.4172 383.616 60.2172 383.616H59.0772V387H57.5412ZM59.0772 382.476H60.9492C61.5012 382.476 61.9172 382.364 62.1972 382.14C62.4852 381.908 62.6292 381.564 62.6292 381.108C62.6292 380.66 62.4852 380.324 62.1972 380.1C61.9172 379.868 61.5012 379.752 60.9492 379.752H59.0772V382.476ZM65.7678 387V378.54H71.3958V379.764H67.2438V382.092H71.1318V383.316H67.2438V385.776H71.3958V387H65.7678ZM72.9519 387V378.54H74.2359L77.4279 384.432H77.0439L80.2239 378.54H81.4839V387H80.0919V380.82H80.3559L77.6679 385.716H76.7679L74.0559 380.808H74.3439V387H72.9519ZM83.3459 387V378.54H88.9739V379.764H84.8219V382.092H88.7099V383.316H84.8219V385.776H88.9739V387H83.3459ZM93.7404 387V378.54H99.2724V379.764H95.2764V382.152H99.0204V383.376H95.2764V387H93.7404ZM100.479 387V378.54H106.107V379.764H101.955V382.092H105.843V383.316H101.955V385.776H106.107V387H100.479ZM106.575 387L110.403 378.54H111.663L115.491 387H113.931L112.911 384.624L113.559 385.044H108.495L109.143 384.624L108.135 387H106.575ZM111.015 380.208L109.335 384.204L109.023 383.82H113.031L112.73 384.204L111.039 380.208H111.015ZM116.416 387V378.54H120.088C121.016 378.54 121.732 378.764 122.236 379.212C122.74 379.652 122.992 380.272 122.992 381.072C122.992 381.592 122.876 382.04 122.644 382.416C122.42 382.792 122.092 383.08 121.66 383.28C121.228 383.48 120.704 383.58 120.088 383.58L120.196 383.4H120.592C120.92 383.4 121.204 383.48 121.444 383.64C121.692 383.8 121.908 384.052 122.092 384.396L123.508 387H121.816L120.352 384.3C120.256 384.124 120.148 383.988 120.028 383.892C119.908 383.788 119.772 383.716 119.62 383.676C119.468 383.636 119.292 383.616 119.092 383.616H117.952V387H116.416ZM117.952 382.476H119.824C120.376 382.476 120.792 382.364 121.072 382.14C121.36 381.908 121.504 381.564 121.504 381.108C121.504 380.66 121.36 380.324 121.072 380.1C120.792 379.868 120.376 379.752 119.824 379.752H117.952V382.476Z" fill="#808283"/>
<rect x="132" y="380" width="6" height="6" rx="3" fill="#FFF50A"/>
<path d="M142.924 387V378.54H148.456V379.764H144.46V382.152H148.204V383.376H144.46V387H142.924ZM149.662 387V378.54H155.29V379.764H151.138V382.092H155.026V383.316H151.138V385.776H155.29V387H149.662ZM155.758 387L159.586 378.54H160.846L164.674 387H163.114L162.094 384.624L162.742 385.044H157.678L158.326 384.624L157.318 387H155.758ZM160.198 380.208L158.518 384.204L158.206 383.82H162.214L161.914 384.204L160.222 380.208H160.198ZM165.6 387V378.54H169.272C170.2 378.54 170.916 378.764 171.42 379.212C171.924 379.652 172.176 380.272 172.176 381.072C172.176 381.592 172.06 382.04 171.828 382.416C171.604 382.792 171.276 383.08 170.844 383.28C170.412 383.48 169.888 383.58 169.272 383.58L169.38 383.4H169.776C170.104 383.4 170.388 383.48 170.628 383.64C170.876 383.8 171.092 384.052 171.276 384.396L172.692 387H171L169.536 384.3C169.44 384.124 169.332 383.988 169.212 383.892C169.092 383.788 168.956 383.716 168.804 383.676C168.652 383.636 168.476 383.616 168.276 383.616H167.136V387H165.6ZM167.136 382.476H169.008C169.56 382.476 169.976 382.364 170.256 382.14C170.544 381.908 170.688 381.564 170.688 381.108C170.688 380.66 170.544 380.324 170.256 380.1C169.976 379.868 169.56 379.752 169.008 379.752H167.136V382.476Z" fill="#808283"/>
<rect x="181" y="380" width="6" height="6" rx="3" fill="#8EE071"/>
<path d="M191.924 387V378.54H193.076L197.936 384.852H197.624V378.54H199.052V387H197.912L193.052 380.676H193.352V387H191.924ZM200.901 387V378.54H206.529V379.764H202.377V382.092H206.265V383.316H202.377V385.776H206.529V387H200.901ZM211.577 387.12C210.417 387.12 209.529 386.82 208.913 386.22C208.305 385.612 208.001 384.716 208.001 383.532V378.54H209.537V383.52C209.537 384.28 209.709 384.852 210.053 385.236C210.405 385.612 210.913 385.8 211.577 385.8C212.241 385.8 212.745 385.612 213.089 385.236C213.433 384.852 213.605 384.28 213.605 383.52V378.54H215.129V383.532C215.129 384.716 214.829 385.612 214.229 386.22C213.629 386.82 212.745 387.12 211.577 387.12ZM218.96 387V379.824H216.056V378.54H223.4V379.824H220.496V387H218.96ZM224.373 387V378.54H228.045C228.973 378.54 229.689 378.764 230.193 379.212C230.697 379.652 230.949 380.272 230.949 381.072C230.949 381.592 230.833 382.04 230.601 382.416C230.377 382.792 230.049 383.08 229.617 383.28C229.185 383.48 228.661 383.58 228.045 383.58L228.153 383.4H228.549C228.877 383.4 229.161 383.48 229.401 383.64C229.649 383.8 229.865 384.052 230.049 384.396L231.465 387H229.773L228.309 384.3C228.213 384.124 228.105 383.988 227.985 383.892C227.865 383.788 227.729 383.716 227.577 383.676C227.425 383.636 227.249 383.616 227.049 383.616H225.909V387H224.373ZM225.909 382.476H227.781C228.333 382.476 228.749 382.364 229.029 382.14C229.317 381.908 229.461 381.564 229.461 381.108C229.461 380.66 229.317 380.324 229.029 380.1C228.749 379.868 228.333 379.752 227.781 379.752H225.909V382.476ZM231.535 387L235.363 378.54H236.623L240.451 387H238.891L237.871 384.624L238.519 385.044H233.455L234.103 384.624L233.095 387H231.535ZM235.975 380.208L234.295 384.204L233.983 383.82H237.991L237.691 384.204L235.999 380.208H235.975ZM241.377 387V378.54H242.913V385.692H246.969V387H241.377Z" fill="#808283"/>
<rect x="256" y="380" width="6" height="6" rx="3" fill="#6CEF3E"/>
<path d="M270.992 387.12C270.056 387.12 269.264 386.944 268.616 386.592C267.976 386.24 267.488 385.74 267.152 385.092C266.816 384.444 266.648 383.676 266.648 382.788C266.648 381.892 266.82 381.12 267.164 380.472C267.508 379.816 268.004 379.312 268.652 378.96C269.3 378.6 270.076 378.42 270.98 378.42C271.38 378.42 271.76 378.46 272.12 378.54C272.488 378.612 272.828 378.72 273.14 378.864C273.452 379.008 273.72 379.184 273.944 379.392L273.428 380.592C273.052 380.296 272.668 380.084 272.276 379.956C271.884 379.828 271.452 379.764 270.98 379.764C270.084 379.764 269.404 380.024 268.94 380.544C268.484 381.064 268.256 381.812 268.256 382.788C268.256 383.772 268.492 384.52 268.964 385.032C269.436 385.544 270.136 385.8 271.064 385.8C271.384 385.8 271.708 385.768 272.036 385.704C272.364 385.64 272.684 385.552 272.996 385.44L272.696 386.124V383.568H270.752V382.428H273.98V386.496C273.724 386.624 273.428 386.736 273.092 386.832C272.764 386.92 272.42 386.988 272.06 387.036C271.7 387.092 271.344 387.12 270.992 387.12ZM275.76 387V378.54H279.432C280.36 378.54 281.076 378.764 281.58 379.212C282.084 379.652 282.336 380.272 282.336 381.072C282.336 381.592 282.22 382.04 281.988 382.416C281.764 382.792 281.436 383.08 281.004 383.28C280.572 383.48 280.048 383.58 279.432 383.58L279.54 383.4H279.936C280.264 383.4 280.548 383.48 280.788 383.64C281.036 383.8 281.252 384.052 281.436 384.396L282.852 387H281.16L279.696 384.3C279.6 384.124 279.492 383.988 279.372 383.892C279.252 383.788 279.116 383.716 278.964 383.676C278.812 383.636 278.636 383.616 278.436 383.616H277.296V387H275.76ZM277.296 382.476H279.168C279.72 382.476 280.136 382.364 280.416 382.14C280.704 381.908 280.848 381.564 280.848 381.108C280.848 380.66 280.704 380.324 280.416 380.1C280.136 379.868 279.72 379.752 279.168 379.752H277.296V382.476ZM283.987 387V378.54H289.615V379.764H285.463V382.092H289.351V383.316H285.463V385.776H289.615V387H283.987ZM291.147 387V378.54H296.775V379.764H292.623V382.092H296.511V383.316H292.623V385.776H296.775V387H291.147ZM298.307 387V378.54H301.451C302.395 378.54 303.195 378.704 303.851 379.032C304.515 379.36 305.019 379.84 305.363 380.472C305.715 381.096 305.891 381.86 305.891 382.764C305.891 383.668 305.715 384.436 305.363 385.068C305.019 385.7 304.515 386.18 303.851 386.508C303.195 386.836 302.395 387 301.451 387H298.307ZM299.843 385.728H301.355C302.339 385.728 303.071 385.484 303.551 384.996C304.039 384.5 304.283 383.756 304.283 382.764C304.283 381.772 304.039 381.032 303.551 380.544C303.063 380.056 302.331 379.812 301.355 379.812H299.843V385.728Z" fill="#808283"/>
<rect x="315" y="380" width="6" height="6" rx="3" fill="#6AA5FF"/>
<path d="M325.924 387V378.54H331.552V379.764H327.4V382.092H331.288V383.316H327.4V385.776H331.552V387H325.924ZM332.03 387L335.51 382.368V383.028L332.15 378.54H333.938L336.386 381.912H335.894L338.33 378.54H340.13L336.77 383.028V382.368L340.238 387H338.438L335.87 383.472H336.398L333.842 387H332.03ZM343.128 387V379.824H340.224V378.54H347.568V379.824H344.664V387H343.128ZM348.541 387V378.54H352.213C353.141 378.54 353.857 378.764 354.361 379.212C354.865 379.652 355.117 380.272 355.117 381.072C355.117 381.592 355.001 382.04 354.769 382.416C354.545 382.792 354.217 383.08 353.785 383.28C353.353 383.48 352.829 383.58 352.213 383.58L352.321 383.4H352.717C353.045 383.4 353.329 383.48 353.569 383.64C353.817 383.8 354.033 384.052 354.217 384.396L355.633 387H353.941L352.477 384.3C352.381 384.124 352.273 383.988 352.153 383.892C352.033 383.788 351.897 383.716 351.745 383.676C351.593 383.636 351.417 383.616 351.217 383.616H350.077V387H348.541ZM350.077 382.476H351.949C352.501 382.476 352.917 382.364 353.197 382.14C353.485 381.908 353.629 381.564 353.629 381.108C353.629 380.66 353.485 380.324 353.197 380.1C352.917 379.868 352.501 379.752 351.949 379.752H350.077V382.476ZM356.768 387V378.54H362.396V379.764H358.244V382.092H362.132V383.316H358.244V385.776H362.396V387H356.768ZM363.952 387V378.54H365.236L368.428 384.432H368.044L371.224 378.54H372.484V387H371.092V380.82H371.356L368.668 385.716H367.768L365.056 380.808H365.344V387H363.952ZM374.346 387V378.54H379.974V379.764H375.822V382.092H379.71V383.316H375.822V385.776H379.974V387H374.346ZM384.632 384.384V383.184H388.208V384.384H384.632ZM397.246 387.12C396.31 387.12 395.518 386.944 394.87 386.592C394.23 386.24 393.742 385.74 393.406 385.092C393.07 384.444 392.902 383.676 392.902 382.788C392.902 381.892 393.074 381.12 393.418 380.472C393.762 379.816 394.258 379.312 394.906 378.96C395.554 378.6 396.33 378.42 397.234 378.42C397.634 378.42 398.014 378.46 398.374 378.54C398.742 378.612 399.082 378.72 399.394 378.864C399.706 379.008 399.974 379.184 400.198 379.392L399.682 380.592C399.306 380.296 398.922 380.084 398.53 379.956C398.138 379.828 397.706 379.764 397.234 379.764C396.338 379.764 395.658 380.024 395.194 380.544C394.738 381.064 394.51 381.812 394.51 382.788C394.51 383.772 394.746 384.52 395.218 385.032C395.69 385.544 396.39 385.8 397.318 385.8C397.638 385.8 397.962 385.768 398.29 385.704C398.618 385.64 398.938 385.552 399.25 385.44L398.95 386.124V383.568H397.006V382.428H400.234V386.496C399.978 386.624 399.682 386.736 399.346 386.832C399.018 386.92 398.674 386.988 398.314 387.036C397.954 387.092 397.598 387.12 397.246 387.12ZM402.014 387V378.54H405.686C406.614 378.54 407.33 378.764 407.834 379.212C408.338 379.652 408.59 380.272 408.59 381.072C408.59 381.592 408.474 382.04 408.242 382.416C408.018 382.792 407.69 383.08 407.258 383.28C406.826 383.48 406.302 383.58 405.686 383.58L405.794 383.4H406.19C406.518 383.4 406.802 383.48 407.042 383.64C407.29 383.8 407.506 384.052 407.69 384.396L409.106 387H407.414L405.95 384.3C405.854 384.124 405.746 383.988 405.626 383.892C405.506 383.788 405.37 383.716 405.218 383.676C405.066 383.636 404.89 383.616 404.69 383.616H403.55V387H402.014ZM403.55 382.476H405.422C405.974 382.476 406.39 382.364 406.67 382.14C406.958 381.908 407.102 381.564 407.102 381.108C407.102 380.66 406.958 380.324 406.67 380.1C406.39 379.868 405.974 379.752 405.422 379.752H403.55V382.476ZM410.24 387V378.54H415.868V379.764H411.716V382.092H415.604V383.316H411.716V385.776H415.868V387H410.24ZM417.401 387V378.54H423.029V379.764H418.877V382.092H422.765V383.316H418.877V385.776H423.029V387H417.401ZM424.561 387V378.54H427.705C428.649 378.54 429.449 378.704 430.105 379.032C430.769 379.36 431.273 379.84 431.617 380.472C431.969 381.096 432.145 381.86 432.145 382.764C432.145 383.668 431.969 384.436 431.617 385.068C431.273 385.7 430.769 386.18 430.105 386.508C429.449 386.836 428.649 387 427.705 387H424.561ZM426.097 385.728H427.609C428.593 385.728 429.325 385.484 429.805 384.996C430.293 384.5 430.537 383.756 430.537 382.764C430.537 381.772 430.293 381.032 429.805 380.544C429.317 380.056 428.585 379.812 427.609 379.812H426.097V385.728Z" fill="#808283"/>
<rect x="441" y="380" width="6" height="6" rx="3" fill="#A06AFF"/>
<path d="M451.924 387V378.54H455.596C456.22 378.54 456.748 378.644 457.18 378.852C457.612 379.06 457.94 379.36 458.164 379.752C458.388 380.144 458.5 380.62 458.5 381.18C458.5 381.732 458.388 382.208 458.164 382.608C457.94 383 457.612 383.304 457.18 383.52C456.748 383.728 456.22 383.832 455.596 383.832H453.46V387H451.924ZM453.46 382.62H455.356C455.9 382.62 456.312 382.5 456.592 382.26C456.872 382.012 457.012 381.652 457.012 381.18C457.012 380.708 456.872 380.352 456.592 380.112C456.312 379.872 455.9 379.752 455.356 379.752H453.46V382.62ZM459.752 387V378.54H463.424C464.352 378.54 465.068 378.764 465.572 379.212C466.076 379.652 466.328 380.272 466.328 381.072C466.328 381.592 466.212 382.04 465.98 382.416C465.756 382.792 465.428 383.08 464.996 383.28C464.564 383.48 464.04 383.58 463.424 383.58L463.532 383.4H463.928C464.256 383.4 464.54 383.48 464.78 383.64C465.028 383.8 465.244 384.052 465.428 384.396L466.844 387H465.152L463.688 384.3C463.592 384.124 463.484 383.988 463.364 383.892C463.244 383.788 463.108 383.716 462.956 383.676C462.804 383.636 462.628 383.616 462.428 383.616H461.288V387H459.752ZM461.288 382.476H463.16C463.712 382.476 464.128 382.364 464.408 382.14C464.696 381.908 464.84 381.564 464.84 381.108C464.84 380.66 464.696 380.324 464.408 380.1C464.128 379.868 463.712 379.752 463.16 379.752H461.288V382.476ZM467.979 387V378.54H469.515V387H467.979ZM475.29 387.12C474.41 387.12 473.654 386.944 473.022 386.592C472.398 386.232 471.918 385.728 471.582 385.08C471.246 384.424 471.078 383.652 471.078 382.764C471.078 381.876 471.246 381.108 471.582 380.46C471.918 379.812 472.398 379.312 473.022 378.96C473.654 378.6 474.41 378.42 475.29 378.42C475.858 378.42 476.394 378.508 476.898 378.684C477.41 378.86 477.83 379.112 478.158 379.44L477.654 380.664C477.294 380.36 476.926 380.14 476.55 380.004C476.174 379.86 475.77 379.788 475.338 379.788C474.482 379.788 473.83 380.048 473.382 380.568C472.934 381.08 472.71 381.812 472.71 382.764C472.71 383.716 472.934 384.452 473.382 384.972C473.83 385.492 474.482 385.752 475.338 385.752C475.77 385.752 476.174 385.684 476.55 385.548C476.926 385.404 477.294 385.18 477.654 384.876L478.158 386.1C477.83 386.42 477.41 386.672 476.898 386.856C476.394 387.032 475.858 387.12 475.29 387.12ZM479.498 387V378.54H485.126V379.764H480.974V382.092H484.862V383.316H480.974V385.776H485.126V387H479.498ZM491.825 389.34C491.233 388.46 490.809 387.564 490.553 386.652C490.297 385.732 490.169 384.796 490.169 383.844C490.169 382.884 490.297 381.948 490.553 381.036C490.809 380.124 491.233 379.228 491.825 378.348L492.845 378.756C492.597 379.364 492.393 379.948 492.233 380.508C492.073 381.06 491.957 381.608 491.885 382.152C491.813 382.696 491.777 383.26 491.777 383.844C491.777 384.42 491.813 384.984 491.885 385.536C491.957 386.08 492.073 386.628 492.233 387.18C492.393 387.732 492.597 388.316 492.845 388.932L491.825 389.34ZM496.39 388.38V386.808L496.666 387.072C496.082 387.056 495.53 386.968 495.01 386.808C494.498 386.64 494.054 386.408 493.678 386.112L494.146 384.9C494.394 385.084 494.658 385.244 494.938 385.38C495.226 385.508 495.526 385.608 495.838 385.68C496.158 385.744 496.498 385.776 496.858 385.776C497.442 385.776 497.87 385.672 498.142 385.464C498.414 385.256 498.55 384.996 498.55 384.684C498.55 384.404 498.458 384.18 498.274 384.012C498.09 383.844 497.762 383.708 497.29 383.604L496.018 383.328C495.298 383.168 494.754 382.904 494.386 382.536C494.026 382.16 493.846 381.664 493.846 381.048C493.846 380.576 493.962 380.156 494.194 379.788C494.426 379.412 494.75 379.112 495.166 378.888C495.582 378.664 496.07 378.532 496.63 378.492L496.39 378.672V377.16H497.59V378.672L497.338 378.48C497.794 378.504 498.242 378.596 498.682 378.756C499.13 378.916 499.502 379.148 499.798 379.452L499.342 380.604C499.038 380.324 498.69 380.116 498.298 379.98C497.906 379.836 497.478 379.764 497.014 379.764C496.518 379.764 496.118 379.88 495.814 380.112C495.518 380.336 495.37 380.632 495.37 381C495.37 381.272 495.462 381.492 495.646 381.66C495.83 381.828 496.126 381.956 496.534 382.044L497.806 382.32C498.574 382.488 499.142 382.756 499.51 383.124C499.886 383.484 500.074 383.964 500.074 384.564C500.074 385.028 499.958 385.44 499.726 385.8C499.494 386.152 499.174 386.436 498.766 386.652C498.366 386.86 497.898 386.992 497.362 387.048L497.59 386.796V388.38H496.39ZM501.905 389.34L500.885 388.932C501.133 388.308 501.333 387.716 501.485 387.156C501.645 386.604 501.761 386.06 501.833 385.524C501.913 384.98 501.953 384.42 501.953 383.844C501.953 383.268 501.913 382.712 501.833 382.176C501.761 381.632 501.645 381.08 501.485 380.52C501.333 379.96 501.133 379.372 500.885 378.756L501.905 378.348C502.497 379.228 502.921 380.128 503.177 381.048C503.433 381.96 503.561 382.892 503.561 383.844C503.561 384.796 503.433 385.732 503.177 386.652C502.921 387.564 502.497 388.46 501.905 389.34Z" fill="#808283"/>
<rect x="48" y="131.5" width="414" height="1" fill="#23252D"/>
<path d="M490.311 137.38V135.808L490.587 136.072C490.003 136.056 489.451 135.968 488.931 135.808C488.419 135.64 487.975 135.408 487.599 135.112L488.067 133.9C488.315 134.084 488.579 134.244 488.859 134.38C489.147 134.508 489.447 134.608 489.759 134.68C490.079 134.744 490.419 134.776 490.779 134.776C491.363 134.776 491.791 134.672 492.063 134.464C492.335 134.256 492.471 133.996 492.471 133.684C492.471 133.404 492.379 133.18 492.195 133.012C492.011 132.844 491.683 132.708 491.211 132.604L489.939 132.328C489.219 132.168 488.675 131.904 488.307 131.536C487.947 131.16 487.767 130.664 487.767 130.048C487.767 129.576 487.883 129.156 488.115 128.788C488.347 128.412 488.671 128.112 489.087 127.888C489.503 127.664 489.991 127.532 490.551 127.492L490.311 127.672V126.16H491.511V127.672L491.259 127.48C491.715 127.504 492.163 127.596 492.603 127.756C493.051 127.916 493.423 128.148 493.719 128.452L493.263 129.604C492.959 129.324 492.611 129.116 492.219 128.98C491.827 128.836 491.399 128.764 490.935 128.764C490.439 128.764 490.039 128.88 489.735 129.112C489.439 129.336 489.291 129.632 489.291 130C489.291 130.272 489.383 130.492 489.567 130.66C489.751 130.828 490.047 130.956 490.455 131.044L491.727 131.32C492.495 131.488 493.063 131.756 493.431 132.124C493.807 132.484 493.995 132.964 493.995 133.564C493.995 134.028 493.879 134.44 493.647 134.8C493.415 135.152 493.095 135.436 492.687 135.652C492.287 135.86 491.819 135.992 491.283 136.048L491.511 135.796V137.38H490.311ZM495.695 136V134.728H497.603V128.836H498.347L496.127 130.18L495.527 129.052L498.047 127.54H499.139V134.728H500.927V136H495.695ZM502.53 136V127.54H503.814L507.006 133.432H506.622L509.802 127.54H511.062V136H509.67V129.82H509.934L507.246 134.716H506.346L503.634 129.808H503.922V136H502.53Z" fill="#808283"/>
<rect x="48" y="182.25" width="414" height="1" fill="#23252D"/>
<path d="M478.37 188.13V186.558L478.646 186.822C478.062 186.806 477.51 186.718 476.99 186.558C476.478 186.39 476.034 186.158 475.658 185.862L476.126 184.65C476.374 184.834 476.638 184.994 476.918 185.13C477.206 185.258 477.506 185.358 477.818 185.43C478.138 185.494 478.478 185.526 478.838 185.526C479.422 185.526 479.85 185.422 480.122 185.214C480.394 185.006 480.53 184.746 480.53 184.434C480.53 184.154 480.438 183.93 480.254 183.762C480.07 183.594 479.742 183.458 479.27 183.354L477.998 183.078C477.278 182.918 476.734 182.654 476.366 182.286C476.006 181.91 475.826 181.414 475.826 180.798C475.826 180.326 475.942 179.906 476.174 179.538C476.406 179.162 476.73 178.862 477.146 178.638C477.562 178.414 478.05 178.282 478.61 178.242L478.37 178.422V176.91H479.57V178.422L479.318 178.23C479.774 178.254 480.222 178.346 480.662 178.506C481.11 178.666 481.482 178.898 481.778 179.202L481.322 180.354C481.018 180.074 480.67 179.866 480.278 179.73C479.886 179.586 479.458 179.514 478.994 179.514C478.498 179.514 478.098 179.63 477.794 179.862C477.498 180.086 477.35 180.382 477.35 180.75C477.35 181.022 477.442 181.242 477.626 181.41C477.81 181.578 478.106 181.706 478.514 181.794L479.786 182.07C480.554 182.238 481.122 182.506 481.49 182.874C481.866 183.234 482.054 183.714 482.054 184.314C482.054 184.778 481.938 185.19 481.706 185.55C481.474 185.902 481.154 186.186 480.746 186.402C480.346 186.61 479.878 186.742 479.342 186.798L479.57 186.546V188.13H478.37ZM486.117 186.87C485.749 186.87 485.385 186.83 485.025 186.75C484.673 186.67 484.341 186.558 484.029 186.414C483.725 186.27 483.461 186.102 483.237 185.91L483.741 184.734C484.109 185.014 484.489 185.226 484.881 185.37C485.273 185.506 485.677 185.574 486.093 185.574C486.597 185.574 486.989 185.446 487.269 185.19C487.557 184.926 487.701 184.574 487.701 184.134C487.701 183.686 487.565 183.326 487.293 183.054C487.021 182.774 486.649 182.634 486.177 182.634C485.833 182.634 485.525 182.702 485.253 182.838C484.981 182.966 484.733 183.166 484.509 183.438H483.477V178.29H488.673V179.562H484.977V182.25H484.581C484.789 181.97 485.061 181.754 485.397 181.602C485.741 181.45 486.121 181.374 486.537 181.374C487.073 181.374 487.537 181.49 487.929 181.722C488.329 181.946 488.637 182.262 488.853 182.67C489.077 183.07 489.189 183.538 489.189 184.074C489.189 184.626 489.065 185.114 488.817 185.538C488.569 185.954 488.213 186.282 487.749 186.522C487.293 186.754 486.749 186.87 486.117 186.87ZM493.241 186.87C492.577 186.87 492.013 186.702 491.549 186.366C491.093 186.022 490.745 185.526 490.505 184.878C490.273 184.23 490.157 183.438 490.157 182.502C490.157 181.558 490.273 180.766 490.505 180.126C490.745 179.478 491.093 178.99 491.549 178.662C492.013 178.334 492.577 178.17 493.241 178.17C493.913 178.17 494.477 178.334 494.933 178.662C495.397 178.99 495.745 179.474 495.977 180.114C496.209 180.754 496.325 181.546 496.325 182.49C496.325 183.426 496.205 184.222 495.965 184.878C495.733 185.526 495.389 186.022 494.933 186.366C494.477 186.702 493.913 186.87 493.241 186.87ZM493.241 185.61C493.785 185.61 494.185 185.362 494.441 184.866C494.705 184.362 494.837 183.57 494.837 182.49C494.837 181.418 494.705 180.642 494.441 180.162C494.185 179.674 493.785 179.43 493.241 179.43C492.705 179.43 492.305 179.674 492.041 180.162C491.777 180.642 491.645 181.422 491.645 182.502C491.645 183.574 491.777 184.362 492.041 184.866C492.305 185.362 492.705 185.61 493.241 185.61ZM500.436 186.87C499.772 186.87 499.208 186.702 498.744 186.366C498.288 186.022 497.94 185.526 497.7 184.878C497.468 184.23 497.352 183.438 497.352 182.502C497.352 181.558 497.468 180.766 497.7 180.126C497.94 179.478 498.288 178.99 498.744 178.662C499.208 178.334 499.772 178.17 500.436 178.17C501.108 178.17 501.672 178.334 502.128 178.662C502.592 178.99 502.94 179.474 503.172 180.114C503.404 180.754 503.52 181.546 503.52 182.49C503.52 183.426 503.4 184.222 503.16 184.878C502.928 185.526 502.584 186.022 502.128 186.366C501.672 186.702 501.108 186.87 500.436 186.87ZM500.436 185.61C500.98 185.61 501.38 185.362 501.636 184.866C501.9 184.362 502.032 183.57 502.032 182.49C502.032 181.418 501.9 180.642 501.636 180.162C501.38 179.674 500.98 179.43 500.436 179.43C499.9 179.43 499.5 179.674 499.236 180.162C498.972 180.642 498.84 181.422 498.84 182.502C498.84 183.574 498.972 184.362 499.236 184.866C499.5 185.362 499.9 185.61 500.436 185.61ZM504.955 186.75V178.29H506.491V182.034H506.515L510.247 178.29H512.119L507.655 182.706L507.667 182.01L512.323 186.75H510.427L506.515 182.838H506.491V186.75H504.955Z" fill="#808283"/>
<rect x="48" y="233" width="414" height="1" fill="#23252D"/>
<path d="M478.37 238.88V237.308L478.646 237.572C478.062 237.556 477.51 237.468 476.99 237.308C476.478 237.14 476.034 236.908 475.658 236.612L476.126 235.4C476.374 235.584 476.638 235.744 476.918 235.88C477.206 236.008 477.506 236.108 477.818 236.18C478.138 236.244 478.478 236.276 478.838 236.276C479.422 236.276 479.85 236.172 480.122 235.964C480.394 235.756 480.53 235.496 480.53 235.184C480.53 234.904 480.438 234.68 480.254 234.512C480.07 234.344 479.742 234.208 479.27 234.104L477.998 233.828C477.278 233.668 476.734 233.404 476.366 233.036C476.006 232.66 475.826 232.164 475.826 231.548C475.826 231.076 475.942 230.656 476.174 230.288C476.406 229.912 476.73 229.612 477.146 229.388C477.562 229.164 478.05 229.032 478.61 228.992L478.37 229.172V227.66H479.57V229.172L479.318 228.98C479.774 229.004 480.222 229.096 480.662 229.256C481.11 229.416 481.482 229.648 481.778 229.952L481.322 231.104C481.018 230.824 480.67 230.616 480.278 230.48C479.886 230.336 479.458 230.264 478.994 230.264C478.498 230.264 478.098 230.38 477.794 230.612C477.498 230.836 477.35 231.132 477.35 231.5C477.35 231.772 477.442 231.992 477.626 232.16C477.81 232.328 478.106 232.456 478.514 232.544L479.786 232.82C480.554 232.988 481.122 233.256 481.49 233.624C481.866 233.984 482.054 234.464 482.054 235.064C482.054 235.528 481.938 235.94 481.706 236.3C481.474 236.652 481.154 236.936 480.746 237.152C480.346 237.36 479.878 237.492 479.342 237.548L479.57 237.296V238.88H478.37ZM483.405 237.5V236.36L486.141 233.444C486.389 233.18 486.585 232.936 486.729 232.712C486.881 232.488 486.993 232.272 487.065 232.064C487.137 231.856 487.173 231.648 487.173 231.44C487.173 231.04 487.045 230.736 486.789 230.528C486.541 230.32 486.177 230.216 485.697 230.216C485.321 230.216 484.953 230.288 484.593 230.432C484.241 230.568 483.901 230.784 483.573 231.08L483.057 229.928C483.393 229.624 483.813 229.38 484.317 229.196C484.821 229.012 485.345 228.92 485.889 228.92C486.497 228.92 487.009 229.012 487.425 229.196C487.841 229.38 488.157 229.648 488.373 230C488.589 230.352 488.697 230.78 488.697 231.284C488.697 231.54 488.665 231.792 488.601 232.04C488.545 232.28 488.453 232.52 488.325 232.76C488.205 233 488.049 233.248 487.857 233.504C487.673 233.752 487.449 234.012 487.185 234.284L484.929 236.636V236.228H489.021V237.5H483.405ZM493.241 237.62C492.577 237.62 492.013 237.452 491.549 237.116C491.093 236.772 490.745 236.276 490.505 235.628C490.273 234.98 490.157 234.188 490.157 233.252C490.157 232.308 490.273 231.516 490.505 230.876C490.745 230.228 491.093 229.74 491.549 229.412C492.013 229.084 492.577 228.92 493.241 228.92C493.913 228.92 494.477 229.084 494.933 229.412C495.397 229.74 495.745 230.224 495.977 230.864C496.209 231.504 496.325 232.296 496.325 233.24C496.325 234.176 496.205 234.972 495.965 235.628C495.733 236.276 495.389 236.772 494.933 237.116C494.477 237.452 493.913 237.62 493.241 237.62ZM493.241 236.36C493.785 236.36 494.185 236.112 494.441 235.616C494.705 235.112 494.837 234.32 494.837 233.24C494.837 232.168 494.705 231.392 494.441 230.912C494.185 230.424 493.785 230.18 493.241 230.18C492.705 230.18 492.305 230.424 492.041 230.912C491.777 231.392 491.645 232.172 491.645 233.252C491.645 234.324 491.777 235.112 492.041 235.616C492.305 236.112 492.705 236.36 493.241 236.36ZM500.436 237.62C499.772 237.62 499.208 237.452 498.744 237.116C498.288 236.772 497.94 236.276 497.7 235.628C497.468 234.98 497.352 234.188 497.352 233.252C497.352 232.308 497.468 231.516 497.7 230.876C497.94 230.228 498.288 229.74 498.744 229.412C499.208 229.084 499.772 228.92 500.436 228.92C501.108 228.92 501.672 229.084 502.128 229.412C502.592 229.74 502.94 230.224 503.172 230.864C503.404 231.504 503.52 232.296 503.52 233.24C503.52 234.176 503.4 234.972 503.16 235.628C502.928 236.276 502.584 236.772 502.128 237.116C501.672 237.452 501.108 237.62 500.436 237.62ZM500.436 236.36C500.98 236.36 501.38 236.112 501.636 235.616C501.9 235.112 502.032 234.32 502.032 233.24C502.032 232.168 501.9 231.392 501.636 230.912C501.38 230.424 500.98 230.18 500.436 230.18C499.9 230.18 499.5 230.424 499.236 230.912C498.972 231.392 498.84 232.172 498.84 233.252C498.84 234.324 498.972 235.112 499.236 235.616C499.5 236.112 499.9 236.36 500.436 236.36ZM504.955 237.5V229.04H506.491V232.784H506.515L510.247 229.04H512.119L507.655 233.456L507.667 232.76L512.323 237.5H510.427L506.515 233.588H506.491V237.5H504.955Z" fill="#808283"/>
<rect x="48" y="283.75" width="414" height="1" fill="#23252D"/>
<path d="M478.37 289.63V288.058L478.646 288.322C478.062 288.306 477.51 288.218 476.99 288.058C476.478 287.89 476.034 287.658 475.658 287.362L476.126 286.15C476.374 286.334 476.638 286.494 476.918 286.63C477.206 286.758 477.506 286.858 477.818 286.93C478.138 286.994 478.478 287.026 478.838 287.026C479.422 287.026 479.85 286.922 480.122 286.714C480.394 286.506 480.53 286.246 480.53 285.934C480.53 285.654 480.438 285.43 480.254 285.262C480.07 285.094 479.742 284.958 479.27 284.854L477.998 284.578C477.278 284.418 476.734 284.154 476.366 283.786C476.006 283.41 475.826 282.914 475.826 282.298C475.826 281.826 475.942 281.406 476.174 281.038C476.406 280.662 476.73 280.362 477.146 280.138C477.562 279.914 478.05 279.782 478.61 279.742L478.37 279.922V278.41H479.57V279.922L479.318 279.73C479.774 279.754 480.222 279.846 480.662 280.006C481.11 280.166 481.482 280.398 481.778 280.702L481.322 281.854C481.018 281.574 480.67 281.366 480.278 281.23C479.886 281.086 479.458 281.014 478.994 281.014C478.498 281.014 478.098 281.13 477.794 281.362C477.498 281.586 477.35 281.882 477.35 282.25C477.35 282.522 477.442 282.742 477.626 282.91C477.81 283.078 478.106 283.206 478.514 283.294L479.786 283.57C480.554 283.738 481.122 284.006 481.49 284.374C481.866 284.734 482.054 285.214 482.054 285.814C482.054 286.278 481.938 286.69 481.706 287.05C481.474 287.402 481.154 287.686 480.746 287.902C480.346 288.11 479.878 288.242 479.342 288.298L479.57 288.046V289.63H478.37ZM483.753 288.25V286.978H485.661V281.086H486.405L484.185 282.43L483.585 281.302L486.105 279.79H487.197V286.978H488.985V288.25H483.753ZM493.241 288.37C492.577 288.37 492.013 288.202 491.549 287.866C491.093 287.522 490.745 287.026 490.505 286.378C490.273 285.73 490.157 284.938 490.157 284.002C490.157 283.058 490.273 282.266 490.505 281.626C490.745 280.978 491.093 280.49 491.549 280.162C492.013 279.834 492.577 279.67 493.241 279.67C493.913 279.67 494.477 279.834 494.933 280.162C495.397 280.49 495.745 280.974 495.977 281.614C496.209 282.254 496.325 283.046 496.325 283.99C496.325 284.926 496.205 285.722 495.965 286.378C495.733 287.026 495.389 287.522 494.933 287.866C494.477 288.202 493.913 288.37 493.241 288.37ZM493.241 287.11C493.785 287.11 494.185 286.862 494.441 286.366C494.705 285.862 494.837 285.07 494.837 283.99C494.837 282.918 494.705 282.142 494.441 281.662C494.185 281.174 493.785 280.93 493.241 280.93C492.705 280.93 492.305 281.174 492.041 281.662C491.777 282.142 491.645 282.922 491.645 284.002C491.645 285.074 491.777 285.862 492.041 286.366C492.305 286.862 492.705 287.11 493.241 287.11ZM500.436 288.37C499.772 288.37 499.208 288.202 498.744 287.866C498.288 287.522 497.94 287.026 497.7 286.378C497.468 285.73 497.352 284.938 497.352 284.002C497.352 283.058 497.468 282.266 497.7 281.626C497.94 280.978 498.288 280.49 498.744 280.162C499.208 279.834 499.772 279.67 500.436 279.67C501.108 279.67 501.672 279.834 502.128 280.162C502.592 280.49 502.94 280.974 503.172 281.614C503.404 282.254 503.52 283.046 503.52 283.99C503.52 284.926 503.4 285.722 503.16 286.378C502.928 287.026 502.584 287.522 502.128 287.866C501.672 288.202 501.108 288.37 500.436 288.37ZM500.436 287.11C500.98 287.11 501.38 286.862 501.636 286.366C501.9 285.862 502.032 285.07 502.032 283.99C502.032 282.918 501.9 282.142 501.636 281.662C501.38 281.174 500.98 280.93 500.436 280.93C499.9 280.93 499.5 281.174 499.236 281.662C498.972 282.142 498.84 282.922 498.84 284.002C498.84 285.074 498.972 285.862 499.236 286.366C499.5 286.862 499.9 287.11 500.436 287.11ZM504.955 288.25V279.79H506.491V283.534H506.515L510.247 279.79H512.119L507.655 284.206L507.667 283.51L512.323 288.25H510.427L506.515 284.338H506.491V288.25H504.955Z" fill="#808283"/>
<rect x="48" y="334.5" width="414" height="1" fill="#313338"/>
<path d="M485.565 340.38V338.808L485.841 339.072C485.257 339.056 484.705 338.968 484.185 338.808C483.673 338.64 483.229 338.408 482.853 338.112L483.321 336.9C483.569 337.084 483.833 337.244 484.113 337.38C484.401 337.508 484.701 337.608 485.013 337.68C485.333 337.744 485.673 337.776 486.033 337.776C486.617 337.776 487.045 337.672 487.317 337.464C487.589 337.256 487.725 336.996 487.725 336.684C487.725 336.404 487.633 336.18 487.449 336.012C487.265 335.844 486.937 335.708 486.465 335.604L485.193 335.328C484.473 335.168 483.929 334.904 483.561 334.536C483.201 334.16 483.021 333.664 483.021 333.048C483.021 332.576 483.137 332.156 483.369 331.788C483.601 331.412 483.925 331.112 484.341 330.888C484.757 330.664 485.245 330.532 485.805 330.492L485.565 330.672V329.16H486.765V330.672L486.513 330.48C486.969 330.504 487.417 330.596 487.857 330.756C488.305 330.916 488.677 331.148 488.973 331.452L488.517 332.604C488.213 332.324 487.865 332.116 487.473 331.98C487.081 331.836 486.653 331.764 486.189 331.764C485.693 331.764 485.293 331.88 484.989 332.112C484.693 332.336 484.545 332.632 484.545 333C484.545 333.272 484.637 333.492 484.821 333.66C485.005 333.828 485.301 333.956 485.709 334.044L486.981 334.32C487.749 334.488 488.317 334.756 488.685 335.124C489.061 335.484 489.249 335.964 489.249 336.564C489.249 337.028 489.133 337.44 488.901 337.8C488.669 338.152 488.349 338.436 487.941 338.652C487.541 338.86 487.073 338.992 486.537 339.048L486.765 338.796V340.38H485.565ZM493.313 339.12C492.945 339.12 492.581 339.08 492.221 339C491.869 338.92 491.537 338.808 491.225 338.664C490.921 338.52 490.657 338.352 490.433 338.16L490.937 336.984C491.305 337.264 491.685 337.476 492.077 337.62C492.469 337.756 492.873 337.824 493.289 337.824C493.793 337.824 494.185 337.696 494.465 337.44C494.753 337.176 494.897 336.824 494.897 336.384C494.897 335.936 494.761 335.576 494.489 335.304C494.217 335.024 493.845 334.884 493.373 334.884C493.029 334.884 492.721 334.952 492.449 335.088C492.177 335.216 491.929 335.416 491.705 335.688H490.673V330.54H495.869V331.812H492.173V334.5H491.777C491.985 334.22 492.257 334.004 492.593 333.852C492.937 333.7 493.317 333.624 493.733 333.624C494.269 333.624 494.733 333.74 495.125 333.972C495.525 334.196 495.833 334.512 496.049 334.92C496.273 335.32 496.385 335.788 496.385 336.324C496.385 336.876 496.261 337.364 496.013 337.788C495.765 338.204 495.409 338.532 494.945 338.772C494.489 339.004 493.945 339.12 493.313 339.12ZM500.436 339.12C499.772 339.12 499.208 338.952 498.744 338.616C498.288 338.272 497.94 337.776 497.7 337.128C497.468 336.48 497.352 335.688 497.352 334.752C497.352 333.808 497.468 333.016 497.7 332.376C497.94 331.728 498.288 331.24 498.744 330.912C499.208 330.584 499.772 330.42 500.436 330.42C501.108 330.42 501.672 330.584 502.128 330.912C502.592 331.24 502.94 331.724 503.172 332.364C503.404 333.004 503.52 333.796 503.52 334.74C503.52 335.676 503.4 336.472 503.16 337.128C502.928 337.776 502.584 338.272 502.128 338.616C501.672 338.952 501.108 339.12 500.436 339.12ZM500.436 337.86C500.98 337.86 501.38 337.612 501.636 337.116C501.9 336.612 502.032 335.82 502.032 334.74C502.032 333.668 501.9 332.892 501.636 332.412C501.38 331.924 500.98 331.68 500.436 331.68C499.9 331.68 499.5 331.924 499.236 332.412C498.972 332.892 498.84 333.672 498.84 334.752C498.84 335.824 498.972 336.612 499.236 337.116C499.5 337.612 499.9 337.86 500.436 337.86ZM504.955 339V330.54H506.491V334.284H506.515L510.247 330.54H512.119L507.655 334.956L507.667 334.26L512.323 339H510.427L506.515 335.088H506.491V339H504.955Z" fill="#808283"/>
<rect x="77.832" y="335" width="1" height="8" fill="#313338"/>
<path d="M55.9903 355V346.54H57.2743L60.4663 352.432H60.0823L63.2623 346.54H64.5223V355H63.1303V348.82H63.3943L60.7063 353.716H59.8063L57.0943 348.808H57.3823V355H55.9903ZM65.4723 355L69.3003 346.54H70.5603L74.3883 355H72.8283L71.8083 352.624L72.4563 353.044H67.3923L68.0403 352.624L67.0323 355H65.4723ZM69.9123 348.208L68.2323 352.204L67.9203 351.82H71.9283L71.6283 352.204L69.9363 348.208H69.9123ZM76.5448 355V350.644L76.8688 351.568L73.2928 346.54H75.0808L77.5048 349.984H77.1688L79.6048 346.54H81.3208L77.7688 351.568L78.0808 350.644V355H76.5448ZM84.9052 349.708V348.616C84.9052 348.344 84.9332 348.088 84.9892 347.848C85.0532 347.608 85.1532 347.372 85.2892 347.14C85.4332 346.908 85.6212 346.676 85.8532 346.444L86.4772 346.936C86.3092 347.112 86.1732 347.28 86.0692 347.44C85.9652 347.592 85.8892 347.748 85.8412 347.908C85.8012 348.06 85.7812 348.22 85.7812 348.388L85.4092 348.04H86.5852V349.708H84.9052ZM88.1937 355V353.86L90.9297 350.944C91.1777 350.68 91.3737 350.436 91.5177 350.212C91.6697 349.988 91.7817 349.772 91.8537 349.564C91.9257 349.356 91.9617 349.148 91.9617 348.94C91.9617 348.54 91.8337 348.236 91.5777 348.028C91.3297 347.82 90.9657 347.716 90.4857 347.716C90.1097 347.716 89.7417 347.788 89.3817 347.932C89.0297 348.068 88.6897 348.284 88.3617 348.58L87.8457 347.428C88.1817 347.124 88.6017 346.88 89.1057 346.696C89.6097 346.512 90.1337 346.42 90.6777 346.42C91.2857 346.42 91.7977 346.512 92.2137 346.696C92.6297 346.88 92.9457 347.148 93.1617 347.5C93.3777 347.852 93.4857 348.28 93.4857 348.784C93.4857 349.04 93.4537 349.292 93.3897 349.54C93.3337 349.78 93.2417 350.02 93.1137 350.26C92.9937 350.5 92.8377 350.748 92.6457 351.004C92.4617 351.252 92.2377 351.512 91.9737 351.784L89.7177 354.136V353.728H93.8097V355H88.1937ZM98.617 355V353.392H94.933V352.264L98.881 346.54H100.153V352.12H101.341V353.392H100.153V355H98.617ZM98.617 352.12V348.376H98.965L96.133 352.528V352.12H98.617Z" fill="#808283"/>
<rect x="148.5" y="335" width="1" height="8" fill="#313338"/>
<path d="M128.757 355.108L128.649 353.848L129.501 353.8C129.741 353.784 129.937 353.732 130.089 353.644C130.249 353.548 130.369 353.416 130.449 353.248C130.529 353.072 130.569 352.864 130.569 352.624V346.54H132.105V352.612C132.105 353.116 132.017 353.544 131.841 353.896C131.665 354.248 131.401 354.52 131.049 354.712C130.697 354.904 130.261 355.02 129.741 355.06L128.757 355.108ZM137.475 355.12C136.315 355.12 135.427 354.82 134.811 354.22C134.203 353.612 133.899 352.716 133.899 351.532V346.54H135.435V351.52C135.435 352.28 135.607 352.852 135.951 353.236C136.303 353.612 136.811 353.8 137.475 353.8C138.139 353.8 138.643 353.612 138.987 353.236C139.331 352.852 139.503 352.28 139.503 351.52V346.54H141.027V351.532C141.027 352.716 140.727 353.612 140.127 354.22C139.527 354.82 138.643 355.12 137.475 355.12ZM142.818 355V346.54H144.354V353.692H148.41V355H142.818ZM152.515 349.708V348.616C152.515 348.344 152.543 348.088 152.599 347.848C152.663 347.608 152.763 347.372 152.899 347.14C153.043 346.908 153.231 346.676 153.463 346.444L154.087 346.936C153.919 347.112 153.783 347.28 153.679 347.44C153.575 347.592 153.499 347.748 153.451 347.908C153.411 348.06 153.391 348.22 153.391 348.388L153.019 348.04H154.195V349.708H152.515ZM155.803 355V353.86L158.539 350.944C158.787 350.68 158.983 350.436 159.127 350.212C159.279 349.988 159.391 349.772 159.463 349.564C159.535 349.356 159.571 349.148 159.571 348.94C159.571 348.54 159.443 348.236 159.187 348.028C158.939 347.82 158.575 347.716 158.095 347.716C157.719 347.716 157.351 347.788 156.991 347.932C156.639 348.068 156.299 348.284 155.971 348.58L155.455 347.428C155.791 347.124 156.211 346.88 156.715 346.696C157.219 346.512 157.743 346.42 158.287 346.42C158.895 346.42 159.407 346.512 159.823 346.696C160.239 346.88 160.555 347.148 160.771 347.5C160.987 347.852 161.095 348.28 161.095 348.784C161.095 349.04 161.063 349.292 160.999 349.54C160.943 349.78 160.851 350.02 160.723 350.26C160.603 350.5 160.447 350.748 160.255 351.004C160.071 351.252 159.847 351.512 159.583 351.784L157.327 354.136V353.728H161.419V355H155.803ZM166.226 355V353.392H162.542V352.264L166.49 346.54H167.762V352.12H168.95V353.392H167.762V355H166.226ZM166.226 352.12V348.376H166.574L163.742 352.528V352.12H166.226Z" fill="#808283"/>
<rect x="219.164" y="335" width="1" height="8" fill="#313338"/>
<path d="M201.925 355.12C201.485 355.12 201.061 355.08 200.653 355C200.253 354.928 199.881 354.82 199.537 354.676C199.201 354.532 198.901 354.36 198.637 354.16L199.105 352.948C199.369 353.132 199.645 353.292 199.933 353.428C200.229 353.556 200.541 353.656 200.869 353.728C201.205 353.792 201.557 353.824 201.925 353.824C202.557 353.824 203.017 353.72 203.305 353.512C203.593 353.296 203.737 353.02 203.737 352.684C203.737 352.5 203.693 352.344 203.605 352.216C203.517 352.08 203.373 351.964 203.173 351.868C202.973 351.772 202.709 351.692 202.381 351.628L201.061 351.352C200.301 351.192 199.733 350.924 199.357 350.548C198.989 350.164 198.805 349.66 198.805 349.036C198.805 348.508 198.945 348.048 199.225 347.656C199.505 347.264 199.893 346.96 200.389 346.744C200.885 346.528 201.457 346.42 202.105 346.42C202.489 346.42 202.857 346.46 203.209 346.54C203.569 346.612 203.897 346.724 204.193 346.876C204.497 347.02 204.761 347.196 204.985 347.404L204.517 348.556C204.181 348.276 203.813 348.068 203.413 347.932C203.013 347.788 202.573 347.716 202.093 347.716C201.725 347.716 201.409 347.768 201.145 347.872C200.881 347.976 200.677 348.124 200.533 348.316C200.397 348.5 200.329 348.72 200.329 348.976C200.329 349.264 200.425 349.496 200.617 349.672C200.809 349.84 201.137 349.972 201.601 350.068L202.909 350.344C203.701 350.512 204.289 350.776 204.673 351.136C205.065 351.496 205.261 351.976 205.261 352.576C205.261 353.08 205.125 353.524 204.853 353.908C204.581 354.292 204.193 354.592 203.689 354.808C203.193 355.016 202.605 355.12 201.925 355.12ZM206.58 355V346.54H212.208V347.764H208.056V350.092H211.944V351.316H208.056V353.776H212.208V355H206.58ZM213.74 355V346.54H217.412C218.036 346.54 218.564 346.644 218.996 346.852C219.428 347.06 219.756 347.36 219.98 347.752C220.204 348.144 220.316 348.62 220.316 349.18C220.316 349.732 220.204 350.208 219.98 350.608C219.756 351 219.428 351.304 218.996 351.52C218.564 351.728 218.036 351.832 217.412 351.832H215.276V355H213.74ZM215.276 350.62H217.172C217.716 350.62 218.128 350.5 218.408 350.26C218.688 350.012 218.828 349.652 218.828 349.18C218.828 348.708 218.688 348.352 218.408 348.112C218.128 347.872 217.716 347.752 217.172 347.752H215.276V350.62ZM224.526 349.708V348.616C224.526 348.344 224.554 348.088 224.61 347.848C224.674 347.608 224.774 347.372 224.91 347.14C225.054 346.908 225.242 346.676 225.474 346.444L226.098 346.936C225.93 347.112 225.794 347.28 225.69 347.44C225.586 347.592 225.51 347.748 225.462 347.908C225.422 348.06 225.402 348.22 225.402 348.388L225.03 348.04H226.206V349.708H224.526ZM227.815 355V353.86L230.551 350.944C230.799 350.68 230.995 350.436 231.139 350.212C231.291 349.988 231.403 349.772 231.475 349.564C231.547 349.356 231.583 349.148 231.583 348.94C231.583 348.54 231.455 348.236 231.199 348.028C230.951 347.82 230.587 347.716 230.107 347.716C229.731 347.716 229.363 347.788 229.003 347.932C228.651 348.068 228.311 348.284 227.983 348.58L227.467 347.428C227.803 347.124 228.223 346.88 228.727 346.696C229.231 346.512 229.755 346.42 230.299 346.42C230.907 346.42 231.419 346.512 231.835 346.696C232.251 346.88 232.567 347.148 232.783 347.5C232.999 347.852 233.107 348.28 233.107 348.784C233.107 349.04 233.075 349.292 233.011 349.54C232.955 349.78 232.863 350.02 232.735 350.26C232.615 350.5 232.459 350.748 232.267 351.004C232.083 351.252 231.859 351.512 231.595 351.784L229.339 354.136V353.728H233.431V355H227.815ZM238.238 355V353.392H234.554V352.264L238.502 346.54H239.774V352.12H240.962V353.392H239.774V355H238.238ZM238.238 352.12V348.376H238.586L235.754 352.528V352.12H238.238Z" fill="#808283"/>
<rect x="289.832" y="335" width="1" height="8" fill="#313338"/>
<path d="M267.585 355V346.54H268.737L273.597 352.852H273.285V346.54H274.713V355H273.573L268.713 348.676H269.013V355H267.585ZM280.354 355.12C279.738 355.12 279.178 355.02 278.674 354.82C278.178 354.612 277.75 354.316 277.39 353.932C277.038 353.548 276.766 353.088 276.574 352.552C276.382 352.016 276.286 351.42 276.286 350.764C276.286 350.1 276.382 349.504 276.574 348.976C276.766 348.44 277.038 347.984 277.39 347.608C277.75 347.224 278.178 346.932 278.674 346.732C279.178 346.524 279.738 346.42 280.354 346.42C280.97 346.42 281.526 346.524 282.022 346.732C282.526 346.932 282.954 347.22 283.306 347.596C283.666 347.972 283.942 348.428 284.134 348.964C284.326 349.492 284.422 350.088 284.422 350.752C284.422 351.416 284.326 352.016 284.134 352.552C283.942 353.088 283.666 353.548 283.306 353.932C282.954 354.316 282.526 354.612 282.022 354.82C281.526 355.02 280.97 355.12 280.354 355.12ZM280.354 353.8C280.874 353.8 281.314 353.68 281.674 353.44C282.042 353.2 282.322 352.852 282.514 352.396C282.714 351.94 282.814 351.396 282.814 350.764C282.814 350.124 282.718 349.58 282.526 349.132C282.334 348.676 282.054 348.332 281.686 348.1C281.318 347.86 280.874 347.74 280.354 347.74C279.842 347.74 279.402 347.86 279.034 348.1C278.666 348.332 278.382 348.676 278.182 349.132C277.99 349.58 277.894 350.124 277.894 350.764C277.894 351.396 277.99 351.94 278.182 352.396C278.382 352.852 278.666 353.2 279.034 353.44C279.402 353.68 279.842 353.8 280.354 353.8ZM288.485 355L284.717 346.54H286.361L289.421 353.632H288.905L291.953 346.54H293.537L289.769 355H288.485ZM297.286 349.708V348.616C297.286 348.344 297.314 348.088 297.37 347.848C297.434 347.608 297.534 347.372 297.67 347.14C297.814 346.908 298.002 346.676 298.234 346.444L298.858 346.936C298.69 347.112 298.554 347.28 298.45 347.44C298.346 347.592 298.27 347.748 298.222 347.908C298.182 348.06 298.162 348.22 298.162 348.388L297.79 348.04H298.966V349.708H297.286ZM300.575 355V353.86L303.311 350.944C303.559 350.68 303.755 350.436 303.899 350.212C304.051 349.988 304.163 349.772 304.235 349.564C304.307 349.356 304.343 349.148 304.343 348.94C304.343 348.54 304.215 348.236 303.959 348.028C303.711 347.82 303.347 347.716 302.867 347.716C302.491 347.716 302.123 347.788 301.763 347.932C301.411 348.068 301.071 348.284 300.743 348.58L300.227 347.428C300.563 347.124 300.983 346.88 301.487 346.696C301.991 346.512 302.515 346.42 303.059 346.42C303.667 346.42 304.179 346.512 304.595 346.696C305.011 346.88 305.327 347.148 305.543 347.5C305.759 347.852 305.867 348.28 305.867 348.784C305.867 349.04 305.835 349.292 305.771 349.54C305.715 349.78 305.623 350.02 305.495 350.26C305.375 350.5 305.219 350.748 305.027 351.004C304.843 351.252 304.619 351.512 304.355 351.784L302.099 354.136V353.728H306.191V355H300.575ZM310.998 355V353.392H307.314V352.264L311.262 346.54H312.534V352.12H313.722V353.392H312.534V355H310.998ZM310.998 352.12V348.376H311.346L308.514 352.528V352.12H310.998Z" fill="#808283"/>
<rect x="360.5" y="335" width="1" height="8" fill="#313338"/>
<path d="M339.603 355.108L339.495 353.848L340.347 353.8C340.587 353.784 340.783 353.732 340.935 353.644C341.095 353.548 341.215 353.416 341.295 353.248C341.375 353.072 341.415 352.864 341.415 352.624V346.54H342.951V352.612C342.951 353.116 342.863 353.544 342.687 353.896C342.511 354.248 342.247 354.52 341.895 354.712C341.543 354.904 341.107 355.02 340.587 355.06L339.603 355.108ZM343.892 355L347.72 346.54H348.98L352.808 355H351.248L350.228 352.624L350.876 353.044H345.812L346.46 352.624L345.452 355H343.892ZM348.332 348.208L346.652 352.204L346.34 351.82H350.348L350.048 352.204L348.356 348.208H348.332ZM353.734 355V346.54H354.886L359.746 352.852H359.434V346.54H360.862V355H359.722L354.862 348.676H355.162V355H353.734ZM365.669 349.708V348.616C365.669 348.344 365.697 348.088 365.753 347.848C365.817 347.608 365.917 347.372 366.053 347.14C366.197 346.908 366.385 346.676 366.617 346.444L367.241 346.936C367.073 347.112 366.937 347.28 366.833 347.44C366.729 347.592 366.653 347.748 366.605 347.908C366.565 348.06 366.545 348.22 366.545 348.388L366.173 348.04H367.349V349.708H365.669ZM368.957 355V353.86L371.693 350.944C371.941 350.68 372.137 350.436 372.281 350.212C372.433 349.988 372.545 349.772 372.617 349.564C372.689 349.356 372.725 349.148 372.725 348.94C372.725 348.54 372.597 348.236 372.341 348.028C372.093 347.82 371.729 347.716 371.249 347.716C370.873 347.716 370.505 347.788 370.145 347.932C369.793 348.068 369.453 348.284 369.125 348.58L368.609 347.428C368.945 347.124 369.365 346.88 369.869 346.696C370.373 346.512 370.897 346.42 371.441 346.42C372.049 346.42 372.561 346.512 372.977 346.696C373.393 346.88 373.709 347.148 373.925 347.5C374.141 347.852 374.249 348.28 374.249 348.784C374.249 349.04 374.217 349.292 374.153 349.54C374.097 349.78 374.005 350.02 373.877 350.26C373.757 350.5 373.601 350.748 373.409 351.004C373.225 351.252 373.001 351.512 372.737 351.784L370.481 354.136V353.728H374.573V355H368.957ZM378.865 355.12C378.497 355.12 378.133 355.08 377.773 355C377.421 354.92 377.089 354.808 376.777 354.664C376.473 354.52 376.209 354.352 375.985 354.16L376.489 352.984C376.857 353.264 377.237 353.476 377.629 353.62C378.021 353.756 378.425 353.824 378.841 353.824C379.345 353.824 379.737 353.696 380.017 353.44C380.305 353.176 380.449 352.824 380.449 352.384C380.449 351.936 380.313 351.576 380.041 351.304C379.769 351.024 379.397 350.884 378.925 350.884C378.581 350.884 378.273 350.952 378.001 351.088C377.729 351.216 377.481 351.416 377.257 351.688H376.225V346.54H381.421V347.812H377.725V350.5H377.329C377.537 350.22 377.809 350.004 378.145 349.852C378.489 349.7 378.869 349.624 379.285 349.624C379.821 349.624 380.285 349.74 380.677 349.972C381.077 350.196 381.385 350.512 381.601 350.92C381.825 351.32 381.937 351.788 381.937 352.324C381.937 352.876 381.813 353.364 381.565 353.788C381.317 354.204 380.961 354.532 380.497 354.772C380.041 355.004 379.497 355.12 378.865 355.12Z" fill="#808283"/>
<rect x="431.164" y="335" width="1" height="8" fill="#313338"/>
<path d="M408.525 355V346.54H409.809L413.001 352.432H412.617L415.797 346.54H417.057V355H415.665V348.82H415.929L413.241 353.716H412.341L409.629 348.808H409.917V355H408.525ZM418.007 355L421.835 346.54H423.095L426.923 355H425.363L424.343 352.624L424.991 353.044H419.927L420.575 352.624L419.567 355H418.007ZM422.447 348.208L420.767 352.204L420.455 351.82H424.463L424.163 352.204L422.471 348.208H422.447ZM427.849 355V346.54H431.521C432.449 346.54 433.165 346.764 433.669 347.212C434.173 347.652 434.425 348.272 434.425 349.072C434.425 349.592 434.309 350.04 434.077 350.416C433.853 350.792 433.525 351.08 433.093 351.28C432.661 351.48 432.137 351.58 431.521 351.58L431.629 351.4H432.025C432.353 351.4 432.637 351.48 432.877 351.64C433.125 351.8 433.341 352.052 433.525 352.396L434.941 355H433.249L431.785 352.3C431.689 352.124 431.581 351.988 431.461 351.892C431.341 351.788 431.205 351.716 431.053 351.676C430.901 351.636 430.725 351.616 430.525 351.616H429.385V355H427.849ZM429.385 350.476H431.257C431.809 350.476 432.225 350.364 432.505 350.14C432.793 349.908 432.937 349.564 432.937 349.108C432.937 348.66 432.793 348.324 432.505 348.1C432.225 347.868 431.809 347.752 431.257 347.752H429.385V350.476ZM439.034 349.708V348.616C439.034 348.344 439.062 348.088 439.118 347.848C439.182 347.608 439.282 347.372 439.418 347.14C439.562 346.908 439.75 346.676 439.982 346.444L440.606 346.936C440.438 347.112 440.302 347.28 440.198 347.44C440.094 347.592 440.018 347.748 439.97 347.908C439.93 348.06 439.91 348.22 439.91 348.388L439.538 348.04H440.714V349.708H439.034ZM442.323 355V353.86L445.059 350.944C445.307 350.68 445.503 350.436 445.647 350.212C445.799 349.988 445.911 349.772 445.983 349.564C446.055 349.356 446.091 349.148 446.091 348.94C446.091 348.54 445.963 348.236 445.707 348.028C445.459 347.82 445.095 347.716 444.615 347.716C444.239 347.716 443.871 347.788 443.511 347.932C443.159 348.068 442.819 348.284 442.491 348.58L441.975 347.428C442.311 347.124 442.731 346.88 443.235 346.696C443.739 346.512 444.263 346.42 444.807 346.42C445.415 346.42 445.927 346.512 446.343 346.696C446.759 346.88 447.075 347.148 447.291 347.5C447.507 347.852 447.615 348.28 447.615 348.784C447.615 349.04 447.583 349.292 447.519 349.54C447.463 349.78 447.371 350.02 447.243 350.26C447.123 350.5 446.967 350.748 446.775 351.004C446.591 351.252 446.367 351.512 446.103 351.784L443.847 354.136V353.728H447.939V355H442.323ZM452.23 355.12C451.862 355.12 451.498 355.08 451.138 355C450.786 354.92 450.454 354.808 450.142 354.664C449.838 354.52 449.574 354.352 449.35 354.16L449.854 352.984C450.222 353.264 450.602 353.476 450.994 353.62C451.386 353.756 451.79 353.824 452.206 353.824C452.71 353.824 453.102 353.696 453.382 353.44C453.67 353.176 453.814 352.824 453.814 352.384C453.814 351.936 453.678 351.576 453.406 351.304C453.134 351.024 452.762 350.884 452.29 350.884C451.946 350.884 451.638 350.952 451.366 351.088C451.094 351.216 450.846 351.416 450.622 351.688H449.59V346.54H454.786V347.812H451.09V350.5H450.694C450.902 350.22 451.174 350.004 451.51 349.852C451.854 349.7 452.234 349.624 452.65 349.624C453.186 349.624 453.65 349.74 454.042 349.972C454.442 350.196 454.75 350.512 454.966 350.92C455.19 351.32 455.302 351.788 455.302 352.324C455.302 352.876 455.178 353.364 454.93 353.788C454.682 354.204 454.326 354.532 453.862 354.772C453.406 355.004 452.862 355.12 452.23 355.12Z" fill="#808283"/>
<path d="M17.308 136V134.728H19.216V128.836H19.96L17.74 130.18L17.14 129.052L19.66 127.54H20.752V134.728H22.54V136H17.308ZM26.7953 136.12C26.1313 136.12 25.5673 135.952 25.1033 135.616C24.6473 135.272 24.2993 134.776 24.0593 134.128C23.8273 133.48 23.7113 132.688 23.7113 131.752C23.7113 130.808 23.8273 130.016 24.0593 129.376C24.2993 128.728 24.6473 128.24 25.1033 127.912C25.5673 127.584 26.1313 127.42 26.7953 127.42C27.4673 127.42 28.0313 127.584 28.4873 127.912C28.9513 128.24 29.2993 128.724 29.5313 129.364C29.7633 130.004 29.8793 130.796 29.8793 131.74C29.8793 132.676 29.7593 133.472 29.5193 134.128C29.2873 134.776 28.9433 135.272 28.4873 135.616C28.0313 135.952 27.4673 136.12 26.7953 136.12ZM26.7953 134.86C27.3393 134.86 27.7393 134.612 27.9953 134.116C28.2593 133.612 28.3913 132.82 28.3913 131.74C28.3913 130.668 28.2593 129.892 27.9953 129.412C27.7393 128.924 27.3393 128.68 26.7953 128.68C26.2593 128.68 25.8593 128.924 25.5953 129.412C25.3313 129.892 25.1993 130.672 25.1993 131.752C25.1993 132.824 25.3313 133.612 25.5953 134.116C25.8593 134.612 26.2593 134.86 26.7953 134.86ZM33.9906 136.12C33.3266 136.12 32.7626 135.952 32.2986 135.616C31.8426 135.272 31.4946 134.776 31.2546 134.128C31.0226 133.48 30.9066 132.688 30.9066 131.752C30.9066 130.808 31.0226 130.016 31.2546 129.376C31.4946 128.728 31.8426 128.24 32.2986 127.912C32.7626 127.584 33.3266 127.42 33.9906 127.42C34.6626 127.42 35.2266 127.584 35.6826 127.912C36.1466 128.24 36.4946 128.724 36.7266 129.364C36.9586 130.004 37.0746 130.796 37.0746 131.74C37.0746 132.676 36.9546 133.472 36.7146 134.128C36.4826 134.776 36.1386 135.272 35.6826 135.616C35.2266 135.952 34.6626 136.12 33.9906 136.12ZM33.9906 134.86C34.5346 134.86 34.9346 134.612 35.1906 134.116C35.4546 133.612 35.5866 132.82 35.5866 131.74C35.5866 130.668 35.4546 129.892 35.1906 129.412C34.9346 128.924 34.5346 128.68 33.9906 128.68C33.4546 128.68 33.0546 128.924 32.7906 129.412C32.5266 129.892 32.3946 130.672 32.3946 131.752C32.3946 132.824 32.5266 133.612 32.7906 134.116C33.0546 134.612 33.4546 134.86 33.9906 134.86Z" fill="#808283"/>
<path d="M19.6 180.12C18.616 180.12 17.844 179.908 17.284 179.484C16.732 179.06 16.456 178.472 16.456 177.72C16.456 177.32 16.536 176.968 16.696 176.664C16.864 176.352 17.092 176.1 17.38 175.908C17.668 175.716 17.996 175.596 18.364 175.548V175.8C18.028 175.728 17.732 175.596 17.476 175.404C17.22 175.204 17.02 174.96 16.876 174.672C16.74 174.376 16.672 174.052 16.672 173.7C16.672 172.988 16.936 172.432 17.464 172.032C17.992 171.624 18.708 171.42 19.612 171.42C20.508 171.42 21.22 171.624 21.748 172.032C22.276 172.432 22.54 172.988 22.54 173.7C22.54 174.052 22.468 174.376 22.324 174.672C22.188 174.968 21.992 175.212 21.736 175.404C21.488 175.596 21.196 175.724 20.86 175.788V175.548C21.236 175.596 21.564 175.72 21.844 175.92C22.124 176.112 22.344 176.364 22.504 176.676C22.664 176.98 22.744 177.328 22.744 177.72C22.744 178.472 22.464 179.06 21.904 179.484C21.352 179.908 20.584 180.12 19.6 180.12ZM19.6 178.92C20.168 178.92 20.596 178.812 20.884 178.596C21.172 178.372 21.316 178.044 21.316 177.612C21.316 177.18 21.172 176.856 20.884 176.64C20.596 176.424 20.168 176.316 19.6 176.316C19.04 176.316 18.612 176.424 18.316 176.64C18.028 176.856 17.884 177.18 17.884 177.612C17.884 178.044 18.028 178.372 18.316 178.596C18.612 178.812 19.04 178.92 19.6 178.92ZM19.6 175.116C20.072 175.116 20.44 175.004 20.704 174.78C20.976 174.556 21.112 174.248 21.112 173.856C21.112 173.472 20.976 173.172 20.704 172.956C20.44 172.732 20.072 172.62 19.6 172.62C19.128 172.62 18.76 172.732 18.496 172.956C18.232 173.172 18.1 173.476 18.1 173.868C18.1 174.252 18.232 174.556 18.496 174.78C18.76 175.004 19.128 175.116 19.6 175.116ZM26.7953 180.12C26.1313 180.12 25.5673 179.952 25.1033 179.616C24.6473 179.272 24.2993 178.776 24.0593 178.128C23.8273 177.48 23.7113 176.688 23.7113 175.752C23.7113 174.808 23.8273 174.016 24.0593 173.376C24.2993 172.728 24.6473 172.24 25.1033 171.912C25.5673 171.584 26.1313 171.42 26.7953 171.42C27.4673 171.42 28.0313 171.584 28.4873 171.912C28.9513 172.24 29.2993 172.724 29.5313 173.364C29.7633 174.004 29.8793 174.796 29.8793 175.74C29.8793 176.676 29.7593 177.472 29.5193 178.128C29.2873 178.776 28.9433 179.272 28.4873 179.616C28.0313 179.952 27.4673 180.12 26.7953 180.12ZM26.7953 178.86C27.3393 178.86 27.7393 178.612 27.9953 178.116C28.2593 177.612 28.3913 176.82 28.3913 175.74C28.3913 174.668 28.2593 173.892 27.9953 173.412C27.7393 172.924 27.3393 172.68 26.7953 172.68C26.2593 172.68 25.8593 172.924 25.5953 173.412C25.3313 173.892 25.1993 174.672 25.1993 175.752C25.1993 176.824 25.3313 177.612 25.5953 178.116C25.8593 178.612 26.2593 178.86 26.7953 178.86Z" fill="#808283"/>
<path d="M19.912 224.12C19.216 224.12 18.62 223.956 18.124 223.628C17.636 223.292 17.264 222.812 17.008 222.188C16.752 221.564 16.624 220.808 16.624 219.92C16.624 218.96 16.768 218.148 17.056 217.484C17.344 216.812 17.76 216.3 18.304 215.948C18.848 215.596 19.5 215.42 20.26 215.42C20.556 215.42 20.852 215.46 21.148 215.54C21.452 215.612 21.736 215.72 22 215.864C22.272 216 22.512 216.168 22.72 216.368L22.216 217.52C21.92 217.248 21.604 217.048 21.268 216.92C20.932 216.784 20.588 216.716 20.236 216.716C19.892 216.716 19.584 216.78 19.312 216.908C19.048 217.028 18.824 217.212 18.64 217.46C18.456 217.7 18.316 218.004 18.22 218.372C18.132 218.732 18.088 219.152 18.088 219.632V220.532H17.944C18.008 220.124 18.14 219.776 18.34 219.488C18.548 219.192 18.812 218.968 19.132 218.816C19.452 218.656 19.808 218.576 20.2 218.576C20.688 218.576 21.12 218.692 21.496 218.924C21.872 219.156 22.168 219.476 22.384 219.884C22.6 220.292 22.708 220.76 22.708 221.288C22.708 221.832 22.588 222.32 22.348 222.752C22.116 223.176 21.788 223.512 21.364 223.76C20.948 224 20.464 224.12 19.912 224.12ZM19.828 222.896C20.116 222.896 20.368 222.832 20.584 222.704C20.808 222.576 20.98 222.396 21.1 222.164C21.22 221.924 21.28 221.652 21.28 221.348C21.28 221.036 21.22 220.764 21.1 220.532C20.98 220.3 20.808 220.12 20.584 219.992C20.368 219.856 20.116 219.788 19.828 219.788C19.54 219.788 19.288 219.856 19.072 219.992C18.856 220.12 18.684 220.3 18.556 220.532C18.436 220.764 18.376 221.036 18.376 221.348C18.376 221.652 18.436 221.924 18.556 222.164C18.684 222.396 18.856 222.576 19.072 222.704C19.288 222.832 19.54 222.896 19.828 222.896ZM26.7953 224.12C26.1313 224.12 25.5673 223.952 25.1033 223.616C24.6473 223.272 24.2993 222.776 24.0593 222.128C23.8273 221.48 23.7113 220.688 23.7113 219.752C23.7113 218.808 23.8273 218.016 24.0593 217.376C24.2993 216.728 24.6473 216.24 25.1033 215.912C25.5673 215.584 26.1313 215.42 26.7953 215.42C27.4673 215.42 28.0313 215.584 28.4873 215.912C28.9513 216.24 29.2993 216.724 29.5313 217.364C29.7633 218.004 29.8793 218.796 29.8793 219.74C29.8793 220.676 29.7593 221.472 29.5193 222.128C29.2873 222.776 28.9433 223.272 28.4873 223.616C28.0313 223.952 27.4673 224.12 26.7953 224.12ZM26.7953 222.86C27.3393 222.86 27.7393 222.612 27.9953 222.116C28.2593 221.612 28.3913 220.82 28.3913 219.74C28.3913 218.668 28.2593 217.892 27.9953 217.412C27.7393 216.924 27.3393 216.68 26.7953 216.68C26.2593 216.68 25.8593 216.924 25.5953 217.412C25.3313 217.892 25.1993 218.672 25.1993 219.752C25.1993 220.824 25.3313 221.612 25.5953 222.116C25.8593 222.612 26.2593 222.86 26.7953 222.86Z" fill="#808283"/>
<path d="M20.188 268V266.392H16.504V265.264L20.452 259.54H21.724V265.12H22.912V266.392H21.724V268H20.188ZM20.188 265.12V261.376H20.536L17.704 265.528V265.12H20.188ZM26.7953 268.12C26.1313 268.12 25.5673 267.952 25.1033 267.616C24.6473 267.272 24.2993 266.776 24.0593 266.128C23.8273 265.48 23.7113 264.688 23.7113 263.752C23.7113 262.808 23.8273 262.016 24.0593 261.376C24.2993 260.728 24.6473 260.24 25.1033 259.912C25.5673 259.584 26.1313 259.42 26.7953 259.42C27.4673 259.42 28.0313 259.584 28.4873 259.912C28.9513 260.24 29.2993 260.724 29.5313 261.364C29.7633 262.004 29.8793 262.796 29.8793 263.74C29.8793 264.676 29.7593 265.472 29.5193 266.128C29.2873 266.776 28.9433 267.272 28.4873 267.616C28.0313 267.952 27.4673 268.12 26.7953 268.12ZM26.7953 266.86C27.3393 266.86 27.7393 266.612 27.9953 266.116C28.2593 265.612 28.3913 264.82 28.3913 263.74C28.3913 262.668 28.2593 261.892 27.9953 261.412C27.7393 260.924 27.3393 260.68 26.7953 260.68C26.2593 260.68 25.8593 260.924 25.5953 261.412C25.3313 261.892 25.1993 262.672 25.1993 263.752C25.1993 264.824 25.3313 265.612 25.5953 266.116C25.8593 266.612 26.2593 266.86 26.7953 266.86Z" fill="#808283"/>
<path d="M16.96 312V310.86L19.696 307.944C19.944 307.68 20.14 307.436 20.284 307.212C20.436 306.988 20.548 306.772 20.62 306.564C20.692 306.356 20.728 306.148 20.728 305.94C20.728 305.54 20.6 305.236 20.344 305.028C20.096 304.82 19.732 304.716 19.252 304.716C18.876 304.716 18.508 304.788 18.148 304.932C17.796 305.068 17.456 305.284 17.128 305.58L16.612 304.428C16.948 304.124 17.368 303.88 17.872 303.696C18.376 303.512 18.9 303.42 19.444 303.42C20.052 303.42 20.564 303.512 20.98 303.696C21.396 303.88 21.712 304.148 21.928 304.5C22.144 304.852 22.252 305.28 22.252 305.784C22.252 306.04 22.22 306.292 22.156 306.54C22.1 306.78 22.008 307.02 21.88 307.26C21.76 307.5 21.604 307.748 21.412 308.004C21.228 308.252 21.004 308.512 20.74 308.784L18.484 311.136V310.728H22.576V312H16.96ZM26.7953 312.12C26.1313 312.12 25.5673 311.952 25.1033 311.616C24.6473 311.272 24.2993 310.776 24.0593 310.128C23.8273 309.48 23.7113 308.688 23.7113 307.752C23.7113 306.808 23.8273 306.016 24.0593 305.376C24.2993 304.728 24.6473 304.24 25.1033 303.912C25.5673 303.584 26.1313 303.42 26.7953 303.42C27.4673 303.42 28.0313 303.584 28.4873 303.912C28.9513 304.24 29.2993 304.724 29.5313 305.364C29.7633 306.004 29.8793 306.796 29.8793 307.74C29.8793 308.676 29.7593 309.472 29.5193 310.128C29.2873 310.776 28.9433 311.272 28.4873 311.616C28.0313 311.952 27.4673 312.12 26.7953 312.12ZM26.7953 310.86C27.3393 310.86 27.7393 310.612 27.9953 310.116C28.2593 309.612 28.3913 308.82 28.3913 307.74C28.3913 306.668 28.2593 305.892 27.9953 305.412C27.7393 304.924 27.3393 304.68 26.7953 304.68C26.2593 304.68 25.8593 304.924 25.5953 305.412C25.3313 305.892 25.1993 306.672 25.1993 307.752C25.1993 308.824 25.3313 309.612 25.5953 310.116C25.8593 310.612 26.2593 310.86 26.7953 310.86Z" fill="#808283"/>
<rect x="16" y="76" width="42" height="32" rx="4" fill="#23252D"/>
<path d="M29.808 96V94.728H31.716V88.836H32.46L30.24 90.18L29.64 89.052L32.16 87.54H33.252V94.728H35.04V96H29.808ZM36.6193 96V87.54H39.7633C40.7073 87.54 41.5073 87.704 42.1633 88.032C42.8273 88.36 43.3313 88.84 43.6753 89.472C44.0273 90.096 44.2033 90.86 44.2033 91.764C44.2033 92.668 44.0273 93.436 43.6753 94.068C43.3313 94.7 42.8273 95.18 42.1633 95.508C41.5073 95.836 40.7073 96 39.7633 96H36.6193ZM38.1553 94.728H39.6673C40.6513 94.728 41.3833 94.484 41.8633 93.996C42.3513 93.5 42.5953 92.756 42.5953 91.764C42.5953 90.772 42.3513 90.032 41.8633 89.544C41.3753 89.056 40.6433 88.812 39.6673 88.812H38.1553V94.728Z" fill="#808283"/>
<rect x="62" y="76" width="60" height="32" rx="4" fill="#23252D"/>
<path d="M70.924 96V87.54H72.46V94.692H76.516V96H70.924ZM77.6623 96V87.54H79.1983V96H77.6623ZM81.0373 96V87.54H82.1893L87.0493 93.852H86.7373V87.54H88.1653V96H87.0253L82.1653 89.676H82.4653V96H81.0373ZM90.0138 96V87.54H95.6418V88.764H91.4898V91.092H95.3778V92.316H91.4898V94.776H95.6418V96H90.0138ZM96.1097 96L99.9377 87.54H101.198L105.026 96H103.466L102.446 93.624L103.094 94.044H98.0297L98.6777 93.624L97.6697 96H96.1097ZM100.55 89.208L98.8697 93.204L98.5577 92.82H102.566L102.266 93.204L100.574 89.208H100.55ZM105.951 96V87.54H109.623C110.551 87.54 111.267 87.764 111.771 88.212C112.275 88.652 112.527 89.272 112.527 90.072C112.527 90.592 112.411 91.04 112.179 91.416C111.955 91.792 111.627 92.08 111.195 92.28C110.763 92.48 110.239 92.58 109.623 92.58L109.731 92.4H110.127C110.455 92.4 110.739 92.48 110.979 92.64C111.227 92.8 111.443 93.052 111.627 93.396L113.043 96H111.351L109.887 93.3C109.791 93.124 109.683 92.988 109.563 92.892C109.443 92.788 109.307 92.716 109.155 92.676C109.003 92.636 108.827 92.616 108.627 92.616H107.487V96H105.951ZM107.487 91.476H109.359C109.911 91.476 110.327 91.364 110.607 91.14C110.895 90.908 111.039 90.564 111.039 90.108C111.039 89.66 110.895 89.324 110.607 89.1C110.327 88.868 109.911 88.752 109.359 88.752H107.487V91.476Z" fill="#808283"/>
<rect x="126" y="76" width="59" height="32" rx="4" fill="#23252D"/>
<path d="M137.6 96.12C136.936 96.12 136.372 95.952 135.908 95.616C135.452 95.272 135.104 94.776 134.864 94.128C134.632 93.48 134.516 92.688 134.516 91.752C134.516 90.808 134.632 90.016 134.864 89.376C135.104 88.728 135.452 88.24 135.908 87.912C136.372 87.584 136.936 87.42 137.6 87.42C138.272 87.42 138.836 87.584 139.292 87.912C139.756 88.24 140.104 88.724 140.336 89.364C140.568 90.004 140.684 90.796 140.684 91.74C140.684 92.676 140.564 93.472 140.324 94.128C140.092 94.776 139.748 95.272 139.292 95.616C138.836 95.952 138.272 96.12 137.6 96.12ZM137.6 94.86C138.144 94.86 138.544 94.612 138.8 94.116C139.064 93.612 139.196 92.82 139.196 91.74C139.196 90.668 139.064 89.892 138.8 89.412C138.544 88.924 138.144 88.68 137.6 88.68C137.064 88.68 136.664 88.924 136.4 89.412C136.136 89.892 136.004 90.672 136.004 91.752C136.004 92.824 136.136 93.612 136.4 94.116C136.664 94.612 137.064 94.86 137.6 94.86ZM145.354 96V87.54H148.498C149.442 87.54 150.242 87.704 150.898 88.032C151.562 88.36 152.066 88.84 152.41 89.472C152.762 90.096 152.938 90.86 152.938 91.764C152.938 92.668 152.762 93.436 152.41 94.068C152.066 94.7 151.562 95.18 150.898 95.508C150.242 95.836 149.442 96 148.498 96H145.354ZM146.89 94.728H148.402C149.386 94.728 150.118 94.484 150.598 93.996C151.086 93.5 151.33 92.756 151.33 91.764C151.33 90.772 151.086 90.032 150.598 89.544C150.11 89.056 149.378 88.812 148.402 88.812H146.89V94.728ZM153.407 96L157.235 87.54H158.495L162.323 96H160.763L159.743 93.624L160.391 94.044H155.327L155.975 93.624L154.967 96H153.407ZM157.847 89.208L156.167 93.204L155.855 92.82H159.863L159.563 93.204L157.871 89.208H157.847ZM164.479 96V91.644L164.803 92.568L161.227 87.54H163.015L165.439 90.984H165.103L167.539 87.54H169.255L165.703 92.568L166.015 91.644V96H164.479ZM172.516 96.12C172.076 96.12 171.652 96.08 171.244 96C170.844 95.928 170.472 95.82 170.128 95.676C169.792 95.532 169.492 95.36 169.228 95.16L169.696 93.948C169.96 94.132 170.236 94.292 170.524 94.428C170.82 94.556 171.132 94.656 171.46 94.728C171.796 94.792 172.148 94.824 172.516 94.824C173.148 94.824 173.608 94.72 173.896 94.512C174.184 94.296 174.328 94.02 174.328 93.684C174.328 93.5 174.284 93.344 174.196 93.216C174.108 93.08 173.964 92.964 173.764 92.868C173.564 92.772 173.3 92.692 172.972 92.628L171.652 92.352C170.892 92.192 170.324 91.924 169.948 91.548C169.58 91.164 169.396 90.66 169.396 90.036C169.396 89.508 169.536 89.048 169.816 88.656C170.096 88.264 170.484 87.96 170.98 87.744C171.476 87.528 172.048 87.42 172.696 87.42C173.08 87.42 173.448 87.46 173.8 87.54C174.16 87.612 174.488 87.724 174.784 87.876C175.088 88.02 175.352 88.196 175.576 88.404L175.108 89.556C174.772 89.276 174.404 89.068 174.004 88.932C173.604 88.788 173.164 88.716 172.684 88.716C172.316 88.716 172 88.768 171.736 88.872C171.472 88.976 171.268 89.124 171.124 89.316C170.988 89.5 170.92 89.72 170.92 89.976C170.92 90.264 171.016 90.496 171.208 90.672C171.4 90.84 171.728 90.972 172.192 91.068L173.5 91.344C174.292 91.512 174.88 91.776 175.264 92.136C175.656 92.496 175.852 92.976 175.852 93.576C175.852 94.08 175.716 94.524 175.444 94.908C175.172 95.292 174.784 95.592 174.28 95.808C173.784 96.016 173.196 96.12 172.516 96.12Z" fill="#808283"/>
<rect x="466" y="131" width="2" height="205" rx="1" fill="#A06AFF"/>
<g filter="url(#filter0_d_2198_8777)">
<path d="M58 328L61.4561 323.502L64.0482 325.751L68.8004 316.113L71.3925 319.005L73.5526 314.828L83.9211 317.719L89.5373 309.688L92.1294 311.937L93.8575 314.828L96.4496 313.222L98.1776 314.828L101.202 311.294L103.794 312.579L105.09 308.724L107.25 308.081V304.226L112.434 298.765L114.594 300.371L121.075 280.452L124.531 286.557L130.147 272.421L133.171 278.525L135.331 269.851L136.627 274.67L141.811 269.529L144.404 275.312L146.996 272.1L151.316 284.308L155.636 282.059L156.932 286.235L159.092 284.629L161.252 287.52L173.781 274.67L178.533 280.774L181.989 268.566L184.581 271.136L187.173 268.244L194.95 277.561L197.542 275.633L203.158 283.344L207.91 278.525L210.502 282.38L217.846 277.561L225.623 282.059L226.487 289.448L233.399 287.842L235.127 298.443L246.792 294.588L251.544 299.407L254.136 295.873L256.296 299.729L266.232 296.837V302.941L273.145 301.335L278.761 302.941L285.241 293.946L287.401 295.873L289.129 292.982L292.586 298.443L299.93 287.52L312.89 292.661L318.939 287.199L325.851 289.448L332.331 292.982L335.355 290.733L339.675 291.376L342.7 283.665L350.044 283.344L351.34 278.846L358.252 277.561L361.276 282.059L365.596 274.67L368.621 274.991L371.645 267.602L384.605 272.1L387.629 266.638L397.134 272.742L401.886 266.959L405.342 272.742L407.07 270.172L410.958 273.063L415.279 268.566L417.439 270.172L421.327 267.281L425.647 259.891L434.287 257.643L436.447 259.57L440.336 257L452 262.783" stroke="#A06AFF" stroke-width="1.5" stroke-linecap="round"/>
</g>
<g filter="url(#filter1_d_2198_8777)">
<path d="M58 182.657L58.9752 207.812L60.2756 193.058L65.1518 199.83V180.964L67.7525 183.866L66.7772 159.679C68.2943 166.613 71.3934 180.142 71.6535 178.787C71.9135 177.433 75.0127 166.129 76.5297 160.646L80.1056 176.852C82.3812 169.999 86.9323 156.438 86.9323 157.018C86.9323 157.599 88.4494 173.708 89.2079 181.689L91.4835 178.787V209.022L93.7591 184.592L95.3845 230.549L96.3597 216.52L98.6353 299L100.261 247.964L101.886 290.776L105.462 193.058L110.663 218.455L112.939 204.668L115.215 207.812L119.441 191.848C120.091 193.058 121.456 195.186 121.716 194.025C121.976 192.864 123.342 180.158 123.992 173.949L126.917 191.123L129.518 179.754L131.469 187.978L134.069 180.964C135.153 182.335 137.385 184.834 137.645 183.866C137.905 182.899 143.605 167.338 146.422 159.679L150.323 180.964L153.249 173.949C154.441 180.077 156.76 192.09 156.5 191.123C156.24 190.155 162.026 169.757 164.952 159.679L169.178 176.126L172.104 169.837C174.271 180.158 178.671 200.459 178.931 199.105C179.191 197.75 182.29 186.446 183.807 180.964L185.757 185.801L187.383 181.689L190.959 193.058L192.259 192.09L194.535 211.924L195.185 199.105C195.727 202.572 196.875 209.312 197.135 208.538C197.395 207.764 197.677 200.314 197.785 196.686L199.736 205.152L201.036 202.007V210.715L202.662 206.603L203.312 256.43L203.962 215.552L206.563 223.776L208.513 209.989C209.814 215.714 212.414 227.066 212.414 226.679C212.414 226.292 213.715 222.809 214.365 221.115L215.665 224.744L219.241 203.7L221.191 209.505L221.842 207.328L223.792 226.921L228.668 190.639L230.294 202.007L233.219 187.495L236.145 197.411L239.721 189.671L241.997 194.267L245.248 188.704L247.198 191.365L248.823 175.401L251.424 182.415L252.399 179.513L253.7 186.527L255.975 184.108L257.601 185.801L261.177 179.996L263.127 181.448L267.028 172.014L269.304 182.415L272.554 171.772L274.83 180.48L279.706 165L283.607 175.401L286.858 167.661L289.784 177.819L294.335 167.177L294.985 170.805L296.936 161.856L302.462 191.848L305.388 176.61L308.314 193.541L310.589 179.996L311.889 192.816L312.865 189.671L314.165 198.863L318.066 184.834L320.342 195.235L322.617 189.913L323.917 196.444L326.843 193.541L329.769 232.967L331.069 215.069L332.37 220.874L333.02 216.036L335.295 224.018L336.596 212.408L337.571 216.036L339.847 196.444L341.797 198.863L343.422 180.722L345.698 183.624L347.649 171.772L348.949 180.238L350.899 175.884L352.85 181.931L354.15 180.238L355.776 189.671L356.426 188.22L357.726 192.816V184.35C359.46 189.268 362.927 199.056 362.927 198.863C362.927 198.669 364.661 190.72 365.528 186.769L366.503 188.946L366.828 182.415L371.38 215.552L373.005 193.541L374.305 196.444L375.931 182.415L377.231 185.801L377.881 182.415L379.832 186.285L382.757 178.787L384.058 180.238L385.033 178.787L386.658 184.35L387.959 181.931L388.934 183.383L393.81 170.321L394.46 173.224L396.736 164.516L399.012 171.047L399.987 164.758L401.937 168.386L403.238 164.758L405.838 168.87L407.464 167.177L412.34 185.076L413.315 181.931L413.965 185.076L417.541 172.74C418.517 174.594 420.467 178.255 420.467 178.061C420.467 177.868 422.201 172.176 423.068 169.354L426.318 178.787L427.944 176.852L431.845 188.704L433.795 179.754L434.771 186.043L437.371 178.787L440.947 195.96L441.922 193.058L445.173 216.036L447.124 203.217L448.424 205.877L449.399 200.798L451.025 213.617L452 209.747" stroke="url(#paint0_linear_2198_8777)" stroke-width="1.5" shape-rendering="crispEdges"/>
</g>
<defs>
<filter id="filter0_d_2198_8777" x="49.25" y="248.137" width="411.5" height="88.6133" filterUnits="userSpaceOnUse" color-interpolation-filters="sRGB">
<feFlood flood-opacity="0" result="BackgroundImageFix"/>
<feColorMatrix in="SourceAlpha" type="matrix" values="0 0 0 0 0 0 0 0 0 0 0 0 0 0 0 0 0 0 127 0" result="hardAlpha"/>
<feOffset/>
<feGaussianBlur stdDeviation="4"/>
<feComposite in2="hardAlpha" operator="out"/>
<feColorMatrix type="matrix" values="0 0 0 0 0.627451 0 0 0 0 0.415686 0 0 0 0 1 0 0 0 0.24 0"/>
<feBlend mode="normal" in2="BackgroundImageFix" result="effect1_dropShadow_2198_8777"/>
<feBlend mode="normal" in="SourceGraphic" in2="effect1_dropShadow_2198_8777" result="shape"/>
</filter>
<filter id="filter1_d_2198_8777" x="49.25" y="148.25" width="411.477" height="158.773" filterUnits="userSpaceOnUse" color-interpolation-filters="sRGB">
<feFlood flood-opacity="0" result="BackgroundImageFix"/>
<feColorMatrix in="SourceAlpha" type="matrix" values="0 0 0 0 0 0 0 0 0 0 0 0 0 0 0 0 0 0 127 0" result="hardAlpha"/>
<feOffset/>
<feGaussianBlur stdDeviation="4"/>
<feComposite in2="hardAlpha" operator="out"/>
<feColorMatrix type="matrix" values="0 0 0 0 1 0 0 0 0 1 0 0 0 0 1 0 0 0 0.24 0"/>
<feBlend mode="normal" in2="BackgroundImageFix" result="effect1_dropShadow_2198_8777"/>
<feBlend mode="normal" in="SourceGraphic" in2="effect1_dropShadow_2198_8777" result="shape"/>
</filter>
<linearGradient id="paint0_linear_2198_8777" x1="255" y1="157" x2="255" y2="299" gradientUnits="userSpaceOnUse">
<stop offset="0.0438362" stop-color="#6AA5FF"/>
<stop offset="0.0843921" stop-color="#6CF03E"/>
<stop offset="0.149282" stop-color="#8EE071"/>
<stop offset="0.233312" stop-color="#FFF50A"/>
<stop offset="0.346041" stop-color="#FF620B"/>
</linearGradient>
</defs>
</svg>
