<svg width="528" height="414" viewBox="0 0 528 414" fill="none" xmlns="http://www.w3.org/2000/svg">
<rect width="527" height="414" rx="8" fill="#181A20"/>
<path d="M24.88 43.24C22.56 43.24 20.784 42.64 19.552 41.44C18.336 40.224 17.728 38.432 17.728 36.064V26.08H20.8V36.04C20.8 37.56 21.144 38.704 21.832 39.472C22.536 40.224 23.552 40.6 24.88 40.6C26.208 40.6 27.216 40.224 27.904 39.472C28.592 38.704 28.936 37.56 28.936 36.04V26.08H31.984V36.064C31.984 38.432 31.384 40.224 30.184 41.44C28.984 42.64 27.216 43.24 24.88 43.24ZM41.3988 43.24C40.5188 43.24 39.6708 43.16 38.8548 43C38.0548 42.856 37.3108 42.64 36.6228 42.352C35.9508 42.064 35.3508 41.72 34.8228 41.32L35.7588 38.896C36.2868 39.264 36.8388 39.584 37.4148 39.856C38.0068 40.112 38.6308 40.312 39.2868 40.456C39.9588 40.584 40.6628 40.648 41.3988 40.648C42.6628 40.648 43.5828 40.44 44.1588 40.024C44.7348 39.592 45.0228 39.04 45.0228 38.368C45.0228 38 44.9348 37.688 44.7588 37.432C44.5828 37.16 44.2948 36.928 43.8948 36.736C43.4948 36.544 42.9668 36.384 42.3108 36.256L39.6708 35.704C38.1508 35.384 37.0148 34.848 36.2628 34.096C35.5268 33.328 35.1588 32.32 35.1588 31.072C35.1588 30.016 35.4388 29.096 35.9988 28.312C36.5588 27.528 37.3348 26.92 38.3268 26.488C39.3188 26.056 40.4628 25.84 41.7588 25.84C42.5268 25.84 43.2628 25.92 43.9668 26.08C44.6868 26.224 45.3428 26.448 45.9348 26.752C46.5428 27.04 47.0708 27.392 47.5188 27.808L46.5828 30.112C45.9108 29.552 45.1748 29.136 44.3748 28.864C43.5748 28.576 42.6948 28.432 41.7348 28.432C40.9988 28.432 40.3668 28.536 39.8388 28.744C39.3108 28.952 38.9028 29.248 38.6148 29.632C38.3428 30 38.2068 30.44 38.2068 30.952C38.2068 31.528 38.3988 31.992 38.7828 32.344C39.1668 32.68 39.8228 32.944 40.7508 33.136L43.3668 33.688C44.9508 34.024 46.1268 34.552 46.8948 35.272C47.6788 35.992 48.0708 36.952 48.0708 38.152C48.0708 39.16 47.7988 40.048 47.2548 40.816C46.7108 41.584 45.9348 42.184 44.9268 42.616C43.9348 43.032 42.7588 43.24 41.3988 43.24ZM63.0081 43.24C62.1281 43.24 61.2801 43.16 60.4641 43C59.6641 42.856 58.9201 42.64 58.2321 42.352C57.5601 42.064 56.9601 41.72 56.4321 41.32L57.3681 38.896C57.8961 39.264 58.4481 39.584 59.0241 39.856C59.6161 40.112 60.2401 40.312 60.8961 40.456C61.5681 40.584 62.2721 40.648 63.0081 40.648C64.2721 40.648 65.1921 40.44 65.7681 40.024C66.3441 39.592 66.6321 39.04 66.6321 38.368C66.6321 38 66.5441 37.688 66.3681 37.432C66.1921 37.16 65.9041 36.928 65.5041 36.736C65.1041 36.544 64.5761 36.384 63.9201 36.256L61.2801 35.704C59.7601 35.384 58.6241 34.848 57.8721 34.096C57.1361 33.328 56.7681 32.32 56.7681 31.072C56.7681 30.016 57.0481 29.096 57.6081 28.312C58.1681 27.528 58.9441 26.92 59.9361 26.488C60.9281 26.056 62.0721 25.84 63.3681 25.84C64.1361 25.84 64.8721 25.92 65.5761 26.08C66.2961 26.224 66.9521 26.448 67.5441 26.752C68.1521 27.04 68.6801 27.392 69.1281 27.808L68.1921 30.112C67.5201 29.552 66.7841 29.136 65.9841 28.864C65.1841 28.576 64.3041 28.432 63.3441 28.432C62.6081 28.432 61.9761 28.536 61.4481 28.744C60.9201 28.952 60.5121 29.248 60.2241 29.632C59.9521 30 59.8161 30.44 59.8161 30.952C59.8161 31.528 60.0081 31.992 60.3921 32.344C60.7761 32.68 61.4321 32.944 62.3601 33.136L64.9761 33.688C66.5601 34.024 67.7361 34.552 68.5041 35.272C69.2881 35.992 69.6801 36.952 69.6801 38.152C69.6801 39.16 69.4081 40.048 68.8641 40.816C68.3201 41.584 67.5441 42.184 66.5361 42.616C65.5441 43.032 64.3681 43.24 63.0081 43.24ZM72.0288 47.32V31.264H74.9568V33.736H74.7168C74.9568 32.92 75.4448 32.264 76.1808 31.768C76.9328 31.272 77.8048 31.024 78.7968 31.024C79.8208 31.024 80.7168 31.272 81.4848 31.768C82.2688 32.264 82.8768 32.968 83.3088 33.88C83.7408 34.776 83.9568 35.856 83.9568 37.12C83.9568 38.368 83.7408 39.456 83.3088 40.384C82.8768 41.296 82.2768 42 81.5088 42.496C80.7408 42.992 79.8368 43.24 78.7968 43.24C77.8208 43.24 76.9648 43 76.2288 42.52C75.4928 42.024 74.9968 41.384 74.7408 40.6H75.0288V47.32H72.0288ZM77.9568 40.96C78.8528 40.96 79.5728 40.64 80.1168 40C80.6608 39.344 80.9328 38.384 80.9328 37.12C80.9328 35.84 80.6608 34.888 80.1168 34.264C79.5728 33.624 78.8528 33.304 77.9568 33.304C77.0608 33.304 76.3408 33.624 75.7968 34.264C75.2528 34.888 74.9808 35.84 74.9808 37.12C74.9808 38.384 75.2528 39.344 75.7968 40C76.3408 40.64 77.0608 40.96 77.9568 40.96ZM91.7714 43.24C90.5554 43.24 89.4994 42.992 88.6034 42.496C87.7074 42 87.0114 41.296 86.5154 40.384C86.0194 39.456 85.7714 38.368 85.7714 37.12C85.7714 35.872 86.0194 34.792 86.5154 33.88C87.0114 32.968 87.7074 32.264 88.6034 31.768C89.4994 31.272 90.5554 31.024 91.7714 31.024C92.9874 31.024 94.0434 31.272 94.9394 31.768C95.8354 32.264 96.5314 32.968 97.0274 33.88C97.5234 34.792 97.7714 35.872 97.7714 37.12C97.7714 38.368 97.5234 39.456 97.0274 40.384C96.5314 41.296 95.8354 42 94.9394 42.496C94.0434 42.992 92.9874 43.24 91.7714 43.24ZM91.7714 40.96C92.6674 40.96 93.3874 40.64 93.9314 40C94.4754 39.344 94.7474 38.384 94.7474 37.12C94.7474 35.84 94.4754 34.888 93.9314 34.264C93.3874 33.624 92.6674 33.304 91.7714 33.304C90.8754 33.304 90.1554 33.624 89.6114 34.264C89.0674 34.888 88.7954 35.84 88.7954 37.12C88.7954 38.384 89.0674 39.344 89.6114 40C90.1554 40.64 90.8754 40.96 91.7714 40.96ZM105.506 43.24C103.938 43.24 102.77 42.848 102.002 42.064C101.234 41.28 100.85 40.136 100.85 38.632V33.52H98.5943V31.264H100.85V27.76H103.85V31.264H107.402V33.52H103.85V38.464C103.85 39.232 104.018 39.808 104.354 40.192C104.69 40.576 105.234 40.768 105.986 40.768C106.21 40.768 106.442 40.744 106.682 40.696C106.922 40.632 107.17 40.568 107.426 40.504L107.882 42.712C107.594 42.872 107.226 43 106.778 43.096C106.346 43.192 105.922 43.24 105.506 43.24ZM116.098 43V26.08H127.354V28.528H119.05V33.184H126.826V35.632H119.05V40.552H127.354V43H116.098ZM134.381 43V28.648H128.573V26.08H143.261V28.648H137.453V43H134.381ZM145.207 43V26.08H156.271V28.528H148.279V33.304H155.767V35.752H148.279V43H145.207ZM165.153 43V26.08H167.457L177.177 38.704H176.553V26.08H179.409V43H177.129L167.409 30.352H168.009V43H165.153ZM188.602 43.24C187.274 43.24 186.13 42.992 185.17 42.496C184.21 42 183.466 41.296 182.938 40.384C182.426 39.472 182.17 38.392 182.17 37.144C182.17 35.928 182.418 34.864 182.914 33.952C183.426 33.04 184.122 32.328 185.002 31.816C185.898 31.288 186.914 31.024 188.05 31.024C189.17 31.024 190.13 31.264 190.93 31.744C191.73 32.224 192.346 32.904 192.778 33.784C193.226 34.664 193.45 35.712 193.45 36.928V37.816H184.594V36.088H191.338L190.954 36.448C190.954 35.36 190.714 34.528 190.234 33.952C189.754 33.36 189.066 33.064 188.17 33.064C187.498 33.064 186.922 33.224 186.442 33.544C185.978 33.848 185.618 34.288 185.362 34.864C185.122 35.424 185.002 36.096 185.002 36.88V37.048C185.002 37.928 185.138 38.656 185.41 39.232C185.682 39.808 186.09 40.24 186.634 40.528C187.178 40.816 187.85 40.96 188.65 40.96C189.306 40.96 189.962 40.864 190.618 40.672C191.274 40.464 191.874 40.144 192.418 39.712L193.258 41.728C192.698 42.192 191.994 42.56 191.146 42.832C190.298 43.104 189.45 43.24 188.602 43.24ZM201.155 43.24C199.587 43.24 198.419 42.848 197.651 42.064C196.883 41.28 196.499 40.136 196.499 38.632V33.52H194.243V31.264H196.499V27.76H199.499V31.264H203.051V33.52H199.499V38.464C199.499 39.232 199.667 39.808 200.003 40.192C200.339 40.576 200.883 40.768 201.635 40.768C201.859 40.768 202.091 40.744 202.331 40.696C202.571 40.632 202.819 40.568 203.075 40.504L203.531 42.712C203.243 42.872 202.875 43 202.427 43.096C201.995 43.192 201.571 43.24 201.155 43.24ZM211.746 43V26.08H222.81V28.528H214.818V33.304H222.306V35.752H214.818V43H211.746ZM229.015 43.24C227.623 43.24 226.591 42.864 225.919 42.112C225.263 41.344 224.935 40.224 224.935 38.752V26.08H227.935V38.608C227.935 39.072 227.999 39.472 228.127 39.808C228.271 40.128 228.479 40.368 228.751 40.528C229.023 40.688 229.359 40.768 229.759 40.768C229.935 40.768 230.111 40.76 230.287 40.744C230.463 40.728 230.631 40.696 230.791 40.648L230.743 43.024C230.455 43.088 230.167 43.136 229.879 43.168C229.607 43.216 229.319 43.24 229.015 43.24ZM237.834 43.24C236.618 43.24 235.562 42.992 234.666 42.496C233.77 42 233.074 41.296 232.578 40.384C232.082 39.456 231.834 38.368 231.834 37.12C231.834 35.872 232.082 34.792 232.578 33.88C233.074 32.968 233.77 32.264 234.666 31.768C235.562 31.272 236.618 31.024 237.834 31.024C239.05 31.024 240.106 31.272 241.002 31.768C241.898 32.264 242.594 32.968 243.09 33.88C243.586 34.792 243.834 35.872 243.834 37.12C243.834 38.368 243.586 39.456 243.09 40.384C242.594 41.296 241.898 42 241.002 42.496C240.106 42.992 239.05 43.24 237.834 43.24ZM237.834 40.96C238.73 40.96 239.45 40.64 239.994 40C240.538 39.344 240.81 38.384 240.81 37.12C240.81 35.84 240.538 34.888 239.994 34.264C239.45 33.624 238.73 33.304 237.834 33.304C236.938 33.304 236.218 33.624 235.674 34.264C235.13 34.888 234.858 35.84 234.858 37.12C234.858 38.384 235.13 39.344 235.674 40C236.218 40.64 236.938 40.96 237.834 40.96ZM249.316 43L244.684 31.264H247.756L251.02 40.264H250.468L253.78 31.264H255.892L259.156 40.264H258.652L261.916 31.264H264.82L260.212 43H257.596L254.044 33.616H255.412L251.932 43H249.316ZM270.598 43.24C269.942 43.24 269.302 43.184 268.678 43.072C268.07 42.96 267.51 42.808 266.998 42.616C266.486 42.408 266.038 42.152 265.654 41.848L266.422 39.88C266.822 40.136 267.254 40.36 267.718 40.552C268.182 40.744 268.662 40.888 269.158 40.984C269.654 41.08 270.142 41.128 270.622 41.128C271.39 41.128 271.958 41 272.326 40.744C272.71 40.472 272.902 40.12 272.902 39.688C272.902 39.32 272.774 39.04 272.518 38.848C272.278 38.64 271.91 38.488 271.414 38.392L269.014 37.936C268.022 37.744 267.262 37.384 266.734 36.856C266.222 36.312 265.966 35.616 265.966 34.768C265.966 34 266.174 33.336 266.59 32.776C267.022 32.216 267.614 31.784 268.366 31.48C269.118 31.176 269.982 31.024 270.958 31.024C271.518 31.024 272.062 31.08 272.59 31.192C273.118 31.288 273.614 31.44 274.078 31.648C274.558 31.84 274.974 32.096 275.326 32.416L274.51 34.384C274.206 34.128 273.854 33.912 273.454 33.736C273.054 33.544 272.638 33.4 272.206 33.304C271.79 33.192 271.382 33.136 270.982 33.136C270.198 33.136 269.614 33.272 269.23 33.544C268.862 33.816 268.678 34.176 268.678 34.624C268.678 34.96 268.79 35.24 269.014 35.464C269.238 35.688 269.582 35.84 270.046 35.92L272.446 36.376C273.486 36.568 274.27 36.92 274.798 37.432C275.342 37.944 275.614 38.632 275.614 39.496C275.614 40.28 275.406 40.952 274.99 41.512C274.574 42.072 273.99 42.504 273.238 42.808C272.486 43.096 271.606 43.24 270.598 43.24ZM288.642 47.68C287.458 45.92 286.61 44.128 286.098 42.304C285.586 40.464 285.33 38.592 285.33 36.688C285.33 34.768 285.586 32.896 286.098 31.072C286.61 29.248 287.458 27.456 288.642 25.696L290.682 26.512C290.186 27.728 289.778 28.896 289.458 30.016C289.138 31.12 288.906 32.216 288.762 33.304C288.618 34.392 288.546 35.52 288.546 36.688C288.546 37.84 288.618 38.968 288.762 40.072C288.906 41.16 289.138 42.256 289.458 43.36C289.778 44.464 290.186 45.632 290.682 46.864L288.642 47.68ZM300.411 43.24C298.091 43.24 296.315 42.64 295.083 41.44C293.867 40.224 293.259 38.432 293.259 36.064V26.08H296.331V36.04C296.331 37.56 296.675 38.704 297.363 39.472C298.067 40.224 299.083 40.6 300.411 40.6C301.739 40.6 302.747 40.224 303.435 39.472C304.123 38.704 304.467 37.56 304.467 36.04V26.08H307.515V36.064C307.515 38.432 306.915 40.224 305.715 41.44C304.515 42.64 302.747 43.24 300.411 43.24ZM316.93 43.24C316.05 43.24 315.202 43.16 314.386 43C313.586 42.856 312.842 42.64 312.154 42.352C311.482 42.064 310.882 41.72 310.354 41.32L311.29 38.896C311.818 39.264 312.37 39.584 312.946 39.856C313.538 40.112 314.162 40.312 314.818 40.456C315.49 40.584 316.194 40.648 316.93 40.648C318.194 40.648 319.114 40.44 319.69 40.024C320.266 39.592 320.554 39.04 320.554 38.368C320.554 38 320.466 37.688 320.29 37.432C320.114 37.16 319.826 36.928 319.426 36.736C319.026 36.544 318.498 36.384 317.842 36.256L315.202 35.704C313.682 35.384 312.546 34.848 311.794 34.096C311.058 33.328 310.69 32.32 310.69 31.072C310.69 30.016 310.97 29.096 311.53 28.312C312.09 27.528 312.866 26.92 313.858 26.488C314.85 26.056 315.994 25.84 317.29 25.84C318.058 25.84 318.794 25.92 319.498 26.08C320.218 26.224 320.874 26.448 321.466 26.752C322.074 27.04 322.602 27.392 323.05 27.808L322.114 30.112C321.442 29.552 320.706 29.136 319.906 28.864C319.106 28.576 318.226 28.432 317.266 28.432C316.53 28.432 315.898 28.536 315.37 28.744C314.842 28.952 314.434 29.248 314.146 29.632C313.874 30 313.738 30.44 313.738 30.952C313.738 31.528 313.93 31.992 314.314 32.344C314.698 32.68 315.354 32.944 316.282 33.136L318.898 33.688C320.482 34.024 321.658 34.552 322.426 35.272C323.21 35.992 323.602 36.952 323.602 38.152C323.602 39.16 323.33 40.048 322.786 40.816C322.242 41.584 321.466 42.184 320.458 42.616C319.466 43.032 318.29 43.24 316.93 43.24ZM326.239 43V26.08H332.527C334.415 26.08 336.015 26.408 337.327 27.064C338.655 27.72 339.663 28.68 340.351 29.944C341.055 31.192 341.407 32.72 341.407 34.528C341.407 36.336 341.055 37.872 340.351 39.136C339.663 40.4 338.655 41.36 337.327 42.016C336.015 42.672 334.415 43 332.527 43H326.239ZM329.311 40.456H332.335C334.303 40.456 335.767 39.968 336.727 38.992C337.703 38 338.191 36.512 338.191 34.528C338.191 32.544 337.703 31.064 336.727 30.088C335.751 29.112 334.287 28.624 332.335 28.624H329.311V40.456ZM345.364 47.68L343.324 46.864C343.82 45.616 344.22 44.432 344.524 43.312C344.844 42.208 345.076 41.12 345.22 40.048C345.38 38.96 345.46 37.84 345.46 36.688C345.46 35.536 345.38 34.424 345.22 33.352C345.076 32.264 344.844 31.16 344.524 30.04C344.22 28.92 343.82 27.744 343.324 26.512L345.364 25.696C346.548 27.456 347.396 29.256 347.908 31.096C348.42 32.92 348.676 34.784 348.676 36.688C348.676 38.592 348.42 40.464 347.908 42.304C347.396 44.128 346.548 45.92 345.364 47.68Z" fill="white"/>
<rect x="1" y="60" width="527" height="1" fill="#313338"/>
<path d="M17.308 134V132.728H19.216V126.836H19.96L17.74 128.18L17.14 127.052L19.66 125.54H20.752V132.728H22.54V134H17.308ZM24.1193 134V125.54H27.8153C28.7033 125.54 29.3913 125.736 29.8793 126.128C30.3673 126.512 30.6113 127.048 30.6113 127.736C30.6113 128.248 30.4633 128.68 30.1673 129.032C29.8713 129.384 29.4673 129.62 28.9553 129.74V129.56C29.3473 129.616 29.6833 129.736 29.9633 129.92C30.2433 130.104 30.4553 130.34 30.5993 130.628C30.7513 130.916 30.8273 131.252 30.8273 131.636C30.8273 132.132 30.7113 132.56 30.4793 132.92C30.2553 133.272 29.9273 133.54 29.4953 133.724C29.0633 133.908 28.5473 134 27.9473 134H24.1193ZM25.5953 132.836H27.7553C27.9713 132.836 28.1633 132.82 28.3313 132.788C28.5073 132.756 28.6553 132.708 28.7753 132.644C28.9033 132.572 29.0073 132.484 29.0873 132.38C29.1753 132.276 29.2393 132.156 29.2793 132.02C29.3193 131.884 29.3393 131.732 29.3393 131.564C29.3393 131.388 29.3193 131.232 29.2793 131.096C29.2393 130.96 29.1753 130.844 29.0873 130.748C29.0073 130.644 28.9033 130.56 28.7753 130.496C28.6553 130.424 28.5073 130.372 28.3313 130.34C28.1633 130.308 27.9713 130.292 27.7553 130.292H25.5953V132.836ZM25.5953 129.128H27.5513C28.0793 129.128 28.4713 129.028 28.7273 128.828C28.9913 128.62 29.1233 128.316 29.1233 127.916C29.1233 127.516 28.9913 127.216 28.7273 127.016C28.4713 126.808 28.0793 126.704 27.5513 126.704H25.5953V129.128Z" fill="#808283"/>
<rect x="56" y="129.5" width="456" height="1" fill="#23252D"/>
<path d="M19.672 175.12C19.304 175.12 18.94 175.08 18.58 175C18.228 174.92 17.896 174.808 17.584 174.664C17.28 174.52 17.016 174.352 16.792 174.16L17.296 172.984C17.664 173.264 18.044 173.476 18.436 173.62C18.828 173.756 19.232 173.824 19.648 173.824C20.152 173.824 20.544 173.696 20.824 173.44C21.112 173.176 21.256 172.824 21.256 172.384C21.256 171.936 21.12 171.576 20.848 171.304C20.576 171.024 20.204 170.884 19.732 170.884C19.388 170.884 19.08 170.952 18.808 171.088C18.536 171.216 18.288 171.416 18.064 171.688H17.032V166.54H22.228V167.812H18.532V170.5H18.136C18.344 170.22 18.616 170.004 18.952 169.852C19.296 169.7 19.676 169.624 20.092 169.624C20.628 169.624 21.092 169.74 21.484 169.972C21.884 170.196 22.192 170.512 22.408 170.92C22.632 171.32 22.744 171.788 22.744 172.324C22.744 172.876 22.62 173.364 22.372 173.788C22.124 174.204 21.768 174.532 21.304 174.772C20.848 175.004 20.304 175.12 19.672 175.12ZM26.7953 175.12C26.1313 175.12 25.5673 174.952 25.1033 174.616C24.6473 174.272 24.2993 173.776 24.0593 173.128C23.8273 172.48 23.7113 171.688 23.7113 170.752C23.7113 169.808 23.8273 169.016 24.0593 168.376C24.2993 167.728 24.6473 167.24 25.1033 166.912C25.5673 166.584 26.1313 166.42 26.7953 166.42C27.4673 166.42 28.0313 166.584 28.4873 166.912C28.9513 167.24 29.2993 167.724 29.5313 168.364C29.7633 169.004 29.8793 169.796 29.8793 170.74C29.8793 171.676 29.7593 172.472 29.5193 173.128C29.2873 173.776 28.9433 174.272 28.4873 174.616C28.0313 174.952 27.4673 175.12 26.7953 175.12ZM26.7953 173.86C27.3393 173.86 27.7393 173.612 27.9953 173.116C28.2593 172.612 28.3913 171.82 28.3913 170.74C28.3913 169.668 28.2593 168.892 27.9953 168.412C27.7393 167.924 27.3393 167.68 26.7953 167.68C26.2593 167.68 25.8593 167.924 25.5953 168.412C25.3313 168.892 25.1993 169.672 25.1993 170.752C25.1993 171.824 25.3313 172.612 25.5953 173.116C25.8593 173.612 26.2593 173.86 26.7953 173.86ZM33.9906 175.12C33.3266 175.12 32.7626 174.952 32.2986 174.616C31.8426 174.272 31.4946 173.776 31.2546 173.128C31.0226 172.48 30.9066 171.688 30.9066 170.752C30.9066 169.808 31.0226 169.016 31.2546 168.376C31.4946 167.728 31.8426 167.24 32.2986 166.912C32.7626 166.584 33.3266 166.42 33.9906 166.42C34.6626 166.42 35.2266 166.584 35.6826 166.912C36.1466 167.24 36.4946 167.724 36.7266 168.364C36.9586 169.004 37.0746 169.796 37.0746 170.74C37.0746 171.676 36.9546 172.472 36.7146 173.128C36.4826 173.776 36.1386 174.272 35.6826 174.616C35.2266 174.952 34.6626 175.12 33.9906 175.12ZM33.9906 173.86C34.5346 173.86 34.9346 173.612 35.1906 173.116C35.4546 172.612 35.5866 171.82 35.5866 170.74C35.5866 169.668 35.4546 168.892 35.1906 168.412C34.9346 167.924 34.5346 167.68 33.9906 167.68C33.4546 167.68 33.0546 167.924 32.7906 168.412C32.5266 168.892 32.3946 169.672 32.3946 170.752C32.3946 171.824 32.5266 172.612 32.7906 173.116C33.0546 173.612 33.4546 173.86 33.9906 173.86ZM38.5339 175V166.54H39.8179L43.0099 172.432H42.6259L45.8059 166.54H47.0659V175H45.6739V168.82H45.9379L43.2499 173.716H42.3499L39.6379 168.808H39.9259V175H38.5339Z" fill="#808283"/>
<rect x="56" y="170.5" width="456" height="1" fill="#23252D"/>
<path d="M19.6 216.12C18.936 216.12 18.372 215.952 17.908 215.616C17.452 215.272 17.104 214.776 16.864 214.128C16.632 213.48 16.516 212.688 16.516 211.752C16.516 210.808 16.632 210.016 16.864 209.376C17.104 208.728 17.452 208.24 17.908 207.912C18.372 207.584 18.936 207.42 19.6 207.42C20.272 207.42 20.836 207.584 21.292 207.912C21.756 208.24 22.104 208.724 22.336 209.364C22.568 210.004 22.684 210.796 22.684 211.74C22.684 212.676 22.564 213.472 22.324 214.128C22.092 214.776 21.748 215.272 21.292 215.616C20.836 215.952 20.272 216.12 19.6 216.12ZM19.6 214.86C20.144 214.86 20.544 214.612 20.8 214.116C21.064 213.612 21.196 212.82 21.196 211.74C21.196 210.668 21.064 209.892 20.8 209.412C20.544 208.924 20.144 208.68 19.6 208.68C19.064 208.68 18.664 208.924 18.4 209.412C18.136 209.892 18.004 210.672 18.004 211.752C18.004 212.824 18.136 213.612 18.4 214.116C18.664 214.612 19.064 214.86 19.6 214.86Z" fill="#808283"/>
<rect x="56" y="211.5" width="456" height="1" fill="#313338"/>
<path d="M16.816 254.384V253.184H20.392V254.384H16.816ZM24.8751 257.12C24.5071 257.12 24.1431 257.08 23.7831 257C23.4311 256.92 23.0991 256.808 22.7871 256.664C22.4831 256.52 22.2191 256.352 21.9951 256.16L22.4991 254.984C22.8671 255.264 23.2471 255.476 23.6391 255.62C24.0311 255.756 24.4351 255.824 24.8511 255.824C25.3551 255.824 25.7471 255.696 26.0271 255.44C26.3151 255.176 26.4591 254.824 26.4591 254.384C26.4591 253.936 26.3231 253.576 26.0511 253.304C25.7791 253.024 25.4071 252.884 24.9351 252.884C24.5911 252.884 24.2831 252.952 24.0111 253.088C23.7391 253.216 23.4911 253.416 23.2671 253.688H22.2351V248.54H27.4311V249.812H23.7351V252.5H23.3391C23.5471 252.22 23.8191 252.004 24.1551 251.852C24.4991 251.7 24.8791 251.624 25.2951 251.624C25.8311 251.624 26.2951 251.74 26.6871 251.972C27.0871 252.196 27.3951 252.512 27.6111 252.92C27.8351 253.32 27.9471 253.788 27.9471 254.324C27.9471 254.876 27.8231 255.364 27.5751 255.788C27.3271 256.204 26.9711 256.532 26.5071 256.772C26.0511 257.004 25.5071 257.12 24.8751 257.12ZM31.9984 257.12C31.3344 257.12 30.7704 256.952 30.3064 256.616C29.8504 256.272 29.5024 255.776 29.2624 255.128C29.0304 254.48 28.9144 253.688 28.9144 252.752C28.9144 251.808 29.0304 251.016 29.2624 250.376C29.5024 249.728 29.8504 249.24 30.3064 248.912C30.7704 248.584 31.3344 248.42 31.9984 248.42C32.6704 248.42 33.2344 248.584 33.6904 248.912C34.1544 249.24 34.5024 249.724 34.7344 250.364C34.9664 251.004 35.0824 251.796 35.0824 252.74C35.0824 253.676 34.9624 254.472 34.7224 255.128C34.4904 255.776 34.1464 256.272 33.6904 256.616C33.2344 256.952 32.6704 257.12 31.9984 257.12ZM31.9984 255.86C32.5424 255.86 32.9424 255.612 33.1984 255.116C33.4624 254.612 33.5944 253.82 33.5944 252.74C33.5944 251.668 33.4624 250.892 33.1984 250.412C32.9424 249.924 32.5424 249.68 31.9984 249.68C31.4624 249.68 31.0624 249.924 30.7984 250.412C30.5344 250.892 30.4024 251.672 30.4024 252.752C30.4024 253.824 30.5344 254.612 30.7984 255.116C31.0624 255.612 31.4624 255.86 31.9984 255.86ZM39.1938 257.12C38.5298 257.12 37.9658 256.952 37.5018 256.616C37.0458 256.272 36.6978 255.776 36.4578 255.128C36.2258 254.48 36.1098 253.688 36.1098 252.752C36.1098 251.808 36.2258 251.016 36.4578 250.376C36.6978 249.728 37.0458 249.24 37.5018 248.912C37.9658 248.584 38.5298 248.42 39.1938 248.42C39.8658 248.42 40.4298 248.584 40.8858 248.912C41.3498 249.24 41.6978 249.724 41.9297 250.364C42.1618 251.004 42.2778 251.796 42.2778 252.74C42.2778 253.676 42.1578 254.472 41.9178 255.128C41.6858 255.776 41.3418 256.272 40.8858 256.616C40.4298 256.952 39.8658 257.12 39.1938 257.12ZM39.1938 255.86C39.7378 255.86 40.1378 255.612 40.3938 255.116C40.6578 254.612 40.7898 253.82 40.7898 252.74C40.7898 251.668 40.6578 250.892 40.3938 250.412C40.1378 249.924 39.7378 249.68 39.1938 249.68C38.6578 249.68 38.2578 249.924 37.9938 250.412C37.7298 250.892 37.5978 251.672 37.5978 252.752C37.5978 253.824 37.7298 254.612 37.9938 255.116C38.2578 255.612 38.6578 255.86 39.1938 255.86ZM43.7371 257V248.54H45.0211L48.2131 254.432H47.8291L51.0091 248.54H52.2691V257H50.8771V250.82H51.1411L48.4531 255.716H47.5531L44.8411 250.808H45.1291V257H43.7371Z" fill="#808283"/>
<rect x="56" y="252.5" width="456" height="1" fill="#23252D"/>
<path d="M16.816 295.384V294.184H20.392V295.384H16.816ZM22.5111 298V296.728H24.4191V290.836H25.1631L22.9431 292.18L22.3431 291.052L24.8631 289.54H25.9551V296.728H27.7431V298H22.5111ZM29.3224 298V289.54H33.0184C33.9064 289.54 34.5944 289.736 35.0824 290.128C35.5704 290.512 35.8144 291.048 35.8144 291.736C35.8144 292.248 35.6664 292.68 35.3704 293.032C35.0744 293.384 34.6704 293.62 34.1584 293.74V293.56C34.5504 293.616 34.8864 293.736 35.1664 293.92C35.4464 294.104 35.6584 294.34 35.8024 294.628C35.9544 294.916 36.0304 295.252 36.0304 295.636C36.0304 296.132 35.9144 296.56 35.6824 296.92C35.4584 297.272 35.1304 297.54 34.6984 297.724C34.2664 297.908 33.7504 298 33.1504 298H29.3224ZM30.7984 296.836H32.9584C33.1744 296.836 33.3664 296.82 33.5344 296.788C33.7104 296.756 33.8584 296.708 33.9784 296.644C34.1064 296.572 34.2104 296.484 34.2904 296.38C34.3784 296.276 34.4424 296.156 34.4824 296.02C34.5224 295.884 34.5424 295.732 34.5424 295.564C34.5424 295.388 34.5224 295.232 34.4824 295.096C34.4424 294.96 34.3784 294.844 34.2904 294.748C34.2104 294.644 34.1064 294.56 33.9784 294.496C33.8584 294.424 33.7104 294.372 33.5344 294.34C33.3664 294.308 33.1744 294.292 32.9584 294.292H30.7984V296.836ZM30.7984 293.128H32.7544C33.2824 293.128 33.6744 293.028 33.9304 292.828C34.1944 292.62 34.3264 292.316 34.3264 291.916C34.3264 291.516 34.1944 291.216 33.9304 291.016C33.6744 290.808 33.2824 290.704 32.7544 290.704H30.7984V293.128Z" fill="#808283"/>
<rect x="56" y="293.5" width="456" height="1" fill="#23252D"/>
<path d="M16.816 336.384V335.184H20.392V336.384H16.816ZM22.5111 339V337.728H24.4191V331.836H25.1631L22.9431 333.18L22.3431 332.052L24.8631 330.54H25.9551V337.728H27.7431V339H22.5111ZM29.0464 339V337.332H30.7264V339H29.0464ZM35.047 339.12C34.679 339.12 34.315 339.08 33.955 339C33.603 338.92 33.271 338.808 32.959 338.664C32.655 338.52 32.391 338.352 32.167 338.16L32.671 336.984C33.039 337.264 33.419 337.476 33.811 337.62C34.203 337.756 34.607 337.824 35.023 337.824C35.527 337.824 35.919 337.696 36.199 337.44C36.487 337.176 36.631 336.824 36.631 336.384C36.631 335.936 36.495 335.576 36.223 335.304C35.951 335.024 35.579 334.884 35.107 334.884C34.763 334.884 34.455 334.952 34.183 335.088C33.911 335.216 33.663 335.416 33.439 335.688H32.407V330.54H37.603V331.812H33.907V334.5H33.511C33.719 334.22 33.991 334.004 34.327 333.852C34.671 333.7 35.051 333.624 35.467 333.624C36.003 333.624 36.467 333.74 36.859 333.972C37.259 334.196 37.567 334.512 37.783 334.92C38.007 335.32 38.119 335.788 38.119 336.324C38.119 336.876 37.995 337.364 37.747 337.788C37.499 338.204 37.143 338.532 36.679 338.772C36.223 339.004 35.679 339.12 35.047 339.12ZM39.4943 339V330.54H43.1903C44.0783 330.54 44.7663 330.736 45.2543 331.128C45.7423 331.512 45.9863 332.048 45.9863 332.736C45.9863 333.248 45.8383 333.68 45.5423 334.032C45.2463 334.384 44.8423 334.62 44.3303 334.74V334.56C44.7223 334.616 45.0583 334.736 45.3383 334.92C45.6183 335.104 45.8303 335.34 45.9743 335.628C46.1263 335.916 46.2023 336.252 46.2023 336.636C46.2023 337.132 46.0863 337.56 45.8543 337.92C45.6303 338.272 45.3023 338.54 44.8703 338.724C44.4383 338.908 43.9223 339 43.3223 339H39.4943ZM40.9703 337.836H43.1303C43.3463 337.836 43.5383 337.82 43.7063 337.788C43.8823 337.756 44.0303 337.708 44.1503 337.644C44.2783 337.572 44.3823 337.484 44.4623 337.38C44.5503 337.276 44.6143 337.156 44.6543 337.02C44.6943 336.884 44.7143 336.732 44.7143 336.564C44.7143 336.388 44.6943 336.232 44.6543 336.096C44.6143 335.96 44.5503 335.844 44.4623 335.748C44.3823 335.644 44.2783 335.56 44.1503 335.496C44.0303 335.424 43.8823 335.372 43.7063 335.34C43.5383 335.308 43.3463 335.292 43.1303 335.292H40.9703V337.836ZM40.9703 334.128H42.9263C43.4543 334.128 43.8463 334.028 44.1023 333.828C44.3663 333.62 44.4983 333.316 44.4983 332.916C44.4983 332.516 44.3663 332.216 44.1023 332.016C43.8463 331.808 43.4543 331.704 42.9263 331.704H40.9703V334.128Z" fill="#808283"/>
<rect x="56" y="334.5" width="456" height="1" fill="#23252D"/>
<rect x="84.0625" y="335" width="1" height="8" fill="#23252D"/>
<path d="M65.5939 355V346.54H71.1259V347.764H67.1299V350.152H70.8739V351.376H67.1299V355H65.5939ZM72.3322 355V346.54H77.9602V347.764H73.8082V350.092H77.6962V351.316H73.8082V353.776H77.9602V355H72.3322ZM79.4924 355V346.54H83.1884C84.0764 346.54 84.7644 346.736 85.2524 347.128C85.7404 347.512 85.9844 348.048 85.9844 348.736C85.9844 349.248 85.8364 349.68 85.5404 350.032C85.2444 350.384 84.8404 350.62 84.3284 350.74V350.56C84.7204 350.616 85.0564 350.736 85.3364 350.92C85.6164 351.104 85.8284 351.34 85.9724 351.628C86.1244 351.916 86.2004 352.252 86.2004 352.636C86.2004 353.132 86.0844 353.56 85.8524 353.92C85.6284 354.272 85.3004 354.54 84.8684 354.724C84.4364 354.908 83.9204 355 83.3204 355H79.4924ZM80.9684 353.836H83.1284C83.3444 353.836 83.5364 353.82 83.7044 353.788C83.8804 353.756 84.0284 353.708 84.1484 353.644C84.2764 353.572 84.3804 353.484 84.4604 353.38C84.5484 353.276 84.6124 353.156 84.6524 353.02C84.6924 352.884 84.7124 352.732 84.7124 352.564C84.7124 352.388 84.6924 352.232 84.6524 352.096C84.6124 351.96 84.5484 351.844 84.4604 351.748C84.3804 351.644 84.2764 351.56 84.1484 351.496C84.0284 351.424 83.8804 351.372 83.7044 351.34C83.5364 351.308 83.3444 351.292 83.1284 351.292H80.9684V353.836ZM80.9684 350.128H82.9244C83.4524 350.128 83.8444 350.028 84.1004 349.828C84.3644 349.62 84.4964 349.316 84.4964 348.916C84.4964 348.516 84.3644 348.216 84.1004 348.016C83.8444 347.808 83.4524 347.704 82.9244 347.704H80.9684V350.128ZM91.3725 355V353.728H93.2805V347.836H94.0245L91.8045 349.18L91.2045 348.052L93.7245 346.54H94.8165V353.728H96.6045V355H91.3725ZM100.212 355.12C99.9158 355.12 99.6158 355.08 99.3118 355C99.0158 354.928 98.7318 354.82 98.4598 354.676C98.1958 354.532 97.9558 354.36 97.7398 354.16L98.2558 353.008C98.5438 353.28 98.8558 353.484 99.1918 353.62C99.5358 353.756 99.8798 353.824 100.224 353.824C100.576 353.824 100.884 353.764 101.148 353.644C101.42 353.516 101.648 353.332 101.832 353.092C102.016 352.844 102.152 352.54 102.24 352.18C102.336 351.812 102.384 351.388 102.384 350.908V350.008H102.516C102.46 350.408 102.328 350.756 102.12 351.052C101.912 351.348 101.648 351.576 101.328 351.736C101.016 351.888 100.66 351.964 100.26 351.964C99.7798 351.964 99.3518 351.848 98.9758 351.616C98.5998 351.384 98.2998 351.064 98.0758 350.656C97.8598 350.24 97.7518 349.772 97.7518 349.252C97.7518 348.7 97.8718 348.212 98.1118 347.788C98.3518 347.364 98.6798 347.032 99.0958 346.792C99.5198 346.544 100.004 346.42 100.548 346.42C101.252 346.42 101.848 346.584 102.336 346.912C102.824 347.24 103.196 347.72 103.452 348.352C103.708 348.976 103.836 349.732 103.836 350.62C103.836 351.572 103.692 352.384 103.404 353.056C103.116 353.728 102.7 354.24 102.156 354.592C101.62 354.944 100.972 355.12 100.212 355.12ZM100.644 350.74C100.932 350.74 101.184 350.676 101.4 350.548C101.624 350.42 101.796 350.24 101.916 350.008C102.036 349.768 102.096 349.496 102.096 349.192C102.096 348.88 102.036 348.608 101.916 348.376C101.796 348.144 101.624 347.964 101.4 347.836C101.184 347.7 100.932 347.632 100.644 347.632C100.356 347.632 100.104 347.7 99.8878 347.836C99.6718 347.964 99.4998 348.144 99.3718 348.376C99.2518 348.608 99.1918 348.88 99.1918 349.192C99.1918 349.496 99.2518 349.768 99.3718 350.008C99.4998 350.24 99.6718 350.42 99.8878 350.548C100.104 350.676 100.356 350.74 100.644 350.74Z" fill="#808283"/>
<rect x="141.188" y="335" width="1" height="8" fill="#23252D"/>
<path d="M122.719 355V346.54H128.251V347.764H124.255V350.152H127.999V351.376H124.255V355H122.719ZM129.457 355V346.54H135.085V347.764H130.933V350.092H134.821V351.316H130.933V353.776H135.085V355H129.457ZM136.617 355V346.54H140.313C141.201 346.54 141.889 346.736 142.377 347.128C142.865 347.512 143.109 348.048 143.109 348.736C143.109 349.248 142.961 349.68 142.665 350.032C142.369 350.384 141.965 350.62 141.453 350.74V350.56C141.845 350.616 142.181 350.736 142.461 350.92C142.741 351.104 142.953 351.34 143.097 351.628C143.249 351.916 143.325 352.252 143.325 352.636C143.325 353.132 143.209 353.56 142.977 353.92C142.753 354.272 142.425 354.54 141.993 354.724C141.561 354.908 141.045 355 140.445 355H136.617ZM138.093 353.836H140.253C140.469 353.836 140.661 353.82 140.829 353.788C141.005 353.756 141.153 353.708 141.273 353.644C141.401 353.572 141.505 353.484 141.585 353.38C141.673 353.276 141.737 353.156 141.777 353.02C141.817 352.884 141.837 352.732 141.837 352.564C141.837 352.388 141.817 352.232 141.777 352.096C141.737 351.96 141.673 351.844 141.585 351.748C141.505 351.644 141.401 351.56 141.273 351.496C141.153 351.424 141.005 351.372 140.829 351.34C140.661 351.308 140.469 351.292 140.253 351.292H138.093V353.836ZM138.093 350.128H140.049C140.577 350.128 140.969 350.028 141.225 349.828C141.489 349.62 141.621 349.316 141.621 348.916C141.621 348.516 141.489 348.216 141.225 348.016C140.969 347.808 140.577 347.704 140.049 347.704H138.093V350.128ZM148.149 355V353.86L150.885 350.944C151.133 350.68 151.329 350.436 151.473 350.212C151.625 349.988 151.737 349.772 151.809 349.564C151.881 349.356 151.917 349.148 151.917 348.94C151.917 348.54 151.789 348.236 151.533 348.028C151.285 347.82 150.921 347.716 150.441 347.716C150.065 347.716 149.697 347.788 149.337 347.932C148.985 348.068 148.645 348.284 148.317 348.58L147.801 347.428C148.137 347.124 148.557 346.88 149.061 346.696C149.565 346.512 150.089 346.42 150.633 346.42C151.241 346.42 151.753 346.512 152.169 346.696C152.585 346.88 152.901 347.148 153.117 347.5C153.333 347.852 153.441 348.28 153.441 348.784C153.441 349.04 153.409 349.292 153.345 349.54C153.289 349.78 153.197 350.02 153.069 350.26C152.949 350.5 152.793 350.748 152.601 351.004C152.417 351.252 152.193 351.512 151.929 351.784L149.673 354.136V353.728H153.765V355H148.149ZM157.817 355.12C157.433 355.12 157.057 355.08 156.689 355C156.329 354.928 155.993 354.82 155.681 354.676C155.369 354.532 155.097 354.36 154.865 354.16L155.369 352.984C155.745 353.272 156.129 353.484 156.521 353.62C156.913 353.756 157.329 353.824 157.769 353.824C158.121 353.824 158.417 353.776 158.657 353.68C158.897 353.584 159.077 353.44 159.197 353.248C159.325 353.056 159.389 352.824 159.389 352.552C159.389 352.152 159.253 351.856 158.981 351.664C158.717 351.464 158.329 351.364 157.817 351.364H156.461V350.092H157.673C157.977 350.092 158.237 350.044 158.453 349.948C158.669 349.844 158.837 349.7 158.957 349.516C159.077 349.332 159.137 349.108 159.137 348.844C159.137 348.476 159.013 348.196 158.765 348.004C158.525 347.812 158.173 347.716 157.709 347.716C157.293 347.716 156.905 347.788 156.545 347.932C156.185 348.068 155.841 348.284 155.513 348.58L155.009 347.428C155.345 347.108 155.765 346.86 156.269 346.684C156.773 346.508 157.297 346.42 157.841 346.42C158.425 346.42 158.925 346.512 159.341 346.696C159.757 346.872 160.073 347.128 160.289 347.464C160.513 347.792 160.625 348.192 160.625 348.664C160.625 349.168 160.485 349.604 160.205 349.972C159.925 350.332 159.541 350.572 159.053 350.692V350.548C159.437 350.612 159.765 350.74 160.037 350.932C160.309 351.124 160.517 351.368 160.661 351.664C160.805 351.96 160.877 352.3 160.877 352.684C160.877 353.18 160.753 353.612 160.505 353.98C160.257 354.348 159.905 354.632 159.449 354.832C158.993 355.024 158.449 355.12 157.817 355.12Z" fill="#808283"/>
<rect x="198.312" y="335" width="1" height="8" fill="#23252D"/>
<path d="M179.844 355V346.54H185.376V347.764H181.38V350.152H185.124V351.376H181.38V355H179.844ZM186.582 355V346.54H192.21V347.764H188.058V350.092H191.946V351.316H188.058V353.776H192.21V355H186.582ZM193.742 355V346.54H197.438C198.326 346.54 199.014 346.736 199.502 347.128C199.99 347.512 200.234 348.048 200.234 348.736C200.234 349.248 200.086 349.68 199.79 350.032C199.494 350.384 199.09 350.62 198.578 350.74V350.56C198.97 350.616 199.306 350.736 199.586 350.92C199.866 351.104 200.078 351.34 200.222 351.628C200.374 351.916 200.45 352.252 200.45 352.636C200.45 353.132 200.334 353.56 200.102 353.92C199.878 354.272 199.55 354.54 199.118 354.724C198.686 354.908 198.17 355 197.57 355H193.742ZM195.218 353.836H197.378C197.594 353.836 197.786 353.82 197.954 353.788C198.13 353.756 198.278 353.708 198.398 353.644C198.526 353.572 198.63 353.484 198.71 353.38C198.798 353.276 198.862 353.156 198.902 353.02C198.942 352.884 198.962 352.732 198.962 352.564C198.962 352.388 198.942 352.232 198.902 352.096C198.862 351.96 198.798 351.844 198.71 351.748C198.63 351.644 198.526 351.56 198.398 351.496C198.278 351.424 198.13 351.372 197.954 351.34C197.786 351.308 197.594 351.292 197.378 351.292H195.218V353.836ZM195.218 350.128H197.174C197.702 350.128 198.094 350.028 198.35 349.828C198.614 349.62 198.746 349.316 198.746 348.916C198.746 348.516 198.614 348.216 198.35 348.016C198.094 347.808 197.702 347.704 197.174 347.704H195.218V350.128ZM205.274 355V353.86L208.01 350.944C208.258 350.68 208.454 350.436 208.598 350.212C208.75 349.988 208.862 349.772 208.934 349.564C209.006 349.356 209.042 349.148 209.042 348.94C209.042 348.54 208.914 348.236 208.658 348.028C208.41 347.82 208.046 347.716 207.566 347.716C207.19 347.716 206.822 347.788 206.462 347.932C206.11 348.068 205.77 348.284 205.442 348.58L204.926 347.428C205.262 347.124 205.682 346.88 206.186 346.696C206.69 346.512 207.214 346.42 207.758 346.42C208.366 346.42 208.878 346.512 209.294 346.696C209.71 346.88 210.026 347.148 210.242 347.5C210.458 347.852 210.566 348.28 210.566 348.784C210.566 349.04 210.534 349.292 210.47 349.54C210.414 349.78 210.322 350.02 210.194 350.26C210.074 350.5 209.918 350.748 209.726 351.004C209.542 351.252 209.318 351.512 209.054 351.784L206.798 354.136V353.728H210.89V355H205.274ZM212.542 355L216.634 347.296V347.824H212.17V346.54H218.062V347.692L214.234 355H212.542Z" fill="#808283"/>
<rect x="255.438" y="335" width="1" height="8" fill="#23252D"/>
<path d="M237.884 355V346.54H239.168L242.36 352.432H241.976L245.156 346.54H246.416V355H245.024V348.82H245.288L242.6 353.716H241.7L238.988 348.808H239.276V355H237.884ZM247.366 355L251.194 346.54H252.454L256.282 355H254.722L253.702 352.624L254.35 353.044H249.286L249.934 352.624L248.926 355H247.366ZM251.806 348.208L250.126 352.204L249.814 351.82H253.822L253.522 352.204L251.83 348.208H251.806ZM257.207 355V346.54H260.879C261.807 346.54 262.523 346.764 263.027 347.212C263.531 347.652 263.783 348.272 263.783 349.072C263.783 349.592 263.667 350.04 263.435 350.416C263.211 350.792 262.883 351.08 262.451 351.28C262.019 351.48 261.495 351.58 260.879 351.58L260.987 351.4H261.383C261.711 351.4 261.995 351.48 262.235 351.64C262.483 351.8 262.699 352.052 262.883 352.396L264.299 355H262.607L261.143 352.3C261.047 352.124 260.939 351.988 260.819 351.892C260.699 351.788 260.563 351.716 260.411 351.676C260.259 351.636 260.083 351.616 259.883 351.616H258.743V355H257.207ZM258.743 350.476H260.615C261.167 350.476 261.583 350.364 261.863 350.14C262.151 349.908 262.295 349.564 262.295 349.108C262.295 348.66 262.151 348.324 261.863 348.1C261.583 347.868 261.167 347.752 260.615 347.752H258.743V350.476ZM271.176 355.12C270.792 355.12 270.416 355.08 270.048 355C269.688 354.928 269.352 354.82 269.04 354.676C268.728 354.532 268.456 354.36 268.224 354.16L268.728 352.984C269.104 353.272 269.488 353.484 269.88 353.62C270.272 353.756 270.688 353.824 271.128 353.824C271.48 353.824 271.776 353.776 272.016 353.68C272.256 353.584 272.436 353.44 272.556 353.248C272.684 353.056 272.748 352.824 272.748 352.552C272.748 352.152 272.612 351.856 272.34 351.664C272.076 351.464 271.688 351.364 271.176 351.364H269.82V350.092H271.032C271.336 350.092 271.596 350.044 271.812 349.948C272.028 349.844 272.196 349.7 272.316 349.516C272.436 349.332 272.496 349.108 272.496 348.844C272.496 348.476 272.372 348.196 272.124 348.004C271.884 347.812 271.532 347.716 271.068 347.716C270.652 347.716 270.264 347.788 269.904 347.932C269.544 348.068 269.2 348.284 268.872 348.58L268.368 347.428C268.704 347.108 269.124 346.86 269.628 346.684C270.132 346.508 270.656 346.42 271.2 346.42C271.784 346.42 272.284 346.512 272.7 346.696C273.116 346.872 273.432 347.128 273.648 347.464C273.872 347.792 273.984 348.192 273.984 348.664C273.984 349.168 273.844 349.604 273.564 349.972C273.284 350.332 272.9 350.572 272.412 350.692V350.548C272.796 350.612 273.124 350.74 273.396 350.932C273.668 351.124 273.876 351.368 274.02 351.664C274.164 351.96 274.236 352.3 274.236 352.684C274.236 353.18 274.112 353.612 273.864 353.98C273.616 354.348 273.264 354.632 272.808 354.832C272.352 355.024 271.808 355.12 271.176 355.12Z" fill="#808283"/>
<rect x="312.562" y="335" width="1" height="8" fill="#23252D"/>
<path d="M295.009 355V346.54H296.293L299.485 352.432H299.101L302.281 346.54H303.541V355H302.149V348.82H302.413L299.725 353.716H298.825L296.113 348.808H296.401V355H295.009ZM304.491 355L308.319 346.54H309.579L313.407 355H311.847L310.827 352.624L311.475 353.044H306.411L307.059 352.624L306.051 355H304.491ZM308.931 348.208L307.251 352.204L306.939 351.82H310.947L310.647 352.204L308.955 348.208H308.931ZM314.332 355V346.54H318.004C318.932 346.54 319.648 346.764 320.152 347.212C320.656 347.652 320.908 348.272 320.908 349.072C320.908 349.592 320.792 350.04 320.56 350.416C320.336 350.792 320.008 351.08 319.576 351.28C319.144 351.48 318.62 351.58 318.004 351.58L318.112 351.4H318.508C318.836 351.4 319.12 351.48 319.36 351.64C319.608 351.8 319.824 352.052 320.008 352.396L321.424 355H319.732L318.268 352.3C318.172 352.124 318.064 351.988 317.944 351.892C317.824 351.788 317.688 351.716 317.536 351.676C317.384 351.636 317.208 351.616 317.008 351.616H315.868V355H314.332ZM315.868 350.476H317.74C318.292 350.476 318.708 350.364 318.988 350.14C319.276 349.908 319.42 349.564 319.42 349.108C319.42 348.66 319.276 348.324 318.988 348.1C318.708 347.868 318.292 347.752 317.74 347.752H315.868V350.476ZM325.901 355L329.993 347.296V347.824H325.529V346.54H331.421V347.692L327.593 355H325.901Z" fill="#808283"/>
<rect x="369.688" y="335" width="1" height="8" fill="#23252D"/>
<path d="M348.536 355V346.54H349.82L353.012 352.432H352.628L355.808 346.54H357.068V355H355.676V348.82H355.94L353.252 353.716H352.352L349.64 348.808H349.928V355H348.536ZM358.018 355L361.846 346.54H363.106L366.934 355H365.374L364.354 352.624L365.002 353.044H359.938L360.586 352.624L359.578 355H358.018ZM362.458 348.208L360.778 352.204L360.466 351.82H364.474L364.174 352.204L362.482 348.208H362.458ZM367.86 355V346.54H371.532C372.46 346.54 373.176 346.764 373.68 347.212C374.184 347.652 374.436 348.272 374.436 349.072C374.436 349.592 374.32 350.04 374.088 350.416C373.864 350.792 373.536 351.08 373.104 351.28C372.672 351.48 372.148 351.58 371.532 351.58L371.64 351.4H372.036C372.364 351.4 372.648 351.48 372.888 351.64C373.136 351.8 373.352 352.052 373.536 352.396L374.952 355H373.26L371.796 352.3C371.7 352.124 371.592 351.988 371.472 351.892C371.352 351.788 371.216 351.716 371.064 351.676C370.912 351.636 370.736 351.616 370.536 351.616H369.396V355H367.86ZM369.396 350.476H371.268C371.82 350.476 372.236 350.364 372.516 350.14C372.804 349.908 372.948 349.564 372.948 349.108C372.948 348.66 372.804 348.324 372.516 348.1C372.236 347.868 371.82 347.752 371.268 347.752H369.396V350.476ZM379.704 355V353.728H381.612V347.836H382.356L380.136 349.18L379.536 348.052L382.056 346.54H383.148V353.728H384.936V355H379.704ZM389.264 355.12C388.896 355.12 388.532 355.08 388.172 355C387.82 354.92 387.488 354.808 387.176 354.664C386.872 354.52 386.608 354.352 386.384 354.16L386.888 352.984C387.256 353.264 387.636 353.476 388.028 353.62C388.42 353.756 388.824 353.824 389.24 353.824C389.744 353.824 390.136 353.696 390.416 353.44C390.704 353.176 390.848 352.824 390.848 352.384C390.848 351.936 390.712 351.576 390.44 351.304C390.168 351.024 389.796 350.884 389.324 350.884C388.98 350.884 388.672 350.952 388.4 351.088C388.128 351.216 387.88 351.416 387.656 351.688H386.624V346.54H391.82V347.812H388.124V350.5H387.728C387.936 350.22 388.208 350.004 388.544 349.852C388.888 349.7 389.268 349.624 389.684 349.624C390.22 349.624 390.684 349.74 391.076 349.972C391.476 350.196 391.784 350.512 392 350.92C392.224 351.32 392.336 351.788 392.336 352.324C392.336 352.876 392.212 353.364 391.964 353.788C391.716 354.204 391.36 354.532 390.896 354.772C390.44 355.004 389.896 355.12 389.264 355.12Z" fill="#808283"/>
<rect x="426.812" y="335" width="1" height="8" fill="#23252D"/>
<path d="M405.661 355V346.54H406.945L410.137 352.432H409.753L412.933 346.54H414.193V355H412.801V348.82H413.065L410.377 353.716H409.477L406.765 348.808H407.053V355H405.661ZM415.143 355L418.971 346.54H420.231L424.059 355H422.499L421.479 352.624L422.127 353.044H417.063L417.711 352.624L416.703 355H415.143ZM419.583 348.208L417.903 352.204L417.591 351.82H421.599L421.299 352.204L419.607 348.208H419.583ZM424.985 355V346.54H428.657C429.585 346.54 430.301 346.764 430.805 347.212C431.309 347.652 431.561 348.272 431.561 349.072C431.561 349.592 431.445 350.04 431.213 350.416C430.989 350.792 430.661 351.08 430.229 351.28C429.797 351.48 429.273 351.58 428.657 351.58L428.765 351.4H429.161C429.489 351.4 429.773 351.48 430.013 351.64C430.261 351.8 430.477 352.052 430.661 352.396L432.077 355H430.385L428.921 352.3C428.825 352.124 428.717 351.988 428.597 351.892C428.477 351.788 428.341 351.716 428.189 351.676C428.037 351.636 427.861 351.616 427.661 351.616H426.521V355H424.985ZM426.521 350.476H428.393C428.945 350.476 429.361 350.364 429.641 350.14C429.929 349.908 430.073 349.564 430.073 349.108C430.073 348.66 429.929 348.324 429.641 348.1C429.361 347.868 428.945 347.752 428.393 347.752H426.521V350.476ZM436.829 355V353.728H438.737V347.836H439.481L437.261 349.18L436.661 348.052L439.181 346.54H440.273V353.728H442.061V355H436.829ZM445.669 355.12C445.373 355.12 445.073 355.08 444.769 355C444.473 354.928 444.189 354.82 443.917 354.676C443.653 354.532 443.413 354.36 443.197 354.16L443.713 353.008C444.001 353.28 444.313 353.484 444.649 353.62C444.993 353.756 445.337 353.824 445.681 353.824C446.033 353.824 446.341 353.764 446.605 353.644C446.877 353.516 447.105 353.332 447.289 353.092C447.473 352.844 447.609 352.54 447.697 352.18C447.793 351.812 447.841 351.388 447.841 350.908V350.008H447.973C447.917 350.408 447.785 350.756 447.577 351.052C447.369 351.348 447.105 351.576 446.785 351.736C446.473 351.888 446.117 351.964 445.717 351.964C445.237 351.964 444.809 351.848 444.433 351.616C444.057 351.384 443.757 351.064 443.533 350.656C443.317 350.24 443.209 349.772 443.209 349.252C443.209 348.7 443.329 348.212 443.569 347.788C443.809 347.364 444.137 347.032 444.553 346.792C444.977 346.544 445.461 346.42 446.005 346.42C446.709 346.42 447.305 346.584 447.793 346.912C448.281 347.24 448.653 347.72 448.909 348.352C449.165 348.976 449.293 349.732 449.293 350.62C449.293 351.572 449.149 352.384 448.861 353.056C448.573 353.728 448.157 354.24 447.613 354.592C447.077 354.944 446.429 355.12 445.669 355.12ZM446.101 350.74C446.389 350.74 446.641 350.676 446.857 350.548C447.081 350.42 447.253 350.24 447.373 350.008C447.493 349.768 447.553 349.496 447.553 349.192C447.553 348.88 447.493 348.608 447.373 348.376C447.253 348.144 447.081 347.964 446.857 347.836C446.641 347.7 446.389 347.632 446.101 347.632C445.813 347.632 445.561 347.7 445.345 347.836C445.129 347.964 444.957 348.144 444.829 348.376C444.709 348.608 444.649 348.88 444.649 349.192C444.649 349.496 444.709 349.768 444.829 350.008C444.957 350.24 445.129 350.42 445.345 350.548C445.561 350.676 445.813 350.74 446.101 350.74Z" fill="#808283"/>
<rect x="483.938" y="335" width="1" height="8" fill="#23252D"/>
<path d="M462.786 355V346.54H464.07L467.262 352.432H466.878L470.058 346.54H471.318V355H469.926V348.82H470.19L467.502 353.716H466.602L463.89 348.808H464.178V355H462.786ZM472.268 355L476.096 346.54H477.356L481.184 355H479.624L478.604 352.624L479.252 353.044H474.188L474.836 352.624L473.828 355H472.268ZM476.708 348.208L475.028 352.204L474.716 351.82H478.724L478.424 352.204L476.732 348.208H476.708ZM482.11 355V346.54H485.782C486.71 346.54 487.426 346.764 487.93 347.212C488.434 347.652 488.686 348.272 488.686 349.072C488.686 349.592 488.57 350.04 488.338 350.416C488.114 350.792 487.786 351.08 487.354 351.28C486.922 351.48 486.398 351.58 485.782 351.58L485.89 351.4H486.286C486.614 351.4 486.898 351.48 487.138 351.64C487.386 351.8 487.602 352.052 487.786 352.396L489.202 355H487.51L486.046 352.3C485.95 352.124 485.842 351.988 485.722 351.892C485.602 351.788 485.466 351.716 485.314 351.676C485.162 351.636 484.986 351.616 484.786 351.616H483.646V355H482.11ZM483.646 350.476H485.518C486.07 350.476 486.486 350.364 486.766 350.14C487.054 349.908 487.198 349.564 487.198 349.108C487.198 348.66 487.054 348.324 486.766 348.1C486.486 347.868 486.07 347.752 485.518 347.752H483.646V350.476ZM493.606 355V353.86L496.342 350.944C496.59 350.68 496.786 350.436 496.93 350.212C497.082 349.988 497.194 349.772 497.266 349.564C497.338 349.356 497.374 349.148 497.374 348.94C497.374 348.54 497.246 348.236 496.99 348.028C496.742 347.82 496.378 347.716 495.898 347.716C495.522 347.716 495.154 347.788 494.794 347.932C494.442 348.068 494.102 348.284 493.774 348.58L493.258 347.428C493.594 347.124 494.014 346.88 494.518 346.696C495.022 346.512 495.546 346.42 496.09 346.42C496.698 346.42 497.21 346.512 497.626 346.696C498.042 346.88 498.358 347.148 498.574 347.5C498.79 347.852 498.898 348.28 498.898 348.784C498.898 349.04 498.866 349.292 498.802 349.54C498.746 349.78 498.654 350.02 498.526 350.26C498.406 350.5 498.25 350.748 498.058 351.004C497.874 351.252 497.65 351.512 497.386 351.784L495.13 354.136V353.728H499.222V355H493.606ZM503.274 355.12C502.89 355.12 502.514 355.08 502.146 355C501.786 354.928 501.45 354.82 501.138 354.676C500.826 354.532 500.554 354.36 500.322 354.16L500.826 352.984C501.202 353.272 501.586 353.484 501.978 353.62C502.37 353.756 502.786 353.824 503.226 353.824C503.578 353.824 503.874 353.776 504.114 353.68C504.354 353.584 504.534 353.44 504.654 353.248C504.782 353.056 504.846 352.824 504.846 352.552C504.846 352.152 504.71 351.856 504.438 351.664C504.174 351.464 503.786 351.364 503.274 351.364H501.918V350.092H503.13C503.434 350.092 503.694 350.044 503.91 349.948C504.126 349.844 504.294 349.7 504.414 349.516C504.534 349.332 504.594 349.108 504.594 348.844C504.594 348.476 504.47 348.196 504.222 348.004C503.982 347.812 503.63 347.716 503.166 347.716C502.75 347.716 502.362 347.788 502.002 347.932C501.642 348.068 501.298 348.284 500.97 348.58L500.466 347.428C500.802 347.108 501.222 346.86 501.726 346.684C502.23 346.508 502.754 346.42 503.298 346.42C503.882 346.42 504.382 346.512 504.798 346.696C505.214 346.872 505.53 347.128 505.746 347.464C505.97 347.792 506.082 348.192 506.082 348.664C506.082 349.168 505.942 349.604 505.662 349.972C505.382 350.332 504.998 350.572 504.51 350.692V350.548C504.894 350.612 505.222 350.74 505.494 350.932C505.766 351.124 505.974 351.368 506.118 351.664C506.262 351.96 506.334 352.3 506.334 352.684C506.334 353.18 506.21 353.612 505.962 353.98C505.714 354.348 505.362 354.632 504.906 354.832C504.45 355.024 503.906 355.12 503.274 355.12Z" fill="#808283"/>
<rect x="16" y="76" width="42" height="32" rx="4" fill="#23252D"/>
<path d="M29.808 96V94.728H31.716V88.836H32.46L30.24 90.18L29.64 89.052L32.16 87.54H33.252V94.728H35.04V96H29.808ZM36.6193 96V87.54H39.7633C40.7073 87.54 41.5073 87.704 42.1633 88.032C42.8273 88.36 43.3313 88.84 43.6753 89.472C44.0273 90.096 44.2033 90.86 44.2033 91.764C44.2033 92.668 44.0273 93.436 43.6753 94.068C43.3313 94.7 42.8273 95.18 42.1633 95.508C41.5073 95.836 40.7073 96 39.7633 96H36.6193ZM38.1553 94.728H39.6673C40.6513 94.728 41.3833 94.484 41.8633 93.996C42.3513 93.5 42.5953 92.756 42.5953 91.764C42.5953 90.772 42.3513 90.032 41.8633 89.544C41.3753 89.056 40.6433 88.812 39.6673 88.812H38.1553V94.728Z" fill="#808283"/>
<rect x="62" y="76" width="42" height="32" rx="4" fill="#23252D"/>
<path d="M74.44 96.12C73.28 96.12 72.392 95.82 71.776 95.22C71.168 94.612 70.864 93.716 70.864 92.532V87.54H72.4V92.52C72.4 93.28 72.572 93.852 72.916 94.236C73.268 94.612 73.776 94.8 74.44 94.8C75.104 94.8 75.608 94.612 75.952 94.236C76.296 93.852 76.468 93.28 76.468 92.52V87.54H77.992V92.532C77.992 93.716 77.692 94.612 77.092 95.22C76.492 95.82 75.608 96.12 74.44 96.12ZM82.6994 96.12C82.2594 96.12 81.8354 96.08 81.4274 96C81.0274 95.928 80.6554 95.82 80.3114 95.676C79.9754 95.532 79.6754 95.36 79.4114 95.16L79.8794 93.948C80.1434 94.132 80.4194 94.292 80.7074 94.428C81.0034 94.556 81.3154 94.656 81.6434 94.728C81.9794 94.792 82.3314 94.824 82.6994 94.824C83.3314 94.824 83.7914 94.72 84.0794 94.512C84.3674 94.296 84.5114 94.02 84.5114 93.684C84.5114 93.5 84.4674 93.344 84.3794 93.216C84.2914 93.08 84.1474 92.964 83.9474 92.868C83.7474 92.772 83.4834 92.692 83.1554 92.628L81.8354 92.352C81.0754 92.192 80.5074 91.924 80.1314 91.548C79.7634 91.164 79.5794 90.66 79.5794 90.036C79.5794 89.508 79.7194 89.048 79.9994 88.656C80.2794 88.264 80.6674 87.96 81.1634 87.744C81.6594 87.528 82.2314 87.42 82.8794 87.42C83.2634 87.42 83.6314 87.46 83.9834 87.54C84.3434 87.612 84.6714 87.724 84.9674 87.876C85.2714 88.02 85.5354 88.196 85.7594 88.404L85.2914 89.556C84.9554 89.276 84.5874 89.068 84.1874 88.932C83.7874 88.788 83.3474 88.716 82.8674 88.716C82.4994 88.716 82.1834 88.768 81.9194 88.872C81.6554 88.976 81.4514 89.124 81.3074 89.316C81.1714 89.5 81.1034 89.72 81.1034 89.976C81.1034 90.264 81.1994 90.496 81.3914 90.672C81.5834 90.84 81.9114 90.972 82.3754 91.068L83.6834 91.344C84.4754 91.512 85.0634 91.776 85.4474 92.136C85.8394 92.496 86.0354 92.976 86.0354 93.576C86.0354 94.08 85.8994 94.524 85.6274 94.908C85.3554 95.292 84.9674 95.592 84.4634 95.808C83.9674 96.016 83.3794 96.12 82.6994 96.12ZM87.3537 96V87.54H90.4977C91.4417 87.54 92.2417 87.704 92.8977 88.032C93.5617 88.36 94.0657 88.84 94.4097 89.472C94.7617 90.096 94.9377 90.86 94.9377 91.764C94.9377 92.668 94.7617 93.436 94.4097 94.068C94.0657 94.7 93.5617 95.18 92.8977 95.508C92.2417 95.836 91.4417 96 90.4977 96H87.3537ZM88.8897 94.728H90.4017C91.3857 94.728 92.1177 94.484 92.5977 93.996C93.0857 93.5 93.3297 92.756 93.3297 91.764C93.3297 90.772 93.0857 90.032 92.5977 89.544C92.1097 89.056 91.3777 88.812 90.4017 88.812H88.8897V94.728Z" fill="#808283"/>
<rect x="108" y="76" width="60" height="32" rx="4" fill="#23252D"/>
<path d="M116.924 96V87.54H118.46V94.692H122.516V96H116.924ZM123.662 96V87.54H125.198V96H123.662ZM127.037 96V87.54H128.189L133.049 93.852H132.737V87.54H134.165V96H133.025L128.165 89.676H128.465V96H127.037ZM136.014 96V87.54H141.642V88.764H137.49V91.092H141.378V92.316H137.49V94.776H141.642V96H136.014ZM142.11 96L145.938 87.54H147.198L151.026 96H149.466L148.446 93.624L149.094 94.044H144.03L144.678 93.624L143.67 96H142.11ZM146.55 89.208L144.87 93.204L144.558 92.82H148.566L148.266 93.204L146.574 89.208H146.55ZM151.951 96V87.54H155.623C156.551 87.54 157.267 87.764 157.771 88.212C158.275 88.652 158.527 89.272 158.527 90.072C158.527 90.592 158.411 91.04 158.179 91.416C157.955 91.792 157.627 92.08 157.195 92.28C156.763 92.48 156.239 92.58 155.623 92.58L155.731 92.4H156.127C156.455 92.4 156.739 92.48 156.979 92.64C157.227 92.8 157.443 93.052 157.627 93.396L159.043 96H157.351L155.887 93.3C155.791 93.124 155.683 92.988 155.563 92.892C155.443 92.788 155.307 92.716 155.155 92.676C155.003 92.636 154.827 92.616 154.627 92.616H153.487V96H151.951ZM153.487 91.476H155.359C155.911 91.476 156.327 91.364 156.607 91.14C156.895 90.908 157.039 90.564 157.039 90.108C157.039 89.66 156.895 89.324 156.607 89.1C156.327 88.868 155.911 88.752 155.359 88.752H153.487V91.476Z" fill="#808283"/>
<rect x="172" y="76" width="59" height="32" rx="4" fill="#23252D"/>
<path d="M183.6 96.12C182.936 96.12 182.372 95.952 181.908 95.616C181.452 95.272 181.104 94.776 180.864 94.128C180.632 93.48 180.516 92.688 180.516 91.752C180.516 90.808 180.632 90.016 180.864 89.376C181.104 88.728 181.452 88.24 181.908 87.912C182.372 87.584 182.936 87.42 183.6 87.42C184.272 87.42 184.836 87.584 185.292 87.912C185.756 88.24 186.104 88.724 186.336 89.364C186.568 90.004 186.684 90.796 186.684 91.74C186.684 92.676 186.564 93.472 186.324 94.128C186.092 94.776 185.748 95.272 185.292 95.616C184.836 95.952 184.272 96.12 183.6 96.12ZM183.6 94.86C184.144 94.86 184.544 94.612 184.8 94.116C185.064 93.612 185.196 92.82 185.196 91.74C185.196 90.668 185.064 89.892 184.8 89.412C184.544 88.924 184.144 88.68 183.6 88.68C183.064 88.68 182.664 88.924 182.4 89.412C182.136 89.892 182.004 90.672 182.004 91.752C182.004 92.824 182.136 93.612 182.4 94.116C182.664 94.612 183.064 94.86 183.6 94.86ZM191.354 96V87.54H194.498C195.442 87.54 196.242 87.704 196.898 88.032C197.562 88.36 198.066 88.84 198.41 89.472C198.762 90.096 198.938 90.86 198.938 91.764C198.938 92.668 198.762 93.436 198.41 94.068C198.066 94.7 197.562 95.18 196.898 95.508C196.242 95.836 195.442 96 194.498 96H191.354ZM192.89 94.728H194.402C195.386 94.728 196.118 94.484 196.598 93.996C197.086 93.5 197.33 92.756 197.33 91.764C197.33 90.772 197.086 90.032 196.598 89.544C196.11 89.056 195.378 88.812 194.402 88.812H192.89V94.728ZM199.407 96L203.235 87.54H204.495L208.323 96H206.763L205.743 93.624L206.391 94.044H201.327L201.975 93.624L200.967 96H199.407ZM203.847 89.208L202.167 93.204L201.855 92.82H205.863L205.563 93.204L203.871 89.208H203.847ZM210.479 96V91.644L210.803 92.568L207.227 87.54H209.015L211.439 90.984H211.103L213.539 87.54H215.255L211.703 92.568L212.015 91.644V96H210.479ZM218.516 96.12C218.076 96.12 217.652 96.08 217.244 96C216.844 95.928 216.472 95.82 216.128 95.676C215.792 95.532 215.492 95.36 215.228 95.16L215.696 93.948C215.96 94.132 216.236 94.292 216.524 94.428C216.82 94.556 217.132 94.656 217.46 94.728C217.796 94.792 218.148 94.824 218.516 94.824C219.148 94.824 219.608 94.72 219.896 94.512C220.184 94.296 220.328 94.02 220.328 93.684C220.328 93.5 220.284 93.344 220.196 93.216C220.108 93.08 219.964 92.964 219.764 92.868C219.564 92.772 219.3 92.692 218.972 92.628L217.652 92.352C216.892 92.192 216.324 91.924 215.948 91.548C215.58 91.164 215.396 90.66 215.396 90.036C215.396 89.508 215.536 89.048 215.816 88.656C216.096 88.264 216.484 87.96 216.98 87.744C217.476 87.528 218.048 87.42 218.696 87.42C219.08 87.42 219.448 87.46 219.8 87.54C220.16 87.612 220.488 87.724 220.784 87.876C221.088 88.02 221.352 88.196 221.576 88.404L221.108 89.556C220.772 89.276 220.404 89.068 220.004 88.932C219.604 88.788 219.164 88.716 218.684 88.716C218.316 88.716 218 88.768 217.736 88.872C217.472 88.976 217.268 89.124 217.124 89.316C216.988 89.5 216.92 89.72 216.92 89.976C216.92 90.264 217.016 90.496 217.208 90.672C217.4 90.84 217.728 90.972 218.192 91.068L219.5 91.344C220.292 91.512 220.88 91.776 221.264 92.136C221.656 92.496 221.852 92.976 221.852 93.576C221.852 94.08 221.716 94.524 221.444 94.908C221.172 95.292 220.784 95.592 220.28 95.808C219.784 96.016 219.196 96.12 218.516 96.12Z" fill="#808283"/>
<rect x="450" y="76" width="62" height="32" rx="4" fill="#23252D"/>
<path d="M473 83.6665V85.3332M463 83.6665V85.3332" stroke="#808283" stroke-linecap="round" stroke-linejoin="round"/>
<path d="M467.998 92.8335H468.005M467.998 96.1668H468.005M471.327 92.8335H471.335M464.668 92.8335H464.675M464.668 96.1668H464.675" stroke="#808283" stroke-width="1.5" stroke-linecap="round" stroke-linejoin="round"/>
<path d="M460.918 88.6665H475.085" stroke="#808283" stroke-linecap="round" stroke-linejoin="round"/>
<path d="M460.082 92.2027C460.082 88.5716 460.082 86.7561 461.125 85.628C462.169 84.5 463.848 84.5 467.207 84.5H468.79C472.149 84.5 473.829 84.5 474.872 85.628C475.915 86.7561 475.915 88.5716 475.915 92.2027V92.6307C475.915 96.2618 475.915 98.0773 474.872 99.2053C473.829 100.333 472.149 100.333 468.79 100.333H467.207C463.848 100.333 462.169 100.333 461.125 99.2053C460.082 98.0773 460.082 96.2618 460.082 92.6307V92.2027Z" stroke="#808283" stroke-linecap="round" stroke-linejoin="round"/>
<path d="M460.5 88.6665H475.5" stroke="#808283" stroke-linecap="round" stroke-linejoin="round"/>
<path d="M487.308 96V94.728H489.216V88.836H489.96L487.74 90.18L487.14 89.052L489.66 87.54H490.752V94.728H492.54V96H487.308ZM494.143 96V87.54H495.427L498.619 93.432H498.235L501.415 87.54H502.675V96H501.283V89.82H501.547L498.859 94.716H497.959L495.247 89.808H495.535V96H494.143Z" fill="#808283"/>
<rect x="185" y="380" width="6" height="6" rx="3" fill="#6AA5FF"/>
<path d="M199.44 387.12C198.28 387.12 197.392 386.82 196.776 386.22C196.168 385.612 195.864 384.716 195.864 383.532V378.54H197.4V383.52C197.4 384.28 197.572 384.852 197.916 385.236C198.268 385.612 198.776 385.8 199.44 385.8C200.104 385.8 200.608 385.612 200.952 385.236C201.296 384.852 201.468 384.28 201.468 383.52V378.54H202.992V383.532C202.992 384.716 202.692 385.612 202.092 386.22C201.492 386.82 200.608 387.12 199.44 387.12ZM207.699 387.12C207.259 387.12 206.835 387.08 206.427 387C206.027 386.928 205.655 386.82 205.311 386.676C204.975 386.532 204.675 386.36 204.411 386.16L204.879 384.948C205.143 385.132 205.419 385.292 205.707 385.428C206.003 385.556 206.315 385.656 206.643 385.728C206.979 385.792 207.331 385.824 207.699 385.824C208.331 385.824 208.791 385.72 209.079 385.512C209.367 385.296 209.511 385.02 209.511 384.684C209.511 384.5 209.467 384.344 209.379 384.216C209.291 384.08 209.147 383.964 208.947 383.868C208.747 383.772 208.483 383.692 208.155 383.628L206.835 383.352C206.075 383.192 205.507 382.924 205.131 382.548C204.763 382.164 204.579 381.66 204.579 381.036C204.579 380.508 204.719 380.048 204.999 379.656C205.279 379.264 205.667 378.96 206.163 378.744C206.659 378.528 207.231 378.42 207.879 378.42C208.263 378.42 208.631 378.46 208.983 378.54C209.343 378.612 209.671 378.724 209.967 378.876C210.271 379.02 210.535 379.196 210.759 379.404L210.291 380.556C209.955 380.276 209.587 380.068 209.187 379.932C208.787 379.788 208.347 379.716 207.867 379.716C207.499 379.716 207.183 379.768 206.919 379.872C206.655 379.976 206.451 380.124 206.307 380.316C206.171 380.5 206.103 380.72 206.103 380.976C206.103 381.264 206.199 381.496 206.391 381.672C206.583 381.84 206.911 381.972 207.375 382.068L208.683 382.344C209.475 382.512 210.063 382.776 210.447 383.136C210.839 383.496 211.035 383.976 211.035 384.576C211.035 385.08 210.899 385.524 210.627 385.908C210.355 386.292 209.967 386.592 209.463 386.808C208.967 387.016 208.379 387.12 207.699 387.12ZM218.504 387.12C218.064 387.12 217.64 387.08 217.232 387C216.832 386.928 216.46 386.82 216.116 386.676C215.78 386.532 215.48 386.36 215.216 386.16L215.684 384.948C215.948 385.132 216.224 385.292 216.512 385.428C216.808 385.556 217.12 385.656 217.448 385.728C217.784 385.792 218.136 385.824 218.504 385.824C219.136 385.824 219.596 385.72 219.884 385.512C220.172 385.296 220.316 385.02 220.316 384.684C220.316 384.5 220.272 384.344 220.184 384.216C220.096 384.08 219.952 383.964 219.752 383.868C219.552 383.772 219.288 383.692 218.96 383.628L217.64 383.352C216.88 383.192 216.312 382.924 215.936 382.548C215.568 382.164 215.384 381.66 215.384 381.036C215.384 380.508 215.524 380.048 215.804 379.656C216.084 379.264 216.472 378.96 216.968 378.744C217.464 378.528 218.036 378.42 218.684 378.42C219.068 378.42 219.436 378.46 219.788 378.54C220.148 378.612 220.476 378.724 220.772 378.876C221.076 379.02 221.34 379.196 221.564 379.404L221.096 380.556C220.76 380.276 220.392 380.068 219.992 379.932C219.592 379.788 219.152 379.716 218.672 379.716C218.304 379.716 217.988 379.768 217.724 379.872C217.46 379.976 217.256 380.124 217.112 380.316C216.976 380.5 216.908 380.72 216.908 380.976C216.908 381.264 217.004 381.496 217.196 381.672C217.388 381.84 217.716 381.972 218.18 382.068L219.488 382.344C220.28 382.512 220.868 382.776 221.252 383.136C221.644 383.496 221.84 383.976 221.84 384.576C221.84 385.08 221.704 385.524 221.432 385.908C221.16 386.292 220.772 386.592 220.268 386.808C219.772 387.016 219.184 387.12 218.504 387.12ZM223.158 387V378.54H226.83C227.454 378.54 227.982 378.644 228.414 378.852C228.846 379.06 229.174 379.36 229.398 379.752C229.622 380.144 229.734 380.62 229.734 381.18C229.734 381.732 229.622 382.208 229.398 382.608C229.174 383 228.846 383.304 228.414 383.52C227.982 383.728 227.454 383.832 226.83 383.832H224.694V387H223.158ZM224.694 382.62H226.59C227.134 382.62 227.546 382.5 227.826 382.26C228.106 382.012 228.246 381.652 228.246 381.18C228.246 380.708 228.106 380.352 227.826 380.112C227.546 379.872 227.134 379.752 226.59 379.752H224.694V382.62ZM234.72 387.12C234.104 387.12 233.544 387.02 233.04 386.82C232.544 386.612 232.116 386.316 231.756 385.932C231.404 385.548 231.132 385.088 230.94 384.552C230.748 384.016 230.652 383.42 230.652 382.764C230.652 382.1 230.748 381.504 230.94 380.976C231.132 380.44 231.404 379.984 231.756 379.608C232.116 379.224 232.544 378.932 233.04 378.732C233.544 378.524 234.104 378.42 234.72 378.42C235.336 378.42 235.892 378.524 236.388 378.732C236.892 378.932 237.32 379.22 237.672 379.596C238.032 379.972 238.308 380.428 238.5 380.964C238.692 381.492 238.788 382.088 238.788 382.752C238.788 383.416 238.692 384.016 238.5 384.552C238.308 385.088 238.032 385.548 237.672 385.932C237.32 386.316 236.892 386.612 236.388 386.82C235.892 387.02 235.336 387.12 234.72 387.12ZM234.72 385.8C235.24 385.8 235.68 385.68 236.04 385.44C236.408 385.2 236.688 384.852 236.88 384.396C237.08 383.94 237.18 383.396 237.18 382.764C237.18 382.124 237.084 381.58 236.892 381.132C236.7 380.676 236.42 380.332 236.052 380.1C235.684 379.86 235.24 379.74 234.72 379.74C234.208 379.74 233.768 379.86 233.4 380.1C233.032 380.332 232.748 380.676 232.548 381.132C232.356 381.58 232.26 382.124 232.26 382.764C232.26 383.396 232.356 383.94 232.548 384.396C232.748 384.852 233.032 385.2 233.4 385.44C233.768 385.68 234.208 385.8 234.72 385.8ZM241.874 387V379.824H238.97V378.54H246.314V379.824H243.41V387H241.874ZM250.522 387V378.54H256.15V379.764H251.998V382.092H255.886V383.316H251.998V385.776H256.15V387H250.522ZM259.663 387V379.824H256.759V378.54H264.103V379.824H261.199V387H259.663ZM265.076 387V378.54H270.608V379.764H266.612V382.152H270.356V383.376H266.612V387H265.076ZM275.049 387V378.54H276.201L281.061 384.852H280.749V378.54H282.177V387H281.037L276.177 380.676H276.477V387H275.049ZM284.026 387V378.54H289.654V379.764H285.502V382.092H289.39V383.316H285.502V385.776H289.654V387H284.026ZM293.167 387V379.824H290.263V378.54H297.607V379.824H294.703V387H293.167ZM301.815 387V378.54H307.347V379.764H303.351V382.152H307.095V383.376H303.351V387H301.815ZM308.553 387V378.54H310.089V385.692H314.145V387H308.553ZM318.626 387.12C318.01 387.12 317.45 387.02 316.946 386.82C316.45 386.612 316.022 386.316 315.662 385.932C315.31 385.548 315.038 385.088 314.846 384.552C314.654 384.016 314.558 383.42 314.558 382.764C314.558 382.1 314.654 381.504 314.846 380.976C315.038 380.44 315.31 379.984 315.662 379.608C316.022 379.224 316.45 378.932 316.946 378.732C317.45 378.524 318.01 378.42 318.626 378.42C319.242 378.42 319.798 378.524 320.294 378.732C320.798 378.932 321.226 379.22 321.578 379.596C321.938 379.972 322.214 380.428 322.406 380.964C322.598 381.492 322.694 382.088 322.694 382.752C322.694 383.416 322.598 384.016 322.406 384.552C322.214 385.088 321.938 385.548 321.578 385.932C321.226 386.316 320.798 386.612 320.294 386.82C319.798 387.02 319.242 387.12 318.626 387.12ZM318.626 385.8C319.146 385.8 319.586 385.68 319.946 385.44C320.314 385.2 320.594 384.852 320.786 384.396C320.986 383.94 321.086 383.396 321.086 382.764C321.086 382.124 320.99 381.58 320.798 381.132C320.606 380.676 320.326 380.332 319.958 380.1C319.59 379.86 319.146 379.74 318.626 379.74C318.114 379.74 317.674 379.86 317.306 380.1C316.938 380.332 316.654 380.676 316.454 381.132C316.262 381.58 316.166 382.124 316.166 382.764C316.166 383.396 316.262 383.94 316.454 384.396C316.654 384.852 316.938 385.2 317.306 385.44C317.674 385.68 318.114 385.8 318.626 385.8ZM326.373 387L323.385 378.54H324.969L327.309 385.476H326.829L329.277 378.54H330.417L332.781 385.476H332.361L334.737 378.54H336.237L333.225 387H331.953L329.673 380.496H329.949L327.645 387H326.373ZM340.168 387.12C339.728 387.12 339.304 387.08 338.896 387C338.496 386.928 338.124 386.82 337.78 386.676C337.444 386.532 337.144 386.36 336.88 386.16L337.348 384.948C337.612 385.132 337.888 385.292 338.176 385.428C338.472 385.556 338.784 385.656 339.112 385.728C339.448 385.792 339.8 385.824 340.168 385.824C340.8 385.824 341.26 385.72 341.548 385.512C341.836 385.296 341.98 385.02 341.98 384.684C341.98 384.5 341.936 384.344 341.848 384.216C341.76 384.08 341.616 383.964 341.416 383.868C341.216 383.772 340.952 383.692 340.624 383.628L339.304 383.352C338.544 383.192 337.976 382.924 337.6 382.548C337.232 382.164 337.048 381.66 337.048 381.036C337.048 380.508 337.188 380.048 337.468 379.656C337.748 379.264 338.136 378.96 338.632 378.744C339.128 378.528 339.7 378.42 340.348 378.42C340.732 378.42 341.1 378.46 341.452 378.54C341.812 378.612 342.14 378.724 342.436 378.876C342.74 379.02 343.004 379.196 343.228 379.404L342.76 380.556C342.424 380.276 342.056 380.068 341.656 379.932C341.256 379.788 340.816 379.716 340.336 379.716C339.968 379.716 339.652 379.768 339.388 379.872C339.124 379.976 338.92 380.124 338.776 380.316C338.64 380.5 338.572 380.72 338.572 380.976C338.572 381.264 338.668 381.496 338.86 381.672C339.052 381.84 339.38 381.972 339.844 382.068L341.152 382.344C341.944 382.512 342.532 382.776 342.916 383.136C343.308 383.496 343.504 383.976 343.504 384.576C343.504 385.08 343.368 385.524 343.096 385.908C342.824 386.292 342.436 386.592 341.932 386.808C341.436 387.016 340.848 387.12 340.168 387.12Z" fill="#808283"/>
<path d="M60 185C60 182.791 61.7909 181 64 181H67.4872C69.6963 181 71.4872 182.791 71.4872 185V211H60V185Z" fill="url(#paint0_linear_2198_8520)"/>
<path d="M288.922 185C288.922 182.791 290.713 181 292.922 181H296.409C298.618 181 300.409 182.791 300.409 185V211H288.922V185Z" fill="url(#paint1_linear_2198_8520)"/>
<path d="M78.0508 194C78.0508 191.791 79.8416 190 82.0508 190H86.3585C88.5676 190 90.3585 191.791 90.3585 194V211H78.0508V194Z" fill="url(#paint2_linear_2198_8520)"/>
<path d="M306.973 194C306.973 191.791 308.764 190 310.973 190H315.28C317.489 190 319.28 191.791 319.28 194V211H306.973V194Z" fill="url(#paint3_linear_2198_8520)"/>
<path d="M97.7422 224C97.7422 226.209 99.533 228 101.742 228H106.05C108.259 228 110.05 226.209 110.05 224V213H97.7422V224Z" fill="url(#paint4_linear_2198_8520)"/>
<path d="M326.668 224C326.668 226.209 328.459 228 330.668 228H334.976C337.185 228 338.976 226.209 338.976 224V213H326.668V224Z" fill="url(#paint5_linear_2198_8520)"/>
<path d="M116.617 207C116.617 204.791 118.408 203 120.617 203H124.925C127.134 203 128.925 204.791 128.925 207V211H116.617V207Z" fill="url(#paint6_linear_2198_8520)"/>
<path d="M345.539 207C345.539 204.791 347.33 203 349.539 203H353.847C356.056 203 357.847 204.791 357.847 207V211H345.539V207Z" fill="url(#paint7_linear_2198_8520)"/>
<path d="M135.488 225C135.488 227.209 137.279 229 139.488 229H143.796C146.005 229 147.796 227.209 147.796 225V213H135.488V225Z" fill="url(#paint8_linear_2198_8520)"/>
<path d="M364.41 225C364.41 227.209 366.201 229 368.41 229H372.718C374.927 229 376.718 227.209 376.718 225V213H364.41V225Z" fill="url(#paint9_linear_2198_8520)"/>
<path d="M154.359 208C154.359 205.791 156.15 204 158.359 204H162.667C164.876 204 166.667 205.791 166.667 208V211H154.359V208Z" fill="url(#paint10_linear_2198_8520)"/>
<path d="M383.281 208C383.281 205.791 385.072 204 387.281 204H391.589C393.798 204 395.589 205.791 395.589 208V211H383.281V208Z" fill="url(#paint11_linear_2198_8520)"/>
<path d="M172.41 211C172.41 209.343 173.753 208 175.41 208H181.718C183.375 208 184.718 209.343 184.718 211H172.41Z" fill="url(#paint12_linear_2198_8520)"/>
<path d="M401.332 211C401.332 209.343 402.675 208 404.332 208H410.64C412.297 208 413.64 209.343 413.64 211H401.332Z" fill="url(#paint13_linear_2198_8520)"/>
<path d="M191.281 196C191.281 193.791 193.072 192 195.281 192H199.589C201.798 192 203.589 193.791 203.589 196V211H191.281V196Z" fill="url(#paint14_linear_2198_8520)"/>
<path d="M420.207 196C420.207 193.791 421.998 192 424.207 192H428.515C430.724 192 432.515 193.791 432.515 196V211H420.207V196Z" fill="url(#paint15_linear_2198_8520)"/>
<path d="M210.152 211C210.152 209.895 211.048 209 212.152 209H220.46C221.565 209 222.46 209.895 222.46 211H210.152Z" fill="url(#paint16_linear_2198_8520)"/>
<path d="M439.078 211C439.078 209.895 439.974 209 441.078 209H449.386C450.49 209 451.386 209.895 451.386 211H439.078Z" fill="url(#paint17_linear_2198_8520)"/>
<path d="M229.027 139C229.027 136.791 230.818 135 233.027 135H237.335C239.544 135 241.335 136.791 241.335 139V211H229.027V139Z" fill="url(#paint18_linear_2198_8520)"/>
<path d="M457.949 139C457.949 136.791 459.74 135 461.949 135H466.257C468.466 135 470.257 136.791 470.257 139V211H457.949V139Z" fill="url(#paint19_linear_2198_8520)"/>
<path d="M247.898 195C247.898 192.791 249.689 191 251.898 191H256.206C258.415 191 260.206 192.791 260.206 195V211H247.898V195Z" fill="url(#paint20_linear_2198_8520)"/>
<path d="M476.82 195C476.82 192.791 478.611 191 480.82 191H485.128C487.337 191 489.128 192.791 489.128 195V211H476.82V195Z" fill="url(#paint21_linear_2198_8520)"/>
<path d="M267.59 260C267.59 262.209 269.381 264 271.59 264H275.077C277.286 264 279.077 262.209 279.077 260V213H267.59V260Z" fill="url(#paint22_linear_2198_8520)"/>
<path d="M496.512 260C496.512 262.209 498.303 264 500.512 264H503.999C506.208 264 507.999 262.209 507.999 260V213H496.512V260Z" fill="url(#paint23_linear_2198_8520)"/>
<defs>
<linearGradient id="paint0_linear_2198_8520" x1="65.7436" y1="211" x2="65.7436" y2="181" gradientUnits="userSpaceOnUse">
<stop stop-color="#181A20"/>
<stop offset="1" stop-color="#A06AFF"/>
</linearGradient>
<linearGradient id="paint1_linear_2198_8520" x1="294.665" y1="211" x2="294.665" y2="181" gradientUnits="userSpaceOnUse">
<stop stop-color="#181A20"/>
<stop offset="1" stop-color="#A06AFF"/>
</linearGradient>
<linearGradient id="paint2_linear_2198_8520" x1="84.2046" y1="211" x2="84.2046" y2="190" gradientUnits="userSpaceOnUse">
<stop stop-color="#181A20"/>
<stop offset="1" stop-color="#A06AFF"/>
</linearGradient>
<linearGradient id="paint3_linear_2198_8520" x1="313.127" y1="211" x2="313.127" y2="190" gradientUnits="userSpaceOnUse">
<stop stop-color="#181A20"/>
<stop offset="1" stop-color="#A06AFF"/>
</linearGradient>
<linearGradient id="paint4_linear_2198_8520" x1="103.896" y1="213" x2="103.896" y2="228" gradientUnits="userSpaceOnUse">
<stop stop-color="#181A20"/>
<stop offset="1" stop-color="#FFA800"/>
</linearGradient>
<linearGradient id="paint5_linear_2198_8520" x1="332.822" y1="213" x2="332.822" y2="228" gradientUnits="userSpaceOnUse">
<stop stop-color="#181A20"/>
<stop offset="1" stop-color="#FFA800"/>
</linearGradient>
<linearGradient id="paint6_linear_2198_8520" x1="122.771" y1="211" x2="122.771" y2="203" gradientUnits="userSpaceOnUse">
<stop stop-color="#181A20"/>
<stop offset="1" stop-color="#A06AFF"/>
</linearGradient>
<linearGradient id="paint7_linear_2198_8520" x1="351.693" y1="211" x2="351.693" y2="203" gradientUnits="userSpaceOnUse">
<stop stop-color="#181A20"/>
<stop offset="1" stop-color="#A06AFF"/>
</linearGradient>
<linearGradient id="paint8_linear_2198_8520" x1="141.642" y1="213" x2="141.642" y2="229" gradientUnits="userSpaceOnUse">
<stop stop-color="#181A20"/>
<stop offset="1" stop-color="#FFA800"/>
</linearGradient>
<linearGradient id="paint9_linear_2198_8520" x1="370.564" y1="213" x2="370.564" y2="229" gradientUnits="userSpaceOnUse">
<stop stop-color="#181A20"/>
<stop offset="1" stop-color="#FFA800"/>
</linearGradient>
<linearGradient id="paint10_linear_2198_8520" x1="160.513" y1="211" x2="160.513" y2="204" gradientUnits="userSpaceOnUse">
<stop stop-color="#181A20"/>
<stop offset="1" stop-color="#A06AFF"/>
</linearGradient>
<linearGradient id="paint11_linear_2198_8520" x1="389.435" y1="211" x2="389.435" y2="204" gradientUnits="userSpaceOnUse">
<stop stop-color="#181A20"/>
<stop offset="1" stop-color="#A06AFF"/>
</linearGradient>
<linearGradient id="paint12_linear_2198_8520" x1="178.564" y1="211" x2="178.564" y2="208" gradientUnits="userSpaceOnUse">
<stop stop-color="#181A20"/>
<stop offset="1" stop-color="#A06AFF"/>
</linearGradient>
<linearGradient id="paint13_linear_2198_8520" x1="407.486" y1="211" x2="407.486" y2="208" gradientUnits="userSpaceOnUse">
<stop stop-color="#181A20"/>
<stop offset="1" stop-color="#A06AFF"/>
</linearGradient>
<linearGradient id="paint14_linear_2198_8520" x1="197.435" y1="211" x2="197.435" y2="192" gradientUnits="userSpaceOnUse">
<stop stop-color="#181A20"/>
<stop offset="1" stop-color="#A06AFF"/>
</linearGradient>
<linearGradient id="paint15_linear_2198_8520" x1="426.361" y1="211" x2="426.361" y2="192" gradientUnits="userSpaceOnUse">
<stop stop-color="#181A20"/>
<stop offset="1" stop-color="#A06AFF"/>
</linearGradient>
<linearGradient id="paint16_linear_2198_8520" x1="216.306" y1="211" x2="216.306" y2="209" gradientUnits="userSpaceOnUse">
<stop stop-color="#181A20"/>
<stop offset="1" stop-color="#A06AFF"/>
</linearGradient>
<linearGradient id="paint17_linear_2198_8520" x1="445.232" y1="211" x2="445.232" y2="209" gradientUnits="userSpaceOnUse">
<stop stop-color="#181A20"/>
<stop offset="1" stop-color="#A06AFF"/>
</linearGradient>
<linearGradient id="paint18_linear_2198_8520" x1="235.181" y1="211" x2="235.181" y2="135" gradientUnits="userSpaceOnUse">
<stop stop-color="#181A20"/>
<stop offset="1" stop-color="#A06AFF"/>
</linearGradient>
<linearGradient id="paint19_linear_2198_8520" x1="464.103" y1="211" x2="464.103" y2="135" gradientUnits="userSpaceOnUse">
<stop stop-color="#181A20"/>
<stop offset="1" stop-color="#A06AFF"/>
</linearGradient>
<linearGradient id="paint20_linear_2198_8520" x1="254.052" y1="211" x2="254.052" y2="191" gradientUnits="userSpaceOnUse">
<stop stop-color="#181A20"/>
<stop offset="1" stop-color="#A06AFF"/>
</linearGradient>
<linearGradient id="paint21_linear_2198_8520" x1="482.974" y1="211" x2="482.974" y2="191" gradientUnits="userSpaceOnUse">
<stop stop-color="#181A20"/>
<stop offset="1" stop-color="#A06AFF"/>
</linearGradient>
<linearGradient id="paint22_linear_2198_8520" x1="273.333" y1="213" x2="273.333" y2="264" gradientUnits="userSpaceOnUse">
<stop stop-color="#181A20"/>
<stop offset="1" stop-color="#FFA800"/>
</linearGradient>
<linearGradient id="paint23_linear_2198_8520" x1="502.255" y1="213" x2="502.255" y2="264" gradientUnits="userSpaceOnUse">
<stop stop-color="#181A20"/>
<stop offset="1" stop-color="#FFA800"/>
</linearGradient>
</defs>
</svg>
