<svg width="16" height="16" viewBox="0 0 16 16" fill="none" xmlns="http://www.w3.org/2000/svg">
<g clip-path="url(#clip0_92_4827)">
<path d="M4.66699 11.3333V8.66663" stroke="white" stroke-width="1.5" stroke-linecap="round"/>
<path d="M8 11.3333V4.66663" stroke="white" stroke-width="1.5" stroke-linecap="round"/>
<path d="M11.333 11.3334V7.33337" stroke="white" stroke-width="1.5" stroke-linecap="round"/>
<path d="M1.66699 7.99996C1.66699 5.0144 1.66699 3.52162 2.59449 2.59412C3.52199 1.66663 5.01477 1.66663 8.00033 1.66663C10.9859 1.66663 12.4787 1.66663 13.4062 2.59412C14.3337 3.52162 14.3337 5.0144 14.3337 7.99996C14.3337 10.9855 14.3337 12.4783 13.4062 13.4058C12.4787 14.3333 10.9859 14.3333 8.00033 14.3333C5.01477 14.3333 3.52199 14.3333 2.59449 13.4058C1.66699 12.4783 1.66699 10.9855 1.66699 7.99996Z" stroke="white" stroke-width="1.5" stroke-linejoin="round"/>
</g>
<defs>
<clipPath id="clip0_92_4827">
<rect width="16" height="16" fill="white"/>
</clipPath>
</defs>
</svg>
