<svg width="144" height="144" viewBox="0 0 144 144" fill="none" xmlns="http://www.w3.org/2000/svg">
<rect x="1" y="1" width="142" height="142" rx="71" stroke="url(#paint0_linear_2101_2123)" stroke-width="2"/>
<path d="M94.5456 63.5456C92.3046 52.3139 81.8999 43.8184 69.4055 43.8184C55.2756 43.8184 43.8184 54.683 43.8184 68.0829C43.8184 74.5213 46.4623 80.3713 50.7752 84.7124C51.7247 85.6684 52.3587 86.9743 52.1029 88.3183C51.6806 90.5159 50.7236 92.5659 49.3224 94.2742C53.0091 94.954 56.8425 94.3419 60.13 92.6087C61.2922 91.9963 61.8732 91.69 62.2833 91.6277C62.5703 91.5843 62.9442 91.6249 63.5456 91.728" stroke="#808283" stroke-width="4.22727" stroke-linecap="round" stroke-linejoin="round"/>
<path d="M69.1816 84.0101C69.1816 92.1989 76.1223 98.8385 84.6816 98.8385C85.688 98.8396 86.6916 98.7466 87.6802 98.5612C88.3918 98.4273 88.7477 98.3605 88.996 98.3986C89.2443 98.4363 89.5965 98.6237 90.3005 98.998C92.2919 100.057 94.614 100.431 96.8474 100.016C95.9986 98.9718 95.4189 97.7191 95.163 96.376C95.008 95.5547 95.3921 94.7566 95.9673 94.1724C98.5801 91.5194 100.182 87.9445 100.182 84.0101C100.182 75.8213 93.241 69.1816 84.6816 69.1816C76.1223 69.1816 69.1816 75.8213 69.1816 84.0101Z" stroke="#808283" stroke-width="4.22727" stroke-linejoin="round"/>
<defs>
<linearGradient id="paint0_linear_2101_2123" x1="72" y1="144" x2="72" y2="0" gradientUnits="userSpaceOnUse">
<stop stop-color="#181A20"/>
<stop offset="1" stop-color="#A06AFF"/>
</linearGradient>
</defs>
</svg>
