<svg width="25" height="24" viewBox="0 0 25 24" fill="none" xmlns="http://www.w3.org/2000/svg">
    <g>
        <path d="M16 12C16 13.933 14.433 15.5 12.5 15.5C10.567 15.5 9 13.933 9 12C9 10.067 10.567 8.5 12.5 8.5C14.433 8.5 16 10.067 16 12Z"
              stroke="currentColor" stroke-width="1.5"/>
        <path d="M21.511 14.0964C22.0329 13.9557 22.2939 13.8853 22.3969 13.7507C22.5 13.6162 22.5 13.3997 22.5 12.9668V11.0331C22.5 10.6002 22.5 10.3837 22.3969 10.2492C22.2938 10.1146 22.0329 10.0442 21.511 9.90352C19.5606 9.37753 18.3399 7.33845 18.8433 5.40081C18.9817 4.86793 19.0509 4.6015 18.9848 4.44523C18.9187 4.28896 18.7291 4.18128 18.3497 3.9659L16.625 2.98667C16.2528 2.77533 16.0667 2.66966 15.8997 2.69216C15.7326 2.71466 15.5442 2.90267 15.1672 3.27867C13.708 4.73442 11.2936 4.73436 9.83434 3.27858C9.45743 2.90257 9.26898 2.71457 9.10193 2.69206C8.93489 2.66956 8.74877 2.77523 8.37653 2.98657L6.65184 3.96581C6.27253 4.18117 6.08287 4.28885 6.01678 4.44509C5.95068 4.60134 6.01987 4.86781 6.15825 5.40074C6.66137 7.33844 5.43972 9.37757 3.48902 9.90354C2.96712 10.0442 2.70617 10.1146 2.60308 10.2491C2.5 10.3837 2.5 10.6002 2.5 11.0331V12.9668C2.5 13.3997 2.5 13.6162 2.60308 13.7507C2.70615 13.8853 2.96711 13.9557 3.48902 14.0964C5.4394 14.6224 6.66008 16.6615 6.15672 18.5991C6.01829 19.132 5.94907 19.3984 6.01516 19.5547C6.08126 19.711 6.27092 19.8187 6.65025 20.034L8.37495 21.0133C8.74721 21.2246 8.93334 21.3303 9.1004 21.3078C9.26746 21.2853 9.45588 21.0972 9.83271 20.7212C11.2927 19.2643 13.7088 19.2642 15.1689 20.7211C15.5457 21.0972 15.7341 21.2852 15.9012 21.3077C16.0682 21.3302 16.2544 21.2245 16.6266 21.0132L18.3513 20.0339C18.7307 19.8186 18.9204 19.7109 18.9864 19.5546C19.0525 19.3983 18.9833 19.1319 18.8448 18.599C18.3412 16.6615 19.5609 14.6225 21.511 14.0964Z"
              stroke="currentColor" stroke-width="1.5" stroke-linecap="round"/>
    </g>
</svg>
