<svg width="40" height="40" viewBox="0 0 40 40" fill="none" xmlns="http://www.w3.org/2000/svg">
<path d="M20.834 5.0062C19.3421 4.98398 17.8418 5.02148 16.383 5.11845C9.4113 5.58188 3.858 11.214 3.40105 18.2845C3.31163 19.6682 3.31163 21.1012 3.40105 22.4848C3.56748 25.06 4.70636 27.4443 6.04716 29.4577C6.82566 30.8672 6.31188 32.6263 5.501 34.163C4.91633 35.271 4.624 35.825 4.85871 36.2252C5.09345 36.6253 5.61775 36.6382 6.66636 36.6637C8.7401 36.7142 10.1384 36.1262 11.2484 35.3077C11.878 34.8435 12.1928 34.6113 12.4097 34.5847C12.6266 34.558 13.0536 34.7338 13.9073 35.0855C14.6746 35.4015 15.5656 35.5965 16.383 35.6508C18.7566 35.8087 21.2398 35.809 23.6183 35.6508C30.59 35.1875 36.1433 29.5553 36.6003 22.4848C36.6708 21.3933 36.6856 20.2712 36.645 19.1667" stroke="white" stroke-width="1.5" stroke-linecap="round" stroke-linejoin="round"/>
<path d="M26.666 3.3335L36.6662 13.3335M26.666 13.3335L36.6662 3.3335" stroke="white" stroke-width="1.5" stroke-linecap="round" stroke-linejoin="round"/>
<path d="M14.166 24.9998H25.8327M14.166 16.6665H19.9993" stroke="white" stroke-width="1.5" stroke-linecap="round" stroke-linejoin="round"/>
</svg>
