<svg width="40" height="40" viewBox="0 0 40 40" fill="none" xmlns="http://www.w3.org/2000/svg">
<path d="M4.21637 24.6157C3.86196 26.939 5.44651 28.5517 7.38659 29.3553C14.8245 32.4367 25.1752 32.4367 32.613 29.3553C34.5532 28.5517 36.1377 26.939 35.7833 24.6157C35.5655 23.1878 34.4885 21.9988 33.6905 20.8378C32.6453 19.2985 32.5415 17.6193 32.5413 15.833C32.5413 8.92944 26.9263 3.33301 19.9998 3.33301C13.0734 3.33301 7.45839 8.92944 7.45839 15.833C7.45822 17.6193 7.35437 19.2985 6.30919 20.8378C5.51124 21.9988 4.43419 23.1878 4.21637 24.6157Z" stroke="white" stroke-width="1.5" stroke-linecap="round" stroke-linejoin="round"/>
<path d="M13.3335 31.667C14.0976 34.5423 16.7927 36.667 20.0002 36.667C23.2077 36.667 25.9027 34.5423 26.6668 31.667" stroke="white" stroke-width="1.5" stroke-linecap="round" stroke-linejoin="round"/>
</svg>
