<svg width="20" height="20" viewBox="0 0 20 20" fill="none" xmlns="http://www.w3.org/2000/svg">
<circle cx="10" cy="10" r="10" fill="#CD6AFF"/>
<g clip-path="url(#clip0_2305_12832)">
<path d="M15.7845 9.12499C15.7953 9.21576 15.8037 9.30734 15.8097 9.39956C15.841 9.88385 15.841 10.3854 15.8097 10.8697C15.6498 13.3444 13.7061 15.3156 11.266 15.4778C10.4336 15.5331 9.56445 15.533 8.73365 15.4778C8.44756 15.4588 8.13574 15.3905 7.86717 15.2799C7.56837 15.1568 7.41894 15.0953 7.34301 15.1046C7.26708 15.114 7.1569 15.1952 6.93657 15.3577C6.54807 15.6441 6.05864 15.8499 5.33284 15.8323C4.96582 15.8233 4.78232 15.8189 4.70016 15.6788C4.61801 15.5387 4.72032 15.3448 4.92496 14.957C5.20877 14.4192 5.38859 13.8035 5.11612 13.3102C4.64684 12.6055 4.24823 11.771 4.18998 10.8697C4.15868 10.3854 4.15868 9.88385 4.18998 9.39956C4.34991 6.92489 6.29356 4.95366 8.73365 4.79146C9.43507 4.74483 10.1639 4.73749 10.8749 4.76965" stroke="white" stroke-width="1.5" stroke-linecap="round" stroke-linejoin="round"/>
<path d="M7.9585 11.7502H12.0418M7.9585 8.8335H9.41685" stroke="white" stroke-width="1.5" stroke-linecap="round" stroke-linejoin="round"/>
<path d="M15.1731 4.42278L15.577 4.82667C15.9187 5.16837 15.9187 5.72239 15.577 6.0641L13.461 8.2199C13.2945 8.38636 13.0816 8.49857 12.8502 8.54179L11.5388 8.82648C11.3318 8.87142 11.1474 8.68758 11.1917 8.4804L11.4708 7.17646C11.5141 6.94506 11.6263 6.73214 11.7927 6.56569L13.9356 4.42278C14.2774 4.08108 14.8314 4.08108 15.1731 4.42278Z" stroke="white" stroke-width="1.5" stroke-linecap="round" stroke-linejoin="round"/>
</g>
<defs>
<clipPath id="clip0_2305_12832">
<rect width="14" height="14" fill="white" transform="translate(3 3)"/>
</clipPath>
</defs>
</svg>
