<svg width="9" height="15" viewBox="0 0 9 15" fill="none" xmlns="http://www.w3.org/2000/svg">
<path d="M3.9 14.725V12.76L4.245 13.09C3.515 13.07 2.825 12.96 2.175 12.76C1.535 12.55 0.98 12.26 0.51 11.89L1.095 10.375C1.405 10.605 1.735 10.805 2.085 10.975C2.445 11.135 2.82 11.26 3.21 11.35C3.61 11.43 4.035 11.47 4.485 11.47C5.215 11.47 5.75 11.34 6.09 11.08C6.43 10.82 6.6 10.495 6.6 10.105C6.6 9.755 6.485 9.475 6.255 9.265C6.025 9.055 5.615 8.885 5.025 8.755L3.435 8.41C2.535 8.21 1.855 7.88 1.395 7.42C0.945 6.95 0.72 6.33 0.72 5.56C0.72 4.97 0.865 4.445 1.155 3.985C1.445 3.515 1.85 3.14 2.37 2.86C2.89 2.58 3.5 2.415 4.2 2.365L3.9 2.59V0.699999H5.4V2.59L5.085 2.35C5.655 2.38 6.215 2.495 6.765 2.695C7.325 2.895 7.79 3.185 8.16 3.565L7.59 5.005C7.21 4.655 6.775 4.395 6.285 4.225C5.795 4.045 5.26 3.955 4.68 3.955C4.06 3.955 3.56 4.1 3.18 4.39C2.81 4.67 2.625 5.04 2.625 5.5C2.625 5.84 2.74 6.115 2.97 6.325C3.2 6.535 3.57 6.695 4.08 6.805L5.67 7.15C6.63 7.36 7.34 7.695 7.8 8.155C8.27 8.605 8.505 9.205 8.505 9.955C8.505 10.535 8.36 11.05 8.07 11.5C7.78 11.94 7.38 12.295 6.87 12.565C6.37 12.825 5.785 12.99 5.115 13.06L5.4 12.745V14.725H3.9Z" fill="#808283"/>
</svg>
