<svg width="16" height="16" viewBox="0 0 16 16" fill="none" xmlns="http://www.w3.org/2000/svg">
<path d="M12.667 6.41371C12.667 8.13319 11.8205 9.45672 10.5325 10.3277C10.2325 10.5306 10.0825 10.6321 10.0085 10.7474C9.93446 10.8627 9.90919 11.0142 9.85873 11.3171L9.81946 11.5525C9.73079 12.0846 9.68646 12.3506 9.49993 12.5086C9.31346 12.6666 9.04373 12.6666 8.50426 12.6666H6.76326C6.22385 12.6666 5.95412 12.6666 5.76763 12.5086C5.58113 12.3506 5.53679 12.0846 5.4481 11.5525L5.40887 11.3171C5.35855 11.0152 5.3334 10.8643 5.26011 10.7495C5.18683 10.6347 5.03651 10.5319 4.73587 10.3264C3.46159 9.45539 2.66699 8.13232 2.66699 6.41371C2.66699 3.60785 4.90557 1.33325 7.66699 1.33325C8.00946 1.33325 8.34386 1.36824 8.66699 1.43488" stroke="white" stroke-width="1.5" stroke-linecap="round" stroke-linejoin="round"/>
<path d="M11.0003 1.33325L11.1723 1.79794C11.3977 2.40727 11.5105 2.71193 11.7327 2.93418C11.955 3.15643 12.2597 3.26917 12.869 3.49464L13.3337 3.66659L12.869 3.83853C12.2597 4.064 11.955 4.17675 11.7327 4.39899C11.5105 4.62124 11.3977 4.92591 11.1723 5.53523L11.0003 5.99992L10.8284 5.53523C10.6029 4.92591 10.4902 4.62124 10.2679 4.39899C10.0457 4.17675 9.74099 4.064 9.13166 3.83853L8.66699 3.66659L9.13166 3.49464C9.74099 3.26917 10.0457 3.15643 10.2679 2.93418C10.4902 2.71193 10.6029 2.40727 10.8284 1.79794L11.0003 1.33325Z" stroke="white" stroke-width="1.5" stroke-linejoin="round"/>
<path d="M8.99967 12.6667V13.3334C8.99967 13.9619 8.99967 14.2762 8.80441 14.4715C8.60914 14.6667 8.29487 14.6667 7.66634 14.6667C7.03781 14.6667 6.72354 14.6667 6.52827 14.4715C6.33301 14.2762 6.33301 13.9619 6.33301 13.3334V12.6667" stroke="white" stroke-width="1.5" stroke-linejoin="round"/>
</svg>
