<svg width="40" height="40" viewBox="0 0 40 40" fill="none" xmlns="http://www.w3.org/2000/svg">
<g opacity="0.48">
<path d="M20 27.5001V24.1667" stroke="white" stroke-width="1.5" stroke-linecap="round"/>
<path d="M7.11285 31.4078C7.48765 34.1917 9.79339 36.3725 12.5993 36.5015C14.9603 36.61 17.3587 36.6667 19.9999 36.6667C22.641 36.6667 25.0394 36.61 27.4004 36.5015C30.2064 36.3725 32.512 34.1917 32.8869 31.4078C33.1314 29.5912 33.3332 27.7293 33.3332 25.8333C33.3332 23.9373 33.1314 22.0755 32.8869 20.2588C32.512 17.475 30.2064 15.2941 27.4004 15.1651C25.0394 15.0566 22.641 15 19.9999 15C17.3587 15 14.9603 15.0566 12.5993 15.1651C9.79339 15.2941 7.48765 17.475 7.11285 20.2588C6.86825 22.0755 6.6665 23.9373 6.6665 25.8333C6.6665 27.7293 6.86825 29.5912 7.11285 31.4078Z" stroke="white" stroke-width="1.5"/>
<path d="M12.5 14.9999V10.8333C12.5 6.69112 15.8579 3.33325 20 3.33325C24.1422 3.33325 27.5 6.69112 27.5 10.8333V14.9999" stroke="white" stroke-width="1.5" stroke-linecap="round" stroke-linejoin="round"/>
</g>
</svg>
