<svg width="32" height="32" viewBox="0 0 32 32" fill="none" xmlns="http://www.w3.org/2000/svg">
<g opacity="0.48">
<path d="M9.33268 8.00098C7.70516 8.00586 6.80445 8.04479 6.06432 8.35544C5.02761 8.79058 4.18336 9.59435 3.69016 10.6158C3.28758 11.4495 3.22172 12.5176 3.08996 14.654L2.8835 18.0016C2.55586 23.3141 2.39204 25.9704 3.95093 27.652C5.50981 29.3336 8.13605 29.3336 13.3886 29.3336H18.6102C23.8627 29.3336 26.4888 29.3336 28.0478 27.652C29.6067 25.9704 29.4428 23.3141 29.1152 18.0016L28.9087 14.654C28.777 12.5176 28.7111 11.4495 28.3086 10.6158C27.8154 9.59435 26.9711 8.79058 25.9344 8.35544C25.1943 8.04479 24.2935 8.00586 22.666 8.00098" stroke="white" stroke-width="1.5" stroke-linecap="round"/>
<path d="M22.6673 9.33366L21.4863 6.3809C20.9767 5.10694 20.5332 3.66179 19.2228 3.01306C18.5239 2.66699 17.6828 2.66699 16.0007 2.66699C14.3185 2.66699 13.4775 2.66699 12.7785 3.01306C11.4681 3.66179 11.0247 5.10694 10.5151 6.3809L9.33398 9.33366" stroke="white" stroke-width="1.5" stroke-linecap="round" stroke-linejoin="round"/>
<path d="M20.6673 18.6667C20.6673 21.244 18.578 23.3333 16.0007 23.3333C13.4233 23.3333 11.334 21.244 11.334 18.6667C11.334 16.0893 13.4233 14 16.0007 14C18.578 14 20.6673 16.0893 20.6673 18.6667Z" stroke="white" stroke-width="1.5"/>
<path d="M16 8H16.012" stroke="white" stroke-width="1.5" stroke-linecap="round" stroke-linejoin="round"/>
</g>
</svg>
