<svg width="44" height="44" viewBox="0 0 44 44" fill="none" xmlns="http://www.w3.org/2000/svg">
<rect width="44" height="44" rx="8" fill="white" fill-opacity="0.08"/>
<g opacity="0.48">
<path d="M25.5 22C25.5 23.933 23.933 25.5 22 25.5C20.067 25.5 18.5 23.933 18.5 22C18.5 20.067 20.067 18.5 22 18.5C23.933 18.5 25.5 20.067 25.5 22Z" stroke="white" stroke-width="1.5"/>
<path d="M31.011 24.0963C31.5329 23.9556 31.7939 23.8852 31.8969 23.7506C32 23.6161 32 23.3996 32 22.9667V21.033C32 20.6001 32 20.3836 31.8969 20.2491C31.7938 20.1145 31.5329 20.0441 31.011 19.9034C29.0606 19.3774 27.8399 17.3383 28.3433 15.4007C28.4817 14.8678 28.5509 14.6014 28.4848 14.4451C28.4187 14.2888 28.2291 14.1812 27.8497 13.9658L26.125 12.9866C25.7528 12.7752 25.5667 12.6695 25.3997 12.692C25.2326 12.7145 25.0442 12.9026 24.6672 13.2786C23.208 14.7343 20.7936 14.7342 19.3343 13.2785C18.9574 12.9025 18.769 12.7145 18.6019 12.6919C18.4349 12.6694 18.2488 12.7751 17.8765 12.9865L16.1518 13.9657C15.7725 14.1811 15.5829 14.2887 15.5168 14.445C15.4507 14.6012 15.5199 14.8677 15.6582 15.4006C16.1614 17.3383 14.9397 19.3775 12.989 19.9034C12.4671 20.0441 12.2062 20.1145 12.1031 20.249C12 20.3836 12 20.6001 12 21.033V22.9667C12 23.3996 12 23.6161 12.1031 23.7506C12.2062 23.8852 12.4671 23.9556 12.989 24.0963C14.9394 24.6223 16.1601 26.6614 15.6567 28.599C15.5183 29.1319 15.4491 29.3983 15.5152 29.5546C15.5813 29.7109 15.7709 29.8186 16.1502 30.0339L17.8749 31.0132C18.2472 31.2245 18.4333 31.3302 18.6004 31.3077C18.7675 31.2852 18.9559 31.0971 19.3327 30.7211C20.7927 29.2642 23.2088 29.2641 24.6689 30.721C25.0457 31.0971 25.2341 31.2851 25.4012 31.3076C25.5682 31.3301 25.7544 31.2244 26.1266 31.0131L27.8513 30.0338C28.2307 29.8185 28.4204 29.7108 28.4864 29.5545C28.5525 29.3982 28.4833 29.1318 28.3448 28.5989C27.8412 26.6614 29.0609 24.6224 31.011 24.0963Z" stroke="white" stroke-width="1.5" stroke-linecap="round"/>
</g>
</svg>
