<svg width="24" height="24" viewBox="0 0 24 24" fill="none" xmlns="http://www.w3.org/2000/svg">
<path d="M21.9165 10.5C21.9351 10.6556 21.9495 10.8126 21.9598 10.9707C22.0134 11.8009 22.0134 12.6607 21.9598 13.4909C21.6856 17.7332 18.3536 21.1125 14.1706 21.3905C12.7435 21.4854 11.2536 21.4852 9.8294 21.3905C9.33896 21.3579 8.8044 21.2409 8.34401 21.0513C7.83177 20.8403 7.5756 20.7348 7.44544 20.7508C7.31527 20.7668 7.1264 20.9061 6.74868 21.1846C6.08268 21.6757 5.24367 22.0285 3.99943 21.9982C3.37026 21.9829 3.05568 21.9752 2.91484 21.7351C2.77401 21.495 2.94941 21.1626 3.30021 20.4978C3.78674 19.5758 4.09501 18.5203 3.62791 17.6746C2.82343 16.4666 2.1401 15.036 2.04024 13.4909C1.98659 12.6607 1.98659 11.8009 2.04024 10.9707C2.31441 6.72838 5.64639 3.34913 9.8294 3.07107C11.0318 2.99114 12.2812 2.97856 13.5 3.03368" stroke="white" stroke-width="1.5" stroke-linecap="round" stroke-linejoin="round"/>
<path d="M8.5 15H15.5M8.5 10H11" stroke="white" stroke-width="1.5" stroke-linecap="round" stroke-linejoin="round"/>
<path d="M20.8678 2.43934L21.5602 3.1317C22.146 3.71748 22.146 4.66724 21.5602 5.25303L17.9328 8.94868C17.6474 9.23403 17.2824 9.4264 16.8858 9.50049L14.6376 9.98853C14.2827 10.0656 13.9666 9.75041 14.0426 9.39524L14.5211 7.15992C14.5952 6.76323 14.7876 6.39823 15.0729 6.11288L18.7465 2.43934C19.3323 1.85355 20.282 1.85355 20.8678 2.43934Z" stroke="white" stroke-width="1.5" stroke-linecap="round" stroke-linejoin="round"/>
</svg>
