<svg width="16" height="16" viewBox="0 0 16 16" fill="none" xmlns="http://www.w3.org/2000/svg">
<path d="M1.33337 7.33329C1.33337 5.13341 1.33337 4.03346 2.01679 3.35005C2.70021 2.66663 3.80015 2.66663 6.00004 2.66663H6.66671C8.86657 2.66663 9.96651 2.66663 10.65 3.35005C11.3334 4.03346 11.3334 5.13341 11.3334 7.33329V8.66663C11.3334 10.8665 11.3334 11.9664 10.65 12.6499C9.96651 13.3333 8.86657 13.3333 6.66671 13.3333H6.00004C3.80015 13.3333 2.70021 13.3333 2.01679 12.6499C1.33337 11.9664 1.33337 10.8665 1.33337 8.66663V7.33329Z" stroke="white" stroke-width="1.5"/>
<path d="M11.3334 5.93728L11.4173 5.86802C12.8278 4.7042 13.5331 4.12228 14.0999 4.40326C14.6667 4.68423 14.6667 5.61574 14.6667 7.47878V8.52131C14.6667 10.3844 14.6667 11.3158 14.0999 11.5968C13.5331 11.8778 12.8278 11.2959 11.4173 10.132L11.3334 10.0628" stroke="white" stroke-width="1.5" stroke-linecap="round"/>
<path d="M7.66663 7.33337C8.21891 7.33337 8.66663 6.88566 8.66663 6.33337C8.66663 5.78109 8.21891 5.33337 7.66663 5.33337C7.11434 5.33337 6.66663 5.78109 6.66663 6.33337C6.66663 6.88566 7.11434 7.33337 7.66663 7.33337Z" stroke="white" stroke-width="1.5"/>
</svg>
