<svg width="800" height="480" viewBox="0 0 800 480" fill="none" xmlns="http://www.w3.org/2000/svg">
<rect x="80" y="320" width="1" height="160" fill="#A06AFF"/>
<rect y="400" width="1" height="160" transform="rotate(-90 0 400)" fill="#A06AFF"/>
<rect x="240" y="320" width="1" height="160" fill="#24282A"/>
<rect x="160" y="400" width="1" height="160" transform="rotate(-90 160 400)" fill="#24282A"/>
<rect x="240" y="160" width="1" height="160" fill="#24282A"/>
<rect x="160" y="240" width="1" height="160" transform="rotate(-90 160 240)" fill="#24282A"/>
<rect x="240" width="1" height="160" fill="#24282A"/>
<rect x="160" y="80" width="1" height="160" transform="rotate(-90 160 80)" fill="#24282A"/>
<rect x="400" width="1" height="160" fill="#24282A"/>
<rect x="320" y="80" width="1" height="160" transform="rotate(-90 320 80)" fill="#24282A"/>
<rect x="560" width="1" height="160" fill="#A06AFF"/>
<rect x="480" y="80" width="1" height="160" transform="rotate(-90 480 80)" fill="#A06AFF"/>
<rect x="720" width="1" height="160" fill="#A06AFF"/>
<rect x="640" y="80" width="1" height="160" transform="rotate(-90 640 80)" fill="#A06AFF"/>
<rect x="80" y="160" width="1" height="160" fill="#24282A"/>
<rect y="240" width="1" height="160" transform="rotate(-90 0 240)" fill="#24282A"/>
</svg>
