<svg width="20" height="20" viewBox="0 0 20 20" fill="none" xmlns="http://www.w3.org/2000/svg">
<path d="M13.657 2.5L14.4928 3.31312C14.8661 3.67638 15.0528 3.85801 14.987 4.01234C14.9214 4.16667 14.6574 4.16667 14.1294 4.16667H7.66187C4.35082 4.16667 1.66669 6.77834 1.66669 10C1.66669 11.2393 2.06392 12.3885 2.74127 13.3333" stroke="white" stroke-width="1.5" stroke-linecap="round" stroke-linejoin="round"/>
<path d="M6.34297 17.5003L5.50729 16.6872C5.13395 16.3239 4.94728 16.1423 5.01298 15.988C5.07868 15.8337 5.34267 15.8337 5.87065 15.8337H12.3382C15.6492 15.8337 18.3333 13.222 18.3333 10.0003C18.3333 8.76099 17.9361 7.61185 17.2588 6.66699" stroke="white" stroke-width="1.5" stroke-linecap="round" stroke-linejoin="round"/>
</svg>
