<svg width="20" height="20" viewBox="0 0 20 20" fill="none" xmlns="http://www.w3.org/2000/svg">
<g clip-path="url(#clip0_2_9280)">
<path d="M18.3337 9.63924C18.3337 14.0419 14.6022 17.6115 10.0003 17.6115C9.45924 17.6122 8.91966 17.5622 8.38816 17.4624C8.0056 17.3905 7.81431 17.3546 7.68077 17.375C7.54722 17.3954 7.35798 17.496 6.97948 17.6973C5.90878 18.2667 4.66028 18.4678 3.45958 18.2445C3.91594 17.6832 4.22762 17.0097 4.36514 16.2877C4.44848 15.846 4.24199 15.417 3.93273 15.1029C2.5281 13.6766 1.66699 11.7546 1.66699 9.63924C1.66699 5.23663 5.39848 1.66699 10.0003 1.66699C14.6022 1.66699 18.3337 5.23663 18.3337 9.63924Z" stroke="white" stroke-width="1.5" stroke-linejoin="round"/>
<path d="M9.99658 10H10.0041M13.3262 10H13.3337M6.66699 10H6.67447" stroke="white" stroke-width="2" stroke-linecap="round" stroke-linejoin="round"/>
</g>
<defs>
<clipPath id="clip0_2_9280">
<rect width="20" height="20" fill="white"/>
</clipPath>
</defs>
</svg>
