<svg width="17" height="16" viewBox="0 0 17 16" fill="none" xmlns="http://www.w3.org/2000/svg">
<path d="M15.167 7.71081C15.167 11.2329 12.1818 14.0886 8.50028 14.0886C8.06742 14.0892 7.63575 14.0491 7.21055 13.9693C6.9045 13.9118 6.75147 13.8831 6.64464 13.8994C6.5378 13.9157 6.3864 13.9962 6.08361 14.1573C5.22704 14.6128 4.22825 14.7737 3.26769 14.595C3.63278 14.1459 3.88212 13.6071 3.99214 13.0295C4.0588 12.6762 3.89362 12.333 3.64621 12.0817C2.5225 10.9407 1.83362 9.40307 1.83362 7.71081C1.83362 4.18872 4.8188 1.33301 8.50028 1.33301C12.1818 1.33301 15.167 4.18872 15.167 7.71081Z" stroke="#B0B0B0" stroke-width="1.5" stroke-linejoin="round"/>
<path d="M8.49728 8H8.50328M11.161 8H11.167M5.83362 8H5.8396" stroke="#B0B0B0" stroke-width="2" stroke-linecap="round" stroke-linejoin="round"/>
</svg>
