<svg width="17" height="16" viewBox="0 0 17 16" fill="none" xmlns="http://www.w3.org/2000/svg">
<path d="M11.4256 2L12.0942 2.65049C12.3928 2.9411 12.5422 3.08641 12.4896 3.20987C12.437 3.33333 12.2258 3.33333 11.8034 3.33333H6.62946C3.98062 3.33333 1.83331 5.42267 1.83331 8C1.83331 8.99147 2.1511 9.9108 2.69298 10.6667" stroke="#B0B0B0" stroke-width="1.5" stroke-linecap="round" stroke-linejoin="round"/>
<path d="M5.57437 13.9997L4.90583 13.3492C4.60716 13.0585 4.45782 12.9133 4.51038 12.7898C4.56294 12.6663 4.77413 12.6663 5.19652 12.6663H10.3705C13.0193 12.6663 15.1667 10.577 15.1667 7.99967C15.1667 7.00821 14.8489 6.08889 14.307 5.33301" stroke="#B0B0B0" stroke-width="1.5" stroke-linecap="round" stroke-linejoin="round"/>
</svg>
