<svg width="276" height="138" viewBox="0 0 276 138" fill="none" xmlns="http://www.w3.org/2000/svg">
<mask id="path-1-inside-1_89_12066" fill="white">
<path d="M268 138C272.418 138 276.024 134.414 275.768 130.003C273.815 96.3194 259.57 64.4081 235.581 40.4193C209.701 14.5392 174.6 2.76321e-06 138 0C101.4 -2.76321e-06 66.2993 14.5392 40.4193 40.4193C16.4304 64.4081 2.18546 96.3194 0.231667 130.003C-0.0241787 134.414 3.58172 138 8 138H40.3C44.7183 138 48.2629 134.411 48.6563 130.01C50.5212 109.149 59.6442 89.5008 74.5725 74.5725C91.3945 57.7505 114.21 48.3 138 48.3C161.79 48.3 184.605 57.7505 201.427 74.5725C216.356 89.5008 225.479 109.149 227.344 130.01C227.737 134.411 231.282 138 235.7 138H268Z"/>
</mask>
<g filter="url(#filter0_i_89_12066)">
<path d="M268 138C272.418 138 276.024 134.414 275.768 130.003C273.815 96.3194 259.57 64.4081 235.581 40.4193C209.701 14.5392 174.6 2.76321e-06 138 0C101.4 -2.76321e-06 66.2993 14.5392 40.4193 40.4193C16.4304 64.4081 2.18546 96.3194 0.231667 130.003C-0.0241787 134.414 3.58172 138 8 138H40.3C44.7183 138 48.2629 134.411 48.6563 130.01C50.5212 109.149 59.6442 89.5008 74.5725 74.5725C91.3945 57.7505 114.21 48.3 138 48.3C161.79 48.3 184.605 57.7505 201.427 74.5725C216.356 89.5008 225.479 109.149 227.344 130.01C227.737 134.411 231.282 138 235.7 138H268Z" fill="url(#paint0_radial_89_12066)"/>
</g>
<path d="M268 138C272.418 138 276.024 134.414 275.768 130.003C273.815 96.3194 259.57 64.4081 235.581 40.4193C209.701 14.5392 174.6 2.76321e-06 138 0C101.4 -2.76321e-06 66.2993 14.5392 40.4193 40.4193C16.4304 64.4081 2.18546 96.3194 0.231667 130.003C-0.0241787 134.414 3.58172 138 8 138H40.3C44.7183 138 48.2629 134.411 48.6563 130.01C50.5212 109.149 59.6442 89.5008 74.5725 74.5725C91.3945 57.7505 114.21 48.3 138 48.3C161.79 48.3 184.605 57.7505 201.427 74.5725C216.356 89.5008 225.479 109.149 227.344 130.01C227.737 134.411 231.282 138 235.7 138H268Z" stroke="url(#paint1_linear_89_12066)" stroke-width="4" mask="url(#path-1-inside-1_89_12066)"/>
<defs>
<filter id="filter0_i_89_12066" x="0.21875" y="0" width="275.562" height="139" filterUnits="userSpaceOnUse" color-interpolation-filters="sRGB">
<feFlood flood-opacity="0" result="BackgroundImageFix"/>
<feBlend mode="normal" in="SourceGraphic" in2="BackgroundImageFix" result="shape"/>
<feColorMatrix in="SourceAlpha" type="matrix" values="0 0 0 0 0 0 0 0 0 0 0 0 0 0 0 0 0 0 127 0" result="hardAlpha"/>
<feOffset dy="1"/>
<feGaussianBlur stdDeviation="2"/>
<feComposite in2="hardAlpha" operator="arithmetic" k2="-1" k3="1"/>
<feColorMatrix type="matrix" values="0 0 0 0 0 0 0 0 0 0 0 0 0 0 0 0 0 0 1 0"/>
<feBlend mode="normal" in2="shape" result="effect1_innerShadow_89_12066"/>
</filter>
<radialGradient id="paint0_radial_89_12066" cx="0" cy="0" r="1" gradientUnits="userSpaceOnUse" gradientTransform="translate(276 138) rotate(180) scale(276 1725)">
<stop stop-color="#FAD1FF"/>
<stop offset="1" stop-color="#482090"/>
</radialGradient>
<linearGradient id="paint1_linear_89_12066" x1="276" y1="138" x2="0" y2="138" gradientUnits="userSpaceOnUse">
<stop stop-color="#C4B9D6"/>
<stop offset="0.5" stop-color="white" stop-opacity="0.8"/>
<stop offset="1" stop-color="#6642A7"/>
</linearGradient>
</defs>
</svg>
