<svg width="197" height="441" viewBox="0 0 197 441" fill="none" xmlns="http://www.w3.org/2000/svg">
<rect width="197" height="441" rx="12" fill="#181A20"/>
<g style="mix-blend-mode:difference">
<path d="M29.0914 166.52C26.883 166.631 24.9923 164.928 25.0005 162.717C25.0432 151.218 27.6948 139.882 32.7494 129.587C33.7309 127.588 36.2066 126.911 38.1376 128.021L47.2937 133.283C49.1935 134.375 49.8471 136.787 48.9135 138.769C45.5221 145.97 43.6809 153.82 43.5127 161.797C43.4661 164.004 41.783 165.881 39.5787 165.992L29.0914 166.52Z" fill="#FF090A"/>
</g>
<g style="mix-blend-mode:difference">
<path d="M41.5052 122.411C39.7165 121.149 39.2668 118.675 40.6003 116.938C47.5709 107.86 56.5095 100.528 66.722 95.5108C68.7183 94.5301 71.0873 95.5071 71.9373 97.5624L76.0313 107.462C76.8698 109.489 75.9104 111.801 73.9576 112.802C66.9662 116.384 60.8017 121.427 55.8713 127.597C54.4799 129.338 51.9704 129.799 50.1496 128.514L41.5052 122.411Z" fill="#FF620B"/>
</g>
<g style="mix-blend-mode:difference">
<path d="M118.574 94.8022C119.18 92.6896 117.97 90.4721 115.831 89.9658C104.776 87.3486 93.2738 87.3447 82.2171 89.9543C80.0779 90.4592 78.8666 92.6759 79.4715 94.7889L82.425 105.105C83.0361 107.24 85.267 108.453 87.4373 107.984C95.0721 106.336 102.965 106.339 110.599 107.992C112.769 108.462 115.001 107.25 115.613 105.116L118.574 94.8022Z" fill="#FFF50A"/>
</g>
<g style="mix-blend-mode:difference">
<path d="M156.503 122.423C158.292 121.161 158.742 118.687 157.409 116.95C150.44 107.87 141.503 100.537 131.291 95.5173C129.295 94.5362 126.926 95.5127 126.076 97.5678L121.98 107.466C121.141 109.494 122.1 111.806 124.052 112.807C131.043 116.391 137.206 121.435 142.136 127.606C143.527 129.347 146.036 129.809 147.857 128.524L156.503 122.423Z" fill="#8EE071"/>
</g>
<g style="mix-blend-mode:difference">
<path d="M168.909 166.518C171.117 166.629 173.008 164.926 172.999 162.715C172.956 151.216 170.305 139.879 165.25 129.585C164.268 127.586 161.792 126.909 159.861 128.019L150.705 133.281C148.806 134.373 148.152 136.785 149.086 138.767C152.477 145.968 154.319 153.819 154.487 161.796C154.534 164.002 156.217 165.879 158.421 165.99L168.909 166.518Z" fill="#49FF0A"/>
</g>
<g opacity="0.48" filter="url(#filter0_d_237_336)">
<circle cx="99" cy="161" r="12" fill="#A06AFF"/>
</g>
<circle cx="99" cy="161" r="8" fill="#A06AFF"/>
<g filter="url(#filter1_d_237_336)">
<path d="M97.0062 105.325C97.1996 102.868 100.8 102.868 100.994 105.325L104.026 143.843C104.118 145.006 103.199 146 102.033 146H95.9675C94.801 146 93.8821 145.006 93.9737 143.843L97.0062 105.325Z" fill="#5C4290"/>
</g>
<path d="M94.3023 193.16C93.8116 193.16 93.3263 193.107 92.8463 193C92.3769 192.893 91.9343 192.744 91.5182 192.552C91.1129 192.36 90.7609 192.136 90.4622 191.88L91.1343 190.312C91.6249 190.685 92.1316 190.968 92.6543 191.16C93.1769 191.341 93.7156 191.432 94.2703 191.432C94.9423 191.432 95.4649 191.261 95.8383 190.92C96.2223 190.568 96.4143 190.099 96.4143 189.512C96.4143 188.915 96.2329 188.435 95.8703 188.072C95.5076 187.699 95.0116 187.512 94.3823 187.512C93.9236 187.512 93.5129 187.603 93.1503 187.784C92.7876 187.955 92.4569 188.221 92.1583 188.584H90.7823V181.72H97.7103V183.416H92.7823V187H92.2543C92.5316 186.627 92.8943 186.339 93.3423 186.136C93.8009 185.933 94.3076 185.832 94.8623 185.832C95.5769 185.832 96.1956 185.987 96.7183 186.296C97.2516 186.595 97.6623 187.016 97.9503 187.56C98.2489 188.093 98.3983 188.717 98.3983 189.432C98.3983 190.168 98.2329 190.819 97.9023 191.384C97.5716 191.939 97.0969 192.376 96.4783 192.696C95.8703 193.005 95.1449 193.16 94.3023 193.16ZM103.8 193.16C102.915 193.16 102.163 192.936 101.544 192.488C100.936 192.029 100.472 191.368 100.152 190.504C99.8427 189.64 99.688 188.584 99.688 187.336C99.688 186.077 99.8427 185.021 100.152 184.168C100.472 183.304 100.936 182.653 101.544 182.216C102.163 181.779 102.915 181.56 103.8 181.56C104.696 181.56 105.448 181.779 106.056 182.216C106.675 182.653 107.139 183.299 107.448 184.152C107.757 185.005 107.912 186.061 107.912 187.32C107.912 188.568 107.752 189.629 107.432 190.504C107.123 191.368 106.664 192.029 106.056 192.488C105.448 192.936 104.696 193.16 103.8 193.16ZM103.8 191.48C104.525 191.48 105.059 191.149 105.4 190.488C105.752 189.816 105.928 188.76 105.928 187.32C105.928 185.891 105.752 184.856 105.4 184.216C105.059 183.565 104.525 183.24 103.8 183.24C103.085 183.24 102.552 183.565 102.2 184.216C101.848 184.856 101.672 185.896 101.672 187.336C101.672 188.765 101.848 189.816 102.2 190.488C102.552 191.149 103.085 191.48 103.8 191.48Z" fill="white"/>
<path opacity="0.48" d="M56.197 218V207.425H58.117V211.835H63.562V207.425H65.482V218H63.562V213.44H58.117V218H56.197ZM71.3386 218.15C70.5086 218.15 69.7936 217.995 69.1936 217.685C68.5936 217.375 68.1286 216.935 67.7986 216.365C67.4786 215.795 67.3186 215.12 67.3186 214.34C67.3186 213.58 67.4736 212.915 67.7836 212.345C68.1036 211.775 68.5386 211.33 69.0886 211.01C69.6486 210.68 70.2836 210.515 70.9936 210.515C71.6936 210.515 72.2936 210.665 72.7936 210.965C73.2936 211.265 73.6786 211.69 73.9486 212.24C74.2286 212.79 74.3686 213.445 74.3686 214.205V214.76H68.8336V213.68H73.0486L72.8086 213.905C72.8086 213.225 72.6586 212.705 72.3586 212.345C72.0586 211.975 71.6286 211.79 71.0686 211.79C70.6486 211.79 70.2886 211.89 69.9886 212.09C69.6986 212.28 69.4736 212.555 69.3136 212.915C69.1636 213.265 69.0886 213.685 69.0886 214.175V214.28C69.0886 214.83 69.1736 215.285 69.3436 215.645C69.5136 216.005 69.7686 216.275 70.1086 216.455C70.4486 216.635 70.8686 216.725 71.3686 216.725C71.7786 216.725 72.1886 216.665 72.5986 216.545C73.0086 216.415 73.3836 216.215 73.7236 215.945L74.2486 217.205C73.8986 217.495 73.4586 217.725 72.9286 217.895C72.3986 218.065 71.8686 218.15 71.3386 218.15ZM76.0435 218V210.665H77.7385V216.08H77.3485L81.4135 210.665H82.9735V218H81.2785V212.57H81.6835L77.6035 218H76.0435ZM79.4935 209.735C79.0035 209.735 78.5735 209.65 78.2035 209.48C77.8335 209.31 77.5235 209.07 77.2735 208.76C77.0335 208.44 76.8635 208.07 76.7635 207.65L77.7235 207.32C77.8935 207.8 78.1185 208.15 78.3985 208.37C78.6885 208.59 79.0585 208.7 79.5085 208.7C79.9685 208.7 80.3385 208.59 80.6185 208.37C80.8985 208.14 81.1335 207.795 81.3235 207.335L82.2385 207.65C82.0985 208.11 81.8985 208.495 81.6385 208.805C81.3785 209.115 81.0685 209.35 80.7085 209.51C80.3485 209.66 79.9435 209.735 79.4935 209.735ZM86.6413 218V212.135H84.1363V210.665H91.0363V212.135H88.5163V218H86.6413ZM92.2011 220.7V210.665H94.0311V212.21H93.8811C94.0311 211.7 94.3361 211.29 94.7961 210.98C95.2661 210.67 95.8111 210.515 96.4311 210.515C97.0711 210.515 97.6311 210.67 98.1111 210.98C98.6011 211.29 98.9811 211.73 99.2511 212.3C99.5211 212.86 99.6561 213.535 99.6561 214.325C99.6561 215.105 99.5211 215.785 99.2511 216.365C98.9811 216.935 98.6061 217.375 98.1261 217.685C97.6461 217.995 97.0811 218.15 96.4311 218.15C95.8211 218.15 95.2861 218 94.8261 217.7C94.3661 217.39 94.0561 216.99 93.8961 216.5H94.0761V220.7H92.2011ZM95.9061 216.725C96.4661 216.725 96.9161 216.525 97.2561 216.125C97.5961 215.715 97.7661 215.115 97.7661 214.325C97.7661 213.525 97.5961 212.93 97.2561 212.54C96.9161 212.14 96.4661 211.94 95.9061 211.94C95.3461 211.94 94.8961 212.14 94.5561 212.54C94.2161 212.93 94.0461 213.525 94.0461 214.325C94.0461 215.115 94.2161 215.715 94.5561 216.125C94.8961 216.525 95.3461 216.725 95.9061 216.725ZM103.83 218.15C103.3 218.15 102.825 218.05 102.405 217.85C101.995 217.64 101.67 217.36 101.43 217.01C101.2 216.66 101.085 216.265 101.085 215.825C101.085 215.285 101.225 214.86 101.505 214.55C101.785 214.23 102.24 214 102.87 213.86C103.5 213.72 104.345 213.65 105.405 213.65H106.155V214.73H105.42C104.95 214.73 104.555 214.75 104.235 214.79C103.915 214.82 103.655 214.875 103.455 214.955C103.265 215.025 103.125 215.125 103.035 215.255C102.955 215.385 102.915 215.545 102.915 215.735C102.915 216.065 103.03 216.335 103.26 216.545C103.49 216.755 103.81 216.86 104.22 216.86C104.55 216.86 104.84 216.785 105.09 216.635C105.35 216.475 105.555 216.26 105.705 215.99C105.855 215.72 105.93 215.41 105.93 215.06V213.335C105.93 212.835 105.82 212.475 105.6 212.255C105.38 212.035 105.01 211.925 104.49 211.925C104.08 211.925 103.66 211.99 103.23 212.12C102.8 212.24 102.365 212.43 101.925 212.69L101.385 211.415C101.645 211.235 101.95 211.08 102.3 210.95C102.66 210.81 103.035 210.705 103.425 210.635C103.825 210.555 104.2 210.515 104.55 210.515C105.27 210.515 105.86 210.625 106.32 210.845C106.79 211.065 107.14 211.4 107.37 211.85C107.6 212.29 107.715 212.86 107.715 213.56V218H105.96V216.44H106.08C106.01 216.79 105.87 217.095 105.66 217.355C105.46 217.605 105.205 217.8 104.895 217.94C104.585 218.08 104.23 218.15 103.83 218.15ZM109.613 218.21L109.028 216.725C109.348 216.615 109.613 216.47 109.823 216.29C110.043 216.1 110.218 215.86 110.348 215.57C110.478 215.27 110.573 214.905 110.633 214.475C110.693 214.045 110.723 213.53 110.723 212.93V210.665H116.633V218H114.758V212.135H112.448V212.99C112.448 213.78 112.393 214.475 112.283 215.075C112.173 215.675 112.003 216.185 111.773 216.605C111.553 217.025 111.263 217.37 110.903 217.64C110.543 217.9 110.113 218.09 109.613 218.21ZM118.758 218V210.665H120.633V213.095H122.568C123.538 213.095 124.268 213.3 124.758 213.71C125.258 214.12 125.508 214.72 125.508 215.51C125.508 216.01 125.388 216.45 125.148 216.83C124.908 217.2 124.568 217.49 124.128 217.7C123.698 217.9 123.178 218 122.568 218H118.758ZM120.633 216.77H122.283C122.753 216.77 123.118 216.67 123.378 216.47C123.638 216.26 123.768 215.945 123.768 215.525C123.768 215.115 123.638 214.815 123.378 214.625C123.118 214.425 122.753 214.325 122.283 214.325H120.633V216.77ZM127.049 218V210.665H128.924V213.5H132.164V210.665H134.039V218H132.164V214.97H128.924V218H127.049ZM139.535 218.15C138.775 218.15 138.115 217.995 137.555 217.685C136.995 217.375 136.56 216.935 136.25 216.365C135.94 215.785 135.785 215.105 135.785 214.325C135.785 213.545 135.94 212.87 136.25 212.3C136.56 211.73 136.995 211.29 137.555 210.98C138.115 210.67 138.775 210.515 139.535 210.515C140.295 210.515 140.955 210.67 141.515 210.98C142.075 211.29 142.51 211.73 142.82 212.3C143.13 212.87 143.285 213.545 143.285 214.325C143.285 215.105 143.13 215.785 142.82 216.365C142.51 216.935 142.075 217.375 141.515 217.685C140.955 217.995 140.295 218.15 139.535 218.15ZM139.535 216.725C140.095 216.725 140.545 216.525 140.885 216.125C141.225 215.715 141.395 215.115 141.395 214.325C141.395 213.525 141.225 212.93 140.885 212.54C140.545 212.14 140.095 211.94 139.535 211.94C138.975 211.94 138.525 212.14 138.185 212.54C137.845 212.93 137.675 213.525 137.675 214.325C137.675 215.115 137.845 215.715 138.185 216.125C138.525 216.525 138.975 216.725 139.535 216.725Z" fill="white"/>
<path d="M40.404 31V20.425H42.189V28.315H41.844L47.874 20.425H49.314V31H47.529V23.095H47.859L41.829 31H40.404ZM51.5347 31V23.665H53.4097V26.5H56.6497V23.665H58.5247V31H56.6497V27.97H53.4097V31H51.5347ZM59.9857 32.95V29.53H60.8257C61.0257 29.22 61.1807 28.89 61.2907 28.54C61.4107 28.18 61.4957 27.775 61.5457 27.325C61.6057 26.865 61.6357 26.34 61.6357 25.75V23.665H67.3507V29.53H68.5507V32.95H66.9607V31H61.5757V32.95H59.9857ZM62.5207 29.53H65.5957V25.105H63.2407V26.185C63.2407 26.815 63.1757 27.425 63.0457 28.015C62.9257 28.605 62.7507 29.11 62.5207 29.53ZM73.5632 31.15C72.7332 31.15 72.0182 30.995 71.4182 30.685C70.8182 30.375 70.3532 29.935 70.0232 29.365C69.7032 28.795 69.5432 28.12 69.5432 27.34C69.5432 26.58 69.6982 25.915 70.0082 25.345C70.3282 24.775 70.7632 24.33 71.3132 24.01C71.8732 23.68 72.5082 23.515 73.2182 23.515C73.9182 23.515 74.5182 23.665 75.0182 23.965C75.5182 24.265 75.9032 24.69 76.1732 25.24C76.4532 25.79 76.5932 26.445 76.5932 27.205V27.76H71.0582V26.68H75.2732L75.0332 26.905C75.0332 26.225 74.8832 25.705 74.5832 25.345C74.2832 24.975 73.8532 24.79 73.2932 24.79C72.8732 24.79 72.5132 24.89 72.2132 25.09C71.9232 25.28 71.6982 25.555 71.5382 25.915C71.3882 26.265 71.3132 26.685 71.3132 27.175V27.28C71.3132 27.83 71.3982 28.285 71.5682 28.645C71.7382 29.005 71.9932 29.275 72.3332 29.455C72.6732 29.635 73.0932 29.725 73.5932 29.725C74.0032 29.725 74.4132 29.665 74.8232 29.545C75.2332 29.415 75.6082 29.215 75.9482 28.945L76.4732 30.205C76.1232 30.495 75.6832 30.725 75.1532 30.895C74.6232 31.065 74.0932 31.15 73.5632 31.15ZM78.2681 31V23.665H80.1431V26.515H81.2081L83.3381 23.665H85.3481L82.6631 27.34L82.2581 26.74C82.5281 26.77 82.7681 26.845 82.9781 26.965C83.1981 27.085 83.3981 27.255 83.5781 27.475C83.7681 27.685 83.9531 27.95 84.1331 28.27L85.6781 31H83.6681L82.4381 28.84C82.3081 28.61 82.1781 28.435 82.0481 28.315C81.9281 28.185 81.7881 28.095 81.6281 28.045C81.4781 27.995 81.2931 27.97 81.0731 27.97H80.1431V31H78.2681ZM90.052 31.15C89.282 31.15 88.612 30.995 88.042 30.685C87.472 30.365 87.032 29.915 86.722 29.335C86.412 28.755 86.257 28.075 86.257 27.295C86.257 26.515 86.412 25.845 86.722 25.285C87.032 24.715 87.472 24.28 88.042 23.98C88.612 23.67 89.282 23.515 90.052 23.515C90.522 23.515 90.987 23.59 91.447 23.74C91.907 23.89 92.287 24.1 92.587 24.37L92.032 25.675C91.772 25.445 91.477 25.27 91.147 25.15C90.827 25.03 90.517 24.97 90.217 24.97C89.567 24.97 89.062 25.175 88.702 25.585C88.352 25.985 88.177 26.56 88.177 27.31C88.177 28.05 88.352 28.635 88.702 29.065C89.062 29.485 89.567 29.695 90.217 29.695C90.507 29.695 90.817 29.635 91.147 29.515C91.477 29.395 91.772 29.215 92.032 28.975L92.587 30.295C92.287 30.555 91.902 30.765 91.432 30.925C90.972 31.075 90.512 31.15 90.052 31.15ZM101.39 31.15C100.62 31.15 99.9499 30.995 99.3799 30.685C98.8099 30.365 98.3699 29.915 98.0599 29.335C97.7499 28.755 97.5949 28.075 97.5949 27.295C97.5949 26.515 97.7499 25.845 98.0599 25.285C98.3699 24.715 98.8099 24.28 99.3799 23.98C99.9499 23.67 100.62 23.515 101.39 23.515C101.86 23.515 102.325 23.59 102.785 23.74C103.245 23.89 103.625 24.1 103.925 24.37L103.37 25.675C103.11 25.445 102.815 25.27 102.485 25.15C102.165 25.03 101.855 24.97 101.555 24.97C100.905 24.97 100.4 25.175 100.04 25.585C99.6899 25.985 99.5149 26.56 99.5149 27.31C99.5149 28.05 99.6899 28.635 100.04 29.065C100.4 29.485 100.905 29.695 101.555 29.695C101.845 29.695 102.155 29.635 102.485 29.515C102.815 29.395 103.11 29.215 103.37 28.975L103.925 30.295C103.625 30.555 103.24 30.765 102.77 30.925C102.31 31.075 101.85 31.15 101.39 31.15ZM106.825 31V25.135H104.32V23.665H111.22V25.135H108.7V31H106.825ZM112.385 33.7V23.665H114.215V25.21H114.065C114.215 24.7 114.52 24.29 114.98 23.98C115.45 23.67 115.995 23.515 116.615 23.515C117.255 23.515 117.815 23.67 118.295 23.98C118.785 24.29 119.165 24.73 119.435 25.3C119.705 25.86 119.84 26.535 119.84 27.325C119.84 28.105 119.705 28.785 119.435 29.365C119.165 29.935 118.79 30.375 118.31 30.685C117.83 30.995 117.265 31.15 116.615 31.15C116.005 31.15 115.47 31 115.01 30.7C114.55 30.39 114.24 29.99 114.08 29.5H114.26V33.7H112.385ZM116.09 29.725C116.65 29.725 117.1 29.525 117.44 29.125C117.78 28.715 117.95 28.115 117.95 27.325C117.95 26.525 117.78 25.93 117.44 25.54C117.1 25.14 116.65 24.94 116.09 24.94C115.53 24.94 115.08 25.14 114.74 25.54C114.4 25.93 114.23 26.525 114.23 27.325C114.23 28.115 114.4 28.715 114.74 29.125C115.08 29.525 115.53 29.725 116.09 29.725ZM124.014 31.15C123.484 31.15 123.009 31.05 122.589 30.85C122.179 30.64 121.854 30.36 121.614 30.01C121.384 29.66 121.269 29.265 121.269 28.825C121.269 28.285 121.409 27.86 121.689 27.55C121.969 27.23 122.424 27 123.054 26.86C123.684 26.72 124.529 26.65 125.589 26.65H126.339V27.73H125.604C125.134 27.73 124.739 27.75 124.419 27.79C124.099 27.82 123.839 27.875 123.639 27.955C123.449 28.025 123.309 28.125 123.219 28.255C123.139 28.385 123.099 28.545 123.099 28.735C123.099 29.065 123.214 29.335 123.444 29.545C123.674 29.755 123.994 29.86 124.404 29.86C124.734 29.86 125.024 29.785 125.274 29.635C125.534 29.475 125.739 29.26 125.889 28.99C126.039 28.72 126.114 28.41 126.114 28.06V26.335C126.114 25.835 126.004 25.475 125.784 25.255C125.564 25.035 125.194 24.925 124.674 24.925C124.264 24.925 123.844 24.99 123.414 25.12C122.984 25.24 122.549 25.43 122.109 25.69L121.569 24.415C121.829 24.235 122.134 24.08 122.484 23.95C122.844 23.81 123.219 23.705 123.609 23.635C124.009 23.555 124.384 23.515 124.734 23.515C125.454 23.515 126.044 23.625 126.504 23.845C126.974 24.065 127.324 24.4 127.554 24.85C127.784 25.29 127.899 25.86 127.899 26.56V31H126.144V29.44H126.264C126.194 29.79 126.054 30.095 125.844 30.355C125.644 30.605 125.389 30.8 125.079 30.94C124.769 31.08 124.414 31.15 124.014 31.15ZM128.987 31L132.422 26.77V27.655L129.182 23.665H131.372L133.472 26.35H132.812L134.912 23.665H137.102L133.862 27.64V26.8L137.297 31H135.092L132.812 28.12H133.442L131.177 31H128.987ZM140.742 31.15C140.212 31.15 139.737 31.05 139.317 30.85C138.907 30.64 138.582 30.36 138.342 30.01C138.112 29.66 137.997 29.265 137.997 28.825C137.997 28.285 138.137 27.86 138.417 27.55C138.697 27.23 139.152 27 139.782 26.86C140.412 26.72 141.257 26.65 142.317 26.65H143.067V27.73H142.332C141.862 27.73 141.467 27.75 141.147 27.79C140.827 27.82 140.567 27.875 140.367 27.955C140.177 28.025 140.037 28.125 139.947 28.255C139.867 28.385 139.827 28.545 139.827 28.735C139.827 29.065 139.942 29.335 140.172 29.545C140.402 29.755 140.722 29.86 141.132 29.86C141.462 29.86 141.752 29.785 142.002 29.635C142.262 29.475 142.467 29.26 142.617 28.99C142.767 28.72 142.842 28.41 142.842 28.06V26.335C142.842 25.835 142.732 25.475 142.512 25.255C142.292 25.035 141.922 24.925 141.402 24.925C140.992 24.925 140.572 24.99 140.142 25.12C139.712 25.24 139.277 25.43 138.837 25.69L138.297 24.415C138.557 24.235 138.862 24.08 139.212 23.95C139.572 23.81 139.947 23.705 140.337 23.635C140.737 23.555 141.112 23.515 141.462 23.515C142.182 23.515 142.772 23.625 143.232 23.845C143.702 24.065 144.052 24.4 144.282 24.85C144.512 25.29 144.627 25.86 144.627 26.56V31H142.872V29.44H142.992C142.922 29.79 142.782 30.095 142.572 30.355C142.372 30.605 142.117 30.8 141.807 30.94C141.497 31.08 141.142 31.15 140.742 31.15ZM150.763 31V23.665H152.458V29.08H152.068L156.133 23.665H157.693V31H155.998V25.57H156.403L152.323 31H150.763ZM63.1678 51L64.7128 48.27C64.8928 47.95 65.0728 47.685 65.2528 47.475C65.4428 47.255 65.6428 47.085 65.8528 46.965C66.0728 46.845 66.3178 46.77 66.5878 46.74L66.2428 47.34L63.4978 43.665H65.5078L67.6378 46.515H68.5228V43.665H70.3978V46.515H71.2828L73.3978 43.665H75.4078L72.6778 47.34L72.3178 46.74C72.5878 46.77 72.8278 46.845 73.0378 46.965C73.2578 47.085 73.4628 47.255 73.6528 47.475C73.8428 47.685 74.0278 47.95 74.2078 48.27L75.7378 51H73.7428L72.5128 48.84C72.3828 48.61 72.2528 48.435 72.1228 48.315C72.0028 48.185 71.8628 48.095 71.7028 48.045C71.5528 47.995 71.3678 47.97 71.1478 47.97H70.3978V51H68.5228V47.97H67.7728C67.5528 47.97 67.3628 47.995 67.2028 48.045C67.0528 48.095 66.9128 48.185 66.7828 48.315C66.6628 48.435 66.5378 48.61 66.4078 48.84L65.1778 51H63.1678ZM79.1454 51.15C78.6154 51.15 78.1404 51.05 77.7204 50.85C77.3104 50.64 76.9854 50.36 76.7454 50.01C76.5154 49.66 76.4004 49.265 76.4004 48.825C76.4004 48.285 76.5404 47.86 76.8204 47.55C77.1004 47.23 77.5554 47 78.1854 46.86C78.8154 46.72 79.6604 46.65 80.7204 46.65H81.4704V47.73H80.7354C80.2654 47.73 79.8704 47.75 79.5504 47.79C79.2304 47.82 78.9704 47.875 78.7704 47.955C78.5804 48.025 78.4404 48.125 78.3504 48.255C78.2704 48.385 78.2304 48.545 78.2304 48.735C78.2304 49.065 78.3454 49.335 78.5754 49.545C78.8054 49.755 79.1254 49.86 79.5354 49.86C79.8654 49.86 80.1554 49.785 80.4054 49.635C80.6654 49.475 80.8704 49.26 81.0204 48.99C81.1704 48.72 81.2454 48.41 81.2454 48.06V46.335C81.2454 45.835 81.1354 45.475 80.9154 45.255C80.6954 45.035 80.3254 44.925 79.8054 44.925C79.3954 44.925 78.9754 44.99 78.5454 45.12C78.1154 45.24 77.6804 45.43 77.2404 45.69L76.7004 44.415C76.9604 44.235 77.2654 44.08 77.6154 43.95C77.9754 43.81 78.3504 43.705 78.7404 43.635C79.1404 43.555 79.5154 43.515 79.8654 43.515C80.5854 43.515 81.1754 43.625 81.6354 43.845C82.1054 44.065 82.4554 44.4 82.6854 44.85C82.9154 45.29 83.0304 45.86 83.0304 46.56V51H81.2754V49.44H81.3954C81.3254 49.79 81.1854 50.095 80.9754 50.355C80.7754 50.605 80.5204 50.8 80.2104 50.94C79.9004 51.08 79.5454 51.15 79.1454 51.15ZM84.4486 52.95V49.53H85.2886C85.4886 49.22 85.6436 48.89 85.7536 48.54C85.8736 48.18 85.9586 47.775 86.0086 47.325C86.0686 46.865 86.0986 46.34 86.0986 45.75V43.665H91.8136V49.53H93.0136V52.95H91.4236V51H86.0386V52.95H84.4486ZM86.9836 49.53H90.0586V45.105H87.7036V46.185C87.7036 46.815 87.6386 47.425 87.5086 48.015C87.3886 48.605 87.2136 49.11 86.9836 49.53ZM94.3961 51V43.665H96.2711V46.5H99.5111V43.665H101.386V51H99.5111V47.97H96.2711V51H94.3961ZM106.882 51.15C106.122 51.15 105.462 50.995 104.902 50.685C104.342 50.375 103.907 49.935 103.597 49.365C103.287 48.785 103.132 48.105 103.132 47.325C103.132 46.545 103.287 45.87 103.597 45.3C103.907 44.73 104.342 44.29 104.902 43.98C105.462 43.67 106.122 43.515 106.882 43.515C107.642 43.515 108.302 43.67 108.862 43.98C109.422 44.29 109.857 44.73 110.167 45.3C110.477 45.87 110.632 46.545 110.632 47.325C110.632 48.105 110.477 48.785 110.167 49.365C109.857 49.935 109.422 50.375 108.862 50.685C108.302 50.995 107.642 51.15 106.882 51.15ZM106.882 49.725C107.442 49.725 107.892 49.525 108.232 49.125C108.572 48.715 108.742 48.115 108.742 47.325C108.742 46.525 108.572 45.93 108.232 45.54C107.892 45.14 107.442 44.94 106.882 44.94C106.322 44.94 105.872 45.14 105.532 45.54C105.192 45.93 105.022 46.525 105.022 47.325C105.022 48.115 105.192 48.715 105.532 49.125C105.872 49.525 106.322 49.725 106.882 49.725ZM115.775 51.15C115.005 51.15 114.335 50.995 113.765 50.685C113.195 50.365 112.755 49.915 112.445 49.335C112.135 48.755 111.98 48.075 111.98 47.295C111.98 46.515 112.135 45.845 112.445 45.285C112.755 44.715 113.195 44.28 113.765 43.98C114.335 43.67 115.005 43.515 115.775 43.515C116.245 43.515 116.71 43.59 117.17 43.74C117.63 43.89 118.01 44.1 118.31 44.37L117.755 45.675C117.495 45.445 117.2 45.27 116.87 45.15C116.55 45.03 116.24 44.97 115.94 44.97C115.29 44.97 114.785 45.175 114.425 45.585C114.075 45.985 113.9 46.56 113.9 47.31C113.9 48.05 114.075 48.635 114.425 49.065C114.785 49.485 115.29 49.695 115.94 49.695C116.23 49.695 116.54 49.635 116.87 49.515C117.2 49.395 117.495 49.215 117.755 48.975L118.31 50.295C118.01 50.555 117.625 50.765 117.155 50.925C116.695 51.075 116.235 51.15 115.775 51.15ZM121.21 51V45.135H118.705V43.665H125.605V45.135H123.085V51H121.21ZM126.754 51V43.665H128.449V49.08H128.059L132.124 43.665H133.684V51H131.989V45.57H132.394L128.314 51H126.754Z" fill="white"/>
<circle opacity="0.48" cx="161" cy="325" r="12" fill="#8EE071"/>
<path d="M157.217 329.12C156.521 329.12 155.925 328.956 155.429 328.628C154.941 328.292 154.569 327.812 154.313 327.188C154.057 326.564 153.929 325.808 153.929 324.92C153.929 323.96 154.073 323.148 154.361 322.484C154.649 321.812 155.065 321.3 155.609 320.948C156.153 320.596 156.805 320.42 157.565 320.42C157.861 320.42 158.157 320.46 158.453 320.54C158.757 320.612 159.041 320.72 159.305 320.864C159.577 321 159.817 321.168 160.025 321.368L159.521 322.52C159.225 322.248 158.909 322.048 158.573 321.92C158.237 321.784 157.893 321.716 157.541 321.716C157.197 321.716 156.889 321.78 156.617 321.908C156.353 322.028 156.129 322.212 155.945 322.46C155.761 322.7 155.621 323.004 155.525 323.372C155.437 323.732 155.393 324.152 155.393 324.632V325.532H155.249C155.313 325.124 155.445 324.776 155.645 324.488C155.853 324.192 156.117 323.968 156.437 323.816C156.757 323.656 157.113 323.576 157.505 323.576C157.993 323.576 158.425 323.692 158.801 323.924C159.177 324.156 159.473 324.476 159.689 324.884C159.905 325.292 160.013 325.76 160.013 326.288C160.013 326.832 159.893 327.32 159.653 327.752C159.421 328.176 159.093 328.512 158.669 328.76C158.253 329 157.769 329.12 157.217 329.12ZM157.133 327.896C157.421 327.896 157.673 327.832 157.889 327.704C158.113 327.576 158.285 327.396 158.405 327.164C158.525 326.924 158.585 326.652 158.585 326.348C158.585 326.036 158.525 325.764 158.405 325.532C158.285 325.3 158.113 325.12 157.889 324.992C157.673 324.856 157.421 324.788 157.133 324.788C156.845 324.788 156.593 324.856 156.377 324.992C156.161 325.12 155.989 325.3 155.861 325.532C155.741 325.764 155.681 326.036 155.681 326.348C155.681 326.652 155.741 326.924 155.861 327.164C155.989 327.396 156.161 327.576 156.377 327.704C156.593 327.832 156.845 327.896 157.133 327.896ZM164.412 329.12C163.716 329.12 163.12 328.956 162.624 328.628C162.136 328.292 161.764 327.812 161.508 327.188C161.252 326.564 161.124 325.808 161.124 324.92C161.124 323.96 161.268 323.148 161.556 322.484C161.844 321.812 162.26 321.3 162.804 320.948C163.348 320.596 164 320.42 164.76 320.42C165.056 320.42 165.352 320.46 165.648 320.54C165.952 320.612 166.236 320.72 166.5 320.864C166.772 321 167.012 321.168 167.22 321.368L166.716 322.52C166.42 322.248 166.104 322.048 165.768 321.92C165.432 321.784 165.088 321.716 164.736 321.716C164.392 321.716 164.084 321.78 163.812 321.908C163.548 322.028 163.324 322.212 163.14 322.46C162.956 322.7 162.816 323.004 162.72 323.372C162.632 323.732 162.588 324.152 162.588 324.632V325.532H162.444C162.508 325.124 162.64 324.776 162.84 324.488C163.048 324.192 163.312 323.968 163.632 323.816C163.952 323.656 164.308 323.576 164.7 323.576C165.188 323.576 165.62 323.692 165.996 323.924C166.372 324.156 166.668 324.476 166.884 324.884C167.1 325.292 167.208 325.76 167.208 326.288C167.208 326.832 167.088 327.32 166.848 327.752C166.616 328.176 166.288 328.512 165.864 328.76C165.448 329 164.964 329.12 164.412 329.12ZM164.328 327.896C164.616 327.896 164.868 327.832 165.084 327.704C165.308 327.576 165.48 327.396 165.6 327.164C165.72 326.924 165.78 326.652 165.78 326.348C165.78 326.036 165.72 325.764 165.6 325.532C165.48 325.3 165.308 325.12 165.084 324.992C164.868 324.856 164.616 324.788 164.328 324.788C164.04 324.788 163.788 324.856 163.572 324.992C163.356 325.12 163.184 325.3 163.056 325.532C162.936 325.764 162.876 326.036 162.876 326.348C162.876 326.652 162.936 326.924 163.056 327.164C163.184 327.396 163.356 327.576 163.572 327.704C163.788 327.832 164.04 327.896 164.328 327.896Z" fill="white"/>
<path opacity="0.48" d="M26.155 330V319.425H30.775C31.885 319.425 32.745 319.67 33.355 320.16C33.965 320.64 34.27 321.31 34.27 322.17C34.27 322.81 34.085 323.35 33.715 323.79C33.345 324.23 32.84 324.525 32.2 324.675V324.45C32.69 324.52 33.11 324.67 33.46 324.9C33.81 325.13 34.075 325.425 34.255 325.785C34.445 326.145 34.54 326.565 34.54 327.045C34.54 327.665 34.395 328.2 34.105 328.65C33.825 329.09 33.415 329.425 32.875 329.655C32.335 329.885 31.69 330 30.94 330H26.155ZM28 328.545H30.7C30.97 328.545 31.21 328.525 31.42 328.485C31.64 328.445 31.825 328.385 31.975 328.305C32.135 328.215 32.265 328.105 32.365 327.975C32.475 327.845 32.555 327.695 32.605 327.525C32.655 327.355 32.68 327.165 32.68 326.955C32.68 326.735 32.655 326.54 32.605 326.37C32.555 326.2 32.475 326.055 32.365 325.935C32.265 325.805 32.135 325.7 31.975 325.62C31.825 325.53 31.64 325.465 31.42 325.425C31.21 325.385 30.97 325.365 30.7 325.365H28V328.545ZM28 323.91H30.445C31.105 323.91 31.595 323.785 31.915 323.535C32.245 323.275 32.41 322.895 32.41 322.395C32.41 321.895 32.245 321.52 31.915 321.27C31.595 321.01 31.105 320.88 30.445 320.88H28V323.91ZM41.0271 330V327.345C40.7571 327.475 40.4771 327.575 40.1871 327.645C39.9071 327.705 39.6171 327.735 39.3171 327.735C38.5971 327.735 37.9971 327.62 37.5171 327.39C37.0371 327.15 36.6771 326.795 36.4371 326.325C36.2071 325.855 36.0921 325.27 36.0921 324.57V322.665H37.9671V324.405C37.9671 324.825 38.0221 325.17 38.1321 325.44C38.2521 325.71 38.4321 325.91 38.6721 326.04C38.9221 326.16 39.2471 326.22 39.6471 326.22C39.9171 326.22 40.1621 326.19 40.3821 326.13C40.6021 326.07 40.8071 325.975 40.9971 325.845V322.665H42.8721V330H41.0271ZM48.6354 330.15C47.8054 330.15 47.0904 329.995 46.4904 329.685C45.8904 329.375 45.4254 328.935 45.0954 328.365C44.7754 327.795 44.6154 327.12 44.6154 326.34C44.6154 325.58 44.7704 324.915 45.0804 324.345C45.4004 323.775 45.8354 323.33 46.3854 323.01C46.9454 322.68 47.5804 322.515 48.2904 322.515C48.9904 322.515 49.5904 322.665 50.0904 322.965C50.5904 323.265 50.9754 323.69 51.2454 324.24C51.5254 324.79 51.6654 325.445 51.6654 326.205V326.76H46.1304V325.68H50.3454L50.1054 325.905C50.1054 325.225 49.9554 324.705 49.6554 324.345C49.3554 323.975 48.9254 323.79 48.3654 323.79C47.9454 323.79 47.5854 323.89 47.2854 324.09C46.9954 324.28 46.7704 324.555 46.6104 324.915C46.4604 325.265 46.3854 325.685 46.3854 326.175V326.28C46.3854 326.83 46.4704 327.285 46.6404 327.645C46.8104 328.005 47.0654 328.275 47.4054 328.455C47.7454 328.635 48.1654 328.725 48.6654 328.725C49.0754 328.725 49.4854 328.665 49.8954 328.545C50.3054 328.415 50.6804 328.215 51.0204 327.945L51.5454 329.205C51.1954 329.495 50.7554 329.725 50.2254 329.895C49.6954 330.065 49.1654 330.15 48.6354 330.15ZM53.3554 332.7V322.665H55.1854V324.21H55.0354C55.1854 323.7 55.4904 323.29 55.9504 322.98C56.4204 322.67 56.9654 322.515 57.5854 322.515C58.2254 322.515 58.7854 322.67 59.2654 322.98C59.7554 323.29 60.1354 323.73 60.4054 324.3C60.6754 324.86 60.8104 325.535 60.8104 326.325C60.8104 327.105 60.6754 327.785 60.4054 328.365C60.1354 328.935 59.7604 329.375 59.2804 329.685C58.8004 329.995 58.2354 330.15 57.5854 330.15C56.9754 330.15 56.4404 330 55.9804 329.7C55.5204 329.39 55.2104 328.99 55.0504 328.5H55.2304V332.7H53.3554ZM57.0604 328.725C57.6204 328.725 58.0704 328.525 58.4104 328.125C58.7504 327.715 58.9204 327.115 58.9204 326.325C58.9204 325.525 58.7504 324.93 58.4104 324.54C58.0704 324.14 57.6204 323.94 57.0604 323.94C56.5004 323.94 56.0504 324.14 55.7104 324.54C55.3704 324.93 55.2004 325.525 55.2004 326.325C55.2004 327.115 55.3704 327.715 55.7104 328.125C56.0504 328.525 56.5004 328.725 57.0604 328.725ZM64.9843 330.15C64.4543 330.15 63.9793 330.05 63.5593 329.85C63.1493 329.64 62.8243 329.36 62.5843 329.01C62.3543 328.66 62.2393 328.265 62.2393 327.825C62.2393 327.285 62.3793 326.86 62.6593 326.55C62.9393 326.23 63.3943 326 64.0243 325.86C64.6543 325.72 65.4993 325.65 66.5593 325.65H67.3093V326.73H66.5743C66.1043 326.73 65.7093 326.75 65.3893 326.79C65.0693 326.82 64.8093 326.875 64.6093 326.955C64.4193 327.025 64.2793 327.125 64.1893 327.255C64.1093 327.385 64.0693 327.545 64.0693 327.735C64.0693 328.065 64.1843 328.335 64.4143 328.545C64.6443 328.755 64.9643 328.86 65.3743 328.86C65.7043 328.86 65.9943 328.785 66.2443 328.635C66.5043 328.475 66.7093 328.26 66.8593 327.99C67.0093 327.72 67.0843 327.41 67.0843 327.06V325.335C67.0843 324.835 66.9743 324.475 66.7543 324.255C66.5343 324.035 66.1643 323.925 65.6443 323.925C65.2343 323.925 64.8143 323.99 64.3843 324.12C63.9543 324.24 63.5193 324.43 63.0793 324.69L62.5393 323.415C62.7993 323.235 63.1043 323.08 63.4543 322.95C63.8143 322.81 64.1893 322.705 64.5793 322.635C64.9793 322.555 65.3543 322.515 65.7043 322.515C66.4243 322.515 67.0143 322.625 67.4743 322.845C67.9443 323.065 68.2943 323.4 68.5243 323.85C68.7543 324.29 68.8693 324.86 68.8693 325.56V330H67.1143V328.44H67.2343C67.1643 328.79 67.0243 329.095 66.8143 329.355C66.6143 329.605 66.3593 329.8 66.0493 329.94C65.7393 330.08 65.3843 330.15 64.9843 330.15Z" fill="white"/>
<circle opacity="0.48" cx="161" cy="365" r="12" fill="#FF090A"/>
<path d="M154.265 369V367.86L157.001 364.944C157.249 364.68 157.445 364.436 157.589 364.212C157.741 363.988 157.853 363.772 157.925 363.564C157.997 363.356 158.033 363.148 158.033 362.94C158.033 362.54 157.905 362.236 157.649 362.028C157.401 361.82 157.037 361.716 156.557 361.716C156.181 361.716 155.813 361.788 155.453 361.932C155.101 362.068 154.761 362.284 154.433 362.58L153.917 361.428C154.253 361.124 154.673 360.88 155.177 360.696C155.681 360.512 156.205 360.42 156.749 360.42C157.357 360.42 157.869 360.512 158.285 360.696C158.701 360.88 159.017 361.148 159.233 361.5C159.449 361.852 159.557 362.28 159.557 362.784C159.557 363.04 159.525 363.292 159.461 363.54C159.405 363.78 159.313 364.02 159.185 364.26C159.065 364.5 158.909 364.748 158.717 365.004C158.533 365.252 158.309 365.512 158.045 365.784L155.789 368.136V367.728H159.881V369H154.265ZM161.808 369V367.728H163.716V361.836H164.46L162.24 363.18L161.64 362.052L164.16 360.54H165.252V367.728H167.04V369H161.808Z" fill="white"/>
<path opacity="0.48" d="M26.155 370V359.425H28.075V363.835H33.52V359.425H35.44V370H33.52V365.44H28.075V370H26.155ZM41.2966 370.15C40.4666 370.15 39.7516 369.995 39.1516 369.685C38.5516 369.375 38.0866 368.935 37.7566 368.365C37.4366 367.795 37.2766 367.12 37.2766 366.34C37.2766 365.58 37.4316 364.915 37.7416 364.345C38.0616 363.775 38.4966 363.33 39.0466 363.01C39.6066 362.68 40.2416 362.515 40.9516 362.515C41.6516 362.515 42.2516 362.665 42.7516 362.965C43.2516 363.265 43.6366 363.69 43.9066 364.24C44.1866 364.79 44.3266 365.445 44.3266 366.205V366.76H38.7916V365.68H43.0066L42.7666 365.905C42.7666 365.225 42.6166 364.705 42.3166 364.345C42.0166 363.975 41.5866 363.79 41.0266 363.79C40.6066 363.79 40.2466 363.89 39.9466 364.09C39.6566 364.28 39.4316 364.555 39.2716 364.915C39.1216 365.265 39.0466 365.685 39.0466 366.175V366.28C39.0466 366.83 39.1316 367.285 39.3016 367.645C39.4716 368.005 39.7266 368.275 40.0666 368.455C40.4066 368.635 40.8266 368.725 41.3266 368.725C41.7366 368.725 42.1466 368.665 42.5566 368.545C42.9666 368.415 43.3416 368.215 43.6816 367.945L44.2066 369.205C43.8566 369.495 43.4166 369.725 42.8866 369.895C42.3566 370.065 41.8266 370.15 41.2966 370.15ZM45.3265 371.95V368.53H46.1665C46.3665 368.22 46.5215 367.89 46.6315 367.54C46.7515 367.18 46.8365 366.775 46.8865 366.325C46.9465 365.865 46.9765 365.34 46.9765 364.75V362.665H52.6915V368.53H53.8915V371.95H52.3015V370H46.9165V371.95H45.3265ZM47.8615 368.53H50.9365V364.105H48.5815V365.185C48.5815 365.815 48.5165 366.425 48.3865 367.015C48.2665 367.605 48.0915 368.11 47.8615 368.53ZM58.904 370.15C58.074 370.15 57.359 369.995 56.759 369.685C56.159 369.375 55.694 368.935 55.364 368.365C55.044 367.795 54.884 367.12 54.884 366.34C54.884 365.58 55.039 364.915 55.349 364.345C55.669 363.775 56.104 363.33 56.654 363.01C57.214 362.68 57.849 362.515 58.559 362.515C59.259 362.515 59.859 362.665 60.359 362.965C60.859 363.265 61.244 363.69 61.514 364.24C61.794 364.79 61.934 365.445 61.934 366.205V366.76H56.399V365.68H60.614L60.374 365.905C60.374 365.225 60.224 364.705 59.924 364.345C59.624 363.975 59.194 363.79 58.634 363.79C58.214 363.79 57.854 363.89 57.554 364.09C57.264 364.28 57.039 364.555 56.879 364.915C56.729 365.265 56.654 365.685 56.654 366.175V366.28C56.654 366.83 56.739 367.285 56.909 367.645C57.079 368.005 57.334 368.275 57.674 368.455C58.014 368.635 58.434 368.725 58.934 368.725C59.344 368.725 59.754 368.665 60.164 368.545C60.574 368.415 60.949 368.215 61.289 367.945L61.814 369.205C61.464 369.495 61.024 369.725 60.494 369.895C59.964 370.065 59.434 370.15 58.904 370.15ZM63.4139 370.21L62.8289 368.725C63.1489 368.615 63.4139 368.47 63.6239 368.29C63.8439 368.1 64.0189 367.86 64.1489 367.57C64.2789 367.27 64.3739 366.905 64.4339 366.475C64.4939 366.045 64.5239 365.53 64.5239 364.93V362.665H70.4339V370H68.5589V364.135H66.2489V364.99C66.2489 365.78 66.1939 366.475 66.0839 367.075C65.9739 367.675 65.8039 368.185 65.5739 368.605C65.3539 369.025 65.0639 369.37 64.7039 369.64C64.3439 369.9 63.9139 370.09 63.4139 370.21ZM79.3091 370.15C78.6291 370.15 78.0291 370.025 77.5091 369.775C76.9891 369.515 76.5691 369.145 76.2491 368.665C75.9291 368.185 75.7241 367.62 75.6341 366.97H74.3891V370H72.5591V362.665H74.3891V365.5H75.6491C75.8091 364.57 76.2091 363.84 76.8491 363.31C77.4991 362.78 78.3191 362.515 79.3091 362.515C80.0691 362.515 80.7291 362.67 81.2891 362.98C81.8491 363.29 82.2841 363.73 82.5941 364.3C82.9041 364.87 83.0591 365.545 83.0591 366.325C83.0591 367.105 82.9041 367.785 82.5941 368.365C82.2841 368.935 81.8491 369.375 81.2891 369.685C80.7291 369.995 80.0691 370.15 79.3091 370.15ZM79.3091 368.725C79.8691 368.725 80.3191 368.525 80.6591 368.125C80.9991 367.715 81.1691 367.115 81.1691 366.325C81.1691 365.525 80.9991 364.93 80.6591 364.54C80.3191 364.14 79.8691 363.94 79.3091 363.94C78.7591 363.94 78.3091 364.14 77.9591 364.54C77.6191 364.93 77.4491 365.525 77.4491 366.325C77.4491 367.115 77.6191 367.715 77.9591 368.125C78.3091 368.525 78.7591 368.725 79.3091 368.725ZM88.8482 370V362.665H90.7232V365.5H93.9632V362.665H95.8382V370H93.9632V366.97H90.7232V370H88.8482ZM100.404 370.15C99.8742 370.15 99.3992 370.05 98.9792 369.85C98.5692 369.64 98.2442 369.36 98.0042 369.01C97.7742 368.66 97.6592 368.265 97.6592 367.825C97.6592 367.285 97.7992 366.86 98.0792 366.55C98.3592 366.23 98.8142 366 99.4442 365.86C100.074 365.72 100.919 365.65 101.979 365.65H102.729V366.73H101.994C101.524 366.73 101.129 366.75 100.809 366.79C100.489 366.82 100.229 366.875 100.029 366.955C99.8392 367.025 99.6992 367.125 99.6092 367.255C99.5292 367.385 99.4892 367.545 99.4892 367.735C99.4892 368.065 99.6042 368.335 99.8342 368.545C100.064 368.755 100.384 368.86 100.794 368.86C101.124 368.86 101.414 368.785 101.664 368.635C101.924 368.475 102.129 368.26 102.279 367.99C102.429 367.72 102.504 367.41 102.504 367.06V365.335C102.504 364.835 102.394 364.475 102.174 364.255C101.954 364.035 101.584 363.925 101.064 363.925C100.654 363.925 100.234 363.99 99.8042 364.12C99.3742 364.24 98.9392 364.43 98.4992 364.69L97.9592 363.415C98.2192 363.235 98.5242 363.08 98.8742 362.95C99.2342 362.81 99.6092 362.705 99.9992 362.635C100.399 362.555 100.774 362.515 101.124 362.515C101.844 362.515 102.434 362.625 102.894 362.845C103.364 363.065 103.714 363.4 103.944 363.85C104.174 364.29 104.289 364.86 104.289 365.56V370H102.534V368.44H102.654C102.584 368.79 102.444 369.095 102.234 369.355C102.034 369.605 101.779 369.8 101.469 369.94C101.159 370.08 100.804 370.15 100.404 370.15ZM109.097 370.15C108.437 370.15 107.812 370.075 107.222 369.925C106.642 369.765 106.157 369.545 105.767 369.265L106.262 368.035C106.612 368.285 107.037 368.475 107.537 368.605C108.037 368.735 108.542 368.8 109.052 368.8C109.672 368.8 110.122 368.725 110.402 368.575C110.682 368.425 110.822 368.19 110.822 367.87C110.822 367.58 110.722 367.36 110.522 367.21C110.322 367.05 110.017 366.97 109.607 366.97H107.657V365.62H109.427C109.787 365.62 110.062 365.545 110.252 365.395C110.452 365.245 110.552 365.035 110.552 364.765C110.552 364.475 110.427 364.255 110.177 364.105C109.937 363.945 109.522 363.865 108.932 363.865C108.432 363.865 107.972 363.925 107.552 364.045C107.132 364.165 106.737 364.335 106.367 364.555L105.872 363.355C106.282 363.085 106.772 362.88 107.342 362.74C107.922 362.59 108.557 362.515 109.247 362.515C110.227 362.515 110.972 362.7 111.482 363.07C112.002 363.43 112.262 363.935 112.262 364.585C112.262 365.045 112.107 365.435 111.797 365.755C111.487 366.065 111.072 366.255 110.552 366.325V366.115C110.972 366.135 111.327 366.225 111.617 366.385C111.917 366.535 112.142 366.745 112.292 367.015C112.452 367.275 112.532 367.585 112.532 367.945C112.532 368.615 112.237 369.15 111.647 369.55C111.057 369.95 110.207 370.15 109.097 370.15ZM116.591 370.15C116.061 370.15 115.586 370.05 115.166 369.85C114.756 369.64 114.431 369.36 114.191 369.01C113.961 368.66 113.846 368.265 113.846 367.825C113.846 367.285 113.986 366.86 114.266 366.55C114.546 366.23 115.001 366 115.631 365.86C116.261 365.72 117.106 365.65 118.166 365.65H118.916V366.73H118.181C117.711 366.73 117.316 366.75 116.996 366.79C116.676 366.82 116.416 366.875 116.216 366.955C116.026 367.025 115.886 367.125 115.796 367.255C115.716 367.385 115.676 367.545 115.676 367.735C115.676 368.065 115.791 368.335 116.021 368.545C116.251 368.755 116.571 368.86 116.981 368.86C117.311 368.86 117.601 368.785 117.851 368.635C118.111 368.475 118.316 368.26 118.466 367.99C118.616 367.72 118.691 367.41 118.691 367.06V365.335C118.691 364.835 118.581 364.475 118.361 364.255C118.141 364.035 117.771 363.925 117.251 363.925C116.841 363.925 116.421 363.99 115.991 364.12C115.561 364.24 115.126 364.43 114.686 364.69L114.146 363.415C114.406 363.235 114.711 363.08 115.061 362.95C115.421 362.81 115.796 362.705 116.186 362.635C116.586 362.555 116.961 362.515 117.311 362.515C118.031 362.515 118.621 362.625 119.081 362.845C119.551 363.065 119.901 363.4 120.131 363.85C120.361 364.29 120.476 364.86 120.476 365.56V370H118.721V368.44H118.841C118.771 368.79 118.631 369.095 118.421 369.355C118.221 369.605 117.966 369.8 117.656 369.94C117.346 370.08 116.991 370.15 116.591 370.15ZM121.894 371.95V368.53H122.734C122.934 368.22 123.089 367.89 123.199 367.54C123.319 367.18 123.404 366.775 123.454 366.325C123.514 365.865 123.544 365.34 123.544 364.75V362.665H129.259V368.53H130.459V371.95H128.869V370H123.484V371.95H121.894ZM124.429 368.53H127.504V364.105H125.149V365.185C125.149 365.815 125.084 366.425 124.954 367.015C124.834 367.605 124.659 368.11 124.429 368.53Z" fill="white"/>
<circle opacity="0.48" cx="161" cy="405" r="12" fill="#49FF0A"/>
<path d="M156.905 409.12C155.921 409.12 155.149 408.908 154.589 408.484C154.037 408.06 153.761 407.472 153.761 406.72C153.761 406.32 153.841 405.968 154.001 405.664C154.169 405.352 154.397 405.1 154.685 404.908C154.973 404.716 155.301 404.596 155.669 404.548V404.8C155.333 404.728 155.037 404.596 154.781 404.404C154.525 404.204 154.325 403.96 154.181 403.672C154.045 403.376 153.977 403.052 153.977 402.7C153.977 401.988 154.241 401.432 154.769 401.032C155.297 400.624 156.013 400.42 156.917 400.42C157.813 400.42 158.525 400.624 159.053 401.032C159.581 401.432 159.845 401.988 159.845 402.7C159.845 403.052 159.773 403.376 159.629 403.672C159.493 403.968 159.297 404.212 159.041 404.404C158.793 404.596 158.501 404.724 158.165 404.788V404.548C158.541 404.596 158.869 404.72 159.149 404.92C159.429 405.112 159.649 405.364 159.809 405.676C159.969 405.98 160.049 406.328 160.049 406.72C160.049 407.472 159.769 408.06 159.209 408.484C158.657 408.908 157.889 409.12 156.905 409.12ZM156.905 407.92C157.473 407.92 157.901 407.812 158.189 407.596C158.477 407.372 158.621 407.044 158.621 406.612C158.621 406.18 158.477 405.856 158.189 405.64C157.901 405.424 157.473 405.316 156.905 405.316C156.345 405.316 155.917 405.424 155.621 405.64C155.333 405.856 155.189 406.18 155.189 406.612C155.189 407.044 155.333 407.372 155.621 407.596C155.917 407.812 156.345 407.92 156.905 407.92ZM156.905 404.116C157.377 404.116 157.745 404.004 158.009 403.78C158.281 403.556 158.417 403.248 158.417 402.856C158.417 402.472 158.281 402.172 158.009 401.956C157.745 401.732 157.377 401.62 156.905 401.62C156.433 401.62 156.065 401.732 155.801 401.956C155.537 402.172 155.405 402.476 155.405 402.868C155.405 403.252 155.537 403.556 155.801 403.78C156.065 404.004 156.433 404.116 156.905 404.116ZM164.688 409V407.392H161.004V406.264L164.952 400.54H166.224V406.12H167.412V407.392H166.224V409H164.688ZM164.688 406.12V402.376H165.036L162.204 406.528V406.12H164.688Z" fill="white"/>
<path opacity="0.48" d="M26.185 410V399.425H27.79L31.78 406.79H31.3L35.275 399.425H36.85V410H35.11V402.275H35.44L32.08 408.395H30.955L27.565 402.26H27.925V410H26.185ZM42.7175 410.15C41.8875 410.15 41.1725 409.995 40.5725 409.685C39.9725 409.375 39.5075 408.935 39.1775 408.365C38.8575 407.795 38.6975 407.12 38.6975 406.34C38.6975 405.58 38.8525 404.915 39.1625 404.345C39.4825 403.775 39.9175 403.33 40.4675 403.01C41.0275 402.68 41.6625 402.515 42.3725 402.515C43.0725 402.515 43.6725 402.665 44.1725 402.965C44.6725 403.265 45.0575 403.69 45.3275 404.24C45.6075 404.79 45.7475 405.445 45.7475 406.205V406.76H40.2125V405.68H44.4275L44.1875 405.905C44.1875 405.225 44.0375 404.705 43.7375 404.345C43.4375 403.975 43.0075 403.79 42.4475 403.79C42.0275 403.79 41.6675 403.89 41.3675 404.09C41.0775 404.28 40.8525 404.555 40.6925 404.915C40.5425 405.265 40.4675 405.685 40.4675 406.175V406.28C40.4675 406.83 40.5525 407.285 40.7225 407.645C40.8925 408.005 41.1475 408.275 41.4875 408.455C41.8275 408.635 42.2475 408.725 42.7475 408.725C43.1575 408.725 43.5675 408.665 43.9775 408.545C44.3875 408.415 44.7625 408.215 45.1025 407.945L45.6275 409.205C45.2775 409.495 44.8375 409.725 44.3075 409.895C43.7775 410.065 43.2475 410.15 42.7175 410.15ZM50.8274 410.15C50.0574 410.15 49.3874 409.995 48.8174 409.685C48.2474 409.365 47.8074 408.915 47.4974 408.335C47.1874 407.755 47.0324 407.075 47.0324 406.295C47.0324 405.515 47.1874 404.845 47.4974 404.285C47.8074 403.715 48.2474 403.28 48.8174 402.98C49.3874 402.67 50.0574 402.515 50.8274 402.515C51.2974 402.515 51.7624 402.59 52.2224 402.74C52.6824 402.89 53.0624 403.1 53.3624 403.37L52.8074 404.675C52.5474 404.445 52.2524 404.27 51.9224 404.15C51.6024 404.03 51.2924 403.97 50.9924 403.97C50.3424 403.97 49.8374 404.175 49.4774 404.585C49.1274 404.985 48.9524 405.56 48.9524 406.31C48.9524 407.05 49.1274 407.635 49.4774 408.065C49.8374 408.485 50.3424 408.695 50.9924 408.695C51.2824 408.695 51.5924 408.635 51.9224 408.515C52.2524 408.395 52.5474 408.215 52.8074 407.975L53.3624 409.295C53.0624 409.555 52.6774 409.765 52.2074 409.925C51.7474 410.075 51.2874 410.15 50.8274 410.15ZM54.0873 410L55.1823 408.11C55.3723 407.77 55.6123 407.5 55.9023 407.3C56.1923 407.09 56.4923 406.985 56.8023 406.985H57.1023V407.15C56.5323 407.15 56.0473 407.065 55.6473 406.895C55.2473 406.725 54.9423 406.475 54.7323 406.145C54.5323 405.815 54.4323 405.415 54.4323 404.945C54.4323 404.235 54.6723 403.68 55.1523 403.28C55.6323 402.87 56.3373 402.665 57.2673 402.665H61.0023V410H59.2623V407.465H58.4823C58.1823 407.465 57.9223 407.545 57.7023 407.705C57.4823 407.865 57.3023 408.065 57.1623 408.305L56.2023 410H54.0873ZM57.6573 406.235H59.2623V403.895H57.6573C57.1673 403.895 56.8023 404 56.5623 404.21C56.3223 404.41 56.2023 404.69 56.2023 405.05C56.2023 405.42 56.3223 405.71 56.5623 405.92C56.8023 406.13 57.1673 406.235 57.6573 406.235ZM69.5005 411.95V410H63.1255V402.665H65.0005V408.53H68.0155V402.665H69.8905V408.53H71.0905V411.95H69.5005ZM76.5142 410V402.665H78.3892V405.5H81.6292V402.665H83.5042V410H81.6292V406.97H78.3892V410H76.5142ZM88.0702 410.15C87.5402 410.15 87.0652 410.05 86.6452 409.85C86.2352 409.64 85.9102 409.36 85.6702 409.01C85.4402 408.66 85.3252 408.265 85.3252 407.825C85.3252 407.285 85.4652 406.86 85.7452 406.55C86.0252 406.23 86.4802 406 87.1102 405.86C87.7402 405.72 88.5852 405.65 89.6452 405.65H90.3952V406.73H89.6602C89.1902 406.73 88.7952 406.75 88.4752 406.79C88.1552 406.82 87.8952 406.875 87.6952 406.955C87.5052 407.025 87.3652 407.125 87.2752 407.255C87.1952 407.385 87.1552 407.545 87.1552 407.735C87.1552 408.065 87.2702 408.335 87.5002 408.545C87.7302 408.755 88.0502 408.86 88.4602 408.86C88.7902 408.86 89.0802 408.785 89.3302 408.635C89.5902 408.475 89.7952 408.26 89.9452 407.99C90.0952 407.72 90.1702 407.41 90.1702 407.06V405.335C90.1702 404.835 90.0602 404.475 89.8402 404.255C89.6202 404.035 89.2502 403.925 88.7302 403.925C88.3202 403.925 87.9002 403.99 87.4702 404.12C87.0402 404.24 86.6052 404.43 86.1652 404.69L85.6252 403.415C85.8852 403.235 86.1902 403.08 86.5402 402.95C86.9002 402.81 87.2752 402.705 87.6652 402.635C88.0652 402.555 88.4402 402.515 88.7902 402.515C89.5102 402.515 90.1002 402.625 90.5602 402.845C91.0302 403.065 91.3802 403.4 91.6102 403.85C91.8402 404.29 91.9552 404.86 91.9552 405.56V410H90.2002V408.44H90.3202C90.2502 408.79 90.1102 409.095 89.9002 409.355C89.7002 409.605 89.4452 409.8 89.1352 409.94C88.8252 410.08 88.4702 410.15 88.0702 410.15ZM96.7634 410.15C96.1034 410.15 95.4784 410.075 94.8884 409.925C94.3084 409.765 93.8234 409.545 93.4334 409.265L93.9284 408.035C94.2784 408.285 94.7034 408.475 95.2034 408.605C95.7034 408.735 96.2084 408.8 96.7184 408.8C97.3384 408.8 97.7884 408.725 98.0684 408.575C98.3484 408.425 98.4884 408.19 98.4884 407.87C98.4884 407.58 98.3884 407.36 98.1884 407.21C97.9884 407.05 97.6834 406.97 97.2734 406.97H95.3234V405.62H97.0934C97.4534 405.62 97.7284 405.545 97.9184 405.395C98.1184 405.245 98.2184 405.035 98.2184 404.765C98.2184 404.475 98.0934 404.255 97.8434 404.105C97.6034 403.945 97.1884 403.865 96.5984 403.865C96.0984 403.865 95.6384 403.925 95.2184 404.045C94.7984 404.165 94.4034 404.335 94.0334 404.555L93.5384 403.355C93.9484 403.085 94.4384 402.88 95.0084 402.74C95.5884 402.59 96.2234 402.515 96.9134 402.515C97.8934 402.515 98.6384 402.7 99.1484 403.07C99.6684 403.43 99.9284 403.935 99.9284 404.585C99.9284 405.045 99.7734 405.435 99.4634 405.755C99.1534 406.065 98.7384 406.255 98.2184 406.325V406.115C98.6384 406.135 98.9934 406.225 99.2834 406.385C99.5834 406.535 99.8084 406.745 99.9584 407.015C100.118 407.275 100.198 407.585 100.198 407.945C100.198 408.615 99.9034 409.15 99.3134 409.55C98.7234 409.95 97.8734 410.15 96.7634 410.15ZM104.257 410.15C103.727 410.15 103.252 410.05 102.832 409.85C102.422 409.64 102.097 409.36 101.857 409.01C101.627 408.66 101.512 408.265 101.512 407.825C101.512 407.285 101.652 406.86 101.932 406.55C102.212 406.23 102.667 406 103.297 405.86C103.927 405.72 104.772 405.65 105.832 405.65H106.582V406.73H105.847C105.377 406.73 104.982 406.75 104.662 406.79C104.342 406.82 104.082 406.875 103.882 406.955C103.692 407.025 103.552 407.125 103.462 407.255C103.382 407.385 103.342 407.545 103.342 407.735C103.342 408.065 103.457 408.335 103.687 408.545C103.917 408.755 104.237 408.86 104.647 408.86C104.977 408.86 105.267 408.785 105.517 408.635C105.777 408.475 105.982 408.26 106.132 407.99C106.282 407.72 106.357 407.41 106.357 407.06V405.335C106.357 404.835 106.247 404.475 106.027 404.255C105.807 404.035 105.437 403.925 104.917 403.925C104.507 403.925 104.087 403.99 103.657 404.12C103.227 404.24 102.792 404.43 102.352 404.69L101.812 403.415C102.072 403.235 102.377 403.08 102.727 402.95C103.087 402.81 103.462 402.705 103.852 402.635C104.252 402.555 104.627 402.515 104.977 402.515C105.697 402.515 106.287 402.625 106.747 402.845C107.217 403.065 107.567 403.4 107.797 403.85C108.027 404.29 108.142 404.86 108.142 405.56V410H106.387V408.44H106.507C106.437 408.79 106.297 409.095 106.087 409.355C105.887 409.605 105.632 409.8 105.322 409.94C105.012 410.08 104.657 410.15 104.257 410.15ZM109.56 411.95V408.53H110.4C110.6 408.22 110.755 407.89 110.865 407.54C110.985 407.18 111.07 406.775 111.12 406.325C111.18 405.865 111.21 405.34 111.21 404.75V402.665H116.925V408.53H118.125V411.95H116.535V410H111.15V411.95H109.56ZM112.095 408.53H115.17V404.105H112.815V405.185C112.815 405.815 112.75 406.425 112.62 407.015C112.5 407.605 112.325 408.11 112.095 408.53Z" fill="white"/>
<path d="M28.2238 284V273.425H37.4188V284H35.4988V275.03H30.1438V284H28.2238ZM39.6479 286.7V276.665H41.4779V278.21H41.3279C41.4779 277.7 41.7829 277.29 42.2429 276.98C42.7129 276.67 43.2579 276.515 43.8779 276.515C44.5179 276.515 45.0779 276.67 45.5579 276.98C46.0479 277.29 46.4279 277.73 46.6979 278.3C46.9679 278.86 47.1029 279.535 47.1029 280.325C47.1029 281.105 46.9679 281.785 46.6979 282.365C46.4279 282.935 46.0529 283.375 45.5729 283.685C45.0929 283.995 44.5279 284.15 43.8779 284.15C43.2679 284.15 42.7329 284 42.2729 283.7C41.8129 283.39 41.5029 282.99 41.3429 282.5H41.5229V286.7H39.6479ZM43.3529 282.725C43.9129 282.725 44.3629 282.525 44.7029 282.125C45.0429 281.715 45.2129 281.115 45.2129 280.325C45.2129 279.525 45.0429 278.93 44.7029 278.54C44.3629 278.14 43.9129 277.94 43.3529 277.94C42.7929 277.94 42.3429 278.14 42.0029 278.54C41.6629 278.93 41.4929 279.525 41.4929 280.325C41.4929 281.115 41.6629 281.715 42.0029 282.125C42.3429 282.525 42.7929 282.725 43.3529 282.725ZM52.2067 284.15C51.4467 284.15 50.7867 283.995 50.2267 283.685C49.6667 283.375 49.2317 282.935 48.9217 282.365C48.6117 281.785 48.4567 281.105 48.4567 280.325C48.4567 279.545 48.6117 278.87 48.9217 278.3C49.2317 277.73 49.6667 277.29 50.2267 276.98C50.7867 276.67 51.4467 276.515 52.2067 276.515C52.9667 276.515 53.6267 276.67 54.1867 276.98C54.7467 277.29 55.1817 277.73 55.4917 278.3C55.8017 278.87 55.9567 279.545 55.9567 280.325C55.9567 281.105 55.8017 281.785 55.4917 282.365C55.1817 282.935 54.7467 283.375 54.1867 283.685C53.6267 283.995 52.9667 284.15 52.2067 284.15ZM52.2067 282.725C52.7667 282.725 53.2167 282.525 53.5567 282.125C53.8967 281.715 54.0667 281.115 54.0667 280.325C54.0667 279.525 53.8967 278.93 53.5567 278.54C53.2167 278.14 52.7667 277.94 52.2067 277.94C51.6467 277.94 51.1967 278.14 50.8567 278.54C50.5167 278.93 50.3467 279.525 50.3467 280.325C50.3467 281.115 50.5167 281.715 50.8567 282.125C51.1967 282.525 51.6467 282.725 52.2067 282.725ZM57.6944 284V276.665H59.4644V282.53H61.9844V276.665H63.7544V282.53H66.2744V276.665H68.0444V284H57.6944ZM69.9799 284.21L69.3949 282.725C69.7149 282.615 69.9799 282.47 70.1899 282.29C70.4099 282.1 70.5849 281.86 70.7149 281.57C70.8449 281.27 70.9399 280.905 70.9999 280.475C71.0599 280.045 71.0899 279.53 71.0899 278.93V276.665H76.9999V284H75.1249V278.135H72.8149V278.99C72.8149 279.78 72.7599 280.475 72.6499 281.075C72.5399 281.675 72.3699 282.185 72.1399 282.605C71.9199 283.025 71.6299 283.37 71.2699 283.64C70.9099 283.9 70.4799 284.09 69.9799 284.21ZM79.1251 284V276.665H81.0001V279.095H82.9351C83.9051 279.095 84.6351 279.3 85.1251 279.71C85.6251 280.12 85.8751 280.72 85.8751 281.51C85.8751 282.01 85.7551 282.45 85.5151 282.83C85.2751 283.2 84.9351 283.49 84.4951 283.7C84.0651 283.9 83.5451 284 82.9351 284H79.1251ZM81.0001 282.77H82.6501C83.1201 282.77 83.4851 282.67 83.7451 282.47C84.0051 282.26 84.1351 281.945 84.1351 281.525C84.1351 281.115 84.0051 280.815 83.7451 280.625C83.4851 280.425 83.1201 280.325 82.6501 280.325H81.0001V282.77ZM86.7601 284V276.665H88.6351V284H86.7601ZM94.4006 284.15C93.5706 284.15 92.8556 283.995 92.2556 283.685C91.6556 283.375 91.1906 282.935 90.8606 282.365C90.5406 281.795 90.3806 281.12 90.3806 280.34C90.3806 279.58 90.5356 278.915 90.8456 278.345C91.1656 277.775 91.6006 277.33 92.1506 277.01C92.7106 276.68 93.3456 276.515 94.0556 276.515C94.7556 276.515 95.3556 276.665 95.8556 276.965C96.3556 277.265 96.7406 277.69 97.0106 278.24C97.2906 278.79 97.4306 279.445 97.4306 280.205V280.76H91.8956V279.68H96.1106L95.8706 279.905C95.8706 279.225 95.7206 278.705 95.4206 278.345C95.1206 277.975 94.6906 277.79 94.1306 277.79C93.7106 277.79 93.3506 277.89 93.0506 278.09C92.7606 278.28 92.5356 278.555 92.3756 278.915C92.2256 279.265 92.1506 279.685 92.1506 280.175V280.28C92.1506 280.83 92.2356 281.285 92.4056 281.645C92.5756 282.005 92.8306 282.275 93.1706 282.455C93.5106 282.635 93.9306 282.725 94.4306 282.725C94.8406 282.725 95.2506 282.665 95.6606 282.545C96.0706 282.415 96.4456 282.215 96.7856 281.945L97.3106 283.205C96.9606 283.495 96.5206 283.725 95.9906 283.895C95.4606 284.065 94.9306 284.15 94.4006 284.15ZM105.863 284.15C105.203 284.15 104.578 284.075 103.988 283.925C103.408 283.765 102.923 283.545 102.533 283.265L103.028 282.035C103.378 282.285 103.803 282.475 104.303 282.605C104.803 282.735 105.308 282.8 105.818 282.8C106.438 282.8 106.888 282.725 107.168 282.575C107.448 282.425 107.588 282.19 107.588 281.87C107.588 281.58 107.488 281.36 107.288 281.21C107.088 281.05 106.783 280.97 106.373 280.97H104.423V279.62H106.193C106.553 279.62 106.828 279.545 107.018 279.395C107.218 279.245 107.318 279.035 107.318 278.765C107.318 278.475 107.193 278.255 106.943 278.105C106.703 277.945 106.288 277.865 105.698 277.865C105.198 277.865 104.738 277.925 104.318 278.045C103.898 278.165 103.503 278.335 103.133 278.555L102.638 277.355C103.048 277.085 103.538 276.88 104.108 276.74C104.688 276.59 105.323 276.515 106.013 276.515C106.993 276.515 107.738 276.7 108.248 277.07C108.768 277.43 109.028 277.935 109.028 278.585C109.028 279.045 108.873 279.435 108.563 279.755C108.253 280.065 107.838 280.255 107.318 280.325V280.115C107.738 280.135 108.093 280.225 108.383 280.385C108.683 280.535 108.908 280.745 109.058 281.015C109.218 281.275 109.298 281.585 109.298 281.945C109.298 282.615 109.003 283.15 108.413 283.55C107.823 283.95 106.973 284.15 105.863 284.15ZM110.927 284V276.665H112.802V279.5H116.042V276.665H117.917V284H116.042V280.97H112.802V284H110.927ZM122.483 284.15C121.953 284.15 121.478 284.05 121.058 283.85C120.648 283.64 120.323 283.36 120.083 283.01C119.853 282.66 119.738 282.265 119.738 281.825C119.738 281.285 119.878 280.86 120.158 280.55C120.438 280.23 120.893 280 121.523 279.86C122.153 279.72 122.998 279.65 124.058 279.65H124.808V280.73H124.073C123.603 280.73 123.208 280.75 122.888 280.79C122.568 280.82 122.308 280.875 122.108 280.955C121.918 281.025 121.778 281.125 121.688 281.255C121.608 281.385 121.568 281.545 121.568 281.735C121.568 282.065 121.683 282.335 121.913 282.545C122.143 282.755 122.463 282.86 122.873 282.86C123.203 282.86 123.493 282.785 123.743 282.635C124.003 282.475 124.208 282.26 124.358 281.99C124.508 281.72 124.583 281.41 124.583 281.06V279.335C124.583 278.835 124.473 278.475 124.253 278.255C124.033 278.035 123.663 277.925 123.143 277.925C122.733 277.925 122.313 277.99 121.883 278.12C121.453 278.24 121.018 278.43 120.578 278.69L120.038 277.415C120.298 277.235 120.603 277.08 120.953 276.95C121.313 276.81 121.688 276.705 122.078 276.635C122.478 276.555 122.853 276.515 123.203 276.515C123.923 276.515 124.513 276.625 124.973 276.845C125.443 277.065 125.793 277.4 126.023 277.85C126.253 278.29 126.368 278.86 126.368 279.56V284H124.613V282.44H124.733C124.663 282.79 124.523 283.095 124.313 283.355C124.113 283.605 123.858 283.8 123.548 283.94C123.238 284.08 122.883 284.15 122.483 284.15ZM133.096 284V281.345C132.826 281.475 132.546 281.575 132.256 281.645C131.976 281.705 131.686 281.735 131.386 281.735C130.666 281.735 130.066 281.62 129.586 281.39C129.106 281.15 128.746 280.795 128.506 280.325C128.276 279.855 128.161 279.27 128.161 278.57V276.665H130.036V278.405C130.036 278.825 130.091 279.17 130.201 279.44C130.321 279.71 130.501 279.91 130.741 280.04C130.991 280.16 131.316 280.22 131.716 280.22C131.986 280.22 132.231 280.19 132.451 280.13C132.671 280.07 132.876 279.975 133.066 279.845V276.665H134.941V284H133.096ZM140.704 284.15C139.874 284.15 139.159 283.995 138.559 283.685C137.959 283.375 137.494 282.935 137.164 282.365C136.844 281.795 136.684 281.12 136.684 280.34C136.684 279.58 136.839 278.915 137.149 278.345C137.469 277.775 137.904 277.33 138.454 277.01C139.014 276.68 139.649 276.515 140.359 276.515C141.059 276.515 141.659 276.665 142.159 276.965C142.659 277.265 143.044 277.69 143.314 278.24C143.594 278.79 143.734 279.445 143.734 280.205V280.76H138.199V279.68H142.414L142.174 279.905C142.174 279.225 142.024 278.705 141.724 278.345C141.424 277.975 140.994 277.79 140.434 277.79C140.014 277.79 139.654 277.89 139.354 278.09C139.064 278.28 138.839 278.555 138.679 278.915C138.529 279.265 138.454 279.685 138.454 280.175V280.28C138.454 280.83 138.539 281.285 138.709 281.645C138.879 282.005 139.134 282.275 139.474 282.455C139.814 282.635 140.234 282.725 140.734 282.725C141.144 282.725 141.554 282.665 141.964 282.545C142.374 282.415 142.749 282.215 143.089 281.945L143.614 283.205C143.264 283.495 142.824 283.725 142.294 283.895C141.764 284.065 141.234 284.15 140.704 284.15ZM145.409 284V276.665H147.284V279.5H150.524V276.665H152.399V284H150.524V280.97H147.284V284H145.409ZM154.535 284V276.665H156.23V282.08H155.84L159.905 276.665H161.465V284H159.77V278.57H160.175L156.095 284H154.535ZM162.958 284L164.053 282.11C164.243 281.77 164.483 281.5 164.773 281.3C165.063 281.09 165.363 280.985 165.673 280.985H165.973V281.15C165.403 281.15 164.918 281.065 164.518 280.895C164.118 280.725 163.813 280.475 163.603 280.145C163.403 279.815 163.303 279.415 163.303 278.945C163.303 278.235 163.543 277.68 164.023 277.28C164.503 276.87 165.208 276.665 166.138 276.665H169.873V284H168.133V281.465H167.353C167.053 281.465 166.793 281.545 166.573 281.705C166.353 281.865 166.173 282.065 166.033 282.305L165.073 284H162.958ZM166.528 280.235H168.133V277.895H166.528C166.038 277.895 165.673 278 165.433 278.21C165.193 278.41 165.073 278.69 165.073 279.05C165.073 279.42 165.193 279.71 165.433 279.92C165.673 280.13 166.038 280.235 166.528 280.235Z" fill="white"/>
<defs>
<filter id="filter0_d_237_336" x="75" y="137" width="48" height="48" filterUnits="userSpaceOnUse" color-interpolation-filters="sRGB">
<feFlood flood-opacity="0" result="BackgroundImageFix"/>
<feColorMatrix in="SourceAlpha" type="matrix" values="0 0 0 0 0 0 0 0 0 0 0 0 0 0 0 0 0 0 127 0" result="hardAlpha"/>
<feMorphology radius="4" operator="dilate" in="SourceAlpha" result="effect1_dropShadow_237_336"/>
<feOffset/>
<feGaussianBlur stdDeviation="4"/>
<feComposite in2="hardAlpha" operator="out"/>
<feColorMatrix type="matrix" values="0 0 0 0 0.627451 0 0 0 0 0.415686 0 0 0 0 1 0 0 0 0.24 0"/>
<feBlend mode="normal" in2="BackgroundImageFix" result="effect1_dropShadow_237_336"/>
<feBlend mode="normal" in="SourceGraphic" in2="effect1_dropShadow_237_336" result="shape"/>
</filter>
<filter id="filter1_d_237_336" x="85.9674" y="95.482" width="26.0652" height="58.518" filterUnits="userSpaceOnUse" color-interpolation-filters="sRGB">
<feFlood flood-opacity="0" result="BackgroundImageFix"/>
<feColorMatrix in="SourceAlpha" type="matrix" values="0 0 0 0 0 0 0 0 0 0 0 0 0 0 0 0 0 0 127 0" result="hardAlpha"/>
<feOffset/>
<feGaussianBlur stdDeviation="4"/>
<feComposite in2="hardAlpha" operator="out"/>
<feColorMatrix type="matrix" values="0 0 0 0 0.627451 0 0 0 0 0.415686 0 0 0 0 1 0 0 0 0.24 0"/>
<feBlend mode="normal" in2="BackgroundImageFix" result="effect1_dropShadow_237_336"/>
<feBlend mode="normal" in="SourceGraphic" in2="effect1_dropShadow_237_336" result="shape"/>
</filter>
</defs>
</svg>
