<svg width="94" height="96" viewBox="0 0 94 96" fill="none" xmlns="http://www.w3.org/2000/svg">
<path opacity="0.981" fill-rule="evenodd" clip-rule="evenodd" d="M46.9683 6.77954C47.1681 6.92112 47.3595 7.07574 47.5427 7.24335C47.5567 20.5182 47.5567 33.7929 47.5427 47.0679C47.3535 46.912 47.1587 46.7643 46.9579 46.6252C46.7841 46.7726 46.6099 46.9201 46.4357 47.0679C46.4217 33.786 46.4217 20.5042 46.4357 7.22227C46.6128 7.07178 46.7904 6.92421 46.9683 6.77954Z" fill="#A06AFF"/>
<path opacity="0.981" fill-rule="evenodd" clip-rule="evenodd" d="M43.3975 9.62561C43.422 22.8759 43.4253 36.1297 43.408 49.3869C43.0395 49.6712 42.6739 49.9592 42.3113 50.2513C42.2868 37.0046 42.2834 23.7577 42.3008 10.5111C42.6643 10.2108 43.0298 9.91561 43.3975 9.62561Z" fill="#A06AFF"/>
<path opacity="0.981" fill-rule="evenodd" clip-rule="evenodd" d="M50.5617 9.73096C50.9359 10.01 51.305 10.2981 51.6689 10.5953C51.6897 23.842 51.6967 37.0888 51.6897 50.3356C51.6678 50.3388 51.647 50.3352 51.6271 50.325C51.2756 50.0404 50.9237 49.7558 50.5722 49.4712C50.5617 36.2245 50.5583 22.9776 50.5617 9.73096Z" fill="#A06AFF"/>
<path opacity="0.999" fill-rule="evenodd" clip-rule="evenodd" d="M39.2611 12.9146C39.2889 26.1648 39.2889 39.4187 39.2611 52.6758C38.906 52.9569 38.5509 53.2382 38.1957 53.5192C38.1713 40.2725 38.168 27.0256 38.1853 13.7789C38.5435 13.4878 38.902 13.1997 39.2611 12.9146Z" fill="#A06AFF"/>
<path opacity="0.999" fill-rule="evenodd" clip-rule="evenodd" d="M54.697 13.02C55.0707 13.295 55.4363 13.5831 55.7936 13.8844C55.811 27.131 55.8077 40.378 55.7832 53.6246C55.4217 53.3405 55.063 53.0525 54.7075 52.7602C54.697 39.5135 54.6935 26.2667 54.697 13.02Z" fill="#A06AFF"/>
<path opacity="0.981" fill-rule="evenodd" clip-rule="evenodd" d="M35.1237 16.2034C35.1515 22.8196 35.1654 29.443 35.1654 36.0735C35.1619 42.6969 35.1585 49.3201 35.155 55.9435C34.7875 56.2293 34.4221 56.5173 34.0584 56.808C34.0339 43.5613 34.0305 30.3144 34.0479 17.0677C34.4062 16.7767 34.7646 16.4885 35.1237 16.2034Z" fill="#A06AFF"/>
<path opacity="0.981" fill-rule="evenodd" clip-rule="evenodd" d="M58.8115 16.2877C59.1861 16.5672 59.5552 16.8554 59.9187 17.1521C59.9431 30.4059 59.9465 43.6596 59.9291 56.9135C59.5606 56.6292 59.1951 56.3412 58.8324 56.049C58.8115 42.7951 58.8047 29.5416 58.8115 16.2877Z" fill="#A06AFF"/>
<path opacity="0.981" fill-rule="evenodd" clip-rule="evenodd" d="M31.0093 19.4711C31.0338 32.7213 31.037 45.9752 31.0198 59.2323C30.6523 59.5181 30.2867 59.806 29.9231 60.0968C29.8986 46.85 29.8953 33.6032 29.9126 20.3565C30.2816 20.0634 30.647 19.7683 31.0093 19.4711Z" fill="#A06AFF"/>
<path opacity="0.981" fill-rule="evenodd" clip-rule="evenodd" d="M62.9478 19.5767C63.3219 19.8557 63.691 20.1439 64.0548 20.441C64.0793 33.6949 64.0827 46.9485 64.0654 60.2024C63.6904 59.9152 63.3213 59.6201 62.9582 59.3169C62.9478 46.0702 62.9442 32.8233 62.9478 19.5767Z" fill="#A06AFF"/>
<path opacity="0.999" fill-rule="evenodd" clip-rule="evenodd" d="M26.8746 22.76C26.8991 36.0103 26.9024 49.2641 26.8851 62.5213C26.517 62.8015 26.155 63.0895 25.7988 63.3857C25.7848 50.1319 25.7848 36.8782 25.7988 23.6243C26.1646 23.3434 26.5233 23.0554 26.8746 22.76Z" fill="#A06AFF"/>
<path opacity="0.999" fill-rule="evenodd" clip-rule="evenodd" d="M67.0852 22.8654C67.4145 23.1169 67.7419 23.3731 68.067 23.6348C68.0879 23.6489 68.1087 23.6489 68.1296 23.6348C68.1444 23.6085 68.1617 23.5838 68.1819 23.5611C68.1992 36.864 68.1959 50.167 68.1714 63.47C67.8098 63.1857 67.4511 62.8977 67.0956 62.6055C67.0852 49.3589 67.0816 36.112 67.0852 22.8654Z" fill="#A06AFF"/>
<path opacity="0.984" fill-rule="evenodd" clip-rule="evenodd" d="M31.5328 65.2831C31.8879 65.2831 32.243 65.2831 32.5982 65.2831C34.6313 69.6963 36.6646 74.1097 38.6977 78.5228C37.9875 78.5264 37.2773 78.5228 36.567 78.5123C35.9792 77.2035 35.3874 75.8964 34.7915 74.591C32.6886 74.5735 30.5859 74.5769 28.483 74.6015C27.9086 75.9017 27.3342 77.2016 26.7597 78.5017C26.4376 78.5226 26.1137 78.5296 25.7883 78.5228C27.6949 74.1063 29.6098 69.6931 31.5328 65.2831ZM31.6373 67.5178C32.5768 69.6099 33.5168 71.704 34.4573 73.8004C32.5843 73.825 30.7112 73.8284 28.8382 73.8109C29.7734 71.7138 30.7062 69.6162 31.6373 67.5178Z" fill="white"/>
<path opacity="0.983" fill-rule="evenodd" clip-rule="evenodd" d="M41.078 65.2831C41.83 65.2795 42.582 65.2831 43.334 65.2936C44.6464 67.0961 45.9592 68.8987 47.2716 70.7012C48.6091 68.9052 49.9424 67.1061 51.2719 65.3042C51.5852 65.2761 51.8985 65.2761 52.2119 65.3042C50.7465 67.3418 49.2772 69.3762 47.8043 71.4076C49.5048 73.781 51.2177 76.1456 52.9429 78.5017C52.1769 78.5297 51.4112 78.5297 50.6452 78.5017C49.2182 76.5311 47.7874 74.5634 46.3525 72.5986C44.903 74.5604 43.4617 76.5282 42.0285 78.5017C41.7131 78.5295 41.3961 78.5295 41.078 78.5017C42.663 76.2963 44.2506 74.0932 45.8407 71.8924C44.2651 69.7047 42.6808 67.5227 41.0885 65.3463C41.0785 65.3264 41.0749 65.3052 41.078 65.2831Z" fill="white"/>
<path opacity="0.984" fill-rule="evenodd" clip-rule="evenodd" d="M61.0258 65.2832C61.3811 65.2763 61.7363 65.2832 62.0911 65.3043C64.1326 69.7078 66.1657 74.114 68.1907 78.523C67.4802 78.53 66.7701 78.523 66.06 78.5018C65.4633 77.199 64.8783 75.8919 64.3054 74.5805C62.1956 74.5805 60.0858 74.5805 57.976 74.5805C57.4094 75.8887 56.8384 77.1958 56.2631 78.5018C55.9362 78.523 55.6089 78.53 55.2814 78.523C57.1963 74.1098 59.111 69.6964 61.0258 65.2832ZM61.1303 67.4969C62.0749 69.5937 63.0149 71.6949 63.9503 73.8006C62.0773 73.8252 60.2043 73.8286 58.3311 73.8111C59.2786 71.7123 60.2118 69.6075 61.1303 67.4969Z" fill="white"/>
<path opacity="0.97" fill-rule="evenodd" clip-rule="evenodd" d="M28.6701 82.4652C29.3551 82.4032 30.0163 82.498 30.6545 82.7498C31.4443 83.1105 31.897 83.7252 32.0123 84.5945C31.6849 84.5945 31.3578 84.5945 31.0305 84.5945C30.9119 83.6422 30.3896 83.0624 29.4639 82.8553C28.329 82.7196 27.5388 83.1801 27.0929 84.2361C26.7151 85.2757 26.6942 86.3228 27.0303 87.3774C27.5252 88.6899 28.4547 89.1995 29.8189 88.9059C30.5798 88.6191 31.0115 88.0674 31.1141 87.2509C31.4414 87.2509 31.7685 87.2509 32.0959 87.2509C31.9079 88.3014 31.3021 88.9655 30.2785 89.2432C29.4327 89.4502 28.5972 89.415 27.7719 89.1377C26.9162 88.7943 26.3278 88.1863 26.0068 87.3142C25.8041 86.7044 25.7346 86.0789 25.7979 85.4378C25.8837 84.3557 26.3676 83.516 27.2496 82.9185C27.6952 82.6692 28.1686 82.5181 28.6701 82.4652Z" fill="white"/>
<path opacity="0.975" fill-rule="evenodd" clip-rule="evenodd" d="M35.9189 82.5283C36.1122 82.5216 36.3036 82.5288 36.4933 82.5495C37.5335 84.7964 38.5675 87.0452 39.5953 89.2958C39.2263 89.2958 38.8573 89.2958 38.4882 89.2958C38.2033 88.6188 37.904 87.9476 37.59 87.2824C36.5247 87.2683 35.4593 87.2683 34.394 87.2824C34.0941 87.9444 33.7983 88.6085 33.5062 89.2747C33.3375 89.2953 33.1668 89.3026 32.9945 89.2958C33.9635 87.0376 34.9382 84.7819 35.9189 82.5283ZM35.9816 83.6879C36.4697 84.7473 36.9502 85.8119 37.4229 86.8819C36.4689 86.896 35.5152 86.896 34.5612 86.8819C35.0377 85.8182 35.5111 84.7536 35.9816 83.6879Z" fill="white"/>
<path opacity="0.988" fill-rule="evenodd" clip-rule="evenodd" d="M41.0989 82.5283C41.9693 82.5247 42.8396 82.5283 43.7099 82.5388C44.3299 82.5833 44.8731 82.8081 45.3393 83.2136C45.8707 83.7924 46.0065 84.4565 45.7466 85.2058C45.5045 85.7341 45.111 86.0959 44.5664 86.2915C44.3499 86.3738 44.1274 86.4298 43.898 86.4602C43.2859 86.4903 42.673 86.5009 42.0597 86.4918C42.0597 87.4264 42.0597 88.3612 42.0597 89.2958C41.7395 89.2958 41.419 89.2958 41.0989 89.2958C41.0989 87.04 41.0989 84.7841 41.0989 82.5283ZM42.0597 82.9289C42.5055 82.9253 42.951 82.9289 43.3966 82.9394C44.0742 83.0261 44.5371 83.388 44.7857 84.0251C44.9631 84.6763 44.8136 85.2349 44.3366 85.7012C44.0648 85.9099 43.7586 86.0364 43.4175 86.0807C42.9654 86.1088 42.5128 86.1193 42.0597 86.1123C42.0597 85.0512 42.0597 83.99 42.0597 82.9289Z" fill="white"/>
<path opacity="0.978" fill-rule="evenodd" clip-rule="evenodd" d="M47.4698 82.5283C47.7972 82.5283 48.1243 82.5283 48.4517 82.5283C48.4517 84.7842 48.4517 87.04 48.4517 89.2958C48.1243 89.2958 47.7972 89.2958 47.4698 89.2958C47.4698 87.04 47.4698 84.7842 47.4698 82.5283Z" fill="white"/>
<path opacity="0.974" fill-rule="evenodd" clip-rule="evenodd" d="M49.9353 82.5283C51.8989 82.5283 53.8625 82.5283 55.826 82.5283C55.826 82.6618 55.826 82.7954 55.826 82.9289C55.0045 82.9289 54.1826 82.9289 53.3612 82.9289C53.3612 85.0513 53.3612 87.1735 53.3612 89.2958C53.0338 89.2958 52.7067 89.2958 52.3793 89.2958C52.3793 87.1735 52.3793 85.0513 52.3793 82.9289C51.5646 82.9289 50.75 82.9289 49.9353 82.9289C49.9353 82.7954 49.9353 82.6618 49.9353 82.5283Z" fill="white"/>
<path opacity="0.976" fill-rule="evenodd" clip-rule="evenodd" d="M58.5611 82.5285C58.7495 82.5216 58.9375 82.5285 59.1251 82.5496C60.1568 84.7938 61.1943 87.0357 62.2376 89.2749C61.8684 89.3029 61.4996 89.3029 61.1304 89.2749C60.831 88.6143 60.5315 87.9536 60.2322 87.2931C59.16 87.2651 58.0875 87.2651 57.0153 87.2931C56.7229 87.9536 56.4304 88.6143 56.138 89.2749C55.964 89.3029 55.7897 89.3029 55.6157 89.2749C56.5977 87.0256 57.5795 84.7767 58.5611 82.5285ZM58.6029 83.688C59.1052 84.7443 59.5857 85.8124 60.0442 86.8925C59.0971 86.8995 58.1501 86.8925 57.2033 86.8715C57.676 85.8121 58.1424 84.751 58.6029 83.688Z" fill="white"/>
<path opacity="0.976" fill-rule="evenodd" clip-rule="evenodd" d="M63.7224 82.5283C64.0497 82.5283 64.3768 82.5283 64.7042 82.5283C64.7042 84.6507 64.7042 86.7729 64.7042 88.8953C65.8671 88.8953 67.0298 88.8953 68.1926 88.8953C68.1926 89.0286 68.1926 89.1624 68.1926 89.2958C66.7025 89.2958 65.2124 89.2958 63.7224 89.2958C63.7224 87.04 63.7224 84.7842 63.7224 82.5283Z" fill="white"/>
</svg>
