<svg width="36" height="36" viewBox="0 0 36 36" fill="none" xmlns="http://www.w3.org/2000/svg">
<path d="M2.95092 25.2312C2.70283 26.8575 3.81202 27.9864 5.17008 28.549C10.3766 30.7059 17.6221 30.7059 22.8286 28.549C24.1867 27.9864 25.2958 26.8575 25.0478 25.2312C24.8953 24.2317 24.1414 23.3994 23.5828 22.5867C22.8512 21.5092 22.7785 20.3338 22.7784 19.0833C22.7784 14.2508 18.8479 10.3333 13.9993 10.3333C9.15083 10.3333 5.22034 14.2508 5.22034 19.0833C5.22022 20.3338 5.14752 21.5092 4.4159 22.5867C3.85733 23.3994 3.1034 24.2317 2.95092 25.2312Z" stroke="white" stroke-width="1.5" stroke-linecap="round" stroke-linejoin="round"/>
<path d="M9.33398 30.1667C9.86889 32.1794 11.7554 33.6667 14.0007 33.6667C16.2459 33.6667 18.1324 32.1794 18.6673 30.1667" stroke="white" stroke-width="1.5" stroke-linecap="round" stroke-linejoin="round"/>
<circle cx="26" cy="10" r="10" fill="#EF454A"/>
<path d="M26.5903 14V12.392H22.9063V11.264L26.8543 5.54H28.1263V11.12H29.3143V12.392H28.1263V14H26.5903ZM26.5903 11.12V7.376H26.9383L24.1063 11.528V11.12H26.5903Z" fill="white"/>
</svg>
