<svg width="20" height="20" viewBox="0 0 20 20" fill="none" xmlns="http://www.w3.org/2000/svg">
<path d="M17.9532 9.20449C18.2065 9.55974 18.3332 9.73741 18.3332 10.0003C18.3332 10.2632 18.2065 10.4409 17.9532 10.7962C16.8148 12.3925 13.9075 15.8337 9.99984 15.8337C6.09215 15.8337 3.18492 12.3925 2.04654 10.7962C1.79318 10.4409 1.6665 10.2632 1.6665 10.0003C1.6665 9.73741 1.79318 9.55974 2.04654 9.20449C3.18492 7.60819 6.09215 4.16699 9.99984 4.16699C13.9075 4.16699 16.8148 7.60819 17.9532 9.20449Z" stroke="#B0B0B0" stroke-width="1.5"/>
<path d="M12.5 10C12.5 8.61925 11.3807 7.5 10 7.5C8.61925 7.5 7.5 8.61925 7.5 10C7.5 11.3807 8.61925 12.5 10 12.5C11.3807 12.5 12.5 11.3807 12.5 10Z" stroke="#B0B0B0" stroke-width="1.5"/>
</svg>
