<svg width="50" height="64" viewBox="0 0 50 64" fill="none" xmlns="http://www.w3.org/2000/svg">
<g clip-path="url(#clip0_349_108)">
<path fill-rule="evenodd" clip-rule="evenodd" d="M25.7986 2.25917L41.9329 18.4017V16.143L25.7986 0V2.25917ZM24.2019 0.000434916L8.06738 16.1441V18.4017L24.2019 2.2596V0.000434916Z" fill="url(#paint0_linear_349_108)"/>
<path fill-rule="evenodd" clip-rule="evenodd" d="M9.74814 26.7212L17.7317 18.7325V16.4746L0.000244141 34.2157V36.4742L8.06749 28.4024V48.0245L9.66446 49.6223V26.8049L9.74814 26.7212Z" fill="#F7F7F7"/>
<path fill-rule="evenodd" clip-rule="evenodd" d="M25.7986 11.8164H24.2017V64H25.7986V11.8164Z" fill="#F7F7F7"/>
<path fill-rule="evenodd" clip-rule="evenodd" d="M32.2686 18.7325L40.3358 26.8049V49.6223L41.9328 48.0245V28.4024L50.0002 36.4742V34.2157L32.2686 16.4746V18.7325Z" fill="#F7F7F7"/>
</g>
<defs>
<linearGradient id="paint0_linear_349_108" x1="20.457" y1="18.9921" x2="29.5521" y2="-1.38463" gradientUnits="userSpaceOnUse">
<stop stop-color="#8B61BD"/>
<stop offset="0.501961" stop-color="#BF69DB"/>
<stop offset="1" stop-color="#8B61BD"/>
</linearGradient>
<clipPath id="clip0_349_108">
<rect width="50" height="64" fill="white"/>
</clipPath>
</defs>
</svg>
