<svg width="16" height="16" viewBox="0 0 16 16" fill="none" xmlns="http://www.w3.org/2000/svg">
<g clip-path="url(#clip0_1_15081)">
<path d="M8.00016 14.6667C4.31826 14.6667 1.3335 11.6819 1.3335 8.00004C1.3335 6.13835 2.0966 4.45489 3.32708 3.24539M8.00016 14.6667C7.35816 14.191 7.46063 13.637 7.7827 13.0832C8.2779 12.2316 8.2779 12.2316 8.2779 11.0963C8.2779 9.96097 8.95256 9.42864 11.3335 9.90477C12.4033 10.1188 13.1829 8.64064 14.5717 9.12871M8.00016 14.6667C11.2974 14.6667 14.0355 12.2731 14.5717 9.12871M3.32708 3.24539C3.89327 3.30514 4.21028 3.60847 4.7368 4.16481C5.73643 5.22105 6.73603 5.30919 7.4025 4.95711C8.4021 4.42899 7.5621 3.57357 8.7353 3.10869C9.45456 2.82371 9.59163 2.07737 9.25123 1.45057M3.32708 3.24539C4.53013 2.06285 6.17996 1.33337 8.00016 1.33337C8.42776 1.33337 8.84596 1.37363 9.25123 1.45057M14.5717 9.12871C14.6342 8.76184 14.6668 8.38477 14.6668 8.00004C14.6668 4.74575 12.3351 2.03607 9.25123 1.45057" stroke="white" stroke-width="1.5" stroke-linejoin="round"/>
</g>
<defs>
<clipPath id="clip0_1_15081">
<rect width="16" height="16" fill="white"/>
</clipPath>
</defs>
</svg>
