<svg width="48" height="48" viewBox="0 0 48 48" fill="none" xmlns="http://www.w3.org/2000/svg">
<path d="M16.0481 19.3031C16.1761 25.5431 19.2961 29.2871 24.7681 29.2871H25.0881V25.7191C27.0961 25.9191 28.6161 27.3911 29.2241 29.2871H32.0641C31.7728 28.2097 31.2565 27.2063 30.5491 26.3431C29.8416 25.4799 28.9593 24.7764 27.9601 24.2791C28.8554 23.7339 29.6287 23.0099 30.2316 22.1523C30.8345 21.2948 31.2541 20.3221 31.4641 19.2951H28.8881C28.3281 21.2791 26.6641 23.0791 25.0881 23.2471V19.3031H22.5041V26.2151C20.9041 25.8151 18.8881 23.8791 18.8001 19.3031H16.0481Z" fill="currentColor"/>
<path fill-rule="evenodd" clip-rule="evenodd" d="M24.0001 -0.000854492C37.255 -0.000854492 48.0001 10.7443 48.0001 23.9991C48.0001 37.254 37.255 47.9991 24.0001 47.9991C10.7453 47.9991 0.00012207 37.254 0.00012207 23.9991C0.00012207 10.7443 10.7453 -0.000854492 24.0001 -0.000854492ZM12.0001 23.5191C12.0001 18.0871 12.0001 15.3751 13.6801 13.6791C15.3841 11.9991 18.0961 11.9991 23.5201 11.9991H24.4801C29.9121 11.9991 32.6241 11.9991 34.3201 13.6791C36.0001 15.3831 36.0001 18.0951 36.0001 23.5191V24.4791C36.0001 29.9111 36.0001 32.6231 34.3201 34.3191C32.6161 35.9991 29.9041 35.9991 24.4801 35.9991H23.5201C18.0881 35.9991 15.3761 35.9991 13.6801 34.3191C12.0001 32.6151 12.0001 29.9031 12.0001 24.4791V23.5191Z" fill="currentColor"/>
</svg>
