<svg width="1200" height="24" viewBox="0 0 1200 24" fill="none" xmlns="http://www.w3.org/2000/svg">
<g opacity="0.8">
<path d="M1.3 16L5.772 7.459V7.966H0.806V6.835H7.007V7.836L2.782 16H1.3ZM11.1359 16.117C10.5813 16.117 10.0916 15.987 9.66692 15.727C9.25092 15.4583 8.92592 15.077 8.69192 14.583C8.45792 14.0803 8.34092 13.4953 8.34092 12.828C8.34092 12.1433 8.45792 11.5583 8.69192 11.073C8.92592 10.5877 9.25092 10.2107 9.66692 9.942C10.0916 9.67333 10.5813 9.539 11.1359 9.539C11.6906 9.539 12.1673 9.67767 12.5659 9.955C12.9733 10.2237 13.2463 10.5877 13.3849 11.047H13.2419V6.835H14.5549V16H13.2679V14.57H13.3979C13.2593 15.038 12.9863 15.415 12.5789 15.701C12.1803 15.9783 11.6993 16.117 11.1359 16.117ZM11.4739 15.103C12.0113 15.103 12.4446 14.908 12.7739 14.518C13.1033 14.128 13.2679 13.5647 13.2679 12.828C13.2679 12.0827 13.1033 11.5193 12.7739 11.138C12.4446 10.7567 12.0113 10.566 11.4739 10.566C10.9279 10.566 10.4903 10.7567 10.1609 11.138C9.83159 11.5193 9.66692 12.0827 9.66692 12.828C9.66692 13.5647 9.83159 14.128 10.1609 14.518C10.4903 14.908 10.9279 15.103 11.4739 15.103Z" fill="white"/>
<path d="M24.47 10.74L28 14.26L31.53 10.74" stroke="white" stroke-width="1.5" stroke-linecap="round" stroke-linejoin="round"/>
</g>
<g opacity="0.8">
<path d="M60.092 16V6.835H61.223L64.824 13.543H64.421L67.996 6.835H69.101V16H67.892V8.746H68.178L65.019 14.596H64.2L61.002 8.733H61.314V16H60.092ZM74.1753 16.117C73.4819 16.117 72.8839 15.987 72.3813 15.727C71.8873 15.4583 71.5016 15.0813 71.2243 14.596C70.9556 14.102 70.8213 13.517 70.8213 12.841C70.8213 12.1823 70.9556 11.606 71.2243 11.112C71.4929 10.618 71.8613 10.2323 72.3293 9.955C72.7973 9.67767 73.3303 9.539 73.9283 9.539C74.5176 9.539 75.0203 9.669 75.4363 9.929C75.8609 10.1803 76.1859 10.54 76.4113 11.008C76.6366 11.476 76.7493 12.035 76.7493 12.685V13.127H71.8613V12.321H75.8653L75.6443 12.503C75.6443 11.853 75.5013 11.3503 75.2153 10.995C74.9293 10.6397 74.5176 10.462 73.9803 10.462C73.5729 10.462 73.2263 10.5573 72.9403 10.748C72.6629 10.9387 72.4506 11.203 72.3033 11.541C72.1559 11.879 72.0823 12.2733 72.0823 12.724V12.802C72.0823 13.3047 72.1603 13.7293 72.3163 14.076C72.4809 14.414 72.7193 14.6697 73.0313 14.843C73.3433 15.0163 73.7289 15.103 74.1883 15.103C74.5523 15.103 74.9076 15.0467 75.2543 14.934C75.6096 14.8127 75.9433 14.6263 76.2553 14.375L76.6453 15.285C76.3593 15.545 75.9909 15.7487 75.5403 15.896C75.0896 16.0433 74.6346 16.117 74.1753 16.117ZM81.1153 16.117C80.4653 16.117 79.902 15.9827 79.4253 15.714C78.9573 15.4367 78.5933 15.051 78.3333 14.557C78.0733 14.0543 77.9433 13.465 77.9433 12.789C77.9433 12.1217 78.0733 11.5453 78.3333 11.06C78.5933 10.5747 78.9573 10.202 79.4253 9.942C79.902 9.67333 80.4653 9.539 81.1153 9.539C81.514 9.539 81.9083 9.60833 82.2983 9.747C82.6883 9.877 83.009 10.0677 83.2603 10.319L82.8443 11.242C82.6103 11.0167 82.346 10.852 82.0513 10.748C81.7567 10.6353 81.4793 10.579 81.2193 10.579C80.604 10.579 80.1273 10.774 79.7893 11.164C79.46 11.5453 79.2953 12.0913 79.2953 12.802C79.2953 13.5127 79.46 14.0717 79.7893 14.479C80.1273 14.8777 80.604 15.077 81.2193 15.077C81.4793 15.077 81.7567 15.025 82.0513 14.921C82.346 14.8083 82.6103 14.6393 82.8443 14.414L83.2603 15.35C83.009 15.584 82.684 15.7703 82.2853 15.909C81.8953 16.0477 81.5053 16.117 81.1153 16.117ZM85.854 16V10.709H83.618V9.656H89.416V10.709H87.167V16H85.854ZM93.2004 16.117C92.559 16.117 92.0044 15.9827 91.5364 15.714C91.077 15.4453 90.7174 15.064 90.4574 14.57C90.1974 14.076 90.0674 13.4953 90.0674 12.828C90.0674 12.152 90.1974 11.5713 90.4574 11.086C90.7174 10.592 91.077 10.2107 91.5364 9.942C92.0044 9.67333 92.559 9.539 93.2004 9.539C93.833 9.539 94.379 9.67333 94.8384 9.942C95.3064 10.2107 95.6704 10.592 95.9304 11.086C96.1904 11.58 96.3204 12.1607 96.3204 12.828C96.3204 13.4953 96.1904 14.076 95.9304 14.57C95.6704 15.064 95.3064 15.4453 94.8384 15.714C94.379 15.9827 93.833 16.117 93.2004 16.117ZM93.1874 15.103C93.7334 15.103 94.171 14.908 94.5004 14.518C94.8297 14.128 94.9944 13.5647 94.9944 12.828C94.9944 12.0827 94.8297 11.5193 94.5004 11.138C94.171 10.7567 93.7334 10.566 93.1874 10.566C92.65 10.566 92.2167 10.7567 91.8874 11.138C91.558 11.5193 91.3934 12.0827 91.3934 12.828C91.3934 13.5647 91.558 14.128 91.8874 14.518C92.2167 14.908 92.65 15.103 93.1874 15.103ZM102.675 16V10.709H100.439V9.656H106.237V10.709H103.988V16H102.675ZM107.304 18.34V9.656H108.591V11.086H108.448C108.586 10.618 108.859 10.2453 109.267 9.968C109.674 9.682 110.155 9.539 110.71 9.539C111.273 9.539 111.763 9.67333 112.179 9.942C112.603 10.2107 112.928 10.5877 113.154 11.073C113.388 11.5583 113.505 12.1433 113.505 12.828C113.505 13.4953 113.388 14.0803 113.154 14.583C112.928 15.077 112.608 15.4583 112.192 15.727C111.776 15.987 111.282 16.117 110.71 16.117C110.164 16.117 109.687 15.9783 109.28 15.701C108.872 15.4237 108.599 15.0553 108.461 14.596H108.617V18.34H107.304ZM110.385 15.103C110.931 15.103 111.364 14.908 111.685 14.518C112.014 14.128 112.179 13.5647 112.179 12.828C112.179 12.0827 112.014 11.5193 111.685 11.138C111.364 10.7567 110.931 10.566 110.385 10.566C109.847 10.566 109.414 10.7567 109.085 11.138C108.755 11.5193 108.591 12.0827 108.591 12.828C108.591 13.5647 108.755 14.128 109.085 14.518C109.414 14.908 109.847 15.103 110.385 15.103ZM118.101 16.117C117.408 16.117 116.81 15.987 116.307 15.727C115.813 15.4583 115.427 15.0813 115.15 14.596C114.881 14.102 114.747 13.517 114.747 12.841C114.747 12.1823 114.881 11.606 115.15 11.112C115.419 10.618 115.787 10.2323 116.255 9.955C116.723 9.67767 117.256 9.539 117.854 9.539C118.443 9.539 118.946 9.669 119.362 9.929C119.787 10.1803 120.112 10.54 120.337 11.008C120.562 11.476 120.675 12.035 120.675 12.685V13.127H115.787V12.321H119.791L119.57 12.503C119.57 11.853 119.427 11.3503 119.141 10.995C118.855 10.6397 118.443 10.462 117.906 10.462C117.499 10.462 117.152 10.5573 116.866 10.748C116.589 10.9387 116.376 11.203 116.229 11.541C116.082 11.879 116.008 12.2733 116.008 12.724V12.802C116.008 13.3047 116.086 13.7293 116.242 14.076C116.407 14.414 116.645 14.6697 116.957 14.843C117.269 15.0163 117.655 15.103 118.114 15.103C118.478 15.103 118.833 15.0467 119.18 14.934C119.535 14.8127 119.869 14.6263 120.181 14.375L120.571 15.285C120.285 15.545 119.917 15.7487 119.466 15.896C119.015 16.0433 118.56 16.117 118.101 16.117ZM122.233 16V9.656H123.429V14.7H123.091L126.861 9.656H127.966V16H126.77V10.956H127.121L123.338 16H122.233ZM125.093 8.85C124.712 8.85 124.369 8.785 124.066 8.655C123.763 8.51633 123.503 8.317 123.286 8.057C123.069 7.78833 122.909 7.46767 122.805 7.095L123.52 6.848C123.676 7.27267 123.88 7.58467 124.131 7.784C124.391 7.98333 124.716 8.083 125.106 8.083C125.505 8.083 125.83 7.98767 126.081 7.797C126.332 7.59767 126.549 7.28567 126.731 6.861L127.42 7.095C127.281 7.50233 127.095 7.836 126.861 8.096C126.636 8.356 126.376 8.54667 126.081 8.668C125.786 8.78933 125.457 8.85 125.093 8.85ZM129.289 17.69V14.96H129.991C130.182 14.674 130.334 14.3663 130.446 14.037C130.559 13.7077 130.641 13.335 130.693 12.919C130.745 12.503 130.771 12.0307 130.771 11.502V9.656H135.464V14.96H136.478V17.69H135.36V16H130.42V17.69H129.289ZM131.213 14.96H134.216V10.683H131.915V11.775C131.915 12.373 131.855 12.9537 131.733 13.517C131.612 14.0803 131.439 14.5613 131.213 14.96ZM140.775 16.117C140.082 16.117 139.484 15.987 138.981 15.727C138.487 15.4583 138.101 15.0813 137.824 14.596C137.555 14.102 137.421 13.517 137.421 12.841C137.421 12.1823 137.555 11.606 137.824 11.112C138.093 10.618 138.461 10.2323 138.929 9.955C139.397 9.67767 139.93 9.539 140.528 9.539C141.117 9.539 141.62 9.669 142.036 9.929C142.461 10.1803 142.786 10.54 143.011 11.008C143.236 11.476 143.349 12.035 143.349 12.685V13.127H138.461V12.321H142.465L142.244 12.503C142.244 11.853 142.101 11.3503 141.815 10.995C141.529 10.6397 141.117 10.462 140.58 10.462C140.173 10.462 139.826 10.5573 139.54 10.748C139.263 10.9387 139.05 11.203 138.903 11.541C138.756 11.879 138.682 12.2733 138.682 12.724V12.802C138.682 13.3047 138.76 13.7293 138.916 14.076C139.081 14.414 139.319 14.6697 139.631 14.843C139.943 15.0163 140.329 15.103 140.788 15.103C141.152 15.103 141.507 15.0467 141.854 14.934C142.209 14.8127 142.543 14.6263 142.855 14.375L143.245 15.285C142.959 15.545 142.591 15.7487 142.14 15.896C141.689 16.0433 141.234 16.117 140.775 16.117ZM144.92 18.34V9.656H146.207V11.086H146.064C146.203 10.618 146.476 10.2453 146.883 9.968C147.29 9.682 147.771 9.539 148.326 9.539C148.889 9.539 149.379 9.67333 149.795 9.942C150.22 10.2107 150.545 10.5877 150.77 11.073C151.004 11.5583 151.121 12.1433 151.121 12.828C151.121 13.4953 151.004 14.0803 150.77 14.583C150.545 15.077 150.224 15.4583 149.808 15.727C149.392 15.987 148.898 16.117 148.326 16.117C147.78 16.117 147.303 15.9783 146.896 15.701C146.489 15.4237 146.216 15.0553 146.077 14.596H146.233V18.34H144.92ZM148.001 15.103C148.547 15.103 148.98 14.908 149.301 14.518C149.63 14.128 149.795 13.5647 149.795 12.828C149.795 12.0827 149.63 11.5193 149.301 11.138C148.98 10.7567 148.547 10.566 148.001 10.566C147.464 10.566 147.03 10.7567 146.701 11.138C146.372 11.5193 146.207 12.0827 146.207 12.828C146.207 13.5647 146.372 14.128 146.701 14.518C147.03 14.908 147.464 15.103 148.001 15.103ZM154.768 16.117C154.326 16.117 153.928 16.0303 153.572 15.857C153.226 15.6837 152.953 15.4497 152.753 15.155C152.554 14.8603 152.454 14.5267 152.454 14.154C152.454 13.686 152.571 13.3177 152.805 13.049C153.048 12.7717 153.442 12.5767 153.988 12.464C154.543 12.3427 155.288 12.282 156.224 12.282H156.835V13.088H156.237C155.769 13.088 155.375 13.1053 155.054 13.14C154.734 13.1747 154.478 13.231 154.287 13.309C154.097 13.3783 153.958 13.478 153.871 13.608C153.793 13.738 153.754 13.894 153.754 14.076C153.754 14.4053 153.867 14.674 154.092 14.882C154.318 15.0813 154.63 15.181 155.028 15.181C155.349 15.181 155.631 15.1073 155.873 14.96C156.116 14.804 156.307 14.596 156.445 14.336C156.593 14.076 156.666 13.777 156.666 13.439V11.944C156.666 11.45 156.562 11.0947 156.354 10.878C156.146 10.6613 155.804 10.553 155.327 10.553C154.963 10.553 154.599 10.6093 154.235 10.722C153.871 10.826 153.499 10.995 153.117 11.229L152.714 10.306C152.94 10.15 153.2 10.0157 153.494 9.903C153.789 9.79033 154.097 9.70367 154.417 9.643C154.747 9.57367 155.063 9.539 155.366 9.539C155.947 9.539 156.424 9.63 156.796 9.812C157.178 9.994 157.459 10.2713 157.641 10.644C157.823 11.0167 157.914 11.4977 157.914 12.087V16H156.679V14.583H156.796C156.727 14.9037 156.597 15.181 156.406 15.415C156.224 15.6403 155.995 15.8137 155.717 15.935C155.44 16.0563 155.124 16.117 154.768 16.117Z" fill="white"/>
<path d="M167.47 10.74L171 14.26L174.53 10.74" stroke="white" stroke-width="1.5" stroke-linecap="round" stroke-linejoin="round"/>
</g>
<g opacity="0.8">
<path d="M205.302 16V7.966H202.052V6.835H209.891V7.966H206.641V16H205.302ZM209.932 16V9.656H211.128V14.7H210.79L214.56 9.656H215.665V16H214.469V10.956H214.82L211.037 16H209.932ZM217.638 16V9.656H223.384V16H222.071V10.709H218.951V16H217.638ZM230.085 16V10.709H227.849V9.656H233.647V10.709H231.398V16H230.085ZM234.714 18.34V9.656H236.001V11.086H235.858C235.997 10.618 236.27 10.2453 236.677 9.968C237.084 9.682 237.565 9.539 238.12 9.539C238.683 9.539 239.173 9.67333 239.589 9.942C240.014 10.2107 240.339 10.5877 240.564 11.073C240.798 11.5583 240.915 12.1433 240.915 12.828C240.915 13.4953 240.798 14.0803 240.564 14.583C240.339 15.077 240.018 15.4583 239.602 15.727C239.186 15.987 238.692 16.117 238.12 16.117C237.574 16.117 237.097 15.9783 236.69 15.701C236.283 15.4237 236.01 15.0553 235.871 14.596H236.027V18.34H234.714ZM237.795 15.103C238.341 15.103 238.774 14.908 239.095 14.518C239.424 14.128 239.589 13.5647 239.589 12.828C239.589 12.0827 239.424 11.5193 239.095 11.138C238.774 10.7567 238.341 10.566 237.795 10.566C237.258 10.566 236.824 10.7567 236.495 11.138C236.166 11.5193 236.001 12.0827 236.001 12.828C236.001 13.5647 236.166 14.128 236.495 14.518C236.824 14.908 237.258 15.103 237.795 15.103ZM245.511 16.117C244.818 16.117 244.22 15.987 243.717 15.727C243.223 15.4583 242.838 15.0813 242.56 14.596C242.292 14.102 242.157 13.517 242.157 12.841C242.157 12.1823 242.292 11.606 242.56 11.112C242.829 10.618 243.197 10.2323 243.665 9.955C244.133 9.67767 244.666 9.539 245.264 9.539C245.854 9.539 246.356 9.669 246.772 9.929C247.197 10.1803 247.522 10.54 247.747 11.008C247.973 11.476 248.085 12.035 248.085 12.685V13.127H243.197V12.321H247.201L246.98 12.503C246.98 11.853 246.837 11.3503 246.551 10.995C246.265 10.6397 245.854 10.462 245.316 10.462C244.909 10.462 244.562 10.5573 244.276 10.748C243.999 10.9387 243.787 11.203 243.639 11.541C243.492 11.879 243.418 12.2733 243.418 12.724V12.802C243.418 13.3047 243.496 13.7293 243.652 14.076C243.817 14.414 244.055 14.6697 244.367 14.843C244.679 15.0163 245.065 15.103 245.524 15.103C245.888 15.103 246.244 15.0467 246.59 14.934C246.946 14.8127 247.279 14.6263 247.591 14.375L247.981 15.285C247.695 15.545 247.327 15.7487 246.876 15.896C246.426 16.0433 245.971 16.117 245.511 16.117ZM249.643 16V9.656H250.839V14.7H250.501L254.271 9.656H255.376V16H254.18V10.956H254.531L250.748 16H249.643ZM252.503 8.85C252.122 8.85 251.78 8.785 251.476 8.655C251.173 8.51633 250.913 8.317 250.696 8.057C250.48 7.78833 250.319 7.46767 250.215 7.095L250.93 6.848C251.086 7.27267 251.29 7.58467 251.541 7.784C251.801 7.98333 252.126 8.083 252.516 8.083C252.915 8.083 253.24 7.98767 253.491 7.797C253.743 7.59767 253.959 7.28567 254.141 6.861L254.83 7.095C254.692 7.50233 254.505 7.836 254.271 8.096C254.046 8.356 253.786 8.54667 253.491 8.668C253.197 8.78933 252.867 8.85 252.503 8.85ZM256.699 17.69V14.96H257.401C257.592 14.674 257.744 14.3663 257.856 14.037C257.969 13.7077 258.051 13.335 258.103 12.919C258.155 12.503 258.181 12.0307 258.181 11.502V9.656H262.874V14.96H263.888V17.69H262.77V16H257.83V17.69H256.699ZM258.623 14.96H261.626V10.683H259.325V11.775C259.325 12.373 259.265 12.9537 259.143 13.517C259.022 14.0803 258.849 14.5613 258.623 14.96ZM268.185 16.117C267.492 16.117 266.894 15.987 266.391 15.727C265.897 15.4583 265.511 15.0813 265.234 14.596C264.965 14.102 264.831 13.517 264.831 12.841C264.831 12.1823 264.965 11.606 265.234 11.112C265.503 10.618 265.871 10.2323 266.339 9.955C266.807 9.67767 267.34 9.539 267.938 9.539C268.527 9.539 269.03 9.669 269.446 9.929C269.871 10.1803 270.196 10.54 270.421 11.008C270.646 11.476 270.759 12.035 270.759 12.685V13.127H265.871V12.321H269.875L269.654 12.503C269.654 11.853 269.511 11.3503 269.225 10.995C268.939 10.6397 268.527 10.462 267.99 10.462C267.583 10.462 267.236 10.5573 266.95 10.748C266.673 10.9387 266.46 11.203 266.313 11.541C266.166 11.879 266.092 12.2733 266.092 12.724V12.802C266.092 13.3047 266.17 13.7293 266.326 14.076C266.491 14.414 266.729 14.6697 267.041 14.843C267.353 15.0163 267.739 15.103 268.198 15.103C268.562 15.103 268.917 15.0467 269.264 14.934C269.619 14.8127 269.953 14.6263 270.265 14.375L270.655 15.285C270.369 15.545 270.001 15.7487 269.55 15.896C269.099 16.0433 268.644 16.117 268.185 16.117ZM272.33 18.34V9.656H273.617V11.086H273.474C273.613 10.618 273.886 10.2453 274.293 9.968C274.7 9.682 275.181 9.539 275.736 9.539C276.299 9.539 276.789 9.67333 277.205 9.942C277.63 10.2107 277.955 10.5877 278.18 11.073C278.414 11.5583 278.531 12.1433 278.531 12.828C278.531 13.4953 278.414 14.0803 278.18 14.583C277.955 15.077 277.634 15.4583 277.218 15.727C276.802 15.987 276.308 16.117 275.736 16.117C275.19 16.117 274.713 15.9783 274.306 15.701C273.899 15.4237 273.626 15.0553 273.487 14.596H273.643V18.34H272.33ZM275.411 15.103C275.957 15.103 276.39 14.908 276.711 14.518C277.04 14.128 277.205 13.5647 277.205 12.828C277.205 12.0827 277.04 11.5193 276.711 11.138C276.39 10.7567 275.957 10.566 275.411 10.566C274.874 10.566 274.44 10.7567 274.111 11.138C273.782 11.5193 273.617 12.0827 273.617 12.828C273.617 13.5647 273.782 14.128 274.111 14.518C274.44 14.908 274.874 15.103 275.411 15.103ZM282.178 16.117C281.736 16.117 281.338 16.0303 280.982 15.857C280.636 15.6837 280.363 15.4497 280.163 15.155C279.964 14.8603 279.864 14.5267 279.864 14.154C279.864 13.686 279.981 13.3177 280.215 13.049C280.458 12.7717 280.852 12.5767 281.398 12.464C281.953 12.3427 282.698 12.282 283.634 12.282H284.245V13.088H283.647C283.179 13.088 282.785 13.1053 282.464 13.14C282.144 13.1747 281.888 13.231 281.697 13.309C281.507 13.3783 281.368 13.478 281.281 13.608C281.203 13.738 281.164 13.894 281.164 14.076C281.164 14.4053 281.277 14.674 281.502 14.882C281.728 15.0813 282.04 15.181 282.438 15.181C282.759 15.181 283.041 15.1073 283.283 14.96C283.526 14.804 283.717 14.596 283.855 14.336C284.003 14.076 284.076 13.777 284.076 13.439V11.944C284.076 11.45 283.972 11.0947 283.764 10.878C283.556 10.6613 283.214 10.553 282.737 10.553C282.373 10.553 282.009 10.6093 281.645 10.722C281.281 10.826 280.909 10.995 280.527 11.229L280.124 10.306C280.35 10.15 280.61 10.0157 280.904 9.903C281.199 9.79033 281.507 9.70367 281.827 9.643C282.157 9.57367 282.473 9.539 282.776 9.539C283.357 9.539 283.834 9.63 284.206 9.812C284.588 9.994 284.869 10.2713 285.051 10.644C285.233 11.0167 285.324 11.4977 285.324 12.087V16H284.089V14.583H284.206C284.137 14.9037 284.007 15.181 283.816 15.415C283.634 15.6403 283.405 15.8137 283.127 15.935C282.85 16.0563 282.534 16.117 282.178 16.117Z" fill="white"/>
<path d="M295.47 10.74L299 14.26L302.53 10.74" stroke="white" stroke-width="1.5" stroke-linecap="round" stroke-linejoin="round"/>
</g>
<g opacity="0.8">
<path d="M335.174 16.117C334.247 16.117 333.454 15.9263 332.795 15.545C332.136 15.1637 331.629 14.622 331.274 13.92C330.927 13.2093 330.754 12.373 330.754 11.411C330.754 10.449 330.927 9.617 331.274 8.915C331.629 8.213 332.136 7.67133 332.795 7.29C333.454 6.90867 334.247 6.718 335.174 6.718C335.798 6.718 336.379 6.81767 336.916 7.017C337.462 7.20767 337.917 7.485 338.281 7.849L337.813 8.928C337.414 8.57267 337.003 8.317 336.578 8.161C336.162 7.99633 335.707 7.914 335.213 7.914C334.225 7.914 333.471 8.21733 332.951 8.824C332.431 9.43067 332.171 10.293 332.171 11.411C332.171 12.529 332.431 13.3957 332.951 14.011C333.471 14.6177 334.225 14.921 335.213 14.921C335.707 14.921 336.162 14.843 336.578 14.687C337.003 14.5223 337.414 14.2623 337.813 13.907L338.281 14.986C337.917 15.35 337.462 15.6317 336.916 15.831C336.379 16.0217 335.798 16.117 335.174 16.117ZM341.099 16V10.709H338.863V9.656H344.661V10.709H342.412V16H341.099ZM345.728 18.34V9.656H347.015V11.086H346.872C347.01 10.618 347.283 10.2453 347.691 9.968C348.098 9.682 348.579 9.539 349.134 9.539C349.697 9.539 350.187 9.67333 350.603 9.942C351.027 10.2107 351.352 10.5877 351.578 11.073C351.812 11.5583 351.929 12.1433 351.929 12.828C351.929 13.4953 351.812 14.0803 351.578 14.583C351.352 15.077 351.032 15.4583 350.616 15.727C350.2 15.987 349.706 16.117 349.134 16.117C348.588 16.117 348.111 15.9783 347.704 15.701C347.296 15.4237 347.023 15.0553 346.885 14.596H347.041V18.34H345.728ZM348.809 15.103C349.355 15.103 349.788 14.908 350.109 14.518C350.438 14.128 350.603 13.5647 350.603 12.828C350.603 12.0827 350.438 11.5193 350.109 11.138C349.788 10.7567 349.355 10.566 348.809 10.566C348.271 10.566 347.838 10.7567 347.509 11.138C347.179 11.5193 347.015 12.0827 347.015 12.828C347.015 13.5647 347.179 14.128 347.509 14.518C347.838 14.908 348.271 15.103 348.809 15.103ZM355.576 16.117C355.134 16.117 354.735 16.0303 354.38 15.857C354.033 15.6837 353.76 15.4497 353.561 15.155C353.362 14.8603 353.262 14.5267 353.262 14.154C353.262 13.686 353.379 13.3177 353.613 13.049C353.856 12.7717 354.25 12.5767 354.796 12.464C355.351 12.3427 356.096 12.282 357.032 12.282H357.643V13.088H357.045C356.577 13.088 356.183 13.1053 355.862 13.14C355.541 13.1747 355.286 13.231 355.095 13.309C354.904 13.3783 354.766 13.478 354.679 13.608C354.601 13.738 354.562 13.894 354.562 14.076C354.562 14.4053 354.675 14.674 354.9 14.882C355.125 15.0813 355.437 15.181 355.836 15.181C356.157 15.181 356.438 15.1073 356.681 14.96C356.924 14.804 357.114 14.596 357.253 14.336C357.4 14.076 357.474 13.777 357.474 13.439V11.944C357.474 11.45 357.37 11.0947 357.162 10.878C356.954 10.6613 356.612 10.553 356.135 10.553C355.771 10.553 355.407 10.6093 355.043 10.722C354.679 10.826 354.306 10.995 353.925 11.229L353.522 10.306C353.747 10.15 354.007 10.0157 354.302 9.903C354.597 9.79033 354.904 9.70367 355.225 9.643C355.554 9.57367 355.871 9.539 356.174 9.539C356.755 9.539 357.231 9.63 357.604 9.812C357.985 9.994 358.267 10.2713 358.449 10.644C358.631 11.0167 358.722 11.4977 358.722 12.087V16H357.487V14.583H357.604C357.535 14.9037 357.405 15.181 357.214 15.415C357.032 15.6403 356.802 15.8137 356.525 15.935C356.248 16.0563 355.931 16.117 355.576 16.117ZM360.67 16V9.656H361.983V12.217H365.142V9.656H366.455V16H365.142V13.257H361.983V16H360.67ZM370.455 16.117C370.013 16.117 369.614 16.0303 369.259 15.857C368.912 15.6837 368.639 15.4497 368.44 15.155C368.24 14.8603 368.141 14.5267 368.141 14.154C368.141 13.686 368.258 13.3177 368.492 13.049C368.734 12.7717 369.129 12.5767 369.675 12.464C370.229 12.3427 370.975 12.282 371.911 12.282H372.522V13.088H371.924C371.456 13.088 371.061 13.1053 370.741 13.14C370.42 13.1747 370.164 13.231 369.974 13.309C369.783 13.3783 369.644 13.478 369.558 13.608C369.48 13.738 369.441 13.894 369.441 14.076C369.441 14.4053 369.553 14.674 369.779 14.882C370.004 15.0813 370.316 15.181 370.715 15.181C371.035 15.181 371.317 15.1073 371.56 14.96C371.802 14.804 371.993 14.596 372.132 14.336C372.279 14.076 372.353 13.777 372.353 13.439V11.944C372.353 11.45 372.249 11.0947 372.041 10.878C371.833 10.6613 371.49 10.553 371.014 10.553C370.65 10.553 370.286 10.6093 369.922 10.722C369.558 10.826 369.185 10.995 368.804 11.229L368.401 10.306C368.626 10.15 368.886 10.0157 369.181 9.903C369.475 9.79033 369.783 9.70367 370.104 9.643C370.433 9.57367 370.749 9.539 371.053 9.539C371.633 9.539 372.11 9.63 372.483 9.812C372.864 9.994 373.146 10.2713 373.328 10.644C373.51 11.0167 373.601 11.4977 373.601 12.087V16H372.366V14.583H372.483C372.413 14.9037 372.283 15.181 372.093 15.415C371.911 15.6403 371.681 15.8137 371.404 15.935C371.126 16.0563 370.81 16.117 370.455 16.117Z" fill="white"/>
<path d="M383.47 10.74L387 14.26L390.53 10.74" stroke="white" stroke-width="1.5" stroke-linecap="round" stroke-linejoin="round"/>
</g>
<g opacity="0.8">
<path d="M422.004 16.117C421.493 16.117 421.016 16.0737 420.574 15.987C420.141 15.9003 419.746 15.7703 419.391 15.597C419.036 15.415 418.724 15.207 418.455 14.973L418.91 13.946C419.309 14.284 419.751 14.5397 420.236 14.713C420.721 14.8777 421.28 14.96 421.913 14.96C422.702 14.96 423.278 14.83 423.642 14.57C424.015 14.3013 424.201 13.9027 424.201 13.374C424.201 12.8713 424.045 12.4987 423.733 12.256C423.421 12.0133 422.94 11.892 422.29 11.892H420.054V10.813H422.082C422.715 10.813 423.187 10.6917 423.499 10.449C423.82 10.2063 423.98 9.84667 423.98 9.37C423.98 8.902 423.811 8.53367 423.473 8.265C423.135 7.99633 422.619 7.862 421.926 7.862C421.397 7.862 420.89 7.94433 420.405 8.109C419.928 8.27367 419.495 8.52067 419.105 8.85L418.663 7.823C418.932 7.58033 419.244 7.37667 419.599 7.212C419.963 7.04733 420.353 6.926 420.769 6.848C421.185 6.76133 421.614 6.718 422.056 6.718C422.784 6.718 423.386 6.822 423.863 7.03C424.348 7.238 424.712 7.53267 424.955 7.914C425.198 8.28667 425.319 8.72433 425.319 9.227C425.319 9.78167 425.154 10.2497 424.825 10.631C424.496 11.0123 424.049 11.268 423.486 11.398V11.203C424.127 11.2897 424.63 11.5323 424.994 11.931C425.358 12.321 425.54 12.8323 425.54 13.465C425.54 14.0023 425.41 14.4747 425.15 14.882C424.899 15.2807 424.513 15.5883 423.993 15.805C423.473 16.013 422.81 16.117 422.004 16.117ZM427.265 16V9.656H428.578V12.217H431.737V9.656H433.05V16H431.737V13.257H428.578V16H427.265ZM437.05 16.117C436.608 16.117 436.21 16.0303 435.854 15.857C435.508 15.6837 435.235 15.4497 435.035 15.155C434.836 14.8603 434.736 14.5267 434.736 14.154C434.736 13.686 434.853 13.3177 435.087 13.049C435.33 12.7717 435.724 12.5767 436.27 12.464C436.825 12.3427 437.57 12.282 438.506 12.282H439.117V13.088H438.519C438.051 13.088 437.657 13.1053 437.336 13.14C437.016 13.1747 436.76 13.231 436.569 13.309C436.379 13.3783 436.24 13.478 436.153 13.608C436.075 13.738 436.036 13.894 436.036 14.076C436.036 14.4053 436.149 14.674 436.374 14.882C436.6 15.0813 436.912 15.181 437.31 15.181C437.631 15.181 437.913 15.1073 438.155 14.96C438.398 14.804 438.589 14.596 438.727 14.336C438.875 14.076 438.948 13.777 438.948 13.439V11.944C438.948 11.45 438.844 11.0947 438.636 10.878C438.428 10.6613 438.086 10.553 437.609 10.553C437.245 10.553 436.881 10.6093 436.517 10.722C436.153 10.826 435.781 10.995 435.399 11.229L434.996 10.306C435.222 10.15 435.482 10.0157 435.776 9.903C436.071 9.79033 436.379 9.70367 436.699 9.643C437.029 9.57367 437.345 9.539 437.648 9.539C438.229 9.539 438.706 9.63 439.078 9.812C439.46 9.994 439.741 10.2713 439.923 10.644C440.105 11.0167 440.196 11.4977 440.196 12.087V16H438.961V14.583H439.078C439.009 14.9037 438.879 15.181 438.688 15.415C438.506 15.6403 438.277 15.8137 437.999 15.935C437.722 16.0563 437.406 16.117 437.05 16.117ZM446.174 16V13.556C445.94 13.686 445.689 13.7857 445.42 13.855C445.16 13.9243 444.883 13.959 444.588 13.959C443.982 13.959 443.475 13.8593 443.067 13.66C442.669 13.4607 442.37 13.166 442.17 12.776C441.98 12.3773 441.884 11.879 441.884 11.281V9.656H443.197V11.177C443.197 11.567 443.249 11.892 443.353 12.152C443.466 12.4033 443.639 12.5897 443.873 12.711C444.107 12.8237 444.415 12.88 444.796 12.88C445.074 12.88 445.321 12.8497 445.537 12.789C445.754 12.7197 445.962 12.6157 446.161 12.477V9.656H447.474V16H446.174ZM452.213 16.117C451.572 16.117 451.017 15.9827 450.549 15.714C450.09 15.4453 449.73 15.064 449.47 14.57C449.21 14.076 449.08 13.4953 449.08 12.828C449.08 12.152 449.21 11.5713 449.47 11.086C449.73 10.592 450.09 10.2107 450.549 9.942C451.017 9.67333 451.572 9.539 452.213 9.539C452.846 9.539 453.392 9.67333 453.851 9.942C454.319 10.2107 454.683 10.592 454.943 11.086C455.203 11.58 455.333 12.1607 455.333 12.828C455.333 13.4953 455.203 14.076 454.943 14.57C454.683 15.064 454.319 15.4453 453.851 15.714C453.392 15.9827 452.846 16.117 452.213 16.117ZM452.2 15.103C452.746 15.103 453.184 14.908 453.513 14.518C453.842 14.128 454.007 13.5647 454.007 12.828C454.007 12.0827 453.842 11.5193 453.513 11.138C453.184 10.7567 452.746 10.566 452.2 10.566C451.663 10.566 451.229 10.7567 450.9 11.138C450.571 11.5193 450.406 12.0827 450.406 12.828C450.406 13.5647 450.571 14.128 450.9 14.518C451.229 14.908 451.663 15.103 452.2 15.103ZM456.947 16V9.656H458.26V12.23H459.326L461.289 9.656H462.719L460.366 12.789L460.041 12.373C460.284 12.399 460.496 12.4597 460.678 12.555C460.86 12.6503 461.029 12.7933 461.185 12.984C461.35 13.1747 461.523 13.426 461.705 13.738L463.018 16H461.614L460.509 14.102C460.379 13.8767 460.249 13.7033 460.119 13.582C459.998 13.4607 459.863 13.3783 459.716 13.335C459.569 13.283 459.382 13.257 459.157 13.257H458.26V16H456.947ZM468.721 16V10.709H466.485V9.656H472.283V10.709H470.034V16H468.721ZM473.35 18.34V9.656H474.637V11.086H474.494C474.632 10.618 474.905 10.2453 475.313 9.968C475.72 9.682 476.201 9.539 476.756 9.539C477.319 9.539 477.809 9.67333 478.225 9.942C478.649 10.2107 478.974 10.5877 479.2 11.073C479.434 11.5583 479.551 12.1433 479.551 12.828C479.551 13.4953 479.434 14.0803 479.2 14.583C478.974 15.077 478.654 15.4583 478.238 15.727C477.822 15.987 477.328 16.117 476.756 16.117C476.21 16.117 475.733 15.9783 475.326 15.701C474.918 15.4237 474.645 15.0553 474.507 14.596H474.663V18.34H473.35ZM476.431 15.103C476.977 15.103 477.41 14.908 477.731 14.518C478.06 14.128 478.225 13.5647 478.225 12.828C478.225 12.0827 478.06 11.5193 477.731 11.138C477.41 10.7567 476.977 10.566 476.431 10.566C475.893 10.566 475.46 10.7567 475.131 11.138C474.801 11.5193 474.637 12.0827 474.637 12.828C474.637 13.5647 474.801 14.128 475.131 14.518C475.46 14.908 475.893 15.103 476.431 15.103ZM484.147 16.117C483.454 16.117 482.856 15.987 482.353 15.727C481.859 15.4583 481.473 15.0813 481.196 14.596C480.927 14.102 480.793 13.517 480.793 12.841C480.793 12.1823 480.927 11.606 481.196 11.112C481.465 10.618 481.833 10.2323 482.301 9.955C482.769 9.67767 483.302 9.539 483.9 9.539C484.489 9.539 484.992 9.669 485.408 9.929C485.833 10.1803 486.158 10.54 486.383 11.008C486.608 11.476 486.721 12.035 486.721 12.685V13.127H481.833V12.321H485.837L485.616 12.503C485.616 11.853 485.473 11.3503 485.187 10.995C484.901 10.6397 484.489 10.462 483.952 10.462C483.545 10.462 483.198 10.5573 482.912 10.748C482.635 10.9387 482.422 11.203 482.275 11.541C482.128 11.879 482.054 12.2733 482.054 12.724V12.802C482.054 13.3047 482.132 13.7293 482.288 14.076C482.453 14.414 482.691 14.6697 483.003 14.843C483.315 15.0163 483.701 15.103 484.16 15.103C484.524 15.103 484.879 15.0467 485.226 14.934C485.581 14.8127 485.915 14.6263 486.227 14.375L486.617 15.285C486.331 15.545 485.963 15.7487 485.512 15.896C485.061 16.0433 484.606 16.117 484.147 16.117ZM488.279 16V9.656H489.475V14.7H489.137L492.907 9.656H494.012V16H492.816V10.956H493.167L489.384 16H488.279ZM491.139 8.85C490.758 8.85 490.415 8.785 490.112 8.655C489.809 8.51633 489.549 8.317 489.332 8.057C489.115 7.78833 488.955 7.46767 488.851 7.095L489.566 6.848C489.722 7.27267 489.926 7.58467 490.177 7.784C490.437 7.98333 490.762 8.083 491.152 8.083C491.551 8.083 491.876 7.98767 492.127 7.797C492.378 7.59767 492.595 7.28567 492.777 6.861L493.466 7.095C493.327 7.50233 493.141 7.836 492.907 8.096C492.682 8.356 492.422 8.54667 492.127 8.668C491.832 8.78933 491.503 8.85 491.139 8.85ZM495.335 17.69V14.96H496.037C496.228 14.674 496.379 14.3663 496.492 14.037C496.605 13.7077 496.687 13.335 496.739 12.919C496.791 12.503 496.817 12.0307 496.817 11.502V9.656H501.51V14.96H502.524V17.69H501.406V16H496.466V17.69H495.335ZM497.259 14.96H500.262V10.683H497.961V11.775C497.961 12.373 497.9 12.9537 497.779 13.517C497.658 14.0803 497.484 14.5613 497.259 14.96ZM506.821 16.117C506.127 16.117 505.529 15.987 505.027 15.727C504.533 15.4583 504.147 15.0813 503.87 14.596C503.601 14.102 503.467 13.517 503.467 12.841C503.467 12.1823 503.601 11.606 503.87 11.112C504.138 10.618 504.507 10.2323 504.975 9.955C505.443 9.67767 505.976 9.539 506.574 9.539C507.163 9.539 507.666 9.669 508.082 9.929C508.506 10.1803 508.831 10.54 509.057 11.008C509.282 11.476 509.395 12.035 509.395 12.685V13.127H504.507V12.321H508.511L508.29 12.503C508.29 11.853 508.147 11.3503 507.861 10.995C507.575 10.6397 507.163 10.462 506.626 10.462C506.218 10.462 505.872 10.5573 505.586 10.748C505.308 10.9387 505.096 11.203 504.949 11.541C504.801 11.879 504.728 12.2733 504.728 12.724V12.802C504.728 13.3047 504.806 13.7293 504.962 14.076C505.126 14.414 505.365 14.6697 505.677 14.843C505.989 15.0163 506.374 15.103 506.834 15.103C507.198 15.103 507.553 15.0467 507.9 14.934C508.255 14.8127 508.589 14.6263 508.901 14.375L509.291 15.285C509.005 15.545 508.636 15.7487 508.186 15.896C507.735 16.0433 507.28 16.117 506.821 16.117ZM510.966 18.34V9.656H512.253V11.086H512.11C512.249 10.618 512.522 10.2453 512.929 9.968C513.336 9.682 513.817 9.539 514.372 9.539C514.935 9.539 515.425 9.67333 515.841 9.942C516.266 10.2107 516.591 10.5877 516.816 11.073C517.05 11.5583 517.167 12.1433 517.167 12.828C517.167 13.4953 517.05 14.0803 516.816 14.583C516.591 15.077 516.27 15.4583 515.854 15.727C515.438 15.987 514.944 16.117 514.372 16.117C513.826 16.117 513.349 15.9783 512.942 15.701C512.535 15.4237 512.262 15.0553 512.123 14.596H512.279V18.34H510.966ZM514.047 15.103C514.593 15.103 515.026 14.908 515.347 14.518C515.676 14.128 515.841 13.5647 515.841 12.828C515.841 12.0827 515.676 11.5193 515.347 11.138C515.026 10.7567 514.593 10.566 514.047 10.566C513.51 10.566 513.076 10.7567 512.747 11.138C512.418 11.5193 512.253 12.0827 512.253 12.828C512.253 13.5647 512.418 14.128 512.747 14.518C513.076 14.908 513.51 15.103 514.047 15.103ZM520.814 16.117C520.372 16.117 519.973 16.0303 519.618 15.857C519.271 15.6837 518.998 15.4497 518.799 15.155C518.6 14.8603 518.5 14.5267 518.5 14.154C518.5 13.686 518.617 13.3177 518.851 13.049C519.094 12.7717 519.488 12.5767 520.034 12.464C520.589 12.3427 521.334 12.282 522.27 12.282H522.881V13.088H522.283C521.815 13.088 521.421 13.1053 521.1 13.14C520.779 13.1747 520.524 13.231 520.333 13.309C520.142 13.3783 520.004 13.478 519.917 13.608C519.839 13.738 519.8 13.894 519.8 14.076C519.8 14.4053 519.913 14.674 520.138 14.882C520.363 15.0813 520.675 15.181 521.074 15.181C521.395 15.181 521.676 15.1073 521.919 14.96C522.162 14.804 522.352 14.596 522.491 14.336C522.638 14.076 522.712 13.777 522.712 13.439V11.944C522.712 11.45 522.608 11.0947 522.4 10.878C522.192 10.6613 521.85 10.553 521.373 10.553C521.009 10.553 520.645 10.6093 520.281 10.722C519.917 10.826 519.544 10.995 519.163 11.229L518.76 10.306C518.985 10.15 519.245 10.0157 519.54 9.903C519.835 9.79033 520.142 9.70367 520.463 9.643C520.792 9.57367 521.109 9.539 521.412 9.539C521.993 9.539 522.469 9.63 522.842 9.812C523.223 9.994 523.505 10.2713 523.687 10.644C523.869 11.0167 523.96 11.4977 523.96 12.087V16H522.725V14.583H522.842C522.773 14.9037 522.643 15.181 522.452 15.415C522.27 15.6403 522.04 15.8137 521.763 15.935C521.486 16.0563 521.169 16.117 520.814 16.117Z" fill="white"/>
<path d="M533.47 10.74L537 14.26L540.53 10.74" stroke="white" stroke-width="1.5" stroke-linecap="round" stroke-linejoin="round"/>
</g>
<rect x="568" y="3" width="18" height="18" rx="3" fill="#A06AFF"/>
<path d="M572 10.5L576 14.5L581.5 9" stroke="#F2F2F2" stroke-width="2" stroke-linecap="round" stroke-linejoin="round"/>
<path opacity="0.8" d="M597.302 16V7.966H594.052V6.835H601.891V7.966H598.641V16H597.302ZM604.701 16.117C604.06 16.117 603.505 15.9827 603.037 15.714C602.578 15.4453 602.218 15.064 601.958 14.57C601.698 14.076 601.568 13.4953 601.568 12.828C601.568 12.152 601.698 11.5713 601.958 11.086C602.218 10.592 602.578 10.2107 603.037 9.942C603.505 9.67333 604.06 9.539 604.701 9.539C605.334 9.539 605.88 9.67333 606.339 9.942C606.807 10.2107 607.171 10.592 607.431 11.086C607.691 11.58 607.821 12.1607 607.821 12.828C607.821 13.4953 607.691 14.076 607.431 14.57C607.171 15.064 606.807 15.4453 606.339 15.714C605.88 15.9827 605.334 16.117 604.701 16.117ZM604.688 15.103C605.234 15.103 605.672 14.908 606.001 14.518C606.331 14.128 606.495 13.5647 606.495 12.828C606.495 12.0827 606.331 11.5193 606.001 11.138C605.672 10.7567 605.234 10.566 604.688 10.566C604.151 10.566 603.718 10.7567 603.388 11.138C603.059 11.5193 602.894 12.0827 602.894 12.828C602.894 13.5647 603.059 14.128 603.388 14.518C603.718 14.908 604.151 15.103 604.688 15.103ZM609.448 18.34V9.656H610.735V11.086H610.592C610.731 10.618 611.004 10.2453 611.411 9.968C611.819 9.682 612.3 9.539 612.854 9.539C613.418 9.539 613.907 9.67333 614.323 9.942C614.748 10.2107 615.073 10.5877 615.298 11.073C615.532 11.5583 615.649 12.1433 615.649 12.828C615.649 13.4953 615.532 14.0803 615.298 14.583C615.073 15.077 614.752 15.4583 614.336 15.727C613.92 15.987 613.426 16.117 612.854 16.117C612.308 16.117 611.832 15.9783 611.424 15.701C611.017 15.4237 610.744 15.0553 610.605 14.596H610.761V18.34H609.448ZM612.529 15.103C613.075 15.103 613.509 14.908 613.829 14.518C614.159 14.128 614.323 13.5647 614.323 12.828C614.323 12.0827 614.159 11.5193 613.829 11.138C613.509 10.7567 613.075 10.566 612.529 10.566C611.992 10.566 611.559 10.7567 611.229 11.138C610.9 11.5193 610.735 12.0827 610.735 12.828C610.735 13.5647 610.9 14.128 611.229 14.518C611.559 14.908 611.992 15.103 612.529 15.103ZM617.256 16V9.656H621.858V10.709H618.569V16H617.256ZM625.814 16.117C625.172 16.117 624.618 15.9827 624.15 15.714C623.69 15.4453 623.331 15.064 623.071 14.57C622.811 14.076 622.681 13.4953 622.681 12.828C622.681 12.152 622.811 11.5713 623.071 11.086C623.331 10.592 623.69 10.2107 624.15 9.942C624.618 9.67333 625.172 9.539 625.814 9.539C626.446 9.539 626.992 9.67333 627.452 9.942C627.92 10.2107 628.284 10.592 628.544 11.086C628.804 11.58 628.934 12.1607 628.934 12.828C628.934 13.4953 628.804 14.076 628.544 14.57C628.284 15.064 627.92 15.4453 627.452 15.714C626.992 15.9827 626.446 16.117 625.814 16.117ZM625.801 15.103C626.347 15.103 626.784 14.908 627.114 14.518C627.443 14.128 627.608 13.5647 627.608 12.828C627.608 12.0827 627.443 11.5193 627.114 11.138C626.784 10.7567 626.347 10.566 625.801 10.566C625.263 10.566 624.83 10.7567 624.501 11.138C624.171 11.5193 624.007 12.0827 624.007 12.828C624.007 13.5647 624.171 14.128 624.501 14.518C624.83 14.908 625.263 15.103 625.801 15.103ZM630.548 16V9.656H633.785C634.305 9.656 634.729 9.721 635.059 9.851C635.397 9.981 635.644 10.1717 635.8 10.423C635.956 10.6657 636.034 10.9647 636.034 11.32C636.034 11.7273 635.895 12.0697 635.618 12.347C635.34 12.6157 634.976 12.776 634.526 12.828V12.659C634.89 12.6677 635.197 12.7413 635.449 12.88C635.709 13.0187 635.904 13.205 636.034 13.439C636.172 13.6643 636.242 13.9287 636.242 14.232C636.242 14.778 636.038 15.2113 635.631 15.532C635.223 15.844 634.643 16 633.889 16H630.548ZM631.783 15.155H633.811C634.201 15.155 634.5 15.0727 634.708 14.908C634.924 14.7347 635.033 14.4877 635.033 14.167C635.033 13.8463 634.924 13.6037 634.708 13.439C634.5 13.2743 634.201 13.192 633.811 13.192H631.783V15.155ZM631.783 12.347H633.694C634.049 12.347 634.322 12.2647 634.513 12.1C634.712 11.9353 634.812 11.71 634.812 11.424C634.812 11.1293 634.712 10.904 634.513 10.748C634.322 10.592 634.049 10.514 633.694 10.514H631.783V12.347ZM637.771 16V9.656H639.084V11.853H640.891C641.706 11.853 642.326 12.0307 642.75 12.386C643.175 12.7327 643.387 13.2397 643.387 13.907C643.387 14.3317 643.288 14.7043 643.088 15.025C642.889 15.337 642.603 15.5797 642.23 15.753C641.858 15.9177 641.411 16 640.891 16H637.771ZM639.084 15.103H640.722C641.173 15.103 641.524 15.0077 641.775 14.817C642.027 14.6177 642.152 14.3143 642.152 13.907C642.152 13.5083 642.027 13.218 641.775 13.036C641.524 12.8453 641.173 12.75 640.722 12.75H639.084V15.103ZM644.245 16V9.656H645.558V16H644.245ZM650.524 16.117C649.831 16.117 649.233 15.987 648.73 15.727C648.236 15.4583 647.85 15.0813 647.573 14.596C647.304 14.102 647.17 13.517 647.17 12.841C647.17 12.1823 647.304 11.606 647.573 11.112C647.842 10.618 648.21 10.2323 648.678 9.955C649.146 9.67767 649.679 9.539 650.277 9.539C650.866 9.539 651.369 9.669 651.785 9.929C652.21 10.1803 652.535 10.54 652.76 11.008C652.985 11.476 653.098 12.035 653.098 12.685V13.127H648.21V12.321H652.214L651.993 12.503C651.993 11.853 651.85 11.3503 651.564 10.995C651.278 10.6397 650.866 10.462 650.329 10.462C649.922 10.462 649.575 10.5573 649.289 10.748C649.012 10.9387 648.799 11.203 648.652 11.541C648.505 11.879 648.431 12.2733 648.431 12.724V12.802C648.431 13.3047 648.509 13.7293 648.665 14.076C648.83 14.414 649.068 14.6697 649.38 14.843C649.692 15.0163 650.078 15.103 650.537 15.103C650.901 15.103 651.256 15.0467 651.603 14.934C651.958 14.8127 652.292 14.6263 652.604 14.375L652.994 15.285C652.708 15.545 652.34 15.7487 651.889 15.896C651.438 16.0433 650.983 16.117 650.524 16.117ZM660.879 16.117C660.229 16.117 659.666 15.9827 659.189 15.714C658.712 15.4367 658.344 15.0293 658.084 14.492C657.833 13.946 657.707 13.2743 657.707 12.477V11.515C657.707 11.0123 657.75 10.5573 657.837 10.15C657.924 9.74267 658.054 9.383 658.227 9.071C658.4 8.759 658.613 8.48167 658.864 8.239C659.124 7.99633 659.423 7.79267 659.761 7.628C660.108 7.46333 660.493 7.32467 660.918 7.212L663.154 6.627L663.57 7.68L661.009 8.33C660.333 8.50333 659.822 8.81967 659.475 9.279C659.128 9.73833 658.955 10.306 658.955 10.982V11.58H658.76C658.855 11.2073 659.011 10.878 659.228 10.592C659.453 10.306 659.731 10.085 660.06 9.929C660.398 9.76433 660.784 9.682 661.217 9.682C661.624 9.682 661.993 9.75567 662.322 9.903C662.66 10.0503 662.95 10.2627 663.193 10.54C663.436 10.8173 663.622 11.151 663.752 11.541C663.891 11.931 663.96 12.3687 663.96 12.854C663.96 13.5213 663.83 14.0977 663.57 14.583C663.319 15.0683 662.963 15.4453 662.504 15.714C662.045 15.9827 661.503 16.117 660.879 16.117ZM660.827 15.103C661.39 15.103 661.832 14.9167 662.153 14.544C662.474 14.1627 662.634 13.6167 662.634 12.906C662.634 12.204 662.474 11.6623 662.153 11.281C661.832 10.891 661.39 10.696 660.827 10.696C660.272 10.696 659.835 10.8867 659.514 11.268C659.193 11.6407 659.033 12.1563 659.033 12.815C659.033 13.5603 659.189 14.128 659.501 14.518C659.822 14.908 660.264 15.103 660.827 15.103ZM668.343 16.117C667.702 16.117 667.147 15.9827 666.679 15.714C666.22 15.4453 665.86 15.064 665.6 14.57C665.34 14.076 665.21 13.4953 665.21 12.828C665.21 12.152 665.34 11.5713 665.6 11.086C665.86 10.592 666.22 10.2107 666.679 9.942C667.147 9.67333 667.702 9.539 668.343 9.539C668.976 9.539 669.522 9.67333 669.981 9.942C670.449 10.2107 670.813 10.592 671.073 11.086C671.333 11.58 671.463 12.1607 671.463 12.828C671.463 13.4953 671.333 14.076 671.073 14.57C670.813 15.064 670.449 15.4453 669.981 15.714C669.522 15.9827 668.976 16.117 668.343 16.117ZM668.33 15.103C668.876 15.103 669.314 14.908 669.643 14.518C669.972 14.128 670.137 13.5647 670.137 12.828C670.137 12.0827 669.972 11.5193 669.643 11.138C669.314 10.7567 668.876 10.566 668.33 10.566C667.793 10.566 667.359 10.7567 667.03 11.138C666.701 11.5193 666.536 12.0827 666.536 12.828C666.536 13.5647 666.701 14.128 667.03 14.518C667.359 14.908 667.793 15.103 668.33 15.103ZM674.403 16V10.709H672.167V9.656H677.965V10.709H675.716V16H674.403ZM679.018 16V9.656H680.331V11.853H682.138C682.953 11.853 683.573 12.0307 683.997 12.386C684.422 12.7327 684.634 13.2397 684.634 13.907C684.634 14.3317 684.535 14.7043 684.335 15.025C684.136 15.337 683.85 15.5797 683.477 15.753C683.105 15.9177 682.658 16 682.138 16H679.018ZM680.331 15.103H681.969C682.42 15.103 682.771 15.0077 683.022 14.817C683.274 14.6177 683.399 14.3143 683.399 13.907C683.399 13.5083 683.274 13.218 683.022 13.036C682.771 12.8453 682.42 12.75 681.969 12.75H680.331V15.103ZM685.492 16V9.656H686.805V16H685.492Z" fill="white"/>
<rect x="707.5" y="3.5" width="17" height="17" rx="2.5" stroke="white" stroke-opacity="0.16"/>
<path opacity="0.8" d="M733.195 18.093V14.908H734.105C734.4 14.544 734.638 14.0977 734.82 13.569C735.011 13.0317 735.149 12.4033 735.236 11.684C735.331 10.956 735.379 10.1327 735.379 9.214V6.835H741.645V14.908H742.945V18.093H741.749V16H734.404V18.093H733.195ZM735.483 14.908H740.306V7.927H736.64V9.318C736.64 10.2107 736.597 11.0037 736.51 11.697C736.432 12.3817 736.306 12.9883 736.133 13.517C735.96 14.0457 735.743 14.5093 735.483 14.908ZM747.002 16.117C746.361 16.117 745.806 15.9827 745.338 15.714C744.879 15.4453 744.519 15.064 744.259 14.57C743.999 14.076 743.869 13.4953 743.869 12.828C743.869 12.152 743.999 11.5713 744.259 11.086C744.519 10.592 744.879 10.2107 745.338 9.942C745.806 9.67333 746.361 9.539 747.002 9.539C747.635 9.539 748.181 9.67333 748.64 9.942C749.108 10.2107 749.472 10.592 749.732 11.086C749.992 11.58 750.122 12.1607 750.122 12.828C750.122 13.4953 749.992 14.076 749.732 14.57C749.472 15.064 749.108 15.4453 748.64 15.714C748.181 15.9827 747.635 16.117 747.002 16.117ZM746.989 15.103C747.535 15.103 747.973 14.908 748.302 14.518C748.631 14.128 748.796 13.5647 748.796 12.828C748.796 12.0827 748.631 11.5193 748.302 11.138C747.973 10.7567 747.535 10.566 746.989 10.566C746.452 10.566 746.018 10.7567 745.689 11.138C745.36 11.5193 745.195 12.0827 745.195 12.828C745.195 13.5647 745.36 14.128 745.689 14.518C746.018 14.908 746.452 15.103 746.989 15.103ZM754.544 16.117C753.894 16.117 753.331 15.9827 752.854 15.714C752.386 15.4367 752.022 15.051 751.762 14.557C751.502 14.0543 751.372 13.465 751.372 12.789C751.372 12.1217 751.502 11.5453 751.762 11.06C752.022 10.5747 752.386 10.202 752.854 9.942C753.331 9.67333 753.894 9.539 754.544 9.539C754.943 9.539 755.337 9.60833 755.727 9.747C756.117 9.877 756.438 10.0677 756.689 10.319L756.273 11.242C756.039 11.0167 755.775 10.852 755.48 10.748C755.185 10.6353 754.908 10.579 754.648 10.579C754.033 10.579 753.556 10.774 753.218 11.164C752.889 11.5453 752.724 12.0913 752.724 12.802C752.724 13.5127 752.889 14.0717 753.218 14.479C753.556 14.8777 754.033 15.077 754.648 15.077C754.908 15.077 755.185 15.025 755.48 14.921C755.775 14.8083 756.039 14.6393 756.273 14.414L756.689 15.35C756.438 15.584 756.113 15.7703 755.714 15.909C755.324 16.0477 754.934 16.117 754.544 16.117ZM759.283 16V10.709H757.047V9.656H762.845V10.709H760.596V16H759.283ZM764.599 18.34L765.847 15.558V16.117L763.078 9.656H764.482L766.614 14.921H766.25L768.408 9.656H769.76L765.977 18.34H764.599ZM770.842 16V9.656H776.588V16H775.275V10.709H772.155V16H770.842ZM778.549 16V9.656H779.862V12.217H783.021V9.656H784.334V16H783.021V13.257H779.862V16H778.549ZM786.293 16V9.656H787.606V11.853H789.413C790.227 11.853 790.847 12.0307 791.272 12.386C791.696 12.7327 791.909 13.2397 791.909 13.907C791.909 14.3317 791.809 14.7043 791.61 15.025C791.41 15.337 791.124 15.5797 790.752 15.753C790.379 15.9177 789.933 16 789.413 16H786.293ZM787.606 15.103H789.244C789.694 15.103 790.045 15.0077 790.297 14.817C790.548 14.6177 790.674 14.3143 790.674 13.907C790.674 13.5083 790.548 13.218 790.297 13.036C790.045 12.8453 789.694 12.75 789.244 12.75H787.606V15.103ZM792.767 16V9.656H794.08V16H792.767ZM799.045 16.117C798.352 16.117 797.754 15.987 797.251 15.727C796.757 15.4583 796.372 15.0813 796.094 14.596C795.826 14.102 795.691 13.517 795.691 12.841C795.691 12.1823 795.826 11.606 796.094 11.112C796.363 10.618 796.731 10.2323 797.199 9.955C797.667 9.67767 798.2 9.539 798.798 9.539C799.388 9.539 799.89 9.669 800.306 9.929C800.731 10.1803 801.056 10.54 801.281 11.008C801.507 11.476 801.619 12.035 801.619 12.685V13.127H796.731V12.321H800.735L800.514 12.503C800.514 11.853 800.371 11.3503 800.085 10.995C799.799 10.6397 799.388 10.462 798.85 10.462C798.443 10.462 798.096 10.5573 797.81 10.748C797.533 10.9387 797.321 11.203 797.173 11.541C797.026 11.879 796.952 12.2733 796.952 12.724V12.802C796.952 13.3047 797.03 13.7293 797.186 14.076C797.351 14.414 797.589 14.6697 797.901 14.843C798.213 15.0163 798.599 15.103 799.058 15.103C799.422 15.103 799.778 15.0467 800.124 14.934C800.48 14.8127 800.813 14.6263 801.125 14.375L801.515 15.285C801.229 15.545 800.861 15.7487 800.41 15.896C799.96 16.0433 799.505 16.117 799.045 16.117ZM807.918 16V10.709H805.682V9.656H811.48V10.709H809.231V16H807.918ZM812.547 18.34V9.656H813.834V11.086H813.691C813.83 10.618 814.103 10.2453 814.51 9.968C814.917 9.682 815.398 9.539 815.953 9.539C816.516 9.539 817.006 9.67333 817.422 9.942C817.847 10.2107 818.172 10.5877 818.397 11.073C818.631 11.5583 818.748 12.1433 818.748 12.828C818.748 13.4953 818.631 14.0803 818.397 14.583C818.172 15.077 817.851 15.4583 817.435 15.727C817.019 15.987 816.525 16.117 815.953 16.117C815.407 16.117 814.93 15.9783 814.523 15.701C814.116 15.4237 813.843 15.0553 813.704 14.596H813.86V18.34H812.547ZM815.628 15.103C816.174 15.103 816.607 14.908 816.928 14.518C817.257 14.128 817.422 13.5647 817.422 12.828C817.422 12.0827 817.257 11.5193 816.928 11.138C816.607 10.7567 816.174 10.566 815.628 10.566C815.091 10.566 814.657 10.7567 814.328 11.138C813.999 11.5193 813.834 12.0827 813.834 12.828C813.834 13.5647 813.999 14.128 814.328 14.518C814.657 14.908 815.091 15.103 815.628 15.103ZM823.344 16.117C822.651 16.117 822.053 15.987 821.55 15.727C821.056 15.4583 820.671 15.0813 820.393 14.596C820.125 14.102 819.99 13.517 819.99 12.841C819.99 12.1823 820.125 11.606 820.393 11.112C820.662 10.618 821.03 10.2323 821.498 9.955C821.966 9.67767 822.499 9.539 823.097 9.539C823.687 9.539 824.189 9.669 824.605 9.929C825.03 10.1803 825.355 10.54 825.58 11.008C825.806 11.476 825.918 12.035 825.918 12.685V13.127H821.03V12.321H825.034L824.813 12.503C824.813 11.853 824.67 11.3503 824.384 10.995C824.098 10.6397 823.687 10.462 823.149 10.462C822.742 10.462 822.395 10.5573 822.109 10.748C821.832 10.9387 821.62 11.203 821.472 11.541C821.325 11.879 821.251 12.2733 821.251 12.724V12.802C821.251 13.3047 821.329 13.7293 821.485 14.076C821.65 14.414 821.888 14.6697 822.2 14.843C822.512 15.0163 822.898 15.103 823.357 15.103C823.721 15.103 824.077 15.0467 824.423 14.934C824.779 14.8127 825.112 14.6263 825.424 14.375L825.814 15.285C825.528 15.545 825.16 15.7487 824.709 15.896C824.259 16.0433 823.804 16.117 823.344 16.117ZM827.476 16V9.656H828.672V14.7H828.334L832.104 9.656H833.209V16H832.013V10.956H832.364L828.581 16H827.476ZM830.336 8.85C829.955 8.85 829.613 8.785 829.309 8.655C829.006 8.51633 828.746 8.317 828.529 8.057C828.313 7.78833 828.152 7.46767 828.048 7.095L828.763 6.848C828.919 7.27267 829.123 7.58467 829.374 7.784C829.634 7.98333 829.959 8.083 830.349 8.083C830.748 8.083 831.073 7.98767 831.324 7.797C831.576 7.59767 831.792 7.28567 831.974 6.861L832.663 7.095C832.525 7.50233 832.338 7.836 832.104 8.096C831.879 8.356 831.619 8.54667 831.324 8.668C831.03 8.78933 830.7 8.85 830.336 8.85ZM834.532 17.69V14.96H835.234C835.425 14.674 835.577 14.3663 835.689 14.037C835.802 13.7077 835.884 13.335 835.936 12.919C835.988 12.503 836.014 12.0307 836.014 11.502V9.656H840.707V14.96H841.721V17.69H840.603V16H835.663V17.69H834.532ZM836.456 14.96H839.459V10.683H837.158V11.775C837.158 12.373 837.098 12.9537 836.976 13.517C836.855 14.0803 836.682 14.5613 836.456 14.96ZM846.018 16.117C845.325 16.117 844.727 15.987 844.224 15.727C843.73 15.4583 843.344 15.0813 843.067 14.596C842.798 14.102 842.664 13.517 842.664 12.841C842.664 12.1823 842.798 11.606 843.067 11.112C843.336 10.618 843.704 10.2323 844.172 9.955C844.64 9.67767 845.173 9.539 845.771 9.539C846.36 9.539 846.863 9.669 847.279 9.929C847.704 10.1803 848.029 10.54 848.254 11.008C848.479 11.476 848.592 12.035 848.592 12.685V13.127H843.704V12.321H847.708L847.487 12.503C847.487 11.853 847.344 11.3503 847.058 10.995C846.772 10.6397 846.36 10.462 845.823 10.462C845.416 10.462 845.069 10.5573 844.783 10.748C844.506 10.9387 844.293 11.203 844.146 11.541C843.999 11.879 843.925 12.2733 843.925 12.724V12.802C843.925 13.3047 844.003 13.7293 844.159 14.076C844.324 14.414 844.562 14.6697 844.874 14.843C845.186 15.0163 845.572 15.103 846.031 15.103C846.395 15.103 846.75 15.0467 847.097 14.934C847.452 14.8127 847.786 14.6263 848.098 14.375L848.488 15.285C848.202 15.545 847.834 15.7487 847.383 15.896C846.932 16.0433 846.477 16.117 846.018 16.117ZM850.163 18.34V9.656H851.45V11.086H851.307C851.446 10.618 851.719 10.2453 852.126 9.968C852.533 9.682 853.014 9.539 853.569 9.539C854.132 9.539 854.622 9.67333 855.038 9.942C855.463 10.2107 855.788 10.5877 856.013 11.073C856.247 11.5583 856.364 12.1433 856.364 12.828C856.364 13.4953 856.247 14.0803 856.013 14.583C855.788 15.077 855.467 15.4583 855.051 15.727C854.635 15.987 854.141 16.117 853.569 16.117C853.023 16.117 852.546 15.9783 852.139 15.701C851.732 15.4237 851.459 15.0553 851.32 14.596H851.476V18.34H850.163ZM853.244 15.103C853.79 15.103 854.223 14.908 854.544 14.518C854.873 14.128 855.038 13.5647 855.038 12.828C855.038 12.0827 854.873 11.5193 854.544 11.138C854.223 10.7567 853.79 10.566 853.244 10.566C852.707 10.566 852.273 10.7567 851.944 11.138C851.615 11.5193 851.45 12.0827 851.45 12.828C851.45 13.5647 851.615 14.128 851.944 14.518C852.273 14.908 852.707 15.103 853.244 15.103ZM857.97 16V9.656H859.283V11.853H861.09C861.905 11.853 862.525 12.0307 862.949 12.386C863.374 12.7327 863.586 13.2397 863.586 13.907C863.586 14.3317 863.487 14.7043 863.287 15.025C863.088 15.337 862.802 15.5797 862.429 15.753C862.057 15.9177 861.61 16 861.09 16H857.97ZM859.283 15.103H860.921C861.372 15.103 861.723 15.0077 861.974 14.817C862.226 14.6177 862.351 14.3143 862.351 13.907C862.351 13.5083 862.226 13.218 861.974 13.036C861.723 12.8453 861.372 12.75 860.921 12.75H859.283V15.103ZM864.444 16V9.656H865.757V16H864.444Z" fill="white"/>
</svg>
