<svg width="257" height="58" viewBox="0 0 257 58" fill="none" xmlns="http://www.w3.org/2000/svg">
<path d="M36.6492 33.9108L35 35.503V50H256V6.92739L250.64 9.18998L246.929 13.0448L242.806 12.7934L240.744 13.6314L235.797 5.838L234.147 6.92739L231.261 6.42459L225.076 7.34639L221.778 11.3688L219.304 10.3632C218.342 11.285 216.418 13.1118 216.418 13.0448C216.418 12.9777 214.769 11.7319 213.944 11.1174L211.47 13.1286L208.172 11.0336L204.049 10.447L201.987 5L195.802 7.68159H193.741L192.091 8.26818L190.854 7.26259L187.144 12.123L185.907 10.7822L181.784 10.447L179.31 11.8716L178.485 8.85478L176.423 10.447L173.537 8.26818L171.063 9.44138L169.826 8.85478L168.59 9.18998L166.116 6.25699L164.054 12.542L160.756 9.86037L157.457 9.18998L154.159 13.5476L148.798 16.0615L144.675 15.5587L144.263 17.6537L142.201 15.9777L138.903 18.2403L136.429 23.3521L133.543 23.6035L130.657 23.9387L129.007 27.2069L126.946 27.6259L121.998 27.2069L115.813 25.3633L113.752 27.8773L108.392 28.7991L106.33 28.4639L105.506 29.3019L100.146 27.8773L99.3209 28.5477L93.5485 28.1287L88.6007 29.8885L88.1884 31.1455L85.7146 30.8103L82.8283 32.0673L80.7668 31.1455H75.819L74.9944 31.5645H73.3452L70.4589 32.5701L65.5112 31.7321L63.0373 29.9723L60.1511 30.0561L57.2649 32.0673L55.2033 31.3969L53.9664 32.3187L51.9048 31.7321L44.8955 32.3187L41.597 34.4974L36.6492 33.9108Z" fill="url(#paint0_linear_315_95)"/>
<path d="M35 35L36.6493 33.4341L41.597 34.011L44.8955 31.8681L51.9048 31.2912L53.9664 31.8681L55.2034 30.9615L57.2649 31.6209L60.1511 29.6429L63.0373 29.5604L65.5112 31.2912L70.459 32.1154L73.3451 31.1264H74.9944L75.8191 30.7143H80.7668L82.8284 31.6209L85.7145 30.3846L88.1884 30.7143L88.6008 29.478L93.5485 27.7473L99.3209 28.1593L100.145 27.5L105.506 28.9011L106.33 28.0769L108.392 28.4066L113.752 27.5L115.813 25.0275L121.998 26.8407L126.946 27.2527L129.007 26.8407L130.657 23.6264L133.543 23.2967L136.429 23.0494L138.903 18.022L142.202 15.7967L144.263 17.4451L144.675 15.3846L148.798 15.8791L154.159 13.4066L157.457 9.12088L160.756 9.78022L164.054 12.4176L166.116 6.23626L168.59 9.12088L169.826 8.79121L171.063 9.36813L173.537 8.21429L176.424 10.3571L178.485 8.79121L179.31 11.7582L181.784 10.3571L185.907 10.6868L187.144 12.0055L190.855 7.22527L192.091 8.21429L193.741 7.63736H195.802L201.987 5L204.048 10.3571L208.172 10.9341L211.47 12.9945L213.944 11.0165C214.769 11.6209 216.418 12.8462 216.418 12.9121C216.418 12.978 218.342 11.1813 219.304 10.2747L221.778 11.2637L225.076 7.30769L231.261 6.4011L234.147 6.8956L235.797 5.82418L240.744 13.489L242.806 12.6648L246.929 12.9121L250.64 9.12088L256 6.8956" stroke="#A06AFF" stroke-width="1.5" stroke-linecap="round"/>
<rect x="35" y="50.002" width="221" height="1" fill="white" fill-opacity="0.04"/>
<rect x="35" y="14.002" width="221" height="1" fill="white" fill-opacity="0.04"/>
<path opacity="0.48" d="M1.02 54.002V53.078L3.84 50.054C4.104 49.766 4.316 49.502 4.476 49.262C4.636 49.014 4.752 48.778 4.824 48.554C4.904 48.322 4.944 48.09 4.944 47.858C4.944 47.41 4.808 47.07 4.536 46.838C4.264 46.606 3.864 46.49 3.336 46.49C2.928 46.49 2.54 46.566 2.172 46.718C1.812 46.87 1.468 47.102 1.14 47.414L0.696 46.466C1.016 46.154 1.424 45.906 1.92 45.722C2.416 45.53 2.932 45.434 3.468 45.434C4.052 45.434 4.544 45.526 4.944 45.71C5.352 45.886 5.66 46.146 5.868 46.49C6.076 46.834 6.18 47.254 6.18 47.75C6.18 48.006 6.148 48.258 6.084 48.506C6.028 48.746 5.936 48.986 5.808 49.226C5.688 49.466 5.532 49.714 5.34 49.97C5.156 50.226 4.932 50.49 4.668 50.762L2.256 53.306V52.958H6.516V54.002H1.02ZM7.90331 54.002V52.574H9.33131V54.002H7.90331ZM11.243 54.002L15.371 46.118V46.586H10.787V45.542H16.511V46.466L12.611 54.002H11.243ZM18.2223 54.002V45.542H19.4703V49.226H20.9823L20.6943 49.43L23.2023 45.542H24.5823L21.8583 49.646L21.3903 49.274C21.7183 49.314 22.0143 49.41 22.2783 49.562C22.5503 49.706 22.7903 49.902 22.9983 50.15C23.2143 50.39 23.4063 50.682 23.5743 51.026L25.0263 54.002H23.6823L22.5303 51.542C22.3143 51.086 22.0623 50.762 21.7743 50.57C21.4863 50.37 21.1303 50.27 20.7063 50.27H19.4703V54.002H18.2223Z" fill="white"/>
<path opacity="0.48" d="M1.02 18.002V17.078L3.84 14.054C4.104 13.766 4.316 13.502 4.476 13.262C4.636 13.014 4.752 12.778 4.824 12.554C4.904 12.322 4.944 12.09 4.944 11.858C4.944 11.41 4.808 11.07 4.536 10.838C4.264 10.606 3.864 10.49 3.336 10.49C2.928 10.49 2.54 10.566 2.172 10.718C1.812 10.87 1.468 11.102 1.14 11.414L0.696 10.466C1.016 10.154 1.424 9.90595 1.92 9.72195C2.416 9.52995 2.932 9.43395 3.468 9.43395C4.052 9.43395 4.544 9.52595 4.944 9.70995C5.352 9.88595 5.66 10.146 5.868 10.49C6.076 10.834 6.18 11.254 6.18 11.75C6.18 12.006 6.148 12.258 6.084 12.506C6.028 12.746 5.936 12.986 5.808 13.226C5.688 13.466 5.532 13.714 5.34 13.97C5.156 14.226 4.932 14.49 4.668 14.762L2.256 17.306V16.958H6.516V18.002H1.02ZM7.90331 18.002V16.574H9.33131V18.002H7.90331ZM13.643 18.11C12.675 18.11 11.919 17.902 11.375 17.486C10.839 17.07 10.571 16.49 10.571 15.746C10.571 15.346 10.651 14.994 10.811 14.69C10.971 14.378 11.195 14.126 11.483 13.934C11.771 13.742 12.103 13.622 12.479 13.574V13.79C12.135 13.718 11.835 13.586 11.579 13.394C11.323 13.194 11.123 12.95 10.979 12.662C10.843 12.366 10.775 12.042 10.775 11.69C10.775 10.986 11.035 10.434 11.555 10.034C12.075 9.63395 12.771 9.43395 13.643 9.43395C14.523 9.43395 15.223 9.63395 15.743 10.034C16.263 10.434 16.523 10.986 16.523 11.69C16.523 12.042 16.451 12.366 16.307 12.662C16.171 12.95 15.975 13.194 15.719 13.394C15.463 13.586 15.163 13.714 14.819 13.778V13.574C15.203 13.622 15.535 13.746 15.815 13.946C16.095 14.138 16.315 14.386 16.475 14.69C16.635 14.994 16.715 15.346 16.715 15.746C16.715 16.49 16.443 17.07 15.899 17.486C15.363 17.902 14.611 18.11 13.643 18.11ZM13.643 17.126C14.275 17.126 14.751 17.006 15.071 16.766C15.391 16.518 15.551 16.15 15.551 15.662C15.551 15.174 15.391 14.81 15.071 14.57C14.751 14.33 14.275 14.21 13.643 14.21C13.019 14.21 12.543 14.33 12.215 14.57C11.895 14.81 11.735 15.174 11.735 15.662C11.735 16.15 11.895 16.518 12.215 16.766C12.543 17.006 13.019 17.126 13.643 17.126ZM13.643 13.226C14.179 13.226 14.595 13.102 14.891 12.854C15.195 12.598 15.347 12.25 15.347 11.81C15.347 11.378 15.195 11.038 14.891 10.79C14.595 10.542 14.179 10.418 13.643 10.418C13.107 10.418 12.691 10.542 12.395 10.79C12.099 11.038 11.951 11.378 11.951 11.81C11.951 12.25 12.099 12.598 12.395 12.854C12.691 13.102 13.107 13.226 13.643 13.226ZM18.2223 18.002V9.54195H19.4703V13.226H20.9823L20.6943 13.43L23.2023 9.54195H24.5823L21.8583 13.646L21.3903 13.274C21.7183 13.314 22.0143 13.41 22.2783 13.562C22.5503 13.706 22.7903 13.902 22.9983 14.15C23.2143 14.39 23.4063 14.682 23.5743 15.026L25.0263 18.002H23.6823L22.5303 15.542C22.3143 15.086 22.0623 14.762 21.7743 14.57C21.4863 14.37 21.1303 14.27 20.7063 14.27H19.4703V18.002H18.2223Z" fill="white"/>
<rect x="42" y="25" width="16" height="16" rx="8" fill="#2EBD85"/>
<path d="M46.7931 37V28.54H50.4891C51.3771 28.54 52.0651 28.736 52.5531 29.128C53.0411 29.512 53.2851 30.048 53.2851 30.736C53.2851 31.248 53.1371 31.68 52.8411 32.032C52.5451 32.384 52.1411 32.62 51.6291 32.74V32.56C52.0211 32.616 52.3571 32.736 52.6371 32.92C52.9171 33.104 53.1291 33.34 53.2731 33.628C53.4251 33.916 53.5011 34.252 53.5011 34.636C53.5011 35.132 53.3851 35.56 53.1531 35.92C52.9291 36.272 52.6011 36.54 52.1691 36.724C51.7371 36.908 51.2211 37 50.6211 37H46.7931ZM48.2691 35.836H50.4291C50.6451 35.836 50.8371 35.82 51.0051 35.788C51.1811 35.756 51.3291 35.708 51.4491 35.644C51.5771 35.572 51.6811 35.484 51.7611 35.38C51.8491 35.276 51.9131 35.156 51.9531 35.02C51.9931 34.884 52.0131 34.732 52.0131 34.564C52.0131 34.388 51.9931 34.232 51.9531 34.096C51.9131 33.96 51.8491 33.844 51.7611 33.748C51.6811 33.644 51.5771 33.56 51.4491 33.496C51.3291 33.424 51.1811 33.372 51.0051 33.34C50.8371 33.308 50.6451 33.292 50.4291 33.292H48.2691V35.836ZM48.2691 32.128H50.2251C50.7531 32.128 51.1451 32.028 51.4011 31.828C51.6651 31.62 51.7971 31.316 51.7971 30.916C51.7971 30.516 51.6651 30.216 51.4011 30.016C51.1451 29.808 50.7531 29.704 50.2251 29.704H48.2691V32.128Z" fill="white"/>
<rect x="97" y="20" width="16" height="16" rx="8" fill="#2EBD85"/>
<path d="M101.793 32V23.54H105.489C106.377 23.54 107.065 23.736 107.553 24.128C108.041 24.512 108.285 25.048 108.285 25.736C108.285 26.248 108.137 26.68 107.841 27.032C107.545 27.384 107.141 27.62 106.629 27.74V27.56C107.021 27.616 107.357 27.736 107.637 27.92C107.917 28.104 108.129 28.34 108.273 28.628C108.425 28.916 108.501 29.252 108.501 29.636C108.501 30.132 108.385 30.56 108.153 30.92C107.929 31.272 107.601 31.54 107.169 31.724C106.737 31.908 106.221 32 105.621 32H101.793ZM103.269 30.836H105.429C105.645 30.836 105.837 30.82 106.005 30.788C106.181 30.756 106.329 30.708 106.449 30.644C106.577 30.572 106.681 30.484 106.761 30.38C106.849 30.276 106.913 30.156 106.953 30.02C106.993 29.884 107.013 29.732 107.013 29.564C107.013 29.388 106.993 29.232 106.953 29.096C106.913 28.96 106.849 28.844 106.761 28.748C106.681 28.644 106.577 28.56 106.449 28.496C106.329 28.424 106.181 28.372 106.005 28.34C105.837 28.308 105.645 28.292 105.429 28.292H103.269V30.836ZM103.269 27.128H105.225C105.753 27.128 106.145 27.028 106.401 26.828C106.665 26.62 106.797 26.316 106.797 25.916C106.797 25.516 106.665 25.216 106.401 25.016C106.145 24.808 105.753 24.704 105.225 24.704H103.269V27.128Z" fill="white"/>
<rect x="147" y="4" width="16" height="16" rx="8" fill="#EF454A"/>
<path d="M154.84 16.12C154.4 16.12 153.976 16.08 153.568 16C153.168 15.928 152.796 15.82 152.452 15.676C152.116 15.532 151.816 15.36 151.552 15.16L152.02 13.948C152.284 14.132 152.56 14.292 152.848 14.428C153.144 14.556 153.456 14.656 153.784 14.728C154.12 14.792 154.472 14.824 154.84 14.824C155.472 14.824 155.932 14.72 156.22 14.512C156.508 14.296 156.652 14.02 156.652 13.684C156.652 13.5 156.608 13.344 156.52 13.216C156.432 13.08 156.288 12.964 156.088 12.868C155.888 12.772 155.624 12.692 155.296 12.628L153.976 12.352C153.216 12.192 152.648 11.924 152.272 11.548C151.904 11.164 151.72 10.66 151.72 10.036C151.72 9.508 151.86 9.048 152.14 8.656C152.42 8.264 152.808 7.96 153.304 7.744C153.8 7.528 154.372 7.42 155.02 7.42C155.404 7.42 155.772 7.46 156.124 7.54C156.484 7.612 156.812 7.724 157.108 7.876C157.412 8.02 157.676 8.196 157.9 8.404L157.432 9.556C157.096 9.276 156.728 9.068 156.328 8.932C155.928 8.788 155.488 8.716 155.008 8.716C154.64 8.716 154.324 8.768 154.06 8.872C153.796 8.976 153.592 9.124 153.448 9.316C153.312 9.5 153.244 9.72 153.244 9.976C153.244 10.264 153.34 10.496 153.532 10.672C153.724 10.84 154.052 10.972 154.516 11.068L155.824 11.344C156.616 11.512 157.204 11.776 157.588 12.136C157.98 12.496 158.176 12.976 158.176 13.576C158.176 14.08 158.04 14.524 157.768 14.908C157.496 15.292 157.108 15.592 156.604 15.808C156.108 16.016 155.52 16.12 154.84 16.12Z" fill="white"/>
<rect x="193" width="16" height="16" rx="8" fill="#EF454A"/>
<path d="M200.84 12.12C200.4 12.12 199.976 12.08 199.568 12C199.168 11.928 198.796 11.82 198.452 11.676C198.116 11.532 197.816 11.36 197.552 11.16L198.02 9.948C198.284 10.132 198.56 10.292 198.848 10.428C199.144 10.556 199.456 10.656 199.784 10.728C200.12 10.792 200.472 10.824 200.84 10.824C201.472 10.824 201.932 10.72 202.22 10.512C202.508 10.296 202.652 10.02 202.652 9.684C202.652 9.5 202.608 9.344 202.52 9.216C202.432 9.08 202.288 8.964 202.088 8.868C201.888 8.772 201.624 8.692 201.296 8.628L199.976 8.352C199.216 8.192 198.648 7.924 198.272 7.548C197.904 7.164 197.72 6.66 197.72 6.036C197.72 5.508 197.86 5.048 198.14 4.656C198.42 4.264 198.808 3.96 199.304 3.744C199.8 3.528 200.372 3.42 201.02 3.42C201.404 3.42 201.772 3.46 202.124 3.54C202.484 3.612 202.812 3.724 203.108 3.876C203.412 4.02 203.676 4.196 203.9 4.404L203.432 5.556C203.096 5.276 202.728 5.068 202.328 4.932C201.928 4.788 201.488 4.716 201.008 4.716C200.64 4.716 200.324 4.768 200.06 4.872C199.796 4.976 199.592 5.124 199.448 5.316C199.312 5.5 199.244 5.72 199.244 5.976C199.244 6.264 199.34 6.496 199.532 6.672C199.724 6.84 200.052 6.972 200.516 7.068L201.824 7.344C202.616 7.512 203.204 7.776 203.588 8.136C203.98 8.496 204.176 8.976 204.176 9.576C204.176 10.08 204.04 10.524 203.768 10.908C203.496 11.292 203.108 11.592 202.604 11.808C202.108 12.016 201.52 12.12 200.84 12.12Z" fill="white"/>
<path d="M50 18L45 23H55L50 18Z" fill="#2EBD85" stroke="#2EBD85" stroke-linejoin="round"/>
<path d="M105 13L100 18H110L105 13Z" fill="#2EBD85" stroke="#2EBD85" stroke-linejoin="round"/>
<path d="M155 27L150 22H160L155 27Z" fill="#EF454A" stroke="#EF454A" stroke-linejoin="round"/>
<path d="M201 23L196 18H206L201 23Z" fill="#EF454A" stroke="#EF454A" stroke-linejoin="round"/>
<defs>
<linearGradient id="paint0_linear_315_95" x1="-59.6262" y1="5" x2="-59.6262" y2="50" gradientUnits="userSpaceOnUse">
<stop stop-color="#A06AFF" stop-opacity="0.32"/>
<stop offset="1" stop-color="#181A20" stop-opacity="0"/>
</linearGradient>
</defs>
</svg>
