<svg width="180" height="32" viewBox="0 0 180 32" fill="none" xmlns="http://www.w3.org/2000/svg">
<rect width="32" height="32" rx="8" fill="#1F2229"/>
<g opacity="0.48">
<path d="M17.8025 19.5L18.625 18.6775L15.9533 16L18.625 13.3225L17.8025 12.5L14.3025 16L17.8025 19.5Z" fill="white"/>
</g>
<rect x="37" width="32" height="32" rx="8" fill="#A06AFF"/>
<path d="M50.1027 21.5V19.764H52.3427V13.828L50.1027 15.424V13.38L52.4687 11.7H54.4427V19.764H56.2627V21.5H50.1027Z" fill="white"/>
<rect x="74" width="32" height="32" rx="8" fill="#1F2229"/>
<path opacity="0.48" d="M86.2296 21.5V19.974L89.6596 17.02C90.0889 16.6373 90.4296 16.3247 90.6816 16.082C90.9429 15.83 91.1296 15.592 91.2416 15.368C91.3536 15.144 91.4096 14.9013 91.4096 14.64C91.4096 14.2387 91.2976 13.9167 91.0736 13.674C90.8589 13.422 90.5276 13.296 90.0796 13.296C89.5662 13.296 89.1696 13.436 88.8896 13.716C88.6096 13.9867 88.4696 14.4533 88.4696 15.116H86.3696C86.3696 14.3787 86.5096 13.744 86.7896 13.212C87.0696 12.6707 87.4849 12.2553 88.0356 11.966C88.5956 11.6767 89.2769 11.532 90.0796 11.532C90.8262 11.532 91.4562 11.6673 91.9696 11.938C92.4829 12.1993 92.8656 12.5633 93.1176 13.03C93.3789 13.4967 93.5096 14.0333 93.5096 14.64C93.5096 15.088 93.4022 15.508 93.1876 15.9C92.9822 16.292 92.7069 16.6653 92.3616 17.02C92.0162 17.3747 91.6289 17.7293 91.1996 18.084L89.1836 19.764H93.6496V21.5H86.2296Z" fill="white"/>
<rect x="111" width="32" height="32" rx="8" fill="#1F2229"/>
<path opacity="0.48" d="M126.905 21.668C126.112 21.668 125.445 21.542 124.903 21.29C124.362 21.0287 123.951 20.66 123.671 20.184C123.401 19.708 123.265 19.1433 123.265 18.49H125.365C125.365 18.966 125.487 19.3207 125.729 19.554C125.972 19.7873 126.364 19.904 126.905 19.904C127.419 19.904 127.801 19.792 128.053 19.568C128.315 19.3347 128.445 19.008 128.445 18.588C128.445 18.1493 128.315 17.818 128.053 17.594C127.801 17.37 127.419 17.258 126.905 17.258H125.981V15.662H126.905C127.353 15.662 127.699 15.5687 127.941 15.382C128.184 15.186 128.305 14.8873 128.305 14.486C128.305 14.1407 128.189 13.856 127.955 13.632C127.722 13.408 127.372 13.296 126.905 13.296C126.429 13.296 126.075 13.4033 125.841 13.618C125.617 13.8327 125.505 14.15 125.505 14.57H123.405C123.405 13.926 123.531 13.38 123.783 12.932C124.045 12.4747 124.437 12.1293 124.959 11.896C125.482 11.6533 126.131 11.532 126.905 11.532C127.68 11.532 128.329 11.6487 128.851 11.882C129.374 12.1153 129.761 12.4327 130.013 12.834C130.275 13.2353 130.405 13.688 130.405 14.192C130.405 14.7427 130.251 15.2093 129.943 15.592C129.645 15.9653 129.243 16.2313 128.739 16.39C129.318 16.5487 129.761 16.8287 130.069 17.23C130.387 17.622 130.545 18.1353 130.545 18.77C130.545 19.33 130.396 19.8293 130.097 20.268C129.808 20.6973 129.393 21.038 128.851 21.29C128.31 21.542 127.661 21.668 126.905 21.668Z" fill="white"/>
<rect x="148" width="32" height="32" rx="8" fill="#1F2229"/>
<g opacity="0.48">
<path d="M163.072 12.5L162.25 13.3225L164.922 16L162.25 18.6775L163.072 19.5L166.573 16L163.072 12.5Z" fill="white"/>
</g>
</svg>
