<svg width="1919" height="250" viewBox="0 0 1919 250" fill="none" xmlns="http://www.w3.org/2000/svg">
<rect width="1919" height="250" fill="url(#paint0_linear_36_453)"/>
<path d="M751.545 88V59.8H763.865C766.825 59.8 769.118 60.4533 770.745 61.76C772.372 63.04 773.185 64.8267 773.185 67.12C773.185 68.8267 772.692 70.2667 771.705 71.44C770.718 72.6133 769.372 73.4 767.665 73.8V73.2C768.972 73.3867 770.092 73.7867 771.025 74.4C771.958 75.0133 772.665 75.8 773.145 76.76C773.652 77.72 773.905 78.84 773.905 80.12C773.905 81.7733 773.518 83.2 772.745 84.4C771.998 85.5733 770.905 86.4667 769.465 87.08C768.025 87.6933 766.305 88 764.305 88H751.545ZM756.465 84.12H763.665C764.385 84.12 765.025 84.0667 765.585 83.96C766.172 83.8533 766.665 83.6933 767.065 83.48C767.492 83.24 767.838 82.9467 768.105 82.6C768.398 82.2533 768.612 81.8533 768.745 81.4C768.878 80.9467 768.945 80.44 768.945 79.88C768.945 79.2933 768.878 78.7733 768.745 78.32C768.612 77.8667 768.398 77.48 768.105 77.16C767.838 76.8133 767.492 76.5333 767.065 76.32C766.665 76.08 766.172 75.9067 765.585 75.8C765.025 75.6933 764.385 75.64 763.665 75.64H756.465V84.12ZM756.465 71.76H762.985C764.745 71.76 766.052 71.4267 766.905 70.76C767.785 70.0667 768.225 69.0533 768.225 67.72C768.225 66.3867 767.785 65.3867 766.905 64.72C766.052 64.0267 764.745 63.68 762.985 63.68H756.465V71.76ZM787.804 88.4C785.777 88.4 784.017 87.9867 782.524 87.16C781.031 86.3333 779.871 85.16 779.044 83.64C778.217 82.0933 777.804 80.28 777.804 78.2C777.804 76.12 778.217 74.32 779.044 72.8C779.871 71.28 781.031 70.1067 782.524 69.28C784.017 68.4533 785.777 68.04 787.804 68.04C789.831 68.04 791.591 68.4533 793.084 69.28C794.577 70.1067 795.737 71.28 796.564 72.8C797.391 74.32 797.804 76.12 797.804 78.2C797.804 80.28 797.391 82.0933 796.564 83.64C795.737 85.16 794.577 86.3333 793.084 87.16C791.591 87.9867 789.831 88.4 787.804 88.4ZM787.804 84.6C789.297 84.6 790.497 84.0667 791.404 83C792.311 81.9067 792.764 80.3067 792.764 78.2C792.764 76.0667 792.311 74.48 791.404 73.44C790.497 72.3733 789.297 71.84 787.804 71.84C786.311 71.84 785.111 72.3733 784.204 73.44C783.297 74.48 782.844 76.0667 782.844 78.2C782.844 80.3067 783.297 81.9067 784.204 83C785.111 84.0667 786.311 84.6 787.804 84.6ZM802.438 88V68.44H806.958V82.88H805.918L816.758 68.44H820.918V88H816.398V73.52H817.478L806.598 88H802.438ZM811.638 65.96C810.331 65.96 809.184 65.7333 808.198 65.28C807.211 64.8267 806.384 64.1867 805.718 63.36C805.078 62.5067 804.624 61.52 804.358 60.4L806.918 59.52C807.371 60.8 807.971 61.7333 808.718 62.32C809.491 62.9067 810.478 63.2 811.678 63.2C812.904 63.2 813.891 62.9067 814.638 62.32C815.384 61.7067 816.011 60.7867 816.518 59.56L818.958 60.4C818.584 61.6267 818.051 62.6533 817.358 63.48C816.664 64.3067 815.838 64.9333 814.878 65.36C813.918 65.76 812.838 65.96 811.638 65.96ZM830.698 88V72.36H824.018V68.44H842.418V72.36H835.698V88H830.698ZM845.485 88V68.44H850.005V82.88H848.965L859.805 68.44H863.965V88H859.445V73.52H860.525L849.645 88H845.485ZM880.406 88V68.44H890.966C892.646 68.44 894.006 68.64 895.046 69.04C896.113 69.44 896.886 70.0267 897.366 70.8C897.846 71.5467 898.086 72.4667 898.086 73.56C898.086 74.7867 897.66 75.8267 896.806 76.68C895.98 77.5067 894.873 78.0133 893.486 78.2V77.64C894.66 77.6933 895.633 77.9333 896.406 78.36C897.18 78.7867 897.766 79.36 898.166 80.08C898.566 80.7733 898.766 81.5867 898.766 82.52C898.766 84.2 898.126 85.5333 896.846 86.52C895.566 87.5067 893.713 88 891.286 88H880.406ZM885.046 84.92H890.846C891.94 84.92 892.766 84.6933 893.326 84.24C893.913 83.7867 894.206 83.12 894.206 82.24C894.206 81.36 893.913 80.6933 893.326 80.24C892.766 79.7867 891.94 79.56 890.846 79.56H885.046V84.92ZM885.046 76.48H890.486C891.446 76.48 892.193 76.2667 892.726 75.84C893.26 75.3867 893.526 74.76 893.526 73.96C893.526 73.16 893.26 72.56 892.726 72.16C892.193 71.7333 891.446 71.52 890.486 71.52H885.046V76.48ZM913.922 88V68.44H924.482C926.162 68.44 927.522 68.64 928.562 69.04C929.629 69.44 930.402 70.0267 930.882 70.8C931.362 71.5467 931.602 72.4667 931.602 73.56C931.602 74.7867 931.175 75.8267 930.322 76.68C929.495 77.5067 928.389 78.0133 927.002 78.2V77.64C928.175 77.6933 929.149 77.9333 929.922 78.36C930.695 78.7867 931.282 79.36 931.682 80.08C932.082 80.7733 932.282 81.5867 932.282 82.52C932.282 84.2 931.642 85.5333 930.362 86.52C929.082 87.5067 927.229 88 924.802 88H913.922ZM918.562 84.92H924.362C925.455 84.92 926.282 84.6933 926.842 84.24C927.429 83.7867 927.722 83.12 927.722 82.24C927.722 81.36 927.429 80.6933 926.842 80.24C926.282 79.7867 925.455 79.56 924.362 79.56H918.562V84.92ZM918.562 76.48H924.002C924.962 76.48 925.709 76.2667 926.242 75.84C926.775 75.3867 927.042 74.76 927.042 73.96C927.042 73.16 926.775 72.56 926.242 72.16C925.709 71.7333 924.962 71.52 924.002 71.52H918.562V76.48ZM936.656 88V68.44H941.656V74.92H946.816C949.403 74.92 951.35 75.4667 952.656 76.56C953.99 77.6533 954.656 79.2533 954.656 81.36C954.656 82.6933 954.336 83.8667 953.696 84.88C953.056 85.8667 952.15 86.64 950.976 87.2C949.83 87.7333 948.443 88 946.816 88H936.656ZM941.656 84.72H946.056C947.31 84.72 948.283 84.4533 948.976 83.92C949.67 83.36 950.016 82.52 950.016 81.4C950.016 80.3067 949.67 79.5067 948.976 79C948.283 78.4667 947.31 78.2 946.056 78.2H941.656V84.72ZM957.016 88V68.44H962.016V88H957.016ZM976.791 88.4C974.738 88.4 972.951 87.9867 971.431 87.16C969.911 86.3067 968.738 85.1067 967.911 83.56C967.084 82.0133 966.671 80.2 966.671 78.12C966.671 76.04 967.084 74.2533 967.911 72.76C968.738 71.24 969.911 70.08 971.431 69.28C972.951 68.4533 974.738 68.04 976.791 68.04C978.044 68.04 979.284 68.24 980.511 68.64C981.738 69.04 982.751 69.6 983.551 70.32L982.071 73.8C981.378 73.1867 980.591 72.72 979.711 72.4C978.858 72.08 978.031 71.92 977.231 71.92C975.498 71.92 974.151 72.4667 973.191 73.56C972.258 74.6267 971.791 76.16 971.791 78.16C971.791 80.1333 972.258 81.6933 973.191 82.84C974.151 83.96 975.498 84.52 977.231 84.52C978.004 84.52 978.831 84.36 979.711 84.04C980.591 83.72 981.378 83.24 982.071 82.6L983.551 86.12C982.751 86.8133 981.724 87.3733 980.471 87.8C979.244 88.2 978.018 88.4 976.791 88.4ZM987.164 88V68.44H991.884V84.08H998.604V68.44H1003.32V84.08H1010.04V68.44H1014.76V88H987.164ZM1022.25 95.2L1026.33 86.2V88.28L1017.73 68.44H1023.05L1029.13 83.6H1027.93L1034.13 68.44H1039.17L1027.41 95.2H1022.25ZM1060.05 88.4C1058.23 88.4 1056.63 88.0667 1055.25 87.4C1053.86 86.7067 1052.74 85.72 1051.89 84.44C1051.03 83.16 1050.49 81.6533 1050.25 79.92H1046.93V88H1042.05V68.44H1046.93V76H1050.29C1050.71 73.52 1051.78 71.5733 1053.49 70.16C1055.22 68.7467 1057.41 68.04 1060.05 68.04C1062.07 68.04 1063.83 68.4533 1065.33 69.28C1066.82 70.1067 1067.98 71.28 1068.81 72.8C1069.63 74.32 1070.05 76.12 1070.05 78.2C1070.05 80.28 1069.63 82.0933 1068.81 83.64C1067.98 85.16 1066.82 86.3333 1065.33 87.16C1063.83 87.9867 1062.07 88.4 1060.05 88.4ZM1060.05 84.6C1061.54 84.6 1062.74 84.0667 1063.65 83C1064.55 81.9067 1065.01 80.3067 1065.01 78.2C1065.01 76.0667 1064.55 74.48 1063.65 73.44C1062.74 72.3733 1061.54 71.84 1060.05 71.84C1058.58 71.84 1057.38 72.3733 1056.45 73.44C1055.54 74.48 1055.09 76.0667 1055.09 78.2C1055.09 80.3067 1055.54 81.9067 1056.45 83C1057.38 84.0667 1058.58 84.6 1060.05 84.6ZM1084.96 88.56L1083.4 84.6C1084.26 84.3067 1084.96 83.92 1085.52 83.44C1086.11 82.9333 1086.58 82.2933 1086.92 81.52C1087.27 80.72 1087.52 79.7467 1087.68 78.6C1087.84 77.4533 1087.92 76.08 1087.92 74.48V68.44H1103.68V88H1098.68V72.36H1092.52V74.64C1092.52 76.7467 1092.38 78.6 1092.08 80.2C1091.79 81.8 1091.34 83.16 1090.72 84.28C1090.14 85.4 1089.36 86.32 1088.4 87.04C1087.44 87.7333 1086.3 88.24 1084.96 88.56ZM1109.35 88V68.44H1113.87V82.88H1112.83L1123.67 68.44H1127.83V88H1123.31V73.52H1124.39L1113.51 88H1109.35ZM1133.49 88V68.44H1148.29V72.36H1138.49V88H1133.49ZM1153.57 95.2L1157.65 86.2V88.28L1149.05 68.44H1154.37L1160.45 83.6H1159.25L1165.45 68.44H1170.49L1158.73 95.2H1153.57Z" fill="white"/>
<path opacity="0.48" d="M707.341 128V117.425H716.281V128H714.736V118.73H708.901V128H707.341ZM721.857 128.135C721.117 128.135 720.477 127.98 719.937 127.67C719.407 127.36 718.992 126.92 718.692 126.35C718.392 125.78 718.242 125.11 718.242 124.34C718.242 123.56 718.392 122.89 718.692 122.33C718.992 121.76 719.407 121.32 719.937 121.01C720.477 120.7 721.117 120.545 721.857 120.545C722.587 120.545 723.217 120.7 723.747 121.01C724.287 121.32 724.707 121.76 725.007 122.33C725.307 122.9 725.457 123.57 725.457 124.34C725.457 125.11 725.307 125.78 725.007 126.35C724.707 126.92 724.287 127.36 723.747 127.67C723.217 127.98 722.587 128.135 721.857 128.135ZM721.842 126.965C722.472 126.965 722.977 126.74 723.357 126.29C723.737 125.84 723.927 125.19 723.927 124.34C723.927 123.48 723.737 122.83 723.357 122.39C722.977 121.95 722.472 121.73 721.842 121.73C721.222 121.73 720.722 121.95 720.342 122.39C719.962 122.83 719.772 123.48 719.772 124.34C719.772 125.19 719.962 125.84 720.342 126.29C720.722 126.74 721.222 126.965 721.842 126.965ZM726.858 128.195L726.348 126.995C726.678 126.865 726.953 126.695 727.173 126.485C727.403 126.275 727.583 126.01 727.713 125.69C727.843 125.36 727.938 124.955 727.998 124.475C728.058 123.995 728.088 123.415 728.088 122.735V120.68H733.668V128H732.153V121.895H729.498V122.78C729.498 123.61 729.448 124.335 729.348 124.955C729.248 125.565 729.093 126.085 728.883 126.515C728.673 126.945 728.398 127.295 728.058 127.565C727.728 127.835 727.328 128.045 726.858 128.195ZM736.713 130.7L738.153 127.49V128.135L734.958 120.68H736.578L739.038 126.755H738.618L741.108 120.68H742.668L738.303 130.7H736.713ZM748.566 128V125.18C748.296 125.33 748.006 125.445 747.696 125.525C747.396 125.605 747.076 125.645 746.736 125.645C746.036 125.645 745.451 125.53 744.981 125.3C744.521 125.07 744.176 124.73 743.946 124.28C743.726 123.82 743.616 123.245 743.616 122.555V120.68H745.131V122.435C745.131 122.885 745.191 123.26 745.311 123.56C745.441 123.85 745.641 124.065 745.911 124.205C746.181 124.335 746.536 124.4 746.976 124.4C747.296 124.4 747.581 124.365 747.831 124.295C748.081 124.215 748.321 124.095 748.551 123.935V120.68H750.066V128H748.566ZM754.694 128.135C754.184 128.135 753.724 128.035 753.314 127.835C752.914 127.635 752.599 127.365 752.369 127.025C752.139 126.685 752.024 126.3 752.024 125.87C752.024 125.33 752.159 124.905 752.429 124.595C752.709 124.275 753.164 124.05 753.794 123.92C754.434 123.78 755.294 123.71 756.374 123.71H757.079V124.64H756.389C755.849 124.64 755.394 124.66 755.024 124.7C754.654 124.74 754.359 124.805 754.139 124.895C753.919 124.975 753.759 125.09 753.659 125.24C753.569 125.39 753.524 125.57 753.524 125.78C753.524 126.16 753.654 126.47 753.914 126.71C754.174 126.94 754.534 127.055 754.994 127.055C755.364 127.055 755.689 126.97 755.969 126.8C756.249 126.62 756.469 126.38 756.629 126.08C756.799 125.78 756.884 125.435 756.884 125.045V123.32C756.884 122.75 756.764 122.34 756.524 122.09C756.284 121.84 755.889 121.715 755.339 121.715C754.919 121.715 754.499 121.78 754.079 121.91C753.659 122.03 753.229 122.225 752.789 122.495L752.324 121.43C752.584 121.25 752.884 121.095 753.224 120.965C753.564 120.835 753.919 120.735 754.289 120.665C754.669 120.585 755.034 120.545 755.384 120.545C756.054 120.545 756.604 120.65 757.034 120.86C757.474 121.07 757.799 121.39 758.009 121.82C758.219 122.25 758.324 122.805 758.324 123.485V128H756.899V126.365H757.034C756.954 126.735 756.804 127.055 756.584 127.325C756.374 127.585 756.109 127.785 755.789 127.925C755.469 128.065 755.104 128.135 754.694 128.135ZM760.572 128V120.68H761.952V126.5H761.562L765.912 120.68H767.187V128H765.807V122.18H766.212L761.847 128H760.572ZM763.872 119.75C763.432 119.75 763.037 119.675 762.687 119.525C762.337 119.365 762.037 119.135 761.787 118.835C761.537 118.525 761.352 118.155 761.232 117.725L762.057 117.44C762.237 117.93 762.472 118.29 762.762 118.52C763.062 118.75 763.437 118.865 763.887 118.865C764.347 118.865 764.722 118.755 765.012 118.535C765.302 118.305 765.552 117.945 765.762 117.455L766.557 117.725C766.397 118.195 766.182 118.58 765.912 118.88C765.652 119.18 765.352 119.4 765.012 119.54C764.672 119.68 764.292 119.75 763.872 119.75ZM770.993 128V121.895H768.413V120.68H775.103V121.895H772.508V128H770.993ZM779.725 128.135C778.925 128.135 778.235 127.985 777.655 127.685C777.085 127.375 776.64 126.94 776.32 126.38C776.01 125.81 775.855 125.135 775.855 124.355C775.855 123.595 776.01 122.93 776.32 122.36C776.63 121.79 777.055 121.345 777.595 121.025C778.135 120.705 778.75 120.545 779.44 120.545C780.12 120.545 780.7 120.695 781.18 120.995C781.67 121.285 782.045 121.7 782.305 122.24C782.565 122.78 782.695 123.425 782.695 124.175V124.685H777.055V123.755H781.675L781.42 123.965C781.42 123.215 781.255 122.635 780.925 122.225C780.595 121.815 780.12 121.61 779.5 121.61C779.03 121.61 778.63 121.72 778.3 121.94C777.98 122.16 777.735 122.465 777.565 122.855C777.395 123.245 777.31 123.7 777.31 124.22V124.31C777.31 124.89 777.4 125.38 777.58 125.78C777.77 126.17 778.045 126.465 778.405 126.665C778.765 126.865 779.21 126.965 779.74 126.965C780.16 126.965 780.57 126.9 780.97 126.77C781.38 126.63 781.765 126.415 782.125 126.125L782.575 127.175C782.245 127.475 781.82 127.71 781.3 127.88C780.78 128.05 780.255 128.135 779.725 128.135ZM787.683 129.95V126.8H788.493C788.713 126.47 788.888 126.115 789.018 125.735C789.148 125.355 789.243 124.925 789.303 124.445C789.363 123.965 789.393 123.42 789.393 122.81V120.68H794.808V126.8H795.978V129.95H794.688V128H788.988V129.95H787.683ZM789.903 126.8H793.368V121.865H790.713V123.125C790.713 123.815 790.643 124.485 790.503 125.135C790.363 125.785 790.163 126.34 789.903 126.8ZM800.681 128.135C799.941 128.135 799.301 127.98 798.761 127.67C798.231 127.36 797.816 126.92 797.516 126.35C797.216 125.78 797.066 125.11 797.066 124.34C797.066 123.56 797.216 122.89 797.516 122.33C797.816 121.76 798.231 121.32 798.761 121.01C799.301 120.7 799.941 120.545 800.681 120.545C801.411 120.545 802.041 120.7 802.571 121.01C803.111 121.32 803.531 121.76 803.831 122.33C804.131 122.9 804.281 123.57 804.281 124.34C804.281 125.11 804.131 125.78 803.831 126.35C803.531 126.92 803.111 127.36 802.571 127.67C802.041 127.98 801.411 128.135 800.681 128.135ZM800.666 126.965C801.296 126.965 801.801 126.74 802.181 126.29C802.561 125.84 802.751 125.19 802.751 124.34C802.751 123.48 802.561 122.83 802.181 122.39C801.801 121.95 801.296 121.73 800.666 121.73C800.046 121.73 799.546 121.95 799.166 122.39C798.786 122.83 798.596 123.48 798.596 124.34C798.596 125.19 798.786 125.84 799.166 126.29C799.546 126.74 800.046 126.965 800.666 126.965ZM805.036 128L808.381 123.845V124.595L805.231 120.68H807.001L809.236 123.53H808.696L810.931 120.68H812.701L809.551 124.565V123.89L812.896 128H811.096L808.696 124.97H809.206L806.821 128H805.036ZM817.233 128.135C816.493 128.135 815.853 127.98 815.313 127.67C814.783 127.36 814.368 126.92 814.068 126.35C813.768 125.78 813.618 125.11 813.618 124.34C813.618 123.56 813.768 122.89 814.068 122.33C814.368 121.76 814.783 121.32 815.313 121.01C815.853 120.7 816.493 120.545 817.233 120.545C817.963 120.545 818.593 120.7 819.123 121.01C819.663 121.32 820.083 121.76 820.383 122.33C820.683 122.9 820.833 123.57 820.833 124.34C820.833 125.11 820.683 125.78 820.383 126.35C820.083 126.92 819.663 127.36 819.123 127.67C818.593 127.98 817.963 128.135 817.233 128.135ZM817.218 126.965C817.848 126.965 818.353 126.74 818.733 126.29C819.113 125.84 819.303 125.19 819.303 124.34C819.303 123.48 819.113 122.83 818.733 122.39C818.353 121.95 817.848 121.73 817.218 121.73C816.598 121.73 816.098 121.95 815.718 122.39C815.338 122.83 815.148 123.48 815.148 124.34C815.148 125.19 815.338 125.84 815.718 126.29C816.098 126.74 816.598 126.965 817.218 126.965ZM821.946 129.95V126.8H822.756C822.976 126.47 823.151 126.115 823.281 125.735C823.411 125.355 823.506 124.925 823.566 124.445C823.626 123.965 823.656 123.42 823.656 122.81V120.68H829.071V126.8H830.241V129.95H828.951V128H823.251V129.95H821.946ZM824.166 126.8H827.631V121.865H824.976V123.125C824.976 123.815 824.906 124.485 824.766 125.135C824.626 125.785 824.426 126.34 824.166 126.8ZM838.239 128.135C837.599 128.135 836.994 128.055 836.424 127.895C835.854 127.735 835.389 127.51 835.029 127.22L835.464 126.2C835.814 126.47 836.229 126.675 836.709 126.815C837.199 126.945 837.699 127.01 838.209 127.01C838.879 127.01 839.364 126.92 839.664 126.74C839.964 126.56 840.114 126.285 840.114 125.915C840.114 125.575 839.994 125.315 839.754 125.135C839.524 124.945 839.184 124.85 838.734 124.85H836.904V123.74H838.569C838.969 123.74 839.284 123.655 839.514 123.485C839.744 123.305 839.859 123.055 839.859 122.735C839.859 122.405 839.724 122.145 839.454 121.955C839.194 121.765 838.759 121.67 838.149 121.67C837.649 121.67 837.189 121.735 836.769 121.865C836.349 121.985 835.949 122.17 835.569 122.42L835.134 121.415C835.544 121.125 836.024 120.91 836.574 120.77C837.124 120.62 837.724 120.545 838.374 120.545C839.324 120.545 840.039 120.73 840.519 121.1C841.009 121.46 841.254 121.96 841.254 122.6C841.254 123.07 841.094 123.465 840.774 123.785C840.464 124.095 840.049 124.28 839.529 124.34V124.145C839.939 124.155 840.289 124.24 840.579 124.4C840.879 124.55 841.109 124.76 841.269 125.03C841.439 125.3 841.524 125.61 841.524 125.96C841.524 126.62 841.244 127.15 840.684 127.55C840.124 127.94 839.309 128.135 838.239 128.135ZM845.646 128.135C845.136 128.135 844.676 128.035 844.266 127.835C843.866 127.635 843.551 127.365 843.321 127.025C843.091 126.685 842.976 126.3 842.976 125.87C842.976 125.33 843.111 124.905 843.381 124.595C843.661 124.275 844.116 124.05 844.746 123.92C845.386 123.78 846.246 123.71 847.326 123.71H848.031V124.64H847.341C846.801 124.64 846.346 124.66 845.976 124.7C845.606 124.74 845.311 124.805 845.091 124.895C844.871 124.975 844.711 125.09 844.611 125.24C844.521 125.39 844.476 125.57 844.476 125.78C844.476 126.16 844.606 126.47 844.866 126.71C845.126 126.94 845.486 127.055 845.946 127.055C846.316 127.055 846.641 126.97 846.921 126.8C847.201 126.62 847.421 126.38 847.581 126.08C847.751 125.78 847.836 125.435 847.836 125.045V123.32C847.836 122.75 847.716 122.34 847.476 122.09C847.236 121.84 846.841 121.715 846.291 121.715C845.871 121.715 845.451 121.78 845.031 121.91C844.611 122.03 844.181 122.225 843.741 122.495L843.276 121.43C843.536 121.25 843.836 121.095 844.176 120.965C844.516 120.835 844.871 120.735 845.241 120.665C845.621 120.585 845.986 120.545 846.336 120.545C847.006 120.545 847.556 120.65 847.986 120.86C848.426 121.07 848.751 121.39 848.961 121.82C849.171 122.25 849.276 122.805 849.276 123.485V128H847.851V126.365H847.986C847.906 126.735 847.756 127.055 847.536 127.325C847.326 127.585 847.061 127.785 846.741 127.925C846.421 128.065 846.056 128.135 845.646 128.135ZM855.464 128V120.68H856.979V123.65H858.209L860.474 120.68H862.124L859.409 124.295L859.034 123.815C859.314 123.845 859.559 123.915 859.769 124.025C859.979 124.135 860.174 124.3 860.354 124.52C860.544 124.74 860.744 125.03 860.954 125.39L862.469 128H860.849L859.574 125.81C859.424 125.55 859.274 125.35 859.124 125.21C858.984 125.07 858.829 124.975 858.659 124.925C858.489 124.865 858.274 124.835 858.014 124.835H856.979V128H855.464ZM866.774 128.135C866.034 128.135 865.394 127.98 864.854 127.67C864.324 127.36 863.909 126.92 863.609 126.35C863.309 125.78 863.159 125.11 863.159 124.34C863.159 123.56 863.309 122.89 863.609 122.33C863.909 121.76 864.324 121.32 864.854 121.01C865.394 120.7 866.034 120.545 866.774 120.545C867.504 120.545 868.134 120.7 868.664 121.01C869.204 121.32 869.624 121.76 869.924 122.33C870.224 122.9 870.374 123.57 870.374 124.34C870.374 125.11 870.224 125.78 869.924 126.35C869.624 126.92 869.204 127.36 868.664 127.67C868.134 127.98 867.504 128.135 866.774 128.135ZM866.759 126.965C867.389 126.965 867.894 126.74 868.274 126.29C868.654 125.84 868.844 125.19 868.844 124.34C868.844 123.48 868.654 122.83 868.274 122.39C867.894 121.95 867.389 121.73 866.759 121.73C866.139 121.73 865.639 121.95 865.259 122.39C864.879 122.83 864.689 123.48 864.689 124.34C864.689 125.19 864.879 125.84 865.259 126.29C865.639 126.74 866.139 126.965 866.759 126.965ZM872.237 128V120.68H878.867V128H877.352V121.895H873.752V128H872.237ZM881.128 128V120.68H882.508V126.5H882.118L886.468 120.68H887.743V128H886.363V122.18H886.768L882.403 128H881.128ZM890.035 130.7V120.68H891.52V122.33H891.355C891.515 121.79 891.83 121.36 892.3 121.04C892.77 120.71 893.325 120.545 893.965 120.545C894.615 120.545 895.18 120.7 895.66 121.01C896.15 121.32 896.525 121.755 896.785 122.315C897.055 122.875 897.19 123.55 897.19 124.34C897.19 125.11 897.055 125.785 896.785 126.365C896.525 126.935 896.155 127.375 895.675 127.685C895.195 127.985 894.625 128.135 893.965 128.135C893.335 128.135 892.785 127.975 892.315 127.655C891.845 127.335 891.53 126.91 891.37 126.38H891.55V130.7H890.035ZM893.59 126.965C894.22 126.965 894.72 126.74 895.09 126.29C895.47 125.84 895.66 125.19 895.66 124.34C895.66 123.48 895.47 122.83 895.09 122.39C894.72 121.95 894.22 121.73 893.59 121.73C892.97 121.73 892.47 121.95 892.09 122.39C891.71 122.83 891.52 123.48 891.52 124.34C891.52 125.19 891.71 125.84 892.09 126.29C892.47 126.74 892.97 126.965 893.59 126.965ZM902.238 128.135C901.498 128.135 900.858 127.98 900.318 127.67C899.788 127.36 899.373 126.92 899.073 126.35C898.773 125.78 898.623 125.11 898.623 124.34C898.623 123.56 898.773 122.89 899.073 122.33C899.373 121.76 899.788 121.32 900.318 121.01C900.858 120.7 901.498 120.545 902.238 120.545C902.968 120.545 903.598 120.7 904.128 121.01C904.668 121.32 905.088 121.76 905.388 122.33C905.688 122.9 905.838 123.57 905.838 124.34C905.838 125.11 905.688 125.78 905.388 126.35C905.088 126.92 904.668 127.36 904.128 127.67C903.598 127.98 902.968 128.135 902.238 128.135ZM902.223 126.965C902.853 126.965 903.358 126.74 903.738 126.29C904.118 125.84 904.308 125.19 904.308 124.34C904.308 123.48 904.118 122.83 903.738 122.39C903.358 121.95 902.853 121.73 902.223 121.73C901.603 121.73 901.103 121.95 900.723 122.39C900.343 122.83 900.153 123.48 900.153 124.34C900.153 125.19 900.343 125.84 900.723 126.29C901.103 126.74 901.603 126.965 902.223 126.965ZM907.701 128V120.68H911.436C912.036 120.68 912.526 120.755 912.906 120.905C913.296 121.055 913.581 121.275 913.761 121.565C913.941 121.845 914.031 122.19 914.031 122.6C914.031 123.07 913.871 123.465 913.551 123.785C913.231 124.095 912.811 124.28 912.291 124.34V124.145C912.711 124.155 913.066 124.24 913.356 124.4C913.656 124.56 913.881 124.775 914.031 125.045C914.191 125.305 914.271 125.61 914.271 125.96C914.271 126.59 914.036 127.09 913.566 127.46C913.096 127.82 912.426 128 911.556 128H907.701ZM909.126 127.025H911.466C911.916 127.025 912.261 126.93 912.501 126.74C912.751 126.54 912.876 126.255 912.876 125.885C912.876 125.515 912.751 125.235 912.501 125.045C912.261 124.855 911.916 124.76 911.466 124.76H909.126V127.025ZM909.126 123.785H911.331C911.741 123.785 912.056 123.69 912.276 123.5C912.506 123.31 912.621 123.05 912.621 122.72C912.621 122.38 912.506 122.12 912.276 121.94C912.056 121.76 911.741 121.67 911.331 121.67H909.126V123.785ZM918.391 128.135C917.881 128.135 917.421 128.035 917.011 127.835C916.611 127.635 916.296 127.365 916.066 127.025C915.836 126.685 915.721 126.3 915.721 125.87C915.721 125.33 915.856 124.905 916.126 124.595C916.406 124.275 916.861 124.05 917.491 123.92C918.131 123.78 918.991 123.71 920.071 123.71H920.776V124.64H920.086C919.546 124.64 919.091 124.66 918.721 124.7C918.351 124.74 918.056 124.805 917.836 124.895C917.616 124.975 917.456 125.09 917.356 125.24C917.266 125.39 917.221 125.57 917.221 125.78C917.221 126.16 917.351 126.47 917.611 126.71C917.871 126.94 918.231 127.055 918.691 127.055C919.061 127.055 919.386 126.97 919.666 126.8C919.946 126.62 920.166 126.38 920.326 126.08C920.496 125.78 920.581 125.435 920.581 125.045V123.32C920.581 122.75 920.461 122.34 920.221 122.09C919.981 121.84 919.586 121.715 919.036 121.715C918.616 121.715 918.196 121.78 917.776 121.91C917.356 122.03 916.926 122.225 916.486 122.495L916.021 121.43C916.281 121.25 916.581 121.095 916.921 120.965C917.261 120.835 917.616 120.735 917.986 120.665C918.366 120.585 918.731 120.545 919.081 120.545C919.751 120.545 920.301 120.65 920.731 120.86C921.171 121.07 921.496 121.39 921.706 121.82C921.916 122.25 922.021 122.805 922.021 123.485V128H920.596V126.365H920.731C920.651 126.735 920.501 127.055 920.281 127.325C920.071 127.585 919.806 127.785 919.486 127.925C919.166 128.065 918.801 128.135 918.391 128.135ZM924.268 128V120.68H925.783V123.635H929.428V120.68H930.943V128H929.428V124.835H925.783V128H924.268ZM933.203 128V120.68H934.583V126.5H934.193L938.543 120.68H939.818V128H938.438V122.18H938.843L934.478 128H933.203ZM945.545 128.135C944.745 128.135 944.055 127.985 943.475 127.685C942.905 127.375 942.46 126.94 942.14 126.38C941.83 125.81 941.675 125.135 941.675 124.355C941.675 123.595 941.83 122.93 942.14 122.36C942.45 121.79 942.875 121.345 943.415 121.025C943.955 120.705 944.57 120.545 945.26 120.545C945.94 120.545 946.52 120.695 947 120.995C947.49 121.285 947.865 121.7 948.125 122.24C948.385 122.78 948.515 123.425 948.515 124.175V124.685H942.875V123.755H947.495L947.24 123.965C947.24 123.215 947.075 122.635 946.745 122.225C946.415 121.815 945.94 121.61 945.32 121.61C944.85 121.61 944.45 121.72 944.12 121.94C943.8 122.16 943.555 122.465 943.385 122.855C943.215 123.245 943.13 123.7 943.13 124.22V124.31C943.13 124.89 943.22 125.38 943.4 125.78C943.59 126.17 943.865 126.465 944.225 126.665C944.585 126.865 945.03 126.965 945.56 126.965C945.98 126.965 946.39 126.9 946.79 126.77C947.2 126.63 947.585 126.415 947.945 126.125L948.395 127.175C948.065 127.475 947.64 127.71 947.12 127.88C946.6 128.05 946.075 128.135 945.545 128.135ZM954.253 128V120.68H957.988C958.588 120.68 959.078 120.755 959.458 120.905C959.848 121.055 960.133 121.275 960.313 121.565C960.493 121.845 960.583 122.19 960.583 122.6C960.583 123.07 960.423 123.465 960.103 123.785C959.783 124.095 959.363 124.28 958.843 124.34V124.145C959.263 124.155 959.618 124.24 959.908 124.4C960.208 124.56 960.433 124.775 960.583 125.045C960.743 125.305 960.823 125.61 960.823 125.96C960.823 126.59 960.588 127.09 960.118 127.46C959.648 127.82 958.978 128 958.108 128H954.253ZM955.678 127.025H958.018C958.468 127.025 958.813 126.93 959.053 126.74C959.303 126.54 959.428 126.255 959.428 125.885C959.428 125.515 959.303 125.235 959.053 125.045C958.813 124.855 958.468 124.76 958.018 124.76H955.678V127.025ZM955.678 123.785H957.883C958.293 123.785 958.608 123.69 958.828 123.5C959.058 123.31 959.173 123.05 959.173 122.72C959.173 122.38 959.058 122.12 958.828 121.94C958.608 121.76 958.293 121.67 957.883 121.67H955.678V123.785ZM964.943 128.135C964.433 128.135 963.973 128.035 963.563 127.835C963.163 127.635 962.848 127.365 962.618 127.025C962.388 126.685 962.273 126.3 962.273 125.87C962.273 125.33 962.408 124.905 962.678 124.595C962.958 124.275 963.413 124.05 964.043 123.92C964.683 123.78 965.543 123.71 966.623 123.71H967.328V124.64H966.638C966.098 124.64 965.643 124.66 965.273 124.7C964.903 124.74 964.608 124.805 964.388 124.895C964.168 124.975 964.008 125.09 963.908 125.24C963.818 125.39 963.773 125.57 963.773 125.78C963.773 126.16 963.903 126.47 964.163 126.71C964.423 126.94 964.783 127.055 965.243 127.055C965.613 127.055 965.938 126.97 966.218 126.8C966.498 126.62 966.718 126.38 966.878 126.08C967.048 125.78 967.133 125.435 967.133 125.045V123.32C967.133 122.75 967.013 122.34 966.773 122.09C966.533 121.84 966.138 121.715 965.588 121.715C965.168 121.715 964.748 121.78 964.328 121.91C963.908 122.03 963.478 122.225 963.038 122.495L962.573 121.43C962.833 121.25 963.133 121.095 963.473 120.965C963.813 120.835 964.168 120.735 964.538 120.665C964.918 120.585 965.283 120.545 965.633 120.545C966.303 120.545 966.853 120.65 967.283 120.86C967.723 121.07 968.048 121.39 968.258 121.82C968.468 122.25 968.573 122.805 968.573 123.485V128H967.148V126.365H967.283C967.203 126.735 967.053 127.055 966.833 127.325C966.623 127.585 966.358 127.785 966.038 127.925C965.718 128.065 965.353 128.135 964.943 128.135ZM970.821 128V120.68H972.261V126.8H975.066V120.68H976.506V126.8H979.311V120.68H980.751V128H970.821ZM983.037 128V120.68H984.417V126.5H984.027L988.377 120.68H989.652V128H988.272V122.18H988.677L984.312 128H983.037ZM990.969 128L994.314 123.845V124.595L991.164 120.68H992.934L995.169 123.53H994.629L996.864 120.68H998.634L995.484 124.565V123.89L998.829 128H997.029L994.629 124.97H995.139L992.754 128H990.969ZM1007.3 128.135C1006.55 128.135 1005.9 127.98 1005.35 127.67C1004.81 127.35 1004.39 126.905 1004.09 126.335C1003.79 125.755 1003.64 125.075 1003.64 124.295C1003.64 123.525 1003.79 122.86 1004.09 122.3C1004.39 121.74 1004.81 121.31 1005.35 121.01C1005.9 120.7 1006.55 120.545 1007.3 120.545C1007.76 120.545 1008.21 120.625 1008.66 120.785C1009.11 120.935 1009.48 121.155 1009.77 121.445L1009.29 122.51C1009.02 122.25 1008.72 122.06 1008.38 121.94C1008.04 121.81 1007.72 121.745 1007.42 121.745C1006.71 121.745 1006.16 121.97 1005.77 122.42C1005.39 122.86 1005.2 123.49 1005.2 124.31C1005.2 125.13 1005.39 125.775 1005.77 126.245C1006.16 126.705 1006.71 126.935 1007.42 126.935C1007.72 126.935 1008.04 126.875 1008.38 126.755C1008.72 126.625 1009.02 126.43 1009.29 126.17L1009.77 127.25C1009.48 127.52 1009.11 127.735 1008.65 127.895C1008.2 128.055 1007.75 128.135 1007.3 128.135ZM1010.49 129.95V126.8H1011.3C1011.52 126.47 1011.69 126.115 1011.82 125.735C1011.95 125.355 1012.05 124.925 1012.11 124.445C1012.17 123.965 1012.2 123.42 1012.2 122.81V120.68H1017.61V126.8H1018.78V129.95H1017.49V128H1011.79V129.95H1010.49ZM1012.71 126.8H1016.17V121.865H1013.52V123.125C1013.52 123.815 1013.45 124.485 1013.31 125.135C1013.17 125.785 1012.97 126.34 1012.71 126.8ZM1023.74 128.135C1022.94 128.135 1022.25 127.985 1021.67 127.685C1021.1 127.375 1020.65 126.94 1020.33 126.38C1020.02 125.81 1019.87 125.135 1019.87 124.355C1019.87 123.595 1020.02 122.93 1020.33 122.36C1020.64 121.79 1021.07 121.345 1021.61 121.025C1022.15 120.705 1022.76 120.545 1023.45 120.545C1024.13 120.545 1024.71 120.695 1025.19 120.995C1025.68 121.285 1026.06 121.7 1026.32 122.24C1026.58 122.78 1026.71 123.425 1026.71 124.175V124.685H1021.07V123.755H1025.69L1025.43 123.965C1025.43 123.215 1025.27 122.635 1024.94 122.225C1024.61 121.815 1024.13 121.61 1023.51 121.61C1023.04 121.61 1022.64 121.72 1022.31 121.94C1021.99 122.16 1021.75 122.465 1021.58 122.855C1021.41 123.245 1021.32 123.7 1021.32 124.22V124.31C1021.32 124.89 1021.41 125.38 1021.59 125.78C1021.78 126.17 1022.06 126.465 1022.42 126.665C1022.78 126.865 1023.22 126.965 1023.75 126.965C1024.17 126.965 1024.58 126.9 1024.98 126.77C1025.39 126.63 1025.78 126.415 1026.14 126.125L1026.59 127.175C1026.26 127.475 1025.83 127.71 1025.31 127.88C1024.79 128.05 1024.27 128.135 1023.74 128.135ZM1028.19 128.195L1027.68 126.995C1028.01 126.865 1028.29 126.695 1028.51 126.485C1028.74 126.275 1028.92 126.01 1029.05 125.69C1029.18 125.36 1029.27 124.955 1029.33 124.475C1029.39 123.995 1029.42 123.415 1029.42 122.735V120.68H1035V128H1033.49V121.895H1030.83V122.78C1030.83 123.61 1030.78 124.335 1030.68 124.955C1030.58 125.565 1030.43 126.085 1030.22 126.515C1030.01 126.945 1029.73 127.295 1029.39 127.565C1029.06 127.835 1028.66 128.045 1028.19 128.195ZM1040.48 128.135C1039.74 128.135 1039.1 127.98 1038.56 127.67C1038.03 127.36 1037.61 126.92 1037.31 126.35C1037.01 125.78 1036.86 125.11 1036.86 124.34C1036.86 123.56 1037.01 122.89 1037.31 122.33C1037.61 121.76 1038.03 121.32 1038.56 121.01C1039.1 120.7 1039.74 120.545 1040.48 120.545C1041.21 120.545 1041.84 120.7 1042.37 121.01C1042.91 121.32 1043.33 121.76 1043.63 122.33C1043.93 122.9 1044.08 123.57 1044.08 124.34C1044.08 125.11 1043.93 125.78 1043.63 126.35C1043.33 126.92 1042.91 127.36 1042.37 127.67C1041.84 127.98 1041.21 128.135 1040.48 128.135ZM1040.46 126.965C1041.09 126.965 1041.6 126.74 1041.98 126.29C1042.36 125.84 1042.55 125.19 1042.55 124.34C1042.55 123.48 1042.36 122.83 1041.98 122.39C1041.6 121.95 1041.09 121.73 1040.46 121.73C1039.84 121.73 1039.34 121.95 1038.96 122.39C1038.58 122.83 1038.39 123.48 1038.39 124.34C1038.39 125.19 1038.58 125.84 1038.96 126.29C1039.34 126.74 1039.84 126.965 1040.46 126.965ZM1045.94 128V120.68H1047.45V123.65H1048.68L1050.95 120.68H1052.6L1049.88 124.295L1049.51 123.815C1049.79 123.845 1050.03 123.915 1050.24 124.025C1050.45 124.135 1050.65 124.3 1050.83 124.52C1051.02 124.74 1051.22 125.03 1051.43 125.39L1052.94 128H1051.32L1050.05 125.81C1049.9 125.55 1049.75 125.35 1049.6 125.21C1049.46 125.07 1049.3 124.975 1049.13 124.925C1048.96 124.865 1048.75 124.835 1048.49 124.835H1047.45V128H1045.94ZM1057.99 128V120.68H1059.51V123.635H1063.15V120.68H1064.67V128H1063.15V124.835H1059.51V128H1057.99ZM1069.28 128.135C1068.77 128.135 1068.31 128.035 1067.9 127.835C1067.5 127.635 1067.19 127.365 1066.96 127.025C1066.73 126.685 1066.61 126.3 1066.61 125.87C1066.61 125.33 1066.75 124.905 1067.02 124.595C1067.3 124.275 1067.75 124.05 1068.38 123.92C1069.02 123.78 1069.88 123.71 1070.96 123.71H1071.67V124.64H1070.98C1070.44 124.64 1069.98 124.66 1069.61 124.7C1069.24 124.74 1068.95 124.805 1068.73 124.895C1068.51 124.975 1068.35 125.09 1068.25 125.24C1068.16 125.39 1068.11 125.57 1068.11 125.78C1068.11 126.16 1068.24 126.47 1068.5 126.71C1068.76 126.94 1069.12 127.055 1069.58 127.055C1069.95 127.055 1070.28 126.97 1070.56 126.8C1070.84 126.62 1071.06 126.38 1071.22 126.08C1071.39 125.78 1071.47 125.435 1071.47 125.045V123.32C1071.47 122.75 1071.35 122.34 1071.11 122.09C1070.87 121.84 1070.48 121.715 1069.93 121.715C1069.51 121.715 1069.09 121.78 1068.67 121.91C1068.25 122.03 1067.82 122.225 1067.38 122.495L1066.91 121.43C1067.17 121.25 1067.47 121.095 1067.81 120.965C1068.15 120.835 1068.51 120.735 1068.88 120.665C1069.26 120.585 1069.62 120.545 1069.97 120.545C1070.64 120.545 1071.19 120.65 1071.62 120.86C1072.06 121.07 1072.39 121.39 1072.6 121.82C1072.81 122.25 1072.91 122.805 1072.91 123.485V128H1071.49V126.365H1071.62C1071.54 126.735 1071.39 127.055 1071.17 127.325C1070.96 127.585 1070.7 127.785 1070.38 127.925C1070.06 128.065 1069.69 128.135 1069.28 128.135ZM1079.1 128V120.68H1080.62V123.635H1084.26V120.68H1085.78V128H1084.26V124.835H1080.62V128H1079.1ZM1090.39 128.135C1089.88 128.135 1089.42 128.035 1089.01 127.835C1088.61 127.635 1088.3 127.365 1088.07 127.025C1087.84 126.685 1087.72 126.3 1087.72 125.87C1087.72 125.33 1087.86 124.905 1088.13 124.595C1088.41 124.275 1088.86 124.05 1089.49 123.92C1090.13 123.78 1090.99 123.71 1092.07 123.71H1092.78V124.64H1092.09C1091.55 124.64 1091.09 124.66 1090.72 124.7C1090.35 124.74 1090.06 124.805 1089.84 124.895C1089.62 124.975 1089.46 125.09 1089.36 125.24C1089.27 125.39 1089.22 125.57 1089.22 125.78C1089.22 126.16 1089.35 126.47 1089.61 126.71C1089.87 126.94 1090.23 127.055 1090.69 127.055C1091.06 127.055 1091.39 126.97 1091.67 126.8C1091.95 126.62 1092.17 126.38 1092.33 126.08C1092.5 125.78 1092.58 125.435 1092.58 125.045V123.32C1092.58 122.75 1092.46 122.34 1092.22 122.09C1091.98 121.84 1091.59 121.715 1091.04 121.715C1090.62 121.715 1090.2 121.78 1089.78 121.91C1089.36 122.03 1088.93 122.225 1088.49 122.495L1088.02 121.43C1088.28 121.25 1088.58 121.095 1088.92 120.965C1089.26 120.835 1089.62 120.735 1089.99 120.665C1090.37 120.585 1090.73 120.545 1091.08 120.545C1091.75 120.545 1092.3 120.65 1092.73 120.86C1093.17 121.07 1093.5 121.39 1093.71 121.82C1093.92 122.25 1094.02 122.805 1094.02 123.485V128H1092.6V126.365H1092.73C1092.65 126.735 1092.5 127.055 1092.28 127.325C1092.07 127.585 1091.81 127.785 1091.49 127.925C1091.17 128.065 1090.8 128.135 1090.39 128.135ZM1096.27 128V120.68H1097.71V126.8H1100.51V120.68H1101.95V126.8H1104.76V120.68H1106.2V128H1096.27ZM1111.94 128.135C1111.14 128.135 1110.45 127.985 1109.87 127.685C1109.3 127.375 1108.85 126.94 1108.53 126.38C1108.22 125.81 1108.07 125.135 1108.07 124.355C1108.07 123.595 1108.22 122.93 1108.53 122.36C1108.84 121.79 1109.27 121.345 1109.81 121.025C1110.35 120.705 1110.96 120.545 1111.65 120.545C1112.33 120.545 1112.91 120.695 1113.39 120.995C1113.88 121.285 1114.26 121.7 1114.52 122.24C1114.78 122.78 1114.91 123.425 1114.91 124.175V124.685H1109.27V123.755H1113.89L1113.63 123.965C1113.63 123.215 1113.47 122.635 1113.14 122.225C1112.81 121.815 1112.33 121.61 1111.71 121.61C1111.24 121.61 1110.84 121.72 1110.51 121.94C1110.19 122.16 1109.95 122.465 1109.78 122.855C1109.61 123.245 1109.52 123.7 1109.52 124.22V124.31C1109.52 124.89 1109.61 125.38 1109.79 125.78C1109.98 126.17 1110.26 126.465 1110.62 126.665C1110.98 126.865 1111.42 126.965 1111.95 126.965C1112.37 126.965 1112.78 126.9 1113.18 126.77C1113.59 126.63 1113.98 126.415 1114.34 126.125L1114.79 127.175C1114.46 127.475 1114.03 127.71 1113.51 127.88C1112.99 128.05 1112.47 128.135 1111.94 128.135ZM1116.7 128V120.68H1118.08V126.5H1117.69L1122.04 120.68H1123.32V128H1121.94V122.18H1122.34L1117.98 128H1116.7ZM1120 119.75C1119.56 119.75 1119.17 119.675 1118.82 119.525C1118.47 119.365 1118.17 119.135 1117.92 118.835C1117.67 118.525 1117.48 118.155 1117.36 117.725L1118.19 117.44C1118.37 117.93 1118.6 118.29 1118.89 118.52C1119.19 118.75 1119.57 118.865 1120.02 118.865C1120.48 118.865 1120.85 118.755 1121.14 118.535C1121.43 118.305 1121.68 117.945 1121.89 117.455L1122.69 117.725C1122.53 118.195 1122.31 118.58 1122.04 118.88C1121.78 119.18 1121.48 119.4 1121.14 119.54C1120.8 119.68 1120.42 119.75 1120 119.75ZM1129.54 128V120.68H1136.17V128H1134.65V121.895H1131.05V128H1129.54ZM1138.11 128.195L1137.6 126.995C1137.93 126.865 1138.21 126.695 1138.43 126.485C1138.66 126.275 1138.84 126.01 1138.97 125.69C1139.1 125.36 1139.19 124.955 1139.25 124.475C1139.31 123.995 1139.34 123.415 1139.34 122.735V120.68H1144.92V128H1143.41V121.895H1140.75V122.78C1140.75 123.61 1140.7 124.335 1140.6 124.955C1140.5 125.565 1140.35 126.085 1140.14 126.515C1139.93 126.945 1139.65 127.295 1139.31 127.565C1138.98 127.835 1138.58 128.045 1138.11 128.195ZM1149.56 128.135C1149.05 128.135 1148.59 128.035 1148.18 127.835C1147.78 127.635 1147.46 127.365 1147.23 127.025C1147 126.685 1146.89 126.3 1146.89 125.87C1146.89 125.33 1147.02 124.905 1147.29 124.595C1147.57 124.275 1148.03 124.05 1148.66 123.92C1149.3 123.78 1150.16 123.71 1151.24 123.71H1151.94V124.64H1151.25C1150.71 124.64 1150.26 124.66 1149.89 124.7C1149.52 124.74 1149.22 124.805 1149 124.895C1148.78 124.975 1148.62 125.09 1148.52 125.24C1148.43 125.39 1148.39 125.57 1148.39 125.78C1148.39 126.16 1148.52 126.47 1148.78 126.71C1149.04 126.94 1149.4 127.055 1149.86 127.055C1150.23 127.055 1150.55 126.97 1150.83 126.8C1151.11 126.62 1151.33 126.38 1151.49 126.08C1151.66 125.78 1151.75 125.435 1151.75 125.045V123.32C1151.75 122.75 1151.63 122.34 1151.39 122.09C1151.15 121.84 1150.75 121.715 1150.2 121.715C1149.78 121.715 1149.36 121.78 1148.94 121.91C1148.52 122.03 1148.09 122.225 1147.65 122.495L1147.19 121.43C1147.45 121.25 1147.75 121.095 1148.09 120.965C1148.43 120.835 1148.78 120.735 1149.15 120.665C1149.53 120.585 1149.9 120.545 1150.25 120.545C1150.92 120.545 1151.47 120.65 1151.9 120.86C1152.34 121.07 1152.66 121.39 1152.87 121.82C1153.08 122.25 1153.19 122.805 1153.19 123.485V128H1151.76V126.365H1151.9C1151.82 126.735 1151.67 127.055 1151.45 127.325C1151.24 127.585 1150.97 127.785 1150.65 127.925C1150.33 128.065 1149.97 128.135 1149.56 128.135ZM1156.96 128V121.895H1154.38V120.68H1161.07V121.895H1158.48V128H1156.96ZM1166.51 130.7V126.485H1166.66C1166.5 127.015 1166.24 127.425 1165.88 127.715C1165.53 127.995 1165.09 128.135 1164.56 128.135C1164.03 128.135 1163.56 127.98 1163.16 127.67C1162.76 127.36 1162.45 126.92 1162.22 126.35C1161.99 125.78 1161.87 125.11 1161.87 124.34C1161.87 123.56 1161.98 122.89 1162.2 122.33C1162.43 121.76 1162.75 121.32 1163.15 121.01C1163.56 120.7 1164.03 120.545 1164.56 120.545C1165.09 120.545 1165.53 120.69 1165.89 120.98C1166.25 121.27 1166.51 121.675 1166.66 122.195H1166.51V117.425H1168.02V122.195H1167.87C1168.01 121.675 1168.26 121.27 1168.62 120.98C1168.99 120.69 1169.44 120.545 1169.96 120.545C1170.49 120.545 1170.95 120.7 1171.35 121.01C1171.76 121.32 1172.08 121.76 1172.3 122.33C1172.53 122.89 1172.64 123.56 1172.64 124.34C1172.64 125.11 1172.53 125.78 1172.31 126.35C1172.09 126.92 1171.78 127.36 1171.37 127.67C1170.97 127.98 1170.5 128.135 1169.96 128.135C1169.44 128.135 1169 127.995 1168.64 127.715C1168.29 127.425 1168.03 127.015 1167.87 126.485H1168.02V130.7H1166.51ZM1164.96 126.98C1165.29 126.98 1165.57 126.885 1165.8 126.695C1166.03 126.495 1166.21 126.2 1166.34 125.81C1166.47 125.41 1166.54 124.92 1166.54 124.34C1166.54 123.76 1166.47 123.275 1166.34 122.885C1166.21 122.495 1166.03 122.205 1165.79 122.015C1165.56 121.815 1165.28 121.715 1164.96 121.715C1164.48 121.715 1164.1 121.935 1163.81 122.375C1163.53 122.815 1163.39 123.47 1163.39 124.34C1163.39 125.22 1163.53 125.88 1163.81 126.32C1164.1 126.76 1164.48 126.98 1164.96 126.98ZM1169.55 126.98C1170.04 126.98 1170.43 126.76 1170.71 126.32C1170.99 125.88 1171.13 125.22 1171.13 124.34C1171.13 123.47 1170.98 122.815 1170.69 122.375C1170.41 121.935 1170.03 121.715 1169.55 121.715C1169.23 121.715 1168.96 121.815 1168.73 122.015C1168.5 122.205 1168.32 122.495 1168.19 122.885C1168.06 123.275 1167.99 123.76 1167.99 124.34C1167.99 124.92 1168.06 125.41 1168.19 125.81C1168.32 126.2 1168.5 126.495 1168.73 126.695C1168.96 126.885 1169.23 126.98 1169.55 126.98ZM1177.7 128.135C1176.96 128.135 1176.32 127.98 1175.78 127.67C1175.25 127.36 1174.84 126.92 1174.54 126.35C1174.24 125.78 1174.09 125.11 1174.09 124.34C1174.09 123.56 1174.24 122.89 1174.54 122.33C1174.84 121.76 1175.25 121.32 1175.78 121.01C1176.32 120.7 1176.96 120.545 1177.7 120.545C1178.43 120.545 1179.06 120.7 1179.59 121.01C1180.13 121.32 1180.55 121.76 1180.85 122.33C1181.15 122.9 1181.3 123.57 1181.3 124.34C1181.3 125.11 1181.15 125.78 1180.85 126.35C1180.55 126.92 1180.13 127.36 1179.59 127.67C1179.06 127.98 1178.43 128.135 1177.7 128.135ZM1177.69 126.965C1178.32 126.965 1178.82 126.74 1179.2 126.29C1179.58 125.84 1179.77 125.19 1179.77 124.34C1179.77 123.48 1179.58 122.83 1179.2 122.39C1178.82 121.95 1178.32 121.73 1177.69 121.73C1177.07 121.73 1176.57 121.95 1176.19 122.39C1175.81 122.83 1175.62 123.48 1175.62 124.34C1175.62 125.19 1175.81 125.84 1176.19 126.29C1176.57 126.74 1177.07 126.965 1177.69 126.965ZM1183.18 130.7V120.68H1184.66V122.33H1184.5C1184.66 121.79 1184.97 121.36 1185.44 121.04C1185.91 120.71 1186.47 120.545 1187.11 120.545C1187.76 120.545 1188.32 120.7 1188.8 121.01C1189.29 121.32 1189.67 121.755 1189.93 122.315C1190.2 122.875 1190.33 123.55 1190.33 124.34C1190.33 125.11 1190.2 125.785 1189.93 126.365C1189.67 126.935 1189.3 127.375 1188.82 127.685C1188.34 127.985 1187.77 128.135 1187.11 128.135C1186.48 128.135 1185.93 127.975 1185.46 127.655C1184.99 127.335 1184.67 126.91 1184.51 126.38H1184.69V130.7H1183.18ZM1186.73 126.965C1187.36 126.965 1187.86 126.74 1188.23 126.29C1188.61 125.84 1188.8 125.19 1188.8 124.34C1188.8 123.48 1188.61 122.83 1188.23 122.39C1187.86 121.95 1187.36 121.73 1186.73 121.73C1186.11 121.73 1185.61 121.95 1185.23 122.39C1184.85 122.83 1184.66 123.48 1184.66 124.34C1184.66 125.19 1184.85 125.84 1185.23 126.29C1185.61 126.74 1186.11 126.965 1186.73 126.965ZM1192.19 128V120.68H1193.43L1196.09 125.315L1198.73 120.68H1199.97V128H1198.64V122.435H1198.98L1196.45 126.815H1195.71L1193.18 122.435H1193.52V128H1192.19ZM1205.7 128.135C1204.9 128.135 1204.21 127.985 1203.63 127.685C1203.06 127.375 1202.62 126.94 1202.3 126.38C1201.99 125.81 1201.83 125.135 1201.83 124.355C1201.83 123.595 1201.99 122.93 1202.3 122.36C1202.61 121.79 1203.03 121.345 1203.57 121.025C1204.11 120.705 1204.73 120.545 1205.42 120.545C1206.1 120.545 1206.68 120.695 1207.16 120.995C1207.65 121.285 1208.02 121.7 1208.28 122.24C1208.54 122.78 1208.67 123.425 1208.67 124.175V124.685H1203.03V123.755H1207.65L1207.4 123.965C1207.4 123.215 1207.23 122.635 1206.9 122.225C1206.57 121.815 1206.1 121.61 1205.48 121.61C1205.01 121.61 1204.61 121.72 1204.28 121.94C1203.96 122.16 1203.71 122.465 1203.54 122.855C1203.37 123.245 1203.29 123.7 1203.29 124.22V124.31C1203.29 124.89 1203.38 125.38 1203.56 125.78C1203.75 126.17 1204.02 126.465 1204.38 126.665C1204.74 126.865 1205.19 126.965 1205.72 126.965C1206.14 126.965 1206.55 126.9 1206.95 126.77C1207.36 126.63 1207.74 126.415 1208.1 126.125L1208.55 127.175C1208.22 127.475 1207.8 127.71 1207.28 127.88C1206.76 128.05 1206.23 128.135 1205.7 128.135ZM1210.65 125.075L1210.17 117.425H1212.04L1211.58 125.075H1210.65ZM1210.21 128V126.215H1212V128H1210.21Z" fill="white"/>
<rect x="869.5" y="157" width="180" height="40" rx="8" fill="#A06AFF"/>
<path d="M892.379 182.135C891.309 182.135 890.394 181.915 889.634 181.475C888.874 181.035 888.289 180.41 887.879 179.6C887.479 178.78 887.279 177.815 887.279 176.705C887.279 175.595 887.479 174.635 887.879 173.825C888.289 173.015 888.874 172.39 889.634 171.95C890.394 171.51 891.309 171.29 892.379 171.29C893.099 171.29 893.769 171.405 894.389 171.635C895.019 171.855 895.544 172.175 895.964 172.595L895.424 173.84C894.964 173.43 894.489 173.135 893.999 172.955C893.519 172.765 892.994 172.67 892.424 172.67C891.284 172.67 890.414 173.02 889.814 173.72C889.214 174.42 888.914 175.415 888.914 176.705C888.914 177.995 889.214 178.995 889.814 179.705C890.414 180.405 891.284 180.755 892.424 180.755C892.994 180.755 893.519 180.665 893.999 180.485C894.489 180.295 894.964 179.995 895.424 179.585L895.964 180.83C895.544 181.25 895.019 181.575 894.389 181.805C893.769 182.025 893.099 182.135 892.379 182.135ZM899.215 182V175.895H896.635V174.68H903.325V175.895H900.73V182H899.215ZM906.896 182.135C906.386 182.135 905.926 182.035 905.516 181.835C905.116 181.635 904.801 181.365 904.571 181.025C904.341 180.685 904.226 180.3 904.226 179.87C904.226 179.33 904.361 178.905 904.631 178.595C904.911 178.275 905.366 178.05 905.996 177.92C906.636 177.78 907.496 177.71 908.576 177.71H909.281V178.64H908.591C908.051 178.64 907.596 178.66 907.226 178.7C906.856 178.74 906.561 178.805 906.341 178.895C906.121 178.975 905.961 179.09 905.861 179.24C905.771 179.39 905.726 179.57 905.726 179.78C905.726 180.16 905.856 180.47 906.116 180.71C906.376 180.94 906.736 181.055 907.196 181.055C907.566 181.055 907.891 180.97 908.171 180.8C908.451 180.62 908.671 180.38 908.831 180.08C909.001 179.78 909.086 179.435 909.086 179.045V177.32C909.086 176.75 908.966 176.34 908.726 176.09C908.486 175.84 908.091 175.715 907.541 175.715C907.121 175.715 906.701 175.78 906.281 175.91C905.861 176.03 905.431 176.225 904.991 176.495L904.526 175.43C904.786 175.25 905.086 175.095 905.426 174.965C905.766 174.835 906.121 174.735 906.491 174.665C906.871 174.585 907.236 174.545 907.586 174.545C908.256 174.545 908.806 174.65 909.236 174.86C909.676 175.07 910.001 175.39 910.211 175.82C910.421 176.25 910.526 176.805 910.526 177.485V182H909.101V180.365H909.236C909.156 180.735 909.006 181.055 908.786 181.325C908.576 181.585 908.311 181.785 907.991 181.925C907.671 182.065 907.306 182.135 906.896 182.135ZM914.303 182V175.895H911.723V174.68H918.413V175.895H915.818V182H914.303ZM919.629 182V174.68H921.144V177.215H923.229C924.169 177.215 924.884 177.42 925.374 177.83C925.864 178.23 926.109 178.815 926.109 179.585C926.109 180.075 925.994 180.505 925.764 180.875C925.534 181.235 925.204 181.515 924.774 181.715C924.344 181.905 923.829 182 923.229 182H919.629ZM921.144 180.965H923.034C923.554 180.965 923.959 180.855 924.249 180.635C924.539 180.405 924.684 180.055 924.684 179.585C924.684 179.125 924.539 178.79 924.249 178.58C923.959 178.36 923.554 178.25 923.034 178.25H921.144V180.965ZM933.258 182V175.895H930.678V174.68H937.368V175.895H934.773V182H933.258ZM938.599 184.7V174.68H940.084V176.33H939.919C940.079 175.79 940.394 175.36 940.864 175.04C941.334 174.71 941.889 174.545 942.529 174.545C943.179 174.545 943.744 174.7 944.224 175.01C944.714 175.32 945.089 175.755 945.349 176.315C945.619 176.875 945.754 177.55 945.754 178.34C945.754 179.11 945.619 179.785 945.349 180.365C945.089 180.935 944.719 181.375 944.239 181.685C943.759 181.985 943.189 182.135 942.529 182.135C941.899 182.135 941.349 181.975 940.879 181.655C940.409 181.335 940.094 180.91 939.934 180.38H940.114V184.7H938.599ZM942.154 180.965C942.784 180.965 943.284 180.74 943.654 180.29C944.034 179.84 944.224 179.19 944.224 178.34C944.224 177.48 944.034 176.83 943.654 176.39C943.284 175.95 942.784 175.73 942.154 175.73C941.534 175.73 941.034 175.95 940.654 176.39C940.274 176.83 940.084 177.48 940.084 178.34C940.084 179.19 940.274 179.84 940.654 180.29C941.034 180.74 941.534 180.965 942.154 180.965ZM951.057 182.135C950.257 182.135 949.567 181.985 948.987 181.685C948.417 181.375 947.972 180.94 947.652 180.38C947.342 179.81 947.187 179.135 947.187 178.355C947.187 177.595 947.342 176.93 947.652 176.36C947.962 175.79 948.387 175.345 948.927 175.025C949.467 174.705 950.082 174.545 950.772 174.545C951.452 174.545 952.032 174.695 952.512 174.995C953.002 175.285 953.377 175.7 953.637 176.24C953.897 176.78 954.027 177.425 954.027 178.175V178.685H948.387V177.755H953.007L952.752 177.965C952.752 177.215 952.587 176.635 952.257 176.225C951.927 175.815 951.452 175.61 950.832 175.61C950.362 175.61 949.962 175.72 949.632 175.94C949.312 176.16 949.067 176.465 948.897 176.855C948.727 177.245 948.642 177.7 948.642 178.22V178.31C948.642 178.89 948.732 179.38 948.912 179.78C949.102 180.17 949.377 180.465 949.737 180.665C950.097 180.865 950.542 180.965 951.072 180.965C951.492 180.965 951.902 180.9 952.302 180.77C952.712 180.63 953.097 180.415 953.457 180.125L953.907 181.175C953.577 181.475 953.152 181.71 952.632 181.88C952.112 182.05 951.587 182.135 951.057 182.135ZM955.825 182V174.68H957.205V180.5H956.815L961.165 174.68H962.44V182H961.06V176.18H961.465L957.1 182H955.825ZM959.125 173.75C958.685 173.75 958.29 173.675 957.94 173.525C957.59 173.365 957.29 173.135 957.04 172.835C956.79 172.525 956.605 172.155 956.485 171.725L957.31 171.44C957.49 171.93 957.725 172.29 958.015 172.52C958.315 172.75 958.69 172.865 959.14 172.865C959.6 172.865 959.975 172.755 960.265 172.535C960.555 172.305 960.805 171.945 961.015 171.455L961.81 171.725C961.65 172.195 961.435 172.58 961.165 172.88C960.905 173.18 960.605 173.4 960.265 173.54C959.925 173.68 959.545 173.75 959.125 173.75ZM963.967 183.95V180.8H964.777C964.997 180.47 965.172 180.115 965.302 179.735C965.432 179.355 965.527 178.925 965.587 178.445C965.647 177.965 965.677 177.42 965.677 176.81V174.68H971.092V180.8H972.262V183.95H970.972V182H965.272V183.95H963.967ZM966.187 180.8H969.652V175.865H966.997V177.125C966.997 177.815 966.927 178.485 966.787 179.135C966.647 179.785 966.447 180.34 966.187 180.8ZM977.219 182.135C976.419 182.135 975.729 181.985 975.149 181.685C974.579 181.375 974.134 180.94 973.814 180.38C973.504 179.81 973.349 179.135 973.349 178.355C973.349 177.595 973.504 176.93 973.814 176.36C974.124 175.79 974.549 175.345 975.089 175.025C975.629 174.705 976.244 174.545 976.934 174.545C977.614 174.545 978.194 174.695 978.674 174.995C979.164 175.285 979.539 175.7 979.799 176.24C980.059 176.78 980.189 177.425 980.189 178.175V178.685H974.549V177.755H979.169L978.914 177.965C978.914 177.215 978.749 176.635 978.419 176.225C978.089 175.815 977.614 175.61 976.994 175.61C976.524 175.61 976.124 175.72 975.794 175.94C975.474 176.16 975.229 176.465 975.059 176.855C974.889 177.245 974.804 177.7 974.804 178.22V178.31C974.804 178.89 974.894 179.38 975.074 179.78C975.264 180.17 975.539 180.465 975.899 180.665C976.259 180.865 976.704 180.965 977.234 180.965C977.654 180.965 978.064 180.9 978.464 180.77C978.874 180.63 979.259 180.415 979.619 180.125L980.069 181.175C979.739 181.475 979.314 181.71 978.794 181.88C978.274 182.05 977.749 182.135 977.219 182.135ZM982.002 184.7V174.68H983.487V176.33H983.322C983.482 175.79 983.797 175.36 984.267 175.04C984.737 174.71 985.292 174.545 985.932 174.545C986.582 174.545 987.147 174.7 987.627 175.01C988.117 175.32 988.492 175.755 988.752 176.315C989.022 176.875 989.157 177.55 989.157 178.34C989.157 179.11 989.022 179.785 988.752 180.365C988.492 180.935 988.122 181.375 987.642 181.685C987.162 181.985 986.592 182.135 985.932 182.135C985.302 182.135 984.752 181.975 984.282 181.655C983.812 181.335 983.497 180.91 983.337 180.38H983.517V184.7H982.002ZM985.557 180.965C986.187 180.965 986.687 180.74 987.057 180.29C987.437 179.84 987.627 179.19 987.627 178.34C987.627 177.48 987.437 176.83 987.057 176.39C986.687 175.95 986.187 175.73 985.557 175.73C984.937 175.73 984.437 175.95 984.057 176.39C983.677 176.83 983.487 177.48 983.487 178.34C983.487 179.19 983.677 179.84 984.057 180.29C984.437 180.74 984.937 180.965 985.557 180.965ZM994.206 182.135C993.466 182.135 992.826 181.98 992.286 181.67C991.756 181.36 991.341 180.92 991.041 180.35C990.741 179.78 990.591 179.11 990.591 178.34C990.591 177.56 990.741 176.89 991.041 176.33C991.341 175.76 991.756 175.32 992.286 175.01C992.826 174.7 993.466 174.545 994.206 174.545C994.936 174.545 995.566 174.7 996.096 175.01C996.636 175.32 997.056 175.76 997.356 176.33C997.656 176.9 997.806 177.57 997.806 178.34C997.806 179.11 997.656 179.78 997.356 180.35C997.056 180.92 996.636 181.36 996.096 181.67C995.566 181.98 994.936 182.135 994.206 182.135ZM994.191 180.965C994.821 180.965 995.326 180.74 995.706 180.29C996.086 179.84 996.276 179.19 996.276 178.34C996.276 177.48 996.086 176.83 995.706 176.39C995.326 175.95 994.821 175.73 994.191 175.73C993.571 175.73 993.071 175.95 992.691 176.39C992.311 176.83 992.121 177.48 992.121 178.34C992.121 179.19 992.311 179.84 992.691 180.29C993.071 180.74 993.571 180.965 994.191 180.965ZM999.668 182V174.68H1000.91L1003.57 179.315L1006.21 174.68H1007.45V182H1006.12V176.435H1006.46L1003.93 180.815H1003.19L1000.66 176.435H1001V182H999.668Z" fill="white"/>
<path d="M1019.74 180.53L1023.26 177L1019.74 173.47" stroke="white" stroke-width="1.5" stroke-linecap="round" stroke-linejoin="round"/>
<defs>
<linearGradient id="paint0_linear_36_453" x1="-845" y1="125" x2="1919" y2="125" gradientUnits="userSpaceOnUse">
<stop stop-color="#181A20"/>
<stop offset="0.25" stop-color="#2E2744"/>
<stop offset="0.5" stop-color="#181A20"/>
<stop offset="0.75" stop-color="#2E2744"/>
<stop offset="1" stop-color="#181A20"/>
</linearGradient>
</defs>
</svg>
