<svg width="314" height="116" viewBox="0 0 314 116" fill="none" xmlns="http://www.w3.org/2000/svg">
<path d="M3.32835 74.8833L1 78.9522V116H313V5.92555L305.433 11.7077L300.194 21.5588L294.373 20.9164L291.463 23.0579L284.478 3.14154L282.149 5.92555L278.075 4.64062L269.343 6.99632L264.687 17.2757L261.194 14.7059C259.836 17.0616 257.119 21.7301 257.119 21.5588C257.119 21.3875 254.791 18.2037 253.627 16.6333L250.134 21.773L245.478 16.4191L239.657 14.92L236.746 1L228.015 7.85294H225.104L222.776 9.35202L221.03 6.78217L215.791 19.2031L214.045 15.7767L208.224 14.92L204.731 18.5607L203.567 10.8511L200.657 14.92L196.582 9.35202L193.09 12.3502L191.343 10.8511L189.597 11.7077L186.104 4.21232L183.194 20.2739L178.537 13.421L173.881 11.7077L169.224 22.8438L161.657 29.2684L155.836 27.9835L155.254 33.3373L152.343 29.0542L147.686 34.8364L144.194 47.8998L140.119 48.5423L136.045 49.3989L133.716 57.7509L130.806 58.8217L123.821 57.7509L115.09 53.0395L112.179 59.4641L104.612 61.8198L101.701 60.9632L100.537 63.1048L92.9701 59.4641L91.806 61.1774L83.6567 60.1066L76.6716 64.6039L76.0896 67.8162L72.597 66.9596L68.5223 70.1719L65.6119 67.8162H58.6269L57.4627 68.8869H55.1343L51.0597 71.4568L44.0746 69.3153L40.582 64.818L36.5074 65.0322L32.4328 70.1719L29.5224 68.4586L27.7761 70.8143L24.8657 69.3153L14.9701 70.8143L10.3134 76.3823L3.32835 74.8833Z" fill="url(#paint0_linear_1024_1408)"/>
<path d="M1 77.6667L3.32839 73.6648L10.3134 75.1392L14.9702 69.663L24.8657 68.1886L27.7761 69.663L29.5224 67.3462L32.4329 69.0311L36.5074 63.9762L40.5821 63.7656L44.0746 68.1886L51.0597 70.2949L55.1343 67.7674H57.4627L58.6269 66.7143H65.612L68.5224 69.0311L72.597 65.8718L76.0895 66.7143L76.6717 63.5549L83.6567 59.1319L91.806 60.185L92.9701 58.5L100.537 62.0806L101.702 59.9744L104.612 60.8169L112.179 58.5L115.09 52.1813L123.821 56.815L130.806 57.8681L133.716 56.815L136.045 48.6007L140.119 47.7582L144.194 47.1264L147.687 34.2784L152.343 28.5916L155.254 32.804L155.836 27.5385L161.657 28.8022L169.224 22.4835L173.881 11.5311L178.537 13.2161L183.194 19.956L186.104 4.15934L189.597 11.5311L191.343 10.6886L193.09 12.163L196.582 9.21429L200.657 14.6905L203.567 10.6886L204.731 18.2711L208.224 14.6905L214.045 15.533L215.791 18.9029L221.03 6.68681L222.776 9.21429L225.104 7.73993H228.015L236.746 1L239.657 14.6905L245.478 16.1648L250.134 21.4304L253.627 16.3755C254.791 17.92 257.119 21.0513 257.119 21.2198C257.119 21.3883 259.836 16.7967 261.194 14.4799L264.687 17.0073L269.343 6.89744L278.075 4.58059L282.149 5.84432L284.478 3.10623L291.463 22.6941L294.373 20.5879L300.194 21.2198L305.433 11.5311L313 5.84432" stroke="#523A83" stroke-width="1.00667" stroke-linecap="round"/>
<defs>
<linearGradient id="paint0_linear_1024_1408" x1="-132.59" y1="1" x2="-132.59" y2="116" gradientUnits="userSpaceOnUse">
<stop stop-color="#A06AFF" stop-opacity="0.32"/>
<stop offset="1" stop-color="#181A20" stop-opacity="0"/>
</linearGradient>
</defs>
</svg>
