<svg width="664" height="378" viewBox="0 0 664 378" fill="none" xmlns="http://www.w3.org/2000/svg">
<rect y="68" width="605" height="2" fill="white" fill-opacity="0.04"/>
<rect y="138" width="605" height="2" fill="white" fill-opacity="0.04"/>
<rect y="208" width="605" height="2" fill="white" fill-opacity="0.04"/>
<rect y="278" width="605" height="2" fill="white" fill-opacity="0.04"/>
<rect y="348" width="605" height="2" fill="white" fill-opacity="0.16"/>
<rect x="46.5" y="350" width="1" height="8" fill="white" fill-opacity="0.16"/>
<path d="M28.4096 374V372.728H30.3176V366.836H31.0616L28.8416 368.18L28.2416 367.052L30.7616 365.54H31.8536V372.728H33.6416V374H28.4096ZM37.8969 374.12C36.9129 374.12 36.1409 373.908 35.5809 373.484C35.0289 373.06 34.7529 372.472 34.7529 371.72C34.7529 371.32 34.8329 370.968 34.9929 370.664C35.1609 370.352 35.3889 370.1 35.6769 369.908C35.9649 369.716 36.2929 369.596 36.6609 369.548V369.8C36.3249 369.728 36.0289 369.596 35.7729 369.404C35.5169 369.204 35.3169 368.96 35.1729 368.672C35.0369 368.376 34.9689 368.052 34.9689 367.7C34.9689 366.988 35.2329 366.432 35.7609 366.032C36.2889 365.624 37.0049 365.42 37.9089 365.42C38.8049 365.42 39.5169 365.624 40.0449 366.032C40.5729 366.432 40.8369 366.988 40.8369 367.7C40.8369 368.052 40.7649 368.376 40.6209 368.672C40.4849 368.968 40.2889 369.212 40.0329 369.404C39.7849 369.596 39.4929 369.724 39.1569 369.788V369.548C39.5329 369.596 39.8609 369.72 40.1409 369.92C40.4209 370.112 40.6409 370.364 40.8009 370.676C40.9609 370.98 41.0409 371.328 41.0409 371.72C41.0409 372.472 40.7609 373.06 40.2009 373.484C39.6489 373.908 38.8809 374.12 37.8969 374.12ZM37.8969 372.92C38.4649 372.92 38.8929 372.812 39.1809 372.596C39.4689 372.372 39.6129 372.044 39.6129 371.612C39.6129 371.18 39.4689 370.856 39.1809 370.64C38.8929 370.424 38.4649 370.316 37.8969 370.316C37.3369 370.316 36.9089 370.424 36.6129 370.64C36.3249 370.856 36.1809 371.18 36.1809 371.612C36.1809 372.044 36.3249 372.372 36.6129 372.596C36.9089 372.812 37.3369 372.92 37.8969 372.92ZM37.8969 369.116C38.3689 369.116 38.7369 369.004 39.0009 368.78C39.2729 368.556 39.4089 368.248 39.4089 367.856C39.4089 367.472 39.2729 367.172 39.0009 366.956C38.7369 366.732 38.3689 366.62 37.8969 366.62C37.4249 366.62 37.0569 366.732 36.7929 366.956C36.5289 367.172 36.3969 367.476 36.3969 367.868C36.3969 368.252 36.5289 368.556 36.7929 368.78C37.0569 369.004 37.4249 369.116 37.8969 369.116ZM44.7146 374.108L44.6066 372.848L45.4586 372.8C45.6986 372.784 45.8946 372.732 46.0466 372.644C46.2066 372.548 46.3266 372.416 46.4066 372.248C46.4866 372.072 46.5266 371.864 46.5266 371.624V365.54H48.0626V371.612C48.0626 372.116 47.9746 372.544 47.7986 372.896C47.6226 373.248 47.3586 373.52 47.0066 373.712C46.6546 373.904 46.2186 374.02 45.6986 374.06L44.7146 374.108ZM49.0042 374L52.8322 365.54H54.0922L57.9202 374H56.3602L55.3402 371.624L55.9882 372.044H50.9242L51.5722 371.624L50.5642 374H49.0042ZM53.4442 367.208L51.7642 371.204L51.4522 370.82H55.4602L55.1602 371.204L53.4682 367.208H53.4442ZM58.8459 374V365.54H59.9979L64.8579 371.852H64.5459V365.54H65.9739V374H64.8339L59.9739 367.676H60.2739V374H58.8459Z" fill="#808283"/>
<rect x="150.5" y="350" width="1" height="8" fill="white" fill-opacity="0.16"/>
<path d="M132.062 374V372.86L134.798 369.944C135.046 369.68 135.242 369.436 135.386 369.212C135.538 368.988 135.65 368.772 135.722 368.564C135.794 368.356 135.83 368.148 135.83 367.94C135.83 367.54 135.702 367.236 135.446 367.028C135.198 366.82 134.834 366.716 134.354 366.716C133.978 366.716 133.61 366.788 133.25 366.932C132.898 367.068 132.558 367.284 132.23 367.58L131.714 366.428C132.05 366.124 132.47 365.88 132.974 365.696C133.478 365.512 134.002 365.42 134.546 365.42C135.154 365.42 135.666 365.512 136.082 365.696C136.498 365.88 136.814 366.148 137.03 366.5C137.246 366.852 137.354 367.28 137.354 367.784C137.354 368.04 137.322 368.292 137.258 368.54C137.202 368.78 137.11 369.02 136.982 369.26C136.862 369.5 136.706 369.748 136.514 370.004C136.33 370.252 136.106 370.512 135.842 370.784L133.586 373.136V372.728H137.678V374H132.062ZM141.969 374.12C141.601 374.12 141.237 374.08 140.877 374C140.525 373.92 140.193 373.808 139.881 373.664C139.577 373.52 139.313 373.352 139.089 373.16L139.593 371.984C139.961 372.264 140.341 372.476 140.733 372.62C141.125 372.756 141.529 372.824 141.945 372.824C142.449 372.824 142.841 372.696 143.121 372.44C143.409 372.176 143.553 371.824 143.553 371.384C143.553 370.936 143.417 370.576 143.145 370.304C142.873 370.024 142.501 369.884 142.029 369.884C141.685 369.884 141.377 369.952 141.105 370.088C140.833 370.216 140.585 370.416 140.361 370.688H139.329V365.54H144.525V366.812H140.829V369.5H140.433C140.641 369.22 140.913 369.004 141.249 368.852C141.593 368.7 141.973 368.624 142.389 368.624C142.925 368.624 143.389 368.74 143.781 368.972C144.181 369.196 144.489 369.512 144.705 369.92C144.929 370.32 145.041 370.788 145.041 371.324C145.041 371.876 144.917 372.364 144.669 372.788C144.421 373.204 144.065 373.532 143.601 373.772C143.145 374.004 142.601 374.12 141.969 374.12ZM148.715 374.108L148.607 372.848L149.459 372.8C149.699 372.784 149.895 372.732 150.047 372.644C150.207 372.548 150.327 372.416 150.407 372.248C150.487 372.072 150.527 371.864 150.527 371.624V365.54H152.063V371.612C152.063 372.116 151.975 372.544 151.799 372.896C151.623 373.248 151.359 373.52 151.007 373.712C150.655 373.904 150.219 374.02 149.699 374.06L148.715 374.108ZM153.004 374L156.832 365.54H158.092L161.92 374H160.36L159.34 371.624L159.988 372.044H154.924L155.572 371.624L154.564 374H153.004ZM157.444 367.208L155.764 371.204L155.452 370.82H159.46L159.16 371.204L157.468 367.208H157.444ZM162.846 374V365.54H163.998L168.858 371.852H168.546V365.54H169.974V374H168.834L163.974 367.676H164.274V374H162.846Z" fill="#808283"/>
<rect x="251" y="350" width="1" height="8" fill="white" fill-opacity="0.16"/>
<path d="M236.513 374V372.728H238.421V366.836H239.165L236.945 368.18L236.345 367.052L238.865 365.54H239.957V372.728H241.745V374H236.513ZM246.559 374V365.54H252.091V366.764H248.095V369.152H251.839V370.376H248.095V374H246.559ZM253.297 374V365.54H258.925V366.764H254.773V369.092H258.661V370.316H254.773V372.776H258.925V374H253.297ZM260.457 374V365.54H264.153C265.041 365.54 265.729 365.736 266.217 366.128C266.705 366.512 266.949 367.048 266.949 367.736C266.949 368.248 266.801 368.68 266.505 369.032C266.209 369.384 265.805 369.62 265.293 369.74V369.56C265.685 369.616 266.021 369.736 266.301 369.92C266.581 370.104 266.793 370.34 266.937 370.628C267.089 370.916 267.165 371.252 267.165 371.636C267.165 372.132 267.049 372.56 266.817 372.92C266.593 373.272 266.265 373.54 265.833 373.724C265.401 373.908 264.885 374 264.285 374H260.457ZM261.933 372.836H264.093C264.309 372.836 264.501 372.82 264.669 372.788C264.845 372.756 264.993 372.708 265.113 372.644C265.241 372.572 265.345 372.484 265.425 372.38C265.513 372.276 265.577 372.156 265.617 372.02C265.657 371.884 265.677 371.732 265.677 371.564C265.677 371.388 265.657 371.232 265.617 371.096C265.577 370.96 265.513 370.844 265.425 370.748C265.345 370.644 265.241 370.56 265.113 370.496C264.993 370.424 264.845 370.372 264.669 370.34C264.501 370.308 264.309 370.292 264.093 370.292H261.933V372.836ZM261.933 369.128H263.889C264.417 369.128 264.809 369.028 265.065 368.828C265.329 368.62 265.461 368.316 265.461 367.916C265.461 367.516 265.329 367.216 265.065 367.016C264.809 366.808 264.417 366.704 263.889 366.704H261.933V369.128Z" fill="#808283"/>
<rect x="348" y="350" width="1" height="8" fill="white" fill-opacity="0.16"/>
<path d="M335.805 374.12C334.821 374.12 334.049 373.908 333.489 373.484C332.937 373.06 332.661 372.472 332.661 371.72C332.661 371.32 332.741 370.968 332.901 370.664C333.069 370.352 333.297 370.1 333.585 369.908C333.873 369.716 334.201 369.596 334.569 369.548V369.8C334.233 369.728 333.937 369.596 333.681 369.404C333.425 369.204 333.225 368.96 333.081 368.672C332.945 368.376 332.877 368.052 332.877 367.7C332.877 366.988 333.141 366.432 333.669 366.032C334.197 365.624 334.913 365.42 335.817 365.42C336.713 365.42 337.425 365.624 337.953 366.032C338.481 366.432 338.745 366.988 338.745 367.7C338.745 368.052 338.673 368.376 338.529 368.672C338.393 368.968 338.197 369.212 337.941 369.404C337.693 369.596 337.401 369.724 337.065 369.788V369.548C337.441 369.596 337.769 369.72 338.049 369.92C338.329 370.112 338.549 370.364 338.709 370.676C338.869 370.98 338.949 371.328 338.949 371.72C338.949 372.472 338.669 373.06 338.109 373.484C337.557 373.908 336.789 374.12 335.805 374.12ZM335.805 372.92C336.373 372.92 336.801 372.812 337.089 372.596C337.377 372.372 337.521 372.044 337.521 371.612C337.521 371.18 337.377 370.856 337.089 370.64C336.801 370.424 336.373 370.316 335.805 370.316C335.245 370.316 334.817 370.424 334.521 370.64C334.233 370.856 334.089 371.18 334.089 371.612C334.089 372.044 334.233 372.372 334.521 372.596C334.817 372.812 335.245 372.92 335.805 372.92ZM335.805 369.116C336.277 369.116 336.645 369.004 336.909 368.78C337.181 368.556 337.317 368.248 337.317 367.856C337.317 367.472 337.181 367.172 336.909 366.956C336.645 366.732 336.277 366.62 335.805 366.62C335.333 366.62 334.965 366.732 334.701 366.956C334.437 367.172 334.305 367.476 334.305 367.868C334.305 368.252 334.437 368.556 334.701 368.78C334.965 369.004 335.333 369.116 335.805 369.116ZM343.559 374V365.54H349.091V366.764H345.095V369.152H348.839V370.376H345.095V374H343.559ZM350.297 374V365.54H355.925V366.764H351.773V369.092H355.661V370.316H351.773V372.776H355.925V374H350.297ZM357.457 374V365.54H361.153C362.041 365.54 362.729 365.736 363.217 366.128C363.705 366.512 363.949 367.048 363.949 367.736C363.949 368.248 363.801 368.68 363.505 369.032C363.209 369.384 362.805 369.62 362.293 369.74V369.56C362.685 369.616 363.021 369.736 363.301 369.92C363.581 370.104 363.793 370.34 363.937 370.628C364.089 370.916 364.165 371.252 364.165 371.636C364.165 372.132 364.049 372.56 363.817 372.92C363.593 373.272 363.265 373.54 362.833 373.724C362.401 373.908 361.885 374 361.285 374H357.457ZM358.933 372.836H361.093C361.309 372.836 361.501 372.82 361.669 372.788C361.845 372.756 361.993 372.708 362.113 372.644C362.241 372.572 362.345 372.484 362.425 372.38C362.513 372.276 362.577 372.156 362.617 372.02C362.657 371.884 362.677 371.732 362.677 371.564C362.677 371.388 362.657 371.232 362.617 371.096C362.577 370.96 362.513 370.844 362.425 370.748C362.345 370.644 362.241 370.56 362.113 370.496C361.993 370.424 361.845 370.372 361.669 370.34C361.501 370.308 361.309 370.292 361.093 370.292H358.933V372.836ZM358.933 369.128H360.889C361.417 369.128 361.809 369.028 362.065 368.828C362.329 368.62 362.461 368.316 362.461 367.916C362.461 367.516 362.329 367.216 362.065 367.016C361.809 366.808 361.417 366.704 360.889 366.704H358.933V369.128Z" fill="#808283"/>
<rect x="448.5" y="350" width="1" height="8" fill="white" fill-opacity="0.16"/>
<path d="M430.415 374V372.728H432.323V366.836H433.067L430.847 368.18L430.247 367.052L432.767 365.54H433.859V372.728H435.647V374H430.415ZM439.975 374.12C439.607 374.12 439.243 374.08 438.883 374C438.531 373.92 438.199 373.808 437.887 373.664C437.583 373.52 437.319 373.352 437.095 373.16L437.599 371.984C437.967 372.264 438.347 372.476 438.739 372.62C439.131 372.756 439.535 372.824 439.951 372.824C440.455 372.824 440.847 372.696 441.127 372.44C441.415 372.176 441.559 371.824 441.559 371.384C441.559 370.936 441.423 370.576 441.151 370.304C440.879 370.024 440.507 369.884 440.035 369.884C439.691 369.884 439.383 369.952 439.111 370.088C438.839 370.216 438.591 370.416 438.367 370.688H437.335V365.54H442.531V366.812H438.835V369.5H438.439C438.647 369.22 438.919 369.004 439.255 368.852C439.599 368.7 439.979 368.624 440.395 368.624C440.931 368.624 441.395 368.74 441.787 368.972C442.187 369.196 442.495 369.512 442.711 369.92C442.935 370.32 443.047 370.788 443.047 371.324C443.047 371.876 442.923 372.364 442.675 372.788C442.427 373.204 442.071 373.532 441.607 373.772C441.151 374.004 440.607 374.12 439.975 374.12ZM447.656 374V365.54H453.188V366.764H449.192V369.152H452.936V370.376H449.192V374H447.656ZM454.395 374V365.54H460.023V366.764H455.871V369.092H459.759V370.316H455.871V372.776H460.023V374H454.395ZM461.555 374V365.54H465.251C466.139 365.54 466.827 365.736 467.315 366.128C467.803 366.512 468.047 367.048 468.047 367.736C468.047 368.248 467.899 368.68 467.603 369.032C467.307 369.384 466.903 369.62 466.391 369.74V369.56C466.783 369.616 467.119 369.736 467.399 369.92C467.679 370.104 467.891 370.34 468.035 370.628C468.187 370.916 468.263 371.252 468.263 371.636C468.263 372.132 468.147 372.56 467.915 372.92C467.691 373.272 467.363 373.54 466.931 373.724C466.499 373.908 465.983 374 465.383 374H461.555ZM463.031 372.836H465.191C465.407 372.836 465.599 372.82 465.767 372.788C465.943 372.756 466.091 372.708 466.211 372.644C466.339 372.572 466.443 372.484 466.523 372.38C466.611 372.276 466.675 372.156 466.715 372.02C466.755 371.884 466.775 371.732 466.775 371.564C466.775 371.388 466.755 371.232 466.715 371.096C466.675 370.96 466.611 370.844 466.523 370.748C466.443 370.644 466.339 370.56 466.211 370.496C466.091 370.424 465.943 370.372 465.767 370.34C465.599 370.308 465.407 370.292 465.191 370.292H463.031V372.836ZM463.031 369.128H464.987C465.515 369.128 465.907 369.028 466.163 368.828C466.427 368.62 466.559 368.316 466.559 367.916C466.559 367.516 466.427 367.216 466.163 367.016C465.907 366.808 465.515 366.704 464.987 366.704H463.031V369.128Z" fill="#808283"/>
<rect x="552.5" y="350" width="1" height="8" fill="white" fill-opacity="0.16"/>
<path d="M534.067 374V372.86L536.803 369.944C537.051 369.68 537.247 369.436 537.391 369.212C537.543 368.988 537.655 368.772 537.727 368.564C537.799 368.356 537.835 368.148 537.835 367.94C537.835 367.54 537.707 367.236 537.451 367.028C537.203 366.82 536.839 366.716 536.359 366.716C535.983 366.716 535.615 366.788 535.255 366.932C534.903 367.068 534.563 367.284 534.235 367.58L533.719 366.428C534.055 366.124 534.475 365.88 534.979 365.696C535.483 365.512 536.007 365.42 536.551 365.42C537.159 365.42 537.671 365.512 538.087 365.696C538.503 365.88 538.819 366.148 539.035 366.5C539.251 366.852 539.359 367.28 539.359 367.784C539.359 368.04 539.327 368.292 539.263 368.54C539.207 368.78 539.115 369.02 538.987 369.26C538.867 369.5 538.711 369.748 538.519 370.004C538.335 370.252 538.111 370.512 537.847 370.784L535.591 373.136V372.728H539.683V374H534.067ZM541.263 374V372.86L543.999 369.944C544.247 369.68 544.443 369.436 544.587 369.212C544.739 368.988 544.851 368.772 544.923 368.564C544.995 368.356 545.031 368.148 545.031 367.94C545.031 367.54 544.903 367.236 544.647 367.028C544.399 366.82 544.035 366.716 543.555 366.716C543.179 366.716 542.811 366.788 542.451 366.932C542.099 367.068 541.759 367.284 541.431 367.58L540.915 366.428C541.251 366.124 541.671 365.88 542.175 365.696C542.679 365.512 543.203 365.42 543.747 365.42C544.355 365.42 544.867 365.512 545.283 365.696C545.699 365.88 546.015 366.148 546.231 366.5C546.447 366.852 546.555 367.28 546.555 367.784C546.555 368.04 546.523 368.292 546.459 368.54C546.403 368.78 546.311 369.02 546.183 369.26C546.063 369.5 545.907 369.748 545.715 370.004C545.531 370.252 545.307 370.512 545.043 370.784L542.787 373.136V372.728H546.879V374H541.263ZM551.656 374V365.54H557.188V366.764H553.192V369.152H556.936V370.376H553.192V374H551.656ZM558.395 374V365.54H564.023V366.764H559.871V369.092H563.759V370.316H559.871V372.776H564.023V374H558.395ZM565.555 374V365.54H569.251C570.139 365.54 570.827 365.736 571.315 366.128C571.803 366.512 572.047 367.048 572.047 367.736C572.047 368.248 571.899 368.68 571.603 369.032C571.307 369.384 570.903 369.62 570.391 369.74V369.56C570.783 369.616 571.119 369.736 571.399 369.92C571.679 370.104 571.891 370.34 572.035 370.628C572.187 370.916 572.263 371.252 572.263 371.636C572.263 372.132 572.147 372.56 571.915 372.92C571.691 373.272 571.363 373.54 570.931 373.724C570.499 373.908 569.983 374 569.383 374H565.555ZM567.031 372.836H569.191C569.407 372.836 569.599 372.82 569.767 372.788C569.943 372.756 570.091 372.708 570.211 372.644C570.339 372.572 570.443 372.484 570.523 372.38C570.611 372.276 570.675 372.156 570.715 372.02C570.755 371.884 570.775 371.732 570.775 371.564C570.775 371.388 570.755 371.232 570.715 371.096C570.675 370.96 570.611 370.844 570.523 370.748C570.443 370.644 570.339 370.56 570.211 370.496C570.091 370.424 569.943 370.372 569.767 370.34C569.599 370.308 569.407 370.292 569.191 370.292H567.031V372.836ZM567.031 369.128H568.987C569.515 369.128 569.907 369.028 570.163 368.828C570.427 368.62 570.559 368.316 570.559 367.916C570.559 367.516 570.427 367.216 570.163 367.016C569.907 366.808 569.515 366.704 568.987 366.704H567.031V369.128Z" fill="#808283"/>
<path d="M624.874 354.38V352.808L625.15 353.072C624.566 353.056 624.014 352.968 623.494 352.808C622.982 352.64 622.538 352.408 622.162 352.112L622.63 350.9C622.878 351.084 623.142 351.244 623.422 351.38C623.71 351.508 624.01 351.608 624.322 351.68C624.642 351.744 624.982 351.776 625.342 351.776C625.926 351.776 626.354 351.672 626.626 351.464C626.898 351.256 627.034 350.996 627.034 350.684C627.034 350.404 626.942 350.18 626.758 350.012C626.574 349.844 626.246 349.708 625.774 349.604L624.502 349.328C623.782 349.168 623.238 348.904 622.87 348.536C622.51 348.16 622.33 347.664 622.33 347.048C622.33 346.576 622.446 346.156 622.678 345.788C622.91 345.412 623.234 345.112 623.65 344.888C624.066 344.664 624.554 344.532 625.114 344.492L624.874 344.672V343.16H626.074V344.672L625.822 344.48C626.278 344.504 626.726 344.596 627.166 344.756C627.614 344.916 627.986 345.148 628.282 345.452L627.826 346.604C627.522 346.324 627.174 346.116 626.782 345.98C626.39 345.836 625.962 345.764 625.498 345.764C625.002 345.764 624.602 345.88 624.298 346.112C624.002 346.336 623.854 346.632 623.854 347C623.854 347.272 623.946 347.492 624.13 347.66C624.314 347.828 624.61 347.956 625.018 348.044L626.29 348.32C627.058 348.488 627.626 348.756 627.994 349.124C628.37 349.484 628.558 349.964 628.558 350.564C628.558 351.028 628.442 351.44 628.21 351.8C627.978 352.152 627.658 352.436 627.25 352.652C626.85 352.86 626.382 352.992 625.846 353.048L626.074 352.796V354.38H624.874ZM629.765 350.384V349.184H633.341V350.384H629.765ZM635.46 353V351.728H637.368V345.836H638.112L635.892 347.18L635.292 346.052L637.812 344.54H638.904V351.728H640.692V353H635.46ZM644.948 353.12C644.284 353.12 643.72 352.952 643.256 352.616C642.8 352.272 642.452 351.776 642.212 351.128C641.98 350.48 641.864 349.688 641.864 348.752C641.864 347.808 641.98 347.016 642.212 346.376C642.452 345.728 642.8 345.24 643.256 344.912C643.72 344.584 644.284 344.42 644.948 344.42C645.62 344.42 646.184 344.584 646.64 344.912C647.104 345.24 647.452 345.724 647.684 346.364C647.916 347.004 648.032 347.796 648.032 348.74C648.032 349.676 647.912 350.472 647.672 351.128C647.44 351.776 647.096 352.272 646.64 352.616C646.184 352.952 645.62 353.12 644.948 353.12ZM644.948 351.86C645.492 351.86 645.892 351.612 646.148 351.116C646.412 350.612 646.544 349.82 646.544 348.74C646.544 347.668 646.412 346.892 646.148 346.412C645.892 345.924 645.492 345.68 644.948 345.68C644.412 345.68 644.012 345.924 643.748 346.412C643.484 346.892 643.352 347.672 643.352 348.752C643.352 349.824 643.484 350.612 643.748 351.116C644.012 351.612 644.412 351.86 644.948 351.86ZM652.143 353.12C651.479 353.12 650.915 352.952 650.451 352.616C649.995 352.272 649.647 351.776 649.407 351.128C649.175 350.48 649.059 349.688 649.059 348.752C649.059 347.808 649.175 347.016 649.407 346.376C649.647 345.728 649.995 345.24 650.451 344.912C650.915 344.584 651.479 344.42 652.143 344.42C652.815 344.42 653.379 344.584 653.835 344.912C654.299 345.24 654.647 345.724 654.879 346.364C655.111 347.004 655.227 347.796 655.227 348.74C655.227 349.676 655.107 350.472 654.867 351.128C654.635 351.776 654.291 352.272 653.835 352.616C653.379 352.952 652.815 353.12 652.143 353.12ZM652.143 351.86C652.687 351.86 653.087 351.612 653.343 351.116C653.607 350.612 653.739 349.82 653.739 348.74C653.739 347.668 653.607 346.892 653.343 346.412C653.087 345.924 652.687 345.68 652.143 345.68C651.607 345.68 651.207 345.924 650.943 346.412C650.679 346.892 650.547 347.672 650.547 348.752C650.547 349.824 650.679 350.612 650.943 351.116C651.207 351.612 651.607 351.86 652.143 351.86ZM656.662 353V344.54H660.358C661.246 344.54 661.934 344.736 662.422 345.128C662.91 345.512 663.154 346.048 663.154 346.736C663.154 347.248 663.006 347.68 662.71 348.032C662.414 348.384 662.01 348.62 661.498 348.74V348.56C661.89 348.616 662.226 348.736 662.506 348.92C662.786 349.104 662.998 349.34 663.142 349.628C663.294 349.916 663.37 350.252 663.37 350.636C663.37 351.132 663.254 351.56 663.022 351.92C662.798 352.272 662.47 352.54 662.038 352.724C661.606 352.908 661.09 353 660.49 353H656.662ZM658.138 351.836H660.298C660.514 351.836 660.706 351.82 660.874 351.788C661.05 351.756 661.198 351.708 661.318 351.644C661.446 351.572 661.55 351.484 661.63 351.38C661.718 351.276 661.782 351.156 661.822 351.02C661.862 350.884 661.882 350.732 661.882 350.564C661.882 350.388 661.862 350.232 661.822 350.096C661.782 349.96 661.718 349.844 661.63 349.748C661.55 349.644 661.446 349.56 661.318 349.496C661.198 349.424 661.05 349.372 660.874 349.34C660.706 349.308 660.514 349.292 660.298 349.292H658.138V351.836ZM658.138 348.128H660.094C660.622 348.128 661.014 348.028 661.27 347.828C661.534 347.62 661.666 347.316 661.666 346.916C661.666 346.516 661.534 346.216 661.27 346.016C661.014 345.808 660.622 345.704 660.094 345.704H658.138V348.128Z" fill="#808283"/>
<path d="M652.729 214.38V212.808L653.005 213.072C652.421 213.056 651.869 212.968 651.349 212.808C650.837 212.64 650.393 212.408 650.017 212.112L650.485 210.9C650.733 211.084 650.997 211.244 651.277 211.38C651.565 211.508 651.865 211.608 652.177 211.68C652.497 211.744 652.837 211.776 653.197 211.776C653.781 211.776 654.209 211.672 654.481 211.464C654.753 211.256 654.889 210.996 654.889 210.684C654.889 210.404 654.797 210.18 654.613 210.012C654.429 209.844 654.101 209.708 653.629 209.604L652.357 209.328C651.637 209.168 651.093 208.904 650.725 208.536C650.365 208.16 650.185 207.664 650.185 207.048C650.185 206.576 650.301 206.156 650.533 205.788C650.765 205.412 651.089 205.112 651.505 204.888C651.921 204.664 652.409 204.532 652.969 204.492L652.729 204.672V203.16H653.929V204.672L653.677 204.48C654.133 204.504 654.581 204.596 655.021 204.756C655.469 204.916 655.841 205.148 656.137 205.452L655.681 206.604C655.377 206.324 655.029 206.116 654.637 205.98C654.245 205.836 653.817 205.764 653.353 205.764C652.857 205.764 652.457 205.88 652.153 206.112C651.857 206.336 651.709 206.632 651.709 207C651.709 207.272 651.801 207.492 651.985 207.66C652.169 207.828 652.465 207.956 652.873 208.044L654.145 208.32C654.913 208.488 655.481 208.756 655.849 209.124C656.225 209.484 656.413 209.964 656.413 210.564C656.413 211.028 656.297 211.44 656.065 211.8C655.833 212.152 655.513 212.436 655.105 212.652C654.705 212.86 654.237 212.992 653.701 213.048L653.929 212.796V214.38H652.729ZM660.405 213.12C659.741 213.12 659.177 212.952 658.713 212.616C658.257 212.272 657.909 211.776 657.669 211.128C657.437 210.48 657.321 209.688 657.321 208.752C657.321 207.808 657.437 207.016 657.669 206.376C657.909 205.728 658.257 205.24 658.713 204.912C659.177 204.584 659.741 204.42 660.405 204.42C661.077 204.42 661.641 204.584 662.097 204.912C662.561 205.24 662.909 205.724 663.141 206.364C663.373 207.004 663.489 207.796 663.489 208.74C663.489 209.676 663.369 210.472 663.129 211.128C662.897 211.776 662.553 212.272 662.097 212.616C661.641 212.952 661.077 213.12 660.405 213.12ZM660.405 211.86C660.949 211.86 661.349 211.612 661.605 211.116C661.869 210.612 662.001 209.82 662.001 208.74C662.001 207.668 661.869 206.892 661.605 206.412C661.349 205.924 660.949 205.68 660.405 205.68C659.869 205.68 659.469 205.924 659.205 206.412C658.941 206.892 658.809 207.672 658.809 208.752C658.809 209.824 658.941 210.612 659.205 211.116C659.469 211.612 659.869 211.86 660.405 211.86Z" fill="#808283"/>
<path d="M630.077 74.38V72.808L630.353 73.072C629.769 73.056 629.217 72.968 628.697 72.808C628.185 72.64 627.741 72.408 627.365 72.112L627.833 70.9C628.081 71.084 628.345 71.244 628.625 71.38C628.913 71.508 629.213 71.608 629.525 71.68C629.845 71.744 630.185 71.776 630.545 71.776C631.129 71.776 631.557 71.672 631.829 71.464C632.101 71.256 632.237 70.996 632.237 70.684C632.237 70.404 632.145 70.18 631.961 70.012C631.777 69.844 631.449 69.708 630.977 69.604L629.705 69.328C628.985 69.168 628.441 68.904 628.073 68.536C627.713 68.16 627.533 67.664 627.533 67.048C627.533 66.576 627.649 66.156 627.881 65.788C628.113 65.412 628.437 65.112 628.853 64.888C629.269 64.664 629.757 64.532 630.317 64.492L630.077 64.672V63.16H631.277V64.672L631.025 64.48C631.481 64.504 631.929 64.596 632.369 64.756C632.817 64.916 633.189 65.148 633.485 65.452L633.029 66.604C632.725 66.324 632.377 66.116 631.985 65.98C631.593 65.836 631.165 65.764 630.701 65.764C630.205 65.764 629.805 65.88 629.501 66.112C629.205 66.336 629.057 66.632 629.057 67C629.057 67.272 629.149 67.492 629.333 67.66C629.517 67.828 629.813 67.956 630.221 68.044L631.493 68.32C632.261 68.488 632.829 68.756 633.197 69.124C633.573 69.484 633.761 69.964 633.761 70.564C633.761 71.028 633.645 71.44 633.413 71.8C633.181 72.152 632.861 72.436 632.453 72.652C632.053 72.86 631.585 72.992 631.049 73.048L631.277 72.796V74.38H630.077ZM635.46 73V71.728H637.368V65.836H638.112L635.892 67.18L635.292 66.052L637.812 64.54H638.904V71.728H640.692V73H635.46ZM644.948 73.12C644.284 73.12 643.72 72.952 643.256 72.616C642.8 72.272 642.452 71.776 642.212 71.128C641.98 70.48 641.864 69.688 641.864 68.752C641.864 67.808 641.98 67.016 642.212 66.376C642.452 65.728 642.8 65.24 643.256 64.912C643.72 64.584 644.284 64.42 644.948 64.42C645.62 64.42 646.184 64.584 646.64 64.912C647.104 65.24 647.452 65.724 647.684 66.364C647.916 67.004 648.032 67.796 648.032 68.74C648.032 69.676 647.912 70.472 647.672 71.128C647.44 71.776 647.096 72.272 646.64 72.616C646.184 72.952 645.62 73.12 644.948 73.12ZM644.948 71.86C645.492 71.86 645.892 71.612 646.148 71.116C646.412 70.612 646.544 69.82 646.544 68.74C646.544 67.668 646.412 66.892 646.148 66.412C645.892 65.924 645.492 65.68 644.948 65.68C644.412 65.68 644.012 65.924 643.748 66.412C643.484 66.892 643.352 67.672 643.352 68.752C643.352 69.824 643.484 70.612 643.748 71.116C644.012 71.612 644.412 71.86 644.948 71.86ZM652.143 73.12C651.479 73.12 650.915 72.952 650.451 72.616C649.995 72.272 649.647 71.776 649.407 71.128C649.175 70.48 649.059 69.688 649.059 68.752C649.059 67.808 649.175 67.016 649.407 66.376C649.647 65.728 649.995 65.24 650.451 64.912C650.915 64.584 651.479 64.42 652.143 64.42C652.815 64.42 653.379 64.584 653.835 64.912C654.299 65.24 654.647 65.724 654.879 66.364C655.111 67.004 655.227 67.796 655.227 68.74C655.227 69.676 655.107 70.472 654.867 71.128C654.635 71.776 654.291 72.272 653.835 72.616C653.379 72.952 652.815 73.12 652.143 73.12ZM652.143 71.86C652.687 71.86 653.087 71.612 653.343 71.116C653.607 70.612 653.739 69.82 653.739 68.74C653.739 67.668 653.607 66.892 653.343 66.412C653.087 65.924 652.687 65.68 652.143 65.68C651.607 65.68 651.207 65.924 650.943 66.412C650.679 66.892 650.547 67.672 650.547 68.752C650.547 69.824 650.679 70.612 650.943 71.116C651.207 71.612 651.607 71.86 652.143 71.86ZM656.662 73V64.54H660.358C661.246 64.54 661.934 64.736 662.422 65.128C662.91 65.512 663.154 66.048 663.154 66.736C663.154 67.248 663.006 67.68 662.71 68.032C662.414 68.384 662.01 68.62 661.498 68.74V68.56C661.89 68.616 662.226 68.736 662.506 68.92C662.786 69.104 662.998 69.34 663.142 69.628C663.294 69.916 663.37 70.252 663.37 70.636C663.37 71.132 663.254 71.56 663.022 71.92C662.798 72.272 662.47 72.54 662.038 72.724C661.606 72.908 661.09 73 660.49 73H656.662ZM658.138 71.836H660.298C660.514 71.836 660.706 71.82 660.874 71.788C661.05 71.756 661.198 71.708 661.318 71.644C661.446 71.572 661.55 71.484 661.63 71.38C661.718 71.276 661.782 71.156 661.822 71.02C661.862 70.884 661.882 70.732 661.882 70.564C661.882 70.388 661.862 70.232 661.822 70.096C661.782 69.96 661.718 69.844 661.63 69.748C661.55 69.644 661.446 69.56 661.318 69.496C661.198 69.424 661.05 69.372 660.874 69.34C660.706 69.308 660.514 69.292 660.298 69.292H658.138V71.836ZM658.138 68.128H660.094C660.622 68.128 661.014 68.028 661.27 67.828C661.534 67.62 661.666 67.316 661.666 66.916C661.666 66.516 661.534 66.216 661.27 66.016C661.014 65.808 660.622 65.704 660.094 65.704H658.138V68.128Z" fill="#808283"/>
<path d="M5.08 43.2V39.14H1.12V37.38H5.08V33.44H6.92V37.38H10.88V39.14H6.92V43.2H5.08ZM22.5828 46.3V43.68L23.0428 44.12C22.0695 44.0933 21.1495 43.9467 20.2828 43.68C19.4295 43.4 18.6895 43.0133 18.0628 42.52L18.8428 40.5C19.2561 40.8067 19.6961 41.0733 20.1628 41.3C20.6428 41.5133 21.1428 41.68 21.6628 41.8C22.1961 41.9067 22.7628 41.96 23.3628 41.96C24.3361 41.96 25.0495 41.7867 25.5028 41.44C25.9561 41.0933 26.1828 40.66 26.1828 40.14C26.1828 39.6733 26.0295 39.3 25.7228 39.02C25.4161 38.74 24.8695 38.5133 24.0828 38.34L21.9628 37.88C20.7628 37.6133 19.8561 37.1733 19.2428 36.56C18.6428 35.9333 18.3428 35.1067 18.3428 34.08C18.3428 33.2933 18.5361 32.5933 18.9228 31.98C19.3095 31.3533 19.8495 30.8533 20.5428 30.48C21.2361 30.1067 22.0495 29.8867 22.9828 29.82L22.5828 30.12V27.6H24.5828V30.12L24.1628 29.8C24.9228 29.84 25.6695 29.9933 26.4028 30.26C27.1495 30.5267 27.7695 30.9133 28.2628 31.42L27.5028 33.34C26.9961 32.8733 26.4161 32.5267 25.7628 32.3C25.1095 32.06 24.3961 31.94 23.6228 31.94C22.7961 31.94 22.1295 32.1333 21.6228 32.52C21.1295 32.8933 20.8828 33.3867 20.8828 34C20.8828 34.4533 21.0361 34.82 21.3428 35.1C21.6495 35.38 22.1428 35.5933 22.8228 35.74L24.9428 36.2C26.2228 36.48 27.1695 36.9267 27.7828 37.54C28.4095 38.14 28.7228 38.94 28.7228 39.94C28.7228 40.7133 28.5295 41.4 28.1428 42C27.7561 42.5867 27.2228 43.06 26.5428 43.42C25.8761 43.7667 25.0961 43.9867 24.2028 44.08L24.5828 43.66V46.3H22.5828ZM35.895 44.2C34.735 44.2 33.7417 43.9267 32.915 43.38C32.1017 42.82 31.4817 42.02 31.055 40.98C30.6283 39.94 30.415 38.68 30.415 37.2C30.415 35.6 30.655 34.2467 31.135 33.14C31.615 32.02 32.3083 31.1667 33.215 30.58C34.1217 29.9933 35.2083 29.7 36.475 29.7C36.9683 29.7 37.4617 29.7667 37.955 29.9C38.4617 30.02 38.935 30.2 39.375 30.44C39.8283 30.6667 40.2283 30.9467 40.575 31.28L39.735 33.2C39.2417 32.7467 38.715 32.4133 38.155 32.2C37.595 31.9733 37.0217 31.86 36.435 31.86C35.8617 31.86 35.3483 31.9667 34.895 32.18C34.455 32.38 34.0817 32.6867 33.775 33.1C33.4683 33.5 33.235 34.0067 33.075 34.62C32.9283 35.22 32.855 35.92 32.855 36.72V38.22H32.615C32.7217 37.54 32.9417 36.96 33.275 36.48C33.6217 35.9867 34.0617 35.6133 34.595 35.36C35.1283 35.0933 35.7217 34.96 36.375 34.96C37.1883 34.96 37.9083 35.1533 38.535 35.54C39.1617 35.9267 39.655 36.46 40.015 37.14C40.375 37.82 40.555 38.6 40.555 39.48C40.555 40.3867 40.355 41.2 39.955 41.92C39.5683 42.6267 39.0217 43.1867 38.315 43.6C37.6217 44 36.815 44.2 35.895 44.2ZM35.755 42.16C36.235 42.16 36.655 42.0533 37.015 41.84C37.3883 41.6267 37.675 41.3267 37.875 40.94C38.075 40.54 38.175 40.0867 38.175 39.58C38.175 39.06 38.075 38.6067 37.875 38.22C37.675 37.8333 37.3883 37.5333 37.015 37.32C36.655 37.0933 36.235 36.98 35.755 36.98C35.275 36.98 34.855 37.0933 34.495 37.32C34.135 37.5333 33.8483 37.8333 33.635 38.22C33.435 38.6067 33.335 39.06 33.335 39.58C33.335 40.0867 33.435 40.54 33.635 40.94C33.8483 41.3267 34.135 41.6267 34.495 41.84C34.855 42.0533 35.275 42.16 35.755 42.16ZM42.9072 44V29.9H49.0672C50.5472 29.9 51.6939 30.2267 52.5072 30.88C53.3205 31.52 53.7272 32.4133 53.7272 33.56C53.7272 34.4133 53.4805 35.1333 52.9872 35.72C52.4939 36.3067 51.8205 36.7 50.9672 36.9V36.6C51.6205 36.6933 52.1805 36.8933 52.6472 37.2C53.1139 37.5067 53.4672 37.9 53.7072 38.38C53.9605 38.86 54.0872 39.42 54.0872 40.06C54.0872 40.8867 53.8939 41.6 53.5072 42.2C53.1339 42.7867 52.5872 43.2333 51.8672 43.54C51.1472 43.8467 50.2872 44 49.2872 44H42.9072ZM45.3672 42.06H48.9672C49.3272 42.06 49.6472 42.0333 49.9272 41.98C50.2205 41.9267 50.4672 41.8467 50.6672 41.74C50.8805 41.62 51.0539 41.4733 51.1872 41.3C51.3339 41.1267 51.4405 40.9267 51.5072 40.7C51.5739 40.4733 51.6072 40.22 51.6072 39.94C51.6072 39.6467 51.5739 39.3867 51.5072 39.16C51.4405 38.9333 51.3339 38.74 51.1872 38.58C51.0539 38.4067 50.8805 38.2667 50.6672 38.16C50.4672 38.04 50.2205 37.9533 49.9272 37.9C49.6472 37.8467 49.3272 37.82 48.9672 37.82H45.3672V42.06ZM45.3672 35.88H48.6272C49.5072 35.88 50.1605 35.7133 50.5872 35.38C51.0272 35.0333 51.2472 34.5267 51.2472 33.86C51.2472 33.1933 51.0272 32.6933 50.5872 32.36C50.1605 32.0133 49.5072 31.84 48.6272 31.84H45.3672V35.88Z" fill="#2EBD85"/>
<circle cx="3" cy="8" r="3" fill="#FFA800"/>
<path d="M12.924 12V3.54H16.62C17.508 3.54 18.196 3.736 18.684 4.128C19.172 4.512 19.416 5.048 19.416 5.736C19.416 6.248 19.268 6.68 18.972 7.032C18.676 7.384 18.272 7.62 17.76 7.74V7.56C18.152 7.616 18.488 7.736 18.768 7.92C19.048 8.104 19.26 8.34 19.404 8.628C19.556 8.916 19.632 9.252 19.632 9.636C19.632 10.132 19.516 10.56 19.284 10.92C19.06 11.272 18.732 11.54 18.3 11.724C17.868 11.908 17.352 12 16.752 12H12.924ZM14.4 10.836H16.56C16.776 10.836 16.968 10.82 17.136 10.788C17.312 10.756 17.46 10.708 17.58 10.644C17.708 10.572 17.812 10.484 17.892 10.38C17.98 10.276 18.044 10.156 18.084 10.02C18.124 9.884 18.144 9.732 18.144 9.564C18.144 9.388 18.124 9.232 18.084 9.096C18.044 8.96 17.98 8.844 17.892 8.748C17.812 8.644 17.708 8.56 17.58 8.496C17.46 8.424 17.312 8.372 17.136 8.34C16.968 8.308 16.776 8.292 16.56 8.292H14.4V10.836ZM14.4 7.128H16.356C16.884 7.128 17.276 7.028 17.532 6.828C17.796 6.62 17.928 6.316 17.928 5.916C17.928 5.516 17.796 5.216 17.532 5.016C17.276 4.808 16.884 4.704 16.356 4.704H14.4V7.128ZM21.1857 12V3.54H22.7217V12H21.1857ZM26.6007 12V4.824H23.6967V3.54H31.0407V4.824H28.1367V12H26.6007ZM35.4342 12.12C34.5542 12.12 33.7982 11.944 33.1662 11.592C32.5422 11.232 32.0622 10.728 31.7262 10.08C31.3902 9.424 31.2222 8.652 31.2222 7.764C31.2222 6.876 31.3902 6.108 31.7262 5.46C32.0622 4.812 32.5422 4.312 33.1662 3.96C33.7982 3.6 34.5542 3.42 35.4342 3.42C36.0022 3.42 36.5382 3.508 37.0422 3.684C37.5542 3.86 37.9742 4.112 38.3022 4.44L37.7982 5.664C37.4382 5.36 37.0702 5.14 36.6942 5.004C36.3182 4.86 35.9142 4.788 35.4822 4.788C34.6262 4.788 33.9742 5.048 33.5262 5.568C33.0782 6.08 32.8542 6.812 32.8542 7.764C32.8542 8.716 33.0782 9.452 33.5262 9.972C33.9742 10.492 34.6262 10.752 35.4822 10.752C35.9142 10.752 36.3182 10.684 36.6942 10.548C37.0702 10.404 37.4382 10.18 37.7982 9.876L38.3022 11.1C37.9742 11.42 37.5542 11.672 37.0422 11.856C36.5382 12.032 36.0022 12.12 35.4342 12.12ZM43.1652 12.12C42.5492 12.12 41.9892 12.02 41.4852 11.82C40.9892 11.612 40.5612 11.316 40.2012 10.932C39.8492 10.548 39.5772 10.088 39.3852 9.552C39.1932 9.016 39.0972 8.42 39.0972 7.764C39.0972 7.1 39.1932 6.504 39.3852 5.976C39.5772 5.44 39.8492 4.984 40.2012 4.608C40.5612 4.224 40.9892 3.932 41.4852 3.732C41.9892 3.524 42.5492 3.42 43.1652 3.42C43.7812 3.42 44.3372 3.524 44.8332 3.732C45.3372 3.932 45.7652 4.22 46.1172 4.596C46.4772 4.972 46.7532 5.428 46.9452 5.964C47.1372 6.492 47.2332 7.088 47.2332 7.752C47.2332 8.416 47.1372 9.016 46.9452 9.552C46.7532 10.088 46.4772 10.548 46.1172 10.932C45.7652 11.316 45.3372 11.612 44.8332 11.82C44.3372 12.02 43.7812 12.12 43.1652 12.12ZM43.1652 10.8C43.6852 10.8 44.1252 10.68 44.4852 10.44C44.8532 10.2 45.1332 9.852 45.3252 9.396C45.5252 8.94 45.6252 8.396 45.6252 7.764C45.6252 7.124 45.5292 6.58 45.3372 6.132C45.1452 5.676 44.8652 5.332 44.4972 5.1C44.1292 4.86 43.6852 4.74 43.1652 4.74C42.6532 4.74 42.2132 4.86 41.8452 5.1C41.4772 5.332 41.1932 5.676 40.9932 6.132C40.8012 6.58 40.7052 7.124 40.7052 7.764C40.7052 8.396 40.8012 8.94 40.9932 9.396C41.1932 9.852 41.4772 10.2 41.8452 10.44C42.2132 10.68 42.6532 10.8 43.1652 10.8ZM48.7951 12V3.54H50.3311V12H48.7951ZM52.1701 12V3.54H53.3221L58.1821 9.852H57.8701V3.54H59.2981V12H58.1581L53.2981 5.676H53.5981V12H52.1701Z" fill="#808283"/>
<path d="M82.08 43.2V39.14H78.12V37.38H82.08V33.44H83.92V37.38H87.88V39.14H83.92V43.2H82.08ZM99.5828 46.3V43.68L100.043 44.12C99.0695 44.0933 98.1495 43.9467 97.2828 43.68C96.4295 43.4 95.6895 43.0133 95.0628 42.52L95.8428 40.5C96.2561 40.8067 96.6961 41.0733 97.1628 41.3C97.6428 41.5133 98.1428 41.68 98.6628 41.8C99.1961 41.9067 99.7628 41.96 100.363 41.96C101.336 41.96 102.049 41.7867 102.503 41.44C102.956 41.0933 103.183 40.66 103.183 40.14C103.183 39.6733 103.029 39.3 102.723 39.02C102.416 38.74 101.869 38.5133 101.083 38.34L98.9628 37.88C97.7628 37.6133 96.8561 37.1733 96.2428 36.56C95.6428 35.9333 95.3428 35.1067 95.3428 34.08C95.3428 33.2933 95.5361 32.5933 95.9228 31.98C96.3095 31.3533 96.8495 30.8533 97.5428 30.48C98.2361 30.1067 99.0495 29.8867 99.9828 29.82L99.5828 30.12V27.6H101.583V30.12L101.163 29.8C101.923 29.84 102.669 29.9933 103.403 30.26C104.149 30.5267 104.769 30.9133 105.263 31.42L104.503 33.34C103.996 32.8733 103.416 32.5267 102.763 32.3C102.109 32.06 101.396 31.94 100.623 31.94C99.7961 31.94 99.1295 32.1333 98.6228 32.52C98.1295 32.8933 97.8828 33.3867 97.8828 34C97.8828 34.4533 98.0361 34.82 98.3428 35.1C98.6495 35.38 99.1428 35.5933 99.8228 35.74L101.943 36.2C103.223 36.48 104.169 36.9267 104.783 37.54C105.409 38.14 105.723 38.94 105.723 39.94C105.723 40.7133 105.529 41.4 105.143 42C104.756 42.5867 104.223 43.06 103.543 43.42C102.876 43.7667 102.096 43.9867 101.203 44.08L101.583 43.66V46.3H99.5828ZM108.555 44V41.88H111.735V32.06H112.975L109.275 34.3L108.275 32.42L112.475 29.9H114.295V41.88H117.275V44H108.555ZM119.907 44V29.9H126.067C127.547 29.9 128.694 30.2267 129.507 30.88C130.321 31.52 130.727 32.4133 130.727 33.56C130.727 34.4133 130.481 35.1333 129.987 35.72C129.494 36.3067 128.821 36.7 127.967 36.9V36.6C128.621 36.6933 129.181 36.8933 129.647 37.2C130.114 37.5067 130.467 37.9 130.707 38.38C130.961 38.86 131.087 39.42 131.087 40.06C131.087 40.8867 130.894 41.6 130.507 42.2C130.134 42.7867 129.587 43.2333 128.867 43.54C128.147 43.8467 127.287 44 126.287 44H119.907ZM122.367 42.06H125.967C126.327 42.06 126.647 42.0333 126.927 41.98C127.221 41.9267 127.467 41.8467 127.667 41.74C127.881 41.62 128.054 41.4733 128.187 41.3C128.334 41.1267 128.441 40.9267 128.507 40.7C128.574 40.4733 128.607 40.22 128.607 39.94C128.607 39.6467 128.574 39.3867 128.507 39.16C128.441 38.9333 128.334 38.74 128.187 38.58C128.054 38.4067 127.881 38.2667 127.667 38.16C127.467 38.04 127.221 37.9533 126.927 37.9C126.647 37.8467 126.327 37.82 125.967 37.82H122.367V42.06ZM122.367 35.88H125.627C126.507 35.88 127.161 35.7133 127.587 35.38C128.027 35.0333 128.247 34.5267 128.247 33.86C128.247 33.1933 128.027 32.6933 127.587 32.36C127.161 32.0133 126.507 31.84 125.627 31.84H122.367V35.88Z" fill="#2EBD85"/>
<circle cx="80" cy="8" r="3" fill="#6AA5FF"/>
<path d="M89.924 12V3.54H95.552V4.764H91.4V7.092H95.288V8.316H91.4V10.776H95.552V12H89.924ZM99.0656 12V4.824H96.1616V3.54H103.506V4.824H100.602V12H99.0656ZM104.479 12V3.54H106.015V7.068H110.371V3.54H111.907V12H110.371V8.352H106.015V12H104.479ZM113.76 12V3.54H119.388V4.764H115.236V7.092H119.124V8.316H115.236V10.776H119.388V12H113.76ZM120.92 12V3.54H124.592C125.52 3.54 126.236 3.764 126.74 4.212C127.244 4.652 127.496 5.272 127.496 6.072C127.496 6.592 127.38 7.04 127.148 7.416C126.924 7.792 126.596 8.08 126.164 8.28C125.732 8.48 125.208 8.58 124.592 8.58L124.7 8.4H125.096C125.424 8.4 125.708 8.48 125.948 8.64C126.196 8.8 126.412 9.052 126.596 9.396L128.012 12H126.32L124.856 9.3C124.76 9.124 124.652 8.988 124.532 8.892C124.412 8.788 124.276 8.716 124.124 8.676C123.972 8.636 123.796 8.616 123.596 8.616H122.456V12H120.92ZM122.456 7.476H124.328C124.88 7.476 125.296 7.364 125.576 7.14C125.864 6.908 126.008 6.564 126.008 6.108C126.008 5.66 125.864 5.324 125.576 5.1C125.296 4.868 124.88 4.752 124.328 4.752H122.456V7.476ZM129.147 12V3.54H134.775V4.764H130.623V7.092H134.511V8.316H130.623V10.776H134.775V12H129.147ZM139.823 12.12C138.663 12.12 137.775 11.82 137.159 11.22C136.551 10.612 136.247 9.716 136.247 8.532V3.54H137.783V8.52C137.783 9.28 137.955 9.852 138.299 10.236C138.651 10.612 139.159 10.8 139.823 10.8C140.487 10.8 140.991 10.612 141.335 10.236C141.679 9.852 141.851 9.28 141.851 8.52V3.54H143.375V8.532C143.375 9.716 143.075 10.612 142.475 11.22C141.875 11.82 140.991 12.12 139.823 12.12ZM145.19 12V3.54H146.474L149.666 9.432H149.282L152.462 3.54H153.722V12H152.33V5.82H152.594L149.906 10.716H149.006L146.294 5.808H146.582V12H145.19Z" fill="#808283"/>
<path d="M0 96C0 93.7909 1.79086 92 4 92H17.6074C19.8165 92 21.6074 93.7909 21.6074 96V218H0V96Z" fill="url(#paint0_linear_19_6)"/>
<path d="M0 204C0 201.791 1.79086 200 4 200H17.6074C19.8165 200 21.6074 201.791 21.6074 204V216H0V204Z" fill="url(#paint1_linear_19_6)"/>
<path d="M32.4113 166C32.4113 163.791 34.2021 162 36.4113 162H50.0186C52.2278 162 54.0186 163.791 54.0186 166V218H32.4113V166Z" fill="url(#paint2_linear_19_6)"/>
<path d="M32.4113 209C32.4113 206.791 34.2021 205 36.4113 205H50.0186C52.2278 205 54.0186 206.791 54.0186 209V218H32.4113V209Z" fill="url(#paint3_linear_19_6)"/>
<path d="M64.8186 190C64.8186 187.791 66.6095 186 68.8186 186H82.426C84.6351 186 86.426 187.791 86.426 190V218H64.8186V190Z" fill="url(#paint4_linear_19_6)"/>
<path d="M64.8186 220C64.8186 222.209 66.6095 224 68.8186 224H82.426C84.6351 224 86.426 222.209 86.426 220V220H64.8186V220Z" fill="url(#paint5_linear_19_6)"/>
<path d="M97.2299 146C97.2299 143.791 99.0207 142 101.23 142H114.837C117.046 142 118.837 143.791 118.837 146V218H97.2299V146Z" fill="url(#paint6_linear_19_6)"/>
<path d="M97.2299 218C97.2299 216.895 98.1253 216 99.2299 216H116.837C117.942 216 118.837 216.895 118.837 218V218H97.2299V218Z" fill="url(#paint7_linear_19_6)"/>
<path d="M129.645 296C129.645 298.209 131.436 300 133.645 300H147.253C149.462 300 151.253 298.209 151.253 296V220H129.645V296Z" fill="url(#paint8_linear_19_6)"/>
<path d="M129.645 237C129.645 239.209 131.436 241 133.645 241H147.253C149.462 241 151.253 239.209 151.253 237V220H129.645V237Z" fill="url(#paint9_linear_19_6)"/>
<path d="M162.056 216C162.056 213.791 163.847 212 166.056 212H179.664C181.873 212 183.664 213.791 183.664 216V218H162.056V216Z" fill="url(#paint10_linear_19_6)"/>
<path d="M194.464 204C194.464 201.791 196.255 200 198.464 200H212.071C214.28 200 216.071 201.791 216.071 204V218H194.464V204Z" fill="url(#paint11_linear_19_6)"/>
<path d="M194.464 220C194.464 221.657 195.807 223 197.464 223H213.071C214.728 223 216.071 221.657 216.071 220V220H194.464V220Z" fill="url(#paint12_linear_19_6)"/>
<path d="M226.875 133C226.875 130.791 228.666 129 230.875 129H244.482C246.691 129 248.482 130.791 248.482 133V218H226.875V133Z" fill="url(#paint13_linear_19_6)"/>
<path d="M226.875 201C226.875 198.791 228.666 197 230.875 197H244.482C246.691 197 248.482 198.791 248.482 201V218H226.875V201Z" fill="url(#paint14_linear_19_6)"/>
<path d="M259.286 168C259.286 165.791 261.077 164 263.286 164H276.894C279.103 164 280.894 165.791 280.894 168V218H259.286V168Z" fill="url(#paint15_linear_19_6)"/>
<path d="M259.286 217C259.286 214.791 261.077 213 263.286 213H276.894C279.103 213 280.894 214.791 280.894 217V218H259.286V217Z" fill="url(#paint16_linear_19_6)"/>
<path d="M291.701 280C291.701 282.209 293.492 284 295.701 284H309.309C311.518 284 313.309 282.209 313.309 280V220H291.701V280Z" fill="url(#paint17_linear_19_6)"/>
<path d="M291.701 209C291.701 206.791 293.492 205 295.701 205H309.309C311.518 205 313.309 206.791 313.309 209V218H291.701V209Z" fill="url(#paint18_linear_19_6)"/>
<path d="M324.109 137C324.109 134.791 325.9 133 328.109 133H341.716C343.925 133 345.716 134.791 345.716 137V218H324.109V137Z" fill="url(#paint19_linear_19_6)"/>
<path d="M324.109 177C324.109 174.791 325.9 173 328.109 173H341.716C343.925 173 345.716 174.791 345.716 177V218H324.109V177Z" fill="url(#paint20_linear_19_6)"/>
<path d="M356.516 200C356.516 197.791 358.307 196 360.516 196H374.124C376.333 196 378.124 197.791 378.124 200V218H356.516V200Z" fill="url(#paint21_linear_19_6)"/>
<path d="M356.516 216C356.516 213.791 358.307 212 360.516 212H374.124C376.333 212 378.124 213.791 378.124 216V218H356.516V216Z" fill="url(#paint22_linear_19_6)"/>
<path d="M388.927 244C388.927 246.209 390.718 248 392.927 248H406.535C408.744 248 410.535 246.209 410.535 244V220H388.927V244Z" fill="url(#paint23_linear_19_6)"/>
<path d="M388.927 214C388.927 211.791 390.718 210 392.927 210H406.535C408.744 210 410.535 211.791 410.535 214V218H388.927V214Z" fill="url(#paint24_linear_19_6)"/>
<path d="M421.339 187C421.339 184.791 423.13 183 425.339 183H438.946C441.155 183 442.946 184.791 442.946 187V218H421.339V187Z" fill="url(#paint25_linear_19_6)"/>
<path d="M453.746 256C453.746 258.209 455.537 260 457.746 260H471.353C473.563 260 475.353 258.209 475.353 256V220H453.746V256Z" fill="url(#paint26_linear_19_6)"/>
<path d="M453.746 221C453.746 223.209 455.537 225 457.746 225H471.353C473.563 225 475.353 223.209 475.353 221V220H453.746V221Z" fill="url(#paint27_linear_19_6)"/>
<path d="M486.157 230C486.157 232.209 487.948 234 490.157 234H503.765C505.974 234 507.765 232.209 507.765 230V220H486.157V230Z" fill="url(#paint28_linear_19_6)"/>
<path d="M486.157 218C486.157 215.791 487.948 214 490.157 214H503.765C505.974 214 507.765 215.791 507.765 218V218H486.157V218Z" fill="url(#paint29_linear_19_6)"/>
<path d="M518.573 263C518.573 265.209 520.363 267 522.573 267H536.18C538.389 267 540.18 265.209 540.18 263V220H518.573V263Z" fill="url(#paint30_linear_19_6)"/>
<path d="M518.573 226C518.573 228.209 520.363 230 522.573 230H536.18C538.389 230 540.18 228.209 540.18 226V220H518.573V226Z" fill="url(#paint31_linear_19_6)"/>
<path d="M550.984 243C550.984 245.209 552.775 247 554.984 247H568.591C570.8 247 572.591 245.209 572.591 243V220H550.984V243Z" fill="url(#paint32_linear_19_6)"/>
<path d="M550.984 216C550.984 213.791 552.775 212 554.984 212H568.591C570.8 212 572.591 213.791 572.591 216V218H550.984V216Z" fill="url(#paint33_linear_19_6)"/>
<path d="M583.391 195C583.391 192.791 585.182 191 587.391 191H600.999C603.208 191 604.999 192.791 604.999 195V218H583.391V195Z" fill="url(#paint34_linear_19_6)"/>
<path d="M583.391 215C583.391 212.791 585.182 211 587.391 211H600.999C603.208 211 604.999 212.791 604.999 215V218H583.391V215Z" fill="url(#paint35_linear_19_6)"/>
<defs>
<linearGradient id="paint0_linear_19_6" x1="10.8037" y1="218" x2="10.8037" y2="92" gradientUnits="userSpaceOnUse">
<stop stop-color="#181A20"/>
<stop offset="1" stop-color="#FFA800"/>
</linearGradient>
<linearGradient id="paint1_linear_19_6" x1="10.8037" y1="216" x2="10.8037" y2="200" gradientUnits="userSpaceOnUse">
<stop stop-color="#181A20"/>
<stop offset="1" stop-color="#6AA5FF"/>
</linearGradient>
<linearGradient id="paint2_linear_19_6" x1="43.2149" y1="218" x2="43.2149" y2="162" gradientUnits="userSpaceOnUse">
<stop stop-color="#181A20"/>
<stop offset="1" stop-color="#FFA800"/>
</linearGradient>
<linearGradient id="paint3_linear_19_6" x1="43.2149" y1="218" x2="43.2149" y2="205" gradientUnits="userSpaceOnUse">
<stop stop-color="#181A20"/>
<stop offset="1" stop-color="#6AA5FF"/>
</linearGradient>
<linearGradient id="paint4_linear_19_6" x1="75.6223" y1="218" x2="75.6223" y2="186" gradientUnits="userSpaceOnUse">
<stop stop-color="#181A20"/>
<stop offset="1" stop-color="#FFA800"/>
</linearGradient>
<linearGradient id="paint5_linear_19_6" x1="75.6223" y1="220" x2="75.6223" y2="224" gradientUnits="userSpaceOnUse">
<stop stop-color="#181A20"/>
<stop offset="1" stop-color="#6AA5FF"/>
</linearGradient>
<linearGradient id="paint6_linear_19_6" x1="108.034" y1="218" x2="108.034" y2="142" gradientUnits="userSpaceOnUse">
<stop stop-color="#181A20"/>
<stop offset="1" stop-color="#FFA800"/>
</linearGradient>
<linearGradient id="paint7_linear_19_6" x1="108.034" y1="218" x2="108.034" y2="216" gradientUnits="userSpaceOnUse">
<stop stop-color="#181A20"/>
<stop offset="1" stop-color="#6AA5FF"/>
</linearGradient>
<linearGradient id="paint8_linear_19_6" x1="140.449" y1="220" x2="140.449" y2="300" gradientUnits="userSpaceOnUse">
<stop stop-color="#181A20"/>
<stop offset="1" stop-color="#FFA800"/>
</linearGradient>
<linearGradient id="paint9_linear_19_6" x1="140.449" y1="220" x2="140.449" y2="241" gradientUnits="userSpaceOnUse">
<stop stop-color="#181A20"/>
<stop offset="1" stop-color="#6AA5FF"/>
</linearGradient>
<linearGradient id="paint10_linear_19_6" x1="172.86" y1="218" x2="172.86" y2="212" gradientUnits="userSpaceOnUse">
<stop stop-color="#181A20"/>
<stop offset="1" stop-color="#FFA800"/>
</linearGradient>
<linearGradient id="paint11_linear_19_6" x1="205.267" y1="218" x2="205.267" y2="200" gradientUnits="userSpaceOnUse">
<stop stop-color="#181A20"/>
<stop offset="1" stop-color="#FFA800"/>
</linearGradient>
<linearGradient id="paint12_linear_19_6" x1="205.267" y1="220" x2="205.267" y2="223" gradientUnits="userSpaceOnUse">
<stop stop-color="#181A20"/>
<stop offset="1" stop-color="#6AA5FF"/>
</linearGradient>
<linearGradient id="paint13_linear_19_6" x1="237.679" y1="218" x2="237.679" y2="129" gradientUnits="userSpaceOnUse">
<stop stop-color="#181A20"/>
<stop offset="1" stop-color="#FFA800"/>
</linearGradient>
<linearGradient id="paint14_linear_19_6" x1="237.679" y1="218" x2="237.679" y2="197" gradientUnits="userSpaceOnUse">
<stop stop-color="#181A20"/>
<stop offset="1" stop-color="#6AA5FF"/>
</linearGradient>
<linearGradient id="paint15_linear_19_6" x1="270.09" y1="218" x2="270.09" y2="164" gradientUnits="userSpaceOnUse">
<stop stop-color="#181A20"/>
<stop offset="1" stop-color="#FFA800"/>
</linearGradient>
<linearGradient id="paint16_linear_19_6" x1="270.09" y1="218" x2="270.09" y2="213" gradientUnits="userSpaceOnUse">
<stop stop-color="#181A20"/>
<stop offset="1" stop-color="#6AA5FF"/>
</linearGradient>
<linearGradient id="paint17_linear_19_6" x1="302.505" y1="220" x2="302.505" y2="284" gradientUnits="userSpaceOnUse">
<stop stop-color="#181A20"/>
<stop offset="1" stop-color="#FFA800"/>
</linearGradient>
<linearGradient id="paint18_linear_19_6" x1="302.505" y1="218" x2="302.505" y2="205" gradientUnits="userSpaceOnUse">
<stop stop-color="#181A20"/>
<stop offset="1" stop-color="#6AA5FF"/>
</linearGradient>
<linearGradient id="paint19_linear_19_6" x1="334.913" y1="218" x2="334.913" y2="133" gradientUnits="userSpaceOnUse">
<stop stop-color="#181A20"/>
<stop offset="1" stop-color="#FFA800"/>
</linearGradient>
<linearGradient id="paint20_linear_19_6" x1="334.913" y1="218" x2="334.913" y2="173" gradientUnits="userSpaceOnUse">
<stop stop-color="#181A20"/>
<stop offset="1" stop-color="#6AA5FF"/>
</linearGradient>
<linearGradient id="paint21_linear_19_6" x1="367.32" y1="218" x2="367.32" y2="196" gradientUnits="userSpaceOnUse">
<stop stop-color="#181A20"/>
<stop offset="1" stop-color="#FFA800"/>
</linearGradient>
<linearGradient id="paint22_linear_19_6" x1="367.32" y1="218" x2="367.32" y2="212" gradientUnits="userSpaceOnUse">
<stop stop-color="#181A20"/>
<stop offset="1" stop-color="#6AA5FF"/>
</linearGradient>
<linearGradient id="paint23_linear_19_6" x1="399.731" y1="220" x2="399.731" y2="248" gradientUnits="userSpaceOnUse">
<stop stop-color="#181A20"/>
<stop offset="1" stop-color="#FFA800"/>
</linearGradient>
<linearGradient id="paint24_linear_19_6" x1="399.731" y1="218" x2="399.731" y2="210" gradientUnits="userSpaceOnUse">
<stop stop-color="#181A20"/>
<stop offset="1" stop-color="#6AA5FF"/>
</linearGradient>
<linearGradient id="paint25_linear_19_6" x1="432.142" y1="218" x2="432.142" y2="183" gradientUnits="userSpaceOnUse">
<stop stop-color="#181A20"/>
<stop offset="1" stop-color="#FFA800"/>
</linearGradient>
<linearGradient id="paint26_linear_19_6" x1="464.55" y1="220" x2="464.55" y2="260" gradientUnits="userSpaceOnUse">
<stop stop-color="#181A20"/>
<stop offset="1" stop-color="#FFA800"/>
</linearGradient>
<linearGradient id="paint27_linear_19_6" x1="464.55" y1="220" x2="464.55" y2="225" gradientUnits="userSpaceOnUse">
<stop stop-color="#181A20"/>
<stop offset="1" stop-color="#6AA5FF"/>
</linearGradient>
<linearGradient id="paint28_linear_19_6" x1="496.961" y1="220" x2="496.961" y2="234" gradientUnits="userSpaceOnUse">
<stop stop-color="#181A20"/>
<stop offset="1" stop-color="#FFA800"/>
</linearGradient>
<linearGradient id="paint29_linear_19_6" x1="496.961" y1="218" x2="496.961" y2="214" gradientUnits="userSpaceOnUse">
<stop stop-color="#181A20"/>
<stop offset="1" stop-color="#6AA5FF"/>
</linearGradient>
<linearGradient id="paint30_linear_19_6" x1="529.376" y1="220" x2="529.376" y2="267" gradientUnits="userSpaceOnUse">
<stop stop-color="#181A20"/>
<stop offset="1" stop-color="#FFA800"/>
</linearGradient>
<linearGradient id="paint31_linear_19_6" x1="529.376" y1="220" x2="529.376" y2="230" gradientUnits="userSpaceOnUse">
<stop stop-color="#181A20"/>
<stop offset="1" stop-color="#6AA5FF"/>
</linearGradient>
<linearGradient id="paint32_linear_19_6" x1="561.787" y1="220" x2="561.787" y2="247" gradientUnits="userSpaceOnUse">
<stop stop-color="#181A20"/>
<stop offset="1" stop-color="#FFA800"/>
</linearGradient>
<linearGradient id="paint33_linear_19_6" x1="561.787" y1="218" x2="561.787" y2="212" gradientUnits="userSpaceOnUse">
<stop stop-color="#181A20"/>
<stop offset="1" stop-color="#6AA5FF"/>
</linearGradient>
<linearGradient id="paint34_linear_19_6" x1="594.195" y1="218" x2="594.195" y2="191" gradientUnits="userSpaceOnUse">
<stop stop-color="#181A20"/>
<stop offset="1" stop-color="#FFA800"/>
</linearGradient>
<linearGradient id="paint35_linear_19_6" x1="594.195" y1="218" x2="594.195" y2="211" gradientUnits="userSpaceOnUse">
<stop stop-color="#181A20"/>
<stop offset="1" stop-color="#6AA5FF"/>
</linearGradient>
</defs>
</svg>
