<svg width="667" height="378" viewBox="0 0 667 378" fill="none" xmlns="http://www.w3.org/2000/svg">
<path d="M3 75C3 72.7909 4.79086 71 7 71H23C25.2091 71 27 72.7909 27 75V197H3V75Z" fill="url(#paint0_linear_24_139)"/>
<path d="M35.8 158C35.8 155.791 37.5909 154 39.8 154H54.2C56.4091 154 58.2 155.791 58.2 158V197H35.8V158Z" fill="url(#paint1_linear_24_139)"/>
<path d="M67 162C67 159.791 68.7909 158 71 158H87C89.2091 158 91 159.791 91 162V197H67V162Z" fill="url(#paint2_linear_24_139)"/>
<path d="M99.8 106C99.8 103.791 101.591 102 103.8 102H119C121.209 102 123 103.791 123 106V197H99.8V106Z" fill="url(#paint3_linear_24_139)"/>
<path d="M164.6 193C164.6 190.791 166.391 189 168.6 189H183C185.209 189 187 190.791 187 193V197H164.6V193Z" fill="url(#paint4_linear_24_139)"/>
<path d="M196.6 177C196.6 174.791 198.391 173 200.6 173H215C217.209 173 219 174.791 219 177V197H196.6V177Z" fill="url(#paint5_linear_24_139)"/>
<path d="M228.6 82C228.6 79.7909 230.391 78 232.6 78H247.8C250.009 78 251.8 79.7909 251.8 82V197H228.6V82Z" fill="url(#paint6_linear_24_139)"/>
<path d="M261.4 143C261.4 140.791 263.191 139 265.4 139H280.6C282.809 139 284.6 140.791 284.6 143V197H261.4V143Z" fill="url(#paint7_linear_24_139)"/>
<path d="M325.4 135C325.4 132.791 327.191 131 329.4 131H344.6C346.809 131 348.6 132.791 348.6 135V197H325.4V135Z" fill="url(#paint8_linear_24_139)"/>
<path d="M358.2 177C358.2 174.791 359.991 173 362.2 173H377.4C379.609 173 381.4 174.791 381.4 177V197H358.2V177Z" fill="url(#paint9_linear_24_139)"/>
<path d="M423 158C423 155.791 424.791 154 427 154H441.4C443.609 154 445.4 155.791 445.4 158V197H423V158Z" fill="url(#paint10_linear_24_139)"/>
<path d="M583 192C583 189.791 584.791 188 587 188H603C605.209 188 607 189.791 607 192V197H583V192Z" fill="url(#paint11_linear_24_139)"/>
<path d="M132.6 290C132.6 292.209 134.391 294 136.6 294H151.8C154.009 294 155.8 292.209 155.8 290V199H132.6V290Z" fill="url(#paint12_linear_24_139)"/>
<path d="M294.2 235C294.2 237.209 295.991 239 298.2 239H311.8C314.009 239 315.8 237.209 315.8 235V199H294.2V235Z" fill="url(#paint13_linear_24_139)"/>
<path d="M391 213C391 215.209 392.791 217 395 217H409.4C411.609 217 413.4 215.209 413.4 213V199H391V213Z" fill="url(#paint14_linear_24_139)"/>
<path d="M454.2 226C454.2 228.209 455.991 230 458.2 230H473.4C475.609 230 477.4 228.209 477.4 226V199H454.2V226Z" fill="url(#paint15_linear_24_139)"/>
<path d="M487 208C487 210.209 488.791 212 491 212H506.2C508.409 212 510.2 210.209 510.2 208V199H487V208Z" fill="url(#paint16_linear_24_139)"/>
<path d="M519 242C519 244.209 520.791 246 523 246H539C541.209 246 543 244.209 543 242V199H519V242Z" fill="url(#paint17_linear_24_139)"/>
<path d="M551.8 222C551.8 224.209 553.591 226 555.8 226H570.2C572.409 226 574.2 224.209 574.2 222V200H551.8V222Z" fill="url(#paint18_linear_24_139)"/>
<g filter="url(#filter0_d_24_139)">
<path d="M9 193.01L38.8445 175.992L69.2919 107L99.1364 150.695L128.679 144.716L159.127 168.173L189.876 176.452L219.117 191.171L249.263 148.395L279.108 131.377L308.952 252.344L339.098 187.031L368.641 249.584L398.184 270.742L428.933 268.902L459.682 271.662L488.321 255.103L518.467 285L548.612 248.204L578.758 270.282L608 278.101" stroke="#72757D" stroke-width="1.5"/>
</g>
<rect x="3" y="68" width="605" height="2" fill="white" fill-opacity="0.04"/>
<rect x="3" y="138" width="605" height="2" fill="white" fill-opacity="0.04"/>
<rect x="3" y="208" width="605" height="2" fill="white" fill-opacity="0.04"/>
<rect x="3" y="278" width="605" height="2" fill="white" fill-opacity="0.04"/>
<rect x="3" y="348" width="605" height="2" fill="white" fill-opacity="0.16"/>
<rect x="49.5" y="350" width="1" height="8" fill="white" fill-opacity="0.16"/>
<path d="M31.4096 374V372.728H33.3176V366.836H34.0616L31.8416 368.18L31.2416 367.052L33.7616 365.54H34.8536V372.728H36.6416V374H31.4096ZM40.8969 374.12C39.9129 374.12 39.1409 373.908 38.5809 373.484C38.0289 373.06 37.7529 372.472 37.7529 371.72C37.7529 371.32 37.8329 370.968 37.9929 370.664C38.1609 370.352 38.3889 370.1 38.6769 369.908C38.9649 369.716 39.2929 369.596 39.6609 369.548V369.8C39.3249 369.728 39.0289 369.596 38.7729 369.404C38.5169 369.204 38.3169 368.96 38.1729 368.672C38.0369 368.376 37.9689 368.052 37.9689 367.7C37.9689 366.988 38.2329 366.432 38.7609 366.032C39.2889 365.624 40.0049 365.42 40.9089 365.42C41.8049 365.42 42.5169 365.624 43.0449 366.032C43.5729 366.432 43.8369 366.988 43.8369 367.7C43.8369 368.052 43.7649 368.376 43.6209 368.672C43.4849 368.968 43.2889 369.212 43.0329 369.404C42.7849 369.596 42.4929 369.724 42.1569 369.788V369.548C42.5329 369.596 42.8609 369.72 43.1409 369.92C43.4209 370.112 43.6409 370.364 43.8009 370.676C43.9609 370.98 44.0409 371.328 44.0409 371.72C44.0409 372.472 43.7609 373.06 43.2009 373.484C42.6489 373.908 41.8809 374.12 40.8969 374.12ZM40.8969 372.92C41.4649 372.92 41.8929 372.812 42.1809 372.596C42.4689 372.372 42.6129 372.044 42.6129 371.612C42.6129 371.18 42.4689 370.856 42.1809 370.64C41.8929 370.424 41.4649 370.316 40.8969 370.316C40.3369 370.316 39.9089 370.424 39.6129 370.64C39.3249 370.856 39.1809 371.18 39.1809 371.612C39.1809 372.044 39.3249 372.372 39.6129 372.596C39.9089 372.812 40.3369 372.92 40.8969 372.92ZM40.8969 369.116C41.3689 369.116 41.7369 369.004 42.0009 368.78C42.2729 368.556 42.4089 368.248 42.4089 367.856C42.4089 367.472 42.2729 367.172 42.0009 366.956C41.7369 366.732 41.3689 366.62 40.8969 366.62C40.4249 366.62 40.0569 366.732 39.7929 366.956C39.5289 367.172 39.3969 367.476 39.3969 367.868C39.3969 368.252 39.5289 368.556 39.7929 368.78C40.0569 369.004 40.4249 369.116 40.8969 369.116ZM47.7146 374.108L47.6066 372.848L48.4586 372.8C48.6986 372.784 48.8946 372.732 49.0466 372.644C49.2066 372.548 49.3266 372.416 49.4066 372.248C49.4866 372.072 49.5266 371.864 49.5266 371.624V365.54H51.0626V371.612C51.0626 372.116 50.9746 372.544 50.7986 372.896C50.6226 373.248 50.3586 373.52 50.0066 373.712C49.6546 373.904 49.2186 374.02 48.6986 374.06L47.7146 374.108ZM52.0042 374L55.8322 365.54H57.0922L60.9202 374H59.3602L58.3402 371.624L58.9882 372.044H53.9242L54.5722 371.624L53.5642 374H52.0042ZM56.4442 367.208L54.7642 371.204L54.4522 370.82H58.4602L58.1602 371.204L56.4682 367.208H56.4442ZM61.8459 374V365.54H62.9979L67.8579 371.852H67.5459V365.54H68.9739V374H67.8339L62.9739 367.676H63.2739V374H61.8459Z" fill="#808283"/>
<rect x="153.5" y="350" width="1" height="8" fill="white" fill-opacity="0.16"/>
<path d="M135.062 374V372.86L137.798 369.944C138.046 369.68 138.242 369.436 138.386 369.212C138.538 368.988 138.65 368.772 138.722 368.564C138.794 368.356 138.83 368.148 138.83 367.94C138.83 367.54 138.702 367.236 138.446 367.028C138.198 366.82 137.834 366.716 137.354 366.716C136.978 366.716 136.61 366.788 136.25 366.932C135.898 367.068 135.558 367.284 135.23 367.58L134.714 366.428C135.05 366.124 135.47 365.88 135.974 365.696C136.478 365.512 137.002 365.42 137.546 365.42C138.154 365.42 138.666 365.512 139.082 365.696C139.498 365.88 139.814 366.148 140.03 366.5C140.246 366.852 140.354 367.28 140.354 367.784C140.354 368.04 140.322 368.292 140.258 368.54C140.202 368.78 140.11 369.02 139.982 369.26C139.862 369.5 139.706 369.748 139.514 370.004C139.33 370.252 139.106 370.512 138.842 370.784L136.586 373.136V372.728H140.678V374H135.062ZM144.969 374.12C144.601 374.12 144.237 374.08 143.877 374C143.525 373.92 143.193 373.808 142.881 373.664C142.577 373.52 142.313 373.352 142.089 373.16L142.593 371.984C142.961 372.264 143.341 372.476 143.733 372.62C144.125 372.756 144.529 372.824 144.945 372.824C145.449 372.824 145.841 372.696 146.121 372.44C146.409 372.176 146.553 371.824 146.553 371.384C146.553 370.936 146.417 370.576 146.145 370.304C145.873 370.024 145.501 369.884 145.029 369.884C144.685 369.884 144.377 369.952 144.105 370.088C143.833 370.216 143.585 370.416 143.361 370.688H142.329V365.54H147.525V366.812H143.829V369.5H143.433C143.641 369.22 143.913 369.004 144.249 368.852C144.593 368.7 144.973 368.624 145.389 368.624C145.925 368.624 146.389 368.74 146.781 368.972C147.181 369.196 147.489 369.512 147.705 369.92C147.929 370.32 148.041 370.788 148.041 371.324C148.041 371.876 147.917 372.364 147.669 372.788C147.421 373.204 147.065 373.532 146.601 373.772C146.145 374.004 145.601 374.12 144.969 374.12ZM151.715 374.108L151.607 372.848L152.459 372.8C152.699 372.784 152.895 372.732 153.047 372.644C153.207 372.548 153.327 372.416 153.407 372.248C153.487 372.072 153.527 371.864 153.527 371.624V365.54H155.063V371.612C155.063 372.116 154.975 372.544 154.799 372.896C154.623 373.248 154.359 373.52 154.007 373.712C153.655 373.904 153.219 374.02 152.699 374.06L151.715 374.108ZM156.004 374L159.832 365.54H161.092L164.92 374H163.36L162.34 371.624L162.988 372.044H157.924L158.572 371.624L157.564 374H156.004ZM160.444 367.208L158.764 371.204L158.452 370.82H162.46L162.16 371.204L160.468 367.208H160.444ZM165.846 374V365.54H166.998L171.858 371.852H171.546V365.54H172.974V374H171.834L166.974 367.676H167.274V374H165.846Z" fill="#808283"/>
<rect x="254" y="350" width="1" height="8" fill="white" fill-opacity="0.16"/>
<path d="M239.513 374V372.728H241.421V366.836H242.165L239.945 368.18L239.345 367.052L241.865 365.54H242.957V372.728H244.745V374H239.513ZM249.559 374V365.54H255.091V366.764H251.095V369.152H254.839V370.376H251.095V374H249.559ZM256.297 374V365.54H261.925V366.764H257.773V369.092H261.661V370.316H257.773V372.776H261.925V374H256.297ZM263.457 374V365.54H267.153C268.041 365.54 268.729 365.736 269.217 366.128C269.705 366.512 269.949 367.048 269.949 367.736C269.949 368.248 269.801 368.68 269.505 369.032C269.209 369.384 268.805 369.62 268.293 369.74V369.56C268.685 369.616 269.021 369.736 269.301 369.92C269.581 370.104 269.793 370.34 269.937 370.628C270.089 370.916 270.165 371.252 270.165 371.636C270.165 372.132 270.049 372.56 269.817 372.92C269.593 373.272 269.265 373.54 268.833 373.724C268.401 373.908 267.885 374 267.285 374H263.457ZM264.933 372.836H267.093C267.309 372.836 267.501 372.82 267.669 372.788C267.845 372.756 267.993 372.708 268.113 372.644C268.241 372.572 268.345 372.484 268.425 372.38C268.513 372.276 268.577 372.156 268.617 372.02C268.657 371.884 268.677 371.732 268.677 371.564C268.677 371.388 268.657 371.232 268.617 371.096C268.577 370.96 268.513 370.844 268.425 370.748C268.345 370.644 268.241 370.56 268.113 370.496C267.993 370.424 267.845 370.372 267.669 370.34C267.501 370.308 267.309 370.292 267.093 370.292H264.933V372.836ZM264.933 369.128H266.889C267.417 369.128 267.809 369.028 268.065 368.828C268.329 368.62 268.461 368.316 268.461 367.916C268.461 367.516 268.329 367.216 268.065 367.016C267.809 366.808 267.417 366.704 266.889 366.704H264.933V369.128Z" fill="#808283"/>
<rect x="351" y="350" width="1" height="8" fill="white" fill-opacity="0.16"/>
<path d="M338.805 374.12C337.821 374.12 337.049 373.908 336.489 373.484C335.937 373.06 335.661 372.472 335.661 371.72C335.661 371.32 335.741 370.968 335.901 370.664C336.069 370.352 336.297 370.1 336.585 369.908C336.873 369.716 337.201 369.596 337.569 369.548V369.8C337.233 369.728 336.937 369.596 336.681 369.404C336.425 369.204 336.225 368.96 336.081 368.672C335.945 368.376 335.877 368.052 335.877 367.7C335.877 366.988 336.141 366.432 336.669 366.032C337.197 365.624 337.913 365.42 338.817 365.42C339.713 365.42 340.425 365.624 340.953 366.032C341.481 366.432 341.745 366.988 341.745 367.7C341.745 368.052 341.673 368.376 341.529 368.672C341.393 368.968 341.197 369.212 340.941 369.404C340.693 369.596 340.401 369.724 340.065 369.788V369.548C340.441 369.596 340.769 369.72 341.049 369.92C341.329 370.112 341.549 370.364 341.709 370.676C341.869 370.98 341.949 371.328 341.949 371.72C341.949 372.472 341.669 373.06 341.109 373.484C340.557 373.908 339.789 374.12 338.805 374.12ZM338.805 372.92C339.373 372.92 339.801 372.812 340.089 372.596C340.377 372.372 340.521 372.044 340.521 371.612C340.521 371.18 340.377 370.856 340.089 370.64C339.801 370.424 339.373 370.316 338.805 370.316C338.245 370.316 337.817 370.424 337.521 370.64C337.233 370.856 337.089 371.18 337.089 371.612C337.089 372.044 337.233 372.372 337.521 372.596C337.817 372.812 338.245 372.92 338.805 372.92ZM338.805 369.116C339.277 369.116 339.645 369.004 339.909 368.78C340.181 368.556 340.317 368.248 340.317 367.856C340.317 367.472 340.181 367.172 339.909 366.956C339.645 366.732 339.277 366.62 338.805 366.62C338.333 366.62 337.965 366.732 337.701 366.956C337.437 367.172 337.305 367.476 337.305 367.868C337.305 368.252 337.437 368.556 337.701 368.78C337.965 369.004 338.333 369.116 338.805 369.116ZM346.559 374V365.54H352.091V366.764H348.095V369.152H351.839V370.376H348.095V374H346.559ZM353.297 374V365.54H358.925V366.764H354.773V369.092H358.661V370.316H354.773V372.776H358.925V374H353.297ZM360.457 374V365.54H364.153C365.041 365.54 365.729 365.736 366.217 366.128C366.705 366.512 366.949 367.048 366.949 367.736C366.949 368.248 366.801 368.68 366.505 369.032C366.209 369.384 365.805 369.62 365.293 369.74V369.56C365.685 369.616 366.021 369.736 366.301 369.92C366.581 370.104 366.793 370.34 366.937 370.628C367.089 370.916 367.165 371.252 367.165 371.636C367.165 372.132 367.049 372.56 366.817 372.92C366.593 373.272 366.265 373.54 365.833 373.724C365.401 373.908 364.885 374 364.285 374H360.457ZM361.933 372.836H364.093C364.309 372.836 364.501 372.82 364.669 372.788C364.845 372.756 364.993 372.708 365.113 372.644C365.241 372.572 365.345 372.484 365.425 372.38C365.513 372.276 365.577 372.156 365.617 372.02C365.657 371.884 365.677 371.732 365.677 371.564C365.677 371.388 365.657 371.232 365.617 371.096C365.577 370.96 365.513 370.844 365.425 370.748C365.345 370.644 365.241 370.56 365.113 370.496C364.993 370.424 364.845 370.372 364.669 370.34C364.501 370.308 364.309 370.292 364.093 370.292H361.933V372.836ZM361.933 369.128H363.889C364.417 369.128 364.809 369.028 365.065 368.828C365.329 368.62 365.461 368.316 365.461 367.916C365.461 367.516 365.329 367.216 365.065 367.016C364.809 366.808 364.417 366.704 363.889 366.704H361.933V369.128Z" fill="#808283"/>
<rect x="451.5" y="350" width="1" height="8" fill="white" fill-opacity="0.16"/>
<path d="M433.415 374V372.728H435.323V366.836H436.067L433.847 368.18L433.247 367.052L435.767 365.54H436.859V372.728H438.647V374H433.415ZM442.975 374.12C442.607 374.12 442.243 374.08 441.883 374C441.531 373.92 441.199 373.808 440.887 373.664C440.583 373.52 440.319 373.352 440.095 373.16L440.599 371.984C440.967 372.264 441.347 372.476 441.739 372.62C442.131 372.756 442.535 372.824 442.951 372.824C443.455 372.824 443.847 372.696 444.127 372.44C444.415 372.176 444.559 371.824 444.559 371.384C444.559 370.936 444.423 370.576 444.151 370.304C443.879 370.024 443.507 369.884 443.035 369.884C442.691 369.884 442.383 369.952 442.111 370.088C441.839 370.216 441.591 370.416 441.367 370.688H440.335V365.54H445.531V366.812H441.835V369.5H441.439C441.647 369.22 441.919 369.004 442.255 368.852C442.599 368.7 442.979 368.624 443.395 368.624C443.931 368.624 444.395 368.74 444.787 368.972C445.187 369.196 445.495 369.512 445.711 369.92C445.935 370.32 446.047 370.788 446.047 371.324C446.047 371.876 445.923 372.364 445.675 372.788C445.427 373.204 445.071 373.532 444.607 373.772C444.151 374.004 443.607 374.12 442.975 374.12ZM450.656 374V365.54H456.188V366.764H452.192V369.152H455.936V370.376H452.192V374H450.656ZM457.395 374V365.54H463.023V366.764H458.871V369.092H462.759V370.316H458.871V372.776H463.023V374H457.395ZM464.555 374V365.54H468.251C469.139 365.54 469.827 365.736 470.315 366.128C470.803 366.512 471.047 367.048 471.047 367.736C471.047 368.248 470.899 368.68 470.603 369.032C470.307 369.384 469.903 369.62 469.391 369.74V369.56C469.783 369.616 470.119 369.736 470.399 369.92C470.679 370.104 470.891 370.34 471.035 370.628C471.187 370.916 471.263 371.252 471.263 371.636C471.263 372.132 471.147 372.56 470.915 372.92C470.691 373.272 470.363 373.54 469.931 373.724C469.499 373.908 468.983 374 468.383 374H464.555ZM466.031 372.836H468.191C468.407 372.836 468.599 372.82 468.767 372.788C468.943 372.756 469.091 372.708 469.211 372.644C469.339 372.572 469.443 372.484 469.523 372.38C469.611 372.276 469.675 372.156 469.715 372.02C469.755 371.884 469.775 371.732 469.775 371.564C469.775 371.388 469.755 371.232 469.715 371.096C469.675 370.96 469.611 370.844 469.523 370.748C469.443 370.644 469.339 370.56 469.211 370.496C469.091 370.424 468.943 370.372 468.767 370.34C468.599 370.308 468.407 370.292 468.191 370.292H466.031V372.836ZM466.031 369.128H467.987C468.515 369.128 468.907 369.028 469.163 368.828C469.427 368.62 469.559 368.316 469.559 367.916C469.559 367.516 469.427 367.216 469.163 367.016C468.907 366.808 468.515 366.704 467.987 366.704H466.031V369.128Z" fill="#808283"/>
<rect x="555.5" y="350" width="1" height="8" fill="white" fill-opacity="0.16"/>
<path d="M537.067 374V372.86L539.803 369.944C540.051 369.68 540.247 369.436 540.391 369.212C540.543 368.988 540.655 368.772 540.727 368.564C540.799 368.356 540.835 368.148 540.835 367.94C540.835 367.54 540.707 367.236 540.451 367.028C540.203 366.82 539.839 366.716 539.359 366.716C538.983 366.716 538.615 366.788 538.255 366.932C537.903 367.068 537.563 367.284 537.235 367.58L536.719 366.428C537.055 366.124 537.475 365.88 537.979 365.696C538.483 365.512 539.007 365.42 539.551 365.42C540.159 365.42 540.671 365.512 541.087 365.696C541.503 365.88 541.819 366.148 542.035 366.5C542.251 366.852 542.359 367.28 542.359 367.784C542.359 368.04 542.327 368.292 542.263 368.54C542.207 368.78 542.115 369.02 541.987 369.26C541.867 369.5 541.711 369.748 541.519 370.004C541.335 370.252 541.111 370.512 540.847 370.784L538.591 373.136V372.728H542.683V374H537.067ZM544.263 374V372.86L546.999 369.944C547.247 369.68 547.443 369.436 547.587 369.212C547.739 368.988 547.851 368.772 547.923 368.564C547.995 368.356 548.031 368.148 548.031 367.94C548.031 367.54 547.903 367.236 547.647 367.028C547.399 366.82 547.035 366.716 546.555 366.716C546.179 366.716 545.811 366.788 545.451 366.932C545.099 367.068 544.759 367.284 544.431 367.58L543.915 366.428C544.251 366.124 544.671 365.88 545.175 365.696C545.679 365.512 546.203 365.42 546.747 365.42C547.355 365.42 547.867 365.512 548.283 365.696C548.699 365.88 549.015 366.148 549.231 366.5C549.447 366.852 549.555 367.28 549.555 367.784C549.555 368.04 549.523 368.292 549.459 368.54C549.403 368.78 549.311 369.02 549.183 369.26C549.063 369.5 548.907 369.748 548.715 370.004C548.531 370.252 548.307 370.512 548.043 370.784L545.787 373.136V372.728H549.879V374H544.263ZM554.656 374V365.54H560.188V366.764H556.192V369.152H559.936V370.376H556.192V374H554.656ZM561.395 374V365.54H567.023V366.764H562.871V369.092H566.759V370.316H562.871V372.776H567.023V374H561.395ZM568.555 374V365.54H572.251C573.139 365.54 573.827 365.736 574.315 366.128C574.803 366.512 575.047 367.048 575.047 367.736C575.047 368.248 574.899 368.68 574.603 369.032C574.307 369.384 573.903 369.62 573.391 369.74V369.56C573.783 369.616 574.119 369.736 574.399 369.92C574.679 370.104 574.891 370.34 575.035 370.628C575.187 370.916 575.263 371.252 575.263 371.636C575.263 372.132 575.147 372.56 574.915 372.92C574.691 373.272 574.363 373.54 573.931 373.724C573.499 373.908 572.983 374 572.383 374H568.555ZM570.031 372.836H572.191C572.407 372.836 572.599 372.82 572.767 372.788C572.943 372.756 573.091 372.708 573.211 372.644C573.339 372.572 573.443 372.484 573.523 372.38C573.611 372.276 573.675 372.156 573.715 372.02C573.755 371.884 573.775 371.732 573.775 371.564C573.775 371.388 573.755 371.232 573.715 371.096C573.675 370.96 573.611 370.844 573.523 370.748C573.443 370.644 573.339 370.56 573.211 370.496C573.091 370.424 572.943 370.372 572.767 370.34C572.599 370.308 572.407 370.292 572.191 370.292H570.031V372.836ZM570.031 369.128H571.987C572.515 369.128 572.907 369.028 573.163 368.828C573.427 368.62 573.559 368.316 573.559 367.916C573.559 367.516 573.427 367.216 573.163 367.016C572.907 366.808 572.515 366.704 571.987 366.704H570.031V369.128Z" fill="#808283"/>
<path d="M627.874 354.38V352.808L628.15 353.072C627.566 353.056 627.014 352.968 626.494 352.808C625.982 352.64 625.538 352.408 625.162 352.112L625.63 350.9C625.878 351.084 626.142 351.244 626.422 351.38C626.71 351.508 627.01 351.608 627.322 351.68C627.642 351.744 627.982 351.776 628.342 351.776C628.926 351.776 629.354 351.672 629.626 351.464C629.898 351.256 630.034 350.996 630.034 350.684C630.034 350.404 629.942 350.18 629.758 350.012C629.574 349.844 629.246 349.708 628.774 349.604L627.502 349.328C626.782 349.168 626.238 348.904 625.87 348.536C625.51 348.16 625.33 347.664 625.33 347.048C625.33 346.576 625.446 346.156 625.678 345.788C625.91 345.412 626.234 345.112 626.65 344.888C627.066 344.664 627.554 344.532 628.114 344.492L627.874 344.672V343.16H629.074V344.672L628.822 344.48C629.278 344.504 629.726 344.596 630.166 344.756C630.614 344.916 630.986 345.148 631.282 345.452L630.826 346.604C630.522 346.324 630.174 346.116 629.782 345.98C629.39 345.836 628.962 345.764 628.498 345.764C628.002 345.764 627.602 345.88 627.298 346.112C627.002 346.336 626.854 346.632 626.854 347C626.854 347.272 626.946 347.492 627.13 347.66C627.314 347.828 627.61 347.956 628.018 348.044L629.29 348.32C630.058 348.488 630.626 348.756 630.994 349.124C631.37 349.484 631.558 349.964 631.558 350.564C631.558 351.028 631.442 351.44 631.21 351.8C630.978 352.152 630.658 352.436 630.25 352.652C629.85 352.86 629.382 352.992 628.846 353.048L629.074 352.796V354.38H627.874ZM632.765 350.384V349.184H636.341V350.384H632.765ZM638.46 353V351.728H640.368V345.836H641.112L638.892 347.18L638.292 346.052L640.812 344.54H641.904V351.728H643.692V353H638.46ZM647.948 353.12C647.284 353.12 646.72 352.952 646.256 352.616C645.8 352.272 645.452 351.776 645.212 351.128C644.98 350.48 644.864 349.688 644.864 348.752C644.864 347.808 644.98 347.016 645.212 346.376C645.452 345.728 645.8 345.24 646.256 344.912C646.72 344.584 647.284 344.42 647.948 344.42C648.62 344.42 649.184 344.584 649.64 344.912C650.104 345.24 650.452 345.724 650.684 346.364C650.916 347.004 651.032 347.796 651.032 348.74C651.032 349.676 650.912 350.472 650.672 351.128C650.44 351.776 650.096 352.272 649.64 352.616C649.184 352.952 648.62 353.12 647.948 353.12ZM647.948 351.86C648.492 351.86 648.892 351.612 649.148 351.116C649.412 350.612 649.544 349.82 649.544 348.74C649.544 347.668 649.412 346.892 649.148 346.412C648.892 345.924 648.492 345.68 647.948 345.68C647.412 345.68 647.012 345.924 646.748 346.412C646.484 346.892 646.352 347.672 646.352 348.752C646.352 349.824 646.484 350.612 646.748 351.116C647.012 351.612 647.412 351.86 647.948 351.86ZM655.143 353.12C654.479 353.12 653.915 352.952 653.451 352.616C652.995 352.272 652.647 351.776 652.407 351.128C652.175 350.48 652.059 349.688 652.059 348.752C652.059 347.808 652.175 347.016 652.407 346.376C652.647 345.728 652.995 345.24 653.451 344.912C653.915 344.584 654.479 344.42 655.143 344.42C655.815 344.42 656.379 344.584 656.835 344.912C657.299 345.24 657.647 345.724 657.879 346.364C658.111 347.004 658.227 347.796 658.227 348.74C658.227 349.676 658.107 350.472 657.867 351.128C657.635 351.776 657.291 352.272 656.835 352.616C656.379 352.952 655.815 353.12 655.143 353.12ZM655.143 351.86C655.687 351.86 656.087 351.612 656.343 351.116C656.607 350.612 656.739 349.82 656.739 348.74C656.739 347.668 656.607 346.892 656.343 346.412C656.087 345.924 655.687 345.68 655.143 345.68C654.607 345.68 654.207 345.924 653.943 346.412C653.679 346.892 653.547 347.672 653.547 348.752C653.547 349.824 653.679 350.612 653.943 351.116C654.207 351.612 654.607 351.86 655.143 351.86ZM659.662 353V344.54H663.358C664.246 344.54 664.934 344.736 665.422 345.128C665.91 345.512 666.154 346.048 666.154 346.736C666.154 347.248 666.006 347.68 665.71 348.032C665.414 348.384 665.01 348.62 664.498 348.74V348.56C664.89 348.616 665.226 348.736 665.506 348.92C665.786 349.104 665.998 349.34 666.142 349.628C666.294 349.916 666.37 350.252 666.37 350.636C666.37 351.132 666.254 351.56 666.022 351.92C665.798 352.272 665.47 352.54 665.038 352.724C664.606 352.908 664.09 353 663.49 353H659.662ZM661.138 351.836H663.298C663.514 351.836 663.706 351.82 663.874 351.788C664.05 351.756 664.198 351.708 664.318 351.644C664.446 351.572 664.55 351.484 664.63 351.38C664.718 351.276 664.782 351.156 664.822 351.02C664.862 350.884 664.882 350.732 664.882 350.564C664.882 350.388 664.862 350.232 664.822 350.096C664.782 349.96 664.718 349.844 664.63 349.748C664.55 349.644 664.446 349.56 664.318 349.496C664.198 349.424 664.05 349.372 663.874 349.34C663.706 349.308 663.514 349.292 663.298 349.292H661.138V351.836ZM661.138 348.128H663.094C663.622 348.128 664.014 348.028 664.27 347.828C664.534 347.62 664.666 347.316 664.666 346.916C664.666 346.516 664.534 346.216 664.27 346.016C664.014 345.808 663.622 345.704 663.094 345.704H661.138V348.128Z" fill="#808283"/>
<path d="M655.729 214.38V212.808L656.005 213.072C655.421 213.056 654.869 212.968 654.349 212.808C653.837 212.64 653.393 212.408 653.017 212.112L653.485 210.9C653.733 211.084 653.997 211.244 654.277 211.38C654.565 211.508 654.865 211.608 655.177 211.68C655.497 211.744 655.837 211.776 656.197 211.776C656.781 211.776 657.209 211.672 657.481 211.464C657.753 211.256 657.889 210.996 657.889 210.684C657.889 210.404 657.797 210.18 657.613 210.012C657.429 209.844 657.101 209.708 656.629 209.604L655.357 209.328C654.637 209.168 654.093 208.904 653.725 208.536C653.365 208.16 653.185 207.664 653.185 207.048C653.185 206.576 653.301 206.156 653.533 205.788C653.765 205.412 654.089 205.112 654.505 204.888C654.921 204.664 655.409 204.532 655.969 204.492L655.729 204.672V203.16H656.929V204.672L656.677 204.48C657.133 204.504 657.581 204.596 658.021 204.756C658.469 204.916 658.841 205.148 659.137 205.452L658.681 206.604C658.377 206.324 658.029 206.116 657.637 205.98C657.245 205.836 656.817 205.764 656.353 205.764C655.857 205.764 655.457 205.88 655.153 206.112C654.857 206.336 654.709 206.632 654.709 207C654.709 207.272 654.801 207.492 654.985 207.66C655.169 207.828 655.465 207.956 655.873 208.044L657.145 208.32C657.913 208.488 658.481 208.756 658.849 209.124C659.225 209.484 659.413 209.964 659.413 210.564C659.413 211.028 659.297 211.44 659.065 211.8C658.833 212.152 658.513 212.436 658.105 212.652C657.705 212.86 657.237 212.992 656.701 213.048L656.929 212.796V214.38H655.729ZM663.405 213.12C662.741 213.12 662.177 212.952 661.713 212.616C661.257 212.272 660.909 211.776 660.669 211.128C660.437 210.48 660.321 209.688 660.321 208.752C660.321 207.808 660.437 207.016 660.669 206.376C660.909 205.728 661.257 205.24 661.713 204.912C662.177 204.584 662.741 204.42 663.405 204.42C664.077 204.42 664.641 204.584 665.097 204.912C665.561 205.24 665.909 205.724 666.141 206.364C666.373 207.004 666.489 207.796 666.489 208.74C666.489 209.676 666.369 210.472 666.129 211.128C665.897 211.776 665.553 212.272 665.097 212.616C664.641 212.952 664.077 213.12 663.405 213.12ZM663.405 211.86C663.949 211.86 664.349 211.612 664.605 211.116C664.869 210.612 665.001 209.82 665.001 208.74C665.001 207.668 664.869 206.892 664.605 206.412C664.349 205.924 663.949 205.68 663.405 205.68C662.869 205.68 662.469 205.924 662.205 206.412C661.941 206.892 661.809 207.672 661.809 208.752C661.809 209.824 661.941 210.612 662.205 211.116C662.469 211.612 662.869 211.86 663.405 211.86Z" fill="#808283"/>
<path d="M633.077 74.38V72.808L633.353 73.072C632.769 73.056 632.217 72.968 631.697 72.808C631.185 72.64 630.741 72.408 630.365 72.112L630.833 70.9C631.081 71.084 631.345 71.244 631.625 71.38C631.913 71.508 632.213 71.608 632.525 71.68C632.845 71.744 633.185 71.776 633.545 71.776C634.129 71.776 634.557 71.672 634.829 71.464C635.101 71.256 635.237 70.996 635.237 70.684C635.237 70.404 635.145 70.18 634.961 70.012C634.777 69.844 634.449 69.708 633.977 69.604L632.705 69.328C631.985 69.168 631.441 68.904 631.073 68.536C630.713 68.16 630.533 67.664 630.533 67.048C630.533 66.576 630.649 66.156 630.881 65.788C631.113 65.412 631.437 65.112 631.853 64.888C632.269 64.664 632.757 64.532 633.317 64.492L633.077 64.672V63.16H634.277V64.672L634.025 64.48C634.481 64.504 634.929 64.596 635.369 64.756C635.817 64.916 636.189 65.148 636.485 65.452L636.029 66.604C635.725 66.324 635.377 66.116 634.985 65.98C634.593 65.836 634.165 65.764 633.701 65.764C633.205 65.764 632.805 65.88 632.501 66.112C632.205 66.336 632.057 66.632 632.057 67C632.057 67.272 632.149 67.492 632.333 67.66C632.517 67.828 632.813 67.956 633.221 68.044L634.493 68.32C635.261 68.488 635.829 68.756 636.197 69.124C636.573 69.484 636.761 69.964 636.761 70.564C636.761 71.028 636.645 71.44 636.413 71.8C636.181 72.152 635.861 72.436 635.453 72.652C635.053 72.86 634.585 72.992 634.049 73.048L634.277 72.796V74.38H633.077ZM638.46 73V71.728H640.368V65.836H641.112L638.892 67.18L638.292 66.052L640.812 64.54H641.904V71.728H643.692V73H638.46ZM647.948 73.12C647.284 73.12 646.72 72.952 646.256 72.616C645.8 72.272 645.452 71.776 645.212 71.128C644.98 70.48 644.864 69.688 644.864 68.752C644.864 67.808 644.98 67.016 645.212 66.376C645.452 65.728 645.8 65.24 646.256 64.912C646.72 64.584 647.284 64.42 647.948 64.42C648.62 64.42 649.184 64.584 649.64 64.912C650.104 65.24 650.452 65.724 650.684 66.364C650.916 67.004 651.032 67.796 651.032 68.74C651.032 69.676 650.912 70.472 650.672 71.128C650.44 71.776 650.096 72.272 649.64 72.616C649.184 72.952 648.62 73.12 647.948 73.12ZM647.948 71.86C648.492 71.86 648.892 71.612 649.148 71.116C649.412 70.612 649.544 69.82 649.544 68.74C649.544 67.668 649.412 66.892 649.148 66.412C648.892 65.924 648.492 65.68 647.948 65.68C647.412 65.68 647.012 65.924 646.748 66.412C646.484 66.892 646.352 67.672 646.352 68.752C646.352 69.824 646.484 70.612 646.748 71.116C647.012 71.612 647.412 71.86 647.948 71.86ZM655.143 73.12C654.479 73.12 653.915 72.952 653.451 72.616C652.995 72.272 652.647 71.776 652.407 71.128C652.175 70.48 652.059 69.688 652.059 68.752C652.059 67.808 652.175 67.016 652.407 66.376C652.647 65.728 652.995 65.24 653.451 64.912C653.915 64.584 654.479 64.42 655.143 64.42C655.815 64.42 656.379 64.584 656.835 64.912C657.299 65.24 657.647 65.724 657.879 66.364C658.111 67.004 658.227 67.796 658.227 68.74C658.227 69.676 658.107 70.472 657.867 71.128C657.635 71.776 657.291 72.272 656.835 72.616C656.379 72.952 655.815 73.12 655.143 73.12ZM655.143 71.86C655.687 71.86 656.087 71.612 656.343 71.116C656.607 70.612 656.739 69.82 656.739 68.74C656.739 67.668 656.607 66.892 656.343 66.412C656.087 65.924 655.687 65.68 655.143 65.68C654.607 65.68 654.207 65.924 653.943 66.412C653.679 66.892 653.547 67.672 653.547 68.752C653.547 69.824 653.679 70.612 653.943 71.116C654.207 71.612 654.607 71.86 655.143 71.86ZM659.662 73V64.54H663.358C664.246 64.54 664.934 64.736 665.422 65.128C665.91 65.512 666.154 66.048 666.154 66.736C666.154 67.248 666.006 67.68 665.71 68.032C665.414 68.384 665.01 68.62 664.498 68.74V68.56C664.89 68.616 665.226 68.736 665.506 68.92C665.786 69.104 665.998 69.34 666.142 69.628C666.294 69.916 666.37 70.252 666.37 70.636C666.37 71.132 666.254 71.56 666.022 71.92C665.798 72.272 665.47 72.54 665.038 72.724C664.606 72.908 664.09 73 663.49 73H659.662ZM661.138 71.836H663.298C663.514 71.836 663.706 71.82 663.874 71.788C664.05 71.756 664.198 71.708 664.318 71.644C664.446 71.572 664.55 71.484 664.63 71.38C664.718 71.276 664.782 71.156 664.822 71.02C664.862 70.884 664.882 70.732 664.882 70.564C664.882 70.388 664.862 70.232 664.822 70.096C664.782 69.96 664.718 69.844 664.63 69.748C664.55 69.644 664.446 69.56 664.318 69.496C664.198 69.424 664.05 69.372 663.874 69.34C663.706 69.308 663.514 69.292 663.298 69.292H661.138V71.836ZM661.138 68.128H663.094C663.622 68.128 664.014 68.028 664.27 67.828C664.534 67.62 664.666 67.316 664.666 66.916C664.666 66.516 664.534 66.216 664.27 66.016C664.014 65.808 663.622 65.704 663.094 65.704H661.138V68.128Z" fill="#808283"/>
<circle cx="6" cy="8" r="3" fill="#FFA800"/>
<path d="M17.964 12V4.824H15.06V3.54H22.404V4.824H19.5V12H17.964ZM26.6535 12.12C26.0375 12.12 25.4775 12.02 24.9735 11.82C24.4775 11.612 24.0495 11.316 23.6895 10.932C23.3375 10.548 23.0655 10.088 22.8735 9.552C22.6815 9.016 22.5855 8.42 22.5855 7.764C22.5855 7.1 22.6815 6.504 22.8735 5.976C23.0655 5.44 23.3375 4.984 23.6895 4.608C24.0495 4.224 24.4775 3.932 24.9735 3.732C25.4775 3.524 26.0375 3.42 26.6535 3.42C27.2695 3.42 27.8255 3.524 28.3215 3.732C28.8255 3.932 29.2535 4.22 29.6055 4.596C29.9655 4.972 30.2415 5.428 30.4335 5.964C30.6255 6.492 30.7215 7.088 30.7215 7.752C30.7215 8.416 30.6255 9.016 30.4335 9.552C30.2415 10.088 29.9655 10.548 29.6055 10.932C29.2535 11.316 28.8255 11.612 28.3215 11.82C27.8255 12.02 27.2695 12.12 26.6535 12.12ZM26.6535 10.8C27.1735 10.8 27.6135 10.68 27.9735 10.44C28.3415 10.2 28.6215 9.852 28.8135 9.396C29.0135 8.94 29.1135 8.396 29.1135 7.764C29.1135 7.124 29.0175 6.58 28.8255 6.132C28.6335 5.676 28.3535 5.332 27.9855 5.1C27.6175 4.86 27.1735 4.74 26.6535 4.74C26.1415 4.74 25.7015 4.86 25.3335 5.1C24.9655 5.332 24.6815 5.676 24.4815 6.132C24.2895 6.58 24.1935 7.124 24.1935 7.764C24.1935 8.396 24.2895 8.94 24.4815 9.396C24.6815 9.852 24.9655 10.2 25.3335 10.44C25.7015 10.68 26.1415 10.8 26.6535 10.8ZM33.8078 12V4.824H30.9038V3.54H38.2478V4.824H35.3438V12H33.8078ZM37.3714 12L41.1994 3.54H42.4594L46.2874 12H44.7274L43.7074 9.624L44.3554 10.044H39.2914L39.9394 9.624L38.9314 12H37.3714ZM41.8114 5.208L40.1314 9.204L39.8194 8.82H43.8274L43.5274 9.204L41.8354 5.208H41.8114ZM47.2131 12V3.54H48.7491V10.692H52.8051V12H47.2131ZM57.1857 12V3.54H58.3377L63.1977 9.852H62.8857V3.54H64.3137V12H63.1737L58.3137 5.676H58.6137V12H57.1857ZM66.1623 12V3.54H71.7903V4.764H67.6383V7.092H71.5263V8.316H67.6383V10.776H71.7903V12H66.1623ZM75.3038 12V4.824H72.3998V3.54H79.7438V4.824H76.8398V12H75.3038ZM87.8873 12.12C87.0073 12.12 86.2513 11.944 85.6193 11.592C84.9953 11.232 84.5153 10.728 84.1793 10.08C83.8433 9.424 83.6753 8.652 83.6753 7.764C83.6753 6.876 83.8433 6.108 84.1793 5.46C84.5153 4.812 84.9953 4.312 85.6193 3.96C86.2513 3.6 87.0073 3.42 87.8873 3.42C88.4553 3.42 88.9913 3.508 89.4953 3.684C90.0073 3.86 90.4273 4.112 90.7553 4.44L90.2513 5.664C89.8913 5.36 89.5233 5.14 89.1473 5.004C88.7713 4.86 88.3673 4.788 87.9353 4.788C87.0793 4.788 86.4273 5.048 85.9793 5.568C85.5313 6.08 85.3073 6.812 85.3073 7.764C85.3073 8.716 85.5313 9.452 85.9793 9.972C86.4273 10.492 87.0793 10.752 87.9353 10.752C88.3673 10.752 88.7713 10.684 89.1473 10.548C89.5233 10.404 89.8913 10.18 90.2513 9.876L90.7553 11.1C90.4273 11.42 90.0073 11.672 89.4953 11.856C88.9913 12.032 88.4553 12.12 87.8873 12.12ZM91.0081 12L94.8361 3.54H96.0961L99.9241 12H98.3641L97.3441 9.624L97.9921 10.044H92.9281L93.5761 9.624L92.5681 12H91.0081ZM95.4481 5.208L93.7681 9.204L93.4561 8.82H97.4641L97.1641 9.204L95.4721 5.208H95.4481ZM103.672 12.12C103.232 12.12 102.808 12.08 102.4 12C102 11.928 101.628 11.82 101.284 11.676C100.948 11.532 100.648 11.36 100.384 11.16L100.852 9.948C101.116 10.132 101.392 10.292 101.68 10.428C101.976 10.556 102.288 10.656 102.616 10.728C102.952 10.792 103.304 10.824 103.672 10.824C104.304 10.824 104.764 10.72 105.052 10.512C105.34 10.296 105.484 10.02 105.484 9.684C105.484 9.5 105.44 9.344 105.352 9.216C105.264 9.08 105.12 8.964 104.92 8.868C104.72 8.772 104.456 8.692 104.128 8.628L102.808 8.352C102.048 8.192 101.48 7.924 101.104 7.548C100.736 7.164 100.552 6.66 100.552 6.036C100.552 5.508 100.692 5.048 100.972 4.656C101.252 4.264 101.64 3.96 102.136 3.744C102.632 3.528 103.204 3.42 103.852 3.42C104.236 3.42 104.604 3.46 104.956 3.54C105.316 3.612 105.644 3.724 105.94 3.876C106.244 4.02 106.508 4.196 106.732 4.404L106.264 5.556C105.928 5.276 105.56 5.068 105.16 4.932C104.76 4.788 104.32 4.716 103.84 4.716C103.472 4.716 103.156 4.768 102.892 4.872C102.628 4.976 102.424 5.124 102.28 5.316C102.144 5.5 102.076 5.72 102.076 5.976C102.076 6.264 102.172 6.496 102.364 6.672C102.556 6.84 102.884 6.972 103.348 7.068L104.656 7.344C105.448 7.512 106.036 7.776 106.42 8.136C106.812 8.496 107.008 8.976 107.008 9.576C107.008 10.08 106.872 10.524 106.6 10.908C106.328 11.292 105.94 11.592 105.436 11.808C104.94 12.016 104.352 12.12 103.672 12.12ZM108.326 12V3.54H109.862V7.068H114.218V3.54H115.754V12H114.218V8.352H109.862V12H108.326ZM120.842 12V3.54H126.374V4.764H122.378V7.152H126.122V8.376H122.378V12H120.842ZM127.58 12V3.54H129.116V10.692H133.172V12H127.58ZM137.654 12.12C137.038 12.12 136.478 12.02 135.974 11.82C135.478 11.612 135.05 11.316 134.69 10.932C134.338 10.548 134.066 10.088 133.874 9.552C133.682 9.016 133.586 8.42 133.586 7.764C133.586 7.1 133.682 6.504 133.874 5.976C134.066 5.44 134.338 4.984 134.69 4.608C135.05 4.224 135.478 3.932 135.974 3.732C136.478 3.524 137.038 3.42 137.654 3.42C138.27 3.42 138.826 3.524 139.322 3.732C139.826 3.932 140.254 4.22 140.606 4.596C140.966 4.972 141.242 5.428 141.434 5.964C141.626 6.492 141.722 7.088 141.722 7.752C141.722 8.416 141.626 9.016 141.434 9.552C141.242 10.088 140.966 10.548 140.606 10.932C140.254 11.316 139.826 11.612 139.322 11.82C138.826 12.02 138.27 12.12 137.654 12.12ZM137.654 10.8C138.174 10.8 138.614 10.68 138.974 10.44C139.342 10.2 139.622 9.852 139.814 9.396C140.014 8.94 140.114 8.396 140.114 7.764C140.114 7.124 140.018 6.58 139.826 6.132C139.634 5.676 139.354 5.332 138.986 5.1C138.618 4.86 138.174 4.74 137.654 4.74C137.142 4.74 136.702 4.86 136.334 5.1C135.966 5.332 135.682 5.676 135.482 6.132C135.29 6.58 135.194 7.124 135.194 7.764C135.194 8.396 135.29 8.94 135.482 9.396C135.682 9.852 135.966 10.2 136.334 10.44C136.702 10.68 137.142 10.8 137.654 10.8ZM145.4 12L142.412 3.54H143.996L146.336 10.476H145.856L148.304 3.54H149.444L151.808 10.476H151.388L153.764 3.54H155.264L152.252 12H150.98L148.7 5.496H148.976L146.672 12H145.4Z" fill="#808283"/>
<defs>
<filter id="filter0_d_24_139" x="0.628487" y="97.4631" width="615.565" height="196.65" filterUnits="userSpaceOnUse" color-interpolation-filters="sRGB">
<feFlood flood-opacity="0" result="BackgroundImageFix"/>
<feColorMatrix in="SourceAlpha" type="matrix" values="0 0 0 0 0 0 0 0 0 0 0 0 0 0 0 0 0 0 127 0" result="hardAlpha"/>
<feOffset/>
<feGaussianBlur stdDeviation="4"/>
<feComposite in2="hardAlpha" operator="out"/>
<feColorMatrix type="matrix" values="0 0 0 0 0.447059 0 0 0 0 0.458824 0 0 0 0 0.490196 0 0 0 0.24 0"/>
<feBlend mode="normal" in2="BackgroundImageFix" result="effect1_dropShadow_24_139"/>
<feBlend mode="normal" in="SourceGraphic" in2="effect1_dropShadow_24_139" result="shape"/>
</filter>
<linearGradient id="paint0_linear_24_139" x1="15" y1="197" x2="15" y2="71" gradientUnits="userSpaceOnUse">
<stop stop-color="#181A20"/>
<stop offset="1" stop-color="#FFA800"/>
</linearGradient>
<linearGradient id="paint1_linear_24_139" x1="47" y1="197" x2="47" y2="154" gradientUnits="userSpaceOnUse">
<stop stop-color="#181A20"/>
<stop offset="1" stop-color="#FFA800"/>
</linearGradient>
<linearGradient id="paint2_linear_24_139" x1="79" y1="197" x2="79" y2="158" gradientUnits="userSpaceOnUse">
<stop stop-color="#181A20"/>
<stop offset="1" stop-color="#FFA800"/>
</linearGradient>
<linearGradient id="paint3_linear_24_139" x1="111.4" y1="197" x2="111.4" y2="102" gradientUnits="userSpaceOnUse">
<stop stop-color="#181A20"/>
<stop offset="1" stop-color="#FFA800"/>
</linearGradient>
<linearGradient id="paint4_linear_24_139" x1="175.8" y1="197" x2="175.8" y2="189" gradientUnits="userSpaceOnUse">
<stop stop-color="#181A20"/>
<stop offset="1" stop-color="#FFA800"/>
</linearGradient>
<linearGradient id="paint5_linear_24_139" x1="207.8" y1="197" x2="207.8" y2="173" gradientUnits="userSpaceOnUse">
<stop stop-color="#181A20"/>
<stop offset="1" stop-color="#FFA800"/>
</linearGradient>
<linearGradient id="paint6_linear_24_139" x1="240.2" y1="197" x2="240.2" y2="78" gradientUnits="userSpaceOnUse">
<stop stop-color="#181A20"/>
<stop offset="1" stop-color="#FFA800"/>
</linearGradient>
<linearGradient id="paint7_linear_24_139" x1="273" y1="197" x2="273" y2="139" gradientUnits="userSpaceOnUse">
<stop stop-color="#181A20"/>
<stop offset="1" stop-color="#FFA800"/>
</linearGradient>
<linearGradient id="paint8_linear_24_139" x1="337" y1="197" x2="337" y2="131" gradientUnits="userSpaceOnUse">
<stop stop-color="#181A20"/>
<stop offset="1" stop-color="#FFA800"/>
</linearGradient>
<linearGradient id="paint9_linear_24_139" x1="369.8" y1="197" x2="369.8" y2="173" gradientUnits="userSpaceOnUse">
<stop stop-color="#181A20"/>
<stop offset="1" stop-color="#FFA800"/>
</linearGradient>
<linearGradient id="paint10_linear_24_139" x1="434.2" y1="197" x2="434.2" y2="154" gradientUnits="userSpaceOnUse">
<stop stop-color="#181A20"/>
<stop offset="1" stop-color="#FFA800"/>
</linearGradient>
<linearGradient id="paint11_linear_24_139" x1="595" y1="197" x2="595" y2="188" gradientUnits="userSpaceOnUse">
<stop stop-color="#181A20"/>
<stop offset="1" stop-color="#FFA800"/>
</linearGradient>
<linearGradient id="paint12_linear_24_139" x1="144.2" y1="199" x2="144.2" y2="294" gradientUnits="userSpaceOnUse">
<stop stop-color="#181A20"/>
<stop offset="1" stop-color="#FFA800"/>
</linearGradient>
<linearGradient id="paint13_linear_24_139" x1="305" y1="199" x2="305" y2="239" gradientUnits="userSpaceOnUse">
<stop stop-color="#181A20"/>
<stop offset="1" stop-color="#FFA800"/>
</linearGradient>
<linearGradient id="paint14_linear_24_139" x1="402.2" y1="199" x2="402.2" y2="217" gradientUnits="userSpaceOnUse">
<stop stop-color="#181A20"/>
<stop offset="1" stop-color="#FFA800"/>
</linearGradient>
<linearGradient id="paint15_linear_24_139" x1="465.8" y1="199" x2="465.8" y2="230" gradientUnits="userSpaceOnUse">
<stop stop-color="#181A20"/>
<stop offset="1" stop-color="#FFA800"/>
</linearGradient>
<linearGradient id="paint16_linear_24_139" x1="498.6" y1="199" x2="498.6" y2="212" gradientUnits="userSpaceOnUse">
<stop stop-color="#181A20"/>
<stop offset="1" stop-color="#FFA800"/>
</linearGradient>
<linearGradient id="paint17_linear_24_139" x1="531" y1="199" x2="531" y2="246" gradientUnits="userSpaceOnUse">
<stop stop-color="#181A20"/>
<stop offset="1" stop-color="#FFA800"/>
</linearGradient>
<linearGradient id="paint18_linear_24_139" x1="563" y1="200" x2="563" y2="226" gradientUnits="userSpaceOnUse">
<stop stop-color="#181A20"/>
<stop offset="1" stop-color="#FFA800"/>
</linearGradient>
</defs>
</svg>
