<svg width="14" height="12" viewBox="0 0 14 12" fill="none" xmlns="http://www.w3.org/2000/svg">
<path d="M4.12 11.42L2.89 10.7L9.07 0.0049994L10.285 0.724999L4.12 11.42ZM2.83 6.74C2.27 6.74 1.79 6.61 1.39 6.35C0.99 6.09 0.685 5.72 0.475 5.24C0.265 4.75 0.16 4.17 0.16 3.5C0.16 2.5 0.395 1.715 0.865 1.145C1.335 0.565 1.99 0.274999 2.83 0.274999C3.39 0.274999 3.87 0.405 4.27 0.665C4.67 0.924999 4.975 1.295 5.185 1.775C5.395 2.255 5.5 2.83 5.5 3.5C5.5 4.17 5.395 4.75 5.185 5.24C4.975 5.72 4.67 6.09 4.27 6.35C3.87 6.61 3.39 6.74 2.83 6.74ZM2.83 5.48C3.19 5.48 3.47 5.32 3.67 5C3.87 4.67 3.97 4.17 3.97 3.5C3.97 2.83 3.87 2.335 3.67 2.015C3.47 1.695 3.19 1.535 2.83 1.535C2.47 1.535 2.19 1.695 1.99 2.015C1.79 2.325 1.69 2.82 1.69 3.5C1.69 4.18 1.79 4.68 1.99 5C2.19 5.32 2.47 5.48 2.83 5.48ZM10.36 11.15C9.8 11.15 9.32 11.02 8.92 10.76C8.52 10.5 8.215 10.13 8.005 9.65C7.795 9.16 7.69 8.58 7.69 7.91C7.69 6.91 7.925 6.125 8.395 5.555C8.865 4.975 9.52 4.685 10.36 4.685C10.92 4.685 11.4 4.815 11.8 5.075C12.2 5.335 12.505 5.705 12.715 6.185C12.925 6.665 13.03 7.24 13.03 7.91C13.03 8.58 12.925 9.16 12.715 9.65C12.505 10.13 12.2 10.5 11.8 10.76C11.4 11.02 10.92 11.15 10.36 11.15ZM10.36 9.89C10.72 9.89 11 9.73 11.2 9.41C11.4 9.08 11.5 8.58 11.5 7.91C11.5 7.24 11.4 6.745 11.2 6.425C11 6.105 10.72 5.945 10.36 5.945C10 5.945 9.72 6.105 9.52 6.425C9.32 6.735 9.22 7.23 9.22 7.91C9.22 8.59 9.32 9.09 9.52 9.41C9.72 9.73 10 9.89 10.36 9.89Z" fill="#B0B0B0"/>
</svg>
