<svg width="247" height="134" viewBox="0 0 247 134" fill="none" xmlns="http://www.w3.org/2000/svg">
<rect x="0.75" y="0.5" width="245.75" height="133" rx="15.5" fill="#0C1014" fill-opacity="0.5"/>
<rect x="0.75" y="0.5" width="245.75" height="133" rx="15.5" stroke="#523A83"/>
<path d="M17.174 28V19.54H20.318C21.262 19.54 22.062 19.704 22.718 20.032C23.382 20.36 23.886 20.84 24.23 21.472C24.582 22.096 24.758 22.86 24.758 23.764C24.758 24.668 24.582 25.436 24.23 26.068C23.886 26.7 23.382 27.18 22.718 27.508C22.062 27.836 21.262 28 20.318 28H17.174ZM18.71 26.728H20.222C21.206 26.728 21.938 26.484 22.418 25.996C22.906 25.5 23.15 24.756 23.15 23.764C23.15 22.772 22.906 22.032 22.418 21.544C21.93 21.056 21.198 20.812 20.222 20.812H18.71V26.728ZM30.1066 28.12C29.4906 28.12 28.9306 28.02 28.4266 27.82C27.9306 27.612 27.5026 27.316 27.1426 26.932C26.7906 26.548 26.5186 26.088 26.3266 25.552C26.1346 25.016 26.0386 24.42 26.0386 23.764C26.0386 23.1 26.1346 22.504 26.3266 21.976C26.5186 21.44 26.7906 20.984 27.1426 20.608C27.5026 20.224 27.9306 19.932 28.4266 19.732C28.9306 19.524 29.4906 19.42 30.1066 19.42C30.7226 19.42 31.2786 19.524 31.7746 19.732C32.2786 19.932 32.7066 20.22 33.0586 20.596C33.4186 20.972 33.6946 21.428 33.8866 21.964C34.0786 22.492 34.1746 23.088 34.1746 23.752C34.1746 24.416 34.0786 25.016 33.8866 25.552C33.6946 26.088 33.4186 26.548 33.0586 26.932C32.7066 27.316 32.2786 27.612 31.7746 27.82C31.2786 28.02 30.7226 28.12 30.1066 28.12ZM30.1066 26.8C30.6266 26.8 31.0666 26.68 31.4266 26.44C31.7946 26.2 32.0746 25.852 32.2666 25.396C32.4666 24.94 32.5666 24.396 32.5666 23.764C32.5666 23.124 32.4706 22.58 32.2786 22.132C32.0866 21.676 31.8066 21.332 31.4386 21.1C31.0706 20.86 30.6266 20.74 30.1066 20.74C29.5946 20.74 29.1546 20.86 28.7866 21.1C28.4186 21.332 28.1346 21.676 27.9346 22.132C27.7426 22.58 27.6466 23.124 27.6466 23.764C27.6466 24.396 27.7426 24.94 27.9346 25.396C28.1346 25.852 28.4186 26.2 28.7866 26.44C29.1546 26.68 29.5946 26.8 30.1066 26.8ZM35.7365 28V19.54H36.8885L41.7485 25.852H41.4365V19.54H42.8645V28H41.7245L36.8645 21.676H37.1645V28H35.7365ZM43.8011 28L47.6291 19.54H48.8891L52.7171 28H51.1571L50.1371 25.624L50.7851 26.044H45.7211L46.3691 25.624L45.3611 28H43.8011ZM48.2411 21.208L46.5611 25.204L46.2491 24.82H50.2571L49.9571 25.204L48.2651 21.208H48.2411ZM54.7453 28V20.824H51.8413V19.54H59.1853V20.824H56.2813V28H54.7453ZM60.1584 28V19.54H61.6944V28H60.1584ZM67.3254 28.12C66.7094 28.12 66.1494 28.02 65.6454 27.82C65.1494 27.612 64.7214 27.316 64.3614 26.932C64.0094 26.548 63.7374 26.088 63.5454 25.552C63.3534 25.016 63.2574 24.42 63.2574 23.764C63.2574 23.1 63.3534 22.504 63.5454 21.976C63.7374 21.44 64.0094 20.984 64.3614 20.608C64.7214 20.224 65.1494 19.932 65.6454 19.732C66.1494 19.524 66.7094 19.42 67.3254 19.42C67.9414 19.42 68.4974 19.524 68.9934 19.732C69.4974 19.932 69.9254 20.22 70.2774 20.596C70.6374 20.972 70.9134 21.428 71.1054 21.964C71.2974 22.492 71.3934 23.088 71.3934 23.752C71.3934 24.416 71.2974 25.016 71.1054 25.552C70.9134 26.088 70.6374 26.548 70.2774 26.932C69.9254 27.316 69.4974 27.612 68.9934 27.82C68.4974 28.02 67.9414 28.12 67.3254 28.12ZM67.3254 26.8C67.8454 26.8 68.2854 26.68 68.6454 26.44C69.0134 26.2 69.2934 25.852 69.4854 25.396C69.6854 24.94 69.7854 24.396 69.7854 23.764C69.7854 23.124 69.6894 22.58 69.4974 22.132C69.3054 21.676 69.0254 21.332 68.6574 21.1C68.2894 20.86 67.8454 20.74 67.3254 20.74C66.8134 20.74 66.3734 20.86 66.0054 21.1C65.6374 21.332 65.3534 21.676 65.1534 22.132C64.9614 22.58 64.8654 23.124 64.8654 23.764C64.8654 24.396 64.9614 24.94 65.1534 25.396C65.3534 25.852 65.6374 26.2 66.0054 26.44C66.3734 26.68 66.8134 26.8 67.3254 26.8ZM72.9553 28V19.54H74.1073L78.9673 25.852H78.6553V19.54H80.0833V28H78.9433L74.0833 21.676H74.3833V28H72.9553ZM84.8478 28.12C84.4078 28.12 83.9838 28.08 83.5758 28C83.1758 27.928 82.8038 27.82 82.4598 27.676C82.1238 27.532 81.8238 27.36 81.5598 27.16L82.0278 25.948C82.2918 26.132 82.5678 26.292 82.8558 26.428C83.1518 26.556 83.4638 26.656 83.7918 26.728C84.1278 26.792 84.4798 26.824 84.8478 26.824C85.4798 26.824 85.9398 26.72 86.2278 26.512C86.5158 26.296 86.6598 26.02 86.6598 25.684C86.6598 25.5 86.6158 25.344 86.5278 25.216C86.4398 25.08 86.2958 24.964 86.0958 24.868C85.8958 24.772 85.6318 24.692 85.3038 24.628L83.9838 24.352C83.2238 24.192 82.6558 23.924 82.2798 23.548C81.9118 23.164 81.7278 22.66 81.7278 22.036C81.7278 21.508 81.8678 21.048 82.1478 20.656C82.4278 20.264 82.8158 19.96 83.3118 19.744C83.8078 19.528 84.3798 19.42 85.0278 19.42C85.4118 19.42 85.7798 19.46 86.1318 19.54C86.4918 19.612 86.8198 19.724 87.1158 19.876C87.4198 20.02 87.6838 20.196 87.9078 20.404L87.4398 21.556C87.1038 21.276 86.7358 21.068 86.3358 20.932C85.9358 20.788 85.4958 20.716 85.0158 20.716C84.6478 20.716 84.3318 20.768 84.0678 20.872C83.8038 20.976 83.5998 21.124 83.4558 21.316C83.3198 21.5 83.2518 21.72 83.2518 21.976C83.2518 22.264 83.3478 22.496 83.5398 22.672C83.7318 22.84 84.0598 22.972 84.5238 23.068L85.8318 23.344C86.6238 23.512 87.2118 23.776 87.5958 24.136C87.9878 24.496 88.1838 24.976 88.1838 25.576C88.1838 26.08 88.0478 26.524 87.7758 26.908C87.5038 27.292 87.1158 27.592 86.6118 27.808C86.1158 28.016 85.5278 28.12 84.8478 28.12Z" fill="#B0B0B0"/>
<path d="M22.346 55.04V50.168H17.594V48.056H22.346V43.328H24.554V48.056H29.306V50.168H24.554V55.04H22.346ZM33.2566 56V53.456H37.0726V41.672H38.5606L34.1206 44.36L32.9206 42.104L37.9606 39.08H40.1446V53.456H43.7206V56H33.2566ZM52.2313 56.24C50.2633 56.24 48.7193 55.816 47.5993 54.968C46.4953 54.12 45.9433 52.944 45.9433 51.44C45.9433 50.64 46.1033 49.936 46.4233 49.328C46.7593 48.704 47.2153 48.2 47.7913 47.816C48.3673 47.432 49.0233 47.192 49.7593 47.096V47.6C49.0873 47.456 48.4953 47.192 47.9833 46.808C47.4713 46.408 47.0713 45.92 46.7833 45.344C46.5113 44.752 46.3753 44.104 46.3753 43.4C46.3753 41.976 46.9033 40.864 47.9593 40.064C49.0153 39.248 50.4473 38.84 52.2553 38.84C54.0473 38.84 55.4713 39.248 56.5273 40.064C57.5833 40.864 58.1113 41.976 58.1113 43.4C58.1113 44.104 57.9673 44.752 57.6793 45.344C57.4073 45.936 57.0153 46.424 56.5033 46.808C56.0073 47.192 55.4233 47.448 54.7513 47.576V47.096C55.5033 47.192 56.1593 47.44 56.7193 47.84C57.2793 48.224 57.7193 48.728 58.0393 49.352C58.3593 49.96 58.5193 50.656 58.5193 51.44C58.5193 52.944 57.9593 54.12 56.8393 54.968C55.7353 55.816 54.1993 56.24 52.2313 56.24ZM52.2313 53.84C53.3673 53.84 54.2233 53.624 54.7993 53.192C55.3753 52.744 55.6633 52.088 55.6633 51.224C55.6633 50.36 55.3753 49.712 54.7993 49.28C54.2233 48.848 53.3673 48.632 52.2313 48.632C51.1113 48.632 50.2553 48.848 49.6633 49.28C49.0873 49.712 48.7993 50.36 48.7993 51.224C48.7993 52.088 49.0873 52.744 49.6633 53.192C50.2553 53.624 51.1113 53.84 52.2313 53.84ZM52.2313 46.232C53.1753 46.232 53.9113 46.008 54.4393 45.56C54.9833 45.112 55.2553 44.496 55.2553 43.712C55.2553 42.944 54.9833 42.344 54.4393 41.912C53.9113 41.464 53.1753 41.24 52.2313 41.24C51.2873 41.24 50.5513 41.464 50.0233 41.912C49.4953 42.344 49.2313 42.952 49.2313 43.736C49.2313 44.504 49.4953 45.112 50.0233 45.56C50.5513 46.008 51.2873 46.232 52.2313 46.232ZM60.7179 56V52.664H64.0779V56H60.7179ZM73.199 56.24C71.807 56.24 70.615 55.912 69.623 55.256C68.647 54.584 67.903 53.624 67.391 52.376C66.879 51.128 66.623 49.616 66.623 47.84C66.623 45.92 66.911 44.296 67.487 42.968C68.063 41.624 68.895 40.6 69.983 39.896C71.071 39.192 72.375 38.84 73.895 38.84C74.487 38.84 75.079 38.92 75.671 39.08C76.279 39.224 76.847 39.44 77.375 39.728C77.919 40 78.399 40.336 78.815 40.736L77.807 43.04C77.215 42.496 76.583 42.096 75.911 41.84C75.239 41.568 74.551 41.432 73.847 41.432C73.159 41.432 72.543 41.56 71.999 41.816C71.471 42.056 71.023 42.424 70.655 42.92C70.287 43.4 70.007 44.008 69.815 44.744C69.639 45.464 69.551 46.304 69.551 47.264V49.064H69.263C69.391 48.248 69.655 47.552 70.055 46.976C70.471 46.384 70.999 45.936 71.639 45.632C72.279 45.312 72.991 45.152 73.775 45.152C74.751 45.152 75.615 45.384 76.367 45.848C77.119 46.312 77.711 46.952 78.143 47.768C78.575 48.584 78.791 49.52 78.791 50.576C78.791 51.664 78.551 52.64 78.071 53.504C77.607 54.352 76.951 55.024 76.103 55.52C75.271 56 74.303 56.24 73.199 56.24ZM73.031 53.792C73.607 53.792 74.111 53.664 74.543 53.408C74.991 53.152 75.335 52.792 75.575 52.328C75.815 51.848 75.935 51.304 75.935 50.696C75.935 50.072 75.815 49.528 75.575 49.064C75.335 48.6 74.991 48.24 74.543 47.984C74.111 47.712 73.607 47.576 73.031 47.576C72.455 47.576 71.951 47.712 71.519 47.984C71.087 48.24 70.743 48.6 70.487 49.064C70.247 49.528 70.127 50.072 70.127 50.696C70.127 51.304 70.247 51.848 70.487 52.328C70.743 52.792 71.087 53.152 71.519 53.408C71.951 53.664 72.455 53.792 73.031 53.792ZM87.1576 56.672L85.1896 55.52L95.0776 38.408L97.0216 39.56L87.1576 56.672ZM85.0936 49.184C84.1976 49.184 83.4296 48.976 82.7896 48.56C82.1496 48.144 81.6616 47.552 81.3256 46.784C80.9896 46 80.8216 45.072 80.8216 44C80.8216 42.4 81.1976 41.144 81.9496 40.232C82.7016 39.304 83.7496 38.84 85.0936 38.84C85.9896 38.84 86.7576 39.048 87.3976 39.464C88.0376 39.88 88.5256 40.472 88.8616 41.24C89.1976 42.008 89.3656 42.928 89.3656 44C89.3656 45.072 89.1976 46 88.8616 46.784C88.5256 47.552 88.0376 48.144 87.3976 48.56C86.7576 48.976 85.9896 49.184 85.0936 49.184ZM85.0936 47.168C85.6696 47.168 86.1176 46.912 86.4376 46.4C86.7576 45.872 86.9176 45.072 86.9176 44C86.9176 42.928 86.7576 42.136 86.4376 41.624C86.1176 41.112 85.6696 40.856 85.0936 40.856C84.5176 40.856 84.0696 41.112 83.7496 41.624C83.4296 42.12 83.2696 42.912 83.2696 44C83.2696 45.088 83.4296 45.888 83.7496 46.4C84.0696 46.912 84.5176 47.168 85.0936 47.168ZM97.1416 56.24C96.2456 56.24 95.4776 56.032 94.8376 55.616C94.1976 55.2 93.7096 54.608 93.3736 53.84C93.0376 53.056 92.8696 52.128 92.8696 51.056C92.8696 49.456 93.2456 48.2 93.9976 47.288C94.7496 46.36 95.7976 45.896 97.1416 45.896C98.0376 45.896 98.8056 46.104 99.4456 46.52C100.086 46.936 100.574 47.528 100.91 48.296C101.246 49.064 101.414 49.984 101.414 51.056C101.414 52.128 101.246 53.056 100.91 53.84C100.574 54.608 100.086 55.2 99.4456 55.616C98.8056 56.032 98.0376 56.24 97.1416 56.24ZM97.1416 54.224C97.7176 54.224 98.1656 53.968 98.4856 53.456C98.8056 52.928 98.9656 52.128 98.9656 51.056C98.9656 49.984 98.8056 49.192 98.4856 48.68C98.1656 48.168 97.7176 47.912 97.1416 47.912C96.5656 47.912 96.1176 48.168 95.7976 48.68C95.4776 49.176 95.3176 49.968 95.3176 51.056C95.3176 52.144 95.4776 52.944 95.7976 53.456C96.1176 53.968 96.5656 54.224 97.1416 54.224Z" fill="#2EBD85"/>
<path d="M18.7748 87.1217L16.25 86.5873V93.0002H231V53.7579L229.177 55.8193L227.914 59.3313L226.511 59.1023L225.81 59.8657L224.127 52.7654L223.566 53.7579L222.584 53.2999L220.48 54.1397L219.358 57.8044L218.516 56.8882C218.189 57.728 217.534 59.3924 217.534 59.3313C217.534 59.2702 216.973 58.1352 216.693 57.5753L215.851 59.4076L214.729 57.499L213.326 56.9645L212.625 52.002L210.521 54.4451H209.82L209.258 54.9795L208.838 54.0633L207.575 58.4915L207.154 57.2699L205.752 56.9645L204.91 58.2624L204.63 55.5139L203.928 56.9645L202.946 54.9795L202.105 56.0484L201.684 55.5139L201.263 55.8193L200.422 53.1472L199.72 58.8732L198.598 56.4301L197.476 55.8193L196.354 59.7894L194.53 62.0798L193.128 61.6217L192.987 63.5304L192.286 62.0035L191.164 64.0648L190.322 68.722L189.34 68.9511L188.359 69.2565L187.798 72.234L187.096 72.6157L185.413 72.234L183.309 70.5544L182.608 72.8448L180.784 73.6846L180.083 73.3792L179.802 74.1427L177.979 72.8448L177.698 73.4556L175.734 73.0738L174.051 74.6771L173.911 75.8223L173.069 75.5169L172.088 76.6621L171.386 75.8223H169.703L169.422 76.2041H168.861L167.88 77.1202L166.196 76.3568L165.355 74.7535L164.373 74.8298L163.391 76.6621L162.69 76.0514L162.269 76.8912L161.567 76.3568L159.183 76.8912L158.061 78.8762L156.378 78.3418L155.816 79.7924L154.554 79.1816L153.572 80.6322L152.871 81.0903L152.029 81.1666L150.907 80.0978L150.206 80.3268L149.645 78.9526L148.943 79.4107L147.26 78.3418L146.699 78.6472L146.138 78.3418L145.437 76.3568H143.753L142.912 78.1127L142.772 77.731L142.351 78.7235H141.79L141.088 79.7924L140.106 78.8762L139.265 79.9451L138.143 78.1891L137.021 78.7235L136.88 79.9451L136.319 79.0289L135.478 79.1816L135.197 78.7235L134.496 81.6247L133.654 81.3193L132.953 82.3119L132.111 79.5633L131.41 79.1816L130.709 77.731L130.147 78.1891L128.605 76.3568L128.184 76.5858H127.342C127.155 77.0184 126.781 77.899 126.781 77.9601C126.781 78.0211 125.285 76.5604 124.537 75.8223L122.994 76.5858L122.292 77.502L121.311 76.8912L120.609 79.0289L118.225 80.5559L117.804 79.9451L116.962 80.7086H116.121L115.7 79.7924L114.858 80.4032C114.204 79.7415 112.866 78.3723 112.754 78.1891C112.642 78.0059 111.398 79.0289 110.79 79.5633L109.248 78.4181L108.546 79.1816L107.424 76.8912L106.162 77.2729L105.46 78.5708L104.619 76.1277L102.374 76.3568L101.393 75.2115L100.831 75.8223L99.7093 74.6771L99.2885 75.2115H98.7275L97.6053 74.0663L96.4832 75.2115L94.6597 75.3642L93.9584 74.9062L93.6778 75.6696L92.696 75.5169L91.5738 74.9062H90.7322L90.4517 75.2115L89.6101 75.0589L87.7866 73.6083C87.6463 74.2954 87.3658 75.7612 87.3658 76.1277C87.3658 76.4942 86.4307 75.5678 85.9631 75.0589L85.2618 75.975L84.841 75.5169L84.2799 77.5783L83.7188 76.8912L82.8772 77.5783L82.0356 77.731L81.6148 76.3568L80.6329 77.731L78.5289 76.1277L77.6873 76.5858V78.1891L76.5652 78.4181L75.443 75.8223L74.6014 76.8912L73.339 75.8223L72.4974 75.975L71.3752 74.6771L70.9544 75.6696L70.3934 75.2115L69.131 75.8223L68.5699 76.8912L68.1491 75.5169L66.8867 75.975L66.6061 75.2115L65.9048 75.975L64.5021 73.0738L63.5202 73.8373L63.2397 72.9211L62.2578 74.6771L60.9954 74.219L60.1538 75.5169L58.6109 72.9211L57.4887 73.6846L56.7874 73.0738L56.2263 73.8373L54.8236 73.2265L53.1404 76.3568L51.878 74.5244L51.1767 77.1202L50.6156 75.0589L50.0545 74.219L49.4935 75.6696L48.9324 74.0663L47.8103 72.6921L47.3895 73.4556L46.5478 73.2265L46.127 74.5244L45.0049 74.6771L43.462 76.5858L42.3398 74.3717C41.8723 75.1861 40.9371 76.8759 40.9371 77.1202V76.9675L40.0955 77.6547L38.9734 76.9675V79.1053C38.9734 79.1663 38.1318 80.5559 37.711 81.243L36.8694 81.0139L35.8875 81.472L34.9056 81.0139L34.3445 81.6247L33.6432 81.243L32.9419 81.6247L32.3808 81.0139L30.5573 82.6936L29.9962 82.4645L25.9285 85.8238L24.6661 85.4421L23.2634 86.0529L22.1412 85.8238L21.7204 86.4346L20.3178 86.0529L18.7748 87.1217Z" fill="url(#paint0_linear_644_719)"/>
<g filter="url(#filter1_d_644_719)">
<path d="M16.25 83.4659L18.7748 83.9985L20.3178 82.9333L21.7204 83.3137L22.1412 82.705L23.2634 82.9333L24.6661 82.3246L25.9285 82.705L29.9962 79.3574L30.5573 79.5856L32.3808 77.9118L32.9419 78.5204L33.6432 78.14L34.3445 78.5204L34.9056 77.9118L35.8875 78.3683L36.8694 77.9118L37.711 78.14C38.1318 77.4553 38.9734 76.0705 38.9734 76.0097C38.9734 75.9488 38.9734 74.5641 38.9734 73.8793L40.0955 74.5641L40.9371 73.8793C40.9371 74.0315 40.9371 74.275 40.9371 74.0315C40.9371 73.788 41.8723 72.1041 42.3398 71.2925L43.462 73.4989L45.0049 71.5968L46.127 71.4447L46.5478 70.1512L47.3895 70.3795L47.8103 69.6187L48.9324 70.9882L49.4935 72.5859L50.0545 71.1403L50.6156 71.9772L51.1767 74.0315L51.878 71.4447L53.1404 73.2707L54.8236 70.1512L56.2263 70.7599L56.7874 69.9991L57.4887 70.6077L58.6109 69.8469L60.1538 72.4337L60.9954 71.1403L62.2578 71.5968L63.2397 69.8469L63.5202 70.7599L64.5021 69.9991L65.9048 72.8902L66.6061 72.1294L66.8867 72.8902L68.1491 72.4337L68.5699 73.8033L69.131 72.7381L70.3934 72.1294L70.9544 72.5859L71.3752 71.5968L72.4974 72.8902L73.339 72.7381L74.6014 73.8033L75.443 72.7381L76.5652 75.3249L77.6873 75.0967V73.4989L78.5289 73.0424L80.6329 74.6402L81.6148 73.2707L82.0356 74.6402L82.8772 74.488L83.7188 73.8033L84.2799 74.488L84.841 72.4337L85.2618 72.8902L85.9631 71.9772C86.4307 72.4845 87.3658 73.4076 87.3658 73.0424C87.3658 72.6772 87.6463 71.2164 87.7866 70.5317L89.6101 71.9772L90.4517 72.1294L90.7322 71.8251H91.5738L92.696 72.4337L93.6778 72.5859L93.9584 71.8251L94.6597 72.2816L96.4832 72.1294L97.6053 70.9882L98.7275 72.1294H99.2885L99.7093 71.5968L100.831 72.7381L101.393 72.1294L102.374 73.2707L104.619 73.0424L105.46 75.4771L106.162 74.1837L107.424 73.8033L108.546 76.0858L109.248 75.3249L110.79 76.4662C111.398 75.9336 112.642 74.9141 112.754 75.0967C112.866 75.2793 114.204 76.6437 114.858 77.3031L115.7 76.6944L116.121 77.6074H116.962L117.804 76.8466L118.225 77.4553L120.609 75.9336L121.311 73.8033L122.292 74.4119L122.994 73.4989L124.537 72.7381C125.285 73.4736 126.781 74.9293 126.781 74.8684C126.781 74.8076 127.155 73.9301 127.342 73.4989H128.184L128.605 73.2707L130.147 75.0967L130.709 74.6402L131.41 76.0858L132.111 76.4662L132.953 79.2052L133.654 78.2161L134.496 78.5204L135.197 75.6293L135.478 76.0858L136.319 75.9336L136.88 76.8466L137.021 75.6293L138.143 75.0967L139.265 76.8466L140.106 75.7814L141.088 76.6944L141.79 75.6293H142.351L142.772 74.6402L142.912 75.0206L143.753 73.2707H145.437L146.138 75.2488L146.699 75.5532L147.26 75.2488L148.943 76.314L149.645 75.8575L150.206 77.227L150.907 76.9988L152.029 78.0639L152.871 77.9879L153.572 77.5313L154.554 76.0858L155.816 76.6944L156.378 75.2488L158.061 75.7814L159.183 73.8033L161.567 73.2707L162.269 73.8033L162.69 72.9663L163.391 73.575L164.373 71.749L165.355 71.6729L166.196 73.2707L167.879 74.0315L168.861 73.1185H169.422L169.703 72.7381H171.386L172.088 73.575L173.069 72.4337L173.911 72.7381L174.051 71.5968L175.734 69.9991L177.698 70.3795L177.979 69.7708L179.802 71.0642L180.083 70.3034L180.784 70.6077L182.608 69.7708L183.309 67.4883L185.413 69.1622L187.096 69.5426L187.798 69.1622L188.359 66.1949L189.34 65.8906L190.322 65.6623L191.164 61.0212L192.286 58.967L192.987 60.4886L193.128 58.5865L194.53 59.043L196.354 56.7605L197.476 52.8042L198.598 53.4128L199.72 55.8475L200.422 50.1413L201.263 52.8042L201.684 52.4998L202.105 53.0324L202.946 51.9673L203.928 53.9454L204.63 52.4998L204.91 55.2389L205.752 53.9454L207.154 54.2498L207.575 55.4671L208.838 51.0543L209.258 51.9673L209.82 51.4347H210.521L212.625 49L213.326 53.9454L214.729 54.478L215.851 56.3801L216.693 54.5541C216.973 55.112 217.534 56.2432 217.534 56.304C217.534 56.3649 218.189 54.7063 218.516 53.8694L219.358 54.7824L220.48 51.1303L222.584 50.2934L223.566 50.7499L224.127 49.7608L225.81 56.8366L226.511 56.0758L227.914 56.304L229.177 52.8042L231 50.7499" stroke="url(#paint1_linear_644_719)" stroke-width="1.5" stroke-linecap="round"/>
</g>
<rect x="16.25" y="93" width="214.75" height="1" fill="#523A83"/>
<rect width="0.847328" height="8" transform="matrix(-1 0 0 1 28.1719 94)" fill="#523A83"/>
<path d="M16.238 114.108L16.13 112.848L16.982 112.8C17.222 112.784 17.418 112.732 17.57 112.644C17.73 112.548 17.85 112.416 17.93 112.248C18.01 112.072 18.05 111.864 18.05 111.624V105.54H19.586V111.612C19.586 112.116 19.498 112.544 19.322 112.896C19.146 113.248 18.882 113.52 18.53 113.712C18.178 113.904 17.742 114.02 17.222 114.06L16.238 114.108ZM20.5276 114L24.3556 105.54H25.6156L29.4436 114H27.8836L26.8636 111.624L27.5116 112.044H22.4476L23.0956 111.624L22.0876 114H20.5276ZM24.9676 107.208L23.2876 111.204L22.9756 110.82H26.9836L26.6836 111.204L24.9916 107.208H24.9676ZM30.3693 114V105.54H31.5213L36.3813 111.852H36.0693V105.54H37.4973V114H36.3573L31.4973 107.676H31.7973V114H30.3693Z" fill="#B0B0B0"/>
<rect width="0.847328" height="8" transform="matrix(-1 0 0 1 76.8594 94)" fill="#523A83"/>
<path d="M63.3855 114V105.54H64.6695L67.8615 111.432H67.4775L70.6575 105.54H71.9175V114H70.5255V107.82H70.7895L68.1015 112.716H67.2015L64.4895 107.808H64.7775V114H63.3855ZM72.8675 114L76.6955 105.54H77.9555L81.7835 114H80.2235L79.2035 111.624L79.8515 112.044H74.7875L75.4355 111.624L74.4275 114H72.8675ZM77.3075 107.208L75.6275 111.204L75.3155 110.82H79.3235L79.0235 111.204L77.3315 107.208H77.3075ZM82.7092 114V105.54H86.3812C87.3092 105.54 88.0252 105.764 88.5292 106.212C89.0332 106.652 89.2852 107.272 89.2852 108.072C89.2852 108.592 89.1692 109.04 88.9372 109.416C88.7132 109.792 88.3852 110.08 87.9532 110.28C87.5212 110.48 86.9972 110.58 86.3812 110.58L86.4892 110.4H86.8852C87.2132 110.4 87.4972 110.48 87.7372 110.64C87.9852 110.8 88.2012 111.052 88.3852 111.396L89.8012 114H88.1092L86.6452 111.3C86.5492 111.124 86.4412 110.988 86.3212 110.892C86.2012 110.788 86.0652 110.716 85.9132 110.676C85.7612 110.636 85.5852 110.616 85.3852 110.616H84.2452V114H82.7092ZM84.2452 109.476H86.1172C86.6692 109.476 87.0852 109.364 87.3652 109.14C87.6532 108.908 87.7972 108.564 87.7972 108.108C87.7972 107.66 87.6532 107.324 87.3652 107.1C87.0852 106.868 86.6692 106.752 86.1172 106.752H84.2452V109.476Z" fill="#B0B0B0"/>
<rect width="0.847328" height="8" transform="matrix(-1 0 0 1 125.547 94)" fill="#523A83"/>
<path d="M113.613 114.108L113.505 112.848L114.357 112.8C114.597 112.784 114.793 112.732 114.945 112.644C115.105 112.548 115.225 112.416 115.305 112.248C115.385 112.072 115.425 111.864 115.425 111.624V105.54H116.961V111.612C116.961 112.116 116.873 112.544 116.697 112.896C116.521 113.248 116.257 113.52 115.905 113.712C115.553 113.904 115.117 114.02 114.597 114.06L113.613 114.108ZM122.331 114.12C121.171 114.12 120.283 113.82 119.667 113.22C119.059 112.612 118.755 111.716 118.755 110.532V105.54H120.291V110.52C120.291 111.28 120.463 111.852 120.807 112.236C121.159 112.612 121.667 112.8 122.331 112.8C122.995 112.8 123.499 112.612 123.843 112.236C124.187 111.852 124.359 111.28 124.359 110.52V105.54H125.883V110.532C125.883 111.716 125.583 112.612 124.983 113.22C124.383 113.82 123.499 114.12 122.331 114.12ZM127.674 114V105.54H128.826L133.686 111.852H133.374V105.54H134.802V114H133.662L128.802 107.676H129.102V114H127.674Z" fill="#B0B0B0"/>
<rect width="0.847328" height="8" transform="matrix(-1 0 0 1 171.734 94)" fill="#523A83"/>
<path d="M163.653 114.12C163.213 114.12 162.789 114.08 162.381 114C161.981 113.928 161.609 113.82 161.265 113.676C160.929 113.532 160.629 113.36 160.365 113.16L160.833 111.948C161.097 112.132 161.373 112.292 161.661 112.428C161.957 112.556 162.269 112.656 162.597 112.728C162.933 112.792 163.285 112.824 163.653 112.824C164.285 112.824 164.745 112.72 165.033 112.512C165.321 112.296 165.465 112.02 165.465 111.684C165.465 111.5 165.421 111.344 165.333 111.216C165.245 111.08 165.101 110.964 164.901 110.868C164.701 110.772 164.437 110.692 164.109 110.628L162.789 110.352C162.029 110.192 161.461 109.924 161.085 109.548C160.717 109.164 160.533 108.66 160.533 108.036C160.533 107.508 160.673 107.048 160.953 106.656C161.233 106.264 161.621 105.96 162.117 105.744C162.613 105.528 163.185 105.42 163.833 105.42C164.217 105.42 164.585 105.46 164.937 105.54C165.297 105.612 165.625 105.724 165.921 105.876C166.225 106.02 166.489 106.196 166.713 106.404L166.245 107.556C165.909 107.276 165.541 107.068 165.141 106.932C164.741 106.788 164.301 106.716 163.821 106.716C163.453 106.716 163.137 106.768 162.873 106.872C162.609 106.976 162.405 107.124 162.261 107.316C162.125 107.5 162.057 107.72 162.057 107.976C162.057 108.264 162.153 108.496 162.345 108.672C162.537 108.84 162.865 108.972 163.329 109.068L164.637 109.344C165.429 109.512 166.017 109.776 166.401 110.136C166.793 110.496 166.989 110.976 166.989 111.576C166.989 112.08 166.853 112.524 166.581 112.908C166.309 113.292 165.921 113.592 165.417 113.808C164.921 114.016 164.333 114.12 163.653 114.12ZM168.307 114V105.54H173.935V106.764H169.783V109.092H173.671V110.316H169.783V112.776H173.935V114H168.307ZM175.467 114V105.54H179.139C179.763 105.54 180.291 105.644 180.723 105.852C181.155 106.06 181.483 106.36 181.707 106.752C181.931 107.144 182.043 107.62 182.043 108.18C182.043 108.732 181.931 109.208 181.707 109.608C181.483 110 181.155 110.304 180.723 110.52C180.291 110.728 179.763 110.832 179.139 110.832H177.003V114H175.467ZM177.003 109.62H178.899C179.443 109.62 179.855 109.5 180.135 109.26C180.415 109.012 180.555 108.652 180.555 108.18C180.555 107.708 180.415 107.352 180.135 107.112C179.855 106.872 179.443 106.752 178.899 106.752H177.003V109.62Z" fill="#B0B0B0"/>
<rect width="0.847328" height="8" transform="matrix(-1 0 0 1 218.922 94)" fill="#523A83"/>
<path d="M206.924 114V105.54H210.068C211.012 105.54 211.812 105.704 212.468 106.032C213.132 106.36 213.636 106.84 213.98 107.472C214.332 108.096 214.508 108.86 214.508 109.764C214.508 110.668 214.332 111.436 213.98 112.068C213.636 112.7 213.132 113.18 212.468 113.508C211.812 113.836 211.012 114 210.068 114H206.924ZM208.46 112.728H209.972C210.956 112.728 211.688 112.484 212.168 111.996C212.656 111.5 212.9 110.756 212.9 109.764C212.9 108.772 212.656 108.032 212.168 107.544C211.68 107.056 210.948 106.812 209.972 106.812H208.46V112.728ZM216.065 114V105.54H221.693V106.764H217.541V109.092H221.429V110.316H217.541V112.776H221.693V114H216.065ZM227.149 114.12C226.269 114.12 225.513 113.944 224.881 113.592C224.257 113.232 223.777 112.728 223.441 112.08C223.105 111.424 222.937 110.652 222.937 109.764C222.937 108.876 223.105 108.108 223.441 107.46C223.777 106.812 224.257 106.312 224.881 105.96C225.513 105.6 226.269 105.42 227.149 105.42C227.717 105.42 228.253 105.508 228.757 105.684C229.269 105.86 229.689 106.112 230.017 106.44L229.513 107.664C229.153 107.36 228.785 107.14 228.409 107.004C228.033 106.86 227.629 106.788 227.197 106.788C226.341 106.788 225.689 107.048 225.241 107.568C224.793 108.08 224.569 108.812 224.569 109.764C224.569 110.716 224.793 111.452 225.241 111.972C225.689 112.492 226.341 112.752 227.197 112.752C227.629 112.752 228.033 112.684 228.409 112.548C228.785 112.404 229.153 112.18 229.513 111.876L230.017 113.1C229.689 113.42 229.269 113.672 228.757 113.856C228.253 114.032 227.717 114.12 227.149 114.12Z" fill="#B0B0B0"/>
<defs>
<filter id="filter1_d_644_719" x="7.5" y="39.2617" width="232.25" height="53.5371" filterUnits="userSpaceOnUse" color-interpolation-filters="sRGB">
<feFlood flood-opacity="0" result="BackgroundImageFix"/>
<feColorMatrix in="SourceAlpha" type="matrix" values="0 0 0 0 0 0 0 0 0 0 0 0 0 0 0 0 0 0 127 0" result="hardAlpha"/>
<feOffset/>
<feGaussianBlur stdDeviation="4"/>
<feComposite in2="hardAlpha" operator="out"/>
<feColorMatrix type="matrix" values="0 0 0 0 0.627451 0 0 0 0 0.415686 0 0 0 0 1 0 0 0 0.24 0"/>
<feBlend mode="normal" in2="BackgroundImageFix" result="effect1_dropShadow_644_719"/>
<feBlend mode="normal" in="SourceGraphic" in2="effect1_dropShadow_644_719" result="shape"/>
</filter>
<linearGradient id="paint0_linear_644_719" x1="123.625" y1="52.002" x2="123.625" y2="93.0002" gradientUnits="userSpaceOnUse">
<stop stop-color="#A06AFF" stop-opacity="0.32"/>
<stop offset="1" stop-color="#181A20" stop-opacity="0"/>
</linearGradient>
<linearGradient id="paint1_linear_644_719" x1="231" y1="66.4992" x2="16.25" y2="66.4992" gradientUnits="userSpaceOnUse">
<stop stop-color="#A06AFF"/>
<stop offset="1" stop-color="#482090"/>
</linearGradient>
</defs>
</svg>
