<svg width="25" height="24" viewBox="0 0 25 24" fill="none" xmlns="http://www.w3.org/2000/svg">
<path d="M2.5 4C2.5 4.94281 2.5 5.41421 2.79289 5.70711C3.08579 6 3.55719 6 4.5 6C5.44281 6 5.91421 6 6.20711 5.70711C6.5 5.41421 6.5 4.94281 6.5 4C6.5 3.05719 6.5 2.58579 6.20711 2.29289C5.91421 2 5.44281 2 4.5 2C3.55719 2 3.08579 2 2.79289 2.29289C2.5 2.58579 2.5 3.05719 2.5 4Z" stroke="#B0B0B0" stroke-width="1.5"/>
<path d="M2.5 12C2.5 12.9428 2.5 13.4142 2.79289 13.7071C3.08579 14 3.55719 14 4.5 14C5.44281 14 5.91421 14 6.20711 13.7071C6.5 13.4142 6.5 12.9428 6.5 12C6.5 11.0572 6.5 10.5858 6.20711 10.2929C5.91421 10 5.44281 10 4.5 10C3.55719 10 3.08579 10 2.79289 10.2929C2.5 10.5858 2.5 11.0572 2.5 12Z" stroke="#B0B0B0" stroke-width="1.5"/>
<path d="M2.5 20C2.5 20.9428 2.5 21.4142 2.79289 21.7071C3.08579 22 3.55719 22 4.5 22C5.44281 22 5.91421 22 6.20711 21.7071C6.5 21.4142 6.5 20.9428 6.5 20C6.5 19.0572 6.5 18.5858 6.20711 18.2929C5.91421 18 5.44281 18 4.5 18C3.55719 18 3.08579 18 2.79289 18.2929C2.5 18.5858 2.5 19.0572 2.5 20Z" stroke="#B0B0B0" stroke-width="1.5"/>
<path d="M10.5 4C10.5 4.94281 10.5 5.41421 10.7929 5.70711C11.0858 6 11.5572 6 12.5 6C13.4428 6 13.9142 6 14.2071 5.70711C14.5 5.41421 14.5 4.94281 14.5 4C14.5 3.05719 14.5 2.58579 14.2071 2.29289C13.9142 2 13.4428 2 12.5 2C11.5572 2 11.0858 2 10.7929 2.29289C10.5 2.58579 10.5 3.05719 10.5 4Z" stroke="#B0B0B0" stroke-width="1.5"/>
<path d="M10.5 12C10.5 12.9428 10.5 13.4142 10.7929 13.7071C11.0858 14 11.5572 14 12.5 14C13.4428 14 13.9142 14 14.2071 13.7071C14.5 13.4142 14.5 12.9428 14.5 12C14.5 11.0572 14.5 10.5858 14.2071 10.2929C13.9142 10 13.4428 10 12.5 10C11.5572 10 11.0858 10 10.7929 10.2929C10.5 10.5858 10.5 11.0572 10.5 12Z" stroke="#B0B0B0" stroke-width="1.5"/>
<path d="M10.5 20C10.5 20.9428 10.5 21.4142 10.7929 21.7071C11.0858 22 11.5572 22 12.5 22C13.4428 22 13.9142 22 14.2071 21.7071C14.5 21.4142 14.5 20.9428 14.5 20C14.5 19.0572 14.5 18.5858 14.2071 18.2929C13.9142 18 13.4428 18 12.5 18C11.5572 18 11.0858 18 10.7929 18.2929C10.5 18.5858 10.5 19.0572 10.5 20Z" stroke="#B0B0B0" stroke-width="1.5"/>
</svg>
