<svg width="21" height="20" viewBox="0 0 21 20" fill="none" xmlns="http://www.w3.org/2000/svg">
<path d="M3.36612 7.13388C3.73223 7.5 4.32149 7.5 5.5 7.5C6.67851 7.5 7.26777 7.5 7.63388 7.13388C8 6.76777 8 6.17851 8 5C8 3.82149 8 3.23223 7.63388 2.86612C7.26777 2.5 6.67851 2.5 5.5 2.5C4.32149 2.5 3.73223 2.5 3.36612 2.86612C3 3.23223 3 3.82149 3 5C3 6.17851 3 6.76777 3.36612 7.13388Z" stroke="currentColor" stroke-width="1.5" stroke-linecap="round" stroke-linejoin="round"/>
<path d="M13.3661 7.13388C13.7322 7.5 14.3215 7.5 15.5 7.5C16.6785 7.5 17.2677 7.5 17.6339 7.13388C18 6.76777 18 6.17851 18 5C18 3.82149 18 3.23223 17.6339 2.86612C17.2677 2.5 16.6785 2.5 15.5 2.5C14.3215 2.5 13.7322 2.5 13.3661 2.86612C13 3.23223 13 3.82149 13 5C13 6.17851 13 6.76777 13.3661 7.13388Z" stroke="currentColor" stroke-width="1.5" stroke-linecap="round" stroke-linejoin="round"/>
<path d="M13.3661 17.1339C13.7322 17.5 14.3215 17.5 15.5 17.5C16.6785 17.5 17.2677 17.5 17.6339 17.1339C18 16.7677 18 16.1785 18 15C18 13.8215 18 13.2322 17.6339 12.8661C17.2677 12.5 16.6785 12.5 15.5 12.5C14.3215 12.5 13.7322 12.5 13.3661 12.8661C13 13.2322 13 13.8215 13 15C13 16.1785 13 16.7677 13.3661 17.1339Z" stroke="currentColor" stroke-width="1.5" stroke-linecap="round" stroke-linejoin="round"/>
<path d="M3.36612 17.1339C3.73223 17.5 4.32149 17.5 5.5 17.5C6.67851 17.5 7.26777 17.5 7.63388 17.1339C8 16.7677 8 16.1785 8 15C8 13.8215 8 13.2322 7.63388 12.8661C7.26777 12.5 6.67851 12.5 5.5 12.5C4.32149 12.5 3.73223 12.5 3.36612 12.8661C3 13.2322 3 13.8215 3 15C3 16.1785 3 16.7677 3.36612 17.1339Z" stroke="currentColor" stroke-width="1.5" stroke-linecap="round" stroke-linejoin="round"/>
<path d="M10.5 5H8" stroke="currentColor" stroke-width="1.5" stroke-linecap="round" stroke-linejoin="round"/>
<path d="M13 15H10.5" stroke="currentColor" stroke-width="1.5" stroke-linecap="round" stroke-linejoin="round"/>
<path d="M15.5 10V7.5" stroke="currentColor" stroke-width="1.5" stroke-linecap="round" stroke-linejoin="round"/>
<path d="M5.5 12.5V10" stroke="currentColor" stroke-width="1.5" stroke-linecap="round" stroke-linejoin="round"/>
</svg>
