<svg width="20" height="20" viewBox="0 0 20 20" fill="none" xmlns="http://www.w3.org/2000/svg">
<path d="M2.0835 9.99967C2.0835 6.26772 2.0835 4.40175 3.24286 3.24237C4.40224 2.08301 6.26821 2.08301 10.0002 2.08301C13.7321 2.08301 15.5981 2.08301 16.7575 3.24237C17.9168 4.40175 17.9168 6.26772 17.9168 9.99967C17.9168 13.7316 17.9168 15.5976 16.7575 16.757C15.5981 17.9163 13.7321 17.9163 10.0002 17.9163C6.26821 17.9163 4.40224 17.9163 3.24286 16.757C2.0835 15.5976 2.0835 13.7316 2.0835 9.99967Z" stroke="currentColor" stroke-width="1.5" stroke-linejoin="round"/>
<path d="M2.0835 12.0833H2.53245C2.92605 12.0833 3.12284 12.0833 3.29396 12.0011C3.46509 11.9188 3.58803 11.7652 3.8339 11.4578L5.00016 10L6.25016 12.0833L7.50016 9.16667L9.5835 13.3333L12.5002 7.5L14.1668 10.4167L15.4168 9.16667L16.6212 10.9733C16.8312 11.2883 16.9362 11.4458 17.0897 11.5412C17.1202 11.5601 17.1518 11.5771 17.1845 11.5919C17.3489 11.6667 17.5382 11.6667 17.9168 11.6667" stroke="currentColor" stroke-width="1.5" stroke-linejoin="round"/>
<path d="M12.5 2.08301V4.58301M12.5 17.9163V12.083" stroke="currentColor" stroke-width="1.5" stroke-linecap="round" stroke-linejoin="round"/>
<path d="M12.4998 8.33366C12.9601 8.33366 13.3332 7.96056 13.3332 7.50033C13.3332 7.04009 12.9601 6.66699 12.4998 6.66699C12.0396 6.66699 11.6665 7.04009 11.6665 7.50033C11.6665 7.96056 12.0396 8.33366 12.4998 8.33366Z" stroke="currentColor" stroke-width="1.5" stroke-linejoin="round"/>
</svg>
