<svg width="44" height="44" viewBox="0 0 44 44" fill="none" xmlns="http://www.w3.org/2000/svg">
<g clip-path="url(#clip0_2_7555)">
<path d="M0 0H44V44H0V0Z" fill="url(#paint0_linear_2_7555)"/>
<path d="M32.2143 25.9194C32.0791 26.3004 31.9369 26.6642 31.7868 27.0131C31.4315 27.8155 30.9942 28.5791 30.4818 29.2916C29.7974 30.2424 29.2356 30.8992 28.8027 31.2638C28.1325 31.8641 27.4136 32.1713 26.6436 32.1878C26.0912 32.1878 25.4257 32.0354 24.6494 31.7258C23.8716 31.417 23.1566 31.2646 22.5028 31.2646C21.8177 31.2646 21.0823 31.417 20.295 31.7258C19.5077 32.0354 18.8728 32.1972 18.3881 32.2129C17.6495 32.2436 16.9148 31.9285 16.1802 31.2646C15.7119 30.867 15.1258 30.1858 14.4233 29.2217C13.6698 28.1924 13.0507 26.9966 12.5659 25.6341C12.0458 24.1633 11.7857 22.7388 11.7857 21.3599C11.7857 19.7806 12.1369 18.4181 12.8401 17.2765C13.3775 16.3745 14.1385 15.6265 15.0496 15.1048C15.9573 14.5782 16.9859 14.2958 18.0353 14.2853C18.6214 14.2853 19.3898 14.4621 20.3453 14.8078C21.2976 15.1559 21.9088 15.3319 22.1776 15.3319C22.3779 15.3319 23.0576 15.126 24.2086 14.7151C25.2976 14.334 26.2169 14.1761 26.9704 14.2381C29.0109 14.3984 30.5431 15.181 31.5629 16.589C29.7385 17.6639 28.8365 19.1685 28.8538 21.099C28.8703 22.6036 29.4313 23.8561 30.5344 24.85C31.0256 25.3044 31.5946 25.6667 32.2143 25.9194ZM27.082 8.64307C27.0977 8.80021 27.1056 8.95814 27.1056 9.1145C27.1056 10.2931 26.6632 11.3946 25.7808 12.4129C24.7146 13.6245 23.4253 14.3238 22.0267 14.2138C22.0079 14.0655 21.9985 13.9162 21.9984 13.7667C21.9984 12.6353 22.5052 11.4237 23.4056 10.4337C23.8551 9.93242 24.4271 9.51521 25.1185 9.18285C25.8115 8.85521 26.4668 8.67449 27.082 8.64307Z" fill="white"/>
</g>
<defs>
<linearGradient id="paint0_linear_2_7555" x1="8.18557" y1="7.63086" x2="53.5441" y2="59.7276" gradientUnits="userSpaceOnUse">
<stop stop-color="#1A1E21"/>
<stop offset="1" stop-color="#06060A"/>
</linearGradient>
<clipPath id="clip0_2_7555">
<rect width="44" height="44" rx="22" fill="white"/>
</clipPath>
</defs>
</svg>
