<svg width="44" height="44" viewBox="0 0 44 44" fill="none" xmlns="http://www.w3.org/2000/svg">
<g clip-path="url(#clip0_2_7530)">
<path d="M0 0H44V44H0V0Z" fill="#D9232E"/>
<path d="M9.88821 20.2274L10.5781 20.1001L10.0029 19.9823L10.3094 19.6381L9.77271 19.7646L9.86857 19.2657L9.50478 19.5014L9.33192 18.8579L9.17871 19.5926L8.73871 19.2657L8.88171 19.7104L8.46057 19.6381L8.82435 20.0003L8.22092 20.1182L8.83378 20.2455L8.58471 20.5079L8.96814 20.4812L8.79528 20.9707L9.21721 20.5621L9.34214 21.2151L9.47571 20.5629L9.80178 20.889L9.76328 20.4804L10.2331 20.6352L9.88742 20.2266L9.88821 20.2274ZM9.64857 20.0546C9.64857 20.2093 9.52364 20.3264 9.361 20.3264C9.19835 20.3264 9.07342 20.2086 9.07342 20.0546C9.07342 19.9006 9.19835 19.7827 9.361 19.7827C9.52364 19.7827 9.64857 19.9006 9.64857 20.0546ZM6.47742 20.0365L5.91642 22.3088L5.31614 20.0365H3.79735L3.14285 24.3571H4.56814L4.77871 22L5.5 24.3571H6.28571L7.01485 22L7.21757 24.3571H8.64285L7.97264 20.0365H6.47742Z" fill="white"/>
<path d="M9.99664 22.3354V21.2142H8.64285V24.357H9.98957V23.2932C10.1695 23.9885 10.725 24.357 11.4612 24.357C11.6938 24.357 11.9264 24.2918 12.1369 24.218L12.1974 22.982C12.0395 23.1046 11.8894 23.2115 11.6789 23.2115C11.4612 23.2115 11.2805 23.0229 11.2805 22.7777C11.2805 22.5075 11.4534 22.3275 11.7016 22.3275C11.8965 22.3275 12.0544 22.4501 12.1966 22.5727V21.3697C11.9274 21.2702 11.643 21.2175 11.3559 21.2142C10.6881 21.2142 10.1616 21.6809 9.99664 22.3354ZM39.4138 21.2142L38.7915 22.7856L38.6069 21.2142H35.8812L35.8576 21.6699H35.8199C35.6816 21.3517 35.4279 21.2142 35.0672 21.2142C34.3836 21.2142 33.8769 21.8003 33.6844 22.454C33.6152 21.6777 33.0086 21.2142 32.1868 21.2142C31.5724 21.2142 30.9894 21.523 30.6436 22.029L30.7513 21.2142H30.2901L30.4362 20.331H29.0534L28.9009 21.2142H27.3389L27.2651 21.662H27.2344C27.1635 21.5227 27.0542 21.4065 26.9194 21.3272C26.7847 21.2479 26.6301 21.2087 26.4739 21.2142C25.806 21.2142 25.3149 21.809 25.1067 22.4454L25.2843 21.2142C24.8231 21.2063 24.5614 21.3352 24.2629 21.7272H24.2314L24.3241 21.2142H22.4871L22.6333 20.4285H21.2504L21.1247 21.2142H20.7601L20.6289 22.2419C20.4906 21.9394 20.1984 21.7681 19.8141 21.6777L19.4999 21.596C19.3922 21.5725 19.2154 21.5473 19.239 21.3839C19.2618 21.2126 19.4614 21.156 19.5847 21.156C19.899 21.156 20.1599 21.2943 20.383 21.4742L20.9354 20.3876C20.5815 20.1361 20.1563 20.0044 19.7222 20.012C18.8548 20.012 17.9025 20.5754 17.7485 21.5882C17.6487 22.2576 18.0706 22.6096 18.6238 22.7149L18.9082 22.7722C19.0386 22.7966 19.2225 22.8217 19.2005 23.0095C19.1691 23.1973 18.9318 23.2625 18.7935 23.2625C18.4556 23.2625 18.1712 23.0912 17.941 22.8697C17.941 22.8697 17.9096 22.8382 17.864 22.7887C17.8404 21.7673 17.0728 21.2142 16.159 21.2142C15.5524 21.2142 15.015 21.4656 14.7078 21.9229V21.2142C14.2466 21.2063 13.9928 21.3022 13.7555 21.6942H13.7241V21.215H12.3884V24.3578H13.7555V23.14C13.7555 22.7644 13.9394 22.5436 14.2929 22.5436C14.3621 22.5436 14.4155 22.5601 14.4697 22.5766C14.4619 22.6583 14.454 22.74 14.454 22.8296C14.454 23.8259 15.2837 24.357 16.1669 24.357C16.5739 24.357 16.973 24.2423 17.2802 24.0137C17.6951 24.2502 18.2482 24.357 18.7471 24.357C19.6146 24.357 20.5598 23.8911 20.713 22.8783C20.7366 22.7149 20.7366 22.5766 20.713 22.454L20.9511 22.4383L20.6525 24.357H22.0354L22.3111 22.4375L22.7724 22.4705L22.495 24.357H23.8621L24.0303 23.1643C24.0845 22.7887 24.299 22.568 24.6526 22.568C24.8136 22.568 24.9064 22.634 25.0219 22.7149C25.014 22.7479 25.0061 22.7809 25.0061 22.8131C24.8985 23.5399 25.1979 24.357 25.9655 24.357C26.3505 24.357 26.6035 24.185 26.895 23.8997H26.9264L26.8259 24.357H28.1694L28.446 22.4454H28.7367L28.4625 24.357H29.8454L30.1149 22.4454H30.4213C30.375 22.5727 30.3413 22.7043 30.3207 22.8382C30.1675 23.8754 30.9045 24.357 31.7955 24.357C32.4398 24.357 33.2546 24.0215 33.539 23.3034H32.2025C32.1561 23.4425 32.0336 23.5485 31.8882 23.5485C31.6038 23.5485 31.6038 23.279 31.6415 23.0339H33.5924C33.5924 23.6868 33.9224 24.2989 34.5903 24.2989C34.9132 24.2989 35.3053 24.1284 35.4891 23.8015H35.5284L35.4585 24.1032C35.3744 24.4788 35.0436 24.9958 34.6751 24.9958C34.3373 24.9958 33.968 24.8654 33.7386 24.6281L33.2852 25.6409L33.4156 25.6896C33.787 25.8484 34.1871 25.9292 34.5911 25.9269C35.8812 25.9269 36.5357 25.3156 36.7793 24.0545L37.1784 21.3925L37.9311 23.932L36.9294 25.9269H38.3735L40.8571 21.2142H39.4138ZM16.214 23.2295C15.9987 23.2295 15.829 23.0582 15.829 22.821C15.829 22.5766 15.983 22.381 16.214 22.381C16.4442 22.381 16.5974 22.5766 16.5974 22.821C16.5974 23.0582 16.4285 23.2295 16.214 23.2295ZM27.0961 22.7722C27.0647 23.0009 26.9186 23.2217 26.6656 23.2217C26.4196 23.2217 26.3434 23.0174 26.3733 22.7809C26.4047 22.5601 26.5736 22.3723 26.7881 22.3723C27.0034 22.3723 27.126 22.5357 27.0954 22.773L27.0961 22.7722ZM32.3942 22.4132V22.4289H31.7106V22.4053C31.7421 22.1845 31.8646 22.0376 32.0257 22.0046C32.0493 21.9967 32.0721 21.9967 32.0949 21.9967C32.1376 21.9964 32.18 22.0058 32.2186 22.0241C32.2573 22.0425 32.2913 22.0694 32.318 22.1028C32.3536 22.1452 32.3791 22.1953 32.3923 22.2491C32.4055 22.3029 32.4061 22.3591 32.3942 22.4132ZM35.6966 22.74C35.6659 22.9679 35.5198 23.1565 35.2896 23.1565C35.0515 23.1565 34.9281 22.9765 34.9674 22.7322C35.0051 22.4949 35.1819 22.2985 35.4051 22.2985C35.6353 22.3063 35.7272 22.5192 35.6966 22.74Z" fill="white"/>
</g>
<defs>
<clipPath id="clip0_2_7530">
<rect width="44" height="44" rx="22" fill="white"/>
</clipPath>
</defs>
</svg>
