<svg width="44" height="44" viewBox="0 0 44 44" fill="none" xmlns="http://www.w3.org/2000/svg">
<g clip-path="url(#clip0_2_7543)">
<path d="M0 0H44V44H0V0Z" fill="url(#paint0_linear_2_7543)"/>
<path d="M9.49692 20.6893C9.49692 20.6893 12.3978 16.9186 18.0714 16.525V14.9583C11.7873 15.4156 6.28571 20.4284 6.28571 20.4284C6.28571 20.4284 9.42699 28.4781 18.0714 29.2182V27.7513C11.7283 27.0276 9.49692 20.6877 9.49692 20.6877V20.6893ZM18.0714 24.8363V26.1791C13.277 25.4044 11.8871 20.8849 11.8871 20.8849C11.8871 20.8849 14.2481 18.4461 18.0714 18.0713V19.6702C18.0683 19.6702 18.0738 19.6702 18.0714 19.6702C16.0647 19.4518 14.4304 21.1521 14.4304 21.1521C14.4304 21.1521 15.3686 24.0129 18.0714 24.8363ZM18.0714 12.5713V14.9583C18.2561 14.9449 18.381 14.9347 18.5664 14.9284C25.7109 14.71 30.3663 20.3986 30.3663 20.3986C30.3663 20.3986 25.0195 26.2938 19.4496 26.2938C18.9388 26.2938 18.5201 26.2514 18.0714 26.1791V27.7513C18.4556 27.7953 18.7943 27.8228 19.2091 27.8228C24.3925 27.8228 28.1411 25.4216 31.7711 22.5805C32.373 23.0181 34.837 24.0812 35.343 24.5464C31.8921 27.1667 23.848 29.2787 19.2885 29.2787C18.8485 29.2787 18.4871 29.2544 18.0714 29.2182V31.4284H37.7143V12.5713H18.0714ZM18.0714 18.0713V16.5258C18.2537 16.514 18.3786 16.5054 18.5664 16.4999C23.7042 16.3537 27.0749 20.4716 27.0749 20.4716C27.0749 20.4716 23.5471 25.1427 19.6428 25.1427C19.0811 25.1427 18.5248 24.9746 18.0714 24.8363V19.6702C20.0718 19.8902 20.4144 20.6916 21.6173 22.509L24.2911 20.4646C24.2911 20.4646 22.1493 18.0713 18.8571 18.0713C18.4996 18.0713 18.4077 18.0391 18.0714 18.0713Z" fill="#76B900"/>
</g>
<defs>
<linearGradient id="paint0_linear_2_7543" x1="8.18557" y1="7.63086" x2="53.5441" y2="59.7276" gradientUnits="userSpaceOnUse">
<stop stop-color="#1A1E21"/>
<stop offset="1" stop-color="#06060A"/>
</linearGradient>
<clipPath id="clip0_2_7543">
<rect width="44" height="44" rx="22" fill="white"/>
</clipPath>
</defs>
</svg>
