<svg width="44" height="44" viewBox="0 0 44 44" fill="none" xmlns="http://www.w3.org/2000/svg">
<g clip-path="url(#clip0_2_7518)">
<path d="M0 0H44V44H0V0Z" fill="url(#paint0_linear_2_7518)"/>
<path fill-rule="evenodd" clip-rule="evenodd" d="M28.2857 18.8573C28.2857 20.5244 27.6235 22.1232 26.4447 23.302C25.2659 24.4808 23.6671 25.143 22 25.143C20.3329 25.143 18.7341 24.4808 17.5553 23.302C16.3765 22.1232 15.7143 20.5244 15.7143 18.8573C15.7143 17.1902 16.3765 15.5914 17.5553 14.4126C18.7341 13.2338 20.3329 12.5716 22 12.5716C23.6671 12.5716 25.2659 13.2338 26.4447 14.4126C27.6235 15.5914 28.2857 17.1902 28.2857 18.8573ZM31.4286 18.8573C31.4286 24.0642 27.2069 28.2859 22 28.2859C16.7931 28.2859 12.5714 24.0642 12.5714 18.8573C12.5714 13.6504 16.7931 9.42871 22 9.42871C27.2069 9.42871 31.4286 13.6504 31.4286 18.8573ZM22 31.4287L30.7088 27.5001L32.2143 30.2203L22 34.5716L11.7857 30.2203L13.2911 27.5001L22 31.4287Z" fill="white"/>
</g>
<defs>
<linearGradient id="paint0_linear_2_7518" x1="8.18557" y1="7.63086" x2="53.5441" y2="59.7276" gradientUnits="userSpaceOnUse">
<stop stop-color="#1A1E21"/>
<stop offset="1" stop-color="#06060A"/>
</linearGradient>
<clipPath id="clip0_2_7518">
<rect width="44" height="44" rx="22" fill="white"/>
</clipPath>
</defs>
</svg>
