<svg width="44" height="44" viewBox="0 0 44 44" fill="none" xmlns="http://www.w3.org/2000/svg">
<g clip-path="url(#clip0_2_7671)">
<path d="M0.000488281 0H44.0005V44H0.000488281V0Z" fill="#E82127"/>
<path d="M22.0005 36.1426L25.5362 16.4998C28.8888 16.4998 29.9315 16.5564 30.0839 18.0634C30.0839 18.0634 32.3334 17.2211 33.4672 15.5098C29.0413 13.4512 24.5933 13.3569 24.5933 13.3569L22.0005 16.4998L19.4076 13.3569C19.4076 13.3569 14.9605 13.4496 10.5345 15.5098C11.6675 17.2203 13.9178 18.0634 13.9178 18.0634C14.071 16.5548 15.1349 16.5021 18.4648 16.4998L22.0005 36.1426Z" fill="white"/>
<path d="M22.0005 12.5298C25.5786 12.5023 29.5936 13.0931 33.7862 14.9286C34.3464 13.915 34.5719 13.3571 34.5719 13.3571C29.9889 11.5359 25.6965 11.0157 22.0005 11C18.3037 11.0157 14.0121 11.5359 9.42908 13.3571C9.42908 13.3571 9.71508 14.0195 10.2148 14.9286C14.4066 13.0931 18.4224 12.5023 22.0005 12.5298Z" fill="white"/>
</g>
<defs>
<clipPath id="clip0_2_7671">
<rect x="0.000488281" width="44" height="44" rx="22" fill="white"/>
</clipPath>
</defs>
</svg>
