<svg width="20" height="20" viewBox="0 0 20 20" fill="none" xmlns="http://www.w3.org/2000/svg">
<path d="M9.59523 1.74472C9.8554 1.64108 10.1446 1.64108 10.4047 1.74472C11.2434 2.07871 11.4072 3.36486 12.3968 3.43646C13.0936 3.48688 13.7775 2.90597 14.4767 3.08011C14.7587 3.15035 15.0023 3.33015 15.155 3.5808C15.6226 4.34886 15.0191 5.47776 15.7819 6.11506C16.3119 6.55763 17.1876 6.50036 17.6483 7.04291C17.8423 7.27144 17.9376 7.56952 17.9127 7.87008C17.839 8.76416 16.6991 9.32333 16.9496 10.2869C17.1229 10.9539 17.8544 11.4228 17.9127 12.1306C17.9376 12.4312 17.8423 12.7292 17.6483 12.9577C17.0693 13.6394 15.8173 13.4149 15.4563 14.3388C15.2028 14.9873 15.5283 15.8067 15.155 16.4198C15.0023 16.6705 14.7587 16.8503 14.4767 16.9206C13.6085 17.1367 12.7272 16.2041 11.8917 16.7302C11.2952 17.1057 11.0815 17.9866 10.4047 18.2559C10.1446 18.3596 9.8554 18.3596 9.59523 18.2559C8.91848 17.9866 8.70473 17.1057 8.10822 16.7302C7.28307 16.2107 6.37676 17.1331 5.52324 16.9206C5.24121 16.8503 4.99765 16.6705 4.84502 16.4198C4.37736 15.6518 4.98085 14.5228 4.21806 13.8856C3.68816 13.443 2.81243 13.5003 2.35168 12.9577C2.15766 12.7292 2.06235 12.4312 2.08719 12.1306C2.14569 11.4228 2.87698 10.9539 3.0504 10.2869C3.29838 9.33341 2.16001 8.75108 2.08719 7.87008C2.06235 7.56952 2.15766 7.27144 2.35168 7.04291C2.93061 6.36103 4.18247 6.58577 4.54363 5.66185C4.79716 5.01333 4.47171 4.19388 4.84502 3.5808C4.99765 3.33015 5.24121 3.15035 5.52324 3.08011C6.22252 2.90597 6.90629 3.48688 7.60313 3.43646C8.59273 3.36488 8.75656 2.07871 9.59523 1.74472Z" fill="#A06AFF"/>
<path d="M7.5 11.1108C7.5 11.1108 8.22917 11.1108 8.95833 12.4997C8.95833 12.4997 11.2745 9.02742 13.3333 8.33301" stroke="white" stroke-width="1.5" stroke-linecap="round" stroke-linejoin="round"/>
</svg>
