<svg width="15" height="14" viewBox="0 0 15 14" fill="none" xmlns="http://www.w3.org/2000/svg">
<path d="M3.23332 5.58667H2.16667C1.8 5.58667 1.5 5.88667 1.5 6.25334V12C1.5 12.3667 1.8 12.6667 2.16667 12.6667H3.23332C3.59998 12.6667 3.89998 12.3667 3.89998 12V6.25334C3.89998 5.88667 3.59998 5.58667 3.23332 5.58667Z" fill="currentColor" stroke="currentColor" stroke-width="1.5" stroke-linecap="round" stroke-linejoin="round"/>
<path d="M8.03312 3.45996H6.96647C6.5998 3.45996 6.2998 3.75996 6.2998 4.12663V12C6.2998 12.3666 6.5998 12.6666 6.96647 12.6666H8.03312C8.39979 12.6666 8.69979 12.3666 8.69979 12V4.12663C8.69979 3.75996 8.39979 3.45996 8.03312 3.45996Z" fill="currentColor" stroke="currentColor" stroke-width="1.5" stroke-linecap="round" stroke-linejoin="round"/>
<path d="M12.8334 1.33325H11.7668C11.4001 1.33325 11.1001 1.63325 11.1001 1.99992V11.9999C11.1001 12.3666 11.4001 12.6666 11.7668 12.6666H12.8334C13.2001 12.6666 13.5001 12.3666 13.5001 11.9999V1.99992C13.5001 1.63325 13.2001 1.33325 12.8334 1.33325Z" fill="currentColor" stroke="currentColor" stroke-width="1.5" stroke-linecap="round" stroke-linejoin="round"/>
</svg>
