<svg width="24" height="24" viewBox="0 0 24 24" fill="none" xmlns="http://www.w3.org/2000/svg">
<path d="M0 0H24V20C24 22.2091 22.2091 24 20 24H4C1.79086 24 0 22.2091 0 20V0Z" fill="url(#paint0_linear_69_6084)"/>
<path d="M13.1504 6.29604L14.3236 8.66184C14.4836 8.99116 14.9102 9.30705 15.2702 9.36754L17.3966 9.72375C18.7565 9.95227 19.0765 10.947 18.0966 11.9283L16.4434 13.5951C16.1634 13.8773 16.0102 14.4217 16.0968 14.8116L16.5701 16.8749C16.9434 18.5081 16.0834 19.1399 14.6503 18.2863L12.6572 17.0967C12.2972 16.8817 11.704 16.8817 11.3373 17.0967L9.34421 18.2863C7.9177 19.1399 7.05113 18.5014 7.42442 16.8749L7.8977 14.8116C7.98436 14.4217 7.83104 13.8773 7.55107 13.5951L5.89792 11.9283C4.9247 10.947 5.238 9.95227 6.59784 9.72375L8.72428 9.36754C9.07757 9.30705 9.50419 8.99116 9.66417 8.66184L10.8374 6.29604C11.4773 5.01232 12.5172 5.01232 13.1504 6.29604Z" fill="white"/>
<defs>
<linearGradient id="paint0_linear_69_6084" x1="0" y1="12" x2="24" y2="12" gradientUnits="userSpaceOnUse">
<stop stop-color="#181A20"/>
<stop offset="1" stop-color="#A06AFF"/>
</linearGradient>
</defs>
</svg>
