<svg width="20" height="20" viewBox="0 0 20 20" fill="none" xmlns="http://www.w3.org/2000/svg">
<g clip-path="url(#clip0_4677_18731)">
<path d="M1.66602 14.9998C1.66602 13.7162 1.66602 13.0743 1.95496 12.6028C2.11663 12.3389 2.33846 12.1171 2.60229 11.9554C3.0738 11.6665 3.71565 11.6665 4.99935 11.6665C6.28305 11.6665 6.9249 11.6665 7.39641 11.9554C7.66024 12.1171 7.88207 12.3389 8.04374 12.6028C8.33268 13.0743 8.33268 13.7162 8.33268 14.9998C8.33268 16.2835 8.33268 16.9254 8.04374 17.3969C7.88207 17.6608 7.66024 17.8826 7.39641 18.0443C6.9249 18.3332 6.28305 18.3332 4.99935 18.3332C3.71565 18.3332 3.0738 18.3332 2.60229 18.0443C2.33846 17.8826 2.11663 17.6608 1.95496 17.3969C1.66602 16.9254 1.66602 16.2835 1.66602 14.9998Z" stroke="white" stroke-width="1.5"/>
<path d="M11.666 14.9998C11.666 13.7162 11.666 13.0743 11.9549 12.6028C12.1166 12.3389 12.3384 12.1171 12.6023 11.9554C13.0738 11.6665 13.7157 11.6665 14.9993 11.6665C16.283 11.6665 16.9249 11.6665 17.3964 11.9554C17.6603 12.1171 17.8821 12.3389 18.0438 12.6028C18.3327 13.0743 18.3327 13.7162 18.3327 14.9998C18.3327 16.2835 18.3327 16.9254 18.0438 17.3969C17.8821 17.6608 17.6603 17.8826 17.3964 18.0443C16.9249 18.3332 16.283 18.3332 14.9993 18.3332C13.7157 18.3332 13.0738 18.3332 12.6023 18.0443C12.3384 17.8826 12.1166 17.6608 11.9549 17.3969C11.666 16.9254 11.666 16.2835 11.666 14.9998Z" stroke="white" stroke-width="1.5"/>
<path d="M2 5.33333C2 4.04963 2 3.40778 2.28894 2.93627C2.45062 2.67244 2.67244 2.45062 2.93627 2.28894C3.40778 2 4.04963 2 5.33333 2C6.61703 2 7.25888 2 7.73039 2.28894C7.99422 2.45062 8.21605 2.67244 8.37772 2.93627C8.66667 3.40778 8.66667 4.04963 8.66667 5.33333C8.66667 6.61703 8.66667 7.25888 8.37772 7.73039C8.21605 7.99422 7.99422 8.21605 7.73039 8.37772C7.25888 8.66667 6.61703 8.66667 5.33333 8.66667C4.04963 8.66667 3.40778 8.66667 2.93627 8.37772C2.67244 8.21605 2.45062 7.99422 2.28894 7.73039C2 7.25888 2 6.61703 2 5.33333Z" stroke="white" stroke-width="1.5"/>
<path d="M11.666 4.99984C11.666 3.71614 11.666 3.07429 11.9549 2.60278C12.1166 2.33895 12.3384 2.11712 12.6023 1.95545C13.0738 1.6665 13.7157 1.6665 14.9993 1.6665C16.283 1.6665 16.9249 1.6665 17.3964 1.95545C17.6603 2.11712 17.8821 2.33895 18.0438 2.60278C18.3327 3.07429 18.3327 3.71614 18.3327 4.99984C18.3327 6.28354 18.3327 6.92539 18.0438 7.3969C17.8821 7.66073 17.6603 7.88255 17.3964 8.04423C16.9249 8.33317 16.283 8.33317 14.9993 8.33317C13.7157 8.33317 13.0738 8.33317 12.6023 8.04423C12.3384 7.88255 12.1166 7.66073 11.9549 7.3969C11.666 6.92539 11.666 6.28354 11.666 4.99984Z" stroke="white" stroke-width="1.5"/>
</g>
<defs>
<clipPath id="clip0_4677_18731">
<rect width="20" height="20" fill="white"/>
</clipPath>
</defs>
</svg>
