<svg width="20" height="20" viewBox="0 0 20 20" fill="none" xmlns="http://www.w3.org/2000/svg">
<g clip-path="url(#clip0_4677_18737)">
<path d="M1.66602 9.50016C1.66602 8.53491 1.86746 8.3335 2.83268 8.3335H17.166C18.1313 8.3335 18.3327 8.53491 18.3327 9.50016V10.5002C18.3327 11.4654 18.1313 11.6668 17.166 11.6668H2.83268C1.86746 11.6668 1.66602 11.4654 1.66602 10.5002V9.50016Z" stroke="#808283" stroke-width="1.5" stroke-linecap="round"/>
<path d="M1.66602 2.83317C1.66602 1.86795 1.86746 1.6665 2.83268 1.6665H17.166C18.1313 1.6665 18.3327 1.86795 18.3327 2.83317V3.83317C18.3327 4.7984 18.1313 4.99984 17.166 4.99984H2.83268C1.86746 4.99984 1.66602 4.7984 1.66602 3.83317V2.83317Z" stroke="#808283" stroke-width="1.5" stroke-linecap="round"/>
<path d="M1.66602 16.1667C1.66602 15.2014 1.86746 15 2.83268 15H17.166C18.1313 15 18.3327 15.2014 18.3327 16.1667V17.1667C18.3327 18.1319 18.1313 18.3333 17.166 18.3333H2.83268C1.86746 18.3333 1.66602 18.1319 1.66602 17.1667V16.1667Z" stroke="#808283" stroke-width="1.5" stroke-linecap="round"/>
</g>
<defs>
<clipPath id="clip0_4677_18737">
<rect width="20" height="20" fill="white"/>
</clipPath>
</defs>
</svg>
