<?xml version="1.0" encoding="UTF-8"?>
<!DOCTYPE svg PUBLIC "-//W3C//DTD SVG 1.1//EN" "http://www.w3.org/Graphics/SVG/1.1/DTD/svg11.dtd">
<!-- Creator: CorelDRAW 2018 -->
<svg xmlns="http://www.w3.org/2000/svg" xml:space="preserve" width="70mm" height="21.3016mm" version="1.1" style="shape-rendering:geometricPrecision; text-rendering:geometricPrecision; image-rendering:optimizeQuality; fill-rule:evenodd; clip-rule:evenodd"
viewBox="0 0 6869.17 2090.35"
 xmlns:xlink="http://www.w3.org/1999/xlink">
 <defs>
  <style type="text/css">
   <![CDATA[
    .fil3 {fill:#F7F7F7}
    .fil0 {fill:white;fill-rule:nonzero}
    .fil4 {fill:url(#id0)}
    .fil5 {fill:url(#id1)}
    .fil1 {fill:url(#id2);fill-rule:nonzero}
    .fil2 {fill:url(#id3);fill-rule:nonzero}
   ]]>
  </style>
  <linearGradient id="id0" gradientUnits="userSpaceOnUse" x1="844" y1="1209.51" x2="513.35" y2="1311.6">
   <stop offset="0" style="stop-opacity:1; stop-color:#8B61BD"/>
   <stop offset="0.501961" style="stop-opacity:1; stop-color:#BF69DB"/>
   <stop offset="1" style="stop-opacity:1; stop-color:#8B61BD"/>
  </linearGradient>
  <linearGradient id="id1" gradientUnits="userSpaceOnUse" xlink:href="#id0" x1="1490.66" y1="1209.51" x2="1160.01" y2="1311.6">
  </linearGradient>
  <linearGradient id="id2" gradientUnits="userSpaceOnUse" xlink:href="#id0" x1="5722.72" y1="463.67" x2="5683.85" y2="700.88">
  </linearGradient>
  <linearGradient id="id3" gradientUnits="userSpaceOnUse" xlink:href="#id0" x1="4573.95" y1="1421.31" x2="4559.75" y2="1510.73">
  </linearGradient>
 </defs>
 <g id="Layer_x0020_1">
  <metadata id="CorelCorpID_0Corel-Layer"/>
  <g id="_1169476872">
   <path class="fil0" d="M6791.74 463.2l0 75.25 77.45 0 0 -75.25 -77.45 0zm-4251.79 65.54l181.37 0 0 -66.33 -453.3 0 0 66.33 188.31 0 0 485.46 77.45 0 0 -485.46 6.16 0zm812.78 210.96l-153.97 -277.29 -83.46 0 204.47 352.91 0 198.88 76.66 0 0 -197.29 206.03 -354.5 -83.42 0 -160.94 286.94 -5.36 -9.65zm694.57 11.91l0 262.59 76.67 0 0 -196.25 140.67 0 122.37 196.25 85.67 0 -130.95 -211.73 7.33 -2.46c10.7,-3.55 20.75,-8.23 30.07,-13.94 9.31,-5.7 17.98,-12.51 25.98,-20.37 8.01,-7.88 15.15,-16.57 21.31,-26 6.16,-9.4 11.45,-19.67 15.81,-30.69 4.36,-11.02 7.63,-22.32 9.8,-33.84 2.17,-11.49 3.27,-23.32 3.27,-35.39 0,-10.99 -1.06,-21.88 -3.17,-32.6 -2.1,-10.77 -5.31,-21.44 -9.5,-31.87 -4.21,-10.47 -9.28,-20.5 -15.18,-29.99 -5.92,-9.53 -12.68,-18.55 -20.22,-26.99 -7.53,-8.44 -15.78,-16.07 -24.68,-22.85 -8.91,-6.79 -18.53,-12.8 -28.7,-17.88 -10.12,-5.05 -20.79,-8.87 -31.98,-11.39 -11.16,-2.54 -22.91,-3.8 -35.19,-3.8l-239.37 0 0 66.33 233.81 0c8.58,0 16.87,1.3 24.85,3.89 7.92,2.57 15.57,6.42 22.81,11.53 7.13,5.07 13.66,10.96 19.45,17.59 5.78,6.61 10.92,14.06 15.36,22.24 4.46,8.21 7.86,17.04 10.12,26.46 2.23,9.32 3.38,19.11 3.38,29.34 0,9.88 -0.98,19.48 -2.92,28.73 -1.94,9.24 -4.89,18.16 -8.79,26.65 -3.9,8.52 -8.54,16.2 -13.85,22.98 -5.36,6.84 -11.47,12.85 -18.24,17.91 -6.91,5.16 -14.34,9.09 -22.23,11.67 -7.9,2.58 -16.3,3.89 -25.17,3.89l-238.56 0zm883.31 -289.2l0 551.79 76.67 0 0 -551.79 -76.67 0zm1025.47 551.79l-80.46 -206.97 -344.91 0 -81.04 206.97 81.21 0 55.38 -153.36 234.27 0 55.07 153.36 80.48 0zm519.82 -180.34l0 -230.06 324.55 410.39 68.74 0 0 -370.67 -77.45 0 0 238.13 -328.57 -419.25 -63.95 0 0 371.46 76.68 0zm0 180.34l0 -75.25 -76.68 0 0 75.25 76.68 0z"/>
   <polygon class="fil1" points="5741.56,462.41 5665.71,462.41 5571.85,702.15 5643.59,702.15 5703.66,535.87 5763.45,702.15 5834.75,702.15 "/>
   <g>
    <path class="fil0" d="M3747.81 1447.54l64.31 0 0 -26.64 -170.57 0 0 26.64 69.51 0 0 180.4 31.54 0 0 -180.4 5.22 0zm-1125.58 90.19l647.1 0 0 -26.62 -647.1 0 0 26.62zm3245.66 0l647.09 0 0 -26.62 -647.09 0 0 26.62zm-512.82 90.21l140.57 0 0 -26.63 -140.57 0 0 26.63zm0 -90.21l140.57 0 0 -26.62 -140.57 0 0 26.62zm0 -90.19l140.57 0 0 -26.64 -140.57 0 0 26.64zm-1286.37 -26.64l0 207.05 31.83 0 0 -72.89 50.38 0 44.73 72.89 34.42 0 -47.9 -78.96 5.42 -2.38c3.62,-1.57 7.07,-3.5 10.27,-5.76 3.16,-2.22 6.13,-4.82 8.85,-7.72 2.71,-2.89 5.13,-6.06 7.19,-9.42 2.09,-3.41 3.9,-7.12 5.35,-11.03 1.45,-3.91 2.57,-7.96 3.3,-12.08 0.75,-4.07 1.11,-8.29 1.11,-12.62 0,-4.19 -0.39,-8.32 -1.16,-12.34 -0.79,-4.11 -1.96,-8.16 -3.49,-12.08 -1.62,-4.06 -3.53,-7.9 -5.72,-11.44 -2.22,-3.6 -4.82,-7.06 -7.72,-10.28 -2.89,-3.2 -6.05,-6.11 -9.43,-8.66 -3.41,-2.55 -7.1,-4.8 -11.01,-6.67 -7.72,-3.71 -16.22,-5.59 -25.47,-5.59l-90.96 0zm90.05 107.51l-58.21 0 0 -80.87 56.36 0c3.07,0 6.06,0.48 8.99,1.41 2.88,0.9 5.62,2.3 8.22,4.09 2.52,1.74 4.85,3.85 6.96,6.26 2.09,2.34 3.94,5.02 5.52,7.95 3.28,5.99 4.95,12.92 4.95,20.72 0,3.54 -0.37,7.04 -1.04,10.35 -0.69,3.34 -1.77,6.56 -3.13,9.58 -1.4,3.03 -3.04,5.77 -4.91,8.17 -1.91,2.48 -4.09,4.67 -6.44,6.5 -2.51,1.91 -5.23,3.4 -8.11,4.37 -2.92,0.97 -5.98,1.47 -9.17,1.47zm502.09 99.53l-27.02 -73.49 -134.01 0 -27.11 73.49 32.27 0 18.19 -54.22 87.32 0 18.06 54.22 32.3 0zm255.76 -207.05l0 207.05 73.79 0c10.51,0 20.33,-1.08 29.39,-3.23 9.01,-2.14 17.32,-5.34 24.9,-9.58 7.59,-4.25 14.32,-9.37 20.17,-15.33 5.83,-5.95 10.85,-12.83 15.01,-20.57 4.15,-7.73 7.3,-16.2 9.38,-25.33 2.09,-9.17 3.15,-19.14 3.15,-29.8 0,-9.65 -0.97,-18.86 -2.87,-27.59 -1.9,-8.69 -4.76,-17.01 -8.56,-24.81 -3.75,-7.75 -8.46,-14.72 -14.08,-20.89 -5.63,-6.15 -12.25,-11.56 -19.77,-16.14 -7.51,-4.57 -15.98,-8.01 -25.32,-10.29 -9.46,-2.32 -19.94,-3.48 -31.4,-3.48l-73.79 0zm141.61 82.32c1.34,6.58 2.04,13.57 2.04,20.89 0,7.1 -0.68,13.95 -1.99,20.5 -1.33,6.55 -3.35,12.76 -6.02,18.58 -2.71,5.9 -6.04,11.22 -9.98,15.84 -3.95,4.65 -8.59,8.7 -13.8,12.09 -5.3,3.42 -11.16,6 -17.52,7.68 -6.31,1.67 -13.19,2.51 -20.56,2.51l-41.97 0 0 -153.77 41.97 0c7.27,0 14.03,0.81 20.29,2.41 6.29,1.64 12.11,4.13 17.38,7.43 5.29,3.32 9.93,7.26 13.89,11.75 3.99,4.6 7.41,9.78 10.15,15.53 2.71,5.73 4.76,11.93 6.11,18.56z"/>
    <polygon class="fil2" points="4584.72,1420.9 4549.1,1420.9 4515.8,1511.12 4544.12,1511.12 4566.92,1443.11 4589.6,1511.12 4617.89,1511.12 "/>
   </g>
  </g>
  <g id="_1169479032">
   <polygon class="fil3" points="390.71,597.03 710.69,277.01 710.69,186.57 -0,897.23 -0,987.71 323.34,664.37 323.34,1450.38 387.35,1514.39 387.35,600.38 "/>
   <polygon class="fil4" points="646.65,747.36 646.65,1773.72 710.69,1837.72 710.69,683.36 "/>
   <polygon class="fil3" points="1034.01,0 970,0 970,2090.34 1034.01,2090.34 "/>
   <polygon class="fil3" points="1293.32,277.01 1616.66,600.38 1616.66,1514.39 1680.66,1450.38 1680.66,664.37 2004,987.71 2004,897.23 1293.32,186.57 "/>
   <polygon class="fil5" points="1357.35,1773.72 1357.35,747.36 1293.32,683.36 1293.32,1837.72 "/>
  </g>
 </g>
</svg>
