<svg viewBox="0 0 16 16" fill="none" xmlns="http://www.w3.org/2000/svg">
<g clip-path="url(#clip0_89_12486)">
<path d="M6.97158 1.76C7.53965 1.191 8.46165 1.191 9.02972 1.76L9.70265 2.434C9.97565 2.70751 10.3464 2.86106 10.7328 2.86074L11.6852 2.85996C12.4893 2.85931 13.1412 3.51126 13.1406 4.31529L13.1398 5.26769C13.1395 5.65418 13.293 6.02488 13.5666 6.29795L14.2406 6.97085C14.8096 7.53892 14.8096 8.46092 14.2406 9.02898L13.5666 9.70192C13.293 9.97492 13.1395 10.3457 13.1398 10.7321L13.1406 11.6845C13.1412 12.4886 12.4893 13.1405 11.6852 13.1398L10.7328 13.1391C10.3464 13.1388 9.97565 13.2923 9.70265 13.5658L9.02972 14.2398C8.46165 14.8088 7.53965 14.8088 6.97158 14.2398L6.29868 13.5658C6.02562 13.2923 5.65491 13.1388 5.26842 13.1391L4.31602 13.1398C3.512 13.1405 2.86004 12.4886 2.8607 11.6845L2.86148 10.7321C2.8618 10.3457 2.70824 9.97492 2.43473 9.70192L1.76073 9.02898C1.19174 8.46092 1.19174 7.53892 1.76073 6.97085L2.43473 6.29795C2.70824 6.02488 2.8618 5.65418 2.86148 5.26769L2.8607 4.31529C2.86004 3.51126 3.512 2.85931 4.31602 2.85996L5.26842 2.86074C5.65491 2.86106 6.02562 2.70751 6.29868 2.434L6.97158 1.76Z" stroke="currentColor" stroke-width="1.5"/>
<path d="M6.66602 6.00008C6.66602 5.2637 7.26295 4.66675 7.99935 4.66675C8.73575 4.66675 9.33268 5.2637 9.33268 6.00008C9.33268 6.26551 9.25515 6.51283 9.12142 6.72061C8.72295 7.33988 7.99935 7.93035 7.99935 8.66675V9.00008" stroke="currentColor" stroke-width="1.5" stroke-linecap="round"/>
<path d="M7.99414 11.3333H8.00014" stroke="currentColor" stroke-width="2" stroke-linecap="round" stroke-linejoin="round"/>
</g>
<defs>
<clipPath id="clip0_89_12486">
<rect width="16" height="16" fill="none"/>
</clipPath>
</defs>
</svg>
