<svg width="44" height="44" viewBox="0 0 44 44" fill="none" xmlns="http://www.w3.org/2000/svg">
<g clip-path="url(#clip0_2_7771)">
<path d="M0 0H44V44H0V0Z" fill="#F0F3FA"/>
<path d="M11.6553 21.1672C12.7584 22.2083 13.8199 23.0828 13.8199 24.9143C13.8199 26.9124 12.8008 28.2858 10.4665 28.2858C8.81177 28.2858 7.24113 27.6195 7.11384 25.0384L7.07141 24.3572H9.32091C9.32091 25.1634 9.49377 26.0795 10.4665 26.0795C10.9764 26.0795 11.231 25.7888 11.231 25.1634C11.231 24.3305 10.2968 23.5817 9.36334 22.8329C8.00484 21.6669 7.24191 20.6683 7.24191 18.9201C7.24191 17.1294 8.30263 15.7144 10.5089 15.7144C12.2068 15.7144 13.5221 16.4639 13.6502 18.9201L13.6926 19.6429H11.528V19.1275C11.528 18.3787 11.2734 17.8374 10.5938 17.8374C10.2119 17.8374 9.83005 18.0872 9.83005 18.7119C9.78763 19.6272 10.2968 19.9604 11.6553 21.1672ZM33 18.0715H33.9373C34.4041 18.0715 34.8283 18.2538 34.8283 19.8354C34.8283 21.3754 34.3192 21.6253 33.8525 21.6253H33V18.0715ZM37.7143 28.2858L36.2709 22.5831C37.1195 21.9584 37.6294 20.8349 37.6294 19.4606C37.6294 17.1711 36.3566 15.7144 34.4041 15.7144H30.6428V28.2858H33V23.2069H33.8093L34.914 28.2858H37.7143ZM27.0191 22.0417C27.0191 25.4132 26.5524 26.1211 25.7463 26.1211H25.1428V18.0715H25.7455C26.5524 18.0715 27.0191 18.6702 27.0191 22.0417ZM22.7857 28.2858H26.0857C28.589 28.2858 29.8626 26.1628 29.8626 22.0417C29.8626 17.9206 28.5898 15.7144 26.0849 15.7144H22.7857V28.2858ZM18.9121 19.9604C18.9121 21.6669 18.4462 21.9584 18.0211 21.9584H17.2857V18.0715H18.0211C18.4454 18.0715 18.9121 18.2954 18.9121 19.9604ZM18.2333 23.9565C20.4411 23.9565 21.714 22.7072 21.714 19.9604C21.714 17.1294 20.4411 15.7144 18.4454 15.7144H14.9286V28.2858H17.2857V23.9565H18.2333Z" fill="#273F33"/>
</g>
<defs>
<clipPath id="clip0_2_7771">
<rect width="44" height="44" rx="22" fill="white"/>
</clipPath>
</defs>
</svg>
