<svg width="354" height="381" viewBox="0 0 354 381" fill="none" xmlns="http://www.w3.org/2000/svg">
<rect width="354" height="381" rx="12" fill="#181A20"/>
<mask id="path-2-inside-1_4677_16631" fill="white">
<path d="M0 24H354V73H0V24Z"/>
</mask>
<path d="M354 72H0V74H354V72Z" fill="#313338" mask="url(#path-2-inside-1_4677_16631)"/>
<path d="M25.848 48V31.08H28.92V38.568H28.968L36.432 31.08H40.176L31.248 39.912L31.272 38.52L40.584 48H36.792L28.968 40.176H28.92V48H25.848ZM46.9768 48.24C45.6488 48.24 44.5048 47.992 43.5448 47.496C42.5848 47 41.8408 46.296 41.3128 45.384C40.8008 44.472 40.5448 43.392 40.5448 42.144C40.5448 40.928 40.7928 39.864 41.2888 38.952C41.8008 38.04 42.4968 37.328 43.3768 36.816C44.2728 36.288 45.2888 36.024 46.4248 36.024C47.5448 36.024 48.5048 36.264 49.3048 36.744C50.1048 37.224 50.7208 37.904 51.1528 38.784C51.6008 39.664 51.8248 40.712 51.8248 41.928V42.816H42.9688V41.088H49.7128L49.3288 41.448C49.3288 40.36 49.0888 39.528 48.6088 38.952C48.1288 38.36 47.4408 38.064 46.5448 38.064C45.8728 38.064 45.2968 38.224 44.8168 38.544C44.3528 38.848 43.9928 39.288 43.7368 39.864C43.4968 40.424 43.3768 41.096 43.3768 41.88V42.048C43.3768 42.928 43.5128 43.656 43.7848 44.232C44.0568 44.808 44.4648 45.24 45.0088 45.528C45.5528 45.816 46.2248 45.96 47.0248 45.96C47.6808 45.96 48.3368 45.864 48.9928 45.672C49.6488 45.464 50.2488 45.144 50.7928 44.712L51.6328 46.728C51.0728 47.192 50.3688 47.56 49.5208 47.832C48.6728 48.104 47.8248 48.24 46.9768 48.24ZM55.0691 52.32L57.5171 46.92V48.168L52.3571 36.264H55.5491L59.1971 45.36H58.4771L62.1971 36.264H65.2211L58.1651 52.32H55.0691ZM73.4027 48V31.08H76.4747V48H73.4027ZM79.8647 48V36.264H82.7927V38.616H82.5287C82.8807 37.768 83.4247 37.128 84.1607 36.696C84.9127 36.248 85.7607 36.024 86.7047 36.024C87.6487 36.024 88.4247 36.2 89.0327 36.552C89.6407 36.904 90.0967 37.44 90.4007 38.16C90.7047 38.864 90.8567 39.76 90.8567 40.848V48H87.8567V40.992C87.8567 40.384 87.7767 39.888 87.6167 39.504C87.4727 39.12 87.2407 38.84 86.9207 38.664C86.6167 38.472 86.2247 38.376 85.7447 38.376C85.1687 38.376 84.6647 38.504 84.2327 38.76C83.8007 39 83.4647 39.352 83.2247 39.816C82.9847 40.264 82.8647 40.792 82.8647 41.4V48H79.8647ZM94.6958 48V38.52H92.4398V36.264H95.5598L94.6958 37.056V36.24C94.6958 34.576 95.1278 33.32 95.9918 32.472C96.8718 31.624 98.2318 31.144 100.072 31.032L101.248 30.96L101.44 33.168L100.336 33.24C99.6958 33.272 99.1838 33.392 98.7998 33.6C98.4158 33.792 98.1358 34.064 97.9598 34.416C97.7838 34.768 97.6958 35.216 97.6958 35.76V36.648L97.3118 36.264H100.888V38.52H97.6958V48H94.6958ZM107.693 48.24C106.477 48.24 105.421 47.992 104.525 47.496C103.629 47 102.933 46.296 102.437 45.384C101.941 44.456 101.693 43.368 101.693 42.12C101.693 40.872 101.941 39.792 102.437 38.88C102.933 37.968 103.629 37.264 104.525 36.768C105.421 36.272 106.477 36.024 107.693 36.024C108.909 36.024 109.965 36.272 110.861 36.768C111.757 37.264 112.453 37.968 112.949 38.88C113.445 39.792 113.693 40.872 113.693 42.12C113.693 43.368 113.445 44.456 112.949 45.384C112.453 46.296 111.757 47 110.861 47.496C109.965 47.992 108.909 48.24 107.693 48.24ZM107.693 45.96C108.589 45.96 109.309 45.64 109.853 45C110.397 44.344 110.669 43.384 110.669 42.12C110.669 40.84 110.397 39.888 109.853 39.264C109.309 38.624 108.589 38.304 107.693 38.304C106.797 38.304 106.077 38.624 105.533 39.264C104.989 39.888 104.717 40.84 104.717 42.12C104.717 43.384 104.989 44.344 105.533 45C106.077 45.64 106.797 45.96 107.693 45.96ZM116.169 48V36.264H119.097V39.096H118.857C119.081 38.136 119.521 37.408 120.177 36.912C120.833 36.4 121.705 36.104 122.793 36.024L123.705 35.952L123.897 38.496L122.169 38.664C121.193 38.76 120.457 39.064 119.961 39.576C119.465 40.072 119.217 40.776 119.217 41.688V48H116.169ZM125.616 48V36.264H128.544V38.616H128.28C128.488 38.072 128.776 37.608 129.144 37.224C129.512 36.84 129.952 36.544 130.464 36.336C130.976 36.128 131.544 36.024 132.168 36.024C133.112 36.024 133.888 36.248 134.496 36.696C135.104 37.144 135.528 37.832 135.768 38.76H135.432C135.752 37.912 136.28 37.248 137.016 36.768C137.752 36.272 138.6 36.024 139.56 36.024C140.456 36.024 141.192 36.2 141.768 36.552C142.36 36.904 142.8 37.44 143.088 38.16C143.376 38.864 143.52 39.76 143.52 40.848V48H140.52V40.968C140.52 40.072 140.368 39.416 140.064 39C139.776 38.584 139.28 38.376 138.576 38.376C138.064 38.376 137.616 38.504 137.232 38.76C136.848 39 136.552 39.352 136.344 39.816C136.152 40.28 136.056 40.84 136.056 41.496V48H133.056V40.968C133.056 40.072 132.904 39.416 132.6 39C132.312 38.584 131.824 38.376 131.136 38.376C130.608 38.376 130.152 38.504 129.768 38.76C129.4 39 129.112 39.352 128.904 39.816C128.712 40.28 128.616 40.84 128.616 41.496V48H125.616ZM150.479 48.24C149.631 48.24 148.871 48.08 148.199 47.76C147.543 47.424 147.023 46.976 146.639 46.416C146.271 45.856 146.087 45.224 146.087 44.52C146.087 43.656 146.311 42.976 146.759 42.48C147.207 41.968 147.935 41.6 148.943 41.376C149.951 41.152 151.303 41.04 152.999 41.04H154.199V42.768H153.023C152.271 42.768 151.639 42.8 151.127 42.864C150.615 42.912 150.199 43 149.879 43.128C149.575 43.24 149.351 43.4 149.207 43.608C149.079 43.816 149.015 44.072 149.015 44.376C149.015 44.904 149.199 45.336 149.567 45.672C149.935 46.008 150.447 46.176 151.103 46.176C151.631 46.176 152.095 46.056 152.495 45.816C152.911 45.56 153.239 45.216 153.479 44.784C153.719 44.352 153.839 43.856 153.839 43.296V40.536C153.839 39.736 153.663 39.16 153.311 38.808C152.959 38.456 152.367 38.28 151.535 38.28C150.879 38.28 150.207 38.384 149.519 38.592C148.831 38.784 148.135 39.088 147.431 39.504L146.567 37.464C146.983 37.176 147.471 36.928 148.031 36.72C148.607 36.496 149.207 36.328 149.831 36.216C150.471 36.088 151.071 36.024 151.631 36.024C152.783 36.024 153.727 36.2 154.463 36.552C155.215 36.904 155.775 37.44 156.143 38.16C156.511 38.864 156.695 39.776 156.695 40.896V48H153.887V45.504H154.079C153.967 46.064 153.743 46.552 153.407 46.968C153.087 47.368 152.679 47.68 152.183 47.904C151.687 48.128 151.119 48.24 150.479 48.24ZM165.116 48.24C163.548 48.24 162.38 47.848 161.612 47.064C160.844 46.28 160.46 45.136 160.46 43.632V38.52H158.204V36.264H160.46V32.76H163.46V36.264H167.012V38.52H163.46V43.464C163.46 44.232 163.628 44.808 163.964 45.192C164.3 45.576 164.844 45.768 165.596 45.768C165.82 45.768 166.052 45.744 166.292 45.696C166.532 45.632 166.78 45.568 167.036 45.504L167.492 47.712C167.204 47.872 166.836 48 166.388 48.096C165.956 48.192 165.532 48.24 165.116 48.24ZM168.759 33.744V30.816H172.119V33.744H168.759ZM168.951 48V36.264H171.951V48H168.951ZM180.42 48.24C179.204 48.24 178.148 47.992 177.252 47.496C176.356 47 175.66 46.296 175.164 45.384C174.668 44.456 174.42 43.368 174.42 42.12C174.42 40.872 174.668 39.792 175.164 38.88C175.66 37.968 176.356 37.264 177.252 36.768C178.148 36.272 179.204 36.024 180.42 36.024C181.636 36.024 182.692 36.272 183.588 36.768C184.484 37.264 185.18 37.968 185.676 38.88C186.172 39.792 186.42 40.872 186.42 42.12C186.42 43.368 186.172 44.456 185.676 45.384C185.18 46.296 184.484 47 183.588 47.496C182.692 47.992 181.636 48.24 180.42 48.24ZM180.42 45.96C181.316 45.96 182.036 45.64 182.58 45C183.124 44.344 183.396 43.384 183.396 42.12C183.396 40.84 183.124 39.888 182.58 39.264C182.036 38.624 181.316 38.304 180.42 38.304C179.524 38.304 178.804 38.624 178.26 39.264C177.716 39.888 177.444 40.84 177.444 42.12C177.444 43.384 177.716 44.344 178.26 45C178.804 45.64 179.524 45.96 180.42 45.96ZM188.896 48V36.264H191.824V38.616H191.56C191.912 37.768 192.456 37.128 193.192 36.696C193.944 36.248 194.792 36.024 195.736 36.024C196.68 36.024 197.456 36.2 198.064 36.552C198.672 36.904 199.128 37.44 199.432 38.16C199.736 38.864 199.888 39.76 199.888 40.848V48H196.888V40.992C196.888 40.384 196.808 39.888 196.648 39.504C196.504 39.12 196.272 38.84 195.952 38.664C195.648 38.472 195.256 38.376 194.776 38.376C194.2 38.376 193.696 38.504 193.264 38.76C192.832 39 192.496 39.352 192.256 39.816C192.016 40.264 191.896 40.792 191.896 41.4V48H188.896Z" fill="white"/>
<mask id="path-5-inside-2_4677_16631" fill="white">
<path d="M0 89H354V153H0V89Z"/>
</mask>
<path d="M354 152H0V154H354V152Z" fill="#23252D" mask="url(#path-5-inside-2_4677_16631)"/>
<path d="M30.24 104.15C29.07 104.15 28.08 103.93 27.27 103.49C26.47 103.05 25.86 102.425 25.44 101.615C25.02 100.805 24.81 99.845 24.81 98.735C24.81 97.615 25.025 96.65 25.455 95.84C25.885 95.02 26.505 94.39 27.315 93.95C28.125 93.5 29.095 93.275 30.225 93.275C30.725 93.275 31.2 93.325 31.65 93.425C32.11 93.515 32.535 93.65 32.925 93.83C33.315 94.01 33.65 94.23 33.93 94.49L33.285 95.99C32.815 95.62 32.335 95.355 31.845 95.195C31.355 95.035 30.815 94.955 30.225 94.955C29.105 94.955 28.255 95.28 27.675 95.93C27.105 96.58 26.82 97.515 26.82 98.735C26.82 99.965 27.115 100.9 27.705 101.54C28.295 102.18 29.17 102.5 30.33 102.5C30.73 102.5 31.135 102.46 31.545 102.38C31.955 102.3 32.355 102.19 32.745 102.05L32.37 102.905V99.71H29.94V98.285H33.975V103.37C33.655 103.53 33.285 103.67 32.865 103.79C32.455 103.9 32.025 103.985 31.575 104.045C31.125 104.115 30.68 104.15 30.24 104.15ZM38.5699 104.15C37.6999 104.15 37.0549 103.915 36.6349 103.445C36.2249 102.965 36.0199 102.265 36.0199 101.345V93.425H37.8949V101.255C37.8949 101.545 37.9349 101.795 38.0149 102.005C38.1049 102.205 38.2349 102.355 38.4049 102.455C38.5749 102.555 38.7849 102.605 39.0349 102.605C39.1449 102.605 39.2549 102.6 39.3649 102.59C39.4749 102.58 39.5799 102.56 39.6799 102.53L39.6499 104.015C39.4699 104.055 39.2899 104.085 39.1099 104.105C38.9399 104.135 38.7599 104.15 38.5699 104.15ZM44.0817 104.15C43.3217 104.15 42.6617 103.995 42.1017 103.685C41.5417 103.375 41.1067 102.935 40.7967 102.365C40.4867 101.785 40.3317 101.105 40.3317 100.325C40.3317 99.545 40.4867 98.87 40.7967 98.3C41.1067 97.73 41.5417 97.29 42.1017 96.98C42.6617 96.67 43.3217 96.515 44.0817 96.515C44.8417 96.515 45.5017 96.67 46.0617 96.98C46.6217 97.29 47.0567 97.73 47.3667 98.3C47.6767 98.87 47.8317 99.545 47.8317 100.325C47.8317 101.105 47.6767 101.785 47.3667 102.365C47.0567 102.935 46.6217 103.375 46.0617 103.685C45.5017 103.995 44.8417 104.15 44.0817 104.15ZM44.0817 102.725C44.6417 102.725 45.0917 102.525 45.4317 102.125C45.7717 101.715 45.9417 101.115 45.9417 100.325C45.9417 99.525 45.7717 98.93 45.4317 98.54C45.0917 98.14 44.6417 97.94 44.0817 97.94C43.5217 97.94 43.0717 98.14 42.7317 98.54C42.3917 98.93 42.2217 99.525 42.2217 100.325C42.2217 101.115 42.3917 101.715 42.7317 102.125C43.0717 102.525 43.5217 102.725 44.0817 102.725ZM53.6093 104.15C52.9893 104.15 52.4443 103.995 51.9743 103.685C51.5143 103.375 51.2093 102.96 51.0593 102.44H51.2093V104H49.3793V93.425H51.2543V98.15H51.0743C51.2343 97.66 51.5443 97.265 52.0043 96.965C52.4643 96.665 52.9993 96.515 53.6093 96.515C54.2593 96.515 54.8243 96.67 55.3043 96.98C55.7843 97.29 56.1593 97.73 56.4293 98.3C56.6993 98.86 56.8343 99.535 56.8343 100.325C56.8343 101.105 56.6993 101.785 56.4293 102.365C56.1593 102.935 55.7793 103.375 55.2893 103.685C54.8093 103.995 54.2493 104.15 53.6093 104.15ZM53.0843 102.725C53.6443 102.725 54.0943 102.525 54.4343 102.125C54.7743 101.715 54.9443 101.115 54.9443 100.325C54.9443 99.525 54.7743 98.93 54.4343 98.54C54.0943 98.14 53.6443 97.94 53.0843 97.94C52.5243 97.94 52.0743 98.14 51.7343 98.54C51.3943 98.93 51.2243 99.525 51.2243 100.325C51.2243 101.115 51.3943 101.715 51.7343 102.125C52.0743 102.525 52.5243 102.725 53.0843 102.725ZM60.7884 104.15C60.2584 104.15 59.7834 104.05 59.3634 103.85C58.9534 103.64 58.6284 103.36 58.3884 103.01C58.1584 102.66 58.0434 102.265 58.0434 101.825C58.0434 101.285 58.1834 100.86 58.4634 100.55C58.7434 100.23 59.1984 100 59.8284 99.86C60.4584 99.72 61.3034 99.65 62.3634 99.65H63.1134V100.73H62.3784C61.9084 100.73 61.5134 100.75 61.1934 100.79C60.8734 100.82 60.6134 100.875 60.4134 100.955C60.2234 101.025 60.0834 101.125 59.9934 101.255C59.9134 101.385 59.8734 101.545 59.8734 101.735C59.8734 102.065 59.9884 102.335 60.2184 102.545C60.4484 102.755 60.7684 102.86 61.1784 102.86C61.5084 102.86 61.7984 102.785 62.0484 102.635C62.3084 102.475 62.5134 102.26 62.6634 101.99C62.8134 101.72 62.8884 101.41 62.8884 101.06V99.335C62.8884 98.835 62.7784 98.475 62.5584 98.255C62.3384 98.035 61.9684 97.925 61.4484 97.925C61.0384 97.925 60.6184 97.99 60.1884 98.12C59.7584 98.24 59.3234 98.43 58.8834 98.69L58.3434 97.415C58.6034 97.235 58.9084 97.08 59.2584 96.95C59.6184 96.81 59.9934 96.705 60.3834 96.635C60.7834 96.555 61.1584 96.515 61.5084 96.515C62.2284 96.515 62.8184 96.625 63.2784 96.845C63.7484 97.065 64.0984 97.4 64.3284 97.85C64.5584 98.29 64.6734 98.86 64.6734 99.56V104H62.9184V102.44H63.0384C62.9684 102.79 62.8284 103.095 62.6184 103.355C62.4184 103.605 62.1634 103.8 61.8534 103.94C61.5434 104.08 61.1884 104.15 60.7884 104.15ZM69.1266 104.15C68.2566 104.15 67.6116 103.915 67.1916 103.445C66.7816 102.965 66.5766 102.265 66.5766 101.345V93.425H68.4516V101.255C68.4516 101.545 68.4916 101.795 68.5716 102.005C68.6616 102.205 68.7916 102.355 68.9616 102.455C69.1316 102.555 69.3416 102.605 69.5916 102.605C69.7016 102.605 69.8116 102.6 69.9216 102.59C70.0316 102.58 70.1366 102.56 70.2366 102.53L70.2066 104.015C70.0266 104.055 69.8466 104.085 69.6666 104.105C69.4966 104.135 69.3166 104.15 69.1266 104.15ZM75.5896 104V93.425H77.5096V104H75.5896ZM82.3583 104V95.03H78.7283V93.425H87.9083V95.03H84.2783V104H82.3583ZM93.1677 104V93.425H95.0877V104H93.1677ZM97.2064 104V96.665H99.0364V98.135H98.8714C99.0914 97.605 99.4314 97.205 99.8914 96.935C100.361 96.655 100.891 96.515 101.481 96.515C102.071 96.515 102.556 96.625 102.936 96.845C103.316 97.065 103.601 97.4 103.791 97.85C103.981 98.29 104.076 98.85 104.076 99.53V104H102.201V99.62C102.201 99.24 102.151 98.93 102.051 98.69C101.961 98.45 101.816 98.275 101.616 98.165C101.426 98.045 101.181 97.985 100.881 97.985C100.521 97.985 100.206 98.065 99.9364 98.225C99.6664 98.375 99.4564 98.595 99.3064 98.885C99.1564 99.165 99.0814 99.495 99.0814 99.875V104H97.2064ZM108.801 104.15C108.161 104.15 107.596 103.995 107.106 103.685C106.626 103.375 106.251 102.935 105.981 102.365C105.711 101.785 105.576 101.105 105.576 100.325C105.576 99.535 105.711 98.86 105.981 98.3C106.251 97.73 106.626 97.29 107.106 96.98C107.596 96.67 108.161 96.515 108.801 96.515C109.411 96.515 109.941 96.665 110.391 96.965C110.851 97.265 111.161 97.66 111.321 98.15H111.156V93.425H113.031V104H111.201V102.44H111.336C111.186 102.96 110.881 103.375 110.421 103.685C109.961 103.995 109.421 104.15 108.801 104.15ZM109.326 102.725C109.886 102.725 110.336 102.525 110.676 102.125C111.016 101.715 111.186 101.115 111.186 100.325C111.186 99.525 111.016 98.93 110.676 98.54C110.336 98.14 109.886 97.94 109.326 97.94C108.766 97.94 108.316 98.14 107.976 98.54C107.636 98.93 107.466 99.525 107.466 100.325C107.466 101.115 107.636 101.715 107.976 102.125C108.316 102.525 108.766 102.725 109.326 102.725ZM117.63 104.15C117.02 104.15 116.515 104.04 116.115 103.82C115.715 103.59 115.415 103.25 115.215 102.8C115.025 102.35 114.93 101.79 114.93 101.12V96.665H116.805V101.15C116.805 101.49 116.85 101.775 116.94 102.005C117.04 102.235 117.185 102.405 117.375 102.515C117.575 102.625 117.825 102.68 118.125 102.68C118.465 102.68 118.76 102.605 119.01 102.455C119.27 102.295 119.47 102.075 119.61 101.795C119.76 101.505 119.835 101.17 119.835 100.79V96.665H121.71V104H119.88V102.47H120.09C119.88 103.01 119.56 103.425 119.13 103.715C118.71 104.005 118.21 104.15 117.63 104.15ZM126.347 104.15C125.937 104.15 125.537 104.115 125.147 104.045C124.767 103.975 124.417 103.88 124.097 103.76C123.777 103.63 123.497 103.47 123.257 103.28L123.737 102.05C123.987 102.21 124.257 102.35 124.547 102.47C124.837 102.59 125.137 102.68 125.447 102.74C125.757 102.8 126.062 102.83 126.362 102.83C126.842 102.83 127.197 102.75 127.427 102.59C127.667 102.42 127.787 102.2 127.787 101.93C127.787 101.7 127.707 101.525 127.547 101.405C127.397 101.275 127.167 101.18 126.857 101.12L125.357 100.835C124.737 100.715 124.262 100.49 123.932 100.16C123.612 99.82 123.452 99.385 123.452 98.855C123.452 98.375 123.582 97.96 123.842 97.61C124.112 97.26 124.482 96.99 124.952 96.8C125.422 96.61 125.962 96.515 126.572 96.515C126.922 96.515 127.262 96.55 127.592 96.62C127.922 96.68 128.232 96.775 128.522 96.905C128.822 97.025 129.082 97.185 129.302 97.385L128.792 98.615C128.602 98.455 128.382 98.32 128.132 98.21C127.882 98.09 127.622 98 127.352 97.94C127.092 97.87 126.837 97.835 126.587 97.835C126.097 97.835 125.732 97.92 125.492 98.09C125.262 98.26 125.147 98.485 125.147 98.765C125.147 98.975 125.217 99.15 125.357 99.29C125.497 99.43 125.712 99.525 126.002 99.575L127.502 99.86C128.152 99.98 128.642 100.2 128.972 100.52C129.312 100.84 129.482 101.27 129.482 101.81C129.482 102.3 129.352 102.72 129.092 103.07C128.832 103.42 128.467 103.69 127.997 103.88C127.527 104.06 126.977 104.15 126.347 104.15ZM134.273 104.15C133.293 104.15 132.563 103.905 132.083 103.415C131.603 102.925 131.363 102.21 131.363 101.27V98.075H129.953V96.665H131.363V94.475H133.238V96.665H135.458V98.075H133.238V101.165C133.238 101.645 133.343 102.005 133.553 102.245C133.763 102.485 134.103 102.605 134.573 102.605C134.713 102.605 134.858 102.59 135.008 102.56C135.158 102.52 135.313 102.48 135.473 102.44L135.758 103.82C135.578 103.92 135.348 104 135.068 104.06C134.798 104.12 134.533 104.15 134.273 104.15ZM136.669 104V96.665H138.499V98.435H138.349C138.489 97.835 138.764 97.38 139.174 97.07C139.584 96.75 140.129 96.565 140.809 96.515L141.379 96.47L141.499 98.06L140.419 98.165C139.809 98.225 139.349 98.415 139.039 98.735C138.729 99.045 138.574 99.485 138.574 100.055V104H136.669ZM143.657 106.7L145.187 103.325V104.105L141.962 96.665H143.957L146.237 102.35H145.787L148.112 96.665H150.002L145.592 106.7H143.657ZM155.116 104V93.425H159.706C160.866 93.425 161.761 93.705 162.391 94.265C163.021 94.815 163.336 95.59 163.336 96.59C163.336 97.24 163.191 97.8 162.901 98.27C162.621 98.74 162.211 99.1 161.671 99.35C161.131 99.6 160.476 99.725 159.706 99.725L159.841 99.5H160.336C160.746 99.5 161.101 99.6 161.401 99.8C161.711 100 161.981 100.315 162.211 100.745L163.981 104H161.866L160.036 100.625C159.916 100.405 159.781 100.235 159.631 100.115C159.481 99.985 159.311 99.895 159.121 99.845C158.931 99.795 158.711 99.77 158.461 99.77H157.036V104H155.116ZM157.036 98.345H159.376C160.066 98.345 160.586 98.205 160.936 97.925C161.296 97.635 161.476 97.205 161.476 96.635C161.476 96.075 161.296 95.655 160.936 95.375C160.586 95.085 160.066 94.94 159.376 94.94H157.036V98.345ZM168.644 104.15C167.814 104.15 167.099 103.995 166.499 103.685C165.899 103.375 165.434 102.935 165.104 102.365C164.784 101.795 164.624 101.12 164.624 100.34C164.624 99.58 164.779 98.915 165.089 98.345C165.409 97.775 165.844 97.33 166.394 97.01C166.954 96.68 167.589 96.515 168.299 96.515C168.999 96.515 169.599 96.665 170.099 96.965C170.599 97.265 170.984 97.69 171.254 98.24C171.534 98.79 171.674 99.445 171.674 100.205V100.76H166.139V99.68H170.354L170.114 99.905C170.114 99.225 169.964 98.705 169.664 98.345C169.364 97.975 168.934 97.79 168.374 97.79C167.954 97.79 167.594 97.89 167.294 98.09C167.004 98.28 166.779 98.555 166.619 98.915C166.469 99.265 166.394 99.685 166.394 100.175V100.28C166.394 100.83 166.479 101.285 166.649 101.645C166.819 102.005 167.074 102.275 167.414 102.455C167.754 102.635 168.174 102.725 168.674 102.725C169.084 102.725 169.494 102.665 169.904 102.545C170.314 102.415 170.689 102.215 171.029 101.945L171.554 103.205C171.204 103.495 170.764 103.725 170.234 103.895C169.704 104.065 169.174 104.15 168.644 104.15ZM175.201 104L172.021 96.665H174.016L176.281 102.35H175.831L178.171 96.665H180.046L176.821 104H175.201ZM184.42 104.15C183.59 104.15 182.875 103.995 182.275 103.685C181.675 103.375 181.21 102.935 180.88 102.365C180.56 101.795 180.4 101.12 180.4 100.34C180.4 99.58 180.555 98.915 180.865 98.345C181.185 97.775 181.62 97.33 182.17 97.01C182.73 96.68 183.365 96.515 184.075 96.515C184.775 96.515 185.375 96.665 185.875 96.965C186.375 97.265 186.76 97.69 187.03 98.24C187.31 98.79 187.45 99.445 187.45 100.205V100.76H181.915V99.68H186.13L185.89 99.905C185.89 99.225 185.74 98.705 185.44 98.345C185.14 97.975 184.71 97.79 184.15 97.79C183.73 97.79 183.37 97.89 183.07 98.09C182.78 98.28 182.555 98.555 182.395 98.915C182.245 99.265 182.17 99.685 182.17 100.175V100.28C182.17 100.83 182.255 101.285 182.425 101.645C182.595 102.005 182.85 102.275 183.19 102.455C183.53 102.635 183.95 102.725 184.45 102.725C184.86 102.725 185.27 102.665 185.68 102.545C186.09 102.415 186.465 102.215 186.805 101.945L187.33 103.205C186.98 103.495 186.54 103.725 186.01 103.895C185.48 104.065 184.95 104.15 184.42 104.15ZM188.935 104V96.665H190.765V98.135H190.6C190.82 97.605 191.16 97.205 191.62 96.935C192.09 96.655 192.62 96.515 193.21 96.515C193.8 96.515 194.285 96.625 194.665 96.845C195.045 97.065 195.33 97.4 195.52 97.85C195.71 98.29 195.805 98.85 195.805 99.53V104H193.93V99.62C193.93 99.24 193.88 98.93 193.78 98.69C193.69 98.45 193.545 98.275 193.345 98.165C193.155 98.045 192.91 97.985 192.61 97.985C192.25 97.985 191.935 98.065 191.665 98.225C191.395 98.375 191.185 98.595 191.035 98.885C190.885 99.165 190.81 99.495 190.81 99.875V104H188.935ZM200.364 104.15C199.754 104.15 199.249 104.04 198.849 103.82C198.449 103.59 198.149 103.25 197.949 102.8C197.759 102.35 197.664 101.79 197.664 101.12V96.665H199.539V101.15C199.539 101.49 199.584 101.775 199.674 102.005C199.774 102.235 199.919 102.405 200.109 102.515C200.309 102.625 200.559 102.68 200.859 102.68C201.199 102.68 201.494 102.605 201.744 102.455C202.004 102.295 202.204 102.075 202.344 101.795C202.494 101.505 202.569 101.17 202.569 100.79V96.665H204.444V104H202.614V102.47H202.824C202.614 103.01 202.294 103.425 201.864 103.715C201.444 104.005 200.944 104.15 200.364 104.15ZM210.011 104.15C209.181 104.15 208.466 103.995 207.866 103.685C207.266 103.375 206.801 102.935 206.471 102.365C206.151 101.795 205.991 101.12 205.991 100.34C205.991 99.58 206.146 98.915 206.456 98.345C206.776 97.775 207.211 97.33 207.761 97.01C208.321 96.68 208.956 96.515 209.666 96.515C210.366 96.515 210.966 96.665 211.466 96.965C211.966 97.265 212.351 97.69 212.621 98.24C212.901 98.79 213.041 99.445 213.041 100.205V100.76H207.506V99.68H211.721L211.481 99.905C211.481 99.225 211.331 98.705 211.031 98.345C210.731 97.975 210.301 97.79 209.741 97.79C209.321 97.79 208.961 97.89 208.661 98.09C208.371 98.28 208.146 98.555 207.986 98.915C207.836 99.265 207.761 99.685 207.761 100.175V100.28C207.761 100.83 207.846 101.285 208.016 101.645C208.186 102.005 208.441 102.275 208.781 102.455C209.121 102.635 209.541 102.725 210.041 102.725C210.451 102.725 210.861 102.665 211.271 102.545C211.681 102.415 212.056 102.215 212.396 101.945L212.921 103.205C212.571 103.495 212.131 103.725 211.601 103.895C211.071 104.065 210.541 104.15 210.011 104.15Z" fill="#808283"/>
<path d="M27.9 133.725V131.76L28.245 132.09C27.515 132.07 26.825 131.96 26.175 131.76C25.535 131.55 24.98 131.26 24.51 130.89L25.095 129.375C25.405 129.605 25.735 129.805 26.085 129.975C26.445 130.135 26.82 130.26 27.21 130.35C27.61 130.43 28.035 130.47 28.485 130.47C29.215 130.47 29.75 130.34 30.09 130.08C30.43 129.82 30.6 129.495 30.6 129.105C30.6 128.755 30.485 128.475 30.255 128.265C30.025 128.055 29.615 127.885 29.025 127.755L27.435 127.41C26.535 127.21 25.855 126.88 25.395 126.42C24.945 125.95 24.72 125.33 24.72 124.56C24.72 123.97 24.865 123.445 25.155 122.985C25.445 122.515 25.85 122.14 26.37 121.86C26.89 121.58 27.5 121.415 28.2 121.365L27.9 121.59V119.7H29.4V121.59L29.085 121.35C29.655 121.38 30.215 121.495 30.765 121.695C31.325 121.895 31.79 122.185 32.16 122.565L31.59 124.005C31.21 123.655 30.775 123.395 30.285 123.225C29.795 123.045 29.26 122.955 28.68 122.955C28.06 122.955 27.56 123.1 27.18 123.39C26.81 123.67 26.625 124.04 26.625 124.5C26.625 124.84 26.74 125.115 26.97 125.325C27.2 125.535 27.57 125.695 28.08 125.805L29.67 126.15C30.63 126.36 31.34 126.695 31.8 127.155C32.27 127.605 32.505 128.205 32.505 128.955C32.505 129.535 32.36 130.05 32.07 130.5C31.78 130.94 31.38 131.295 30.87 131.565C30.37 131.825 29.785 131.99 29.115 132.06L29.4 131.745V133.725H27.9ZM34.1941 132V130.575L37.6141 126.93C37.9241 126.6 38.1691 126.295 38.3491 126.015C38.5391 125.735 38.6791 125.465 38.7691 125.205C38.8591 124.945 38.9041 124.685 38.9041 124.425C38.9041 123.925 38.7441 123.545 38.4241 123.285C38.1141 123.025 37.6591 122.895 37.0591 122.895C36.5891 122.895 36.1291 122.985 35.6791 123.165C35.2391 123.335 34.8141 123.605 34.4041 123.975L33.7591 122.535C34.1791 122.155 34.7041 121.85 35.3341 121.62C35.9641 121.39 36.6191 121.275 37.2991 121.275C38.0591 121.275 38.6991 121.39 39.2191 121.62C39.7391 121.85 40.1341 122.185 40.4041 122.625C40.6741 123.065 40.8091 123.6 40.8091 124.23C40.8091 124.55 40.7691 124.865 40.6891 125.175C40.6191 125.475 40.5041 125.775 40.3441 126.075C40.1941 126.375 39.9991 126.685 39.7591 127.005C39.5291 127.315 39.2491 127.64 38.9191 127.98L36.0991 130.92V130.41H41.2141V132H34.1941ZM43.6233 132V130.41H46.0083V123.045H46.9383L44.1633 124.725L43.4133 123.315L46.5633 121.425H47.9283V130.41H50.1633V132H43.6233ZM51.7924 132V129.915H53.8924V132H51.7924ZM56.3381 132V130.41H58.7231V123.045H59.6531L56.8781 124.725L56.1281 123.315L59.2781 121.425H60.6431V130.41H62.8781V132H56.3381ZM65.3323 132V130.41H67.7173V123.045H68.6473L65.8723 124.725L65.1223 123.315L68.2723 121.425H69.6373V130.41H71.8723V132H65.3323ZM76.3964 132V123.03H72.7664V121.425H81.9464V123.03H78.3164V132H76.3964Z" fill="#A06AFF"/>
<mask id="path-9-inside-3_4677_16631" fill="white">
<path d="M0 169H354V233H0V169Z"/>
</mask>
<path d="M354 232H0V234H354V232Z" fill="#23252D" mask="url(#path-9-inside-3_4677_16631)"/>
<path d="M25.155 184V173.425H27.075V184H25.155ZM31.9238 184V175.03H28.2938V173.425H37.4738V175.03H33.8438V184H31.9238ZM42.7331 184V173.425H44.6531V184H42.7331ZM46.7719 184V176.665H48.6019V178.135H48.4369C48.6569 177.605 48.9969 177.205 49.4569 176.935C49.9269 176.655 50.4569 176.515 51.0469 176.515C51.6369 176.515 52.1219 176.625 52.5019 176.845C52.8819 177.065 53.1669 177.4 53.3569 177.85C53.5469 178.29 53.6419 178.85 53.6419 179.53V184H51.7669V179.62C51.7669 179.24 51.7169 178.93 51.6169 178.69C51.5269 178.45 51.3819 178.275 51.1819 178.165C50.9919 178.045 50.7469 177.985 50.4469 177.985C50.0869 177.985 49.7719 178.065 49.5019 178.225C49.2319 178.375 49.0219 178.595 48.8719 178.885C48.7219 179.165 48.6469 179.495 48.6469 179.875V184H46.7719ZM58.3663 184.15C57.7263 184.15 57.1613 183.995 56.6713 183.685C56.1913 183.375 55.8163 182.935 55.5463 182.365C55.2763 181.785 55.1413 181.105 55.1413 180.325C55.1413 179.535 55.2763 178.86 55.5463 178.3C55.8163 177.73 56.1913 177.29 56.6713 176.98C57.1613 176.67 57.7263 176.515 58.3663 176.515C58.9763 176.515 59.5063 176.665 59.9563 176.965C60.4163 177.265 60.7263 177.66 60.8863 178.15H60.7213V173.425H62.5963V184H60.7663V182.44H60.9013C60.7513 182.96 60.4463 183.375 59.9863 183.685C59.5263 183.995 58.9863 184.15 58.3663 184.15ZM58.8913 182.725C59.4513 182.725 59.9013 182.525 60.2413 182.125C60.5813 181.715 60.7513 181.115 60.7513 180.325C60.7513 179.525 60.5813 178.93 60.2413 178.54C59.9013 178.14 59.4513 177.94 58.8913 177.94C58.3313 177.94 57.8813 178.14 57.5413 178.54C57.2013 178.93 57.0313 179.525 57.0313 180.325C57.0313 181.115 57.2013 181.715 57.5413 182.125C57.8813 182.525 58.3313 182.725 58.8913 182.725ZM67.1954 184.15C66.5854 184.15 66.0804 184.04 65.6804 183.82C65.2804 183.59 64.9804 183.25 64.7804 182.8C64.5904 182.35 64.4954 181.79 64.4954 181.12V176.665H66.3704V181.15C66.3704 181.49 66.4154 181.775 66.5054 182.005C66.6054 182.235 66.7504 182.405 66.9404 182.515C67.1404 182.625 67.3904 182.68 67.6904 182.68C68.0304 182.68 68.3254 182.605 68.5754 182.455C68.8354 182.295 69.0354 182.075 69.1754 181.795C69.3254 181.505 69.4004 181.17 69.4004 180.79V176.665H71.2754V184H69.4454V182.47H69.6554C69.4454 183.01 69.1254 183.425 68.6954 183.715C68.2754 184.005 67.7754 184.15 67.1954 184.15ZM75.912 184.15C75.502 184.15 75.102 184.115 74.712 184.045C74.332 183.975 73.982 183.88 73.662 183.76C73.342 183.63 73.062 183.47 72.822 183.28L73.302 182.05C73.552 182.21 73.822 182.35 74.112 182.47C74.402 182.59 74.702 182.68 75.012 182.74C75.322 182.8 75.627 182.83 75.927 182.83C76.407 182.83 76.762 182.75 76.992 182.59C77.232 182.42 77.352 182.2 77.352 181.93C77.352 181.7 77.272 181.525 77.112 181.405C76.962 181.275 76.732 181.18 76.422 181.12L74.922 180.835C74.302 180.715 73.827 180.49 73.497 180.16C73.177 179.82 73.017 179.385 73.017 178.855C73.017 178.375 73.147 177.96 73.407 177.61C73.677 177.26 74.047 176.99 74.517 176.8C74.987 176.61 75.527 176.515 76.137 176.515C76.487 176.515 76.827 176.55 77.157 176.62C77.487 176.68 77.797 176.775 78.087 176.905C78.387 177.025 78.647 177.185 78.867 177.385L78.357 178.615C78.167 178.455 77.947 178.32 77.697 178.21C77.447 178.09 77.187 178 76.917 177.94C76.657 177.87 76.402 177.835 76.152 177.835C75.662 177.835 75.297 177.92 75.057 178.09C74.827 178.26 74.712 178.485 74.712 178.765C74.712 178.975 74.782 179.15 74.922 179.29C75.062 179.43 75.277 179.525 75.567 179.575L77.067 179.86C77.717 179.98 78.207 180.2 78.537 180.52C78.877 180.84 79.047 181.27 79.047 181.81C79.047 182.3 78.917 182.72 78.657 183.07C78.397 183.42 78.032 183.69 77.562 183.88C77.092 184.06 76.542 184.15 75.912 184.15ZM83.8379 184.15C82.8579 184.15 82.1279 183.905 81.6479 183.415C81.1679 182.925 80.9279 182.21 80.9279 181.27V178.075H79.5179V176.665H80.9279V174.475H82.8029V176.665H85.0229V178.075H82.8029V181.165C82.8029 181.645 82.9079 182.005 83.1179 182.245C83.3279 182.485 83.6679 182.605 84.1379 182.605C84.2779 182.605 84.4229 182.59 84.5729 182.56C84.7229 182.52 84.8779 182.48 85.0379 182.44L85.3229 183.82C85.1429 183.92 84.9129 184 84.6329 184.06C84.3629 184.12 84.0979 184.15 83.8379 184.15ZM86.2348 184V176.665H88.0648V178.435H87.9148C88.0548 177.835 88.3298 177.38 88.7398 177.07C89.1498 176.75 89.6948 176.565 90.3748 176.515L90.9448 176.47L91.0648 178.06L89.9848 178.165C89.3748 178.225 88.9148 178.415 88.6048 178.735C88.2948 179.045 88.1398 179.485 88.1398 180.055V184H86.2348ZM93.2229 186.7L94.7529 183.325V184.105L91.5279 176.665H93.5229L95.8029 182.35H95.3529L97.6779 176.665H99.5679L95.1579 186.7H93.2229ZM104.681 184V173.425H109.271C110.051 173.425 110.711 173.555 111.251 173.815C111.791 174.075 112.201 174.45 112.481 174.94C112.761 175.43 112.901 176.025 112.901 176.725C112.901 177.415 112.761 178.01 112.481 178.51C112.201 179 111.791 179.38 111.251 179.65C110.711 179.91 110.051 180.04 109.271 180.04H106.601V184H104.681ZM106.601 178.525H108.971C109.651 178.525 110.166 178.375 110.516 178.075C110.866 177.765 111.041 177.315 111.041 176.725C111.041 176.135 110.866 175.69 110.516 175.39C110.166 175.09 109.651 174.94 108.971 174.94H106.601V178.525ZM114.14 184V176.665H115.97V178.435H115.82C115.96 177.835 116.235 177.38 116.645 177.07C117.055 176.75 117.6 176.565 118.28 176.515L118.85 176.47L118.97 178.06L117.89 178.165C117.28 178.225 116.82 178.415 116.51 178.735C116.2 179.045 116.045 179.485 116.045 180.055V184H114.14ZM123.242 184.15C122.482 184.15 121.822 183.995 121.262 183.685C120.702 183.375 120.267 182.935 119.957 182.365C119.647 181.785 119.492 181.105 119.492 180.325C119.492 179.545 119.647 178.87 119.957 178.3C120.267 177.73 120.702 177.29 121.262 176.98C121.822 176.67 122.482 176.515 123.242 176.515C124.002 176.515 124.662 176.67 125.222 176.98C125.782 177.29 126.217 177.73 126.527 178.3C126.837 178.87 126.992 179.545 126.992 180.325C126.992 181.105 126.837 181.785 126.527 182.365C126.217 182.935 125.782 183.375 125.222 183.685C124.662 183.995 124.002 184.15 123.242 184.15ZM123.242 182.725C123.802 182.725 124.252 182.525 124.592 182.125C124.932 181.715 125.102 181.115 125.102 180.325C125.102 179.525 124.932 178.93 124.592 178.54C124.252 178.14 123.802 177.94 123.242 177.94C122.682 177.94 122.232 178.14 121.892 178.54C121.552 178.93 121.382 179.525 121.382 180.325C121.382 181.115 121.552 181.715 121.892 182.125C122.232 182.525 122.682 182.725 123.242 182.725ZM131.359 184.15C130.719 184.15 130.154 183.995 129.664 183.685C129.184 183.375 128.809 182.935 128.539 182.365C128.269 181.785 128.134 181.105 128.134 180.325C128.134 179.535 128.269 178.86 128.539 178.3C128.809 177.73 129.184 177.29 129.664 176.98C130.154 176.67 130.719 176.515 131.359 176.515C131.969 176.515 132.499 176.665 132.949 176.965C133.409 177.265 133.719 177.66 133.879 178.15H133.714V173.425H135.589V184H133.759V182.44H133.894C133.744 182.96 133.439 183.375 132.979 183.685C132.519 183.995 131.979 184.15 131.359 184.15ZM131.884 182.725C132.444 182.725 132.894 182.525 133.234 182.125C133.574 181.715 133.744 181.115 133.744 180.325C133.744 179.525 133.574 178.93 133.234 178.54C132.894 178.14 132.444 177.94 131.884 177.94C131.324 177.94 130.874 178.14 130.534 178.54C130.194 178.93 130.024 179.525 130.024 180.325C130.024 181.115 130.194 181.715 130.534 182.125C130.874 182.525 131.324 182.725 131.884 182.725ZM140.189 184.15C139.579 184.15 139.074 184.04 138.674 183.82C138.274 183.59 137.974 183.25 137.774 182.8C137.584 182.35 137.489 181.79 137.489 181.12V176.665H139.364V181.15C139.364 181.49 139.409 181.775 139.499 182.005C139.599 182.235 139.744 182.405 139.934 182.515C140.134 182.625 140.384 182.68 140.684 182.68C141.024 182.68 141.319 182.605 141.569 182.455C141.829 182.295 142.029 182.075 142.169 181.795C142.319 181.505 142.394 181.17 142.394 180.79V176.665H144.269V184H142.439V182.47H142.649C142.439 183.01 142.119 183.425 141.689 183.715C141.269 184.005 140.769 184.15 140.189 184.15ZM149.61 184.15C148.84 184.15 148.17 183.995 147.6 183.685C147.03 183.365 146.59 182.915 146.28 182.335C145.97 181.755 145.815 181.075 145.815 180.295C145.815 179.515 145.97 178.845 146.28 178.285C146.59 177.715 147.03 177.28 147.6 176.98C148.17 176.67 148.84 176.515 149.61 176.515C150.08 176.515 150.545 176.59 151.005 176.74C151.465 176.89 151.845 177.1 152.145 177.37L151.59 178.675C151.33 178.445 151.035 178.27 150.705 178.15C150.385 178.03 150.075 177.97 149.775 177.97C149.125 177.97 148.62 178.175 148.26 178.585C147.91 178.985 147.735 179.56 147.735 180.31C147.735 181.05 147.91 181.635 148.26 182.065C148.62 182.485 149.125 182.695 149.775 182.695C150.065 182.695 150.375 182.635 150.705 182.515C151.035 182.395 151.33 182.215 151.59 181.975L152.145 183.295C151.845 183.555 151.46 183.765 150.99 183.925C150.53 184.075 150.07 184.15 149.61 184.15ZM156.685 184.15C155.705 184.15 154.975 183.905 154.495 183.415C154.015 182.925 153.775 182.21 153.775 181.27V178.075H152.365V176.665H153.775V174.475H155.65V176.665H157.87V178.075H155.65V181.165C155.65 181.645 155.755 182.005 155.965 182.245C156.175 182.485 156.515 182.605 156.985 182.605C157.125 182.605 157.27 182.59 157.42 182.56C157.57 182.52 157.725 182.48 157.885 182.44L158.17 183.82C157.99 183.92 157.76 184 157.48 184.06C157.21 184.12 156.945 184.15 156.685 184.15ZM158.961 175.09V173.26H161.061V175.09H158.961ZM159.081 184V176.665H160.956V184H159.081ZM166.25 184.15C165.49 184.15 164.83 183.995 164.27 183.685C163.71 183.375 163.275 182.935 162.965 182.365C162.655 181.785 162.5 181.105 162.5 180.325C162.5 179.545 162.655 178.87 162.965 178.3C163.275 177.73 163.71 177.29 164.27 176.98C164.83 176.67 165.49 176.515 166.25 176.515C167.01 176.515 167.67 176.67 168.23 176.98C168.79 177.29 169.225 177.73 169.535 178.3C169.845 178.87 170 179.545 170 180.325C170 181.105 169.845 181.785 169.535 182.365C169.225 182.935 168.79 183.375 168.23 183.685C167.67 183.995 167.01 184.15 166.25 184.15ZM166.25 182.725C166.81 182.725 167.26 182.525 167.6 182.125C167.94 181.715 168.11 181.115 168.11 180.325C168.11 179.525 167.94 178.93 167.6 178.54C167.26 178.14 166.81 177.94 166.25 177.94C165.69 177.94 165.24 178.14 164.9 178.54C164.56 178.93 164.39 179.525 164.39 180.325C164.39 181.115 164.56 181.715 164.9 182.125C165.24 182.525 165.69 182.725 166.25 182.725ZM171.547 184V176.665H173.377V178.135H173.212C173.432 177.605 173.772 177.205 174.232 176.935C174.702 176.655 175.232 176.515 175.822 176.515C176.412 176.515 176.897 176.625 177.277 176.845C177.657 177.065 177.942 177.4 178.132 177.85C178.322 178.29 178.417 178.85 178.417 179.53V184H176.542V179.62C176.542 179.24 176.492 178.93 176.392 178.69C176.302 178.45 176.157 178.275 175.957 178.165C175.767 178.045 175.522 177.985 175.222 177.985C174.862 177.985 174.547 178.065 174.277 178.225C174.007 178.375 173.797 178.595 173.647 178.885C173.497 179.165 173.422 179.495 173.422 179.875V184H171.547ZM187.935 184L183.225 173.425H185.28L189.105 182.29H188.46L192.27 173.425H194.25L189.54 184H187.935ZM197.466 184.15C196.706 184.15 196.046 183.995 195.486 183.685C194.926 183.375 194.491 182.935 194.181 182.365C193.871 181.785 193.716 181.105 193.716 180.325C193.716 179.545 193.871 178.87 194.181 178.3C194.491 177.73 194.926 177.29 195.486 176.98C196.046 176.67 196.706 176.515 197.466 176.515C198.226 176.515 198.886 176.67 199.446 176.98C200.006 177.29 200.441 177.73 200.751 178.3C201.061 178.87 201.216 179.545 201.216 180.325C201.216 181.105 201.061 181.785 200.751 182.365C200.441 182.935 200.006 183.375 199.446 183.685C198.886 183.995 198.226 184.15 197.466 184.15ZM197.466 182.725C198.026 182.725 198.476 182.525 198.816 182.125C199.156 181.715 199.326 181.115 199.326 180.325C199.326 179.525 199.156 178.93 198.816 178.54C198.476 178.14 198.026 177.94 197.466 177.94C196.906 177.94 196.456 178.14 196.116 178.54C195.776 178.93 195.606 179.525 195.606 180.325C195.606 181.115 195.776 181.715 196.116 182.125C196.456 182.525 196.906 182.725 197.466 182.725ZM205.313 184.15C204.443 184.15 203.798 183.915 203.378 183.445C202.968 182.965 202.763 182.265 202.763 181.345V173.425H204.638V181.255C204.638 181.545 204.678 181.795 204.758 182.005C204.848 182.205 204.978 182.355 205.148 182.455C205.318 182.555 205.528 182.605 205.778 182.605C205.888 182.605 205.998 182.6 206.108 182.59C206.218 182.58 206.323 182.56 206.423 182.53L206.393 184.015C206.213 184.055 206.033 184.085 205.853 184.105C205.683 184.135 205.503 184.15 205.313 184.15ZM210.208 184.15C209.598 184.15 209.093 184.04 208.693 183.82C208.293 183.59 207.993 183.25 207.793 182.8C207.603 182.35 207.508 181.79 207.508 181.12V176.665H209.383V181.15C209.383 181.49 209.428 181.775 209.518 182.005C209.618 182.235 209.763 182.405 209.953 182.515C210.153 182.625 210.403 182.68 210.703 182.68C211.043 182.68 211.338 182.605 211.588 182.455C211.848 182.295 212.048 182.075 212.188 181.795C212.338 181.505 212.413 181.17 212.413 180.79V176.665H214.288V184H212.458V182.47H212.668C212.458 183.01 212.138 183.425 211.708 183.715C211.288 184.005 210.788 184.15 210.208 184.15ZM216.27 184V176.665H218.1V178.135H217.935C218.065 177.795 218.245 177.505 218.475 177.265C218.705 177.025 218.98 176.84 219.3 176.71C219.62 176.58 219.975 176.515 220.365 176.515C220.955 176.515 221.44 176.655 221.82 176.935C222.2 177.215 222.465 177.645 222.615 178.225H222.405C222.605 177.695 222.935 177.28 223.395 176.98C223.855 176.67 224.385 176.515 224.985 176.515C225.545 176.515 226.005 176.625 226.365 176.845C226.735 177.065 227.01 177.4 227.19 177.85C227.37 178.29 227.46 178.85 227.46 179.53V184H225.585V179.605C225.585 179.045 225.49 178.635 225.3 178.375C225.12 178.115 224.81 177.985 224.37 177.985C224.05 177.985 223.77 178.065 223.53 178.225C223.29 178.375 223.105 178.595 222.975 178.885C222.855 179.175 222.795 179.525 222.795 179.935V184H220.92V179.605C220.92 179.045 220.825 178.635 220.635 178.375C220.455 178.115 220.15 177.985 219.72 177.985C219.39 177.985 219.105 178.065 218.865 178.225C218.635 178.375 218.455 178.595 218.325 178.885C218.205 179.175 218.145 179.525 218.145 179.935V184H216.27ZM233.009 184.15C232.179 184.15 231.464 183.995 230.864 183.685C230.264 183.375 229.799 182.935 229.469 182.365C229.149 181.795 228.989 181.12 228.989 180.34C228.989 179.58 229.144 178.915 229.454 178.345C229.774 177.775 230.209 177.33 230.759 177.01C231.319 176.68 231.954 176.515 232.664 176.515C233.364 176.515 233.964 176.665 234.464 176.965C234.964 177.265 235.349 177.69 235.619 178.24C235.899 178.79 236.039 179.445 236.039 180.205V180.76H230.504V179.68H234.719L234.479 179.905C234.479 179.225 234.329 178.705 234.029 178.345C233.729 177.975 233.299 177.79 232.739 177.79C232.319 177.79 231.959 177.89 231.659 178.09C231.369 178.28 231.144 178.555 230.984 178.915C230.834 179.265 230.759 179.685 230.759 180.175V180.28C230.759 180.83 230.844 181.285 231.014 181.645C231.184 182.005 231.439 182.275 231.779 182.455C232.119 182.635 232.539 182.725 233.039 182.725C233.449 182.725 233.859 182.665 234.269 182.545C234.679 182.415 235.054 182.215 235.394 181.945L235.919 183.205C235.569 183.495 235.129 183.725 234.599 183.895C234.069 184.065 233.539 184.15 233.009 184.15Z" fill="#808283"/>
<path d="M27.9 213.725V211.76L28.245 212.09C27.515 212.07 26.825 211.96 26.175 211.76C25.535 211.55 24.98 211.26 24.51 210.89L25.095 209.375C25.405 209.605 25.735 209.805 26.085 209.975C26.445 210.135 26.82 210.26 27.21 210.35C27.61 210.43 28.035 210.47 28.485 210.47C29.215 210.47 29.75 210.34 30.09 210.08C30.43 209.82 30.6 209.495 30.6 209.105C30.6 208.755 30.485 208.475 30.255 208.265C30.025 208.055 29.615 207.885 29.025 207.755L27.435 207.41C26.535 207.21 25.855 206.88 25.395 206.42C24.945 205.95 24.72 205.33 24.72 204.56C24.72 203.97 24.865 203.445 25.155 202.985C25.445 202.515 25.85 202.14 26.37 201.86C26.89 201.58 27.5 201.415 28.2 201.365L27.9 201.59V199.7H29.4V201.59L29.085 201.35C29.655 201.38 30.215 201.495 30.765 201.695C31.325 201.895 31.79 202.185 32.16 202.565L31.59 204.005C31.21 203.655 30.775 203.395 30.285 203.225C29.795 203.045 29.26 202.955 28.68 202.955C28.06 202.955 27.56 203.1 27.18 203.39C26.81 203.67 26.625 204.04 26.625 204.5C26.625 204.84 26.74 205.115 26.97 205.325C27.2 205.535 27.57 205.695 28.08 205.805L29.67 206.15C30.63 206.36 31.34 206.695 31.8 207.155C32.27 207.605 32.505 208.205 32.505 208.955C32.505 209.535 32.36 210.05 32.07 210.5C31.78 210.94 31.38 211.295 30.87 211.565C30.37 211.825 29.785 211.99 29.115 212.06L29.4 211.745V213.725H27.9ZM34.1941 212V210.575L37.6141 206.93C37.9241 206.6 38.1691 206.295 38.3491 206.015C38.5391 205.735 38.6791 205.465 38.7691 205.205C38.8591 204.945 38.9041 204.685 38.9041 204.425C38.9041 203.925 38.7441 203.545 38.4241 203.285C38.1141 203.025 37.6591 202.895 37.0591 202.895C36.5891 202.895 36.1291 202.985 35.6791 203.165C35.2391 203.335 34.8141 203.605 34.4041 203.975L33.7591 202.535C34.1791 202.155 34.7041 201.85 35.3341 201.62C35.9641 201.39 36.6191 201.275 37.2991 201.275C38.0591 201.275 38.6991 201.39 39.2191 201.62C39.7391 201.85 40.1341 202.185 40.4041 202.625C40.6741 203.065 40.8091 203.6 40.8091 204.23C40.8091 204.55 40.7691 204.865 40.6891 205.175C40.6191 205.475 40.5041 205.775 40.3441 206.075C40.1941 206.375 39.9991 206.685 39.7591 207.005C39.5291 207.315 39.2491 207.64 38.9191 207.98L36.0991 210.92V210.41H41.2141V212H34.1941ZM43.6233 212V210.41H46.0083V203.045H46.9383L44.1633 204.725L43.4133 203.315L46.5633 201.425H47.9283V210.41H50.1633V212H43.6233ZM51.7924 212V209.915H53.8924V212H51.7924ZM56.3381 212V210.41H58.7231V203.045H59.6531L56.8781 204.725L56.1281 203.315L59.2781 201.425H60.6431V210.41H62.8781V212H56.3381ZM65.3323 212V210.41H67.7173V203.045H68.6473L65.8723 204.725L65.1223 203.315L68.2723 201.425H69.6373V210.41H71.8723V212H65.3323ZM76.3964 212V203.03H72.7664V201.425H81.9464V203.03H78.3164V212H76.3964Z" fill="#A06AFF"/>
<mask id="path-13-inside-4_4677_16631" fill="white">
<path d="M0 249H354V313H0V249Z"/>
</mask>
<path d="M354 312H0V314H354V312Z" fill="#23252D" mask="url(#path-13-inside-4_4677_16631)"/>
<path d="M30.24 264.15C29.07 264.15 28.08 263.93 27.27 263.49C26.47 263.05 25.86 262.425 25.44 261.615C25.02 260.805 24.81 259.845 24.81 258.735C24.81 257.615 25.025 256.65 25.455 255.84C25.885 255.02 26.505 254.39 27.315 253.95C28.125 253.5 29.095 253.275 30.225 253.275C30.725 253.275 31.2 253.325 31.65 253.425C32.11 253.515 32.535 253.65 32.925 253.83C33.315 254.01 33.65 254.23 33.93 254.49L33.285 255.99C32.815 255.62 32.335 255.355 31.845 255.195C31.355 255.035 30.815 254.955 30.225 254.955C29.105 254.955 28.255 255.28 27.675 255.93C27.105 256.58 26.82 257.515 26.82 258.735C26.82 259.965 27.115 260.9 27.705 261.54C28.295 262.18 29.17 262.5 30.33 262.5C30.73 262.5 31.135 262.46 31.545 262.38C31.955 262.3 32.355 262.19 32.745 262.05L32.37 262.905V259.71H29.94V258.285H33.975V263.37C33.655 263.53 33.285 263.67 32.865 263.79C32.455 263.9 32.025 263.985 31.575 264.045C31.125 264.115 30.68 264.15 30.24 264.15ZM38.5699 264.15C37.6999 264.15 37.0549 263.915 36.6349 263.445C36.2249 262.965 36.0199 262.265 36.0199 261.345V253.425H37.8949V261.255C37.8949 261.545 37.9349 261.795 38.0149 262.005C38.1049 262.205 38.2349 262.355 38.4049 262.455C38.5749 262.555 38.7849 262.605 39.0349 262.605C39.1449 262.605 39.2549 262.6 39.3649 262.59C39.4749 262.58 39.5799 262.56 39.6799 262.53L39.6499 264.015C39.4699 264.055 39.2899 264.085 39.1099 264.105C38.9399 264.135 38.7599 264.15 38.5699 264.15ZM44.0817 264.15C43.3217 264.15 42.6617 263.995 42.1017 263.685C41.5417 263.375 41.1067 262.935 40.7967 262.365C40.4867 261.785 40.3317 261.105 40.3317 260.325C40.3317 259.545 40.4867 258.87 40.7967 258.3C41.1067 257.73 41.5417 257.29 42.1017 256.98C42.6617 256.67 43.3217 256.515 44.0817 256.515C44.8417 256.515 45.5017 256.67 46.0617 256.98C46.6217 257.29 47.0567 257.73 47.3667 258.3C47.6767 258.87 47.8317 259.545 47.8317 260.325C47.8317 261.105 47.6767 261.785 47.3667 262.365C47.0567 262.935 46.6217 263.375 46.0617 263.685C45.5017 263.995 44.8417 264.15 44.0817 264.15ZM44.0817 262.725C44.6417 262.725 45.0917 262.525 45.4317 262.125C45.7717 261.715 45.9417 261.115 45.9417 260.325C45.9417 259.525 45.7717 258.93 45.4317 258.54C45.0917 258.14 44.6417 257.94 44.0817 257.94C43.5217 257.94 43.0717 258.14 42.7317 258.54C42.3917 258.93 42.2217 259.525 42.2217 260.325C42.2217 261.115 42.3917 261.715 42.7317 262.125C43.0717 262.525 43.5217 262.725 44.0817 262.725ZM53.6093 264.15C52.9893 264.15 52.4443 263.995 51.9743 263.685C51.5143 263.375 51.2093 262.96 51.0593 262.44H51.2093V264H49.3793V253.425H51.2543V258.15H51.0743C51.2343 257.66 51.5443 257.265 52.0043 256.965C52.4643 256.665 52.9993 256.515 53.6093 256.515C54.2593 256.515 54.8243 256.67 55.3043 256.98C55.7843 257.29 56.1593 257.73 56.4293 258.3C56.6993 258.86 56.8343 259.535 56.8343 260.325C56.8343 261.105 56.6993 261.785 56.4293 262.365C56.1593 262.935 55.7793 263.375 55.2893 263.685C54.8093 263.995 54.2493 264.15 53.6093 264.15ZM53.0843 262.725C53.6443 262.725 54.0943 262.525 54.4343 262.125C54.7743 261.715 54.9443 261.115 54.9443 260.325C54.9443 259.525 54.7743 258.93 54.4343 258.54C54.0943 258.14 53.6443 257.94 53.0843 257.94C52.5243 257.94 52.0743 258.14 51.7343 258.54C51.3943 258.93 51.2243 259.525 51.2243 260.325C51.2243 261.115 51.3943 261.715 51.7343 262.125C52.0743 262.525 52.5243 262.725 53.0843 262.725ZM60.7884 264.15C60.2584 264.15 59.7834 264.05 59.3634 263.85C58.9534 263.64 58.6284 263.36 58.3884 263.01C58.1584 262.66 58.0434 262.265 58.0434 261.825C58.0434 261.285 58.1834 260.86 58.4634 260.55C58.7434 260.23 59.1984 260 59.8284 259.86C60.4584 259.72 61.3034 259.65 62.3634 259.65H63.1134V260.73H62.3784C61.9084 260.73 61.5134 260.75 61.1934 260.79C60.8734 260.82 60.6134 260.875 60.4134 260.955C60.2234 261.025 60.0834 261.125 59.9934 261.255C59.9134 261.385 59.8734 261.545 59.8734 261.735C59.8734 262.065 59.9884 262.335 60.2184 262.545C60.4484 262.755 60.7684 262.86 61.1784 262.86C61.5084 262.86 61.7984 262.785 62.0484 262.635C62.3084 262.475 62.5134 262.26 62.6634 261.99C62.8134 261.72 62.8884 261.41 62.8884 261.06V259.335C62.8884 258.835 62.7784 258.475 62.5584 258.255C62.3384 258.035 61.9684 257.925 61.4484 257.925C61.0384 257.925 60.6184 257.99 60.1884 258.12C59.7584 258.24 59.3234 258.43 58.8834 258.69L58.3434 257.415C58.6034 257.235 58.9084 257.08 59.2584 256.95C59.6184 256.81 59.9934 256.705 60.3834 256.635C60.7834 256.555 61.1584 256.515 61.5084 256.515C62.2284 256.515 62.8184 256.625 63.2784 256.845C63.7484 257.065 64.0984 257.4 64.3284 257.85C64.5584 258.29 64.6734 258.86 64.6734 259.56V264H62.9184V262.44H63.0384C62.9684 262.79 62.8284 263.095 62.6184 263.355C62.4184 263.605 62.1634 263.8 61.8534 263.94C61.5434 264.08 61.1884 264.15 60.7884 264.15ZM69.1266 264.15C68.2566 264.15 67.6116 263.915 67.1916 263.445C66.7816 262.965 66.5766 262.265 66.5766 261.345V253.425H68.4516V261.255C68.4516 261.545 68.4916 261.795 68.5716 262.005C68.6616 262.205 68.7916 262.355 68.9616 262.455C69.1316 262.555 69.3416 262.605 69.5916 262.605C69.7016 262.605 69.8116 262.6 69.9216 262.59C70.0316 262.58 70.1366 262.56 70.2366 262.53L70.2066 264.015C70.0266 264.055 69.8466 264.085 69.6666 264.105C69.4966 264.135 69.3166 264.15 69.1266 264.15ZM75.5896 264V253.425H77.5096V264H75.5896ZM82.3583 264V255.03H78.7283V253.425H87.9083V255.03H84.2783V264H82.3583ZM93.1677 264V253.425H95.0877V264H93.1677ZM97.2064 264V256.665H99.0364V258.135H98.8714C99.0914 257.605 99.4314 257.205 99.8914 256.935C100.361 256.655 100.891 256.515 101.481 256.515C102.071 256.515 102.556 256.625 102.936 256.845C103.316 257.065 103.601 257.4 103.791 257.85C103.981 258.29 104.076 258.85 104.076 259.53V264H102.201V259.62C102.201 259.24 102.151 258.93 102.051 258.69C101.961 258.45 101.816 258.275 101.616 258.165C101.426 258.045 101.181 257.985 100.881 257.985C100.521 257.985 100.206 258.065 99.9364 258.225C99.6664 258.375 99.4564 258.595 99.3064 258.885C99.1564 259.165 99.0814 259.495 99.0814 259.875V264H97.2064ZM108.801 264.15C108.161 264.15 107.596 263.995 107.106 263.685C106.626 263.375 106.251 262.935 105.981 262.365C105.711 261.785 105.576 261.105 105.576 260.325C105.576 259.535 105.711 258.86 105.981 258.3C106.251 257.73 106.626 257.29 107.106 256.98C107.596 256.67 108.161 256.515 108.801 256.515C109.411 256.515 109.941 256.665 110.391 256.965C110.851 257.265 111.161 257.66 111.321 258.15H111.156V253.425H113.031V264H111.201V262.44H111.336C111.186 262.96 110.881 263.375 110.421 263.685C109.961 263.995 109.421 264.15 108.801 264.15ZM109.326 262.725C109.886 262.725 110.336 262.525 110.676 262.125C111.016 261.715 111.186 261.115 111.186 260.325C111.186 259.525 111.016 258.93 110.676 258.54C110.336 258.14 109.886 257.94 109.326 257.94C108.766 257.94 108.316 258.14 107.976 258.54C107.636 258.93 107.466 259.525 107.466 260.325C107.466 261.115 107.636 261.715 107.976 262.125C108.316 262.525 108.766 262.725 109.326 262.725ZM117.63 264.15C117.02 264.15 116.515 264.04 116.115 263.82C115.715 263.59 115.415 263.25 115.215 262.8C115.025 262.35 114.93 261.79 114.93 261.12V256.665H116.805V261.15C116.805 261.49 116.85 261.775 116.94 262.005C117.04 262.235 117.185 262.405 117.375 262.515C117.575 262.625 117.825 262.68 118.125 262.68C118.465 262.68 118.76 262.605 119.01 262.455C119.27 262.295 119.47 262.075 119.61 261.795C119.76 261.505 119.835 261.17 119.835 260.79V256.665H121.71V264H119.88V262.47H120.09C119.88 263.01 119.56 263.425 119.13 263.715C118.71 264.005 118.21 264.15 117.63 264.15ZM126.347 264.15C125.937 264.15 125.537 264.115 125.147 264.045C124.767 263.975 124.417 263.88 124.097 263.76C123.777 263.63 123.497 263.47 123.257 263.28L123.737 262.05C123.987 262.21 124.257 262.35 124.547 262.47C124.837 262.59 125.137 262.68 125.447 262.74C125.757 262.8 126.062 262.83 126.362 262.83C126.842 262.83 127.197 262.75 127.427 262.59C127.667 262.42 127.787 262.2 127.787 261.93C127.787 261.7 127.707 261.525 127.547 261.405C127.397 261.275 127.167 261.18 126.857 261.12L125.357 260.835C124.737 260.715 124.262 260.49 123.932 260.16C123.612 259.82 123.452 259.385 123.452 258.855C123.452 258.375 123.582 257.96 123.842 257.61C124.112 257.26 124.482 256.99 124.952 256.8C125.422 256.61 125.962 256.515 126.572 256.515C126.922 256.515 127.262 256.55 127.592 256.62C127.922 256.68 128.232 256.775 128.522 256.905C128.822 257.025 129.082 257.185 129.302 257.385L128.792 258.615C128.602 258.455 128.382 258.32 128.132 258.21C127.882 258.09 127.622 258 127.352 257.94C127.092 257.87 126.837 257.835 126.587 257.835C126.097 257.835 125.732 257.92 125.492 258.09C125.262 258.26 125.147 258.485 125.147 258.765C125.147 258.975 125.217 259.15 125.357 259.29C125.497 259.43 125.712 259.525 126.002 259.575L127.502 259.86C128.152 259.98 128.642 260.2 128.972 260.52C129.312 260.84 129.482 261.27 129.482 261.81C129.482 262.3 129.352 262.72 129.092 263.07C128.832 263.42 128.467 263.69 127.997 263.88C127.527 264.06 126.977 264.15 126.347 264.15ZM134.273 264.15C133.293 264.15 132.563 263.905 132.083 263.415C131.603 262.925 131.363 262.21 131.363 261.27V258.075H129.953V256.665H131.363V254.475H133.238V256.665H135.458V258.075H133.238V261.165C133.238 261.645 133.343 262.005 133.553 262.245C133.763 262.485 134.103 262.605 134.573 262.605C134.713 262.605 134.858 262.59 135.008 262.56C135.158 262.52 135.313 262.48 135.473 262.44L135.758 263.82C135.578 263.92 135.348 264 135.068 264.06C134.798 264.12 134.533 264.15 134.273 264.15ZM136.669 264V256.665H138.499V258.435H138.349C138.489 257.835 138.764 257.38 139.174 257.07C139.584 256.75 140.129 256.565 140.809 256.515L141.379 256.47L141.499 258.06L140.419 258.165C139.809 258.225 139.349 258.415 139.039 258.735C138.729 259.045 138.574 259.485 138.574 260.055V264H136.669ZM143.657 266.7L145.187 263.325V264.105L141.962 256.665H143.957L146.237 262.35H145.787L148.112 256.665H150.002L145.592 266.7H143.657ZM155.116 264V253.425H157.036V264H155.116ZM159.155 264V256.665H160.985V258.135H160.82C161.04 257.605 161.38 257.205 161.84 256.935C162.31 256.655 162.84 256.515 163.43 256.515C164.02 256.515 164.505 256.625 164.885 256.845C165.265 257.065 165.55 257.4 165.74 257.85C165.93 258.29 166.025 258.85 166.025 259.53V264H164.15V259.62C164.15 259.24 164.1 258.93 164 258.69C163.91 258.45 163.765 258.275 163.565 258.165C163.375 258.045 163.13 257.985 162.83 257.985C162.47 257.985 162.155 258.065 161.885 258.225C161.615 258.375 161.405 258.595 161.255 258.885C161.105 259.165 161.03 259.495 161.03 259.875V264H159.155ZM171.319 264.15C170.549 264.15 169.879 263.995 169.309 263.685C168.739 263.365 168.299 262.915 167.989 262.335C167.679 261.755 167.524 261.075 167.524 260.295C167.524 259.515 167.679 258.845 167.989 258.285C168.299 257.715 168.739 257.28 169.309 256.98C169.879 256.67 170.549 256.515 171.319 256.515C171.789 256.515 172.254 256.59 172.714 256.74C173.174 256.89 173.554 257.1 173.854 257.37L173.299 258.675C173.039 258.445 172.744 258.27 172.414 258.15C172.094 258.03 171.784 257.97 171.484 257.97C170.834 257.97 170.329 258.175 169.969 258.585C169.619 258.985 169.444 259.56 169.444 260.31C169.444 261.05 169.619 261.635 169.969 262.065C170.329 262.485 170.834 262.695 171.484 262.695C171.774 262.695 172.084 262.635 172.414 262.515C172.744 262.395 173.039 262.215 173.299 261.975L173.854 263.295C173.554 263.555 173.169 263.765 172.699 263.925C172.239 264.075 171.779 264.15 171.319 264.15ZM178.203 264.15C177.443 264.15 176.783 263.995 176.223 263.685C175.663 263.375 175.228 262.935 174.918 262.365C174.608 261.785 174.453 261.105 174.453 260.325C174.453 259.545 174.608 258.87 174.918 258.3C175.228 257.73 175.663 257.29 176.223 256.98C176.783 256.67 177.443 256.515 178.203 256.515C178.963 256.515 179.623 256.67 180.183 256.98C180.743 257.29 181.178 257.73 181.488 258.3C181.798 258.87 181.953 259.545 181.953 260.325C181.953 261.105 181.798 261.785 181.488 262.365C181.178 262.935 180.743 263.375 180.183 263.685C179.623 263.995 178.963 264.15 178.203 264.15ZM178.203 262.725C178.763 262.725 179.213 262.525 179.553 262.125C179.893 261.715 180.063 261.115 180.063 260.325C180.063 259.525 179.893 258.93 179.553 258.54C179.213 258.14 178.763 257.94 178.203 257.94C177.643 257.94 177.193 258.14 176.853 258.54C176.513 258.93 176.343 259.525 176.343 260.325C176.343 261.115 176.513 261.715 176.853 262.125C177.193 262.525 177.643 262.725 178.203 262.725ZM183.53 264V256.665H185.36V258.135H185.195C185.325 257.795 185.505 257.505 185.735 257.265C185.965 257.025 186.24 256.84 186.56 256.71C186.88 256.58 187.235 256.515 187.625 256.515C188.215 256.515 188.7 256.655 189.08 256.935C189.46 257.215 189.725 257.645 189.875 258.225H189.665C189.865 257.695 190.195 257.28 190.655 256.98C191.115 256.67 191.645 256.515 192.245 256.515C192.805 256.515 193.265 256.625 193.625 256.845C193.995 257.065 194.27 257.4 194.45 257.85C194.63 258.29 194.72 258.85 194.72 259.53V264H192.845V259.605C192.845 259.045 192.75 258.635 192.56 258.375C192.38 258.115 192.07 257.985 191.63 257.985C191.31 257.985 191.03 258.065 190.79 258.225C190.55 258.375 190.365 258.595 190.235 258.885C190.115 259.175 190.055 259.525 190.055 259.935V264H188.18V259.605C188.18 259.045 188.085 258.635 187.895 258.375C187.715 258.115 187.41 257.985 186.98 257.985C186.65 257.985 186.365 258.065 186.125 258.225C185.895 258.375 185.715 258.595 185.585 258.885C185.465 259.175 185.405 259.525 185.405 259.935V264H183.53ZM200.27 264.15C199.44 264.15 198.725 263.995 198.125 263.685C197.525 263.375 197.06 262.935 196.73 262.365C196.41 261.795 196.25 261.12 196.25 260.34C196.25 259.58 196.405 258.915 196.715 258.345C197.035 257.775 197.47 257.33 198.02 257.01C198.58 256.68 199.215 256.515 199.925 256.515C200.625 256.515 201.225 256.665 201.725 256.965C202.225 257.265 202.61 257.69 202.88 258.24C203.16 258.79 203.3 259.445 203.3 260.205V260.76H197.765V259.68H201.98L201.74 259.905C201.74 259.225 201.59 258.705 201.29 258.345C200.99 257.975 200.56 257.79 200 257.79C199.58 257.79 199.22 257.89 198.92 258.09C198.63 258.28 198.405 258.555 198.245 258.915C198.095 259.265 198.02 259.685 198.02 260.175V260.28C198.02 260.83 198.105 261.285 198.275 261.645C198.445 262.005 198.7 262.275 199.04 262.455C199.38 262.635 199.8 262.725 200.3 262.725C200.71 262.725 201.12 262.665 201.53 262.545C201.94 262.415 202.315 262.215 202.655 261.945L203.18 263.205C202.83 263.495 202.39 263.725 201.86 263.895C201.33 264.065 200.8 264.15 200.27 264.15Z" fill="#808283"/>
<path d="M27.9 293.725V291.76L28.245 292.09C27.515 292.07 26.825 291.96 26.175 291.76C25.535 291.55 24.98 291.26 24.51 290.89L25.095 289.375C25.405 289.605 25.735 289.805 26.085 289.975C26.445 290.135 26.82 290.26 27.21 290.35C27.61 290.43 28.035 290.47 28.485 290.47C29.215 290.47 29.75 290.34 30.09 290.08C30.43 289.82 30.6 289.495 30.6 289.105C30.6 288.755 30.485 288.475 30.255 288.265C30.025 288.055 29.615 287.885 29.025 287.755L27.435 287.41C26.535 287.21 25.855 286.88 25.395 286.42C24.945 285.95 24.72 285.33 24.72 284.56C24.72 283.97 24.865 283.445 25.155 282.985C25.445 282.515 25.85 282.14 26.37 281.86C26.89 281.58 27.5 281.415 28.2 281.365L27.9 281.59V279.7H29.4V281.59L29.085 281.35C29.655 281.38 30.215 281.495 30.765 281.695C31.325 281.895 31.79 282.185 32.16 282.565L31.59 284.005C31.21 283.655 30.775 283.395 30.285 283.225C29.795 283.045 29.26 282.955 28.68 282.955C28.06 282.955 27.56 283.1 27.18 283.39C26.81 283.67 26.625 284.04 26.625 284.5C26.625 284.84 26.74 285.115 26.97 285.325C27.2 285.535 27.57 285.695 28.08 285.805L29.67 286.15C30.63 286.36 31.34 286.695 31.8 287.155C32.27 287.605 32.505 288.205 32.505 288.955C32.505 289.535 32.36 290.05 32.07 290.5C31.78 290.94 31.38 291.295 30.87 291.565C30.37 291.825 29.785 291.99 29.115 292.06L29.4 291.745V293.725H27.9ZM34.1941 292V290.575L37.6141 286.93C37.9241 286.6 38.1691 286.295 38.3491 286.015C38.5391 285.735 38.6791 285.465 38.7691 285.205C38.8591 284.945 38.9041 284.685 38.9041 284.425C38.9041 283.925 38.7441 283.545 38.4241 283.285C38.1141 283.025 37.6591 282.895 37.0591 282.895C36.5891 282.895 36.1291 282.985 35.6791 283.165C35.2391 283.335 34.8141 283.605 34.4041 283.975L33.7591 282.535C34.1791 282.155 34.7041 281.85 35.3341 281.62C35.9641 281.39 36.6191 281.275 37.2991 281.275C38.0591 281.275 38.6991 281.39 39.2191 281.62C39.7391 281.85 40.1341 282.185 40.4041 282.625C40.6741 283.065 40.8091 283.6 40.8091 284.23C40.8091 284.55 40.7691 284.865 40.6891 285.175C40.6191 285.475 40.5041 285.775 40.3441 286.075C40.1941 286.375 39.9991 286.685 39.7591 287.005C39.5291 287.315 39.2491 287.64 38.9191 287.98L36.0991 290.92V290.41H41.2141V292H34.1941ZM43.6233 292V290.41H46.0083V283.045H46.9383L44.1633 284.725L43.4133 283.315L46.5633 281.425H47.9283V290.41H50.1633V292H43.6233ZM51.7924 292V289.915H53.8924V292H51.7924ZM56.3381 292V290.41H58.7231V283.045H59.6531L56.8781 284.725L56.1281 283.315L59.2781 281.425H60.6431V290.41H62.8781V292H56.3381ZM65.3323 292V290.41H67.7173V283.045H68.6473L65.8723 284.725L65.1223 283.315L68.2723 281.425H69.6373V290.41H71.8723V292H65.3323ZM76.3964 292V283.03H72.7664V281.425H81.9464V283.03H78.3164V292H76.3964Z" fill="#A06AFF"/>
<path d="M117.685 352V341.425H119.29L123.28 348.79H122.8L126.775 341.425H128.35V352H126.61V344.275H126.94L123.58 350.395H122.455L119.065 344.26H119.425V352H117.685ZM133.842 352.15C133.082 352.15 132.422 351.995 131.862 351.685C131.302 351.375 130.867 350.935 130.557 350.365C130.247 349.785 130.092 349.105 130.092 348.325C130.092 347.545 130.247 346.87 130.557 346.3C130.867 345.73 131.302 345.29 131.862 344.98C132.422 344.67 133.082 344.515 133.842 344.515C134.602 344.515 135.262 344.67 135.822 344.98C136.382 345.29 136.817 345.73 137.127 346.3C137.437 346.87 137.592 347.545 137.592 348.325C137.592 349.105 137.437 349.785 137.127 350.365C136.817 350.935 136.382 351.375 135.822 351.685C135.262 351.995 134.602 352.15 133.842 352.15ZM133.842 350.725C134.402 350.725 134.852 350.525 135.192 350.125C135.532 349.715 135.702 349.115 135.702 348.325C135.702 347.525 135.532 346.93 135.192 346.54C134.852 346.14 134.402 345.94 133.842 345.94C133.282 345.94 132.832 346.14 132.492 346.54C132.152 346.93 131.982 347.525 131.982 348.325C131.982 349.115 132.152 349.715 132.492 350.125C132.832 350.525 133.282 350.725 133.842 350.725ZM139.14 352V344.665H140.97V346.435H140.82C140.96 345.835 141.235 345.38 141.645 345.07C142.055 344.75 142.6 344.565 143.28 344.515L143.85 344.47L143.97 346.06L142.89 346.165C142.28 346.225 141.82 346.415 141.51 346.735C141.2 347.045 141.045 347.485 141.045 348.055V352H139.14ZM148.512 352.15C147.682 352.15 146.967 351.995 146.367 351.685C145.767 351.375 145.302 350.935 144.972 350.365C144.652 349.795 144.492 349.12 144.492 348.34C144.492 347.58 144.647 346.915 144.957 346.345C145.277 345.775 145.712 345.33 146.262 345.01C146.822 344.68 147.457 344.515 148.167 344.515C148.867 344.515 149.467 344.665 149.967 344.965C150.467 345.265 150.852 345.69 151.122 346.24C151.402 346.79 151.542 347.445 151.542 348.205V348.76H146.007V347.68H150.222L149.982 347.905C149.982 347.225 149.832 346.705 149.532 346.345C149.232 345.975 148.802 345.79 148.242 345.79C147.822 345.79 147.462 345.89 147.162 346.09C146.872 346.28 146.647 346.555 146.487 346.915C146.337 347.265 146.262 347.685 146.262 348.175V348.28C146.262 348.83 146.347 349.285 146.517 349.645C146.687 350.005 146.942 350.275 147.282 350.455C147.622 350.635 148.042 350.725 148.542 350.725C148.952 350.725 149.362 350.665 149.772 350.545C150.182 350.415 150.557 350.215 150.897 349.945L151.422 351.205C151.072 351.495 150.632 351.725 150.102 351.895C149.572 352.065 149.042 352.15 148.512 352.15ZM157.25 352V341.425H159.17V352H157.25ZM161.288 352V344.665H163.118V346.135H162.953C163.173 345.605 163.513 345.205 163.973 344.935C164.443 344.655 164.973 344.515 165.563 344.515C166.153 344.515 166.638 344.625 167.018 344.845C167.398 345.065 167.683 345.4 167.873 345.85C168.063 346.29 168.158 346.85 168.158 347.53V352H166.283V347.62C166.283 347.24 166.233 346.93 166.133 346.69C166.043 346.45 165.898 346.275 165.698 346.165C165.508 346.045 165.263 345.985 164.963 345.985C164.603 345.985 164.288 346.065 164.018 346.225C163.748 346.375 163.538 346.595 163.388 346.885C163.238 347.165 163.163 347.495 163.163 347.875V352H161.288ZM170.558 352V346.075H169.148V344.665H171.098L170.558 345.16V344.65C170.558 343.61 170.828 342.825 171.368 342.295C171.918 341.765 172.768 341.465 173.918 341.395L174.653 341.35L174.773 342.73L174.083 342.775C173.683 342.795 173.363 342.87 173.123 343C172.883 343.12 172.708 343.29 172.598 343.51C172.488 343.73 172.433 344.01 172.433 344.35V344.905L172.193 344.665H174.428V346.075H172.433V352H170.558ZM178.681 352.15C177.921 352.15 177.261 351.995 176.701 351.685C176.141 351.375 175.706 350.935 175.396 350.365C175.086 349.785 174.931 349.105 174.931 348.325C174.931 347.545 175.086 346.87 175.396 346.3C175.706 345.73 176.141 345.29 176.701 344.98C177.261 344.67 177.921 344.515 178.681 344.515C179.441 344.515 180.101 344.67 180.661 344.98C181.221 345.29 181.656 345.73 181.966 346.3C182.276 346.87 182.431 347.545 182.431 348.325C182.431 349.105 182.276 349.785 181.966 350.365C181.656 350.935 181.221 351.375 180.661 351.685C180.101 351.995 179.441 352.15 178.681 352.15ZM178.681 350.725C179.241 350.725 179.691 350.525 180.031 350.125C180.371 349.715 180.541 349.115 180.541 348.325C180.541 347.525 180.371 346.93 180.031 346.54C179.691 346.14 179.241 345.94 178.681 345.94C178.121 345.94 177.671 346.14 177.331 346.54C176.991 346.93 176.821 347.525 176.821 348.325C176.821 349.115 176.991 349.715 177.331 350.125C177.671 350.525 178.121 350.725 178.681 350.725ZM183.979 352V344.665H185.809V346.435H185.659C185.799 345.835 186.074 345.38 186.484 345.07C186.894 344.75 187.439 344.565 188.119 344.515L188.689 344.47L188.809 346.06L187.729 346.165C187.119 346.225 186.659 346.415 186.349 346.735C186.039 347.045 185.884 347.485 185.884 348.055V352H183.979ZM189.883 352V344.665H191.713V346.135H191.548C191.678 345.795 191.858 345.505 192.088 345.265C192.318 345.025 192.593 344.84 192.913 344.71C193.233 344.58 193.588 344.515 193.978 344.515C194.568 344.515 195.053 344.655 195.433 344.935C195.813 345.215 196.078 345.645 196.228 346.225H196.018C196.218 345.695 196.548 345.28 197.008 344.98C197.468 344.67 197.998 344.515 198.598 344.515C199.158 344.515 199.618 344.625 199.978 344.845C200.348 345.065 200.623 345.4 200.803 345.85C200.983 346.29 201.073 346.85 201.073 347.53V352H199.198V347.605C199.198 347.045 199.103 346.635 198.913 346.375C198.733 346.115 198.423 345.985 197.983 345.985C197.663 345.985 197.383 346.065 197.143 346.225C196.903 346.375 196.718 346.595 196.588 346.885C196.468 347.175 196.408 347.525 196.408 347.935V352H194.533V347.605C194.533 347.045 194.438 346.635 194.248 346.375C194.068 346.115 193.763 345.985 193.333 345.985C193.003 345.985 192.718 346.065 192.478 346.225C192.248 346.375 192.068 346.595 191.938 346.885C191.818 347.175 191.758 347.525 191.758 347.935V352H189.883ZM205.422 352.15C204.892 352.15 204.417 352.05 203.997 351.85C203.587 351.64 203.262 351.36 203.022 351.01C202.792 350.66 202.677 350.265 202.677 349.825C202.677 349.285 202.817 348.86 203.097 348.55C203.377 348.23 203.832 348 204.462 347.86C205.092 347.72 205.937 347.65 206.997 347.65H207.747V348.73H207.012C206.542 348.73 206.147 348.75 205.827 348.79C205.507 348.82 205.247 348.875 205.047 348.955C204.857 349.025 204.717 349.125 204.627 349.255C204.547 349.385 204.507 349.545 204.507 349.735C204.507 350.065 204.622 350.335 204.852 350.545C205.082 350.755 205.402 350.86 205.812 350.86C206.142 350.86 206.432 350.785 206.682 350.635C206.942 350.475 207.147 350.26 207.297 349.99C207.447 349.72 207.522 349.41 207.522 349.06V347.335C207.522 346.835 207.412 346.475 207.192 346.255C206.972 346.035 206.602 345.925 206.082 345.925C205.672 345.925 205.252 345.99 204.822 346.12C204.392 346.24 203.957 346.43 203.517 346.69L202.977 345.415C203.237 345.235 203.542 345.08 203.892 344.95C204.252 344.81 204.627 344.705 205.017 344.635C205.417 344.555 205.792 344.515 206.142 344.515C206.862 344.515 207.452 344.625 207.912 344.845C208.382 345.065 208.732 345.4 208.962 345.85C209.192 346.29 209.307 346.86 209.307 347.56V352H207.552V350.44H207.672C207.602 350.79 207.462 351.095 207.252 351.355C207.052 351.605 206.797 351.8 206.487 351.94C206.177 352.08 205.822 352.15 205.422 352.15ZM214.57 352.15C213.59 352.15 212.86 351.905 212.38 351.415C211.9 350.925 211.66 350.21 211.66 349.27V346.075H210.25V344.665H211.66V342.475H213.535V344.665H215.755V346.075H213.535V349.165C213.535 349.645 213.64 350.005 213.85 350.245C214.06 350.485 214.4 350.605 214.87 350.605C215.01 350.605 215.155 350.59 215.305 350.56C215.455 350.52 215.61 350.48 215.77 350.44L216.055 351.82C215.875 351.92 215.645 352 215.365 352.06C215.095 352.12 214.83 352.15 214.57 352.15ZM216.847 343.09V341.26H218.947V343.09H216.847ZM216.967 352V344.665H218.842V352H216.967ZM224.135 352.15C223.375 352.15 222.715 351.995 222.155 351.685C221.595 351.375 221.16 350.935 220.85 350.365C220.54 349.785 220.385 349.105 220.385 348.325C220.385 347.545 220.54 346.87 220.85 346.3C221.16 345.73 221.595 345.29 222.155 344.98C222.715 344.67 223.375 344.515 224.135 344.515C224.895 344.515 225.555 344.67 226.115 344.98C226.675 345.29 227.11 345.73 227.42 346.3C227.73 346.87 227.885 347.545 227.885 348.325C227.885 349.105 227.73 349.785 227.42 350.365C227.11 350.935 226.675 351.375 226.115 351.685C225.555 351.995 224.895 352.15 224.135 352.15ZM224.135 350.725C224.695 350.725 225.145 350.525 225.485 350.125C225.825 349.715 225.995 349.115 225.995 348.325C225.995 347.525 225.825 346.93 225.485 346.54C225.145 346.14 224.695 345.94 224.135 345.94C223.575 345.94 223.125 346.14 222.785 346.54C222.445 346.93 222.275 347.525 222.275 348.325C222.275 349.115 222.445 349.715 222.785 350.125C223.125 350.525 223.575 350.725 224.135 350.725ZM229.433 352V344.665H231.263V346.135H231.098C231.318 345.605 231.658 345.205 232.118 344.935C232.588 344.655 233.118 344.515 233.708 344.515C234.298 344.515 234.783 344.625 235.163 344.845C235.543 345.065 235.828 345.4 236.018 345.85C236.208 346.29 236.303 346.85 236.303 347.53V352H234.428V347.62C234.428 347.24 234.378 346.93 234.278 346.69C234.188 346.45 234.043 346.275 233.843 346.165C233.653 346.045 233.408 345.985 233.108 345.985C232.748 345.985 232.433 346.065 232.163 346.225C231.893 346.375 231.683 346.595 231.533 346.885C231.383 347.165 231.308 347.495 231.308 347.875V352H229.433Z" fill="#A06AFF"/>
</svg>
