<svg width="384" height="131" viewBox="0 0 384 131" fill="none" xmlns="http://www.w3.org/2000/svg">
<rect width="384" height="131" rx="8" fill="#181A20"/>
<path opacity="0.4" d="M21.174 29.117C20.2467 29.117 19.4537 28.9263 18.795 28.545C18.1363 28.1637 17.6293 27.622 17.274 26.92C16.9273 26.2093 16.754 25.373 16.754 24.411C16.754 23.449 16.9273 22.617 17.274 21.915C17.6293 21.213 18.1363 20.6713 18.795 20.29C19.4537 19.9087 20.2467 19.718 21.174 19.718C21.798 19.718 22.3787 19.8177 22.916 20.017C23.462 20.2077 23.917 20.485 24.281 20.849L23.813 21.928C23.4143 21.5727 23.0027 21.317 22.578 21.161C22.162 20.9963 21.707 20.914 21.213 20.914C20.225 20.914 19.471 21.2173 18.951 21.824C18.431 22.4307 18.171 23.293 18.171 24.411C18.171 25.529 18.431 26.3957 18.951 27.011C19.471 27.6177 20.225 27.921 21.213 27.921C21.707 27.921 22.162 27.843 22.578 27.687C23.0027 27.5223 23.4143 27.2623 23.813 26.907L24.281 27.986C23.917 28.35 23.462 28.6317 22.916 28.831C22.3787 29.0217 21.798 29.117 21.174 29.117ZM27.0992 29V23.709H24.8632V22.656H30.6612V23.709H28.4122V29H27.0992ZM34.4455 29.117C33.8041 29.117 33.2495 28.9827 32.7815 28.714C32.3221 28.4453 31.9625 28.064 31.7025 27.57C31.4425 27.076 31.3125 26.4953 31.3125 25.828C31.3125 25.152 31.4425 24.5713 31.7025 24.086C31.9625 23.592 32.3221 23.2107 32.7815 22.942C33.2495 22.6733 33.8041 22.539 34.4455 22.539C35.0781 22.539 35.6241 22.6733 36.0835 22.942C36.5515 23.2107 36.9155 23.592 37.1755 24.086C37.4355 24.58 37.5655 25.1607 37.5655 25.828C37.5655 26.4953 37.4355 27.076 37.1755 27.57C36.9155 28.064 36.5515 28.4453 36.0835 28.714C35.6241 28.9827 35.0781 29.117 34.4455 29.117ZM34.4325 28.103C34.9785 28.103 35.4161 27.908 35.7455 27.518C36.0748 27.128 36.2395 26.5647 36.2395 25.828C36.2395 25.0827 36.0748 24.5193 35.7455 24.138C35.4161 23.7567 34.9785 23.566 34.4325 23.566C33.8951 23.566 33.4618 23.7567 33.1325 24.138C32.8031 24.5193 32.6385 25.0827 32.6385 25.828C32.6385 26.5647 32.8031 27.128 33.1325 27.518C33.4618 27.908 33.8951 28.103 34.4325 28.103ZM39.1794 29V22.656H40.3754V27.7H40.0374L43.8074 22.656H44.9124V29H43.7164V23.956H44.0674L40.2844 29H39.1794ZM46.8855 29V22.656H47.9645L50.2655 26.673L52.5535 22.656H53.6325V29H52.4755V24.177H52.7745L50.5775 27.973H49.9405L47.7435 24.177H48.0425V29H46.8855ZM58.3761 29.117C57.7348 29.117 57.1801 28.9827 56.7121 28.714C56.2528 28.4453 55.8931 28.064 55.6331 27.57C55.3731 27.076 55.2431 26.4953 55.2431 25.828C55.2431 25.152 55.3731 24.5713 55.6331 24.086C55.8931 23.592 56.2528 23.2107 56.7121 22.942C57.1801 22.6733 57.7348 22.539 58.3761 22.539C59.0088 22.539 59.5548 22.6733 60.0141 22.942C60.4821 23.2107 60.8461 23.592 61.1061 24.086C61.3661 24.58 61.4961 25.1607 61.4961 25.828C61.4961 26.4953 61.3661 27.076 61.1061 27.57C60.8461 28.064 60.4821 28.4453 60.0141 28.714C59.5548 28.9827 59.0088 29.117 58.3761 29.117ZM58.3631 28.103C58.9091 28.103 59.3468 27.908 59.6761 27.518C60.0055 27.128 60.1701 26.5647 60.1701 25.828C60.1701 25.0827 60.0055 24.5193 59.6761 24.138C59.3468 23.7567 58.9091 23.566 58.3631 23.566C57.8258 23.566 57.3925 23.7567 57.0631 24.138C56.7338 24.5193 56.5691 25.0827 56.5691 25.828C56.5691 26.5647 56.7338 27.128 57.0631 27.518C57.3925 27.908 57.8258 28.103 58.3631 28.103ZM65.9181 29.117C65.2681 29.117 64.7047 28.9827 64.2281 28.714C63.7601 28.4367 63.3961 28.051 63.1361 27.557C62.8761 27.0543 62.7461 26.465 62.7461 25.789C62.7461 25.1217 62.8761 24.5453 63.1361 24.06C63.3961 23.5747 63.7601 23.202 64.2281 22.942C64.7047 22.6733 65.2681 22.539 65.9181 22.539C66.3167 22.539 66.7111 22.6083 67.1011 22.747C67.4911 22.877 67.8117 23.0677 68.0631 23.319L67.6471 24.242C67.4131 24.0167 67.1487 23.852 66.8541 23.748C66.5594 23.6353 66.2821 23.579 66.0221 23.579C65.4067 23.579 64.9301 23.774 64.5921 24.164C64.2627 24.5453 64.0981 25.0913 64.0981 25.802C64.0981 26.5127 64.2627 27.0717 64.5921 27.479C64.9301 27.8777 65.4067 28.077 66.0221 28.077C66.2821 28.077 66.5594 28.025 66.8541 27.921C67.1487 27.8083 67.4131 27.6393 67.6471 27.414L68.0631 28.35C67.8117 28.584 67.4867 28.7703 67.0881 28.909C66.6981 29.0477 66.3081 29.117 65.9181 29.117ZM70.6568 29V23.709H68.4208V22.656H74.2188V23.709H71.9698V29H70.6568ZM75.2722 29V22.656H76.5852V24.853H78.3922C79.2068 24.853 79.8265 25.0307 80.2512 25.386C80.6758 25.7327 80.8882 26.2397 80.8882 26.907C80.8882 27.3317 80.7885 27.7043 80.5892 28.025C80.3898 28.337 80.1038 28.5797 79.7312 28.753C79.3585 28.9177 78.9122 29 78.3922 29H75.2722ZM76.5852 28.103H78.2232C78.6738 28.103 79.0248 28.0077 79.2762 27.817C79.5275 27.6177 79.6532 27.3143 79.6532 26.907C79.6532 26.5083 79.5275 26.218 79.2762 26.036C79.0248 25.8453 78.6738 25.75 78.2232 25.75H76.5852V28.103Z" fill="white"/>
<path d="M17.44 56V54.29L21.544 49.916C21.916 49.52 22.21 49.154 22.426 48.818C22.654 48.482 22.822 48.158 22.93 47.846C23.038 47.534 23.092 47.222 23.092 46.91C23.092 46.31 22.9 45.854 22.516 45.542C22.144 45.23 21.598 45.074 20.878 45.074C20.314 45.074 19.762 45.182 19.222 45.398C18.694 45.602 18.184 45.926 17.692 46.37L16.918 44.642C17.422 44.186 18.052 43.82 18.808 43.544C19.564 43.268 20.35 43.13 21.166 43.13C22.078 43.13 22.846 43.268 23.47 43.544C24.094 43.82 24.568 44.222 24.892 44.75C25.216 45.278 25.378 45.92 25.378 46.676C25.378 47.06 25.33 47.438 25.234 47.81C25.15 48.17 25.012 48.53 24.82 48.89C24.64 49.25 24.406 49.622 24.118 50.006C23.842 50.378 23.506 50.768 23.11 51.176L19.726 54.704V54.092H25.864V56H17.44ZM32.661 56.18C31.617 56.18 30.723 55.934 29.979 55.442C29.247 54.938 28.689 54.218 28.305 53.282C27.921 52.346 27.729 51.212 27.729 49.88C27.729 48.44 27.945 47.222 28.377 46.226C28.809 45.218 29.433 44.45 30.249 43.922C31.065 43.394 32.043 43.13 33.183 43.13C33.627 43.13 34.071 43.19 34.515 43.31C34.971 43.418 35.397 43.58 35.793 43.796C36.201 44 36.561 44.252 36.873 44.552L36.117 46.28C35.673 45.872 35.199 45.572 34.695 45.38C34.191 45.176 33.675 45.074 33.147 45.074C32.631 45.074 32.169 45.17 31.761 45.362C31.365 45.542 31.029 45.818 30.753 46.19C30.477 46.55 30.267 47.006 30.123 47.558C29.991 48.098 29.925 48.728 29.925 49.448V50.798H29.709C29.805 50.186 30.003 49.664 30.303 49.232C30.615 48.788 31.011 48.452 31.491 48.224C31.971 47.984 32.505 47.864 33.093 47.864C33.825 47.864 34.473 48.038 35.037 48.386C35.601 48.734 36.045 49.214 36.369 49.826C36.693 50.438 36.855 51.14 36.855 51.932C36.855 52.748 36.675 53.48 36.315 54.128C35.967 54.764 35.475 55.268 34.839 55.64C34.215 56 33.489 56.18 32.661 56.18ZM32.535 54.344C32.967 54.344 33.345 54.248 33.669 54.056C34.005 53.864 34.263 53.594 34.443 53.246C34.623 52.886 34.713 52.478 34.713 52.022C34.713 51.554 34.623 51.146 34.443 50.798C34.263 50.45 34.005 50.18 33.669 49.988C33.345 49.784 32.967 49.682 32.535 49.682C32.103 49.682 31.725 49.784 31.401 49.988C31.077 50.18 30.819 50.45 30.627 50.798C30.447 51.146 30.357 51.554 30.357 52.022C30.357 52.478 30.447 52.886 30.627 53.246C30.819 53.594 31.077 53.864 31.401 54.056C31.725 54.248 32.103 54.344 32.535 54.344ZM44.3995 56V54.092H47.2615V45.254H48.3775L45.0475 47.27L44.1475 45.578L47.9275 43.31H49.5655V54.092H52.2475V56H44.3995ZM54.6705 56V54.29L58.7745 49.916C59.1465 49.52 59.4405 49.154 59.6565 48.818C59.8845 48.482 60.0525 48.158 60.1605 47.846C60.2685 47.534 60.3225 47.222 60.3225 46.91C60.3225 46.31 60.1305 45.854 59.7465 45.542C59.3745 45.23 58.8285 45.074 58.1085 45.074C57.5445 45.074 56.9925 45.182 56.4525 45.398C55.9245 45.602 55.4145 45.926 54.9225 46.37L54.1485 44.642C54.6525 44.186 55.2825 43.82 56.0385 43.544C56.7945 43.268 57.5805 43.13 58.3965 43.13C59.3085 43.13 60.0765 43.268 60.7005 43.544C61.3245 43.82 61.7985 44.222 62.1225 44.75C62.4465 45.278 62.6085 45.92 62.6085 46.676C62.6085 47.06 62.5605 47.438 62.4645 47.81C62.3805 48.17 62.2425 48.53 62.0505 48.89C61.8705 49.25 61.6365 49.622 61.3485 50.006C61.0725 50.378 60.7365 50.768 60.3405 51.176L56.9565 54.704V54.092H63.0945V56H54.6705ZM65.5714 56L71.7094 44.444V45.236H65.0134V43.31H73.8514V45.038L68.1094 56H65.5714ZM75.7884 56V53.498H78.3084V56H75.7884ZM85.5633 56V53.588H80.0373V51.896L85.9593 43.31H87.8673V51.68H89.6493V53.588H87.8673V56H85.5633ZM85.5633 51.68V46.064H86.0853L81.8373 52.292V51.68H85.5633ZM96.3562 56V53.588H90.8302V51.896L96.7522 43.31H98.6602V51.68H100.442V53.588H98.6602V56H96.3562ZM96.3562 51.68V46.064H96.8782L92.6302 52.292V51.68H96.3562ZM107.591 56V53.498H106.061V51.914H107.591V50.69H106.061V49.106H107.591V43.31H111.893C112.817 43.31 113.597 43.466 114.233 43.778C114.881 44.09 115.367 44.528 115.691 45.092C116.027 45.656 116.195 46.316 116.195 47.072C116.195 47.804 116.027 48.44 115.691 48.98C115.355 49.52 114.875 49.94 114.251 50.24C113.627 50.54 112.871 50.69 111.983 50.69H109.931V51.914H112.811V53.498H109.931V56H107.591ZM109.895 49.106H111.605C112.361 49.106 112.943 48.962 113.351 48.674C113.759 48.386 113.963 47.906 113.963 47.234C113.963 46.562 113.759 46.064 113.351 45.74C112.955 45.416 112.373 45.254 111.605 45.254H109.895V49.106Z" fill="white"/>
<path opacity="0.4" d="M17.066 84V74.835H18.314V82.193H18.028L23.579 74.835H24.593V84H23.345V76.642H23.618L18.08 84H17.066ZM28.8591 84.117C28.3045 84.117 27.7801 84.0477 27.2861 83.909C26.7921 83.7703 26.3891 83.5753 26.0771 83.324L26.4541 82.44C26.7575 82.674 27.1171 82.8517 27.5331 82.973C27.9578 83.0857 28.3911 83.142 28.8331 83.142C29.4138 83.142 29.8341 83.064 30.0941 82.908C30.3541 82.752 30.4841 82.5137 30.4841 82.193C30.4841 81.8983 30.3801 81.673 30.1721 81.517C29.9728 81.3523 29.6781 81.27 29.2881 81.27H27.7021V80.308H29.1451C29.4918 80.308 29.7648 80.2343 29.9641 80.087C30.1635 79.931 30.2631 79.7143 30.2631 79.437C30.2631 79.151 30.1461 78.9257 29.9121 78.761C29.6868 78.5963 29.3098 78.514 28.7811 78.514C28.3478 78.514 27.9491 78.5703 27.5851 78.683C27.2211 78.787 26.8745 78.9473 26.5451 79.164L26.1681 78.293C26.5235 78.0417 26.9395 77.8553 27.4161 77.734C27.8928 77.604 28.4128 77.539 28.9761 77.539C29.7995 77.539 30.4191 77.6993 30.8351 78.02C31.2598 78.332 31.4721 78.7653 31.4721 79.32C31.4721 79.7273 31.3335 80.0697 31.0561 80.347C30.7875 80.6157 30.4278 80.776 29.9771 80.828V80.659C30.3325 80.6677 30.6358 80.7413 30.8871 80.88C31.1471 81.01 31.3465 81.192 31.4851 81.426C31.6325 81.66 31.7061 81.9287 31.7061 82.232C31.7061 82.804 31.4635 83.2633 30.9781 83.61C30.4928 83.948 29.7865 84.117 28.8591 84.117ZM33.238 84V77.656H34.317L36.618 81.673L38.906 77.656H39.985V84H38.828V79.177H39.127L36.93 82.973H36.293L34.096 79.177H34.395V84H33.238ZM44.9497 84.117C44.2563 84.117 43.6583 83.987 43.1557 83.727C42.6617 83.4583 42.276 83.0813 41.9987 82.596C41.73 82.102 41.5957 81.517 41.5957 80.841C41.5957 80.1823 41.73 79.606 41.9987 79.112C42.2673 78.618 42.6357 78.2323 43.1037 77.955C43.5717 77.6777 44.1047 77.539 44.7027 77.539C45.292 77.539 45.7947 77.669 46.2107 77.929C46.6353 78.1803 46.9603 78.54 47.1857 79.008C47.411 79.476 47.5237 80.035 47.5237 80.685V81.127H42.6357V80.321H46.6397L46.4187 80.503C46.4187 79.853 46.2757 79.3503 45.9897 78.995C45.7037 78.6397 45.292 78.462 44.7547 78.462C44.3473 78.462 44.0007 78.5573 43.7147 78.748C43.4373 78.9387 43.225 79.203 43.0777 79.541C42.9303 79.879 42.8567 80.2733 42.8567 80.724V80.802C42.8567 81.3047 42.9347 81.7293 43.0907 82.076C43.2553 82.414 43.4937 82.6697 43.8057 82.843C44.1177 83.0163 44.5033 83.103 44.9627 83.103C45.3267 83.103 45.682 83.0467 46.0287 82.934C46.384 82.8127 46.7177 82.6263 47.0297 82.375L47.4197 83.285C47.1337 83.545 46.7653 83.7487 46.3147 83.896C45.864 84.0433 45.409 84.117 44.9497 84.117ZM49.0818 84V77.656H50.3948V80.217H53.5538V77.656H54.8668V84H53.5538V81.257H50.3948V84H49.0818ZM59.8159 84.117C59.1226 84.117 58.5246 83.987 58.0219 83.727C57.5279 83.4583 57.1422 83.0813 56.8649 82.596C56.5962 82.102 56.4619 81.517 56.4619 80.841C56.4619 80.1823 56.5962 79.606 56.8649 79.112C57.1336 78.618 57.5019 78.2323 57.9699 77.955C58.4379 77.6777 58.9709 77.539 59.5689 77.539C60.1582 77.539 60.6609 77.669 61.0769 77.929C61.5016 78.1803 61.8266 78.54 62.0519 79.008C62.2772 79.476 62.3899 80.035 62.3899 80.685V81.127H57.5019V80.321H61.5059L61.2849 80.503C61.2849 79.853 61.1419 79.3503 60.8559 78.995C60.5699 78.6397 60.1582 78.462 59.6209 78.462C59.2136 78.462 58.8669 78.5573 58.5809 78.748C58.3036 78.9387 58.0912 79.203 57.9439 79.541C57.7966 79.879 57.7229 80.2733 57.7229 80.724V80.802C57.7229 81.3047 57.8009 81.7293 57.9569 82.076C58.1216 82.414 58.3599 82.6697 58.6719 82.843C58.9839 83.0163 59.3696 83.103 59.8289 83.103C60.1929 83.103 60.5482 83.0467 60.8949 82.934C61.2502 82.8127 61.5839 82.6263 61.8959 82.375L62.2859 83.285C61.9999 83.545 61.6316 83.7487 61.1809 83.896C60.7302 84.0433 60.2752 84.117 59.8159 84.117ZM63.948 84V77.656H65.261V80.217H68.42V77.656H69.733V84H68.42V81.257H65.261V84H63.948ZM71.6921 84V77.656H72.8881V82.7H72.5501L76.3201 77.656H77.4251V84H76.2291V78.956H76.5801L72.7971 84H71.6921ZM82.3882 84.117C81.6948 84.117 81.0968 83.987 80.5942 83.727C80.1002 83.4583 79.7145 83.0813 79.4372 82.596C79.1685 82.102 79.0342 81.517 79.0342 80.841C79.0342 80.1823 79.1685 79.606 79.4372 79.112C79.7058 78.618 80.0742 78.2323 80.5422 77.955C81.0102 77.6777 81.5432 77.539 82.1412 77.539C82.7305 77.539 83.2332 77.669 83.6492 77.929C84.0738 78.1803 84.3988 78.54 84.6242 79.008C84.8495 79.476 84.9622 80.035 84.9622 80.685V81.127H80.0742V80.321H84.0782L83.8572 80.503C83.8572 79.853 83.7142 79.3503 83.4282 78.995C83.1422 78.6397 82.7305 78.462 82.1932 78.462C81.7858 78.462 81.4392 78.5573 81.1532 78.748C80.8758 78.9387 80.6635 79.203 80.5162 79.541C80.3688 79.879 80.2952 80.2733 80.2952 80.724V80.802C80.2952 81.3047 80.3732 81.7293 80.5292 82.076C80.6938 82.414 80.9322 82.6697 81.2442 82.843C81.5562 83.0163 81.9418 83.103 82.4012 83.103C82.7652 83.103 83.1205 83.0467 83.4672 82.934C83.8225 82.8127 84.1562 82.6263 84.4682 82.375L84.8582 83.285C84.5722 83.545 84.2038 83.7487 83.7532 83.896C83.3025 84.0433 82.8475 84.117 82.3882 84.117ZM92.1453 84.117C91.5906 84.117 91.0663 84.0477 90.5723 83.909C90.0783 83.7703 89.6753 83.5753 89.3633 83.324L89.7403 82.44C90.0436 82.674 90.4033 82.8517 90.8193 82.973C91.2439 83.0857 91.6773 83.142 92.1193 83.142C92.6999 83.142 93.1203 83.064 93.3803 82.908C93.6403 82.752 93.7703 82.5137 93.7703 82.193C93.7703 81.8983 93.6663 81.673 93.4583 81.517C93.2589 81.3523 92.9643 81.27 92.5743 81.27H90.9883V80.308H92.4313C92.7779 80.308 93.0509 80.2343 93.2503 80.087C93.4496 79.931 93.5493 79.7143 93.5493 79.437C93.5493 79.151 93.4323 78.9257 93.1983 78.761C92.9729 78.5963 92.5959 78.514 92.0673 78.514C91.6339 78.514 91.2353 78.5703 90.8713 78.683C90.5073 78.787 90.1606 78.9473 89.8313 79.164L89.4543 78.293C89.8096 78.0417 90.2256 77.8553 90.7023 77.734C91.1789 77.604 91.6989 77.539 92.2623 77.539C93.0856 77.539 93.7053 77.6993 94.1213 78.02C94.5459 78.332 94.7583 78.7653 94.7583 79.32C94.7583 79.7273 94.6196 80.0697 94.3423 80.347C94.0736 80.6157 93.7139 80.776 93.2633 80.828V80.659C93.6186 80.6677 93.9219 80.7413 94.1733 80.88C94.4333 81.01 94.6326 81.192 94.7713 81.426C94.9186 81.66 94.9923 81.9287 94.9923 82.232C94.9923 82.804 94.7496 83.2633 94.2643 83.61C93.7789 83.948 93.0726 84.117 92.1453 84.117ZM98.5651 84.117C98.1231 84.117 97.7245 84.0303 97.3691 83.857C97.0225 83.6837 96.7495 83.4497 96.5501 83.155C96.3508 82.8603 96.2511 82.5267 96.2511 82.154C96.2511 81.686 96.3681 81.3177 96.6021 81.049C96.8448 80.7717 97.2391 80.5767 97.7851 80.464C98.3398 80.3427 99.0851 80.282 100.021 80.282H100.632V81.088H100.034C99.5661 81.088 99.1718 81.1053 98.8511 81.14C98.5305 81.1747 98.2748 81.231 98.0841 81.309C97.8935 81.3783 97.7548 81.478 97.6681 81.608C97.5901 81.738 97.5511 81.894 97.5511 82.076C97.5511 82.4053 97.6638 82.674 97.8891 82.882C98.1145 83.0813 98.4265 83.181 98.8251 83.181C99.1458 83.181 99.4275 83.1073 99.6701 82.96C99.9128 82.804 100.103 82.596 100.242 82.336C100.389 82.076 100.463 81.777 100.463 81.439V79.944C100.463 79.45 100.359 79.0947 100.151 78.878C99.9431 78.6613 99.6008 78.553 99.1241 78.553C98.7601 78.553 98.3961 78.6093 98.0321 78.722C97.6681 78.826 97.2955 78.995 96.9141 79.229L96.5111 78.306C96.7365 78.15 96.9965 78.0157 97.2911 77.903C97.5858 77.7903 97.8935 77.7037 98.2141 77.643C98.5435 77.5737 98.8598 77.539 99.1631 77.539C99.7438 77.539 100.22 77.63 100.593 77.812C100.974 77.994 101.256 78.2713 101.438 78.644C101.62 79.0167 101.711 79.4977 101.711 80.087V84H100.476V82.583H100.593C100.524 82.9037 100.394 83.181 100.203 83.415C100.021 83.6403 99.7915 83.8137 99.5141 83.935C99.2368 84.0563 98.9205 84.117 98.5651 84.117ZM106.424 85.69V82.96H107.126C107.317 82.674 107.468 82.3663 107.581 82.037C107.694 81.7077 107.776 81.335 107.828 80.919C107.88 80.503 107.906 80.0307 107.906 79.502V77.656H112.599V82.96H113.613V85.69H112.495V84H107.555V85.69H106.424ZM108.348 82.96H111.351V78.683H109.05V79.775C109.05 80.373 108.989 80.9537 108.868 81.517C108.747 82.0803 108.573 82.5613 108.348 82.96ZM117.91 84.117C117.216 84.117 116.618 83.987 116.116 83.727C115.622 83.4583 115.236 83.0813 114.959 82.596C114.69 82.102 114.556 81.517 114.556 80.841C114.556 80.1823 114.69 79.606 114.959 79.112C115.227 78.618 115.596 78.2323 116.064 77.955C116.532 77.6777 117.065 77.539 117.663 77.539C118.252 77.539 118.755 77.669 119.171 77.929C119.595 78.1803 119.92 78.54 120.146 79.008C120.371 79.476 120.484 80.035 120.484 80.685V81.127H115.596V80.321H119.6L119.379 80.503C119.379 79.853 119.236 79.3503 118.95 78.995C118.664 78.6397 118.252 78.462 117.715 78.462C117.307 78.462 116.961 78.5573 116.675 78.748C116.397 78.9387 116.185 79.203 116.038 79.541C115.89 79.879 115.817 80.2733 115.817 80.724V80.802C115.817 81.3047 115.895 81.7293 116.051 82.076C116.215 82.414 116.454 82.6697 116.766 82.843C117.078 83.0163 117.463 83.103 117.923 83.103C118.287 83.103 118.642 83.0467 118.989 82.934C119.344 82.8127 119.678 82.6263 119.99 82.375L120.38 83.285C120.094 83.545 119.725 83.7487 119.275 83.896C118.824 84.0433 118.369 84.117 117.91 84.117ZM122.042 84V77.656H123.355V80.217H126.514V77.656H127.827V84H126.514V81.257H123.355V84H122.042ZM129.786 84V77.656H131.099V79.853H132.906C133.721 79.853 134.34 80.0307 134.765 80.386C135.19 80.7327 135.402 81.2397 135.402 81.907C135.402 82.3317 135.302 82.7043 135.103 83.025C134.904 83.337 134.618 83.5797 134.245 83.753C133.872 83.9177 133.426 84 132.906 84H129.786ZM131.099 83.103H132.737C133.188 83.103 133.539 83.0077 133.79 82.817C134.041 82.6177 134.167 82.3143 134.167 81.907C134.167 81.5083 134.041 81.218 133.79 81.036C133.539 80.8453 133.188 80.75 132.737 80.75H131.099V83.103Z" fill="white"/>
<rect x="16" y="93" width="52" height="22" rx="4" fill="#EF454A" fill-opacity="0.16"/>
<path d="M20.884 105.166V103.866H24.758V105.166H20.884ZM29.5367 108.13C28.8174 108.13 28.2064 107.948 27.7037 107.584C27.2097 107.211 26.8327 106.674 26.5727 105.972C26.3214 105.27 26.1957 104.412 26.1957 103.398C26.1957 102.375 26.3214 101.517 26.5727 100.824C26.8327 100.122 27.2097 99.5933 27.7037 99.238C28.2064 98.8827 28.8174 98.705 29.5367 98.705C30.2647 98.705 30.8757 98.8827 31.3697 99.238C31.8724 99.5933 32.2494 100.118 32.5007 100.811C32.7521 101.504 32.8777 102.362 32.8777 103.385C32.8777 104.399 32.7477 105.261 32.4877 105.972C32.2364 106.674 31.8637 107.211 31.3697 107.584C30.8757 107.948 30.2647 108.13 29.5367 108.13ZM29.5367 106.765C30.1261 106.765 30.5594 106.496 30.8367 105.959C31.1227 105.413 31.2657 104.555 31.2657 103.385C31.2657 102.224 31.1227 101.383 30.8367 100.863C30.5594 100.334 30.1261 100.07 29.5367 100.07C28.9561 100.07 28.5227 100.334 28.2367 100.863C27.9507 101.383 27.8077 102.228 27.8077 103.398C27.8077 104.559 27.9507 105.413 28.2367 105.959C28.5227 106.496 28.9561 106.765 29.5367 106.765ZM34.1336 108V106.193H35.9536V108H34.1336ZM40.5563 108.13C39.8369 108.13 39.2259 107.948 38.7233 107.584C38.2293 107.211 37.8523 106.674 37.5923 105.972C37.3409 105.27 37.2153 104.412 37.2153 103.398C37.2153 102.375 37.3409 101.517 37.5923 100.824C37.8523 100.122 38.2293 99.5933 38.7233 99.238C39.2259 98.8827 39.8369 98.705 40.5563 98.705C41.2843 98.705 41.8953 98.8827 42.3893 99.238C42.8919 99.5933 43.2689 100.118 43.5202 100.811C43.7716 101.504 43.8973 102.362 43.8973 103.385C43.8973 104.399 43.7673 105.261 43.5073 105.972C43.2559 106.674 42.8833 107.211 42.3893 107.584C41.8953 107.948 41.2843 108.13 40.5563 108.13ZM40.5563 106.765C41.1456 106.765 41.5789 106.496 41.8563 105.959C42.1423 105.413 42.2853 104.555 42.2853 103.385C42.2853 102.224 42.1423 101.383 41.8563 100.863C41.5789 100.334 41.1456 100.07 40.5563 100.07C39.9756 100.07 39.5423 100.334 39.2563 100.863C38.9703 101.383 38.8273 102.228 38.8273 103.398C38.8273 104.559 38.9703 105.413 39.2563 105.959C39.5423 106.496 39.9756 106.765 40.5563 106.765ZM48.3512 108.13C47.6318 108.13 47.0208 107.948 46.5182 107.584C46.0242 107.211 45.6472 106.674 45.3872 105.972C45.1358 105.27 45.0102 104.412 45.0102 103.398C45.0102 102.375 45.1358 101.517 45.3872 100.824C45.6472 100.122 46.0242 99.5933 46.5182 99.238C47.0208 98.8827 47.6318 98.705 48.3512 98.705C49.0792 98.705 49.6902 98.8827 50.1842 99.238C50.6868 99.5933 51.0638 100.118 51.3152 100.811C51.5665 101.504 51.6922 102.362 51.6922 103.385C51.6922 104.399 51.5622 105.261 51.3022 105.972C51.0508 106.674 50.6782 107.211 50.1842 107.584C49.6902 107.948 49.0792 108.13 48.3512 108.13ZM48.3512 106.765C48.9405 106.765 49.3738 106.496 49.6512 105.959C49.9372 105.413 50.0802 104.555 50.0802 103.385C50.0802 102.224 49.9372 101.383 49.6512 100.863C49.3738 100.334 48.9405 100.07 48.3512 100.07C47.7705 100.07 47.3372 100.334 47.0512 100.863C46.7652 101.383 46.6222 102.228 46.6222 103.398C46.6222 104.559 46.7652 105.413 47.0512 105.959C47.3372 106.496 47.7705 106.765 48.3512 106.765ZM57.102 108V106.193H55.997V105.049H57.102V104.165H55.997V103.021H57.102V98.835H60.209C60.8763 98.835 61.4397 98.9477 61.899 99.173C62.367 99.3983 62.718 99.7147 62.952 100.122C63.1947 100.529 63.316 101.006 63.316 101.552C63.316 102.081 63.1947 102.54 62.952 102.93C62.7093 103.32 62.3627 103.623 61.912 103.84C61.4613 104.057 60.9153 104.165 60.274 104.165H58.792V105.049H60.872V106.193H58.792V108H57.102ZM58.766 103.021H60.001C60.547 103.021 60.9673 102.917 61.262 102.709C61.5567 102.501 61.704 102.154 61.704 101.669C61.704 101.184 61.5567 100.824 61.262 100.59C60.976 100.356 60.5557 100.239 60.001 100.239H58.766V103.021Z" fill="#EF454A"/>
<circle cx="22" cy="22" r="22" transform="matrix(-1 0 0 1 368 43.5)" fill="#181A20"/>
<path d="M343 58.5L350 65.5L343 72.5" stroke="white" stroke-width="1.5" stroke-linecap="round" stroke-linejoin="round"/>
</svg>
