<svg width="384" height="131" viewBox="0 0 384 131" fill="none" xmlns="http://www.w3.org/2000/svg">
<rect width="384" height="131" rx="8" fill="#181A20"/>
<path opacity="0.4" d="M16.195 31.093V27.908H17.105C17.3997 27.544 17.638 27.0977 17.82 26.569C18.0107 26.0317 18.1493 25.4033 18.236 24.684C18.3313 23.956 18.379 23.1327 18.379 22.214V19.835H24.645V27.908H25.945V31.093H24.749V29H17.404V31.093H16.195ZM18.483 27.908H23.306V20.927H19.64V22.318C19.64 23.2107 19.5967 24.0037 19.51 24.697C19.432 25.3817 19.3063 25.9883 19.133 26.517C18.9597 27.0457 18.743 27.5093 18.483 27.908ZM30.0021 29.117C29.3608 29.117 28.8061 28.9827 28.3381 28.714C27.8788 28.4453 27.5191 28.064 27.2591 27.57C26.9991 27.076 26.8691 26.4953 26.8691 25.828C26.8691 25.152 26.9991 24.5713 27.2591 24.086C27.5191 23.592 27.8788 23.2107 28.3381 22.942C28.8061 22.6733 29.3608 22.539 30.0021 22.539C30.6348 22.539 31.1808 22.6733 31.6401 22.942C32.1081 23.2107 32.4721 23.592 32.7321 24.086C32.9921 24.58 33.1221 25.1607 33.1221 25.828C33.1221 26.4953 32.9921 27.076 32.7321 27.57C32.4721 28.064 32.1081 28.4453 31.6401 28.714C31.1808 28.9827 30.6348 29.117 30.0021 29.117ZM29.9891 28.103C30.5351 28.103 30.9728 27.908 31.3021 27.518C31.6315 27.128 31.7961 26.5647 31.7961 25.828C31.7961 25.0827 31.6315 24.5193 31.3021 24.138C30.9728 23.7567 30.5351 23.566 29.9891 23.566C29.4518 23.566 29.0185 23.7567 28.6891 24.138C28.3598 24.5193 28.1951 25.0827 28.1951 25.828C28.1951 26.5647 28.3598 27.128 28.6891 27.518C29.0185 27.908 29.4518 28.103 29.9891 28.103ZM33.7771 29L36.6761 25.399V26.049L33.9461 22.656H35.4801L37.4171 25.126H36.9491L38.8861 22.656H40.4201L37.6901 26.023V25.438L40.5891 29H39.0291L36.9491 26.374H37.3911L35.3241 29H33.7771ZM44.3478 29.117C43.7065 29.117 43.1518 28.9827 42.6838 28.714C42.2245 28.4453 41.8648 28.064 41.6048 27.57C41.3448 27.076 41.2148 26.4953 41.2148 25.828C41.2148 25.152 41.3448 24.5713 41.6048 24.086C41.8648 23.592 42.2245 23.2107 42.6838 22.942C43.1518 22.6733 43.7065 22.539 44.3478 22.539C44.9805 22.539 45.5265 22.6733 45.9858 22.942C46.4538 23.2107 46.8178 23.592 47.0778 24.086C47.3378 24.58 47.4678 25.1607 47.4678 25.828C47.4678 26.4953 47.3378 27.076 47.0778 27.57C46.8178 28.064 46.4538 28.4453 45.9858 28.714C45.5265 28.9827 44.9805 29.117 44.3478 29.117ZM44.3348 28.103C44.8808 28.103 45.3185 27.908 45.6478 27.518C45.9772 27.128 46.1418 26.5647 46.1418 25.828C46.1418 25.0827 45.9772 24.5193 45.6478 24.138C45.3185 23.7567 44.8808 23.566 44.3348 23.566C43.7975 23.566 43.3642 23.7567 43.0348 24.138C42.7055 24.5193 42.5408 25.0827 42.5408 25.828C42.5408 26.5647 42.7055 27.128 43.0348 27.518C43.3642 27.908 43.7975 28.103 44.3348 28.103ZM48.4318 30.69V27.96H49.1338C49.3244 27.674 49.4761 27.3663 49.5888 27.037C49.7014 26.7077 49.7838 26.335 49.8358 25.919C49.8878 25.503 49.9138 25.0307 49.9138 24.502V22.656H54.6068V27.96H55.6208V30.69H54.5028V29H49.5628V30.69H48.4318ZM50.3558 27.96H53.3588V23.683H51.0578V24.775C51.0578 25.373 50.9971 25.9537 50.8758 26.517C50.7544 27.0803 50.5811 27.5613 50.3558 27.96ZM56.9275 29V22.656H58.2405V25.217H61.3995V22.656H62.7125V29H61.3995V26.257H58.2405V29H56.9275ZM67.4406 29.117C66.7993 29.117 66.2446 28.9827 65.7766 28.714C65.3173 28.4453 64.9576 28.064 64.6976 27.57C64.4376 27.076 64.3076 26.4953 64.3076 25.828C64.3076 25.152 64.4376 24.5713 64.6976 24.086C64.9576 23.592 65.3173 23.2107 65.7766 22.942C66.2446 22.6733 66.7993 22.539 67.4406 22.539C68.0733 22.539 68.6193 22.6733 69.0786 22.942C69.5466 23.2107 69.9106 23.592 70.1706 24.086C70.4306 24.58 70.5606 25.1607 70.5606 25.828C70.5606 26.4953 70.4306 27.076 70.1706 27.57C69.9106 28.064 69.5466 28.4453 69.0786 28.714C68.6193 28.9827 68.0733 29.117 67.4406 29.117ZM67.4276 28.103C67.9736 28.103 68.4113 27.908 68.7406 27.518C69.0699 27.128 69.2346 26.5647 69.2346 25.828C69.2346 25.0827 69.0699 24.5193 68.7406 24.138C68.4113 23.7567 67.9736 23.566 67.4276 23.566C66.8903 23.566 66.4569 23.7567 66.1276 24.138C65.7983 24.5193 65.6336 25.0827 65.6336 25.828C65.6336 26.5647 65.7983 27.128 66.1276 27.518C66.4569 27.908 66.8903 28.103 67.4276 28.103ZM74.9825 29.117C74.3325 29.117 73.7692 28.9827 73.2925 28.714C72.8245 28.4367 72.4605 28.051 72.2005 27.557C71.9405 27.0543 71.8105 26.465 71.8105 25.789C71.8105 25.1217 71.9405 24.5453 72.2005 24.06C72.4605 23.5747 72.8245 23.202 73.2925 22.942C73.7692 22.6733 74.3325 22.539 74.9825 22.539C75.3812 22.539 75.7755 22.6083 76.1655 22.747C76.5555 22.877 76.8762 23.0677 77.1275 23.319L76.7115 24.242C76.4775 24.0167 76.2132 23.852 75.9185 23.748C75.6239 23.6353 75.3465 23.579 75.0865 23.579C74.4712 23.579 73.9945 23.774 73.6565 24.164C73.3272 24.5453 73.1625 25.0913 73.1625 25.802C73.1625 26.5127 73.3272 27.0717 73.6565 27.479C73.9945 27.8777 74.4712 28.077 75.0865 28.077C75.3465 28.077 75.6239 28.025 75.9185 27.921C76.2132 27.8083 76.4775 27.6393 76.7115 27.414L77.1275 28.35C76.8762 28.584 76.5512 28.7703 76.1525 28.909C75.7625 29.0477 75.3725 29.117 74.9825 29.117ZM79.7212 29V23.709H77.4852V22.656H83.2832V23.709H81.0342V29H79.7212ZM84.3366 29V22.656H85.6496V24.853H87.4566C88.2713 24.853 88.891 25.0307 89.3156 25.386C89.7403 25.7327 89.9526 26.2397 89.9526 26.907C89.9526 27.3317 89.853 27.7043 89.6536 28.025C89.4543 28.337 89.1683 28.5797 88.7956 28.753C88.423 28.9177 87.9766 29 87.4566 29H84.3366ZM85.6496 28.103H87.2876C87.7383 28.103 88.0893 28.0077 88.3406 27.817C88.592 27.6177 88.7176 27.3143 88.7176 26.907C88.7176 26.5083 88.592 26.218 88.3406 26.036C88.0893 25.8453 87.7383 25.75 87.2876 25.75H85.6496V28.103Z" fill="white"/>
<path d="M17.962 56V54.092H20.824V45.254H21.94L18.61 47.27L17.71 45.578L21.49 43.31H23.128V54.092H25.81V56H17.962ZM32.661 56.18C31.617 56.18 30.723 55.934 29.979 55.442C29.247 54.938 28.689 54.218 28.305 53.282C27.921 52.346 27.729 51.212 27.729 49.88C27.729 48.44 27.945 47.222 28.377 46.226C28.809 45.218 29.433 44.45 30.249 43.922C31.065 43.394 32.043 43.13 33.183 43.13C33.627 43.13 34.071 43.19 34.515 43.31C34.971 43.418 35.397 43.58 35.793 43.796C36.201 44 36.561 44.252 36.873 44.552L36.117 46.28C35.673 45.872 35.199 45.572 34.695 45.38C34.191 45.176 33.675 45.074 33.147 45.074C32.631 45.074 32.169 45.17 31.761 45.362C31.365 45.542 31.029 45.818 30.753 46.19C30.477 46.55 30.267 47.006 30.123 47.558C29.991 48.098 29.925 48.728 29.925 49.448V50.798H29.709C29.805 50.186 30.003 49.664 30.303 49.232C30.615 48.788 31.011 48.452 31.491 48.224C31.971 47.984 32.505 47.864 33.093 47.864C33.825 47.864 34.473 48.038 35.037 48.386C35.601 48.734 36.045 49.214 36.369 49.826C36.693 50.438 36.855 51.14 36.855 51.932C36.855 52.748 36.675 53.48 36.315 54.128C35.967 54.764 35.475 55.268 34.839 55.64C34.215 56 33.489 56.18 32.661 56.18ZM32.535 54.344C32.967 54.344 33.345 54.248 33.669 54.056C34.005 53.864 34.263 53.594 34.443 53.246C34.623 52.886 34.713 52.478 34.713 52.022C34.713 51.554 34.623 51.146 34.443 50.798C34.263 50.45 34.005 50.18 33.669 49.988C33.345 49.784 32.967 49.682 32.535 49.682C32.103 49.682 31.725 49.784 31.401 49.988C31.077 50.18 30.819 50.45 30.627 50.798C30.447 51.146 30.357 51.554 30.357 52.022C30.357 52.478 30.447 52.886 30.627 53.246C30.819 53.594 31.077 53.864 31.401 54.056C31.725 54.248 32.103 54.344 32.535 54.344ZM38.5579 56V53.498H41.0779V56H38.5579ZM47.4508 56.18C45.9748 56.18 44.8168 55.862 43.9768 55.226C43.1488 54.59 42.7348 53.708 42.7348 52.58C42.7348 51.98 42.8548 51.452 43.0948 50.996C43.3468 50.528 43.6888 50.15 44.1208 49.862C44.5528 49.574 45.0448 49.394 45.5968 49.322V49.7C45.0928 49.592 44.6488 49.394 44.2648 49.106C43.8808 48.806 43.5808 48.44 43.3648 48.008C43.1608 47.564 43.0588 47.078 43.0588 46.55C43.0588 45.482 43.4548 44.648 44.2468 44.048C45.0388 43.436 46.1128 43.13 47.4688 43.13C48.8128 43.13 49.8808 43.436 50.6728 44.048C51.4648 44.648 51.8608 45.482 51.8608 46.55C51.8608 47.078 51.7528 47.564 51.5368 48.008C51.3328 48.452 51.0388 48.818 50.6548 49.106C50.2828 49.394 49.8448 49.586 49.3408 49.682V49.322C49.9048 49.394 50.3968 49.58 50.8168 49.88C51.2368 50.168 51.5668 50.546 51.8068 51.014C52.0468 51.47 52.1668 51.992 52.1668 52.58C52.1668 53.708 51.7468 54.59 50.9068 55.226C50.0788 55.862 48.9268 56.18 47.4508 56.18ZM47.4508 54.38C48.3028 54.38 48.9448 54.218 49.3768 53.894C49.8088 53.558 50.0248 53.066 50.0248 52.418C50.0248 51.77 49.8088 51.284 49.3768 50.96C48.9448 50.636 48.3028 50.474 47.4508 50.474C46.6108 50.474 45.9688 50.636 45.5248 50.96C45.0928 51.284 44.8768 51.77 44.8768 52.418C44.8768 53.066 45.0928 53.558 45.5248 53.894C45.9688 54.218 46.6108 54.38 47.4508 54.38ZM47.4508 48.674C48.1588 48.674 48.7108 48.506 49.1068 48.17C49.5148 47.834 49.7188 47.372 49.7188 46.784C49.7188 46.208 49.5148 45.758 49.1068 45.434C48.7108 45.098 48.1588 44.93 47.4508 44.93C46.7428 44.93 46.1908 45.098 45.7948 45.434C45.3988 45.758 45.2008 46.214 45.2008 46.802C45.2008 47.378 45.3988 47.834 45.7948 48.17C46.1908 48.506 46.7428 48.674 47.4508 48.674ZM58.2438 56.18C56.7678 56.18 55.6098 55.862 54.7698 55.226C53.9418 54.59 53.5278 53.708 53.5278 52.58C53.5278 51.98 53.6478 51.452 53.8878 50.996C54.1398 50.528 54.4818 50.15 54.9138 49.862C55.3458 49.574 55.8378 49.394 56.3898 49.322V49.7C55.8858 49.592 55.4418 49.394 55.0578 49.106C54.6738 48.806 54.3738 48.44 54.1578 48.008C53.9538 47.564 53.8518 47.078 53.8518 46.55C53.8518 45.482 54.2478 44.648 55.0398 44.048C55.8318 43.436 56.9058 43.13 58.2618 43.13C59.6058 43.13 60.6738 43.436 61.4658 44.048C62.2578 44.648 62.6538 45.482 62.6538 46.55C62.6538 47.078 62.5458 47.564 62.3298 48.008C62.1258 48.452 61.8318 48.818 61.4478 49.106C61.0758 49.394 60.6378 49.586 60.1338 49.682V49.322C60.6978 49.394 61.1898 49.58 61.6098 49.88C62.0298 50.168 62.3598 50.546 62.5998 51.014C62.8398 51.47 62.9598 51.992 62.9598 52.58C62.9598 53.708 62.5398 54.59 61.6998 55.226C60.8718 55.862 59.7198 56.18 58.2438 56.18ZM58.2438 54.38C59.0958 54.38 59.7378 54.218 60.1698 53.894C60.6018 53.558 60.8178 53.066 60.8178 52.418C60.8178 51.77 60.6018 51.284 60.1698 50.96C59.7378 50.636 59.0958 50.474 58.2438 50.474C57.4038 50.474 56.7618 50.636 56.3178 50.96C55.8858 51.284 55.6698 51.77 55.6698 52.418C55.6698 53.066 55.8858 53.558 56.3178 53.894C56.7618 54.218 57.4038 54.38 58.2438 54.38ZM58.2438 48.674C58.9518 48.674 59.5038 48.506 59.8998 48.17C60.3078 47.834 60.5118 47.372 60.5118 46.784C60.5118 46.208 60.3078 45.758 59.8998 45.434C59.5038 45.098 58.9518 44.93 58.2438 44.93C57.5358 44.93 56.9838 45.098 56.5878 45.434C56.1918 45.758 55.9938 46.214 55.9938 46.802C55.9938 47.378 56.1918 47.834 56.5878 48.17C56.9838 48.506 57.5358 48.674 58.2438 48.674ZM69.1807 56.504L67.7047 55.64L75.1207 42.806L76.5787 43.67L69.1807 56.504ZM67.6327 50.888C66.9607 50.888 66.3847 50.732 65.9047 50.42C65.4247 50.108 65.0587 49.664 64.8067 49.088C64.5547 48.5 64.4287 47.804 64.4287 47C64.4287 45.8 64.7107 44.858 65.2747 44.174C65.8387 43.478 66.6247 43.13 67.6327 43.13C68.3047 43.13 68.8807 43.286 69.3607 43.598C69.8407 43.91 70.2067 44.354 70.4587 44.93C70.7107 45.506 70.8367 46.196 70.8367 47C70.8367 47.804 70.7107 48.5 70.4587 49.088C70.2067 49.664 69.8407 50.108 69.3607 50.42C68.8807 50.732 68.3047 50.888 67.6327 50.888ZM67.6327 49.376C68.0647 49.376 68.4007 49.184 68.6407 48.8C68.8807 48.404 69.0007 47.804 69.0007 47C69.0007 46.196 68.8807 45.602 68.6407 45.218C68.4007 44.834 68.0647 44.642 67.6327 44.642C67.2007 44.642 66.8647 44.834 66.6247 45.218C66.3847 45.59 66.2647 46.184 66.2647 47C66.2647 47.816 66.3847 48.416 66.6247 48.8C66.8647 49.184 67.2007 49.376 67.6327 49.376ZM76.6687 56.18C75.9967 56.18 75.4207 56.024 74.9407 55.712C74.4607 55.4 74.0947 54.956 73.8427 54.38C73.5907 53.792 73.4647 53.096 73.4647 52.292C73.4647 51.092 73.7467 50.15 74.3107 49.466C74.8747 48.77 75.6607 48.422 76.6687 48.422C77.3407 48.422 77.9167 48.578 78.3967 48.89C78.8767 49.202 79.2427 49.646 79.4947 50.222C79.7467 50.798 79.8727 51.488 79.8727 52.292C79.8727 53.096 79.7467 53.792 79.4947 54.38C79.2427 54.956 78.8767 55.4 78.3967 55.712C77.9167 56.024 77.3407 56.18 76.6687 56.18ZM76.6687 54.668C77.1007 54.668 77.4367 54.476 77.6767 54.092C77.9167 53.696 78.0367 53.096 78.0367 52.292C78.0367 51.488 77.9167 50.894 77.6767 50.51C77.4367 50.126 77.1007 49.934 76.6687 49.934C76.2367 49.934 75.9007 50.126 75.6607 50.51C75.4207 50.882 75.3007 51.476 75.3007 52.292C75.3007 53.108 75.4207 53.708 75.6607 54.092C75.9007 54.476 76.2367 54.668 76.6687 54.668Z" fill="white"/>
<path opacity="0.4" d="M21.174 84.117C20.2467 84.117 19.4537 83.9263 18.795 83.545C18.1363 83.1637 17.6293 82.622 17.274 81.92C16.9273 81.2093 16.754 80.373 16.754 79.411C16.754 78.449 16.9273 77.617 17.274 76.915C17.6293 76.213 18.1363 75.6713 18.795 75.29C19.4537 74.9087 20.2467 74.718 21.174 74.718C21.798 74.718 22.3787 74.8177 22.916 75.017C23.462 75.2077 23.917 75.485 24.281 75.849L23.813 76.928C23.4143 76.5727 23.0027 76.317 22.578 76.161C22.162 75.9963 21.707 75.914 21.213 75.914C20.225 75.914 19.471 76.2173 18.951 76.824C18.431 77.4307 18.171 78.293 18.171 79.411C18.171 80.529 18.431 81.3957 18.951 82.011C19.471 82.6177 20.225 82.921 21.213 82.921C21.707 82.921 22.162 82.843 22.578 82.687C23.0027 82.5223 23.4143 82.2623 23.813 81.907L24.281 82.986C23.917 83.35 23.462 83.6317 22.916 83.831C22.3787 84.0217 21.798 84.117 21.174 84.117ZM26.2203 86.34L27.4683 83.558V84.117L24.6993 77.656H26.1033L28.2353 82.921H27.8713L30.0293 77.656H31.3813L27.5983 86.34H26.2203ZM32.4636 84V77.656H33.5426L35.8436 81.673L38.1316 77.656H39.2106V84H38.0536V79.177H38.3526L36.1556 82.973H35.5186L33.3216 79.177H33.6206V84H32.4636ZM41.1853 84V77.656H42.2643L44.5653 81.673L46.8533 77.656H47.9323V84H46.7753V79.177H47.0743L44.8773 82.973H44.2403L42.0433 79.177H42.3423V84H41.1853ZM51.9479 84.117C51.5059 84.117 51.1073 84.0303 50.7519 83.857C50.4053 83.6837 50.1323 83.4497 49.9329 83.155C49.7336 82.8603 49.6339 82.5267 49.6339 82.154C49.6339 81.686 49.7509 81.3177 49.9849 81.049C50.2276 80.7717 50.6219 80.5767 51.1679 80.464C51.7226 80.3427 52.4679 80.282 53.4039 80.282H54.0149V81.088H53.4169C52.9489 81.088 52.5546 81.1053 52.2339 81.14C51.9133 81.1747 51.6576 81.231 51.4669 81.309C51.2763 81.3783 51.1376 81.478 51.0509 81.608C50.9729 81.738 50.9339 81.894 50.9339 82.076C50.9339 82.4053 51.0466 82.674 51.2719 82.882C51.4973 83.0813 51.8093 83.181 52.2079 83.181C52.5286 83.181 52.8103 83.1073 53.0529 82.96C53.2956 82.804 53.4863 82.596 53.6249 82.336C53.7723 82.076 53.8459 81.777 53.8459 81.439V79.944C53.8459 79.45 53.7419 79.0947 53.5339 78.878C53.3259 78.6613 52.9836 78.553 52.5069 78.553C52.1429 78.553 51.7789 78.6093 51.4149 78.722C51.0509 78.826 50.6783 78.995 50.2969 79.229L49.8939 78.306C50.1193 78.15 50.3793 78.0157 50.6739 77.903C50.9686 77.7903 51.2763 77.7037 51.5969 77.643C51.9263 77.5737 52.2426 77.539 52.5459 77.539C53.1266 77.539 53.6033 77.63 53.9759 77.812C54.3573 77.994 54.6389 78.2713 54.8209 78.644C55.0029 79.0167 55.0939 79.4977 55.0939 80.087V84H53.8589V82.583H53.9759C53.9066 82.9037 53.7766 83.181 53.5859 83.415C53.4039 83.6403 53.1743 83.8137 52.8969 83.935C52.6196 84.0563 52.3033 84.117 51.9479 84.117ZM57.0547 86.34V77.656H58.3417V79.086H58.1987C58.3374 78.618 58.6104 78.2453 59.0177 77.968C59.425 77.682 59.906 77.539 60.4607 77.539C61.024 77.539 61.5137 77.6733 61.9297 77.942C62.3544 78.2107 62.6794 78.5877 62.9047 79.073C63.1387 79.5583 63.2557 80.1433 63.2557 80.828C63.2557 81.4953 63.1387 82.0803 62.9047 82.583C62.6794 83.077 62.3587 83.4583 61.9427 83.727C61.5267 83.987 61.0327 84.117 60.4607 84.117C59.9147 84.117 59.438 83.9783 59.0307 83.701C58.6234 83.4237 58.3504 83.0553 58.2117 82.596H58.3677V86.34H57.0547ZM60.1357 83.103C60.6817 83.103 61.115 82.908 61.4357 82.518C61.765 82.128 61.9297 81.5647 61.9297 80.828C61.9297 80.0827 61.765 79.5193 61.4357 79.138C61.115 78.7567 60.6817 78.566 60.1357 78.566C59.5984 78.566 59.165 78.7567 58.8357 79.138C58.5064 79.5193 58.3417 80.0827 58.3417 80.828C58.3417 81.5647 58.5064 82.128 58.8357 82.518C59.165 82.908 59.5984 83.103 60.1357 83.103ZM64.862 84V77.656H66.175V80.217H69.334V77.656H70.647V84H69.334V81.257H66.175V84H64.862ZM74.6472 84.117C74.2052 84.117 73.8065 84.0303 73.4512 83.857C73.1045 83.6837 72.8315 83.4497 72.6322 83.155C72.4328 82.8603 72.3332 82.5267 72.3332 82.154C72.3332 81.686 72.4502 81.3177 72.6842 81.049C72.9268 80.7717 73.3212 80.5767 73.8672 80.464C74.4218 80.3427 75.1672 80.282 76.1032 80.282H76.7142V81.088H76.1162C75.6482 81.088 75.2538 81.1053 74.9332 81.14C74.6125 81.1747 74.3568 81.231 74.1662 81.309C73.9755 81.3783 73.8368 81.478 73.7502 81.608C73.6722 81.738 73.6332 81.894 73.6332 82.076C73.6332 82.4053 73.7458 82.674 73.9712 82.882C74.1965 83.0813 74.5085 83.181 74.9072 83.181C75.2278 83.181 75.5095 83.1073 75.7522 82.96C75.9948 82.804 76.1855 82.596 76.3242 82.336C76.4715 82.076 76.5452 81.777 76.5452 81.439V79.944C76.5452 79.45 76.4412 79.0947 76.2332 78.878C76.0252 78.6613 75.6828 78.553 75.2062 78.553C74.8422 78.553 74.4782 78.6093 74.1142 78.722C73.7502 78.826 73.3775 78.995 72.9962 79.229L72.5932 78.306C72.8185 78.15 73.0785 78.0157 73.3732 77.903C73.6678 77.7903 73.9755 77.7037 74.2962 77.643C74.6255 77.5737 74.9418 77.539 75.2452 77.539C75.8258 77.539 76.3025 77.63 76.6752 77.812C77.0565 77.994 77.3382 78.2713 77.5202 78.644C77.7022 79.0167 77.7932 79.4977 77.7932 80.087V84H76.5582V82.583H76.6752C76.6058 82.9037 76.4758 83.181 76.2852 83.415C76.1032 83.6403 75.8735 83.8137 75.5962 83.935C75.3188 84.0563 75.0025 84.117 74.6472 84.117ZM79.2079 84L80.1699 82.336C80.3346 82.0413 80.5426 81.8073 80.7939 81.634C81.0453 81.452 81.3009 81.361 81.5609 81.361H81.7689V81.491C81.2923 81.491 80.8806 81.4173 80.5339 81.27C80.1959 81.1227 79.9359 80.906 79.7539 80.62C79.5806 80.334 79.4939 79.9917 79.4939 79.593C79.4939 79.0037 79.6933 78.5357 80.0919 78.189C80.4906 77.8337 81.0843 77.656 81.8729 77.656H84.9019V84H83.6799V81.686H82.8609C82.5576 81.686 82.2976 81.764 82.0809 81.92C81.8643 82.076 81.6866 82.2753 81.5479 82.518L80.7029 84H79.2079ZM82.1459 80.789H83.6799V78.553H82.1459C81.6693 78.553 81.3183 78.6527 81.0929 78.852C80.8676 79.0427 80.7549 79.3113 80.7549 79.658C80.7549 80.0133 80.8676 80.2907 81.0929 80.49C81.3183 80.6893 81.6693 80.789 82.1459 80.789ZM90.2907 84V77.656H96.0367V84H94.7237V78.709H91.6037V84H90.2907ZM98.0098 86.34V77.656H99.2968V79.086H99.1538C99.2925 78.618 99.5655 78.2453 99.9728 77.968C100.38 77.682 100.861 77.539 101.416 77.539C101.979 77.539 102.469 77.6733 102.885 77.942C103.309 78.2107 103.634 78.5877 103.86 79.073C104.094 79.5583 104.211 80.1433 104.211 80.828C104.211 81.4953 104.094 82.0803 103.86 82.583C103.634 83.077 103.314 83.4583 102.898 83.727C102.482 83.987 101.988 84.117 101.416 84.117C100.87 84.117 100.393 83.9783 99.9858 83.701C99.5785 83.4237 99.3055 83.0553 99.1668 82.596H99.3228V86.34H98.0098ZM101.091 83.103C101.637 83.103 102.07 82.908 102.391 82.518C102.72 82.128 102.885 81.5647 102.885 80.828C102.885 80.0827 102.72 79.5193 102.391 79.138C102.07 78.7567 101.637 78.566 101.091 78.566C100.553 78.566 100.12 78.7567 99.7908 79.138C99.4615 79.5193 99.2968 80.0827 99.2968 80.828C99.2968 81.5647 99.4615 82.128 99.7908 82.518C100.12 82.908 100.553 83.103 101.091 83.103ZM105.817 84V77.656H107.013V82.7H106.675L110.445 77.656H111.55V84H110.354V78.956H110.705L106.922 84H105.817ZM116.331 84.117C115.681 84.117 115.118 83.9827 114.641 83.714C114.164 83.4367 113.796 83.0293 113.536 82.492C113.285 81.946 113.159 81.2743 113.159 80.477V79.515C113.159 79.0123 113.202 78.5573 113.289 78.15C113.376 77.7427 113.506 77.383 113.679 77.071C113.852 76.759 114.065 76.4817 114.316 76.239C114.576 75.9963 114.875 75.7927 115.213 75.628C115.56 75.4633 115.945 75.3247 116.37 75.212L118.606 74.627L119.022 75.68L116.461 76.33C115.785 76.5033 115.274 76.8197 114.927 77.279C114.58 77.7383 114.407 78.306 114.407 78.982V79.58H114.212C114.307 79.2073 114.463 78.878 114.68 78.592C114.905 78.306 115.183 78.085 115.512 77.929C115.85 77.7643 116.236 77.682 116.669 77.682C117.076 77.682 117.445 77.7557 117.774 77.903C118.112 78.0503 118.402 78.2627 118.645 78.54C118.888 78.8173 119.074 79.151 119.204 79.541C119.343 79.931 119.412 80.3687 119.412 80.854C119.412 81.5213 119.282 82.0977 119.022 82.583C118.771 83.0683 118.415 83.4453 117.956 83.714C117.497 83.9827 116.955 84.117 116.331 84.117ZM116.279 83.103C116.842 83.103 117.284 82.9167 117.605 82.544C117.926 82.1627 118.086 81.6167 118.086 80.906C118.086 80.204 117.926 79.6623 117.605 79.281C117.284 78.891 116.842 78.696 116.279 78.696C115.724 78.696 115.287 78.8867 114.966 79.268C114.645 79.6407 114.485 80.1563 114.485 80.815C114.485 81.5603 114.641 82.128 114.953 82.518C115.274 82.908 115.716 83.103 116.279 83.103ZM121.026 84V77.656H122.339V79.853H124.146C124.961 79.853 125.58 80.0307 126.005 80.386C126.43 80.7327 126.642 81.2397 126.642 81.907C126.642 82.3317 126.542 82.7043 126.343 83.025C126.144 83.337 125.858 83.5797 125.485 83.753C125.112 83.9177 124.666 84 124.146 84H121.026ZM122.339 83.103H123.977C124.428 83.103 124.779 83.0077 125.03 82.817C125.281 82.6177 125.407 82.3143 125.407 81.907C125.407 81.5083 125.281 81.218 125.03 81.036C124.779 80.8453 124.428 80.75 123.977 80.75H122.339V83.103ZM127.5 84V77.656H128.813V84H127.5ZM130.516 84.169L130.074 83.129C130.36 83.0163 130.598 82.869 130.789 82.687C130.988 82.505 131.144 82.2753 131.257 81.998C131.369 81.712 131.452 81.361 131.504 80.945C131.556 80.529 131.582 80.0263 131.582 79.437V77.656H136.418V84H135.105V78.709H132.804V79.476C132.804 80.1953 132.76 80.8237 132.674 81.361C132.587 81.8897 132.453 82.3403 132.271 82.713C132.089 83.0857 131.85 83.389 131.556 83.623C131.27 83.857 130.923 84.039 130.516 84.169ZM138.393 84V77.656H139.706V79.853H141.513C142.328 79.853 142.948 80.0307 143.372 80.386C143.797 80.7327 144.009 81.2397 144.009 81.907C144.009 82.3317 143.91 82.7043 143.71 83.025C143.511 83.337 143.225 83.5797 142.852 83.753C142.48 83.9177 142.033 84 141.513 84H138.393ZM139.706 83.103H141.344C141.795 83.103 142.146 83.0077 142.397 82.817C142.649 82.6177 142.774 82.3143 142.774 81.907C142.774 81.5083 142.649 81.218 142.397 81.036C142.146 80.8453 141.795 80.75 141.344 80.75H139.706V83.103Z" fill="white"/>
<rect x="16" y="93" width="89" height="22" rx="4" fill="#2EBD85" fill-opacity="0.16"/>
<path d="M23.302 107.48V104.841H20.728V103.697H23.302V101.136H24.498V103.697H27.072V104.841H24.498V107.48H23.302ZM29.2119 108V106.622H31.2789V100.239H32.0849L29.6799 101.695L29.0299 100.473L31.7599 98.835H32.9429V106.622H34.8799V108H29.2119ZM39.8278 108.13C39.0738 108.13 38.4282 107.952 37.8908 107.597C37.3622 107.233 36.9592 106.713 36.6818 106.037C36.4045 105.361 36.2658 104.542 36.2658 103.58C36.2658 102.54 36.4218 101.66 36.7338 100.941C37.0458 100.213 37.4965 99.6583 38.0858 99.277C38.6752 98.8957 39.3815 98.705 40.2048 98.705C40.5255 98.705 40.8462 98.7483 41.1668 98.835C41.4962 98.913 41.8038 99.03 42.0898 99.186C42.3845 99.3333 42.6445 99.5153 42.8698 99.732L42.3238 100.98C42.0032 100.685 41.6608 100.469 41.2968 100.33C40.9328 100.183 40.5602 100.109 40.1788 100.109C39.8062 100.109 39.4725 100.178 39.1778 100.317C38.8918 100.447 38.6492 100.646 38.4498 100.915C38.2505 101.175 38.0988 101.504 37.9948 101.903C37.8995 102.293 37.8518 102.748 37.8518 103.268V104.243H37.6958C37.7652 103.801 37.9082 103.424 38.1248 103.112C38.3502 102.791 38.6362 102.549 38.9828 102.384C39.3295 102.211 39.7152 102.124 40.1398 102.124C40.6685 102.124 41.1365 102.25 41.5438 102.501C41.9512 102.752 42.2718 103.099 42.5058 103.541C42.7398 103.983 42.8568 104.49 42.8568 105.062C42.8568 105.651 42.7268 106.18 42.4668 106.648C42.2155 107.107 41.8602 107.471 41.4008 107.74C40.9502 108 40.4258 108.13 39.8278 108.13ZM39.7368 106.804C40.0488 106.804 40.3218 106.735 40.5558 106.596C40.7985 106.457 40.9848 106.262 41.1148 106.011C41.2448 105.751 41.3098 105.456 41.3098 105.127C41.3098 104.789 41.2448 104.494 41.1148 104.243C40.9848 103.992 40.7985 103.797 40.5558 103.658C40.3218 103.511 40.0488 103.437 39.7368 103.437C39.4248 103.437 39.1518 103.511 38.9178 103.658C38.6838 103.797 38.4975 103.992 38.3588 104.243C38.2288 104.494 38.1638 104.789 38.1638 105.127C38.1638 105.456 38.2288 105.751 38.3588 106.011C38.4975 106.262 38.6838 106.457 38.9178 106.596C39.1518 106.735 39.4248 106.804 39.7368 106.804ZM47.9287 108V106.765L50.8927 103.606C51.1613 103.32 51.3737 103.056 51.5297 102.813C51.6943 102.57 51.8157 102.336 51.8937 102.111C51.9717 101.886 52.0107 101.66 52.0107 101.435C52.0107 101.002 51.872 100.672 51.5947 100.447C51.326 100.222 50.9317 100.109 50.4117 100.109C50.0043 100.109 49.6057 100.187 49.2157 100.343C48.8343 100.49 48.466 100.724 48.1107 101.045L47.5517 99.797C47.9157 99.4677 48.3707 99.2033 48.9167 99.004C49.4627 98.8047 50.0303 98.705 50.6197 98.705C51.2783 98.705 51.833 98.8047 52.2837 99.004C52.7343 99.2033 53.0767 99.4937 53.3107 99.875C53.5447 100.256 53.6617 100.72 53.6617 101.266C53.6617 101.543 53.627 101.816 53.5577 102.085C53.497 102.345 53.3973 102.605 53.2587 102.865C53.1287 103.125 52.9597 103.394 52.7517 103.671C52.5523 103.94 52.3097 104.221 52.0237 104.516L49.5797 107.064V106.622H54.0127V108H47.9287ZM55.8016 108L60.2346 99.654V100.226H55.3986V98.835H61.7816V100.083L57.6346 108H55.8016ZM66.3785 108.13C65.6592 108.13 65.0482 107.948 64.5455 107.584C64.0515 107.211 63.6745 106.674 63.4145 105.972C63.1632 105.27 63.0375 104.412 63.0375 103.398C63.0375 102.375 63.1632 101.517 63.4145 100.824C63.6745 100.122 64.0515 99.5933 64.5455 99.238C65.0482 98.8827 65.6592 98.705 66.3785 98.705C67.1065 98.705 67.7175 98.8827 68.2115 99.238C68.7142 99.5933 69.0912 100.118 69.3425 100.811C69.5938 101.504 69.7195 102.362 69.7195 103.385C69.7195 104.399 69.5895 105.261 69.3295 105.972C69.0782 106.674 68.7055 107.211 68.2115 107.584C67.7175 107.948 67.1065 108.13 66.3785 108.13ZM66.3785 106.765C66.9678 106.765 67.4012 106.496 67.6785 105.959C67.9645 105.413 68.1075 104.555 68.1075 103.385C68.1075 102.224 67.9645 101.383 67.6785 100.863C67.4012 100.334 66.9678 100.07 66.3785 100.07C65.7978 100.07 65.3645 100.334 65.0785 100.863C64.7925 101.383 64.6495 102.228 64.6495 103.398C64.6495 104.559 64.7925 105.413 65.0785 105.959C65.3645 106.496 65.7978 106.765 66.3785 106.765ZM70.9754 108V106.193H72.7954V108H70.9754ZM74.616 108L79.049 99.654V100.226H74.213V98.835H80.596V100.083L76.449 108H74.616ZM82.333 108V106.765L85.297 103.606C85.5656 103.32 85.778 103.056 85.934 102.813C86.0986 102.57 86.22 102.336 86.298 102.111C86.376 101.886 86.415 101.66 86.415 101.435C86.415 101.002 86.2763 100.672 85.999 100.447C85.7303 100.222 85.336 100.109 84.816 100.109C84.4086 100.109 84.01 100.187 83.62 100.343C83.2386 100.49 82.8703 100.724 82.515 101.045L81.956 99.797C82.32 99.4677 82.775 99.2033 83.321 99.004C83.867 98.8047 84.4346 98.705 85.024 98.705C85.6826 98.705 86.2373 98.8047 86.688 99.004C87.1386 99.2033 87.481 99.4937 87.715 99.875C87.949 100.256 88.066 100.72 88.066 101.266C88.066 101.543 88.0313 101.816 87.962 102.085C87.9013 102.345 87.8016 102.605 87.663 102.865C87.533 103.125 87.364 103.394 87.156 103.671C86.9566 103.94 86.714 104.221 86.428 104.516L83.984 107.064V106.622H88.417V108H82.333ZM93.9438 108V106.193H92.8388V105.049H93.9438V104.165H92.8388V103.021H93.9438V98.835H97.0508C97.7181 98.835 98.2815 98.9477 98.7408 99.173C99.2088 99.3983 99.5598 99.7147 99.7938 100.122C100.036 100.529 100.158 101.006 100.158 101.552C100.158 102.081 100.036 102.54 99.7938 102.93C99.5511 103.32 99.2045 103.623 98.7538 103.84C98.3031 104.057 97.7571 104.165 97.1158 104.165H95.6338V105.049H97.7138V106.193H95.6338V108H93.9438ZM95.6078 103.021H96.8428C97.3888 103.021 97.8091 102.917 98.1038 102.709C98.3985 102.501 98.5458 102.154 98.5458 101.669C98.5458 101.184 98.3985 100.824 98.1038 100.59C97.8178 100.356 97.3975 100.239 96.8428 100.239H95.6078V103.021Z" fill="#2EBD85"/>
</svg>
