<svg width="384" height="131" viewBox="0 0 384 131" fill="none" xmlns="http://www.w3.org/2000/svg">
<rect width="384" height="131" rx="8" fill="#181A20"/>
<path opacity="0.4" d="M21.174 31.117C20.2467 31.117 19.4537 30.9263 18.795 30.545C18.1363 30.1637 17.6293 29.622 17.274 28.92C16.9273 28.2093 16.754 27.373 16.754 26.411C16.754 25.449 16.9273 24.617 17.274 23.915C17.6293 23.213 18.1363 22.6713 18.795 22.29C19.4537 21.9087 20.2467 21.718 21.174 21.718C21.798 21.718 22.3787 21.8177 22.916 22.017C23.462 22.2077 23.917 22.485 24.281 22.849L23.813 23.928C23.4143 23.5727 23.0027 23.317 22.578 23.161C22.162 22.9963 21.707 22.914 21.213 22.914C20.225 22.914 19.471 23.2173 18.951 23.824C18.431 24.4307 18.171 25.293 18.171 26.411C18.171 27.529 18.431 28.3957 18.951 29.011C19.471 29.6177 20.225 29.921 21.213 29.921C21.707 29.921 22.162 29.843 22.578 29.687C23.0027 29.5223 23.4143 29.2623 23.813 28.907L24.281 29.986C23.917 30.35 23.462 30.6317 22.916 30.831C22.3787 31.0217 21.798 31.117 21.174 31.117ZM25.1232 32.69V29.96H25.8252C26.0158 29.674 26.1675 29.3663 26.2802 29.037C26.3928 28.7077 26.4752 28.335 26.5272 27.919C26.5792 27.503 26.6052 27.0307 26.6052 26.502V24.656H31.2982V29.96H32.3122V32.69H31.1942V31H26.2542V32.69H25.1232ZM27.0472 29.96H30.0502V25.683H27.7492V26.775C27.7492 27.373 27.6885 27.9537 27.5672 28.517C27.4458 29.0803 27.2725 29.5613 27.0472 29.96ZM36.6089 31.117C35.9155 31.117 35.3175 30.987 34.8149 30.727C34.3209 30.4583 33.9352 30.0813 33.6579 29.596C33.3892 29.102 33.2549 28.517 33.2549 27.841C33.2549 27.1823 33.3892 26.606 33.6579 26.112C33.9265 25.618 34.2949 25.2323 34.7629 24.955C35.2309 24.6777 35.7639 24.539 36.3619 24.539C36.9512 24.539 37.4539 24.669 37.8699 24.929C38.2945 25.1803 38.6195 25.54 38.8449 26.008C39.0702 26.476 39.1829 27.035 39.1829 27.685V28.127H34.2949V27.321H38.2989L38.0779 27.503C38.0779 26.853 37.9349 26.3503 37.6489 25.995C37.3629 25.6397 36.9512 25.462 36.4139 25.462C36.0065 25.462 35.6599 25.5573 35.3739 25.748C35.0965 25.9387 34.8842 26.203 34.7369 26.541C34.5895 26.879 34.5159 27.2733 34.5159 27.724V27.802C34.5159 28.3047 34.5939 28.7293 34.7499 29.076C34.9145 29.414 35.1529 29.6697 35.4649 29.843C35.7769 30.0163 36.1625 30.103 36.6219 30.103C36.9859 30.103 37.3412 30.0467 37.6879 29.934C38.0432 29.8127 38.3769 29.6263 38.6889 29.375L39.0789 30.285C38.7929 30.545 38.4245 30.7487 37.9739 30.896C37.5232 31.0433 37.0682 31.117 36.6089 31.117ZM40.4679 31.169L40.0259 30.129C40.3119 30.0163 40.5503 29.869 40.7409 29.687C40.9403 29.505 41.0963 29.2753 41.2089 28.998C41.3216 28.712 41.4039 28.361 41.4559 27.945C41.5079 27.529 41.5339 27.0263 41.5339 26.437V24.656H46.3699V31H45.0569V25.709H42.7559V26.476C42.7559 27.1953 42.7126 27.8237 42.6259 28.361C42.5393 28.8897 42.4049 29.3403 42.2229 29.713C42.0409 30.0857 41.8026 30.389 41.5079 30.623C41.2219 30.857 40.8753 31.039 40.4679 31.169ZM48.3454 31V24.656H49.6584V27.23H50.7244L52.6874 24.656H54.1174L51.7644 27.789L51.4394 27.373C51.6821 27.399 51.8944 27.4597 52.0764 27.555C52.2584 27.6503 52.4274 27.7933 52.5834 27.984C52.7481 28.1747 52.9214 28.426 53.1034 28.738L54.4164 31H53.0124L51.9074 29.102C51.7774 28.8767 51.6474 28.7033 51.5174 28.582C51.3961 28.4607 51.2618 28.3783 51.1144 28.335C50.9671 28.283 50.7808 28.257 50.5554 28.257H49.6584V31H48.3454ZM55.3786 31V24.656H56.5746V29.7H56.2366L60.0066 24.656H61.1116V31H59.9156V25.956H60.2666L56.4836 31H55.3786ZM68.7097 31.117C68.1551 31.117 67.6307 31.0477 67.1367 30.909C66.6427 30.7703 66.2397 30.5753 65.9277 30.324L66.3047 29.44C66.6081 29.674 66.9677 29.8517 67.3837 29.973C67.8084 30.0857 68.2417 30.142 68.6837 30.142C69.2644 30.142 69.6847 30.064 69.9447 29.908C70.2047 29.752 70.3347 29.5137 70.3347 29.193C70.3347 28.8983 70.2307 28.673 70.0227 28.517C69.8234 28.3523 69.5287 28.27 69.1387 28.27H67.5527V27.308H68.9957C69.3424 27.308 69.6154 27.2343 69.8147 27.087C70.0141 26.931 70.1137 26.7143 70.1137 26.437C70.1137 26.151 69.9967 25.9257 69.7627 25.761C69.5374 25.5963 69.1604 25.514 68.6317 25.514C68.1984 25.514 67.7997 25.5703 67.4357 25.683C67.0717 25.787 66.7251 25.9473 66.3957 26.164L66.0187 25.293C66.3741 25.0417 66.7901 24.8553 67.2667 24.734C67.7434 24.604 68.2634 24.539 68.8267 24.539C69.6501 24.539 70.2697 24.6993 70.6857 25.02C71.1104 25.332 71.3227 25.7653 71.3227 26.32C71.3227 26.7273 71.1841 27.0697 70.9067 27.347C70.6381 27.6157 70.2784 27.776 69.8277 27.828V27.659C70.1831 27.6677 70.4864 27.7413 70.7377 27.88C70.9977 28.01 71.1971 28.192 71.3357 28.426C71.4831 28.66 71.5567 28.9287 71.5567 29.232C71.5567 29.804 71.3141 30.2633 70.8287 30.61C70.3434 30.948 69.6371 31.117 68.7097 31.117ZM75.1296 31.117C74.6876 31.117 74.2889 31.0303 73.9336 30.857C73.5869 30.6837 73.3139 30.4497 73.1146 30.155C72.9153 29.8603 72.8156 29.5267 72.8156 29.154C72.8156 28.686 72.9326 28.3177 73.1666 28.049C73.4093 27.7717 73.8036 27.5767 74.3496 27.464C74.9043 27.3427 75.6496 27.282 76.5856 27.282H77.1966V28.088H76.5986C76.1306 28.088 75.7363 28.1053 75.4156 28.14C75.0949 28.1747 74.8393 28.231 74.6486 28.309C74.4579 28.3783 74.3193 28.478 74.2326 28.608C74.1546 28.738 74.1156 28.894 74.1156 29.076C74.1156 29.4053 74.2283 29.674 74.4536 29.882C74.6789 30.0813 74.9909 30.181 75.3896 30.181C75.7103 30.181 75.9919 30.1073 76.2346 29.96C76.4773 29.804 76.6679 29.596 76.8066 29.336C76.9539 29.076 77.0276 28.777 77.0276 28.439V26.944C77.0276 26.45 76.9236 26.0947 76.7156 25.878C76.5076 25.6613 76.1653 25.553 75.6886 25.553C75.3246 25.553 74.9606 25.6093 74.5966 25.722C74.2326 25.826 73.8599 25.995 73.4786 26.229L73.0756 25.306C73.3009 25.15 73.5609 25.0157 73.8556 24.903C74.1503 24.7903 74.4579 24.7037 74.7786 24.643C75.1079 24.5737 75.4243 24.539 75.7276 24.539C76.3083 24.539 76.7849 24.63 77.1576 24.812C77.5389 24.994 77.8206 25.2713 78.0026 25.644C78.1846 26.0167 78.2756 26.4977 78.2756 27.087V31H77.0406V29.583H77.1576C77.0883 29.9037 76.9583 30.181 76.7676 30.415C76.5856 30.6403 76.3559 30.8137 76.0786 30.935C75.8013 31.0563 75.4849 31.117 75.1296 31.117ZM83.6384 31V24.656H84.7174L87.0184 28.673L89.3064 24.656H90.3854V31H89.2284V26.177H89.5274L87.3304 29.973H86.6934L84.4964 26.177H84.7954V31H83.6384ZM95.3501 31.117C94.6567 31.117 94.0587 30.987 93.5561 30.727C93.0621 30.4583 92.6764 30.0813 92.3991 29.596C92.1304 29.102 91.9961 28.517 91.9961 27.841C91.9961 27.1823 92.1304 26.606 92.3991 26.112C92.6677 25.618 93.0361 25.2323 93.5041 24.955C93.9721 24.6777 94.5051 24.539 95.1031 24.539C95.6924 24.539 96.1951 24.669 96.6111 24.929C97.0357 25.1803 97.3607 25.54 97.5861 26.008C97.8114 26.476 97.9241 27.035 97.9241 27.685V28.127H93.0361V27.321H97.0401L96.8191 27.503C96.8191 26.853 96.6761 26.3503 96.3901 25.995C96.1041 25.6397 95.6924 25.462 95.1551 25.462C94.7477 25.462 94.4011 25.5573 94.1151 25.748C93.8377 25.9387 93.6254 26.203 93.4781 26.541C93.3307 26.879 93.2571 27.2733 93.2571 27.724V27.802C93.2571 28.3047 93.3351 28.7293 93.4911 29.076C93.6557 29.414 93.8941 29.6697 94.2061 29.843C94.5181 30.0163 94.9037 30.103 95.3631 30.103C95.7271 30.103 96.0824 30.0467 96.4291 29.934C96.7844 29.8127 97.1181 29.6263 97.4301 29.375L97.8201 30.285C97.5341 30.545 97.1657 30.7487 96.7151 30.896C96.2644 31.0433 95.8094 31.117 95.3501 31.117ZM102.29 31.117C101.64 31.117 101.077 30.9827 100.6 30.714C100.132 30.4367 99.7681 30.051 99.5081 29.557C99.2481 29.0543 99.1181 28.465 99.1181 27.789C99.1181 27.1217 99.2481 26.5453 99.5081 26.06C99.7681 25.5747 100.132 25.202 100.6 24.942C101.077 24.6733 101.64 24.539 102.29 24.539C102.689 24.539 103.083 24.6083 103.473 24.747C103.863 24.877 104.184 25.0677 104.435 25.319L104.019 26.242C103.785 26.0167 103.521 25.852 103.226 25.748C102.931 25.6353 102.654 25.579 102.394 25.579C101.779 25.579 101.302 25.774 100.964 26.164C100.635 26.5453 100.47 27.0913 100.47 27.802C100.47 28.5127 100.635 29.0717 100.964 29.479C101.302 29.8777 101.779 30.077 102.394 30.077C102.654 30.077 102.931 30.025 103.226 29.921C103.521 29.8083 103.785 29.6393 104.019 29.414L104.435 30.35C104.184 30.584 103.859 30.7703 103.46 30.909C103.07 31.0477 102.68 31.117 102.29 31.117ZM105.17 31L106.132 29.336C106.297 29.0413 106.505 28.8073 106.756 28.634C107.007 28.452 107.263 28.361 107.523 28.361H107.731V28.491C107.254 28.491 106.843 28.4173 106.496 28.27C106.158 28.1227 105.898 27.906 105.716 27.62C105.543 27.334 105.456 26.9917 105.456 26.593C105.456 26.0037 105.655 25.5357 106.054 25.189C106.453 24.8337 107.046 24.656 107.835 24.656H110.864V31H109.642V28.686H108.823C108.52 28.686 108.26 28.764 108.043 28.92C107.826 29.076 107.649 29.2753 107.51 29.518L106.665 31H105.17ZM108.108 27.789H109.642V25.553H108.108C107.631 25.553 107.28 25.6527 107.055 25.852C106.83 26.0427 106.717 26.3113 106.717 26.658C106.717 27.0133 106.83 27.2907 107.055 27.49C107.28 27.6893 107.631 27.789 108.108 27.789ZM118.324 32.69V31H112.838V24.656H114.151V29.96H117.115V24.656H118.428V29.96H119.442V32.69H118.324Z" fill="white"/>
<path d="M21.4 58.18C20.404 58.18 19.558 57.928 18.862 57.424C18.178 56.908 17.656 56.164 17.296 55.192C16.948 54.22 16.774 53.032 16.774 51.628C16.774 50.212 16.948 49.024 17.296 48.064C17.656 47.092 18.178 46.36 18.862 45.868C19.558 45.376 20.404 45.13 21.4 45.13C22.408 45.13 23.254 45.376 23.938 45.868C24.634 46.36 25.156 47.086 25.504 48.046C25.852 49.006 26.026 50.194 26.026 51.61C26.026 53.014 25.846 54.208 25.486 55.192C25.138 56.164 24.622 56.908 23.938 57.424C23.254 57.928 22.408 58.18 21.4 58.18ZM21.4 56.29C22.216 56.29 22.816 55.918 23.2 55.174C23.596 54.418 23.794 53.23 23.794 51.61C23.794 50.002 23.596 48.838 23.2 48.118C22.816 47.386 22.216 47.02 21.4 47.02C20.596 47.02 19.996 47.386 19.6 48.118C19.204 48.838 19.006 50.008 19.006 51.628C19.006 53.236 19.204 54.418 19.6 55.174C19.996 55.918 20.596 56.29 21.4 56.29Z" fill="white"/>
<path opacity="0.4" d="M21.174 86.117C20.2467 86.117 19.4537 85.9263 18.795 85.545C18.1363 85.1637 17.6293 84.622 17.274 83.92C16.9273 83.2093 16.754 82.373 16.754 81.411C16.754 80.449 16.9273 79.617 17.274 78.915C17.6293 78.213 18.1363 77.6713 18.795 77.29C19.4537 76.9087 20.2467 76.718 21.174 76.718C21.798 76.718 22.3787 76.8177 22.916 77.017C23.462 77.2077 23.917 77.485 24.281 77.849L23.813 78.928C23.4143 78.5727 23.0027 78.317 22.578 78.161C22.162 77.9963 21.707 77.914 21.213 77.914C20.225 77.914 19.471 78.2173 18.951 78.824C18.431 79.4307 18.171 80.293 18.171 81.411C18.171 82.529 18.431 83.3957 18.951 84.011C19.471 84.6177 20.225 84.921 21.213 84.921C21.707 84.921 22.162 84.843 22.578 84.687C23.0027 84.5223 23.4143 84.2623 23.813 83.907L24.281 84.986C23.917 85.35 23.462 85.6317 22.916 85.831C22.3787 86.0217 21.798 86.117 21.174 86.117ZM25.1232 87.69V84.96H25.8252C26.0158 84.674 26.1675 84.3663 26.2802 84.037C26.3928 83.7077 26.4752 83.335 26.5272 82.919C26.5792 82.503 26.6052 82.0307 26.6052 81.502V79.656H31.2982V84.96H32.3122V87.69H31.1942V86H26.2542V87.69H25.1232ZM27.0472 84.96H30.0502V80.683H27.7492V81.775C27.7492 82.373 27.6885 82.9537 27.5672 83.517C27.4458 84.0803 27.2725 84.5613 27.0472 84.96ZM36.6089 86.117C35.9155 86.117 35.3175 85.987 34.8149 85.727C34.3209 85.4583 33.9352 85.0813 33.6579 84.596C33.3892 84.102 33.2549 83.517 33.2549 82.841C33.2549 82.1823 33.3892 81.606 33.6579 81.112C33.9265 80.618 34.2949 80.2323 34.7629 79.955C35.2309 79.6777 35.7639 79.539 36.3619 79.539C36.9512 79.539 37.4539 79.669 37.8699 79.929C38.2945 80.1803 38.6195 80.54 38.8449 81.008C39.0702 81.476 39.1829 82.035 39.1829 82.685V83.127H34.2949V82.321H38.2989L38.0779 82.503C38.0779 81.853 37.9349 81.3503 37.6489 80.995C37.3629 80.6397 36.9512 80.462 36.4139 80.462C36.0065 80.462 35.6599 80.5573 35.3739 80.748C35.0965 80.9387 34.8842 81.203 34.7369 81.541C34.5895 81.879 34.5159 82.2733 34.5159 82.724V82.802C34.5159 83.3047 34.5939 83.7293 34.7499 84.076C34.9145 84.414 35.1529 84.6697 35.4649 84.843C35.7769 85.0163 36.1625 85.103 36.6219 85.103C36.9859 85.103 37.3412 85.0467 37.6879 84.934C38.0432 84.8127 38.3769 84.6263 38.6889 84.375L39.0789 85.285C38.7929 85.545 38.4245 85.7487 37.9739 85.896C37.5232 86.0433 37.0682 86.117 36.6089 86.117ZM40.4679 86.169L40.0259 85.129C40.3119 85.0163 40.5503 84.869 40.7409 84.687C40.9403 84.505 41.0963 84.2753 41.2089 83.998C41.3216 83.712 41.4039 83.361 41.4559 82.945C41.5079 82.529 41.5339 82.0263 41.5339 81.437V79.656H46.3699V86H45.0569V80.709H42.7559V81.476C42.7559 82.1953 42.7126 82.8237 42.6259 83.361C42.5393 83.8897 42.4049 84.3403 42.2229 84.713C42.0409 85.0857 41.8026 85.389 41.5079 85.623C41.2219 85.857 40.8753 86.039 40.4679 86.169ZM48.3454 86V79.656H49.6584V82.23H50.7244L52.6874 79.656H54.1174L51.7644 82.789L51.4394 82.373C51.6821 82.399 51.8944 82.4597 52.0764 82.555C52.2584 82.6503 52.4274 82.7933 52.5834 82.984C52.7481 83.1747 52.9214 83.426 53.1034 83.738L54.4164 86H53.0124L51.9074 84.102C51.7774 83.8767 51.6474 83.7033 51.5174 83.582C51.3961 83.4607 51.2618 83.3783 51.1144 83.335C50.9671 83.283 50.7808 83.257 50.5554 83.257H49.6584V86H48.3454ZM55.3786 86V79.656H56.5746V84.7H56.2366L60.0066 79.656H61.1116V86H59.9156V80.956H60.2666L56.4836 86H55.3786ZM68.7097 86.117C68.1551 86.117 67.6307 86.0477 67.1367 85.909C66.6427 85.7703 66.2397 85.5753 65.9277 85.324L66.3047 84.44C66.6081 84.674 66.9677 84.8517 67.3837 84.973C67.8084 85.0857 68.2417 85.142 68.6837 85.142C69.2644 85.142 69.6847 85.064 69.9447 84.908C70.2047 84.752 70.3347 84.5137 70.3347 84.193C70.3347 83.8983 70.2307 83.673 70.0227 83.517C69.8234 83.3523 69.5287 83.27 69.1387 83.27H67.5527V82.308H68.9957C69.3424 82.308 69.6154 82.2343 69.8147 82.087C70.0141 81.931 70.1137 81.7143 70.1137 81.437C70.1137 81.151 69.9967 80.9257 69.7627 80.761C69.5374 80.5963 69.1604 80.514 68.6317 80.514C68.1984 80.514 67.7997 80.5703 67.4357 80.683C67.0717 80.787 66.7251 80.9473 66.3957 81.164L66.0187 80.293C66.3741 80.0417 66.7901 79.8553 67.2667 79.734C67.7434 79.604 68.2634 79.539 68.8267 79.539C69.6501 79.539 70.2697 79.6993 70.6857 80.02C71.1104 80.332 71.3227 80.7653 71.3227 81.32C71.3227 81.7273 71.1841 82.0697 70.9067 82.347C70.6381 82.6157 70.2784 82.776 69.8277 82.828V82.659C70.1831 82.6677 70.4864 82.7413 70.7377 82.88C70.9977 83.01 71.1971 83.192 71.3357 83.426C71.4831 83.66 71.5567 83.9287 71.5567 84.232C71.5567 84.804 71.3141 85.2633 70.8287 85.61C70.3434 85.948 69.6371 86.117 68.7097 86.117ZM75.1296 86.117C74.6876 86.117 74.2889 86.0303 73.9336 85.857C73.5869 85.6837 73.3139 85.4497 73.1146 85.155C72.9153 84.8603 72.8156 84.5267 72.8156 84.154C72.8156 83.686 72.9326 83.3177 73.1666 83.049C73.4093 82.7717 73.8036 82.5767 74.3496 82.464C74.9043 82.3427 75.6496 82.282 76.5856 82.282H77.1966V83.088H76.5986C76.1306 83.088 75.7363 83.1053 75.4156 83.14C75.0949 83.1747 74.8393 83.231 74.6486 83.309C74.4579 83.3783 74.3193 83.478 74.2326 83.608C74.1546 83.738 74.1156 83.894 74.1156 84.076C74.1156 84.4053 74.2283 84.674 74.4536 84.882C74.6789 85.0813 74.9909 85.181 75.3896 85.181C75.7103 85.181 75.9919 85.1073 76.2346 84.96C76.4773 84.804 76.6679 84.596 76.8066 84.336C76.9539 84.076 77.0276 83.777 77.0276 83.439V81.944C77.0276 81.45 76.9236 81.0947 76.7156 80.878C76.5076 80.6613 76.1653 80.553 75.6886 80.553C75.3246 80.553 74.9606 80.6093 74.5966 80.722C74.2326 80.826 73.8599 80.995 73.4786 81.229L73.0756 80.306C73.3009 80.15 73.5609 80.0157 73.8556 79.903C74.1503 79.7903 74.4579 79.7037 74.7786 79.643C75.1079 79.5737 75.4243 79.539 75.7276 79.539C76.3083 79.539 76.7849 79.63 77.1576 79.812C77.5389 79.994 77.8206 80.2713 78.0026 80.644C78.1846 81.0167 78.2756 81.4977 78.2756 82.087V86H77.0406V84.583H77.1576C77.0883 84.9037 76.9583 85.181 76.7676 85.415C76.5856 85.6403 76.3559 85.8137 76.0786 85.935C75.8013 86.0563 75.4849 86.117 75.1296 86.117ZM83.6384 86V79.656H86.8754C87.3954 79.656 87.8201 79.721 88.1494 79.851C88.4874 79.981 88.7344 80.1717 88.8904 80.423C89.0464 80.6657 89.1244 80.9647 89.1244 81.32C89.1244 81.7273 88.9857 82.0697 88.7084 82.347C88.4311 82.6157 88.0671 82.776 87.6164 82.828V82.659C87.9804 82.6677 88.2881 82.7413 88.5394 82.88C88.7994 83.0187 88.9944 83.205 89.1244 83.439C89.2631 83.6643 89.3324 83.9287 89.3324 84.232C89.3324 84.778 89.1287 85.2113 88.7214 85.532C88.3141 85.844 87.7334 86 86.9794 86H83.6384ZM84.8734 85.155H86.9014C87.2914 85.155 87.5904 85.0727 87.7984 84.908C88.0151 84.7347 88.1234 84.4877 88.1234 84.167C88.1234 83.8463 88.0151 83.6037 87.7984 83.439C87.5904 83.2743 87.2914 83.192 86.9014 83.192H84.8734V85.155ZM84.8734 82.347H86.7844C87.1397 82.347 87.4127 82.2647 87.6034 82.1C87.8027 81.9353 87.9024 81.71 87.9024 81.424C87.9024 81.1293 87.8027 80.904 87.6034 80.748C87.4127 80.592 87.1397 80.514 86.7844 80.514H84.8734V82.347ZM93.67 86.117C93.02 86.117 92.4567 85.9827 91.98 85.714C91.512 85.4367 91.148 85.051 90.888 84.557C90.628 84.0543 90.498 83.465 90.498 82.789C90.498 82.1217 90.628 81.5453 90.888 81.06C91.148 80.5747 91.512 80.202 91.98 79.942C92.4567 79.6733 93.02 79.539 93.67 79.539C94.0687 79.539 94.463 79.6083 94.853 79.747C95.243 79.877 95.5637 80.0677 95.815 80.319L95.399 81.242C95.165 81.0167 94.9007 80.852 94.606 80.748C94.3114 80.6353 94.034 80.579 93.774 80.579C93.1587 80.579 92.682 80.774 92.344 81.164C92.0147 81.5453 91.85 82.0913 91.85 82.802C91.85 83.5127 92.0147 84.0717 92.344 84.479C92.682 84.8777 93.1587 85.077 93.774 85.077C94.034 85.077 94.3114 85.025 94.606 84.921C94.9007 84.8083 95.165 84.6393 95.399 84.414L95.815 85.35C95.5637 85.584 95.2387 85.7703 94.84 85.909C94.45 86.0477 94.06 86.117 93.67 86.117ZM100.073 86.117C99.3794 86.117 98.7814 85.987 98.2787 85.727C97.7847 85.4583 97.3991 85.0813 97.1217 84.596C96.8531 84.102 96.7187 83.517 96.7187 82.841C96.7187 82.1823 96.8531 81.606 97.1217 81.112C97.3904 80.618 97.7587 80.2323 98.2267 79.955C98.6947 79.6777 99.2277 79.539 99.8257 79.539C100.415 79.539 100.918 79.669 101.334 79.929C101.758 80.1803 102.083 80.54 102.309 81.008C102.534 81.476 102.647 82.035 102.647 82.685V83.127H97.7587V82.321H101.763L101.542 82.503C101.542 81.853 101.399 81.3503 101.113 80.995C100.827 80.6397 100.415 80.462 99.8777 80.462C99.4704 80.462 99.1237 80.5573 98.8377 80.748C98.5604 80.9387 98.3481 81.203 98.2007 81.541C98.0534 81.879 97.9797 82.2733 97.9797 82.724V82.802C97.9797 83.3047 98.0577 83.7293 98.2137 84.076C98.3784 84.414 98.6167 84.6697 98.9287 84.843C99.2407 85.0163 99.6264 85.103 100.086 85.103C100.45 85.103 100.805 85.0467 101.152 84.934C101.507 84.8127 101.841 84.6263 102.153 84.375L102.543 85.285C102.257 85.545 101.888 85.7487 101.438 85.896C100.987 86.0433 100.532 86.117 100.073 86.117ZM107.62 86V79.656H110.857C111.377 79.656 111.802 79.721 112.131 79.851C112.469 79.981 112.716 80.1717 112.872 80.423C113.028 80.6657 113.106 80.9647 113.106 81.32C113.106 81.7273 112.967 82.0697 112.69 82.347C112.413 82.6157 112.049 82.776 111.598 82.828V82.659C111.962 82.6677 112.27 82.7413 112.521 82.88C112.781 83.0187 112.976 83.205 113.106 83.439C113.245 83.6643 113.314 83.9287 113.314 84.232C113.314 84.778 113.11 85.2113 112.703 85.532C112.296 85.844 111.715 86 110.961 86H107.62ZM108.855 85.155H110.883C111.273 85.155 111.572 85.0727 111.78 84.908C111.997 84.7347 112.105 84.4877 112.105 84.167C112.105 83.8463 111.997 83.6037 111.78 83.439C111.572 83.2743 111.273 83.192 110.883 83.192H108.855V85.155ZM108.855 82.347H110.766C111.121 82.347 111.394 82.2647 111.585 82.1C111.784 81.9353 111.884 81.71 111.884 81.424C111.884 81.1293 111.784 80.904 111.585 80.748C111.394 80.592 111.121 80.514 110.766 80.514H108.855V82.347ZM114.856 88.34V79.656H116.143V81.086H116C116.139 80.618 116.412 80.2453 116.819 79.968C117.227 79.682 117.708 79.539 118.262 79.539C118.826 79.539 119.315 79.6733 119.731 79.942C120.156 80.2107 120.481 80.5877 120.706 81.073C120.94 81.5583 121.057 82.1433 121.057 82.828C121.057 83.4953 120.94 84.0803 120.706 84.583C120.481 85.077 120.16 85.4583 119.744 85.727C119.328 85.987 118.834 86.117 118.262 86.117C117.716 86.117 117.24 85.9783 116.832 85.701C116.425 85.4237 116.152 85.0553 116.013 84.596H116.169V88.34H114.856ZM117.937 85.103C118.483 85.103 118.917 84.908 119.237 84.518C119.567 84.128 119.731 83.5647 119.731 82.828C119.731 82.0827 119.567 81.5193 119.237 81.138C118.917 80.7567 118.483 80.566 117.937 80.566C117.4 80.566 116.967 80.7567 116.637 81.138C116.308 81.5193 116.143 82.0827 116.143 82.828C116.143 83.5647 116.308 84.128 116.637 84.518C116.967 84.908 117.4 85.103 117.937 85.103ZM125.654 86.117C124.96 86.117 124.362 85.987 123.86 85.727C123.366 85.4583 122.98 85.0813 122.703 84.596C122.434 84.102 122.3 83.517 122.3 82.841C122.3 82.1823 122.434 81.606 122.703 81.112C122.971 80.618 123.34 80.2323 123.808 79.955C124.276 79.6777 124.809 79.539 125.407 79.539C125.996 79.539 126.499 79.669 126.915 79.929C127.339 80.1803 127.664 80.54 127.89 81.008C128.115 81.476 128.228 82.035 128.228 82.685V83.127H123.34V82.321H127.344L127.123 82.503C127.123 81.853 126.98 81.3503 126.694 80.995C126.408 80.6397 125.996 80.462 125.459 80.462C125.051 80.462 124.705 80.5573 124.419 80.748C124.141 80.9387 123.929 81.203 123.782 81.541C123.634 81.879 123.561 82.2733 123.561 82.724V82.802C123.561 83.3047 123.639 83.7293 123.795 84.076C123.959 84.414 124.198 84.6697 124.51 84.843C124.822 85.0163 125.207 85.103 125.667 85.103C126.031 85.103 126.386 85.0467 126.733 84.934C127.088 84.8127 127.422 84.6263 127.734 84.375L128.124 85.285C127.838 85.545 127.469 85.7487 127.019 85.896C126.568 86.0433 126.113 86.117 125.654 86.117ZM129.786 86V79.656H130.865L133.166 83.673L135.454 79.656H136.533V86H135.376V81.177H135.675L133.478 84.973H132.841L130.644 81.177H130.943V86H129.786ZM137.975 86L138.937 84.336C139.101 84.0413 139.309 83.8073 139.561 83.634C139.812 83.452 140.068 83.361 140.328 83.361H140.536V83.491C140.059 83.491 139.647 83.4173 139.301 83.27C138.963 83.1227 138.703 82.906 138.521 82.62C138.347 82.334 138.261 81.9917 138.261 81.593C138.261 81.0037 138.46 80.5357 138.859 80.189C139.257 79.8337 139.851 79.656 140.64 79.656H143.669V86H142.447V83.686H141.628C141.324 83.686 141.064 83.764 140.848 83.92C140.631 84.076 140.453 84.2753 140.315 84.518L139.47 86H137.975ZM140.913 82.789H142.447V80.553H140.913C140.436 80.553 140.085 80.6527 139.86 80.852C139.634 81.0427 139.522 81.3113 139.522 81.658C139.522 82.0133 139.634 82.2907 139.86 82.49C140.085 82.6893 140.436 82.789 140.913 82.789Z" fill="white"/>
<path d="M17.04 108V106.765L20.004 103.606C20.2727 103.32 20.485 103.056 20.641 102.813C20.8057 102.57 20.927 102.336 21.005 102.111C21.083 101.886 21.122 101.66 21.122 101.435C21.122 101.002 20.9833 100.672 20.706 100.447C20.4373 100.222 20.043 100.109 19.523 100.109C19.1157 100.109 18.717 100.187 18.327 100.343C17.9457 100.49 17.5773 100.724 17.222 101.045L16.663 99.797C17.027 99.4677 17.482 99.2033 18.028 99.004C18.574 98.8047 19.1417 98.705 19.731 98.705C20.3897 98.705 20.9443 98.8047 21.395 99.004C21.8457 99.2033 22.188 99.4937 22.422 99.875C22.656 100.256 22.773 100.72 22.773 101.266C22.773 101.543 22.7383 101.816 22.669 102.085C22.6083 102.345 22.5087 102.605 22.37 102.865C22.24 103.125 22.071 103.394 21.863 103.671C21.6637 103.94 21.421 104.221 21.135 104.516L18.691 107.064V106.622H23.124V108H17.04Z" fill="white"/>
</svg>
