<svg width="1200" height="709" viewBox="0 0 1200 709" fill="none" xmlns="http://www.w3.org/2000/svg">
<rect width="1200" height="709" fill="#181A20"/>
<path d="M432 176H768V360C768 364.418 764.418 368 760 368H440C435.582 368 432 364.418 432 360V176Z" fill="url(#paint0_linear_308_247)"/>
<g opacity="0.8" filter="url(#filter0_d_308_247)">
<path d="M432 168C432 163.582 435.582 160 440 160H760C764.418 160 768 163.582 768 168V176H432V168Z" fill="#A06AFF"/>
</g>
<g filter="url(#filter1_d_308_247)">
<rect x="440" y="184" width="186" height="104" rx="8" fill="#44316D"/>
</g>
<path d="M454 244.2H474.563C476.229 244.2 477.785 245.029 478.713 246.411L489.445 262.379C491.417 265.313 495.729 265.33 497.723 262.411L520.052 229.729C522.157 226.648 526.773 226.875 528.566 230.148L537.121 245.765C538.672 248.596 542.459 249.237 544.856 247.075L553.766 239.036C556.326 236.726 560.4 237.639 561.729 240.82L572.556 266.732C574.147 270.542 579.408 270.89 581.488 267.324L598.651 237.896C599.127 237.081 599.824 236.417 600.661 235.981L612 230.075" stroke="white" stroke-width="4" stroke-linecap="round"/>
<rect opacity="0.4" x="452" y="196" width="40" height="4" rx="2" fill="white"/>
<rect opacity="0.4" x="452" y="204" width="66" height="4" rx="2" fill="#A06AFF"/>
<g filter="url(#filter2_d_308_247)">
<rect x="574" y="296" width="186" height="64" rx="8" fill="white"/>
</g>
<rect x="620" y="308" width="128" height="4" rx="2" fill="#A06AFF"/>
<rect x="620" y="326" width="80" height="4" rx="2" fill="#A06AFF"/>
<rect x="620" y="344" width="104" height="4" rx="2" fill="#A06AFF"/>
<rect opacity="0.24" x="586" y="308" width="21" height="4" rx="2" fill="#A06AFF"/>
<rect opacity="0.24" x="586" y="344" width="21" height="4" rx="2" fill="#A06AFF"/>
<rect opacity="0.24" x="586" y="326" width="21" height="4" rx="2" fill="#A06AFF"/>
<g filter="url(#filter3_d_308_247)">
<rect x="440" y="296" width="126" height="64" rx="8" fill="#A06AFF"/>
</g>
<rect x="452" y="336" width="16" height="4" rx="2" fill="white"/>
<rect x="528" y="336" width="16" height="4" rx="2" fill="white"/>
<rect opacity="0.24" x="452" y="344" width="26" height="4" rx="2" fill="white"/>
<rect opacity="0.24" x="528" y="344" width="26" height="4" rx="2" fill="white"/>
<path opacity="0.24" d="M502 310C498.242 310 494.569 311.114 491.444 313.202C488.32 315.29 485.884 318.257 484.446 321.729C483.008 325.201 482.632 329.021 483.365 332.707C484.098 336.392 485.908 339.778 488.565 342.435C491.222 345.092 494.608 346.902 498.293 347.635C501.979 348.368 505.799 347.992 509.271 346.554C512.743 345.116 515.71 342.68 517.798 339.556C519.886 336.431 521 332.758 521 329H515.3C515.3 331.63 514.52 334.202 513.059 336.389C511.597 338.576 509.52 340.281 507.09 341.288C504.659 342.294 501.985 342.558 499.405 342.044C496.825 341.531 494.456 340.265 492.595 338.405C490.735 336.544 489.469 334.175 488.956 331.595C488.442 329.015 488.706 326.341 489.712 323.91C490.719 321.48 492.424 319.403 494.611 317.941C496.798 316.48 499.37 315.7 502 315.7V310Z" fill="white"/>
<path d="M523 327C523 324.505 522.509 322.034 521.554 319.729C520.599 317.424 519.199 315.329 517.435 313.565C515.671 311.801 513.576 310.401 511.271 309.446C508.966 308.491 506.495 308 504 308V313.7C505.747 313.7 507.476 314.044 509.09 314.712C510.703 315.381 512.17 316.36 513.405 317.595C514.64 318.83 515.619 320.297 516.288 321.91C516.956 323.524 517.3 325.253 517.3 327H523Z" fill="white"/>
<g filter="url(#filter4_d_308_247)">
<rect x="634" y="184" width="126" height="104" rx="8" fill="#A06AFF"/>
</g>
<rect x="646" y="264" width="40" height="4" rx="2" fill="white"/>
<rect opacity="0.24" x="646" y="272" width="66" height="4" rx="2" fill="white"/>
<path d="M648 207H668.84C671.024 207 672.955 208.417 673.61 210.5L685.556 248.5C686.211 250.583 688.142 252 690.326 252H697.675C700.038 252 702.078 250.347 702.567 248.036L708.424 220.367C708.913 218.056 710.953 216.403 713.316 216.403H721.509H746" stroke="white" stroke-width="4" stroke-linecap="round"/>
<path opacity="0.24" d="M648 241H660.646C662.102 241 663.485 240.366 664.435 239.262L700.19 197.738C701.14 196.634 702.523 196 703.979 196H718.142C720.301 196 722.216 197.386 722.891 199.436L733.233 230.847C733.908 232.898 735.824 234.284 737.982 234.284H746" stroke="white" stroke-width="4" stroke-linecap="round"/>
<path d="M518.724 434.162C517.824 434.162 517.008 434.012 516.276 433.712C515.544 433.412 514.914 432.974 514.386 432.398C513.87 431.822 513.474 431.138 513.198 430.346C512.922 429.542 512.784 428.642 512.784 427.646C512.784 426.65 512.922 425.756 513.198 424.964C513.474 424.16 513.87 423.476 514.386 422.912C514.902 422.336 515.526 421.898 516.258 421.598C516.99 421.298 517.812 421.148 518.724 421.148C519.624 421.148 520.44 421.298 521.172 421.598C521.904 421.898 522.528 422.33 523.044 422.894C523.572 423.458 523.974 424.142 524.25 424.946C524.526 425.738 524.664 426.632 524.664 427.628C524.664 428.624 524.526 429.524 524.25 430.328C523.974 431.132 523.572 431.822 523.044 432.398C522.528 432.974 521.904 433.412 521.172 433.712C520.44 434.012 519.624 434.162 518.724 434.162ZM518.724 432.542C519.564 432.542 520.278 432.35 520.866 431.966C521.466 431.582 521.922 431.024 522.234 430.292C522.558 429.56 522.72 428.678 522.72 427.646C522.72 426.614 522.564 425.732 522.252 425C521.94 424.268 521.484 423.716 520.884 423.344C520.296 422.96 519.576 422.768 518.724 422.768C517.884 422.768 517.164 422.96 516.564 423.344C515.976 423.716 515.52 424.268 515.196 425C514.884 425.732 514.728 426.614 514.728 427.646C514.728 428.666 514.884 429.548 515.196 430.292C515.52 431.024 515.976 431.582 516.564 431.966C517.164 432.35 517.884 432.542 518.724 432.542ZM532.123 437.24V432.182H532.303C532.111 432.818 531.799 433.31 531.367 433.658C530.947 433.994 530.419 434.162 529.783 434.162C529.147 434.162 528.589 433.976 528.109 433.604C527.629 433.232 527.251 432.704 526.975 432.02C526.699 431.336 526.561 430.532 526.561 429.608C526.561 428.672 526.693 427.868 526.957 427.196C527.233 426.512 527.611 425.984 528.091 425.612C528.583 425.24 529.147 425.054 529.783 425.054C530.419 425.054 530.953 425.228 531.385 425.576C531.817 425.924 532.123 426.41 532.303 427.034H532.123V421.31H533.941V427.034H533.761C533.929 426.41 534.229 425.924 534.661 425.576C535.105 425.228 535.639 425.054 536.263 425.054C536.899 425.054 537.457 425.24 537.937 425.612C538.429 425.984 538.807 426.512 539.071 427.196C539.347 427.868 539.485 428.672 539.485 429.608C539.485 430.532 539.353 431.336 539.089 432.02C538.825 432.704 538.447 433.232 537.955 433.604C537.475 433.976 536.911 434.162 536.263 434.162C535.639 434.162 535.111 433.994 534.679 433.658C534.259 433.31 533.953 432.818 533.761 432.182H533.941V437.24H532.123ZM530.269 432.776C530.665 432.776 531.001 432.662 531.277 432.434C531.553 432.194 531.769 431.84 531.925 431.372C532.081 430.892 532.159 430.304 532.159 429.608C532.159 428.912 532.081 428.33 531.925 427.862C531.769 427.394 531.547 427.046 531.259 426.818C530.983 426.578 530.653 426.458 530.269 426.458C529.693 426.458 529.231 426.722 528.883 427.25C528.547 427.778 528.379 428.564 528.379 429.608C528.379 430.664 528.547 431.456 528.883 431.984C529.231 432.512 529.693 432.776 530.269 432.776ZM535.777 432.776C536.365 432.776 536.827 432.512 537.163 431.984C537.499 431.456 537.667 430.664 537.667 429.608C537.667 428.564 537.493 427.778 537.145 427.25C536.809 426.722 536.353 426.458 535.777 426.458C535.393 426.458 535.063 426.578 534.787 426.818C534.511 427.046 534.295 427.394 534.139 427.862C533.983 428.33 533.905 428.912 533.905 429.608C533.905 430.304 533.983 430.892 534.139 431.372C534.295 431.84 534.511 432.194 534.787 432.434C535.063 432.662 535.393 432.776 535.777 432.776ZM545.559 434.162C544.671 434.162 543.903 433.976 543.255 433.604C542.619 433.232 542.121 432.704 541.761 432.02C541.401 431.336 541.221 430.532 541.221 429.608C541.221 428.672 541.401 427.868 541.761 427.196C542.121 426.512 542.619 425.984 543.255 425.612C543.903 425.24 544.671 425.054 545.559 425.054C546.435 425.054 547.191 425.24 547.827 425.612C548.475 425.984 548.979 426.512 549.339 427.196C549.699 427.88 549.879 428.684 549.879 429.608C549.879 430.532 549.699 431.336 549.339 432.02C548.979 432.704 548.475 433.232 547.827 433.604C547.191 433.976 546.435 434.162 545.559 434.162ZM545.541 432.758C546.297 432.758 546.903 432.488 547.359 431.948C547.815 431.408 548.043 430.628 548.043 429.608C548.043 428.576 547.815 427.796 547.359 427.268C546.903 426.74 546.297 426.476 545.541 426.476C544.797 426.476 544.197 426.74 543.741 427.268C543.285 427.796 543.057 428.576 543.057 429.608C543.057 430.628 543.285 431.408 543.741 431.948C544.197 432.488 544.797 432.758 545.541 432.758ZM552.132 437.24V425.216H553.914V427.196H553.716C553.908 426.548 554.286 426.032 554.85 425.648C555.414 425.252 556.08 425.054 556.848 425.054C557.628 425.054 558.306 425.24 558.882 425.612C559.47 425.984 559.92 426.506 560.232 427.178C560.556 427.85 560.718 428.66 560.718 429.608C560.718 430.532 560.556 431.342 560.232 432.038C559.92 432.722 559.476 433.25 558.9 433.622C558.324 433.982 557.64 434.162 556.848 434.162C556.092 434.162 555.432 433.97 554.868 433.586C554.304 433.202 553.926 432.692 553.734 432.056H553.95V437.24H552.132ZM556.398 432.758C557.154 432.758 557.754 432.488 558.198 431.948C558.654 431.408 558.882 430.628 558.882 429.608C558.882 428.576 558.654 427.796 558.198 427.268C557.754 426.74 557.154 426.476 556.398 426.476C555.654 426.476 555.054 426.74 554.598 427.268C554.142 427.796 553.914 428.576 553.914 429.608C553.914 430.628 554.142 431.408 554.598 431.948C555.054 432.488 555.654 432.758 556.398 432.758ZM562.942 434V425.216H564.436L567.622 430.778L570.79 425.216H572.284V434H570.682V427.322H571.096L568.054 432.578H567.172L564.13 427.322H564.544V434H562.942ZM575.018 434V425.216H576.674V432.2H576.206L581.426 425.216H582.956V434H581.3V427.016H581.786L576.548 434H575.018ZM587.524 434V426.674H584.428V425.216H592.456V426.674H589.342V434H587.524ZM598.002 434.162C597.042 434.162 596.214 433.982 595.518 433.622C594.834 433.25 594.3 432.728 593.916 432.056C593.544 431.372 593.358 430.562 593.358 429.626C593.358 428.714 593.544 427.916 593.916 427.232C594.288 426.548 594.798 426.014 595.446 425.63C596.094 425.246 596.832 425.054 597.66 425.054C598.476 425.054 599.172 425.234 599.748 425.594C600.336 425.942 600.786 426.44 601.098 427.088C601.41 427.736 601.566 428.51 601.566 429.41V430.022H594.798V428.906H600.342L600.036 429.158C600.036 428.258 599.838 427.562 599.442 427.07C599.046 426.578 598.476 426.332 597.732 426.332C597.168 426.332 596.688 426.464 596.292 426.728C595.908 426.992 595.614 427.358 595.41 427.826C595.206 428.294 595.104 428.84 595.104 429.464V429.572C595.104 430.268 595.212 430.856 595.428 431.336C595.656 431.804 595.986 432.158 596.418 432.398C596.85 432.638 597.384 432.758 598.02 432.758C598.524 432.758 599.016 432.68 599.496 432.524C599.988 432.356 600.45 432.098 600.882 431.75L601.422 433.01C601.026 433.37 600.516 433.652 599.892 433.856C599.268 434.06 598.638 434.162 598.002 434.162ZM608.452 434V425.216H616.408V434H614.59V426.674H610.27V434H608.452ZM622.956 434.162C622.068 434.162 621.3 433.976 620.652 433.604C620.016 433.232 619.518 432.704 619.158 432.02C618.798 431.336 618.618 430.532 618.618 429.608C618.618 428.672 618.798 427.868 619.158 427.196C619.518 426.512 620.016 425.984 620.652 425.612C621.3 425.24 622.068 425.054 622.956 425.054C623.832 425.054 624.588 425.24 625.224 425.612C625.872 425.984 626.376 426.512 626.736 427.196C627.096 427.88 627.276 428.684 627.276 429.608C627.276 430.532 627.096 431.336 626.736 432.02C626.376 432.704 625.872 433.232 625.224 433.604C624.588 433.976 623.832 434.162 622.956 434.162ZM622.938 432.758C623.694 432.758 624.3 432.488 624.756 431.948C625.212 431.408 625.44 430.628 625.44 429.608C625.44 428.576 625.212 427.796 624.756 427.268C624.3 426.74 623.694 426.476 622.938 426.476C622.194 426.476 621.594 426.74 621.138 427.268C620.682 427.796 620.454 428.576 620.454 429.608C620.454 430.628 620.682 431.408 621.138 431.948C621.594 432.488 622.194 432.758 622.938 432.758ZM628.611 436.34V432.56H629.583C629.847 432.164 630.057 431.738 630.213 431.282C630.369 430.826 630.483 430.31 630.555 429.734C630.627 429.158 630.663 428.504 630.663 427.772V425.216H637.161V432.56H638.565V436.34H637.017V434H630.177V436.34H628.611ZM631.275 432.56H635.433V426.638H632.247V428.15C632.247 428.978 632.163 429.782 631.995 430.562C631.827 431.342 631.587 432.008 631.275 432.56ZM640.374 434V425.216H648.33V434H646.512V426.674H642.192V434H640.374ZM651.044 434V425.216H652.7V432.2H652.232L657.452 425.216H658.982V434H657.326V427.016H657.812L652.574 434H651.044ZM665.602 434.162C664.702 434.162 663.922 433.976 663.262 433.604C662.614 433.22 662.11 432.686 661.75 432.002C661.39 431.306 661.21 430.49 661.21 429.554C661.21 428.63 661.39 427.832 661.75 427.16C662.11 426.488 662.614 425.972 663.262 425.612C663.922 425.24 664.702 425.054 665.602 425.054C666.154 425.054 666.7 425.15 667.24 425.342C667.78 425.522 668.224 425.786 668.572 426.134L667.996 427.412C667.672 427.1 667.306 426.872 666.898 426.728C666.49 426.572 666.106 426.494 665.746 426.494C664.894 426.494 664.234 426.764 663.766 427.304C663.31 427.832 663.082 428.588 663.082 429.572C663.082 430.556 663.31 431.33 663.766 431.894C664.234 432.446 664.894 432.722 665.746 432.722C666.106 432.722 666.49 432.65 666.898 432.506C667.306 432.35 667.672 432.116 667.996 431.804L668.572 433.1C668.224 433.424 667.774 433.682 667.222 433.874C666.682 434.066 666.142 434.162 665.602 434.162ZM670.327 434V425.216H672.145V428.78H673.621L676.339 425.216H678.319L675.061 429.554L674.611 428.978C674.947 429.014 675.241 429.098 675.493 429.23C675.745 429.362 675.979 429.56 676.195 429.824C676.423 430.088 676.663 430.436 676.915 430.868L678.733 434H676.789L675.259 431.372C675.079 431.06 674.899 430.82 674.719 430.652C674.551 430.484 674.365 430.37 674.161 430.31C673.957 430.238 673.699 430.202 673.387 430.202H672.145V434H670.327ZM680.983 437.24L682.711 433.388V434.162L678.877 425.216H680.821L683.773 432.506H683.269L686.257 425.216H688.129L682.891 437.24H680.983Z" fill="white"/>
<path d="M478.87 482.415V478.74H479.92C480.26 478.32 480.535 477.805 480.745 477.195C480.965 476.575 481.125 475.85 481.225 475.02C481.335 474.18 481.39 473.23 481.39 472.17V469.425H488.62V478.74H490.12V482.415H488.74V480H480.265V482.415H478.87ZM481.51 478.74H487.075V470.685H482.845V472.29C482.845 473.32 482.795 474.235 482.695 475.035C482.605 475.825 482.46 476.525 482.26 477.135C482.06 477.745 481.81 478.28 481.51 478.74ZM491.291 480.195L490.781 478.995C491.111 478.865 491.386 478.695 491.606 478.485C491.836 478.275 492.016 478.01 492.146 477.69C492.276 477.36 492.371 476.955 492.431 476.475C492.491 475.995 492.521 475.415 492.521 474.735V472.68H498.101V480H496.586V473.895H493.931V474.78C493.931 475.61 493.881 476.335 493.781 476.955C493.681 477.565 493.526 478.085 493.316 478.515C493.106 478.945 492.831 479.295 492.491 479.565C492.161 479.835 491.761 480.045 491.291 480.195ZM499.766 480L500.876 478.08C501.066 477.74 501.306 477.47 501.596 477.27C501.886 477.06 502.181 476.955 502.481 476.955H502.721V477.105C502.171 477.105 501.696 477.02 501.296 476.85C500.906 476.68 500.606 476.43 500.396 476.1C500.196 475.77 500.096 475.375 500.096 474.915C500.096 474.235 500.326 473.695 500.786 473.295C501.246 472.885 501.931 472.68 502.841 472.68H506.336V480H504.926V477.33H503.981C503.631 477.33 503.331 477.42 503.081 477.6C502.831 477.78 502.626 478.01 502.466 478.29L501.491 480H499.766ZM503.156 476.295H504.926V473.715H503.156C502.606 473.715 502.201 473.83 501.941 474.06C501.681 474.28 501.551 474.59 501.551 474.99C501.551 475.4 501.681 475.72 501.941 475.95C502.201 476.18 502.606 476.295 503.156 476.295ZM512.554 480V472.68H519.184V480H517.669V473.895H514.069V480H512.554ZM521.46 482.7V472.68H522.945V474.33H522.78C522.94 473.79 523.255 473.36 523.725 473.04C524.195 472.71 524.75 472.545 525.39 472.545C526.04 472.545 526.605 472.7 527.085 473.01C527.575 473.32 527.95 473.755 528.21 474.315C528.48 474.875 528.615 475.55 528.615 476.34C528.615 477.11 528.48 477.785 528.21 478.365C527.95 478.935 527.58 479.375 527.1 479.685C526.62 479.985 526.05 480.135 525.39 480.135C524.76 480.135 524.21 479.975 523.74 479.655C523.27 479.335 522.955 478.91 522.795 478.38H522.975V482.7H521.46ZM525.015 478.965C525.645 478.965 526.145 478.74 526.515 478.29C526.895 477.84 527.085 477.19 527.085 476.34C527.085 475.48 526.895 474.83 526.515 474.39C526.145 473.95 525.645 473.73 525.015 473.73C524.395 473.73 523.895 473.95 523.515 474.39C523.135 474.83 522.945 475.48 522.945 476.34C522.945 477.19 523.135 477.84 523.515 478.29C523.895 478.74 524.395 478.965 525.015 478.965ZM533.664 480.135C532.924 480.135 532.284 479.98 531.744 479.67C531.214 479.36 530.799 478.92 530.499 478.35C530.199 477.78 530.049 477.11 530.049 476.34C530.049 475.56 530.199 474.89 530.499 474.33C530.799 473.76 531.214 473.32 531.744 473.01C532.284 472.7 532.924 472.545 533.664 472.545C534.394 472.545 535.024 472.7 535.554 473.01C536.094 473.32 536.514 473.76 536.814 474.33C537.114 474.9 537.264 475.57 537.264 476.34C537.264 477.11 537.114 477.78 536.814 478.35C536.514 478.92 536.094 479.36 535.554 479.67C535.024 479.98 534.394 480.135 533.664 480.135ZM533.649 478.965C534.279 478.965 534.784 478.74 535.164 478.29C535.544 477.84 535.734 477.19 535.734 476.34C535.734 475.48 535.544 474.83 535.164 474.39C534.784 473.95 534.279 473.73 533.649 473.73C533.029 473.73 532.529 473.95 532.149 474.39C531.769 474.83 531.579 475.48 531.579 476.34C531.579 477.19 531.769 477.84 532.149 478.29C532.529 478.74 533.029 478.965 533.649 478.965ZM542.366 480.135C541.616 480.135 540.966 479.98 540.416 479.67C539.876 479.35 539.456 478.905 539.156 478.335C538.856 477.755 538.706 477.075 538.706 476.295C538.706 475.525 538.856 474.86 539.156 474.3C539.456 473.74 539.876 473.31 540.416 473.01C540.966 472.7 541.616 472.545 542.366 472.545C542.826 472.545 543.281 472.625 543.731 472.785C544.181 472.935 544.551 473.155 544.841 473.445L544.361 474.51C544.091 474.25 543.786 474.06 543.446 473.94C543.106 473.81 542.786 473.745 542.486 473.745C541.776 473.745 541.226 473.97 540.836 474.42C540.456 474.86 540.266 475.49 540.266 476.31C540.266 477.13 540.456 477.775 540.836 478.245C541.226 478.705 541.776 478.935 542.486 478.935C542.786 478.935 543.106 478.875 543.446 478.755C543.786 478.625 544.091 478.43 544.361 478.17L544.841 479.25C544.551 479.52 544.176 479.735 543.716 479.895C543.266 480.055 542.816 480.135 542.366 480.135ZM546.304 480V472.68H547.549L550.204 477.315L552.844 472.68H554.089V480H552.754V474.435H553.099L550.564 478.815H549.829L547.294 474.435H547.639V480H546.304ZM559.562 480.135C558.822 480.135 558.182 479.98 557.642 479.67C557.112 479.36 556.697 478.92 556.397 478.35C556.097 477.78 555.947 477.11 555.947 476.34C555.947 475.56 556.097 474.89 556.397 474.33C556.697 473.76 557.112 473.32 557.642 473.01C558.182 472.7 558.822 472.545 559.562 472.545C560.292 472.545 560.922 472.7 561.452 473.01C561.992 473.32 562.412 473.76 562.712 474.33C563.012 474.9 563.162 475.57 563.162 476.34C563.162 477.11 563.012 477.78 562.712 478.35C562.412 478.92 561.992 479.36 561.452 479.67C560.922 479.98 560.292 480.135 559.562 480.135ZM559.547 478.965C560.177 478.965 560.682 478.74 561.062 478.29C561.442 477.84 561.632 477.19 561.632 476.34C561.632 475.48 561.442 474.83 561.062 474.39C560.682 473.95 560.177 473.73 559.547 473.73C558.927 473.73 558.427 473.95 558.047 474.39C557.667 474.83 557.477 475.48 557.477 476.34C557.477 477.19 557.667 477.84 558.047 478.29C558.427 478.74 558.927 478.965 559.547 478.965ZM566.554 480V473.895H563.974V472.68H570.664V473.895H568.069V480H566.554ZM571.895 482.7V472.68H573.38V474.33H573.215C573.375 473.79 573.69 473.36 574.16 473.04C574.63 472.71 575.185 472.545 575.825 472.545C576.475 472.545 577.04 472.7 577.52 473.01C578.01 473.32 578.385 473.755 578.645 474.315C578.915 474.875 579.05 475.55 579.05 476.34C579.05 477.11 578.915 477.785 578.645 478.365C578.385 478.935 578.015 479.375 577.535 479.685C577.055 479.985 576.485 480.135 575.825 480.135C575.195 480.135 574.645 479.975 574.175 479.655C573.705 479.335 573.39 478.91 573.23 478.38H573.41V482.7H571.895ZM575.45 478.965C576.08 478.965 576.58 478.74 576.95 478.29C577.33 477.84 577.52 477.19 577.52 476.34C577.52 475.48 577.33 474.83 576.95 474.39C576.58 473.95 576.08 473.73 575.45 473.73C574.83 473.73 574.33 473.95 573.95 474.39C573.57 474.83 573.38 475.48 573.38 476.34C573.38 477.19 573.57 477.84 573.95 478.29C574.33 478.74 574.83 478.965 575.45 478.965ZM583.258 480.135C582.748 480.135 582.288 480.035 581.878 479.835C581.478 479.635 581.163 479.365 580.933 479.025C580.703 478.685 580.588 478.3 580.588 477.87C580.588 477.33 580.723 476.905 580.993 476.595C581.273 476.275 581.728 476.05 582.358 475.92C582.998 475.78 583.858 475.71 584.938 475.71H585.643V476.64H584.953C584.413 476.64 583.958 476.66 583.588 476.7C583.218 476.74 582.923 476.805 582.703 476.895C582.483 476.975 582.323 477.09 582.223 477.24C582.133 477.39 582.088 477.57 582.088 477.78C582.088 478.16 582.218 478.47 582.478 478.71C582.738 478.94 583.098 479.055 583.558 479.055C583.928 479.055 584.253 478.97 584.533 478.8C584.813 478.62 585.033 478.38 585.193 478.08C585.363 477.78 585.448 477.435 585.448 477.045V475.32C585.448 474.75 585.328 474.34 585.088 474.09C584.848 473.84 584.453 473.715 583.903 473.715C583.483 473.715 583.063 473.78 582.643 473.91C582.223 474.03 581.793 474.225 581.353 474.495L580.888 473.43C581.148 473.25 581.448 473.095 581.788 472.965C582.128 472.835 582.483 472.735 582.853 472.665C583.233 472.585 583.598 472.545 583.948 472.545C584.618 472.545 585.168 472.65 585.598 472.86C586.038 473.07 586.363 473.39 586.573 473.82C586.783 474.25 586.888 474.805 586.888 475.485V480H585.463V478.365H585.598C585.518 478.735 585.368 479.055 585.148 479.325C584.938 479.585 584.673 479.785 584.353 479.925C584.033 480.065 583.668 480.135 583.258 480.135ZM592.326 481.95V478.8H593.136C593.356 478.47 593.531 478.115 593.661 477.735C593.791 477.355 593.886 476.925 593.946 476.445C594.006 475.965 594.036 475.42 594.036 474.81V472.68H599.451V478.8H600.621V481.95H599.331V480H593.631V481.95H592.326ZM594.546 478.8H598.011V473.865H595.356V475.125C595.356 475.815 595.286 476.485 595.146 477.135C595.006 477.785 594.806 478.34 594.546 478.8ZM604.484 480.135C603.974 480.135 603.514 480.035 603.104 479.835C602.704 479.635 602.389 479.365 602.159 479.025C601.929 478.685 601.814 478.3 601.814 477.87C601.814 477.33 601.949 476.905 602.219 476.595C602.499 476.275 602.954 476.05 603.584 475.92C604.224 475.78 605.084 475.71 606.164 475.71H606.869V476.64H606.179C605.639 476.64 605.184 476.66 604.814 476.7C604.444 476.74 604.149 476.805 603.929 476.895C603.709 476.975 603.549 477.09 603.449 477.24C603.359 477.39 603.314 477.57 603.314 477.78C603.314 478.16 603.444 478.47 603.704 478.71C603.964 478.94 604.324 479.055 604.784 479.055C605.154 479.055 605.479 478.97 605.759 478.8C606.039 478.62 606.259 478.38 606.419 478.08C606.589 477.78 606.674 477.435 606.674 477.045V475.32C606.674 474.75 606.554 474.34 606.314 474.09C606.074 473.84 605.679 473.715 605.129 473.715C604.709 473.715 604.289 473.78 603.869 473.91C603.449 474.03 603.019 474.225 602.579 474.495L602.114 473.43C602.374 473.25 602.674 473.095 603.014 472.965C603.354 472.835 603.709 472.735 604.079 472.665C604.459 472.585 604.824 472.545 605.174 472.545C605.844 472.545 606.394 472.65 606.824 472.86C607.264 473.07 607.589 473.39 607.799 473.82C608.009 474.25 608.114 474.805 608.114 475.485V480H606.689V478.365H606.824C606.744 478.735 606.594 479.055 606.374 479.325C606.164 479.585 605.899 479.785 605.579 479.925C605.259 480.065 604.894 480.135 604.484 480.135ZM610.361 480V472.68H611.876V475.635H615.521V472.68H617.036V480H615.521V476.835H611.876V480H610.361ZM619.297 480V472.68H620.812V475.635H624.457V472.68H625.972V480H624.457V476.835H620.812V480H619.297ZM628.232 480V472.68H629.747V475.215H631.832C632.772 475.215 633.487 475.42 633.977 475.83C634.467 476.23 634.712 476.815 634.712 477.585C634.712 478.075 634.597 478.505 634.367 478.875C634.137 479.235 633.807 479.515 633.377 479.715C632.947 479.905 632.432 480 631.832 480H628.232ZM629.747 478.965H631.637C632.157 478.965 632.562 478.855 632.852 478.635C633.142 478.405 633.287 478.055 633.287 477.585C633.287 477.125 633.142 476.79 632.852 476.58C632.562 476.36 632.157 476.25 631.637 476.25H629.747V478.965ZM635.702 480V472.68H637.217V480H635.702ZM638.537 480L641.882 475.845V476.595L638.732 472.68H640.502L642.737 475.53H642.197L644.432 472.68H646.202L643.052 476.565V475.89L646.397 480H644.597L642.197 476.97H642.707L640.322 480H638.537ZM651.626 480V472.68H658.256V480H656.741V473.895H653.141V480H651.626ZM663.712 480.135C662.972 480.135 662.332 479.98 661.792 479.67C661.262 479.36 660.847 478.92 660.547 478.35C660.247 477.78 660.097 477.11 660.097 476.34C660.097 475.56 660.247 474.89 660.547 474.33C660.847 473.76 661.262 473.32 661.792 473.01C662.332 472.7 662.972 472.545 663.712 472.545C664.442 472.545 665.072 472.7 665.602 473.01C666.142 473.32 666.562 473.76 666.862 474.33C667.162 474.9 667.312 475.57 667.312 476.34C667.312 477.11 667.162 477.78 666.862 478.35C666.562 478.92 666.142 479.36 665.602 479.67C665.072 479.98 664.442 480.135 663.712 480.135ZM663.697 478.965C664.327 478.965 664.832 478.74 665.212 478.29C665.592 477.84 665.782 477.19 665.782 476.34C665.782 475.48 665.592 474.83 665.212 474.39C664.832 473.95 664.327 473.73 663.697 473.73C663.077 473.73 662.577 473.95 662.197 474.39C661.817 474.83 661.627 475.48 661.627 476.34C661.627 477.19 661.817 477.84 662.197 478.29C662.577 478.74 663.077 478.965 663.697 478.965ZM669.19 482.7V472.68H670.675V474.33H670.51C670.67 473.79 670.985 473.36 671.455 473.04C671.925 472.71 672.48 472.545 673.12 472.545C673.77 472.545 674.335 472.7 674.815 473.01C675.305 473.32 675.68 473.755 675.94 474.315C676.21 474.875 676.345 475.55 676.345 476.34C676.345 477.11 676.21 477.785 675.94 478.365C675.68 478.935 675.31 479.375 674.83 479.685C674.35 479.985 673.78 480.135 673.12 480.135C672.49 480.135 671.94 479.975 671.47 479.655C671 479.335 670.685 478.91 670.525 478.38H670.705V482.7H669.19ZM672.745 478.965C673.375 478.965 673.875 478.74 674.245 478.29C674.625 477.84 674.815 477.19 674.815 476.34C674.815 475.48 674.625 474.83 674.245 474.39C673.875 473.95 673.375 473.73 672.745 473.73C672.125 473.73 671.625 473.95 671.245 474.39C670.865 474.83 670.675 475.48 670.675 476.34C670.675 477.19 670.865 477.84 671.245 478.29C671.625 478.74 672.125 478.965 672.745 478.965ZM679.728 480V473.895H677.148V472.68H683.838V473.895H681.243V480H679.728ZM689.269 482.7V478.485H689.419C689.259 479.015 688.999 479.425 688.639 479.715C688.289 479.995 687.849 480.135 687.319 480.135C686.789 480.135 686.324 479.98 685.924 479.67C685.524 479.36 685.209 478.92 684.979 478.35C684.749 477.78 684.634 477.11 684.634 476.34C684.634 475.56 684.744 474.89 684.964 474.33C685.194 473.76 685.509 473.32 685.909 473.01C686.319 472.7 686.789 472.545 687.319 472.545C687.849 472.545 688.294 472.69 688.654 472.98C689.014 473.27 689.269 473.675 689.419 474.195H689.269V469.425H690.784V474.195H690.634C690.774 473.675 691.024 473.27 691.384 472.98C691.754 472.69 692.199 472.545 692.719 472.545C693.249 472.545 693.714 472.7 694.114 473.01C694.524 473.32 694.839 473.76 695.059 474.33C695.289 474.89 695.404 475.56 695.404 476.34C695.404 477.11 695.294 477.78 695.074 478.35C694.854 478.92 694.539 479.36 694.129 479.67C693.729 479.98 693.259 480.135 692.719 480.135C692.199 480.135 691.759 479.995 691.399 479.715C691.049 479.425 690.794 479.015 690.634 478.485H690.784V482.7H689.269ZM687.724 478.98C688.054 478.98 688.334 478.885 688.564 478.695C688.794 478.495 688.974 478.2 689.104 477.81C689.234 477.41 689.299 476.92 689.299 476.34C689.299 475.76 689.234 475.275 689.104 474.885C688.974 474.495 688.789 474.205 688.549 474.015C688.319 473.815 688.044 473.715 687.724 473.715C687.244 473.715 686.859 473.935 686.569 474.375C686.289 474.815 686.149 475.47 686.149 476.34C686.149 477.22 686.289 477.88 686.569 478.32C686.859 478.76 687.244 478.98 687.724 478.98ZM692.314 478.98C692.804 478.98 693.189 478.76 693.469 478.32C693.749 477.88 693.889 477.22 693.889 476.34C693.889 475.47 693.744 474.815 693.454 474.375C693.174 473.935 692.794 473.715 692.314 473.715C691.994 473.715 691.719 473.815 691.489 474.015C691.259 474.205 691.079 474.495 690.949 474.885C690.819 475.275 690.754 475.76 690.754 476.34C690.754 476.92 690.819 477.41 690.949 477.81C691.079 478.2 691.259 478.495 691.489 478.695C691.719 478.885 691.994 478.98 692.314 478.98ZM700.72 480.135C699.92 480.135 699.23 479.985 698.65 479.685C698.08 479.375 697.635 478.94 697.315 478.38C697.005 477.81 696.85 477.135 696.85 476.355C696.85 475.595 697.005 474.93 697.315 474.36C697.625 473.79 698.05 473.345 698.59 473.025C699.13 472.705 699.745 472.545 700.435 472.545C701.115 472.545 701.695 472.695 702.175 472.995C702.665 473.285 703.04 473.7 703.3 474.24C703.56 474.78 703.69 475.425 703.69 476.175V476.685H698.05V475.755H702.67L702.415 475.965C702.415 475.215 702.25 474.635 701.92 474.225C701.59 473.815 701.115 473.61 700.495 473.61C700.025 473.61 699.625 473.72 699.295 473.94C698.975 474.16 698.73 474.465 698.56 474.855C698.39 475.245 698.305 475.7 698.305 476.22V476.31C698.305 476.89 698.395 477.38 698.575 477.78C698.765 478.17 699.04 478.465 699.4 478.665C699.76 478.865 700.205 478.965 700.735 478.965C701.155 478.965 701.565 478.9 701.965 478.77C702.375 478.63 702.76 478.415 703.12 478.125L703.57 479.175C703.24 479.475 702.815 479.71 702.295 479.88C701.775 480.05 701.25 480.135 700.72 480.135ZM705.173 480.195L704.663 478.995C704.993 478.865 705.268 478.695 705.488 478.485C705.718 478.275 705.898 478.01 706.028 477.69C706.158 477.36 706.253 476.955 706.313 476.475C706.373 475.995 706.403 475.415 706.403 474.735V472.68H711.983V480H710.468V473.895H707.813V474.78C707.813 475.61 707.763 476.335 707.663 476.955C707.563 477.565 707.408 478.085 707.198 478.515C706.988 478.945 706.713 479.295 706.373 479.565C706.043 479.835 705.643 480.045 705.173 480.195ZM713.648 480L714.758 478.08C714.948 477.74 715.188 477.47 715.478 477.27C715.768 477.06 716.063 476.955 716.363 476.955H716.603V477.105C716.053 477.105 715.578 477.02 715.178 476.85C714.788 476.68 714.488 476.43 714.278 476.1C714.078 475.77 713.978 475.375 713.978 474.915C713.978 474.235 714.208 473.695 714.668 473.295C715.128 472.885 715.813 472.68 716.723 472.68H720.218V480H718.808V477.33H717.863C717.513 477.33 717.213 477.42 716.963 477.6C716.713 477.78 716.508 478.01 716.348 478.29L715.373 480H713.648ZM717.038 476.295H718.808V473.715H717.038C716.488 473.715 716.083 473.83 715.823 474.06C715.563 474.28 715.433 474.59 715.433 474.99C715.433 475.4 715.563 475.72 715.823 475.95C716.083 476.18 716.488 476.295 717.038 476.295Z" fill="white" fill-opacity="0.48"/>
<rect x="478" y="509" width="244" height="40" rx="8" fill="#A06AFF"/>
<path d="M554.86 534V523.425H563.8V534H562.255V524.73H556.42V534H554.86ZM569.377 534.135C568.637 534.135 567.997 533.98 567.457 533.67C566.927 533.36 566.512 532.92 566.212 532.35C565.912 531.78 565.762 531.11 565.762 530.34C565.762 529.56 565.912 528.89 566.212 528.33C566.512 527.76 566.927 527.32 567.457 527.01C567.997 526.7 568.637 526.545 569.377 526.545C570.107 526.545 570.737 526.7 571.267 527.01C571.807 527.32 572.227 527.76 572.527 528.33C572.827 528.9 572.977 529.57 572.977 530.34C572.977 531.11 572.827 531.78 572.527 532.35C572.227 532.92 571.807 533.36 571.267 533.67C570.737 533.98 570.107 534.135 569.377 534.135ZM569.362 532.965C569.992 532.965 570.497 532.74 570.877 532.29C571.257 531.84 571.447 531.19 571.447 530.34C571.447 529.48 571.257 528.83 570.877 528.39C570.497 527.95 569.992 527.73 569.362 527.73C568.742 527.73 568.242 527.95 567.862 528.39C567.482 528.83 567.292 529.48 567.292 530.34C567.292 531.19 567.482 531.84 567.862 532.29C568.242 532.74 568.742 532.965 569.362 532.965ZM574.089 535.95V532.8H574.899C575.119 532.47 575.294 532.115 575.424 531.735C575.554 531.355 575.649 530.925 575.709 530.445C575.769 529.965 575.799 529.42 575.799 528.81V526.68H581.214V532.8H582.384V535.95H581.094V534H575.394V535.95H574.089ZM576.309 532.8H579.774V527.865H577.119V529.125C577.119 529.815 577.049 530.485 576.909 531.135C576.769 531.785 576.569 532.34 576.309 532.8ZM583.891 534V526.68H590.521V534H589.006V527.895H585.406V534H583.891ZM592.783 534V526.68H594.163V532.5H593.773L598.123 526.68H599.398V534H598.018V528.18H598.423L594.058 534H592.783ZM604.915 534.135C604.165 534.135 603.515 533.98 602.965 533.67C602.425 533.35 602.005 532.905 601.705 532.335C601.405 531.755 601.255 531.075 601.255 530.295C601.255 529.525 601.405 528.86 601.705 528.3C602.005 527.74 602.425 527.31 602.965 527.01C603.515 526.7 604.165 526.545 604.915 526.545C605.375 526.545 605.83 526.625 606.28 526.785C606.73 526.935 607.1 527.155 607.39 527.445L606.91 528.51C606.64 528.25 606.335 528.06 605.995 527.94C605.655 527.81 605.335 527.745 605.035 527.745C604.325 527.745 603.775 527.97 603.385 528.42C603.005 528.86 602.815 529.49 602.815 530.31C602.815 531.13 603.005 531.775 603.385 532.245C603.775 532.705 604.325 532.935 605.035 532.935C605.335 532.935 605.655 532.875 605.995 532.755C606.335 532.625 606.64 532.43 606.91 532.17L607.39 533.25C607.1 533.52 606.725 533.735 606.265 533.895C605.815 534.055 605.365 534.135 604.915 534.135ZM611.207 534.135C610.697 534.135 610.237 534.035 609.827 533.835C609.427 533.635 609.112 533.365 608.882 533.025C608.652 532.685 608.537 532.3 608.537 531.87C608.537 531.33 608.672 530.905 608.942 530.595C609.222 530.275 609.677 530.05 610.307 529.92C610.947 529.78 611.807 529.71 612.887 529.71H613.592V530.64H612.902C612.362 530.64 611.907 530.66 611.537 530.7C611.167 530.74 610.872 530.805 610.652 530.895C610.432 530.975 610.272 531.09 610.172 531.24C610.082 531.39 610.037 531.57 610.037 531.78C610.037 532.16 610.167 532.47 610.427 532.71C610.687 532.94 611.047 533.055 611.507 533.055C611.877 533.055 612.202 532.97 612.482 532.8C612.762 532.62 612.982 532.38 613.142 532.08C613.312 531.78 613.397 531.435 613.397 531.045V529.32C613.397 528.75 613.277 528.34 613.037 528.09C612.797 527.84 612.402 527.715 611.852 527.715C611.432 527.715 611.012 527.78 610.592 527.91C610.172 528.03 609.742 528.225 609.302 528.495L608.837 527.43C609.097 527.25 609.397 527.095 609.737 526.965C610.077 526.835 610.432 526.735 610.802 526.665C611.182 526.585 611.547 526.545 611.897 526.545C612.567 526.545 613.117 526.65 613.547 526.86C613.987 527.07 614.312 527.39 614.522 527.82C614.732 528.25 614.837 528.805 614.837 529.485V534H613.412V532.365H613.547C613.467 532.735 613.317 533.055 613.097 533.325C612.887 533.585 612.622 533.785 612.302 533.925C611.982 534.065 611.617 534.135 611.207 534.135ZM618.615 534V527.895H616.035V526.68H622.725V527.895H620.13V534H618.615ZM623.94 534V526.68H625.455V529.215H627.54C628.48 529.215 629.195 529.42 629.685 529.83C630.175 530.23 630.42 530.815 630.42 531.585C630.42 532.075 630.305 532.505 630.075 532.875C629.845 533.235 629.515 533.515 629.085 533.715C628.655 533.905 628.14 534 627.54 534H623.94ZM625.455 532.965H627.345C627.865 532.965 628.27 532.855 628.56 532.635C628.85 532.405 628.995 532.055 628.995 531.585C628.995 531.125 628.85 530.79 628.56 530.58C628.27 530.36 627.865 530.25 627.345 530.25H625.455V532.965ZM635.339 534.135C634.589 534.135 633.939 533.98 633.389 533.67C632.849 533.35 632.429 532.905 632.129 532.335C631.829 531.755 631.679 531.075 631.679 530.295C631.679 529.525 631.829 528.86 632.129 528.3C632.429 527.74 632.849 527.31 633.389 527.01C633.939 526.7 634.589 526.545 635.339 526.545C635.799 526.545 636.254 526.625 636.704 526.785C637.154 526.935 637.524 527.155 637.814 527.445L637.334 528.51C637.064 528.25 636.759 528.06 636.419 527.94C636.079 527.81 635.759 527.745 635.459 527.745C634.749 527.745 634.199 527.97 633.809 528.42C633.429 528.86 633.239 529.49 633.239 530.31C633.239 531.13 633.429 531.775 633.809 532.245C634.199 532.705 634.749 532.935 635.459 532.935C635.759 532.935 636.079 532.875 636.419 532.755C636.759 532.625 637.064 532.43 637.334 532.17L637.814 533.25C637.524 533.52 637.149 533.735 636.689 533.895C636.239 534.055 635.789 534.135 635.339 534.135ZM638.662 534L639.772 532.08C639.962 531.74 640.202 531.47 640.492 531.27C640.782 531.06 641.077 530.955 641.377 530.955H641.617V531.105C641.067 531.105 640.592 531.02 640.192 530.85C639.802 530.68 639.502 530.43 639.292 530.1C639.092 529.77 638.992 529.375 638.992 528.915C638.992 528.235 639.222 527.695 639.682 527.295C640.142 526.885 640.827 526.68 641.737 526.68H645.232V534H643.822V531.33H642.877C642.527 531.33 642.227 531.42 641.977 531.6C641.727 531.78 641.522 532.01 641.362 532.29L640.387 534H638.662ZM642.052 530.295H643.822V527.715H642.052C641.502 527.715 641.097 527.83 640.837 528.06C640.577 528.28 640.447 528.59 640.447 528.99C640.447 529.4 640.577 529.72 640.837 529.95C641.097 530.18 641.502 530.295 642.052 530.295Z" fill="white"/>
<defs>
<filter id="filter0_d_308_247" x="424" y="160" width="352" height="32" filterUnits="userSpaceOnUse" color-interpolation-filters="sRGB">
<feFlood flood-opacity="0" result="BackgroundImageFix"/>
<feColorMatrix in="SourceAlpha" type="matrix" values="0 0 0 0 0 0 0 0 0 0 0 0 0 0 0 0 0 0 127 0" result="hardAlpha"/>
<feOffset dy="8"/>
<feGaussianBlur stdDeviation="4"/>
<feComposite in2="hardAlpha" operator="out"/>
<feColorMatrix type="matrix" values="0 0 0 0 0 0 0 0 0 0 0 0 0 0 0 0 0 0 0.36 0"/>
<feBlend mode="normal" in2="BackgroundImageFix" result="effect1_dropShadow_308_247"/>
<feBlend mode="normal" in="SourceGraphic" in2="effect1_dropShadow_308_247" result="shape"/>
</filter>
<filter id="filter1_d_308_247" x="434" y="184" width="202" height="120" filterUnits="userSpaceOnUse" color-interpolation-filters="sRGB">
<feFlood flood-opacity="0" result="BackgroundImageFix"/>
<feColorMatrix in="SourceAlpha" type="matrix" values="0 0 0 0 0 0 0 0 0 0 0 0 0 0 0 0 0 0 127 0" result="hardAlpha"/>
<feOffset dx="2" dy="8"/>
<feGaussianBlur stdDeviation="4"/>
<feComposite in2="hardAlpha" operator="out"/>
<feColorMatrix type="matrix" values="0 0 0 0 0 0 0 0 0 0 0 0 0 0 0 0 0 0 0.16 0"/>
<feBlend mode="normal" in2="BackgroundImageFix" result="effect1_dropShadow_308_247"/>
<feBlend mode="normal" in="SourceGraphic" in2="effect1_dropShadow_308_247" result="shape"/>
</filter>
<filter id="filter2_d_308_247" x="568" y="296" width="202" height="80" filterUnits="userSpaceOnUse" color-interpolation-filters="sRGB">
<feFlood flood-opacity="0" result="BackgroundImageFix"/>
<feColorMatrix in="SourceAlpha" type="matrix" values="0 0 0 0 0 0 0 0 0 0 0 0 0 0 0 0 0 0 127 0" result="hardAlpha"/>
<feOffset dx="2" dy="8"/>
<feGaussianBlur stdDeviation="4"/>
<feComposite in2="hardAlpha" operator="out"/>
<feColorMatrix type="matrix" values="0 0 0 0 0 0 0 0 0 0 0 0 0 0 0 0 0 0 0.16 0"/>
<feBlend mode="normal" in2="BackgroundImageFix" result="effect1_dropShadow_308_247"/>
<feBlend mode="normal" in="SourceGraphic" in2="effect1_dropShadow_308_247" result="shape"/>
</filter>
<filter id="filter3_d_308_247" x="434" y="296" width="142" height="80" filterUnits="userSpaceOnUse" color-interpolation-filters="sRGB">
<feFlood flood-opacity="0" result="BackgroundImageFix"/>
<feColorMatrix in="SourceAlpha" type="matrix" values="0 0 0 0 0 0 0 0 0 0 0 0 0 0 0 0 0 0 127 0" result="hardAlpha"/>
<feOffset dx="2" dy="8"/>
<feGaussianBlur stdDeviation="4"/>
<feComposite in2="hardAlpha" operator="out"/>
<feColorMatrix type="matrix" values="0 0 0 0 0 0 0 0 0 0 0 0 0 0 0 0 0 0 0.16 0"/>
<feBlend mode="normal" in2="BackgroundImageFix" result="effect1_dropShadow_308_247"/>
<feBlend mode="normal" in="SourceGraphic" in2="effect1_dropShadow_308_247" result="shape"/>
</filter>
<filter id="filter4_d_308_247" x="628" y="184" width="142" height="120" filterUnits="userSpaceOnUse" color-interpolation-filters="sRGB">
<feFlood flood-opacity="0" result="BackgroundImageFix"/>
<feColorMatrix in="SourceAlpha" type="matrix" values="0 0 0 0 0 0 0 0 0 0 0 0 0 0 0 0 0 0 127 0" result="hardAlpha"/>
<feOffset dx="2" dy="8"/>
<feGaussianBlur stdDeviation="4"/>
<feComposite in2="hardAlpha" operator="out"/>
<feColorMatrix type="matrix" values="0 0 0 0 0 0 0 0 0 0 0 0 0 0 0 0 0 0 0.16 0"/>
<feBlend mode="normal" in2="BackgroundImageFix" result="effect1_dropShadow_308_247"/>
<feBlend mode="normal" in="SourceGraphic" in2="effect1_dropShadow_308_247" result="shape"/>
</filter>
<linearGradient id="paint0_linear_308_247" x1="600" y1="176" x2="600" y2="368" gradientUnits="userSpaceOnUse">
<stop stop-color="#0B0E11" stop-opacity="0"/>
<stop offset="1" stop-color="#A06AFF"/>
</linearGradient>
</defs>
</svg>
