<svg width="344" height="344" viewBox="0 0 344 344" fill="none" xmlns="http://www.w3.org/2000/svg">
<mask id="path-1-inside-1_4721_7086" fill="white">
<path d="M0 84H344V207H0V84Z"/>
</mask>
<path d="M0 84H344V207H0V84Z" fill="#181A20"/>
<path d="M344 206H0V208H344V206Z" fill="#23252D" mask="url(#path-1-inside-1_4721_7086)"/>
<path d="M24.924 112V103.54H28.596C29.22 103.54 29.748 103.644 30.18 103.852C30.612 104.06 30.94 104.36 31.164 104.752C31.388 105.144 31.5 105.62 31.5 106.18C31.5 106.732 31.388 107.208 31.164 107.608C30.94 108 30.612 108.304 30.18 108.52C29.748 108.728 29.22 108.832 28.596 108.832H26.46V112H24.924ZM26.46 107.62H28.356C28.9 107.62 29.312 107.5 29.592 107.26C29.872 107.012 30.012 106.652 30.012 106.18C30.012 105.708 29.872 105.352 29.592 105.112C29.312 104.872 28.9 104.752 28.356 104.752H26.46V107.62ZM36.4855 112.12C35.8695 112.12 35.3095 112.02 34.8055 111.82C34.3095 111.612 33.8815 111.316 33.5215 110.932C33.1695 110.548 32.8975 110.088 32.7055 109.552C32.5135 109.016 32.4175 108.42 32.4175 107.764C32.4175 107.1 32.5135 106.504 32.7055 105.976C32.8975 105.44 33.1695 104.984 33.5215 104.608C33.8815 104.224 34.3095 103.932 34.8055 103.732C35.3095 103.524 35.8695 103.42 36.4855 103.42C37.1015 103.42 37.6575 103.524 38.1535 103.732C38.6575 103.932 39.0855 104.22 39.4375 104.596C39.7975 104.972 40.0735 105.428 40.2655 105.964C40.4575 106.492 40.5535 107.088 40.5535 107.752C40.5535 108.416 40.4575 109.016 40.2655 109.552C40.0735 110.088 39.7975 110.548 39.4375 110.932C39.0855 111.316 38.6575 111.612 38.1535 111.82C37.6575 112.02 37.1015 112.12 36.4855 112.12ZM36.4855 110.8C37.0055 110.8 37.4455 110.68 37.8055 110.44C38.1735 110.2 38.4535 109.852 38.6455 109.396C38.8455 108.94 38.9455 108.396 38.9455 107.764C38.9455 107.124 38.8495 106.58 38.6575 106.132C38.4655 105.676 38.1855 105.332 37.8175 105.1C37.4495 104.86 37.0055 104.74 36.4855 104.74C35.9735 104.74 35.5335 104.86 35.1655 105.1C34.7975 105.332 34.5135 105.676 34.3135 106.132C34.1215 106.58 34.0255 107.124 34.0255 107.764C34.0255 108.396 34.1215 108.94 34.3135 109.396C34.5135 109.852 34.7975 110.2 35.1655 110.44C35.5335 110.68 35.9735 110.8 36.4855 110.8ZM42.1154 112V103.54H45.7874C46.7154 103.54 47.4314 103.764 47.9354 104.212C48.4394 104.652 48.6914 105.272 48.6914 106.072C48.6914 106.592 48.5754 107.04 48.3434 107.416C48.1194 107.792 47.7914 108.08 47.3594 108.28C46.9274 108.48 46.4034 108.58 45.7874 108.58L45.8954 108.4H46.2914C46.6194 108.4 46.9034 108.48 47.1434 108.64C47.3914 108.8 47.6074 109.052 47.7914 109.396L49.2074 112H47.5154L46.0514 109.3C45.9554 109.124 45.8474 108.988 45.7274 108.892C45.6074 108.788 45.4714 108.716 45.3194 108.676C45.1674 108.636 44.9914 108.616 44.7914 108.616H43.6514V112H42.1154ZM43.6514 107.476H45.5234C46.0754 107.476 46.4914 107.364 46.7714 107.14C47.0594 106.908 47.2034 106.564 47.2034 106.108C47.2034 105.66 47.0594 105.324 46.7714 105.1C46.4914 104.868 46.0754 104.752 45.5234 104.752H43.6514V107.476ZM52.1476 112V104.824H49.2436V103.54H56.5876V104.824H53.6836V112H52.1476ZM57.5607 112V103.54H63.0927V104.764H59.0967V107.152H62.8407V108.376H59.0967V112H57.5607ZM67.9387 112.12C67.3227 112.12 66.7627 112.02 66.2587 111.82C65.7627 111.612 65.3347 111.316 64.9747 110.932C64.6227 110.548 64.3507 110.088 64.1587 109.552C63.9667 109.016 63.8707 108.42 63.8707 107.764C63.8707 107.1 63.9667 106.504 64.1587 105.976C64.3507 105.44 64.6227 104.984 64.9747 104.608C65.3347 104.224 65.7627 103.932 66.2587 103.732C66.7627 103.524 67.3227 103.42 67.9387 103.42C68.5547 103.42 69.1107 103.524 69.6067 103.732C70.1107 103.932 70.5387 104.22 70.8907 104.596C71.2507 104.972 71.5267 105.428 71.7187 105.964C71.9107 106.492 72.0067 107.088 72.0067 107.752C72.0067 108.416 71.9107 109.016 71.7187 109.552C71.5267 110.088 71.2507 110.548 70.8907 110.932C70.5387 111.316 70.1107 111.612 69.6067 111.82C69.1107 112.02 68.5547 112.12 67.9387 112.12ZM67.9387 110.8C68.4587 110.8 68.8987 110.68 69.2587 110.44C69.6267 110.2 69.9067 109.852 70.0987 109.396C70.2987 108.94 70.3987 108.396 70.3987 107.764C70.3987 107.124 70.3027 106.58 70.1107 106.132C69.9187 105.676 69.6387 105.332 69.2707 105.1C68.9027 104.86 68.4587 104.74 67.9387 104.74C67.4267 104.74 66.9867 104.86 66.6187 105.1C66.2507 105.332 65.9667 105.676 65.7667 106.132C65.5747 106.58 65.4787 107.124 65.4787 107.764C65.4787 108.396 65.5747 108.94 65.7667 109.396C65.9667 109.852 66.2507 110.2 66.6187 110.44C66.9867 110.68 67.4267 110.8 67.9387 110.8ZM73.5685 112V103.54H75.1045V110.692H79.1605V112H73.5685ZM80.3068 112V103.54H81.8428V112H80.3068ZM87.4738 112.12C86.8578 112.12 86.2978 112.02 85.7938 111.82C85.2978 111.612 84.8698 111.316 84.5098 110.932C84.1578 110.548 83.8858 110.088 83.6938 109.552C83.5018 109.016 83.4058 108.42 83.4058 107.764C83.4058 107.1 83.5018 106.504 83.6938 105.976C83.8858 105.44 84.1578 104.984 84.5098 104.608C84.8698 104.224 85.2978 103.932 85.7938 103.732C86.2978 103.524 86.8578 103.42 87.4738 103.42C88.0898 103.42 88.6458 103.524 89.1418 103.732C89.6458 103.932 90.0738 104.22 90.4258 104.596C90.7858 104.972 91.0618 105.428 91.2538 105.964C91.4458 106.492 91.5418 107.088 91.5418 107.752C91.5418 108.416 91.4458 109.016 91.2538 109.552C91.0618 110.088 90.7858 110.548 90.4258 110.932C90.0738 111.316 89.6458 111.612 89.1418 111.82C88.6458 112.02 88.0898 112.12 87.4738 112.12ZM87.4738 110.8C87.9938 110.8 88.4338 110.68 88.7938 110.44C89.1618 110.2 89.4418 109.852 89.6338 109.396C89.8338 108.94 89.9338 108.396 89.9338 107.764C89.9338 107.124 89.8378 106.58 89.6458 106.132C89.4538 105.676 89.1738 105.332 88.8058 105.1C88.4378 104.86 87.9938 104.74 87.4738 104.74C86.9618 104.74 86.5218 104.86 86.1538 105.1C85.7858 105.332 85.5018 105.676 85.3018 106.132C85.1098 106.58 85.0138 107.124 85.0138 107.764C85.0138 108.396 85.1098 108.94 85.3018 109.396C85.5018 109.852 85.7858 110.2 86.1538 110.44C86.5218 110.68 86.9618 110.8 87.4738 110.8ZM99.0501 112L95.2821 103.54H96.9261L99.9861 110.632H99.4701L102.518 103.54H104.102L100.334 112H99.0501ZM103.266 112L107.094 103.54H108.354L112.182 112H110.622L109.602 109.624L110.25 110.044H105.186L105.834 109.624L104.826 112H103.266ZM107.706 105.208L106.026 109.204L105.714 108.82H109.722L109.422 109.204L107.73 105.208H107.706ZM113.108 112V103.54H114.644V110.692H118.7V112H113.108ZM123.022 112.12C121.862 112.12 120.974 111.82 120.358 111.22C119.75 110.612 119.446 109.716 119.446 108.532V103.54H120.982V108.52C120.982 109.28 121.154 109.852 121.498 110.236C121.85 110.612 122.358 110.8 123.022 110.8C123.686 110.8 124.19 110.612 124.534 110.236C124.878 109.852 125.05 109.28 125.05 108.52V103.54H126.574V108.532C126.574 109.716 126.274 110.612 125.674 111.22C125.074 111.82 124.19 112.12 123.022 112.12ZM128.365 112V103.54H133.993V104.764H129.841V107.092H133.729V108.316H129.841V110.776H133.993V112H128.365Z" fill="#808283"/>
<path d="M30.24 166.76V163.616L30.792 164.144C29.624 164.112 28.52 163.936 27.48 163.616C26.456 163.28 25.568 162.816 24.816 162.224L25.752 159.8C26.248 160.168 26.776 160.488 27.336 160.76C27.912 161.016 28.512 161.216 29.136 161.36C29.776 161.488 30.456 161.552 31.176 161.552C32.344 161.552 33.2 161.344 33.744 160.928C34.288 160.512 34.56 159.992 34.56 159.368C34.56 158.808 34.376 158.36 34.008 158.024C33.64 157.688 32.984 157.416 32.04 157.208L29.496 156.656C28.056 156.336 26.968 155.808 26.232 155.072C25.512 154.32 25.152 153.328 25.152 152.096C25.152 151.152 25.384 150.312 25.848 149.576C26.312 148.824 26.96 148.224 27.792 147.776C28.624 147.328 29.6 147.064 30.72 146.984L30.24 147.344V144.32H32.64V147.344L32.136 146.96C33.048 147.008 33.944 147.192 34.824 147.512C35.72 147.832 36.464 148.296 37.056 148.904L36.144 151.208C35.536 150.648 34.84 150.232 34.056 149.96C33.272 149.672 32.416 149.528 31.488 149.528C30.496 149.528 29.696 149.76 29.088 150.224C28.496 150.672 28.2 151.264 28.2 152C28.2 152.544 28.384 152.984 28.752 153.32C29.12 153.656 29.712 153.912 30.528 154.088L33.072 154.64C34.608 154.976 35.744 155.512 36.48 156.248C37.232 156.968 37.608 157.928 37.608 159.128C37.608 160.056 37.376 160.88 36.912 161.6C36.448 162.304 35.808 162.872 34.992 163.304C34.192 163.72 33.256 163.984 32.184 164.096L32.64 163.592V166.76H30.24ZM41.0066 164V161.456H44.8226V149.672H46.3106L41.8706 152.36L40.6706 150.104L45.7106 147.08H47.8946V161.456H51.4706V164H41.0066ZM55.5413 167.192L54.3173 166.232C54.6693 165.88 54.9413 165.544 55.1333 165.224C55.3253 164.92 55.4613 164.608 55.5413 164.288C55.6373 163.968 55.6853 163.64 55.6853 163.304L56.3333 164H54.0773V160.664H57.4373V162.872C57.4373 163.416 57.3733 163.928 57.2453 164.408C57.1333 164.888 56.9413 165.352 56.6693 165.8C56.3973 166.264 56.0213 166.728 55.5413 167.192ZM65.9344 164.24C64.6064 164.24 63.4784 163.904 62.5504 163.232C61.6384 162.544 60.9424 161.552 60.4624 160.256C59.9984 158.96 59.7664 157.376 59.7664 155.504C59.7664 153.616 59.9984 152.032 60.4624 150.752C60.9424 149.456 61.6384 148.48 62.5504 147.824C63.4784 147.168 64.6064 146.84 65.9344 146.84C67.2784 146.84 68.4064 147.168 69.3184 147.824C70.2464 148.48 70.9424 149.448 71.4064 150.728C71.8704 152.008 72.1024 153.592 72.1024 155.48C72.1024 157.352 71.8624 158.944 71.3824 160.256C70.9184 161.552 70.2304 162.544 69.3184 163.232C68.4064 163.904 67.2784 164.24 65.9344 164.24ZM65.9344 161.72C67.0224 161.72 67.8224 161.224 68.3344 160.232C68.8624 159.224 69.1264 157.64 69.1264 155.48C69.1264 153.336 68.8624 151.784 68.3344 150.824C67.8224 149.848 67.0224 149.36 65.9344 149.36C64.8624 149.36 64.0624 149.848 63.5344 150.824C63.0064 151.784 62.7424 153.344 62.7424 155.504C62.7424 157.648 63.0064 159.224 63.5344 160.232C64.0624 161.224 64.8624 161.72 65.9344 161.72ZM80.325 164.24C78.997 164.24 77.869 163.904 76.941 163.232C76.029 162.544 75.333 161.552 74.853 160.256C74.389 158.96 74.157 157.376 74.157 155.504C74.157 153.616 74.389 152.032 74.853 150.752C75.333 149.456 76.029 148.48 76.941 147.824C77.869 147.168 78.997 146.84 80.325 146.84C81.669 146.84 82.797 147.168 83.709 147.824C84.637 148.48 85.333 149.448 85.797 150.728C86.261 152.008 86.493 153.592 86.493 155.48C86.493 157.352 86.253 158.944 85.773 160.256C85.309 161.552 84.621 162.544 83.709 163.232C82.797 163.904 81.669 164.24 80.325 164.24ZM80.325 161.72C81.413 161.72 82.213 161.224 82.725 160.232C83.253 159.224 83.517 157.64 83.517 155.48C83.517 153.336 83.253 151.784 82.725 150.824C82.213 149.848 81.413 149.36 80.325 149.36C79.253 149.36 78.453 149.848 77.925 150.824C77.397 151.784 77.133 153.344 77.133 155.504C77.133 157.648 77.397 159.224 77.925 160.232C78.453 161.224 79.253 161.72 80.325 161.72ZM94.7156 164.24C93.3876 164.24 92.2596 163.904 91.3316 163.232C90.4196 162.544 89.7236 161.552 89.2436 160.256C88.7796 158.96 88.5476 157.376 88.5476 155.504C88.5476 153.616 88.7796 152.032 89.2436 150.752C89.7236 149.456 90.4196 148.48 91.3316 147.824C92.2596 147.168 93.3876 146.84 94.7156 146.84C96.0596 146.84 97.1876 147.168 98.0996 147.824C99.0276 148.48 99.7236 149.448 100.188 150.728C100.652 152.008 100.884 153.592 100.884 155.48C100.884 157.352 100.644 158.944 100.164 160.256C99.6996 161.552 99.0116 162.544 98.0996 163.232C97.1876 163.904 96.0596 164.24 94.7156 164.24ZM94.7156 161.72C95.8036 161.72 96.6036 161.224 97.1156 160.232C97.6436 159.224 97.9076 157.64 97.9076 155.48C97.9076 153.336 97.6436 151.784 97.1156 150.824C96.6036 149.848 95.8036 149.36 94.7156 149.36C93.6436 149.36 92.8436 149.848 92.3156 150.824C91.7876 151.784 91.5236 153.344 91.5236 155.504C91.5236 157.648 91.7876 159.224 92.3156 160.232C92.8436 161.224 93.6436 161.72 94.7156 161.72ZM104.666 167.192L103.442 166.232C103.794 165.88 104.066 165.544 104.258 165.224C104.45 164.92 104.586 164.608 104.666 164.288C104.762 163.968 104.81 163.64 104.81 163.304L105.458 164H103.202V160.664H106.562V162.872C106.562 163.416 106.498 163.928 106.37 164.408C106.258 164.888 106.066 165.352 105.794 165.8C105.522 166.264 105.146 166.728 104.666 167.192ZM115.059 164.24C113.731 164.24 112.603 163.904 111.675 163.232C110.763 162.544 110.067 161.552 109.587 160.256C109.123 158.96 108.891 157.376 108.891 155.504C108.891 153.616 109.123 152.032 109.587 150.752C110.067 149.456 110.763 148.48 111.675 147.824C112.603 147.168 113.731 146.84 115.059 146.84C116.403 146.84 117.531 147.168 118.443 147.824C119.371 148.48 120.067 149.448 120.531 150.728C120.995 152.008 121.227 153.592 121.227 155.48C121.227 157.352 120.987 158.944 120.507 160.256C120.043 161.552 119.355 162.544 118.443 163.232C117.531 163.904 116.403 164.24 115.059 164.24ZM115.059 161.72C116.147 161.72 116.947 161.224 117.459 160.232C117.987 159.224 118.251 157.64 118.251 155.48C118.251 153.336 117.987 151.784 117.459 150.824C116.947 149.848 116.147 149.36 115.059 149.36C113.987 149.36 113.187 149.848 112.659 150.824C112.131 151.784 111.867 153.344 111.867 155.504C111.867 157.648 112.131 159.224 112.659 160.232C113.187 161.224 113.987 161.72 115.059 161.72ZM129.45 164.24C128.122 164.24 126.994 163.904 126.066 163.232C125.154 162.544 124.458 161.552 123.978 160.256C123.514 158.96 123.282 157.376 123.282 155.504C123.282 153.616 123.514 152.032 123.978 150.752C124.458 149.456 125.154 148.48 126.066 147.824C126.994 147.168 128.122 146.84 129.45 146.84C130.794 146.84 131.922 147.168 132.834 147.824C133.762 148.48 134.458 149.448 134.922 150.728C135.386 152.008 135.618 153.592 135.618 155.48C135.618 157.352 135.378 158.944 134.898 160.256C134.434 161.552 133.746 162.544 132.834 163.232C131.922 163.904 130.794 164.24 129.45 164.24ZM129.45 161.72C130.538 161.72 131.338 161.224 131.85 160.232C132.378 159.224 132.642 157.64 132.642 155.48C132.642 153.336 132.378 151.784 131.85 150.824C131.338 149.848 130.538 149.36 129.45 149.36C128.378 149.36 127.578 149.848 127.05 150.824C126.522 151.784 126.258 153.344 126.258 155.504C126.258 157.648 126.522 159.224 127.05 160.232C127.578 161.224 128.378 161.72 129.45 161.72ZM143.841 164.24C142.513 164.24 141.385 163.904 140.457 163.232C139.545 162.544 138.849 161.552 138.369 160.256C137.905 158.96 137.673 157.376 137.673 155.504C137.673 153.616 137.905 152.032 138.369 150.752C138.849 149.456 139.545 148.48 140.457 147.824C141.385 147.168 142.513 146.84 143.841 146.84C145.185 146.84 146.313 147.168 147.225 147.824C148.153 148.48 148.849 149.448 149.313 150.728C149.777 152.008 150.009 153.592 150.009 155.48C150.009 157.352 149.769 158.944 149.289 160.256C148.825 161.552 148.137 162.544 147.225 163.232C146.313 163.904 145.185 164.24 143.841 164.24ZM143.841 161.72C144.929 161.72 145.729 161.224 146.241 160.232C146.769 159.224 147.033 157.64 147.033 155.48C147.033 153.336 146.769 151.784 146.241 150.824C145.729 149.848 144.929 149.36 143.841 149.36C142.769 149.36 141.969 149.848 141.441 150.824C140.913 151.784 140.649 153.344 140.649 155.504C140.649 157.648 140.913 159.224 141.441 160.232C141.969 161.224 142.769 161.72 143.841 161.72ZM152.327 164V160.664H155.687V164H152.327ZM164.184 164.24C162.856 164.24 161.728 163.904 160.8 163.232C159.888 162.544 159.192 161.552 158.712 160.256C158.248 158.96 158.016 157.376 158.016 155.504C158.016 153.616 158.248 152.032 158.712 150.752C159.192 149.456 159.888 148.48 160.8 147.824C161.728 147.168 162.856 146.84 164.184 146.84C165.528 146.84 166.656 147.168 167.568 147.824C168.496 148.48 169.192 149.448 169.656 150.728C170.12 152.008 170.352 153.592 170.352 155.48C170.352 157.352 170.112 158.944 169.632 160.256C169.168 161.552 168.48 162.544 167.568 163.232C166.656 163.904 165.528 164.24 164.184 164.24ZM164.184 161.72C165.272 161.72 166.072 161.224 166.584 160.232C167.112 159.224 167.376 157.64 167.376 155.48C167.376 153.336 167.112 151.784 166.584 150.824C166.072 149.848 165.272 149.36 164.184 149.36C163.112 149.36 162.312 149.848 161.784 150.824C161.256 151.784 160.992 153.344 160.992 155.504C160.992 157.648 161.256 159.224 161.784 160.232C162.312 161.224 163.112 161.72 164.184 161.72ZM178.575 164.24C177.247 164.24 176.119 163.904 175.191 163.232C174.279 162.544 173.583 161.552 173.103 160.256C172.639 158.96 172.407 157.376 172.407 155.504C172.407 153.616 172.639 152.032 173.103 150.752C173.583 149.456 174.279 148.48 175.191 147.824C176.119 147.168 177.247 146.84 178.575 146.84C179.919 146.84 181.047 147.168 181.959 147.824C182.887 148.48 183.583 149.448 184.047 150.728C184.511 152.008 184.743 153.592 184.743 155.48C184.743 157.352 184.503 158.944 184.023 160.256C183.559 161.552 182.871 162.544 181.959 163.232C181.047 163.904 179.919 164.24 178.575 164.24ZM178.575 161.72C179.663 161.72 180.463 161.224 180.975 160.232C181.503 159.224 181.767 157.64 181.767 155.48C181.767 153.336 181.503 151.784 180.975 150.824C180.463 149.848 179.663 149.36 178.575 149.36C177.503 149.36 176.703 149.848 176.175 150.824C175.647 151.784 175.383 153.344 175.383 155.504C175.383 157.648 175.647 159.224 176.175 160.232C176.703 161.224 177.503 161.72 178.575 161.72Z" fill="white"/>
<path d="M27.12 190.38V188.808L27.396 189.072C26.812 189.056 26.26 188.968 25.74 188.808C25.228 188.64 24.784 188.408 24.408 188.112L24.876 186.9C25.124 187.084 25.388 187.244 25.668 187.38C25.956 187.508 26.256 187.608 26.568 187.68C26.888 187.744 27.228 187.776 27.588 187.776C28.172 187.776 28.6 187.672 28.872 187.464C29.144 187.256 29.28 186.996 29.28 186.684C29.28 186.404 29.188 186.18 29.004 186.012C28.82 185.844 28.492 185.708 28.02 185.604L26.748 185.328C26.028 185.168 25.484 184.904 25.116 184.536C24.756 184.16 24.576 183.664 24.576 183.048C24.576 182.576 24.692 182.156 24.924 181.788C25.156 181.412 25.48 181.112 25.896 180.888C26.312 180.664 26.8 180.532 27.36 180.492L27.12 180.672V179.16H28.32V180.672L28.068 180.48C28.524 180.504 28.972 180.596 29.412 180.756C29.86 180.916 30.232 181.148 30.528 181.452L30.072 182.604C29.768 182.324 29.42 182.116 29.028 181.98C28.636 181.836 28.208 181.764 27.744 181.764C27.248 181.764 26.848 181.88 26.544 182.112C26.248 182.336 26.1 182.632 26.1 183C26.1 183.272 26.192 183.492 26.376 183.66C26.56 183.828 26.856 183.956 27.264 184.044L28.536 184.32C29.304 184.488 29.872 184.756 30.24 185.124C30.616 185.484 30.804 185.964 30.804 186.564C30.804 187.028 30.688 187.44 30.456 187.8C30.224 188.152 29.904 188.436 29.496 188.652C29.096 188.86 28.628 188.992 28.092 189.048L28.32 188.796V190.38H27.12ZM32.1553 189V187.86L34.8913 184.944C35.1393 184.68 35.3353 184.436 35.4793 184.212C35.6313 183.988 35.7433 183.772 35.8153 183.564C35.8873 183.356 35.9233 183.148 35.9233 182.94C35.9233 182.54 35.7953 182.236 35.5393 182.028C35.2913 181.82 34.9273 181.716 34.4473 181.716C34.0713 181.716 33.7033 181.788 33.3433 181.932C32.9913 182.068 32.6513 182.284 32.3233 182.58L31.8073 181.428C32.1433 181.124 32.5633 180.88 33.0673 180.696C33.5713 180.512 34.0953 180.42 34.6393 180.42C35.2473 180.42 35.7593 180.512 36.1753 180.696C36.5913 180.88 36.9073 181.148 37.1233 181.5C37.3393 181.852 37.4473 182.28 37.4473 182.784C37.4473 183.04 37.4153 183.292 37.3513 183.54C37.2953 183.78 37.2033 184.02 37.0753 184.26C36.9553 184.5 36.7993 184.748 36.6073 185.004C36.4233 185.252 36.1993 185.512 35.9353 185.784L33.6793 188.136V187.728H37.7713V189H32.1553ZM42.0626 189.12C41.6946 189.12 41.3306 189.08 40.9706 189C40.6186 188.92 40.2866 188.808 39.9746 188.664C39.6706 188.52 39.4066 188.352 39.1826 188.16L39.6866 186.984C40.0546 187.264 40.4346 187.476 40.8266 187.62C41.2186 187.756 41.6226 187.824 42.0386 187.824C42.5426 187.824 42.9346 187.696 43.2146 187.44C43.5026 187.176 43.6466 186.824 43.6466 186.384C43.6466 185.936 43.5106 185.576 43.2386 185.304C42.9666 185.024 42.5946 184.884 42.1226 184.884C41.7786 184.884 41.4706 184.952 41.1986 185.088C40.9266 185.216 40.6786 185.416 40.4546 185.688H39.4226V180.54H44.6186V181.812H40.9226V184.5H40.5266C40.7346 184.22 41.0066 184.004 41.3426 183.852C41.6866 183.7 42.0666 183.624 42.4826 183.624C43.0186 183.624 43.4826 183.74 43.8746 183.972C44.2746 184.196 44.5826 184.512 44.7986 184.92C45.0226 185.32 45.1346 185.788 45.1346 186.324C45.1346 186.876 45.0106 187.364 44.7626 187.788C44.5146 188.204 44.1586 188.532 43.6946 188.772C43.2386 189.004 42.6946 189.12 42.0626 189.12ZM49.1859 189.12C48.5219 189.12 47.9579 188.952 47.4939 188.616C47.0379 188.272 46.6899 187.776 46.4499 187.128C46.2179 186.48 46.1019 185.688 46.1019 184.752C46.1019 183.808 46.2179 183.016 46.4499 182.376C46.6899 181.728 47.0379 181.24 47.4939 180.912C47.9579 180.584 48.5219 180.42 49.1859 180.42C49.8579 180.42 50.4219 180.584 50.8779 180.912C51.3419 181.24 51.6899 181.724 51.9219 182.364C52.1539 183.004 52.2699 183.796 52.2699 184.74C52.2699 185.676 52.1499 186.472 51.9099 187.128C51.6779 187.776 51.3339 188.272 50.8779 188.616C50.4219 188.952 49.8579 189.12 49.1859 189.12ZM49.1859 187.86C49.7299 187.86 50.1299 187.612 50.3859 187.116C50.6499 186.612 50.7819 185.82 50.7819 184.74C50.7819 183.668 50.6499 182.892 50.3859 182.412C50.1299 181.924 49.7299 181.68 49.1859 181.68C48.6499 181.68 48.2499 181.924 47.9859 182.412C47.7219 182.892 47.5899 183.672 47.5899 184.752C47.5899 185.824 47.7219 186.612 47.9859 187.116C48.2499 187.612 48.6499 187.86 49.1859 187.86ZM54.1613 190.596L53.5493 190.116C53.7253 189.94 53.8613 189.772 53.9573 189.612C54.0533 189.46 54.1213 189.304 54.1613 189.144C54.2093 188.984 54.2333 188.82 54.2333 188.652L54.5573 189H53.4293V187.332H55.1093V188.436C55.1093 188.708 55.0773 188.964 55.0133 189.204C54.9573 189.444 54.8613 189.676 54.7253 189.9C54.5893 190.132 54.4013 190.364 54.1613 190.596ZM59.3578 189.12C58.6938 189.12 58.1298 188.952 57.6658 188.616C57.2098 188.272 56.8618 187.776 56.6218 187.128C56.3898 186.48 56.2738 185.688 56.2738 184.752C56.2738 183.808 56.3898 183.016 56.6218 182.376C56.8618 181.728 57.2098 181.24 57.6658 180.912C58.1298 180.584 58.6938 180.42 59.3578 180.42C60.0298 180.42 60.5938 180.584 61.0498 180.912C61.5138 181.24 61.8618 181.724 62.0938 182.364C62.3258 183.004 62.4418 183.796 62.4418 184.74C62.4418 185.676 62.3218 186.472 62.0818 187.128C61.8498 187.776 61.5058 188.272 61.0498 188.616C60.5938 188.952 60.0298 189.12 59.3578 189.12ZM59.3578 187.86C59.9018 187.86 60.3018 187.612 60.5578 187.116C60.8218 186.612 60.9538 185.82 60.9538 184.74C60.9538 183.668 60.8218 182.892 60.5578 182.412C60.3018 181.924 59.9018 181.68 59.3578 181.68C58.8218 181.68 58.4218 181.924 58.1578 182.412C57.8938 182.892 57.7618 183.672 57.7618 184.752C57.7618 185.824 57.8938 186.612 58.1578 187.116C58.4218 187.612 58.8218 187.86 59.3578 187.86ZM66.5531 189.12C65.8891 189.12 65.3251 188.952 64.8611 188.616C64.4051 188.272 64.0571 187.776 63.8171 187.128C63.5851 186.48 63.4691 185.688 63.4691 184.752C63.4691 183.808 63.5851 183.016 63.8171 182.376C64.0571 181.728 64.4051 181.24 64.8611 180.912C65.3251 180.584 65.8891 180.42 66.5531 180.42C67.2251 180.42 67.7891 180.584 68.2451 180.912C68.7091 181.24 69.0571 181.724 69.2891 182.364C69.5211 183.004 69.6371 183.796 69.6371 184.74C69.6371 185.676 69.5171 186.472 69.2771 187.128C69.0451 187.776 68.7011 188.272 68.2451 188.616C67.7891 188.952 67.2251 189.12 66.5531 189.12ZM66.5531 187.86C67.0971 187.86 67.4971 187.612 67.7531 187.116C68.0171 186.612 68.1491 185.82 68.1491 184.74C68.1491 183.668 68.0171 182.892 67.7531 182.412C67.4971 181.924 67.0971 181.68 66.5531 181.68C66.0171 181.68 65.6171 181.924 65.3531 182.412C65.0891 182.892 64.9571 183.672 64.9571 184.752C64.9571 185.824 65.0891 186.612 65.3531 187.116C65.6171 187.612 66.0171 187.86 66.5531 187.86ZM73.7484 189.12C73.0844 189.12 72.5204 188.952 72.0564 188.616C71.6004 188.272 71.2524 187.776 71.0124 187.128C70.7804 186.48 70.6644 185.688 70.6644 184.752C70.6644 183.808 70.7804 183.016 71.0124 182.376C71.2524 181.728 71.6004 181.24 72.0564 180.912C72.5204 180.584 73.0844 180.42 73.7484 180.42C74.4204 180.42 74.9844 180.584 75.4404 180.912C75.9044 181.24 76.2524 181.724 76.4844 182.364C76.7164 183.004 76.8324 183.796 76.8324 184.74C76.8324 185.676 76.7124 186.472 76.4724 187.128C76.2404 187.776 75.8964 188.272 75.4404 188.616C74.9844 188.952 74.4204 189.12 73.7484 189.12ZM73.7484 187.86C74.2924 187.86 74.6924 187.612 74.9484 187.116C75.2124 186.612 75.3444 185.82 75.3444 184.74C75.3444 183.668 75.2124 182.892 74.9484 182.412C74.6924 181.924 74.2924 181.68 73.7484 181.68C73.2124 181.68 72.8124 181.924 72.5484 182.412C72.2844 182.892 72.1524 183.672 72.1524 184.752C72.1524 185.824 72.2844 186.612 72.5484 187.116C72.8124 187.612 73.2124 187.86 73.7484 187.86ZM77.9918 189V187.332H79.6718V189H77.9918ZM83.9203 189.12C83.2563 189.12 82.6923 188.952 82.2283 188.616C81.7723 188.272 81.4243 187.776 81.1843 187.128C80.9523 186.48 80.8363 185.688 80.8363 184.752C80.8363 183.808 80.9523 183.016 81.1843 182.376C81.4243 181.728 81.7723 181.24 82.2283 180.912C82.6923 180.584 83.2563 180.42 83.9203 180.42C84.5923 180.42 85.1563 180.584 85.6123 180.912C86.0763 181.24 86.4243 181.724 86.6563 182.364C86.8883 183.004 87.0043 183.796 87.0043 184.74C87.0043 185.676 86.8843 186.472 86.6443 187.128C86.4123 187.776 86.0683 188.272 85.6123 188.616C85.1563 188.952 84.5923 189.12 83.9203 189.12ZM83.9203 187.86C84.4643 187.86 84.8643 187.612 85.1203 187.116C85.3843 186.612 85.5163 185.82 85.5163 184.74C85.5163 183.668 85.3843 182.892 85.1203 182.412C84.8643 181.924 84.4643 181.68 83.9203 181.68C83.3843 181.68 82.9843 181.924 82.7203 182.412C82.4563 182.892 82.3243 183.672 82.3243 184.752C82.3243 185.824 82.4563 186.612 82.7203 187.116C82.9843 187.612 83.3843 187.86 83.9203 187.86ZM91.1156 189.12C90.4516 189.12 89.8876 188.952 89.4236 188.616C88.9676 188.272 88.6196 187.776 88.3796 187.128C88.1476 186.48 88.0316 185.688 88.0316 184.752C88.0316 183.808 88.1476 183.016 88.3796 182.376C88.6196 181.728 88.9676 181.24 89.4236 180.912C89.8876 180.584 90.4516 180.42 91.1156 180.42C91.7876 180.42 92.3516 180.584 92.8076 180.912C93.2716 181.24 93.6196 181.724 93.8516 182.364C94.0836 183.004 94.1996 183.796 94.1996 184.74C94.1996 185.676 94.0796 186.472 93.8396 187.128C93.6076 187.776 93.2636 188.272 92.8076 188.616C92.3516 188.952 91.7876 189.12 91.1156 189.12ZM91.1156 187.86C91.6596 187.86 92.0596 187.612 92.3156 187.116C92.5796 186.612 92.7116 185.82 92.7116 184.74C92.7116 183.668 92.5796 182.892 92.3156 182.412C92.0596 181.924 91.6596 181.68 91.1156 181.68C90.5796 181.68 90.1796 181.924 89.9156 182.412C89.6516 182.892 89.5196 183.672 89.5196 184.752C89.5196 185.824 89.6516 186.612 89.9156 187.116C90.1796 187.612 90.5796 187.86 91.1156 187.86ZM98.8693 189V180.54H100.405V189H98.8693ZM102.244 189V180.54H103.396L108.256 186.852H107.944V180.54H109.372V189H108.232L103.372 182.676H103.672V189H102.244ZM113.933 189L110.165 180.54H111.809L114.869 187.632H114.353L117.401 180.54H118.985L115.217 189H113.933ZM119.776 189V180.54H125.404V181.764H121.252V184.092H125.14V185.316H121.252V187.776H125.404V189H119.776ZM129.735 189.12C129.295 189.12 128.871 189.08 128.463 189C128.063 188.928 127.691 188.82 127.347 188.676C127.011 188.532 126.711 188.36 126.447 188.16L126.915 186.948C127.179 187.132 127.455 187.292 127.743 187.428C128.039 187.556 128.351 187.656 128.679 187.728C129.015 187.792 129.367 187.824 129.735 187.824C130.367 187.824 130.827 187.72 131.115 187.512C131.403 187.296 131.547 187.02 131.547 186.684C131.547 186.5 131.503 186.344 131.415 186.216C131.327 186.08 131.183 185.964 130.983 185.868C130.783 185.772 130.519 185.692 130.191 185.628L128.871 185.352C128.111 185.192 127.543 184.924 127.167 184.548C126.799 184.164 126.615 183.66 126.615 183.036C126.615 182.508 126.755 182.048 127.035 181.656C127.315 181.264 127.703 180.96 128.199 180.744C128.695 180.528 129.267 180.42 129.915 180.42C130.299 180.42 130.667 180.46 131.019 180.54C131.379 180.612 131.707 180.724 132.003 180.876C132.307 181.02 132.571 181.196 132.795 181.404L132.327 182.556C131.991 182.276 131.623 182.068 131.223 181.932C130.823 181.788 130.383 181.716 129.903 181.716C129.535 181.716 129.219 181.768 128.955 181.872C128.691 181.976 128.487 182.124 128.343 182.316C128.207 182.5 128.139 182.72 128.139 182.976C128.139 183.264 128.235 183.496 128.427 183.672C128.619 183.84 128.947 183.972 129.411 184.068L130.719 184.344C131.511 184.512 132.099 184.776 132.483 185.136C132.875 185.496 133.071 185.976 133.071 186.576C133.071 187.08 132.935 187.524 132.663 187.908C132.391 188.292 132.003 188.592 131.499 188.808C131.003 189.016 130.415 189.12 129.735 189.12ZM136.253 189V181.824H133.349V180.54H140.693V181.824H137.789V189H136.253ZM141.666 189V180.54H147.294V181.764H143.142V184.092H147.03V185.316H143.142V187.776H147.294V189H141.666ZM148.826 189V180.54H151.97C152.914 180.54 153.714 180.704 154.37 181.032C155.034 181.36 155.538 181.84 155.882 182.472C156.234 183.096 156.41 183.86 156.41 184.764C156.41 185.668 156.234 186.436 155.882 187.068C155.538 187.7 155.034 188.18 154.37 188.508C153.714 188.836 152.914 189 151.97 189H148.826ZM150.362 187.728H151.874C152.858 187.728 153.59 187.484 154.07 186.996C154.558 186.5 154.802 185.756 154.802 184.764C154.802 183.772 154.558 183.032 154.07 182.544C153.582 182.056 152.85 181.812 151.874 181.812H150.362V187.728Z" fill="#808283"/>
<path d="M0 207H344V332C344 338.627 338.627 344 332 344H12C5.37259 344 0 338.627 0 332V207Z" fill="#181A20"/>
<path d="M24.924 235V226.54H28.596C29.22 226.54 29.748 226.644 30.18 226.852C30.612 227.06 30.94 227.36 31.164 227.752C31.388 228.144 31.5 228.62 31.5 229.18C31.5 229.732 31.388 230.208 31.164 230.608C30.94 231 30.612 231.304 30.18 231.52C29.748 231.728 29.22 231.832 28.596 231.832H26.46V235H24.924ZM26.46 230.62H28.356C28.9 230.62 29.312 230.5 29.592 230.26C29.872 230.012 30.012 229.652 30.012 229.18C30.012 228.708 29.872 228.352 29.592 228.112C29.312 227.872 28.9 227.752 28.356 227.752H26.46V230.62ZM32.7521 235V226.54H36.4241C37.3521 226.54 38.0681 226.764 38.5721 227.212C39.0761 227.652 39.3281 228.272 39.3281 229.072C39.3281 229.592 39.2121 230.04 38.9801 230.416C38.7561 230.792 38.4281 231.08 37.9961 231.28C37.5641 231.48 37.0401 231.58 36.4241 231.58L36.5321 231.4H36.9281C37.2561 231.4 37.5401 231.48 37.7801 231.64C38.0281 231.8 38.2441 232.052 38.4281 232.396L39.8441 235H38.1521L36.6881 232.3C36.5921 232.124 36.4841 231.988 36.3641 231.892C36.2441 231.788 36.1081 231.716 35.9561 231.676C35.8041 231.636 35.6281 231.616 35.4281 231.616H34.2881V235H32.7521ZM34.2881 230.476H36.1601C36.7121 230.476 37.1281 230.364 37.4081 230.14C37.6961 229.908 37.8401 229.564 37.8401 229.108C37.8401 228.66 37.6961 228.324 37.4081 228.1C37.1281 227.868 36.7121 227.752 36.1601 227.752H34.2881V230.476ZM44.7121 235.12C44.0961 235.12 43.5361 235.02 43.0321 234.82C42.5361 234.612 42.1081 234.316 41.7481 233.932C41.3961 233.548 41.1241 233.088 40.9321 232.552C40.7401 232.016 40.6441 231.42 40.6441 230.764C40.6441 230.1 40.7401 229.504 40.9321 228.976C41.1241 228.44 41.3961 227.984 41.7481 227.608C42.1081 227.224 42.5361 226.932 43.0321 226.732C43.5361 226.524 44.0961 226.42 44.7121 226.42C45.3281 226.42 45.8841 226.524 46.3801 226.732C46.8841 226.932 47.3121 227.22 47.6641 227.596C48.0241 227.972 48.3001 228.428 48.4921 228.964C48.6841 229.492 48.7801 230.088 48.7801 230.752C48.7801 231.416 48.6841 232.016 48.4921 232.552C48.3001 233.088 48.0241 233.548 47.6641 233.932C47.3121 234.316 46.8841 234.612 46.3801 234.82C45.8841 235.02 45.3281 235.12 44.7121 235.12ZM44.7121 233.8C45.2321 233.8 45.6721 233.68 46.0321 233.44C46.4001 233.2 46.6801 232.852 46.8721 232.396C47.0721 231.94 47.1721 231.396 47.1721 230.764C47.1721 230.124 47.0761 229.58 46.8841 229.132C46.6921 228.676 46.4121 228.332 46.0441 228.1C45.6761 227.86 45.2321 227.74 44.7121 227.74C44.2001 227.74 43.7601 227.86 43.3921 228.1C43.0241 228.332 42.7401 228.676 42.5401 229.132C42.3481 229.58 42.2521 230.124 42.2521 230.764C42.2521 231.396 42.3481 231.94 42.5401 232.396C42.7401 232.852 43.0241 233.2 43.3921 233.44C43.7601 233.68 44.2001 233.8 44.7121 233.8ZM50.342 235V226.54H55.874V227.764H51.878V230.152H55.622V231.376H51.878V235H50.342ZM57.0803 235V226.54H58.6163V235H57.0803ZM62.4953 235V227.824H59.5913V226.54H66.9353V227.824H64.0313V235H62.4953Z" fill="#808283"/>
<path d="M30.24 289.76V286.616L30.792 287.144C29.624 287.112 28.52 286.936 27.48 286.616C26.456 286.28 25.568 285.816 24.816 285.224L25.752 282.8C26.248 283.168 26.776 283.488 27.336 283.76C27.912 284.016 28.512 284.216 29.136 284.36C29.776 284.488 30.456 284.552 31.176 284.552C32.344 284.552 33.2 284.344 33.744 283.928C34.288 283.512 34.56 282.992 34.56 282.368C34.56 281.808 34.376 281.36 34.008 281.024C33.64 280.688 32.984 280.416 32.04 280.208L29.496 279.656C28.056 279.336 26.968 278.808 26.232 278.072C25.512 277.32 25.152 276.328 25.152 275.096C25.152 274.152 25.384 273.312 25.848 272.576C26.312 271.824 26.96 271.224 27.792 270.776C28.624 270.328 29.6 270.064 30.72 269.984L30.24 270.344V267.32H32.64V270.344L32.136 269.96C33.048 270.008 33.944 270.192 34.824 270.512C35.72 270.832 36.464 271.296 37.056 271.904L36.144 274.208C35.536 273.648 34.84 273.232 34.056 272.96C33.272 272.672 32.416 272.528 31.488 272.528C30.496 272.528 29.696 272.76 29.088 273.224C28.496 273.672 28.2 274.264 28.2 275C28.2 275.544 28.384 275.984 28.752 276.32C29.12 276.656 29.712 276.912 30.528 277.088L33.072 277.64C34.608 277.976 35.744 278.512 36.48 279.248C37.232 279.968 37.608 280.928 37.608 282.128C37.608 283.056 37.376 283.88 36.912 284.6C36.448 285.304 35.808 285.872 34.992 286.304C34.192 286.72 33.256 286.984 32.184 287.096L32.64 286.592V289.76H30.24ZM41.0066 287V284.456H44.8226V272.672H46.3106L41.8706 275.36L40.6706 273.104L45.7106 270.08H47.8946V284.456H51.4706V287H41.0066ZM55.5413 290.192L54.3173 289.232C54.6693 288.88 54.9413 288.544 55.1333 288.224C55.3253 287.92 55.4613 287.608 55.5413 287.288C55.6373 286.968 55.6853 286.64 55.6853 286.304L56.3333 287H54.0773V283.664H57.4373V285.872C57.4373 286.416 57.3733 286.928 57.2453 287.408C57.1333 287.888 56.9413 288.352 56.6693 288.8C56.3973 289.264 56.0213 289.728 55.5413 290.192ZM65.9344 287.24C64.6064 287.24 63.4784 286.904 62.5504 286.232C61.6384 285.544 60.9424 284.552 60.4624 283.256C59.9984 281.96 59.7664 280.376 59.7664 278.504C59.7664 276.616 59.9984 275.032 60.4624 273.752C60.9424 272.456 61.6384 271.48 62.5504 270.824C63.4784 270.168 64.6064 269.84 65.9344 269.84C67.2784 269.84 68.4064 270.168 69.3184 270.824C70.2464 271.48 70.9424 272.448 71.4064 273.728C71.8704 275.008 72.1024 276.592 72.1024 278.48C72.1024 280.352 71.8624 281.944 71.3824 283.256C70.9184 284.552 70.2304 285.544 69.3184 286.232C68.4064 286.904 67.2784 287.24 65.9344 287.24ZM65.9344 284.72C67.0224 284.72 67.8224 284.224 68.3344 283.232C68.8624 282.224 69.1264 280.64 69.1264 278.48C69.1264 276.336 68.8624 274.784 68.3344 273.824C67.8224 272.848 67.0224 272.36 65.9344 272.36C64.8624 272.36 64.0624 272.848 63.5344 273.824C63.0064 274.784 62.7424 276.344 62.7424 278.504C62.7424 280.648 63.0064 282.224 63.5344 283.232C64.0624 284.224 64.8624 284.72 65.9344 284.72ZM80.325 287.24C78.997 287.24 77.869 286.904 76.941 286.232C76.029 285.544 75.333 284.552 74.853 283.256C74.389 281.96 74.157 280.376 74.157 278.504C74.157 276.616 74.389 275.032 74.853 273.752C75.333 272.456 76.029 271.48 76.941 270.824C77.869 270.168 78.997 269.84 80.325 269.84C81.669 269.84 82.797 270.168 83.709 270.824C84.637 271.48 85.333 272.448 85.797 273.728C86.261 275.008 86.493 276.592 86.493 278.48C86.493 280.352 86.253 281.944 85.773 283.256C85.309 284.552 84.621 285.544 83.709 286.232C82.797 286.904 81.669 287.24 80.325 287.24ZM80.325 284.72C81.413 284.72 82.213 284.224 82.725 283.232C83.253 282.224 83.517 280.64 83.517 278.48C83.517 276.336 83.253 274.784 82.725 273.824C82.213 272.848 81.413 272.36 80.325 272.36C79.253 272.36 78.453 272.848 77.925 273.824C77.397 274.784 77.133 276.344 77.133 278.504C77.133 280.648 77.397 282.224 77.925 283.232C78.453 284.224 79.253 284.72 80.325 284.72ZM94.7156 287.24C93.3876 287.24 92.2596 286.904 91.3316 286.232C90.4196 285.544 89.7236 284.552 89.2436 283.256C88.7796 281.96 88.5476 280.376 88.5476 278.504C88.5476 276.616 88.7796 275.032 89.2436 273.752C89.7236 272.456 90.4196 271.48 91.3316 270.824C92.2596 270.168 93.3876 269.84 94.7156 269.84C96.0596 269.84 97.1876 270.168 98.0996 270.824C99.0276 271.48 99.7236 272.448 100.188 273.728C100.652 275.008 100.884 276.592 100.884 278.48C100.884 280.352 100.644 281.944 100.164 283.256C99.6996 284.552 99.0116 285.544 98.0996 286.232C97.1876 286.904 96.0596 287.24 94.7156 287.24ZM94.7156 284.72C95.8036 284.72 96.6036 284.224 97.1156 283.232C97.6436 282.224 97.9076 280.64 97.9076 278.48C97.9076 276.336 97.6436 274.784 97.1156 273.824C96.6036 272.848 95.8036 272.36 94.7156 272.36C93.6436 272.36 92.8436 272.848 92.3156 273.824C91.7876 274.784 91.5236 276.344 91.5236 278.504C91.5236 280.648 91.7876 282.224 92.3156 283.232C92.8436 284.224 93.6436 284.72 94.7156 284.72ZM104.666 290.192L103.442 289.232C103.794 288.88 104.066 288.544 104.258 288.224C104.45 287.92 104.586 287.608 104.666 287.288C104.762 286.968 104.81 286.64 104.81 286.304L105.458 287H103.202V283.664H106.562V285.872C106.562 286.416 106.498 286.928 106.37 287.408C106.258 287.888 106.066 288.352 105.794 288.8C105.522 289.264 105.146 289.728 104.666 290.192ZM115.059 287.24C113.731 287.24 112.603 286.904 111.675 286.232C110.763 285.544 110.067 284.552 109.587 283.256C109.123 281.96 108.891 280.376 108.891 278.504C108.891 276.616 109.123 275.032 109.587 273.752C110.067 272.456 110.763 271.48 111.675 270.824C112.603 270.168 113.731 269.84 115.059 269.84C116.403 269.84 117.531 270.168 118.443 270.824C119.371 271.48 120.067 272.448 120.531 273.728C120.995 275.008 121.227 276.592 121.227 278.48C121.227 280.352 120.987 281.944 120.507 283.256C120.043 284.552 119.355 285.544 118.443 286.232C117.531 286.904 116.403 287.24 115.059 287.24ZM115.059 284.72C116.147 284.72 116.947 284.224 117.459 283.232C117.987 282.224 118.251 280.64 118.251 278.48C118.251 276.336 117.987 274.784 117.459 273.824C116.947 272.848 116.147 272.36 115.059 272.36C113.987 272.36 113.187 272.848 112.659 273.824C112.131 274.784 111.867 276.344 111.867 278.504C111.867 280.648 112.131 282.224 112.659 283.232C113.187 284.224 113.987 284.72 115.059 284.72ZM129.45 287.24C128.122 287.24 126.994 286.904 126.066 286.232C125.154 285.544 124.458 284.552 123.978 283.256C123.514 281.96 123.282 280.376 123.282 278.504C123.282 276.616 123.514 275.032 123.978 273.752C124.458 272.456 125.154 271.48 126.066 270.824C126.994 270.168 128.122 269.84 129.45 269.84C130.794 269.84 131.922 270.168 132.834 270.824C133.762 271.48 134.458 272.448 134.922 273.728C135.386 275.008 135.618 276.592 135.618 278.48C135.618 280.352 135.378 281.944 134.898 283.256C134.434 284.552 133.746 285.544 132.834 286.232C131.922 286.904 130.794 287.24 129.45 287.24ZM129.45 284.72C130.538 284.72 131.338 284.224 131.85 283.232C132.378 282.224 132.642 280.64 132.642 278.48C132.642 276.336 132.378 274.784 131.85 273.824C131.338 272.848 130.538 272.36 129.45 272.36C128.378 272.36 127.578 272.848 127.05 273.824C126.522 274.784 126.258 276.344 126.258 278.504C126.258 280.648 126.522 282.224 127.05 283.232C127.578 284.224 128.378 284.72 129.45 284.72ZM143.841 287.24C142.513 287.24 141.385 286.904 140.457 286.232C139.545 285.544 138.849 284.552 138.369 283.256C137.905 281.96 137.673 280.376 137.673 278.504C137.673 276.616 137.905 275.032 138.369 273.752C138.849 272.456 139.545 271.48 140.457 270.824C141.385 270.168 142.513 269.84 143.841 269.84C145.185 269.84 146.313 270.168 147.225 270.824C148.153 271.48 148.849 272.448 149.313 273.728C149.777 275.008 150.009 276.592 150.009 278.48C150.009 280.352 149.769 281.944 149.289 283.256C148.825 284.552 148.137 285.544 147.225 286.232C146.313 286.904 145.185 287.24 143.841 287.24ZM143.841 284.72C144.929 284.72 145.729 284.224 146.241 283.232C146.769 282.224 147.033 280.64 147.033 278.48C147.033 276.336 146.769 274.784 146.241 273.824C145.729 272.848 144.929 272.36 143.841 272.36C142.769 272.36 141.969 272.848 141.441 273.824C140.913 274.784 140.649 276.344 140.649 278.504C140.649 280.648 140.913 282.224 141.441 283.232C141.969 284.224 142.769 284.72 143.841 284.72ZM152.327 287V283.664H155.687V287H152.327ZM164.184 287.24C162.856 287.24 161.728 286.904 160.8 286.232C159.888 285.544 159.192 284.552 158.712 283.256C158.248 281.96 158.016 280.376 158.016 278.504C158.016 276.616 158.248 275.032 158.712 273.752C159.192 272.456 159.888 271.48 160.8 270.824C161.728 270.168 162.856 269.84 164.184 269.84C165.528 269.84 166.656 270.168 167.568 270.824C168.496 271.48 169.192 272.448 169.656 273.728C170.12 275.008 170.352 276.592 170.352 278.48C170.352 280.352 170.112 281.944 169.632 283.256C169.168 284.552 168.48 285.544 167.568 286.232C166.656 286.904 165.528 287.24 164.184 287.24ZM164.184 284.72C165.272 284.72 166.072 284.224 166.584 283.232C167.112 282.224 167.376 280.64 167.376 278.48C167.376 276.336 167.112 274.784 166.584 273.824C166.072 272.848 165.272 272.36 164.184 272.36C163.112 272.36 162.312 272.848 161.784 273.824C161.256 274.784 160.992 276.344 160.992 278.504C160.992 280.648 161.256 282.224 161.784 283.232C162.312 284.224 163.112 284.72 164.184 284.72ZM178.575 287.24C177.247 287.24 176.119 286.904 175.191 286.232C174.279 285.544 173.583 284.552 173.103 283.256C172.639 281.96 172.407 280.376 172.407 278.504C172.407 276.616 172.639 275.032 173.103 273.752C173.583 272.456 174.279 271.48 175.191 270.824C176.119 270.168 177.247 269.84 178.575 269.84C179.919 269.84 181.047 270.168 181.959 270.824C182.887 271.48 183.583 272.448 184.047 273.728C184.511 275.008 184.743 276.592 184.743 278.48C184.743 280.352 184.503 281.944 184.023 283.256C183.559 284.552 182.871 285.544 181.959 286.232C181.047 286.904 179.919 287.24 178.575 287.24ZM178.575 284.72C179.663 284.72 180.463 284.224 180.975 283.232C181.503 282.224 181.767 280.64 181.767 278.48C181.767 276.336 181.503 274.784 180.975 273.824C180.463 272.848 179.663 272.36 178.575 272.36C177.503 272.36 176.703 272.848 176.175 273.824C175.647 274.784 175.383 276.344 175.383 278.504C175.383 280.648 175.647 282.224 176.175 283.232C176.703 284.224 177.503 284.72 178.575 284.72Z" fill="white"/>
<rect x="196" y="269.5" width="77" height="20" rx="4" fill="#1C3430"/>
<path d="M202.952 283.02V280.68H200.672V279.432H202.952V277.164H204.248V279.432H206.528V280.68H204.248V283.02H202.952ZM208.395 283.5V281.976H210.291V276.6H211.167L208.839 277.968L208.131 276.612L210.831 275.04H212.151V281.976H213.927V283.5H208.395ZM221.33 283.632C220.65 283.632 220.074 283.46 219.602 283.116C219.138 282.772 218.782 282.276 218.534 281.628C218.294 280.98 218.174 280.184 218.174 279.24C218.174 278.304 218.294 277.516 218.534 276.876C218.774 276.228 219.13 275.74 219.602 275.412C220.074 275.076 220.65 274.908 221.33 274.908C222.018 274.908 222.594 275.076 223.058 275.412C223.53 275.74 223.886 276.224 224.126 276.864C224.366 277.504 224.486 278.296 224.486 279.24C224.486 280.176 224.362 280.972 224.114 281.628C223.874 282.276 223.522 282.772 223.058 283.116C222.594 283.46 222.018 283.632 221.33 283.632ZM221.33 282.12C221.794 282.12 222.138 281.892 222.362 281.436C222.586 280.972 222.698 280.24 222.698 279.24C222.698 278.24 222.586 277.52 222.362 277.08C222.146 276.64 221.802 276.42 221.33 276.42C220.866 276.42 220.522 276.64 220.298 277.08C220.074 277.52 219.962 278.24 219.962 279.24C219.962 280.24 220.074 280.972 220.298 281.436C220.522 281.892 220.866 282.12 221.33 282.12ZM228.526 283.632C227.846 283.632 227.27 283.46 226.798 283.116C226.334 282.772 225.978 282.276 225.73 281.628C225.49 280.98 225.37 280.184 225.37 279.24C225.37 278.304 225.49 277.516 225.73 276.876C225.97 276.228 226.326 275.74 226.798 275.412C227.27 275.076 227.846 274.908 228.526 274.908C229.214 274.908 229.79 275.076 230.254 275.412C230.726 275.74 231.082 276.224 231.322 276.864C231.562 277.504 231.682 278.296 231.682 279.24C231.682 280.176 231.558 280.972 231.31 281.628C231.07 282.276 230.718 282.772 230.254 283.116C229.79 283.46 229.214 283.632 228.526 283.632ZM228.526 282.12C228.99 282.12 229.334 281.892 229.558 281.436C229.782 280.972 229.894 280.24 229.894 279.24C229.894 278.24 229.782 277.52 229.558 277.08C229.342 276.64 228.998 276.42 228.526 276.42C228.062 276.42 227.718 276.64 227.494 277.08C227.27 277.52 227.158 278.24 227.158 279.24C227.158 280.24 227.27 280.972 227.494 281.436C227.718 281.892 228.062 282.12 228.526 282.12ZM235.721 283.632C235.041 283.632 234.465 283.46 233.993 283.116C233.529 282.772 233.173 282.276 232.925 281.628C232.685 280.98 232.565 280.184 232.565 279.24C232.565 278.304 232.685 277.516 232.925 276.876C233.165 276.228 233.521 275.74 233.993 275.412C234.465 275.076 235.041 274.908 235.721 274.908C236.409 274.908 236.985 275.076 237.449 275.412C237.921 275.74 238.277 276.224 238.517 276.864C238.757 277.504 238.877 278.296 238.877 279.24C238.877 280.176 238.753 280.972 238.505 281.628C238.265 282.276 237.913 282.772 237.449 283.116C236.985 283.46 236.409 283.632 235.721 283.632ZM235.721 282.12C236.185 282.12 236.529 281.892 236.753 281.436C236.977 280.972 237.089 280.24 237.089 279.24C237.089 278.24 236.977 277.52 236.753 277.08C236.537 276.64 236.193 276.42 235.721 276.42C235.257 276.42 234.913 276.64 234.689 277.08C234.465 277.52 234.353 278.24 234.353 279.24C234.353 280.24 234.465 280.972 234.689 281.436C234.913 281.892 235.257 282.12 235.721 282.12ZM239.904 283.5V281.58H241.848V283.5H239.904ZM246.034 283.632C245.354 283.632 244.778 283.46 244.306 283.116C243.842 282.772 243.486 282.276 243.238 281.628C242.998 280.98 242.878 280.184 242.878 279.24C242.878 278.304 242.998 277.516 243.238 276.876C243.478 276.228 243.834 275.74 244.306 275.412C244.778 275.076 245.354 274.908 246.034 274.908C246.722 274.908 247.298 275.076 247.762 275.412C248.234 275.74 248.59 276.224 248.83 276.864C249.07 277.504 249.19 278.296 249.19 279.24C249.19 280.176 249.066 280.972 248.818 281.628C248.578 282.276 248.226 282.772 247.762 283.116C247.298 283.46 246.722 283.632 246.034 283.632ZM246.034 282.12C246.498 282.12 246.842 281.892 247.066 281.436C247.29 280.972 247.402 280.24 247.402 279.24C247.402 278.24 247.29 277.52 247.066 277.08C246.85 276.64 246.506 276.42 246.034 276.42C245.57 276.42 245.226 276.64 245.002 277.08C244.778 277.52 244.666 278.24 244.666 279.24C244.666 280.24 244.778 280.972 245.002 281.436C245.226 281.892 245.57 282.12 246.034 282.12ZM253.229 283.632C252.549 283.632 251.973 283.46 251.501 283.116C251.037 282.772 250.681 282.276 250.433 281.628C250.193 280.98 250.073 280.184 250.073 279.24C250.073 278.304 250.193 277.516 250.433 276.876C250.673 276.228 251.029 275.74 251.501 275.412C251.973 275.076 252.549 274.908 253.229 274.908C253.917 274.908 254.493 275.076 254.957 275.412C255.429 275.74 255.785 276.224 256.025 276.864C256.265 277.504 256.385 278.296 256.385 279.24C256.385 280.176 256.261 280.972 256.013 281.628C255.773 282.276 255.421 282.772 254.957 283.116C254.493 283.46 253.917 283.632 253.229 283.632ZM253.229 282.12C253.693 282.12 254.037 281.892 254.261 281.436C254.485 280.972 254.597 280.24 254.597 279.24C254.597 278.24 254.485 277.52 254.261 277.08C254.045 276.64 253.701 276.42 253.229 276.42C252.765 276.42 252.421 276.64 252.197 277.08C251.973 277.52 251.861 278.24 251.861 279.24C251.861 280.24 251.973 280.972 252.197 281.436C252.421 281.892 252.765 282.12 253.229 282.12ZM260.676 283.86L259.512 283.176L264.432 274.68L265.584 275.364L260.676 283.86ZM259.464 280.08C259 280.08 258.604 279.976 258.276 279.768C257.948 279.552 257.696 279.252 257.52 278.868C257.352 278.476 257.268 278.016 257.268 277.488C257.268 276.696 257.46 276.068 257.844 275.604C258.236 275.14 258.776 274.908 259.464 274.908C259.92 274.908 260.312 275.016 260.64 275.232C260.976 275.44 261.228 275.736 261.396 276.12C261.572 276.504 261.66 276.96 261.66 277.488C261.66 278.016 261.572 278.476 261.396 278.868C261.228 279.252 260.98 279.552 260.652 279.768C260.324 279.976 259.928 280.08 259.464 280.08ZM259.464 278.928C259.704 278.928 259.888 278.816 260.016 278.592C260.144 278.36 260.208 277.992 260.208 277.488C260.208 276.984 260.14 276.624 260.004 276.408C259.876 276.184 259.696 276.072 259.464 276.072C259.224 276.072 259.04 276.18 258.912 276.396C258.784 276.612 258.72 276.976 258.72 277.488C258.72 278 258.784 278.368 258.912 278.592C259.04 278.816 259.224 278.928 259.464 278.928ZM265.644 283.632C265.18 283.632 264.784 283.528 264.456 283.32C264.128 283.104 263.876 282.8 263.7 282.408C263.532 282.016 263.448 281.556 263.448 281.028C263.448 280.236 263.64 279.612 264.024 279.156C264.416 278.692 264.956 278.46 265.644 278.46C266.108 278.46 266.504 278.564 266.832 278.772C267.16 278.98 267.408 279.276 267.576 279.66C267.752 280.044 267.84 280.5 267.84 281.028C267.84 281.556 267.752 282.016 267.576 282.408C267.408 282.8 267.16 283.104 266.832 283.32C266.504 283.528 266.108 283.632 265.644 283.632ZM265.644 282.468C265.884 282.468 266.068 282.356 266.196 282.132C266.324 281.9 266.388 281.532 266.388 281.028C266.388 280.524 266.32 280.164 266.184 279.948C266.056 279.724 265.876 279.612 265.644 279.612C265.404 279.612 265.22 279.72 265.092 279.936C264.964 280.152 264.9 280.516 264.9 281.028C264.9 281.548 264.964 281.92 265.092 282.144C265.22 282.36 265.404 282.468 265.644 282.468Z" fill="#2EBD85"/>
<path d="M27.81 314.4V311.355H24.84V310.035H27.81V307.08H29.19V310.035H32.16V311.355H29.19V314.4H27.81ZM37.5841 315.15C37.1241 315.15 36.6691 315.1 36.2191 315C35.7791 314.9 35.3641 314.76 34.9741 314.58C34.5941 314.4 34.2641 314.19 33.9841 313.95L34.6141 312.48C35.0741 312.83 35.5491 313.095 36.0391 313.275C36.5291 313.445 37.0341 313.53 37.5541 313.53C38.1841 313.53 38.6741 313.37 39.0241 313.05C39.3841 312.72 39.5641 312.28 39.5641 311.73C39.5641 311.17 39.3941 310.72 39.0541 310.38C38.7141 310.03 38.2491 309.855 37.6591 309.855C37.2291 309.855 36.8441 309.94 36.5041 310.11C36.1641 310.27 35.8541 310.52 35.5741 310.86H34.2841V304.425H40.7791V306.015H36.1591V309.375H35.6641C35.9241 309.025 36.2641 308.755 36.6841 308.565C37.1141 308.375 37.5891 308.28 38.1091 308.28C38.7791 308.28 39.3591 308.425 39.8491 308.715C40.3491 308.995 40.7341 309.39 41.0041 309.9C41.2841 310.4 41.4241 310.985 41.4241 311.655C41.4241 312.345 41.2691 312.955 40.9591 313.485C40.6491 314.005 40.2041 314.415 39.6241 314.715C39.0541 315.005 38.3741 315.15 37.5841 315.15ZM50.5313 315.15C49.7013 315.15 48.9963 314.94 48.4163 314.52C47.8463 314.09 47.4113 313.47 47.1113 312.66C46.8213 311.85 46.6763 310.86 46.6763 309.69C46.6763 308.51 46.8213 307.52 47.1113 306.72C47.4113 305.91 47.8463 305.3 48.4163 304.89C48.9963 304.48 49.7013 304.275 50.5313 304.275C51.3713 304.275 52.0763 304.48 52.6463 304.89C53.2263 305.3 53.6613 305.905 53.9512 306.705C54.2413 307.505 54.3863 308.495 54.3863 309.675C54.3863 310.845 54.2363 311.84 53.9363 312.66C53.6463 313.47 53.2163 314.09 52.6463 314.52C52.0763 314.94 51.3713 315.15 50.5313 315.15ZM50.5313 313.575C51.2113 313.575 51.7113 313.265 52.0313 312.645C52.3613 312.015 52.5263 311.025 52.5263 309.675C52.5263 308.335 52.3613 307.365 52.0313 306.765C51.7113 306.155 51.2113 305.85 50.5313 305.85C49.8613 305.85 49.3613 306.155 49.0313 306.765C48.7013 307.365 48.5363 308.34 48.5363 309.69C48.5363 311.03 48.7013 312.015 49.0313 312.645C49.3613 313.265 49.8613 313.575 50.5313 313.575ZM59.5254 315.15C58.6954 315.15 57.9904 314.94 57.4104 314.52C56.8404 314.09 56.4054 313.47 56.1054 312.66C55.8154 311.85 55.6704 310.86 55.6704 309.69C55.6704 308.51 55.8154 307.52 56.1054 306.72C56.4054 305.91 56.8404 305.3 57.4104 304.89C57.9904 304.48 58.6954 304.275 59.5254 304.275C60.3654 304.275 61.0704 304.48 61.6404 304.89C62.2204 305.3 62.6554 305.905 62.9454 306.705C63.2354 307.505 63.3804 308.495 63.3804 309.675C63.3804 310.845 63.2304 311.84 62.9304 312.66C62.6404 313.47 62.2104 314.09 61.6404 314.52C61.0704 314.94 60.3654 315.15 59.5254 315.15ZM59.5254 313.575C60.2054 313.575 60.7054 313.265 61.0254 312.645C61.3554 312.015 61.5204 311.025 61.5204 309.675C61.5204 308.335 61.3554 307.365 61.0254 306.765C60.7054 306.155 60.2054 305.85 59.5254 305.85C58.8554 305.85 58.3554 306.155 58.0254 306.765C57.6954 307.365 57.5304 308.34 57.5304 309.69C57.5304 311.03 57.6954 312.015 58.0254 312.645C58.3554 313.265 58.8554 313.575 59.5254 313.575ZM68.5195 315.15C67.6895 315.15 66.9845 314.94 66.4045 314.52C65.8345 314.09 65.3995 313.47 65.0995 312.66C64.8095 311.85 64.6645 310.86 64.6645 309.69C64.6645 308.51 64.8095 307.52 65.0995 306.72C65.3995 305.91 65.8345 305.3 66.4045 304.89C66.9845 304.48 67.6895 304.275 68.5195 304.275C69.3595 304.275 70.0645 304.48 70.6345 304.89C71.2145 305.3 71.6495 305.905 71.9395 306.705C72.2295 307.505 72.3745 308.495 72.3745 309.675C72.3745 310.845 72.2245 311.84 71.9245 312.66C71.6345 313.47 71.2045 314.09 70.6345 314.52C70.0645 314.94 69.3595 315.15 68.5195 315.15ZM68.5195 313.575C69.1995 313.575 69.6995 313.265 70.0195 312.645C70.3495 312.015 70.5145 311.025 70.5145 309.675C70.5145 308.335 70.3495 307.365 70.0195 306.765C69.6995 306.155 69.1995 305.85 68.5195 305.85C67.8495 305.85 67.3495 306.155 67.0195 306.765C66.6895 307.365 66.5245 308.34 66.5245 309.69C66.5245 311.03 66.6895 312.015 67.0195 312.645C67.3495 313.265 67.8495 313.575 68.5195 313.575ZM78.6166 315V312.915H77.3416V311.595H78.6166V310.575H77.3416V309.255H78.6166V304.425H82.2016C82.9716 304.425 83.6216 304.555 84.1516 304.815C84.6916 305.075 85.0966 305.44 85.3666 305.91C85.6466 306.38 85.7866 306.93 85.7866 307.56C85.7866 308.17 85.6466 308.7 85.3666 309.15C85.0866 309.6 84.6866 309.95 84.1666 310.2C83.6466 310.45 83.0166 310.575 82.2766 310.575H80.5666V311.595H82.9666V312.915H80.5666V315H78.6166ZM80.5366 309.255H81.9616C82.5916 309.255 83.0766 309.135 83.4166 308.895C83.7566 308.655 83.9266 308.255 83.9266 307.695C83.9266 307.135 83.7566 306.72 83.4166 306.45C83.0866 306.18 82.6016 306.045 81.9616 306.045H80.5366V309.255Z" fill="#2EBD85"/>
<rect x="95" y="300" width="77" height="20" rx="4" fill="#1C3430"/>
<path d="M101.952 313.52V311.18H99.672V309.932H101.952V307.664H103.248V309.932H105.528V311.18H103.248V313.52H101.952ZM107.395 314V312.476H109.291V307.1H110.167L107.839 308.468L107.131 307.112L109.831 305.54H111.151V312.476H112.927V314H107.395ZM120.33 314.132C119.65 314.132 119.074 313.96 118.602 313.616C118.138 313.272 117.782 312.776 117.534 312.128C117.294 311.48 117.174 310.684 117.174 309.74C117.174 308.804 117.294 308.016 117.534 307.376C117.774 306.728 118.13 306.24 118.602 305.912C119.074 305.576 119.65 305.408 120.33 305.408C121.018 305.408 121.594 305.576 122.058 305.912C122.53 306.24 122.886 306.724 123.126 307.364C123.366 308.004 123.486 308.796 123.486 309.74C123.486 310.676 123.362 311.472 123.114 312.128C122.874 312.776 122.522 313.272 122.058 313.616C121.594 313.96 121.018 314.132 120.33 314.132ZM120.33 312.62C120.794 312.62 121.138 312.392 121.362 311.936C121.586 311.472 121.698 310.74 121.698 309.74C121.698 308.74 121.586 308.02 121.362 307.58C121.146 307.14 120.802 306.92 120.33 306.92C119.866 306.92 119.522 307.14 119.298 307.58C119.074 308.02 118.962 308.74 118.962 309.74C118.962 310.74 119.074 311.472 119.298 311.936C119.522 312.392 119.866 312.62 120.33 312.62ZM127.526 314.132C126.846 314.132 126.27 313.96 125.798 313.616C125.334 313.272 124.978 312.776 124.73 312.128C124.49 311.48 124.37 310.684 124.37 309.74C124.37 308.804 124.49 308.016 124.73 307.376C124.97 306.728 125.326 306.24 125.798 305.912C126.27 305.576 126.846 305.408 127.526 305.408C128.214 305.408 128.79 305.576 129.254 305.912C129.726 306.24 130.082 306.724 130.322 307.364C130.562 308.004 130.682 308.796 130.682 309.74C130.682 310.676 130.558 311.472 130.31 312.128C130.07 312.776 129.718 313.272 129.254 313.616C128.79 313.96 128.214 314.132 127.526 314.132ZM127.526 312.62C127.99 312.62 128.334 312.392 128.558 311.936C128.782 311.472 128.894 310.74 128.894 309.74C128.894 308.74 128.782 308.02 128.558 307.58C128.342 307.14 127.998 306.92 127.526 306.92C127.062 306.92 126.718 307.14 126.494 307.58C126.27 308.02 126.158 308.74 126.158 309.74C126.158 310.74 126.27 311.472 126.494 311.936C126.718 312.392 127.062 312.62 127.526 312.62ZM134.721 314.132C134.041 314.132 133.465 313.96 132.993 313.616C132.529 313.272 132.173 312.776 131.925 312.128C131.685 311.48 131.565 310.684 131.565 309.74C131.565 308.804 131.685 308.016 131.925 307.376C132.165 306.728 132.521 306.24 132.993 305.912C133.465 305.576 134.041 305.408 134.721 305.408C135.409 305.408 135.985 305.576 136.449 305.912C136.921 306.24 137.277 306.724 137.517 307.364C137.757 308.004 137.877 308.796 137.877 309.74C137.877 310.676 137.753 311.472 137.505 312.128C137.265 312.776 136.913 313.272 136.449 313.616C135.985 313.96 135.409 314.132 134.721 314.132ZM134.721 312.62C135.185 312.62 135.529 312.392 135.753 311.936C135.977 311.472 136.089 310.74 136.089 309.74C136.089 308.74 135.977 308.02 135.753 307.58C135.537 307.14 135.193 306.92 134.721 306.92C134.257 306.92 133.913 307.14 133.689 307.58C133.465 308.02 133.353 308.74 133.353 309.74C133.353 310.74 133.465 311.472 133.689 311.936C133.913 312.392 134.257 312.62 134.721 312.62ZM138.904 314V312.08H140.848V314H138.904ZM145.034 314.132C144.354 314.132 143.778 313.96 143.306 313.616C142.842 313.272 142.486 312.776 142.238 312.128C141.998 311.48 141.878 310.684 141.878 309.74C141.878 308.804 141.998 308.016 142.238 307.376C142.478 306.728 142.834 306.24 143.306 305.912C143.778 305.576 144.354 305.408 145.034 305.408C145.722 305.408 146.298 305.576 146.762 305.912C147.234 306.24 147.59 306.724 147.83 307.364C148.07 308.004 148.19 308.796 148.19 309.74C148.19 310.676 148.066 311.472 147.818 312.128C147.578 312.776 147.226 313.272 146.762 313.616C146.298 313.96 145.722 314.132 145.034 314.132ZM145.034 312.62C145.498 312.62 145.842 312.392 146.066 311.936C146.29 311.472 146.402 310.74 146.402 309.74C146.402 308.74 146.29 308.02 146.066 307.58C145.85 307.14 145.506 306.92 145.034 306.92C144.57 306.92 144.226 307.14 144.002 307.58C143.778 308.02 143.666 308.74 143.666 309.74C143.666 310.74 143.778 311.472 144.002 311.936C144.226 312.392 144.57 312.62 145.034 312.62ZM152.229 314.132C151.549 314.132 150.973 313.96 150.501 313.616C150.037 313.272 149.681 312.776 149.433 312.128C149.193 311.48 149.073 310.684 149.073 309.74C149.073 308.804 149.193 308.016 149.433 307.376C149.673 306.728 150.029 306.24 150.501 305.912C150.973 305.576 151.549 305.408 152.229 305.408C152.917 305.408 153.493 305.576 153.957 305.912C154.429 306.24 154.785 306.724 155.025 307.364C155.265 308.004 155.385 308.796 155.385 309.74C155.385 310.676 155.261 311.472 155.013 312.128C154.773 312.776 154.421 313.272 153.957 313.616C153.493 313.96 152.917 314.132 152.229 314.132ZM152.229 312.62C152.693 312.62 153.037 312.392 153.261 311.936C153.485 311.472 153.597 310.74 153.597 309.74C153.597 308.74 153.485 308.02 153.261 307.58C153.045 307.14 152.701 306.92 152.229 306.92C151.765 306.92 151.421 307.14 151.197 307.58C150.973 308.02 150.861 308.74 150.861 309.74C150.861 310.74 150.973 311.472 151.197 311.936C151.421 312.392 151.765 312.62 152.229 312.62ZM159.676 314.36L158.512 313.676L163.432 305.18L164.584 305.864L159.676 314.36ZM158.464 310.58C158 310.58 157.604 310.476 157.276 310.268C156.948 310.052 156.696 309.752 156.52 309.368C156.352 308.976 156.268 308.516 156.268 307.988C156.268 307.196 156.46 306.568 156.844 306.104C157.236 305.64 157.776 305.408 158.464 305.408C158.92 305.408 159.312 305.516 159.64 305.732C159.976 305.94 160.228 306.236 160.396 306.62C160.572 307.004 160.66 307.46 160.66 307.988C160.66 308.516 160.572 308.976 160.396 309.368C160.228 309.752 159.98 310.052 159.652 310.268C159.324 310.476 158.928 310.58 158.464 310.58ZM158.464 309.428C158.704 309.428 158.888 309.316 159.016 309.092C159.144 308.86 159.208 308.492 159.208 307.988C159.208 307.484 159.14 307.124 159.004 306.908C158.876 306.684 158.696 306.572 158.464 306.572C158.224 306.572 158.04 306.68 157.912 306.896C157.784 307.112 157.72 307.476 157.72 307.988C157.72 308.5 157.784 308.868 157.912 309.092C158.04 309.316 158.224 309.428 158.464 309.428ZM164.644 314.132C164.18 314.132 163.784 314.028 163.456 313.82C163.128 313.604 162.876 313.3 162.7 312.908C162.532 312.516 162.448 312.056 162.448 311.528C162.448 310.736 162.64 310.112 163.024 309.656C163.416 309.192 163.956 308.96 164.644 308.96C165.108 308.96 165.504 309.064 165.832 309.272C166.16 309.48 166.408 309.776 166.576 310.16C166.752 310.544 166.84 311 166.84 311.528C166.84 312.056 166.752 312.516 166.576 312.908C166.408 313.3 166.16 313.604 165.832 313.82C165.504 314.028 165.108 314.132 164.644 314.132ZM164.644 312.968C164.884 312.968 165.068 312.856 165.196 312.632C165.324 312.4 165.388 312.032 165.388 311.528C165.388 311.024 165.32 310.664 165.184 310.448C165.056 310.224 164.876 310.112 164.644 310.112C164.404 310.112 164.22 310.22 164.092 310.436C163.964 310.652 163.9 311.016 163.9 311.528C163.9 312.048 163.964 312.42 164.092 312.644C164.22 312.86 164.404 312.968 164.644 312.968Z" fill="#2EBD85"/>
<path d="M180.924 314V305.54H184.068C185.012 305.54 185.812 305.704 186.468 306.032C187.132 306.36 187.636 306.84 187.98 307.472C188.332 308.096 188.508 308.86 188.508 309.764C188.508 310.668 188.332 311.436 187.98 312.068C187.636 312.7 187.132 313.18 186.468 313.508C185.812 313.836 185.012 314 184.068 314H180.924ZM182.46 312.728H183.972C184.956 312.728 185.688 312.484 186.168 311.996C186.656 311.5 186.9 310.756 186.9 309.764C186.9 308.772 186.656 308.032 186.168 307.544C185.68 307.056 184.948 306.812 183.972 306.812H182.46V312.728ZM188.977 314L192.805 305.54H194.065L197.893 314H196.333L195.313 311.624L195.961 312.044H190.897L191.545 311.624L190.537 314H188.977ZM193.417 307.208L191.737 311.204L191.425 310.82H195.433L195.133 311.204L193.441 307.208H193.417ZM198.819 314V305.54H200.355V314H198.819ZM202.194 314V305.54H203.73V312.692H207.786V314H202.194ZM209.53 314V309.644L209.854 310.568L206.278 305.54H208.066L210.49 308.984H210.154L212.59 305.54H214.306L210.754 310.568L211.066 309.644V314H209.53Z" fill="#808283"/>
<mask id="path-15-inside-2_4721_7086" fill="white">
<path d="M0 12C0 5.37258 5.37258 0 12 0H332C338.627 0 344 5.37258 344 12V84H0V12Z"/>
</mask>
<path d="M0 12C0 5.37258 5.37258 0 12 0H332C338.627 0 344 5.37258 344 12V84H0V12Z" fill="#181A20"/>
<path d="M0 0H344H0ZM344 85H0V83H344V85ZM0 84V0V84ZM344 0V84V0Z" fill="#313338" mask="url(#path-15-inside-2_4721_7086)"/>
<path d="M25.848 53.5V36.58H28.152L37.872 49.204H37.248V36.58H40.104V53.5H37.824L28.104 40.852H28.704V53.5H25.848ZM47.3771 53.74C46.5291 53.74 45.7691 53.58 45.0971 53.26C44.4411 52.924 43.9211 52.476 43.5371 51.916C43.1691 51.356 42.9851 50.724 42.9851 50.02C42.9851 49.156 43.2091 48.476 43.6571 47.98C44.1051 47.468 44.8331 47.1 45.8411 46.876C46.8491 46.652 48.2011 46.54 49.8971 46.54H51.0971V48.268H49.9211C49.1691 48.268 48.5371 48.3 48.0251 48.364C47.5131 48.412 47.0971 48.5 46.7771 48.628C46.4731 48.74 46.2491 48.9 46.1051 49.108C45.9771 49.316 45.9131 49.572 45.9131 49.876C45.9131 50.404 46.0971 50.836 46.4651 51.172C46.8331 51.508 47.3451 51.676 48.0011 51.676C48.5291 51.676 48.9931 51.556 49.3931 51.316C49.8091 51.06 50.1371 50.716 50.3771 50.284C50.6171 49.852 50.7371 49.356 50.7371 48.796V46.036C50.7371 45.236 50.5611 44.66 50.2091 44.308C49.8571 43.956 49.2651 43.78 48.4331 43.78C47.7771 43.78 47.1051 43.884 46.4171 44.092C45.7291 44.284 45.0331 44.588 44.3291 45.004L43.4651 42.964C43.8811 42.676 44.3691 42.428 44.9291 42.22C45.5051 41.996 46.1051 41.828 46.7291 41.716C47.3691 41.588 47.9691 41.524 48.5291 41.524C49.6811 41.524 50.6251 41.7 51.3611 42.052C52.1131 42.404 52.6731 42.94 53.0411 43.66C53.4091 44.364 53.5931 45.276 53.5931 46.396V53.5H50.7851V51.004H50.9771C50.8651 51.564 50.6411 52.052 50.3051 52.468C49.9851 52.868 49.5771 53.18 49.0811 53.404C48.5851 53.628 48.0171 53.74 47.3771 53.74ZM56.6861 53.5V41.764H59.6141V44.116H59.3501C59.5581 43.572 59.8461 43.108 60.2141 42.724C60.5821 42.34 61.0221 42.044 61.5341 41.836C62.0461 41.628 62.6141 41.524 63.2381 41.524C64.1821 41.524 64.9581 41.748 65.5661 42.196C66.1741 42.644 66.5981 43.332 66.8381 44.26H66.5021C66.8221 43.412 67.3501 42.748 68.0861 42.268C68.8221 41.772 69.6701 41.524 70.6301 41.524C71.5261 41.524 72.2621 41.7 72.8381 42.052C73.4301 42.404 73.8701 42.94 74.1581 43.66C74.4461 44.364 74.5901 45.26 74.5901 46.348V53.5H71.5901V46.468C71.5901 45.572 71.4381 44.916 71.1341 44.5C70.8461 44.084 70.3501 43.876 69.6461 43.876C69.1341 43.876 68.6861 44.004 68.3021 44.26C67.9181 44.5 67.6221 44.852 67.4141 45.316C67.2221 45.78 67.1261 46.34 67.1261 46.996V53.5H64.1261V46.468C64.1261 45.572 63.9741 44.916 63.6701 44.5C63.3821 44.084 62.8941 43.876 62.2061 43.876C61.6781 43.876 61.2221 44.004 60.8381 44.26C60.4701 44.5 60.1821 44.852 59.9741 45.316C59.7821 45.78 59.6861 46.34 59.6861 46.996V53.5H56.6861ZM83.469 53.74C82.141 53.74 80.997 53.492 80.037 52.996C79.077 52.5 78.333 51.796 77.805 50.884C77.293 49.972 77.037 48.892 77.037 47.644C77.037 46.428 77.285 45.364 77.781 44.452C78.293 43.54 78.989 42.828 79.869 42.316C80.765 41.788 81.781 41.524 82.917 41.524C84.037 41.524 84.997 41.764 85.797 42.244C86.597 42.724 87.213 43.404 87.645 44.284C88.093 45.164 88.317 46.212 88.317 47.428V48.316H79.461V46.588H86.205L85.821 46.948C85.821 45.86 85.581 45.028 85.101 44.452C84.621 43.86 83.933 43.564 83.037 43.564C82.365 43.564 81.789 43.724 81.309 44.044C80.845 44.348 80.485 44.788 80.229 45.364C79.989 45.924 79.869 46.596 79.869 47.38V47.548C79.869 48.428 80.005 49.156 80.277 49.732C80.549 50.308 80.957 50.74 81.501 51.028C82.045 51.316 82.717 51.46 83.517 51.46C84.173 51.46 84.829 51.364 85.485 51.172C86.141 50.964 86.741 50.644 87.285 50.212L88.125 52.228C87.565 52.692 86.861 53.06 86.013 53.332C85.165 53.604 84.317 53.74 83.469 53.74ZM95.9968 53.74C95.2288 53.74 94.4768 53.66 93.7408 53.5C93.0208 53.356 92.3488 53.14 91.7248 52.852C91.1008 52.564 90.5568 52.22 90.0928 51.82L91.1008 49.468C91.8528 50.044 92.6208 50.468 93.4048 50.74C94.1888 51.012 95.0208 51.148 95.9008 51.148C96.6048 51.148 97.1968 51.052 97.6768 50.86C98.1568 50.668 98.5168 50.38 98.7568 49.996C99.0128 49.612 99.1408 49.148 99.1408 48.604C99.1408 47.804 98.8688 47.212 98.3248 46.828C97.7968 46.428 97.0208 46.228 95.9968 46.228H93.2848V43.684H95.7088C96.3168 43.684 96.8368 43.588 97.2688 43.396C97.7008 43.188 98.0368 42.9 98.2768 42.532C98.5168 42.164 98.6368 41.716 98.6368 41.188C98.6368 40.452 98.3888 39.892 97.8928 39.508C97.4128 39.124 96.7088 38.932 95.7808 38.932C94.9488 38.932 94.1728 39.076 93.4528 39.364C92.7328 39.636 92.0448 40.068 91.3888 40.66L90.3808 38.356C91.0528 37.716 91.8928 37.22 92.9008 36.868C93.9088 36.516 94.9568 36.34 96.0448 36.34C97.2128 36.34 98.2128 36.524 99.0448 36.892C99.8768 37.244 100.509 37.756 100.941 38.428C101.389 39.084 101.613 39.884 101.613 40.828C101.613 41.836 101.333 42.708 100.773 43.444C100.213 44.164 99.4448 44.644 98.4688 44.884V44.596C99.2368 44.724 99.8928 44.98 100.437 45.364C100.981 45.748 101.397 46.236 101.685 46.828C101.973 47.42 102.117 48.1 102.117 48.868C102.117 49.86 101.869 50.724 101.373 51.46C100.877 52.196 100.173 52.764 99.2608 53.164C98.3488 53.548 97.2608 53.74 95.9968 53.74ZM106.139 53.5V50.956H109.955V39.172H111.443L107.003 41.86L105.803 39.604L110.843 36.58H113.027V50.956H116.603V53.5H106.139ZM124.778 53.74C124.01 53.74 123.258 53.66 122.522 53.5C121.802 53.356 121.13 53.14 120.506 52.852C119.882 52.564 119.338 52.22 118.874 51.82L119.882 49.468C120.634 50.044 121.402 50.468 122.186 50.74C122.97 51.012 123.802 51.148 124.682 51.148C125.386 51.148 125.978 51.052 126.458 50.86C126.938 50.668 127.298 50.38 127.538 49.996C127.794 49.612 127.922 49.148 127.922 48.604C127.922 47.804 127.65 47.212 127.106 46.828C126.578 46.428 125.802 46.228 124.778 46.228H122.066V43.684H124.49C125.098 43.684 125.618 43.588 126.05 43.396C126.482 43.188 126.818 42.9 127.058 42.532C127.298 42.164 127.418 41.716 127.418 41.188C127.418 40.452 127.17 39.892 126.674 39.508C126.194 39.124 125.49 38.932 124.562 38.932C123.73 38.932 122.954 39.076 122.234 39.364C121.514 39.636 120.826 40.068 120.17 40.66L119.162 38.356C119.834 37.716 120.674 37.22 121.682 36.868C122.69 36.516 123.738 36.34 124.826 36.34C125.994 36.34 126.994 36.524 127.826 36.892C128.658 37.244 129.29 37.756 129.722 38.428C130.17 39.084 130.394 39.884 130.394 40.828C130.394 41.836 130.114 42.708 129.554 43.444C128.994 44.164 128.226 44.644 127.25 44.884V44.596C128.018 44.724 128.674 44.98 129.218 45.364C129.762 45.748 130.178 46.236 130.466 46.828C130.754 47.42 130.898 48.1 130.898 48.868C130.898 49.86 130.65 50.724 130.154 51.46C129.658 52.196 128.954 52.764 128.042 53.164C127.13 53.548 126.042 53.74 124.778 53.74ZM134.225 53.5V51.22L139.697 45.388C140.193 44.86 140.585 44.372 140.873 43.924C141.177 43.476 141.401 43.044 141.545 42.628C141.689 42.212 141.761 41.796 141.761 41.38C141.761 40.58 141.505 39.972 140.993 39.556C140.497 39.14 139.769 38.932 138.809 38.932C138.057 38.932 137.321 39.076 136.601 39.364C135.897 39.636 135.217 40.068 134.561 40.66L133.529 38.356C134.201 37.748 135.041 37.26 136.049 36.892C137.057 36.524 138.105 36.34 139.193 36.34C140.409 36.34 141.433 36.524 142.265 36.892C143.097 37.26 143.729 37.796 144.161 38.5C144.593 39.204 144.809 40.06 144.809 41.068C144.809 41.58 144.745 42.084 144.617 42.58C144.505 43.06 144.321 43.54 144.065 44.02C143.825 44.5 143.513 44.996 143.129 45.508C142.761 46.004 142.313 46.524 141.785 47.068L137.273 51.772V50.956H145.457V53.5H134.225Z" fill="white"/>
<rect x="276" y="24" width="44" height="44" rx="8" fill="#23252D"/>
<path d="M298 45C297.735 45 297.48 45.1054 297.293 45.2929C297.105 45.4804 297 45.7348 297 46C297 46.2652 297.105 46.5196 297.293 46.7071C297.48 46.8946 297.735 47 298 47C298.265 47 298.52 46.8946 298.707 46.7071C298.895 46.5196 299 46.2652 299 46C299 45.7348 298.895 45.4804 298.707 45.2929C298.52 45.1054 298.265 45 298 45Z" fill="white" stroke="white" stroke-width="2" stroke-linecap="round" stroke-linejoin="round"/>
<path d="M291 45C290.735 45 290.48 45.1054 290.293 45.2929C290.105 45.4804 290 45.7348 290 46C290 46.2652 290.105 46.5196 290.293 46.7071C290.48 46.8946 290.735 47 291 47C291.265 47 291.52 46.8946 291.707 46.7071C291.895 46.5196 292 46.2652 292 46C292 45.7348 291.895 45.4804 291.707 45.2929C291.52 45.1054 291.265 45 291 45Z" fill="white" stroke="white" stroke-width="2" stroke-linecap="round" stroke-linejoin="round"/>
<path d="M305 45C304.735 45 304.48 45.1054 304.293 45.2929C304.105 45.4804 304 45.7348 304 46C304 46.2652 304.105 46.5196 304.293 46.7071C304.48 46.8946 304.735 47 305 47C305.265 47 305.52 46.8946 305.707 46.7071C305.895 46.5196 306 46.2652 306 46C306 45.7348 305.895 45.4804 305.707 45.2929C305.52 45.1054 305.265 45 305 45Z" fill="white" stroke="white" stroke-width="2" stroke-linecap="round" stroke-linejoin="round"/>
</svg>
