<svg width="24" height="24" viewBox="0 0 24 24" fill="none" xmlns="http://www.w3.org/2000/svg">
<path d="M3.06694 2.18306C2.82286 1.93898 2.42714 1.93898 2.18306 2.18306C1.93898 2.42714 1.93898 2.82286 2.18306 3.06694L6.11611 6.99999H3.875C2.83947 6.99999 2 7.83946 2 8.87499V15.125C2 16.1605 2.83947 17 3.875 17H7.13436C7.29205 17 7.44391 17.0596 7.5595 17.1669L12.3997 21.6586C13.1996 22.4009 14.5 21.8336 14.5 20.7423V15.3839L20.9331 21.8169C21.1771 22.061 21.5729 22.061 21.8169 21.8169C22.061 21.5729 22.061 21.1771 21.8169 20.9331L18.6116 17.7277C18.6116 17.7277 18.6116 17.7277 18.6116 17.7277L3.06694 2.18306ZM19.4497 5.33296C22.5449 8.78748 22.8185 13.8755 20.2705 17.6189L19.3684 16.7167C21.4549 13.4625 21.1716 9.12797 18.5188 6.16709C18.2884 5.91001 18.3101 5.51487 18.5672 5.28453C18.8243 5.05419 19.2194 5.07587 19.4497 5.33296ZM17.9502 8.56242C19.2048 10.7354 19.1376 13.308 18.0012 15.3495L17.0738 14.4221C17.8429 12.8059 17.8292 10.8528 16.8677 9.18742C16.6951 8.88848 16.7975 8.50624 17.0965 8.33365C17.3954 8.16106 17.7776 8.26348 17.9502 8.56242ZM14.5 3.25764V11.8483L8.5581 5.90641L12.3997 2.34139C13.1996 1.59908 14.5 2.16636 14.5 3.25764Z" fill="currentColor"/>
</svg>