<svg viewBox="0 0 20 20" fill="none" xmlns="http://www.w3.org/2000/svg">
<g opacity="1">
<path d="M1.66663 5L7.42748 8.26414C9.55129 9.4675 10.4486 9.4675 12.5725 8.26414L18.3333 5" stroke="currentColor" stroke-width="1.5" stroke-linejoin="round"/>
<path d="M1.67977 11.2296C1.73424 13.7843 1.76148 15.0615 2.70409 16.0078C3.64669 16.954 4.95857 16.9869 7.58232 17.0528C9.19938 17.0935 10.8005 17.0935 12.4176 17.0528C15.0414 16.9869 16.3532 16.954 17.2959 16.0078C18.2385 15.0615 18.2657 13.7843 18.3201 11.2296C18.3377 10.4082 18.3377 9.59171 18.3201 8.77029C18.2657 6.21568 18.2385 4.93837 17.2959 3.99218C16.3532 3.04599 15.0414 3.01303 12.4176 2.9471C10.8005 2.90647 9.19938 2.90647 7.58231 2.94709C4.95857 3.01301 3.64669 3.04597 2.70408 3.99217C1.76148 4.93836 1.73424 6.21567 1.67976 8.77029C1.66224 9.59171 1.66225 10.4082 1.67977 11.2296Z" stroke="currentColor" stroke-width="1.5" stroke-linejoin="round"/>
</g>
</svg>
