<svg width="32" height="33" viewBox="0 0 32 33" fill="none" xmlns="http://www.w3.org/2000/svg">
<path d="M16 32.5C24.8366 32.5 32 25.3366 32 16.5C32 7.66344 24.8366 0.5 16 0.5C7.16344 0.5 0 7.66344 0 16.5C0 25.3366 7.16344 32.5 16 32.5Z" fill="#627EEA"/>
<path d="M16.4979 4.5V13.37L23.9949 16.72L16.4979 4.5Z" fill="white" fill-opacity="0.602"/>
<path d="M16.498 4.5L9 16.72L16.498 13.37V4.5Z" fill="white"/>
<path d="M16.4979 22.4672V28.4942L23.9999 18.1152L16.4979 22.4672Z" fill="white" fill-opacity="0.602"/>
<path d="M16.498 28.4942V22.4662L9 18.1152L16.498 28.4942Z" fill="white"/>
<path d="M16.4979 21.0721L23.9949 16.7191L16.4979 13.3711V21.0721Z" fill="white" fill-opacity="0.2"/>
<path d="M9 16.7191L16.498 21.0721V13.3711L9 16.7191Z" fill="white" fill-opacity="0.602"/>
</svg>
