<svg width="32" height="33" viewBox="0 0 32 33" fill="none" xmlns="http://www.w3.org/2000/svg">
<path d="M16 32.5C24.8366 32.5 32 25.3366 32 16.5C32 7.66344 24.8366 0.5 16 0.5C7.16344 0.5 0 7.66344 0 16.5C0 25.3366 7.16344 32.5 16 32.5Z" fill="#26A17B"/>
<path fill-rule="evenodd" clip-rule="evenodd" d="M17.9214 17.8824V17.8804C17.8114 17.8884 17.2444 17.9224 15.9794 17.9224C14.9694 17.9224 14.2584 17.8924 14.0084 17.8804V17.8834C10.1204 17.7124 7.21838 17.0354 7.21838 16.2254C7.21838 15.4164 10.1204 14.7394 14.0084 14.5654V17.2094C14.2624 17.2274 14.9904 17.2704 15.9964 17.2704C17.2034 17.2704 17.8084 17.2204 17.9214 17.2104V14.5674C21.8014 14.7404 24.6964 15.4174 24.6964 16.2254C24.6964 17.0354 21.8014 17.7104 17.9214 17.8824ZM17.9214 14.2924V11.9264H23.3354V8.31836H8.59438V11.9264H14.0084V14.2914C9.60838 14.4934 6.29938 15.3654 6.29938 16.4094C6.29938 17.4534 9.60838 18.3244 14.0084 18.5274V26.1094H17.9214V18.5254C22.3144 18.3234 25.6154 17.4524 25.6154 16.4094C25.6154 15.3664 22.3144 14.4954 17.9214 14.2924Z" fill="white"/>
</svg>
