<svg width="44" height="44" viewBox="0 0 44 44" fill="none" xmlns="http://www.w3.org/2000/svg">
<path d="M0 8C0 3.58172 3.58172 0 8 0H36C40.4183 0 44 3.58172 44 8V36C44 40.4183 40.4183 44 36 44H8C3.58172 44 0 40.4183 0 36V8Z" fill="#A06AFF"/>
<path d="M22.0013 18.6665V25.3332M25.3346 21.9998H18.668" stroke="white" stroke-width="1.1" stroke-linecap="round" stroke-linejoin="round"/>
<path d="M30.3346 21.9998C30.3346 17.3975 26.6036 13.6665 22.0013 13.6665C17.3989 13.6665 13.668 17.3975 13.668 21.9998C13.668 26.6022 17.3989 30.3332 22.0013 30.3332C26.6036 30.3332 30.3346 26.6022 30.3346 21.9998Z" stroke="white" stroke-width="1.1"/>
</svg>
