<svg width="21" height="20" viewBox="0 0 21 20" fill="none" xmlns="http://www.w3.org/2000/svg">
<path d="M18 9.3195V6.90032C18 5.53366 18 4.85031 17.6632 4.40449C17.3265 3.95866 16.5651 3.74221 15.0423 3.30933C14.0018 3.01358 13.0847 2.65727 12.3519 2.33199C11.3528 1.8885 10.8533 1.66675 10.5 1.66675C10.1467 1.66675 9.64717 1.8885 8.64809 2.33199C7.91532 2.65727 6.9982 3.01357 5.95778 3.30933C4.43494 3.74221 3.67352 3.95866 3.33676 4.40449C3 4.85031 3 5.53366 3 6.90032V9.3195C3 14.0072 7.21897 16.8197 9.32833 17.9329C9.83425 18.1999 10.0872 18.3334 10.5 18.3334C10.9128 18.3334 11.1657 18.1999 11.6717 17.9329C13.781 16.8197 18 14.0072 18 9.3195Z" stroke="currentColor" stroke-width="1.5" stroke-linecap="round"/>
</svg>
