<svg width="26" height="26" viewBox="0 0 26 26" fill="none" xmlns="http://www.w3.org/2000/svg">
<rect width="26" height="26" rx="8" fill="url(#paint0_linear_1156_14072)"/>
<g clip-path="url(#clip0_1156_14072)">
<path d="M6.33203 16.9997C6.33203 15.9727 6.33203 15.4592 6.56318 15.082C6.69252 14.8709 6.86998 14.6935 7.08105 14.5641C7.45826 14.333 7.97174 14.333 8.9987 14.333C10.0257 14.333 10.5391 14.333 10.9163 14.5641C11.1274 14.6935 11.3049 14.8709 11.4342 15.082C11.6654 15.4592 11.6654 15.9727 11.6654 16.9997C11.6654 18.0266 11.6654 18.5401 11.4342 18.9173C11.3049 19.1284 11.1274 19.3059 10.9163 19.4352C10.5391 19.6663 10.0257 19.6663 8.9987 19.6663C7.97174 19.6663 7.45826 19.6663 7.08105 19.4352C6.86998 19.3059 6.69252 19.1284 6.56318 18.9173C6.33203 18.5401 6.33203 18.0266 6.33203 16.9997Z" stroke="white" stroke-width="1.5"/>
<path d="M14.332 16.9997C14.332 15.9727 14.332 15.4592 14.5632 15.082C14.6925 14.8709 14.87 14.6935 15.081 14.5641C15.4582 14.333 15.9718 14.333 16.9987 14.333C18.0256 14.333 18.5392 14.333 18.9164 14.5641C19.1274 14.6935 19.3049 14.8709 19.4342 15.082C19.6654 15.4592 19.6654 15.9727 19.6654 16.9997C19.6654 18.0266 19.6654 18.5401 19.4342 18.9173C19.3049 19.1284 19.1274 19.3059 18.9164 19.4352C18.5392 19.6663 18.0256 19.6663 16.9987 19.6663C15.9718 19.6663 15.4582 19.6663 15.081 19.4352C14.87 19.3059 14.6925 19.1284 14.5632 18.9173C14.332 18.5401 14.332 18.0266 14.332 16.9997Z" stroke="white" stroke-width="1.5"/>
<path d="M6.33203 8.99967C6.33203 7.97271 6.33203 7.45923 6.56318 7.08203C6.69252 6.87096 6.86998 6.6935 7.08105 6.56416C7.45826 6.33301 7.97174 6.33301 8.9987 6.33301C10.0257 6.33301 10.5391 6.33301 10.9163 6.56416C11.1274 6.6935 11.3049 6.87096 11.4342 7.08203C11.6654 7.45923 11.6654 7.97271 11.6654 8.99967C11.6654 10.0266 11.6654 10.5401 11.4342 10.9173C11.3049 11.1284 11.1274 11.3058 10.9163 11.4352C10.5391 11.6663 10.0257 11.6663 8.9987 11.6663C7.97174 11.6663 7.45826 11.6663 7.08105 11.4352C6.86998 11.3058 6.69252 11.1284 6.56318 10.9173C6.33203 10.5401 6.33203 10.0266 6.33203 8.99967Z" stroke="white" stroke-width="1.5"/>
<path d="M14.332 8.99967C14.332 7.97271 14.332 7.45923 14.5632 7.08203C14.6925 6.87096 14.87 6.6935 15.081 6.56416C15.4582 6.33301 15.9718 6.33301 16.9987 6.33301C18.0256 6.33301 18.5392 6.33301 18.9164 6.56416C19.1274 6.6935 19.3049 6.87096 19.4342 7.08203C19.6654 7.45923 19.6654 7.97271 19.6654 8.99967C19.6654 10.0266 19.6654 10.5401 19.4342 10.9173C19.3049 11.1284 19.1274 11.3058 18.9164 11.4352C18.5392 11.6663 18.0256 11.6663 16.9987 11.6663C15.9718 11.6663 15.4582 11.6663 15.081 11.4352C14.87 11.3058 14.6925 11.1284 14.5632 10.9173C14.332 10.5401 14.332 10.0266 14.332 8.99967Z" stroke="white" stroke-width="1.5"/>
</g>
<defs>
<linearGradient id="paint0_linear_1156_14072" x1="26" y1="13" x2="0" y2="13" gradientUnits="userSpaceOnUse">
<stop stop-color="#A06AFF"/>
<stop offset="1" stop-color="#482090"/>
</linearGradient>
<clipPath id="clip0_1156_14072">
<rect width="16" height="16" fill="white" transform="translate(5 5)"/>
</clipPath>
</defs>
</svg>
