<svg width="44" height="44" viewBox="0 0 44 44" fill="none" xmlns="http://www.w3.org/2000/svg">
<path d="M8 0.5H36C40.1421 0.5 43.5 3.85786 43.5 8V36C43.5 40.1421 40.1421 43.5 36 43.5H8C3.85786 43.5 0.5 40.1421 0.5 36V8C0.5 3.85786 3.85786 0.5 8 0.5Z" fill="none"/>
<path d="M8 0.5H36C40.1421 0.5 43.5 3.85786 43.5 8V36C43.5 40.1421 40.1421 43.5 36 43.5H8C3.85786 43.5 0.5 40.1421 0.5 36V8C0.5 3.85786 3.85786 0.5 8 0.5Z" stroke="#EF454A"/>
<path d="M16.5776 25.4816C15.1628 26.324 11.4534 28.0441 13.7127 30.1966C14.8163 31.248 16.0455 32 17.5909 32H26.4091C27.9545 32 29.1837 31.248 30.2873 30.1966C32.5466 28.0441 28.8372 26.324 27.4224 25.4816C24.1048 23.5061 19.8952 23.5061 16.5776 25.4816Z" stroke="#EF454A" stroke-width="1.5" stroke-linecap="round" stroke-linejoin="round"/>
<path d="M26.5 16.5C26.5 18.9853 24.4853 21 22 21C19.5147 21 17.5 18.9853 17.5 16.5C17.5 14.0147 19.5147 12 22 12C24.4853 12 26.5 14.0147 26.5 16.5Z" stroke="#EF454A" stroke-width="1.5"/>
<path d="M33 16H29" stroke="#EF454A" stroke-width="1.5" stroke-linecap="round" stroke-linejoin="round"/>
</svg>
