<svg width="44" height="44" viewBox="0 0 44 44" fill="none" xmlns="http://www.w3.org/2000/svg">
<path d="M10.3334 29C10.3334 27.2029 10.3334 26.3042 10.7379 25.6441C10.9642 25.2748 11.2748 24.9642 11.6442 24.7379C12.3043 24.3334 13.2029 24.3334 15 24.3334C16.7972 24.3334 17.6958 24.3334 18.3559 24.7379C18.7253 24.9642 19.0358 25.2748 19.2622 25.6441C19.6667 26.3042 19.6667 27.2029 19.6667 29C19.6667 30.7972 19.6667 31.6959 19.2622 32.356C19.0358 32.7253 18.7253 33.0359 18.3559 33.2622C17.6958 33.6667 16.7972 33.6667 15 33.6667C13.2029 33.6667 12.3043 33.6667 11.6442 33.2622C11.2748 33.0359 10.9642 32.7253 10.7379 32.356C10.3334 31.6959 10.3334 30.7972 10.3334 29Z" stroke="currentColor" stroke-width="1.5"/>
<path d="M24.3334 29C24.3334 27.2029 24.3334 26.3042 24.7379 25.6441C24.9642 25.2748 25.2748 24.9642 25.6441 24.7379C26.3042 24.3334 27.2029 24.3334 29 24.3334C30.7972 24.3334 31.6959 24.3334 32.356 24.7379C32.7253 24.9642 33.0359 25.2748 33.2622 25.6441C33.6667 26.3042 33.6667 27.2029 33.6667 29C33.6667 30.7972 33.6667 31.6959 33.2622 32.356C33.0359 32.7253 32.7253 33.0359 32.356 33.2622C31.6959 33.6667 30.7972 33.6667 29 33.6667C27.2029 33.6667 26.3042 33.6667 25.6441 33.2622C25.2748 33.0359 24.9642 32.7253 24.7379 32.356C24.3334 31.6959 24.3334 30.7972 24.3334 29Z" stroke="currentColor" stroke-width="1.5"/>
<path d="M10.3334 15C10.3334 13.2029 10.3334 12.3043 10.7379 11.6442C10.9642 11.2748 11.2748 10.9642 11.6442 10.7379C12.3043 10.3334 13.2029 10.3334 15 10.3334C16.7972 10.3334 17.6958 10.3334 18.3559 10.7379C18.7253 10.9642 19.0358 11.2748 19.2622 11.6442C19.6667 12.3043 19.6667 13.2029 19.6667 15C19.6667 16.7972 19.6667 17.6958 19.2622 18.3559C19.0358 18.7253 18.7253 19.0358 18.3559 19.2622C17.6958 19.6667 16.7972 19.6667 15 19.6667C13.2029 19.6667 12.3043 19.6667 11.6442 19.2622C11.2748 19.0358 10.9642 18.7253 10.7379 18.3559C10.3334 17.6958 10.3334 16.7972 10.3334 15Z" stroke="currentColor" stroke-width="1.5"/>
<path d="M24.3334 15C24.3334 13.2029 24.3334 12.3043 24.7379 11.6442C24.9642 11.2748 25.2748 10.9642 25.6441 10.7379C26.3042 10.3334 27.2029 10.3334 29 10.3334C30.7972 10.3334 31.6959 10.3334 32.356 10.7379C32.7253 10.9642 33.0359 11.2748 33.2622 11.6442C33.6667 12.3043 33.6667 13.2029 33.6667 15C33.6667 16.7972 33.6667 17.6958 33.2622 18.3559C33.0359 18.7253 32.7253 19.0358 32.356 19.2622C31.6959 19.6667 30.7972 19.6667 29 19.6667C27.2029 19.6667 26.3042 19.6667 25.6441 19.2622C25.2748 19.0358 24.9642 18.7253 24.7379 18.3559C24.3334 17.6958 24.3334 16.7972 24.3334 15Z" stroke="currentColor" stroke-width="1.5"/>
</svg>
