<svg  viewBox="0 0 16 16" fill="none" xmlns="http://www.w3.org/2000/svg">
<g clip-path="url(#clip0_4183_986)">
<path d="M1.33203 11.9997C1.33203 10.9727 1.33203 10.4592 1.56318 10.082C1.69252 9.87094 1.86998 9.69347 2.08105 9.56414C2.45826 9.33301 2.97174 9.33301 3.9987 9.33301C5.02566 9.33301 5.53914 9.33301 5.91634 9.56414C6.12741 9.69347 6.30487 9.87094 6.43421 10.082C6.66536 10.4592 6.66536 10.9727 6.66536 11.9997C6.66536 13.0266 6.66536 13.5401 6.43421 13.9173C6.30487 14.1284 6.12741 14.3059 5.91634 14.4352C5.53914 14.6663 5.02566 14.6663 3.9987 14.6663C2.97174 14.6663 2.45826 14.6663 2.08105 14.4352C1.86998 14.3059 1.69252 14.1284 1.56318 13.9173C1.33203 13.5401 1.33203 13.0266 1.33203 11.9997Z" stroke="currentColor" stroke-width="1.5"/>
<path d="M9.33203 11.9997C9.33203 10.9727 9.33203 10.4592 9.56316 10.082C9.6925 9.87094 9.86996 9.69347 10.081 9.56414C10.4582 9.33301 10.9718 9.33301 11.9987 9.33301C13.0256 9.33301 13.5392 9.33301 13.9164 9.56414C14.1274 9.69347 14.3049 9.87094 14.4342 10.082C14.6654 10.4592 14.6654 10.9727 14.6654 11.9997C14.6654 13.0266 14.6654 13.5401 14.4342 13.9173C14.3049 14.1284 14.1274 14.3059 13.9164 14.4352C13.5392 14.6663 13.0256 14.6663 11.9987 14.6663C10.9718 14.6663 10.4582 14.6663 10.081 14.4352C9.86996 14.3059 9.6925 14.1284 9.56316 13.9173C9.33203 13.5401 9.33203 13.0266 9.33203 11.9997Z" stroke="currentColor" stroke-width="1.5"/>
<path d="M1.33203 3.99967C1.33203 2.97271 1.33203 2.45923 1.56318 2.08203C1.69252 1.87096 1.86998 1.6935 2.08105 1.56416C2.45826 1.33301 2.97174 1.33301 3.9987 1.33301C5.02566 1.33301 5.53914 1.33301 5.91634 1.56416C6.12741 1.6935 6.30487 1.87096 6.43421 2.08203C6.66536 2.45923 6.66536 2.97271 6.66536 3.99967C6.66536 5.02663 6.66536 5.54011 6.43421 5.91732C6.30487 6.12839 6.12741 6.30585 5.91634 6.43519C5.53914 6.66634 5.02566 6.66634 3.9987 6.66634C2.97174 6.66634 2.45826 6.66634 2.08105 6.43519C1.86998 6.30585 1.69252 6.12839 1.56318 5.91732C1.33203 5.54011 1.33203 5.02663 1.33203 3.99967Z" stroke="currentColor" stroke-width="1.5"/>
<path d="M9.33203 3.99967C9.33203 2.97271 9.33203 2.45923 9.56316 2.08203C9.6925 1.87096 9.86996 1.6935 10.081 1.56416C10.4582 1.33301 10.9718 1.33301 11.9987 1.33301C13.0256 1.33301 13.5392 1.33301 13.9164 1.56416C14.1274 1.6935 14.3049 1.87096 14.4342 2.08203C14.6654 2.45923 14.6654 2.97271 14.6654 3.99967C14.6654 5.02663 14.6654 5.54011 14.4342 5.91732C14.3049 6.12839 14.1274 6.30585 13.9164 6.43519C13.5392 6.66634 13.0256 6.66634 11.9987 6.66634C10.9718 6.66634 10.4582 6.66634 10.081 6.43519C9.86996 6.30585 9.6925 6.12839 9.56316 5.91732C9.33203 5.54011 9.33203 5.02663 9.33203 3.99967Z" stroke="currentColor" stroke-width="1.5"/>
</g>
<defs>
<clipPath id="clip0_4183_986">
<rect width="16" height="16" fill="white"/>
</clipPath>
</defs>
</svg>
