<svg width="818" height="287" viewBox="0 0 818 287" fill="none" xmlns="http://www.w3.org/2000/svg">
<rect x="7" y="7" width="750" height="2" fill="white" fill-opacity="0.04"/>
<rect x="7" y="57" width="750" height="2" fill="white" fill-opacity="0.04"/>
<rect x="7" y="107" width="750" height="2" fill="white" fill-opacity="0.04"/>
<rect x="7" y="157" width="750" height="2" fill="white" fill-opacity="0.04"/>
<rect x="7" y="207" width="750" height="2" fill="white" fill-opacity="0.08"/>
<rect x="7" y="257" width="750" height="2" fill="white" fill-opacity="0.16"/>
<path opacity="0.48" d="M785.928 262.108C785.272 262.108 784.72 261.94 784.272 261.604C783.824 261.268 783.484 260.78 783.252 260.14C783.02 259.492 782.904 258.7 782.904 257.764C782.904 256.812 783.02 256.016 783.252 255.376C783.484 254.736 783.824 254.252 784.272 253.924C784.72 253.596 785.272 253.432 785.928 253.432C786.592 253.432 787.148 253.596 787.596 253.924C788.044 254.244 788.38 254.724 788.604 255.364C788.836 256.004 788.952 256.8 788.952 257.752C788.952 258.688 788.836 259.48 788.604 260.128C788.372 260.776 788.032 261.268 787.584 261.604C787.136 261.94 786.584 262.108 785.928 262.108ZM785.928 261.076C786.544 261.076 786.996 260.808 787.284 260.272C787.58 259.736 787.728 258.896 787.728 257.752C787.728 256.608 787.58 255.776 787.284 255.256C786.996 254.728 786.544 254.464 785.928 254.464C785.32 254.464 784.868 254.728 784.572 255.256C784.276 255.776 784.128 256.608 784.128 257.752C784.128 258.896 784.276 259.736 784.572 260.272C784.868 260.808 785.32 261.076 785.928 261.076ZM790.231 262V260.572H791.659V262H790.231ZM795.971 262.108C795.315 262.108 794.763 261.94 794.315 261.604C793.867 261.268 793.527 260.78 793.295 260.14C793.063 259.492 792.947 258.7 792.947 257.764C792.947 256.812 793.063 256.016 793.295 255.376C793.527 254.736 793.867 254.252 794.315 253.924C794.763 253.596 795.315 253.432 795.971 253.432C796.635 253.432 797.191 253.596 797.639 253.924C798.087 254.244 798.423 254.724 798.647 255.364C798.879 256.004 798.995 256.8 798.995 257.752C798.995 258.688 798.879 259.48 798.647 260.128C798.415 260.776 798.075 261.268 797.627 261.604C797.179 261.94 796.627 262.108 795.971 262.108ZM795.971 261.076C796.587 261.076 797.039 260.808 797.327 260.272C797.623 259.736 797.771 258.896 797.771 257.752C797.771 256.608 797.623 255.776 797.327 255.256C797.039 254.728 796.587 254.464 795.971 254.464C795.363 254.464 794.911 254.728 794.615 255.256C794.319 255.776 794.171 256.608 794.171 257.752C794.171 258.896 794.319 259.736 794.615 260.272C794.911 260.808 795.363 261.076 795.971 261.076ZM803.166 262.108C802.51 262.108 801.958 261.94 801.51 261.604C801.062 261.268 800.722 260.78 800.49 260.14C800.258 259.492 800.142 258.7 800.142 257.764C800.142 256.812 800.258 256.016 800.49 255.376C800.722 254.736 801.062 254.252 801.51 253.924C801.958 253.596 802.51 253.432 803.166 253.432C803.83 253.432 804.386 253.596 804.834 253.924C805.282 254.244 805.618 254.724 805.842 255.364C806.074 256.004 806.19 256.8 806.19 257.752C806.19 258.688 806.074 259.48 805.842 260.128C805.61 260.776 805.27 261.268 804.822 261.604C804.374 261.94 803.822 262.108 803.166 262.108ZM803.166 261.076C803.782 261.076 804.234 260.808 804.522 260.272C804.818 259.736 804.966 258.896 804.966 257.752C804.966 256.608 804.818 255.776 804.522 255.256C804.234 254.728 803.782 254.464 803.166 254.464C802.558 254.464 802.106 254.728 801.81 255.256C801.514 255.776 801.366 256.608 801.366 257.752C801.366 258.896 801.514 259.736 801.81 260.272C802.106 260.808 802.558 261.076 803.166 261.076ZM810.314 262.312L809.498 261.832L814.454 253.228L815.27 253.708L810.314 262.312ZM809.45 258.604C809.018 258.604 808.642 258.5 808.322 258.292C808.01 258.084 807.77 257.788 807.602 257.404C807.442 257.012 807.362 256.548 807.362 256.012C807.362 255.204 807.546 254.572 807.914 254.116C808.29 253.66 808.802 253.432 809.45 253.432C809.882 253.432 810.254 253.536 810.566 253.744C810.878 253.944 811.118 254.236 811.286 254.62C811.454 255.004 811.538 255.468 811.538 256.012C811.538 256.548 811.454 257.012 811.286 257.404C811.126 257.788 810.89 258.084 810.578 258.292C810.266 258.5 809.89 258.604 809.45 258.604ZM809.45 257.752C809.786 257.752 810.046 257.608 810.23 257.32C810.422 257.032 810.518 256.596 810.518 256.012C810.518 255.428 810.422 254.992 810.23 254.704C810.046 254.416 809.786 254.272 809.45 254.272C809.114 254.272 808.85 254.416 808.658 254.704C808.474 254.984 808.382 255.42 808.382 256.012C808.382 256.604 808.474 257.044 808.658 257.332C808.85 257.612 809.114 257.752 809.45 257.752ZM815.318 262.108C814.886 262.108 814.514 262.008 814.202 261.808C813.89 261.6 813.65 261.304 813.482 260.92C813.322 260.528 813.242 260.06 813.242 259.516C813.242 258.716 813.426 258.088 813.794 257.632C814.162 257.168 814.67 256.936 815.318 256.936C815.758 256.936 816.134 257.04 816.446 257.248C816.758 257.456 816.994 257.752 817.154 258.136C817.322 258.52 817.406 258.98 817.406 259.516C817.406 260.06 817.322 260.528 817.154 260.92C816.994 261.304 816.758 261.6 816.446 261.808C816.134 262.008 815.758 262.108 815.318 262.108ZM815.318 261.268C815.654 261.268 815.914 261.124 816.098 260.836C816.29 260.54 816.386 260.1 816.386 259.516C816.386 258.94 816.29 258.508 816.098 258.22C815.914 257.932 815.654 257.788 815.318 257.788C814.99 257.788 814.73 257.932 814.538 258.22C814.346 258.5 814.25 258.932 814.25 259.516C814.25 260.108 814.346 260.548 814.538 260.836C814.73 261.124 814.99 261.268 815.318 261.268Z" fill="white"/>
<path opacity="0.48" d="M776.153 212V211.076L778.973 208.052C779.237 207.764 779.449 207.5 779.609 207.26C779.769 207.012 779.885 206.776 779.957 206.552C780.037 206.32 780.077 206.088 780.077 205.856C780.077 205.408 779.941 205.068 779.669 204.836C779.397 204.604 778.997 204.488 778.469 204.488C778.061 204.488 777.673 204.564 777.305 204.716C776.945 204.868 776.601 205.1 776.273 205.412L775.829 204.464C776.149 204.152 776.557 203.904 777.053 203.72C777.549 203.528 778.065 203.432 778.601 203.432C779.185 203.432 779.677 203.524 780.077 203.708C780.485 203.884 780.793 204.144 781.001 204.488C781.209 204.832 781.313 205.252 781.313 205.748C781.313 206.004 781.281 206.256 781.217 206.504C781.161 206.744 781.069 206.984 780.941 207.224C780.821 207.464 780.665 207.712 780.473 207.968C780.289 208.224 780.065 208.488 779.801 208.76L777.389 211.304V210.956H781.649V212H776.153ZM785.928 212.108C785.272 212.108 784.72 211.94 784.272 211.604C783.824 211.268 783.484 210.78 783.252 210.14C783.02 209.492 782.904 208.7 782.904 207.764C782.904 206.812 783.02 206.016 783.252 205.376C783.484 204.736 783.824 204.252 784.272 203.924C784.72 203.596 785.272 203.432 785.928 203.432C786.592 203.432 787.148 203.596 787.596 203.924C788.044 204.244 788.38 204.724 788.604 205.364C788.836 206.004 788.952 206.8 788.952 207.752C788.952 208.688 788.836 209.48 788.604 210.128C788.372 210.776 788.032 211.268 787.584 211.604C787.136 211.94 786.584 212.108 785.928 212.108ZM785.928 211.076C786.544 211.076 786.996 210.808 787.284 210.272C787.58 209.736 787.728 208.896 787.728 207.752C787.728 206.608 787.58 205.776 787.284 205.256C786.996 204.728 786.544 204.464 785.928 204.464C785.32 204.464 784.868 204.728 784.572 205.256C784.276 205.776 784.128 206.608 784.128 207.752C784.128 208.896 784.276 209.736 784.572 210.272C784.868 210.808 785.32 211.076 785.928 211.076ZM790.231 212V210.572H791.659V212H790.231ZM795.971 212.108C795.315 212.108 794.763 211.94 794.315 211.604C793.867 211.268 793.527 210.78 793.295 210.14C793.063 209.492 792.947 208.7 792.947 207.764C792.947 206.812 793.063 206.016 793.295 205.376C793.527 204.736 793.867 204.252 794.315 203.924C794.763 203.596 795.315 203.432 795.971 203.432C796.635 203.432 797.191 203.596 797.639 203.924C798.087 204.244 798.423 204.724 798.647 205.364C798.879 206.004 798.995 206.8 798.995 207.752C798.995 208.688 798.879 209.48 798.647 210.128C798.415 210.776 798.075 211.268 797.627 211.604C797.179 211.94 796.627 212.108 795.971 212.108ZM795.971 211.076C796.587 211.076 797.039 210.808 797.327 210.272C797.623 209.736 797.771 208.896 797.771 207.752C797.771 206.608 797.623 205.776 797.327 205.256C797.039 204.728 796.587 204.464 795.971 204.464C795.363 204.464 794.911 204.728 794.615 205.256C794.319 205.776 794.171 206.608 794.171 207.752C794.171 208.896 794.319 209.736 794.615 210.272C794.911 210.808 795.363 211.076 795.971 211.076ZM803.166 212.108C802.51 212.108 801.958 211.94 801.51 211.604C801.062 211.268 800.722 210.78 800.49 210.14C800.258 209.492 800.142 208.7 800.142 207.764C800.142 206.812 800.258 206.016 800.49 205.376C800.722 204.736 801.062 204.252 801.51 203.924C801.958 203.596 802.51 203.432 803.166 203.432C803.83 203.432 804.386 203.596 804.834 203.924C805.282 204.244 805.618 204.724 805.842 205.364C806.074 206.004 806.19 206.8 806.19 207.752C806.19 208.688 806.074 209.48 805.842 210.128C805.61 210.776 805.27 211.268 804.822 211.604C804.374 211.94 803.822 212.108 803.166 212.108ZM803.166 211.076C803.782 211.076 804.234 210.808 804.522 210.272C804.818 209.736 804.966 208.896 804.966 207.752C804.966 206.608 804.818 205.776 804.522 205.256C804.234 204.728 803.782 204.464 803.166 204.464C802.558 204.464 802.106 204.728 801.81 205.256C801.514 205.776 801.366 206.608 801.366 207.752C801.366 208.896 801.514 209.736 801.81 210.272C802.106 210.808 802.558 211.076 803.166 211.076ZM810.314 212.312L809.498 211.832L814.454 203.228L815.27 203.708L810.314 212.312ZM809.45 208.604C809.018 208.604 808.642 208.5 808.322 208.292C808.01 208.084 807.77 207.788 807.602 207.404C807.442 207.012 807.362 206.548 807.362 206.012C807.362 205.204 807.546 204.572 807.914 204.116C808.29 203.66 808.802 203.432 809.45 203.432C809.882 203.432 810.254 203.536 810.566 203.744C810.878 203.944 811.118 204.236 811.286 204.62C811.454 205.004 811.538 205.468 811.538 206.012C811.538 206.548 811.454 207.012 811.286 207.404C811.126 207.788 810.89 208.084 810.578 208.292C810.266 208.5 809.89 208.604 809.45 208.604ZM809.45 207.752C809.786 207.752 810.046 207.608 810.23 207.32C810.422 207.032 810.518 206.596 810.518 206.012C810.518 205.428 810.422 204.992 810.23 204.704C810.046 204.416 809.786 204.272 809.45 204.272C809.114 204.272 808.85 204.416 808.658 204.704C808.474 204.984 808.382 205.42 808.382 206.012C808.382 206.604 808.474 207.044 808.658 207.332C808.85 207.612 809.114 207.752 809.45 207.752ZM815.318 212.108C814.886 212.108 814.514 212.008 814.202 211.808C813.89 211.6 813.65 211.304 813.482 210.92C813.322 210.528 813.242 210.06 813.242 209.516C813.242 208.716 813.426 208.088 813.794 207.632C814.162 207.168 814.67 206.936 815.318 206.936C815.758 206.936 816.134 207.04 816.446 207.248C816.758 207.456 816.994 207.752 817.154 208.136C817.322 208.52 817.406 208.98 817.406 209.516C817.406 210.06 817.322 210.528 817.154 210.92C816.994 211.304 816.758 211.6 816.446 211.808C816.134 212.008 815.758 212.108 815.318 212.108ZM815.318 211.268C815.654 211.268 815.914 211.124 816.098 210.836C816.29 210.54 816.386 210.1 816.386 209.516C816.386 208.94 816.29 208.508 816.098 208.22C815.914 207.932 815.654 207.788 815.318 207.788C814.99 207.788 814.73 207.932 814.538 208.22C814.346 208.5 814.25 208.932 814.25 209.516C814.25 210.108 814.346 210.548 814.538 210.836C814.73 211.124 814.99 211.268 815.318 211.268Z" fill="white"/>
<path opacity="0.48" d="M779.501 162V160.284H775.697V159.36L779.717 153.54H780.737V159.24H781.973V160.284H780.737V162H779.501ZM779.501 159.24V155.028H779.825L776.705 159.576V159.24H779.501ZM785.928 162.108C785.272 162.108 784.72 161.94 784.272 161.604C783.824 161.268 783.484 160.78 783.252 160.14C783.02 159.492 782.904 158.7 782.904 157.764C782.904 156.812 783.02 156.016 783.252 155.376C783.484 154.736 783.824 154.252 784.272 153.924C784.72 153.596 785.272 153.432 785.928 153.432C786.592 153.432 787.148 153.596 787.596 153.924C788.044 154.244 788.38 154.724 788.604 155.364C788.836 156.004 788.952 156.8 788.952 157.752C788.952 158.688 788.836 159.48 788.604 160.128C788.372 160.776 788.032 161.268 787.584 161.604C787.136 161.94 786.584 162.108 785.928 162.108ZM785.928 161.076C786.544 161.076 786.996 160.808 787.284 160.272C787.58 159.736 787.728 158.896 787.728 157.752C787.728 156.608 787.58 155.776 787.284 155.256C786.996 154.728 786.544 154.464 785.928 154.464C785.32 154.464 784.868 154.728 784.572 155.256C784.276 155.776 784.128 156.608 784.128 157.752C784.128 158.896 784.276 159.736 784.572 160.272C784.868 160.808 785.32 161.076 785.928 161.076ZM790.231 162V160.572H791.659V162H790.231ZM795.971 162.108C795.315 162.108 794.763 161.94 794.315 161.604C793.867 161.268 793.527 160.78 793.295 160.14C793.063 159.492 792.947 158.7 792.947 157.764C792.947 156.812 793.063 156.016 793.295 155.376C793.527 154.736 793.867 154.252 794.315 153.924C794.763 153.596 795.315 153.432 795.971 153.432C796.635 153.432 797.191 153.596 797.639 153.924C798.087 154.244 798.423 154.724 798.647 155.364C798.879 156.004 798.995 156.8 798.995 157.752C798.995 158.688 798.879 159.48 798.647 160.128C798.415 160.776 798.075 161.268 797.627 161.604C797.179 161.94 796.627 162.108 795.971 162.108ZM795.971 161.076C796.587 161.076 797.039 160.808 797.327 160.272C797.623 159.736 797.771 158.896 797.771 157.752C797.771 156.608 797.623 155.776 797.327 155.256C797.039 154.728 796.587 154.464 795.971 154.464C795.363 154.464 794.911 154.728 794.615 155.256C794.319 155.776 794.171 156.608 794.171 157.752C794.171 158.896 794.319 159.736 794.615 160.272C794.911 160.808 795.363 161.076 795.971 161.076ZM803.166 162.108C802.51 162.108 801.958 161.94 801.51 161.604C801.062 161.268 800.722 160.78 800.49 160.14C800.258 159.492 800.142 158.7 800.142 157.764C800.142 156.812 800.258 156.016 800.49 155.376C800.722 154.736 801.062 154.252 801.51 153.924C801.958 153.596 802.51 153.432 803.166 153.432C803.83 153.432 804.386 153.596 804.834 153.924C805.282 154.244 805.618 154.724 805.842 155.364C806.074 156.004 806.19 156.8 806.19 157.752C806.19 158.688 806.074 159.48 805.842 160.128C805.61 160.776 805.27 161.268 804.822 161.604C804.374 161.94 803.822 162.108 803.166 162.108ZM803.166 161.076C803.782 161.076 804.234 160.808 804.522 160.272C804.818 159.736 804.966 158.896 804.966 157.752C804.966 156.608 804.818 155.776 804.522 155.256C804.234 154.728 803.782 154.464 803.166 154.464C802.558 154.464 802.106 154.728 801.81 155.256C801.514 155.776 801.366 156.608 801.366 157.752C801.366 158.896 801.514 159.736 801.81 160.272C802.106 160.808 802.558 161.076 803.166 161.076ZM810.314 162.312L809.498 161.832L814.454 153.228L815.27 153.708L810.314 162.312ZM809.45 158.604C809.018 158.604 808.642 158.5 808.322 158.292C808.01 158.084 807.77 157.788 807.602 157.404C807.442 157.012 807.362 156.548 807.362 156.012C807.362 155.204 807.546 154.572 807.914 154.116C808.29 153.66 808.802 153.432 809.45 153.432C809.882 153.432 810.254 153.536 810.566 153.744C810.878 153.944 811.118 154.236 811.286 154.62C811.454 155.004 811.538 155.468 811.538 156.012C811.538 156.548 811.454 157.012 811.286 157.404C811.126 157.788 810.89 158.084 810.578 158.292C810.266 158.5 809.89 158.604 809.45 158.604ZM809.45 157.752C809.786 157.752 810.046 157.608 810.23 157.32C810.422 157.032 810.518 156.596 810.518 156.012C810.518 155.428 810.422 154.992 810.23 154.704C810.046 154.416 809.786 154.272 809.45 154.272C809.114 154.272 808.85 154.416 808.658 154.704C808.474 154.984 808.382 155.42 808.382 156.012C808.382 156.604 808.474 157.044 808.658 157.332C808.85 157.612 809.114 157.752 809.45 157.752ZM815.318 162.108C814.886 162.108 814.514 162.008 814.202 161.808C813.89 161.6 813.65 161.304 813.482 160.92C813.322 160.528 813.242 160.06 813.242 159.516C813.242 158.716 813.426 158.088 813.794 157.632C814.162 157.168 814.67 156.936 815.318 156.936C815.758 156.936 816.134 157.04 816.446 157.248C816.758 157.456 816.994 157.752 817.154 158.136C817.322 158.52 817.406 158.98 817.406 159.516C817.406 160.06 817.322 160.528 817.154 160.92C816.994 161.304 816.758 161.6 816.446 161.808C816.134 162.008 815.758 162.108 815.318 162.108ZM815.318 161.268C815.654 161.268 815.914 161.124 816.098 160.836C816.29 160.54 816.386 160.1 816.386 159.516C816.386 158.94 816.29 158.508 816.098 158.22C815.914 157.932 815.654 157.788 815.318 157.788C814.99 157.788 814.73 157.932 814.538 158.22C814.346 158.5 814.25 158.932 814.25 159.516C814.25 160.108 814.346 160.548 814.538 160.836C814.73 161.124 814.99 161.268 815.318 161.268Z" fill="white"/>
<path opacity="0.48" d="M779.033 112.108C778.353 112.108 777.773 111.944 777.293 111.616C776.821 111.288 776.457 110.816 776.201 110.2C775.953 109.576 775.829 108.828 775.829 107.956C775.829 106.98 775.969 106.16 776.249 105.496C776.529 104.824 776.933 104.312 777.461 103.96C777.989 103.608 778.621 103.432 779.357 103.432C779.645 103.432 779.937 103.472 780.233 103.552C780.529 103.632 780.809 103.744 781.073 103.888C781.345 104.032 781.577 104.208 781.769 104.416L781.337 105.352C781.041 105.064 780.721 104.848 780.377 104.704C780.041 104.56 779.693 104.488 779.333 104.488C778.957 104.488 778.625 104.556 778.337 104.692C778.057 104.828 777.817 105.032 777.617 105.304C777.425 105.576 777.277 105.912 777.173 106.312C777.077 106.712 777.029 107.18 777.029 107.716V108.736H776.897C776.953 108.304 777.085 107.932 777.293 107.62C777.509 107.3 777.785 107.056 778.121 106.888C778.457 106.72 778.829 106.636 779.237 106.636C779.733 106.636 780.169 106.752 780.545 106.984C780.929 107.208 781.229 107.524 781.445 107.932C781.661 108.34 781.769 108.804 781.769 109.324C781.769 109.86 781.653 110.34 781.421 110.764C781.189 111.188 780.865 111.52 780.449 111.76C780.041 111.992 779.569 112.108 779.033 112.108ZM778.961 111.1C779.289 111.1 779.577 111.028 779.825 110.884C780.073 110.74 780.265 110.54 780.401 110.284C780.537 110.02 780.605 109.716 780.605 109.372C780.605 109.028 780.537 108.728 780.401 108.472C780.265 108.216 780.073 108.016 779.825 107.872C779.577 107.72 779.289 107.644 778.961 107.644C778.633 107.644 778.345 107.72 778.097 107.872C777.857 108.016 777.665 108.216 777.521 108.472C777.385 108.728 777.317 109.028 777.317 109.372C777.317 109.716 777.385 110.02 777.521 110.284C777.665 110.54 777.861 110.74 778.109 110.884C778.357 111.028 778.641 111.1 778.961 111.1ZM785.928 112.108C785.272 112.108 784.72 111.94 784.272 111.604C783.824 111.268 783.484 110.78 783.252 110.14C783.02 109.492 782.904 108.7 782.904 107.764C782.904 106.812 783.02 106.016 783.252 105.376C783.484 104.736 783.824 104.252 784.272 103.924C784.72 103.596 785.272 103.432 785.928 103.432C786.592 103.432 787.148 103.596 787.596 103.924C788.044 104.244 788.38 104.724 788.604 105.364C788.836 106.004 788.952 106.8 788.952 107.752C788.952 108.688 788.836 109.48 788.604 110.128C788.372 110.776 788.032 111.268 787.584 111.604C787.136 111.94 786.584 112.108 785.928 112.108ZM785.928 111.076C786.544 111.076 786.996 110.808 787.284 110.272C787.58 109.736 787.728 108.896 787.728 107.752C787.728 106.608 787.58 105.776 787.284 105.256C786.996 104.728 786.544 104.464 785.928 104.464C785.32 104.464 784.868 104.728 784.572 105.256C784.276 105.776 784.128 106.608 784.128 107.752C784.128 108.896 784.276 109.736 784.572 110.272C784.868 110.808 785.32 111.076 785.928 111.076ZM790.231 112V110.572H791.659V112H790.231ZM795.971 112.108C795.315 112.108 794.763 111.94 794.315 111.604C793.867 111.268 793.527 110.78 793.295 110.14C793.063 109.492 792.947 108.7 792.947 107.764C792.947 106.812 793.063 106.016 793.295 105.376C793.527 104.736 793.867 104.252 794.315 103.924C794.763 103.596 795.315 103.432 795.971 103.432C796.635 103.432 797.191 103.596 797.639 103.924C798.087 104.244 798.423 104.724 798.647 105.364C798.879 106.004 798.995 106.8 798.995 107.752C798.995 108.688 798.879 109.48 798.647 110.128C798.415 110.776 798.075 111.268 797.627 111.604C797.179 111.94 796.627 112.108 795.971 112.108ZM795.971 111.076C796.587 111.076 797.039 110.808 797.327 110.272C797.623 109.736 797.771 108.896 797.771 107.752C797.771 106.608 797.623 105.776 797.327 105.256C797.039 104.728 796.587 104.464 795.971 104.464C795.363 104.464 794.911 104.728 794.615 105.256C794.319 105.776 794.171 106.608 794.171 107.752C794.171 108.896 794.319 109.736 794.615 110.272C794.911 110.808 795.363 111.076 795.971 111.076ZM803.166 112.108C802.51 112.108 801.958 111.94 801.51 111.604C801.062 111.268 800.722 110.78 800.49 110.14C800.258 109.492 800.142 108.7 800.142 107.764C800.142 106.812 800.258 106.016 800.49 105.376C800.722 104.736 801.062 104.252 801.51 103.924C801.958 103.596 802.51 103.432 803.166 103.432C803.83 103.432 804.386 103.596 804.834 103.924C805.282 104.244 805.618 104.724 805.842 105.364C806.074 106.004 806.19 106.8 806.19 107.752C806.19 108.688 806.074 109.48 805.842 110.128C805.61 110.776 805.27 111.268 804.822 111.604C804.374 111.94 803.822 112.108 803.166 112.108ZM803.166 111.076C803.782 111.076 804.234 110.808 804.522 110.272C804.818 109.736 804.966 108.896 804.966 107.752C804.966 106.608 804.818 105.776 804.522 105.256C804.234 104.728 803.782 104.464 803.166 104.464C802.558 104.464 802.106 104.728 801.81 105.256C801.514 105.776 801.366 106.608 801.366 107.752C801.366 108.896 801.514 109.736 801.81 110.272C802.106 110.808 802.558 111.076 803.166 111.076ZM810.314 112.312L809.498 111.832L814.454 103.228L815.27 103.708L810.314 112.312ZM809.45 108.604C809.018 108.604 808.642 108.5 808.322 108.292C808.01 108.084 807.77 107.788 807.602 107.404C807.442 107.012 807.362 106.548 807.362 106.012C807.362 105.204 807.546 104.572 807.914 104.116C808.29 103.66 808.802 103.432 809.45 103.432C809.882 103.432 810.254 103.536 810.566 103.744C810.878 103.944 811.118 104.236 811.286 104.62C811.454 105.004 811.538 105.468 811.538 106.012C811.538 106.548 811.454 107.012 811.286 107.404C811.126 107.788 810.89 108.084 810.578 108.292C810.266 108.5 809.89 108.604 809.45 108.604ZM809.45 107.752C809.786 107.752 810.046 107.608 810.23 107.32C810.422 107.032 810.518 106.596 810.518 106.012C810.518 105.428 810.422 104.992 810.23 104.704C810.046 104.416 809.786 104.272 809.45 104.272C809.114 104.272 808.85 104.416 808.658 104.704C808.474 104.984 808.382 105.42 808.382 106.012C808.382 106.604 808.474 107.044 808.658 107.332C808.85 107.612 809.114 107.752 809.45 107.752ZM815.318 112.108C814.886 112.108 814.514 112.008 814.202 111.808C813.89 111.6 813.65 111.304 813.482 110.92C813.322 110.528 813.242 110.06 813.242 109.516C813.242 108.716 813.426 108.088 813.794 107.632C814.162 107.168 814.67 106.936 815.318 106.936C815.758 106.936 816.134 107.04 816.446 107.248C816.758 107.456 816.994 107.752 817.154 108.136C817.322 108.52 817.406 108.98 817.406 109.516C817.406 110.06 817.322 110.528 817.154 110.92C816.994 111.304 816.758 111.6 816.446 111.808C816.134 112.008 815.758 112.108 815.318 112.108ZM815.318 111.268C815.654 111.268 815.914 111.124 816.098 110.836C816.29 110.54 816.386 110.1 816.386 109.516C816.386 108.94 816.29 108.508 816.098 108.22C815.914 107.932 815.654 107.788 815.318 107.788C814.99 107.788 814.73 107.932 814.538 108.22C814.346 108.5 814.25 108.932 814.25 109.516C814.25 110.108 814.346 110.548 814.538 110.836C814.73 111.124 814.99 111.268 815.318 111.268Z" fill="white"/>
<path opacity="0.48" d="M778.733 62.108C777.765 62.108 777.009 61.9 776.465 61.484C775.929 61.068 775.661 60.488 775.661 59.744C775.661 59.344 775.741 58.992 775.901 58.688C776.061 58.376 776.285 58.124 776.573 57.932C776.861 57.74 777.193 57.62 777.569 57.572V57.788C777.225 57.716 776.925 57.584 776.669 57.392C776.413 57.192 776.213 56.948 776.069 56.66C775.933 56.364 775.865 56.04 775.865 55.688C775.865 54.984 776.125 54.432 776.645 54.032C777.165 53.632 777.861 53.432 778.733 53.432C779.613 53.432 780.313 53.632 780.833 54.032C781.353 54.432 781.613 54.984 781.613 55.688C781.613 56.04 781.541 56.364 781.397 56.66C781.261 56.948 781.065 57.192 780.809 57.392C780.553 57.584 780.253 57.712 779.909 57.776V57.572C780.293 57.62 780.625 57.744 780.905 57.944C781.185 58.136 781.405 58.384 781.565 58.688C781.725 58.992 781.805 59.344 781.805 59.744C781.805 60.488 781.533 61.068 780.989 61.484C780.453 61.9 779.701 62.108 778.733 62.108ZM778.733 61.124C779.365 61.124 779.841 61.004 780.161 60.764C780.481 60.516 780.641 60.148 780.641 59.66C780.641 59.172 780.481 58.808 780.161 58.568C779.841 58.328 779.365 58.208 778.733 58.208C778.109 58.208 777.633 58.328 777.305 58.568C776.985 58.808 776.825 59.172 776.825 59.66C776.825 60.148 776.985 60.516 777.305 60.764C777.633 61.004 778.109 61.124 778.733 61.124ZM778.733 57.224C779.269 57.224 779.685 57.1 779.981 56.852C780.285 56.596 780.437 56.248 780.437 55.808C780.437 55.376 780.285 55.036 779.981 54.788C779.685 54.54 779.269 54.416 778.733 54.416C778.197 54.416 777.781 54.54 777.485 54.788C777.189 55.036 777.041 55.376 777.041 55.808C777.041 56.248 777.189 56.596 777.485 56.852C777.781 57.1 778.197 57.224 778.733 57.224ZM785.928 62.108C785.272 62.108 784.72 61.94 784.272 61.604C783.824 61.268 783.484 60.78 783.252 60.14C783.02 59.492 782.904 58.7 782.904 57.764C782.904 56.812 783.02 56.016 783.252 55.376C783.484 54.736 783.824 54.252 784.272 53.924C784.72 53.596 785.272 53.432 785.928 53.432C786.592 53.432 787.148 53.596 787.596 53.924C788.044 54.244 788.38 54.724 788.604 55.364C788.836 56.004 788.952 56.8 788.952 57.752C788.952 58.688 788.836 59.48 788.604 60.128C788.372 60.776 788.032 61.268 787.584 61.604C787.136 61.94 786.584 62.108 785.928 62.108ZM785.928 61.076C786.544 61.076 786.996 60.808 787.284 60.272C787.58 59.736 787.728 58.896 787.728 57.752C787.728 56.608 787.58 55.776 787.284 55.256C786.996 54.728 786.544 54.464 785.928 54.464C785.32 54.464 784.868 54.728 784.572 55.256C784.276 55.776 784.128 56.608 784.128 57.752C784.128 58.896 784.276 59.736 784.572 60.272C784.868 60.808 785.32 61.076 785.928 61.076ZM790.231 62V60.572H791.659V62H790.231ZM795.971 62.108C795.315 62.108 794.763 61.94 794.315 61.604C793.867 61.268 793.527 60.78 793.295 60.14C793.063 59.492 792.947 58.7 792.947 57.764C792.947 56.812 793.063 56.016 793.295 55.376C793.527 54.736 793.867 54.252 794.315 53.924C794.763 53.596 795.315 53.432 795.971 53.432C796.635 53.432 797.191 53.596 797.639 53.924C798.087 54.244 798.423 54.724 798.647 55.364C798.879 56.004 798.995 56.8 798.995 57.752C798.995 58.688 798.879 59.48 798.647 60.128C798.415 60.776 798.075 61.268 797.627 61.604C797.179 61.94 796.627 62.108 795.971 62.108ZM795.971 61.076C796.587 61.076 797.039 60.808 797.327 60.272C797.623 59.736 797.771 58.896 797.771 57.752C797.771 56.608 797.623 55.776 797.327 55.256C797.039 54.728 796.587 54.464 795.971 54.464C795.363 54.464 794.911 54.728 794.615 55.256C794.319 55.776 794.171 56.608 794.171 57.752C794.171 58.896 794.319 59.736 794.615 60.272C794.911 60.808 795.363 61.076 795.971 61.076ZM803.166 62.108C802.51 62.108 801.958 61.94 801.51 61.604C801.062 61.268 800.722 60.78 800.49 60.14C800.258 59.492 800.142 58.7 800.142 57.764C800.142 56.812 800.258 56.016 800.49 55.376C800.722 54.736 801.062 54.252 801.51 53.924C801.958 53.596 802.51 53.432 803.166 53.432C803.83 53.432 804.386 53.596 804.834 53.924C805.282 54.244 805.618 54.724 805.842 55.364C806.074 56.004 806.19 56.8 806.19 57.752C806.19 58.688 806.074 59.48 805.842 60.128C805.61 60.776 805.27 61.268 804.822 61.604C804.374 61.94 803.822 62.108 803.166 62.108ZM803.166 61.076C803.782 61.076 804.234 60.808 804.522 60.272C804.818 59.736 804.966 58.896 804.966 57.752C804.966 56.608 804.818 55.776 804.522 55.256C804.234 54.728 803.782 54.464 803.166 54.464C802.558 54.464 802.106 54.728 801.81 55.256C801.514 55.776 801.366 56.608 801.366 57.752C801.366 58.896 801.514 59.736 801.81 60.272C802.106 60.808 802.558 61.076 803.166 61.076ZM810.314 62.312L809.498 61.832L814.454 53.228L815.27 53.708L810.314 62.312ZM809.45 58.604C809.018 58.604 808.642 58.5 808.322 58.292C808.01 58.084 807.77 57.788 807.602 57.404C807.442 57.012 807.362 56.548 807.362 56.012C807.362 55.204 807.546 54.572 807.914 54.116C808.29 53.66 808.802 53.432 809.45 53.432C809.882 53.432 810.254 53.536 810.566 53.744C810.878 53.944 811.118 54.236 811.286 54.62C811.454 55.004 811.538 55.468 811.538 56.012C811.538 56.548 811.454 57.012 811.286 57.404C811.126 57.788 810.89 58.084 810.578 58.292C810.266 58.5 809.89 58.604 809.45 58.604ZM809.45 57.752C809.786 57.752 810.046 57.608 810.23 57.32C810.422 57.032 810.518 56.596 810.518 56.012C810.518 55.428 810.422 54.992 810.23 54.704C810.046 54.416 809.786 54.272 809.45 54.272C809.114 54.272 808.85 54.416 808.658 54.704C808.474 54.984 808.382 55.42 808.382 56.012C808.382 56.604 808.474 57.044 808.658 57.332C808.85 57.612 809.114 57.752 809.45 57.752ZM815.318 62.108C814.886 62.108 814.514 62.008 814.202 61.808C813.89 61.6 813.65 61.304 813.482 60.92C813.322 60.528 813.242 60.06 813.242 59.516C813.242 58.716 813.426 58.088 813.794 57.632C814.162 57.168 814.67 56.936 815.318 56.936C815.758 56.936 816.134 57.04 816.446 57.248C816.758 57.456 816.994 57.752 817.154 58.136C817.322 58.52 817.406 58.98 817.406 59.516C817.406 60.06 817.322 60.528 817.154 60.92C816.994 61.304 816.758 61.6 816.446 61.808C816.134 62.008 815.758 62.108 815.318 62.108ZM815.318 61.268C815.654 61.268 815.914 61.124 816.098 60.836C816.29 60.54 816.386 60.1 816.386 59.516C816.386 58.94 816.29 58.508 816.098 58.22C815.914 57.932 815.654 57.788 815.318 57.788C814.99 57.788 814.73 57.932 814.538 58.22C814.346 58.5 814.25 58.932 814.25 59.516C814.25 60.108 814.346 60.548 814.538 60.836C814.73 61.124 814.99 61.268 815.318 61.268Z" fill="white"/>
<path opacity="0.48" d="M769.342 12V10.956H771.262V4.596H771.886L769.762 5.916L769.258 4.992L771.622 3.54H772.498V10.956H774.298V12H769.342ZM778.733 12.108C778.077 12.108 777.525 11.94 777.077 11.604C776.629 11.268 776.289 10.78 776.057 10.14C775.825 9.492 775.709 8.7 775.709 7.764C775.709 6.812 775.825 6.016 776.057 5.376C776.289 4.736 776.629 4.252 777.077 3.924C777.525 3.596 778.077 3.432 778.733 3.432C779.397 3.432 779.953 3.596 780.401 3.924C780.849 4.244 781.185 4.724 781.409 5.364C781.641 6.004 781.757 6.8 781.757 7.752C781.757 8.688 781.641 9.48 781.409 10.128C781.177 10.776 780.837 11.268 780.389 11.604C779.941 11.94 779.389 12.108 778.733 12.108ZM778.733 11.076C779.349 11.076 779.801 10.808 780.089 10.272C780.385 9.736 780.533 8.896 780.533 7.752C780.533 6.608 780.385 5.776 780.089 5.256C779.801 4.728 779.349 4.464 778.733 4.464C778.125 4.464 777.673 4.728 777.377 5.256C777.081 5.776 776.933 6.608 776.933 7.752C776.933 8.896 777.081 9.736 777.377 10.272C777.673 10.808 778.125 11.076 778.733 11.076ZM785.928 12.108C785.272 12.108 784.72 11.94 784.272 11.604C783.824 11.268 783.484 10.78 783.252 10.14C783.02 9.492 782.904 8.7 782.904 7.764C782.904 6.812 783.02 6.016 783.252 5.376C783.484 4.736 783.824 4.252 784.272 3.924C784.72 3.596 785.272 3.432 785.928 3.432C786.592 3.432 787.148 3.596 787.596 3.924C788.044 4.244 788.38 4.724 788.604 5.364C788.836 6.004 788.952 6.8 788.952 7.752C788.952 8.688 788.836 9.48 788.604 10.128C788.372 10.776 788.032 11.268 787.584 11.604C787.136 11.94 786.584 12.108 785.928 12.108ZM785.928 11.076C786.544 11.076 786.996 10.808 787.284 10.272C787.58 9.736 787.728 8.896 787.728 7.752C787.728 6.608 787.58 5.776 787.284 5.256C786.996 4.728 786.544 4.464 785.928 4.464C785.32 4.464 784.868 4.728 784.572 5.256C784.276 5.776 784.128 6.608 784.128 7.752C784.128 8.896 784.276 9.736 784.572 10.272C784.868 10.808 785.32 11.076 785.928 11.076ZM790.231 12V10.572H791.659V12H790.231ZM795.971 12.108C795.315 12.108 794.763 11.94 794.315 11.604C793.867 11.268 793.527 10.78 793.295 10.14C793.063 9.492 792.947 8.7 792.947 7.764C792.947 6.812 793.063 6.016 793.295 5.376C793.527 4.736 793.867 4.252 794.315 3.924C794.763 3.596 795.315 3.432 795.971 3.432C796.635 3.432 797.191 3.596 797.639 3.924C798.087 4.244 798.423 4.724 798.647 5.364C798.879 6.004 798.995 6.8 798.995 7.752C798.995 8.688 798.879 9.48 798.647 10.128C798.415 10.776 798.075 11.268 797.627 11.604C797.179 11.94 796.627 12.108 795.971 12.108ZM795.971 11.076C796.587 11.076 797.039 10.808 797.327 10.272C797.623 9.736 797.771 8.896 797.771 7.752C797.771 6.608 797.623 5.776 797.327 5.256C797.039 4.728 796.587 4.464 795.971 4.464C795.363 4.464 794.911 4.728 794.615 5.256C794.319 5.776 794.171 6.608 794.171 7.752C794.171 8.896 794.319 9.736 794.615 10.272C794.911 10.808 795.363 11.076 795.971 11.076ZM803.166 12.108C802.51 12.108 801.958 11.94 801.51 11.604C801.062 11.268 800.722 10.78 800.49 10.14C800.258 9.492 800.142 8.7 800.142 7.764C800.142 6.812 800.258 6.016 800.49 5.376C800.722 4.736 801.062 4.252 801.51 3.924C801.958 3.596 802.51 3.432 803.166 3.432C803.83 3.432 804.386 3.596 804.834 3.924C805.282 4.244 805.618 4.724 805.842 5.364C806.074 6.004 806.19 6.8 806.19 7.752C806.19 8.688 806.074 9.48 805.842 10.128C805.61 10.776 805.27 11.268 804.822 11.604C804.374 11.94 803.822 12.108 803.166 12.108ZM803.166 11.076C803.782 11.076 804.234 10.808 804.522 10.272C804.818 9.736 804.966 8.896 804.966 7.752C804.966 6.608 804.818 5.776 804.522 5.256C804.234 4.728 803.782 4.464 803.166 4.464C802.558 4.464 802.106 4.728 801.81 5.256C801.514 5.776 801.366 6.608 801.366 7.752C801.366 8.896 801.514 9.736 801.81 10.272C802.106 10.808 802.558 11.076 803.166 11.076ZM810.314 12.312L809.498 11.832L814.454 3.228L815.27 3.708L810.314 12.312ZM809.45 8.604C809.018 8.604 808.642 8.5 808.322 8.292C808.01 8.084 807.77 7.788 807.602 7.404C807.442 7.012 807.362 6.548 807.362 6.012C807.362 5.204 807.546 4.572 807.914 4.116C808.29 3.66 808.802 3.432 809.45 3.432C809.882 3.432 810.254 3.536 810.566 3.744C810.878 3.944 811.118 4.236 811.286 4.62C811.454 5.004 811.538 5.468 811.538 6.012C811.538 6.548 811.454 7.012 811.286 7.404C811.126 7.788 810.89 8.084 810.578 8.292C810.266 8.5 809.89 8.604 809.45 8.604ZM809.45 7.752C809.786 7.752 810.046 7.608 810.23 7.32C810.422 7.032 810.518 6.596 810.518 6.012C810.518 5.428 810.422 4.992 810.23 4.704C810.046 4.416 809.786 4.272 809.45 4.272C809.114 4.272 808.85 4.416 808.658 4.704C808.474 4.984 808.382 5.42 808.382 6.012C808.382 6.604 808.474 7.044 808.658 7.332C808.85 7.612 809.114 7.752 809.45 7.752ZM815.318 12.108C814.886 12.108 814.514 12.008 814.202 11.808C813.89 11.6 813.65 11.304 813.482 10.92C813.322 10.528 813.242 10.06 813.242 9.516C813.242 8.716 813.426 8.088 813.794 7.632C814.162 7.168 814.67 6.936 815.318 6.936C815.758 6.936 816.134 7.04 816.446 7.248C816.758 7.456 816.994 7.752 817.154 8.136C817.322 8.52 817.406 8.98 817.406 9.516C817.406 10.06 817.322 10.528 817.154 10.92C816.994 11.304 816.758 11.6 816.446 11.808C816.134 12.008 815.758 12.108 815.318 12.108ZM815.318 11.268C815.654 11.268 815.914 11.124 816.098 10.836C816.29 10.54 816.386 10.1 816.386 9.516C816.386 8.94 816.29 8.508 816.098 8.22C815.914 7.932 815.654 7.788 815.318 7.788C814.99 7.788 814.73 7.932 814.538 8.22C814.346 8.5 814.25 8.932 814.25 9.516C814.25 10.108 814.346 10.548 814.538 10.836C814.73 11.124 814.99 11.268 815.318 11.268Z" fill="white"/>
<rect x="54" y="259" width="1" height="8" fill="white" fill-opacity="0.16"/>
<path opacity="0.48" d="M31.651 283L33.067 280.396C33.251 280.052 33.467 279.8 33.715 279.64C33.963 279.48 34.251 279.4 34.579 279.4H34.975L34.951 279.58C34.343 279.58 33.819 279.48 33.379 279.28C32.947 279.08 32.615 278.792 32.383 278.416C32.159 278.04 32.047 277.592 32.047 277.072C32.047 276.272 32.299 275.652 32.803 275.212C33.307 274.764 34.023 274.54 34.951 274.54H38.635V283H37.099V279.616H36.067C35.875 279.616 35.703 279.636 35.551 279.676C35.399 279.716 35.263 279.788 35.143 279.892C35.023 279.988 34.915 280.124 34.819 280.3L33.343 283H31.651ZM35.215 278.476H37.099V275.752H35.215C34.663 275.752 34.243 275.868 33.955 276.1C33.675 276.324 33.535 276.66 33.535 277.108C33.535 277.564 33.675 277.908 33.955 278.14C34.243 278.364 34.663 278.476 35.215 278.476ZM40.4885 283V274.54H42.0245V278.068H46.3805V274.54H47.9165V283H46.3805V279.352H42.0245V283H40.4885ZM49.7697 283V274.54H53.4657C54.3537 274.54 55.0417 274.736 55.5297 275.128C56.0177 275.512 56.2617 276.048 56.2617 276.736C56.2617 277.248 56.1137 277.68 55.8177 278.032C55.5217 278.384 55.1177 278.62 54.6057 278.74V278.56C54.9977 278.616 55.3337 278.736 55.6137 278.92C55.8937 279.104 56.1057 279.34 56.2497 279.628C56.4017 279.916 56.4777 280.252 56.4777 280.636C56.4777 281.132 56.3617 281.56 56.1297 281.92C55.9057 282.272 55.5777 282.54 55.1457 282.724C54.7137 282.908 54.1977 283 53.5977 283H49.7697ZM51.2457 281.836H53.4057C53.6217 281.836 53.8137 281.82 53.9817 281.788C54.1577 281.756 54.3057 281.708 54.4257 281.644C54.5537 281.572 54.6577 281.484 54.7377 281.38C54.8257 281.276 54.8897 281.156 54.9297 281.02C54.9697 280.884 54.9897 280.732 54.9897 280.564C54.9897 280.388 54.9697 280.232 54.9297 280.096C54.8897 279.96 54.8257 279.844 54.7377 279.748C54.6577 279.644 54.5537 279.56 54.4257 279.496C54.3057 279.424 54.1577 279.372 53.9817 279.34C53.8137 279.308 53.6217 279.292 53.4057 279.292H51.2457V281.836ZM51.2457 278.128H53.2017C53.7297 278.128 54.1217 278.028 54.3777 277.828C54.6417 277.62 54.7737 277.316 54.7737 276.916C54.7737 276.516 54.6417 276.216 54.3777 276.016C54.1217 275.808 53.7297 275.704 53.2017 275.704H51.2457V278.128ZM60.9898 277.708V276.616C60.9898 276.344 61.0178 276.088 61.0738 275.848C61.1378 275.608 61.2378 275.372 61.3738 275.14C61.5178 274.908 61.7058 274.676 61.9378 274.444L62.5618 274.936C62.3938 275.112 62.2578 275.28 62.1538 275.44C62.0498 275.592 61.9738 275.748 61.9258 275.908C61.8858 276.06 61.8658 276.22 61.8658 276.388L61.4938 276.04H62.6698V277.708H60.9898ZM64.6264 283V281.728H66.5344V275.836H67.2784L65.0584 277.18L64.4584 276.052L66.9784 274.54H68.0704V281.728H69.8584V283H64.6264ZM74.7017 283V281.392H71.0177V280.264L74.9657 274.54H76.2377V280.12H77.4257V281.392H76.2377V283H74.7017ZM74.7017 280.12V276.376H75.0497L72.2177 280.528V280.12H74.7017Z" fill="white"/>
<rect x="181" y="259" width="1" height="8" fill="white" fill-opacity="0.16"/>
<path opacity="0.48" d="M158.651 283L160.067 280.396C160.251 280.052 160.467 279.8 160.715 279.64C160.963 279.48 161.251 279.4 161.579 279.4H161.975L161.951 279.58C161.343 279.58 160.819 279.48 160.379 279.28C159.947 279.08 159.615 278.792 159.383 278.416C159.159 278.04 159.047 277.592 159.047 277.072C159.047 276.272 159.299 275.652 159.803 275.212C160.307 274.764 161.023 274.54 161.951 274.54H165.635V283H164.099V279.616H163.067C162.875 279.616 162.703 279.636 162.551 279.676C162.399 279.716 162.263 279.788 162.143 279.892C162.023 279.988 161.915 280.124 161.819 280.3L160.343 283H158.651ZM162.215 278.476H164.099V275.752H162.215C161.663 275.752 161.243 275.868 160.955 276.1C160.675 276.324 160.535 276.66 160.535 277.108C160.535 277.564 160.675 277.908 160.955 278.14C161.243 278.364 161.663 278.476 162.215 278.476ZM167.488 283V274.54H169.024V278.068H173.38V274.54H174.916V283H173.38V279.352H169.024V283H167.488ZM176.77 283V274.54H180.466C181.354 274.54 182.042 274.736 182.53 275.128C183.018 275.512 183.262 276.048 183.262 276.736C183.262 277.248 183.114 277.68 182.818 278.032C182.522 278.384 182.118 278.62 181.606 278.74V278.56C181.998 278.616 182.334 278.736 182.614 278.92C182.894 279.104 183.106 279.34 183.25 279.628C183.402 279.916 183.478 280.252 183.478 280.636C183.478 281.132 183.362 281.56 183.13 281.92C182.906 282.272 182.578 282.54 182.146 282.724C181.714 282.908 181.198 283 180.598 283H176.77ZM178.246 281.836H180.406C180.622 281.836 180.814 281.82 180.982 281.788C181.158 281.756 181.306 281.708 181.426 281.644C181.554 281.572 181.658 281.484 181.738 281.38C181.826 281.276 181.89 281.156 181.93 281.02C181.97 280.884 181.99 280.732 181.99 280.564C181.99 280.388 181.97 280.232 181.93 280.096C181.89 279.96 181.826 279.844 181.738 279.748C181.658 279.644 181.554 279.56 181.426 279.496C181.306 279.424 181.158 279.372 180.982 279.34C180.814 279.308 180.622 279.292 180.406 279.292H178.246V281.836ZM178.246 278.128H180.202C180.73 278.128 181.122 278.028 181.378 277.828C181.642 277.62 181.774 277.316 181.774 276.916C181.774 276.516 181.642 276.216 181.378 276.016C181.122 275.808 180.73 275.704 180.202 275.704H178.246V278.128ZM187.99 277.708V276.616C187.99 276.344 188.018 276.088 188.074 275.848C188.138 275.608 188.238 275.372 188.374 275.14C188.518 274.908 188.706 274.676 188.938 274.444L189.562 274.936C189.394 275.112 189.258 275.28 189.154 275.44C189.05 275.592 188.974 275.748 188.926 275.908C188.886 276.06 188.866 276.22 188.866 276.388L188.494 276.04H189.67V277.708H187.99ZM191.626 283V281.728H193.534V275.836H194.278L192.058 277.18L191.458 276.052L193.978 274.54H195.07V281.728H196.858V283H191.626ZM201.426 283.12C200.73 283.12 200.134 282.956 199.638 282.628C199.15 282.292 198.778 281.812 198.522 281.188C198.266 280.564 198.138 279.808 198.138 278.92C198.138 277.96 198.282 277.148 198.57 276.484C198.858 275.812 199.274 275.3 199.818 274.948C200.362 274.596 201.014 274.42 201.774 274.42C202.07 274.42 202.366 274.46 202.662 274.54C202.966 274.612 203.25 274.72 203.514 274.864C203.786 275 204.026 275.168 204.234 275.368L203.73 276.52C203.434 276.248 203.118 276.048 202.782 275.92C202.446 275.784 202.102 275.716 201.75 275.716C201.406 275.716 201.098 275.78 200.826 275.908C200.562 276.028 200.338 276.212 200.154 276.46C199.97 276.7 199.83 277.004 199.734 277.372C199.646 277.732 199.602 278.152 199.602 278.632V279.532H199.458C199.522 279.124 199.654 278.776 199.854 278.488C200.062 278.192 200.326 277.968 200.646 277.816C200.966 277.656 201.322 277.576 201.714 277.576C202.202 277.576 202.634 277.692 203.01 277.924C203.386 278.156 203.682 278.476 203.898 278.884C204.114 279.292 204.222 279.76 204.222 280.288C204.222 280.832 204.102 281.32 203.862 281.752C203.63 282.176 203.302 282.512 202.878 282.76C202.462 283 201.978 283.12 201.426 283.12ZM201.342 281.896C201.63 281.896 201.882 281.832 202.098 281.704C202.322 281.576 202.494 281.396 202.614 281.164C202.734 280.924 202.794 280.652 202.794 280.348C202.794 280.036 202.734 279.764 202.614 279.532C202.494 279.3 202.322 279.12 202.098 278.992C201.882 278.856 201.63 278.788 201.342 278.788C201.054 278.788 200.802 278.856 200.586 278.992C200.37 279.12 200.198 279.3 200.07 279.532C199.95 279.764 199.89 280.036 199.89 280.348C199.89 280.652 199.95 280.924 200.07 281.164C200.198 281.396 200.37 281.576 200.586 281.704C200.802 281.832 201.054 281.896 201.342 281.896Z" fill="white"/>
<rect x="308" y="259" width="1" height="8" fill="white" fill-opacity="0.16"/>
<path opacity="0.48" d="M285.651 283L287.067 280.396C287.251 280.052 287.467 279.8 287.715 279.64C287.963 279.48 288.251 279.4 288.579 279.4H288.975L288.951 279.58C288.343 279.58 287.819 279.48 287.379 279.28C286.947 279.08 286.615 278.792 286.383 278.416C286.159 278.04 286.047 277.592 286.047 277.072C286.047 276.272 286.299 275.652 286.803 275.212C287.307 274.764 288.023 274.54 288.951 274.54H292.635V283H291.099V279.616H290.067C289.875 279.616 289.703 279.636 289.551 279.676C289.399 279.716 289.263 279.788 289.143 279.892C289.023 279.988 288.915 280.124 288.819 280.3L287.343 283H285.651ZM289.215 278.476H291.099V275.752H289.215C288.663 275.752 288.243 275.868 287.955 276.1C287.675 276.324 287.535 276.66 287.535 277.108C287.535 277.564 287.675 277.908 287.955 278.14C288.243 278.364 288.663 278.476 289.215 278.476ZM294.488 283V274.54H296.024V278.068H300.38V274.54H301.916V283H300.38V279.352H296.024V283H294.488ZM303.77 283V274.54H307.466C308.354 274.54 309.042 274.736 309.53 275.128C310.018 275.512 310.262 276.048 310.262 276.736C310.262 277.248 310.114 277.68 309.818 278.032C309.522 278.384 309.118 278.62 308.606 278.74V278.56C308.998 278.616 309.334 278.736 309.614 278.92C309.894 279.104 310.106 279.34 310.25 279.628C310.402 279.916 310.478 280.252 310.478 280.636C310.478 281.132 310.362 281.56 310.13 281.92C309.906 282.272 309.578 282.54 309.146 282.724C308.714 282.908 308.198 283 307.598 283H303.77ZM305.246 281.836H307.406C307.622 281.836 307.814 281.82 307.982 281.788C308.158 281.756 308.306 281.708 308.426 281.644C308.554 281.572 308.658 281.484 308.738 281.38C308.826 281.276 308.89 281.156 308.93 281.02C308.97 280.884 308.99 280.732 308.99 280.564C308.99 280.388 308.97 280.232 308.93 280.096C308.89 279.96 308.826 279.844 308.738 279.748C308.658 279.644 308.554 279.56 308.426 279.496C308.306 279.424 308.158 279.372 307.982 279.34C307.814 279.308 307.622 279.292 307.406 279.292H305.246V281.836ZM305.246 278.128H307.202C307.73 278.128 308.122 278.028 308.378 277.828C308.642 277.62 308.774 277.316 308.774 276.916C308.774 276.516 308.642 276.216 308.378 276.016C308.122 275.808 307.73 275.704 307.202 275.704H305.246V278.128ZM314.99 277.708V276.616C314.99 276.344 315.018 276.088 315.074 275.848C315.138 275.608 315.238 275.372 315.374 275.14C315.518 274.908 315.706 274.676 315.938 274.444L316.562 274.936C316.394 275.112 316.258 275.28 316.154 275.44C316.05 275.592 315.974 275.748 315.926 275.908C315.886 276.06 315.866 276.22 315.866 276.388L315.494 276.04H316.67V277.708H314.99ZM318.626 283V281.728H320.534V275.836H321.278L319.058 277.18L318.458 276.052L320.978 274.54H322.07V281.728H323.858V283H318.626ZM328.114 283.12C327.13 283.12 326.358 282.908 325.798 282.484C325.246 282.06 324.97 281.472 324.97 280.72C324.97 280.32 325.05 279.968 325.21 279.664C325.378 279.352 325.606 279.1 325.894 278.908C326.182 278.716 326.51 278.596 326.878 278.548V278.8C326.542 278.728 326.246 278.596 325.99 278.404C325.734 278.204 325.534 277.96 325.39 277.672C325.254 277.376 325.186 277.052 325.186 276.7C325.186 275.988 325.45 275.432 325.978 275.032C326.506 274.624 327.222 274.42 328.126 274.42C329.022 274.42 329.734 274.624 330.262 275.032C330.79 275.432 331.054 275.988 331.054 276.7C331.054 277.052 330.982 277.376 330.838 277.672C330.702 277.968 330.506 278.212 330.25 278.404C330.002 278.596 329.71 278.724 329.374 278.788V278.548C329.75 278.596 330.078 278.72 330.358 278.92C330.638 279.112 330.858 279.364 331.018 279.676C331.178 279.98 331.258 280.328 331.258 280.72C331.258 281.472 330.978 282.06 330.418 282.484C329.866 282.908 329.098 283.12 328.114 283.12ZM328.114 281.92C328.682 281.92 329.11 281.812 329.398 281.596C329.686 281.372 329.83 281.044 329.83 280.612C329.83 280.18 329.686 279.856 329.398 279.64C329.11 279.424 328.682 279.316 328.114 279.316C327.554 279.316 327.126 279.424 326.83 279.64C326.542 279.856 326.398 280.18 326.398 280.612C326.398 281.044 326.542 281.372 326.83 281.596C327.126 281.812 327.554 281.92 328.114 281.92ZM328.114 278.116C328.586 278.116 328.954 278.004 329.218 277.78C329.49 277.556 329.626 277.248 329.626 276.856C329.626 276.472 329.49 276.172 329.218 275.956C328.954 275.732 328.586 275.62 328.114 275.62C327.642 275.62 327.274 275.732 327.01 275.956C326.746 276.172 326.614 276.476 326.614 276.868C326.614 277.252 326.746 277.556 327.01 277.78C327.274 278.004 327.642 278.116 328.114 278.116Z" fill="white"/>
<rect x="435" y="259" width="1" height="8" fill="white" fill-opacity="0.16"/>
<path opacity="0.48" d="M412.651 283L414.067 280.396C414.251 280.052 414.467 279.8 414.715 279.64C414.963 279.48 415.251 279.4 415.579 279.4H415.975L415.951 279.58C415.343 279.58 414.819 279.48 414.379 279.28C413.947 279.08 413.615 278.792 413.383 278.416C413.159 278.04 413.047 277.592 413.047 277.072C413.047 276.272 413.299 275.652 413.803 275.212C414.307 274.764 415.023 274.54 415.951 274.54H419.635V283H418.099V279.616H417.067C416.875 279.616 416.703 279.636 416.551 279.676C416.399 279.716 416.263 279.788 416.143 279.892C416.023 279.988 415.915 280.124 415.819 280.3L414.343 283H412.651ZM416.215 278.476H418.099V275.752H416.215C415.663 275.752 415.243 275.868 414.955 276.1C414.675 276.324 414.535 276.66 414.535 277.108C414.535 277.564 414.675 277.908 414.955 278.14C415.243 278.364 415.663 278.476 416.215 278.476ZM421.488 283V274.54H423.024V278.068H427.38V274.54H428.916V283H427.38V279.352H423.024V283H421.488ZM430.77 283V274.54H434.466C435.354 274.54 436.042 274.736 436.53 275.128C437.018 275.512 437.262 276.048 437.262 276.736C437.262 277.248 437.114 277.68 436.818 278.032C436.522 278.384 436.118 278.62 435.606 278.74V278.56C435.998 278.616 436.334 278.736 436.614 278.92C436.894 279.104 437.106 279.34 437.25 279.628C437.402 279.916 437.478 280.252 437.478 280.636C437.478 281.132 437.362 281.56 437.13 281.92C436.906 282.272 436.578 282.54 436.146 282.724C435.714 282.908 435.198 283 434.598 283H430.77ZM432.246 281.836H434.406C434.622 281.836 434.814 281.82 434.982 281.788C435.158 281.756 435.306 281.708 435.426 281.644C435.554 281.572 435.658 281.484 435.738 281.38C435.826 281.276 435.89 281.156 435.93 281.02C435.97 280.884 435.99 280.732 435.99 280.564C435.99 280.388 435.97 280.232 435.93 280.096C435.89 279.96 435.826 279.844 435.738 279.748C435.658 279.644 435.554 279.56 435.426 279.496C435.306 279.424 435.158 279.372 434.982 279.34C434.814 279.308 434.622 279.292 434.406 279.292H432.246V281.836ZM432.246 278.128H434.202C434.73 278.128 435.122 278.028 435.378 277.828C435.642 277.62 435.774 277.316 435.774 276.916C435.774 276.516 435.642 276.216 435.378 276.016C435.122 275.808 434.73 275.704 434.202 275.704H432.246V278.128ZM441.99 277.708V276.616C441.99 276.344 442.018 276.088 442.074 275.848C442.138 275.608 442.238 275.372 442.374 275.14C442.518 274.908 442.706 274.676 442.938 274.444L443.562 274.936C443.394 275.112 443.258 275.28 443.154 275.44C443.05 275.592 442.974 275.748 442.926 275.908C442.886 276.06 442.866 276.22 442.866 276.388L442.494 276.04H443.67V277.708H441.99ZM445.278 283V281.86L448.014 278.944C448.262 278.68 448.458 278.436 448.602 278.212C448.754 277.988 448.866 277.772 448.938 277.564C449.01 277.356 449.046 277.148 449.046 276.94C449.046 276.54 448.918 276.236 448.662 276.028C448.414 275.82 448.05 275.716 447.57 275.716C447.194 275.716 446.826 275.788 446.466 275.932C446.114 276.068 445.774 276.284 445.446 276.58L444.93 275.428C445.266 275.124 445.686 274.88 446.19 274.696C446.694 274.512 447.218 274.42 447.762 274.42C448.37 274.42 448.882 274.512 449.298 274.696C449.714 274.88 450.03 275.148 450.246 275.5C450.462 275.852 450.57 276.28 450.57 276.784C450.57 277.04 450.538 277.292 450.474 277.54C450.418 277.78 450.326 278.02 450.198 278.26C450.078 278.5 449.922 278.748 449.73 279.004C449.546 279.252 449.322 279.512 449.058 279.784L446.802 282.136V281.728H450.894V283H445.278ZM455.114 283.12C454.45 283.12 453.886 282.952 453.422 282.616C452.966 282.272 452.618 281.776 452.378 281.128C452.146 280.48 452.03 279.688 452.03 278.752C452.03 277.808 452.146 277.016 452.378 276.376C452.618 275.728 452.966 275.24 453.422 274.912C453.886 274.584 454.45 274.42 455.114 274.42C455.786 274.42 456.35 274.584 456.806 274.912C457.27 275.24 457.618 275.724 457.85 276.364C458.082 277.004 458.198 277.796 458.198 278.74C458.198 279.676 458.078 280.472 457.838 281.128C457.606 281.776 457.262 282.272 456.806 282.616C456.35 282.952 455.786 283.12 455.114 283.12ZM455.114 281.86C455.658 281.86 456.058 281.612 456.314 281.116C456.578 280.612 456.71 279.82 456.71 278.74C456.71 277.668 456.578 276.892 456.314 276.412C456.058 275.924 455.658 275.68 455.114 275.68C454.578 275.68 454.178 275.924 453.914 276.412C453.65 276.892 453.518 277.672 453.518 278.752C453.518 279.824 453.65 280.612 453.914 281.116C454.178 281.612 454.578 281.86 455.114 281.86Z" fill="white"/>
<rect x="562" y="259" width="1" height="8" fill="white" fill-opacity="0.16"/>
<path opacity="0.48" d="M539.651 283L541.067 280.396C541.251 280.052 541.467 279.8 541.715 279.64C541.963 279.48 542.251 279.4 542.579 279.4H542.975L542.951 279.58C542.343 279.58 541.819 279.48 541.379 279.28C540.947 279.08 540.615 278.792 540.383 278.416C540.159 278.04 540.047 277.592 540.047 277.072C540.047 276.272 540.299 275.652 540.803 275.212C541.307 274.764 542.023 274.54 542.951 274.54H546.635V283H545.099V279.616H544.067C543.875 279.616 543.703 279.636 543.551 279.676C543.399 279.716 543.263 279.788 543.143 279.892C543.023 279.988 542.915 280.124 542.819 280.3L541.343 283H539.651ZM543.215 278.476H545.099V275.752H543.215C542.663 275.752 542.243 275.868 541.955 276.1C541.675 276.324 541.535 276.66 541.535 277.108C541.535 277.564 541.675 277.908 541.955 278.14C542.243 278.364 542.663 278.476 543.215 278.476ZM548.488 283V274.54H550.024V278.068H554.38V274.54H555.916V283H554.38V279.352H550.024V283H548.488ZM557.77 283V274.54H561.466C562.354 274.54 563.042 274.736 563.53 275.128C564.018 275.512 564.262 276.048 564.262 276.736C564.262 277.248 564.114 277.68 563.818 278.032C563.522 278.384 563.118 278.62 562.606 278.74V278.56C562.998 278.616 563.334 278.736 563.614 278.92C563.894 279.104 564.106 279.34 564.25 279.628C564.402 279.916 564.478 280.252 564.478 280.636C564.478 281.132 564.362 281.56 564.13 281.92C563.906 282.272 563.578 282.54 563.146 282.724C562.714 282.908 562.198 283 561.598 283H557.77ZM559.246 281.836H561.406C561.622 281.836 561.814 281.82 561.982 281.788C562.158 281.756 562.306 281.708 562.426 281.644C562.554 281.572 562.658 281.484 562.738 281.38C562.826 281.276 562.89 281.156 562.93 281.02C562.97 280.884 562.99 280.732 562.99 280.564C562.99 280.388 562.97 280.232 562.93 280.096C562.89 279.96 562.826 279.844 562.738 279.748C562.658 279.644 562.554 279.56 562.426 279.496C562.306 279.424 562.158 279.372 561.982 279.34C561.814 279.308 561.622 279.292 561.406 279.292H559.246V281.836ZM559.246 278.128H561.202C561.73 278.128 562.122 278.028 562.378 277.828C562.642 277.62 562.774 277.316 562.774 276.916C562.774 276.516 562.642 276.216 562.378 276.016C562.122 275.808 561.73 275.704 561.202 275.704H559.246V278.128ZM568.99 277.708V276.616C568.99 276.344 569.018 276.088 569.074 275.848C569.138 275.608 569.238 275.372 569.374 275.14C569.518 274.908 569.706 274.676 569.938 274.444L570.562 274.936C570.394 275.112 570.258 275.28 570.154 275.44C570.05 275.592 569.974 275.748 569.926 275.908C569.886 276.06 569.866 276.22 569.866 276.388L569.494 276.04H570.67V277.708H568.99ZM572.278 283V281.86L575.014 278.944C575.262 278.68 575.458 278.436 575.602 278.212C575.754 277.988 575.866 277.772 575.938 277.564C576.01 277.356 576.046 277.148 576.046 276.94C576.046 276.54 575.918 276.236 575.662 276.028C575.414 275.82 575.05 275.716 574.57 275.716C574.194 275.716 573.826 275.788 573.466 275.932C573.114 276.068 572.774 276.284 572.446 276.58L571.93 275.428C572.266 275.124 572.686 274.88 573.19 274.696C573.694 274.512 574.218 274.42 574.762 274.42C575.37 274.42 575.882 274.512 576.298 274.696C576.714 274.88 577.03 275.148 577.246 275.5C577.462 275.852 577.57 276.28 577.57 276.784C577.57 277.04 577.538 277.292 577.474 277.54C577.418 277.78 577.326 278.02 577.198 278.26C577.078 278.5 576.922 278.748 576.73 279.004C576.546 279.252 576.322 279.512 576.058 279.784L573.802 282.136V281.728H577.894V283H572.278ZM579.474 283V281.86L582.21 278.944C582.458 278.68 582.654 278.436 582.798 278.212C582.95 277.988 583.062 277.772 583.134 277.564C583.206 277.356 583.242 277.148 583.242 276.94C583.242 276.54 583.114 276.236 582.858 276.028C582.61 275.82 582.246 275.716 581.766 275.716C581.39 275.716 581.022 275.788 580.662 275.932C580.31 276.068 579.97 276.284 579.642 276.58L579.126 275.428C579.462 275.124 579.882 274.88 580.386 274.696C580.89 274.512 581.414 274.42 581.958 274.42C582.566 274.42 583.078 274.512 583.494 274.696C583.91 274.88 584.226 275.148 584.442 275.5C584.658 275.852 584.766 276.28 584.766 276.784C584.766 277.04 584.734 277.292 584.67 277.54C584.614 277.78 584.522 278.02 584.394 278.26C584.274 278.5 584.118 278.748 583.926 279.004C583.742 279.252 583.518 279.512 583.254 279.784L580.998 282.136V281.728H585.09V283H579.474Z" fill="white"/>
<rect x="689" y="259" width="1" height="8" fill="white" fill-opacity="0.16"/>
<path opacity="0.48" d="M666.651 283L668.067 280.396C668.251 280.052 668.467 279.8 668.715 279.64C668.963 279.48 669.251 279.4 669.579 279.4H669.975L669.951 279.58C669.343 279.58 668.819 279.48 668.379 279.28C667.947 279.08 667.615 278.792 667.383 278.416C667.159 278.04 667.047 277.592 667.047 277.072C667.047 276.272 667.299 275.652 667.803 275.212C668.307 274.764 669.023 274.54 669.951 274.54H673.635V283H672.099V279.616H671.067C670.875 279.616 670.703 279.636 670.551 279.676C670.399 279.716 670.263 279.788 670.143 279.892C670.023 279.988 669.915 280.124 669.819 280.3L668.343 283H666.651ZM670.215 278.476H672.099V275.752H670.215C669.663 275.752 669.243 275.868 668.955 276.1C668.675 276.324 668.535 276.66 668.535 277.108C668.535 277.564 668.675 277.908 668.955 278.14C669.243 278.364 669.663 278.476 670.215 278.476ZM675.488 283V274.54H677.024V278.068H681.38V274.54H682.916V283H681.38V279.352H677.024V283H675.488ZM684.77 283V274.54H688.466C689.354 274.54 690.042 274.736 690.53 275.128C691.018 275.512 691.262 276.048 691.262 276.736C691.262 277.248 691.114 277.68 690.818 278.032C690.522 278.384 690.118 278.62 689.606 278.74V278.56C689.998 278.616 690.334 278.736 690.614 278.92C690.894 279.104 691.106 279.34 691.25 279.628C691.402 279.916 691.478 280.252 691.478 280.636C691.478 281.132 691.362 281.56 691.13 281.92C690.906 282.272 690.578 282.54 690.146 282.724C689.714 282.908 689.198 283 688.598 283H684.77ZM686.246 281.836H688.406C688.622 281.836 688.814 281.82 688.982 281.788C689.158 281.756 689.306 281.708 689.426 281.644C689.554 281.572 689.658 281.484 689.738 281.38C689.826 281.276 689.89 281.156 689.93 281.02C689.97 280.884 689.99 280.732 689.99 280.564C689.99 280.388 689.97 280.232 689.93 280.096C689.89 279.96 689.826 279.844 689.738 279.748C689.658 279.644 689.554 279.56 689.426 279.496C689.306 279.424 689.158 279.372 688.982 279.34C688.814 279.308 688.622 279.292 688.406 279.292H686.246V281.836ZM686.246 278.128H688.202C688.73 278.128 689.122 278.028 689.378 277.828C689.642 277.62 689.774 277.316 689.774 276.916C689.774 276.516 689.642 276.216 689.378 276.016C689.122 275.808 688.73 275.704 688.202 275.704H686.246V278.128ZM695.99 277.708V276.616C695.99 276.344 696.018 276.088 696.074 275.848C696.138 275.608 696.238 275.372 696.374 275.14C696.518 274.908 696.706 274.676 696.938 274.444L697.562 274.936C697.394 275.112 697.258 275.28 697.154 275.44C697.05 275.592 696.974 275.748 696.926 275.908C696.886 276.06 696.866 276.22 696.866 276.388L696.494 276.04H697.67V277.708H695.99ZM699.278 283V281.86L702.014 278.944C702.262 278.68 702.458 278.436 702.602 278.212C702.754 277.988 702.866 277.772 702.938 277.564C703.01 277.356 703.046 277.148 703.046 276.94C703.046 276.54 702.918 276.236 702.662 276.028C702.414 275.82 702.05 275.716 701.57 275.716C701.194 275.716 700.826 275.788 700.466 275.932C700.114 276.068 699.774 276.284 699.446 276.58L698.93 275.428C699.266 275.124 699.686 274.88 700.19 274.696C700.694 274.512 701.218 274.42 701.762 274.42C702.37 274.42 702.882 274.512 703.298 274.696C703.714 274.88 704.03 275.148 704.246 275.5C704.462 275.852 704.57 276.28 704.57 276.784C704.57 277.04 704.538 277.292 704.474 277.54C704.418 277.78 704.326 278.02 704.198 278.26C704.078 278.5 703.922 278.748 703.73 279.004C703.546 279.252 703.322 279.512 703.058 279.784L700.802 282.136V281.728H704.894V283H699.278ZM709.702 283V281.392H706.018V280.264L709.966 274.54H711.238V280.12H712.426V281.392H711.238V283H709.702ZM709.702 280.12V276.376H710.05L707.218 280.528V280.12H709.702Z" fill="white"/>
<g filter="url(#filter0_d_1103_34156)">
<path d="M9 256.426H152.157L155.129 252.694L159.092 254.991L162.064 254.417L165.036 257L169.494 254.417L176.429 257L179.401 254.417L181.382 255.565L184.85 246.954L186.336 248.963L189.308 232.028L197.234 243.796L202.683 230.593L207.141 242.648L209.618 238.917L211.599 244.944L223.983 239.204L239.834 251.259L242.311 246.667L250.236 248.389L254.695 219.398L260.639 229.444L262.62 219.972L264.602 224.565L270.05 195L281.444 219.972L286.397 216.241L292.341 229.444L297.295 225.713L301.753 237.769L309.183 217.102L313.146 221.407L315.127 218.25L320.576 228.87L327.511 221.407L329.988 256.713L333.951 220.833L339.4 228.009L340.886 225.139L347.821 236.62L350.297 234.898L363.672 241.787L366.644 234.037L372.588 239.491L377.046 234.037L389.43 239.491L395.87 236.046L404.291 243.222L405.777 240.639L409.74 243.796L413.703 240.639L421.628 243.796L425.591 240.926L436.984 243.509L439.461 236.333C442.598 238.247 448.873 242.017 448.873 241.787C448.873 241.557 450.524 239.012 451.349 237.769L454.817 241.213L468.687 232.315L491.968 237.194L498.903 225.139L510.296 236.333L518.717 219.111L522.185 223.417L525.157 220.546L529.615 224.278L533.578 219.111L538.531 223.704L542.494 218.25L545.466 223.704L554.382 214.519L567.757 224.852L574.692 218.537L590.048 229.157L600.45 216.815L605.404 225.426L609.367 219.398L614.32 223.704L617.788 220.833L618.778 223.417L624.227 218.824L625.713 220.833H638.097L640.078 217.963L641.069 221.407L656.92 221.12L660.388 218.25L671.781 225.426L679.211 222.556L683.174 225.139L687.137 220.546L690.604 224.852L694.567 220.546L707.446 227.722L714.381 221.12L721.316 229.731C722.472 228.392 724.784 225.828 724.784 226.287C724.784 226.746 729.077 229.731 731.223 231.167L737.167 227.722L755 236.907" stroke="#6AA5FF" stroke-width="1.5"/>
</g>
<g filter="url(#filter1_d_1103_34156)">
<path d="M9 242.009H12.4514L14.4237 244.504L16.3959 242.009L17.8751 244.861L21.8196 239.513L24.2849 242.009L25.764 232.383L29.7085 238.8L33.1599 232.383L43.0211 247L47.4587 224.539L48.9379 230.6L52.8824 224.539L59.2921 230.957C60.2783 227.629 62.3491 221.259 62.7436 222.4C63.138 223.541 67.5098 229.53 69.6464 232.383L71.6186 229.531L90.848 242.722L100.216 229.531L109.091 233.809L114.515 200.296L127.334 222.757L130.293 219.191L137.196 227.035L145.085 214.2L149.029 220.617H157.904L169.245 237.374L172.696 235.235L175.654 238.444L184.529 229.531L186.995 233.452L192.911 228.817L196.856 233.452L201.293 235.235L204.252 230.6L206.224 234.522L209.182 231.313C209.84 231.907 211.155 233.024 211.155 232.739C211.155 232.454 214.113 227.391 215.592 224.896L218.551 228.104H228.412L230.877 231.313L233.342 229.887L237.287 234.522H250.599L256.023 208.139C256.681 210.278 258.094 214.628 258.488 214.913C258.883 215.198 262.926 183.896 264.898 168.209C266.049 174.864 268.35 188.103 268.35 187.817C268.35 187.532 270.979 179.38 272.294 175.339L277.225 184.609L281.662 171.774L293.496 196.374L294.975 174.27L299.905 188.53C301.22 167.02 303.949 124 304.343 124C304.737 124 313.382 148.006 317.656 160.009L323.079 138.974L332.447 160.009L337.871 160.722L345.76 174.27L348.718 173.913L351.677 161.078L352.663 167.139L358.087 162.861L376.823 165L382.74 157.87L391.122 178.548L397.038 170.704L399.504 193.165L400.49 189.957L408.872 199.583L416.761 194.235L418.733 197.087L421.691 192.452L426.622 192.809L428.594 198.87L438.455 187.817L441.907 190.67L447.824 186.748L452.261 195.304L454.233 191.383L456.699 194.591L463.601 184.252L465.574 190.67L471.983 178.548L484.31 196.017L486.775 193.165L494.171 210.991L511.428 165L515.373 167.852L516.359 156.443L518.824 168.209L520.303 158.583L530.165 172.487L537.067 155.017C539.697 160.959 544.956 172.487 544.956 171.061C544.956 169.635 547.257 164.287 548.408 161.791C549.887 163.812 552.845 167.567 552.845 166.426C552.845 165.285 556.79 156.681 558.762 152.522L575.033 163.217C575.855 161.316 577.498 157.584 577.498 157.87C577.498 158.155 581.114 164.406 582.922 167.496L588.839 149.67L593.276 159.296C594.591 156.681 597.319 151.595 597.714 152.165C598.207 152.878 600.672 156.8 600.672 155.374C600.672 154.233 603.302 149.67 604.617 147.53C606.753 150.383 611.026 155.873 611.026 155.017C611.026 154.162 612.013 148.243 612.506 145.391L623.353 161.078L627.79 155.374L633.707 169.635L640.61 173.2L644.061 168.922L649.978 181.4L653.43 174.626H669.208L673.152 182.826L674.138 178.548C674.796 179.38 676.209 180.972 676.603 180.687C676.998 180.402 680.055 176.052 681.534 173.913L688.93 180.687H692.874L696.819 177.122L700.27 181.044L706.68 180.687L711.611 186.748L719.5 185.322L724.923 179.617L733.798 188.174C736.757 182.707 742.673 171.845 742.673 172.13C742.673 172.416 743.66 178.429 744.153 181.4L750.069 181.757L752.535 184.252L755 181.757" stroke="#4F5156" stroke-width="1.5"/>
</g>
<g filter="url(#filter2_d_1103_34156)">
<path d="M9 21.7016L13.4552 18.959L14.9403 21.7016L15.9303 18.959L19.8905 24.4442C20.5505 23.53 21.8706 21.78 21.8706 22.0934C21.8706 22.4068 24.1807 28.4928 25.3358 31.4966C26.3258 28.754 28.4049 23.5822 28.8009 24.836C29.296 26.4032 33.2561 31.4966 33.7512 31.8884C34.1472 32.2018 39.5264 22.0934 42.1666 17C43.6516 25.0972 46.6218 41.2132 46.6218 40.8998C46.6218 40.5863 47.9418 35.8064 48.6019 33.4556L52.067 40.508L56.0272 33.8474L62.4625 43.2506L89.6888 21.7016L98.1042 36.59L105.035 31.8884L113.45 67.5421L115.925 58.9226L118.895 63.2323L126.816 41.2916C127.806 42.5976 129.885 45.1312 130.281 44.8178C130.677 44.5043 134.736 40.2468 136.716 38.1572L145.131 51.0866L150.082 45.2096L158.002 51.4784L176.813 27.5786L184.733 47.9522L188.198 44.8178L191.169 70.2847L196.614 51.0866L201.069 67.9339L207.999 47.9522L216.91 62.8405L220.87 60.0979L224.83 65.1913L240.176 41.6834C241.661 44.1648 244.631 49.0492 244.631 48.7358C244.631 48.4223 247.931 44.9484 249.581 43.2506L254.532 102.804C255.852 98.2331 258.393 89.0911 257.997 89.0911C257.601 89.0911 265.422 146.555 269.382 175.287L275.818 138.458L281.263 152.954L293.143 111.815C294.298 120.043 296.608 136.42 296.608 136.107C296.608 135.794 299.249 117.954 300.569 109.073L305.024 189L319.875 154.913L326.805 177.246L329.28 116.125L333.24 169.41L335.22 160.399C335.88 161.705 337.2 164.238 337.2 163.925C337.2 163.611 338.52 152.563 339.18 147.077L342.151 151.779L347.101 125.528L351.556 138.458L354.526 128.271C356.341 131.014 359.971 136.42 359.971 136.107C359.971 135.794 362.942 131.275 364.427 129.055L367.892 139.633L374.327 131.797L382.743 142.376L390.663 117.301L396.108 126.312L401.553 98.8861C401.883 101.368 402.642 106.017 403.038 104.763C403.435 103.509 408.484 93.2703 410.959 88.3075C413.269 92.0949 417.889 99.513 417.889 98.8861C417.889 98.2592 418.879 94.1845 419.374 92.2255L422.839 99.6697L429.77 91.0501L439.67 108.289L442.64 103.979L444.62 105.547L448.086 100.453L450.561 105.547L453.531 93.0091L476.302 125.92L483.727 102.804L488.678 108.289L494.618 88.3075L500.063 113.774L503.033 107.506L515.409 170.585L518.874 150.212L521.844 165.1L526.794 148.253L537.685 168.626L544.12 151.387L557.486 170.585L563.921 161.574L567.386 166.276L569.366 160.79L574.317 168.626L583.722 150.604L600.058 173.328L603.028 167.059L614.413 175.679L623.324 161.574L628.769 164.708L634.214 150.212C636.194 152.301 640.155 156.246 640.155 155.305C640.155 154.365 641.145 150.212 641.64 148.253C643.455 150.342 647.085 154.443 647.085 154.13C647.085 153.816 651.045 147.208 653.025 143.943L664.411 147.469L672.331 131.014L676.786 138.458L679.756 134.932L686.687 145.118L692.132 134.932L695.597 140.025L702.033 129.446L706.983 135.715L712.428 129.055L719.358 135.715L724.309 124.745L727.279 127.096L735.694 116.909L743.614 132.973L746.09 122.786L748.07 128.271L755 112.991" stroke="#FFA800" stroke-width="1.5" shape-rendering="crispEdges"/>
</g>
<rect x="759" y="226" width="55" height="22" rx="4" fill="#6AA5FF"/>
<path d="M764.724 241V239.622H766.791V233.239H767.597L765.192 234.695L764.542 233.473L767.272 231.835H768.455V239.622H770.392V241H764.724ZM775.002 241.13C774.282 241.13 773.671 240.948 773.169 240.584C772.675 240.211 772.298 239.674 772.038 238.972C771.786 238.27 771.661 237.412 771.661 236.398C771.661 235.375 771.786 234.517 772.038 233.824C772.298 233.122 772.675 232.593 773.169 232.238C773.671 231.883 774.282 231.705 775.002 231.705C775.73 231.705 776.341 231.883 776.835 232.238C777.337 232.593 777.714 233.118 777.966 233.811C778.217 234.504 778.343 235.362 778.343 236.385C778.343 237.399 778.213 238.261 777.953 238.972C777.701 239.674 777.329 240.211 776.835 240.584C776.341 240.948 775.73 241.13 775.002 241.13ZM775.002 239.765C775.591 239.765 776.024 239.496 776.302 238.959C776.588 238.413 776.731 237.555 776.731 236.385C776.731 235.224 776.588 234.383 776.302 233.863C776.024 233.334 775.591 233.07 775.002 233.07C774.421 233.07 773.988 233.334 773.702 233.863C773.416 234.383 773.273 235.228 773.273 236.398C773.273 237.559 773.416 238.413 773.702 238.959C773.988 239.496 774.421 239.765 775.002 239.765ZM779.598 241V239.193H781.418V241H779.598ZM786.021 241.13C785.302 241.13 784.691 240.948 784.188 240.584C783.694 240.211 783.317 239.674 783.057 238.972C782.806 238.27 782.68 237.412 782.68 236.398C782.68 235.375 782.806 234.517 783.057 233.824C783.317 233.122 783.694 232.593 784.188 232.238C784.691 231.883 785.302 231.705 786.021 231.705C786.749 231.705 787.36 231.883 787.854 232.238C788.357 232.593 788.734 233.118 788.985 233.811C789.236 234.504 789.362 235.362 789.362 236.385C789.362 237.399 789.232 238.261 788.972 238.972C788.721 239.674 788.348 240.211 787.854 240.584C787.36 240.948 786.749 241.13 786.021 241.13ZM786.021 239.765C786.61 239.765 787.044 239.496 787.321 238.959C787.607 238.413 787.75 237.555 787.75 236.385C787.75 235.224 787.607 234.383 787.321 233.863C787.044 233.334 786.61 233.07 786.021 233.07C785.44 233.07 785.007 233.334 784.721 233.863C784.435 234.383 784.292 235.228 784.292 236.398C784.292 237.559 784.435 238.413 784.721 238.959C785.007 239.496 785.44 239.765 786.021 239.765ZM793.816 241.13C793.097 241.13 792.486 240.948 791.983 240.584C791.489 240.211 791.112 239.674 790.852 238.972C790.601 238.27 790.475 237.412 790.475 236.398C790.475 235.375 790.601 234.517 790.852 233.824C791.112 233.122 791.489 232.593 791.983 232.238C792.486 231.883 793.097 231.705 793.816 231.705C794.544 231.705 795.155 231.883 795.649 232.238C796.152 232.593 796.529 233.118 796.78 233.811C797.031 234.504 797.157 235.362 797.157 236.385C797.157 237.399 797.027 238.261 796.767 238.972C796.516 239.674 796.143 240.211 795.649 240.584C795.155 240.948 794.544 241.13 793.816 241.13ZM793.816 239.765C794.405 239.765 794.839 239.496 795.116 238.959C795.402 238.413 795.545 237.555 795.545 236.385C795.545 235.224 795.402 234.383 795.116 233.863C794.839 233.334 794.405 233.07 793.816 233.07C793.235 233.07 792.802 233.334 792.516 233.863C792.23 234.383 792.087 235.228 792.087 236.398C792.087 237.559 792.23 238.413 792.516 238.959C792.802 239.496 793.235 239.765 793.816 239.765ZM801.715 241.364L800.649 240.74L806.005 231.471L807.058 232.095L801.715 241.364ZM800.597 237.308C800.112 237.308 799.696 237.195 799.349 236.97C799.002 236.745 798.738 236.424 798.556 236.008C798.374 235.583 798.283 235.081 798.283 234.5C798.283 233.633 798.487 232.953 798.894 232.459C799.301 231.956 799.869 231.705 800.597 231.705C801.082 231.705 801.498 231.818 801.845 232.043C802.192 232.268 802.456 232.589 802.638 233.005C802.82 233.421 802.911 233.919 802.911 234.5C802.911 235.081 802.82 235.583 802.638 236.008C802.456 236.424 802.192 236.745 801.845 236.97C801.498 237.195 801.082 237.308 800.597 237.308ZM800.597 236.216C800.909 236.216 801.152 236.077 801.325 235.8C801.498 235.514 801.585 235.081 801.585 234.5C801.585 233.919 801.498 233.49 801.325 233.213C801.152 232.936 800.909 232.797 800.597 232.797C800.285 232.797 800.042 232.936 799.869 233.213C799.696 233.482 799.609 233.911 799.609 234.5C799.609 235.089 799.696 235.523 799.869 235.8C800.042 236.077 800.285 236.216 800.597 236.216ZM807.123 241.13C806.638 241.13 806.222 241.017 805.875 240.792C805.528 240.567 805.264 240.246 805.082 239.83C804.9 239.405 804.809 238.903 804.809 238.322C804.809 237.455 805.013 236.775 805.42 236.281C805.827 235.778 806.395 235.527 807.123 235.527C807.608 235.527 808.024 235.64 808.371 235.865C808.718 236.09 808.982 236.411 809.164 236.827C809.346 237.243 809.437 237.741 809.437 238.322C809.437 238.903 809.346 239.405 809.164 239.83C808.982 240.246 808.718 240.567 808.371 240.792C808.024 241.017 807.608 241.13 807.123 241.13ZM807.123 240.038C807.435 240.038 807.678 239.899 807.851 239.622C808.024 239.336 808.111 238.903 808.111 238.322C808.111 237.741 808.024 237.312 807.851 237.035C807.678 236.758 807.435 236.619 807.123 236.619C806.811 236.619 806.568 236.758 806.395 237.035C806.222 237.304 806.135 237.733 806.135 238.322C806.135 238.911 806.222 239.345 806.395 239.622C806.568 239.899 806.811 240.038 807.123 240.038Z" fill="white"/>
<rect x="759" y="171" width="55" height="22" rx="4" fill="#4F5156"/>
<path d="M767.025 186.13C766.609 186.13 766.201 186.087 765.803 186C765.413 185.922 765.049 185.805 764.711 185.649C764.373 185.493 764.078 185.307 763.827 185.09L764.373 183.816C764.78 184.128 765.196 184.358 765.621 184.505C766.045 184.652 766.496 184.726 766.973 184.726C767.354 184.726 767.675 184.674 767.935 184.57C768.195 184.466 768.39 184.31 768.52 184.102C768.658 183.894 768.728 183.643 768.728 183.348C768.728 182.915 768.58 182.594 768.286 182.386C768 182.169 767.579 182.061 767.025 182.061H765.556V180.683H766.869C767.198 180.683 767.48 180.631 767.714 180.527C767.948 180.414 768.13 180.258 768.26 180.059C768.39 179.86 768.455 179.617 768.455 179.331C768.455 178.932 768.32 178.629 768.052 178.421C767.792 178.213 767.41 178.109 766.908 178.109C766.457 178.109 766.037 178.187 765.647 178.343C765.257 178.49 764.884 178.724 764.529 179.045L763.983 177.797C764.347 177.45 764.802 177.182 765.348 176.991C765.894 176.8 766.461 176.705 767.051 176.705C767.683 176.705 768.225 176.805 768.676 177.004C769.126 177.195 769.469 177.472 769.703 177.836C769.945 178.191 770.067 178.625 770.067 179.136C770.067 179.682 769.915 180.154 769.612 180.553C769.308 180.943 768.892 181.203 768.364 181.333V181.177C768.78 181.246 769.135 181.385 769.43 181.593C769.724 181.801 769.95 182.065 770.106 182.386C770.262 182.707 770.34 183.075 770.34 183.491C770.34 184.028 770.205 184.496 769.937 184.895C769.668 185.294 769.287 185.601 768.793 185.818C768.299 186.026 767.709 186.13 767.025 186.13ZM775.002 186.13C774.282 186.13 773.671 185.948 773.169 185.584C772.675 185.211 772.298 184.674 772.038 183.972C771.786 183.27 771.661 182.412 771.661 181.398C771.661 180.375 771.786 179.517 772.038 178.824C772.298 178.122 772.675 177.593 773.169 177.238C773.671 176.883 774.282 176.705 775.002 176.705C775.73 176.705 776.341 176.883 776.835 177.238C777.337 177.593 777.714 178.118 777.966 178.811C778.217 179.504 778.343 180.362 778.343 181.385C778.343 182.399 778.213 183.261 777.953 183.972C777.701 184.674 777.329 185.211 776.835 185.584C776.341 185.948 775.73 186.13 775.002 186.13ZM775.002 184.765C775.591 184.765 776.024 184.496 776.302 183.959C776.588 183.413 776.731 182.555 776.731 181.385C776.731 180.224 776.588 179.383 776.302 178.863C776.024 178.334 775.591 178.07 775.002 178.07C774.421 178.07 773.988 178.334 773.702 178.863C773.416 179.383 773.273 180.228 773.273 181.398C773.273 182.559 773.416 183.413 773.702 183.959C773.988 184.496 774.421 184.765 775.002 184.765ZM779.598 186V184.193H781.418V186H779.598ZM786.021 186.13C785.302 186.13 784.691 185.948 784.188 185.584C783.694 185.211 783.317 184.674 783.057 183.972C782.806 183.27 782.68 182.412 782.68 181.398C782.68 180.375 782.806 179.517 783.057 178.824C783.317 178.122 783.694 177.593 784.188 177.238C784.691 176.883 785.302 176.705 786.021 176.705C786.749 176.705 787.36 176.883 787.854 177.238C788.357 177.593 788.734 178.118 788.985 178.811C789.236 179.504 789.362 180.362 789.362 181.385C789.362 182.399 789.232 183.261 788.972 183.972C788.721 184.674 788.348 185.211 787.854 185.584C787.36 185.948 786.749 186.13 786.021 186.13ZM786.021 184.765C786.61 184.765 787.044 184.496 787.321 183.959C787.607 183.413 787.75 182.555 787.75 181.385C787.75 180.224 787.607 179.383 787.321 178.863C787.044 178.334 786.61 178.07 786.021 178.07C785.44 178.07 785.007 178.334 784.721 178.863C784.435 179.383 784.292 180.228 784.292 181.398C784.292 182.559 784.435 183.413 784.721 183.959C785.007 184.496 785.44 184.765 786.021 184.765ZM793.816 186.13C793.097 186.13 792.486 185.948 791.983 185.584C791.489 185.211 791.112 184.674 790.852 183.972C790.601 183.27 790.475 182.412 790.475 181.398C790.475 180.375 790.601 179.517 790.852 178.824C791.112 178.122 791.489 177.593 791.983 177.238C792.486 176.883 793.097 176.705 793.816 176.705C794.544 176.705 795.155 176.883 795.649 177.238C796.152 177.593 796.529 178.118 796.78 178.811C797.031 179.504 797.157 180.362 797.157 181.385C797.157 182.399 797.027 183.261 796.767 183.972C796.516 184.674 796.143 185.211 795.649 185.584C795.155 185.948 794.544 186.13 793.816 186.13ZM793.816 184.765C794.405 184.765 794.839 184.496 795.116 183.959C795.402 183.413 795.545 182.555 795.545 181.385C795.545 180.224 795.402 179.383 795.116 178.863C794.839 178.334 794.405 178.07 793.816 178.07C793.235 178.07 792.802 178.334 792.516 178.863C792.23 179.383 792.087 180.228 792.087 181.398C792.087 182.559 792.23 183.413 792.516 183.959C792.802 184.496 793.235 184.765 793.816 184.765ZM801.715 186.364L800.649 185.74L806.005 176.471L807.058 177.095L801.715 186.364ZM800.597 182.308C800.112 182.308 799.696 182.195 799.349 181.97C799.002 181.745 798.738 181.424 798.556 181.008C798.374 180.583 798.283 180.081 798.283 179.5C798.283 178.633 798.487 177.953 798.894 177.459C799.301 176.956 799.869 176.705 800.597 176.705C801.082 176.705 801.498 176.818 801.845 177.043C802.192 177.268 802.456 177.589 802.638 178.005C802.82 178.421 802.911 178.919 802.911 179.5C802.911 180.081 802.82 180.583 802.638 181.008C802.456 181.424 802.192 181.745 801.845 181.97C801.498 182.195 801.082 182.308 800.597 182.308ZM800.597 181.216C800.909 181.216 801.152 181.077 801.325 180.8C801.498 180.514 801.585 180.081 801.585 179.5C801.585 178.919 801.498 178.49 801.325 178.213C801.152 177.936 800.909 177.797 800.597 177.797C800.285 177.797 800.042 177.936 799.869 178.213C799.696 178.482 799.609 178.911 799.609 179.5C799.609 180.089 799.696 180.523 799.869 180.8C800.042 181.077 800.285 181.216 800.597 181.216ZM807.123 186.13C806.638 186.13 806.222 186.017 805.875 185.792C805.528 185.567 805.264 185.246 805.082 184.83C804.9 184.405 804.809 183.903 804.809 183.322C804.809 182.455 805.013 181.775 805.42 181.281C805.827 180.778 806.395 180.527 807.123 180.527C807.608 180.527 808.024 180.64 808.371 180.865C808.718 181.09 808.982 181.411 809.164 181.827C809.346 182.243 809.437 182.741 809.437 183.322C809.437 183.903 809.346 184.405 809.164 184.83C808.982 185.246 808.718 185.567 808.371 185.792C808.024 186.017 807.608 186.13 807.123 186.13ZM807.123 185.038C807.435 185.038 807.678 184.899 807.851 184.622C808.024 184.336 808.111 183.903 808.111 183.322C808.111 182.741 808.024 182.312 807.851 182.035C807.678 181.758 807.435 181.619 807.123 181.619C806.811 181.619 806.568 181.758 806.395 182.035C806.222 182.304 806.135 182.733 806.135 183.322C806.135 183.911 806.222 184.345 806.395 184.622C806.568 184.899 806.811 185.038 807.123 185.038Z" fill="white"/>
<rect x="759" y="102" width="55" height="22" rx="4" fill="#FFA800"/>
<path d="M767.285 117.13C766.886 117.13 766.492 117.087 766.102 117C765.72 116.913 765.361 116.792 765.023 116.636C764.693 116.48 764.407 116.298 764.165 116.09L764.711 114.816C765.109 115.119 765.521 115.349 765.946 115.505C766.37 115.652 766.808 115.726 767.259 115.726C767.805 115.726 768.229 115.587 768.533 115.31C768.845 115.024 769.001 114.643 769.001 114.166C769.001 113.681 768.853 113.291 768.559 112.996C768.264 112.693 767.861 112.541 767.35 112.541C766.977 112.541 766.643 112.615 766.349 112.762C766.054 112.901 765.785 113.117 765.543 113.412H764.425V107.835H770.054V109.213H766.05V112.125H765.621C765.846 111.822 766.141 111.588 766.505 111.423C766.877 111.258 767.289 111.176 767.74 111.176C768.32 111.176 768.823 111.302 769.248 111.553C769.681 111.796 770.015 112.138 770.249 112.58C770.491 113.013 770.613 113.52 770.613 114.101C770.613 114.699 770.478 115.228 770.21 115.687C769.941 116.138 769.555 116.493 769.053 116.753C768.559 117.004 767.969 117.13 767.285 117.13ZM774.3 117.13C773.979 117.13 773.654 117.087 773.325 117C773.004 116.922 772.696 116.805 772.402 116.649C772.116 116.493 771.856 116.307 771.622 116.09L772.181 114.842C772.493 115.137 772.831 115.358 773.195 115.505C773.567 115.652 773.94 115.726 774.313 115.726C774.694 115.726 775.028 115.661 775.314 115.531C775.608 115.392 775.855 115.193 776.055 114.933C776.254 114.664 776.401 114.335 776.497 113.945C776.601 113.546 776.653 113.087 776.653 112.567V111.592H776.796C776.735 112.025 776.592 112.402 776.367 112.723C776.141 113.044 775.855 113.291 775.509 113.464C775.171 113.629 774.785 113.711 774.352 113.711C773.832 113.711 773.368 113.585 772.961 113.334C772.553 113.083 772.228 112.736 771.986 112.294C771.752 111.843 771.635 111.336 771.635 110.773C771.635 110.175 771.765 109.646 772.025 109.187C772.285 108.728 772.64 108.368 773.091 108.108C773.55 107.839 774.074 107.705 774.664 107.705C775.426 107.705 776.072 107.883 776.601 108.238C777.129 108.593 777.532 109.113 777.81 109.798C778.087 110.474 778.226 111.293 778.226 112.255C778.226 113.286 778.07 114.166 777.758 114.894C777.446 115.622 776.995 116.177 776.406 116.558C775.825 116.939 775.123 117.13 774.3 117.13ZM774.768 112.385C775.08 112.385 775.353 112.316 775.587 112.177C775.829 112.038 776.016 111.843 776.146 111.592C776.276 111.332 776.341 111.037 776.341 110.708C776.341 110.37 776.276 110.075 776.146 109.824C776.016 109.573 775.829 109.378 775.587 109.239C775.353 109.092 775.08 109.018 774.768 109.018C774.456 109.018 774.183 109.092 773.949 109.239C773.715 109.378 773.528 109.573 773.39 109.824C773.26 110.075 773.195 110.37 773.195 110.708C773.195 111.037 773.26 111.332 773.39 111.592C773.528 111.843 773.715 112.038 773.949 112.177C774.183 112.316 774.456 112.385 774.768 112.385ZM779.598 117V115.193H781.418V117H779.598ZM786.021 117.13C785.302 117.13 784.691 116.948 784.188 116.584C783.694 116.211 783.317 115.674 783.057 114.972C782.806 114.27 782.68 113.412 782.68 112.398C782.68 111.375 782.806 110.517 783.057 109.824C783.317 109.122 783.694 108.593 784.188 108.238C784.691 107.883 785.302 107.705 786.021 107.705C786.749 107.705 787.36 107.883 787.854 108.238C788.357 108.593 788.734 109.118 788.985 109.811C789.236 110.504 789.362 111.362 789.362 112.385C789.362 113.399 789.232 114.261 788.972 114.972C788.721 115.674 788.348 116.211 787.854 116.584C787.36 116.948 786.749 117.13 786.021 117.13ZM786.021 115.765C786.61 115.765 787.044 115.496 787.321 114.959C787.607 114.413 787.75 113.555 787.75 112.385C787.75 111.224 787.607 110.383 787.321 109.863C787.044 109.334 786.61 109.07 786.021 109.07C785.44 109.07 785.007 109.334 784.721 109.863C784.435 110.383 784.292 111.228 784.292 112.398C784.292 113.559 784.435 114.413 784.721 114.959C785.007 115.496 785.44 115.765 786.021 115.765ZM793.816 117.13C793.097 117.13 792.486 116.948 791.983 116.584C791.489 116.211 791.112 115.674 790.852 114.972C790.601 114.27 790.475 113.412 790.475 112.398C790.475 111.375 790.601 110.517 790.852 109.824C791.112 109.122 791.489 108.593 791.983 108.238C792.486 107.883 793.097 107.705 793.816 107.705C794.544 107.705 795.155 107.883 795.649 108.238C796.152 108.593 796.529 109.118 796.78 109.811C797.031 110.504 797.157 111.362 797.157 112.385C797.157 113.399 797.027 114.261 796.767 114.972C796.516 115.674 796.143 116.211 795.649 116.584C795.155 116.948 794.544 117.13 793.816 117.13ZM793.816 115.765C794.405 115.765 794.839 115.496 795.116 114.959C795.402 114.413 795.545 113.555 795.545 112.385C795.545 111.224 795.402 110.383 795.116 109.863C794.839 109.334 794.405 109.07 793.816 109.07C793.235 109.07 792.802 109.334 792.516 109.863C792.23 110.383 792.087 111.228 792.087 112.398C792.087 113.559 792.23 114.413 792.516 114.959C792.802 115.496 793.235 115.765 793.816 115.765ZM801.715 117.364L800.649 116.74L806.005 107.471L807.058 108.095L801.715 117.364ZM800.597 113.308C800.112 113.308 799.696 113.195 799.349 112.97C799.002 112.745 798.738 112.424 798.556 112.008C798.374 111.583 798.283 111.081 798.283 110.5C798.283 109.633 798.487 108.953 798.894 108.459C799.301 107.956 799.869 107.705 800.597 107.705C801.082 107.705 801.498 107.818 801.845 108.043C802.192 108.268 802.456 108.589 802.638 109.005C802.82 109.421 802.911 109.919 802.911 110.5C802.911 111.081 802.82 111.583 802.638 112.008C802.456 112.424 802.192 112.745 801.845 112.97C801.498 113.195 801.082 113.308 800.597 113.308ZM800.597 112.216C800.909 112.216 801.152 112.077 801.325 111.8C801.498 111.514 801.585 111.081 801.585 110.5C801.585 109.919 801.498 109.49 801.325 109.213C801.152 108.936 800.909 108.797 800.597 108.797C800.285 108.797 800.042 108.936 799.869 109.213C799.696 109.482 799.609 109.911 799.609 110.5C799.609 111.089 799.696 111.523 799.869 111.8C800.042 112.077 800.285 112.216 800.597 112.216ZM807.123 117.13C806.638 117.13 806.222 117.017 805.875 116.792C805.528 116.567 805.264 116.246 805.082 115.83C804.9 115.405 804.809 114.903 804.809 114.322C804.809 113.455 805.013 112.775 805.42 112.281C805.827 111.778 806.395 111.527 807.123 111.527C807.608 111.527 808.024 111.64 808.371 111.865C808.718 112.09 808.982 112.411 809.164 112.827C809.346 113.243 809.437 113.741 809.437 114.322C809.437 114.903 809.346 115.405 809.164 115.83C808.982 116.246 808.718 116.567 808.371 116.792C808.024 117.017 807.608 117.13 807.123 117.13ZM807.123 116.038C807.435 116.038 807.678 115.899 807.851 115.622C808.024 115.336 808.111 114.903 808.111 114.322C808.111 113.741 808.024 113.312 807.851 113.035C807.678 112.758 807.435 112.619 807.123 112.619C806.811 112.619 806.568 112.758 806.395 113.035C806.222 113.304 806.135 113.733 806.135 114.322C806.135 114.911 806.222 115.345 806.395 115.622C806.568 115.899 806.811 116.038 807.123 116.038Z" fill="white"/>
<defs>
<filter id="filter0_d_1103_34156" x="1" y="184.522" width="762.344" height="81.3955" filterUnits="userSpaceOnUse" color-interpolation-filters="sRGB">
<feFlood flood-opacity="0" result="BackgroundImageFix"/>
<feColorMatrix in="SourceAlpha" type="matrix" values="0 0 0 0 0 0 0 0 0 0 0 0 0 0 0 0 0 0 127 0" result="hardAlpha"/>
<feOffset/>
<feGaussianBlur stdDeviation="4"/>
<feComposite in2="hardAlpha" operator="out"/>
<feColorMatrix type="matrix" values="0 0 0 0 0.415686 0 0 0 0 0.647059 0 0 0 0 1 0 0 0 0.24 0"/>
<feBlend mode="normal" in2="BackgroundImageFix" result="effect1_dropShadow_1103_34156"/>
<feBlend mode="normal" in="SourceGraphic" in2="effect1_dropShadow_1103_34156" result="shape"/>
</filter>
<filter id="filter1_d_1103_34156" x="1" y="115.25" width="762.533" height="141.664" filterUnits="userSpaceOnUse" color-interpolation-filters="sRGB">
<feFlood flood-opacity="0" result="BackgroundImageFix"/>
<feColorMatrix in="SourceAlpha" type="matrix" values="0 0 0 0 0 0 0 0 0 0 0 0 0 0 0 0 0 0 127 0" result="hardAlpha"/>
<feOffset/>
<feGaussianBlur stdDeviation="4"/>
<feComposite in2="hardAlpha" operator="out"/>
<feColorMatrix type="matrix" values="0 0 0 0 0.309804 0 0 0 0 0.317647 0 0 0 0 0.337255 0 0 0 0.24 0"/>
<feBlend mode="normal" in2="BackgroundImageFix" result="effect1_dropShadow_1103_34156"/>
<feBlend mode="normal" in="SourceGraphic" in2="effect1_dropShadow_1103_34156" result="shape"/>
</filter>
<filter id="filter2_d_1103_34156" x="0.606445" y="6.70996" width="763.076" height="190.59" filterUnits="userSpaceOnUse" color-interpolation-filters="sRGB">
<feFlood flood-opacity="0" result="BackgroundImageFix"/>
<feColorMatrix in="SourceAlpha" type="matrix" values="0 0 0 0 0 0 0 0 0 0 0 0 0 0 0 0 0 0 127 0" result="hardAlpha"/>
<feOffset/>
<feGaussianBlur stdDeviation="4"/>
<feComposite in2="hardAlpha" operator="out"/>
<feColorMatrix type="matrix" values="0 0 0 0 1 0 0 0 0 0.658824 0 0 0 0 0 0 0 0 0.24 0"/>
<feBlend mode="normal" in2="BackgroundImageFix" result="effect1_dropShadow_1103_34156"/>
<feBlend mode="normal" in="SourceGraphic" in2="effect1_dropShadow_1103_34156" result="shape"/>
</filter>
</defs>
</svg>
