<svg width="1032" height="285" viewBox="0 0 1032 285" fill="none" xmlns="http://www.w3.org/2000/svg">
<rect x="36" y="9" width="965" height="48" fill="#6AA5FF" fill-opacity="0.16"/>
<rect x="36" y="209" width="965" height="48" fill="#FFA800" fill-opacity="0.16"/>
<rect x="36" y="7" width="965" height="2" fill="white" fill-opacity="0.04"/>
<rect x="36" y="57" width="965" height="2" fill="white" fill-opacity="0.04"/>
<rect x="36" y="107" width="965" height="2" fill="white" fill-opacity="0.04"/>
<rect x="36" y="157" width="965" height="2" fill="white" fill-opacity="0.04"/>
<rect x="36" y="207" width="965" height="2" fill="white" fill-opacity="0.08"/>
<rect x="36" y="257" width="965" height="2" fill="white" fill-opacity="0.16"/>
<path d="M1018.57 212V210.86L1021.31 207.944C1021.55 207.68 1021.75 207.436 1021.89 207.212C1022.05 206.988 1022.16 206.772 1022.23 206.564C1022.3 206.356 1022.34 206.148 1022.34 205.94C1022.34 205.54 1022.21 205.236 1021.95 205.028C1021.71 204.82 1021.34 204.716 1020.86 204.716C1020.49 204.716 1020.12 204.788 1019.76 204.932C1019.41 205.068 1019.07 205.284 1018.74 205.58L1018.22 204.428C1018.56 204.124 1018.98 203.88 1019.48 203.696C1019.99 203.512 1020.51 203.42 1021.05 203.42C1021.66 203.42 1022.17 203.512 1022.59 203.696C1023.01 203.88 1023.32 204.148 1023.54 204.5C1023.75 204.852 1023.86 205.28 1023.86 205.784C1023.86 206.04 1023.83 206.292 1023.77 206.54C1023.71 206.78 1023.62 207.02 1023.49 207.26C1023.37 207.5 1023.21 207.748 1023.02 208.004C1022.84 208.252 1022.61 208.512 1022.35 208.784L1020.09 211.136V210.728H1024.19V212H1018.57ZM1028.4 212.12C1027.74 212.12 1027.18 211.952 1026.71 211.616C1026.26 211.272 1025.91 210.776 1025.67 210.128C1025.44 209.48 1025.32 208.688 1025.32 207.752C1025.32 206.808 1025.44 206.016 1025.67 205.376C1025.91 204.728 1026.26 204.24 1026.71 203.912C1027.18 203.584 1027.74 203.42 1028.4 203.42C1029.08 203.42 1029.64 203.584 1030.1 203.912C1030.56 204.24 1030.91 204.724 1031.14 205.364C1031.37 206.004 1031.49 206.796 1031.49 207.74C1031.49 208.676 1031.37 209.472 1031.13 210.128C1030.9 210.776 1030.55 211.272 1030.1 211.616C1029.64 211.952 1029.08 212.12 1028.4 212.12ZM1028.4 210.86C1028.95 210.86 1029.35 210.612 1029.6 210.116C1029.87 209.612 1030 208.82 1030 207.74C1030 206.668 1029.87 205.892 1029.6 205.412C1029.35 204.924 1028.95 204.68 1028.4 204.68C1027.87 204.68 1027.47 204.924 1027.2 205.412C1026.94 205.892 1026.81 206.672 1026.81 207.752C1026.81 208.824 1026.94 209.612 1027.2 210.116C1027.47 210.612 1027.87 210.86 1028.4 210.86Z" fill="#808283"/>
<path d="M1012.23 262L1016.06 253.54H1017.32L1021.15 262H1019.59L1018.57 259.624L1019.21 260.044H1014.15L1014.8 259.624L1013.79 262H1012.23ZM1016.67 255.208L1014.99 259.204L1014.68 258.82H1018.69L1018.39 259.204L1016.69 255.208H1016.67ZM1024.89 262.12C1024.45 262.12 1024.03 262.08 1023.62 262C1023.22 261.928 1022.85 261.82 1022.51 261.676C1022.17 261.532 1021.87 261.36 1021.61 261.16L1022.07 259.948C1022.34 260.132 1022.61 260.292 1022.9 260.428C1023.2 260.556 1023.51 260.656 1023.84 260.728C1024.17 260.792 1024.53 260.824 1024.89 260.824C1025.53 260.824 1025.99 260.72 1026.27 260.512C1026.56 260.296 1026.71 260.02 1026.71 259.684C1026.71 259.5 1026.66 259.344 1026.57 259.216C1026.49 259.08 1026.34 258.964 1026.14 258.868C1025.94 258.772 1025.68 258.692 1025.35 258.628L1024.03 258.352C1023.27 258.192 1022.7 257.924 1022.33 257.548C1021.96 257.164 1021.77 256.66 1021.77 256.036C1021.77 255.508 1021.91 255.048 1022.19 254.656C1022.47 254.264 1022.86 253.96 1023.36 253.744C1023.85 253.528 1024.43 253.42 1025.07 253.42C1025.46 253.42 1025.83 253.46 1026.18 253.54C1026.54 253.612 1026.87 253.724 1027.16 253.876C1027.47 254.02 1027.73 254.196 1027.95 254.404L1027.49 255.556C1027.15 255.276 1026.78 255.068 1026.38 254.932C1025.98 254.788 1025.54 254.716 1025.06 254.716C1024.69 254.716 1024.38 254.768 1024.11 254.872C1023.85 254.976 1023.65 255.124 1023.5 255.316C1023.37 255.5 1023.3 255.72 1023.3 255.976C1023.3 256.264 1023.39 256.496 1023.59 256.672C1023.78 256.84 1024.11 256.972 1024.57 257.068L1025.88 257.344C1026.67 257.512 1027.26 257.776 1027.64 258.136C1028.03 258.496 1028.23 258.976 1028.23 259.576C1028.23 260.08 1028.09 260.524 1027.82 260.908C1027.55 261.292 1027.16 261.592 1026.66 261.808C1026.16 262.016 1025.57 262.12 1024.89 262.12ZM1029.55 262V253.54H1031.09V262H1029.55Z" fill="#808283"/>
<path d="M1021.8 162V160.392H1018.11V159.264L1022.06 153.54H1023.33V159.12H1024.52V160.392H1023.33V162H1021.8ZM1021.8 159.12V155.376H1022.15L1019.31 159.528V159.12H1021.8ZM1028.4 162.12C1027.74 162.12 1027.18 161.952 1026.71 161.616C1026.26 161.272 1025.91 160.776 1025.67 160.128C1025.44 159.48 1025.32 158.688 1025.32 157.752C1025.32 156.808 1025.44 156.016 1025.67 155.376C1025.91 154.728 1026.26 154.24 1026.71 153.912C1027.18 153.584 1027.74 153.42 1028.4 153.42C1029.08 153.42 1029.64 153.584 1030.1 153.912C1030.56 154.24 1030.91 154.724 1031.14 155.364C1031.37 156.004 1031.49 156.796 1031.49 157.74C1031.49 158.676 1031.37 159.472 1031.13 160.128C1030.9 160.776 1030.55 161.272 1030.1 161.616C1029.64 161.952 1029.08 162.12 1028.4 162.12ZM1028.4 160.86C1028.95 160.86 1029.35 160.612 1029.6 160.116C1029.87 159.612 1030 158.82 1030 157.74C1030 156.668 1029.87 155.892 1029.6 155.412C1029.35 154.924 1028.95 154.68 1028.4 154.68C1027.87 154.68 1027.47 154.924 1027.2 155.412C1026.94 155.892 1026.81 156.672 1026.81 157.752C1026.81 158.824 1026.94 159.612 1027.2 160.116C1027.47 160.612 1027.87 160.86 1028.4 160.86Z" fill="#808283"/>
<path d="M1021.52 112.12C1020.83 112.12 1020.23 111.956 1019.73 111.628C1019.25 111.292 1018.87 110.812 1018.62 110.188C1018.36 109.564 1018.23 108.808 1018.23 107.92C1018.23 106.96 1018.38 106.148 1018.67 105.484C1018.95 104.812 1019.37 104.3 1019.91 103.948C1020.46 103.596 1021.11 103.42 1021.87 103.42C1022.17 103.42 1022.46 103.46 1022.76 103.54C1023.06 103.612 1023.35 103.72 1023.61 103.864C1023.88 104 1024.12 104.168 1024.33 104.368L1023.83 105.52C1023.53 105.248 1023.21 105.048 1022.88 104.92C1022.54 104.784 1022.2 104.716 1021.85 104.716C1021.5 104.716 1021.19 104.78 1020.92 104.908C1020.66 105.028 1020.43 105.212 1020.25 105.46C1020.07 105.7 1019.93 106.004 1019.83 106.372C1019.74 106.732 1019.7 107.152 1019.7 107.632V108.532H1019.55C1019.62 108.124 1019.75 107.776 1019.95 107.488C1020.16 107.192 1020.42 106.968 1020.74 106.816C1021.06 106.656 1021.42 106.576 1021.81 106.576C1022.3 106.576 1022.73 106.692 1023.11 106.924C1023.48 107.156 1023.78 107.476 1023.99 107.884C1024.21 108.292 1024.32 108.76 1024.32 109.288C1024.32 109.832 1024.2 110.32 1023.96 110.752C1023.73 111.176 1023.4 111.512 1022.97 111.76C1022.56 112 1022.07 112.12 1021.52 112.12ZM1021.44 110.896C1021.73 110.896 1021.98 110.832 1022.19 110.704C1022.42 110.576 1022.59 110.396 1022.71 110.164C1022.83 109.924 1022.89 109.652 1022.89 109.348C1022.89 109.036 1022.83 108.764 1022.71 108.532C1022.59 108.3 1022.42 108.12 1022.19 107.992C1021.98 107.856 1021.73 107.788 1021.44 107.788C1021.15 107.788 1020.9 107.856 1020.68 107.992C1020.47 108.12 1020.29 108.3 1020.17 108.532C1020.05 108.764 1019.99 109.036 1019.99 109.348C1019.99 109.652 1020.05 109.924 1020.17 110.164C1020.29 110.396 1020.47 110.576 1020.68 110.704C1020.9 110.832 1021.15 110.896 1021.44 110.896ZM1028.4 112.12C1027.74 112.12 1027.18 111.952 1026.71 111.616C1026.26 111.272 1025.91 110.776 1025.67 110.128C1025.44 109.48 1025.32 108.688 1025.32 107.752C1025.32 106.808 1025.44 106.016 1025.67 105.376C1025.91 104.728 1026.26 104.24 1026.71 103.912C1027.18 103.584 1027.74 103.42 1028.4 103.42C1029.08 103.42 1029.64 103.584 1030.1 103.912C1030.56 104.24 1030.91 104.724 1031.14 105.364C1031.37 106.004 1031.49 106.796 1031.49 107.74C1031.49 108.676 1031.37 109.472 1031.13 110.128C1030.9 110.776 1030.55 111.272 1030.1 111.616C1029.64 111.952 1029.08 112.12 1028.4 112.12ZM1028.4 110.86C1028.95 110.86 1029.35 110.612 1029.6 110.116C1029.87 109.612 1030 108.82 1030 107.74C1030 106.668 1029.87 105.892 1029.6 105.412C1029.35 104.924 1028.95 104.68 1028.4 104.68C1027.87 104.68 1027.47 104.924 1027.2 105.412C1026.94 105.892 1026.81 106.672 1026.81 107.752C1026.81 108.824 1026.94 109.612 1027.2 110.116C1027.47 110.612 1027.87 110.86 1028.4 110.86Z" fill="#808283"/>
<path d="M1021.21 62.12C1020.23 62.12 1019.45 61.908 1018.89 61.484C1018.34 61.06 1018.07 60.472 1018.07 59.72C1018.07 59.32 1018.15 58.968 1018.31 58.664C1018.47 58.352 1018.7 58.1 1018.99 57.908C1019.28 57.716 1019.61 57.596 1019.97 57.548V57.8C1019.64 57.728 1019.34 57.596 1019.09 57.404C1018.83 57.204 1018.63 56.96 1018.49 56.672C1018.35 56.376 1018.28 56.052 1018.28 55.7C1018.28 54.988 1018.55 54.432 1019.07 54.032C1019.6 53.624 1020.32 53.42 1021.22 53.42C1022.12 53.42 1022.83 53.624 1023.36 54.032C1023.89 54.432 1024.15 54.988 1024.15 55.7C1024.15 56.052 1024.08 56.376 1023.93 56.672C1023.8 56.968 1023.6 57.212 1023.35 57.404C1023.1 57.596 1022.81 57.724 1022.47 57.788V57.548C1022.85 57.596 1023.17 57.72 1023.45 57.92C1023.73 58.112 1023.95 58.364 1024.11 58.676C1024.27 58.98 1024.35 59.328 1024.35 59.72C1024.35 60.472 1024.07 61.06 1023.51 61.484C1022.96 61.908 1022.19 62.12 1021.21 62.12ZM1021.21 60.92C1021.78 60.92 1022.21 60.812 1022.49 60.596C1022.78 60.372 1022.93 60.044 1022.93 59.612C1022.93 59.18 1022.78 58.856 1022.49 58.64C1022.21 58.424 1021.78 58.316 1021.21 58.316C1020.65 58.316 1020.22 58.424 1019.93 58.64C1019.64 58.856 1019.49 59.18 1019.49 59.612C1019.49 60.044 1019.64 60.372 1019.93 60.596C1020.22 60.812 1020.65 60.92 1021.21 60.92ZM1021.21 57.116C1021.68 57.116 1022.05 57.004 1022.31 56.78C1022.59 56.556 1022.72 56.248 1022.72 55.856C1022.72 55.472 1022.59 55.172 1022.31 54.956C1022.05 54.732 1021.68 54.62 1021.21 54.62C1020.74 54.62 1020.37 54.732 1020.11 54.956C1019.84 55.172 1019.71 55.476 1019.71 55.868C1019.71 56.252 1019.84 56.556 1020.11 56.78C1020.37 57.004 1020.74 57.116 1021.21 57.116ZM1028.4 62.12C1027.74 62.12 1027.18 61.952 1026.71 61.616C1026.26 61.272 1025.91 60.776 1025.67 60.128C1025.44 59.48 1025.32 58.688 1025.32 57.752C1025.32 56.808 1025.44 56.016 1025.67 55.376C1025.91 54.728 1026.26 54.24 1026.71 53.912C1027.18 53.584 1027.74 53.42 1028.4 53.42C1029.08 53.42 1029.64 53.584 1030.1 53.912C1030.56 54.24 1030.91 54.724 1031.14 55.364C1031.37 56.004 1031.49 56.796 1031.49 57.74C1031.49 58.676 1031.37 59.472 1031.13 60.128C1030.9 60.776 1030.55 61.272 1030.1 61.616C1029.64 61.952 1029.08 62.12 1028.4 62.12ZM1028.4 60.86C1028.95 60.86 1029.35 60.612 1029.6 60.116C1029.87 59.612 1030 58.82 1030 57.74C1030 56.668 1029.87 55.892 1029.6 55.412C1029.35 54.924 1028.95 54.68 1028.4 54.68C1027.87 54.68 1027.47 54.924 1027.2 55.412C1026.94 55.892 1026.81 56.672 1026.81 57.752C1026.81 58.824 1026.94 59.612 1027.2 60.116C1027.47 60.612 1027.87 60.86 1028.4 60.86Z" fill="#808283"/>
<path d="M1011.72 12V10.728H1013.63V4.836H1014.37L1012.15 6.18L1011.55 5.052L1014.07 3.54H1015.17V10.728H1016.95V12H1011.72ZM1021.21 12.12C1020.55 12.12 1019.98 11.952 1019.52 11.616C1019.06 11.272 1018.71 10.776 1018.47 10.128C1018.24 9.48 1018.13 8.688 1018.13 7.752C1018.13 6.808 1018.24 6.016 1018.47 5.376C1018.71 4.728 1019.06 4.24 1019.52 3.912C1019.98 3.584 1020.55 3.42 1021.21 3.42C1021.88 3.42 1022.45 3.584 1022.9 3.912C1023.37 4.24 1023.71 4.724 1023.95 5.364C1024.18 6.004 1024.29 6.796 1024.29 7.74C1024.29 8.676 1024.17 9.472 1023.93 10.128C1023.7 10.776 1023.36 11.272 1022.9 11.616C1022.45 11.952 1021.88 12.12 1021.21 12.12ZM1021.21 10.86C1021.75 10.86 1022.15 10.612 1022.41 10.116C1022.67 9.612 1022.81 8.82 1022.81 7.74C1022.81 6.668 1022.67 5.892 1022.41 5.412C1022.15 4.924 1021.75 4.68 1021.21 4.68C1020.67 4.68 1020.27 4.924 1020.01 5.412C1019.75 5.892 1019.61 6.672 1019.61 7.752C1019.61 8.824 1019.75 9.612 1020.01 10.116C1020.27 10.612 1020.67 10.86 1021.21 10.86ZM1028.4 12.12C1027.74 12.12 1027.18 11.952 1026.71 11.616C1026.26 11.272 1025.91 10.776 1025.67 10.128C1025.44 9.48 1025.32 8.688 1025.32 7.752C1025.32 6.808 1025.44 6.016 1025.67 5.376C1025.91 4.728 1026.26 4.24 1026.71 3.912C1027.18 3.584 1027.74 3.42 1028.4 3.42C1029.08 3.42 1029.64 3.584 1030.1 3.912C1030.56 4.24 1030.91 4.724 1031.14 5.364C1031.37 6.004 1031.49 6.796 1031.49 7.74C1031.49 8.676 1031.37 9.472 1031.13 10.128C1030.9 10.776 1030.55 11.272 1030.1 11.616C1029.64 11.952 1029.08 12.12 1028.4 12.12ZM1028.4 10.86C1028.95 10.86 1029.35 10.612 1029.6 10.116C1029.87 9.612 1030 8.82 1030 7.74C1030 6.668 1029.87 5.892 1029.6 5.412C1029.35 4.924 1028.95 4.68 1028.4 4.68C1027.87 4.68 1027.47 4.924 1027.2 5.412C1026.94 5.892 1026.81 6.672 1026.81 7.752C1026.81 8.824 1026.94 9.612 1027.2 10.116C1027.47 10.612 1027.87 10.86 1028.4 10.86Z" fill="#808283"/>
<path d="M1.308 212V210.728H3.216V204.836H3.96L1.74 206.18L1.14 205.052L3.66 203.54H4.752V210.728H6.54V212H1.308ZM10.7953 212.12C10.1313 212.12 9.56731 211.952 9.10331 211.616C8.64731 211.272 8.29931 210.776 8.05931 210.128C7.82731 209.48 7.71131 208.688 7.71131 207.752C7.71131 206.808 7.82731 206.016 8.05931 205.376C8.29931 204.728 8.64731 204.24 9.10331 203.912C9.56731 203.584 10.1313 203.42 10.7953 203.42C11.4673 203.42 12.0313 203.584 12.4873 203.912C12.9513 204.24 13.2993 204.724 13.5313 205.364C13.7633 206.004 13.8793 206.796 13.8793 207.74C13.8793 208.676 13.7593 209.472 13.5193 210.128C13.2873 210.776 12.9433 211.272 12.4873 211.616C12.0313 211.952 11.4673 212.12 10.7953 212.12ZM10.7953 210.86C11.3393 210.86 11.7393 210.612 11.9953 210.116C12.2593 209.612 12.3913 208.82 12.3913 207.74C12.3913 206.668 12.2593 205.892 11.9953 205.412C11.7393 204.924 11.3393 204.68 10.7953 204.68C10.2593 204.68 9.85931 204.924 9.59531 205.412C9.33131 205.892 9.19931 206.672 9.19931 207.752C9.19931 208.824 9.33131 209.612 9.59531 210.116C9.85931 210.612 10.2593 210.86 10.7953 210.86ZM18.0626 212.12C17.6946 212.12 17.3306 212.08 16.9706 212C16.6186 211.92 16.2866 211.808 15.9746 211.664C15.6706 211.52 15.4066 211.352 15.1826 211.16L15.6866 209.984C16.0546 210.264 16.4346 210.476 16.8266 210.62C17.2186 210.756 17.6226 210.824 18.0386 210.824C18.5426 210.824 18.9346 210.696 19.2146 210.44C19.5026 210.176 19.6466 209.824 19.6466 209.384C19.6466 208.936 19.5106 208.576 19.2386 208.304C18.9666 208.024 18.5946 207.884 18.1226 207.884C17.7786 207.884 17.4706 207.952 17.1986 208.088C16.9266 208.216 16.6786 208.416 16.4546 208.688H15.4226V203.54H20.6186V204.812H16.9226V207.5H16.5266C16.7346 207.22 17.0066 207.004 17.3426 206.852C17.6866 206.7 18.0666 206.624 18.4826 206.624C19.0186 206.624 19.4826 206.74 19.8746 206.972C20.2746 207.196 20.5826 207.512 20.7986 207.92C21.0226 208.32 21.1346 208.788 21.1346 209.324C21.1346 209.876 21.0106 210.364 20.7626 210.788C20.5146 211.204 20.1586 211.532 19.6946 211.772C19.2386 212.004 18.6946 212.12 18.0626 212.12ZM24.5499 212V204.824H21.6459V203.54H28.9899V204.824H26.0859V212H24.5499Z" fill="#808283"/>
<path d="M0.012 262L3.84 253.54H5.1L8.928 262H7.368L6.348 259.624L6.996 260.044H1.932L2.58 259.624L1.572 262H0.012ZM4.452 255.208L2.772 259.204L2.46 258.82H6.468L6.168 259.204L4.476 255.208H4.452ZM9.87769 262V253.54H11.1617L14.3537 259.432H13.9697L17.1497 253.54H18.4097V262H17.0177V255.82H17.2817L14.5937 260.716H13.6937L10.9817 255.808H11.2697V262H9.87769ZM24.2077 262.12C23.3277 262.12 22.5717 261.944 21.9397 261.592C21.3157 261.232 20.8357 260.728 20.4997 260.08C20.1637 259.424 19.9957 258.652 19.9957 257.764C19.9957 256.876 20.1637 256.108 20.4997 255.46C20.8357 254.812 21.3157 254.312 21.9397 253.96C22.5717 253.6 23.3277 253.42 24.2077 253.42C24.7757 253.42 25.3117 253.508 25.8157 253.684C26.3277 253.86 26.7477 254.112 27.0757 254.44L26.5717 255.664C26.2117 255.36 25.8437 255.14 25.4677 255.004C25.0917 254.86 24.6877 254.788 24.2557 254.788C23.3997 254.788 22.7477 255.048 22.2997 255.568C21.8517 256.08 21.6277 256.812 21.6277 257.764C21.6277 258.716 21.8517 259.452 22.2997 259.972C22.7477 260.492 23.3997 260.752 24.2557 260.752C24.6877 260.752 25.0917 260.684 25.4677 260.548C25.8437 260.404 26.2117 260.18 26.5717 259.876L27.0757 261.1C26.7477 261.42 26.3277 261.672 25.8157 261.856C25.3117 262.032 24.7757 262.12 24.2077 262.12Z" fill="#808283"/>
<path d="M1.308 162V160.728H3.216V154.836H3.96L1.74 156.18L1.14 155.052L3.66 153.54H4.752V160.728H6.54V162H1.308ZM8.15531 162V160.86L10.8913 157.944C11.1393 157.68 11.3353 157.436 11.4793 157.212C11.6313 156.988 11.7433 156.772 11.8153 156.564C11.8873 156.356 11.9233 156.148 11.9233 155.94C11.9233 155.54 11.7953 155.236 11.5393 155.028C11.2913 154.82 10.9273 154.716 10.4473 154.716C10.0713 154.716 9.70331 154.788 9.34331 154.932C8.99131 155.068 8.65131 155.284 8.32331 155.58L7.80731 154.428C8.14331 154.124 8.56331 153.88 9.06731 153.696C9.57131 153.512 10.0953 153.42 10.6393 153.42C11.2473 153.42 11.7593 153.512 12.1753 153.696C12.5913 153.88 12.9073 154.148 13.1233 154.5C13.3393 154.852 13.4473 155.28 13.4473 155.784C13.4473 156.04 13.4153 156.292 13.3513 156.54C13.2953 156.78 13.2033 157.02 13.0753 157.26C12.9553 157.5 12.7993 157.748 12.6073 158.004C12.4233 158.252 12.1993 158.512 11.9353 158.784L9.67931 161.136V160.728H13.7713V162H8.15531ZM17.9906 162.12C17.3266 162.12 16.7626 161.952 16.2986 161.616C15.8426 161.272 15.4946 160.776 15.2546 160.128C15.0226 159.48 14.9066 158.688 14.9066 157.752C14.9066 156.808 15.0226 156.016 15.2546 155.376C15.4946 154.728 15.8426 154.24 16.2986 153.912C16.7626 153.584 17.3266 153.42 17.9906 153.42C18.6626 153.42 19.2266 153.584 19.6826 153.912C20.1466 154.24 20.4946 154.724 20.7266 155.364C20.9586 156.004 21.0746 156.796 21.0746 157.74C21.0746 158.676 20.9546 159.472 20.7146 160.128C20.4826 160.776 20.1386 161.272 19.6826 161.616C19.2266 161.952 18.6626 162.12 17.9906 162.12ZM17.9906 160.86C18.5346 160.86 18.9346 160.612 19.1906 160.116C19.4546 159.612 19.5866 158.82 19.5866 157.74C19.5866 156.668 19.4546 155.892 19.1906 155.412C18.9346 154.924 18.5346 154.68 17.9906 154.68C17.4546 154.68 17.0546 154.924 16.7906 155.412C16.5266 155.892 16.3946 156.672 16.3946 157.752C16.3946 158.824 16.5266 159.612 16.7906 160.116C17.0546 160.612 17.4546 160.86 17.9906 160.86ZM24.5499 162V154.824H21.6459V153.54H28.9899V154.824H26.0859V162H24.5499Z" fill="#808283"/>
<path d="M1.308 112V110.728H3.216V104.836H3.96L1.74 106.18L1.14 105.052L3.66 103.54H4.752V110.728H6.54V112H1.308ZM10.6273 112.12C10.2433 112.12 9.86731 112.08 9.49931 112C9.13931 111.928 8.80331 111.82 8.49131 111.676C8.17931 111.532 7.90731 111.36 7.67531 111.16L8.17931 109.984C8.55531 110.272 8.93931 110.484 9.33131 110.62C9.72331 110.756 10.1393 110.824 10.5793 110.824C10.9313 110.824 11.2273 110.776 11.4673 110.68C11.7073 110.584 11.8873 110.44 12.0073 110.248C12.1353 110.056 12.1993 109.824 12.1993 109.552C12.1993 109.152 12.0633 108.856 11.7913 108.664C11.5273 108.464 11.1393 108.364 10.6273 108.364H9.27131V107.092H10.4833C10.7873 107.092 11.0473 107.044 11.2633 106.948C11.4793 106.844 11.6473 106.7 11.7673 106.516C11.8873 106.332 11.9473 106.108 11.9473 105.844C11.9473 105.476 11.8233 105.196 11.5753 105.004C11.3353 104.812 10.9833 104.716 10.5193 104.716C10.1033 104.716 9.71531 104.788 9.35531 104.932C8.99531 105.068 8.65131 105.284 8.32331 105.58L7.81931 104.428C8.15531 104.108 8.57531 103.86 9.07931 103.684C9.58331 103.508 10.1073 103.42 10.6513 103.42C11.2353 103.42 11.7353 103.512 12.1513 103.696C12.5673 103.872 12.8833 104.128 13.0993 104.464C13.3233 104.792 13.4353 105.192 13.4353 105.664C13.4353 106.168 13.2953 106.604 13.0153 106.972C12.7353 107.332 12.3513 107.572 11.8633 107.692V107.548C12.2473 107.612 12.5753 107.74 12.8473 107.932C13.1193 108.124 13.3273 108.368 13.4713 108.664C13.6153 108.96 13.6873 109.3 13.6873 109.684C13.6873 110.18 13.5633 110.612 13.3153 110.98C13.0673 111.348 12.7153 111.632 12.2593 111.832C11.8033 112.024 11.2593 112.12 10.6273 112.12ZM18.0626 112.12C17.6946 112.12 17.3306 112.08 16.9706 112C16.6186 111.92 16.2866 111.808 15.9746 111.664C15.6706 111.52 15.4066 111.352 15.1826 111.16L15.6866 109.984C16.0546 110.264 16.4346 110.476 16.8266 110.62C17.2186 110.756 17.6226 110.824 18.0386 110.824C18.5426 110.824 18.9346 110.696 19.2146 110.44C19.5026 110.176 19.6466 109.824 19.6466 109.384C19.6466 108.936 19.5106 108.576 19.2386 108.304C18.9666 108.024 18.5946 107.884 18.1226 107.884C17.7786 107.884 17.4706 107.952 17.1986 108.088C16.9266 108.216 16.6786 108.416 16.4546 108.688H15.4226V103.54H20.6186V104.812H16.9226V107.5H16.5266C16.7346 107.22 17.0066 107.004 17.3426 106.852C17.6866 106.7 18.0666 106.624 18.4826 106.624C19.0186 106.624 19.4826 106.74 19.8746 106.972C20.2746 107.196 20.5826 107.512 20.7986 107.92C21.0226 108.32 21.1346 108.788 21.1346 109.324C21.1346 109.876 21.0106 110.364 20.7626 110.788C20.5146 111.204 20.1586 111.532 19.6946 111.772C19.2386 112.004 18.6946 112.12 18.0626 112.12ZM24.5499 112V104.824H21.6459V103.54H28.9899V104.824H26.0859V112H24.5499Z" fill="#808283"/>
<path d="M1.308 62V60.728H3.216V54.836H3.96L1.74 56.18L1.14 55.052L3.66 53.54H4.752V60.728H6.54V62H1.308ZM10.8673 62.12C10.4993 62.12 10.1353 62.08 9.77531 62C9.42331 61.92 9.09131 61.808 8.77931 61.664C8.47531 61.52 8.21131 61.352 7.98731 61.16L8.49131 59.984C8.85931 60.264 9.23931 60.476 9.63131 60.62C10.0233 60.756 10.4273 60.824 10.8433 60.824C11.3473 60.824 11.7393 60.696 12.0193 60.44C12.3073 60.176 12.4513 59.824 12.4513 59.384C12.4513 58.936 12.3153 58.576 12.0433 58.304C11.7713 58.024 11.3993 57.884 10.9273 57.884C10.5833 57.884 10.2753 57.952 10.0033 58.088C9.73131 58.216 9.48331 58.416 9.25931 58.688H8.22731V53.54H13.4233V54.812H9.72731V57.5H9.33131C9.53931 57.22 9.81131 57.004 10.1473 56.852C10.4913 56.7 10.8713 56.624 11.2873 56.624C11.8233 56.624 12.2873 56.74 12.6793 56.972C13.0793 57.196 13.3873 57.512 13.6033 57.92C13.8273 58.32 13.9393 58.788 13.9393 59.324C13.9393 59.876 13.8153 60.364 13.5673 60.788C13.3193 61.204 12.9633 61.532 12.4993 61.772C12.0433 62.004 11.4993 62.12 10.8673 62.12ZM17.9906 62.12C17.3266 62.12 16.7626 61.952 16.2986 61.616C15.8426 61.272 15.4946 60.776 15.2546 60.128C15.0226 59.48 14.9066 58.688 14.9066 57.752C14.9066 56.808 15.0226 56.016 15.2546 55.376C15.4946 54.728 15.8426 54.24 16.2986 53.912C16.7626 53.584 17.3266 53.42 17.9906 53.42C18.6626 53.42 19.2266 53.584 19.6826 53.912C20.1466 54.24 20.4946 54.724 20.7266 55.364C20.9586 56.004 21.0746 56.796 21.0746 57.74C21.0746 58.676 20.9546 59.472 20.7146 60.128C20.4826 60.776 20.1386 61.272 19.6826 61.616C19.2266 61.952 18.6626 62.12 17.9906 62.12ZM17.9906 60.86C18.5346 60.86 18.9346 60.612 19.1906 60.116C19.4546 59.612 19.5866 58.82 19.5866 57.74C19.5866 56.668 19.4546 55.892 19.1906 55.412C18.9346 54.924 18.5346 54.68 17.9906 54.68C17.4546 54.68 17.0546 54.924 16.7906 55.412C16.5266 55.892 16.3946 56.672 16.3946 57.752C16.3946 58.824 16.5266 59.612 16.7906 60.116C17.0546 60.612 17.4546 60.86 17.9906 60.86ZM24.5499 62V54.824H21.6459V53.54H28.9899V54.824H26.0859V62H24.5499Z" fill="#808283"/>
<path d="M1.308 12V10.728H3.216V4.836H3.96L1.74 6.18L1.14 5.052L3.66 3.54H4.752V10.728H6.54V12H1.308ZM11.1073 12.12C10.4113 12.12 9.81531 11.956 9.31931 11.628C8.83131 11.292 8.45931 10.812 8.20331 10.188C7.94731 9.564 7.81931 8.808 7.81931 7.92C7.81931 6.96 7.96331 6.148 8.25131 5.484C8.53931 4.812 8.95531 4.3 9.49931 3.948C10.0433 3.596 10.6953 3.42 11.4553 3.42C11.7513 3.42 12.0473 3.46 12.3433 3.54C12.6473 3.612 12.9313 3.72 13.1953 3.864C13.4673 4 13.7073 4.168 13.9153 4.368L13.4113 5.52C13.1153 5.248 12.7993 5.048 12.4633 4.92C12.1273 4.784 11.7833 4.716 11.4313 4.716C11.0873 4.716 10.7793 4.78 10.5073 4.908C10.2433 5.028 10.0193 5.212 9.83531 5.46C9.65131 5.7 9.51131 6.004 9.41531 6.372C9.32731 6.732 9.28331 7.152 9.28331 7.632V8.532H9.13931C9.20331 8.124 9.33531 7.776 9.53531 7.488C9.74331 7.192 10.0073 6.968 10.3273 6.816C10.6473 6.656 11.0033 6.576 11.3953 6.576C11.8833 6.576 12.3153 6.692 12.6913 6.924C13.0673 7.156 13.3633 7.476 13.5793 7.884C13.7953 8.292 13.9033 8.76 13.9033 9.288C13.9033 9.832 13.7833 10.32 13.5433 10.752C13.3113 11.176 12.9833 11.512 12.5593 11.76C12.1433 12 11.6593 12.12 11.1073 12.12ZM11.0233 10.896C11.3113 10.896 11.5633 10.832 11.7793 10.704C12.0033 10.576 12.1753 10.396 12.2953 10.164C12.4153 9.924 12.4753 9.652 12.4753 9.348C12.4753 9.036 12.4153 8.764 12.2953 8.532C12.1753 8.3 12.0033 8.12 11.7793 7.992C11.5633 7.856 11.3113 7.788 11.0233 7.788C10.7353 7.788 10.4833 7.856 10.2673 7.992C10.0513 8.12 9.87931 8.3 9.75131 8.532C9.63131 8.764 9.57131 9.036 9.57131 9.348C9.57131 9.652 9.63131 9.924 9.75131 10.164C9.87931 10.396 10.0513 10.576 10.2673 10.704C10.4833 10.832 10.7353 10.896 11.0233 10.896ZM18.0626 12.12C17.6946 12.12 17.3306 12.08 16.9706 12C16.6186 11.92 16.2866 11.808 15.9746 11.664C15.6706 11.52 15.4066 11.352 15.1826 11.16L15.6866 9.984C16.0546 10.264 16.4346 10.476 16.8266 10.62C17.2186 10.756 17.6226 10.824 18.0386 10.824C18.5426 10.824 18.9346 10.696 19.2146 10.44C19.5026 10.176 19.6466 9.824 19.6466 9.384C19.6466 8.936 19.5106 8.576 19.2386 8.304C18.9666 8.024 18.5946 7.884 18.1226 7.884C17.7786 7.884 17.4706 7.952 17.1986 8.088C16.9266 8.216 16.6786 8.416 16.4546 8.688H15.4226V3.54H20.6186V4.812H16.9226V7.5H16.5266C16.7346 7.22 17.0066 7.004 17.3426 6.852C17.6866 6.7 18.0666 6.624 18.4826 6.624C19.0186 6.624 19.4826 6.74 19.8746 6.972C20.2746 7.196 20.5826 7.512 20.7986 7.92C21.0226 8.32 21.1346 8.788 21.1346 9.324C21.1346 9.876 21.0106 10.364 20.7626 10.788C20.5146 11.204 20.1586 11.532 19.6946 11.772C19.2386 12.004 18.6946 12.12 18.0626 12.12ZM24.5499 12V4.824H21.6459V3.54H28.9899V4.824H26.0859V12H24.5499Z" fill="#808283"/>
<rect x="98" y="257" width="1" height="8" fill="white" fill-opacity="0.16"/>
<path d="M77.1364 281.108L77.0284 279.848L77.8804 279.8C78.1204 279.784 78.3164 279.732 78.4684 279.644C78.6284 279.548 78.7484 279.416 78.8284 279.248C78.9084 279.072 78.9484 278.864 78.9484 278.624V272.54H80.4844V278.612C80.4844 279.116 80.3964 279.544 80.2204 279.896C80.0444 280.248 79.7804 280.52 79.4284 280.712C79.0764 280.904 78.6404 281.02 78.1204 281.06L77.1364 281.108ZM81.4261 281L85.2541 272.54H86.5141L90.3421 281H88.7821L87.7621 278.624L88.4101 279.044H83.3461L83.9941 278.624L82.9861 281H81.4261ZM85.8661 274.208L84.1861 278.204L83.8741 277.82H87.8821L87.5821 278.204L85.8901 274.208H85.8661ZM91.2678 281V272.54H92.4198L97.2798 278.852H96.9678V272.54H98.3958V281H97.2558L92.3958 274.676H92.6958V281H91.2678ZM103.503 276.02L103.143 272.54H104.883L104.523 276.02H103.503ZM106.769 281V279.728H108.677V273.836H109.421L107.201 275.18L106.601 274.052L109.121 272.54H110.213V279.728H112.001V281H106.769ZM116.844 281V279.392H113.16V278.264L117.108 272.54H118.38V278.12H119.568V279.392H118.38V281H116.844ZM116.844 278.12V274.376H117.192L114.36 278.528V278.12H116.844Z" fill="#808283"/>
<rect x="221" y="257" width="1" height="8" fill="white" fill-opacity="0.16"/>
<path d="M200.136 281.108L200.028 279.848L200.88 279.8C201.12 279.784 201.316 279.732 201.468 279.644C201.628 279.548 201.748 279.416 201.828 279.248C201.908 279.072 201.948 278.864 201.948 278.624V272.54H203.484V278.612C203.484 279.116 203.396 279.544 203.22 279.896C203.044 280.248 202.78 280.52 202.428 280.712C202.076 280.904 201.64 281.02 201.12 281.06L200.136 281.108ZM204.426 281L208.254 272.54H209.514L213.342 281H211.782L210.762 278.624L211.41 279.044H206.346L206.994 278.624L205.986 281H204.426ZM208.866 274.208L207.186 278.204L206.874 277.82H210.882L210.582 278.204L208.89 274.208H208.866ZM214.268 281V272.54H215.42L220.28 278.852H219.968V272.54H221.396V281H220.256L215.396 274.676H215.696V281H214.268ZM226.503 276.02L226.143 272.54H227.883L227.523 276.02H226.503ZM229.769 281V279.728H231.677V273.836H232.421L230.201 275.18L229.601 274.052L232.121 272.54H233.213V279.728H235.001V281H229.769ZM239.568 281.12C238.872 281.12 238.276 280.956 237.78 280.628C237.292 280.292 236.92 279.812 236.664 279.188C236.408 278.564 236.28 277.808 236.28 276.92C236.28 275.96 236.424 275.148 236.712 274.484C237 273.812 237.416 273.3 237.96 272.948C238.504 272.596 239.156 272.42 239.916 272.42C240.212 272.42 240.508 272.46 240.804 272.54C241.108 272.612 241.392 272.72 241.656 272.864C241.928 273 242.168 273.168 242.376 273.368L241.872 274.52C241.576 274.248 241.26 274.048 240.924 273.92C240.588 273.784 240.244 273.716 239.892 273.716C239.548 273.716 239.24 273.78 238.968 273.908C238.704 274.028 238.48 274.212 238.296 274.46C238.112 274.7 237.972 275.004 237.876 275.372C237.788 275.732 237.744 276.152 237.744 276.632V277.532H237.6C237.664 277.124 237.796 276.776 237.996 276.488C238.204 276.192 238.468 275.968 238.788 275.816C239.108 275.656 239.464 275.576 239.856 275.576C240.344 275.576 240.776 275.692 241.152 275.924C241.528 276.156 241.824 276.476 242.04 276.884C242.256 277.292 242.364 277.76 242.364 278.288C242.364 278.832 242.244 279.32 242.004 279.752C241.772 280.176 241.444 280.512 241.02 280.76C240.604 281 240.12 281.12 239.568 281.12ZM239.484 279.896C239.772 279.896 240.024 279.832 240.24 279.704C240.464 279.576 240.636 279.396 240.756 279.164C240.876 278.924 240.936 278.652 240.936 278.348C240.936 278.036 240.876 277.764 240.756 277.532C240.636 277.3 240.464 277.12 240.24 276.992C240.024 276.856 239.772 276.788 239.484 276.788C239.196 276.788 238.944 276.856 238.728 276.992C238.512 277.12 238.34 277.3 238.212 277.532C238.092 277.764 238.032 278.036 238.032 278.348C238.032 278.652 238.092 278.924 238.212 279.164C238.34 279.396 238.512 279.576 238.728 279.704C238.944 279.832 239.196 279.896 239.484 279.896Z" fill="#808283"/>
<rect x="344" y="257" width="1" height="8" fill="white" fill-opacity="0.16"/>
<path d="M323.136 281.108L323.028 279.848L323.88 279.8C324.12 279.784 324.316 279.732 324.468 279.644C324.628 279.548 324.748 279.416 324.828 279.248C324.908 279.072 324.948 278.864 324.948 278.624V272.54H326.484V278.612C326.484 279.116 326.396 279.544 326.22 279.896C326.044 280.248 325.78 280.52 325.428 280.712C325.076 280.904 324.64 281.02 324.12 281.06L323.136 281.108ZM327.426 281L331.254 272.54H332.514L336.342 281H334.782L333.762 278.624L334.41 279.044H329.346L329.994 278.624L328.986 281H327.426ZM331.866 274.208L330.186 278.204L329.874 277.82H333.882L333.582 278.204L331.89 274.208H331.866ZM337.268 281V272.54H338.42L343.28 278.852H342.968V272.54H344.396V281H343.256L338.396 274.676H338.696V281H337.268ZM349.503 276.02L349.143 272.54H350.883L350.523 276.02H349.503ZM352.769 281V279.728H354.677V273.836H355.421L353.201 275.18L352.601 274.052L355.121 272.54H356.213V279.728H358.001V281H352.769ZM362.256 281.12C361.272 281.12 360.5 280.908 359.94 280.484C359.388 280.06 359.112 279.472 359.112 278.72C359.112 278.32 359.192 277.968 359.352 277.664C359.52 277.352 359.748 277.1 360.036 276.908C360.324 276.716 360.652 276.596 361.02 276.548V276.8C360.684 276.728 360.388 276.596 360.132 276.404C359.876 276.204 359.676 275.96 359.532 275.672C359.396 275.376 359.328 275.052 359.328 274.7C359.328 273.988 359.592 273.432 360.12 273.032C360.648 272.624 361.364 272.42 362.268 272.42C363.164 272.42 363.876 272.624 364.404 273.032C364.932 273.432 365.196 273.988 365.196 274.7C365.196 275.052 365.124 275.376 364.98 275.672C364.844 275.968 364.648 276.212 364.392 276.404C364.144 276.596 363.852 276.724 363.516 276.788V276.548C363.892 276.596 364.22 276.72 364.5 276.92C364.78 277.112 365 277.364 365.16 277.676C365.32 277.98 365.4 278.328 365.4 278.72C365.4 279.472 365.12 280.06 364.56 280.484C364.008 280.908 363.24 281.12 362.256 281.12ZM362.256 279.92C362.824 279.92 363.252 279.812 363.54 279.596C363.828 279.372 363.972 279.044 363.972 278.612C363.972 278.18 363.828 277.856 363.54 277.64C363.252 277.424 362.824 277.316 362.256 277.316C361.696 277.316 361.268 277.424 360.972 277.64C360.684 277.856 360.54 278.18 360.54 278.612C360.54 279.044 360.684 279.372 360.972 279.596C361.268 279.812 361.696 279.92 362.256 279.92ZM362.256 276.116C362.728 276.116 363.096 276.004 363.36 275.78C363.632 275.556 363.768 275.248 363.768 274.856C363.768 274.472 363.632 274.172 363.36 273.956C363.096 273.732 362.728 273.62 362.256 273.62C361.784 273.62 361.416 273.732 361.152 273.956C360.888 274.172 360.756 274.476 360.756 274.868C360.756 275.252 360.888 275.556 361.152 275.78C361.416 276.004 361.784 276.116 362.256 276.116Z" fill="#808283"/>
<rect x="467" y="257" width="1" height="8" fill="white" fill-opacity="0.16"/>
<path d="M446.136 281.108L446.028 279.848L446.88 279.8C447.12 279.784 447.316 279.732 447.468 279.644C447.628 279.548 447.748 279.416 447.828 279.248C447.908 279.072 447.948 278.864 447.948 278.624V272.54H449.484V278.612C449.484 279.116 449.396 279.544 449.22 279.896C449.044 280.248 448.78 280.52 448.428 280.712C448.076 280.904 447.64 281.02 447.12 281.06L446.136 281.108ZM450.426 281L454.254 272.54H455.514L459.342 281H457.782L456.762 278.624L457.41 279.044H452.346L452.994 278.624L451.986 281H450.426ZM454.866 274.208L453.186 278.204L452.874 277.82H456.882L456.582 278.204L454.89 274.208H454.866ZM460.268 281V272.54H461.42L466.28 278.852H465.968V272.54H467.396V281H466.256L461.396 274.676H461.696V281H460.268ZM472.503 276.02L472.143 272.54H473.883L473.523 276.02H472.503ZM475.421 281V279.86L478.157 276.944C478.405 276.68 478.601 276.436 478.745 276.212C478.897 275.988 479.009 275.772 479.081 275.564C479.153 275.356 479.189 275.148 479.189 274.94C479.189 274.54 479.061 274.236 478.805 274.028C478.557 273.82 478.193 273.716 477.713 273.716C477.337 273.716 476.969 273.788 476.609 273.932C476.257 274.068 475.917 274.284 475.589 274.58L475.073 273.428C475.409 273.124 475.829 272.88 476.333 272.696C476.837 272.512 477.361 272.42 477.905 272.42C478.513 272.42 479.025 272.512 479.441 272.696C479.857 272.88 480.173 273.148 480.389 273.5C480.605 273.852 480.713 274.28 480.713 274.784C480.713 275.04 480.681 275.292 480.617 275.54C480.561 275.78 480.469 276.02 480.341 276.26C480.221 276.5 480.065 276.748 479.873 277.004C479.689 277.252 479.465 277.512 479.201 277.784L476.945 280.136V279.728H481.037V281H475.421ZM485.256 281.12C484.592 281.12 484.028 280.952 483.564 280.616C483.108 280.272 482.76 279.776 482.52 279.128C482.288 278.48 482.172 277.688 482.172 276.752C482.172 275.808 482.288 275.016 482.52 274.376C482.76 273.728 483.108 273.24 483.564 272.912C484.028 272.584 484.592 272.42 485.256 272.42C485.928 272.42 486.492 272.584 486.948 272.912C487.412 273.24 487.76 273.724 487.992 274.364C488.224 275.004 488.34 275.796 488.34 276.74C488.34 277.676 488.22 278.472 487.98 279.128C487.748 279.776 487.404 280.272 486.948 280.616C486.492 280.952 485.928 281.12 485.256 281.12ZM485.256 279.86C485.8 279.86 486.2 279.612 486.456 279.116C486.72 278.612 486.852 277.82 486.852 276.74C486.852 275.668 486.72 274.892 486.456 274.412C486.2 273.924 485.8 273.68 485.256 273.68C484.72 273.68 484.32 273.924 484.056 274.412C483.792 274.892 483.66 275.672 483.66 276.752C483.66 277.824 483.792 278.612 484.056 279.116C484.32 279.612 484.72 279.86 485.256 279.86Z" fill="#808283"/>
<rect x="590" y="257" width="1" height="8" fill="white" fill-opacity="0.16"/>
<path d="M569.136 281.108L569.028 279.848L569.88 279.8C570.12 279.784 570.316 279.732 570.468 279.644C570.628 279.548 570.748 279.416 570.828 279.248C570.908 279.072 570.948 278.864 570.948 278.624V272.54H572.484V278.612C572.484 279.116 572.396 279.544 572.22 279.896C572.044 280.248 571.78 280.52 571.428 280.712C571.076 280.904 570.64 281.02 570.12 281.06L569.136 281.108ZM573.426 281L577.254 272.54H578.514L582.342 281H580.782L579.762 278.624L580.41 279.044H575.346L575.994 278.624L574.986 281H573.426ZM577.866 274.208L576.186 278.204L575.874 277.82H579.882L579.582 278.204L577.89 274.208H577.866ZM583.268 281V272.54H584.42L589.28 278.852H588.968V272.54H590.396V281H589.256L584.396 274.676H584.696V281H583.268ZM595.503 276.02L595.143 272.54H596.883L596.523 276.02H595.503ZM598.421 281V279.86L601.157 276.944C601.405 276.68 601.601 276.436 601.745 276.212C601.897 275.988 602.009 275.772 602.081 275.564C602.153 275.356 602.189 275.148 602.189 274.94C602.189 274.54 602.061 274.236 601.805 274.028C601.557 273.82 601.193 273.716 600.713 273.716C600.337 273.716 599.969 273.788 599.609 273.932C599.257 274.068 598.917 274.284 598.589 274.58L598.073 273.428C598.409 273.124 598.829 272.88 599.333 272.696C599.837 272.512 600.361 272.42 600.905 272.42C601.513 272.42 602.025 272.512 602.441 272.696C602.857 272.88 603.173 273.148 603.389 273.5C603.605 273.852 603.713 274.28 603.713 274.784C603.713 275.04 603.681 275.292 603.617 275.54C603.561 275.78 603.469 276.02 603.341 276.26C603.221 276.5 603.065 276.748 602.873 277.004C602.689 277.252 602.465 277.512 602.201 277.784L599.945 280.136V279.728H604.037V281H598.421ZM605.616 281V279.86L608.352 276.944C608.6 276.68 608.796 276.436 608.94 276.212C609.092 275.988 609.204 275.772 609.276 275.564C609.348 275.356 609.384 275.148 609.384 274.94C609.384 274.54 609.256 274.236 609 274.028C608.752 273.82 608.388 273.716 607.908 273.716C607.532 273.716 607.164 273.788 606.804 273.932C606.452 274.068 606.112 274.284 605.784 274.58L605.268 273.428C605.604 273.124 606.024 272.88 606.528 272.696C607.032 272.512 607.556 272.42 608.1 272.42C608.708 272.42 609.22 272.512 609.636 272.696C610.052 272.88 610.368 273.148 610.584 273.5C610.8 273.852 610.908 274.28 610.908 274.784C610.908 275.04 610.876 275.292 610.812 275.54C610.756 275.78 610.664 276.02 610.536 276.26C610.416 276.5 610.26 276.748 610.068 277.004C609.884 277.252 609.66 277.512 609.396 277.784L607.14 280.136V279.728H611.232V281H605.616Z" fill="#808283"/>
<rect x="713" y="257" width="1" height="8" fill="white" fill-opacity="0.16"/>
<path d="M692.136 281.108L692.028 279.848L692.88 279.8C693.12 279.784 693.316 279.732 693.468 279.644C693.628 279.548 693.748 279.416 693.828 279.248C693.908 279.072 693.948 278.864 693.948 278.624V272.54H695.484V278.612C695.484 279.116 695.396 279.544 695.22 279.896C695.044 280.248 694.78 280.52 694.428 280.712C694.076 280.904 693.64 281.02 693.12 281.06L692.136 281.108ZM696.426 281L700.254 272.54H701.514L705.342 281H703.782L702.762 278.624L703.41 279.044H698.346L698.994 278.624L697.986 281H696.426ZM700.866 274.208L699.186 278.204L698.874 277.82H702.882L702.582 278.204L700.89 274.208H700.866ZM706.268 281V272.54H707.42L712.28 278.852H711.968V272.54H713.396V281H712.256L707.396 274.676H707.696V281H706.268ZM718.503 276.02L718.143 272.54H719.883L719.523 276.02H718.503ZM721.421 281V279.86L724.157 276.944C724.405 276.68 724.601 276.436 724.745 276.212C724.897 275.988 725.009 275.772 725.081 275.564C725.153 275.356 725.189 275.148 725.189 274.94C725.189 274.54 725.061 274.236 724.805 274.028C724.557 273.82 724.193 273.716 723.713 273.716C723.337 273.716 722.969 273.788 722.609 273.932C722.257 274.068 721.917 274.284 721.589 274.58L721.073 273.428C721.409 273.124 721.829 272.88 722.333 272.696C722.837 272.512 723.361 272.42 723.905 272.42C724.513 272.42 725.025 272.512 725.441 272.696C725.857 272.88 726.173 273.148 726.389 273.5C726.605 273.852 726.713 274.28 726.713 274.784C726.713 275.04 726.681 275.292 726.617 275.54C726.561 275.78 726.469 276.02 726.341 276.26C726.221 276.5 726.065 276.748 725.873 277.004C725.689 277.252 725.465 277.512 725.201 277.784L722.945 280.136V279.728H727.037V281H721.421ZM731.844 281V279.392H728.16V278.264L732.108 272.54H733.38V278.12H734.568V279.392H733.38V281H731.844ZM731.844 278.12V274.376H732.192L729.36 278.528V278.12H731.844Z" fill="#808283"/>
<rect x="836" y="257" width="1" height="8" fill="white" fill-opacity="0.16"/>
<path d="M815.136 281.108L815.028 279.848L815.88 279.8C816.12 279.784 816.316 279.732 816.468 279.644C816.628 279.548 816.748 279.416 816.828 279.248C816.908 279.072 816.948 278.864 816.948 278.624V272.54H818.484V278.612C818.484 279.116 818.396 279.544 818.22 279.896C818.044 280.248 817.78 280.52 817.428 280.712C817.076 280.904 816.64 281.02 816.12 281.06L815.136 281.108ZM819.426 281L823.254 272.54H824.514L828.342 281H826.782L825.762 278.624L826.41 279.044H821.346L821.994 278.624L820.986 281H819.426ZM823.866 274.208L822.186 278.204L821.874 277.82H825.882L825.582 278.204L823.89 274.208H823.866ZM829.268 281V272.54H830.42L835.28 278.852H834.968V272.54H836.396V281H835.256L830.396 274.676H830.696V281H829.268ZM841.503 276.02L841.143 272.54H842.883L842.523 276.02H841.503ZM844.421 281V279.86L847.157 276.944C847.405 276.68 847.601 276.436 847.745 276.212C847.897 275.988 848.009 275.772 848.081 275.564C848.153 275.356 848.189 275.148 848.189 274.94C848.189 274.54 848.061 274.236 847.805 274.028C847.557 273.82 847.193 273.716 846.713 273.716C846.337 273.716 845.969 273.788 845.609 273.932C845.257 274.068 844.917 274.284 844.589 274.58L844.073 273.428C844.409 273.124 844.829 272.88 845.333 272.696C845.837 272.512 846.361 272.42 846.905 272.42C847.513 272.42 848.025 272.512 848.441 272.696C848.857 272.88 849.173 273.148 849.389 273.5C849.605 273.852 849.713 274.28 849.713 274.784C849.713 275.04 849.681 275.292 849.617 275.54C849.561 275.78 849.469 276.02 849.341 276.26C849.221 276.5 849.065 276.748 848.873 277.004C848.689 277.252 848.465 277.512 848.201 277.784L845.945 280.136V279.728H850.037V281H844.421ZM854.568 281.12C853.872 281.12 853.276 280.956 852.78 280.628C852.292 280.292 851.92 279.812 851.664 279.188C851.408 278.564 851.28 277.808 851.28 276.92C851.28 275.96 851.424 275.148 851.712 274.484C852 273.812 852.416 273.3 852.96 272.948C853.504 272.596 854.156 272.42 854.916 272.42C855.212 272.42 855.508 272.46 855.804 272.54C856.108 272.612 856.392 272.72 856.656 272.864C856.928 273 857.168 273.168 857.376 273.368L856.872 274.52C856.576 274.248 856.26 274.048 855.924 273.92C855.588 273.784 855.244 273.716 854.892 273.716C854.548 273.716 854.24 273.78 853.968 273.908C853.704 274.028 853.48 274.212 853.296 274.46C853.112 274.7 852.972 275.004 852.876 275.372C852.788 275.732 852.744 276.152 852.744 276.632V277.532H852.6C852.664 277.124 852.796 276.776 852.996 276.488C853.204 276.192 853.468 275.968 853.788 275.816C854.108 275.656 854.464 275.576 854.856 275.576C855.344 275.576 855.776 275.692 856.152 275.924C856.528 276.156 856.824 276.476 857.04 276.884C857.256 277.292 857.364 277.76 857.364 278.288C857.364 278.832 857.244 279.32 857.004 279.752C856.772 280.176 856.444 280.512 856.02 280.76C855.604 281 855.12 281.12 854.568 281.12ZM854.484 279.896C854.772 279.896 855.024 279.832 855.24 279.704C855.464 279.576 855.636 279.396 855.756 279.164C855.876 278.924 855.936 278.652 855.936 278.348C855.936 278.036 855.876 277.764 855.756 277.532C855.636 277.3 855.464 277.12 855.24 276.992C855.024 276.856 854.772 276.788 854.484 276.788C854.196 276.788 853.944 276.856 853.728 276.992C853.512 277.12 853.34 277.3 853.212 277.532C853.092 277.764 853.032 278.036 853.032 278.348C853.032 278.652 853.092 278.924 853.212 279.164C853.34 279.396 853.512 279.576 853.728 279.704C853.944 279.832 854.196 279.896 854.484 279.896Z" fill="#808283"/>
<rect x="959" y="257" width="1" height="8" fill="white" fill-opacity="0.16"/>
<path d="M938.136 281.108L938.028 279.848L938.88 279.8C939.12 279.784 939.316 279.732 939.468 279.644C939.628 279.548 939.748 279.416 939.828 279.248C939.908 279.072 939.948 278.864 939.948 278.624V272.54H941.484V278.612C941.484 279.116 941.396 279.544 941.22 279.896C941.044 280.248 940.78 280.52 940.428 280.712C940.076 280.904 939.64 281.02 939.12 281.06L938.136 281.108ZM942.426 281L946.254 272.54H947.514L951.342 281H949.782L948.762 278.624L949.41 279.044H944.346L944.994 278.624L943.986 281H942.426ZM946.866 274.208L945.186 278.204L944.874 277.82H948.882L948.582 278.204L946.89 274.208H946.866ZM952.268 281V272.54H953.42L958.28 278.852H957.968V272.54H959.396V281H958.256L953.396 274.676H953.696V281H952.268ZM964.503 276.02L964.143 272.54H965.883L965.523 276.02H964.503ZM967.421 281V279.86L970.157 276.944C970.405 276.68 970.601 276.436 970.745 276.212C970.897 275.988 971.009 275.772 971.081 275.564C971.153 275.356 971.189 275.148 971.189 274.94C971.189 274.54 971.061 274.236 970.805 274.028C970.557 273.82 970.193 273.716 969.713 273.716C969.337 273.716 968.969 273.788 968.609 273.932C968.257 274.068 967.917 274.284 967.589 274.58L967.073 273.428C967.409 273.124 967.829 272.88 968.333 272.696C968.837 272.512 969.361 272.42 969.905 272.42C970.513 272.42 971.025 272.512 971.441 272.696C971.857 272.88 972.173 273.148 972.389 273.5C972.605 273.852 972.713 274.28 972.713 274.784C972.713 275.04 972.681 275.292 972.617 275.54C972.561 275.78 972.469 276.02 972.341 276.26C972.221 276.5 972.065 276.748 971.873 277.004C971.689 277.252 971.465 277.512 971.201 277.784L968.945 280.136V279.728H973.037V281H967.421ZM977.256 281.12C976.272 281.12 975.5 280.908 974.94 280.484C974.388 280.06 974.112 279.472 974.112 278.72C974.112 278.32 974.192 277.968 974.352 277.664C974.52 277.352 974.748 277.1 975.036 276.908C975.324 276.716 975.652 276.596 976.02 276.548V276.8C975.684 276.728 975.388 276.596 975.132 276.404C974.876 276.204 974.676 275.96 974.532 275.672C974.396 275.376 974.328 275.052 974.328 274.7C974.328 273.988 974.592 273.432 975.12 273.032C975.648 272.624 976.364 272.42 977.268 272.42C978.164 272.42 978.876 272.624 979.404 273.032C979.932 273.432 980.196 273.988 980.196 274.7C980.196 275.052 980.124 275.376 979.98 275.672C979.844 275.968 979.648 276.212 979.392 276.404C979.144 276.596 978.852 276.724 978.516 276.788V276.548C978.892 276.596 979.22 276.72 979.5 276.92C979.78 277.112 980 277.364 980.16 277.676C980.32 277.98 980.4 278.328 980.4 278.72C980.4 279.472 980.12 280.06 979.56 280.484C979.008 280.908 978.24 281.12 977.256 281.12ZM977.256 279.92C977.824 279.92 978.252 279.812 978.54 279.596C978.828 279.372 978.972 279.044 978.972 278.612C978.972 278.18 978.828 277.856 978.54 277.64C978.252 277.424 977.824 277.316 977.256 277.316C976.696 277.316 976.268 277.424 975.972 277.64C975.684 277.856 975.54 278.18 975.54 278.612C975.54 279.044 975.684 279.372 975.972 279.596C976.268 279.812 976.696 279.92 977.256 279.92ZM977.256 276.116C977.728 276.116 978.096 276.004 978.36 275.78C978.632 275.556 978.768 275.248 978.768 274.856C978.768 274.472 978.632 274.172 978.36 273.956C978.096 273.732 977.728 273.62 977.256 273.62C976.784 273.62 976.416 273.732 976.152 273.956C975.888 274.172 975.756 274.476 975.756 274.868C975.756 275.252 975.888 275.556 976.152 275.78C976.416 276.004 976.784 276.116 977.256 276.116Z" fill="#808283"/>
<g filter="url(#filter0_d_2277_143)">
<path d="M38 213.808L56.8583 229.138L87.0316 161.955L97.7179 159.701L117.205 180.442L127.263 146.625L141.721 151.134L201.439 62.308C205.42 65.9152 213.634 73.1295 214.639 73.1295C215.645 73.1295 220.506 52.0878 222.811 41.567L230.355 48.3304L242.298 33L250.47 103.79L264.3 110.103L275.614 74.933L293.216 64.5625C297.406 69.8229 305.788 80.0732 305.788 78.9911C305.788 77.9089 312.074 67.4182 315.217 62.308L334.704 73.1295L356.077 152.938L368.02 138.96L388.764 166.915L408.88 122.728L429.624 154.741H440.31L450.368 138.96L457.283 152.938C466.293 155.493 484.187 160.422 483.684 159.701C483.181 158.979 503.59 117.317 513.858 96.5759L525.173 94.7723L533.345 99.2813L542.145 90.2634L556.603 138.96L562.889 143.018L572.947 163.759L592.434 142.116L616.95 162.406L637.065 100.183L648.38 108.299L657.809 82.1473L679.182 125.433L699.297 103.339L710.612 113.259L720.67 110.554L730.099 115.063L739.529 112.357L772.845 152.487L791.075 123.179H802.389L821.248 204.339L834.449 187.205L862.107 234.098L877.823 235L886.623 226.884L899.195 230.04L906.11 222.826C910.301 224.329 918.682 227.064 918.682 225.982C918.682 224.9 922.873 212.305 924.968 206.143L936.912 212.455L946.341 200.281L967.085 208.848L974 196.674" stroke="#72757D" stroke-width="1.5"/>
</g>
<g filter="url(#filter1_d_2277_143)">
<path d="M38 172.95C38 174.426 53.0664 192.931 60.5996 202L95.1268 132.372H110.193L119.61 106.089L131.537 113.467L162.298 66.4333L172.342 64.1278L182.386 36L233.235 48.9111L242.652 99.1722L265.252 89.95L284.712 97.7889L297.268 95.0222L332.423 105.167L350.628 152.2C358.789 154.659 375.362 158.84 376.366 155.889C377.371 152.938 386.829 138.981 391.433 132.372L419.054 163.728L434.748 145.744L442.282 144.822L447.304 151.278L493.131 142.517L501.92 134.217H515.73L523.264 124.994L554.652 154.506L564.068 145.744L571.602 152.661L585.412 149.433L597.34 152.661H614.29L628.101 138.367H651.328L669.533 159.117H689.622L697.783 151.278L707.199 152.661L737.96 143.439L761.815 159.578L771.231 151.278L781.903 150.356L791.948 129.606L813.292 166.033L823.964 161.883L864.769 198.772L884.229 178.944L893.646 183.556L902.435 157.733L916.245 166.033L926.29 157.733L935.706 178.944L947.006 166.033L960.189 178.944L974 167.878" stroke="url(#paint0_linear_2277_143)" stroke-width="1.5"/>
</g>
<rect x="868" y="220" width="117" height="26" rx="8" fill="white" fill-opacity="0.08"/>
<path d="M877.084 237V228.54H880.78C881.668 228.54 882.356 228.736 882.844 229.128C883.332 229.512 883.576 230.048 883.576 230.736C883.576 231.248 883.428 231.68 883.132 232.032C882.836 232.384 882.432 232.62 881.92 232.74V232.56C882.312 232.616 882.648 232.736 882.928 232.92C883.208 233.104 883.42 233.34 883.564 233.628C883.716 233.916 883.792 234.252 883.792 234.636C883.792 235.132 883.676 235.56 883.444 235.92C883.22 236.272 882.892 236.54 882.46 236.724C882.028 236.908 881.512 237 880.912 237H877.084ZM878.56 235.836H880.72C880.936 235.836 881.128 235.82 881.296 235.788C881.472 235.756 881.62 235.708 881.74 235.644C881.868 235.572 881.972 235.484 882.052 235.38C882.14 235.276 882.204 235.156 882.244 235.02C882.284 234.884 882.304 234.732 882.304 234.564C882.304 234.388 882.284 234.232 882.244 234.096C882.204 233.96 882.14 233.844 882.052 233.748C881.972 233.644 881.868 233.56 881.74 233.496C881.62 233.424 881.472 233.372 881.296 233.34C881.128 233.308 880.936 233.292 880.72 233.292H878.56V235.836ZM878.56 232.128H880.516C881.044 232.128 881.436 232.028 881.692 231.828C881.956 231.62 882.088 231.316 882.088 230.916C882.088 230.516 881.956 230.216 881.692 230.016C881.436 229.808 881.044 229.704 880.516 229.704H878.56V232.128ZM885.346 237V228.54H886.882V237H885.346ZM890.761 237V229.824H887.857V228.54H895.201V229.824H892.297V237H890.761ZM899.594 237.12C898.714 237.12 897.958 236.944 897.326 236.592C896.702 236.232 896.222 235.728 895.886 235.08C895.55 234.424 895.382 233.652 895.382 232.764C895.382 231.876 895.55 231.108 895.886 230.46C896.222 229.812 896.702 229.312 897.326 228.96C897.958 228.6 898.714 228.42 899.594 228.42C900.162 228.42 900.698 228.508 901.202 228.684C901.714 228.86 902.134 229.112 902.462 229.44L901.958 230.664C901.598 230.36 901.23 230.14 900.854 230.004C900.478 229.86 900.074 229.788 899.642 229.788C898.786 229.788 898.134 230.048 897.686 230.568C897.238 231.08 897.014 231.812 897.014 232.764C897.014 233.716 897.238 234.452 897.686 234.972C898.134 235.492 898.786 235.752 899.642 235.752C900.074 235.752 900.478 235.684 900.854 235.548C901.23 235.404 901.598 235.18 901.958 234.876L902.462 236.1C902.134 236.42 901.714 236.672 901.202 236.856C900.698 237.032 900.162 237.12 899.594 237.12ZM907.325 237.12C906.709 237.12 906.149 237.02 905.645 236.82C905.149 236.612 904.721 236.316 904.361 235.932C904.009 235.548 903.737 235.088 903.545 234.552C903.353 234.016 903.257 233.42 903.257 232.764C903.257 232.1 903.353 231.504 903.545 230.976C903.737 230.44 904.009 229.984 904.361 229.608C904.721 229.224 905.149 228.932 905.645 228.732C906.149 228.524 906.709 228.42 907.325 228.42C907.941 228.42 908.497 228.524 908.993 228.732C909.497 228.932 909.925 229.22 910.277 229.596C910.637 229.972 910.913 230.428 911.105 230.964C911.297 231.492 911.393 232.088 911.393 232.752C911.393 233.416 911.297 234.016 911.105 234.552C910.913 235.088 910.637 235.548 910.277 235.932C909.925 236.316 909.497 236.612 908.993 236.82C908.497 237.02 907.941 237.12 907.325 237.12ZM907.325 235.8C907.845 235.8 908.285 235.68 908.645 235.44C909.013 235.2 909.293 234.852 909.485 234.396C909.685 233.94 909.785 233.396 909.785 232.764C909.785 232.124 909.689 231.58 909.497 231.132C909.305 230.676 909.025 230.332 908.657 230.1C908.289 229.86 907.845 229.74 907.325 229.74C906.813 229.74 906.373 229.86 906.005 230.1C905.637 230.332 905.353 230.676 905.153 231.132C904.961 231.58 904.865 232.124 904.865 232.764C904.865 233.396 904.961 233.94 905.153 234.396C905.353 234.852 905.637 235.2 906.005 235.44C906.373 235.68 906.813 235.8 907.325 235.8ZM912.955 237V228.54H914.491V237H912.955ZM916.33 237V228.54H917.482L922.342 234.852H922.03V228.54H923.458V237H922.318L917.458 230.676H917.758V237H916.33ZM931.457 237.12C931.017 237.12 930.593 237.08 930.185 237C929.785 236.928 929.413 236.82 929.069 236.676C928.733 236.532 928.433 236.36 928.169 236.16L928.637 234.948C928.901 235.132 929.177 235.292 929.465 235.428C929.761 235.556 930.073 235.656 930.401 235.728C930.737 235.792 931.089 235.824 931.457 235.824C932.089 235.824 932.549 235.72 932.837 235.512C933.125 235.296 933.269 235.02 933.269 234.684C933.269 234.5 933.225 234.344 933.137 234.216C933.049 234.08 932.905 233.964 932.705 233.868C932.505 233.772 932.241 233.692 931.913 233.628L930.593 233.352C929.833 233.192 929.265 232.924 928.889 232.548C928.521 232.164 928.337 231.66 928.337 231.036C928.337 230.508 928.477 230.048 928.757 229.656C929.037 229.264 929.425 228.96 929.921 228.744C930.417 228.528 930.989 228.42 931.637 228.42C932.021 228.42 932.389 228.46 932.741 228.54C933.101 228.612 933.429 228.724 933.725 228.876C934.029 229.02 934.293 229.196 934.517 229.404L934.049 230.556C933.713 230.276 933.345 230.068 932.945 229.932C932.545 229.788 932.105 229.716 931.625 229.716C931.257 229.716 930.941 229.768 930.677 229.872C930.413 229.976 930.209 230.124 930.065 230.316C929.929 230.5 929.861 230.72 929.861 230.976C929.861 231.264 929.957 231.496 930.149 231.672C930.341 231.84 930.669 231.972 931.133 232.068L932.441 232.344C933.233 232.512 933.821 232.776 934.205 233.136C934.597 233.496 934.793 233.976 934.793 234.576C934.793 235.08 934.657 235.524 934.385 235.908C934.113 236.292 933.725 236.592 933.221 236.808C932.725 237.016 932.137 237.12 931.457 237.12ZM936.112 237V228.54H941.74V229.764H937.588V232.092H941.476V233.316H937.588V235.776H941.74V237H936.112ZM942.207 237L946.035 228.54H947.295L951.123 237H949.563L948.543 234.624L949.191 235.044H944.127L944.775 234.624L943.767 237H942.207ZM946.647 230.208L944.967 234.204L944.655 233.82H948.663L948.363 234.204L946.671 230.208H946.647ZM954.871 237.12C954.431 237.12 954.007 237.08 953.599 237C953.199 236.928 952.827 236.82 952.483 236.676C952.147 236.532 951.847 236.36 951.583 236.16L952.051 234.948C952.315 235.132 952.591 235.292 952.879 235.428C953.175 235.556 953.487 235.656 953.815 235.728C954.151 235.792 954.503 235.824 954.871 235.824C955.503 235.824 955.963 235.72 956.251 235.512C956.539 235.296 956.683 235.02 956.683 234.684C956.683 234.5 956.639 234.344 956.551 234.216C956.463 234.08 956.319 233.964 956.119 233.868C955.919 233.772 955.655 233.692 955.327 233.628L954.007 233.352C953.247 233.192 952.679 232.924 952.303 232.548C951.935 232.164 951.751 231.66 951.751 231.036C951.751 230.508 951.891 230.048 952.171 229.656C952.451 229.264 952.839 228.96 953.335 228.744C953.831 228.528 954.403 228.42 955.051 228.42C955.435 228.42 955.803 228.46 956.155 228.54C956.515 228.612 956.843 228.724 957.139 228.876C957.443 229.02 957.707 229.196 957.931 229.404L957.463 230.556C957.127 230.276 956.759 230.068 956.359 229.932C955.959 229.788 955.519 229.716 955.039 229.716C954.671 229.716 954.355 229.768 954.091 229.872C953.827 229.976 953.623 230.124 953.479 230.316C953.343 230.5 953.275 230.72 953.275 230.976C953.275 231.264 953.371 231.496 953.563 231.672C953.755 231.84 954.083 231.972 954.547 232.068L955.855 232.344C956.647 232.512 957.235 232.776 957.619 233.136C958.011 233.496 958.207 233.976 958.207 234.576C958.207 235.08 958.071 235.524 957.799 235.908C957.527 236.292 957.139 236.592 956.635 236.808C956.139 237.016 955.551 237.12 954.871 237.12ZM963.318 237.12C962.702 237.12 962.142 237.02 961.638 236.82C961.142 236.612 960.714 236.316 960.354 235.932C960.002 235.548 959.73 235.088 959.538 234.552C959.346 234.016 959.25 233.42 959.25 232.764C959.25 232.1 959.346 231.504 959.538 230.976C959.73 230.44 960.002 229.984 960.354 229.608C960.714 229.224 961.142 228.932 961.638 228.732C962.142 228.524 962.702 228.42 963.318 228.42C963.934 228.42 964.49 228.524 964.986 228.732C965.49 228.932 965.918 229.22 966.27 229.596C966.63 229.972 966.906 230.428 967.098 230.964C967.29 231.492 967.386 232.088 967.386 232.752C967.386 233.416 967.29 234.016 967.098 234.552C966.906 235.088 966.63 235.548 966.27 235.932C965.918 236.316 965.49 236.612 964.986 236.82C964.49 237.02 963.934 237.12 963.318 237.12ZM963.318 235.8C963.838 235.8 964.278 235.68 964.638 235.44C965.006 235.2 965.286 234.852 965.478 234.396C965.678 233.94 965.778 233.396 965.778 232.764C965.778 232.124 965.682 231.58 965.49 231.132C965.298 230.676 965.018 230.332 964.65 230.1C964.282 229.86 963.838 229.74 963.318 229.74C962.806 229.74 962.366 229.86 961.998 230.1C961.63 230.332 961.346 230.676 961.146 231.132C960.954 231.58 960.858 232.124 960.858 232.764C960.858 233.396 960.954 233.94 961.146 234.396C961.346 234.852 961.63 235.2 961.998 235.44C962.366 235.68 962.806 235.8 963.318 235.8ZM968.947 237V228.54H970.099L974.959 234.852H974.647V228.54H976.075V237H974.935L970.075 230.676H970.375V237H968.947Z" fill="white"/>
<rect x="894" y="20" width="91" height="26" rx="8" fill="white" fill-opacity="0.08"/>
<path d="M902.832 37L906.66 28.54H907.92L911.748 37H910.188L909.168 34.624L909.816 35.044H904.752L905.4 34.624L904.392 37H902.832ZM907.272 30.208L905.592 34.204L905.28 33.82H909.288L908.988 34.204L907.296 30.208H907.272ZM912.674 37V28.54H914.21V35.692H918.266V37H912.674ZM919.894 37V29.824H916.99V28.54H924.334V29.824H921.43V37H919.894ZM931.457 37.12C931.017 37.12 930.593 37.08 930.185 37C929.785 36.928 929.413 36.82 929.069 36.676C928.733 36.532 928.433 36.36 928.169 36.16L928.637 34.948C928.901 35.132 929.177 35.292 929.465 35.428C929.761 35.556 930.073 35.656 930.401 35.728C930.737 35.792 931.089 35.824 931.457 35.824C932.089 35.824 932.549 35.72 932.837 35.512C933.125 35.296 933.269 35.02 933.269 34.684C933.269 34.5 933.225 34.344 933.137 34.216C933.049 34.08 932.905 33.964 932.705 33.868C932.505 33.772 932.241 33.692 931.913 33.628L930.593 33.352C929.833 33.192 929.265 32.924 928.889 32.548C928.521 32.164 928.337 31.66 928.337 31.036C928.337 30.508 928.477 30.048 928.757 29.656C929.037 29.264 929.425 28.96 929.921 28.744C930.417 28.528 930.989 28.42 931.637 28.42C932.021 28.42 932.389 28.46 932.741 28.54C933.101 28.612 933.429 28.724 933.725 28.876C934.029 29.02 934.293 29.196 934.517 29.404L934.049 30.556C933.713 30.276 933.345 30.068 932.945 29.932C932.545 29.788 932.105 29.716 931.625 29.716C931.257 29.716 930.941 29.768 930.677 29.872C930.413 29.976 930.209 30.124 930.065 30.316C929.929 30.5 929.861 30.72 929.861 30.976C929.861 31.264 929.957 31.496 930.149 31.672C930.341 31.84 930.669 31.972 931.133 32.068L932.441 32.344C933.233 32.512 933.821 32.776 934.205 33.136C934.597 33.496 934.793 33.976 934.793 34.576C934.793 35.08 934.657 35.524 934.385 35.908C934.113 36.292 933.725 36.592 933.221 36.808C932.725 37.016 932.137 37.12 931.457 37.12ZM936.112 37V28.54H941.74V29.764H937.588V32.092H941.476V33.316H937.588V35.776H941.74V37H936.112ZM942.207 37L946.035 28.54H947.295L951.123 37H949.563L948.543 34.624L949.191 35.044H944.127L944.775 34.624L943.767 37H942.207ZM946.647 30.208L944.967 34.204L944.655 33.82H948.663L948.363 34.204L946.671 30.208H946.647ZM954.871 37.12C954.431 37.12 954.007 37.08 953.599 37C953.199 36.928 952.827 36.82 952.483 36.676C952.147 36.532 951.847 36.36 951.583 36.16L952.051 34.948C952.315 35.132 952.591 35.292 952.879 35.428C953.175 35.556 953.487 35.656 953.815 35.728C954.151 35.792 954.503 35.824 954.871 35.824C955.503 35.824 955.963 35.72 956.251 35.512C956.539 35.296 956.683 35.02 956.683 34.684C956.683 34.5 956.639 34.344 956.551 34.216C956.463 34.08 956.319 33.964 956.119 33.868C955.919 33.772 955.655 33.692 955.327 33.628L954.007 33.352C953.247 33.192 952.679 32.924 952.303 32.548C951.935 32.164 951.751 31.66 951.751 31.036C951.751 30.508 951.891 30.048 952.171 29.656C952.451 29.264 952.839 28.96 953.335 28.744C953.831 28.528 954.403 28.42 955.051 28.42C955.435 28.42 955.803 28.46 956.155 28.54C956.515 28.612 956.843 28.724 957.139 28.876C957.443 29.02 957.707 29.196 957.931 29.404L957.463 30.556C957.127 30.276 956.759 30.068 956.359 29.932C955.959 29.788 955.519 29.716 955.039 29.716C954.671 29.716 954.355 29.768 954.091 29.872C953.827 29.976 953.623 30.124 953.479 30.316C953.343 30.5 953.275 30.72 953.275 30.976C953.275 31.264 953.371 31.496 953.563 31.672C953.755 31.84 954.083 31.972 954.547 32.068L955.855 32.344C956.647 32.512 957.235 32.776 957.619 33.136C958.011 33.496 958.207 33.976 958.207 34.576C958.207 35.08 958.071 35.524 957.799 35.908C957.527 36.292 957.139 36.592 956.635 36.808C956.139 37.016 955.551 37.12 954.871 37.12ZM963.318 37.12C962.702 37.12 962.142 37.02 961.638 36.82C961.142 36.612 960.714 36.316 960.354 35.932C960.002 35.548 959.73 35.088 959.538 34.552C959.346 34.016 959.25 33.42 959.25 32.764C959.25 32.1 959.346 31.504 959.538 30.976C959.73 30.44 960.002 29.984 960.354 29.608C960.714 29.224 961.142 28.932 961.638 28.732C962.142 28.524 962.702 28.42 963.318 28.42C963.934 28.42 964.49 28.524 964.986 28.732C965.49 28.932 965.918 29.22 966.27 29.596C966.63 29.972 966.906 30.428 967.098 30.964C967.29 31.492 967.386 32.088 967.386 32.752C967.386 33.416 967.29 34.016 967.098 34.552C966.906 35.088 966.63 35.548 966.27 35.932C965.918 36.316 965.49 36.612 964.986 36.82C964.49 37.02 963.934 37.12 963.318 37.12ZM963.318 35.8C963.838 35.8 964.278 35.68 964.638 35.44C965.006 35.2 965.286 34.852 965.478 34.396C965.678 33.94 965.778 33.396 965.778 32.764C965.778 32.124 965.682 31.58 965.49 31.132C965.298 30.676 965.018 30.332 964.65 30.1C964.282 29.86 963.838 29.74 963.318 29.74C962.806 29.74 962.366 29.86 961.998 30.1C961.63 30.332 961.346 30.676 961.146 31.132C960.954 31.58 960.858 32.124 960.858 32.764C960.858 33.396 960.954 33.94 961.146 34.396C961.346 34.852 961.63 35.2 961.998 35.44C962.366 35.68 962.806 35.8 963.318 35.8ZM968.947 37V28.54H970.099L974.959 34.852H974.647V28.54H976.075V37H974.935L970.075 30.676H970.375V37H968.947Z" fill="white"/>
<rect x="990" y="157" width="24" height="22" rx="4" fill="#FFE3AE"/>
<path d="M998.128 172.13C997.712 172.13 997.305 172.087 996.906 172C996.516 171.922 996.152 171.805 995.814 171.649C995.476 171.493 995.181 171.307 994.93 171.09L995.476 169.816C995.883 170.128 996.299 170.358 996.724 170.505C997.149 170.652 997.599 170.726 998.076 170.726C998.457 170.726 998.778 170.674 999.038 170.57C999.298 170.466 999.493 170.31 999.623 170.102C999.762 169.894 999.831 169.643 999.831 169.348C999.831 168.915 999.684 168.594 999.389 168.386C999.103 168.169 998.683 168.061 998.128 168.061H996.659V166.683H997.972C998.301 166.683 998.583 166.631 998.817 166.527C999.051 166.414 999.233 166.258 999.363 166.059C999.493 165.86 999.558 165.617 999.558 165.331C999.558 164.932 999.424 164.629 999.155 164.421C998.895 164.213 998.514 164.109 998.011 164.109C997.56 164.109 997.14 164.187 996.75 164.343C996.36 164.49 995.987 164.724 995.632 165.045L995.086 163.797C995.45 163.45 995.905 163.182 996.451 162.991C996.997 162.8 997.565 162.705 998.154 162.705C998.787 162.705 999.328 162.805 999.779 163.004C1000.23 163.195 1000.57 163.472 1000.81 163.836C1001.05 164.191 1001.17 164.625 1001.17 165.136C1001.17 165.682 1001.02 166.154 1000.72 166.553C1000.41 166.943 999.996 167.203 999.467 167.333V167.177C999.883 167.246 1000.24 167.385 1000.53 167.593C1000.83 167.801 1001.05 168.065 1001.21 168.386C1001.37 168.707 1001.44 169.075 1001.44 169.491C1001.44 170.028 1001.31 170.496 1001.04 170.895C1000.77 171.294 1000.39 171.601 999.896 171.818C999.402 172.026 998.813 172.13 998.128 172.13ZM1005.4 172.13C1005.08 172.13 1004.76 172.087 1004.43 172C1004.11 171.922 1003.8 171.805 1003.51 171.649C1003.22 171.493 1002.96 171.307 1002.73 171.09L1003.28 169.842C1003.6 170.137 1003.93 170.358 1004.3 170.505C1004.67 170.652 1005.04 170.726 1005.42 170.726C1005.8 170.726 1006.13 170.661 1006.42 170.531C1006.71 170.392 1006.96 170.193 1007.16 169.933C1007.36 169.664 1007.5 169.335 1007.6 168.945C1007.7 168.546 1007.76 168.087 1007.76 167.567V166.592H1007.9C1007.84 167.025 1007.7 167.402 1007.47 167.723C1007.24 168.044 1006.96 168.291 1006.61 168.464C1006.27 168.629 1005.89 168.711 1005.46 168.711C1004.94 168.711 1004.47 168.585 1004.06 168.334C1003.66 168.083 1003.33 167.736 1003.09 167.294C1002.86 166.843 1002.74 166.336 1002.74 165.773C1002.74 165.175 1002.87 164.646 1003.13 164.187C1003.39 163.728 1003.74 163.368 1004.19 163.108C1004.65 162.839 1005.18 162.705 1005.77 162.705C1006.53 162.705 1007.18 162.883 1007.7 163.238C1008.23 163.593 1008.64 164.113 1008.91 164.798C1009.19 165.474 1009.33 166.293 1009.33 167.255C1009.33 168.286 1009.17 169.166 1008.86 169.894C1008.55 170.622 1008.1 171.177 1007.51 171.558C1006.93 171.939 1006.23 172.13 1005.4 172.13ZM1005.87 167.385C1006.18 167.385 1006.46 167.316 1006.69 167.177C1006.93 167.038 1007.12 166.843 1007.25 166.592C1007.38 166.332 1007.44 166.037 1007.44 165.708C1007.44 165.37 1007.38 165.075 1007.25 164.824C1007.12 164.573 1006.93 164.378 1006.69 164.239C1006.46 164.092 1006.18 164.018 1005.87 164.018C1005.56 164.018 1005.29 164.092 1005.05 164.239C1004.82 164.378 1004.63 164.573 1004.49 164.824C1004.36 165.075 1004.3 165.37 1004.3 165.708C1004.3 166.037 1004.36 166.332 1004.49 166.592C1004.63 166.843 1004.82 167.038 1005.05 167.177C1005.29 167.316 1005.56 167.385 1005.87 167.385Z" fill="black"/>
<defs>
<filter id="filter0_d_2277_143" x="29.5273" y="23.0928" width="953.125" height="220.674" filterUnits="userSpaceOnUse" color-interpolation-filters="sRGB">
<feFlood flood-opacity="0" result="BackgroundImageFix"/>
<feColorMatrix in="SourceAlpha" type="matrix" values="0 0 0 0 0 0 0 0 0 0 0 0 0 0 0 0 0 0 127 0" result="hardAlpha"/>
<feOffset/>
<feGaussianBlur stdDeviation="4"/>
<feComposite in2="hardAlpha" operator="out"/>
<feColorMatrix type="matrix" values="0 0 0 0 0.447059 0 0 0 0 0.458824 0 0 0 0 0.490196 0 0 0 0.24 0"/>
<feBlend mode="normal" in2="BackgroundImageFix" result="effect1_dropShadow_2277_143"/>
<feBlend mode="normal" in="SourceGraphic" in2="effect1_dropShadow_2277_143" result="shape"/>
</filter>
<filter id="filter1_d_2277_143" x="29.25" y="27.1055" width="953.219" height="184.261" filterUnits="userSpaceOnUse" color-interpolation-filters="sRGB">
<feFlood flood-opacity="0" result="BackgroundImageFix"/>
<feColorMatrix in="SourceAlpha" type="matrix" values="0 0 0 0 0 0 0 0 0 0 0 0 0 0 0 0 0 0 127 0" result="hardAlpha"/>
<feOffset/>
<feGaussianBlur stdDeviation="4"/>
<feComposite in2="hardAlpha" operator="out"/>
<feColorMatrix type="matrix" values="0 0 0 0 1 0 0 0 0 1 0 0 0 0 1 0 0 0 0.24 0"/>
<feBlend mode="normal" in2="BackgroundImageFix" result="effect1_dropShadow_2277_143"/>
<feBlend mode="normal" in="SourceGraphic" in2="effect1_dropShadow_2277_143" result="shape"/>
</filter>
<linearGradient id="paint0_linear_2277_143" x1="506" y1="36" x2="506" y2="202" gradientUnits="userSpaceOnUse">
<stop stop-color="#6AA5FF"/>
<stop offset="0.5" stop-color="#AACCFF"/>
<stop offset="1" stop-color="#FFE3AE"/>
</linearGradient>
</defs>
</svg>
