<svg width="818" height="387" viewBox="0 0 818 387" fill="none" xmlns="http://www.w3.org/2000/svg">
<path d="M8 352.934C8 352.22 8.57899 351.641 9.29322 351.641V351.641C10.0074 351.641 10.5864 352.22 10.5864 352.934V357.002H8V352.934Z" fill="#2EBD85"/>
<path d="M11.8799 351.471C11.8799 350.757 12.4589 350.178 13.1731 350.178V350.178C13.8873 350.178 14.4663 350.757 14.4663 351.471V357.001H11.8799V351.471Z" fill="#2EBD85"/>
<path d="M15.7593 348.303C15.7593 347.589 16.3383 347.01 17.0525 347.01V347.01C17.7667 347.01 18.3457 347.589 18.3457 348.303V357.002H15.7593V348.303Z" fill="#2EBD85"/>
<path d="M19.6392 349.279C19.6392 348.564 20.2182 347.985 20.9324 347.985V347.985C21.6466 347.985 22.2256 348.564 22.2256 349.279V357.002H19.6392V349.279Z" fill="#2EBD85"/>
<path d="M23.5186 347.084C23.5186 346.37 24.0975 345.791 24.8118 345.791V345.791C25.526 345.791 26.105 346.37 26.105 347.084V357.001H23.5186V347.084Z" fill="#2EBD85"/>
<path d="M27.3984 349.279C27.3984 348.564 27.9774 347.985 28.6917 347.985V347.985C29.4059 347.985 29.9849 348.564 29.9849 349.279V357.002H27.3984V349.279Z" fill="#2EBD85"/>
<path d="M31.2778 338.068C31.2778 337.353 31.8568 336.774 32.5711 336.774V336.774C33.2853 336.774 33.8643 337.353 33.8643 338.068V357.002H31.2778V338.068Z" fill="#2EBD85"/>
<path d="M35.1577 345.623C35.1577 344.909 35.7367 344.33 36.4509 344.33V344.33C37.1652 344.33 37.7442 344.909 37.7442 345.623V357.003H35.1577V345.623Z" fill="#2EBD85"/>
<path d="M39.0371 348.547C39.0371 347.833 39.6161 347.254 40.3303 347.254V347.254C41.0446 347.254 41.6236 347.833 41.6236 348.547V357.002H39.0371V348.547Z" fill="#2EBD85"/>
<path d="M42.917 350.497C42.917 349.783 43.496 349.204 44.2102 349.204V349.204C44.9244 349.204 45.5034 349.783 45.5034 350.497V357.003H42.917V350.497Z" fill="#2EBD85"/>
<path d="M46.7969 351.228C46.7969 350.514 47.3759 349.935 48.0901 349.935V349.935C48.8043 349.935 49.3833 350.514 49.3833 351.228V357.002H46.7969V351.228Z" fill="#2EBD85"/>
<path d="M50.6763 350.984C50.6763 350.269 51.2553 349.69 51.9695 349.69V349.69C52.6837 349.69 53.2627 350.269 53.2627 350.984V357.002H50.6763V350.984Z" fill="#2EBD85"/>
<path d="M54.5557 350.74C54.5557 350.025 55.1347 349.446 55.8489 349.446V349.446C56.5631 349.446 57.1421 350.025 57.1421 350.74V357.001H54.5557V350.74Z" fill="#2EBD85"/>
<path d="M58.4355 350.984C58.4355 350.269 59.0145 349.69 59.7288 349.69V349.69C60.443 349.69 61.022 350.269 61.022 350.984V357.002H58.4355V350.984Z" fill="#2EBD85"/>
<path d="M62.3154 353.421C62.3154 352.707 62.8944 352.128 63.6087 352.128V352.128C64.3229 352.128 64.9019 352.707 64.9019 353.421V357.002H62.3154V353.421Z" fill="#2EBD85"/>
<path d="M66.1948 355.127C66.1948 354.413 66.7738 353.834 67.488 353.834V353.834C68.2023 353.834 68.7813 354.413 68.7813 355.127V357.002H66.1948V355.127Z" fill="#2EBD85"/>
<path d="M70.0747 354.153C70.0747 353.438 70.6537 352.859 71.3679 352.859V352.859C72.0822 352.859 72.6611 353.438 72.6611 354.153V357.002H70.0747V354.153Z" fill="#2EBD85"/>
<path d="M73.9541 353.664C73.9541 352.95 74.5331 352.371 75.2473 352.371V352.371C75.9615 352.371 76.5405 352.95 76.5405 353.664V357.002H73.9541V353.664Z" fill="#2EBD85"/>
<path d="M77.834 353.664C77.834 352.95 78.413 352.371 79.1272 352.371V352.371C79.8414 352.371 80.4204 352.95 80.4204 353.664V357.002H77.834V353.664Z" fill="#2EBD85"/>
<path d="M81.7134 354.884C81.7134 354.17 82.2924 353.591 83.0066 353.591V353.591C83.7208 353.591 84.2998 354.17 84.2998 354.884V357.003H81.7134V354.884Z" fill="#2EBD85"/>
<path d="M85.5933 355.371C85.5933 354.657 86.1723 354.078 86.8865 354.078V354.078C87.6007 354.078 88.1797 354.657 88.1797 355.371V357.003H85.5933V355.371Z" fill="#2EBD85"/>
<path d="M89.4731 354.884C89.4731 354.17 90.0521 353.591 90.7664 353.591V353.591C91.4806 353.591 92.0596 354.17 92.0596 354.884V357.003H89.4731V354.884Z" fill="#2EBD85"/>
<path d="M93.3525 355.127C93.3525 354.413 93.9315 353.834 94.6458 353.834V353.834C95.36 353.834 95.939 354.413 95.939 355.127V357.002H93.3525V355.127Z" fill="#2EBD85"/>
<path d="M97.2319 355.614C97.2319 354.899 97.8109 354.32 98.5252 354.32V354.32C99.2394 354.32 99.8184 354.899 99.8184 355.614V357.001H97.2319V355.614Z" fill="#2EBD85"/>
<path d="M101.112 352.934C101.112 352.22 101.691 351.641 102.405 351.641V351.641C103.119 351.641 103.698 352.22 103.698 352.934V357.002H101.112V352.934Z" fill="#2EBD85"/>
<path d="M104.992 348.547C104.992 347.833 105.571 347.254 106.285 347.254V347.254C106.999 347.254 107.578 347.833 107.578 348.547V357.002H104.992V348.547Z" fill="#2EBD85"/>
<path d="M108.871 352.203C108.871 351.489 109.45 350.91 110.164 350.91V350.91C110.879 350.91 111.458 351.489 111.458 352.203V357.003H108.871V352.203Z" fill="#2EBD85"/>
<path d="M112.751 354.396C112.751 353.682 113.33 353.103 114.044 353.103V353.103C114.758 353.103 115.337 353.682 115.337 354.396V357.002H112.751V354.396Z" fill="#2EBD85"/>
<path d="M116.63 353.177C116.63 352.463 117.209 351.884 117.924 351.884V351.884C118.638 351.884 119.217 352.463 119.217 353.177V357.002H116.63V353.177Z" fill="#2EBD85"/>
<path d="M120.51 348.303C120.51 347.589 121.089 347.01 121.803 347.01V347.01C122.518 347.01 123.097 347.589 123.097 348.303V357.002H120.51V348.303Z" fill="#2EBD85"/>
<path d="M124.39 348.303C124.39 347.589 124.969 347.01 125.683 347.01V347.01C126.398 347.01 126.977 347.589 126.977 348.303V357.002H124.39V348.303Z" fill="#2EBD85"/>
<path d="M128.27 349.522C128.27 348.808 128.849 348.229 129.563 348.229V348.229C130.277 348.229 130.856 348.808 130.856 349.522V357.002H128.27V349.522Z" fill="#2EBD85"/>
<path d="M132.149 347.816C132.149 347.101 132.728 346.522 133.443 346.522V346.522C134.157 346.522 134.736 347.101 134.736 347.816V357.002H132.149V347.816Z" fill="#2EBD85"/>
<path d="M136.029 351.471C136.029 350.757 136.608 350.178 137.322 350.178V350.178C138.036 350.178 138.615 350.757 138.615 351.471V357.001H136.029V351.471Z" fill="#2EBD85"/>
<path d="M139.909 352.69C139.909 351.975 140.488 351.396 141.202 351.396V351.396C141.916 351.396 142.495 351.975 142.495 352.69V357.002H139.909V352.69Z" fill="#2EBD85"/>
<path d="M143.788 353.177C143.788 352.463 144.367 351.884 145.081 351.884V351.884C145.796 351.884 146.375 352.463 146.375 353.177V357.002H143.788V353.177Z" fill="#2EBD85"/>
<path d="M147.668 351.958C147.668 351.244 148.247 350.665 148.961 350.665V350.665C149.675 350.665 150.254 351.244 150.254 351.958V357.001H147.668V351.958Z" fill="#2EBD85"/>
<path d="M151.547 355.371C151.547 354.657 152.126 354.078 152.841 354.078V354.078C153.555 354.078 154.134 354.657 154.134 355.371V357.003H151.547V355.371Z" fill="#2EBD85"/>
<path d="M155.427 356.345C155.427 355.631 156.006 355.052 156.72 355.052V355.052C157.435 355.052 158.014 355.631 158.014 356.345V357.001H155.427V356.345Z" fill="#2EBD85"/>
<path d="M159.307 356.103C159.307 355.389 159.886 354.81 160.6 354.81V354.81C161.314 354.81 161.893 355.389 161.893 356.103V357.003H159.307V356.103Z" fill="#2EBD85"/>
<path d="M163.187 352.934C163.187 352.22 163.766 351.641 164.48 351.641V351.641C165.194 351.641 165.773 352.22 165.773 352.934V357.002H163.187V352.934Z" fill="#2EBD85"/>
<path d="M167.066 352.446C167.066 351.731 167.645 351.152 168.359 351.152V351.152C169.073 351.152 169.652 351.731 169.652 352.446V357.001H167.066V352.446Z" fill="#2EBD85"/>
<path d="M170.946 353.177C170.946 352.463 171.525 351.884 172.239 351.884V351.884C172.953 351.884 173.532 352.463 173.532 353.177V357.002H170.946V353.177Z" fill="#2EBD85"/>
<path d="M174.825 354.64C174.825 353.926 175.404 353.347 176.118 353.347V353.347C176.833 353.347 177.412 353.926 177.412 354.64V357.002H174.825V354.64Z" fill="#2EBD85"/>
<path d="M178.705 353.421C178.705 352.707 179.284 352.128 179.998 352.128V352.128C180.713 352.128 181.292 352.707 181.292 353.421V357.002H178.705V353.421Z" fill="#2EBD85"/>
<path d="M182.585 355.127C182.585 354.413 183.164 353.834 183.878 353.834V353.834C184.592 353.834 185.171 354.413 185.171 355.127V357.002H182.585V355.127Z" fill="#2EBD85"/>
<path d="M186.464 355.614C186.464 354.899 187.043 354.32 187.758 354.32V354.32C188.472 354.32 189.051 354.899 189.051 355.614V357.001H186.464V355.614Z" fill="#2EBD85"/>
<path d="M190.344 354.396C190.344 353.682 190.923 353.103 191.637 353.103V353.103C192.352 353.103 192.931 353.682 192.931 354.396V357.002H190.344V354.396Z" fill="#2EBD85"/>
<path d="M194.224 354.884C194.224 354.17 194.803 353.591 195.517 353.591V353.591C196.232 353.591 196.811 354.17 196.811 354.884V357.003H194.224V354.884Z" fill="#2EBD85"/>
<path d="M198.104 354.396C198.104 353.682 198.683 353.103 199.397 353.103V353.103C200.111 353.103 200.69 353.682 200.69 354.396V357.002H198.104V354.396Z" fill="#2EBD85"/>
<path d="M201.983 355.371C201.983 354.657 202.562 354.078 203.276 354.078V354.078C203.99 354.078 204.569 354.657 204.569 355.371V357.003H201.983V355.371Z" fill="#2EBD85"/>
<path d="M205.863 354.396C205.863 353.682 206.442 353.103 207.156 353.103V353.103C207.87 353.103 208.449 353.682 208.449 354.396V357.002H205.863V354.396Z" fill="#2EBD85"/>
<path d="M209.742 354.396C209.742 353.682 210.321 353.103 211.035 353.103V353.103C211.75 353.103 212.329 353.682 212.329 354.396V357.002H209.742V354.396Z" fill="#2EBD85"/>
<path d="M213.622 346.598C213.622 345.884 214.201 345.305 214.915 345.305V345.305C215.63 345.305 216.209 345.884 216.209 346.598V357.003H213.622V346.598Z" fill="#2EBD85"/>
<path d="M217.502 346.11C217.502 345.395 218.081 344.816 218.795 344.816V344.816C219.509 344.816 220.088 345.395 220.088 346.11V357.002H217.502V346.11Z" fill="#2EBD85"/>
<path d="M221.381 346.841C221.381 346.127 221.96 345.548 222.675 345.548V345.548C223.389 345.548 223.968 346.127 223.968 346.841V357.002H221.381V346.841Z" fill="#2EBD85"/>
<path d="M225.261 350.497C225.261 349.783 225.84 349.204 226.554 349.204V349.204C227.269 349.204 227.848 349.783 227.848 350.497V357.003H225.261V350.497Z" fill="#2EBD85"/>
<path d="M229.141 352.934C229.141 352.22 229.72 351.641 230.434 351.641V351.641C231.148 351.641 231.727 352.22 231.727 352.934V357.002H229.141V352.934Z" fill="#2EBD85"/>
<path d="M233.021 354.153C233.021 353.438 233.6 352.859 234.314 352.859V352.859C235.028 352.859 235.607 353.438 235.607 354.153V357.002H233.021V354.153Z" fill="#2EBD85"/>
<path d="M236.9 352.69C236.9 351.975 237.479 351.396 238.193 351.396V351.396C238.907 351.396 239.486 351.975 239.486 352.69V357.002H236.9V352.69Z" fill="#2EBD85"/>
<path d="M240.78 349.766C240.78 349.052 241.359 348.473 242.073 348.473V348.473C242.787 348.473 243.366 349.052 243.366 349.766V357.002H240.78V349.766Z" fill="#2EBD85"/>
<path d="M244.659 354.884C244.659 354.17 245.238 353.591 245.952 353.591V353.591C246.667 353.591 247.246 354.17 247.246 354.884V357.003H244.659V354.884Z" fill="#2EBD85"/>
<path d="M248.539 356.103C248.539 355.389 249.118 354.81 249.832 354.81V354.81C250.547 354.81 251.126 355.389 251.126 356.103V357.003H248.539V356.103Z" fill="#2EBD85"/>
<path d="M252.418 354.396C252.418 353.682 252.997 353.103 253.712 353.103V353.103C254.426 353.103 255.005 353.682 255.005 354.396V357.002H252.418V354.396Z" fill="#2EBD85"/>
<path d="M256.298 350.253C256.298 349.539 256.877 348.96 257.592 348.96V348.96C258.306 348.96 258.885 349.539 258.885 350.253V357.002H256.298V350.253Z" fill="#2EBD85"/>
<path d="M260.178 354.64C260.178 353.926 260.757 353.347 261.471 353.347V353.347C262.186 353.347 262.765 353.926 262.765 354.64V357.002H260.178V354.64Z" fill="#2EBD85"/>
<path d="M264.058 354.153C264.058 353.438 264.637 352.859 265.351 352.859V352.859C266.065 352.859 266.644 353.438 266.644 354.153V357.002H264.058V354.153Z" fill="#2EBD85"/>
<path d="M267.938 356.103C267.938 355.389 268.516 354.81 269.231 354.81V354.81C269.945 354.81 270.524 355.389 270.524 356.103V357.003H267.938V356.103Z" fill="#2EBD85"/>
<path d="M271.817 355.859C271.817 355.144 272.396 354.565 273.11 354.565V354.565C273.824 354.565 274.403 355.144 274.403 355.859V357.002H271.817V355.859Z" fill="#2EBD85"/>
<path d="M275.697 355.371C275.697 354.657 276.276 354.078 276.99 354.078V354.078C277.704 354.078 278.283 354.657 278.283 355.371V357.003H275.697V355.371Z" fill="#2EBD85"/>
<path d="M279.576 355.859C279.576 355.144 280.155 354.565 280.869 354.565V354.565C281.584 354.565 282.163 355.144 282.163 355.859V357.002H279.576V355.859Z" fill="#2EBD85"/>
<path d="M283.456 352.934C283.456 352.22 284.035 351.641 284.749 351.641V351.641C285.464 351.641 286.042 352.22 286.042 352.934V357.002H283.456V352.934Z" fill="#2EBD85"/>
<path d="M287.336 354.153C287.336 353.438 287.915 352.859 288.629 352.859V352.859C289.343 352.859 289.922 353.438 289.922 354.153V357.002H287.336V354.153Z" fill="#2EBD85"/>
<path d="M291.215 355.859C291.215 355.144 291.794 354.565 292.509 354.565V354.565C293.223 354.565 293.802 355.144 293.802 355.859V357.002H291.215V355.859Z" fill="#2EBD85"/>
<path d="M295.095 353.664C295.095 352.95 295.674 352.371 296.388 352.371V352.371C297.103 352.371 297.682 352.95 297.682 353.664V357.002H295.095V353.664Z" fill="#2EBD85"/>
<path d="M298.975 353.421C298.975 352.707 299.554 352.128 300.268 352.128V352.128C300.982 352.128 301.561 352.707 301.561 353.421V357.002H298.975V353.421Z" fill="#2EBD85"/>
<path d="M302.854 351.228C302.854 350.514 303.433 349.935 304.147 349.935V349.935C304.861 349.935 305.44 350.514 305.44 351.228V357.002H302.854V351.228Z" fill="#2EBD85"/>
<path d="M306.734 346.354C306.734 345.64 307.313 345.061 308.027 345.061V345.061C308.741 345.061 309.32 345.64 309.32 346.354V357.002H306.734V346.354Z" fill="#2EBD85"/>
<path d="M310.614 346.354C310.614 345.64 311.193 345.061 311.907 345.061V345.061C312.621 345.061 313.2 345.64 313.2 346.354V357.002H310.614V346.354Z" fill="#2EBD85"/>
<path d="M314.493 348.303C314.493 347.589 315.072 347.01 315.786 347.01V347.01C316.501 347.01 317.08 347.589 317.08 348.303V357.002H314.493V348.303Z" fill="#2EBD85"/>
<path d="M318.373 351.228C318.373 350.514 318.952 349.935 319.666 349.935V349.935C320.38 349.935 320.959 350.514 320.959 351.228V357.002H318.373V351.228Z" fill="#2EBD85"/>
<path d="M322.253 353.177C322.253 352.463 322.832 351.884 323.546 351.884V351.884C324.26 351.884 324.839 352.463 324.839 353.177V357.002H322.253V353.177Z" fill="#2EBD85"/>
<path d="M326.132 353.908C326.132 353.194 326.711 352.615 327.425 352.615V352.615C328.139 352.615 328.718 353.194 328.718 353.908V357.002H326.132V353.908Z" fill="#2EBD85"/>
<path d="M330.012 352.446C330.012 351.731 330.591 351.152 331.305 351.152V351.152C332.02 351.152 332.599 351.731 332.599 352.446V357.001H330.012V352.446Z" fill="#2EBD85"/>
<path d="M333.891 354.153C333.891 353.438 334.47 352.859 335.184 352.859V352.859C335.899 352.859 336.478 353.438 336.478 354.153V357.002H333.891V354.153Z" fill="#2EBD85"/>
<path d="M337.771 355.371C337.771 354.657 338.35 354.078 339.065 354.078V354.078C339.779 354.078 340.358 354.657 340.358 355.371V357.003H337.771V355.371Z" fill="#2EBD85"/>
<path d="M341.651 355.614C341.651 354.899 342.23 354.32 342.945 354.32V354.32C343.659 354.32 344.238 354.899 344.238 355.614V357.001H341.651V355.614Z" fill="#2EBD85"/>
<path d="M345.531 354.884C345.531 354.17 346.11 353.591 346.824 353.591V353.591C347.538 353.591 348.117 354.17 348.117 354.884V357.003H345.531V354.884Z" fill="#2EBD85"/>
<path d="M349.41 350.008C349.41 349.294 349.989 348.715 350.703 348.715V348.715C351.418 348.715 351.997 349.294 351.997 350.008V357.001H349.41V350.008Z" fill="#2EBD85"/>
<path d="M353.29 350.984C353.29 350.269 353.869 349.69 354.583 349.69V349.69C355.297 349.69 355.876 350.269 355.876 350.984V357.002H353.29V350.984Z" fill="#2EBD85"/>
<path d="M357.169 354.884C357.169 354.17 357.748 353.591 358.463 353.591V353.591C359.177 353.591 359.756 354.17 359.756 354.884V357.003H357.169V354.884Z" fill="#2EBD85"/>
<path d="M361.049 355.371C361.049 354.657 361.628 354.078 362.343 354.078V354.078C363.057 354.078 363.636 354.657 363.636 355.371V357.003H361.049V355.371Z" fill="#2EBD85"/>
<path d="M364.929 354.884C364.929 354.17 365.508 353.591 366.222 353.591V353.591C366.937 353.591 367.516 354.17 367.516 354.884V357.003H364.929V354.884Z" fill="#2EBD85"/>
<path d="M368.809 356.103C368.809 355.389 369.388 354.81 370.102 354.81V354.81C370.816 354.81 371.395 355.389 371.395 356.103V357.003H368.809V356.103Z" fill="#2EBD85"/>
<path d="M372.688 354.64C372.688 353.926 373.267 353.347 373.982 353.347V353.347C374.696 353.347 375.275 353.926 375.275 354.64V357.002H372.688V354.64Z" fill="#2EBD85"/>
<path d="M376.568 352.934C376.568 352.22 377.147 351.641 377.861 351.641V351.641C378.575 351.641 379.154 352.22 379.154 352.934V357.002H376.568V352.934Z" fill="#2EBD85"/>
<path d="M380.448 354.153C380.448 353.438 381.027 352.859 381.741 352.859V352.859C382.455 352.859 383.034 353.438 383.034 354.153V357.002H380.448V354.153Z" fill="#2EBD85"/>
<path d="M384.327 353.421C384.327 352.707 384.906 352.128 385.62 352.128V352.128C386.335 352.128 386.914 352.707 386.914 353.421V357.002H384.327V353.421Z" fill="#2EBD85"/>
<path d="M388.207 355.127C388.207 354.413 388.786 353.834 389.5 353.834V353.834C390.214 353.834 390.793 354.413 390.793 355.127V357.002H388.207V355.127Z" fill="#2EBD85"/>
<path d="M392.086 352.934C392.086 352.22 392.665 351.641 393.38 351.641V351.641C394.094 351.641 394.673 352.22 394.673 352.934V357.002H392.086V352.934Z" fill="#2EBD85"/>
<path d="M395.966 352.934C395.966 352.22 396.545 351.641 397.259 351.641V351.641C397.973 351.641 398.552 352.22 398.552 352.934V357.002H395.966V352.934Z" fill="#2EBD85"/>
<path d="M399.846 346.598C399.846 345.884 400.425 345.305 401.139 345.305V345.305C401.853 345.305 402.432 345.884 402.432 346.598V357.003H399.846V346.598Z" fill="#2EBD85"/>
<path d="M403.726 344.405C403.726 343.69 404.305 343.111 405.019 343.111V343.111C405.733 343.111 406.312 343.69 406.312 344.405V357.003H403.726V344.405Z" fill="#2EBD85"/>
<path d="M407.605 347.572C407.605 346.857 408.184 346.278 408.899 346.278V346.278C409.613 346.278 410.192 346.857 410.192 347.572V357.001H407.605V347.572Z" fill="#2EBD85"/>
<path d="M411.485 349.034C411.485 348.32 412.064 347.741 412.778 347.741V347.741C413.492 347.741 414.071 348.32 414.071 349.034V357.002H411.485V349.034Z" fill="#2EBD85"/>
<path d="M415.365 352.203C415.365 351.489 415.944 350.91 416.658 350.91V350.91C417.372 350.91 417.951 351.489 417.951 352.203V357.003H415.365V352.203Z" fill="#2EBD85"/>
<path d="M419.244 350.253C419.244 349.539 419.823 348.96 420.537 348.96V348.96C421.252 348.96 421.831 349.539 421.831 350.253V357.002H419.244V350.253Z" fill="#2EBD85"/>
<path d="M423.124 349.522C423.124 348.808 423.703 348.229 424.417 348.229V348.229C425.131 348.229 425.71 348.808 425.71 349.522V357.002H423.124V349.522Z" fill="#2EBD85"/>
<path d="M427.003 353.421C427.003 352.707 427.582 352.128 428.297 352.128V352.128C429.011 352.128 429.59 352.707 429.59 353.421V357.002H427.003V353.421Z" fill="#2EBD85"/>
<path d="M430.883 355.127C430.883 354.413 431.462 353.834 432.177 353.834V353.834C432.891 353.834 433.47 354.413 433.47 355.127V357.002H430.883V355.127Z" fill="#2EBD85"/>
<path d="M434.763 355.614C434.763 354.899 435.342 354.32 436.056 354.32V354.32C436.77 354.32 437.349 354.899 437.349 355.614V357.001H434.763V355.614Z" fill="#2EBD85"/>
<path d="M438.642 354.884C438.642 354.17 439.221 353.591 439.935 353.591V353.591C440.65 353.591 441.229 354.17 441.229 354.884V357.003H438.642V354.884Z" fill="#2EBD85"/>
<path d="M442.522 354.884C442.522 354.17 443.101 353.591 443.815 353.591V353.591C444.529 353.591 445.108 354.17 445.108 354.884V357.003H442.522V354.884Z" fill="#2EBD85"/>
<path d="M446.402 356.103C446.402 355.389 446.981 354.81 447.695 354.81V354.81C448.409 354.81 448.988 355.389 448.988 356.103V357.003H446.402V356.103Z" fill="#2EBD85"/>
<path d="M450.281 351.715C450.281 351.001 450.86 350.422 451.574 350.422V350.422C452.289 350.422 452.868 351.001 452.868 351.715V357.002H450.281V351.715Z" fill="#2EBD85"/>
<path d="M454.161 352.446C454.161 351.731 454.74 351.152 455.454 351.152V351.152C456.169 351.152 456.748 351.731 456.748 352.446V357.001H454.161V352.446Z" fill="#2EBD85"/>
<path d="M458.041 351.471C458.041 350.757 458.62 350.178 459.334 350.178V350.178C460.048 350.178 460.627 350.757 460.627 351.471V357.001H458.041V351.471Z" fill="#2EBD85"/>
<path d="M461.92 352.69C461.92 351.975 462.499 351.396 463.214 351.396V351.396C463.928 351.396 464.507 351.975 464.507 352.69V357.002H461.92V352.69Z" fill="#2EBD85"/>
<path d="M465.8 353.908C465.8 353.194 466.379 352.615 467.093 352.615V352.615C467.807 352.615 468.386 353.194 468.386 353.908V357.002H465.8V353.908Z" fill="#2EBD85"/>
<path d="M469.68 352.203C469.68 351.489 470.259 350.91 470.973 350.91V350.91C471.687 350.91 472.266 351.489 472.266 352.203V357.003H469.68V352.203Z" fill="#2EBD85"/>
<path d="M473.559 354.396C473.559 353.682 474.138 353.103 474.852 353.103V353.103C475.567 353.103 476.146 353.682 476.146 354.396V357.002H473.559V354.396Z" fill="#2EBD85"/>
<path d="M477.439 353.177C477.439 352.463 478.018 351.884 478.733 351.884V351.884C479.447 351.884 480.026 352.463 480.026 353.177V357.002H477.439V353.177Z" fill="#2EBD85"/>
<path d="M481.319 353.664C481.319 352.95 481.898 352.371 482.612 352.371V352.371C483.326 352.371 483.905 352.95 483.905 353.664V357.002H481.319V353.664Z" fill="#2EBD85"/>
<path d="M485.199 354.396C485.199 353.682 485.778 353.103 486.492 353.103V353.103C487.206 353.103 487.785 353.682 487.785 354.396V357.002H485.199V354.396Z" fill="#2EBD85"/>
<path d="M489.078 353.421C489.078 352.707 489.657 352.128 490.371 352.128V352.128C491.086 352.128 491.665 352.707 491.665 353.421V357.002H489.078V353.421Z" fill="#2EBD85"/>
<path d="M492.958 353.177C492.958 352.463 493.537 351.884 494.251 351.884V351.884C494.965 351.884 495.544 352.463 495.544 353.177V357.002H492.958V353.177Z" fill="#2EBD85"/>
<path d="M496.837 351.471C496.837 350.757 497.416 350.178 498.131 350.178V350.178C498.845 350.178 499.424 350.757 499.424 351.471V357.001H496.837V351.471Z" fill="#2EBD85"/>
<path d="M500.717 348.547C500.717 347.833 501.296 347.254 502.01 347.254V347.254C502.724 347.254 503.303 347.833 503.303 348.547V357.002H500.717V348.547Z" fill="#2EBD85"/>
<path d="M504.597 353.177C504.597 352.463 505.176 351.884 505.89 351.884V351.884C506.604 351.884 507.183 352.463 507.183 353.177V357.002H504.597V353.177Z" fill="#2EBD85"/>
<path d="M508.477 353.421C508.477 352.707 509.056 352.128 509.77 352.128V352.128C510.484 352.128 511.063 352.707 511.063 353.421V357.002H508.477V353.421Z" fill="#2EBD85"/>
<path d="M512.356 354.64C512.356 353.926 512.935 353.347 513.649 353.347V353.347C514.363 353.347 514.942 353.926 514.942 354.64V357.002H512.356V354.64Z" fill="#2EBD85"/>
<path d="M516.235 354.396C516.235 353.682 516.814 353.103 517.529 353.103V353.103C518.243 353.103 518.822 353.682 518.822 354.396V357.002H516.235V354.396Z" fill="#2EBD85"/>
<path d="M520.116 355.127C520.116 354.413 520.695 353.834 521.409 353.834V353.834C522.123 353.834 522.702 354.413 522.702 355.127V357.002H520.116V355.127Z" fill="#2EBD85"/>
<path d="M523.995 356.103C523.995 355.389 524.574 354.81 525.288 354.81V354.81C526.003 354.81 526.582 355.389 526.582 356.103V357.003H523.995V356.103Z" fill="#2EBD85"/>
<path d="M527.875 354.64C527.875 353.926 528.454 353.347 529.168 353.347V353.347C529.882 353.347 530.461 353.926 530.461 354.64V357.002H527.875V354.64Z" fill="#2EBD85"/>
<path d="M531.754 355.371C531.754 354.657 532.333 354.078 533.048 354.078V354.078C533.762 354.078 534.341 354.657 534.341 355.371V357.003H531.754V355.371Z" fill="#2EBD85"/>
<path d="M535.634 354.884C535.634 354.17 536.213 353.591 536.927 353.591V353.591C537.641 353.591 538.22 354.17 538.22 354.884V357.003H535.634V354.884Z" fill="#2EBD85"/>
<path d="M539.514 353.421C539.514 352.707 540.093 352.128 540.807 352.128V352.128C541.521 352.128 542.1 352.707 542.1 353.421V357.002H539.514V353.421Z" fill="#2EBD85"/>
<path d="M543.394 354.64C543.394 353.926 543.973 353.347 544.687 353.347V353.347C545.401 353.347 545.98 353.926 545.98 354.64V357.002H543.394V354.64Z" fill="#2EBD85"/>
<path d="M547.273 352.446C547.273 351.731 547.852 351.152 548.567 351.152V351.152C549.281 351.152 549.86 351.731 549.86 352.446V357.001H547.273V352.446Z" fill="#2EBD85"/>
<path d="M551.152 353.177C551.152 352.463 551.731 351.884 552.446 351.884V351.884C553.16 351.884 553.739 352.463 553.739 353.177V357.002H551.152V353.177Z" fill="#2EBD85"/>
<path d="M555.032 354.64C555.032 353.926 555.611 353.347 556.325 353.347V353.347C557.04 353.347 557.619 353.926 557.619 354.64V357.002H555.032V354.64Z" fill="#2EBD85"/>
<path d="M558.912 354.153C558.912 353.438 559.491 352.859 560.205 352.859V352.859C560.92 352.859 561.499 353.438 561.499 354.153V357.002H558.912V354.153Z" fill="#2EBD85"/>
<path d="M562.792 352.446C562.792 351.731 563.37 351.152 564.085 351.152V351.152C564.799 351.152 565.378 351.731 565.378 352.446V357.001H562.792V352.446Z" fill="#2EBD85"/>
<path d="M566.672 346.598C566.672 345.884 567.251 345.305 567.965 345.305V345.305C568.679 345.305 569.258 345.884 569.258 346.598V357.003H566.672V346.598Z" fill="#2EBD85"/>
<path d="M570.551 351.228C570.551 350.514 571.13 349.935 571.844 349.935V349.935C572.559 349.935 573.138 350.514 573.138 351.228V357.002H570.551V351.228Z" fill="#2EBD85"/>
<path d="M574.431 351.228C574.431 350.514 575.01 349.935 575.724 349.935V349.935C576.438 349.935 577.017 350.514 577.017 351.228V357.002H574.431V351.228Z" fill="#2EBD85"/>
<path d="M578.311 351.958C578.311 351.244 578.89 350.665 579.604 350.665V350.665C580.318 350.665 580.897 351.244 580.897 351.958V357.001H578.311V351.958Z" fill="#2EBD85"/>
<path d="M582.19 352.446C582.19 351.731 582.769 351.152 583.483 351.152V351.152C584.197 351.152 584.776 351.731 584.776 352.446V357.001H582.19V352.446Z" fill="#2EBD85"/>
<path d="M586.07 347.572C586.07 346.857 586.649 346.278 587.363 346.278V346.278C588.077 346.278 588.656 346.857 588.656 347.572V357.001H586.07V347.572Z" fill="#2EBD85"/>
<path d="M589.949 350.253C589.949 349.539 590.528 348.96 591.242 348.96V348.96C591.956 348.96 592.535 349.539 592.535 350.253V357.002H589.949V350.253Z" fill="#2EBD85"/>
<path d="M593.829 353.177C593.829 352.463 594.408 351.884 595.122 351.884V351.884C595.837 351.884 596.416 352.463 596.416 353.177V357.002H593.829V353.177Z" fill="#2EBD85"/>
<path d="M597.708 353.664C597.708 352.95 598.287 352.371 599.002 352.371V352.371C599.716 352.371 600.295 352.95 600.295 353.664V357.002H597.708V353.664Z" fill="#2EBD85"/>
<path d="M601.588 354.64C601.588 353.926 602.167 353.347 602.881 353.347V353.347C603.595 353.347 604.174 353.926 604.174 354.64V357.002H601.588V354.64Z" fill="#2EBD85"/>
<path d="M605.468 353.421C605.468 352.707 606.047 352.128 606.761 352.128V352.128C607.475 352.128 608.054 352.707 608.054 353.421V357.002H605.468V353.421Z" fill="#2EBD85"/>
<path d="M609.348 351.715C609.348 351.001 609.927 350.422 610.641 350.422V350.422C611.355 350.422 611.934 351.001 611.934 351.715V357.002H609.348V351.715Z" fill="#2EBD85"/>
<path d="M613.227 343.185C613.227 342.471 613.806 341.892 614.52 341.892V341.892C615.234 341.892 615.813 342.471 615.813 343.185V357.001H613.227V343.185Z" fill="#2EBD85"/>
<path d="M617.107 339.042C617.107 338.328 617.686 337.749 618.4 337.749V337.749C619.114 337.749 619.693 338.328 619.693 339.042V357.002H617.107V339.042Z" fill="#2EBD85"/>
<path d="M620.986 328.563C620.986 327.849 621.565 327.27 622.28 327.27V327.27C622.994 327.27 623.573 327.849 623.573 328.563V357.002H620.986V328.563Z" fill="#2EBD85"/>
<path d="M624.866 337.823C624.866 337.109 625.445 336.53 626.159 336.53V336.53C626.874 336.53 627.453 337.109 627.453 337.823V357.002H624.866V337.823Z" fill="#2EBD85"/>
<path d="M628.746 344.16C628.746 343.446 629.325 342.867 630.039 342.867V342.867C630.753 342.867 631.332 343.446 631.332 344.16V357.002H628.746V344.16Z" fill="#2EBD85"/>
<path d="M632.626 347.816C632.626 347.101 633.205 346.522 633.919 346.522V346.522C634.633 346.522 635.212 347.101 635.212 347.816V357.002H632.626V347.816Z" fill="#2EBD85"/>
<path d="M636.505 350.253C636.505 349.539 637.084 348.96 637.799 348.96V348.96C638.513 348.96 639.092 349.539 639.092 350.253V357.002H636.505V350.253Z" fill="#2EBD85"/>
<path d="M640.384 351.715C640.384 351.001 640.963 350.422 641.677 350.422V350.422C642.392 350.422 642.971 351.001 642.971 351.715V357.002H640.384V351.715Z" fill="#2EBD85"/>
<path d="M644.264 331.244C644.264 330.53 644.843 329.951 645.557 329.951V329.951C646.272 329.951 646.851 330.53 646.851 331.244V357.003H644.264V331.244Z" fill="#2EBD85"/>
<path d="M648.144 330.757C648.144 330.043 648.723 329.464 649.437 329.464V329.464C650.151 329.464 650.73 330.043 650.73 330.757V357.003H648.144V330.757Z" fill="#2EBD85"/>
<path d="M652.024 349.522C652.024 348.808 652.603 348.229 653.317 348.229V348.229C654.031 348.229 654.61 348.808 654.61 349.522V357.002H652.024V349.522Z" fill="#2EBD85"/>
<path d="M655.904 347.816C655.904 347.101 656.483 346.522 657.197 346.522V346.522C657.911 346.522 658.49 347.101 658.49 347.816V357.002H655.904V347.816Z" fill="#2EBD85"/>
<path d="M659.783 351.228C659.783 350.514 660.362 349.935 661.076 349.935V349.935C661.791 349.935 662.37 350.514 662.37 351.228V357.002H659.783V351.228Z" fill="#2EBD85"/>
<path d="M663.663 351.471C663.663 350.757 664.242 350.178 664.956 350.178V350.178C665.67 350.178 666.249 350.757 666.249 351.471V357.001H663.663V351.471Z" fill="#2EBD85"/>
<path d="M667.542 339.042C667.542 338.328 668.121 337.749 668.835 337.749V337.749C669.549 337.749 670.128 338.328 670.128 339.042V357.002H667.542V339.042Z" fill="#2EBD85"/>
<path d="M671.422 346.598C671.422 345.884 672.001 345.305 672.716 345.305V345.305C673.43 345.305 674.009 345.884 674.009 346.598V357.003H671.422V346.598Z" fill="#2EBD85"/>
<path d="M675.302 349.279C675.302 348.564 675.881 347.985 676.595 347.985V347.985C677.309 347.985 677.888 348.564 677.888 349.279V357.002H675.302V349.279Z" fill="#2EBD85"/>
<path d="M679.181 341.236C679.181 340.521 679.76 339.942 680.474 339.942V339.942C681.189 339.942 681.768 340.521 681.768 341.236V357.002H679.181V341.236Z" fill="#2EBD85"/>
<path d="M683.061 339.286C683.061 338.572 683.64 337.993 684.354 337.993V337.993C685.068 337.993 685.647 338.572 685.647 339.286V357.002H683.061V339.286Z" fill="#2EBD85"/>
<g filter="url(#filter0_d_1101_34093)">
<path d="M686.94 300.293C686.94 299.579 687.519 299 688.234 299V299C688.948 299 689.527 299.579 689.527 300.293V357.002H686.94V300.293Z" fill="#2EBD85"/>
</g>
<path d="M690.82 343.185C690.82 342.471 691.399 341.892 692.114 341.892V341.892C692.828 341.892 693.407 342.471 693.407 343.185V357.001H690.82V343.185Z" fill="#2EBD85"/>
<path d="M694.7 348.06C694.7 347.346 695.279 346.767 695.993 346.767V346.767C696.708 346.767 697.287 347.346 697.287 348.06V357.002H694.7V348.06Z" fill="#2EBD85"/>
<path d="M698.58 350.984C698.58 350.269 699.159 349.69 699.873 349.69V349.69C700.587 349.69 701.166 350.269 701.166 350.984V357.002H698.58V350.984Z" fill="#2EBD85"/>
<path d="M702.459 351.715C702.459 351.001 703.038 350.422 703.753 350.422V350.422C704.467 350.422 705.046 351.001 705.046 351.715V357.002H702.459V351.715Z" fill="#2EBD85"/>
<path d="M706.339 350.984C706.339 350.269 706.918 349.69 707.632 349.69V349.69C708.346 349.69 708.925 350.269 708.925 350.984V357.002H706.339V350.984Z" fill="#2EBD85"/>
<path d="M710.219 348.79C710.219 348.076 710.798 347.497 711.512 347.497V347.497C712.226 347.497 712.805 348.076 712.805 348.79V357.002H710.219V348.79Z" fill="#2EBD85"/>
<path d="M714.099 345.865C714.099 345.151 714.678 344.572 715.392 344.572V344.572C716.106 344.572 716.685 345.151 716.685 345.865V357.001H714.099V345.865Z" fill="#2EBD85"/>
<path d="M717.978 343.673C717.978 342.959 718.557 342.38 719.271 342.38V342.38C719.985 342.38 720.564 342.959 720.564 343.673V357.002H717.978V343.673Z" fill="#2EBD85"/>
<path d="M721.858 347.816C721.858 347.101 722.437 346.522 723.151 346.522V346.522C723.865 346.522 724.444 347.101 724.444 347.816V357.002H721.858V347.816Z" fill="#2EBD85"/>
<path d="M725.737 350.253C725.737 349.539 726.316 348.96 727.031 348.96V348.96C727.745 348.96 728.324 349.539 728.324 350.253V357.002H725.737V350.253Z" fill="#2EBD85"/>
<path d="M729.617 350.984C729.617 350.269 730.196 349.69 730.91 349.69V349.69C731.625 349.69 732.204 350.269 732.204 350.984V357.002H729.617V350.984Z" fill="#2EBD85"/>
<path d="M733.497 351.471C733.497 350.757 734.076 350.178 734.79 350.178V350.178C735.504 350.178 736.083 350.757 736.083 351.471V357.001H733.497V351.471Z" fill="#2EBD85"/>
<path d="M737.376 351.228C737.376 350.514 737.955 349.935 738.669 349.935V349.935C739.383 349.935 739.962 350.514 739.962 351.228V357.002H737.376V351.228Z" fill="#2EBD85"/>
<path d="M741.256 351.958C741.256 351.244 741.835 350.665 742.549 350.665V350.665C743.263 350.665 743.842 351.244 743.842 351.958V357.001H741.256V351.958Z" fill="#2EBD85"/>
<path d="M745.136 352.446C745.136 351.731 745.715 351.152 746.429 351.152V351.152C747.143 351.152 747.722 351.731 747.722 352.446V357.001H745.136V352.446Z" fill="#2EBD85"/>
<path d="M749.016 351.228C749.016 350.514 749.595 349.935 750.309 349.935V349.935C751.023 349.935 751.602 350.514 751.602 351.228V357.002H749.016V351.228Z" fill="#2EBD85"/>
<path d="M752.895 352.203C752.895 351.489 753.474 350.91 754.188 350.91V350.91C754.902 350.91 755.481 351.489 755.481 352.203V357.003H752.895V352.203Z" fill="#2EBD85"/>
<path d="M756.774 350.74C756.774 350.025 757.353 349.446 758.068 349.446V349.446C758.782 349.446 759.361 350.025 759.361 350.74V357.001H756.774V350.74Z" fill="#2EBD85"/>
<path d="M760.654 350.74C760.654 350.025 761.233 349.446 761.948 349.446V349.446C762.662 349.446 763.241 350.025 763.241 350.74V357.001H760.654V350.74Z" fill="#2EBD85"/>
<path d="M764.534 351.471C764.534 350.757 765.113 350.178 765.827 350.178V350.178C766.542 350.178 767.121 350.757 767.121 351.471V357.001H764.534V351.471Z" fill="#2EBD85"/>
<path d="M768.413 344.16C768.413 343.446 768.992 342.867 769.706 342.867V342.867C770.421 342.867 771 343.446 771 344.16V357.002H768.413V344.16Z" fill="#2EBD85"/>
<rect x="8" y="7" width="763" height="2" fill="white" fill-opacity="0.04"/>
<rect x="8" y="77" width="763" height="2" fill="white" fill-opacity="0.04"/>
<rect x="8" y="147" width="763" height="2" fill="white" fill-opacity="0.04"/>
<rect x="8" y="217" width="763" height="2" fill="white" fill-opacity="0.04"/>
<rect x="8" y="287" width="763" height="2" fill="white" fill-opacity="0.16"/>
<rect x="8" y="357" width="763" height="2" fill="white" fill-opacity="0.16"/>
<path opacity="0.48" d="M814.405 292.108C813.749 292.108 813.197 291.94 812.749 291.604C812.301 291.268 811.961 290.78 811.729 290.14C811.497 289.492 811.381 288.7 811.381 287.764C811.381 286.812 811.497 286.016 811.729 285.376C811.961 284.736 812.301 284.252 812.749 283.924C813.197 283.596 813.749 283.432 814.405 283.432C815.069 283.432 815.625 283.596 816.073 283.924C816.521 284.244 816.857 284.724 817.081 285.364C817.313 286.004 817.429 286.8 817.429 287.752C817.429 288.688 817.313 289.48 817.081 290.128C816.849 290.776 816.509 291.268 816.061 291.604C815.613 291.94 815.061 292.108 814.405 292.108ZM814.405 291.076C815.021 291.076 815.473 290.808 815.761 290.272C816.057 289.736 816.205 288.896 816.205 287.752C816.205 286.608 816.057 285.776 815.761 285.256C815.473 284.728 815.021 284.464 814.405 284.464C813.797 284.464 813.345 284.728 813.049 285.256C812.753 285.776 812.605 286.608 812.605 287.752C812.605 288.896 812.753 289.736 813.049 290.272C813.345 290.808 813.797 291.076 814.405 291.076Z" fill="white"/>
<path opacity="0.48" d="M787.634 222V220.956H789.554V214.596H790.178L788.054 215.916L787.55 214.992L789.914 213.54H790.79V220.956H792.59V222H787.634ZM794.134 222V220.572H795.562V222H794.134ZM799.873 222.108C799.217 222.108 798.665 221.94 798.217 221.604C797.769 221.268 797.429 220.78 797.197 220.14C796.965 219.492 796.849 218.7 796.849 217.764C796.849 216.812 796.965 216.016 797.197 215.376C797.429 214.736 797.769 214.252 798.217 213.924C798.665 213.596 799.217 213.432 799.873 213.432C800.537 213.432 801.093 213.596 801.541 213.924C801.989 214.244 802.325 214.724 802.549 215.364C802.781 216.004 802.897 216.8 802.897 217.752C802.897 218.688 802.781 219.48 802.549 220.128C802.317 220.776 801.977 221.268 801.529 221.604C801.081 221.94 800.529 222.108 799.873 222.108ZM799.873 221.076C800.489 221.076 800.941 220.808 801.229 220.272C801.525 219.736 801.673 218.896 801.673 217.752C801.673 216.608 801.525 215.776 801.229 215.256C800.941 214.728 800.489 214.464 799.873 214.464C799.265 214.464 798.813 214.728 798.517 215.256C798.221 215.776 798.073 216.608 798.073 217.752C798.073 218.896 798.221 219.736 798.517 220.272C798.813 220.808 799.265 221.076 799.873 221.076ZM807.069 222.108C806.413 222.108 805.861 221.94 805.413 221.604C804.965 221.268 804.625 220.78 804.393 220.14C804.161 219.492 804.045 218.7 804.045 217.764C804.045 216.812 804.161 216.016 804.393 215.376C804.625 214.736 804.965 214.252 805.413 213.924C805.861 213.596 806.413 213.432 807.069 213.432C807.733 213.432 808.289 213.596 808.737 213.924C809.185 214.244 809.521 214.724 809.745 215.364C809.977 216.004 810.093 216.8 810.093 217.752C810.093 218.688 809.977 219.48 809.745 220.128C809.513 220.776 809.173 221.268 808.725 221.604C808.277 221.94 807.725 222.108 807.069 222.108ZM807.069 221.076C807.685 221.076 808.137 220.808 808.425 220.272C808.721 219.736 808.869 218.896 808.869 217.752C808.869 216.608 808.721 215.776 808.425 215.256C808.137 214.728 807.685 214.464 807.069 214.464C806.461 214.464 806.009 214.728 805.713 215.256C805.417 215.776 805.269 216.608 805.269 217.752C805.269 218.896 805.417 219.736 805.713 220.272C806.009 220.808 806.461 221.076 807.069 221.076ZM813.712 222V214.584H810.712V213.54H817.948V214.584H814.948V222H813.712Z" fill="white"/>
<path opacity="0.48" d="M787.25 152V151.076L790.07 148.052C790.334 147.764 790.546 147.5 790.706 147.26C790.866 147.012 790.982 146.776 791.054 146.552C791.134 146.32 791.174 146.088 791.174 145.856C791.174 145.408 791.038 145.068 790.766 144.836C790.494 144.604 790.094 144.488 789.566 144.488C789.158 144.488 788.77 144.564 788.402 144.716C788.042 144.868 787.698 145.1 787.37 145.412L786.926 144.464C787.246 144.152 787.654 143.904 788.15 143.72C788.646 143.528 789.162 143.432 789.698 143.432C790.282 143.432 790.774 143.524 791.174 143.708C791.582 143.884 791.89 144.144 792.098 144.488C792.306 144.832 792.41 145.252 792.41 145.748C792.41 146.004 792.378 146.256 792.314 146.504C792.258 146.744 792.166 146.984 792.038 147.224C791.918 147.464 791.762 147.712 791.57 147.968C791.386 148.224 791.162 148.488 790.898 148.76L788.486 151.304V150.956H792.746V152H787.25ZM794.134 152V150.572H795.562V152H794.134ZM799.873 152.108C799.217 152.108 798.665 151.94 798.217 151.604C797.769 151.268 797.429 150.78 797.197 150.14C796.965 149.492 796.849 148.7 796.849 147.764C796.849 146.812 796.965 146.016 797.197 145.376C797.429 144.736 797.769 144.252 798.217 143.924C798.665 143.596 799.217 143.432 799.873 143.432C800.537 143.432 801.093 143.596 801.541 143.924C801.989 144.244 802.325 144.724 802.549 145.364C802.781 146.004 802.897 146.8 802.897 147.752C802.897 148.688 802.781 149.48 802.549 150.128C802.317 150.776 801.977 151.268 801.529 151.604C801.081 151.94 800.529 152.108 799.873 152.108ZM799.873 151.076C800.489 151.076 800.941 150.808 801.229 150.272C801.525 149.736 801.673 148.896 801.673 147.752C801.673 146.608 801.525 145.776 801.229 145.256C800.941 144.728 800.489 144.464 799.873 144.464C799.265 144.464 798.813 144.728 798.517 145.256C798.221 145.776 798.073 146.608 798.073 147.752C798.073 148.896 798.221 149.736 798.517 150.272C798.813 150.808 799.265 151.076 799.873 151.076ZM807.069 152.108C806.413 152.108 805.861 151.94 805.413 151.604C804.965 151.268 804.625 150.78 804.393 150.14C804.161 149.492 804.045 148.7 804.045 147.764C804.045 146.812 804.161 146.016 804.393 145.376C804.625 144.736 804.965 144.252 805.413 143.924C805.861 143.596 806.413 143.432 807.069 143.432C807.733 143.432 808.289 143.596 808.737 143.924C809.185 144.244 809.521 144.724 809.745 145.364C809.977 146.004 810.093 146.8 810.093 147.752C810.093 148.688 809.977 149.48 809.745 150.128C809.513 150.776 809.173 151.268 808.725 151.604C808.277 151.94 807.725 152.108 807.069 152.108ZM807.069 151.076C807.685 151.076 808.137 150.808 808.425 150.272C808.721 149.736 808.869 148.896 808.869 147.752C808.869 146.608 808.721 145.776 808.425 145.256C808.137 144.728 807.685 144.464 807.069 144.464C806.461 144.464 806.009 144.728 805.713 145.256C805.417 145.776 805.269 146.608 805.269 147.752C805.269 148.896 805.417 149.736 805.713 150.272C806.009 150.808 806.461 151.076 807.069 151.076ZM813.712 152V144.584H810.712V143.54H817.948V144.584H814.948V152H813.712Z" fill="white"/>
<path opacity="0.48" d="M789.698 82.108C789.322 82.108 788.954 82.072 788.594 82C788.242 81.92 787.91 81.808 787.598 81.664C787.294 81.512 787.026 81.332 786.794 81.124L787.226 80.164C787.602 80.468 787.99 80.692 788.39 80.836C788.79 80.98 789.214 81.052 789.662 81.052C790.046 81.052 790.37 80.996 790.634 80.884C790.898 80.772 791.094 80.608 791.222 80.392C791.358 80.176 791.426 79.916 791.426 79.612C791.426 79.156 791.274 78.816 790.97 78.592C790.674 78.36 790.242 78.244 789.674 78.244H788.366V77.2H789.554C789.898 77.2 790.19 77.144 790.43 77.032C790.67 76.912 790.854 76.748 790.982 76.54C791.118 76.324 791.186 76.064 791.186 75.76C791.186 75.352 791.05 75.04 790.778 74.824C790.514 74.6 790.126 74.488 789.614 74.488C789.182 74.488 788.782 74.564 788.414 74.716C788.046 74.868 787.698 75.1 787.37 75.412L786.938 74.464C787.266 74.136 787.674 73.884 788.162 73.708C788.658 73.524 789.174 73.432 789.71 73.432C790.27 73.432 790.75 73.52 791.15 73.696C791.558 73.872 791.866 74.124 792.074 74.452C792.29 74.78 792.398 75.172 792.398 75.628C792.398 76.14 792.254 76.584 791.966 76.96C791.686 77.328 791.298 77.572 790.802 77.692V77.56C791.194 77.624 791.526 77.752 791.798 77.944C792.07 78.136 792.278 78.38 792.422 78.676C792.566 78.972 792.638 79.312 792.638 79.696C792.638 80.192 792.518 80.624 792.278 80.992C792.046 81.352 791.71 81.628 791.27 81.82C790.83 82.012 790.306 82.108 789.698 82.108ZM794.134 82V80.572H795.562V82H794.134ZM799.873 82.108C799.217 82.108 798.665 81.94 798.217 81.604C797.769 81.268 797.429 80.78 797.197 80.14C796.965 79.492 796.849 78.7 796.849 77.764C796.849 76.812 796.965 76.016 797.197 75.376C797.429 74.736 797.769 74.252 798.217 73.924C798.665 73.596 799.217 73.432 799.873 73.432C800.537 73.432 801.093 73.596 801.541 73.924C801.989 74.244 802.325 74.724 802.549 75.364C802.781 76.004 802.897 76.8 802.897 77.752C802.897 78.688 802.781 79.48 802.549 80.128C802.317 80.776 801.977 81.268 801.529 81.604C801.081 81.94 800.529 82.108 799.873 82.108ZM799.873 81.076C800.489 81.076 800.941 80.808 801.229 80.272C801.525 79.736 801.673 78.896 801.673 77.752C801.673 76.608 801.525 75.776 801.229 75.256C800.941 74.728 800.489 74.464 799.873 74.464C799.265 74.464 798.813 74.728 798.517 75.256C798.221 75.776 798.073 76.608 798.073 77.752C798.073 78.896 798.221 79.736 798.517 80.272C798.813 80.808 799.265 81.076 799.873 81.076ZM807.069 82.108C806.413 82.108 805.861 81.94 805.413 81.604C804.965 81.268 804.625 80.78 804.393 80.14C804.161 79.492 804.045 78.7 804.045 77.764C804.045 76.812 804.161 76.016 804.393 75.376C804.625 74.736 804.965 74.252 805.413 73.924C805.861 73.596 806.413 73.432 807.069 73.432C807.733 73.432 808.289 73.596 808.737 73.924C809.185 74.244 809.521 74.724 809.745 75.364C809.977 76.004 810.093 76.8 810.093 77.752C810.093 78.688 809.977 79.48 809.745 80.128C809.513 80.776 809.173 81.268 808.725 81.604C808.277 81.94 807.725 82.108 807.069 82.108ZM807.069 81.076C807.685 81.076 808.137 80.808 808.425 80.272C808.721 79.736 808.869 78.896 808.869 77.752C808.869 76.608 808.721 75.776 808.425 75.256C808.137 74.728 807.685 74.464 807.069 74.464C806.461 74.464 806.009 74.728 805.713 75.256C805.417 75.776 805.269 76.608 805.269 77.752C805.269 78.896 805.417 79.736 805.713 80.272C806.009 80.808 806.461 81.076 807.069 81.076ZM813.712 82V74.584H810.712V73.54H817.948V74.584H814.948V82H813.712Z" fill="white"/>
<path opacity="0.48" d="M790.598 12V10.284H786.794V9.36L790.814 3.54H791.834V9.24H793.07V10.284H791.834V12H790.598ZM790.598 9.24V5.028H790.922L787.802 9.576V9.24H790.598ZM794.134 12V10.572H795.562V12H794.134ZM799.873 12.108C799.217 12.108 798.665 11.94 798.217 11.604C797.769 11.268 797.429 10.78 797.197 10.14C796.965 9.492 796.849 8.7 796.849 7.764C796.849 6.812 796.965 6.016 797.197 5.376C797.429 4.736 797.769 4.252 798.217 3.924C798.665 3.596 799.217 3.432 799.873 3.432C800.537 3.432 801.093 3.596 801.541 3.924C801.989 4.244 802.325 4.724 802.549 5.364C802.781 6.004 802.897 6.8 802.897 7.752C802.897 8.688 802.781 9.48 802.549 10.128C802.317 10.776 801.977 11.268 801.529 11.604C801.081 11.94 800.529 12.108 799.873 12.108ZM799.873 11.076C800.489 11.076 800.941 10.808 801.229 10.272C801.525 9.736 801.673 8.896 801.673 7.752C801.673 6.608 801.525 5.776 801.229 5.256C800.941 4.728 800.489 4.464 799.873 4.464C799.265 4.464 798.813 4.728 798.517 5.256C798.221 5.776 798.073 6.608 798.073 7.752C798.073 8.896 798.221 9.736 798.517 10.272C798.813 10.808 799.265 11.076 799.873 11.076ZM807.069 12.108C806.413 12.108 805.861 11.94 805.413 11.604C804.965 11.268 804.625 10.78 804.393 10.14C804.161 9.492 804.045 8.7 804.045 7.764C804.045 6.812 804.161 6.016 804.393 5.376C804.625 4.736 804.965 4.252 805.413 3.924C805.861 3.596 806.413 3.432 807.069 3.432C807.733 3.432 808.289 3.596 808.737 3.924C809.185 4.244 809.521 4.724 809.745 5.364C809.977 6.004 810.093 6.8 810.093 7.752C810.093 8.688 809.977 9.48 809.745 10.128C809.513 10.776 809.173 11.268 808.725 11.604C808.277 11.94 807.725 12.108 807.069 12.108ZM807.069 11.076C807.685 11.076 808.137 10.808 808.425 10.272C808.721 9.736 808.869 8.896 808.869 7.752C808.869 6.608 808.721 5.776 808.425 5.256C808.137 4.728 807.685 4.464 807.069 4.464C806.461 4.464 806.009 4.728 805.713 5.256C805.417 5.776 805.269 6.608 805.269 7.752C805.269 8.896 805.417 9.736 805.713 10.272C806.009 10.808 806.461 11.076 807.069 11.076ZM813.712 12V4.584H810.712V3.54H817.948V4.584H814.948V12H813.712Z" fill="white"/>
<path d="M17.9467 268.283L9 264.672V308H769.963V42.8642L763.501 56.7916L759.028 80.5199L754.057 78.9725L751.572 84.1308L745.608 36.1583L743.62 42.8642L740.14 39.7692L732.685 45.4433L728.709 70.2033L725.726 64.0133C724.567 69.6875 722.247 80.9326 722.247 80.5199C722.247 80.1073 720.259 72.4386 719.265 68.6558L716.283 81.0358L712.306 68.14L707.336 64.5291L704.851 31L697.395 47.5066H694.91L692.922 51.1175L691.431 44.9275L686.958 74.8458L685.466 66.5925L680.496 64.5291L677.514 73.2983L676.52 54.7283L674.035 64.5291L670.555 51.1175L667.573 58.3391L666.082 54.7283L664.591 56.7916L661.609 38.7375L659.123 77.4249L655.147 60.9183L651.171 56.7916L647.195 83.6149L640.733 99.0899L635.763 95.9949L635.266 108.891L632.781 98.5741L628.804 112.502L625.822 143.967L622.343 145.515L618.864 147.578L616.875 167.696L614.39 170.275L608.426 167.696L600.97 156.347L598.485 171.822L592.024 177.497L589.538 175.433L588.544 180.591L582.083 171.822L581.089 175.949L574.13 173.37L568.166 184.202L567.669 191.94L564.687 189.876L561.207 197.614L558.722 191.94H552.758L551.764 194.519H549.776L546.296 200.709L540.332 195.551L537.35 184.718L533.87 185.234L530.391 197.614L527.906 193.487L526.415 199.161L523.93 195.551L515.48 199.161L511.504 212.573L505.539 208.962L503.551 218.763L499.078 214.636L495.599 224.437L493.113 227.532L490.131 228.048L486.155 220.826L483.67 222.374L481.682 213.089L479.196 216.184L473.232 208.962L471.244 211.026L469.256 208.962L466.77 195.551H460.806L457.824 207.415L457.327 204.836L455.836 211.541H453.847L451.362 218.763L447.883 212.573L444.901 219.795L440.925 207.931L436.948 211.541L436.451 219.795L434.463 213.605L431.481 214.636L430.487 211.541L428.002 231.143L425.019 229.08L422.534 235.786L419.552 217.216L417.067 214.636L414.582 204.836L412.593 207.931L407.126 195.551L405.635 197.098H402.653C401.99 200.021 400.665 205.97 400.665 206.383C400.665 206.796 395.363 196.926 392.712 191.94L387.245 197.098L384.759 203.288L381.28 199.161L378.795 213.605L370.345 223.921L368.854 219.795L365.872 224.953H362.89L361.399 218.763L358.417 222.89C356.097 218.419 351.359 209.169 350.961 207.931C350.563 206.693 346.156 213.605 344.002 217.216L338.535 209.478L336.05 214.636L332.074 199.161L327.6 201.741L325.115 210.51L322.133 194.003L314.18 195.551L310.701 187.813L308.713 191.94L304.737 184.202L303.245 187.813H301.257L297.281 180.076L293.305 187.813L286.843 188.845L284.358 185.75L283.364 190.908L279.885 189.876L275.909 185.75H272.926L271.932 187.813L268.95 186.781L262.489 176.981C261.991 181.623 260.997 191.527 260.997 194.003C260.997 196.479 257.684 190.22 256.027 186.781L253.542 192.971L252.051 189.876L250.063 203.804L248.074 199.161L245.092 203.804L242.11 204.836L240.619 195.551L237.14 204.836L229.684 194.003L226.702 197.098V207.931L222.726 209.478L218.749 191.94L215.767 199.161L211.294 191.94L208.312 192.971L204.335 184.202L202.844 190.908L200.856 187.813L196.383 191.94L194.395 199.161L192.903 189.876L188.43 192.971L187.436 187.813L184.951 192.971L179.98 173.37L176.501 178.528L175.507 172.338L172.028 184.202L167.555 181.107L164.572 189.876L159.105 172.338L155.129 177.497L152.643 173.37L150.655 178.528L145.685 174.402L139.721 195.551L135.247 183.171L132.762 200.709L130.774 186.781L128.786 181.107L126.798 190.908L124.809 180.076L120.833 170.791L119.342 175.949L116.36 174.402L114.869 183.171L110.892 184.202L105.425 197.098L101.449 182.139C99.792 187.641 96.4784 199.058 96.4784 200.709V199.677L93.4962 204.32L89.5199 199.677V214.121C89.5199 214.533 86.5377 223.921 85.0466 228.564L82.0643 227.016L78.5851 230.111L75.1058 227.016L73.1177 231.143L70.6325 228.564L68.1473 231.143L66.1592 227.016L59.6977 238.365L57.7096 236.817L43.2955 259.514L38.8222 256.935L33.8518 261.061L29.8755 259.514L28.3844 263.641L23.4141 261.061L17.9467 268.283Z" fill="url(#paint0_linear_1101_34093)"/>
<g filter="url(#filter1_d_1101_34093)">
<path d="M9 257.672L17.9467 261.283L23.4141 254.061L28.3844 256.641L29.8755 252.514L33.8518 254.061L38.8222 249.935L43.2955 252.514L57.7096 229.817L59.6977 231.365L66.1592 220.016L68.1473 224.143L70.6325 221.564L73.1177 224.143L75.1058 220.016L78.5851 223.111L82.0643 220.016L85.0466 221.564C86.5377 216.921 89.5199 207.533 89.5199 207.121C89.5199 206.708 89.5199 197.32 89.5199 192.677L93.4962 197.32L96.4784 192.677C96.4784 193.709 96.4784 195.36 96.4784 193.709C96.4784 192.058 99.792 180.641 101.449 175.139L105.425 190.098L110.892 177.202L114.869 176.171L116.36 167.402L119.342 168.949L120.833 163.791L124.809 173.076L126.798 183.908L128.786 174.107L130.774 179.781L132.762 193.709L135.247 176.171L139.721 188.551L145.685 167.402L150.655 171.528L152.643 166.37L155.129 170.497L159.105 165.338L164.572 182.876L167.555 174.107L172.028 177.202L175.507 165.338L176.501 171.528L179.98 166.37L184.951 185.971L187.436 180.813L188.43 185.971L192.903 182.876L194.395 192.161L196.383 184.94L200.856 180.813L202.844 183.908L204.335 177.202L208.312 185.971L211.294 184.94L215.767 192.161L218.749 184.94L222.726 202.478L226.702 200.931V190.098L229.684 187.003L237.14 197.836L240.619 188.551L242.11 197.836L245.092 196.804L248.074 192.161L250.063 196.804L252.051 182.876L253.542 185.971L256.027 179.781C257.684 183.22 260.997 189.479 260.997 187.003C260.997 184.527 261.991 174.623 262.489 169.981L268.95 179.781L271.932 180.813L272.926 178.75H275.908L279.885 182.876L283.364 183.908L284.358 178.75L286.843 181.845L293.305 180.813L297.281 173.076L301.257 180.813H303.245L304.737 177.202L308.713 184.94L310.701 180.813L314.18 188.551L322.133 187.003L325.115 203.51L327.6 194.741L332.074 192.161L336.05 207.636L338.535 202.478L344.002 210.216C346.156 206.605 350.563 199.693 350.961 200.931C351.359 202.169 356.097 211.419 358.417 215.89L361.399 211.763L362.89 217.953H365.872L368.854 212.795L370.345 216.921L378.795 206.605L381.28 192.161L384.759 196.288L387.245 190.098L392.712 184.94C395.363 189.926 400.665 199.796 400.665 199.383C400.665 198.97 401.99 193.021 402.653 190.098H405.635L407.126 188.551L412.593 200.931L414.582 197.836L417.067 207.636L419.552 210.216L422.534 228.786L425.019 222.08L428.002 224.143L430.487 204.541L431.481 207.636L434.463 206.605L436.451 212.795L436.948 204.541L440.925 200.931L444.901 212.795L447.883 205.573L451.362 211.763L453.847 204.541H455.836L457.327 197.836L457.824 200.415L460.806 188.551H466.77L469.256 201.962L471.244 204.026L473.232 201.962L479.196 209.184L481.682 206.089L483.67 215.374L486.155 213.826L490.131 221.048L493.113 220.532L495.599 217.437L499.078 207.636L503.551 211.763L505.539 201.962L511.504 205.573L515.48 192.161L523.93 188.551L526.415 192.161L527.906 186.487L530.391 190.614L533.87 178.234L537.35 177.718L540.332 188.551L546.296 193.709L549.775 187.519H551.764L552.758 184.94H558.722L561.207 190.614L564.687 182.876L567.669 184.94L568.166 177.202L574.13 166.37L581.089 168.949L582.083 164.822L588.544 173.592L589.538 168.433L592.024 170.497L598.485 164.822L600.97 149.347L608.426 160.696L614.39 163.275L616.875 160.696L618.864 140.578L622.343 138.515L625.822 136.967L628.804 105.502L632.781 91.5741L635.266 101.891L635.763 88.9949L640.733 92.0899L647.195 76.6149L651.171 49.7916L655.147 53.9183L659.123 70.4249L661.609 31.7375L664.591 49.7916L666.082 47.7283L667.573 51.3391L670.555 44.1175L674.035 57.5291L676.52 47.7283L677.514 66.2983L680.496 57.5291L685.466 59.5925L686.957 67.8458L691.431 37.9275L692.922 44.1175L694.91 40.5066H697.395L704.851 24L707.336 57.5291L712.306 61.14L716.283 74.0358L719.265 61.6558C720.259 65.4386 722.247 73.1073 722.247 73.5199C722.247 73.9326 724.567 62.6875 725.726 57.0133L728.709 63.2033L732.685 38.4433L740.14 32.7692L743.62 35.8642L745.608 29.1583L751.572 77.1308L754.057 71.9724L759.028 73.5199L763.501 49.7916L769.963 35.8642" stroke="#A06AFF" stroke-width="1.5" stroke-linecap="round"/>
</g>
<rect x="47" y="359" width="1" height="8" fill="white" fill-opacity="0.16"/>
<path opacity="0.48" d="M24.651 383L26.067 380.396C26.251 380.052 26.467 379.8 26.715 379.64C26.963 379.48 27.251 379.4 27.579 379.4H27.975L27.951 379.58C27.343 379.58 26.819 379.48 26.379 379.28C25.947 379.08 25.615 378.792 25.383 378.416C25.159 378.04 25.047 377.592 25.047 377.072C25.047 376.272 25.299 375.652 25.803 375.212C26.307 374.764 27.023 374.54 27.951 374.54H31.635V383H30.099V379.616H29.067C28.875 379.616 28.703 379.636 28.551 379.676C28.399 379.716 28.263 379.788 28.143 379.892C28.023 379.988 27.915 380.124 27.819 380.3L26.343 383H24.651ZM28.215 378.476H30.099V375.752H28.215C27.663 375.752 27.243 375.868 26.955 376.1C26.675 376.324 26.535 376.66 26.535 377.108C26.535 377.564 26.675 377.908 26.955 378.14C27.243 378.364 27.663 378.476 28.215 378.476ZM33.4885 383V374.54H35.0245V378.068H39.3805V374.54H40.9165V383H39.3805V379.352H35.0245V383H33.4885ZM42.7697 383V374.54H46.4657C47.3537 374.54 48.0417 374.736 48.5297 375.128C49.0177 375.512 49.2617 376.048 49.2617 376.736C49.2617 377.248 49.1137 377.68 48.8177 378.032C48.5217 378.384 48.1177 378.62 47.6057 378.74V378.56C47.9977 378.616 48.3337 378.736 48.6137 378.92C48.8937 379.104 49.1057 379.34 49.2497 379.628C49.4017 379.916 49.4777 380.252 49.4777 380.636C49.4777 381.132 49.3617 381.56 49.1297 381.92C48.9057 382.272 48.5777 382.54 48.1457 382.724C47.7137 382.908 47.1977 383 46.5977 383H42.7697ZM44.2457 381.836H46.4057C46.6217 381.836 46.8137 381.82 46.9817 381.788C47.1577 381.756 47.3057 381.708 47.4257 381.644C47.5537 381.572 47.6577 381.484 47.7377 381.38C47.8257 381.276 47.8897 381.156 47.9297 381.02C47.9697 380.884 47.9897 380.732 47.9897 380.564C47.9897 380.388 47.9697 380.232 47.9297 380.096C47.8897 379.96 47.8257 379.844 47.7377 379.748C47.6577 379.644 47.5537 379.56 47.4257 379.496C47.3057 379.424 47.1577 379.372 46.9817 379.34C46.8137 379.308 46.6217 379.292 46.4057 379.292H44.2457V381.836ZM44.2457 378.128H46.2017C46.7297 378.128 47.1217 378.028 47.3777 377.828C47.6417 377.62 47.7737 377.316 47.7737 376.916C47.7737 376.516 47.6417 376.216 47.3777 376.016C47.1217 375.808 46.7297 375.704 46.2017 375.704H44.2457V378.128ZM53.9898 377.708V376.616C53.9898 376.344 54.0178 376.088 54.0738 375.848C54.1378 375.608 54.2378 375.372 54.3738 375.14C54.5178 374.908 54.7058 374.676 54.9378 374.444L55.5618 374.936C55.3938 375.112 55.2578 375.28 55.1538 375.44C55.0498 375.592 54.9738 375.748 54.9258 375.908C54.8858 376.06 54.8658 376.22 54.8658 376.388L54.4938 376.04H55.6698V377.708H53.9898ZM57.6264 383V381.728H59.5344V375.836H60.2784L58.0584 377.18L57.4584 376.052L59.9784 374.54H61.0704V381.728H62.8584V383H57.6264ZM67.7017 383V381.392H64.0177V380.264L67.9657 374.54H69.2377V380.12H70.4257V381.392H69.2377V383H67.7017ZM67.7017 380.12V376.376H68.0497L65.2177 380.528V380.12H67.7017Z" fill="white"/>
<rect x="182" y="359" width="1" height="8" fill="white" fill-opacity="0.16"/>
<path opacity="0.48" d="M159.651 383L161.067 380.396C161.251 380.052 161.467 379.8 161.715 379.64C161.963 379.48 162.251 379.4 162.579 379.4H162.975L162.951 379.58C162.343 379.58 161.819 379.48 161.379 379.28C160.947 379.08 160.615 378.792 160.383 378.416C160.159 378.04 160.047 377.592 160.047 377.072C160.047 376.272 160.299 375.652 160.803 375.212C161.307 374.764 162.023 374.54 162.951 374.54H166.635V383H165.099V379.616H164.067C163.875 379.616 163.703 379.636 163.551 379.676C163.399 379.716 163.263 379.788 163.143 379.892C163.023 379.988 162.915 380.124 162.819 380.3L161.343 383H159.651ZM163.215 378.476H165.099V375.752H163.215C162.663 375.752 162.243 375.868 161.955 376.1C161.675 376.324 161.535 376.66 161.535 377.108C161.535 377.564 161.675 377.908 161.955 378.14C162.243 378.364 162.663 378.476 163.215 378.476ZM168.488 383V374.54H170.024V378.068H174.38V374.54H175.916V383H174.38V379.352H170.024V383H168.488ZM177.77 383V374.54H181.466C182.354 374.54 183.042 374.736 183.53 375.128C184.018 375.512 184.262 376.048 184.262 376.736C184.262 377.248 184.114 377.68 183.818 378.032C183.522 378.384 183.118 378.62 182.606 378.74V378.56C182.998 378.616 183.334 378.736 183.614 378.92C183.894 379.104 184.106 379.34 184.25 379.628C184.402 379.916 184.478 380.252 184.478 380.636C184.478 381.132 184.362 381.56 184.13 381.92C183.906 382.272 183.578 382.54 183.146 382.724C182.714 382.908 182.198 383 181.598 383H177.77ZM179.246 381.836H181.406C181.622 381.836 181.814 381.82 181.982 381.788C182.158 381.756 182.306 381.708 182.426 381.644C182.554 381.572 182.658 381.484 182.738 381.38C182.826 381.276 182.89 381.156 182.93 381.02C182.97 380.884 182.99 380.732 182.99 380.564C182.99 380.388 182.97 380.232 182.93 380.096C182.89 379.96 182.826 379.844 182.738 379.748C182.658 379.644 182.554 379.56 182.426 379.496C182.306 379.424 182.158 379.372 181.982 379.34C181.814 379.308 181.622 379.292 181.406 379.292H179.246V381.836ZM179.246 378.128H181.202C181.73 378.128 182.122 378.028 182.378 377.828C182.642 377.62 182.774 377.316 182.774 376.916C182.774 376.516 182.642 376.216 182.378 376.016C182.122 375.808 181.73 375.704 181.202 375.704H179.246V378.128ZM188.99 377.708V376.616C188.99 376.344 189.018 376.088 189.074 375.848C189.138 375.608 189.238 375.372 189.374 375.14C189.518 374.908 189.706 374.676 189.938 374.444L190.562 374.936C190.394 375.112 190.258 375.28 190.154 375.44C190.05 375.592 189.974 375.748 189.926 375.908C189.886 376.06 189.866 376.22 189.866 376.388L189.494 376.04H190.67V377.708H188.99ZM192.626 383V381.728H194.534V375.836H195.278L193.058 377.18L192.458 376.052L194.978 374.54H196.07V381.728H197.858V383H192.626ZM202.426 383.12C201.73 383.12 201.134 382.956 200.638 382.628C200.15 382.292 199.778 381.812 199.522 381.188C199.266 380.564 199.138 379.808 199.138 378.92C199.138 377.96 199.282 377.148 199.57 376.484C199.858 375.812 200.274 375.3 200.818 374.948C201.362 374.596 202.014 374.42 202.774 374.42C203.07 374.42 203.366 374.46 203.662 374.54C203.966 374.612 204.25 374.72 204.514 374.864C204.786 375 205.026 375.168 205.234 375.368L204.73 376.52C204.434 376.248 204.118 376.048 203.782 375.92C203.446 375.784 203.102 375.716 202.75 375.716C202.406 375.716 202.098 375.78 201.826 375.908C201.562 376.028 201.338 376.212 201.154 376.46C200.97 376.7 200.83 377.004 200.734 377.372C200.646 377.732 200.602 378.152 200.602 378.632V379.532H200.458C200.522 379.124 200.654 378.776 200.854 378.488C201.062 378.192 201.326 377.968 201.646 377.816C201.966 377.656 202.322 377.576 202.714 377.576C203.202 377.576 203.634 377.692 204.01 377.924C204.386 378.156 204.682 378.476 204.898 378.884C205.114 379.292 205.222 379.76 205.222 380.288C205.222 380.832 205.102 381.32 204.862 381.752C204.63 382.176 204.302 382.512 203.878 382.76C203.462 383 202.978 383.12 202.426 383.12ZM202.342 381.896C202.63 381.896 202.882 381.832 203.098 381.704C203.322 381.576 203.494 381.396 203.614 381.164C203.734 380.924 203.794 380.652 203.794 380.348C203.794 380.036 203.734 379.764 203.614 379.532C203.494 379.3 203.322 379.12 203.098 378.992C202.882 378.856 202.63 378.788 202.342 378.788C202.054 378.788 201.802 378.856 201.586 378.992C201.37 379.12 201.198 379.3 201.07 379.532C200.95 379.764 200.89 380.036 200.89 380.348C200.89 380.652 200.95 380.924 201.07 381.164C201.198 381.396 201.37 381.576 201.586 381.704C201.802 381.832 202.054 381.896 202.342 381.896Z" fill="white"/>
<rect x="317" y="359" width="1" height="8" fill="white" fill-opacity="0.16"/>
<path opacity="0.48" d="M294.651 383L296.067 380.396C296.251 380.052 296.467 379.8 296.715 379.64C296.963 379.48 297.251 379.4 297.579 379.4H297.975L297.951 379.58C297.343 379.58 296.819 379.48 296.379 379.28C295.947 379.08 295.615 378.792 295.383 378.416C295.159 378.04 295.047 377.592 295.047 377.072C295.047 376.272 295.299 375.652 295.803 375.212C296.307 374.764 297.023 374.54 297.951 374.54H301.635V383H300.099V379.616H299.067C298.875 379.616 298.703 379.636 298.551 379.676C298.399 379.716 298.263 379.788 298.143 379.892C298.023 379.988 297.915 380.124 297.819 380.3L296.343 383H294.651ZM298.215 378.476H300.099V375.752H298.215C297.663 375.752 297.243 375.868 296.955 376.1C296.675 376.324 296.535 376.66 296.535 377.108C296.535 377.564 296.675 377.908 296.955 378.14C297.243 378.364 297.663 378.476 298.215 378.476ZM303.488 383V374.54H305.024V378.068H309.38V374.54H310.916V383H309.38V379.352H305.024V383H303.488ZM312.77 383V374.54H316.466C317.354 374.54 318.042 374.736 318.53 375.128C319.018 375.512 319.262 376.048 319.262 376.736C319.262 377.248 319.114 377.68 318.818 378.032C318.522 378.384 318.118 378.62 317.606 378.74V378.56C317.998 378.616 318.334 378.736 318.614 378.92C318.894 379.104 319.106 379.34 319.25 379.628C319.402 379.916 319.478 380.252 319.478 380.636C319.478 381.132 319.362 381.56 319.13 381.92C318.906 382.272 318.578 382.54 318.146 382.724C317.714 382.908 317.198 383 316.598 383H312.77ZM314.246 381.836H316.406C316.622 381.836 316.814 381.82 316.982 381.788C317.158 381.756 317.306 381.708 317.426 381.644C317.554 381.572 317.658 381.484 317.738 381.38C317.826 381.276 317.89 381.156 317.93 381.02C317.97 380.884 317.99 380.732 317.99 380.564C317.99 380.388 317.97 380.232 317.93 380.096C317.89 379.96 317.826 379.844 317.738 379.748C317.658 379.644 317.554 379.56 317.426 379.496C317.306 379.424 317.158 379.372 316.982 379.34C316.814 379.308 316.622 379.292 316.406 379.292H314.246V381.836ZM314.246 378.128H316.202C316.73 378.128 317.122 378.028 317.378 377.828C317.642 377.62 317.774 377.316 317.774 376.916C317.774 376.516 317.642 376.216 317.378 376.016C317.122 375.808 316.73 375.704 316.202 375.704H314.246V378.128ZM323.99 377.708V376.616C323.99 376.344 324.018 376.088 324.074 375.848C324.138 375.608 324.238 375.372 324.374 375.14C324.518 374.908 324.706 374.676 324.938 374.444L325.562 374.936C325.394 375.112 325.258 375.28 325.154 375.44C325.05 375.592 324.974 375.748 324.926 375.908C324.886 376.06 324.866 376.22 324.866 376.388L324.494 376.04H325.67V377.708H323.99ZM327.626 383V381.728H329.534V375.836H330.278L328.058 377.18L327.458 376.052L329.978 374.54H331.07V381.728H332.858V383H327.626ZM337.114 383.12C336.13 383.12 335.358 382.908 334.798 382.484C334.246 382.06 333.97 381.472 333.97 380.72C333.97 380.32 334.05 379.968 334.21 379.664C334.378 379.352 334.606 379.1 334.894 378.908C335.182 378.716 335.51 378.596 335.878 378.548V378.8C335.542 378.728 335.246 378.596 334.99 378.404C334.734 378.204 334.534 377.96 334.39 377.672C334.254 377.376 334.186 377.052 334.186 376.7C334.186 375.988 334.45 375.432 334.978 375.032C335.506 374.624 336.222 374.42 337.126 374.42C338.022 374.42 338.734 374.624 339.262 375.032C339.79 375.432 340.054 375.988 340.054 376.7C340.054 377.052 339.982 377.376 339.838 377.672C339.702 377.968 339.506 378.212 339.25 378.404C339.002 378.596 338.71 378.724 338.374 378.788V378.548C338.75 378.596 339.078 378.72 339.358 378.92C339.638 379.112 339.858 379.364 340.018 379.676C340.178 379.98 340.258 380.328 340.258 380.72C340.258 381.472 339.978 382.06 339.418 382.484C338.866 382.908 338.098 383.12 337.114 383.12ZM337.114 381.92C337.682 381.92 338.11 381.812 338.398 381.596C338.686 381.372 338.83 381.044 338.83 380.612C338.83 380.18 338.686 379.856 338.398 379.64C338.11 379.424 337.682 379.316 337.114 379.316C336.554 379.316 336.126 379.424 335.83 379.64C335.542 379.856 335.398 380.18 335.398 380.612C335.398 381.044 335.542 381.372 335.83 381.596C336.126 381.812 336.554 381.92 337.114 381.92ZM337.114 378.116C337.586 378.116 337.954 378.004 338.218 377.78C338.49 377.556 338.626 377.248 338.626 376.856C338.626 376.472 338.49 376.172 338.218 375.956C337.954 375.732 337.586 375.62 337.114 375.62C336.642 375.62 336.274 375.732 336.01 375.956C335.746 376.172 335.614 376.476 335.614 376.868C335.614 377.252 335.746 377.556 336.01 377.78C336.274 378.004 336.642 378.116 337.114 378.116Z" fill="white"/>
<rect x="452" y="359" width="1" height="8" fill="white" fill-opacity="0.16"/>
<path opacity="0.48" d="M429.651 383L431.067 380.396C431.251 380.052 431.467 379.8 431.715 379.64C431.963 379.48 432.251 379.4 432.579 379.4H432.975L432.951 379.58C432.343 379.58 431.819 379.48 431.379 379.28C430.947 379.08 430.615 378.792 430.383 378.416C430.159 378.04 430.047 377.592 430.047 377.072C430.047 376.272 430.299 375.652 430.803 375.212C431.307 374.764 432.023 374.54 432.951 374.54H436.635V383H435.099V379.616H434.067C433.875 379.616 433.703 379.636 433.551 379.676C433.399 379.716 433.263 379.788 433.143 379.892C433.023 379.988 432.915 380.124 432.819 380.3L431.343 383H429.651ZM433.215 378.476H435.099V375.752H433.215C432.663 375.752 432.243 375.868 431.955 376.1C431.675 376.324 431.535 376.66 431.535 377.108C431.535 377.564 431.675 377.908 431.955 378.14C432.243 378.364 432.663 378.476 433.215 378.476ZM438.488 383V374.54H440.024V378.068H444.38V374.54H445.916V383H444.38V379.352H440.024V383H438.488ZM447.77 383V374.54H451.466C452.354 374.54 453.042 374.736 453.53 375.128C454.018 375.512 454.262 376.048 454.262 376.736C454.262 377.248 454.114 377.68 453.818 378.032C453.522 378.384 453.118 378.62 452.606 378.74V378.56C452.998 378.616 453.334 378.736 453.614 378.92C453.894 379.104 454.106 379.34 454.25 379.628C454.402 379.916 454.478 380.252 454.478 380.636C454.478 381.132 454.362 381.56 454.13 381.92C453.906 382.272 453.578 382.54 453.146 382.724C452.714 382.908 452.198 383 451.598 383H447.77ZM449.246 381.836H451.406C451.622 381.836 451.814 381.82 451.982 381.788C452.158 381.756 452.306 381.708 452.426 381.644C452.554 381.572 452.658 381.484 452.738 381.38C452.826 381.276 452.89 381.156 452.93 381.02C452.97 380.884 452.99 380.732 452.99 380.564C452.99 380.388 452.97 380.232 452.93 380.096C452.89 379.96 452.826 379.844 452.738 379.748C452.658 379.644 452.554 379.56 452.426 379.496C452.306 379.424 452.158 379.372 451.982 379.34C451.814 379.308 451.622 379.292 451.406 379.292H449.246V381.836ZM449.246 378.128H451.202C451.73 378.128 452.122 378.028 452.378 377.828C452.642 377.62 452.774 377.316 452.774 376.916C452.774 376.516 452.642 376.216 452.378 376.016C452.122 375.808 451.73 375.704 451.202 375.704H449.246V378.128ZM458.99 377.708V376.616C458.99 376.344 459.018 376.088 459.074 375.848C459.138 375.608 459.238 375.372 459.374 375.14C459.518 374.908 459.706 374.676 459.938 374.444L460.562 374.936C460.394 375.112 460.258 375.28 460.154 375.44C460.05 375.592 459.974 375.748 459.926 375.908C459.886 376.06 459.866 376.22 459.866 376.388L459.494 376.04H460.67V377.708H458.99ZM462.278 383V381.86L465.014 378.944C465.262 378.68 465.458 378.436 465.602 378.212C465.754 377.988 465.866 377.772 465.938 377.564C466.01 377.356 466.046 377.148 466.046 376.94C466.046 376.54 465.918 376.236 465.662 376.028C465.414 375.82 465.05 375.716 464.57 375.716C464.194 375.716 463.826 375.788 463.466 375.932C463.114 376.068 462.774 376.284 462.446 376.58L461.93 375.428C462.266 375.124 462.686 374.88 463.19 374.696C463.694 374.512 464.218 374.42 464.762 374.42C465.37 374.42 465.882 374.512 466.298 374.696C466.714 374.88 467.03 375.148 467.246 375.5C467.462 375.852 467.57 376.28 467.57 376.784C467.57 377.04 467.538 377.292 467.474 377.54C467.418 377.78 467.326 378.02 467.198 378.26C467.078 378.5 466.922 378.748 466.73 379.004C466.546 379.252 466.322 379.512 466.058 379.784L463.802 382.136V381.728H467.894V383H462.278ZM472.114 383.12C471.45 383.12 470.886 382.952 470.422 382.616C469.966 382.272 469.618 381.776 469.378 381.128C469.146 380.48 469.03 379.688 469.03 378.752C469.03 377.808 469.146 377.016 469.378 376.376C469.618 375.728 469.966 375.24 470.422 374.912C470.886 374.584 471.45 374.42 472.114 374.42C472.786 374.42 473.35 374.584 473.806 374.912C474.27 375.24 474.618 375.724 474.85 376.364C475.082 377.004 475.198 377.796 475.198 378.74C475.198 379.676 475.078 380.472 474.838 381.128C474.606 381.776 474.262 382.272 473.806 382.616C473.35 382.952 472.786 383.12 472.114 383.12ZM472.114 381.86C472.658 381.86 473.058 381.612 473.314 381.116C473.578 380.612 473.71 379.82 473.71 378.74C473.71 377.668 473.578 376.892 473.314 376.412C473.058 375.924 472.658 375.68 472.114 375.68C471.578 375.68 471.178 375.924 470.914 376.412C470.65 376.892 470.518 377.672 470.518 378.752C470.518 379.824 470.65 380.612 470.914 381.116C471.178 381.612 471.578 381.86 472.114 381.86Z" fill="white"/>
<rect x="587" y="359" width="1" height="8" fill="white" fill-opacity="0.16"/>
<path opacity="0.48" d="M564.651 383L566.067 380.396C566.251 380.052 566.467 379.8 566.715 379.64C566.963 379.48 567.251 379.4 567.579 379.4H567.975L567.951 379.58C567.343 379.58 566.819 379.48 566.379 379.28C565.947 379.08 565.615 378.792 565.383 378.416C565.159 378.04 565.047 377.592 565.047 377.072C565.047 376.272 565.299 375.652 565.803 375.212C566.307 374.764 567.023 374.54 567.951 374.54H571.635V383H570.099V379.616H569.067C568.875 379.616 568.703 379.636 568.551 379.676C568.399 379.716 568.263 379.788 568.143 379.892C568.023 379.988 567.915 380.124 567.819 380.3L566.343 383H564.651ZM568.215 378.476H570.099V375.752H568.215C567.663 375.752 567.243 375.868 566.955 376.1C566.675 376.324 566.535 376.66 566.535 377.108C566.535 377.564 566.675 377.908 566.955 378.14C567.243 378.364 567.663 378.476 568.215 378.476ZM573.488 383V374.54H575.024V378.068H579.38V374.54H580.916V383H579.38V379.352H575.024V383H573.488ZM582.77 383V374.54H586.466C587.354 374.54 588.042 374.736 588.53 375.128C589.018 375.512 589.262 376.048 589.262 376.736C589.262 377.248 589.114 377.68 588.818 378.032C588.522 378.384 588.118 378.62 587.606 378.74V378.56C587.998 378.616 588.334 378.736 588.614 378.92C588.894 379.104 589.106 379.34 589.25 379.628C589.402 379.916 589.478 380.252 589.478 380.636C589.478 381.132 589.362 381.56 589.13 381.92C588.906 382.272 588.578 382.54 588.146 382.724C587.714 382.908 587.198 383 586.598 383H582.77ZM584.246 381.836H586.406C586.622 381.836 586.814 381.82 586.982 381.788C587.158 381.756 587.306 381.708 587.426 381.644C587.554 381.572 587.658 381.484 587.738 381.38C587.826 381.276 587.89 381.156 587.93 381.02C587.97 380.884 587.99 380.732 587.99 380.564C587.99 380.388 587.97 380.232 587.93 380.096C587.89 379.96 587.826 379.844 587.738 379.748C587.658 379.644 587.554 379.56 587.426 379.496C587.306 379.424 587.158 379.372 586.982 379.34C586.814 379.308 586.622 379.292 586.406 379.292H584.246V381.836ZM584.246 378.128H586.202C586.73 378.128 587.122 378.028 587.378 377.828C587.642 377.62 587.774 377.316 587.774 376.916C587.774 376.516 587.642 376.216 587.378 376.016C587.122 375.808 586.73 375.704 586.202 375.704H584.246V378.128ZM593.99 377.708V376.616C593.99 376.344 594.018 376.088 594.074 375.848C594.138 375.608 594.238 375.372 594.374 375.14C594.518 374.908 594.706 374.676 594.938 374.444L595.562 374.936C595.394 375.112 595.258 375.28 595.154 375.44C595.05 375.592 594.974 375.748 594.926 375.908C594.886 376.06 594.866 376.22 594.866 376.388L594.494 376.04H595.67V377.708H593.99ZM597.278 383V381.86L600.014 378.944C600.262 378.68 600.458 378.436 600.602 378.212C600.754 377.988 600.866 377.772 600.938 377.564C601.01 377.356 601.046 377.148 601.046 376.94C601.046 376.54 600.918 376.236 600.662 376.028C600.414 375.82 600.05 375.716 599.57 375.716C599.194 375.716 598.826 375.788 598.466 375.932C598.114 376.068 597.774 376.284 597.446 376.58L596.93 375.428C597.266 375.124 597.686 374.88 598.19 374.696C598.694 374.512 599.218 374.42 599.762 374.42C600.37 374.42 600.882 374.512 601.298 374.696C601.714 374.88 602.03 375.148 602.246 375.5C602.462 375.852 602.57 376.28 602.57 376.784C602.57 377.04 602.538 377.292 602.474 377.54C602.418 377.78 602.326 378.02 602.198 378.26C602.078 378.5 601.922 378.748 601.73 379.004C601.546 379.252 601.322 379.512 601.058 379.784L598.802 382.136V381.728H602.894V383H597.278ZM604.474 383V381.86L607.21 378.944C607.458 378.68 607.654 378.436 607.798 378.212C607.95 377.988 608.062 377.772 608.134 377.564C608.206 377.356 608.242 377.148 608.242 376.94C608.242 376.54 608.114 376.236 607.858 376.028C607.61 375.82 607.246 375.716 606.766 375.716C606.39 375.716 606.022 375.788 605.662 375.932C605.31 376.068 604.97 376.284 604.642 376.58L604.126 375.428C604.462 375.124 604.882 374.88 605.386 374.696C605.89 374.512 606.414 374.42 606.958 374.42C607.566 374.42 608.078 374.512 608.494 374.696C608.91 374.88 609.226 375.148 609.442 375.5C609.658 375.852 609.766 376.28 609.766 376.784C609.766 377.04 609.734 377.292 609.67 377.54C609.614 377.78 609.522 378.02 609.394 378.26C609.274 378.5 609.118 378.748 608.926 379.004C608.742 379.252 608.518 379.512 608.254 379.784L605.998 382.136V381.728H610.09V383H604.474Z" fill="white"/>
<rect x="722" y="359" width="1" height="8" fill="white" fill-opacity="0.16"/>
<path opacity="0.48" d="M699.651 383L701.067 380.396C701.251 380.052 701.467 379.8 701.715 379.64C701.963 379.48 702.251 379.4 702.579 379.4H702.975L702.951 379.58C702.343 379.58 701.819 379.48 701.379 379.28C700.947 379.08 700.615 378.792 700.383 378.416C700.159 378.04 700.047 377.592 700.047 377.072C700.047 376.272 700.299 375.652 700.803 375.212C701.307 374.764 702.023 374.54 702.951 374.54H706.635V383H705.099V379.616H704.067C703.875 379.616 703.703 379.636 703.551 379.676C703.399 379.716 703.263 379.788 703.143 379.892C703.023 379.988 702.915 380.124 702.819 380.3L701.343 383H699.651ZM703.215 378.476H705.099V375.752H703.215C702.663 375.752 702.243 375.868 701.955 376.1C701.675 376.324 701.535 376.66 701.535 377.108C701.535 377.564 701.675 377.908 701.955 378.14C702.243 378.364 702.663 378.476 703.215 378.476ZM708.488 383V374.54H710.024V378.068H714.38V374.54H715.916V383H714.38V379.352H710.024V383H708.488ZM717.77 383V374.54H721.466C722.354 374.54 723.042 374.736 723.53 375.128C724.018 375.512 724.262 376.048 724.262 376.736C724.262 377.248 724.114 377.68 723.818 378.032C723.522 378.384 723.118 378.62 722.606 378.74V378.56C722.998 378.616 723.334 378.736 723.614 378.92C723.894 379.104 724.106 379.34 724.25 379.628C724.402 379.916 724.478 380.252 724.478 380.636C724.478 381.132 724.362 381.56 724.13 381.92C723.906 382.272 723.578 382.54 723.146 382.724C722.714 382.908 722.198 383 721.598 383H717.77ZM719.246 381.836H721.406C721.622 381.836 721.814 381.82 721.982 381.788C722.158 381.756 722.306 381.708 722.426 381.644C722.554 381.572 722.658 381.484 722.738 381.38C722.826 381.276 722.89 381.156 722.93 381.02C722.97 380.884 722.99 380.732 722.99 380.564C722.99 380.388 722.97 380.232 722.93 380.096C722.89 379.96 722.826 379.844 722.738 379.748C722.658 379.644 722.554 379.56 722.426 379.496C722.306 379.424 722.158 379.372 721.982 379.34C721.814 379.308 721.622 379.292 721.406 379.292H719.246V381.836ZM719.246 378.128H721.202C721.73 378.128 722.122 378.028 722.378 377.828C722.642 377.62 722.774 377.316 722.774 376.916C722.774 376.516 722.642 376.216 722.378 376.016C722.122 375.808 721.73 375.704 721.202 375.704H719.246V378.128ZM728.99 377.708V376.616C728.99 376.344 729.018 376.088 729.074 375.848C729.138 375.608 729.238 375.372 729.374 375.14C729.518 374.908 729.706 374.676 729.938 374.444L730.562 374.936C730.394 375.112 730.258 375.28 730.154 375.44C730.05 375.592 729.974 375.748 729.926 375.908C729.886 376.06 729.866 376.22 729.866 376.388L729.494 376.04H730.67V377.708H728.99ZM732.278 383V381.86L735.014 378.944C735.262 378.68 735.458 378.436 735.602 378.212C735.754 377.988 735.866 377.772 735.938 377.564C736.01 377.356 736.046 377.148 736.046 376.94C736.046 376.54 735.918 376.236 735.662 376.028C735.414 375.82 735.05 375.716 734.57 375.716C734.194 375.716 733.826 375.788 733.466 375.932C733.114 376.068 732.774 376.284 732.446 376.58L731.93 375.428C732.266 375.124 732.686 374.88 733.19 374.696C733.694 374.512 734.218 374.42 734.762 374.42C735.37 374.42 735.882 374.512 736.298 374.696C736.714 374.88 737.03 375.148 737.246 375.5C737.462 375.852 737.57 376.28 737.57 376.784C737.57 377.04 737.538 377.292 737.474 377.54C737.418 377.78 737.326 378.02 737.198 378.26C737.078 378.5 736.922 378.748 736.73 379.004C736.546 379.252 736.322 379.512 736.058 379.784L733.802 382.136V381.728H737.894V383H732.278ZM742.702 383V381.392H739.018V380.264L742.966 374.54H744.238V380.12H745.426V381.392H744.238V383H742.702ZM742.702 380.12V376.376H743.05L740.218 380.528V380.12H742.702Z" fill="white"/>
<defs>
<filter id="filter0_d_1101_34093" x="676.94" y="289" width="22.5864" height="78.002" filterUnits="userSpaceOnUse" color-interpolation-filters="sRGB">
<feFlood flood-opacity="0" result="BackgroundImageFix"/>
<feColorMatrix in="SourceAlpha" type="matrix" values="0 0 0 0 0 0 0 0 0 0 0 0 0 0 0 0 0 0 127 0" result="hardAlpha"/>
<feMorphology radius="2" operator="dilate" in="SourceAlpha" result="effect1_dropShadow_1101_34093"/>
<feOffset/>
<feGaussianBlur stdDeviation="4"/>
<feComposite in2="hardAlpha" operator="out"/>
<feColorMatrix type="matrix" values="0 0 0 0 0.180392 0 0 0 0 0.741176 0 0 0 0 0.521569 0 0 0 0.24 0"/>
<feBlend mode="normal" in2="BackgroundImageFix" result="effect1_dropShadow_1101_34093"/>
<feBlend mode="normal" in="SourceGraphic" in2="effect1_dropShadow_1101_34093" result="shape"/>
</filter>
<filter id="filter1_d_1101_34093" x="0.25" y="15.6912" width="778.463" height="254.502" filterUnits="userSpaceOnUse" color-interpolation-filters="sRGB">
<feFlood flood-opacity="0" result="BackgroundImageFix"/>
<feColorMatrix in="SourceAlpha" type="matrix" values="0 0 0 0 0 0 0 0 0 0 0 0 0 0 0 0 0 0 127 0" result="hardAlpha"/>
<feOffset/>
<feGaussianBlur stdDeviation="4"/>
<feComposite in2="hardAlpha" operator="out"/>
<feColorMatrix type="matrix" values="0 0 0 0 0.627451 0 0 0 0 0.415686 0 0 0 0 1 0 0 0 0.24 0"/>
<feBlend mode="normal" in2="BackgroundImageFix" result="effect1_dropShadow_1101_34093"/>
<feBlend mode="normal" in="SourceGraphic" in2="effect1_dropShadow_1101_34093" result="shape"/>
</filter>
<linearGradient id="paint0_linear_1101_34093" x1="389.481" y1="31" x2="389.481" y2="308" gradientUnits="userSpaceOnUse">
<stop stop-color="#A06AFF" stop-opacity="0.32"/>
<stop offset="1" stop-color="#181A20" stop-opacity="0"/>
</linearGradient>
</defs>
</svg>
