<svg width="811" height="355" viewBox="0 0 811 355" fill="none" xmlns="http://www.w3.org/2000/svg">
<rect y="7" width="763" height="2" fill="white" fill-opacity="0.04"/>
<rect y="113" width="763" height="2" fill="white" fill-opacity="0.04"/>
<rect y="219" width="763" height="2" fill="white" fill-opacity="0.04"/>
<rect y="325" width="763" height="2" fill="white" fill-opacity="0.16"/>
<path opacity="0.48" d="M797.057 330.108C796.401 330.108 795.849 329.94 795.401 329.604C794.953 329.268 794.613 328.78 794.381 328.14C794.149 327.492 794.033 326.7 794.033 325.764C794.033 324.812 794.149 324.016 794.381 323.376C794.613 322.736 794.953 322.252 795.401 321.924C795.849 321.596 796.401 321.432 797.057 321.432C797.721 321.432 798.277 321.596 798.725 321.924C799.173 322.244 799.509 322.724 799.733 323.364C799.965 324.004 800.081 324.8 800.081 325.752C800.081 326.688 799.965 327.48 799.733 328.128C799.501 328.776 799.161 329.268 798.713 329.604C798.265 329.94 797.713 330.108 797.057 330.108ZM797.057 329.076C797.673 329.076 798.125 328.808 798.413 328.272C798.709 327.736 798.857 326.896 798.857 325.752C798.857 324.608 798.709 323.776 798.413 323.256C798.125 322.728 797.673 322.464 797.057 322.464C796.449 322.464 795.997 322.728 795.701 323.256C795.405 323.776 795.257 324.608 795.257 325.752C795.257 326.896 795.405 327.736 795.701 328.272C795.997 328.808 796.449 329.076 797.057 329.076ZM805.089 330V328.272H804.021V327.396H805.089V326.424H804.021V325.548H805.089V321.54H807.897C808.505 321.54 809.021 321.644 809.445 321.852C809.869 322.052 810.189 322.336 810.405 322.704C810.621 323.072 810.729 323.512 810.729 324.024C810.729 324.512 810.617 324.936 810.393 325.296C810.169 325.648 809.853 325.924 809.445 326.124C809.037 326.324 808.549 326.424 807.981 326.424H806.349V327.396H808.365V328.272H806.349V330H805.089ZM806.325 325.548H807.777C808.345 325.548 808.777 325.432 809.073 325.2C809.377 324.96 809.529 324.592 809.529 324.096C809.529 323.592 809.381 323.216 809.085 322.968C808.789 322.72 808.349 322.596 807.765 322.596H806.325V325.548Z" fill="white"/>
<path opacity="0.48" d="M773.134 224V222.956H775.054V216.596H775.678L773.554 217.916L773.05 216.992L775.414 215.54H776.29V222.956H778.09V224H773.134ZM782.526 224.108C781.87 224.108 781.318 223.94 780.87 223.604C780.422 223.268 780.082 222.78 779.85 222.14C779.618 221.492 779.502 220.7 779.502 219.764C779.502 218.812 779.618 218.016 779.85 217.376C780.082 216.736 780.422 216.252 780.87 215.924C781.318 215.596 781.87 215.432 782.526 215.432C783.19 215.432 783.746 215.596 784.194 215.924C784.642 216.244 784.978 216.724 785.202 217.364C785.434 218.004 785.55 218.8 785.55 219.752C785.55 220.688 785.434 221.48 785.202 222.128C784.97 222.776 784.63 223.268 784.182 223.604C783.734 223.94 783.182 224.108 782.526 224.108ZM782.526 223.076C783.142 223.076 783.594 222.808 783.882 222.272C784.178 221.736 784.326 220.896 784.326 219.752C784.326 218.608 784.178 217.776 783.882 217.256C783.594 216.728 783.142 216.464 782.526 216.464C781.918 216.464 781.466 216.728 781.17 217.256C780.874 217.776 780.726 218.608 780.726 219.752C780.726 220.896 780.874 221.736 781.17 222.272C781.466 222.808 781.918 223.076 782.526 223.076ZM789.721 224.108C789.065 224.108 788.513 223.94 788.065 223.604C787.617 223.268 787.277 222.78 787.045 222.14C786.813 221.492 786.697 220.7 786.697 219.764C786.697 218.812 786.813 218.016 787.045 217.376C787.277 216.736 787.617 216.252 788.065 215.924C788.513 215.596 789.065 215.432 789.721 215.432C790.385 215.432 790.941 215.596 791.389 215.924C791.837 216.244 792.173 216.724 792.397 217.364C792.629 218.004 792.745 218.8 792.745 219.752C792.745 220.688 792.629 221.48 792.397 222.128C792.165 222.776 791.825 223.268 791.377 223.604C790.929 223.94 790.377 224.108 789.721 224.108ZM789.721 223.076C790.337 223.076 790.789 222.808 791.077 222.272C791.373 221.736 791.521 220.896 791.521 219.752C791.521 218.608 791.373 217.776 791.077 217.256C790.789 216.728 790.337 216.464 789.721 216.464C789.113 216.464 788.661 216.728 788.365 217.256C788.069 217.776 787.921 218.608 787.921 219.752C787.921 220.896 788.069 221.736 788.365 222.272C788.661 222.808 789.113 223.076 789.721 223.076ZM796.364 224V216.584H793.364V215.54H800.6V216.584H797.6V224H796.364ZM805.089 224V222.272H804.021V221.396H805.089V220.424H804.021V219.548H805.089V215.54H807.897C808.505 215.54 809.021 215.644 809.445 215.852C809.869 216.052 810.189 216.336 810.405 216.704C810.621 217.072 810.729 217.512 810.729 218.024C810.729 218.512 810.617 218.936 810.393 219.296C810.169 219.648 809.853 219.924 809.445 220.124C809.037 220.324 808.549 220.424 807.981 220.424H806.349V221.396H808.365V222.272H806.349V224H805.089ZM806.325 219.548H807.777C808.345 219.548 808.777 219.432 809.073 219.2C809.377 218.96 809.529 218.592 809.529 218.096C809.529 217.592 809.381 217.216 809.085 216.968C808.789 216.72 808.349 216.596 807.765 216.596H806.325V219.548Z" fill="white"/>
<path opacity="0.48" d="M772.75 118V117.076L775.57 114.052C775.834 113.764 776.046 113.5 776.206 113.26C776.366 113.012 776.482 112.776 776.554 112.552C776.634 112.32 776.674 112.088 776.674 111.856C776.674 111.408 776.538 111.068 776.266 110.836C775.994 110.604 775.594 110.488 775.066 110.488C774.658 110.488 774.27 110.564 773.902 110.716C773.542 110.868 773.198 111.1 772.87 111.412L772.426 110.464C772.746 110.152 773.154 109.904 773.65 109.72C774.146 109.528 774.662 109.432 775.198 109.432C775.782 109.432 776.274 109.524 776.674 109.708C777.082 109.884 777.39 110.144 777.598 110.488C777.806 110.832 777.91 111.252 777.91 111.748C777.91 112.004 777.878 112.256 777.814 112.504C777.758 112.744 777.666 112.984 777.538 113.224C777.418 113.464 777.262 113.712 777.07 113.968C776.886 114.224 776.662 114.488 776.398 114.76L773.986 117.304V116.956H778.246V118H772.75ZM782.526 118.108C781.87 118.108 781.318 117.94 780.87 117.604C780.422 117.268 780.082 116.78 779.85 116.14C779.618 115.492 779.502 114.7 779.502 113.764C779.502 112.812 779.618 112.016 779.85 111.376C780.082 110.736 780.422 110.252 780.87 109.924C781.318 109.596 781.87 109.432 782.526 109.432C783.19 109.432 783.746 109.596 784.194 109.924C784.642 110.244 784.978 110.724 785.202 111.364C785.434 112.004 785.55 112.8 785.55 113.752C785.55 114.688 785.434 115.48 785.202 116.128C784.97 116.776 784.63 117.268 784.182 117.604C783.734 117.94 783.182 118.108 782.526 118.108ZM782.526 117.076C783.142 117.076 783.594 116.808 783.882 116.272C784.178 115.736 784.326 114.896 784.326 113.752C784.326 112.608 784.178 111.776 783.882 111.256C783.594 110.728 783.142 110.464 782.526 110.464C781.918 110.464 781.466 110.728 781.17 111.256C780.874 111.776 780.726 112.608 780.726 113.752C780.726 114.896 780.874 115.736 781.17 116.272C781.466 116.808 781.918 117.076 782.526 117.076ZM789.721 118.108C789.065 118.108 788.513 117.94 788.065 117.604C787.617 117.268 787.277 116.78 787.045 116.14C786.813 115.492 786.697 114.7 786.697 113.764C786.697 112.812 786.813 112.016 787.045 111.376C787.277 110.736 787.617 110.252 788.065 109.924C788.513 109.596 789.065 109.432 789.721 109.432C790.385 109.432 790.941 109.596 791.389 109.924C791.837 110.244 792.173 110.724 792.397 111.364C792.629 112.004 792.745 112.8 792.745 113.752C792.745 114.688 792.629 115.48 792.397 116.128C792.165 116.776 791.825 117.268 791.377 117.604C790.929 117.94 790.377 118.108 789.721 118.108ZM789.721 117.076C790.337 117.076 790.789 116.808 791.077 116.272C791.373 115.736 791.521 114.896 791.521 113.752C791.521 112.608 791.373 111.776 791.077 111.256C790.789 110.728 790.337 110.464 789.721 110.464C789.113 110.464 788.661 110.728 788.365 111.256C788.069 111.776 787.921 112.608 787.921 113.752C787.921 114.896 788.069 115.736 788.365 116.272C788.661 116.808 789.113 117.076 789.721 117.076ZM796.364 118V110.584H793.364V109.54H800.6V110.584H797.6V118H796.364ZM805.089 118V116.272H804.021V115.396H805.089V114.424H804.021V113.548H805.089V109.54H807.897C808.505 109.54 809.021 109.644 809.445 109.852C809.869 110.052 810.189 110.336 810.405 110.704C810.621 111.072 810.729 111.512 810.729 112.024C810.729 112.512 810.617 112.936 810.393 113.296C810.169 113.648 809.853 113.924 809.445 114.124C809.037 114.324 808.549 114.424 807.981 114.424H806.349V115.396H808.365V116.272H806.349V118H805.089ZM806.325 113.548H807.777C808.345 113.548 808.777 113.432 809.073 113.2C809.377 112.96 809.529 112.592 809.529 112.096C809.529 111.592 809.381 111.216 809.085 110.968C808.789 110.72 808.349 110.596 807.765 110.596H806.325V113.548Z" fill="white"/>
<path opacity="0.48" d="M775.198 12.108C774.822 12.108 774.454 12.072 774.094 12C773.742 11.92 773.41 11.808 773.098 11.664C772.794 11.512 772.526 11.332 772.294 11.124L772.726 10.164C773.102 10.468 773.49 10.692 773.89 10.836C774.29 10.98 774.714 11.052 775.162 11.052C775.546 11.052 775.87 10.996 776.134 10.884C776.398 10.772 776.594 10.608 776.722 10.392C776.858 10.176 776.926 9.916 776.926 9.612C776.926 9.156 776.774 8.816 776.47 8.592C776.174 8.36 775.742 8.244 775.174 8.244H773.866V7.2H775.054C775.398 7.2 775.69 7.144 775.93 7.032C776.17 6.912 776.354 6.748 776.482 6.54C776.618 6.324 776.686 6.064 776.686 5.76C776.686 5.352 776.55 5.04 776.278 4.824C776.014 4.6 775.626 4.488 775.114 4.488C774.682 4.488 774.282 4.564 773.914 4.716C773.546 4.868 773.198 5.1 772.87 5.412L772.438 4.464C772.766 4.136 773.174 3.884 773.662 3.708C774.158 3.524 774.674 3.432 775.21 3.432C775.77 3.432 776.25 3.52 776.65 3.696C777.058 3.872 777.366 4.124 777.574 4.452C777.79 4.78 777.898 5.172 777.898 5.628C777.898 6.14 777.754 6.584 777.466 6.96C777.186 7.328 776.798 7.572 776.302 7.692V7.56C776.694 7.624 777.026 7.752 777.298 7.944C777.57 8.136 777.778 8.38 777.922 8.676C778.066 8.972 778.138 9.312 778.138 9.696C778.138 10.192 778.018 10.624 777.778 10.992C777.546 11.352 777.21 11.628 776.77 11.82C776.33 12.012 775.806 12.108 775.198 12.108ZM782.526 12.108C781.87 12.108 781.318 11.94 780.87 11.604C780.422 11.268 780.082 10.78 779.85 10.14C779.618 9.492 779.502 8.7 779.502 7.764C779.502 6.812 779.618 6.016 779.85 5.376C780.082 4.736 780.422 4.252 780.87 3.924C781.318 3.596 781.87 3.432 782.526 3.432C783.19 3.432 783.746 3.596 784.194 3.924C784.642 4.244 784.978 4.724 785.202 5.364C785.434 6.004 785.55 6.8 785.55 7.752C785.55 8.688 785.434 9.48 785.202 10.128C784.97 10.776 784.63 11.268 784.182 11.604C783.734 11.94 783.182 12.108 782.526 12.108ZM782.526 11.076C783.142 11.076 783.594 10.808 783.882 10.272C784.178 9.736 784.326 8.896 784.326 7.752C784.326 6.608 784.178 5.776 783.882 5.256C783.594 4.728 783.142 4.464 782.526 4.464C781.918 4.464 781.466 4.728 781.17 5.256C780.874 5.776 780.726 6.608 780.726 7.752C780.726 8.896 780.874 9.736 781.17 10.272C781.466 10.808 781.918 11.076 782.526 11.076ZM789.721 12.108C789.065 12.108 788.513 11.94 788.065 11.604C787.617 11.268 787.277 10.78 787.045 10.14C786.813 9.492 786.697 8.7 786.697 7.764C786.697 6.812 786.813 6.016 787.045 5.376C787.277 4.736 787.617 4.252 788.065 3.924C788.513 3.596 789.065 3.432 789.721 3.432C790.385 3.432 790.941 3.596 791.389 3.924C791.837 4.244 792.173 4.724 792.397 5.364C792.629 6.004 792.745 6.8 792.745 7.752C792.745 8.688 792.629 9.48 792.397 10.128C792.165 10.776 791.825 11.268 791.377 11.604C790.929 11.94 790.377 12.108 789.721 12.108ZM789.721 11.076C790.337 11.076 790.789 10.808 791.077 10.272C791.373 9.736 791.521 8.896 791.521 7.752C791.521 6.608 791.373 5.776 791.077 5.256C790.789 4.728 790.337 4.464 789.721 4.464C789.113 4.464 788.661 4.728 788.365 5.256C788.069 5.776 787.921 6.608 787.921 7.752C787.921 8.896 788.069 9.736 788.365 10.272C788.661 10.808 789.113 11.076 789.721 11.076ZM796.364 12V4.584H793.364V3.54H800.6V4.584H797.6V12H796.364ZM805.089 12V10.272H804.021V9.396H805.089V8.424H804.021V7.548H805.089V3.54H807.897C808.505 3.54 809.021 3.644 809.445 3.852C809.869 4.052 810.189 4.336 810.405 4.704C810.621 5.072 810.729 5.512 810.729 6.024C810.729 6.512 810.617 6.936 810.393 7.296C810.169 7.648 809.853 7.924 809.445 8.124C809.037 8.324 808.549 8.424 807.981 8.424H806.349V9.396H808.365V10.272H806.349V12H805.089ZM806.325 7.548H807.777C808.345 7.548 808.777 7.432 809.073 7.2C809.377 6.96 809.529 6.592 809.529 6.096C809.529 5.592 809.381 5.216 809.085 4.968C808.789 4.72 808.349 4.596 807.765 4.596H806.325V7.548Z" fill="white"/>
<rect x="39" y="327" width="1" height="8" fill="white" fill-opacity="0.16"/>
<path opacity="0.48" d="M16.651 351L18.067 348.396C18.251 348.052 18.467 347.8 18.715 347.64C18.963 347.48 19.251 347.4 19.579 347.4H19.975L19.951 347.58C19.343 347.58 18.819 347.48 18.379 347.28C17.947 347.08 17.615 346.792 17.383 346.416C17.159 346.04 17.047 345.592 17.047 345.072C17.047 344.272 17.299 343.652 17.803 343.212C18.307 342.764 19.023 342.54 19.951 342.54H23.635V351H22.099V347.616H21.067C20.875 347.616 20.703 347.636 20.551 347.676C20.399 347.716 20.263 347.788 20.143 347.892C20.023 347.988 19.915 348.124 19.819 348.3L18.343 351H16.651ZM20.215 346.476H22.099V343.752H20.215C19.663 343.752 19.243 343.868 18.955 344.1C18.675 344.324 18.535 344.66 18.535 345.108C18.535 345.564 18.675 345.908 18.955 346.14C19.243 346.364 19.663 346.476 20.215 346.476ZM25.4885 351V342.54H27.0245V346.068H31.3805V342.54H32.9165V351H31.3805V347.352H27.0245V351H25.4885ZM34.7697 351V342.54H38.4657C39.3537 342.54 40.0417 342.736 40.5297 343.128C41.0177 343.512 41.2617 344.048 41.2617 344.736C41.2617 345.248 41.1137 345.68 40.8177 346.032C40.5217 346.384 40.1177 346.62 39.6057 346.74V346.56C39.9977 346.616 40.3337 346.736 40.6137 346.92C40.8937 347.104 41.1057 347.34 41.2497 347.628C41.4017 347.916 41.4777 348.252 41.4777 348.636C41.4777 349.132 41.3617 349.56 41.1297 349.92C40.9057 350.272 40.5777 350.54 40.1457 350.724C39.7137 350.908 39.1977 351 38.5977 351H34.7697ZM36.2457 349.836H38.4057C38.6217 349.836 38.8137 349.82 38.9817 349.788C39.1577 349.756 39.3057 349.708 39.4257 349.644C39.5537 349.572 39.6577 349.484 39.7377 349.38C39.8257 349.276 39.8897 349.156 39.9297 349.02C39.9697 348.884 39.9897 348.732 39.9897 348.564C39.9897 348.388 39.9697 348.232 39.9297 348.096C39.8897 347.96 39.8257 347.844 39.7377 347.748C39.6577 347.644 39.5537 347.56 39.4257 347.496C39.3057 347.424 39.1577 347.372 38.9817 347.34C38.8137 347.308 38.6217 347.292 38.4057 347.292H36.2457V349.836ZM36.2457 346.128H38.2017C38.7297 346.128 39.1217 346.028 39.3777 345.828C39.6417 345.62 39.7737 345.316 39.7737 344.916C39.7737 344.516 39.6417 344.216 39.3777 344.016C39.1217 343.808 38.7297 343.704 38.2017 343.704H36.2457V346.128ZM45.9898 345.708V344.616C45.9898 344.344 46.0178 344.088 46.0738 343.848C46.1378 343.608 46.2378 343.372 46.3738 343.14C46.5178 342.908 46.7058 342.676 46.9378 342.444L47.5618 342.936C47.3938 343.112 47.2578 343.28 47.1538 343.44C47.0498 343.592 46.9738 343.748 46.9258 343.908C46.8858 344.06 46.8658 344.22 46.8658 344.388L46.4938 344.04H47.6698V345.708H45.9898ZM49.6264 351V349.728H51.5344V343.836H52.2784L50.0584 345.18L49.4584 344.052L51.9784 342.54H53.0704V349.728H54.8584V351H49.6264ZM59.7017 351V349.392H56.0177V348.264L59.9657 342.54H61.2377V348.12H62.4257V349.392H61.2377V351H59.7017ZM59.7017 348.12V344.376H60.0497L57.2177 348.528V348.12H59.7017Z" fill="white"/>
<rect x="174" y="327" width="1" height="8" fill="white" fill-opacity="0.16"/>
<path opacity="0.48" d="M151.651 351L153.067 348.396C153.251 348.052 153.467 347.8 153.715 347.64C153.963 347.48 154.251 347.4 154.579 347.4H154.975L154.951 347.58C154.343 347.58 153.819 347.48 153.379 347.28C152.947 347.08 152.615 346.792 152.383 346.416C152.159 346.04 152.047 345.592 152.047 345.072C152.047 344.272 152.299 343.652 152.803 343.212C153.307 342.764 154.023 342.54 154.951 342.54H158.635V351H157.099V347.616H156.067C155.875 347.616 155.703 347.636 155.551 347.676C155.399 347.716 155.263 347.788 155.143 347.892C155.023 347.988 154.915 348.124 154.819 348.3L153.343 351H151.651ZM155.215 346.476H157.099V343.752H155.215C154.663 343.752 154.243 343.868 153.955 344.1C153.675 344.324 153.535 344.66 153.535 345.108C153.535 345.564 153.675 345.908 153.955 346.14C154.243 346.364 154.663 346.476 155.215 346.476ZM160.488 351V342.54H162.024V346.068H166.38V342.54H167.916V351H166.38V347.352H162.024V351H160.488ZM169.77 351V342.54H173.466C174.354 342.54 175.042 342.736 175.53 343.128C176.018 343.512 176.262 344.048 176.262 344.736C176.262 345.248 176.114 345.68 175.818 346.032C175.522 346.384 175.118 346.62 174.606 346.74V346.56C174.998 346.616 175.334 346.736 175.614 346.92C175.894 347.104 176.106 347.34 176.25 347.628C176.402 347.916 176.478 348.252 176.478 348.636C176.478 349.132 176.362 349.56 176.13 349.92C175.906 350.272 175.578 350.54 175.146 350.724C174.714 350.908 174.198 351 173.598 351H169.77ZM171.246 349.836H173.406C173.622 349.836 173.814 349.82 173.982 349.788C174.158 349.756 174.306 349.708 174.426 349.644C174.554 349.572 174.658 349.484 174.738 349.38C174.826 349.276 174.89 349.156 174.93 349.02C174.97 348.884 174.99 348.732 174.99 348.564C174.99 348.388 174.97 348.232 174.93 348.096C174.89 347.96 174.826 347.844 174.738 347.748C174.658 347.644 174.554 347.56 174.426 347.496C174.306 347.424 174.158 347.372 173.982 347.34C173.814 347.308 173.622 347.292 173.406 347.292H171.246V349.836ZM171.246 346.128H173.202C173.73 346.128 174.122 346.028 174.378 345.828C174.642 345.62 174.774 345.316 174.774 344.916C174.774 344.516 174.642 344.216 174.378 344.016C174.122 343.808 173.73 343.704 173.202 343.704H171.246V346.128ZM180.99 345.708V344.616C180.99 344.344 181.018 344.088 181.074 343.848C181.138 343.608 181.238 343.372 181.374 343.14C181.518 342.908 181.706 342.676 181.938 342.444L182.562 342.936C182.394 343.112 182.258 343.28 182.154 343.44C182.05 343.592 181.974 343.748 181.926 343.908C181.886 344.06 181.866 344.22 181.866 344.388L181.494 344.04H182.67V345.708H180.99ZM184.626 351V349.728H186.534V343.836H187.278L185.058 345.18L184.458 344.052L186.978 342.54H188.07V349.728H189.858V351H184.626ZM194.426 351.12C193.73 351.12 193.134 350.956 192.638 350.628C192.15 350.292 191.778 349.812 191.522 349.188C191.266 348.564 191.138 347.808 191.138 346.92C191.138 345.96 191.282 345.148 191.57 344.484C191.858 343.812 192.274 343.3 192.818 342.948C193.362 342.596 194.014 342.42 194.774 342.42C195.07 342.42 195.366 342.46 195.662 342.54C195.966 342.612 196.25 342.72 196.514 342.864C196.786 343 197.026 343.168 197.234 343.368L196.73 344.52C196.434 344.248 196.118 344.048 195.782 343.92C195.446 343.784 195.102 343.716 194.75 343.716C194.406 343.716 194.098 343.78 193.826 343.908C193.562 344.028 193.338 344.212 193.154 344.46C192.97 344.7 192.83 345.004 192.734 345.372C192.646 345.732 192.602 346.152 192.602 346.632V347.532H192.458C192.522 347.124 192.654 346.776 192.854 346.488C193.062 346.192 193.326 345.968 193.646 345.816C193.966 345.656 194.322 345.576 194.714 345.576C195.202 345.576 195.634 345.692 196.01 345.924C196.386 346.156 196.682 346.476 196.898 346.884C197.114 347.292 197.222 347.76 197.222 348.288C197.222 348.832 197.102 349.32 196.862 349.752C196.63 350.176 196.302 350.512 195.878 350.76C195.462 351 194.978 351.12 194.426 351.12ZM194.342 349.896C194.63 349.896 194.882 349.832 195.098 349.704C195.322 349.576 195.494 349.396 195.614 349.164C195.734 348.924 195.794 348.652 195.794 348.348C195.794 348.036 195.734 347.764 195.614 347.532C195.494 347.3 195.322 347.12 195.098 346.992C194.882 346.856 194.63 346.788 194.342 346.788C194.054 346.788 193.802 346.856 193.586 346.992C193.37 347.12 193.198 347.3 193.07 347.532C192.95 347.764 192.89 348.036 192.89 348.348C192.89 348.652 192.95 348.924 193.07 349.164C193.198 349.396 193.37 349.576 193.586 349.704C193.802 349.832 194.054 349.896 194.342 349.896Z" fill="white"/>
<rect x="309" y="327" width="1" height="8" fill="white" fill-opacity="0.16"/>
<path opacity="0.48" d="M286.651 351L288.067 348.396C288.251 348.052 288.467 347.8 288.715 347.64C288.963 347.48 289.251 347.4 289.579 347.4H289.975L289.951 347.58C289.343 347.58 288.819 347.48 288.379 347.28C287.947 347.08 287.615 346.792 287.383 346.416C287.159 346.04 287.047 345.592 287.047 345.072C287.047 344.272 287.299 343.652 287.803 343.212C288.307 342.764 289.023 342.54 289.951 342.54H293.635V351H292.099V347.616H291.067C290.875 347.616 290.703 347.636 290.551 347.676C290.399 347.716 290.263 347.788 290.143 347.892C290.023 347.988 289.915 348.124 289.819 348.3L288.343 351H286.651ZM290.215 346.476H292.099V343.752H290.215C289.663 343.752 289.243 343.868 288.955 344.1C288.675 344.324 288.535 344.66 288.535 345.108C288.535 345.564 288.675 345.908 288.955 346.14C289.243 346.364 289.663 346.476 290.215 346.476ZM295.488 351V342.54H297.024V346.068H301.38V342.54H302.916V351H301.38V347.352H297.024V351H295.488ZM304.77 351V342.54H308.466C309.354 342.54 310.042 342.736 310.53 343.128C311.018 343.512 311.262 344.048 311.262 344.736C311.262 345.248 311.114 345.68 310.818 346.032C310.522 346.384 310.118 346.62 309.606 346.74V346.56C309.998 346.616 310.334 346.736 310.614 346.92C310.894 347.104 311.106 347.34 311.25 347.628C311.402 347.916 311.478 348.252 311.478 348.636C311.478 349.132 311.362 349.56 311.13 349.92C310.906 350.272 310.578 350.54 310.146 350.724C309.714 350.908 309.198 351 308.598 351H304.77ZM306.246 349.836H308.406C308.622 349.836 308.814 349.82 308.982 349.788C309.158 349.756 309.306 349.708 309.426 349.644C309.554 349.572 309.658 349.484 309.738 349.38C309.826 349.276 309.89 349.156 309.93 349.02C309.97 348.884 309.99 348.732 309.99 348.564C309.99 348.388 309.97 348.232 309.93 348.096C309.89 347.96 309.826 347.844 309.738 347.748C309.658 347.644 309.554 347.56 309.426 347.496C309.306 347.424 309.158 347.372 308.982 347.34C308.814 347.308 308.622 347.292 308.406 347.292H306.246V349.836ZM306.246 346.128H308.202C308.73 346.128 309.122 346.028 309.378 345.828C309.642 345.62 309.774 345.316 309.774 344.916C309.774 344.516 309.642 344.216 309.378 344.016C309.122 343.808 308.73 343.704 308.202 343.704H306.246V346.128ZM315.99 345.708V344.616C315.99 344.344 316.018 344.088 316.074 343.848C316.138 343.608 316.238 343.372 316.374 343.14C316.518 342.908 316.706 342.676 316.938 342.444L317.562 342.936C317.394 343.112 317.258 343.28 317.154 343.44C317.05 343.592 316.974 343.748 316.926 343.908C316.886 344.06 316.866 344.22 316.866 344.388L316.494 344.04H317.67V345.708H315.99ZM319.626 351V349.728H321.534V343.836H322.278L320.058 345.18L319.458 344.052L321.978 342.54H323.07V349.728H324.858V351H319.626ZM329.114 351.12C328.13 351.12 327.358 350.908 326.798 350.484C326.246 350.06 325.97 349.472 325.97 348.72C325.97 348.32 326.05 347.968 326.21 347.664C326.378 347.352 326.606 347.1 326.894 346.908C327.182 346.716 327.51 346.596 327.878 346.548V346.8C327.542 346.728 327.246 346.596 326.99 346.404C326.734 346.204 326.534 345.96 326.39 345.672C326.254 345.376 326.186 345.052 326.186 344.7C326.186 343.988 326.45 343.432 326.978 343.032C327.506 342.624 328.222 342.42 329.126 342.42C330.022 342.42 330.734 342.624 331.262 343.032C331.79 343.432 332.054 343.988 332.054 344.7C332.054 345.052 331.982 345.376 331.838 345.672C331.702 345.968 331.506 346.212 331.25 346.404C331.002 346.596 330.71 346.724 330.374 346.788V346.548C330.75 346.596 331.078 346.72 331.358 346.92C331.638 347.112 331.858 347.364 332.018 347.676C332.178 347.98 332.258 348.328 332.258 348.72C332.258 349.472 331.978 350.06 331.418 350.484C330.866 350.908 330.098 351.12 329.114 351.12ZM329.114 349.92C329.682 349.92 330.11 349.812 330.398 349.596C330.686 349.372 330.83 349.044 330.83 348.612C330.83 348.18 330.686 347.856 330.398 347.64C330.11 347.424 329.682 347.316 329.114 347.316C328.554 347.316 328.126 347.424 327.83 347.64C327.542 347.856 327.398 348.18 327.398 348.612C327.398 349.044 327.542 349.372 327.83 349.596C328.126 349.812 328.554 349.92 329.114 349.92ZM329.114 346.116C329.586 346.116 329.954 346.004 330.218 345.78C330.49 345.556 330.626 345.248 330.626 344.856C330.626 344.472 330.49 344.172 330.218 343.956C329.954 343.732 329.586 343.62 329.114 343.62C328.642 343.62 328.274 343.732 328.01 343.956C327.746 344.172 327.614 344.476 327.614 344.868C327.614 345.252 327.746 345.556 328.01 345.78C328.274 346.004 328.642 346.116 329.114 346.116Z" fill="white"/>
<rect x="444" y="327" width="1" height="8" fill="white" fill-opacity="0.16"/>
<path opacity="0.48" d="M421.651 351L423.067 348.396C423.251 348.052 423.467 347.8 423.715 347.64C423.963 347.48 424.251 347.4 424.579 347.4H424.975L424.951 347.58C424.343 347.58 423.819 347.48 423.379 347.28C422.947 347.08 422.615 346.792 422.383 346.416C422.159 346.04 422.047 345.592 422.047 345.072C422.047 344.272 422.299 343.652 422.803 343.212C423.307 342.764 424.023 342.54 424.951 342.54H428.635V351H427.099V347.616H426.067C425.875 347.616 425.703 347.636 425.551 347.676C425.399 347.716 425.263 347.788 425.143 347.892C425.023 347.988 424.915 348.124 424.819 348.3L423.343 351H421.651ZM425.215 346.476H427.099V343.752H425.215C424.663 343.752 424.243 343.868 423.955 344.1C423.675 344.324 423.535 344.66 423.535 345.108C423.535 345.564 423.675 345.908 423.955 346.14C424.243 346.364 424.663 346.476 425.215 346.476ZM430.488 351V342.54H432.024V346.068H436.38V342.54H437.916V351H436.38V347.352H432.024V351H430.488ZM439.77 351V342.54H443.466C444.354 342.54 445.042 342.736 445.53 343.128C446.018 343.512 446.262 344.048 446.262 344.736C446.262 345.248 446.114 345.68 445.818 346.032C445.522 346.384 445.118 346.62 444.606 346.74V346.56C444.998 346.616 445.334 346.736 445.614 346.92C445.894 347.104 446.106 347.34 446.25 347.628C446.402 347.916 446.478 348.252 446.478 348.636C446.478 349.132 446.362 349.56 446.13 349.92C445.906 350.272 445.578 350.54 445.146 350.724C444.714 350.908 444.198 351 443.598 351H439.77ZM441.246 349.836H443.406C443.622 349.836 443.814 349.82 443.982 349.788C444.158 349.756 444.306 349.708 444.426 349.644C444.554 349.572 444.658 349.484 444.738 349.38C444.826 349.276 444.89 349.156 444.93 349.02C444.97 348.884 444.99 348.732 444.99 348.564C444.99 348.388 444.97 348.232 444.93 348.096C444.89 347.96 444.826 347.844 444.738 347.748C444.658 347.644 444.554 347.56 444.426 347.496C444.306 347.424 444.158 347.372 443.982 347.34C443.814 347.308 443.622 347.292 443.406 347.292H441.246V349.836ZM441.246 346.128H443.202C443.73 346.128 444.122 346.028 444.378 345.828C444.642 345.62 444.774 345.316 444.774 344.916C444.774 344.516 444.642 344.216 444.378 344.016C444.122 343.808 443.73 343.704 443.202 343.704H441.246V346.128ZM450.99 345.708V344.616C450.99 344.344 451.018 344.088 451.074 343.848C451.138 343.608 451.238 343.372 451.374 343.14C451.518 342.908 451.706 342.676 451.938 342.444L452.562 342.936C452.394 343.112 452.258 343.28 452.154 343.44C452.05 343.592 451.974 343.748 451.926 343.908C451.886 344.06 451.866 344.22 451.866 344.388L451.494 344.04H452.67V345.708H450.99ZM454.278 351V349.86L457.014 346.944C457.262 346.68 457.458 346.436 457.602 346.212C457.754 345.988 457.866 345.772 457.938 345.564C458.01 345.356 458.046 345.148 458.046 344.94C458.046 344.54 457.918 344.236 457.662 344.028C457.414 343.82 457.05 343.716 456.57 343.716C456.194 343.716 455.826 343.788 455.466 343.932C455.114 344.068 454.774 344.284 454.446 344.58L453.93 343.428C454.266 343.124 454.686 342.88 455.19 342.696C455.694 342.512 456.218 342.42 456.762 342.42C457.37 342.42 457.882 342.512 458.298 342.696C458.714 342.88 459.03 343.148 459.246 343.5C459.462 343.852 459.57 344.28 459.57 344.784C459.57 345.04 459.538 345.292 459.474 345.54C459.418 345.78 459.326 346.02 459.198 346.26C459.078 346.5 458.922 346.748 458.73 347.004C458.546 347.252 458.322 347.512 458.058 347.784L455.802 350.136V349.728H459.894V351H454.278ZM464.114 351.12C463.45 351.12 462.886 350.952 462.422 350.616C461.966 350.272 461.618 349.776 461.378 349.128C461.146 348.48 461.03 347.688 461.03 346.752C461.03 345.808 461.146 345.016 461.378 344.376C461.618 343.728 461.966 343.24 462.422 342.912C462.886 342.584 463.45 342.42 464.114 342.42C464.786 342.42 465.35 342.584 465.806 342.912C466.27 343.24 466.618 343.724 466.85 344.364C467.082 345.004 467.198 345.796 467.198 346.74C467.198 347.676 467.078 348.472 466.838 349.128C466.606 349.776 466.262 350.272 465.806 350.616C465.35 350.952 464.786 351.12 464.114 351.12ZM464.114 349.86C464.658 349.86 465.058 349.612 465.314 349.116C465.578 348.612 465.71 347.82 465.71 346.74C465.71 345.668 465.578 344.892 465.314 344.412C465.058 343.924 464.658 343.68 464.114 343.68C463.578 343.68 463.178 343.924 462.914 344.412C462.65 344.892 462.518 345.672 462.518 346.752C462.518 347.824 462.65 348.612 462.914 349.116C463.178 349.612 463.578 349.86 464.114 349.86Z" fill="white"/>
<rect x="579" y="327" width="1" height="8" fill="white" fill-opacity="0.16"/>
<path opacity="0.48" d="M556.651 351L558.067 348.396C558.251 348.052 558.467 347.8 558.715 347.64C558.963 347.48 559.251 347.4 559.579 347.4H559.975L559.951 347.58C559.343 347.58 558.819 347.48 558.379 347.28C557.947 347.08 557.615 346.792 557.383 346.416C557.159 346.04 557.047 345.592 557.047 345.072C557.047 344.272 557.299 343.652 557.803 343.212C558.307 342.764 559.023 342.54 559.951 342.54H563.635V351H562.099V347.616H561.067C560.875 347.616 560.703 347.636 560.551 347.676C560.399 347.716 560.263 347.788 560.143 347.892C560.023 347.988 559.915 348.124 559.819 348.3L558.343 351H556.651ZM560.215 346.476H562.099V343.752H560.215C559.663 343.752 559.243 343.868 558.955 344.1C558.675 344.324 558.535 344.66 558.535 345.108C558.535 345.564 558.675 345.908 558.955 346.14C559.243 346.364 559.663 346.476 560.215 346.476ZM565.488 351V342.54H567.024V346.068H571.38V342.54H572.916V351H571.38V347.352H567.024V351H565.488ZM574.77 351V342.54H578.466C579.354 342.54 580.042 342.736 580.53 343.128C581.018 343.512 581.262 344.048 581.262 344.736C581.262 345.248 581.114 345.68 580.818 346.032C580.522 346.384 580.118 346.62 579.606 346.74V346.56C579.998 346.616 580.334 346.736 580.614 346.92C580.894 347.104 581.106 347.34 581.25 347.628C581.402 347.916 581.478 348.252 581.478 348.636C581.478 349.132 581.362 349.56 581.13 349.92C580.906 350.272 580.578 350.54 580.146 350.724C579.714 350.908 579.198 351 578.598 351H574.77ZM576.246 349.836H578.406C578.622 349.836 578.814 349.82 578.982 349.788C579.158 349.756 579.306 349.708 579.426 349.644C579.554 349.572 579.658 349.484 579.738 349.38C579.826 349.276 579.89 349.156 579.93 349.02C579.97 348.884 579.99 348.732 579.99 348.564C579.99 348.388 579.97 348.232 579.93 348.096C579.89 347.96 579.826 347.844 579.738 347.748C579.658 347.644 579.554 347.56 579.426 347.496C579.306 347.424 579.158 347.372 578.982 347.34C578.814 347.308 578.622 347.292 578.406 347.292H576.246V349.836ZM576.246 346.128H578.202C578.73 346.128 579.122 346.028 579.378 345.828C579.642 345.62 579.774 345.316 579.774 344.916C579.774 344.516 579.642 344.216 579.378 344.016C579.122 343.808 578.73 343.704 578.202 343.704H576.246V346.128ZM585.99 345.708V344.616C585.99 344.344 586.018 344.088 586.074 343.848C586.138 343.608 586.238 343.372 586.374 343.14C586.518 342.908 586.706 342.676 586.938 342.444L587.562 342.936C587.394 343.112 587.258 343.28 587.154 343.44C587.05 343.592 586.974 343.748 586.926 343.908C586.886 344.06 586.866 344.22 586.866 344.388L586.494 344.04H587.67V345.708H585.99ZM589.278 351V349.86L592.014 346.944C592.262 346.68 592.458 346.436 592.602 346.212C592.754 345.988 592.866 345.772 592.938 345.564C593.01 345.356 593.046 345.148 593.046 344.94C593.046 344.54 592.918 344.236 592.662 344.028C592.414 343.82 592.05 343.716 591.57 343.716C591.194 343.716 590.826 343.788 590.466 343.932C590.114 344.068 589.774 344.284 589.446 344.58L588.93 343.428C589.266 343.124 589.686 342.88 590.19 342.696C590.694 342.512 591.218 342.42 591.762 342.42C592.37 342.42 592.882 342.512 593.298 342.696C593.714 342.88 594.03 343.148 594.246 343.5C594.462 343.852 594.57 344.28 594.57 344.784C594.57 345.04 594.538 345.292 594.474 345.54C594.418 345.78 594.326 346.02 594.198 346.26C594.078 346.5 593.922 346.748 593.73 347.004C593.546 347.252 593.322 347.512 593.058 347.784L590.802 350.136V349.728H594.894V351H589.278ZM596.474 351V349.86L599.21 346.944C599.458 346.68 599.654 346.436 599.798 346.212C599.95 345.988 600.062 345.772 600.134 345.564C600.206 345.356 600.242 345.148 600.242 344.94C600.242 344.54 600.114 344.236 599.858 344.028C599.61 343.82 599.246 343.716 598.766 343.716C598.39 343.716 598.022 343.788 597.662 343.932C597.31 344.068 596.97 344.284 596.642 344.58L596.126 343.428C596.462 343.124 596.882 342.88 597.386 342.696C597.89 342.512 598.414 342.42 598.958 342.42C599.566 342.42 600.078 342.512 600.494 342.696C600.91 342.88 601.226 343.148 601.442 343.5C601.658 343.852 601.766 344.28 601.766 344.784C601.766 345.04 601.734 345.292 601.67 345.54C601.614 345.78 601.522 346.02 601.394 346.26C601.274 346.5 601.118 346.748 600.926 347.004C600.742 347.252 600.518 347.512 600.254 347.784L597.998 350.136V349.728H602.09V351H596.474Z" fill="white"/>
<rect x="714" y="327" width="1" height="8" fill="white" fill-opacity="0.16"/>
<path opacity="0.48" d="M691.651 351L693.067 348.396C693.251 348.052 693.467 347.8 693.715 347.64C693.963 347.48 694.251 347.4 694.579 347.4H694.975L694.951 347.58C694.343 347.58 693.819 347.48 693.379 347.28C692.947 347.08 692.615 346.792 692.383 346.416C692.159 346.04 692.047 345.592 692.047 345.072C692.047 344.272 692.299 343.652 692.803 343.212C693.307 342.764 694.023 342.54 694.951 342.54H698.635V351H697.099V347.616H696.067C695.875 347.616 695.703 347.636 695.551 347.676C695.399 347.716 695.263 347.788 695.143 347.892C695.023 347.988 694.915 348.124 694.819 348.3L693.343 351H691.651ZM695.215 346.476H697.099V343.752H695.215C694.663 343.752 694.243 343.868 693.955 344.1C693.675 344.324 693.535 344.66 693.535 345.108C693.535 345.564 693.675 345.908 693.955 346.14C694.243 346.364 694.663 346.476 695.215 346.476ZM700.488 351V342.54H702.024V346.068H706.38V342.54H707.916V351H706.38V347.352H702.024V351H700.488ZM709.77 351V342.54H713.466C714.354 342.54 715.042 342.736 715.53 343.128C716.018 343.512 716.262 344.048 716.262 344.736C716.262 345.248 716.114 345.68 715.818 346.032C715.522 346.384 715.118 346.62 714.606 346.74V346.56C714.998 346.616 715.334 346.736 715.614 346.92C715.894 347.104 716.106 347.34 716.25 347.628C716.402 347.916 716.478 348.252 716.478 348.636C716.478 349.132 716.362 349.56 716.13 349.92C715.906 350.272 715.578 350.54 715.146 350.724C714.714 350.908 714.198 351 713.598 351H709.77ZM711.246 349.836H713.406C713.622 349.836 713.814 349.82 713.982 349.788C714.158 349.756 714.306 349.708 714.426 349.644C714.554 349.572 714.658 349.484 714.738 349.38C714.826 349.276 714.89 349.156 714.93 349.02C714.97 348.884 714.99 348.732 714.99 348.564C714.99 348.388 714.97 348.232 714.93 348.096C714.89 347.96 714.826 347.844 714.738 347.748C714.658 347.644 714.554 347.56 714.426 347.496C714.306 347.424 714.158 347.372 713.982 347.34C713.814 347.308 713.622 347.292 713.406 347.292H711.246V349.836ZM711.246 346.128H713.202C713.73 346.128 714.122 346.028 714.378 345.828C714.642 345.62 714.774 345.316 714.774 344.916C714.774 344.516 714.642 344.216 714.378 344.016C714.122 343.808 713.73 343.704 713.202 343.704H711.246V346.128ZM720.99 345.708V344.616C720.99 344.344 721.018 344.088 721.074 343.848C721.138 343.608 721.238 343.372 721.374 343.14C721.518 342.908 721.706 342.676 721.938 342.444L722.562 342.936C722.394 343.112 722.258 343.28 722.154 343.44C722.05 343.592 721.974 343.748 721.926 343.908C721.886 344.06 721.866 344.22 721.866 344.388L721.494 344.04H722.67V345.708H720.99ZM724.278 351V349.86L727.014 346.944C727.262 346.68 727.458 346.436 727.602 346.212C727.754 345.988 727.866 345.772 727.938 345.564C728.01 345.356 728.046 345.148 728.046 344.94C728.046 344.54 727.918 344.236 727.662 344.028C727.414 343.82 727.05 343.716 726.57 343.716C726.194 343.716 725.826 343.788 725.466 343.932C725.114 344.068 724.774 344.284 724.446 344.58L723.93 343.428C724.266 343.124 724.686 342.88 725.19 342.696C725.694 342.512 726.218 342.42 726.762 342.42C727.37 342.42 727.882 342.512 728.298 342.696C728.714 342.88 729.03 343.148 729.246 343.5C729.462 343.852 729.57 344.28 729.57 344.784C729.57 345.04 729.538 345.292 729.474 345.54C729.418 345.78 729.326 346.02 729.198 346.26C729.078 346.5 728.922 346.748 728.73 347.004C728.546 347.252 728.322 347.512 728.058 347.784L725.802 350.136V349.728H729.894V351H724.278ZM734.702 351V349.392H731.018V348.264L734.966 342.54H736.238V348.12H737.426V349.392H736.238V351H734.702ZM734.702 348.12V344.376H735.05L732.218 348.528V348.12H734.702Z" fill="white"/>
<path d="M20.403 48.5L2 54.5V325H761V52.5L735.136 47L715.241 79.5L689.377 43.5L674.456 50L623.723 63.5L550.111 43.5L540.164 68.5L468.541 35L444.667 39.5L419.301 62.5L386.971 36.5L371.055 45.5L350.663 52C338.56 46.8333 313.956 35.9 312.364 33.5C310.773 31.1 300.427 22.8333 295.453 19L274.564 27.5L257.155 31L246.71 41.5L231.789 36.5L201.449 65.5L189.512 44.5L165.638 65.5L137.287 48.5L115.402 56L78.099 48.5L59.1986 53.5L49.7484 50.5L30.3506 55.5L20.403 48.5Z" fill="url(#paint0_linear_1108_34314)"/>
<path d="M20.403 174.1L2 177.374V325H761V176.283L735.136 173.281L715.241 191.018L689.377 171.371L674.456 174.918L623.723 182.286L550.111 171.371L540.164 185.015L468.541 166.732L444.667 169.188L419.301 181.74L386.971 167.551L371.055 172.462L350.663 176.01C338.56 173.19 313.956 167.223 312.364 165.913C310.773 164.604 300.427 160.092 295.453 158L274.564 162.639L257.155 164.549L246.71 170.279L231.789 167.551L201.449 183.377L189.512 171.917L165.638 183.377L137.287 174.1L115.402 178.193L78.099 174.1L59.1986 176.828L49.7484 175.191L30.3506 177.92L20.403 174.1Z" fill="url(#paint1_linear_1108_34314)"/>
<path d="M20.403 198.497L2 201.242V325H761V200.327L735.136 197.81L715.241 212.68L689.377 196.209L674.456 199.183L623.723 205.359L550.111 196.209L540.164 207.647L468.541 192.32L444.667 194.379L419.301 204.902L386.971 193.007L371.055 197.124L350.663 200.098C338.56 197.734 313.956 192.732 312.364 191.634C310.773 190.536 300.427 186.754 295.453 185L274.564 188.889L257.155 190.49L246.71 195.294L231.789 193.007L201.449 206.275L189.512 196.667L165.638 206.275L137.287 198.497L115.402 201.928L78.099 198.497L59.1986 200.784L49.7484 199.412L30.3506 201.699L20.403 198.497Z" fill="url(#paint2_linear_1108_34314)"/>
<path d="M20.403 220.183L2 222.458V325H761V221.699L735.136 219.614L715.241 231.935L689.377 218.288L674.456 220.752L623.723 225.869L550.111 218.288L540.164 227.765L468.541 215.065L444.667 216.771L419.301 225.49L386.971 215.634L371.055 219.046L350.663 221.51C338.56 219.551 313.956 215.407 312.364 214.497C310.773 213.587 300.427 210.453 295.453 209L274.564 212.222L257.155 213.549L246.71 217.529L231.789 215.634L201.449 226.627L189.512 218.667L165.638 226.627L137.287 220.183L115.402 223.026L78.099 220.183L59.1986 222.078L49.7484 220.941L30.3506 222.837L20.403 220.183Z" fill="url(#paint3_linear_1108_34314)"/>
<defs>
<linearGradient id="paint0_linear_1108_34314" x1="381.5" y1="325" x2="381.5" y2="19" gradientUnits="userSpaceOnUse">
<stop stop-color="#181A20"/>
<stop offset="1" stop-color="#FFA800"/>
</linearGradient>
<linearGradient id="paint1_linear_1108_34314" x1="381.5" y1="325" x2="381.5" y2="158" gradientUnits="userSpaceOnUse">
<stop stop-color="#181A20"/>
<stop offset="1" stop-color="#6AA5FF"/>
</linearGradient>
<linearGradient id="paint2_linear_1108_34314" x1="381.5" y1="325" x2="381.5" y2="185" gradientUnits="userSpaceOnUse">
<stop stop-color="#181A20"/>
<stop offset="1" stop-color="#2EBD85"/>
</linearGradient>
<linearGradient id="paint3_linear_1108_34314" x1="381.5" y1="325" x2="381.5" y2="209" gradientUnits="userSpaceOnUse">
<stop stop-color="#181A20"/>
<stop offset="1" stop-color="#DBDBDB"/>
</linearGradient>
</defs>
</svg>
