<svg width="1055" height="344" viewBox="0 0 1055 344" fill="none" xmlns="http://www.w3.org/2000/svg">
<rect x="7" y="314" width="916" height="2" fill="#313338"/>
<rect x="7" y="264" width="916" height="2" fill="#23252D"/>
<rect x="7" y="214" width="916" height="2" fill="#23252D"/>
<rect x="7" y="164" width="916" height="2" fill="#23252D"/>
<rect x="7" y="114" width="916" height="2" fill="#23252D"/>
<rect x="7" y="64" width="916" height="2" fill="#23252D"/>
<rect x="7" y="14" width="916" height="2" fill="#23252D"/>
<g filter="url(#filter0_d_2296_143)">
<path d="M9 16.5L70.4576 25L127.363 19L170.231 31L202.098 102L250.278 117.5L308.7 124.5L363.709 102L417.579 90.5L478.657 108L523.802 90H581.466L642.544 86.5L675.17 83L703.243 67.5L750.664 81L789.359 70L862.577 35L887.236 32.5L921 10.9473" stroke="#6AA5FF" stroke-width="2"/>
<path d="M9 19.5L70.4576 28L127.363 22L170.231 34L202.098 105L250.278 120.5L308.7 127.5L363.709 105L417.579 93.5L478.657 111L523.802 93H581.466L642.544 89.5L675.17 86L703.243 70.5L750.664 84L789.359 73L862.577 38L887.236 35.5L921 13.9473" stroke="#6AA6FF" stroke-opacity="0.16" stroke-width="4"/>
</g>
<g filter="url(#filter1_d_2296_143)">
<path d="M9 285.677L56.4 283.521L97.2 284.406L152.4 287L186 281.348L247.8 285.545L282 284.786L299.723 279.198L317.4 277.069L337.8 280.485L360.6 279.198L383.308 283.584L417.6 281.348L445.8 285.545L470.4 281.348L483 286.178L501 281.939L556.2 283.268L592.2 281.939L612 279.978L646.2 281.56L664.2 276.724L684.6 282.699L706.2 280.674L753 283.268L791.4 283.647H816.6L848.031 281.738L863.4 278.587L882 281.18L910.2 283.647L921 280.659" stroke="#FFA800" stroke-width="2"/>
</g>
<g filter="url(#filter2_d_2296_143)">
<path d="M9 268.677L34.797 262L68.1814 256.5L108.981 257.386L152.4 270H183.509L243.829 252.412L282 262.198L299.723 262.198L317.426 253.015L337.8 260L362.571 251.113L383.308 262.198L422.131 257.5L449.067 259L470.4 264.348L486.624 257.5H506.645L559.083 259L592.2 264.94L613.333 256.5L647.476 254.5L664.2 259.724L685.033 256.5H708.554L755.596 261L791.4 266.648L820.468 258L856.887 254L872.82 258L891.662 259.533H911.136L921 263.659" stroke="#FF6A79" stroke-width="2"/>
</g>
<g filter="url(#filter3_d_2296_143)">
<path d="M9 300.729L50.3511 303.721L92.8403 306.213H142.158L196.787 305.715H252.554L293.526 307.21L344.74 302.724L383.815 306.213L473.725 303.222L502.178 304.219L546.943 303.222L606.504 306.712L666.824 306.712H698.69L730.178 305.715L824.641 304.278L849.299 305.217L880.028 304.278H921" stroke="#A06AFF" stroke-width="2"/>
</g>
<g filter="url(#filter4_d_2296_143)">
<path d="M9 247L70.4576 203.796L144.055 204.5L186.165 213L224.481 218H270.005L323.875 227L373.952 248.825L408.474 227L470.311 222.5L539.356 219.5L592.468 243.242L649.373 227H693.759L718.418 230.5L753.319 227H801.879L850.438 208L872.82 221.5L921 236.525" stroke="#6AFF9C" stroke-width="2"/>
</g>
<g filter="url(#filter5_d_2296_143)">
<path d="M9 236.759L50.7304 214H97.0133L148.607 210L187.303 220H228.654H284.8L301.872 221.5L353.845 198H402.404L455.516 212.5L527.975 194.5L620.161 188L657.339 205.5L695.276 208L722.211 214.5L757.492 195L773.426 218.5L792.015 194L829.572 191.5L859.542 186.5L921 215.82" stroke="#EF454A" stroke-width="2"/>
</g>
<rect x="70" y="316" width="1" height="8" fill="#313338"/>
<path d="M62.0165 340.3V339.052L62.4005 339.34H62.0885C61.2725 339.34 60.5685 339.196 59.9765 338.908C59.3845 338.62 58.9285 338.208 58.6085 337.672C58.2885 337.128 58.1285 336.472 58.1285 335.704C58.1285 334.928 58.2845 334.272 58.5965 333.736C58.9085 333.192 59.3605 332.78 59.9525 332.5C60.5445 332.212 61.2565 332.068 62.0885 332.068H62.4005L62.0165 332.356V331.18H63.5645V332.356L63.1805 332.068H63.4925C64.3325 332.068 65.0445 332.212 65.6285 332.5C66.2205 332.78 66.6725 333.192 66.9845 333.736C67.2965 334.272 67.4525 334.928 67.4525 335.704C67.4525 336.472 67.2925 337.128 66.9725 337.672C66.6525 338.208 66.1965 338.62 65.6045 338.908C65.0205 339.196 64.3165 339.34 63.4925 339.34H63.1805L63.5645 339.052V340.3H62.0165ZM62.0285 338.428V332.98L62.3525 333.244H61.9325C61.4925 333.244 61.1045 333.336 60.7685 333.52C60.4325 333.696 60.1685 333.968 59.9765 334.336C59.7925 334.696 59.7005 335.152 59.7005 335.704C59.7005 336.104 59.7565 336.46 59.8685 336.772C59.9805 337.076 60.1365 337.332 60.3365 337.54C60.5365 337.748 60.7725 337.904 61.0445 338.008C61.3165 338.112 61.6125 338.164 61.9325 338.164H62.3525L62.0285 338.428ZM63.5525 338.428L63.2285 338.164H63.6485C63.9685 338.164 64.2645 338.112 64.5365 338.008C64.8085 337.904 65.0445 337.748 65.2445 337.54C65.4445 337.332 65.6005 337.076 65.7125 336.772C65.8245 336.46 65.8805 336.104 65.8805 335.704C65.8805 335.152 65.7845 334.696 65.5925 334.336C65.4085 333.968 65.1485 333.696 64.8125 333.52C64.4765 333.336 64.0885 333.244 63.6485 333.244H63.2285L63.5525 332.98V338.428ZM69.0217 340V331.54H74.6497V332.764H70.4977V335.092H74.3857V336.316H70.4977V338.776H74.6497V340H69.0217ZM76.1818 340V331.54H79.8778C80.7658 331.54 81.4538 331.736 81.9418 332.128C82.4298 332.512 82.6738 333.048 82.6738 333.736C82.6738 334.248 82.5258 334.68 82.2298 335.032C81.9338 335.384 81.5298 335.62 81.0178 335.74V335.56C81.4098 335.616 81.7458 335.736 82.0258 335.92C82.3058 336.104 82.5178 336.34 82.6618 336.628C82.8138 336.916 82.8898 337.252 82.8898 337.636C82.8898 338.132 82.7738 338.56 82.5418 338.92C82.3178 339.272 81.9898 339.54 81.5578 339.724C81.1258 339.908 80.6098 340 80.0098 340H76.1818ZM77.6578 338.836H79.8178C80.0338 338.836 80.2258 338.82 80.3938 338.788C80.5698 338.756 80.7178 338.708 80.8378 338.644C80.9658 338.572 81.0698 338.484 81.1498 338.38C81.2378 338.276 81.3018 338.156 81.3418 338.02C81.3818 337.884 81.4018 337.732 81.4018 337.564C81.4018 337.388 81.3818 337.232 81.3418 337.096C81.3018 336.96 81.2378 336.844 81.1498 336.748C81.0698 336.644 80.9658 336.56 80.8378 336.496C80.7178 336.424 80.5698 336.372 80.3938 336.34C80.2258 336.308 80.0338 336.292 79.8178 336.292H77.6578V338.836ZM77.6578 335.128H79.6138C80.1418 335.128 80.5338 335.028 80.7898 334.828C81.0538 334.62 81.1858 334.316 81.1858 333.916C81.1858 333.516 81.0538 333.216 80.7898 333.016C80.5338 332.808 80.1418 332.704 79.6138 332.704H77.6578V335.128Z" fill="#808283"/>
<rect x="232.5" y="316" width="1" height="8" fill="#313338"/>
<path d="M224.964 334.708V333.616C224.964 333.344 224.992 333.088 225.048 332.848C225.112 332.608 225.212 332.372 225.348 332.14C225.492 331.908 225.68 331.676 225.912 331.444L226.536 331.936C226.368 332.112 226.232 332.28 226.128 332.44C226.024 332.592 225.948 332.748 225.9 332.908C225.86 333.06 225.84 333.22 225.84 333.388L225.468 333.04H226.644V334.708H224.964ZM228.253 340V338.86L230.989 335.944C231.237 335.68 231.433 335.436 231.577 335.212C231.729 334.988 231.841 334.772 231.913 334.564C231.985 334.356 232.021 334.148 232.021 333.94C232.021 333.54 231.893 333.236 231.637 333.028C231.389 332.82 231.025 332.716 230.545 332.716C230.169 332.716 229.801 332.788 229.441 332.932C229.089 333.068 228.749 333.284 228.421 333.58L227.905 332.428C228.241 332.124 228.661 331.88 229.165 331.696C229.669 331.512 230.193 331.42 230.737 331.42C231.345 331.42 231.857 331.512 232.273 331.696C232.689 331.88 233.005 332.148 233.221 332.5C233.437 332.852 233.545 333.28 233.545 333.784C233.545 334.04 233.513 334.292 233.449 334.54C233.393 334.78 233.301 335.02 233.173 335.26C233.053 335.5 232.897 335.748 232.705 336.004C232.521 336.252 232.297 336.512 232.033 336.784L229.777 339.136V338.728H233.869V340H228.253ZM235.796 340V338.728H237.704V332.836H238.448L236.228 334.18L235.628 333.052L238.148 331.54H239.24V338.728H241.028V340H235.796Z" fill="#808283"/>
<rect x="390.5" y="316" width="1" height="8" fill="#313338"/>
<path d="M382.964 334.708V333.616C382.964 333.344 382.992 333.088 383.048 332.848C383.112 332.608 383.212 332.372 383.348 332.14C383.492 331.908 383.68 331.676 383.912 331.444L384.536 331.936C384.368 332.112 384.232 332.28 384.128 332.44C384.024 332.592 383.948 332.748 383.9 332.908C383.86 333.06 383.84 333.22 383.84 333.388L383.468 333.04H384.644V334.708H382.964ZM386.253 340V338.86L388.989 335.944C389.237 335.68 389.433 335.436 389.577 335.212C389.729 334.988 389.841 334.772 389.913 334.564C389.985 334.356 390.021 334.148 390.021 333.94C390.021 333.54 389.893 333.236 389.637 333.028C389.389 332.82 389.025 332.716 388.545 332.716C388.169 332.716 387.801 332.788 387.441 332.932C387.089 333.068 386.749 333.284 386.421 333.58L385.905 332.428C386.241 332.124 386.661 331.88 387.165 331.696C387.669 331.512 388.193 331.42 388.737 331.42C389.345 331.42 389.857 331.512 390.273 331.696C390.689 331.88 391.005 332.148 391.221 332.5C391.437 332.852 391.545 333.28 391.545 333.784C391.545 334.04 391.513 334.292 391.449 334.54C391.393 334.78 391.301 335.02 391.173 335.26C391.053 335.5 390.897 335.748 390.705 336.004C390.521 336.252 390.297 336.512 390.033 336.784L387.777 339.136V338.728H391.869V340H386.253ZM393.448 340V338.86L396.184 335.944C396.432 335.68 396.628 335.436 396.772 335.212C396.924 334.988 397.036 334.772 397.108 334.564C397.18 334.356 397.216 334.148 397.216 333.94C397.216 333.54 397.088 333.236 396.832 333.028C396.584 332.82 396.22 332.716 395.74 332.716C395.364 332.716 394.996 332.788 394.636 332.932C394.284 333.068 393.944 333.284 393.616 333.58L393.1 332.428C393.436 332.124 393.856 331.88 394.36 331.696C394.864 331.512 395.388 331.42 395.932 331.42C396.54 331.42 397.052 331.512 397.468 331.696C397.884 331.88 398.2 332.148 398.416 332.5C398.632 332.852 398.74 333.28 398.74 333.784C398.74 334.04 398.708 334.292 398.644 334.54C398.588 334.78 398.496 335.02 398.368 335.26C398.248 335.5 398.092 335.748 397.9 336.004C397.716 336.252 397.492 336.512 397.228 336.784L394.972 339.136V338.728H399.064V340H393.448Z" fill="#808283"/>
<rect x="548.5" y="316" width="1" height="8" fill="#313338"/>
<path d="M540.964 334.708V333.616C540.964 333.344 540.992 333.088 541.048 332.848C541.112 332.608 541.212 332.372 541.348 332.14C541.492 331.908 541.68 331.676 541.912 331.444L542.536 331.936C542.368 332.112 542.232 332.28 542.128 332.44C542.024 332.592 541.948 332.748 541.9 332.908C541.86 333.06 541.84 333.22 541.84 333.388L541.468 333.04H542.644V334.708H540.964ZM544.253 340V338.86L546.989 335.944C547.237 335.68 547.433 335.436 547.577 335.212C547.729 334.988 547.841 334.772 547.913 334.564C547.985 334.356 548.021 334.148 548.021 333.94C548.021 333.54 547.893 333.236 547.637 333.028C547.389 332.82 547.025 332.716 546.545 332.716C546.169 332.716 545.801 332.788 545.441 332.932C545.089 333.068 544.749 333.284 544.421 333.58L543.905 332.428C544.241 332.124 544.661 331.88 545.165 331.696C545.669 331.512 546.193 331.42 546.737 331.42C547.345 331.42 547.857 331.512 548.273 331.696C548.689 331.88 549.005 332.148 549.221 332.5C549.437 332.852 549.545 333.28 549.545 333.784C549.545 334.04 549.513 334.292 549.449 334.54C549.393 334.78 549.301 335.02 549.173 335.26C549.053 335.5 548.897 335.748 548.705 336.004C548.521 336.252 548.297 336.512 548.033 336.784L545.777 339.136V338.728H549.869V340H544.253ZM553.92 340.12C553.536 340.12 553.16 340.08 552.792 340C552.432 339.928 552.096 339.82 551.784 339.676C551.472 339.532 551.2 339.36 550.968 339.16L551.472 337.984C551.848 338.272 552.232 338.484 552.624 338.62C553.016 338.756 553.432 338.824 553.872 338.824C554.224 338.824 554.52 338.776 554.76 338.68C555 338.584 555.18 338.44 555.3 338.248C555.428 338.056 555.492 337.824 555.492 337.552C555.492 337.152 555.356 336.856 555.084 336.664C554.82 336.464 554.432 336.364 553.92 336.364H552.564V335.092H553.776C554.08 335.092 554.34 335.044 554.556 334.948C554.772 334.844 554.94 334.7 555.06 334.516C555.18 334.332 555.24 334.108 555.24 333.844C555.24 333.476 555.116 333.196 554.868 333.004C554.628 332.812 554.276 332.716 553.812 332.716C553.396 332.716 553.008 332.788 552.648 332.932C552.288 333.068 551.944 333.284 551.616 333.58L551.112 332.428C551.448 332.108 551.868 331.86 552.372 331.684C552.876 331.508 553.4 331.42 553.944 331.42C554.528 331.42 555.028 331.512 555.444 331.696C555.86 331.872 556.176 332.128 556.392 332.464C556.616 332.792 556.728 333.192 556.728 333.664C556.728 334.168 556.588 334.604 556.308 334.972C556.028 335.332 555.644 335.572 555.156 335.692V335.548C555.54 335.612 555.868 335.74 556.14 335.932C556.412 336.124 556.62 336.368 556.764 336.664C556.908 336.96 556.98 337.3 556.98 337.684C556.98 338.18 556.856 338.612 556.608 338.98C556.36 339.348 556.008 339.632 555.552 339.832C555.096 340.024 554.552 340.12 553.92 340.12Z" fill="#808283"/>
<rect x="706.5" y="316" width="1" height="8" fill="#313338"/>
<path d="M698.964 334.708V333.616C698.964 333.344 698.992 333.088 699.048 332.848C699.112 332.608 699.212 332.372 699.348 332.14C699.492 331.908 699.68 331.676 699.912 331.444L700.536 331.936C700.368 332.112 700.232 332.28 700.128 332.44C700.024 332.592 699.948 332.748 699.9 332.908C699.86 333.06 699.84 333.22 699.84 333.388L699.468 333.04H700.644V334.708H698.964ZM702.253 340V338.86L704.989 335.944C705.237 335.68 705.433 335.436 705.577 335.212C705.729 334.988 705.841 334.772 705.913 334.564C705.985 334.356 706.021 334.148 706.021 333.94C706.021 333.54 705.893 333.236 705.637 333.028C705.389 332.82 705.025 332.716 704.545 332.716C704.169 332.716 703.801 332.788 703.441 332.932C703.089 333.068 702.749 333.284 702.421 333.58L701.905 332.428C702.241 332.124 702.661 331.88 703.165 331.696C703.669 331.512 704.193 331.42 704.737 331.42C705.345 331.42 705.857 331.512 706.273 331.696C706.689 331.88 707.005 332.148 707.221 332.5C707.437 332.852 707.545 333.28 707.545 333.784C707.545 334.04 707.513 334.292 707.449 334.54C707.393 334.78 707.301 335.02 707.173 335.26C707.053 335.5 706.897 335.748 706.705 336.004C706.521 336.252 706.297 336.512 706.033 336.784L703.777 339.136V338.728H707.869V340H702.253ZM712.676 340V338.392H708.992V337.264L712.94 331.54H714.212V337.12H715.4V338.392H714.212V340H712.676ZM712.676 337.12V333.376H713.024L710.192 337.528V337.12H712.676Z" fill="#808283"/>
<rect x="864.5" y="316" width="1" height="8" fill="#313338"/>
<path d="M856.964 334.708V333.616C856.964 333.344 856.992 333.088 857.048 332.848C857.112 332.608 857.212 332.372 857.348 332.14C857.492 331.908 857.68 331.676 857.912 331.444L858.536 331.936C858.368 332.112 858.232 332.28 858.128 332.44C858.024 332.592 857.948 332.748 857.9 332.908C857.86 333.06 857.84 333.22 857.84 333.388L857.468 333.04H858.644V334.708H856.964ZM860.253 340V338.86L862.989 335.944C863.237 335.68 863.433 335.436 863.577 335.212C863.729 334.988 863.841 334.772 863.913 334.564C863.985 334.356 864.021 334.148 864.021 333.94C864.021 333.54 863.893 333.236 863.637 333.028C863.389 332.82 863.025 332.716 862.545 332.716C862.169 332.716 861.801 332.788 861.441 332.932C861.089 333.068 860.749 333.284 860.421 333.58L859.905 332.428C860.241 332.124 860.661 331.88 861.165 331.696C861.669 331.512 862.193 331.42 862.737 331.42C863.345 331.42 863.857 331.512 864.273 331.696C864.689 331.88 865.005 332.148 865.221 332.5C865.437 332.852 865.545 333.28 865.545 333.784C865.545 334.04 865.513 334.292 865.449 334.54C865.393 334.78 865.301 335.02 865.173 335.26C865.053 335.5 864.897 335.748 864.705 336.004C864.521 336.252 864.297 336.512 864.033 336.784L861.777 339.136V338.728H865.869V340H860.253ZM870.16 340.12C869.792 340.12 869.428 340.08 869.068 340C868.716 339.92 868.384 339.808 868.072 339.664C867.768 339.52 867.504 339.352 867.28 339.16L867.784 337.984C868.152 338.264 868.532 338.476 868.924 338.62C869.316 338.756 869.72 338.824 870.136 338.824C870.64 338.824 871.032 338.696 871.312 338.44C871.6 338.176 871.744 337.824 871.744 337.384C871.744 336.936 871.608 336.576 871.336 336.304C871.064 336.024 870.692 335.884 870.22 335.884C869.876 335.884 869.568 335.952 869.296 336.088C869.024 336.216 868.776 336.416 868.552 336.688H867.52V331.54H872.716V332.812H869.02V335.5H868.624C868.832 335.22 869.104 335.004 869.44 334.852C869.784 334.7 870.164 334.624 870.58 334.624C871.116 334.624 871.58 334.74 871.972 334.972C872.372 335.196 872.68 335.512 872.896 335.92C873.12 336.32 873.232 336.788 873.232 337.324C873.232 337.876 873.108 338.364 872.86 338.788C872.612 339.204 872.256 339.532 871.792 339.772C871.336 340.004 870.792 340.12 870.16 340.12Z" fill="#808283"/>
<rect x="954" width="48" height="20" rx="4" fill="#6AA5FF"/>
<path d="M959.477 14V5.54H963.353C964.257 5.54 964.953 5.736 965.441 6.128C965.937 6.52 966.185 7.056 966.185 7.736C966.185 8.24 966.041 8.668 965.753 9.02C965.465 9.372 965.069 9.608 964.565 9.728V9.536C964.957 9.6 965.289 9.724 965.561 9.908C965.833 10.092 966.041 10.328 966.185 10.616C966.337 10.904 966.413 11.236 966.413 11.612C966.413 12.108 966.293 12.536 966.053 12.896C965.821 13.256 965.485 13.532 965.045 13.724C964.613 13.908 964.093 14 963.485 14H959.477ZM961.253 12.62H963.233C963.425 12.62 963.597 12.604 963.749 12.572C963.901 12.54 964.029 12.496 964.133 12.44C964.245 12.384 964.337 12.312 964.409 12.224C964.481 12.128 964.533 12.02 964.565 11.9C964.605 11.78 964.625 11.648 964.625 11.504C964.625 11.352 964.605 11.22 964.565 11.108C964.533 10.988 964.481 10.884 964.409 10.796C964.337 10.708 964.245 10.636 964.133 10.58C964.029 10.516 963.901 10.472 963.749 10.448C963.597 10.416 963.425 10.4 963.233 10.4H961.253V12.62ZM961.253 9.02H963.029C963.493 9.02 963.837 8.932 964.061 8.756C964.285 8.58 964.397 8.316 964.397 7.964C964.397 7.62 964.285 7.36 964.061 7.184C963.837 7.008 963.493 6.92 963.029 6.92H961.253V9.02ZM967.593 6.968V5.276H969.549V6.968H967.593ZM967.665 14V8.108H969.477V14H967.665ZM973.768 14.132C972.928 14.132 972.304 13.928 971.896 13.52C971.488 13.112 971.284 12.512 971.284 11.72V9.464H970.168V8.108H971.284V6.38H973.096V8.108H974.836V9.464H973.096V11.648C973.096 11.984 973.172 12.236 973.324 12.404C973.484 12.572 973.736 12.656 974.08 12.656C974.184 12.656 974.292 12.644 974.404 12.62C974.524 12.596 974.652 12.564 974.788 12.524L975.052 13.844C974.884 13.932 974.684 14 974.452 14.048C974.22 14.104 973.992 14.132 973.768 14.132ZM978.537 14.132C977.897 14.132 977.337 14.008 976.857 13.76C976.385 13.504 976.021 13.144 975.765 12.68C975.509 12.216 975.381 11.668 975.381 11.036C975.381 10.404 975.509 9.86 975.765 9.404C976.021 8.948 976.385 8.6 976.857 8.36C977.337 8.112 977.897 7.988 978.537 7.988C978.921 7.988 979.301 8.044 979.677 8.156C980.061 8.268 980.373 8.428 980.613 8.636L980.109 9.884C979.917 9.724 979.693 9.6 979.437 9.512C979.181 9.416 978.941 9.368 978.717 9.368C978.245 9.368 977.877 9.516 977.613 9.812C977.357 10.1 977.229 10.512 977.229 11.048C977.229 11.576 977.357 11.992 977.613 12.296C977.877 12.592 978.245 12.74 978.717 12.74C978.941 12.74 979.181 12.696 979.437 12.608C979.693 12.52 979.917 12.392 980.109 12.224L980.613 13.472C980.373 13.672 980.061 13.832 979.677 13.952C979.293 14.072 978.913 14.132 978.537 14.132ZM984.114 14.132C983.482 14.132 982.93 14.008 982.458 13.76C981.994 13.512 981.634 13.156 981.378 12.692C981.122 12.228 980.994 11.68 980.994 11.048C980.994 10.416 981.122 9.872 981.378 9.416C981.634 8.96 981.994 8.608 982.458 8.36C982.93 8.112 983.482 7.988 984.114 7.988C984.746 7.988 985.294 8.112 985.758 8.36C986.23 8.608 986.594 8.964 986.85 9.428C987.114 9.884 987.246 10.424 987.246 11.048C987.246 11.68 987.114 12.228 986.85 12.692C986.594 13.156 986.23 13.512 985.758 13.76C985.294 14.008 984.746 14.132 984.114 14.132ZM984.114 12.776C984.506 12.776 984.822 12.636 985.062 12.356C985.302 12.068 985.422 11.632 985.422 11.048C985.422 10.464 985.302 10.036 985.062 9.764C984.822 9.484 984.506 9.344 984.114 9.344C983.73 9.344 983.418 9.484 983.178 9.764C982.938 10.036 982.818 10.464 982.818 11.048C982.818 11.632 982.938 12.068 983.178 12.356C983.418 12.636 983.73 12.776 984.114 12.776ZM988.276 6.968V5.276H990.232V6.968H988.276ZM988.348 14V8.108H990.16V14H988.348ZM991.559 14V8.108H993.335V9.212H993.203C993.387 8.82 993.659 8.52 994.019 8.312C994.387 8.096 994.803 7.988 995.267 7.988C995.739 7.988 996.127 8.08 996.431 8.264C996.735 8.44 996.963 8.712 997.115 9.08C997.267 9.44 997.343 9.9 997.343 10.46V14H995.531V10.544C995.531 10.272 995.495 10.052 995.423 9.884C995.359 9.708 995.259 9.584 995.123 9.512C994.995 9.432 994.831 9.392 994.631 9.392C994.375 9.392 994.151 9.448 993.959 9.56C993.775 9.664 993.631 9.816 993.527 10.016C993.423 10.216 993.371 10.448 993.371 10.712V14H991.559Z" fill="white"/>
<rect x="1003" width="52" height="20" rx="4" fill="#6AA5FF"/>
<path d="M1011.58 14.132C1010.86 14.132 1010.24 13.964 1009.74 13.628C1009.24 13.292 1008.85 12.808 1008.59 12.176C1008.32 11.544 1008.19 10.78 1008.19 9.884C1008.19 8.94 1008.34 8.136 1008.64 7.472C1008.94 6.8 1009.37 6.288 1009.93 5.936C1010.5 5.584 1011.17 5.408 1011.95 5.408C1012.25 5.408 1012.56 5.444 1012.86 5.516C1013.16 5.588 1013.45 5.692 1013.72 5.828C1014 5.964 1014.24 6.128 1014.47 6.32L1013.87 7.7C1013.58 7.452 1013.27 7.268 1012.93 7.148C1012.6 7.02 1012.27 6.956 1011.92 6.956C1011.6 6.956 1011.32 7.012 1011.07 7.124C1010.83 7.236 1010.63 7.4 1010.46 7.616C1010.29 7.832 1010.16 8.1 1010.08 8.42C1010 8.74 1009.96 9.112 1009.96 9.536V10.316H1009.79C1009.86 9.932 1009.99 9.608 1010.18 9.344C1010.38 9.072 1010.64 8.864 1010.94 8.72C1011.24 8.576 1011.58 8.504 1011.95 8.504C1012.43 8.504 1012.86 8.624 1013.23 8.864C1013.61 9.096 1013.9 9.42 1014.11 9.836C1014.32 10.244 1014.43 10.712 1014.43 11.24C1014.43 11.8 1014.31 12.3 1014.07 12.74C1013.83 13.172 1013.5 13.512 1013.06 13.76C1012.64 14.008 1012.14 14.132 1011.58 14.132ZM1011.48 12.68C1011.73 12.68 1011.94 12.624 1012.13 12.512C1012.32 12.4 1012.46 12.24 1012.56 12.032C1012.66 11.824 1012.72 11.584 1012.72 11.312C1012.72 11.04 1012.66 10.804 1012.56 10.604C1012.46 10.396 1012.32 10.236 1012.13 10.124C1011.94 10.004 1011.73 9.944 1011.48 9.944C1011.23 9.944 1011.01 10.004 1010.82 10.124C1010.64 10.236 1010.49 10.396 1010.39 10.604C1010.28 10.804 1010.23 11.04 1010.23 11.312C1010.23 11.584 1010.28 11.824 1010.39 12.032C1010.49 12.24 1010.64 12.4 1010.82 12.512C1011.01 12.624 1011.23 12.68 1011.48 12.68ZM1018.45 14.132C1017.77 14.132 1017.19 13.96 1016.72 13.616C1016.26 13.272 1015.9 12.776 1015.65 12.128C1015.41 11.48 1015.29 10.684 1015.29 9.74C1015.29 8.804 1015.41 8.016 1015.65 7.376C1015.89 6.728 1016.25 6.24 1016.72 5.912C1017.19 5.576 1017.77 5.408 1018.45 5.408C1019.14 5.408 1019.71 5.576 1020.18 5.912C1020.65 6.24 1021 6.724 1021.24 7.364C1021.48 8.004 1021.6 8.796 1021.6 9.74C1021.6 10.676 1021.48 11.472 1021.23 12.128C1020.99 12.776 1020.64 13.272 1020.18 13.616C1019.71 13.96 1019.14 14.132 1018.45 14.132ZM1018.45 12.62C1018.91 12.62 1019.26 12.392 1019.48 11.936C1019.7 11.472 1019.82 10.74 1019.82 9.74C1019.82 8.74 1019.7 8.02 1019.48 7.58C1019.26 7.14 1018.92 6.92 1018.45 6.92C1017.98 6.92 1017.64 7.14 1017.42 7.58C1017.19 8.02 1017.08 8.74 1017.08 9.74C1017.08 10.74 1017.19 11.472 1017.42 11.936C1017.64 12.392 1017.98 12.62 1018.45 12.62ZM1022.63 14V12.08H1024.57V14H1022.63ZM1029.08 14.132C1028.36 14.132 1027.75 13.964 1027.25 13.628C1026.74 13.292 1026.36 12.808 1026.1 12.176C1025.83 11.544 1025.7 10.78 1025.7 9.884C1025.7 8.94 1025.85 8.136 1026.14 7.472C1026.45 6.8 1026.88 6.288 1027.44 5.936C1028.01 5.584 1028.68 5.408 1029.46 5.408C1029.76 5.408 1030.06 5.444 1030.37 5.516C1030.67 5.588 1030.96 5.692 1031.23 5.828C1031.5 5.964 1031.75 6.128 1031.98 6.32L1031.38 7.7C1031.09 7.452 1030.78 7.268 1030.44 7.148C1030.11 7.02 1029.78 6.956 1029.43 6.956C1029.11 6.956 1028.83 7.012 1028.58 7.124C1028.34 7.236 1028.14 7.4 1027.97 7.616C1027.8 7.832 1027.67 8.1 1027.58 8.42C1027.5 8.74 1027.46 9.112 1027.46 9.536V10.316H1027.3C1027.37 9.932 1027.5 9.608 1027.69 9.344C1027.89 9.072 1028.14 8.864 1028.45 8.72C1028.75 8.576 1029.09 8.504 1029.46 8.504C1029.94 8.504 1030.36 8.624 1030.74 8.864C1031.12 9.096 1031.41 9.42 1031.62 9.836C1031.83 10.244 1031.94 10.712 1031.94 11.24C1031.94 11.8 1031.82 12.3 1031.58 12.74C1031.34 13.172 1031 13.512 1030.57 13.76C1030.15 14.008 1029.65 14.132 1029.08 14.132ZM1028.99 12.68C1029.24 12.68 1029.45 12.624 1029.64 12.512C1029.83 12.4 1029.97 12.24 1030.07 12.032C1030.17 11.824 1030.22 11.584 1030.22 11.312C1030.22 11.04 1030.17 10.804 1030.07 10.604C1029.97 10.396 1029.83 10.236 1029.64 10.124C1029.45 10.004 1029.24 9.944 1028.99 9.944C1028.74 9.944 1028.52 10.004 1028.33 10.124C1028.14 10.236 1028 10.396 1027.9 10.604C1027.79 10.804 1027.74 11.04 1027.74 11.312C1027.74 11.584 1027.79 11.824 1027.9 12.032C1028 12.24 1028.14 12.4 1028.33 12.512C1028.52 12.624 1028.74 12.68 1028.99 12.68ZM1033.56 14V12.476H1035.45V7.1H1036.33L1034 8.468L1033.29 7.112L1035.99 5.54H1037.31V12.476H1039.09V14H1033.56ZM1043.4 14.36L1042.24 13.676L1047.16 5.18L1048.31 5.864L1043.4 14.36ZM1042.19 10.58C1041.73 10.58 1041.33 10.476 1041 10.268C1040.67 10.052 1040.42 9.752 1040.25 9.368C1040.08 8.976 1039.99 8.516 1039.99 7.988C1039.99 7.196 1040.19 6.568 1040.57 6.104C1040.96 5.64 1041.5 5.408 1042.19 5.408C1042.65 5.408 1043.04 5.516 1043.37 5.732C1043.7 5.94 1043.95 6.236 1044.12 6.62C1044.3 7.004 1044.39 7.46 1044.39 7.988C1044.39 8.516 1044.3 8.976 1044.12 9.368C1043.95 9.752 1043.71 10.052 1043.38 10.268C1043.05 10.476 1042.65 10.58 1042.19 10.58ZM1042.19 9.428C1042.43 9.428 1042.61 9.316 1042.74 9.092C1042.87 8.86 1042.93 8.492 1042.93 7.988C1042.93 7.484 1042.87 7.124 1042.73 6.908C1042.6 6.684 1042.42 6.572 1042.19 6.572C1041.95 6.572 1041.77 6.68 1041.64 6.896C1041.51 7.112 1041.45 7.476 1041.45 7.988C1041.45 8.5 1041.51 8.868 1041.64 9.092C1041.77 9.316 1041.95 9.428 1042.19 9.428ZM1048.37 14.132C1047.91 14.132 1047.51 14.028 1047.18 13.82C1046.85 13.604 1046.6 13.3 1046.43 12.908C1046.26 12.516 1046.17 12.056 1046.17 11.528C1046.17 10.736 1046.37 10.112 1046.75 9.656C1047.14 9.192 1047.68 8.96 1048.37 8.96C1048.83 8.96 1049.23 9.064 1049.56 9.272C1049.89 9.48 1050.13 9.776 1050.3 10.16C1050.48 10.544 1050.57 11 1050.57 11.528C1050.57 12.056 1050.48 12.516 1050.3 12.908C1050.13 13.3 1049.89 13.604 1049.56 13.82C1049.23 14.028 1048.83 14.132 1048.37 14.132ZM1048.37 12.968C1048.61 12.968 1048.79 12.856 1048.92 12.632C1049.05 12.4 1049.11 12.032 1049.11 11.528C1049.11 11.024 1049.05 10.664 1048.91 10.448C1048.78 10.224 1048.6 10.112 1048.37 10.112C1048.13 10.112 1047.95 10.22 1047.82 10.436C1047.69 10.652 1047.63 11.016 1047.63 11.528C1047.63 12.048 1047.69 12.42 1047.82 12.644C1047.95 12.86 1048.13 12.968 1048.37 12.968Z" fill="white"/>
<rect x="940" y="205" width="63" height="20" rx="4" fill="#EF454A"/>
<path d="M944.903 219V210.54H950.699V211.992H946.679V213.972H950.435V215.436H946.679V217.548H950.699V219H944.903ZM954.846 219.132C954.006 219.132 953.382 218.928 952.974 218.52C952.566 218.112 952.362 217.512 952.362 216.72V214.464H951.246V213.108H952.362V211.38H954.174V213.108H955.914V214.464H954.174V216.648C954.174 216.984 954.25 217.236 954.402 217.404C954.562 217.572 954.814 217.656 955.158 217.656C955.262 217.656 955.37 217.644 955.482 217.62C955.602 217.596 955.73 217.564 955.866 217.524L956.13 218.844C955.962 218.932 955.762 219 955.53 219.048C955.298 219.104 955.07 219.132 954.846 219.132ZM956.805 219V210.54H958.617V214.212H958.449C958.633 213.82 958.905 213.52 959.265 213.312C959.633 213.096 960.049 212.988 960.513 212.988C960.985 212.988 961.373 213.08 961.677 213.264C961.981 213.44 962.209 213.712 962.361 214.08C962.513 214.44 962.589 214.9 962.589 215.46V219H960.777V215.544C960.777 215.272 960.741 215.052 960.669 214.884C960.605 214.708 960.505 214.584 960.369 214.512C960.241 214.432 960.077 214.392 959.877 214.392C959.621 214.392 959.397 214.448 959.205 214.56C959.021 214.664 958.877 214.816 958.773 215.016C958.669 215.216 958.617 215.448 958.617 215.712V219H956.805ZM967.002 219.132C966.306 219.132 965.706 219.008 965.202 218.76C964.706 218.504 964.322 218.148 964.05 217.692C963.786 217.228 963.654 216.684 963.654 216.06C963.654 215.452 963.782 214.92 964.038 214.464C964.294 214 964.65 213.64 965.106 213.384C965.57 213.12 966.094 212.988 966.678 212.988C967.254 212.988 967.75 213.112 968.166 213.36C968.582 213.6 968.902 213.944 969.126 214.392C969.358 214.84 969.474 215.372 969.474 215.988V216.444H965.142V215.508H968.166L967.974 215.676C967.974 215.188 967.866 214.82 967.65 214.572C967.442 214.316 967.142 214.188 966.75 214.188C966.454 214.188 966.202 214.256 965.994 214.392C965.786 214.528 965.626 214.724 965.514 214.98C965.402 215.236 965.346 215.544 965.346 215.904V216C965.346 216.408 965.406 216.744 965.526 217.008C965.654 217.264 965.842 217.456 966.09 217.584C966.346 217.712 966.662 217.776 967.038 217.776C967.358 217.776 967.682 217.728 968.01 217.632C968.338 217.536 968.634 217.388 968.898 217.188L969.378 218.4C969.082 218.624 968.718 218.804 968.286 218.94C967.862 219.068 967.434 219.132 967.002 219.132ZM970.528 219V213.108H972.304V214.548H972.184C972.28 214.068 972.488 213.7 972.808 213.444C973.136 213.18 973.568 213.028 974.104 212.988L974.632 212.952L974.74 214.476L973.72 214.584C973.264 214.624 972.924 214.756 972.7 214.98C972.484 215.204 972.376 215.528 972.376 215.952V219H970.528ZM978.428 219.132C977.732 219.132 977.132 219.008 976.628 218.76C976.132 218.504 975.748 218.148 975.476 217.692C975.212 217.228 975.08 216.684 975.08 216.06C975.08 215.452 975.208 214.92 975.464 214.464C975.72 214 976.076 213.64 976.532 213.384C976.996 213.12 977.52 212.988 978.104 212.988C978.68 212.988 979.176 213.112 979.592 213.36C980.008 213.6 980.328 213.944 980.552 214.392C980.784 214.84 980.9 215.372 980.9 215.988V216.444H976.568V215.508H979.592L979.4 215.676C979.4 215.188 979.292 214.82 979.076 214.572C978.868 214.316 978.568 214.188 978.176 214.188C977.88 214.188 977.628 214.256 977.42 214.392C977.212 214.528 977.052 214.724 976.94 214.98C976.828 215.236 976.772 215.544 976.772 215.904V216C976.772 216.408 976.832 216.744 976.952 217.008C977.08 217.264 977.268 217.456 977.516 217.584C977.772 217.712 978.088 217.776 978.464 217.776C978.784 217.776 979.108 217.728 979.436 217.632C979.764 217.536 980.06 217.388 980.324 217.188L980.804 218.4C980.508 218.624 980.144 218.804 979.712 218.94C979.288 219.068 978.86 219.132 978.428 219.132ZM984.126 219.132C983.63 219.132 983.218 219.04 982.89 218.856C982.562 218.672 982.318 218.396 982.158 218.028C982.006 217.652 981.93 217.188 981.93 216.636V213.108H983.742V216.684C983.742 216.916 983.774 217.112 983.838 217.272C983.902 217.424 983.998 217.54 984.126 217.62C984.262 217.692 984.434 217.728 984.642 217.728C984.874 217.728 985.078 217.676 985.254 217.572C985.43 217.46 985.566 217.304 985.662 217.104C985.766 216.904 985.818 216.668 985.818 216.396V213.108H987.63V219H985.866V217.848H986.046C985.87 218.256 985.618 218.572 985.29 218.796C984.962 219.02 984.574 219.132 984.126 219.132ZM989.056 219V213.108H990.832V214.212H990.7C990.804 213.964 990.948 213.748 991.132 213.564C991.316 213.38 991.536 213.24 991.792 213.144C992.048 213.04 992.328 212.988 992.632 212.988C993.088 212.988 993.468 213.096 993.772 213.312C994.076 213.528 994.292 213.86 994.42 214.308H994.252C994.428 213.9 994.696 213.58 995.056 213.348C995.424 213.108 995.844 212.988 996.316 212.988C996.772 212.988 997.144 213.08 997.432 213.264C997.728 213.44 997.948 213.712 998.092 214.08C998.236 214.44 998.308 214.9 998.308 215.46V219H996.496V215.52C996.496 215.128 996.432 214.844 996.304 214.668C996.184 214.484 995.976 214.392 995.68 214.392C995.456 214.392 995.26 214.448 995.092 214.56C994.924 214.664 994.796 214.82 994.708 215.028C994.628 215.228 994.588 215.476 994.588 215.772V219H992.776V215.52C992.776 215.128 992.712 214.844 992.584 214.668C992.464 214.484 992.256 214.392 991.96 214.392C991.728 214.392 991.532 214.448 991.372 214.56C991.212 214.664 991.088 214.82 991 215.028C990.912 215.228 990.868 215.476 990.868 215.772V219H989.056Z" fill="white"/>
<rect x="1003" y="205" width="52" height="20" rx="4" fill="#EF454A"/>
<path d="M1008.85 219V217.476H1010.75V212.1H1011.62L1009.3 213.468L1008.59 212.112L1011.29 210.54H1012.61V217.476H1014.38V219H1008.85ZM1018.45 219.132C1017.77 219.132 1017.19 218.96 1016.72 218.616C1016.26 218.272 1015.9 217.776 1015.65 217.128C1015.41 216.48 1015.29 215.684 1015.29 214.74C1015.29 213.804 1015.41 213.016 1015.65 212.376C1015.89 211.728 1016.25 211.24 1016.72 210.912C1017.19 210.576 1017.77 210.408 1018.45 210.408C1019.14 210.408 1019.71 210.576 1020.18 210.912C1020.65 211.24 1021 211.724 1021.24 212.364C1021.48 213.004 1021.6 213.796 1021.6 214.74C1021.6 215.676 1021.48 216.472 1021.23 217.128C1020.99 217.776 1020.64 218.272 1020.18 218.616C1019.71 218.96 1019.14 219.132 1018.45 219.132ZM1018.45 217.62C1018.91 217.62 1019.26 217.392 1019.48 216.936C1019.7 216.472 1019.82 215.74 1019.82 214.74C1019.82 213.74 1019.7 213.02 1019.48 212.58C1019.26 212.14 1018.92 211.92 1018.45 211.92C1017.98 211.92 1017.64 212.14 1017.42 212.58C1017.19 213.02 1017.08 213.74 1017.08 214.74C1017.08 215.74 1017.19 216.472 1017.42 216.936C1017.64 217.392 1017.98 217.62 1018.45 217.62ZM1022.63 219V217.08H1024.57V219H1022.63ZM1026.05 219V217.62L1028.7 214.836C1028.92 214.588 1029.1 214.364 1029.24 214.164C1029.38 213.964 1029.49 213.772 1029.55 213.588C1029.62 213.404 1029.65 213.22 1029.65 213.036C1029.65 212.684 1029.53 212.416 1029.3 212.232C1029.08 212.048 1028.75 211.956 1028.32 211.956C1027.97 211.956 1027.63 212.024 1027.28 212.16C1026.94 212.288 1026.6 212.488 1026.28 212.76L1025.68 211.392C1026.03 211.088 1026.46 210.848 1026.97 210.672C1027.49 210.496 1028.02 210.408 1028.57 210.408C1029.2 210.408 1029.73 210.504 1030.16 210.696C1030.6 210.88 1030.92 211.152 1031.15 211.512C1031.37 211.872 1031.48 212.312 1031.48 212.832C1031.48 213.088 1031.46 213.34 1031.4 213.588C1031.34 213.828 1031.25 214.068 1031.12 214.308C1031 214.54 1030.85 214.784 1030.66 215.04C1030.47 215.288 1030.24 215.548 1029.97 215.82L1027.87 217.956V217.476H1031.8V219H1026.05ZM1035.75 219.132C1035.36 219.132 1034.98 219.092 1034.6 219.012C1034.22 218.94 1033.88 218.836 1033.56 218.7C1033.24 218.556 1032.97 218.388 1032.74 218.196L1033.33 216.792C1033.7 217.056 1034.07 217.256 1034.46 217.392C1034.85 217.52 1035.26 217.584 1035.68 217.584C1036 217.584 1036.27 217.544 1036.48 217.464C1036.7 217.376 1036.86 217.252 1036.98 217.092C1037.09 216.932 1037.14 216.732 1037.14 216.492C1037.14 216.156 1037.03 215.904 1036.8 215.736C1036.56 215.568 1036.22 215.484 1035.78 215.484H1034.36V213.984H1035.6C1035.87 213.984 1036.1 213.944 1036.28 213.864C1036.47 213.776 1036.62 213.656 1036.72 213.504C1036.84 213.352 1036.89 213.164 1036.89 212.94C1036.89 212.62 1036.78 212.376 1036.56 212.208C1036.34 212.04 1036.02 211.956 1035.61 211.956C1035.21 211.956 1034.83 212.024 1034.48 212.16C1034.13 212.288 1033.79 212.488 1033.47 212.76L1032.88 211.392C1033.24 211.08 1033.67 210.84 1034.18 210.672C1034.69 210.496 1035.22 210.408 1035.78 210.408C1036.38 210.408 1036.9 210.5 1037.34 210.684C1037.77 210.868 1038.1 211.132 1038.33 211.476C1038.56 211.812 1038.68 212.22 1038.68 212.7C1038.68 213.196 1038.54 213.624 1038.26 213.984C1037.99 214.336 1037.61 214.572 1037.12 214.692V214.536C1037.5 214.6 1037.83 214.728 1038.09 214.92C1038.36 215.112 1038.57 215.356 1038.72 215.652C1038.86 215.948 1038.93 216.284 1038.93 216.66C1038.93 217.164 1038.8 217.604 1038.55 217.98C1038.29 218.348 1037.92 218.632 1037.44 218.832C1036.97 219.032 1036.41 219.132 1035.75 219.132ZM1043.4 219.36L1042.24 218.676L1047.16 210.18L1048.31 210.864L1043.4 219.36ZM1042.19 215.58C1041.73 215.58 1041.33 215.476 1041 215.268C1040.67 215.052 1040.42 214.752 1040.25 214.368C1040.08 213.976 1039.99 213.516 1039.99 212.988C1039.99 212.196 1040.19 211.568 1040.57 211.104C1040.96 210.64 1041.5 210.408 1042.19 210.408C1042.65 210.408 1043.04 210.516 1043.37 210.732C1043.7 210.94 1043.95 211.236 1044.12 211.62C1044.3 212.004 1044.39 212.46 1044.39 212.988C1044.39 213.516 1044.3 213.976 1044.12 214.368C1043.95 214.752 1043.71 215.052 1043.38 215.268C1043.05 215.476 1042.65 215.58 1042.19 215.58ZM1042.19 214.428C1042.43 214.428 1042.61 214.316 1042.74 214.092C1042.87 213.86 1042.93 213.492 1042.93 212.988C1042.93 212.484 1042.87 212.124 1042.73 211.908C1042.6 211.684 1042.42 211.572 1042.19 211.572C1041.95 211.572 1041.77 211.68 1041.64 211.896C1041.51 212.112 1041.45 212.476 1041.45 212.988C1041.45 213.5 1041.51 213.868 1041.64 214.092C1041.77 214.316 1041.95 214.428 1042.19 214.428ZM1048.37 219.132C1047.91 219.132 1047.51 219.028 1047.18 218.82C1046.85 218.604 1046.6 218.3 1046.43 217.908C1046.26 217.516 1046.17 217.056 1046.17 216.528C1046.17 215.736 1046.37 215.112 1046.75 214.656C1047.14 214.192 1047.68 213.96 1048.37 213.96C1048.83 213.96 1049.23 214.064 1049.56 214.272C1049.89 214.48 1050.13 214.776 1050.3 215.16C1050.48 215.544 1050.57 216 1050.57 216.528C1050.57 217.056 1050.48 217.516 1050.3 217.908C1050.13 218.3 1049.89 218.604 1049.56 218.82C1049.23 219.028 1048.83 219.132 1048.37 219.132ZM1048.37 217.968C1048.61 217.968 1048.79 217.856 1048.92 217.632C1049.05 217.4 1049.11 217.032 1049.11 216.528C1049.11 216.024 1049.05 215.664 1048.91 215.448C1048.78 215.224 1048.6 215.112 1048.37 215.112C1048.13 215.112 1047.95 215.22 1047.82 215.436C1047.69 215.652 1047.63 216.016 1047.63 216.528C1047.63 217.048 1047.69 217.42 1047.82 217.644C1047.95 217.86 1048.13 217.968 1048.37 217.968Z" fill="white"/>
<rect x="963" y="227" width="47" height="20" rx="4" fill="#6AFF9C"/>
<path d="M971.858 241.132C971.234 241.132 970.662 241.028 970.142 240.82C969.63 240.612 969.19 240.316 968.822 239.932C968.454 239.548 968.17 239.088 967.97 238.552C967.778 238.016 967.682 237.42 967.682 236.764C967.682 236.1 967.778 235.504 967.97 234.976C968.17 234.44 968.454 233.984 968.822 233.608C969.19 233.224 969.63 232.928 970.142 232.72C970.662 232.512 971.234 232.408 971.858 232.408C972.49 232.408 973.062 232.512 973.574 232.72C974.086 232.928 974.526 233.22 974.894 233.596C975.262 233.972 975.546 234.428 975.746 234.964C975.946 235.5 976.046 236.096 976.046 236.752C976.046 237.416 975.946 238.016 975.746 238.552C975.546 239.088 975.262 239.548 974.894 239.932C974.526 240.316 974.086 240.612 973.574 240.82C973.062 241.028 972.49 241.132 971.858 241.132ZM971.858 239.548C972.338 239.548 972.742 239.44 973.07 239.224C973.398 239 973.65 238.68 973.826 238.264C974.01 237.84 974.102 237.34 974.102 236.764C974.102 236.18 974.014 235.68 973.838 235.264C973.662 234.848 973.406 234.532 973.07 234.316C972.734 234.1 972.33 233.992 971.858 233.992C971.394 233.992 970.994 234.1 970.658 234.316C970.322 234.532 970.066 234.848 969.89 235.264C969.714 235.68 969.626 236.18 969.626 236.764C969.626 237.34 969.714 237.84 969.89 238.264C970.066 238.68 970.322 239 970.658 239.224C970.994 239.44 971.394 239.548 971.858 239.548ZM980.221 241.132C979.381 241.132 978.757 240.928 978.349 240.52C977.941 240.112 977.737 239.512 977.737 238.72V236.464H976.621V235.108H977.737V233.38H979.549V235.108H981.289V236.464H979.549V238.648C979.549 238.984 979.625 239.236 979.777 239.404C979.937 239.572 980.189 239.656 980.533 239.656C980.637 239.656 980.745 239.644 980.857 239.62C980.977 239.596 981.105 239.564 981.241 239.524L981.505 240.844C981.337 240.932 981.137 241 980.905 241.048C980.673 241.104 980.445 241.132 980.221 241.132ZM982.18 241V232.54H983.992V236.212H983.824C984.008 235.82 984.28 235.52 984.64 235.312C985.008 235.096 985.424 234.988 985.888 234.988C986.36 234.988 986.748 235.08 987.052 235.264C987.356 235.44 987.584 235.712 987.736 236.08C987.888 236.44 987.964 236.9 987.964 237.46V241H986.152V237.544C986.152 237.272 986.116 237.052 986.044 236.884C985.98 236.708 985.88 236.584 985.744 236.512C985.616 236.432 985.452 236.392 985.252 236.392C984.996 236.392 984.772 236.448 984.58 236.56C984.396 236.664 984.252 236.816 984.148 237.016C984.044 237.216 983.992 237.448 983.992 237.712V241H982.18ZM992.377 241.132C991.681 241.132 991.081 241.008 990.577 240.76C990.081 240.504 989.697 240.148 989.425 239.692C989.161 239.228 989.029 238.684 989.029 238.06C989.029 237.452 989.157 236.92 989.413 236.464C989.669 236 990.025 235.64 990.481 235.384C990.945 235.12 991.469 234.988 992.053 234.988C992.629 234.988 993.125 235.112 993.541 235.36C993.957 235.6 994.277 235.944 994.501 236.392C994.733 236.84 994.849 237.372 994.849 237.988V238.444H990.517V237.508H993.541L993.349 237.676C993.349 237.188 993.241 236.82 993.025 236.572C992.817 236.316 992.517 236.188 992.125 236.188C991.829 236.188 991.577 236.256 991.369 236.392C991.161 236.528 991.001 236.724 990.889 236.98C990.777 237.236 990.721 237.544 990.721 237.904V238C990.721 238.408 990.781 238.744 990.901 239.008C991.029 239.264 991.217 239.456 991.465 239.584C991.721 239.712 992.037 239.776 992.413 239.776C992.733 239.776 993.057 239.728 993.385 239.632C993.713 239.536 994.009 239.388 994.273 239.188L994.753 240.4C994.457 240.624 994.093 240.804 993.661 240.94C993.237 241.068 992.809 241.132 992.377 241.132ZM995.903 241V235.108H997.679V236.548H997.559C997.655 236.068 997.863 235.7 998.183 235.444C998.511 235.18 998.943 235.028 999.479 234.988L1000.01 234.952L1000.12 236.476L999.095 236.584C998.639 236.624 998.299 236.756 998.075 236.98C997.859 237.204 997.751 237.528 997.751 237.952V241H995.903ZM1003.05 241.132C1002.7 241.132 1002.37 241.104 1002.05 241.048C1001.73 240.992 1001.44 240.916 1001.17 240.82C1000.91 240.724 1000.68 240.604 1000.48 240.46L1000.91 239.284C1001.11 239.404 1001.33 239.512 1001.56 239.608C1001.8 239.696 1002.05 239.764 1002.3 239.812C1002.56 239.86 1002.81 239.884 1003.06 239.884C1003.4 239.884 1003.65 239.832 1003.8 239.728C1003.96 239.616 1004.04 239.472 1004.04 239.296C1004.04 239.136 1003.99 239.016 1003.89 238.936C1003.78 238.856 1003.63 238.8 1003.43 238.768L1002.17 238.54C1001.67 238.452 1001.29 238.272 1001.02 238C1000.75 237.72 1000.62 237.364 1000.62 236.932C1000.62 236.532 1000.73 236.188 1000.96 235.9C1001.18 235.604 1001.49 235.38 1001.88 235.228C1002.28 235.068 1002.73 234.988 1003.24 234.988C1003.53 234.988 1003.81 235.012 1004.08 235.06C1004.35 235.108 1004.61 235.18 1004.85 235.276C1005.09 235.372 1005.31 235.5 1005.51 235.66L1005.05 236.824C1004.9 236.704 1004.72 236.6 1004.51 236.512C1004.3 236.424 1004.09 236.356 1003.87 236.308C1003.66 236.252 1003.45 236.224 1003.26 236.224C1002.9 236.224 1002.64 236.284 1002.48 236.404C1002.32 236.516 1002.24 236.66 1002.24 236.836C1002.24 236.972 1002.29 237.088 1002.37 237.184C1002.47 237.272 1002.61 237.332 1002.81 237.364L1004.07 237.592C1004.59 237.68 1004.98 237.856 1005.25 238.12C1005.53 238.376 1005.66 238.728 1005.66 239.176C1005.66 239.584 1005.55 239.936 1005.34 240.232C1005.12 240.52 1004.82 240.744 1004.43 240.904C1004.03 241.056 1003.57 241.132 1003.05 241.132Z" fill="white"/>
<rect x="1010" y="227" width="45" height="20" rx="4" fill="#6AFF9C"/>
<path d="M1018.45 241.132C1017.44 241.132 1016.65 240.916 1016.08 240.484C1015.52 240.052 1015.23 239.46 1015.23 238.708C1015.23 238.3 1015.31 237.94 1015.47 237.628C1015.64 237.316 1015.87 237.064 1016.16 236.872C1016.44 236.68 1016.77 236.56 1017.13 236.512V236.824C1016.8 236.752 1016.51 236.62 1016.25 236.428C1016 236.228 1015.8 235.98 1015.65 235.684C1015.52 235.388 1015.45 235.064 1015.45 234.712C1015.45 233.992 1015.72 233.428 1016.25 233.02C1016.8 232.612 1017.53 232.408 1018.45 232.408C1019.38 232.408 1020.11 232.612 1020.64 233.02C1021.19 233.428 1021.46 233.992 1021.46 234.712C1021.46 235.072 1021.39 235.4 1021.24 235.696C1021.11 235.992 1020.91 236.236 1020.66 236.428C1020.41 236.62 1020.12 236.744 1019.79 236.8V236.512C1020.17 236.568 1020.49 236.696 1020.76 236.896C1021.04 237.088 1021.26 237.34 1021.42 237.652C1021.58 237.956 1021.66 238.304 1021.66 238.696C1021.66 239.456 1021.38 240.052 1020.81 240.484C1020.24 240.916 1019.46 241.132 1018.45 241.132ZM1018.45 239.704C1018.94 239.704 1019.32 239.608 1019.58 239.416C1019.83 239.224 1019.96 238.94 1019.96 238.564C1019.96 238.188 1019.83 237.908 1019.58 237.724C1019.32 237.532 1018.94 237.436 1018.45 237.436C1017.95 237.436 1017.58 237.532 1017.32 237.724C1017.06 237.908 1016.94 238.188 1016.94 238.564C1016.94 238.94 1017.06 239.224 1017.32 239.416C1017.58 239.608 1017.95 239.704 1018.45 239.704ZM1018.45 236.008C1018.86 236.008 1019.17 235.912 1019.4 235.72C1019.63 235.52 1019.74 235.252 1019.74 234.916C1019.74 234.58 1019.63 234.316 1019.4 234.124C1019.17 233.932 1018.86 233.836 1018.45 233.836C1018.04 233.836 1017.72 233.932 1017.5 234.124C1017.28 234.316 1017.16 234.58 1017.16 234.916C1017.16 235.252 1017.28 235.52 1017.5 235.72C1017.72 235.912 1018.04 236.008 1018.45 236.008ZM1022.63 241V239.08H1024.57V241H1022.63ZM1028.76 241.132C1027.75 241.132 1026.96 240.916 1026.4 240.484C1025.83 240.052 1025.54 239.46 1025.54 238.708C1025.54 238.3 1025.62 237.94 1025.78 237.628C1025.95 237.316 1026.18 237.064 1026.47 236.872C1026.76 236.68 1027.08 236.56 1027.44 236.512V236.824C1027.11 236.752 1026.82 236.62 1026.56 236.428C1026.31 236.228 1026.11 235.98 1025.96 235.684C1025.83 235.388 1025.76 235.064 1025.76 234.712C1025.76 233.992 1026.03 233.428 1026.56 233.02C1027.11 232.612 1027.84 232.408 1028.76 232.408C1029.69 232.408 1030.42 232.612 1030.96 233.02C1031.5 233.428 1031.77 233.992 1031.77 234.712C1031.77 235.072 1031.7 235.4 1031.56 235.696C1031.42 235.992 1031.22 236.236 1030.97 236.428C1030.72 236.62 1030.43 236.744 1030.1 236.8V236.512C1030.48 236.568 1030.8 236.696 1031.08 236.896C1031.36 237.088 1031.58 237.34 1031.74 237.652C1031.9 237.956 1031.98 238.304 1031.98 238.696C1031.98 239.456 1031.69 240.052 1031.12 240.484C1030.56 240.916 1029.77 241.132 1028.76 241.132ZM1028.76 239.704C1029.26 239.704 1029.63 239.608 1029.89 239.416C1030.14 239.224 1030.27 238.94 1030.27 238.564C1030.27 238.188 1030.14 237.908 1029.89 237.724C1029.63 237.532 1029.26 237.436 1028.76 237.436C1028.26 237.436 1027.89 237.532 1027.63 237.724C1027.38 237.908 1027.25 238.188 1027.25 238.564C1027.25 238.94 1027.38 239.224 1027.63 239.416C1027.89 239.608 1028.26 239.704 1028.76 239.704ZM1028.76 236.008C1029.17 236.008 1029.48 235.912 1029.71 235.72C1029.94 235.52 1030.06 235.252 1030.06 234.916C1030.06 234.58 1029.94 234.316 1029.71 234.124C1029.48 233.932 1029.17 233.836 1028.76 233.836C1028.35 233.836 1028.04 233.932 1027.81 234.124C1027.59 234.316 1027.48 234.58 1027.48 234.916C1027.48 235.252 1027.59 235.52 1027.81 235.72C1028.04 235.912 1028.35 236.008 1028.76 236.008ZM1035.96 241.132C1035.28 241.132 1034.7 240.96 1034.23 240.616C1033.76 240.272 1033.41 239.776 1033.16 239.128C1032.92 238.48 1032.8 237.684 1032.8 236.74C1032.8 235.804 1032.92 235.016 1033.16 234.376C1033.4 233.728 1033.76 233.24 1034.23 232.912C1034.7 232.576 1035.28 232.408 1035.96 232.408C1036.64 232.408 1037.22 232.576 1037.68 232.912C1038.16 233.24 1038.51 233.724 1038.75 234.364C1038.99 235.004 1039.11 235.796 1039.11 236.74C1039.11 237.676 1038.99 238.472 1038.74 239.128C1038.5 239.776 1038.15 240.272 1037.68 240.616C1037.22 240.96 1036.64 241.132 1035.96 241.132ZM1035.96 239.62C1036.42 239.62 1036.76 239.392 1036.99 238.936C1037.21 238.472 1037.32 237.74 1037.32 236.74C1037.32 235.74 1037.21 235.02 1036.99 234.58C1036.77 234.14 1036.43 233.92 1035.96 233.92C1035.49 233.92 1035.15 234.14 1034.92 234.58C1034.7 235.02 1034.59 235.74 1034.59 236.74C1034.59 237.74 1034.7 238.472 1034.92 238.936C1035.15 239.392 1035.49 239.62 1035.96 239.62ZM1043.4 241.36L1042.24 240.676L1047.16 232.18L1048.31 232.864L1043.4 241.36ZM1042.19 237.58C1041.73 237.58 1041.33 237.476 1041 237.268C1040.67 237.052 1040.42 236.752 1040.25 236.368C1040.08 235.976 1039.99 235.516 1039.99 234.988C1039.99 234.196 1040.19 233.568 1040.57 233.104C1040.96 232.64 1041.5 232.408 1042.19 232.408C1042.65 232.408 1043.04 232.516 1043.37 232.732C1043.7 232.94 1043.95 233.236 1044.12 233.62C1044.3 234.004 1044.39 234.46 1044.39 234.988C1044.39 235.516 1044.3 235.976 1044.12 236.368C1043.95 236.752 1043.71 237.052 1043.38 237.268C1043.05 237.476 1042.65 237.58 1042.19 237.58ZM1042.19 236.428C1042.43 236.428 1042.61 236.316 1042.74 236.092C1042.87 235.86 1042.93 235.492 1042.93 234.988C1042.93 234.484 1042.87 234.124 1042.73 233.908C1042.6 233.684 1042.42 233.572 1042.19 233.572C1041.95 233.572 1041.77 233.68 1041.64 233.896C1041.51 234.112 1041.45 234.476 1041.45 234.988C1041.45 235.5 1041.51 235.868 1041.64 236.092C1041.77 236.316 1041.95 236.428 1042.19 236.428ZM1048.37 241.132C1047.91 241.132 1047.51 241.028 1047.18 240.82C1046.85 240.604 1046.6 240.3 1046.43 239.908C1046.26 239.516 1046.17 239.056 1046.17 238.528C1046.17 237.736 1046.37 237.112 1046.75 236.656C1047.14 236.192 1047.68 235.96 1048.37 235.96C1048.83 235.96 1049.23 236.064 1049.56 236.272C1049.89 236.48 1050.13 236.776 1050.3 237.16C1050.48 237.544 1050.57 238 1050.57 238.528C1050.57 239.056 1050.48 239.516 1050.3 239.908C1050.13 240.3 1049.89 240.604 1049.56 240.82C1049.23 241.028 1048.83 241.132 1048.37 241.132ZM1048.37 239.968C1048.61 239.968 1048.79 239.856 1048.92 239.632C1049.05 239.4 1049.11 239.032 1049.11 238.528C1049.11 238.024 1049.05 237.664 1048.91 237.448C1048.78 237.224 1048.6 237.112 1048.37 237.112C1048.13 237.112 1047.95 237.22 1047.82 237.436C1047.69 237.652 1047.63 238.016 1047.63 238.528C1047.63 239.048 1047.69 239.42 1047.82 239.644C1047.95 239.86 1048.13 239.968 1048.37 239.968Z" fill="white"/>
<rect x="977" y="249" width="33" height="20" rx="4" fill="#FF6A79"/>
<path d="M981.281 263L984.821 258.296V259.124L981.377 254.54H983.537L985.877 257.768H985.277L987.605 254.54H989.777L986.321 259.124V258.296L989.861 263H987.689L985.265 259.652H985.877L983.465 263H981.281ZM990.528 263V254.54H994.392C995.336 254.54 996.064 254.768 996.576 255.224C997.088 255.68 997.344 256.316 997.344 257.132C997.344 257.66 997.228 258.116 996.996 258.5C996.764 258.884 996.428 259.18 995.988 259.388C995.556 259.596 995.024 259.7 994.392 259.7L994.488 259.496H994.98C995.316 259.496 995.608 259.58 995.856 259.748C996.112 259.908 996.332 260.156 996.516 260.492L997.884 263H995.832L994.368 260.3C994.288 260.156 994.196 260.044 994.092 259.964C993.988 259.876 993.868 259.816 993.732 259.784C993.604 259.744 993.46 259.724 993.3 259.724H992.388V263H990.528ZM992.388 258.38H994.056C994.552 258.38 994.924 258.28 995.172 258.08C995.428 257.88 995.556 257.58 995.556 257.18C995.556 256.788 995.428 256.492 995.172 256.292C994.924 256.092 994.552 255.992 994.056 255.992H992.388V258.38ZM998.883 263V254.54H1002.75C1003.38 254.54 1003.92 254.648 1004.36 254.864C1004.8 255.08 1005.13 255.388 1005.35 255.788C1005.58 256.188 1005.7 256.672 1005.7 257.24C1005.7 257.808 1005.58 258.296 1005.35 258.704C1005.13 259.104 1004.8 259.412 1004.36 259.628C1003.92 259.844 1003.38 259.952 1002.75 259.952H1000.74V263H998.883ZM1000.74 258.512H1002.44C1002.92 258.512 1003.28 258.404 1003.53 258.188C1003.78 257.972 1003.91 257.656 1003.91 257.24C1003.91 256.824 1003.78 256.512 1003.53 256.304C1003.28 256.096 1002.92 255.992 1002.44 255.992H1000.74V258.512Z" fill="white"/>
<rect x="1010" y="249" width="45" height="20" rx="4" fill="#FF6A79"/>
<path d="M1018.46 263.132C1018.08 263.132 1017.71 263.092 1017.34 263.012C1016.98 262.932 1016.65 262.824 1016.34 262.688C1016.02 262.544 1015.76 262.38 1015.53 262.196L1016.12 260.792C1016.48 261.048 1016.85 261.244 1017.24 261.38C1017.63 261.516 1018.02 261.584 1018.42 261.584C1018.88 261.584 1019.23 261.476 1019.48 261.26C1019.74 261.036 1019.86 260.732 1019.86 260.348C1019.86 259.964 1019.74 259.656 1019.49 259.424C1019.25 259.192 1018.92 259.076 1018.51 259.076C1018.2 259.076 1017.92 259.132 1017.67 259.244C1017.42 259.356 1017.19 259.528 1016.97 259.76H1015.77V254.54H1021.12V256.064H1017.56V258.356H1017.1C1017.3 258.108 1017.57 257.916 1017.9 257.78C1018.22 257.644 1018.58 257.576 1018.98 257.576C1019.51 257.576 1019.98 257.692 1020.38 257.924C1020.78 258.148 1021.09 258.464 1021.32 258.872C1021.54 259.28 1021.65 259.752 1021.65 260.288C1021.65 260.848 1021.52 261.344 1021.27 261.776C1021.01 262.2 1020.64 262.532 1020.16 262.772C1019.68 263.012 1019.12 263.132 1018.46 263.132ZM1022.63 263V261.08H1024.57V263H1022.63ZM1028.76 263.132C1028.08 263.132 1027.5 262.96 1027.03 262.616C1026.57 262.272 1026.21 261.776 1025.96 261.128C1025.72 260.48 1025.6 259.684 1025.6 258.74C1025.6 257.804 1025.72 257.016 1025.96 256.376C1026.2 255.728 1026.56 255.24 1027.03 254.912C1027.5 254.576 1028.08 254.408 1028.76 254.408C1029.45 254.408 1030.02 254.576 1030.49 254.912C1030.96 255.24 1031.32 255.724 1031.56 256.364C1031.8 257.004 1031.92 257.796 1031.92 258.74C1031.92 259.676 1031.79 260.472 1031.54 261.128C1031.3 261.776 1030.95 262.272 1030.49 262.616C1030.02 262.96 1029.45 263.132 1028.76 263.132ZM1028.76 261.62C1029.22 261.62 1029.57 261.392 1029.79 260.936C1030.02 260.472 1030.13 259.74 1030.13 258.74C1030.13 257.74 1030.02 257.02 1029.79 256.58C1029.58 256.14 1029.23 255.92 1028.76 255.92C1028.3 255.92 1027.95 256.14 1027.73 256.58C1027.5 257.02 1027.39 257.74 1027.39 258.74C1027.39 259.74 1027.5 260.472 1027.73 260.936C1027.95 261.392 1028.3 261.62 1028.76 261.62ZM1035.96 263.132C1034.95 263.132 1034.16 262.916 1033.59 262.484C1033.02 262.052 1032.74 261.46 1032.74 260.708C1032.74 260.3 1032.82 259.94 1032.98 259.628C1033.15 259.316 1033.38 259.064 1033.66 258.872C1033.95 258.68 1034.28 258.56 1034.64 258.512V258.824C1034.31 258.752 1034.02 258.62 1033.76 258.428C1033.5 258.228 1033.3 257.98 1033.16 257.684C1033.02 257.388 1032.96 257.064 1032.96 256.712C1032.96 255.992 1033.22 255.428 1033.76 255.02C1034.3 254.612 1035.04 254.408 1035.96 254.408C1036.88 254.408 1037.62 254.612 1038.15 255.02C1038.7 255.428 1038.97 255.992 1038.97 256.712C1038.97 257.072 1038.9 257.4 1038.75 257.696C1038.62 257.992 1038.42 258.236 1038.16 258.428C1037.92 258.62 1037.63 258.744 1037.3 258.8V258.512C1037.68 258.568 1038 258.696 1038.27 258.896C1038.55 259.088 1038.77 259.34 1038.93 259.652C1039.09 259.956 1039.17 260.304 1039.17 260.696C1039.17 261.456 1038.89 262.052 1038.32 262.484C1037.75 262.916 1036.96 263.132 1035.96 263.132ZM1035.96 261.704C1036.45 261.704 1036.83 261.608 1037.08 261.416C1037.34 261.224 1037.47 260.94 1037.47 260.564C1037.47 260.188 1037.34 259.908 1037.08 259.724C1036.83 259.532 1036.45 259.436 1035.96 259.436C1035.46 259.436 1035.08 259.532 1034.83 259.724C1034.57 259.908 1034.44 260.188 1034.44 260.564C1034.44 260.94 1034.57 261.224 1034.83 261.416C1035.08 261.608 1035.46 261.704 1035.96 261.704ZM1035.96 258.008C1036.36 258.008 1036.68 257.912 1036.9 257.72C1037.14 257.52 1037.25 257.252 1037.25 256.916C1037.25 256.58 1037.14 256.316 1036.9 256.124C1036.68 255.932 1036.36 255.836 1035.96 255.836C1035.55 255.836 1035.23 255.932 1035.01 256.124C1034.78 256.316 1034.67 256.58 1034.67 256.916C1034.67 257.252 1034.78 257.52 1035.01 257.72C1035.23 257.912 1035.55 258.008 1035.96 258.008ZM1043.4 263.36L1042.24 262.676L1047.16 254.18L1048.31 254.864L1043.4 263.36ZM1042.19 259.58C1041.73 259.58 1041.33 259.476 1041 259.268C1040.67 259.052 1040.42 258.752 1040.25 258.368C1040.08 257.976 1039.99 257.516 1039.99 256.988C1039.99 256.196 1040.19 255.568 1040.57 255.104C1040.96 254.64 1041.5 254.408 1042.19 254.408C1042.65 254.408 1043.04 254.516 1043.37 254.732C1043.7 254.94 1043.95 255.236 1044.12 255.62C1044.3 256.004 1044.39 256.46 1044.39 256.988C1044.39 257.516 1044.3 257.976 1044.12 258.368C1043.95 258.752 1043.71 259.052 1043.38 259.268C1043.05 259.476 1042.65 259.58 1042.19 259.58ZM1042.19 258.428C1042.43 258.428 1042.61 258.316 1042.74 258.092C1042.87 257.86 1042.93 257.492 1042.93 256.988C1042.93 256.484 1042.87 256.124 1042.73 255.908C1042.6 255.684 1042.42 255.572 1042.19 255.572C1041.95 255.572 1041.77 255.68 1041.64 255.896C1041.51 256.112 1041.45 256.476 1041.45 256.988C1041.45 257.5 1041.51 257.868 1041.64 258.092C1041.77 258.316 1041.95 258.428 1042.19 258.428ZM1048.37 263.132C1047.91 263.132 1047.51 263.028 1047.18 262.82C1046.85 262.604 1046.6 262.3 1046.43 261.908C1046.26 261.516 1046.17 261.056 1046.17 260.528C1046.17 259.736 1046.37 259.112 1046.75 258.656C1047.14 258.192 1047.68 257.96 1048.37 257.96C1048.83 257.96 1049.23 258.064 1049.56 258.272C1049.89 258.48 1050.13 258.776 1050.3 259.16C1050.48 259.544 1050.57 260 1050.57 260.528C1050.57 261.056 1050.48 261.516 1050.3 261.908C1050.13 262.3 1049.89 262.604 1049.56 262.82C1049.23 263.028 1048.83 263.132 1048.37 263.132ZM1048.37 261.968C1048.61 261.968 1048.79 261.856 1048.92 261.632C1049.05 261.4 1049.11 261.032 1049.11 260.528C1049.11 260.024 1049.05 259.664 1048.91 259.448C1048.78 259.224 1048.6 259.112 1048.37 259.112C1048.13 259.112 1047.95 259.22 1047.82 259.436C1047.69 259.652 1047.63 260.016 1047.63 260.528C1047.63 261.048 1047.69 261.42 1047.82 261.644C1047.95 261.86 1048.13 261.968 1048.37 261.968Z" fill="white"/>
<rect x="931" y="271" width="79" height="20" rx="4" fill="#FFA800"/>
<path d="M938.075 285V278.076H935.279V276.54H942.731V278.076H939.935V285H938.075ZM945.596 285.132C944.9 285.132 944.3 285.008 943.796 284.76C943.3 284.504 942.916 284.148 942.644 283.692C942.38 283.228 942.248 282.684 942.248 282.06C942.248 281.452 942.376 280.92 942.632 280.464C942.888 280 943.244 279.64 943.7 279.384C944.164 279.12 944.688 278.988 945.272 278.988C945.848 278.988 946.344 279.112 946.76 279.36C947.176 279.6 947.496 279.944 947.72 280.392C947.952 280.84 948.068 281.372 948.068 281.988V282.444H943.736V281.508H946.76L946.568 281.676C946.568 281.188 946.46 280.82 946.244 280.572C946.036 280.316 945.736 280.188 945.344 280.188C945.048 280.188 944.796 280.256 944.588 280.392C944.38 280.528 944.22 280.724 944.108 280.98C943.996 281.236 943.94 281.544 943.94 281.904V282C943.94 282.408 944 282.744 944.12 283.008C944.248 283.264 944.436 283.456 944.684 283.584C944.94 283.712 945.256 283.776 945.632 283.776C945.952 283.776 946.276 283.728 946.604 283.632C946.932 283.536 947.228 283.388 947.492 283.188L947.972 284.4C947.676 284.624 947.312 284.804 946.88 284.94C946.456 285.068 946.028 285.132 945.596 285.132ZM951.979 285.132C951.139 285.132 950.515 284.928 950.107 284.52C949.699 284.112 949.495 283.512 949.495 282.72V280.464H948.379V279.108H949.495V277.38H951.307V279.108H953.047V280.464H951.307V282.648C951.307 282.984 951.383 283.236 951.535 283.404C951.695 283.572 951.947 283.656 952.291 283.656C952.395 283.656 952.503 283.644 952.615 283.62C952.735 283.596 952.863 283.564 952.999 283.524L953.263 284.844C953.095 284.932 952.895 285 952.663 285.048C952.431 285.104 952.203 285.132 951.979 285.132ZM953.938 285V276.54H955.75V280.212H955.582C955.766 279.82 956.038 279.52 956.398 279.312C956.766 279.096 957.182 278.988 957.646 278.988C958.118 278.988 958.506 279.08 958.81 279.264C959.114 279.44 959.342 279.712 959.494 280.08C959.646 280.44 959.722 280.9 959.722 281.46V285H957.91V281.544C957.91 281.272 957.874 281.052 957.802 280.884C957.738 280.708 957.638 280.584 957.502 280.512C957.374 280.432 957.21 280.392 957.01 280.392C956.754 280.392 956.53 280.448 956.338 280.56C956.154 280.664 956.01 280.816 955.906 281.016C955.802 281.216 955.75 281.448 955.75 281.712V285H953.938ZM964.135 285.132C963.439 285.132 962.839 285.008 962.335 284.76C961.839 284.504 961.455 284.148 961.183 283.692C960.919 283.228 960.787 282.684 960.787 282.06C960.787 281.452 960.915 280.92 961.171 280.464C961.427 280 961.783 279.64 962.239 279.384C962.703 279.12 963.227 278.988 963.811 278.988C964.387 278.988 964.883 279.112 965.299 279.36C965.715 279.6 966.035 279.944 966.259 280.392C966.491 280.84 966.607 281.372 966.607 281.988V282.444H962.275V281.508H965.299L965.107 281.676C965.107 281.188 964.999 280.82 964.783 280.572C964.575 280.316 964.275 280.188 963.883 280.188C963.587 280.188 963.335 280.256 963.127 280.392C962.919 280.528 962.759 280.724 962.647 280.98C962.535 281.236 962.479 281.544 962.479 281.904V282C962.479 282.408 962.539 282.744 962.659 283.008C962.787 283.264 962.975 283.456 963.223 283.584C963.479 283.712 963.795 283.776 964.171 283.776C964.491 283.776 964.815 283.728 965.143 283.632C965.471 283.536 965.767 283.388 966.031 283.188L966.511 284.4C966.215 284.624 965.851 284.804 965.419 284.94C964.995 285.068 964.567 285.132 964.135 285.132ZM967.661 285V279.108H969.437V280.548H969.317C969.413 280.068 969.621 279.7 969.941 279.444C970.269 279.18 970.701 279.028 971.237 278.988L971.765 278.952L971.873 280.476L970.853 280.584C970.397 280.624 970.057 280.756 969.833 280.98C969.617 281.204 969.509 281.528 969.509 281.952V285H967.661ZM979.726 285.132C978.526 285.132 977.61 284.824 976.978 284.208C976.354 283.592 976.042 282.676 976.042 281.46V276.54H977.902V281.472C977.902 282.16 978.058 282.68 978.37 283.032C978.682 283.376 979.134 283.548 979.726 283.548C980.318 283.548 980.766 283.376 981.07 283.032C981.382 282.68 981.538 282.16 981.538 281.472V276.54H983.374V281.46C983.374 282.676 983.066 283.592 982.45 284.208C981.834 284.824 980.926 285.132 979.726 285.132ZM988.044 285.132C987.604 285.132 987.176 285.092 986.76 285.012C986.352 284.94 985.972 284.836 985.62 284.7C985.268 284.556 984.96 284.388 984.696 284.196L985.236 282.732C985.492 282.908 985.768 283.06 986.064 283.188C986.36 283.316 986.676 283.416 987.012 283.488C987.348 283.552 987.692 283.584 988.044 283.584C988.628 283.584 989.044 283.496 989.292 283.32C989.54 283.136 989.664 282.908 989.664 282.636C989.664 282.484 989.624 282.352 989.544 282.24C989.472 282.128 989.348 282.032 989.172 281.952C989.004 281.864 988.772 281.792 988.476 281.736L987.12 281.448C986.352 281.288 985.78 281.016 985.404 280.632C985.036 280.24 984.852 279.728 984.852 279.096C984.852 278.552 984.996 278.08 985.284 277.68C985.58 277.28 985.984 276.968 986.496 276.744C987.016 276.52 987.612 276.408 988.284 276.408C988.676 276.408 989.052 276.448 989.412 276.528C989.772 276.6 990.104 276.708 990.408 276.852C990.712 276.996 990.976 277.168 991.2 277.368L990.66 278.736C990.34 278.48 989.98 278.288 989.58 278.16C989.18 278.024 988.744 277.956 988.272 277.956C987.936 277.956 987.648 278 987.408 278.088C987.176 278.176 986.996 278.3 986.868 278.46C986.748 278.62 986.688 278.804 986.688 279.012C986.688 279.244 986.772 279.432 986.94 279.576C987.108 279.72 987.4 279.836 987.816 279.924L989.172 280.212C989.956 280.38 990.54 280.652 990.924 281.028C991.308 281.396 991.5 281.884 991.5 282.492C991.5 283.02 991.356 283.484 991.068 283.884C990.788 284.276 990.388 284.584 989.868 284.808C989.356 285.024 988.748 285.132 988.044 285.132ZM992.707 285V276.54H996.019C996.979 276.54 997.795 276.708 998.467 277.044C999.147 277.372 999.663 277.852 1000.02 278.484C1000.38 279.108 1000.56 279.868 1000.56 280.764C1000.56 281.66 1000.38 282.424 1000.02 283.056C999.663 283.688 999.147 284.172 998.467 284.508C997.795 284.836 996.979 285 996.019 285H992.707ZM994.567 283.476H995.911C996.815 283.476 997.491 283.252 997.939 282.804C998.387 282.356 998.611 281.676 998.611 280.764C998.611 279.852 998.383 279.176 997.927 278.736C997.479 278.288 996.807 278.064 995.911 278.064H994.567V283.476ZM1004.74 285.132C1003.9 285.132 1003.27 284.928 1002.86 284.52C1002.46 284.112 1002.25 283.512 1002.25 282.72V280.464H1001.14V279.108H1002.25V277.38H1004.06V279.108H1005.8V280.464H1004.06V282.648C1004.06 282.984 1004.14 283.236 1004.29 283.404C1004.45 283.572 1004.7 283.656 1005.05 283.656C1005.15 283.656 1005.26 283.644 1005.37 283.62C1005.49 283.596 1005.62 283.564 1005.76 283.524L1006.02 284.844C1005.85 284.932 1005.65 285 1005.42 285.048C1005.19 285.104 1004.96 285.132 1004.74 285.132Z" fill="white"/>
<rect x="1010" y="271" width="45" height="20" rx="4" fill="#FFA800"/>
<path d="M1018.84 285V283.488H1015.28V282.156L1019.16 276.54H1020.67V282.024H1021.82V283.488H1020.67V285H1018.84ZM1018.84 282.024V278.76H1019.19L1016.66 282.48V282.024H1018.84ZM1022.63 285V283.08H1024.57V285H1022.63ZM1029.16 285V283.488H1025.59V282.156L1029.47 276.54H1030.98V282.024H1032.13V283.488H1030.98V285H1029.16ZM1029.16 282.024V278.76H1029.5L1026.97 282.48V282.024H1029.16ZM1035.97 285.132C1035.59 285.132 1035.22 285.092 1034.85 285.012C1034.49 284.932 1034.16 284.824 1033.84 284.688C1033.53 284.544 1033.26 284.38 1033.04 284.196L1033.63 282.792C1033.99 283.048 1034.36 283.244 1034.74 283.38C1035.14 283.516 1035.53 283.584 1035.93 283.584C1036.39 283.584 1036.74 283.476 1036.99 283.26C1037.24 283.036 1037.37 282.732 1037.37 282.348C1037.37 281.964 1037.25 281.656 1037 281.424C1036.76 281.192 1036.43 281.076 1036.02 281.076C1035.71 281.076 1035.43 281.132 1035.18 281.244C1034.93 281.356 1034.7 281.528 1034.48 281.76H1033.28V276.54H1038.63V278.064H1035.07V280.356H1034.61C1034.81 280.108 1035.08 279.916 1035.4 279.78C1035.73 279.644 1036.09 279.576 1036.48 279.576C1037.02 279.576 1037.49 279.692 1037.89 279.924C1038.29 280.148 1038.6 280.464 1038.82 280.872C1039.05 281.28 1039.16 281.752 1039.16 282.288C1039.16 282.848 1039.03 283.344 1038.78 283.776C1038.52 284.2 1038.15 284.532 1037.67 284.772C1037.19 285.012 1036.62 285.132 1035.97 285.132ZM1043.4 285.36L1042.24 284.676L1047.16 276.18L1048.31 276.864L1043.4 285.36ZM1042.19 281.58C1041.73 281.58 1041.33 281.476 1041 281.268C1040.67 281.052 1040.42 280.752 1040.25 280.368C1040.08 279.976 1039.99 279.516 1039.99 278.988C1039.99 278.196 1040.19 277.568 1040.57 277.104C1040.96 276.64 1041.5 276.408 1042.19 276.408C1042.65 276.408 1043.04 276.516 1043.37 276.732C1043.7 276.94 1043.95 277.236 1044.12 277.62C1044.3 278.004 1044.39 278.46 1044.39 278.988C1044.39 279.516 1044.3 279.976 1044.12 280.368C1043.95 280.752 1043.71 281.052 1043.38 281.268C1043.05 281.476 1042.65 281.58 1042.19 281.58ZM1042.19 280.428C1042.43 280.428 1042.61 280.316 1042.74 280.092C1042.87 279.86 1042.93 279.492 1042.93 278.988C1042.93 278.484 1042.87 278.124 1042.73 277.908C1042.6 277.684 1042.42 277.572 1042.19 277.572C1041.95 277.572 1041.77 277.68 1041.64 277.896C1041.51 278.112 1041.45 278.476 1041.45 278.988C1041.45 279.5 1041.51 279.868 1041.64 280.092C1041.77 280.316 1041.95 280.428 1042.19 280.428ZM1048.37 285.132C1047.91 285.132 1047.51 285.028 1047.18 284.82C1046.85 284.604 1046.6 284.3 1046.43 283.908C1046.26 283.516 1046.17 283.056 1046.17 282.528C1046.17 281.736 1046.37 281.112 1046.75 280.656C1047.14 280.192 1047.68 279.96 1048.37 279.96C1048.83 279.96 1049.23 280.064 1049.56 280.272C1049.89 280.48 1050.13 280.776 1050.3 281.16C1050.48 281.544 1050.57 282 1050.57 282.528C1050.57 283.056 1050.48 283.516 1050.3 283.908C1050.13 284.3 1049.89 284.604 1049.56 284.82C1049.23 285.028 1048.83 285.132 1048.37 285.132ZM1048.37 283.968C1048.61 283.968 1048.79 283.856 1048.92 283.632C1049.05 283.4 1049.11 283.032 1049.11 282.528C1049.11 282.024 1049.05 281.664 1048.91 281.448C1048.78 281.224 1048.6 281.112 1048.37 281.112C1048.13 281.112 1047.95 281.22 1047.82 281.436C1047.69 281.652 1047.63 282.016 1047.63 282.528C1047.63 283.048 1047.69 283.42 1047.82 283.644C1047.95 283.86 1048.13 283.968 1048.37 283.968Z" fill="white"/>
<rect x="962" y="293" width="48" height="20" rx="4" fill="#A06AFF"/>
<path d="M970.63 307.132C970.19 307.132 969.762 307.092 969.346 307.012C968.938 306.94 968.558 306.836 968.206 306.7C967.854 306.556 967.546 306.388 967.282 306.196L967.822 304.732C968.078 304.908 968.354 305.06 968.65 305.188C968.946 305.316 969.262 305.416 969.598 305.488C969.934 305.552 970.278 305.584 970.63 305.584C971.214 305.584 971.63 305.496 971.878 305.32C972.126 305.136 972.25 304.908 972.25 304.636C972.25 304.484 972.21 304.352 972.13 304.24C972.058 304.128 971.934 304.032 971.758 303.952C971.59 303.864 971.358 303.792 971.062 303.736L969.706 303.448C968.938 303.288 968.366 303.016 967.99 302.632C967.622 302.24 967.438 301.728 967.438 301.096C967.438 300.552 967.582 300.08 967.87 299.68C968.166 299.28 968.57 298.968 969.082 298.744C969.602 298.52 970.198 298.408 970.87 298.408C971.262 298.408 971.638 298.448 971.998 298.528C972.358 298.6 972.69 298.708 972.994 298.852C973.298 298.996 973.562 299.168 973.786 299.368L973.246 300.736C972.926 300.48 972.566 300.288 972.166 300.16C971.766 300.024 971.33 299.956 970.858 299.956C970.522 299.956 970.234 300 969.994 300.088C969.762 300.176 969.582 300.3 969.454 300.46C969.334 300.62 969.274 300.804 969.274 301.012C969.274 301.244 969.358 301.432 969.526 301.576C969.694 301.72 969.986 301.836 970.402 301.924L971.758 302.212C972.542 302.38 973.126 302.652 973.51 303.028C973.894 303.396 974.086 303.884 974.086 304.492C974.086 305.02 973.942 305.484 973.654 305.884C973.374 306.276 972.974 306.584 972.454 306.808C971.942 307.024 971.334 307.132 970.63 307.132ZM977.969 307.132C977.337 307.132 976.785 307.008 976.313 306.76C975.849 306.512 975.489 306.156 975.233 305.692C974.977 305.228 974.849 304.68 974.849 304.048C974.849 303.416 974.977 302.872 975.233 302.416C975.489 301.96 975.849 301.608 976.313 301.36C976.785 301.112 977.337 300.988 977.969 300.988C978.601 300.988 979.149 301.112 979.613 301.36C980.085 301.608 980.449 301.964 980.705 302.428C980.969 302.884 981.101 303.424 981.101 304.048C981.101 304.68 980.969 305.228 980.705 305.692C980.449 306.156 980.085 306.512 979.613 306.76C979.149 307.008 978.601 307.132 977.969 307.132ZM977.969 305.776C978.361 305.776 978.677 305.636 978.917 305.356C979.157 305.068 979.277 304.632 979.277 304.048C979.277 303.464 979.157 303.036 978.917 302.764C978.677 302.484 978.361 302.344 977.969 302.344C977.585 302.344 977.273 302.484 977.033 302.764C976.793 303.036 976.673 303.464 976.673 304.048C976.673 304.632 976.793 305.068 977.033 305.356C977.273 305.636 977.585 305.776 977.969 305.776ZM984.4 307.132C983.64 307.132 983.084 306.936 982.732 306.544C982.38 306.144 982.204 305.552 982.204 304.768V298.54H984.016V304.696C984.016 304.896 984.048 305.072 984.112 305.224C984.176 305.368 984.268 305.476 984.388 305.548C984.516 305.62 984.676 305.656 984.868 305.656C984.948 305.656 985.032 305.652 985.12 305.644C985.208 305.636 985.292 305.62 985.372 305.596L985.348 307C985.196 307.04 985.04 307.072 984.88 307.096C984.728 307.12 984.568 307.132 984.4 307.132ZM988.192 307.132C987.76 307.132 987.372 307.048 987.028 306.88C986.684 306.712 986.416 306.484 986.224 306.196C986.032 305.908 985.936 305.584 985.936 305.224C985.936 304.792 986.048 304.452 986.272 304.204C986.496 303.948 986.86 303.768 987.364 303.664C987.868 303.552 988.536 303.496 989.368 303.496H990.004V304.432H989.38C989.068 304.432 988.804 304.444 988.588 304.468C988.38 304.492 988.208 304.536 988.072 304.6C987.936 304.656 987.836 304.728 987.772 304.816C987.716 304.904 987.688 305.016 987.688 305.152C987.688 305.376 987.764 305.56 987.916 305.704C988.076 305.848 988.304 305.92 988.6 305.92C988.832 305.92 989.036 305.868 989.212 305.764C989.396 305.652 989.54 305.504 989.644 305.32C989.748 305.128 989.8 304.912 989.8 304.672V303.292C989.8 302.94 989.72 302.692 989.56 302.548C989.4 302.396 989.128 302.32 988.744 302.32C988.424 302.32 988.084 302.372 987.724 302.476C987.372 302.572 987.02 302.72 986.668 302.92L986.176 301.708C986.384 301.564 986.636 301.44 986.932 301.336C987.236 301.224 987.552 301.14 987.88 301.084C988.208 301.02 988.52 300.988 988.816 300.988C989.432 300.988 989.936 301.08 990.328 301.264C990.728 301.44 991.028 301.716 991.228 302.092C991.428 302.46 991.528 302.936 991.528 303.52V307H989.836V305.812H989.92C989.872 306.084 989.768 306.32 989.608 306.52C989.456 306.712 989.26 306.864 989.02 306.976C988.78 307.08 988.504 307.132 988.192 307.132ZM992.88 307V301.108H994.656V302.212H994.524C994.708 301.82 994.98 301.52 995.34 301.312C995.708 301.096 996.124 300.988 996.588 300.988C997.06 300.988 997.448 301.08 997.752 301.264C998.056 301.44 998.284 301.712 998.436 302.08C998.588 302.44 998.664 302.9 998.664 303.46V307H996.852V303.544C996.852 303.272 996.816 303.052 996.744 302.884C996.68 302.708 996.58 302.584 996.444 302.512C996.316 302.432 996.152 302.392 995.952 302.392C995.696 302.392 995.472 302.448 995.28 302.56C995.096 302.664 994.952 302.816 994.848 303.016C994.744 303.216 994.692 303.448 994.692 303.712V307H992.88ZM1002.01 307.132C1001.58 307.132 1001.19 307.048 1000.84 306.88C1000.5 306.712 1000.23 306.484 1000.04 306.196C999.848 305.908 999.752 305.584 999.752 305.224C999.752 304.792 999.864 304.452 1000.09 304.204C1000.31 303.948 1000.68 303.768 1001.18 303.664C1001.68 303.552 1002.35 303.496 1003.18 303.496H1003.82V304.432H1003.2C1002.88 304.432 1002.62 304.444 1002.4 304.468C1002.2 304.492 1002.02 304.536 1001.89 304.6C1001.75 304.656 1001.65 304.728 1001.59 304.816C1001.53 304.904 1001.5 305.016 1001.5 305.152C1001.5 305.376 1001.58 305.56 1001.73 305.704C1001.89 305.848 1002.12 305.92 1002.42 305.92C1002.65 305.92 1002.85 305.868 1003.03 305.764C1003.21 305.652 1003.36 305.504 1003.46 305.32C1003.56 305.128 1003.62 304.912 1003.62 304.672V303.292C1003.62 302.94 1003.54 302.692 1003.38 302.548C1003.22 302.396 1002.94 302.32 1002.56 302.32C1002.24 302.32 1001.9 302.372 1001.54 302.476C1001.19 302.572 1000.84 302.72 1000.48 302.92L999.992 301.708C1000.2 301.564 1000.45 301.44 1000.75 301.336C1001.05 301.224 1001.37 301.14 1001.7 301.084C1002.02 301.02 1002.34 300.988 1002.63 300.988C1003.25 300.988 1003.75 301.08 1004.14 301.264C1004.54 301.44 1004.84 301.716 1005.04 302.092C1005.24 302.46 1005.34 302.936 1005.34 303.52V307H1003.65V305.812H1003.74C1003.69 306.084 1003.58 306.32 1003.42 306.52C1003.27 306.712 1003.08 306.864 1002.84 306.976C1002.6 307.08 1002.32 307.132 1002.01 307.132Z" fill="white"/>
<rect x="1010" y="293" width="45" height="20" rx="4" fill="#A06AFF"/>
<path d="M1018.24 307.132C1017.85 307.132 1017.47 307.092 1017.09 307.012C1016.72 306.94 1016.37 306.836 1016.05 306.7C1015.74 306.556 1015.46 306.388 1015.23 306.196L1015.82 304.792C1016.19 305.056 1016.56 305.256 1016.95 305.392C1017.34 305.52 1017.75 305.584 1018.17 305.584C1018.49 305.584 1018.76 305.544 1018.98 305.464C1019.19 305.376 1019.36 305.252 1019.47 305.092C1019.58 304.932 1019.64 304.732 1019.64 304.492C1019.64 304.156 1019.52 303.904 1019.29 303.736C1019.06 303.568 1018.72 303.484 1018.27 303.484H1016.85V301.984H1018.09C1018.36 301.984 1018.59 301.944 1018.77 301.864C1018.96 301.776 1019.11 301.656 1019.22 301.504C1019.33 301.352 1019.38 301.164 1019.38 300.94C1019.38 300.62 1019.27 300.376 1019.05 300.208C1018.83 300.04 1018.52 299.956 1018.1 299.956C1017.7 299.956 1017.32 300.024 1016.97 300.16C1016.62 300.288 1016.28 300.488 1015.96 300.76L1015.38 299.392C1015.73 299.08 1016.16 298.84 1016.67 298.672C1017.18 298.496 1017.72 298.408 1018.27 298.408C1018.88 298.408 1019.4 298.5 1019.83 298.684C1020.26 298.868 1020.59 299.132 1020.82 299.476C1021.06 299.812 1021.17 300.22 1021.17 300.7C1021.17 301.196 1021.03 301.624 1020.75 301.984C1020.48 302.336 1020.1 302.572 1019.61 302.692V302.536C1020 302.6 1020.32 302.728 1020.58 302.92C1020.86 303.112 1021.06 303.356 1021.21 303.652C1021.35 303.948 1021.42 304.284 1021.42 304.66C1021.42 305.164 1021.3 305.604 1021.04 305.98C1020.78 306.348 1020.42 306.632 1019.94 306.832C1019.46 307.032 1018.9 307.132 1018.24 307.132ZM1022.63 307V305.08H1024.57V307H1022.63ZM1028.76 307.132C1028.08 307.132 1027.5 306.96 1027.03 306.616C1026.57 306.272 1026.21 305.776 1025.96 305.128C1025.72 304.48 1025.6 303.684 1025.6 302.74C1025.6 301.804 1025.72 301.016 1025.96 300.376C1026.2 299.728 1026.56 299.24 1027.03 298.912C1027.5 298.576 1028.08 298.408 1028.76 298.408C1029.45 298.408 1030.02 298.576 1030.49 298.912C1030.96 299.24 1031.32 299.724 1031.56 300.364C1031.8 301.004 1031.92 301.796 1031.92 302.74C1031.92 303.676 1031.79 304.472 1031.54 305.128C1031.3 305.776 1030.95 306.272 1030.49 306.616C1030.02 306.96 1029.45 307.132 1028.76 307.132ZM1028.76 305.62C1029.22 305.62 1029.57 305.392 1029.79 304.936C1030.02 304.472 1030.13 303.74 1030.13 302.74C1030.13 301.74 1030.02 301.02 1029.79 300.58C1029.58 300.14 1029.23 299.92 1028.76 299.92C1028.3 299.92 1027.95 300.14 1027.73 300.58C1027.5 301.02 1027.39 301.74 1027.39 302.74C1027.39 303.74 1027.5 304.472 1027.73 304.936C1027.95 305.392 1028.3 305.62 1028.76 305.62ZM1033.56 307V305.476H1035.45V300.1H1036.33L1034 301.468L1033.29 300.112L1035.99 298.54H1037.31V305.476H1039.09V307H1033.56ZM1043.4 307.36L1042.24 306.676L1047.16 298.18L1048.31 298.864L1043.4 307.36ZM1042.19 303.58C1041.73 303.58 1041.33 303.476 1041 303.268C1040.67 303.052 1040.42 302.752 1040.25 302.368C1040.08 301.976 1039.99 301.516 1039.99 300.988C1039.99 300.196 1040.19 299.568 1040.57 299.104C1040.96 298.64 1041.5 298.408 1042.19 298.408C1042.65 298.408 1043.04 298.516 1043.37 298.732C1043.7 298.94 1043.95 299.236 1044.12 299.62C1044.3 300.004 1044.39 300.46 1044.39 300.988C1044.39 301.516 1044.3 301.976 1044.12 302.368C1043.95 302.752 1043.71 303.052 1043.38 303.268C1043.05 303.476 1042.65 303.58 1042.19 303.58ZM1042.19 302.428C1042.43 302.428 1042.61 302.316 1042.74 302.092C1042.87 301.86 1042.93 301.492 1042.93 300.988C1042.93 300.484 1042.87 300.124 1042.73 299.908C1042.6 299.684 1042.42 299.572 1042.19 299.572C1041.95 299.572 1041.77 299.68 1041.64 299.896C1041.51 300.112 1041.45 300.476 1041.45 300.988C1041.45 301.5 1041.51 301.868 1041.64 302.092C1041.77 302.316 1041.95 302.428 1042.19 302.428ZM1048.37 307.132C1047.91 307.132 1047.51 307.028 1047.18 306.82C1046.85 306.604 1046.6 306.3 1046.43 305.908C1046.26 305.516 1046.17 305.056 1046.17 304.528C1046.17 303.736 1046.37 303.112 1046.75 302.656C1047.14 302.192 1047.68 301.96 1048.37 301.96C1048.83 301.96 1049.23 302.064 1049.56 302.272C1049.89 302.48 1050.13 302.776 1050.3 303.16C1050.48 303.544 1050.57 304 1050.57 304.528C1050.57 305.056 1050.48 305.516 1050.3 305.908C1050.13 306.3 1049.89 306.604 1049.56 306.82C1049.23 307.028 1048.83 307.132 1048.37 307.132ZM1048.37 305.968C1048.61 305.968 1048.79 305.856 1048.92 305.632C1049.05 305.4 1049.11 305.032 1049.11 304.528C1049.11 304.024 1049.05 303.664 1048.91 303.448C1048.78 303.224 1048.6 303.112 1048.37 303.112C1048.13 303.112 1047.95 303.22 1047.82 303.436C1047.69 303.652 1047.63 304.016 1047.63 304.528C1047.63 305.048 1047.69 305.42 1047.82 305.644C1047.95 305.86 1048.13 305.968 1048.37 305.968Z" fill="white"/>
<defs>
<filter id="filter0_d_2296_143" x="0.726562" y="2.10425" width="929.348" height="135.443" filterUnits="userSpaceOnUse" color-interpolation-filters="sRGB">
<feFlood flood-opacity="0" result="BackgroundImageFix"/>
<feColorMatrix in="SourceAlpha" type="matrix" values="0 0 0 0 0 0 0 0 0 0 0 0 0 0 0 0 0 0 127 0" result="hardAlpha"/>
<feOffset/>
<feGaussianBlur stdDeviation="4"/>
<feComposite in2="hardAlpha" operator="out"/>
<feColorMatrix type="matrix" values="0 0 0 0 0.415686 0 0 0 0 0.65098 0 0 0 0 1 0 0 0 0.24 0"/>
<feBlend mode="normal" in2="BackgroundImageFix" result="effect1_dropShadow_2296_143"/>
<feBlend mode="normal" in="SourceGraphic" in2="effect1_dropShadow_2296_143" result="shape"/>
</filter>
<filter id="filter1_d_2296_143" x="0.953125" y="267.685" width="928.312" height="28.3188" filterUnits="userSpaceOnUse" color-interpolation-filters="sRGB">
<feFlood flood-opacity="0" result="BackgroundImageFix"/>
<feColorMatrix in="SourceAlpha" type="matrix" values="0 0 0 0 0 0 0 0 0 0 0 0 0 0 0 0 0 0 127 0" result="hardAlpha"/>
<feOffset/>
<feGaussianBlur stdDeviation="4"/>
<feComposite in2="hardAlpha" operator="out"/>
<feColorMatrix type="matrix" values="0 0 0 0 1 0 0 0 0 0.658824 0 0 0 0 0 0 0 0 0.24 0"/>
<feBlend mode="normal" in2="BackgroundImageFix" result="effect1_dropShadow_2296_143"/>
<feBlend mode="normal" in="SourceGraphic" in2="effect1_dropShadow_2296_143" result="shape"/>
</filter>
<filter id="filter2_d_2296_143" x="0.75" y="242.022" width="928.637" height="36.978" filterUnits="userSpaceOnUse" color-interpolation-filters="sRGB">
<feFlood flood-opacity="0" result="BackgroundImageFix"/>
<feColorMatrix in="SourceAlpha" type="matrix" values="0 0 0 0 0 0 0 0 0 0 0 0 0 0 0 0 0 0 127 0" result="hardAlpha"/>
<feOffset/>
<feGaussianBlur stdDeviation="4"/>
<feComposite in2="hardAlpha" operator="out"/>
<feColorMatrix type="matrix" values="0 0 0 0 1 0 0 0 0 0.415686 0 0 0 0 0.47451 0 0 0 0.24 0"/>
<feBlend mode="normal" in2="BackgroundImageFix" result="effect1_dropShadow_2296_143"/>
<feBlend mode="normal" in="SourceGraphic" in2="effect1_dropShadow_2296_143" result="shape"/>
</filter>
<filter id="filter3_d_2296_143" x="0.929688" y="291.732" width="928.07" height="24.4797" filterUnits="userSpaceOnUse" color-interpolation-filters="sRGB">
<feFlood flood-opacity="0" result="BackgroundImageFix"/>
<feColorMatrix in="SourceAlpha" type="matrix" values="0 0 0 0 0 0 0 0 0 0 0 0 0 0 0 0 0 0 127 0" result="hardAlpha"/>
<feOffset/>
<feGaussianBlur stdDeviation="4"/>
<feComposite in2="hardAlpha" operator="out"/>
<feColorMatrix type="matrix" values="0 0 0 0 0.627451 0 0 0 0 0.415686 0 0 0 0 1 0 0 0 0.24 0"/>
<feBlend mode="normal" in2="BackgroundImageFix" result="effect1_dropShadow_2296_143"/>
<feBlend mode="normal" in="SourceGraphic" in2="effect1_dropShadow_2296_143" result="shape"/>
</filter>
<filter id="filter4_d_2296_143" x="0.425781" y="194.793" width="928.871" height="63.1606" filterUnits="userSpaceOnUse" color-interpolation-filters="sRGB">
<feFlood flood-opacity="0" result="BackgroundImageFix"/>
<feColorMatrix in="SourceAlpha" type="matrix" values="0 0 0 0 0 0 0 0 0 0 0 0 0 0 0 0 0 0 127 0" result="hardAlpha"/>
<feOffset/>
<feGaussianBlur stdDeviation="4"/>
<feComposite in2="hardAlpha" operator="out"/>
<feColorMatrix type="matrix" values="0 0 0 0 0.415686 0 0 0 0 1 0 0 0 0 0.611765 0 0 0 0.24 0"/>
<feBlend mode="normal" in2="BackgroundImageFix" result="effect1_dropShadow_2296_143"/>
<feBlend mode="normal" in="SourceGraphic" in2="effect1_dropShadow_2296_143" result="shape"/>
</filter>
<filter id="filter5_d_2296_143" x="0.519531" y="177.462" width="928.91" height="68.1748" filterUnits="userSpaceOnUse" color-interpolation-filters="sRGB">
<feFlood flood-opacity="0" result="BackgroundImageFix"/>
<feColorMatrix in="SourceAlpha" type="matrix" values="0 0 0 0 0 0 0 0 0 0 0 0 0 0 0 0 0 0 127 0" result="hardAlpha"/>
<feOffset/>
<feGaussianBlur stdDeviation="4"/>
<feComposite in2="hardAlpha" operator="out"/>
<feColorMatrix type="matrix" values="0 0 0 0 0.937255 0 0 0 0 0.270588 0 0 0 0 0.290196 0 0 0 0.24 0"/>
<feBlend mode="normal" in2="BackgroundImageFix" result="effect1_dropShadow_2296_143"/>
<feBlend mode="normal" in="SourceGraphic" in2="effect1_dropShadow_2296_143" result="shape"/>
</filter>
</defs>
</svg>
