<svg width="1039" height="287" viewBox="0 0 1039 287" fill="none" xmlns="http://www.w3.org/2000/svg">
<rect x="7" y="7" width="964" height="2" fill="white" fill-opacity="0.04"/>
<rect x="7" y="57" width="964" height="2" fill="white" fill-opacity="0.04"/>
<rect x="7" y="107" width="964" height="2" fill="white" fill-opacity="0.04"/>
<rect x="7" y="157" width="964" height="2" fill="white" fill-opacity="0.04"/>
<rect x="7" y="207" width="964" height="2" fill="white" fill-opacity="0.08"/>
<rect x="7" y="257" width="964" height="2" fill="white" fill-opacity="0.16"/>
<path d="M1006.69 262.12C1006.03 262.12 1005.47 261.952 1005 261.616C1004.55 261.272 1004.2 260.776 1003.96 260.128C1003.73 259.48 1003.61 258.688 1003.61 257.752C1003.61 256.808 1003.73 256.016 1003.96 255.376C1004.2 254.728 1004.55 254.24 1005 253.912C1005.47 253.584 1006.03 253.42 1006.69 253.42C1007.37 253.42 1007.93 253.584 1008.39 253.912C1008.85 254.24 1009.2 254.724 1009.43 255.364C1009.66 256.004 1009.78 256.796 1009.78 257.74C1009.78 258.676 1009.66 259.472 1009.42 260.128C1009.19 260.776 1008.84 261.272 1008.39 261.616C1007.93 261.952 1007.37 262.12 1006.69 262.12ZM1006.69 260.86C1007.24 260.86 1007.64 260.612 1007.89 260.116C1008.16 259.612 1008.29 258.82 1008.29 257.74C1008.29 256.668 1008.16 255.892 1007.89 255.412C1007.64 254.924 1007.24 254.68 1006.69 254.68C1006.16 254.68 1005.76 254.924 1005.49 255.412C1005.23 255.892 1005.1 256.672 1005.1 257.752C1005.1 258.824 1005.23 259.612 1005.49 260.116C1005.76 260.612 1006.16 260.86 1006.69 260.86ZM1010.94 262V260.332H1012.62V262H1010.94ZM1016.87 262.12C1016.2 262.12 1015.64 261.952 1015.17 261.616C1014.72 261.272 1014.37 260.776 1014.13 260.128C1013.9 259.48 1013.78 258.688 1013.78 257.752C1013.78 256.808 1013.9 256.016 1014.13 255.376C1014.37 254.728 1014.72 254.24 1015.17 253.912C1015.64 253.584 1016.2 253.42 1016.87 253.42C1017.54 253.42 1018.1 253.584 1018.56 253.912C1019.02 254.24 1019.37 254.724 1019.6 255.364C1019.83 256.004 1019.95 256.796 1019.95 257.74C1019.95 258.676 1019.83 259.472 1019.59 260.128C1019.36 260.776 1019.01 261.272 1018.56 261.616C1018.1 261.952 1017.54 262.12 1016.87 262.12ZM1016.87 260.86C1017.41 260.86 1017.81 260.612 1018.07 260.116C1018.33 259.612 1018.46 258.82 1018.46 257.74C1018.46 256.668 1018.33 255.892 1018.07 255.412C1017.81 254.924 1017.41 254.68 1016.87 254.68C1016.33 254.68 1015.93 254.924 1015.67 255.412C1015.4 255.892 1015.27 256.672 1015.27 257.752C1015.27 258.824 1015.4 259.612 1015.67 260.116C1015.93 260.612 1016.33 260.86 1016.87 260.86ZM1024.06 262.12C1023.4 262.12 1022.83 261.952 1022.37 261.616C1021.91 261.272 1021.56 260.776 1021.32 260.128C1021.09 259.48 1020.98 258.688 1020.98 257.752C1020.98 256.808 1021.09 256.016 1021.32 255.376C1021.56 254.728 1021.91 254.24 1022.37 253.912C1022.83 253.584 1023.4 253.42 1024.06 253.42C1024.73 253.42 1025.3 253.584 1025.75 253.912C1026.22 254.24 1026.56 254.724 1026.8 255.364C1027.03 256.004 1027.14 256.796 1027.14 257.74C1027.14 258.676 1027.02 259.472 1026.78 260.128C1026.55 260.776 1026.21 261.272 1025.75 261.616C1025.3 261.952 1024.73 262.12 1024.06 262.12ZM1024.06 260.86C1024.6 260.86 1025 260.612 1025.26 260.116C1025.52 259.612 1025.66 258.82 1025.66 257.74C1025.66 256.668 1025.52 255.892 1025.26 255.412C1025 254.924 1024.6 254.68 1024.06 254.68C1023.52 254.68 1023.12 254.924 1022.86 255.412C1022.6 255.892 1022.46 256.672 1022.46 257.752C1022.46 258.824 1022.6 259.612 1022.86 260.116C1023.12 260.612 1023.52 260.86 1024.06 260.86ZM1031.35 262.336L1030.37 261.76L1035.31 253.204L1036.28 253.78L1031.35 262.336ZM1030.32 258.592C1029.87 258.592 1029.49 258.488 1029.17 258.28C1028.85 258.072 1028.6 257.776 1028.44 257.392C1028.27 257 1028.18 256.536 1028.18 256C1028.18 255.2 1028.37 254.572 1028.75 254.116C1029.12 253.652 1029.65 253.42 1030.32 253.42C1030.77 253.42 1031.15 253.524 1031.47 253.732C1031.79 253.94 1032.04 254.236 1032.2 254.62C1032.37 255.004 1032.46 255.464 1032.46 256C1032.46 256.536 1032.37 257 1032.2 257.392C1032.04 257.776 1031.79 258.072 1031.47 258.28C1031.15 258.488 1030.77 258.592 1030.32 258.592ZM1030.32 257.584C1030.61 257.584 1030.83 257.456 1030.99 257.2C1031.15 256.936 1031.23 256.536 1031.23 256C1031.23 255.464 1031.15 255.068 1030.99 254.812C1030.83 254.556 1030.61 254.428 1030.32 254.428C1030.03 254.428 1029.81 254.556 1029.65 254.812C1029.49 255.06 1029.41 255.456 1029.41 256C1029.41 256.544 1029.49 256.944 1029.65 257.2C1029.81 257.456 1030.03 257.584 1030.32 257.584ZM1036.34 262.12C1035.9 262.12 1035.51 262.016 1035.19 261.808C1034.87 261.6 1034.63 261.304 1034.46 260.92C1034.29 260.528 1034.21 260.064 1034.21 259.528C1034.21 258.728 1034.4 258.1 1034.77 257.644C1035.15 257.18 1035.67 256.948 1036.34 256.948C1036.79 256.948 1037.18 257.052 1037.5 257.26C1037.82 257.468 1038.06 257.764 1038.23 258.148C1038.4 258.532 1038.48 258.992 1038.48 259.528C1038.48 260.064 1038.4 260.528 1038.23 260.92C1038.06 261.304 1037.82 261.6 1037.5 261.808C1037.18 262.016 1036.79 262.12 1036.34 262.12ZM1036.34 261.112C1036.63 261.112 1036.86 260.984 1037.02 260.728C1037.18 260.464 1037.26 260.064 1037.26 259.528C1037.26 258.992 1037.18 258.596 1037.02 258.34C1036.86 258.084 1036.63 257.956 1036.34 257.956C1036.06 257.956 1035.83 258.084 1035.67 258.34C1035.51 258.588 1035.43 258.984 1035.43 259.528C1035.43 260.072 1035.51 260.472 1035.67 260.728C1035.83 260.984 1036.06 261.112 1036.34 261.112Z" fill="#808283"/>
<path d="M996.858 212V210.86L999.594 207.944C999.842 207.68 1000.04 207.436 1000.18 207.212C1000.33 206.988 1000.45 206.772 1000.52 206.564C1000.59 206.356 1000.63 206.148 1000.63 205.94C1000.63 205.54 1000.5 205.236 1000.24 205.028C999.994 204.82 999.63 204.716 999.15 204.716C998.774 204.716 998.406 204.788 998.046 204.932C997.694 205.068 997.354 205.284 997.026 205.58L996.51 204.428C996.846 204.124 997.266 203.88 997.77 203.696C998.274 203.512 998.798 203.42 999.342 203.42C999.95 203.42 1000.46 203.512 1000.88 203.696C1001.29 203.88 1001.61 204.148 1001.83 204.5C1002.04 204.852 1002.15 205.28 1002.15 205.784C1002.15 206.04 1002.12 206.292 1002.05 206.54C1002 206.78 1001.91 207.02 1001.78 207.26C1001.66 207.5 1001.5 207.748 1001.31 208.004C1001.13 208.252 1000.9 208.512 1000.64 208.784L998.382 211.136V210.728H1002.47V212H996.858ZM1006.69 212.12C1006.03 212.12 1005.47 211.952 1005 211.616C1004.55 211.272 1004.2 210.776 1003.96 210.128C1003.73 209.48 1003.61 208.688 1003.61 207.752C1003.61 206.808 1003.73 206.016 1003.96 205.376C1004.2 204.728 1004.55 204.24 1005 203.912C1005.47 203.584 1006.03 203.42 1006.69 203.42C1007.37 203.42 1007.93 203.584 1008.39 203.912C1008.85 204.24 1009.2 204.724 1009.43 205.364C1009.66 206.004 1009.78 206.796 1009.78 207.74C1009.78 208.676 1009.66 209.472 1009.42 210.128C1009.19 210.776 1008.84 211.272 1008.39 211.616C1007.93 211.952 1007.37 212.12 1006.69 212.12ZM1006.69 210.86C1007.24 210.86 1007.64 210.612 1007.89 210.116C1008.16 209.612 1008.29 208.82 1008.29 207.74C1008.29 206.668 1008.16 205.892 1007.89 205.412C1007.64 204.924 1007.24 204.68 1006.69 204.68C1006.16 204.68 1005.76 204.924 1005.49 205.412C1005.23 205.892 1005.1 206.672 1005.1 207.752C1005.1 208.824 1005.23 209.612 1005.49 210.116C1005.76 210.612 1006.16 210.86 1006.69 210.86ZM1010.94 212V210.332H1012.62V212H1010.94ZM1016.87 212.12C1016.2 212.12 1015.64 211.952 1015.17 211.616C1014.72 211.272 1014.37 210.776 1014.13 210.128C1013.9 209.48 1013.78 208.688 1013.78 207.752C1013.78 206.808 1013.9 206.016 1014.13 205.376C1014.37 204.728 1014.72 204.24 1015.17 203.912C1015.64 203.584 1016.2 203.42 1016.87 203.42C1017.54 203.42 1018.1 203.584 1018.56 203.912C1019.02 204.24 1019.37 204.724 1019.6 205.364C1019.83 206.004 1019.95 206.796 1019.95 207.74C1019.95 208.676 1019.83 209.472 1019.59 210.128C1019.36 210.776 1019.01 211.272 1018.56 211.616C1018.1 211.952 1017.54 212.12 1016.87 212.12ZM1016.87 210.86C1017.41 210.86 1017.81 210.612 1018.07 210.116C1018.33 209.612 1018.46 208.82 1018.46 207.74C1018.46 206.668 1018.33 205.892 1018.07 205.412C1017.81 204.924 1017.41 204.68 1016.87 204.68C1016.33 204.68 1015.93 204.924 1015.67 205.412C1015.4 205.892 1015.27 206.672 1015.27 207.752C1015.27 208.824 1015.4 209.612 1015.67 210.116C1015.93 210.612 1016.33 210.86 1016.87 210.86ZM1024.06 212.12C1023.4 212.12 1022.83 211.952 1022.37 211.616C1021.91 211.272 1021.56 210.776 1021.32 210.128C1021.09 209.48 1020.98 208.688 1020.98 207.752C1020.98 206.808 1021.09 206.016 1021.32 205.376C1021.56 204.728 1021.91 204.24 1022.37 203.912C1022.83 203.584 1023.4 203.42 1024.06 203.42C1024.73 203.42 1025.3 203.584 1025.75 203.912C1026.22 204.24 1026.56 204.724 1026.8 205.364C1027.03 206.004 1027.14 206.796 1027.14 207.74C1027.14 208.676 1027.02 209.472 1026.78 210.128C1026.55 210.776 1026.21 211.272 1025.75 211.616C1025.3 211.952 1024.73 212.12 1024.06 212.12ZM1024.06 210.86C1024.6 210.86 1025 210.612 1025.26 210.116C1025.52 209.612 1025.66 208.82 1025.66 207.74C1025.66 206.668 1025.52 205.892 1025.26 205.412C1025 204.924 1024.6 204.68 1024.06 204.68C1023.52 204.68 1023.12 204.924 1022.86 205.412C1022.6 205.892 1022.46 206.672 1022.46 207.752C1022.46 208.824 1022.6 209.612 1022.86 210.116C1023.12 210.612 1023.52 210.86 1024.06 210.86ZM1031.35 212.336L1030.37 211.76L1035.31 203.204L1036.28 203.78L1031.35 212.336ZM1030.32 208.592C1029.87 208.592 1029.49 208.488 1029.17 208.28C1028.85 208.072 1028.6 207.776 1028.44 207.392C1028.27 207 1028.18 206.536 1028.18 206C1028.18 205.2 1028.37 204.572 1028.75 204.116C1029.12 203.652 1029.65 203.42 1030.32 203.42C1030.77 203.42 1031.15 203.524 1031.47 203.732C1031.79 203.94 1032.04 204.236 1032.2 204.62C1032.37 205.004 1032.46 205.464 1032.46 206C1032.46 206.536 1032.37 207 1032.2 207.392C1032.04 207.776 1031.79 208.072 1031.47 208.28C1031.15 208.488 1030.77 208.592 1030.32 208.592ZM1030.32 207.584C1030.61 207.584 1030.83 207.456 1030.99 207.2C1031.15 206.936 1031.23 206.536 1031.23 206C1031.23 205.464 1031.15 205.068 1030.99 204.812C1030.83 204.556 1030.61 204.428 1030.32 204.428C1030.03 204.428 1029.81 204.556 1029.65 204.812C1029.49 205.06 1029.41 205.456 1029.41 206C1029.41 206.544 1029.49 206.944 1029.65 207.2C1029.81 207.456 1030.03 207.584 1030.32 207.584ZM1036.34 212.12C1035.9 212.12 1035.51 212.016 1035.19 211.808C1034.87 211.6 1034.63 211.304 1034.46 210.92C1034.29 210.528 1034.21 210.064 1034.21 209.528C1034.21 208.728 1034.4 208.1 1034.77 207.644C1035.15 207.18 1035.67 206.948 1036.34 206.948C1036.79 206.948 1037.18 207.052 1037.5 207.26C1037.82 207.468 1038.06 207.764 1038.23 208.148C1038.4 208.532 1038.48 208.992 1038.48 209.528C1038.48 210.064 1038.4 210.528 1038.23 210.92C1038.06 211.304 1037.82 211.6 1037.5 211.808C1037.18 212.016 1036.79 212.12 1036.34 212.12ZM1036.34 211.112C1036.63 211.112 1036.86 210.984 1037.02 210.728C1037.18 210.464 1037.26 210.064 1037.26 209.528C1037.26 208.992 1037.18 208.596 1037.02 208.34C1036.86 208.084 1036.63 207.956 1036.34 207.956C1036.06 207.956 1035.83 208.084 1035.67 208.34C1035.51 208.588 1035.43 208.984 1035.43 209.528C1035.43 210.072 1035.51 210.472 1035.67 210.728C1035.83 210.984 1036.06 211.112 1036.34 211.112Z" fill="#808283"/>
<path d="M1000.09 162V160.392H996.402V159.264L1000.35 153.54H1001.62V159.12H1002.81V160.392H1001.62V162H1000.09ZM1000.09 159.12V155.376H1000.43L997.602 159.528V159.12H1000.09ZM1006.69 162.12C1006.03 162.12 1005.47 161.952 1005 161.616C1004.55 161.272 1004.2 160.776 1003.96 160.128C1003.73 159.48 1003.61 158.688 1003.61 157.752C1003.61 156.808 1003.73 156.016 1003.96 155.376C1004.2 154.728 1004.55 154.24 1005 153.912C1005.47 153.584 1006.03 153.42 1006.69 153.42C1007.37 153.42 1007.93 153.584 1008.39 153.912C1008.85 154.24 1009.2 154.724 1009.43 155.364C1009.66 156.004 1009.78 156.796 1009.78 157.74C1009.78 158.676 1009.66 159.472 1009.42 160.128C1009.19 160.776 1008.84 161.272 1008.39 161.616C1007.93 161.952 1007.37 162.12 1006.69 162.12ZM1006.69 160.86C1007.24 160.86 1007.64 160.612 1007.89 160.116C1008.16 159.612 1008.29 158.82 1008.29 157.74C1008.29 156.668 1008.16 155.892 1007.89 155.412C1007.64 154.924 1007.24 154.68 1006.69 154.68C1006.16 154.68 1005.76 154.924 1005.49 155.412C1005.23 155.892 1005.1 156.672 1005.1 157.752C1005.1 158.824 1005.23 159.612 1005.49 160.116C1005.76 160.612 1006.16 160.86 1006.69 160.86ZM1010.94 162V160.332H1012.62V162H1010.94ZM1016.87 162.12C1016.2 162.12 1015.64 161.952 1015.17 161.616C1014.72 161.272 1014.37 160.776 1014.13 160.128C1013.9 159.48 1013.78 158.688 1013.78 157.752C1013.78 156.808 1013.9 156.016 1014.13 155.376C1014.37 154.728 1014.72 154.24 1015.17 153.912C1015.64 153.584 1016.2 153.42 1016.87 153.42C1017.54 153.42 1018.1 153.584 1018.56 153.912C1019.02 154.24 1019.37 154.724 1019.6 155.364C1019.83 156.004 1019.95 156.796 1019.95 157.74C1019.95 158.676 1019.83 159.472 1019.59 160.128C1019.36 160.776 1019.01 161.272 1018.56 161.616C1018.1 161.952 1017.54 162.12 1016.87 162.12ZM1016.87 160.86C1017.41 160.86 1017.81 160.612 1018.07 160.116C1018.33 159.612 1018.46 158.82 1018.46 157.74C1018.46 156.668 1018.33 155.892 1018.07 155.412C1017.81 154.924 1017.41 154.68 1016.87 154.68C1016.33 154.68 1015.93 154.924 1015.67 155.412C1015.4 155.892 1015.27 156.672 1015.27 157.752C1015.27 158.824 1015.4 159.612 1015.67 160.116C1015.93 160.612 1016.33 160.86 1016.87 160.86ZM1024.06 162.12C1023.4 162.12 1022.83 161.952 1022.37 161.616C1021.91 161.272 1021.56 160.776 1021.32 160.128C1021.09 159.48 1020.98 158.688 1020.98 157.752C1020.98 156.808 1021.09 156.016 1021.32 155.376C1021.56 154.728 1021.91 154.24 1022.37 153.912C1022.83 153.584 1023.4 153.42 1024.06 153.42C1024.73 153.42 1025.3 153.584 1025.75 153.912C1026.22 154.24 1026.56 154.724 1026.8 155.364C1027.03 156.004 1027.14 156.796 1027.14 157.74C1027.14 158.676 1027.02 159.472 1026.78 160.128C1026.55 160.776 1026.21 161.272 1025.75 161.616C1025.3 161.952 1024.73 162.12 1024.06 162.12ZM1024.06 160.86C1024.6 160.86 1025 160.612 1025.26 160.116C1025.52 159.612 1025.66 158.82 1025.66 157.74C1025.66 156.668 1025.52 155.892 1025.26 155.412C1025 154.924 1024.6 154.68 1024.06 154.68C1023.52 154.68 1023.12 154.924 1022.86 155.412C1022.6 155.892 1022.46 156.672 1022.46 157.752C1022.46 158.824 1022.6 159.612 1022.86 160.116C1023.12 160.612 1023.52 160.86 1024.06 160.86ZM1031.35 162.336L1030.37 161.76L1035.31 153.204L1036.28 153.78L1031.35 162.336ZM1030.32 158.592C1029.87 158.592 1029.49 158.488 1029.17 158.28C1028.85 158.072 1028.6 157.776 1028.44 157.392C1028.27 157 1028.18 156.536 1028.18 156C1028.18 155.2 1028.37 154.572 1028.75 154.116C1029.12 153.652 1029.65 153.42 1030.32 153.42C1030.77 153.42 1031.15 153.524 1031.47 153.732C1031.79 153.94 1032.04 154.236 1032.2 154.62C1032.37 155.004 1032.46 155.464 1032.46 156C1032.46 156.536 1032.37 157 1032.2 157.392C1032.04 157.776 1031.79 158.072 1031.47 158.28C1031.15 158.488 1030.77 158.592 1030.32 158.592ZM1030.32 157.584C1030.61 157.584 1030.83 157.456 1030.99 157.2C1031.15 156.936 1031.23 156.536 1031.23 156C1031.23 155.464 1031.15 155.068 1030.99 154.812C1030.83 154.556 1030.61 154.428 1030.32 154.428C1030.03 154.428 1029.81 154.556 1029.65 154.812C1029.49 155.06 1029.41 155.456 1029.41 156C1029.41 156.544 1029.49 156.944 1029.65 157.2C1029.81 157.456 1030.03 157.584 1030.32 157.584ZM1036.34 162.12C1035.9 162.12 1035.51 162.016 1035.19 161.808C1034.87 161.6 1034.63 161.304 1034.46 160.92C1034.29 160.528 1034.21 160.064 1034.21 159.528C1034.21 158.728 1034.4 158.1 1034.77 157.644C1035.15 157.18 1035.67 156.948 1036.34 156.948C1036.79 156.948 1037.18 157.052 1037.5 157.26C1037.82 157.468 1038.06 157.764 1038.23 158.148C1038.4 158.532 1038.48 158.992 1038.48 159.528C1038.48 160.064 1038.4 160.528 1038.23 160.92C1038.06 161.304 1037.82 161.6 1037.5 161.808C1037.18 162.016 1036.79 162.12 1036.34 162.12ZM1036.34 161.112C1036.63 161.112 1036.86 160.984 1037.02 160.728C1037.18 160.464 1037.26 160.064 1037.26 159.528C1037.26 158.992 1037.18 158.596 1037.02 158.34C1036.86 158.084 1036.63 157.956 1036.34 157.956C1036.06 157.956 1035.83 158.084 1035.67 158.34C1035.51 158.588 1035.43 158.984 1035.43 159.528C1035.43 160.072 1035.51 160.472 1035.67 160.728C1035.83 160.984 1036.06 161.112 1036.34 161.112Z" fill="#808283"/>
<path d="M999.81 112.12C999.114 112.12 998.518 111.956 998.022 111.628C997.534 111.292 997.162 110.812 996.906 110.188C996.65 109.564 996.522 108.808 996.522 107.92C996.522 106.96 996.666 106.148 996.954 105.484C997.242 104.812 997.658 104.3 998.202 103.948C998.746 103.596 999.398 103.42 1000.16 103.42C1000.45 103.42 1000.75 103.46 1001.05 103.54C1001.35 103.612 1001.63 103.72 1001.9 103.864C1002.17 104 1002.41 104.168 1002.62 104.368L1002.11 105.52C1001.82 105.248 1001.5 105.048 1001.17 104.92C1000.83 104.784 1000.49 104.716 1000.13 104.716C999.79 104.716 999.482 104.78 999.21 104.908C998.946 105.028 998.722 105.212 998.538 105.46C998.354 105.7 998.214 106.004 998.118 106.372C998.03 106.732 997.986 107.152 997.986 107.632V108.532H997.842C997.906 108.124 998.038 107.776 998.238 107.488C998.446 107.192 998.71 106.968 999.03 106.816C999.35 106.656 999.706 106.576 1000.1 106.576C1000.59 106.576 1001.02 106.692 1001.39 106.924C1001.77 107.156 1002.07 107.476 1002.28 107.884C1002.5 108.292 1002.61 108.76 1002.61 109.288C1002.61 109.832 1002.49 110.32 1002.25 110.752C1002.01 111.176 1001.69 111.512 1001.26 111.76C1000.85 112 1000.36 112.12 999.81 112.12ZM999.726 110.896C1000.01 110.896 1000.27 110.832 1000.48 110.704C1000.71 110.576 1000.88 110.396 1001 110.164C1001.12 109.924 1001.18 109.652 1001.18 109.348C1001.18 109.036 1001.12 108.764 1001 108.532C1000.88 108.3 1000.71 108.12 1000.48 107.992C1000.27 107.856 1000.01 107.788 999.726 107.788C999.438 107.788 999.186 107.856 998.97 107.992C998.754 108.12 998.582 108.3 998.454 108.532C998.334 108.764 998.274 109.036 998.274 109.348C998.274 109.652 998.334 109.924 998.454 110.164C998.582 110.396 998.754 110.576 998.97 110.704C999.186 110.832 999.438 110.896 999.726 110.896ZM1006.69 112.12C1006.03 112.12 1005.47 111.952 1005 111.616C1004.55 111.272 1004.2 110.776 1003.96 110.128C1003.73 109.48 1003.61 108.688 1003.61 107.752C1003.61 106.808 1003.73 106.016 1003.96 105.376C1004.2 104.728 1004.55 104.24 1005 103.912C1005.47 103.584 1006.03 103.42 1006.69 103.42C1007.37 103.42 1007.93 103.584 1008.39 103.912C1008.85 104.24 1009.2 104.724 1009.43 105.364C1009.66 106.004 1009.78 106.796 1009.78 107.74C1009.78 108.676 1009.66 109.472 1009.42 110.128C1009.19 110.776 1008.84 111.272 1008.39 111.616C1007.93 111.952 1007.37 112.12 1006.69 112.12ZM1006.69 110.86C1007.24 110.86 1007.64 110.612 1007.89 110.116C1008.16 109.612 1008.29 108.82 1008.29 107.74C1008.29 106.668 1008.16 105.892 1007.89 105.412C1007.64 104.924 1007.24 104.68 1006.69 104.68C1006.16 104.68 1005.76 104.924 1005.49 105.412C1005.23 105.892 1005.1 106.672 1005.1 107.752C1005.1 108.824 1005.23 109.612 1005.49 110.116C1005.76 110.612 1006.16 110.86 1006.69 110.86ZM1010.94 112V110.332H1012.62V112H1010.94ZM1016.87 112.12C1016.2 112.12 1015.64 111.952 1015.17 111.616C1014.72 111.272 1014.37 110.776 1014.13 110.128C1013.9 109.48 1013.78 108.688 1013.78 107.752C1013.78 106.808 1013.9 106.016 1014.13 105.376C1014.37 104.728 1014.72 104.24 1015.17 103.912C1015.64 103.584 1016.2 103.42 1016.87 103.42C1017.54 103.42 1018.1 103.584 1018.56 103.912C1019.02 104.24 1019.37 104.724 1019.6 105.364C1019.83 106.004 1019.95 106.796 1019.95 107.74C1019.95 108.676 1019.83 109.472 1019.59 110.128C1019.36 110.776 1019.01 111.272 1018.56 111.616C1018.1 111.952 1017.54 112.12 1016.87 112.12ZM1016.87 110.86C1017.41 110.86 1017.81 110.612 1018.07 110.116C1018.33 109.612 1018.46 108.82 1018.46 107.74C1018.46 106.668 1018.33 105.892 1018.07 105.412C1017.81 104.924 1017.41 104.68 1016.87 104.68C1016.33 104.68 1015.93 104.924 1015.67 105.412C1015.4 105.892 1015.27 106.672 1015.27 107.752C1015.27 108.824 1015.4 109.612 1015.67 110.116C1015.93 110.612 1016.33 110.86 1016.87 110.86ZM1024.06 112.12C1023.4 112.12 1022.83 111.952 1022.37 111.616C1021.91 111.272 1021.56 110.776 1021.32 110.128C1021.09 109.48 1020.98 108.688 1020.98 107.752C1020.98 106.808 1021.09 106.016 1021.32 105.376C1021.56 104.728 1021.91 104.24 1022.37 103.912C1022.83 103.584 1023.4 103.42 1024.06 103.42C1024.73 103.42 1025.3 103.584 1025.75 103.912C1026.22 104.24 1026.56 104.724 1026.8 105.364C1027.03 106.004 1027.14 106.796 1027.14 107.74C1027.14 108.676 1027.02 109.472 1026.78 110.128C1026.55 110.776 1026.21 111.272 1025.75 111.616C1025.3 111.952 1024.73 112.12 1024.06 112.12ZM1024.06 110.86C1024.6 110.86 1025 110.612 1025.26 110.116C1025.52 109.612 1025.66 108.82 1025.66 107.74C1025.66 106.668 1025.52 105.892 1025.26 105.412C1025 104.924 1024.6 104.68 1024.06 104.68C1023.52 104.68 1023.12 104.924 1022.86 105.412C1022.6 105.892 1022.46 106.672 1022.46 107.752C1022.46 108.824 1022.6 109.612 1022.86 110.116C1023.12 110.612 1023.52 110.86 1024.06 110.86ZM1031.35 112.336L1030.37 111.76L1035.31 103.204L1036.28 103.78L1031.35 112.336ZM1030.32 108.592C1029.87 108.592 1029.49 108.488 1029.17 108.28C1028.85 108.072 1028.6 107.776 1028.44 107.392C1028.27 107 1028.18 106.536 1028.18 106C1028.18 105.2 1028.37 104.572 1028.75 104.116C1029.12 103.652 1029.65 103.42 1030.32 103.42C1030.77 103.42 1031.15 103.524 1031.47 103.732C1031.79 103.94 1032.04 104.236 1032.2 104.62C1032.37 105.004 1032.46 105.464 1032.46 106C1032.46 106.536 1032.37 107 1032.2 107.392C1032.04 107.776 1031.79 108.072 1031.47 108.28C1031.15 108.488 1030.77 108.592 1030.32 108.592ZM1030.32 107.584C1030.61 107.584 1030.83 107.456 1030.99 107.2C1031.15 106.936 1031.23 106.536 1031.23 106C1031.23 105.464 1031.15 105.068 1030.99 104.812C1030.83 104.556 1030.61 104.428 1030.32 104.428C1030.03 104.428 1029.81 104.556 1029.65 104.812C1029.49 105.06 1029.41 105.456 1029.41 106C1029.41 106.544 1029.49 106.944 1029.65 107.2C1029.81 107.456 1030.03 107.584 1030.32 107.584ZM1036.34 112.12C1035.9 112.12 1035.51 112.016 1035.19 111.808C1034.87 111.6 1034.63 111.304 1034.46 110.92C1034.29 110.528 1034.21 110.064 1034.21 109.528C1034.21 108.728 1034.4 108.1 1034.77 107.644C1035.15 107.18 1035.67 106.948 1036.34 106.948C1036.79 106.948 1037.18 107.052 1037.5 107.26C1037.82 107.468 1038.06 107.764 1038.23 108.148C1038.4 108.532 1038.48 108.992 1038.48 109.528C1038.48 110.064 1038.4 110.528 1038.23 110.92C1038.06 111.304 1037.82 111.6 1037.5 111.808C1037.18 112.016 1036.79 112.12 1036.34 112.12ZM1036.34 111.112C1036.63 111.112 1036.86 110.984 1037.02 110.728C1037.18 110.464 1037.26 110.064 1037.26 109.528C1037.26 108.992 1037.18 108.596 1037.02 108.34C1036.86 108.084 1036.63 107.956 1036.34 107.956C1036.06 107.956 1035.83 108.084 1035.67 108.34C1035.51 108.588 1035.43 108.984 1035.43 109.528C1035.43 110.072 1035.51 110.472 1035.67 110.728C1035.83 110.984 1036.06 111.112 1036.34 111.112Z" fill="#808283"/>
<path d="M999.498 62.12C998.514 62.12 997.742 61.908 997.182 61.484C996.63 61.06 996.354 60.472 996.354 59.72C996.354 59.32 996.434 58.968 996.594 58.664C996.762 58.352 996.99 58.1 997.278 57.908C997.566 57.716 997.894 57.596 998.262 57.548V57.8C997.926 57.728 997.63 57.596 997.374 57.404C997.118 57.204 996.918 56.96 996.774 56.672C996.638 56.376 996.57 56.052 996.57 55.7C996.57 54.988 996.834 54.432 997.362 54.032C997.89 53.624 998.606 53.42 999.51 53.42C1000.41 53.42 1001.12 53.624 1001.65 54.032C1002.17 54.432 1002.44 54.988 1002.44 55.7C1002.44 56.052 1002.37 56.376 1002.22 56.672C1002.09 56.968 1001.89 57.212 1001.63 57.404C1001.39 57.596 1001.09 57.724 1000.76 57.788V57.548C1001.13 57.596 1001.46 57.72 1001.74 57.92C1002.02 58.112 1002.24 58.364 1002.4 58.676C1002.56 58.98 1002.64 59.328 1002.64 59.72C1002.64 60.472 1002.36 61.06 1001.8 61.484C1001.25 61.908 1000.48 62.12 999.498 62.12ZM999.498 60.92C1000.07 60.92 1000.49 60.812 1000.78 60.596C1001.07 60.372 1001.21 60.044 1001.21 59.612C1001.21 59.18 1001.07 58.856 1000.78 58.64C1000.49 58.424 1000.07 58.316 999.498 58.316C998.938 58.316 998.51 58.424 998.214 58.64C997.926 58.856 997.782 59.18 997.782 59.612C997.782 60.044 997.926 60.372 998.214 60.596C998.51 60.812 998.938 60.92 999.498 60.92ZM999.498 57.116C999.97 57.116 1000.34 57.004 1000.6 56.78C1000.87 56.556 1001.01 56.248 1001.01 55.856C1001.01 55.472 1000.87 55.172 1000.6 54.956C1000.34 54.732 999.97 54.62 999.498 54.62C999.026 54.62 998.658 54.732 998.394 54.956C998.13 55.172 997.998 55.476 997.998 55.868C997.998 56.252 998.13 56.556 998.394 56.78C998.658 57.004 999.026 57.116 999.498 57.116ZM1006.69 62.12C1006.03 62.12 1005.47 61.952 1005 61.616C1004.55 61.272 1004.2 60.776 1003.96 60.128C1003.73 59.48 1003.61 58.688 1003.61 57.752C1003.61 56.808 1003.73 56.016 1003.96 55.376C1004.2 54.728 1004.55 54.24 1005 53.912C1005.47 53.584 1006.03 53.42 1006.69 53.42C1007.37 53.42 1007.93 53.584 1008.39 53.912C1008.85 54.24 1009.2 54.724 1009.43 55.364C1009.66 56.004 1009.78 56.796 1009.78 57.74C1009.78 58.676 1009.66 59.472 1009.42 60.128C1009.19 60.776 1008.84 61.272 1008.39 61.616C1007.93 61.952 1007.37 62.12 1006.69 62.12ZM1006.69 60.86C1007.24 60.86 1007.64 60.612 1007.89 60.116C1008.16 59.612 1008.29 58.82 1008.29 57.74C1008.29 56.668 1008.16 55.892 1007.89 55.412C1007.64 54.924 1007.24 54.68 1006.69 54.68C1006.16 54.68 1005.76 54.924 1005.49 55.412C1005.23 55.892 1005.1 56.672 1005.1 57.752C1005.1 58.824 1005.23 59.612 1005.49 60.116C1005.76 60.612 1006.16 60.86 1006.69 60.86ZM1010.94 62V60.332H1012.62V62H1010.94ZM1016.87 62.12C1016.2 62.12 1015.64 61.952 1015.17 61.616C1014.72 61.272 1014.37 60.776 1014.13 60.128C1013.9 59.48 1013.78 58.688 1013.78 57.752C1013.78 56.808 1013.9 56.016 1014.13 55.376C1014.37 54.728 1014.72 54.24 1015.17 53.912C1015.64 53.584 1016.2 53.42 1016.87 53.42C1017.54 53.42 1018.1 53.584 1018.56 53.912C1019.02 54.24 1019.37 54.724 1019.6 55.364C1019.83 56.004 1019.95 56.796 1019.95 57.74C1019.95 58.676 1019.83 59.472 1019.59 60.128C1019.36 60.776 1019.01 61.272 1018.56 61.616C1018.1 61.952 1017.54 62.12 1016.87 62.12ZM1016.87 60.86C1017.41 60.86 1017.81 60.612 1018.07 60.116C1018.33 59.612 1018.46 58.82 1018.46 57.74C1018.46 56.668 1018.33 55.892 1018.07 55.412C1017.81 54.924 1017.41 54.68 1016.87 54.68C1016.33 54.68 1015.93 54.924 1015.67 55.412C1015.4 55.892 1015.27 56.672 1015.27 57.752C1015.27 58.824 1015.4 59.612 1015.67 60.116C1015.93 60.612 1016.33 60.86 1016.87 60.86ZM1024.06 62.12C1023.4 62.12 1022.83 61.952 1022.37 61.616C1021.91 61.272 1021.56 60.776 1021.32 60.128C1021.09 59.48 1020.98 58.688 1020.98 57.752C1020.98 56.808 1021.09 56.016 1021.32 55.376C1021.56 54.728 1021.91 54.24 1022.37 53.912C1022.83 53.584 1023.4 53.42 1024.06 53.42C1024.73 53.42 1025.3 53.584 1025.75 53.912C1026.22 54.24 1026.56 54.724 1026.8 55.364C1027.03 56.004 1027.14 56.796 1027.14 57.74C1027.14 58.676 1027.02 59.472 1026.78 60.128C1026.55 60.776 1026.21 61.272 1025.75 61.616C1025.3 61.952 1024.73 62.12 1024.06 62.12ZM1024.06 60.86C1024.6 60.86 1025 60.612 1025.26 60.116C1025.52 59.612 1025.66 58.82 1025.66 57.74C1025.66 56.668 1025.52 55.892 1025.26 55.412C1025 54.924 1024.6 54.68 1024.06 54.68C1023.52 54.68 1023.12 54.924 1022.86 55.412C1022.6 55.892 1022.46 56.672 1022.46 57.752C1022.46 58.824 1022.6 59.612 1022.86 60.116C1023.12 60.612 1023.52 60.86 1024.06 60.86ZM1031.35 62.336L1030.37 61.76L1035.31 53.204L1036.28 53.78L1031.35 62.336ZM1030.32 58.592C1029.87 58.592 1029.49 58.488 1029.17 58.28C1028.85 58.072 1028.6 57.776 1028.44 57.392C1028.27 57 1028.18 56.536 1028.18 56C1028.18 55.2 1028.37 54.572 1028.75 54.116C1029.12 53.652 1029.65 53.42 1030.32 53.42C1030.77 53.42 1031.15 53.524 1031.47 53.732C1031.79 53.94 1032.04 54.236 1032.2 54.62C1032.37 55.004 1032.46 55.464 1032.46 56C1032.46 56.536 1032.37 57 1032.2 57.392C1032.04 57.776 1031.79 58.072 1031.47 58.28C1031.15 58.488 1030.77 58.592 1030.32 58.592ZM1030.32 57.584C1030.61 57.584 1030.83 57.456 1030.99 57.2C1031.15 56.936 1031.23 56.536 1031.23 56C1031.23 55.464 1031.15 55.068 1030.99 54.812C1030.83 54.556 1030.61 54.428 1030.32 54.428C1030.03 54.428 1029.81 54.556 1029.65 54.812C1029.49 55.06 1029.41 55.456 1029.41 56C1029.41 56.544 1029.49 56.944 1029.65 57.2C1029.81 57.456 1030.03 57.584 1030.32 57.584ZM1036.34 62.12C1035.9 62.12 1035.51 62.016 1035.19 61.808C1034.87 61.6 1034.63 61.304 1034.46 60.92C1034.29 60.528 1034.21 60.064 1034.21 59.528C1034.21 58.728 1034.4 58.1 1034.77 57.644C1035.15 57.18 1035.67 56.948 1036.34 56.948C1036.79 56.948 1037.18 57.052 1037.5 57.26C1037.82 57.468 1038.06 57.764 1038.23 58.148C1038.4 58.532 1038.48 58.992 1038.48 59.528C1038.48 60.064 1038.4 60.528 1038.23 60.92C1038.06 61.304 1037.82 61.6 1037.5 61.808C1037.18 62.016 1036.79 62.12 1036.34 62.12ZM1036.34 61.112C1036.63 61.112 1036.86 60.984 1037.02 60.728C1037.18 60.464 1037.26 60.064 1037.26 59.528C1037.26 58.992 1037.18 58.596 1037.02 58.34C1036.86 58.084 1036.63 57.956 1036.34 57.956C1036.06 57.956 1035.83 58.084 1035.67 58.34C1035.51 58.588 1035.43 58.984 1035.43 59.528C1035.43 60.072 1035.51 60.472 1035.67 60.728C1035.83 60.984 1036.06 61.112 1036.34 61.112Z" fill="#808283"/>
<path d="M990.011 12V10.728H991.919V4.836H992.663L990.443 6.18L989.843 5.052L992.363 3.54H993.455V10.728H995.243V12H990.011ZM999.498 12.12C998.834 12.12 998.27 11.952 997.806 11.616C997.35 11.272 997.002 10.776 996.762 10.128C996.53 9.48 996.414 8.688 996.414 7.752C996.414 6.808 996.53 6.016 996.762 5.376C997.002 4.728 997.35 4.24 997.806 3.912C998.27 3.584 998.834 3.42 999.498 3.42C1000.17 3.42 1000.73 3.584 1001.19 3.912C1001.65 4.24 1002 4.724 1002.23 5.364C1002.47 6.004 1002.58 6.796 1002.58 7.74C1002.58 8.676 1002.46 9.472 1002.22 10.128C1001.99 10.776 1001.65 11.272 1001.19 11.616C1000.73 11.952 1000.17 12.12 999.498 12.12ZM999.498 10.86C1000.04 10.86 1000.44 10.612 1000.7 10.116C1000.96 9.612 1001.09 8.82 1001.09 7.74C1001.09 6.668 1000.96 5.892 1000.7 5.412C1000.44 4.924 1000.04 4.68 999.498 4.68C998.962 4.68 998.562 4.924 998.298 5.412C998.034 5.892 997.902 6.672 997.902 7.752C997.902 8.824 998.034 9.612 998.298 10.116C998.562 10.612 998.962 10.86 999.498 10.86ZM1006.69 12.12C1006.03 12.12 1005.47 11.952 1005 11.616C1004.55 11.272 1004.2 10.776 1003.96 10.128C1003.73 9.48 1003.61 8.688 1003.61 7.752C1003.61 6.808 1003.73 6.016 1003.96 5.376C1004.2 4.728 1004.55 4.24 1005 3.912C1005.47 3.584 1006.03 3.42 1006.69 3.42C1007.37 3.42 1007.93 3.584 1008.39 3.912C1008.85 4.24 1009.2 4.724 1009.43 5.364C1009.66 6.004 1009.78 6.796 1009.78 7.74C1009.78 8.676 1009.66 9.472 1009.42 10.128C1009.19 10.776 1008.84 11.272 1008.39 11.616C1007.93 11.952 1007.37 12.12 1006.69 12.12ZM1006.69 10.86C1007.24 10.86 1007.64 10.612 1007.89 10.116C1008.16 9.612 1008.29 8.82 1008.29 7.74C1008.29 6.668 1008.16 5.892 1007.89 5.412C1007.64 4.924 1007.24 4.68 1006.69 4.68C1006.16 4.68 1005.76 4.924 1005.49 5.412C1005.23 5.892 1005.1 6.672 1005.1 7.752C1005.1 8.824 1005.23 9.612 1005.49 10.116C1005.76 10.612 1006.16 10.86 1006.69 10.86ZM1010.94 12V10.332H1012.62V12H1010.94ZM1016.87 12.12C1016.2 12.12 1015.64 11.952 1015.17 11.616C1014.72 11.272 1014.37 10.776 1014.13 10.128C1013.9 9.48 1013.78 8.688 1013.78 7.752C1013.78 6.808 1013.9 6.016 1014.13 5.376C1014.37 4.728 1014.72 4.24 1015.17 3.912C1015.64 3.584 1016.2 3.42 1016.87 3.42C1017.54 3.42 1018.1 3.584 1018.56 3.912C1019.02 4.24 1019.37 4.724 1019.6 5.364C1019.83 6.004 1019.95 6.796 1019.95 7.74C1019.95 8.676 1019.83 9.472 1019.59 10.128C1019.36 10.776 1019.01 11.272 1018.56 11.616C1018.1 11.952 1017.54 12.12 1016.87 12.12ZM1016.87 10.86C1017.41 10.86 1017.81 10.612 1018.07 10.116C1018.33 9.612 1018.46 8.82 1018.46 7.74C1018.46 6.668 1018.33 5.892 1018.07 5.412C1017.81 4.924 1017.41 4.68 1016.87 4.68C1016.33 4.68 1015.93 4.924 1015.67 5.412C1015.4 5.892 1015.27 6.672 1015.27 7.752C1015.27 8.824 1015.4 9.612 1015.67 10.116C1015.93 10.612 1016.33 10.86 1016.87 10.86ZM1024.06 12.12C1023.4 12.12 1022.83 11.952 1022.37 11.616C1021.91 11.272 1021.56 10.776 1021.32 10.128C1021.09 9.48 1020.98 8.688 1020.98 7.752C1020.98 6.808 1021.09 6.016 1021.32 5.376C1021.56 4.728 1021.91 4.24 1022.37 3.912C1022.83 3.584 1023.4 3.42 1024.06 3.42C1024.73 3.42 1025.3 3.584 1025.75 3.912C1026.22 4.24 1026.56 4.724 1026.8 5.364C1027.03 6.004 1027.14 6.796 1027.14 7.74C1027.14 8.676 1027.02 9.472 1026.78 10.128C1026.55 10.776 1026.21 11.272 1025.75 11.616C1025.3 11.952 1024.73 12.12 1024.06 12.12ZM1024.06 10.86C1024.6 10.86 1025 10.612 1025.26 10.116C1025.52 9.612 1025.66 8.82 1025.66 7.74C1025.66 6.668 1025.52 5.892 1025.26 5.412C1025 4.924 1024.6 4.68 1024.06 4.68C1023.52 4.68 1023.12 4.924 1022.86 5.412C1022.6 5.892 1022.46 6.672 1022.46 7.752C1022.46 8.824 1022.6 9.612 1022.86 10.116C1023.12 10.612 1023.52 10.86 1024.06 10.86ZM1031.35 12.336L1030.37 11.76L1035.31 3.204L1036.28 3.78L1031.35 12.336ZM1030.32 8.592C1029.87 8.592 1029.49 8.488 1029.17 8.28C1028.85 8.072 1028.6 7.776 1028.44 7.392C1028.27 7 1028.18 6.536 1028.18 6C1028.18 5.2 1028.37 4.572 1028.75 4.116C1029.12 3.652 1029.65 3.42 1030.32 3.42C1030.77 3.42 1031.15 3.524 1031.47 3.732C1031.79 3.94 1032.04 4.236 1032.2 4.62C1032.37 5.004 1032.46 5.464 1032.46 6C1032.46 6.536 1032.37 7 1032.2 7.392C1032.04 7.776 1031.79 8.072 1031.47 8.28C1031.15 8.488 1030.77 8.592 1030.32 8.592ZM1030.32 7.584C1030.61 7.584 1030.83 7.456 1030.99 7.2C1031.15 6.936 1031.23 6.536 1031.23 6C1031.23 5.464 1031.15 5.068 1030.99 4.812C1030.83 4.556 1030.61 4.428 1030.32 4.428C1030.03 4.428 1029.81 4.556 1029.65 4.812C1029.49 5.06 1029.41 5.456 1029.41 6C1029.41 6.544 1029.49 6.944 1029.65 7.2C1029.81 7.456 1030.03 7.584 1030.32 7.584ZM1036.34 12.12C1035.9 12.12 1035.51 12.016 1035.19 11.808C1034.87 11.6 1034.63 11.304 1034.46 10.92C1034.29 10.528 1034.21 10.064 1034.21 9.528C1034.21 8.728 1034.4 8.1 1034.77 7.644C1035.15 7.18 1035.67 6.948 1036.34 6.948C1036.79 6.948 1037.18 7.052 1037.5 7.26C1037.82 7.468 1038.06 7.764 1038.23 8.148C1038.4 8.532 1038.48 8.992 1038.48 9.528C1038.48 10.064 1038.4 10.528 1038.23 10.92C1038.06 11.304 1037.82 11.6 1037.5 11.808C1037.18 12.016 1036.79 12.12 1036.34 12.12ZM1036.34 11.112C1036.63 11.112 1036.86 10.984 1037.02 10.728C1037.18 10.464 1037.26 10.064 1037.26 9.528C1037.26 8.992 1037.18 8.596 1037.02 8.34C1036.86 8.084 1036.63 7.956 1036.34 7.956C1036.06 7.956 1035.83 8.084 1035.67 8.34C1035.51 8.588 1035.43 8.984 1035.43 9.528C1035.43 10.072 1035.51 10.472 1035.67 10.728C1035.83 10.984 1036.06 11.112 1036.34 11.112Z" fill="#808283"/>
<rect x="52" y="259" width="1" height="8" fill="white" fill-opacity="0.16"/>
<path d="M31.1364 283.108L31.0284 281.848L31.8804 281.8C32.1204 281.784 32.3164 281.732 32.4684 281.644C32.6284 281.548 32.7484 281.416 32.8284 281.248C32.9084 281.072 32.9484 280.864 32.9484 280.624V274.54H34.4844V280.612C34.4844 281.116 34.3964 281.544 34.2204 281.896C34.0444 282.248 33.7804 282.52 33.4284 282.712C33.0764 282.904 32.6404 283.02 32.1204 283.06L31.1364 283.108ZM35.4261 283L39.2541 274.54H40.5141L44.3421 283H42.7821L41.7621 280.624L42.4101 281.044H37.3461L37.9941 280.624L36.9861 283H35.4261ZM39.8661 276.208L38.1861 280.204L37.8741 279.82H41.8821L41.5821 280.204L39.8901 276.208H39.8661ZM45.2678 283V274.54H46.4198L51.2798 280.852H50.9678V274.54H52.3958V283H51.2558L46.3958 276.676H46.6958V283H45.2678ZM57.5027 278.02L57.1427 274.54H58.8827L58.5227 278.02H57.5027ZM60.7689 283V281.728H62.6769V275.836H63.4209L61.2009 277.18L60.6009 276.052L63.1209 274.54H64.2129V281.728H66.0009V283H60.7689ZM70.8443 283V281.392H67.1603V280.264L71.1083 274.54H72.3803V280.12H73.5683V281.392H72.3803V283H70.8443ZM70.8443 280.12V276.376H71.1923L68.3603 280.528V280.12H70.8443Z" fill="#808283"/>
<rect x="175" y="259" width="1" height="8" fill="white" fill-opacity="0.16"/>
<path d="M154.136 283.108L154.028 281.848L154.88 281.8C155.12 281.784 155.316 281.732 155.468 281.644C155.628 281.548 155.748 281.416 155.828 281.248C155.908 281.072 155.948 280.864 155.948 280.624V274.54H157.484V280.612C157.484 281.116 157.396 281.544 157.22 281.896C157.044 282.248 156.78 282.52 156.428 282.712C156.076 282.904 155.64 283.02 155.12 283.06L154.136 283.108ZM158.426 283L162.254 274.54H163.514L167.342 283H165.782L164.762 280.624L165.41 281.044H160.346L160.994 280.624L159.986 283H158.426ZM162.866 276.208L161.186 280.204L160.874 279.82H164.882L164.582 280.204L162.89 276.208H162.866ZM168.268 283V274.54H169.42L174.28 280.852H173.968V274.54H175.396V283H174.256L169.396 276.676H169.696V283H168.268ZM180.503 278.02L180.143 274.54H181.883L181.523 278.02H180.503ZM183.769 283V281.728H185.677V275.836H186.421L184.201 277.18L183.601 276.052L186.121 274.54H187.213V281.728H189.001V283H183.769ZM193.568 283.12C192.872 283.12 192.276 282.956 191.78 282.628C191.292 282.292 190.92 281.812 190.664 281.188C190.408 280.564 190.28 279.808 190.28 278.92C190.28 277.96 190.424 277.148 190.712 276.484C191 275.812 191.416 275.3 191.96 274.948C192.504 274.596 193.156 274.42 193.916 274.42C194.212 274.42 194.508 274.46 194.804 274.54C195.108 274.612 195.392 274.72 195.656 274.864C195.928 275 196.168 275.168 196.376 275.368L195.872 276.52C195.576 276.248 195.26 276.048 194.924 275.92C194.588 275.784 194.244 275.716 193.892 275.716C193.548 275.716 193.24 275.78 192.968 275.908C192.704 276.028 192.48 276.212 192.296 276.46C192.112 276.7 191.972 277.004 191.876 277.372C191.788 277.732 191.744 278.152 191.744 278.632V279.532H191.6C191.664 279.124 191.796 278.776 191.996 278.488C192.204 278.192 192.468 277.968 192.788 277.816C193.108 277.656 193.464 277.576 193.856 277.576C194.344 277.576 194.776 277.692 195.152 277.924C195.528 278.156 195.824 278.476 196.04 278.884C196.256 279.292 196.364 279.76 196.364 280.288C196.364 280.832 196.244 281.32 196.004 281.752C195.772 282.176 195.444 282.512 195.02 282.76C194.604 283 194.12 283.12 193.568 283.12ZM193.484 281.896C193.772 281.896 194.024 281.832 194.24 281.704C194.464 281.576 194.636 281.396 194.756 281.164C194.876 280.924 194.936 280.652 194.936 280.348C194.936 280.036 194.876 279.764 194.756 279.532C194.636 279.3 194.464 279.12 194.24 278.992C194.024 278.856 193.772 278.788 193.484 278.788C193.196 278.788 192.944 278.856 192.728 278.992C192.512 279.12 192.34 279.3 192.212 279.532C192.092 279.764 192.032 280.036 192.032 280.348C192.032 280.652 192.092 280.924 192.212 281.164C192.34 281.396 192.512 281.576 192.728 281.704C192.944 281.832 193.196 281.896 193.484 281.896Z" fill="#808283"/>
<rect x="298" y="259" width="1" height="8" fill="white" fill-opacity="0.16"/>
<path d="M277.136 283.108L277.028 281.848L277.88 281.8C278.12 281.784 278.316 281.732 278.468 281.644C278.628 281.548 278.748 281.416 278.828 281.248C278.908 281.072 278.948 280.864 278.948 280.624V274.54H280.484V280.612C280.484 281.116 280.396 281.544 280.22 281.896C280.044 282.248 279.78 282.52 279.428 282.712C279.076 282.904 278.64 283.02 278.12 283.06L277.136 283.108ZM281.426 283L285.254 274.54H286.514L290.342 283H288.782L287.762 280.624L288.41 281.044H283.346L283.994 280.624L282.986 283H281.426ZM285.866 276.208L284.186 280.204L283.874 279.82H287.882L287.582 280.204L285.89 276.208H285.866ZM291.268 283V274.54H292.42L297.28 280.852H296.968V274.54H298.396V283H297.256L292.396 276.676H292.696V283H291.268ZM303.503 278.02L303.143 274.54H304.883L304.523 278.02H303.503ZM306.769 283V281.728H308.677V275.836H309.421L307.201 277.18L306.601 276.052L309.121 274.54H310.213V281.728H312.001V283H306.769ZM316.256 283.12C315.272 283.12 314.5 282.908 313.94 282.484C313.388 282.06 313.112 281.472 313.112 280.72C313.112 280.32 313.192 279.968 313.352 279.664C313.52 279.352 313.748 279.1 314.036 278.908C314.324 278.716 314.652 278.596 315.02 278.548V278.8C314.684 278.728 314.388 278.596 314.132 278.404C313.876 278.204 313.676 277.96 313.532 277.672C313.396 277.376 313.328 277.052 313.328 276.7C313.328 275.988 313.592 275.432 314.12 275.032C314.648 274.624 315.364 274.42 316.268 274.42C317.164 274.42 317.876 274.624 318.404 275.032C318.932 275.432 319.196 275.988 319.196 276.7C319.196 277.052 319.124 277.376 318.98 277.672C318.844 277.968 318.648 278.212 318.392 278.404C318.144 278.596 317.852 278.724 317.516 278.788V278.548C317.892 278.596 318.22 278.72 318.5 278.92C318.78 279.112 319 279.364 319.16 279.676C319.32 279.98 319.4 280.328 319.4 280.72C319.4 281.472 319.12 282.06 318.56 282.484C318.008 282.908 317.24 283.12 316.256 283.12ZM316.256 281.92C316.824 281.92 317.252 281.812 317.54 281.596C317.828 281.372 317.972 281.044 317.972 280.612C317.972 280.18 317.828 279.856 317.54 279.64C317.252 279.424 316.824 279.316 316.256 279.316C315.696 279.316 315.268 279.424 314.972 279.64C314.684 279.856 314.54 280.18 314.54 280.612C314.54 281.044 314.684 281.372 314.972 281.596C315.268 281.812 315.696 281.92 316.256 281.92ZM316.256 278.116C316.728 278.116 317.096 278.004 317.36 277.78C317.632 277.556 317.768 277.248 317.768 276.856C317.768 276.472 317.632 276.172 317.36 275.956C317.096 275.732 316.728 275.62 316.256 275.62C315.784 275.62 315.416 275.732 315.152 275.956C314.888 276.172 314.756 276.476 314.756 276.868C314.756 277.252 314.888 277.556 315.152 277.78C315.416 278.004 315.784 278.116 316.256 278.116Z" fill="#808283"/>
<rect x="421" y="259" width="1" height="8" fill="white" fill-opacity="0.16"/>
<path d="M400.136 283.108L400.028 281.848L400.88 281.8C401.12 281.784 401.316 281.732 401.468 281.644C401.628 281.548 401.748 281.416 401.828 281.248C401.908 281.072 401.948 280.864 401.948 280.624V274.54H403.484V280.612C403.484 281.116 403.396 281.544 403.22 281.896C403.044 282.248 402.78 282.52 402.428 282.712C402.076 282.904 401.64 283.02 401.12 283.06L400.136 283.108ZM404.426 283L408.254 274.54H409.514L413.342 283H411.782L410.762 280.624L411.41 281.044H406.346L406.994 280.624L405.986 283H404.426ZM408.866 276.208L407.186 280.204L406.874 279.82H410.882L410.582 280.204L408.89 276.208H408.866ZM414.268 283V274.54H415.42L420.28 280.852H419.968V274.54H421.396V283H420.256L415.396 276.676H415.696V283H414.268ZM426.503 278.02L426.143 274.54H427.883L427.523 278.02H426.503ZM429.421 283V281.86L432.157 278.944C432.405 278.68 432.601 278.436 432.745 278.212C432.897 277.988 433.009 277.772 433.081 277.564C433.153 277.356 433.189 277.148 433.189 276.94C433.189 276.54 433.061 276.236 432.805 276.028C432.557 275.82 432.193 275.716 431.713 275.716C431.337 275.716 430.969 275.788 430.609 275.932C430.257 276.068 429.917 276.284 429.589 276.58L429.073 275.428C429.409 275.124 429.829 274.88 430.333 274.696C430.837 274.512 431.361 274.42 431.905 274.42C432.513 274.42 433.025 274.512 433.441 274.696C433.857 274.88 434.173 275.148 434.389 275.5C434.605 275.852 434.713 276.28 434.713 276.784C434.713 277.04 434.681 277.292 434.617 277.54C434.561 277.78 434.469 278.02 434.341 278.26C434.221 278.5 434.065 278.748 433.873 279.004C433.689 279.252 433.465 279.512 433.201 279.784L430.945 282.136V281.728H435.037V283H429.421ZM439.256 283.12C438.592 283.12 438.028 282.952 437.564 282.616C437.108 282.272 436.76 281.776 436.52 281.128C436.288 280.48 436.172 279.688 436.172 278.752C436.172 277.808 436.288 277.016 436.52 276.376C436.76 275.728 437.108 275.24 437.564 274.912C438.028 274.584 438.592 274.42 439.256 274.42C439.928 274.42 440.492 274.584 440.948 274.912C441.412 275.24 441.76 275.724 441.992 276.364C442.224 277.004 442.34 277.796 442.34 278.74C442.34 279.676 442.22 280.472 441.98 281.128C441.748 281.776 441.404 282.272 440.948 282.616C440.492 282.952 439.928 283.12 439.256 283.12ZM439.256 281.86C439.8 281.86 440.2 281.612 440.456 281.116C440.72 280.612 440.852 279.82 440.852 278.74C440.852 277.668 440.72 276.892 440.456 276.412C440.2 275.924 439.8 275.68 439.256 275.68C438.72 275.68 438.32 275.924 438.056 276.412C437.792 276.892 437.66 277.672 437.66 278.752C437.66 279.824 437.792 280.612 438.056 281.116C438.32 281.612 438.72 281.86 439.256 281.86Z" fill="#808283"/>
<rect x="544" y="259" width="1" height="8" fill="white" fill-opacity="0.16"/>
<path d="M523.136 283.108L523.028 281.848L523.88 281.8C524.12 281.784 524.316 281.732 524.468 281.644C524.628 281.548 524.748 281.416 524.828 281.248C524.908 281.072 524.948 280.864 524.948 280.624V274.54H526.484V280.612C526.484 281.116 526.396 281.544 526.22 281.896C526.044 282.248 525.78 282.52 525.428 282.712C525.076 282.904 524.64 283.02 524.12 283.06L523.136 283.108ZM527.426 283L531.254 274.54H532.514L536.342 283H534.782L533.762 280.624L534.41 281.044H529.346L529.994 280.624L528.986 283H527.426ZM531.866 276.208L530.186 280.204L529.874 279.82H533.882L533.582 280.204L531.89 276.208H531.866ZM537.268 283V274.54H538.42L543.28 280.852H542.968V274.54H544.396V283H543.256L538.396 276.676H538.696V283H537.268ZM549.503 278.02L549.143 274.54H550.883L550.523 278.02H549.503ZM552.421 283V281.86L555.157 278.944C555.405 278.68 555.601 278.436 555.745 278.212C555.897 277.988 556.009 277.772 556.081 277.564C556.153 277.356 556.189 277.148 556.189 276.94C556.189 276.54 556.061 276.236 555.805 276.028C555.557 275.82 555.193 275.716 554.713 275.716C554.337 275.716 553.969 275.788 553.609 275.932C553.257 276.068 552.917 276.284 552.589 276.58L552.073 275.428C552.409 275.124 552.829 274.88 553.333 274.696C553.837 274.512 554.361 274.42 554.905 274.42C555.513 274.42 556.025 274.512 556.441 274.696C556.857 274.88 557.173 275.148 557.389 275.5C557.605 275.852 557.713 276.28 557.713 276.784C557.713 277.04 557.681 277.292 557.617 277.54C557.561 277.78 557.469 278.02 557.341 278.26C557.221 278.5 557.065 278.748 556.873 279.004C556.689 279.252 556.465 279.512 556.201 279.784L553.945 282.136V281.728H558.037V283H552.421ZM559.616 283V281.86L562.352 278.944C562.6 278.68 562.796 278.436 562.94 278.212C563.092 277.988 563.204 277.772 563.276 277.564C563.348 277.356 563.384 277.148 563.384 276.94C563.384 276.54 563.256 276.236 563 276.028C562.752 275.82 562.388 275.716 561.908 275.716C561.532 275.716 561.164 275.788 560.804 275.932C560.452 276.068 560.112 276.284 559.784 276.58L559.268 275.428C559.604 275.124 560.024 274.88 560.528 274.696C561.032 274.512 561.556 274.42 562.1 274.42C562.708 274.42 563.22 274.512 563.636 274.696C564.052 274.88 564.368 275.148 564.584 275.5C564.8 275.852 564.908 276.28 564.908 276.784C564.908 277.04 564.876 277.292 564.812 277.54C564.756 277.78 564.664 278.02 564.536 278.26C564.416 278.5 564.26 278.748 564.068 279.004C563.884 279.252 563.66 279.512 563.396 279.784L561.14 282.136V281.728H565.232V283H559.616Z" fill="#808283"/>
<rect x="667" y="259" width="1" height="8" fill="white" fill-opacity="0.16"/>
<path d="M646.136 283.108L646.028 281.848L646.88 281.8C647.12 281.784 647.316 281.732 647.468 281.644C647.628 281.548 647.748 281.416 647.828 281.248C647.908 281.072 647.948 280.864 647.948 280.624V274.54H649.484V280.612C649.484 281.116 649.396 281.544 649.22 281.896C649.044 282.248 648.78 282.52 648.428 282.712C648.076 282.904 647.64 283.02 647.12 283.06L646.136 283.108ZM650.426 283L654.254 274.54H655.514L659.342 283H657.782L656.762 280.624L657.41 281.044H652.346L652.994 280.624L651.986 283H650.426ZM654.866 276.208L653.186 280.204L652.874 279.82H656.882L656.582 280.204L654.89 276.208H654.866ZM660.268 283V274.54H661.42L666.28 280.852H665.968V274.54H667.396V283H666.256L661.396 276.676H661.696V283H660.268ZM672.503 278.02L672.143 274.54H673.883L673.523 278.02H672.503ZM675.421 283V281.86L678.157 278.944C678.405 278.68 678.601 278.436 678.745 278.212C678.897 277.988 679.009 277.772 679.081 277.564C679.153 277.356 679.189 277.148 679.189 276.94C679.189 276.54 679.061 276.236 678.805 276.028C678.557 275.82 678.193 275.716 677.713 275.716C677.337 275.716 676.969 275.788 676.609 275.932C676.257 276.068 675.917 276.284 675.589 276.58L675.073 275.428C675.409 275.124 675.829 274.88 676.333 274.696C676.837 274.512 677.361 274.42 677.905 274.42C678.513 274.42 679.025 274.512 679.441 274.696C679.857 274.88 680.173 275.148 680.389 275.5C680.605 275.852 680.713 276.28 680.713 276.784C680.713 277.04 680.681 277.292 680.617 277.54C680.561 277.78 680.469 278.02 680.341 278.26C680.221 278.5 680.065 278.748 679.873 279.004C679.689 279.252 679.465 279.512 679.201 279.784L676.945 282.136V281.728H681.037V283H675.421ZM685.844 283V281.392H682.16V280.264L686.108 274.54H687.38V280.12H688.568V281.392H687.38V283H685.844ZM685.844 280.12V276.376H686.192L683.36 280.528V280.12H685.844Z" fill="#808283"/>
<rect x="790" y="259" width="1" height="8" fill="white" fill-opacity="0.16"/>
<path d="M769.136 283.108L769.028 281.848L769.88 281.8C770.12 281.784 770.316 281.732 770.468 281.644C770.628 281.548 770.748 281.416 770.828 281.248C770.908 281.072 770.948 280.864 770.948 280.624V274.54H772.484V280.612C772.484 281.116 772.396 281.544 772.22 281.896C772.044 282.248 771.78 282.52 771.428 282.712C771.076 282.904 770.64 283.02 770.12 283.06L769.136 283.108ZM773.426 283L777.254 274.54H778.514L782.342 283H780.782L779.762 280.624L780.41 281.044H775.346L775.994 280.624L774.986 283H773.426ZM777.866 276.208L776.186 280.204L775.874 279.82H779.882L779.582 280.204L777.89 276.208H777.866ZM783.268 283V274.54H784.42L789.28 280.852H788.968V274.54H790.396V283H789.256L784.396 276.676H784.696V283H783.268ZM795.503 278.02L795.143 274.54H796.883L796.523 278.02H795.503ZM798.421 283V281.86L801.157 278.944C801.405 278.68 801.601 278.436 801.745 278.212C801.897 277.988 802.009 277.772 802.081 277.564C802.153 277.356 802.189 277.148 802.189 276.94C802.189 276.54 802.061 276.236 801.805 276.028C801.557 275.82 801.193 275.716 800.713 275.716C800.337 275.716 799.969 275.788 799.609 275.932C799.257 276.068 798.917 276.284 798.589 276.58L798.073 275.428C798.409 275.124 798.829 274.88 799.333 274.696C799.837 274.512 800.361 274.42 800.905 274.42C801.513 274.42 802.025 274.512 802.441 274.696C802.857 274.88 803.173 275.148 803.389 275.5C803.605 275.852 803.713 276.28 803.713 276.784C803.713 277.04 803.681 277.292 803.617 277.54C803.561 277.78 803.469 278.02 803.341 278.26C803.221 278.5 803.065 278.748 802.873 279.004C802.689 279.252 802.465 279.512 802.201 279.784L799.945 282.136V281.728H804.037V283H798.421ZM808.568 283.12C807.872 283.12 807.276 282.956 806.78 282.628C806.292 282.292 805.92 281.812 805.664 281.188C805.408 280.564 805.28 279.808 805.28 278.92C805.28 277.96 805.424 277.148 805.712 276.484C806 275.812 806.416 275.3 806.96 274.948C807.504 274.596 808.156 274.42 808.916 274.42C809.212 274.42 809.508 274.46 809.804 274.54C810.108 274.612 810.392 274.72 810.656 274.864C810.928 275 811.168 275.168 811.376 275.368L810.872 276.52C810.576 276.248 810.26 276.048 809.924 275.92C809.588 275.784 809.244 275.716 808.892 275.716C808.548 275.716 808.24 275.78 807.968 275.908C807.704 276.028 807.48 276.212 807.296 276.46C807.112 276.7 806.972 277.004 806.876 277.372C806.788 277.732 806.744 278.152 806.744 278.632V279.532H806.6C806.664 279.124 806.796 278.776 806.996 278.488C807.204 278.192 807.468 277.968 807.788 277.816C808.108 277.656 808.464 277.576 808.856 277.576C809.344 277.576 809.776 277.692 810.152 277.924C810.528 278.156 810.824 278.476 811.04 278.884C811.256 279.292 811.364 279.76 811.364 280.288C811.364 280.832 811.244 281.32 811.004 281.752C810.772 282.176 810.444 282.512 810.02 282.76C809.604 283 809.12 283.12 808.568 283.12ZM808.484 281.896C808.772 281.896 809.024 281.832 809.24 281.704C809.464 281.576 809.636 281.396 809.756 281.164C809.876 280.924 809.936 280.652 809.936 280.348C809.936 280.036 809.876 279.764 809.756 279.532C809.636 279.3 809.464 279.12 809.24 278.992C809.024 278.856 808.772 278.788 808.484 278.788C808.196 278.788 807.944 278.856 807.728 278.992C807.512 279.12 807.34 279.3 807.212 279.532C807.092 279.764 807.032 280.036 807.032 280.348C807.032 280.652 807.092 280.924 807.212 281.164C807.34 281.396 807.512 281.576 807.728 281.704C807.944 281.832 808.196 281.896 808.484 281.896Z" fill="#808283"/>
<rect x="913" y="259" width="1" height="8" fill="white" fill-opacity="0.16"/>
<path d="M892.136 283.108L892.028 281.848L892.88 281.8C893.12 281.784 893.316 281.732 893.468 281.644C893.628 281.548 893.748 281.416 893.828 281.248C893.908 281.072 893.948 280.864 893.948 280.624V274.54H895.484V280.612C895.484 281.116 895.396 281.544 895.22 281.896C895.044 282.248 894.78 282.52 894.428 282.712C894.076 282.904 893.64 283.02 893.12 283.06L892.136 283.108ZM896.426 283L900.254 274.54H901.514L905.342 283H903.782L902.762 280.624L903.41 281.044H898.346L898.994 280.624L897.986 283H896.426ZM900.866 276.208L899.186 280.204L898.874 279.82H902.882L902.582 280.204L900.89 276.208H900.866ZM906.268 283V274.54H907.42L912.28 280.852H911.968V274.54H913.396V283H912.256L907.396 276.676H907.696V283H906.268ZM918.503 278.02L918.143 274.54H919.883L919.523 278.02H918.503ZM921.421 283V281.86L924.157 278.944C924.405 278.68 924.601 278.436 924.745 278.212C924.897 277.988 925.009 277.772 925.081 277.564C925.153 277.356 925.189 277.148 925.189 276.94C925.189 276.54 925.061 276.236 924.805 276.028C924.557 275.82 924.193 275.716 923.713 275.716C923.337 275.716 922.969 275.788 922.609 275.932C922.257 276.068 921.917 276.284 921.589 276.58L921.073 275.428C921.409 275.124 921.829 274.88 922.333 274.696C922.837 274.512 923.361 274.42 923.905 274.42C924.513 274.42 925.025 274.512 925.441 274.696C925.857 274.88 926.173 275.148 926.389 275.5C926.605 275.852 926.713 276.28 926.713 276.784C926.713 277.04 926.681 277.292 926.617 277.54C926.561 277.78 926.469 278.02 926.341 278.26C926.221 278.5 926.065 278.748 925.873 279.004C925.689 279.252 925.465 279.512 925.201 279.784L922.945 282.136V281.728H927.037V283H921.421ZM931.256 283.12C930.272 283.12 929.5 282.908 928.94 282.484C928.388 282.06 928.112 281.472 928.112 280.72C928.112 280.32 928.192 279.968 928.352 279.664C928.52 279.352 928.748 279.1 929.036 278.908C929.324 278.716 929.652 278.596 930.02 278.548V278.8C929.684 278.728 929.388 278.596 929.132 278.404C928.876 278.204 928.676 277.96 928.532 277.672C928.396 277.376 928.328 277.052 928.328 276.7C928.328 275.988 928.592 275.432 929.12 275.032C929.648 274.624 930.364 274.42 931.268 274.42C932.164 274.42 932.876 274.624 933.404 275.032C933.932 275.432 934.196 275.988 934.196 276.7C934.196 277.052 934.124 277.376 933.98 277.672C933.844 277.968 933.648 278.212 933.392 278.404C933.144 278.596 932.852 278.724 932.516 278.788V278.548C932.892 278.596 933.22 278.72 933.5 278.92C933.78 279.112 934 279.364 934.16 279.676C934.32 279.98 934.4 280.328 934.4 280.72C934.4 281.472 934.12 282.06 933.56 282.484C933.008 282.908 932.24 283.12 931.256 283.12ZM931.256 281.92C931.824 281.92 932.252 281.812 932.54 281.596C932.828 281.372 932.972 281.044 932.972 280.612C932.972 280.18 932.828 279.856 932.54 279.64C932.252 279.424 931.824 279.316 931.256 279.316C930.696 279.316 930.268 279.424 929.972 279.64C929.684 279.856 929.54 280.18 929.54 280.612C929.54 281.044 929.684 281.372 929.972 281.596C930.268 281.812 930.696 281.92 931.256 281.92ZM931.256 278.116C931.728 278.116 932.096 278.004 932.36 277.78C932.632 277.556 932.768 277.248 932.768 276.856C932.768 276.472 932.632 276.172 932.36 275.956C932.096 275.732 931.728 275.62 931.256 275.62C930.784 275.62 930.416 275.732 930.152 275.956C929.888 276.172 929.756 276.476 929.756 276.868C929.756 277.252 929.888 277.556 930.152 277.78C930.416 278.004 930.784 278.116 931.256 278.116Z" fill="#808283"/>
<g filter="url(#filter0_d_2291_143)">
<path d="M9 256.426H193.607L197.44 252.694L202.55 254.991L206.382 254.417L210.215 257L215.964 254.417L224.907 257L228.74 254.417L231.295 255.565L235.766 246.954L237.683 248.963L241.515 232.028L251.736 243.796L258.762 230.593L264.511 242.648L267.705 238.917L270.26 244.944L286.23 239.204L306.671 251.259L309.865 246.667L320.085 248.389L325.834 219.398L333.499 229.444L336.054 219.972L338.61 224.565L345.636 195L360.328 219.972L366.716 216.241L374.381 229.444L380.769 225.713L386.518 237.769L396.1 217.102L401.21 221.407L403.765 218.25L410.791 228.87L419.734 221.407L422.928 256.713L428.039 220.833L435.065 228.009L436.981 225.139L445.924 236.62L449.118 234.898L466.365 241.787L470.198 234.037L477.863 239.491L483.612 234.037L499.582 239.491L507.886 236.046L518.745 243.222L520.661 240.639L525.772 243.796L530.882 240.639L541.102 243.796L546.212 240.926L560.904 243.509L564.098 236.333C568.144 238.247 576.235 242.017 576.235 241.787C576.235 241.557 578.364 239.012 579.429 237.769L583.9 241.213L601.786 232.315L631.809 237.194L640.752 225.139L655.444 236.333L666.303 219.111L670.774 223.417L674.607 220.546L680.356 224.278L685.466 219.111L691.854 223.704L696.964 218.25L700.797 223.704L712.295 214.519L729.542 224.852L738.485 218.537L758.287 229.157L771.701 216.815L778.089 225.426L783.199 219.398L789.587 223.704L794.058 220.833L795.336 223.417L802.363 218.824L804.279 220.833H820.248L822.803 217.963L824.081 221.407L844.522 221.12L848.993 218.25L863.685 225.426L873.267 222.556L878.377 225.139L883.487 220.546L887.959 224.852L893.069 220.546L909.677 227.722L918.62 221.12L927.563 229.731C929.054 228.392 932.035 225.828 932.035 226.287C932.035 226.746 937.571 229.731 940.339 231.167L948.004 227.722L971 236.907" stroke="#6AA6FF" stroke-width="1.5"/>
</g>
<g filter="url(#filter1_d_2291_143)">
<path d="M9 242.009H13.4508L15.9941 244.504L18.5373 242.009L20.4448 244.861L25.5314 239.513L28.7105 242.009L30.618 232.383L35.7046 238.8L40.1553 232.383L52.8718 247L58.5942 224.539L60.5017 230.6L65.5882 224.539L73.8539 230.957C75.1256 227.629 77.796 221.259 78.3047 222.4C78.8134 223.541 84.451 229.53 87.2062 232.383L89.7495 229.531L114.547 242.722L126.627 229.531L138.072 233.809L145.066 200.296L161.597 222.757L165.412 219.191L174.314 227.035L184.487 214.2L189.574 220.617H201.019L215.642 237.374L220.093 235.235L223.908 238.444L235.353 229.531L238.532 233.452L246.162 228.817L251.249 233.452L256.971 235.235L260.786 230.6L263.329 234.522L267.144 231.313C267.992 231.907 269.687 233.024 269.687 232.739C269.687 232.454 273.502 227.391 275.41 224.896L279.225 228.104H291.941L295.12 231.313L298.299 229.887L303.386 234.522H320.553L327.547 208.139C328.395 210.278 330.218 214.628 330.726 214.913C331.235 215.198 336.449 183.896 338.992 168.209C340.476 174.864 343.443 188.103 343.443 187.817C343.443 187.532 346.834 179.38 348.529 175.339L354.888 184.609L360.61 171.774L375.87 196.374L377.777 174.27L384.136 188.53C385.831 167.02 389.349 124 389.858 124C390.367 124 401.515 148.006 407.025 160.009L414.019 138.974L426.1 160.009L433.094 160.722L443.267 174.27L447.082 173.913L450.897 161.078L452.169 167.139L459.163 162.861L483.324 165L490.954 157.87L501.763 178.548L509.393 170.704L512.572 193.165L513.843 189.957L524.652 199.583L534.826 194.235L537.369 197.087L541.184 192.452L547.542 192.809L550.085 198.87L562.802 187.817L567.252 190.67L574.882 186.748L580.605 195.304L583.148 191.383L586.327 194.591L595.229 184.252L597.772 190.67L606.038 178.548L621.933 196.017L625.112 193.165L634.65 210.991L656.904 165L661.99 167.852L663.262 156.443L666.441 168.209L668.348 158.583L681.065 172.487L689.966 155.017C693.357 160.959 700.139 172.487 700.139 171.061C700.139 169.635 703.107 164.287 704.59 161.791C706.498 163.812 710.313 167.567 710.313 166.426C710.313 165.285 715.399 156.681 717.943 152.522L738.925 163.217C739.984 161.316 742.104 157.584 742.104 157.87C742.104 158.155 746.766 164.406 749.098 167.496L756.728 149.67L762.45 159.296C764.146 156.681 767.664 151.595 768.173 152.165C768.808 152.878 771.987 156.8 771.987 155.374C771.987 154.233 775.379 149.67 777.074 147.53C779.829 150.383 785.34 155.873 785.34 155.017C785.34 154.162 786.611 148.243 787.247 145.391L801.235 161.078L806.958 155.374L814.588 169.635L823.489 173.2L827.94 168.922L835.57 181.4L840.021 174.626H860.367L865.453 182.826L866.725 178.548C867.573 179.38 869.396 180.972 869.904 180.687C870.413 180.402 874.355 176.052 876.262 173.913L885.8 180.687H890.886L895.973 177.122L900.424 181.044L908.689 180.687L915.048 186.748L925.221 185.322L932.215 179.617L943.66 188.174C947.475 182.707 955.104 171.845 955.104 172.13C955.104 172.416 956.376 178.429 957.012 181.4L964.642 181.757L967.821 184.252L971 181.757" stroke="#4F5156" stroke-width="1.5"/>
</g>
<g filter="url(#filter2_d_2291_143)">
<path d="M330.1 89.5839C330.161 89.2676 330.163 89.0911 330.092 89.0911C330.065 89.0911 330.068 89.2599 330.1 89.5839Z" fill="#A06AFF"/>
<path d="M9 21.7016L14.7452 18.959L16.6603 21.7016L17.937 18.959L23.0438 24.4442C23.8949 23.53 25.5972 21.78 25.5972 22.0934C25.5972 22.4068 28.5762 28.4928 30.0657 31.4966C31.3424 28.754 34.0235 23.5822 34.5342 24.836C35.1725 26.4032 40.2794 31.4966 40.9177 31.8884C41.4284 32.2018 48.3652 22.0934 51.7697 17C53.6848 25.0972 57.5149 41.2132 57.5149 40.8998C57.5149 40.5863 59.2172 35.8064 60.0683 33.4556L64.5368 40.508L69.6437 33.8474L77.9423 43.2506L113.052 21.7016L123.904 36.59L132.841 31.8884L143.693 67.5421L146.885 58.9226L150.715 63.2323L160.928 41.2916C162.205 42.5976 164.886 45.1312 165.397 44.8178C165.907 44.5043 171.142 40.2468 173.695 38.1572L184.547 51.0866L190.931 45.2096L201.145 51.4784L225.402 27.5786L235.616 47.9522L240.084 44.8178L243.914 70.2847L250.936 51.0866L256.681 67.9339L265.618 47.9522L277.109 62.8405L282.216 60.0979L287.322 65.1913L307.111 41.6834C309.027 44.1648 312.857 49.0492 312.857 48.7358C312.857 48.4223 317.112 44.9484 319.24 43.2506L325.624 102.804C327.326 98.2331 330.603 89.0911 330.092 89.0911C329.582 89.0911 339.668 146.555 344.774 175.287L353.073 138.458L360.095 152.954L375.415 111.815C376.905 120.043 379.884 136.421 379.884 136.107C379.884 135.794 383.288 117.954 384.991 109.073L390.736 189L409.887 154.913L418.823 177.246L422.015 116.125L427.122 169.41L429.676 160.399C430.527 161.705 432.229 164.238 432.229 163.925C432.229 163.611 433.931 152.563 434.782 147.077L438.612 151.779L444.996 125.528L450.741 138.458L454.571 128.271C456.912 131.014 461.593 136.421 461.593 136.107C461.593 135.794 465.423 131.275 467.338 129.055L471.807 139.633L480.106 131.797L490.958 142.376L501.171 117.301L508.193 126.312L515.215 98.8861C515.641 101.367 516.619 106.017 517.13 104.763C517.641 103.509 524.152 93.2703 527.344 88.3075C530.323 92.0949 536.281 99.513 536.281 98.8861C536.281 98.2592 537.557 94.1845 538.196 92.2255L542.664 99.6697L551.601 91.0501L564.368 108.289L568.198 103.979L570.752 105.547L575.22 100.453L578.412 105.547L582.242 93.0091L611.606 125.92L621.182 102.804L627.565 108.289L635.226 88.3075L642.248 113.774L646.078 107.506L662.036 170.585L666.505 150.212L670.335 165.1L676.719 148.253L690.762 168.626L699.061 151.387L716.297 170.585L724.595 161.574L729.064 166.276L731.617 160.79L738.001 168.626L750.129 150.604L771.195 173.328L775.025 167.059L789.707 175.679L801.198 161.574L808.22 164.708L815.242 150.212C817.795 152.301 822.902 156.246 822.902 155.305C822.902 154.365 824.178 150.212 824.817 148.253C827.157 150.342 831.839 154.443 831.839 154.13C831.839 153.816 836.946 147.208 839.499 143.943L854.181 147.469L864.395 131.014L870.14 138.458L873.97 134.932L882.907 145.118L889.929 134.932L894.397 140.025L902.696 129.446L909.08 135.715L916.101 129.055L925.038 135.715L931.422 124.745L935.252 127.096L946.104 116.909L956.318 132.973L959.51 122.786L962.063 128.271L971 112.991" stroke="#A06AFF" stroke-width="1.5"/>
</g>
<rect x="980" y="226" width="52" height="20" rx="4" fill="#6AA6FF"/>
<path d="M986.206 240V238.728H988.114V232.836H988.858L986.638 234.18L986.038 233.052L988.558 231.54H989.65V238.728H991.438V240H986.206ZM995.694 240.12C995.03 240.12 994.466 239.952 994.002 239.616C993.546 239.272 993.198 238.776 992.958 238.128C992.726 237.48 992.61 236.688 992.61 235.752C992.61 234.808 992.726 234.016 992.958 233.376C993.198 232.728 993.546 232.24 994.002 231.912C994.466 231.584 995.03 231.42 995.694 231.42C996.366 231.42 996.93 231.584 997.386 231.912C997.85 232.24 998.198 232.724 998.43 233.364C998.662 234.004 998.778 234.796 998.778 235.74C998.778 236.676 998.658 237.472 998.418 238.128C998.186 238.776 997.842 239.272 997.386 239.616C996.93 239.952 996.366 240.12 995.694 240.12ZM995.694 238.86C996.238 238.86 996.638 238.612 996.894 238.116C997.158 237.612 997.29 236.82 997.29 235.74C997.29 234.668 997.158 233.892 996.894 233.412C996.638 232.924 996.238 232.68 995.694 232.68C995.158 232.68 994.758 232.924 994.494 233.412C994.23 233.892 994.098 234.672 994.098 235.752C994.098 236.824 994.23 237.612 994.494 238.116C994.758 238.612 995.158 238.86 995.694 238.86ZM999.937 240V238.332H1001.62V240H999.937ZM1005.87 240.12C1005.2 240.12 1004.64 239.952 1004.17 239.616C1003.72 239.272 1003.37 238.776 1003.13 238.128C1002.9 237.48 1002.78 236.688 1002.78 235.752C1002.78 234.808 1002.9 234.016 1003.13 233.376C1003.37 232.728 1003.72 232.24 1004.17 231.912C1004.64 231.584 1005.2 231.42 1005.87 231.42C1006.54 231.42 1007.1 231.584 1007.56 231.912C1008.02 232.24 1008.37 232.724 1008.6 233.364C1008.83 234.004 1008.95 234.796 1008.95 235.74C1008.95 236.676 1008.83 237.472 1008.59 238.128C1008.36 238.776 1008.01 239.272 1007.56 239.616C1007.1 239.952 1006.54 240.12 1005.87 240.12ZM1005.87 238.86C1006.41 238.86 1006.81 238.612 1007.07 238.116C1007.33 237.612 1007.46 236.82 1007.46 235.74C1007.46 234.668 1007.33 233.892 1007.07 233.412C1006.81 232.924 1006.41 232.68 1005.87 232.68C1005.33 232.68 1004.93 232.924 1004.67 233.412C1004.4 233.892 1004.27 234.672 1004.27 235.752C1004.27 236.824 1004.4 237.612 1004.67 238.116C1004.93 238.612 1005.33 238.86 1005.87 238.86ZM1013.06 240.12C1012.4 240.12 1011.83 239.952 1011.37 239.616C1010.91 239.272 1010.56 238.776 1010.32 238.128C1010.09 237.48 1009.98 236.688 1009.98 235.752C1009.98 234.808 1010.09 234.016 1010.32 233.376C1010.56 232.728 1010.91 232.24 1011.37 231.912C1011.83 231.584 1012.4 231.42 1013.06 231.42C1013.73 231.42 1014.3 231.584 1014.75 231.912C1015.22 232.24 1015.56 232.724 1015.8 233.364C1016.03 234.004 1016.14 234.796 1016.14 235.74C1016.14 236.676 1016.02 237.472 1015.78 238.128C1015.55 238.776 1015.21 239.272 1014.75 239.616C1014.3 239.952 1013.73 240.12 1013.06 240.12ZM1013.06 238.86C1013.6 238.86 1014 238.612 1014.26 238.116C1014.52 237.612 1014.66 236.82 1014.66 235.74C1014.66 234.668 1014.52 233.892 1014.26 233.412C1014 232.924 1013.6 232.68 1013.06 232.68C1012.52 232.68 1012.12 232.924 1011.86 233.412C1011.6 233.892 1011.46 234.672 1011.46 235.752C1011.46 236.824 1011.6 237.612 1011.86 238.116C1012.12 238.612 1012.52 238.86 1013.06 238.86ZM1020.35 240.336L1019.37 239.76L1024.31 231.204L1025.28 231.78L1020.35 240.336ZM1019.32 236.592C1018.87 236.592 1018.49 236.488 1018.17 236.28C1017.85 236.072 1017.6 235.776 1017.44 235.392C1017.27 235 1017.18 234.536 1017.18 234C1017.18 233.2 1017.37 232.572 1017.75 232.116C1018.12 231.652 1018.65 231.42 1019.32 231.42C1019.77 231.42 1020.15 231.524 1020.47 231.732C1020.79 231.94 1021.04 232.236 1021.2 232.62C1021.37 233.004 1021.46 233.464 1021.46 234C1021.46 234.536 1021.37 235 1021.2 235.392C1021.04 235.776 1020.79 236.072 1020.47 236.28C1020.15 236.488 1019.77 236.592 1019.32 236.592ZM1019.32 235.584C1019.61 235.584 1019.83 235.456 1019.99 235.2C1020.15 234.936 1020.23 234.536 1020.23 234C1020.23 233.464 1020.15 233.068 1019.99 232.812C1019.83 232.556 1019.61 232.428 1019.32 232.428C1019.03 232.428 1018.81 232.556 1018.65 232.812C1018.49 233.06 1018.41 233.456 1018.41 234C1018.41 234.544 1018.49 234.944 1018.65 235.2C1018.81 235.456 1019.03 235.584 1019.32 235.584ZM1025.34 240.12C1024.9 240.12 1024.51 240.016 1024.19 239.808C1023.87 239.6 1023.63 239.304 1023.46 238.92C1023.29 238.528 1023.21 238.064 1023.21 237.528C1023.21 236.728 1023.4 236.1 1023.77 235.644C1024.15 235.18 1024.67 234.948 1025.34 234.948C1025.79 234.948 1026.18 235.052 1026.5 235.26C1026.82 235.468 1027.06 235.764 1027.23 236.148C1027.4 236.532 1027.48 236.992 1027.48 237.528C1027.48 238.064 1027.4 238.528 1027.23 238.92C1027.06 239.304 1026.82 239.6 1026.5 239.808C1026.18 240.016 1025.79 240.12 1025.34 240.12ZM1025.34 239.112C1025.63 239.112 1025.86 238.984 1026.02 238.728C1026.18 238.464 1026.26 238.064 1026.26 237.528C1026.26 236.992 1026.18 236.596 1026.02 236.34C1025.86 236.084 1025.63 235.956 1025.34 235.956C1025.06 235.956 1024.83 236.084 1024.67 236.34C1024.51 236.588 1024.43 236.984 1024.43 237.528C1024.43 238.072 1024.51 238.472 1024.67 238.728C1024.83 238.984 1025.06 239.112 1025.34 239.112Z" fill="white"/>
<rect x="980" y="171" width="52" height="20" rx="4" fill="#4F5156"/>
<path d="M988.33 185.12C987.946 185.12 987.57 185.08 987.202 185C986.842 184.928 986.506 184.82 986.194 184.676C985.882 184.532 985.61 184.36 985.378 184.16L985.882 182.984C986.258 183.272 986.642 183.484 987.034 183.62C987.426 183.756 987.842 183.824 988.282 183.824C988.634 183.824 988.93 183.776 989.17 183.68C989.41 183.584 989.59 183.44 989.71 183.248C989.838 183.056 989.902 182.824 989.902 182.552C989.902 182.152 989.766 181.856 989.494 181.664C989.23 181.464 988.842 181.364 988.33 181.364H986.974V180.092H988.186C988.49 180.092 988.75 180.044 988.966 179.948C989.182 179.844 989.35 179.7 989.47 179.516C989.59 179.332 989.65 179.108 989.65 178.844C989.65 178.476 989.526 178.196 989.278 178.004C989.038 177.812 988.686 177.716 988.222 177.716C987.806 177.716 987.418 177.788 987.058 177.932C986.698 178.068 986.354 178.284 986.026 178.58L985.522 177.428C985.858 177.108 986.278 176.86 986.782 176.684C987.286 176.508 987.81 176.42 988.354 176.42C988.938 176.42 989.438 176.512 989.854 176.696C990.27 176.872 990.586 177.128 990.802 177.464C991.026 177.792 991.138 178.192 991.138 178.664C991.138 179.168 990.998 179.604 990.718 179.972C990.438 180.332 990.054 180.572 989.566 180.692V180.548C989.95 180.612 990.278 180.74 990.55 180.932C990.822 181.124 991.03 181.368 991.174 181.664C991.318 181.96 991.39 182.3 991.39 182.684C991.39 183.18 991.266 183.612 991.018 183.98C990.77 184.348 990.418 184.632 989.962 184.832C989.506 185.024 988.962 185.12 988.33 185.12ZM995.694 185.12C995.03 185.12 994.466 184.952 994.002 184.616C993.546 184.272 993.198 183.776 992.958 183.128C992.726 182.48 992.61 181.688 992.61 180.752C992.61 179.808 992.726 179.016 992.958 178.376C993.198 177.728 993.546 177.24 994.002 176.912C994.466 176.584 995.03 176.42 995.694 176.42C996.366 176.42 996.93 176.584 997.386 176.912C997.85 177.24 998.198 177.724 998.43 178.364C998.662 179.004 998.778 179.796 998.778 180.74C998.778 181.676 998.658 182.472 998.418 183.128C998.186 183.776 997.842 184.272 997.386 184.616C996.93 184.952 996.366 185.12 995.694 185.12ZM995.694 183.86C996.238 183.86 996.638 183.612 996.894 183.116C997.158 182.612 997.29 181.82 997.29 180.74C997.29 179.668 997.158 178.892 996.894 178.412C996.638 177.924 996.238 177.68 995.694 177.68C995.158 177.68 994.758 177.924 994.494 178.412C994.23 178.892 994.098 179.672 994.098 180.752C994.098 181.824 994.23 182.612 994.494 183.116C994.758 183.612 995.158 183.86 995.694 183.86ZM999.937 185V183.332H1001.62V185H999.937ZM1005.87 185.12C1005.2 185.12 1004.64 184.952 1004.17 184.616C1003.72 184.272 1003.37 183.776 1003.13 183.128C1002.9 182.48 1002.78 181.688 1002.78 180.752C1002.78 179.808 1002.9 179.016 1003.13 178.376C1003.37 177.728 1003.72 177.24 1004.17 176.912C1004.64 176.584 1005.2 176.42 1005.87 176.42C1006.54 176.42 1007.1 176.584 1007.56 176.912C1008.02 177.24 1008.37 177.724 1008.6 178.364C1008.83 179.004 1008.95 179.796 1008.95 180.74C1008.95 181.676 1008.83 182.472 1008.59 183.128C1008.36 183.776 1008.01 184.272 1007.56 184.616C1007.1 184.952 1006.54 185.12 1005.87 185.12ZM1005.87 183.86C1006.41 183.86 1006.81 183.612 1007.07 183.116C1007.33 182.612 1007.46 181.82 1007.46 180.74C1007.46 179.668 1007.33 178.892 1007.07 178.412C1006.81 177.924 1006.41 177.68 1005.87 177.68C1005.33 177.68 1004.93 177.924 1004.67 178.412C1004.4 178.892 1004.27 179.672 1004.27 180.752C1004.27 181.824 1004.4 182.612 1004.67 183.116C1004.93 183.612 1005.33 183.86 1005.87 183.86ZM1013.06 185.12C1012.4 185.12 1011.83 184.952 1011.37 184.616C1010.91 184.272 1010.56 183.776 1010.32 183.128C1010.09 182.48 1009.98 181.688 1009.98 180.752C1009.98 179.808 1010.09 179.016 1010.32 178.376C1010.56 177.728 1010.91 177.24 1011.37 176.912C1011.83 176.584 1012.4 176.42 1013.06 176.42C1013.73 176.42 1014.3 176.584 1014.75 176.912C1015.22 177.24 1015.56 177.724 1015.8 178.364C1016.03 179.004 1016.14 179.796 1016.14 180.74C1016.14 181.676 1016.02 182.472 1015.78 183.128C1015.55 183.776 1015.21 184.272 1014.75 184.616C1014.3 184.952 1013.73 185.12 1013.06 185.12ZM1013.06 183.86C1013.6 183.86 1014 183.612 1014.26 183.116C1014.52 182.612 1014.66 181.82 1014.66 180.74C1014.66 179.668 1014.52 178.892 1014.26 178.412C1014 177.924 1013.6 177.68 1013.06 177.68C1012.52 177.68 1012.12 177.924 1011.86 178.412C1011.6 178.892 1011.46 179.672 1011.46 180.752C1011.46 181.824 1011.6 182.612 1011.86 183.116C1012.12 183.612 1012.52 183.86 1013.06 183.86ZM1020.35 185.336L1019.37 184.76L1024.31 176.204L1025.28 176.78L1020.35 185.336ZM1019.32 181.592C1018.87 181.592 1018.49 181.488 1018.17 181.28C1017.85 181.072 1017.6 180.776 1017.44 180.392C1017.27 180 1017.18 179.536 1017.18 179C1017.18 178.2 1017.37 177.572 1017.75 177.116C1018.12 176.652 1018.65 176.42 1019.32 176.42C1019.77 176.42 1020.15 176.524 1020.47 176.732C1020.79 176.94 1021.04 177.236 1021.2 177.62C1021.37 178.004 1021.46 178.464 1021.46 179C1021.46 179.536 1021.37 180 1021.2 180.392C1021.04 180.776 1020.79 181.072 1020.47 181.28C1020.15 181.488 1019.77 181.592 1019.32 181.592ZM1019.32 180.584C1019.61 180.584 1019.83 180.456 1019.99 180.2C1020.15 179.936 1020.23 179.536 1020.23 179C1020.23 178.464 1020.15 178.068 1019.99 177.812C1019.83 177.556 1019.61 177.428 1019.32 177.428C1019.03 177.428 1018.81 177.556 1018.65 177.812C1018.49 178.06 1018.41 178.456 1018.41 179C1018.41 179.544 1018.49 179.944 1018.65 180.2C1018.81 180.456 1019.03 180.584 1019.32 180.584ZM1025.34 185.12C1024.9 185.12 1024.51 185.016 1024.19 184.808C1023.87 184.6 1023.63 184.304 1023.46 183.92C1023.29 183.528 1023.21 183.064 1023.21 182.528C1023.21 181.728 1023.4 181.1 1023.77 180.644C1024.15 180.18 1024.67 179.948 1025.34 179.948C1025.79 179.948 1026.18 180.052 1026.5 180.26C1026.82 180.468 1027.06 180.764 1027.23 181.148C1027.4 181.532 1027.48 181.992 1027.48 182.528C1027.48 183.064 1027.4 183.528 1027.23 183.92C1027.06 184.304 1026.82 184.6 1026.5 184.808C1026.18 185.016 1025.79 185.12 1025.34 185.12ZM1025.34 184.112C1025.63 184.112 1025.86 183.984 1026.02 183.728C1026.18 183.464 1026.26 183.064 1026.26 182.528C1026.26 181.992 1026.18 181.596 1026.02 181.34C1025.86 181.084 1025.63 180.956 1025.34 180.956C1025.06 180.956 1024.83 181.084 1024.67 181.34C1024.51 181.588 1024.43 181.984 1024.43 182.528C1024.43 183.072 1024.51 183.472 1024.67 183.728C1024.83 183.984 1025.06 184.112 1025.34 184.112Z" fill="white"/>
<rect x="980" y="102" width="52" height="20" rx="4" fill="#A06AFF"/>
<path d="M988.57 116.12C988.202 116.12 987.838 116.08 987.478 116C987.126 115.92 986.794 115.808 986.482 115.664C986.178 115.52 985.914 115.352 985.69 115.16L986.194 113.984C986.562 114.264 986.942 114.476 987.334 114.62C987.726 114.756 988.13 114.824 988.546 114.824C989.05 114.824 989.442 114.696 989.722 114.44C990.01 114.176 990.154 113.824 990.154 113.384C990.154 112.936 990.018 112.576 989.746 112.304C989.474 112.024 989.102 111.884 988.63 111.884C988.286 111.884 987.978 111.952 987.706 112.088C987.434 112.216 987.186 112.416 986.962 112.688H985.93V107.54H991.126V108.812H987.43V111.5H987.034C987.242 111.22 987.514 111.004 987.85 110.852C988.194 110.7 988.574 110.624 988.99 110.624C989.526 110.624 989.99 110.74 990.382 110.972C990.782 111.196 991.09 111.512 991.306 111.92C991.53 112.32 991.642 112.788 991.642 113.324C991.642 113.876 991.518 114.364 991.27 114.788C991.022 115.204 990.666 115.532 990.202 115.772C989.746 116.004 989.202 116.12 988.57 116.12ZM995.046 116.12C994.75 116.12 994.45 116.08 994.146 116C993.85 115.928 993.566 115.82 993.294 115.676C993.03 115.532 992.79 115.36 992.574 115.16L993.09 114.008C993.378 114.28 993.69 114.484 994.026 114.62C994.37 114.756 994.714 114.824 995.058 114.824C995.41 114.824 995.718 114.764 995.982 114.644C996.254 114.516 996.482 114.332 996.666 114.092C996.85 113.844 996.986 113.54 997.074 113.18C997.17 112.812 997.218 112.388 997.218 111.908V111.008H997.35C997.294 111.408 997.162 111.756 996.954 112.052C996.746 112.348 996.482 112.576 996.162 112.736C995.85 112.888 995.494 112.964 995.094 112.964C994.614 112.964 994.186 112.848 993.81 112.616C993.434 112.384 993.134 112.064 992.91 111.656C992.694 111.24 992.586 110.772 992.586 110.252C992.586 109.7 992.706 109.212 992.946 108.788C993.186 108.364 993.514 108.032 993.93 107.792C994.354 107.544 994.838 107.42 995.382 107.42C996.086 107.42 996.682 107.584 997.17 107.912C997.658 108.24 998.03 108.72 998.286 109.352C998.542 109.976 998.67 110.732 998.67 111.62C998.67 112.572 998.526 113.384 998.238 114.056C997.95 114.728 997.534 115.24 996.99 115.592C996.454 115.944 995.806 116.12 995.046 116.12ZM995.478 111.74C995.766 111.74 996.018 111.676 996.234 111.548C996.458 111.42 996.63 111.24 996.75 111.008C996.87 110.768 996.93 110.496 996.93 110.192C996.93 109.88 996.87 109.608 996.75 109.376C996.63 109.144 996.458 108.964 996.234 108.836C996.018 108.7 995.766 108.632 995.478 108.632C995.19 108.632 994.938 108.7 994.722 108.836C994.506 108.964 994.334 109.144 994.206 109.376C994.086 109.608 994.026 109.88 994.026 110.192C994.026 110.496 994.086 110.768 994.206 111.008C994.334 111.24 994.506 111.42 994.722 111.548C994.938 111.676 995.19 111.74 995.478 111.74ZM999.937 116V114.332H1001.62V116H999.937ZM1005.87 116.12C1005.2 116.12 1004.64 115.952 1004.17 115.616C1003.72 115.272 1003.37 114.776 1003.13 114.128C1002.9 113.48 1002.78 112.688 1002.78 111.752C1002.78 110.808 1002.9 110.016 1003.13 109.376C1003.37 108.728 1003.72 108.24 1004.17 107.912C1004.64 107.584 1005.2 107.42 1005.87 107.42C1006.54 107.42 1007.1 107.584 1007.56 107.912C1008.02 108.24 1008.37 108.724 1008.6 109.364C1008.83 110.004 1008.95 110.796 1008.95 111.74C1008.95 112.676 1008.83 113.472 1008.59 114.128C1008.36 114.776 1008.01 115.272 1007.56 115.616C1007.1 115.952 1006.54 116.12 1005.87 116.12ZM1005.87 114.86C1006.41 114.86 1006.81 114.612 1007.07 114.116C1007.33 113.612 1007.46 112.82 1007.46 111.74C1007.46 110.668 1007.33 109.892 1007.07 109.412C1006.81 108.924 1006.41 108.68 1005.87 108.68C1005.33 108.68 1004.93 108.924 1004.67 109.412C1004.4 109.892 1004.27 110.672 1004.27 111.752C1004.27 112.824 1004.4 113.612 1004.67 114.116C1004.93 114.612 1005.33 114.86 1005.87 114.86ZM1013.06 116.12C1012.4 116.12 1011.83 115.952 1011.37 115.616C1010.91 115.272 1010.56 114.776 1010.32 114.128C1010.09 113.48 1009.98 112.688 1009.98 111.752C1009.98 110.808 1010.09 110.016 1010.32 109.376C1010.56 108.728 1010.91 108.24 1011.37 107.912C1011.83 107.584 1012.4 107.42 1013.06 107.42C1013.73 107.42 1014.3 107.584 1014.75 107.912C1015.22 108.24 1015.56 108.724 1015.8 109.364C1016.03 110.004 1016.14 110.796 1016.14 111.74C1016.14 112.676 1016.02 113.472 1015.78 114.128C1015.55 114.776 1015.21 115.272 1014.75 115.616C1014.3 115.952 1013.73 116.12 1013.06 116.12ZM1013.06 114.86C1013.6 114.86 1014 114.612 1014.26 114.116C1014.52 113.612 1014.66 112.82 1014.66 111.74C1014.66 110.668 1014.52 109.892 1014.26 109.412C1014 108.924 1013.6 108.68 1013.06 108.68C1012.52 108.68 1012.12 108.924 1011.86 109.412C1011.6 109.892 1011.46 110.672 1011.46 111.752C1011.46 112.824 1011.6 113.612 1011.86 114.116C1012.12 114.612 1012.52 114.86 1013.06 114.86ZM1020.35 116.336L1019.37 115.76L1024.31 107.204L1025.28 107.78L1020.35 116.336ZM1019.32 112.592C1018.87 112.592 1018.49 112.488 1018.17 112.28C1017.85 112.072 1017.6 111.776 1017.44 111.392C1017.27 111 1017.18 110.536 1017.18 110C1017.18 109.2 1017.37 108.572 1017.75 108.116C1018.12 107.652 1018.65 107.42 1019.32 107.42C1019.77 107.42 1020.15 107.524 1020.47 107.732C1020.79 107.94 1021.04 108.236 1021.2 108.62C1021.37 109.004 1021.46 109.464 1021.46 110C1021.46 110.536 1021.37 111 1021.2 111.392C1021.04 111.776 1020.79 112.072 1020.47 112.28C1020.15 112.488 1019.77 112.592 1019.32 112.592ZM1019.32 111.584C1019.61 111.584 1019.83 111.456 1019.99 111.2C1020.15 110.936 1020.23 110.536 1020.23 110C1020.23 109.464 1020.15 109.068 1019.99 108.812C1019.83 108.556 1019.61 108.428 1019.32 108.428C1019.03 108.428 1018.81 108.556 1018.65 108.812C1018.49 109.06 1018.41 109.456 1018.41 110C1018.41 110.544 1018.49 110.944 1018.65 111.2C1018.81 111.456 1019.03 111.584 1019.32 111.584ZM1025.34 116.12C1024.9 116.12 1024.51 116.016 1024.19 115.808C1023.87 115.6 1023.63 115.304 1023.46 114.92C1023.29 114.528 1023.21 114.064 1023.21 113.528C1023.21 112.728 1023.4 112.1 1023.77 111.644C1024.15 111.18 1024.67 110.948 1025.34 110.948C1025.79 110.948 1026.18 111.052 1026.5 111.26C1026.82 111.468 1027.06 111.764 1027.23 112.148C1027.4 112.532 1027.48 112.992 1027.48 113.528C1027.48 114.064 1027.4 114.528 1027.23 114.92C1027.06 115.304 1026.82 115.6 1026.5 115.808C1026.18 116.016 1025.79 116.12 1025.34 116.12ZM1025.34 115.112C1025.63 115.112 1025.86 114.984 1026.02 114.728C1026.18 114.464 1026.26 114.064 1026.26 113.528C1026.26 112.992 1026.18 112.596 1026.02 112.34C1025.86 112.084 1025.63 111.956 1025.34 111.956C1025.06 111.956 1024.83 112.084 1024.67 112.34C1024.51 112.588 1024.43 112.984 1024.43 113.528C1024.43 114.072 1024.51 114.472 1024.67 114.728C1024.83 114.984 1025.06 115.112 1025.34 115.112Z" fill="white"/>
<defs>
<filter id="filter0_d_2291_143" x="1" y="185.014" width="978.277" height="80.8418" filterUnits="userSpaceOnUse" color-interpolation-filters="sRGB">
<feFlood flood-opacity="0" result="BackgroundImageFix"/>
<feColorMatrix in="SourceAlpha" type="matrix" values="0 0 0 0 0 0 0 0 0 0 0 0 0 0 0 0 0 0 127 0" result="hardAlpha"/>
<feOffset/>
<feGaussianBlur stdDeviation="4"/>
<feComposite in2="hardAlpha" operator="out"/>
<feColorMatrix type="matrix" values="0 0 0 0 0.415686 0 0 0 0 0.647059 0 0 0 0 1 0 0 0 0.24 0"/>
<feBlend mode="normal" in2="BackgroundImageFix" result="effect1_dropShadow_2291_143"/>
<feBlend mode="normal" in="SourceGraphic" in2="effect1_dropShadow_2291_143" result="shape"/>
</filter>
<filter id="filter1_d_2291_143" x="1" y="115.25" width="978.465" height="141.322" filterUnits="userSpaceOnUse" color-interpolation-filters="sRGB">
<feFlood flood-opacity="0" result="BackgroundImageFix"/>
<feColorMatrix in="SourceAlpha" type="matrix" values="0 0 0 0 0 0 0 0 0 0 0 0 0 0 0 0 0 0 127 0" result="hardAlpha"/>
<feOffset/>
<feGaussianBlur stdDeviation="4"/>
<feComposite in2="hardAlpha" operator="out"/>
<feColorMatrix type="matrix" values="0 0 0 0 0.309804 0 0 0 0 0.317647 0 0 0 0 0.337255 0 0 0 0.24 0"/>
<feBlend mode="normal" in2="BackgroundImageFix" result="effect1_dropShadow_2291_143"/>
<feBlend mode="normal" in="SourceGraphic" in2="effect1_dropShadow_2291_143" result="shape"/>
</filter>
<filter id="filter2_d_2291_143" x="0.675781" y="7.15137" width="978.973" height="192.393" filterUnits="userSpaceOnUse" color-interpolation-filters="sRGB">
<feFlood flood-opacity="0" result="BackgroundImageFix"/>
<feColorMatrix in="SourceAlpha" type="matrix" values="0 0 0 0 0 0 0 0 0 0 0 0 0 0 0 0 0 0 127 0" result="hardAlpha"/>
<feOffset/>
<feGaussianBlur stdDeviation="4"/>
<feComposite in2="hardAlpha" operator="out"/>
<feColorMatrix type="matrix" values="0 0 0 0 1 0 0 0 0 0.658824 0 0 0 0 0 0 0 0 0.24 0"/>
<feBlend mode="normal" in2="BackgroundImageFix" result="effect1_dropShadow_2291_143"/>
<feBlend mode="normal" in="SourceGraphic" in2="effect1_dropShadow_2291_143" result="shape"/>
</filter>
</defs>
</svg>
