<svg width="369" height="336" viewBox="0 0 369 336" fill="none" xmlns="http://www.w3.org/2000/svg">
<g opacity="0.48">
<path d="M3.87344 12.108C2.90544 12.108 2.14944 11.9 1.60544 11.484C1.06944 11.068 0.801438 10.488 0.801438 9.744C0.801438 9.344 0.881438 8.992 1.04144 8.688C1.20144 8.376 1.42544 8.124 1.71344 7.932C2.00144 7.74 2.33344 7.62 2.70944 7.572V7.788C2.36544 7.716 2.06544 7.584 1.80944 7.392C1.55344 7.192 1.35344 6.948 1.20944 6.66C1.07344 6.364 1.00544 6.04 1.00544 5.688C1.00544 4.984 1.26544 4.432 1.78544 4.032C2.30544 3.632 3.00144 3.432 3.87344 3.432C4.75344 3.432 5.45344 3.632 5.97344 4.032C6.49344 4.432 6.75344 4.984 6.75344 5.688C6.75344 6.04 6.68144 6.364 6.53744 6.66C6.40144 6.948 6.20544 7.192 5.94944 7.392C5.69344 7.584 5.39344 7.712 5.04944 7.776V7.572C5.43344 7.62 5.76544 7.744 6.04544 7.944C6.32544 8.136 6.54544 8.384 6.70544 8.688C6.86544 8.992 6.94544 9.344 6.94544 9.744C6.94544 10.488 6.67344 11.068 6.12944 11.484C5.59344 11.9 4.84144 12.108 3.87344 12.108ZM3.87344 11.124C4.50544 11.124 4.98144 11.004 5.30144 10.764C5.62144 10.516 5.78144 10.148 5.78144 9.66C5.78144 9.172 5.62144 8.808 5.30144 8.568C4.98144 8.328 4.50544 8.208 3.87344 8.208C3.24944 8.208 2.77344 8.328 2.44544 8.568C2.12544 8.808 1.96544 9.172 1.96544 9.66C1.96544 10.148 2.12544 10.516 2.44544 10.764C2.77344 11.004 3.24944 11.124 3.87344 11.124ZM3.87344 7.224C4.40944 7.224 4.82544 7.1 5.12144 6.852C5.42544 6.596 5.57744 6.248 5.57744 5.808C5.57744 5.376 5.42544 5.036 5.12144 4.788C4.82544 4.54 4.40944 4.416 3.87344 4.416C3.33744 4.416 2.92144 4.54 2.62544 4.788C2.32944 5.036 2.18144 5.376 2.18144 5.808C2.18144 6.248 2.32944 6.596 2.62544 6.852C2.92144 7.1 3.33744 7.224 3.87344 7.224ZM11.0688 12.108C10.4128 12.108 9.86075 11.94 9.41275 11.604C8.96475 11.268 8.62475 10.78 8.39275 10.14C8.16075 9.492 8.04475 8.7 8.04475 7.764C8.04475 6.812 8.16075 6.016 8.39275 5.376C8.62475 4.736 8.96475 4.252 9.41275 3.924C9.86075 3.596 10.4128 3.432 11.0688 3.432C11.7328 3.432 12.2888 3.596 12.7368 3.924C13.1848 4.244 13.5208 4.724 13.7448 5.364C13.9768 6.004 14.0928 6.8 14.0928 7.752C14.0928 8.688 13.9768 9.48 13.7448 10.128C13.5128 10.776 13.1728 11.268 12.7248 11.604C12.2768 11.94 11.7248 12.108 11.0688 12.108ZM11.0688 11.076C11.6848 11.076 12.1368 10.808 12.4248 10.272C12.7208 9.736 12.8688 8.896 12.8688 7.752C12.8688 6.608 12.7208 5.776 12.4248 5.256C12.1368 4.728 11.6848 4.464 11.0688 4.464C10.4608 4.464 10.0088 4.728 9.71275 5.256C9.41675 5.776 9.26875 6.608 9.26875 7.752C9.26875 8.896 9.41675 9.736 9.71275 10.272C10.0088 10.808 10.4608 11.076 11.0688 11.076ZM15.6721 12V3.54H16.7161L20.0401 9.732H19.6681L22.9681 3.54H23.9881V12H22.8721V5.304H23.1361L20.2201 10.704H19.4641L16.5121 5.292H16.8001V12H15.6721Z" fill="white"/>
<path d="M1.47344 52L5.60144 44.116V44.584H1.01744V43.54H6.74144V44.464L2.84144 52H1.47344ZM11.0688 52.108C10.4128 52.108 9.86075 51.94 9.41275 51.604C8.96475 51.268 8.62475 50.78 8.39275 50.14C8.16075 49.492 8.04475 48.7 8.04475 47.764C8.04475 46.812 8.16075 46.016 8.39275 45.376C8.62475 44.736 8.96475 44.252 9.41275 43.924C9.86075 43.596 10.4128 43.432 11.0688 43.432C11.7328 43.432 12.2888 43.596 12.7368 43.924C13.1848 44.244 13.5208 44.724 13.7448 45.364C13.9768 46.004 14.0928 46.8 14.0928 47.752C14.0928 48.688 13.9768 49.48 13.7448 50.128C13.5128 50.776 13.1728 51.268 12.7248 51.604C12.2768 51.94 11.7248 52.108 11.0688 52.108ZM11.0688 51.076C11.6848 51.076 12.1368 50.808 12.4248 50.272C12.7208 49.736 12.8688 48.896 12.8688 47.752C12.8688 46.608 12.7208 45.776 12.4248 45.256C12.1368 44.728 11.6848 44.464 11.0688 44.464C10.4608 44.464 10.0088 44.728 9.71275 45.256C9.41675 45.776 9.26875 46.608 9.26875 47.752C9.26875 48.896 9.41675 49.736 9.71275 50.272C10.0088 50.808 10.4608 51.076 11.0688 51.076ZM15.6721 52V43.54H16.7161L20.0401 49.732H19.6681L22.9681 43.54H23.9881V52H22.8721V45.304H23.1361L20.2201 50.704H19.4641L16.5121 45.292H16.8001V52H15.6721Z" fill="white"/>
<path d="M4.17344 92.108C3.49344 92.108 2.91344 91.944 2.43344 91.616C1.96144 91.288 1.59744 90.816 1.34144 90.2C1.09344 89.576 0.969438 88.828 0.969438 87.956C0.969438 86.98 1.10944 86.16 1.38944 85.496C1.66944 84.824 2.07344 84.312 2.60144 83.96C3.12944 83.608 3.76144 83.432 4.49744 83.432C4.78544 83.432 5.07744 83.472 5.37344 83.552C5.66944 83.632 5.94944 83.744 6.21344 83.888C6.48544 84.032 6.71744 84.208 6.90944 84.416L6.47744 85.352C6.18144 85.064 5.86144 84.848 5.51744 84.704C5.18144 84.56 4.83344 84.488 4.47344 84.488C4.09744 84.488 3.76544 84.556 3.47744 84.692C3.19744 84.828 2.95744 85.032 2.75744 85.304C2.56544 85.576 2.41744 85.912 2.31344 86.312C2.21744 86.712 2.16944 87.18 2.16944 87.716V88.736H2.03744C2.09344 88.304 2.22544 87.932 2.43344 87.62C2.64944 87.3 2.92544 87.056 3.26144 86.888C3.59744 86.72 3.96944 86.636 4.37744 86.636C4.87344 86.636 5.30944 86.752 5.68544 86.984C6.06944 87.208 6.36944 87.524 6.58544 87.932C6.80144 88.34 6.90944 88.804 6.90944 89.324C6.90944 89.86 6.79344 90.34 6.56144 90.764C6.32944 91.188 6.00544 91.52 5.58944 91.76C5.18144 91.992 4.70944 92.108 4.17344 92.108ZM4.10144 91.1C4.42944 91.1 4.71744 91.028 4.96544 90.884C5.21344 90.74 5.40544 90.54 5.54144 90.284C5.67744 90.02 5.74544 89.716 5.74544 89.372C5.74544 89.028 5.67744 88.728 5.54144 88.472C5.40544 88.216 5.21344 88.016 4.96544 87.872C4.71744 87.72 4.42944 87.644 4.10144 87.644C3.77344 87.644 3.48544 87.72 3.23744 87.872C2.99744 88.016 2.80544 88.216 2.66144 88.472C2.52544 88.728 2.45744 89.028 2.45744 89.372C2.45744 89.716 2.52544 90.02 2.66144 90.284C2.80544 90.54 3.00144 90.74 3.24944 90.884C3.49744 91.028 3.78144 91.1 4.10144 91.1ZM11.0688 92.108C10.4128 92.108 9.86075 91.94 9.41275 91.604C8.96475 91.268 8.62475 90.78 8.39275 90.14C8.16075 89.492 8.04475 88.7 8.04475 87.764C8.04475 86.812 8.16075 86.016 8.39275 85.376C8.62475 84.736 8.96475 84.252 9.41275 83.924C9.86075 83.596 10.4128 83.432 11.0688 83.432C11.7328 83.432 12.2888 83.596 12.7368 83.924C13.1848 84.244 13.5208 84.724 13.7448 85.364C13.9768 86.004 14.0928 86.8 14.0928 87.752C14.0928 88.688 13.9768 89.48 13.7448 90.128C13.5128 90.776 13.1728 91.268 12.7248 91.604C12.2768 91.94 11.7248 92.108 11.0688 92.108ZM11.0688 91.076C11.6848 91.076 12.1368 90.808 12.4248 90.272C12.7208 89.736 12.8688 88.896 12.8688 87.752C12.8688 86.608 12.7208 85.776 12.4248 85.256C12.1368 84.728 11.6848 84.464 11.0688 84.464C10.4608 84.464 10.0088 84.728 9.71275 85.256C9.41675 85.776 9.26875 86.608 9.26875 87.752C9.26875 88.896 9.41675 89.736 9.71275 90.272C10.0088 90.808 10.4608 91.076 11.0688 91.076ZM15.6721 92V83.54H16.7161L20.0401 89.732H19.6681L22.9681 83.54H23.9881V92H22.8721V85.304H23.1361L20.2201 90.704H19.4641L16.5121 85.292H16.8001V92H15.6721Z" fill="white"/>
<path d="M4.00544 132.108C3.63744 132.108 3.27744 132.068 2.92544 131.988C2.58144 131.908 2.25744 131.796 1.95344 131.652C1.64944 131.508 1.38544 131.332 1.16144 131.124L1.58144 130.164C1.96544 130.468 2.35344 130.692 2.74544 130.836C3.13744 130.98 3.54944 131.052 3.98144 131.052C4.53344 131.052 4.96544 130.904 5.27744 130.608C5.58944 130.312 5.74544 129.916 5.74544 129.42C5.74544 128.916 5.59744 128.504 5.30144 128.184C5.00544 127.864 4.59344 127.704 4.06544 127.704C3.68944 127.704 3.35344 127.78 3.05744 127.932C2.76944 128.084 2.50944 128.316 2.27744 128.628H1.41344V123.54H6.45344V124.584H2.62544V127.632H2.28944C2.50544 127.328 2.78944 127.092 3.14144 126.924C3.50144 126.756 3.89744 126.672 4.32944 126.672C4.86544 126.672 5.32944 126.784 5.72144 127.008C6.11344 127.232 6.41744 127.548 6.63344 127.956C6.84944 128.356 6.95744 128.824 6.95744 129.36C6.95744 129.904 6.83744 130.384 6.59744 130.8C6.35744 131.208 6.01744 131.528 5.57744 131.76C5.13744 131.992 4.61344 132.108 4.00544 132.108ZM11.0688 132.108C10.4128 132.108 9.86075 131.94 9.41275 131.604C8.96475 131.268 8.62475 130.78 8.39275 130.14C8.16075 129.492 8.04475 128.7 8.04475 127.764C8.04475 126.812 8.16075 126.016 8.39275 125.376C8.62475 124.736 8.96475 124.252 9.41275 123.924C9.86075 123.596 10.4128 123.432 11.0688 123.432C11.7328 123.432 12.2888 123.596 12.7368 123.924C13.1848 124.244 13.5208 124.724 13.7448 125.364C13.9768 126.004 14.0928 126.8 14.0928 127.752C14.0928 128.688 13.9768 129.48 13.7448 130.128C13.5128 130.776 13.1728 131.268 12.7248 131.604C12.2768 131.94 11.7248 132.108 11.0688 132.108ZM11.0688 131.076C11.6848 131.076 12.1368 130.808 12.4248 130.272C12.7208 129.736 12.8688 128.896 12.8688 127.752C12.8688 126.608 12.7208 125.776 12.4248 125.256C12.1368 124.728 11.6848 124.464 11.0688 124.464C10.4608 124.464 10.0088 124.728 9.71275 125.256C9.41675 125.776 9.26875 126.608 9.26875 127.752C9.26875 128.896 9.41675 129.736 9.71275 130.272C10.0088 130.808 10.4608 131.076 11.0688 131.076ZM15.6721 132V123.54H16.7161L20.0401 129.732H19.6681L22.9681 123.54H23.9881V132H22.8721V125.304H23.1361L20.2201 130.704H19.4641L16.5121 125.292H16.8001V132H15.6721Z" fill="white"/>
<path d="M4.64144 172V170.284H0.837438V169.36L4.85744 163.54H5.87744V169.24H7.11344V170.284H5.87744V172H4.64144ZM4.64144 169.24V165.028H4.96544L1.84544 169.576V169.24H4.64144ZM11.0688 172.108C10.4128 172.108 9.86075 171.94 9.41275 171.604C8.96475 171.268 8.62475 170.78 8.39275 170.14C8.16075 169.492 8.04475 168.7 8.04475 167.764C8.04475 166.812 8.16075 166.016 8.39275 165.376C8.62475 164.736 8.96475 164.252 9.41275 163.924C9.86075 163.596 10.4128 163.432 11.0688 163.432C11.7328 163.432 12.2888 163.596 12.7368 163.924C13.1848 164.244 13.5208 164.724 13.7448 165.364C13.9768 166.004 14.0928 166.8 14.0928 167.752C14.0928 168.688 13.9768 169.48 13.7448 170.128C13.5128 170.776 13.1728 171.268 12.7248 171.604C12.2768 171.94 11.7248 172.108 11.0688 172.108ZM11.0688 171.076C11.6848 171.076 12.1368 170.808 12.4248 170.272C12.7208 169.736 12.8688 168.896 12.8688 167.752C12.8688 166.608 12.7208 165.776 12.4248 165.256C12.1368 164.728 11.6848 164.464 11.0688 164.464C10.4608 164.464 10.0088 164.728 9.71275 165.256C9.41675 165.776 9.26875 166.608 9.26875 167.752C9.26875 168.896 9.41675 169.736 9.71275 170.272C10.0088 170.808 10.4608 171.076 11.0688 171.076ZM15.6721 172V163.54H16.7161L20.0401 169.732H19.6681L22.9681 163.54H23.9881V172H22.8721V165.304H23.1361L20.2201 170.704H19.4641L16.5121 165.292H16.8001V172H15.6721Z" fill="white"/>
<path d="M3.74144 212.108C3.36544 212.108 2.99744 212.072 2.63744 212C2.28544 211.92 1.95344 211.808 1.64144 211.664C1.33744 211.512 1.06944 211.332 0.837438 211.124L1.26944 210.164C1.64544 210.468 2.03344 210.692 2.43344 210.836C2.83344 210.98 3.25744 211.052 3.70544 211.052C4.08944 211.052 4.41344 210.996 4.67744 210.884C4.94144 210.772 5.13744 210.608 5.26544 210.392C5.40144 210.176 5.46944 209.916 5.46944 209.612C5.46944 209.156 5.31744 208.816 5.01344 208.592C4.71744 208.36 4.28544 208.244 3.71744 208.244H2.40944V207.2H3.59744C3.94144 207.2 4.23344 207.144 4.47344 207.032C4.71344 206.912 4.89744 206.748 5.02544 206.54C5.16144 206.324 5.22944 206.064 5.22944 205.76C5.22944 205.352 5.09344 205.04 4.82144 204.824C4.55744 204.6 4.16944 204.488 3.65744 204.488C3.22544 204.488 2.82544 204.564 2.45744 204.716C2.08944 204.868 1.74144 205.1 1.41344 205.412L0.981438 204.464C1.30944 204.136 1.71744 203.884 2.20544 203.708C2.70144 203.524 3.21744 203.432 3.75344 203.432C4.31344 203.432 4.79344 203.52 5.19344 203.696C5.60144 203.872 5.90944 204.124 6.11744 204.452C6.33344 204.78 6.44144 205.172 6.44144 205.628C6.44144 206.14 6.29744 206.584 6.00944 206.96C5.72944 207.328 5.34144 207.572 4.84544 207.692V207.56C5.23744 207.624 5.56944 207.752 5.84144 207.944C6.11344 208.136 6.32144 208.38 6.46544 208.676C6.60944 208.972 6.68144 209.312 6.68144 209.696C6.68144 210.192 6.56144 210.624 6.32144 210.992C6.08944 211.352 5.75344 211.628 5.31344 211.82C4.87344 212.012 4.34944 212.108 3.74144 212.108ZM11.0688 212.108C10.4128 212.108 9.86075 211.94 9.41275 211.604C8.96475 211.268 8.62475 210.78 8.39275 210.14C8.16075 209.492 8.04475 208.7 8.04475 207.764C8.04475 206.812 8.16075 206.016 8.39275 205.376C8.62475 204.736 8.96475 204.252 9.41275 203.924C9.86075 203.596 10.4128 203.432 11.0688 203.432C11.7328 203.432 12.2888 203.596 12.7368 203.924C13.1848 204.244 13.5208 204.724 13.7448 205.364C13.9768 206.004 14.0928 206.8 14.0928 207.752C14.0928 208.688 13.9768 209.48 13.7448 210.128C13.5128 210.776 13.1728 211.268 12.7248 211.604C12.2768 211.94 11.7248 212.108 11.0688 212.108ZM11.0688 211.076C11.6848 211.076 12.1368 210.808 12.4248 210.272C12.7208 209.736 12.8688 208.896 12.8688 207.752C12.8688 206.608 12.7208 205.776 12.4248 205.256C12.1368 204.728 11.6848 204.464 11.0688 204.464C10.4608 204.464 10.0088 204.728 9.71275 205.256C9.41675 205.776 9.26875 206.608 9.26875 207.752C9.26875 208.896 9.41675 209.736 9.71275 210.272C10.0088 210.808 10.4608 211.076 11.0688 211.076ZM15.6721 212V203.54H16.7161L20.0401 209.732H19.6681L22.9681 203.54H23.9881V212H22.8721V205.304H23.1361L20.2201 210.704H19.4641L16.5121 205.292H16.8001V212H15.6721Z" fill="white"/>
<path d="M1.29344 252V251.076L4.11344 248.052C4.37744 247.764 4.58944 247.5 4.74944 247.26C4.90944 247.012 5.02544 246.776 5.09744 246.552C5.17744 246.32 5.21744 246.088 5.21744 245.856C5.21744 245.408 5.08144 245.068 4.80944 244.836C4.53744 244.604 4.13744 244.488 3.60944 244.488C3.20144 244.488 2.81344 244.564 2.44544 244.716C2.08544 244.868 1.74144 245.1 1.41344 245.412L0.969438 244.464C1.28944 244.152 1.69744 243.904 2.19344 243.72C2.68944 243.528 3.20544 243.432 3.74144 243.432C4.32544 243.432 4.81744 243.524 5.21744 243.708C5.62544 243.884 5.93344 244.144 6.14144 244.488C6.34944 244.832 6.45344 245.252 6.45344 245.748C6.45344 246.004 6.42144 246.256 6.35744 246.504C6.30144 246.744 6.20944 246.984 6.08144 247.224C5.96144 247.464 5.80544 247.712 5.61344 247.968C5.42944 248.224 5.20544 248.488 4.94144 248.76L2.52944 251.304V250.956H6.78944V252H1.29344ZM11.0688 252.108C10.4128 252.108 9.86075 251.94 9.41275 251.604C8.96475 251.268 8.62475 250.78 8.39275 250.14C8.16075 249.492 8.04475 248.7 8.04475 247.764C8.04475 246.812 8.16075 246.016 8.39275 245.376C8.62475 244.736 8.96475 244.252 9.41275 243.924C9.86075 243.596 10.4128 243.432 11.0688 243.432C11.7328 243.432 12.2888 243.596 12.7368 243.924C13.1848 244.244 13.5208 244.724 13.7448 245.364C13.9768 246.004 14.0928 246.8 14.0928 247.752C14.0928 248.688 13.9768 249.48 13.7448 250.128C13.5128 250.776 13.1728 251.268 12.7248 251.604C12.2768 251.94 11.7248 252.108 11.0688 252.108ZM11.0688 251.076C11.6848 251.076 12.1368 250.808 12.4248 250.272C12.7208 249.736 12.8688 248.896 12.8688 247.752C12.8688 246.608 12.7208 245.776 12.4248 245.256C12.1368 244.728 11.6848 244.464 11.0688 244.464C10.4608 244.464 10.0088 244.728 9.71275 245.256C9.41675 245.776 9.26875 246.608 9.26875 247.752C9.26875 248.896 9.41675 249.736 9.71275 250.272C10.0088 250.808 10.4608 251.076 11.0688 251.076ZM15.6721 252V243.54H16.7161L20.0401 249.732H19.6681L22.9681 243.54H23.9881V252H22.8721V245.304H23.1361L20.2201 250.704H19.4641L16.5121 245.292H16.8001V252H15.6721Z" fill="white"/>
<path d="M1.67744 292V290.956H3.59744V284.596H4.22144L2.09744 285.916L1.59344 284.992L3.95744 283.54H4.83344V290.956H6.63344V292H1.67744ZM11.0688 292.108C10.4128 292.108 9.86075 291.94 9.41275 291.604C8.96475 291.268 8.62475 290.78 8.39275 290.14C8.16075 289.492 8.04475 288.7 8.04475 287.764C8.04475 286.812 8.16075 286.016 8.39275 285.376C8.62475 284.736 8.96475 284.252 9.41275 283.924C9.86075 283.596 10.4128 283.432 11.0688 283.432C11.7328 283.432 12.2888 283.596 12.7368 283.924C13.1848 284.244 13.5208 284.724 13.7448 285.364C13.9768 286.004 14.0928 286.8 14.0928 287.752C14.0928 288.688 13.9768 289.48 13.7448 290.128C13.5128 290.776 13.1728 291.268 12.7248 291.604C12.2768 291.94 11.7248 292.108 11.0688 292.108ZM11.0688 291.076C11.6848 291.076 12.1368 290.808 12.4248 290.272C12.7208 289.736 12.8688 288.896 12.8688 287.752C12.8688 286.608 12.7208 285.776 12.4248 285.256C12.1368 284.728 11.6848 284.464 11.0688 284.464C10.4608 284.464 10.0088 284.728 9.71275 285.256C9.41675 285.776 9.26875 286.608 9.26875 287.752C9.26875 288.896 9.41675 289.736 9.71275 290.272C10.0088 290.808 10.4608 291.076 11.0688 291.076ZM15.6721 292V283.54H16.7161L20.0401 289.732H19.6681L22.9681 283.54H23.9881V292H22.8721V285.304H23.1361L20.2201 290.704H19.4641L16.5121 285.292H16.8001V292H15.6721Z" fill="white"/>
<path d="M21.4047 332.108C20.7487 332.108 20.1967 331.94 19.7487 331.604C19.3007 331.268 18.9607 330.78 18.7287 330.14C18.4967 329.492 18.3807 328.7 18.3807 327.764C18.3807 326.812 18.4967 326.016 18.7287 325.376C18.9607 324.736 19.3007 324.252 19.7487 323.924C20.1967 323.596 20.7487 323.432 21.4047 323.432C22.0687 323.432 22.6247 323.596 23.0727 323.924C23.5207 324.244 23.8567 324.724 24.0807 325.364C24.3127 326.004 24.4287 326.8 24.4287 327.752C24.4287 328.688 24.3127 329.48 24.0807 330.128C23.8487 330.776 23.5087 331.268 23.0607 331.604C22.6127 331.94 22.0607 332.108 21.4047 332.108ZM21.4047 331.076C22.0207 331.076 22.4727 330.808 22.7607 330.272C23.0567 329.736 23.2047 328.896 23.2047 327.752C23.2047 326.608 23.0567 325.776 22.7607 325.256C22.4727 324.728 22.0207 324.464 21.4047 324.464C20.7967 324.464 20.3447 324.728 20.0487 325.256C19.7527 325.776 19.6047 326.608 19.6047 327.752C19.6047 328.896 19.7527 329.736 20.0487 330.272C20.3447 330.808 20.7967 331.076 21.4047 331.076Z" fill="white"/>
</g>
<line opacity="0.32" x1="33.5" y1="7.5" x2="368.5" y2="7.5" stroke="white" stroke-linecap="round" stroke-dasharray="0.05 6"/>
<line opacity="0.32" x1="33.5" y1="47.5" x2="368.5" y2="47.5" stroke="white" stroke-linecap="round" stroke-dasharray="0.05 6"/>
<line opacity="0.32" x1="33.5" y1="87.5" x2="368.5" y2="87.5" stroke="white" stroke-linecap="round" stroke-dasharray="0.05 6"/>
<line opacity="0.32" x1="33.5" y1="127.5" x2="368.5" y2="127.5" stroke="white" stroke-linecap="round" stroke-dasharray="0.05 6"/>
<line opacity="0.32" x1="33.5" y1="167.5" x2="368.5" y2="167.5" stroke="white" stroke-linecap="round" stroke-dasharray="0.05 6"/>
<line opacity="0.32" x1="33.5" y1="207.5" x2="368.5" y2="207.5" stroke="white" stroke-linecap="round" stroke-dasharray="0.05 6"/>
<line opacity="0.32" x1="33.5" y1="247.5" x2="368.5" y2="247.5" stroke="white" stroke-linecap="round" stroke-dasharray="0.05 6"/>
<line opacity="0.32" x1="33.5" y1="287.5" x2="368.5" y2="287.5" stroke="white" stroke-linecap="round" stroke-dasharray="0.05 6"/>
<line x1="33" y1="327" x2="369" y2="327" stroke="white" stroke-opacity="0.16" stroke-width="2"/>
<rect x="144" y="328" width="2" height="6" fill="white" fill-opacity="0.16"/>
<rect x="256" y="328" width="2" height="6" fill="white" fill-opacity="0.16"/>
<path d="M109 62C109 59.7909 110.791 58 113 58H177C179.209 58 181 59.7909 181 62V326H109V62Z" fill="url(#paint0_linear_1115_2)"/>
<path d="M221 200C221 197.791 222.791 196 225 196H289C291.209 196 293 197.791 293 200V326H221V200Z" fill="url(#paint1_linear_1115_2)"/>
<defs>
<linearGradient id="paint0_linear_1115_2" x1="145" y1="326" x2="145" y2="58" gradientUnits="userSpaceOnUse">
<stop stop-color="#181A20"/>
<stop offset="1" stop-color="#16C784"/>
</linearGradient>
<linearGradient id="paint1_linear_1115_2" x1="257" y1="326" x2="257" y2="196" gradientUnits="userSpaceOnUse">
<stop stop-color="#181A20"/>
<stop offset="1" stop-color="#EF454A"/>
</linearGradient>
</defs>
</svg>
