<svg width="1260" height="373" viewBox="0 0 1260 373" fill="none" xmlns="http://www.w3.org/2000/svg">
<path d="M23.0957 268.713L8.99902 265.142V308H1208V45.7357L1197.82 59.5123L1190.77 82.9836L1182.94 81.4529L1179.02 86.5554L1169.63 39.1025L1166.49 45.7357L1161.01 42.6742L1149.26 48.2869L1143 72.7787L1138.3 66.6558C1136.47 72.2685 1132.82 83.3918 1132.82 82.9836C1132.82 82.5754 1129.69 74.9898 1128.12 71.248L1123.42 83.4939L1117.16 70.7377L1109.32 67.166L1105.41 34L1093.66 50.3279H1089.75L1086.61 53.8996L1084.26 47.7766L1077.21 77.3709L1074.87 69.207L1067.03 67.166L1062.33 75.8402L1060.77 57.4713L1056.85 67.166L1051.37 53.8996L1046.67 61.043L1044.32 57.4713L1041.97 59.5123L1037.27 41.6537L1033.36 79.9222L1027.09 63.5943L1020.83 59.5123L1014.56 86.0451L1004.38 101.352L996.55 98.291L995.767 111.047L991.852 100.842L985.586 114.619L980.887 145.744L975.405 147.275L969.923 149.316L966.791 169.215L962.875 171.766L953.477 169.215L941.73 157.99L937.814 173.297L927.633 178.91L923.718 176.869L922.151 181.971L911.97 173.297L910.404 177.379L899.44 174.828L890.042 185.543L889.259 193.197L884.56 191.156L879.078 198.809L875.162 193.197H865.764L864.198 195.748H861.066L855.583 201.871L846.186 196.769L841.487 186.053L836.005 186.564L830.523 198.809L826.607 194.728L824.258 200.34L820.342 196.769L807.028 200.34L800.763 213.607L791.365 210.035L788.233 219.73L781.184 215.648L775.702 225.342L771.786 228.404L767.088 228.914L760.822 221.771L756.907 223.301L753.774 214.117L749.858 217.178L740.461 210.035L737.328 212.076L734.195 210.035L730.28 196.769H720.882L716.183 208.504L715.4 205.953L713.05 212.586H709.918L706.002 219.73L700.52 213.607L695.821 220.75L689.556 209.014L683.291 212.586L682.508 220.75L679.375 214.627L674.676 215.648L673.11 212.586L669.194 231.975L664.495 229.935L660.579 236.568L655.88 218.199L651.965 215.648L648.049 205.953L644.916 209.014L636.302 196.769L633.952 198.299H629.253C628.209 201.191 626.121 207.075 626.121 207.484C626.121 207.892 617.767 198.129 613.59 193.197L604.976 198.299L601.06 204.422L595.578 200.34L591.662 214.627L578.349 224.832L575.999 220.75L571.3 225.853H566.601L564.252 219.73L559.553 223.812C555.898 219.389 548.432 210.239 547.806 209.014C547.179 207.79 540.235 214.627 536.842 218.199L528.227 210.545L524.311 215.648L518.046 200.34L510.998 202.891L507.082 211.566L502.383 195.238L489.853 196.769L484.371 189.115L481.238 193.197L474.973 185.543L472.623 189.115H469.491L463.226 181.461L456.96 189.115L446.78 190.135L442.864 187.074L441.297 192.176L435.815 191.156L429.55 187.074H424.851L423.285 189.115L418.586 188.094L408.405 178.4C407.622 182.992 406.056 192.789 406.056 195.238C406.056 197.687 400.835 191.496 398.224 188.094L394.309 194.217L391.959 191.156L388.826 204.932L385.694 200.34L380.995 204.932L376.296 205.953L373.947 196.769L368.465 205.953L356.717 195.238L352.018 198.299V209.014L345.753 210.545L339.488 193.197L334.789 200.34L327.741 193.197L323.042 194.217L316.777 185.543L314.427 192.176L311.295 189.115L304.246 193.197L301.114 200.34L298.764 191.156L291.716 194.217L290.15 189.115L286.234 194.217L278.402 174.828L272.92 179.93L271.354 173.807L265.872 185.543L258.824 182.482L254.125 191.156L245.51 173.807L239.245 178.91L235.329 174.828L232.197 179.93L224.365 175.848L214.967 196.769L207.919 184.523L204.003 201.871L200.871 188.094L197.738 182.482L194.605 192.176L191.473 181.461L185.208 172.277L182.858 177.379L178.159 175.848L175.81 184.523L169.545 185.543L160.93 198.299L154.665 183.502C152.054 188.945 146.833 200.238 146.833 201.871V200.85L142.134 205.443L135.869 200.85V215.137C135.869 215.546 131.17 224.832 128.821 229.424L124.122 227.894L118.64 230.955L113.158 227.894L110.025 231.975L106.11 229.424L102.194 231.975L99.0612 227.894L88.8803 239.119L85.7477 237.588L63.0363 260.039L55.988 257.488L48.1565 261.57L41.8913 260.039L39.5418 264.121L31.7104 261.57L23.0957 268.713Z" fill="url(#paint0_linear_1098_33873)"/>
<g filter="url(#filter0_d_1098_33873)">
<path d="M8.99902 258.141L23.0957 261.713L31.7104 254.57L39.5418 257.121L41.8913 253.039L48.1565 254.57L55.988 250.488L63.0363 253.039L85.7477 230.588L88.8803 232.119L99.0612 220.894L102.194 224.975L106.11 222.424L110.025 224.975L113.158 220.894L118.64 223.955L124.122 220.894L128.821 222.424C131.17 217.832 135.869 208.546 135.869 208.137C135.869 207.729 135.869 198.443 135.869 193.85L142.134 198.443L146.833 193.85C146.833 194.871 146.833 196.504 146.833 194.871C146.833 193.238 152.054 181.945 154.665 176.502L160.93 191.299L169.545 178.543L175.81 177.523L178.159 168.848L182.858 170.379L185.208 165.277L191.473 174.461L194.605 185.176L197.738 175.482L200.871 181.094L204.003 194.871L207.919 177.523L214.967 189.769L224.365 168.848L232.197 172.93L235.329 167.828L239.245 171.91L245.51 166.807L254.125 184.156L258.824 175.482L265.872 178.543L271.354 166.807L272.92 172.93L278.402 167.828L286.234 187.217L290.15 182.115L291.716 187.217L298.764 184.156L301.114 193.34L304.246 186.197L311.295 182.115L314.427 185.176L316.777 178.543L323.042 187.217L327.741 186.197L334.789 193.34L339.488 186.197L345.753 203.545L352.018 202.014V191.299L356.717 188.238L368.465 198.953L373.947 189.769L376.296 198.953L380.995 197.932L385.694 193.34L388.826 197.932L391.959 184.156L394.309 187.217L398.224 181.094C400.835 184.496 406.056 190.687 406.056 188.238C406.056 185.789 407.622 175.992 408.405 171.4L418.586 181.094L423.285 182.115L424.851 180.074H429.55L435.815 184.156L441.297 185.176L442.864 180.074L446.78 183.135L456.96 182.115L463.226 174.461L469.491 182.115H472.623L474.973 178.543L481.238 186.197L484.371 182.115L489.853 189.769L502.383 188.238L507.082 204.566L510.998 195.891L518.046 193.34L524.311 208.648L528.227 203.545L536.842 211.199C540.235 207.627 547.179 200.79 547.806 202.014C548.432 203.239 555.898 212.389 559.553 216.812L564.252 212.73L566.601 218.853H571.3L575.999 213.75L578.349 217.832L591.662 207.627L595.578 193.34L601.06 197.422L604.976 191.299L613.59 186.197C617.767 191.129 626.121 200.892 626.121 200.484C626.121 200.075 628.209 194.191 629.253 191.299H633.952L636.302 189.769L644.916 202.014L648.049 198.953L651.965 208.648L655.88 211.199L659.288 268.498L663.272 231.471L668.251 237.231L673.11 205.586L674.676 208.648L679.375 207.627L682.507 213.75L683.291 205.586L689.556 202.014L695.821 213.75L700.52 206.607L706.002 212.73L709.918 205.586H713.05L715.4 198.953L716.183 201.504L720.882 189.769H730.28L734.195 203.035L737.328 205.076L740.461 203.035L749.858 210.178L753.774 207.117L756.907 216.301L760.822 214.771L767.088 221.914L771.787 221.404L775.702 218.342L781.184 208.648L788.233 212.73L791.365 203.035L800.763 206.607L807.028 193.34L820.342 189.769L824.257 193.34L826.607 187.728L830.523 191.81L836.005 179.564L841.487 179.053L846.186 189.769L855.584 194.871L861.066 188.748H864.198L865.764 186.197H875.162L879.078 191.81L884.56 184.156L889.259 186.197L890.042 178.543L899.44 167.828L910.404 170.379L911.97 166.297L922.151 174.971L923.718 169.869L927.633 171.91L937.814 166.297L941.73 150.99L953.477 162.215L962.875 164.766L966.791 162.215L969.923 142.316L975.405 140.275L980.887 138.744L985.586 107.619L991.852 93.8422L995.767 104.047L996.55 91.291L1004.38 94.3525L1014.56 79.0451L1020.83 52.5123L1027.09 56.5943L1033.36 72.9222L1037.27 34.6537L1041.97 52.5123L1044.32 50.4713L1046.67 54.043L1051.37 46.8996L1056.85 60.166L1060.77 50.4713L1062.33 68.8402L1067.03 60.166L1074.87 62.207L1077.21 70.3709L1084.26 40.7766L1086.61 46.8996L1089.75 43.3279H1093.66L1105.41 27L1109.32 60.166L1117.16 63.7377L1123.42 76.4939L1128.12 64.248C1129.69 67.9898 1132.82 75.5754 1132.82 75.9836C1132.82 76.3918 1136.47 65.2685 1138.3 59.6558L1143 65.7787L1149.26 41.2869L1161.01 35.6742L1166.49 38.7357L1169.63 32.1025L1179.02 79.5554L1182.94 74.4529L1190.77 75.9836L1197.82 52.5123L1208 38.7357" stroke="#A06AFF" stroke-width="1.5" stroke-linecap="round"/>
</g>
<rect x="8" y="343" width="1201" height="2" fill="white" fill-opacity="0.04"/>
<rect x="8" y="301" width="1201" height="2" fill="white" fill-opacity="0.16"/>
<rect x="8" y="259" width="1201" height="2" fill="white" fill-opacity="0.04"/>
<rect x="8" y="217" width="1201" height="2" fill="white" fill-opacity="0.04"/>
<rect x="8" y="175" width="1201" height="2" fill="white" fill-opacity="0.04"/>
<rect x="8" y="133" width="1201" height="2" fill="white" fill-opacity="0.04"/>
<rect x="8" y="91" width="1201" height="2" fill="white" fill-opacity="0.04"/>
<rect x="8" y="49" width="1201" height="2" fill="white" fill-opacity="0.04"/>
<rect x="8" y="7" width="1201" height="2" fill="white" fill-opacity="0.04"/>
<path opacity="0.48" d="M1225.93 345.288V344.304H1229.39V345.288H1225.93ZM1233.97 348.108C1233.6 348.108 1233.24 348.068 1232.89 347.988C1232.54 347.908 1232.22 347.796 1231.91 347.652C1231.61 347.508 1231.35 347.332 1231.12 347.124L1231.54 346.164C1231.93 346.468 1232.31 346.692 1232.71 346.836C1233.1 346.98 1233.51 347.052 1233.94 347.052C1234.49 347.052 1234.93 346.904 1235.24 346.608C1235.55 346.312 1235.71 345.916 1235.71 345.42C1235.71 344.916 1235.56 344.504 1235.26 344.184C1234.97 343.864 1234.55 343.704 1234.03 343.704C1233.65 343.704 1233.31 343.78 1233.02 343.932C1232.73 344.084 1232.47 344.316 1232.24 344.628H1231.37V339.54H1236.41V340.584H1232.59V343.632H1232.25C1232.47 343.328 1232.75 343.092 1233.1 342.924C1233.46 342.756 1233.86 342.672 1234.29 342.672C1234.83 342.672 1235.29 342.784 1235.68 343.008C1236.07 343.232 1236.38 343.548 1236.59 343.956C1236.81 344.356 1236.92 344.824 1236.92 345.36C1236.92 345.904 1236.8 346.384 1236.56 346.8C1236.32 347.208 1235.98 347.528 1235.54 347.76C1235.1 347.992 1234.57 348.108 1233.97 348.108ZM1241.03 348.108C1240.37 348.108 1239.82 347.94 1239.37 347.604C1238.93 347.268 1238.59 346.78 1238.35 346.14C1238.12 345.492 1238.01 344.7 1238.01 343.764C1238.01 342.812 1238.12 342.016 1238.35 341.376C1238.59 340.736 1238.93 340.252 1239.37 339.924C1239.82 339.596 1240.37 339.432 1241.03 339.432C1241.69 339.432 1242.25 339.596 1242.7 339.924C1243.15 340.244 1243.48 340.724 1243.71 341.364C1243.94 342.004 1244.05 342.8 1244.05 343.752C1244.05 344.688 1243.94 345.48 1243.71 346.128C1243.47 346.776 1243.13 347.268 1242.69 347.604C1242.24 347.94 1241.69 348.108 1241.03 348.108ZM1241.03 347.076C1241.65 347.076 1242.1 346.808 1242.39 346.272C1242.68 345.736 1242.83 344.896 1242.83 343.752C1242.83 342.608 1242.68 341.776 1242.39 341.256C1242.1 340.728 1241.65 340.464 1241.03 340.464C1240.42 340.464 1239.97 340.728 1239.67 341.256C1239.38 341.776 1239.23 342.608 1239.23 343.752C1239.23 344.896 1239.38 345.736 1239.67 346.272C1239.97 346.808 1240.42 347.076 1241.03 347.076ZM1248.23 348.108C1247.57 348.108 1247.02 347.94 1246.57 347.604C1246.12 347.268 1245.78 346.78 1245.55 346.14C1245.32 345.492 1245.2 344.7 1245.2 343.764C1245.2 342.812 1245.32 342.016 1245.55 341.376C1245.78 340.736 1246.12 340.252 1246.57 339.924C1247.02 339.596 1247.57 339.432 1248.23 339.432C1248.89 339.432 1249.45 339.596 1249.89 339.924C1250.34 340.244 1250.68 340.724 1250.9 341.364C1251.13 342.004 1251.25 342.8 1251.25 343.752C1251.25 344.688 1251.13 345.48 1250.9 346.128C1250.67 346.776 1250.33 347.268 1249.88 347.604C1249.43 347.94 1248.88 348.108 1248.23 348.108ZM1248.23 347.076C1248.84 347.076 1249.29 346.808 1249.58 346.272C1249.88 345.736 1250.03 344.896 1250.03 343.752C1250.03 342.608 1249.88 341.776 1249.58 341.256C1249.29 340.728 1248.84 340.464 1248.23 340.464C1247.62 340.464 1247.17 340.728 1246.87 341.256C1246.57 341.776 1246.43 342.608 1246.43 343.752C1246.43 344.896 1246.57 345.736 1246.87 346.272C1247.17 346.808 1247.62 347.076 1248.23 347.076ZM1252.8 348V339.54H1256.33C1257.21 339.54 1257.89 339.736 1258.37 340.128C1258.86 340.512 1259.1 341.052 1259.1 341.748C1259.1 342.26 1258.95 342.692 1258.65 343.044C1258.34 343.396 1257.93 343.632 1257.41 343.752V343.572C1257.8 343.628 1258.14 343.748 1258.42 343.932C1258.71 344.108 1258.93 344.344 1259.08 344.64C1259.23 344.928 1259.31 345.268 1259.31 345.66C1259.31 346.156 1259.2 346.58 1258.97 346.932C1258.75 347.284 1258.42 347.552 1258 347.736C1257.58 347.912 1257.07 348 1256.48 348H1252.8ZM1254 347.04H1256.33C1256.57 347.04 1256.78 347.024 1256.97 346.992C1257.16 346.952 1257.32 346.896 1257.46 346.824C1257.6 346.744 1257.72 346.648 1257.82 346.536C1257.92 346.416 1257.98 346.28 1258.02 346.128C1258.07 345.976 1258.1 345.804 1258.1 345.612C1258.1 345.42 1258.07 345.248 1258.02 345.096C1257.98 344.944 1257.92 344.812 1257.82 344.7C1257.72 344.588 1257.6 344.496 1257.46 344.424C1257.32 344.344 1257.16 344.288 1256.97 344.256C1256.78 344.216 1256.57 344.196 1256.33 344.196H1254V347.04ZM1254 343.236H1256.14C1256.72 343.236 1257.15 343.12 1257.45 342.888C1257.74 342.656 1257.89 342.316 1257.89 341.868C1257.89 341.42 1257.74 341.08 1257.45 340.848C1257.15 340.616 1256.72 340.5 1256.14 340.5H1254V343.236Z" fill="white"/>
<path opacity="0.48" d="M1256.4 306.108C1255.75 306.108 1255.2 305.94 1254.75 305.604C1254.3 305.268 1253.96 304.78 1253.73 304.14C1253.5 303.492 1253.38 302.7 1253.38 301.764C1253.38 300.812 1253.5 300.016 1253.73 299.376C1253.96 298.736 1254.3 298.252 1254.75 297.924C1255.2 297.596 1255.75 297.432 1256.4 297.432C1257.07 297.432 1257.62 297.596 1258.07 297.924C1258.52 298.244 1258.86 298.724 1259.08 299.364C1259.31 300.004 1259.43 300.8 1259.43 301.752C1259.43 302.688 1259.31 303.48 1259.08 304.128C1258.85 304.776 1258.51 305.268 1258.06 305.604C1257.61 305.94 1257.06 306.108 1256.4 306.108ZM1256.4 305.076C1257.02 305.076 1257.47 304.808 1257.76 304.272C1258.06 303.736 1258.2 302.896 1258.2 301.752C1258.2 300.608 1258.06 299.776 1257.76 299.256C1257.47 298.728 1257.02 298.464 1256.4 298.464C1255.8 298.464 1255.34 298.728 1255.05 299.256C1254.75 299.776 1254.6 300.608 1254.6 301.752C1254.6 302.896 1254.75 303.736 1255.05 304.272C1255.34 304.808 1255.8 305.076 1256.4 305.076Z" fill="white"/>
<path opacity="0.48" d="M1233.97 264.108C1233.6 264.108 1233.24 264.068 1232.89 263.988C1232.54 263.908 1232.22 263.796 1231.91 263.652C1231.61 263.508 1231.35 263.332 1231.12 263.124L1231.54 262.164C1231.93 262.468 1232.31 262.692 1232.71 262.836C1233.1 262.98 1233.51 263.052 1233.94 263.052C1234.49 263.052 1234.93 262.904 1235.24 262.608C1235.55 262.312 1235.71 261.916 1235.71 261.42C1235.71 260.916 1235.56 260.504 1235.26 260.184C1234.97 259.864 1234.55 259.704 1234.03 259.704C1233.65 259.704 1233.31 259.78 1233.02 259.932C1232.73 260.084 1232.47 260.316 1232.24 260.628H1231.37V255.54H1236.41V256.584H1232.59V259.632H1232.25C1232.47 259.328 1232.75 259.092 1233.1 258.924C1233.46 258.756 1233.86 258.672 1234.29 258.672C1234.83 258.672 1235.29 258.784 1235.68 259.008C1236.07 259.232 1236.38 259.548 1236.59 259.956C1236.81 260.356 1236.92 260.824 1236.92 261.36C1236.92 261.904 1236.8 262.384 1236.56 262.8C1236.32 263.208 1235.98 263.528 1235.54 263.76C1235.1 263.992 1234.57 264.108 1233.97 264.108ZM1241.03 264.108C1240.37 264.108 1239.82 263.94 1239.37 263.604C1238.93 263.268 1238.59 262.78 1238.35 262.14C1238.12 261.492 1238.01 260.7 1238.01 259.764C1238.01 258.812 1238.12 258.016 1238.35 257.376C1238.59 256.736 1238.93 256.252 1239.37 255.924C1239.82 255.596 1240.37 255.432 1241.03 255.432C1241.69 255.432 1242.25 255.596 1242.7 255.924C1243.15 256.244 1243.48 256.724 1243.71 257.364C1243.94 258.004 1244.05 258.8 1244.05 259.752C1244.05 260.688 1243.94 261.48 1243.71 262.128C1243.47 262.776 1243.13 263.268 1242.69 263.604C1242.24 263.94 1241.69 264.108 1241.03 264.108ZM1241.03 263.076C1241.65 263.076 1242.1 262.808 1242.39 262.272C1242.68 261.736 1242.83 260.896 1242.83 259.752C1242.83 258.608 1242.68 257.776 1242.39 257.256C1242.1 256.728 1241.65 256.464 1241.03 256.464C1240.42 256.464 1239.97 256.728 1239.67 257.256C1239.38 257.776 1239.23 258.608 1239.23 259.752C1239.23 260.896 1239.38 261.736 1239.67 262.272C1239.97 262.808 1240.42 263.076 1241.03 263.076ZM1248.23 264.108C1247.57 264.108 1247.02 263.94 1246.57 263.604C1246.12 263.268 1245.78 262.78 1245.55 262.14C1245.32 261.492 1245.2 260.7 1245.2 259.764C1245.2 258.812 1245.32 258.016 1245.55 257.376C1245.78 256.736 1246.12 256.252 1246.57 255.924C1247.02 255.596 1247.57 255.432 1248.23 255.432C1248.89 255.432 1249.45 255.596 1249.89 255.924C1250.34 256.244 1250.68 256.724 1250.9 257.364C1251.13 258.004 1251.25 258.8 1251.25 259.752C1251.25 260.688 1251.13 261.48 1250.9 262.128C1250.67 262.776 1250.33 263.268 1249.88 263.604C1249.43 263.94 1248.88 264.108 1248.23 264.108ZM1248.23 263.076C1248.84 263.076 1249.29 262.808 1249.58 262.272C1249.88 261.736 1250.03 260.896 1250.03 259.752C1250.03 258.608 1249.88 257.776 1249.58 257.256C1249.29 256.728 1248.84 256.464 1248.23 256.464C1247.62 256.464 1247.17 256.728 1246.87 257.256C1246.57 257.776 1246.43 258.608 1246.43 259.752C1246.43 260.896 1246.57 261.736 1246.87 262.272C1247.17 262.808 1247.62 263.076 1248.23 263.076ZM1252.8 264V255.54H1256.33C1257.21 255.54 1257.89 255.736 1258.37 256.128C1258.86 256.512 1259.1 257.052 1259.1 257.748C1259.1 258.26 1258.95 258.692 1258.65 259.044C1258.34 259.396 1257.93 259.632 1257.41 259.752V259.572C1257.8 259.628 1258.14 259.748 1258.42 259.932C1258.71 260.108 1258.93 260.344 1259.08 260.64C1259.23 260.928 1259.31 261.268 1259.31 261.66C1259.31 262.156 1259.2 262.58 1258.97 262.932C1258.75 263.284 1258.42 263.552 1258 263.736C1257.58 263.912 1257.07 264 1256.48 264H1252.8ZM1254 263.04H1256.33C1256.57 263.04 1256.78 263.024 1256.97 262.992C1257.16 262.952 1257.32 262.896 1257.46 262.824C1257.6 262.744 1257.72 262.648 1257.82 262.536C1257.92 262.416 1257.98 262.28 1258.02 262.128C1258.07 261.976 1258.1 261.804 1258.1 261.612C1258.1 261.42 1258.07 261.248 1258.02 261.096C1257.98 260.944 1257.92 260.812 1257.82 260.7C1257.72 260.588 1257.6 260.496 1257.46 260.424C1257.32 260.344 1257.16 260.288 1256.97 260.256C1256.78 260.216 1256.57 260.196 1256.33 260.196H1254V263.04ZM1254 259.236H1256.14C1256.72 259.236 1257.15 259.12 1257.45 258.888C1257.74 258.656 1257.89 258.316 1257.89 257.868C1257.89 257.42 1257.74 257.08 1257.45 256.848C1257.15 256.616 1256.72 256.5 1256.14 256.5H1254V259.236Z" fill="white"/>
<path opacity="0.48" d="M1236.83 222V220.956H1238.75V214.596H1239.37L1237.25 215.916L1236.75 214.992L1239.11 213.54H1239.99V220.956H1241.79V222H1236.83ZM1243.33 222V220.572H1244.76V222H1243.33ZM1249.07 222.108C1248.41 222.108 1247.86 221.94 1247.41 221.604C1246.96 221.268 1246.62 220.78 1246.39 220.14C1246.16 219.492 1246.04 218.7 1246.04 217.764C1246.04 216.812 1246.16 216.016 1246.39 215.376C1246.62 214.736 1246.96 214.252 1247.41 213.924C1247.86 213.596 1248.41 213.432 1249.07 213.432C1249.73 213.432 1250.29 213.596 1250.74 213.924C1251.18 214.244 1251.52 214.724 1251.74 215.364C1251.98 216.004 1252.09 216.8 1252.09 217.752C1252.09 218.688 1251.98 219.48 1251.74 220.128C1251.51 220.776 1251.17 221.268 1250.72 221.604C1250.28 221.94 1249.72 222.108 1249.07 222.108ZM1249.07 221.076C1249.68 221.076 1250.14 220.808 1250.42 220.272C1250.72 219.736 1250.87 218.896 1250.87 217.752C1250.87 216.608 1250.72 215.776 1250.42 215.256C1250.14 214.728 1249.68 214.464 1249.07 214.464C1248.46 214.464 1248.01 214.728 1247.71 215.256C1247.42 215.776 1247.27 216.608 1247.27 217.752C1247.27 218.896 1247.42 219.736 1247.71 220.272C1248.01 220.808 1248.46 221.076 1249.07 221.076ZM1255.71 222V214.584H1252.71V213.54H1259.95V214.584H1256.95V222H1255.71Z" fill="white"/>
<path opacity="0.48" d="M1236.83 180V178.956H1238.75V172.596H1239.37L1237.25 173.916L1236.75 172.992L1239.11 171.54H1239.99V178.956H1241.79V180H1236.83ZM1243.33 180V178.572H1244.76V180H1243.33ZM1249.2 180.108C1248.83 180.108 1248.47 180.068 1248.12 179.988C1247.78 179.908 1247.45 179.796 1247.15 179.652C1246.84 179.508 1246.58 179.332 1246.36 179.124L1246.78 178.164C1247.16 178.468 1247.55 178.692 1247.94 178.836C1248.33 178.98 1248.74 179.052 1249.18 179.052C1249.73 179.052 1250.16 178.904 1250.47 178.608C1250.78 178.312 1250.94 177.916 1250.94 177.42C1250.94 176.916 1250.79 176.504 1250.5 176.184C1250.2 175.864 1249.79 175.704 1249.26 175.704C1248.88 175.704 1248.55 175.78 1248.25 175.932C1247.96 176.084 1247.7 176.316 1247.47 176.628H1246.61V171.54H1251.65V172.584H1247.82V175.632H1247.48C1247.7 175.328 1247.98 175.092 1248.34 174.924C1248.7 174.756 1249.09 174.672 1249.52 174.672C1250.06 174.672 1250.52 174.784 1250.92 175.008C1251.31 175.232 1251.61 175.548 1251.83 175.956C1252.04 176.356 1252.15 176.824 1252.15 177.36C1252.15 177.904 1252.03 178.384 1251.79 178.8C1251.55 179.208 1251.21 179.528 1250.77 179.76C1250.33 179.992 1249.81 180.108 1249.2 180.108ZM1255.71 180V172.584H1252.71V171.54H1259.95V172.584H1256.95V180H1255.71Z" fill="white"/>
<path opacity="0.48" d="M1236.45 138V137.076L1239.27 134.052C1239.53 133.764 1239.74 133.5 1239.9 133.26C1240.06 133.012 1240.18 132.776 1240.25 132.552C1240.33 132.32 1240.37 132.088 1240.37 131.856C1240.37 131.408 1240.23 131.068 1239.96 130.836C1239.69 130.604 1239.29 130.488 1238.76 130.488C1238.35 130.488 1237.97 130.564 1237.6 130.716C1237.24 130.868 1236.89 131.1 1236.57 131.412L1236.12 130.464C1236.44 130.152 1236.85 129.904 1237.35 129.72C1237.84 129.528 1238.36 129.432 1238.89 129.432C1239.48 129.432 1239.97 129.524 1240.37 129.708C1240.78 129.884 1241.09 130.144 1241.29 130.488C1241.5 130.832 1241.61 131.252 1241.61 131.748C1241.61 132.004 1241.57 132.256 1241.51 132.504C1241.45 132.744 1241.36 132.984 1241.23 133.224C1241.11 133.464 1240.96 133.712 1240.77 133.968C1240.58 134.224 1240.36 134.488 1240.09 134.76L1237.68 137.304V136.956H1241.94V138H1236.45ZM1243.33 138V136.572H1244.76V138H1243.33ZM1249.07 138.108C1248.41 138.108 1247.86 137.94 1247.41 137.604C1246.96 137.268 1246.62 136.78 1246.39 136.14C1246.16 135.492 1246.04 134.7 1246.04 133.764C1246.04 132.812 1246.16 132.016 1246.39 131.376C1246.62 130.736 1246.96 130.252 1247.41 129.924C1247.86 129.596 1248.41 129.432 1249.07 129.432C1249.73 129.432 1250.29 129.596 1250.74 129.924C1251.18 130.244 1251.52 130.724 1251.74 131.364C1251.98 132.004 1252.09 132.8 1252.09 133.752C1252.09 134.688 1251.98 135.48 1251.74 136.128C1251.51 136.776 1251.17 137.268 1250.72 137.604C1250.28 137.94 1249.72 138.108 1249.07 138.108ZM1249.07 137.076C1249.68 137.076 1250.14 136.808 1250.42 136.272C1250.72 135.736 1250.87 134.896 1250.87 133.752C1250.87 132.608 1250.72 131.776 1250.42 131.256C1250.14 130.728 1249.68 130.464 1249.07 130.464C1248.46 130.464 1248.01 130.728 1247.71 131.256C1247.42 131.776 1247.27 132.608 1247.27 133.752C1247.27 134.896 1247.42 135.736 1247.71 136.272C1248.01 136.808 1248.46 137.076 1249.07 137.076ZM1255.71 138V130.584H1252.71V129.54H1259.95V130.584H1256.95V138H1255.71Z" fill="white"/>
<path opacity="0.48" d="M1236.45 96V95.076L1239.27 92.052C1239.53 91.764 1239.74 91.5 1239.9 91.26C1240.06 91.012 1240.18 90.776 1240.25 90.552C1240.33 90.32 1240.37 90.088 1240.37 89.856C1240.37 89.408 1240.23 89.068 1239.96 88.836C1239.69 88.604 1239.29 88.488 1238.76 88.488C1238.35 88.488 1237.97 88.564 1237.6 88.716C1237.24 88.868 1236.89 89.1 1236.57 89.412L1236.12 88.464C1236.44 88.152 1236.85 87.904 1237.35 87.72C1237.84 87.528 1238.36 87.432 1238.89 87.432C1239.48 87.432 1239.97 87.524 1240.37 87.708C1240.78 87.884 1241.09 88.144 1241.29 88.488C1241.5 88.832 1241.61 89.252 1241.61 89.748C1241.61 90.004 1241.57 90.256 1241.51 90.504C1241.45 90.744 1241.36 90.984 1241.23 91.224C1241.11 91.464 1240.96 91.712 1240.77 91.968C1240.58 92.224 1240.36 92.488 1240.09 92.76L1237.68 95.304V94.956H1241.94V96H1236.45ZM1243.33 96V94.572H1244.76V96H1243.33ZM1249.2 96.108C1248.83 96.108 1248.47 96.068 1248.12 95.988C1247.78 95.908 1247.45 95.796 1247.15 95.652C1246.84 95.508 1246.58 95.332 1246.36 95.124L1246.78 94.164C1247.16 94.468 1247.55 94.692 1247.94 94.836C1248.33 94.98 1248.74 95.052 1249.18 95.052C1249.73 95.052 1250.16 94.904 1250.47 94.608C1250.78 94.312 1250.94 93.916 1250.94 93.42C1250.94 92.916 1250.79 92.504 1250.5 92.184C1250.2 91.864 1249.79 91.704 1249.26 91.704C1248.88 91.704 1248.55 91.78 1248.25 91.932C1247.96 92.084 1247.7 92.316 1247.47 92.628H1246.61V87.54H1251.65V88.584H1247.82V91.632H1247.48C1247.7 91.328 1247.98 91.092 1248.34 90.924C1248.7 90.756 1249.09 90.672 1249.52 90.672C1250.06 90.672 1250.52 90.784 1250.92 91.008C1251.31 91.232 1251.61 91.548 1251.83 91.956C1252.04 92.356 1252.15 92.824 1252.15 93.36C1252.15 93.904 1252.03 94.384 1251.79 94.8C1251.55 95.208 1251.21 95.528 1250.77 95.76C1250.33 95.992 1249.81 96.108 1249.2 96.108ZM1255.71 96V88.584H1252.71V87.54H1259.95V88.584H1256.95V96H1255.71Z" fill="white"/>
<path opacity="0.48" d="M1238.89 54.108C1238.52 54.108 1238.15 54.072 1237.79 54C1237.44 53.92 1237.11 53.808 1236.79 53.664C1236.49 53.512 1236.22 53.332 1235.99 53.124L1236.42 52.164C1236.8 52.468 1237.19 52.692 1237.59 52.836C1237.99 52.98 1238.41 53.052 1238.86 53.052C1239.24 53.052 1239.57 52.996 1239.83 52.884C1240.09 52.772 1240.29 52.608 1240.42 52.392C1240.55 52.176 1240.62 51.916 1240.62 51.612C1240.62 51.156 1240.47 50.816 1240.17 50.592C1239.87 50.36 1239.44 50.244 1238.87 50.244H1237.56V49.2H1238.75C1239.09 49.2 1239.39 49.144 1239.63 49.032C1239.87 48.912 1240.05 48.748 1240.18 48.54C1240.31 48.324 1240.38 48.064 1240.38 47.76C1240.38 47.352 1240.25 47.04 1239.97 46.824C1239.71 46.6 1239.32 46.488 1238.81 46.488C1238.38 46.488 1237.98 46.564 1237.61 46.716C1237.24 46.868 1236.89 47.1 1236.57 47.412L1236.13 46.464C1236.46 46.136 1236.87 45.884 1237.36 45.708C1237.85 45.524 1238.37 45.432 1238.91 45.432C1239.47 45.432 1239.95 45.52 1240.35 45.696C1240.75 45.872 1241.06 46.124 1241.27 46.452C1241.49 46.78 1241.59 47.172 1241.59 47.628C1241.59 48.14 1241.45 48.584 1241.16 48.96C1240.88 49.328 1240.49 49.572 1240 49.692V49.56C1240.39 49.624 1240.72 49.752 1240.99 49.944C1241.27 50.136 1241.47 50.38 1241.62 50.676C1241.76 50.972 1241.83 51.312 1241.83 51.696C1241.83 52.192 1241.71 52.624 1241.47 52.992C1241.24 53.352 1240.91 53.628 1240.47 53.82C1240.03 54.012 1239.5 54.108 1238.89 54.108ZM1243.33 54V52.572H1244.76V54H1243.33ZM1249.07 54.108C1248.41 54.108 1247.86 53.94 1247.41 53.604C1246.96 53.268 1246.62 52.78 1246.39 52.14C1246.16 51.492 1246.04 50.7 1246.04 49.764C1246.04 48.812 1246.16 48.016 1246.39 47.376C1246.62 46.736 1246.96 46.252 1247.41 45.924C1247.86 45.596 1248.41 45.432 1249.07 45.432C1249.73 45.432 1250.29 45.596 1250.74 45.924C1251.18 46.244 1251.52 46.724 1251.74 47.364C1251.98 48.004 1252.09 48.8 1252.09 49.752C1252.09 50.688 1251.98 51.48 1251.74 52.128C1251.51 52.776 1251.17 53.268 1250.72 53.604C1250.28 53.94 1249.72 54.108 1249.07 54.108ZM1249.07 53.076C1249.68 53.076 1250.14 52.808 1250.42 52.272C1250.72 51.736 1250.87 50.896 1250.87 49.752C1250.87 48.608 1250.72 47.776 1250.42 47.256C1250.14 46.728 1249.68 46.464 1249.07 46.464C1248.46 46.464 1248.01 46.728 1247.71 47.256C1247.42 47.776 1247.27 48.608 1247.27 49.752C1247.27 50.896 1247.42 51.736 1247.71 52.272C1248.01 52.808 1248.46 53.076 1249.07 53.076ZM1255.71 54V46.584H1252.71V45.54H1259.95V46.584H1256.95V54H1255.71Z" fill="white"/>
<path opacity="0.48" d="M1238.89 12.108C1238.52 12.108 1238.15 12.072 1237.79 12C1237.44 11.92 1237.11 11.808 1236.79 11.664C1236.49 11.512 1236.22 11.332 1235.99 11.124L1236.42 10.164C1236.8 10.468 1237.19 10.692 1237.59 10.836C1237.99 10.98 1238.41 11.052 1238.86 11.052C1239.24 11.052 1239.57 10.996 1239.83 10.884C1240.09 10.772 1240.29 10.608 1240.42 10.392C1240.55 10.176 1240.62 9.916 1240.62 9.612C1240.62 9.156 1240.47 8.816 1240.17 8.592C1239.87 8.36 1239.44 8.244 1238.87 8.244H1237.56V7.2H1238.75C1239.09 7.2 1239.39 7.144 1239.63 7.032C1239.87 6.912 1240.05 6.748 1240.18 6.54C1240.31 6.324 1240.38 6.064 1240.38 5.76C1240.38 5.352 1240.25 5.04 1239.97 4.824C1239.71 4.6 1239.32 4.488 1238.81 4.488C1238.38 4.488 1237.98 4.564 1237.61 4.716C1237.24 4.868 1236.89 5.1 1236.57 5.412L1236.13 4.464C1236.46 4.136 1236.87 3.884 1237.36 3.708C1237.85 3.524 1238.37 3.432 1238.91 3.432C1239.47 3.432 1239.95 3.52 1240.35 3.696C1240.75 3.872 1241.06 4.124 1241.27 4.452C1241.49 4.78 1241.59 5.172 1241.59 5.628C1241.59 6.14 1241.45 6.584 1241.16 6.96C1240.88 7.328 1240.49 7.572 1240 7.692V7.56C1240.39 7.624 1240.72 7.752 1240.99 7.944C1241.27 8.136 1241.47 8.38 1241.62 8.676C1241.76 8.972 1241.83 9.312 1241.83 9.696C1241.83 10.192 1241.71 10.624 1241.47 10.992C1241.24 11.352 1240.91 11.628 1240.47 11.82C1240.03 12.012 1239.5 12.108 1238.89 12.108ZM1243.33 12V10.572H1244.76V12H1243.33ZM1249.2 12.108C1248.83 12.108 1248.47 12.068 1248.12 11.988C1247.78 11.908 1247.45 11.796 1247.15 11.652C1246.84 11.508 1246.58 11.332 1246.36 11.124L1246.78 10.164C1247.16 10.468 1247.55 10.692 1247.94 10.836C1248.33 10.98 1248.74 11.052 1249.18 11.052C1249.73 11.052 1250.16 10.904 1250.47 10.608C1250.78 10.312 1250.94 9.916 1250.94 9.42C1250.94 8.916 1250.79 8.504 1250.5 8.184C1250.2 7.864 1249.79 7.704 1249.26 7.704C1248.88 7.704 1248.55 7.78 1248.25 7.932C1247.96 8.084 1247.7 8.316 1247.47 8.628H1246.61V3.54H1251.65V4.584H1247.82V7.632H1247.48C1247.7 7.328 1247.98 7.092 1248.34 6.924C1248.7 6.756 1249.09 6.672 1249.52 6.672C1250.06 6.672 1250.52 6.784 1250.92 7.008C1251.31 7.232 1251.61 7.548 1251.83 7.956C1252.04 8.356 1252.15 8.824 1252.15 9.36C1252.15 9.904 1252.03 10.384 1251.79 10.8C1251.55 11.208 1251.21 11.528 1250.77 11.76C1250.33 11.992 1249.81 12.108 1249.2 12.108ZM1255.71 12V4.584H1252.71V3.54H1259.95V4.584H1256.95V12H1255.71Z" fill="white"/>
<rect x="86" y="345" width="1" height="8" fill="white" fill-opacity="0.04"/>
<path opacity="0.48" d="M78.0165 369.3V368.052L78.4005 368.34H78.0885C77.2725 368.34 76.5685 368.196 75.9765 367.908C75.3845 367.62 74.9285 367.208 74.6085 366.672C74.2885 366.128 74.1285 365.472 74.1285 364.704C74.1285 363.928 74.2845 363.272 74.5965 362.736C74.9085 362.192 75.3605 361.78 75.9525 361.5C76.5445 361.212 77.2565 361.068 78.0885 361.068H78.4005L78.0165 361.356V360.18H79.5645V361.356L79.1805 361.068H79.4925C80.3325 361.068 81.0445 361.212 81.6285 361.5C82.2205 361.78 82.6725 362.192 82.9845 362.736C83.2965 363.272 83.4525 363.928 83.4525 364.704C83.4525 365.472 83.2925 366.128 82.9725 366.672C82.6525 367.208 82.1965 367.62 81.6045 367.908C81.0205 368.196 80.3165 368.34 79.4925 368.34H79.1805L79.5645 368.052V369.3H78.0165ZM78.0285 367.428V361.98L78.3525 362.244H77.9325C77.4925 362.244 77.1045 362.336 76.7685 362.52C76.4325 362.696 76.1685 362.968 75.9765 363.336C75.7925 363.696 75.7005 364.152 75.7005 364.704C75.7005 365.104 75.7565 365.46 75.8685 365.772C75.9805 366.076 76.1365 366.332 76.3365 366.54C76.5365 366.748 76.7725 366.904 77.0445 367.008C77.3165 367.112 77.6125 367.164 77.9325 367.164H78.3525L78.0285 367.428ZM79.5525 367.428L79.2285 367.164H79.6485C79.9685 367.164 80.2645 367.112 80.5365 367.008C80.8085 366.904 81.0445 366.748 81.2445 366.54C81.4445 366.332 81.6005 366.076 81.7125 365.772C81.8245 365.46 81.8805 365.104 81.8805 364.704C81.8805 364.152 81.7845 363.696 81.5925 363.336C81.4085 362.968 81.1485 362.696 80.8125 362.52C80.4765 362.336 80.0885 362.244 79.6485 362.244H79.2285L79.5525 361.98V367.428ZM85.0217 369V360.54H90.6497V361.764H86.4977V364.092H90.3857V365.316H86.4977V367.776H90.6497V369H85.0217ZM92.1818 369V360.54H95.8778C96.7658 360.54 97.4538 360.736 97.9418 361.128C98.4298 361.512 98.6738 362.048 98.6738 362.736C98.6738 363.248 98.5258 363.68 98.2298 364.032C97.9338 364.384 97.5298 364.62 97.0178 364.74V364.56C97.4098 364.616 97.7458 364.736 98.0258 364.92C98.3058 365.104 98.5178 365.34 98.6618 365.628C98.8138 365.916 98.8898 366.252 98.8898 366.636C98.8898 367.132 98.7738 367.56 98.5418 367.92C98.3178 368.272 97.9898 368.54 97.5578 368.724C97.1258 368.908 96.6098 369 96.0098 369H92.1818ZM93.6578 367.836H95.8178C96.0338 367.836 96.2258 367.82 96.3938 367.788C96.5698 367.756 96.7178 367.708 96.8378 367.644C96.9658 367.572 97.0698 367.484 97.1498 367.38C97.2378 367.276 97.3018 367.156 97.3418 367.02C97.3818 366.884 97.4018 366.732 97.4018 366.564C97.4018 366.388 97.3818 366.232 97.3418 366.096C97.3018 365.96 97.2378 365.844 97.1498 365.748C97.0698 365.644 96.9658 365.56 96.8378 365.496C96.7178 365.424 96.5698 365.372 96.3938 365.34C96.2258 365.308 96.0338 365.292 95.8178 365.292H93.6578V367.836ZM93.6578 364.128H95.6138C96.1418 364.128 96.5338 364.028 96.7898 363.828C97.0538 363.62 97.1858 363.316 97.1858 362.916C97.1858 362.516 97.0538 362.216 96.7898 362.016C96.5338 361.808 96.1418 361.704 95.6138 361.704H93.6578V364.128Z" fill="white"/>
<rect x="299.5" y="345" width="1" height="8" fill="white" fill-opacity="0.04"/>
<path opacity="0.48" d="M291.964 363.708V362.616C291.964 362.344 291.992 362.088 292.048 361.848C292.112 361.608 292.212 361.372 292.348 361.14C292.492 360.908 292.68 360.676 292.912 360.444L293.536 360.936C293.368 361.112 293.232 361.28 293.128 361.44C293.024 361.592 292.948 361.748 292.9 361.908C292.86 362.06 292.84 362.22 292.84 362.388L292.468 362.04H293.644V363.708H291.964ZM295.253 369V367.86L297.989 364.944C298.237 364.68 298.433 364.436 298.577 364.212C298.729 363.988 298.841 363.772 298.913 363.564C298.985 363.356 299.021 363.148 299.021 362.94C299.021 362.54 298.893 362.236 298.637 362.028C298.389 361.82 298.025 361.716 297.545 361.716C297.169 361.716 296.801 361.788 296.441 361.932C296.089 362.068 295.749 362.284 295.421 362.58L294.905 361.428C295.241 361.124 295.661 360.88 296.165 360.696C296.669 360.512 297.193 360.42 297.737 360.42C298.345 360.42 298.857 360.512 299.273 360.696C299.689 360.88 300.005 361.148 300.221 361.5C300.437 361.852 300.545 362.28 300.545 362.784C300.545 363.04 300.513 363.292 300.449 363.54C300.393 363.78 300.301 364.02 300.173 364.26C300.053 364.5 299.897 364.748 299.705 365.004C299.521 365.252 299.297 365.512 299.033 365.784L296.777 368.136V367.728H300.869V369H295.253ZM302.796 369V367.728H304.704V361.836H305.448L303.228 363.18L302.628 362.052L305.148 360.54H306.24V367.728H308.028V369H302.796Z" fill="white"/>
<rect x="508.5" y="345" width="1" height="8" fill="white" fill-opacity="0.04"/>
<path opacity="0.48" d="M500.964 363.708V362.616C500.964 362.344 500.992 362.088 501.048 361.848C501.112 361.608 501.212 361.372 501.348 361.14C501.492 360.908 501.68 360.676 501.912 360.444L502.536 360.936C502.368 361.112 502.232 361.28 502.128 361.44C502.024 361.592 501.948 361.748 501.9 361.908C501.86 362.06 501.84 362.22 501.84 362.388L501.468 362.04H502.644V363.708H500.964ZM504.253 369V367.86L506.989 364.944C507.237 364.68 507.433 364.436 507.577 364.212C507.729 363.988 507.841 363.772 507.913 363.564C507.985 363.356 508.021 363.148 508.021 362.94C508.021 362.54 507.893 362.236 507.637 362.028C507.389 361.82 507.025 361.716 506.545 361.716C506.169 361.716 505.801 361.788 505.441 361.932C505.089 362.068 504.749 362.284 504.421 362.58L503.905 361.428C504.241 361.124 504.661 360.88 505.165 360.696C505.669 360.512 506.193 360.42 506.737 360.42C507.345 360.42 507.857 360.512 508.273 360.696C508.689 360.88 509.005 361.148 509.221 361.5C509.437 361.852 509.545 362.28 509.545 362.784C509.545 363.04 509.513 363.292 509.449 363.54C509.393 363.78 509.301 364.02 509.173 364.26C509.053 364.5 508.897 364.748 508.705 365.004C508.521 365.252 508.297 365.512 508.033 365.784L505.777 368.136V367.728H509.869V369H504.253ZM511.448 369V367.86L514.184 364.944C514.432 364.68 514.628 364.436 514.772 364.212C514.924 363.988 515.036 363.772 515.108 363.564C515.18 363.356 515.216 363.148 515.216 362.94C515.216 362.54 515.088 362.236 514.832 362.028C514.584 361.82 514.22 361.716 513.74 361.716C513.364 361.716 512.996 361.788 512.636 361.932C512.284 362.068 511.944 362.284 511.616 362.58L511.1 361.428C511.436 361.124 511.856 360.88 512.36 360.696C512.864 360.512 513.388 360.42 513.932 360.42C514.54 360.42 515.052 360.512 515.468 360.696C515.884 360.88 516.2 361.148 516.416 361.5C516.632 361.852 516.74 362.28 516.74 362.784C516.74 363.04 516.708 363.292 516.644 363.54C516.588 363.78 516.496 364.02 516.368 364.26C516.248 364.5 516.092 364.748 515.9 365.004C515.716 365.252 515.492 365.512 515.228 365.784L512.972 368.136V367.728H517.064V369H511.448Z" fill="white"/>
<rect x="717.5" y="345" width="1" height="8" fill="white" fill-opacity="0.04"/>
<path opacity="0.48" d="M709.964 363.708V362.616C709.964 362.344 709.992 362.088 710.048 361.848C710.112 361.608 710.212 361.372 710.348 361.14C710.492 360.908 710.68 360.676 710.912 360.444L711.536 360.936C711.368 361.112 711.232 361.28 711.128 361.44C711.024 361.592 710.948 361.748 710.9 361.908C710.86 362.06 710.84 362.22 710.84 362.388L710.468 362.04H711.644V363.708H709.964ZM713.253 369V367.86L715.989 364.944C716.237 364.68 716.433 364.436 716.577 364.212C716.729 363.988 716.841 363.772 716.913 363.564C716.985 363.356 717.021 363.148 717.021 362.94C717.021 362.54 716.893 362.236 716.637 362.028C716.389 361.82 716.025 361.716 715.545 361.716C715.169 361.716 714.801 361.788 714.441 361.932C714.089 362.068 713.749 362.284 713.421 362.58L712.905 361.428C713.241 361.124 713.661 360.88 714.165 360.696C714.669 360.512 715.193 360.42 715.737 360.42C716.345 360.42 716.857 360.512 717.273 360.696C717.689 360.88 718.005 361.148 718.221 361.5C718.437 361.852 718.545 362.28 718.545 362.784C718.545 363.04 718.513 363.292 718.449 363.54C718.393 363.78 718.301 364.02 718.173 364.26C718.053 364.5 717.897 364.748 717.705 365.004C717.521 365.252 717.297 365.512 717.033 365.784L714.777 368.136V367.728H718.869V369H713.253ZM722.92 369.12C722.536 369.12 722.16 369.08 721.792 369C721.432 368.928 721.096 368.82 720.784 368.676C720.472 368.532 720.2 368.36 719.968 368.16L720.472 366.984C720.848 367.272 721.232 367.484 721.624 367.62C722.016 367.756 722.432 367.824 722.872 367.824C723.224 367.824 723.52 367.776 723.76 367.68C724 367.584 724.18 367.44 724.3 367.248C724.428 367.056 724.492 366.824 724.492 366.552C724.492 366.152 724.356 365.856 724.084 365.664C723.82 365.464 723.432 365.364 722.92 365.364H721.564V364.092H722.776C723.08 364.092 723.34 364.044 723.556 363.948C723.772 363.844 723.94 363.7 724.06 363.516C724.18 363.332 724.24 363.108 724.24 362.844C724.24 362.476 724.116 362.196 723.868 362.004C723.628 361.812 723.276 361.716 722.812 361.716C722.396 361.716 722.008 361.788 721.648 361.932C721.288 362.068 720.944 362.284 720.616 362.58L720.112 361.428C720.448 361.108 720.868 360.86 721.372 360.684C721.876 360.508 722.4 360.42 722.944 360.42C723.528 360.42 724.028 360.512 724.444 360.696C724.86 360.872 725.176 361.128 725.392 361.464C725.616 361.792 725.728 362.192 725.728 362.664C725.728 363.168 725.588 363.604 725.308 363.972C725.028 364.332 724.644 364.572 724.156 364.692V364.548C724.54 364.612 724.868 364.74 725.14 364.932C725.412 365.124 725.62 365.368 725.764 365.664C725.908 365.96 725.98 366.3 725.98 366.684C725.98 367.18 725.856 367.612 725.608 367.98C725.36 368.348 725.008 368.632 724.552 368.832C724.096 369.024 723.552 369.12 722.92 369.12Z" fill="white"/>
<rect x="926.5" y="345" width="1" height="8" fill="white" fill-opacity="0.04"/>
<path opacity="0.48" d="M918.964 363.708V362.616C918.964 362.344 918.992 362.088 919.048 361.848C919.112 361.608 919.212 361.372 919.348 361.14C919.492 360.908 919.68 360.676 919.912 360.444L920.536 360.936C920.368 361.112 920.232 361.28 920.128 361.44C920.024 361.592 919.948 361.748 919.9 361.908C919.86 362.06 919.84 362.22 919.84 362.388L919.468 362.04H920.644V363.708H918.964ZM922.253 369V367.86L924.989 364.944C925.237 364.68 925.433 364.436 925.577 364.212C925.729 363.988 925.841 363.772 925.913 363.564C925.985 363.356 926.021 363.148 926.021 362.94C926.021 362.54 925.893 362.236 925.637 362.028C925.389 361.82 925.025 361.716 924.545 361.716C924.169 361.716 923.801 361.788 923.441 361.932C923.089 362.068 922.749 362.284 922.421 362.58L921.905 361.428C922.241 361.124 922.661 360.88 923.165 360.696C923.669 360.512 924.193 360.42 924.737 360.42C925.345 360.42 925.857 360.512 926.273 360.696C926.689 360.88 927.005 361.148 927.221 361.5C927.437 361.852 927.545 362.28 927.545 362.784C927.545 363.04 927.513 363.292 927.449 363.54C927.393 363.78 927.301 364.02 927.173 364.26C927.053 364.5 926.897 364.748 926.705 365.004C926.521 365.252 926.297 365.512 926.033 365.784L923.777 368.136V367.728H927.869V369H922.253ZM932.676 369V367.392H928.992V366.264L932.94 360.54H934.212V366.12H935.4V367.392H934.212V369H932.676ZM932.676 366.12V362.376H933.024L930.192 366.528V366.12H932.676Z" fill="white"/>
<rect x="1135.5" y="345" width="1" height="8" fill="white" fill-opacity="0.04"/>
<path opacity="0.48" d="M1127.96 363.708V362.616C1127.96 362.344 1127.99 362.088 1128.05 361.848C1128.11 361.608 1128.21 361.372 1128.35 361.14C1128.49 360.908 1128.68 360.676 1128.91 360.444L1129.54 360.936C1129.37 361.112 1129.23 361.28 1129.13 361.44C1129.02 361.592 1128.95 361.748 1128.9 361.908C1128.86 362.06 1128.84 362.22 1128.84 362.388L1128.47 362.04H1129.64V363.708H1127.96ZM1131.25 369V367.86L1133.99 364.944C1134.24 364.68 1134.43 364.436 1134.58 364.212C1134.73 363.988 1134.84 363.772 1134.91 363.564C1134.98 363.356 1135.02 363.148 1135.02 362.94C1135.02 362.54 1134.89 362.236 1134.64 362.028C1134.39 361.82 1134.02 361.716 1133.54 361.716C1133.17 361.716 1132.8 361.788 1132.44 361.932C1132.09 362.068 1131.75 362.284 1131.42 362.58L1130.9 361.428C1131.24 361.124 1131.66 360.88 1132.16 360.696C1132.67 360.512 1133.19 360.42 1133.74 360.42C1134.34 360.42 1134.86 360.512 1135.27 360.696C1135.69 360.88 1136 361.148 1136.22 361.5C1136.44 361.852 1136.54 362.28 1136.54 362.784C1136.54 363.04 1136.51 363.292 1136.45 363.54C1136.39 363.78 1136.3 364.02 1136.17 364.26C1136.05 364.5 1135.9 364.748 1135.7 365.004C1135.52 365.252 1135.3 365.512 1135.03 365.784L1132.78 368.136V367.728H1136.87V369H1131.25ZM1141.16 369.12C1140.79 369.12 1140.43 369.08 1140.07 369C1139.72 368.92 1139.38 368.808 1139.07 368.664C1138.77 368.52 1138.5 368.352 1138.28 368.16L1138.78 366.984C1139.15 367.264 1139.53 367.476 1139.92 367.62C1140.32 367.756 1140.72 367.824 1141.14 367.824C1141.64 367.824 1142.03 367.696 1142.31 367.44C1142.6 367.176 1142.74 366.824 1142.74 366.384C1142.74 365.936 1142.61 365.576 1142.34 365.304C1142.06 365.024 1141.69 364.884 1141.22 364.884C1140.88 364.884 1140.57 364.952 1140.3 365.088C1140.02 365.216 1139.78 365.416 1139.55 365.688H1138.52V360.54H1143.72V361.812H1140.02V364.5H1139.62C1139.83 364.22 1140.1 364.004 1140.44 363.852C1140.78 363.7 1141.16 363.624 1141.58 363.624C1142.12 363.624 1142.58 363.74 1142.97 363.972C1143.37 364.196 1143.68 364.512 1143.9 364.92C1144.12 365.32 1144.23 365.788 1144.23 366.324C1144.23 366.876 1144.11 367.364 1143.86 367.788C1143.61 368.204 1143.26 368.532 1142.79 368.772C1142.34 369.004 1141.79 369.12 1141.16 369.12Z" fill="white"/>
<rect x="1217" y="27" width="43" height="22" rx="4" fill="#1C3430"/>
<path d="M1225.03 42.13C1224.62 42.13 1224.21 42.0867 1223.81 42C1223.42 41.922 1223.06 41.805 1222.72 41.649C1222.38 41.493 1222.09 41.3067 1221.84 41.09L1222.38 39.816C1222.79 40.128 1223.21 40.3577 1223.63 40.505C1224.06 40.6523 1224.51 40.726 1224.98 40.726C1225.36 40.726 1225.68 40.674 1225.94 40.57C1226.2 40.466 1226.4 40.31 1226.53 40.102C1226.67 39.894 1226.74 39.6427 1226.74 39.348C1226.74 38.9147 1226.59 38.594 1226.3 38.386C1226.01 38.1693 1225.59 38.061 1225.03 38.061H1223.57V36.683H1224.88C1225.21 36.683 1225.49 36.631 1225.72 36.527C1225.96 36.4143 1226.14 36.2583 1226.27 36.059C1226.4 35.8597 1226.46 35.617 1226.46 35.331C1226.46 34.9323 1226.33 34.629 1226.06 34.421C1225.8 34.213 1225.42 34.109 1224.92 34.109C1224.47 34.109 1224.05 34.187 1223.66 34.343C1223.27 34.4903 1222.89 34.7243 1222.54 35.045L1221.99 33.797C1222.36 33.4503 1222.81 33.1817 1223.36 32.991C1223.9 32.8003 1224.47 32.705 1225.06 32.705C1225.69 32.705 1226.23 32.8047 1226.69 33.004C1227.14 33.1947 1227.48 33.472 1227.71 33.836C1227.96 34.1913 1228.08 34.6247 1228.08 35.136C1228.08 35.682 1227.92 36.1543 1227.62 36.553C1227.32 36.943 1226.9 37.203 1226.37 37.333V37.177C1226.79 37.2463 1227.14 37.385 1227.44 37.593C1227.73 37.801 1227.96 38.0653 1228.12 38.386C1228.27 38.7067 1228.35 39.075 1228.35 39.491C1228.35 40.0283 1228.22 40.4963 1227.95 40.895C1227.68 41.2937 1227.3 41.6013 1226.8 41.818C1226.31 42.026 1225.72 42.13 1225.03 42.13ZM1229.81 42V40.193H1231.63V42H1229.81ZM1233.75 42V40.622H1235.82V34.239H1236.63L1234.22 35.695L1233.57 34.473L1236.3 32.835H1237.48V40.622H1239.42V42H1233.75ZM1243.33 42.13C1243.01 42.13 1242.68 42.0867 1242.35 42C1242.03 41.922 1241.73 41.805 1241.43 41.649C1241.14 41.493 1240.88 41.3067 1240.65 41.09L1241.21 39.842C1241.52 40.1367 1241.86 40.3577 1242.22 40.505C1242.6 40.6523 1242.97 40.726 1243.34 40.726C1243.72 40.726 1244.06 40.661 1244.34 40.531C1244.64 40.3923 1244.88 40.193 1245.08 39.933C1245.28 39.6643 1245.43 39.335 1245.53 38.945C1245.63 38.5463 1245.68 38.087 1245.68 37.567V36.592H1245.82C1245.76 37.0253 1245.62 37.4023 1245.4 37.723C1245.17 38.0437 1244.88 38.2907 1244.54 38.464C1244.2 38.6287 1243.81 38.711 1243.38 38.711C1242.86 38.711 1242.4 38.5853 1241.99 38.334C1241.58 38.0827 1241.26 37.736 1241.01 37.294C1240.78 36.8433 1240.66 36.3363 1240.66 35.773C1240.66 35.175 1240.79 34.6463 1241.05 34.187C1241.31 33.7277 1241.67 33.368 1242.12 33.108C1242.58 32.8393 1243.1 32.705 1243.69 32.705C1244.46 32.705 1245.1 32.8827 1245.63 33.238C1246.16 33.5933 1246.56 34.1133 1246.84 34.798C1247.12 35.474 1247.25 36.293 1247.25 37.255C1247.25 38.2863 1247.1 39.166 1246.79 39.894C1246.47 40.622 1246.02 41.1767 1245.43 41.558C1244.85 41.9393 1244.15 42.13 1243.33 42.13ZM1243.8 37.385C1244.11 37.385 1244.38 37.3157 1244.62 37.177C1244.86 37.0383 1245.04 36.8433 1245.17 36.592C1245.3 36.332 1245.37 36.0373 1245.37 35.708C1245.37 35.37 1245.3 35.0753 1245.17 34.824C1245.04 34.5727 1244.86 34.3777 1244.62 34.239C1244.38 34.0917 1244.11 34.018 1243.8 34.018C1243.48 34.018 1243.21 34.0917 1242.98 34.239C1242.74 34.3777 1242.56 34.5727 1242.42 34.824C1242.29 35.0753 1242.22 35.37 1242.22 35.708C1242.22 36.0373 1242.29 36.332 1242.42 36.592C1242.56 36.8433 1242.74 37.0383 1242.98 37.177C1243.21 37.3157 1243.48 37.385 1243.8 37.385ZM1251.14 42V34.226H1247.99V32.835H1255.95V34.226H1252.8V42H1251.14Z" fill="#2EBD85"/>
<rect x="1201" y="261" width="59" height="22" rx="4" fill="#3A2127"/>
<path d="M1206.6 276V274.869H1208.68V267.979H1209.36L1207.06 269.409L1206.51 268.408L1209.07 266.835H1210.02V274.869H1211.97V276H1206.6ZM1216.77 276.117C1215.73 276.117 1214.91 275.892 1214.32 275.441C1213.74 274.99 1213.45 274.362 1213.45 273.556C1213.45 273.123 1213.53 272.741 1213.71 272.412C1213.88 272.074 1214.12 271.801 1214.43 271.593C1214.75 271.385 1215.11 271.255 1215.51 271.203V271.437C1215.14 271.359 1214.82 271.216 1214.54 271.008C1214.26 270.791 1214.04 270.527 1213.89 270.215C1213.74 269.894 1213.67 269.543 1213.67 269.162C1213.67 268.399 1213.95 267.801 1214.51 267.368C1215.08 266.935 1215.83 266.718 1216.77 266.718C1217.73 266.718 1218.49 266.935 1219.05 267.368C1219.61 267.801 1219.89 268.399 1219.89 269.162C1219.89 269.543 1219.82 269.894 1219.66 270.215C1219.51 270.527 1219.3 270.791 1219.02 271.008C1218.75 271.216 1218.42 271.355 1218.05 271.424V271.203C1218.46 271.255 1218.82 271.389 1219.13 271.606C1219.43 271.814 1219.67 272.083 1219.84 272.412C1220.02 272.741 1220.1 273.123 1220.1 273.556C1220.1 274.362 1219.81 274.99 1219.22 275.441C1218.64 275.892 1217.82 276.117 1216.77 276.117ZM1216.77 275.051C1217.46 275.051 1217.97 274.921 1218.32 274.661C1218.67 274.392 1218.84 273.994 1218.84 273.465C1218.84 272.936 1218.67 272.542 1218.32 272.282C1217.97 272.022 1217.46 271.892 1216.77 271.892C1216.1 271.892 1215.58 272.022 1215.23 272.282C1214.88 272.542 1214.71 272.936 1214.71 273.465C1214.71 273.994 1214.88 274.392 1215.23 274.661C1215.58 274.921 1216.1 275.051 1216.77 275.051ZM1216.77 270.826C1217.35 270.826 1217.81 270.692 1218.13 270.423C1218.46 270.146 1218.62 269.769 1218.62 269.292C1218.62 268.824 1218.46 268.456 1218.13 268.187C1217.81 267.918 1217.35 267.784 1216.77 267.784C1216.19 267.784 1215.74 267.918 1215.42 268.187C1215.1 268.456 1214.94 268.824 1214.94 269.292C1214.94 269.769 1215.1 270.146 1215.42 270.423C1215.74 270.692 1216.19 270.826 1216.77 270.826ZM1224.89 276.117C1224.16 276.117 1223.53 275.939 1223.01 275.584C1222.5 275.229 1222.1 274.717 1221.83 274.05C1221.56 273.374 1221.42 272.564 1221.42 271.619C1221.42 270.562 1221.57 269.673 1221.88 268.954C1222.18 268.226 1222.62 267.671 1223.19 267.29C1223.76 266.909 1224.45 266.718 1225.24 266.718C1225.56 266.718 1225.87 266.761 1226.19 266.848C1226.51 266.935 1226.82 267.056 1227.1 267.212C1227.4 267.368 1227.65 267.559 1227.86 267.784L1227.39 268.798C1227.07 268.486 1226.72 268.252 1226.35 268.096C1225.99 267.94 1225.61 267.862 1225.22 267.862C1224.81 267.862 1224.45 267.936 1224.14 268.083C1223.84 268.23 1223.58 268.451 1223.36 268.746C1223.15 269.041 1222.99 269.405 1222.88 269.838C1222.77 270.271 1222.72 270.778 1222.72 271.359V272.464H1222.58C1222.64 271.996 1222.78 271.593 1223.01 271.255C1223.24 270.908 1223.54 270.644 1223.91 270.462C1224.27 270.28 1224.67 270.189 1225.11 270.189C1225.65 270.189 1226.12 270.315 1226.53 270.566C1226.95 270.809 1227.27 271.151 1227.51 271.593C1227.74 272.035 1227.86 272.538 1227.86 273.101C1227.86 273.682 1227.73 274.202 1227.48 274.661C1227.23 275.12 1226.88 275.48 1226.43 275.74C1225.99 275.991 1225.47 276.117 1224.89 276.117ZM1224.82 275.025C1225.17 275.025 1225.48 274.947 1225.75 274.791C1226.02 274.635 1226.23 274.418 1226.38 274.141C1226.52 273.855 1226.6 273.526 1226.6 273.153C1226.6 272.78 1226.52 272.455 1226.38 272.178C1226.23 271.901 1226.02 271.684 1225.75 271.528C1225.48 271.363 1225.17 271.281 1224.82 271.281C1224.46 271.281 1224.15 271.363 1223.88 271.528C1223.62 271.684 1223.41 271.901 1223.26 272.178C1223.11 272.455 1223.03 272.78 1223.03 273.153C1223.03 273.526 1223.11 273.855 1223.26 274.141C1223.41 274.418 1223.62 274.635 1223.89 274.791C1224.16 274.947 1224.47 275.025 1224.82 275.025ZM1229.23 276V274.453H1230.78V276H1229.23ZM1235.59 276.117C1235.19 276.117 1234.8 276.074 1234.42 275.987C1234.05 275.9 1233.7 275.779 1233.37 275.623C1233.04 275.467 1232.75 275.276 1232.51 275.051L1232.97 274.011C1233.38 274.34 1233.8 274.583 1234.23 274.739C1234.65 274.895 1235.1 274.973 1235.57 274.973C1236.16 274.973 1236.63 274.813 1236.97 274.492C1237.31 274.171 1237.48 273.742 1237.48 273.205C1237.48 272.659 1237.32 272.213 1237 271.866C1236.68 271.519 1236.23 271.346 1235.66 271.346C1235.25 271.346 1234.89 271.428 1234.56 271.593C1234.25 271.758 1233.97 272.009 1233.72 272.347H1232.78V266.835H1238.24V267.966H1234.1V271.268H1233.73C1233.97 270.939 1234.27 270.683 1234.66 270.501C1235.05 270.319 1235.47 270.228 1235.94 270.228C1236.52 270.228 1237.03 270.349 1237.45 270.592C1237.88 270.835 1238.2 271.177 1238.44 271.619C1238.67 272.052 1238.79 272.559 1238.79 273.14C1238.79 273.729 1238.66 274.249 1238.4 274.7C1238.14 275.142 1237.77 275.489 1237.29 275.74C1236.82 275.991 1236.25 276.117 1235.59 276.117ZM1242.58 276.117C1242.27 276.117 1241.95 276.078 1241.62 276C1241.3 275.913 1240.99 275.788 1240.71 275.623C1240.42 275.458 1240.17 275.268 1239.95 275.051L1240.42 274.024C1240.74 274.336 1241.09 274.574 1241.46 274.739C1241.84 274.895 1242.21 274.973 1242.59 274.973C1243 274.973 1243.36 274.899 1243.67 274.752C1243.98 274.605 1244.24 274.384 1244.45 274.089C1244.67 273.794 1244.83 273.43 1244.93 272.997C1245.05 272.555 1245.1 272.048 1245.1 271.476V270.371H1245.23C1245.17 270.83 1245.02 271.233 1244.79 271.58C1244.57 271.927 1244.27 272.191 1243.91 272.373C1243.55 272.555 1243.15 272.646 1242.7 272.646C1242.17 272.646 1241.7 272.52 1241.28 272.269C1240.87 272.018 1240.55 271.671 1240.31 271.229C1240.07 270.787 1239.95 270.289 1239.95 269.734C1239.95 269.145 1240.08 268.625 1240.33 268.174C1240.59 267.715 1240.94 267.359 1241.38 267.108C1241.83 266.848 1242.34 266.718 1242.92 266.718C1243.66 266.718 1244.29 266.896 1244.8 267.251C1245.32 267.598 1245.71 268.109 1245.97 268.785C1246.25 269.461 1246.39 270.271 1246.39 271.216C1246.39 272.265 1246.24 273.153 1245.93 273.881C1245.63 274.609 1245.2 275.164 1244.63 275.545C1244.07 275.926 1243.39 276.117 1242.58 276.117ZM1243.01 271.541C1243.36 271.541 1243.66 271.463 1243.93 271.307C1244.2 271.151 1244.41 270.934 1244.56 270.657C1244.71 270.371 1244.79 270.042 1244.79 269.669C1244.79 269.305 1244.71 268.984 1244.56 268.707C1244.41 268.421 1244.2 268.2 1243.93 268.044C1243.66 267.879 1243.36 267.797 1243.01 267.797C1242.65 267.797 1242.34 267.879 1242.07 268.044C1241.81 268.2 1241.61 268.421 1241.45 268.707C1241.3 268.984 1241.23 269.305 1241.23 269.669C1241.23 270.042 1241.3 270.371 1241.45 270.657C1241.61 270.934 1241.81 271.151 1242.07 271.307C1242.34 271.463 1242.65 271.541 1243.01 271.541ZM1248.2 276V266.835H1252.03C1252.98 266.835 1253.72 267.047 1254.24 267.472C1254.77 267.888 1255.03 268.473 1255.03 269.227C1255.03 269.782 1254.87 270.25 1254.54 270.631C1254.21 271.012 1253.76 271.268 1253.2 271.398V271.203C1253.62 271.264 1253.99 271.394 1254.29 271.593C1254.6 271.784 1254.84 272.039 1255 272.36C1255.17 272.672 1255.25 273.04 1255.25 273.465C1255.25 274.002 1255.13 274.462 1254.89 274.843C1254.64 275.224 1254.29 275.515 1253.83 275.714C1253.37 275.905 1252.82 276 1252.18 276H1248.2ZM1249.5 274.96H1252.03C1252.29 274.96 1252.52 274.943 1252.72 274.908C1252.92 274.865 1253.1 274.804 1253.25 274.726C1253.4 274.639 1253.53 274.535 1253.64 274.414C1253.74 274.284 1253.82 274.137 1253.86 273.972C1253.91 273.807 1253.94 273.621 1253.94 273.413C1253.94 273.205 1253.91 273.019 1253.86 272.854C1253.82 272.689 1253.74 272.546 1253.64 272.425C1253.53 272.304 1253.4 272.204 1253.25 272.126C1253.1 272.039 1252.92 271.979 1252.72 271.944C1252.52 271.901 1252.29 271.879 1252.03 271.879H1249.5V274.96ZM1249.5 270.839H1251.82C1252.44 270.839 1252.92 270.713 1253.24 270.462C1253.56 270.211 1253.72 269.842 1253.72 269.357C1253.72 268.872 1253.56 268.503 1253.24 268.252C1252.92 268.001 1252.44 267.875 1251.82 267.875H1249.5V270.839Z" fill="#EF454A"/>
<path d="M8 327.583C8 326.46 8.91061 325.549 10.0339 325.549C11.1572 325.549 12.0678 326.46 12.0678 327.583V342.606H8V327.583Z" fill="#EF454A"/>
<path d="M14.1016 322.932C14.1016 321.808 15.0122 320.898 16.1355 320.898C17.2588 320.898 18.1694 321.808 18.1694 322.932V342.606H14.1016V322.932Z" fill="#2EBD85"/>
<path d="M20.2036 312.853C20.2036 311.729 21.1142 310.819 22.2375 310.819C23.3608 310.819 24.2714 311.729 24.2714 312.853V342.606H20.2036V312.853Z" fill="#2EBD85"/>
<path d="M26.3052 315.954C26.3052 314.831 27.2158 313.92 28.3391 313.92C29.4624 313.92 30.373 314.831 30.373 315.954V342.606H26.3052V315.954Z" fill="#2EBD85"/>
<path d="M32.4067 308.977C32.4067 307.853 33.3173 306.943 34.4406 306.943C35.5639 306.943 36.4745 307.853 36.4745 308.977V342.606H32.4067V308.977Z" fill="#EF454A"/>
<path d="M38.5083 315.954C38.5083 314.831 39.4189 313.92 40.5422 313.92C41.6655 313.92 42.5761 314.831 42.5761 315.954V342.606H38.5083V315.954Z" fill="#EF454A"/>
<path d="M44.6104 280.291C44.6104 279.167 45.521 278.257 46.6442 278.257C47.7675 278.257 48.6781 279.167 48.6781 280.291V342.606H44.6104V280.291Z" fill="#2EBD85"/>
<path d="M50.7119 304.324C50.7119 303.201 51.6225 302.291 52.7458 302.291C53.8691 302.291 54.7797 303.201 54.7797 304.324V342.605H50.7119V304.324Z" fill="#EF454A"/>
<path d="M56.8135 313.628C56.8135 312.505 57.7241 311.594 58.8474 311.594C59.9707 311.594 60.8813 312.505 60.8813 313.628V342.606H56.8135V313.628Z" fill="#2EBD85"/>
<path d="M62.915 319.831C62.915 318.707 63.8256 317.797 64.9489 317.797C66.0722 317.797 66.9828 318.707 66.9828 319.831V342.606H62.915V319.831Z" fill="#2EBD85"/>
<path d="M69.0171 322.156C69.0171 321.033 69.9277 320.122 71.051 320.122C72.1743 320.122 73.0849 321.033 73.0849 322.156V342.606H69.0171V322.156Z" fill="#2EBD85"/>
<path d="M75.1187 321.381C75.1187 320.258 76.0293 319.347 77.1526 319.347C78.2758 319.347 79.1864 320.258 79.1864 321.381V342.606H75.1187V321.381Z" fill="#EF454A"/>
<path d="M81.2202 320.606C81.2202 319.483 82.1308 318.572 83.2541 318.572C84.3774 318.572 85.288 319.483 85.288 320.606V342.606H81.2202V320.606Z" fill="#2EBD85"/>
<path d="M87.3223 321.381C87.3223 320.258 88.2329 319.347 89.3562 319.347C90.4795 319.347 91.3901 320.258 91.3901 321.381V342.606H87.3223V321.381Z" fill="#2EBD85"/>
<path d="M93.4238 329.134C93.4238 328.011 94.3344 327.1 95.4577 327.1C96.581 327.1 97.4916 328.011 97.4916 329.134V342.606H93.4238V329.134Z" fill="#EF454A"/>
<path d="M99.5254 334.561C99.5254 333.438 100.436 332.527 101.559 332.527C102.683 332.527 103.593 333.438 103.593 334.561V342.606H99.5254V334.561Z" fill="#2EBD85"/>
<path d="M105.627 331.46C105.627 330.337 106.538 329.426 107.661 329.426C108.784 329.426 109.695 330.337 109.695 331.46V342.606H105.627V331.46Z" fill="#2EBD85"/>
<path d="M111.729 329.909C111.729 328.786 112.64 327.875 113.763 327.875C114.886 327.875 115.797 328.786 115.797 329.909V342.605H111.729V329.909Z" fill="#2EBD85"/>
<path d="M117.831 329.909C117.831 328.786 118.741 327.875 119.864 327.875C120.988 327.875 121.898 328.786 121.898 329.909V342.605H117.831V329.909Z" fill="#EF454A"/>
<path d="M123.932 333.786C123.932 332.662 124.843 331.752 125.966 331.752C127.089 331.752 128 332.662 128 333.786V342.606H123.932V333.786Z" fill="#2EBD85"/>
<path d="M130.034 335.336C130.034 334.213 130.944 333.302 132.068 333.302C133.191 333.302 134.101 334.213 134.101 335.336V342.605H130.034V335.336Z" fill="#2EBD85"/>
<path d="M136.136 333.786C136.136 332.662 137.046 331.752 138.17 331.752C139.293 331.752 140.204 332.662 140.204 333.786V342.606H136.136V333.786Z" fill="#EF454A"/>
<path d="M142.237 334.561C142.237 333.438 143.148 332.527 144.271 332.527C145.394 332.527 146.305 333.438 146.305 334.561V342.606H142.237V334.561Z" fill="#2EBD85"/>
<path d="M148.339 336.112C148.339 334.988 149.249 334.078 150.373 334.078C151.496 334.078 152.407 334.988 152.407 336.112V342.606H148.339V336.112Z" fill="#2EBD85"/>
<path d="M154.44 327.583C154.44 326.46 155.351 325.549 156.474 325.549C157.598 325.549 158.508 326.46 158.508 327.583V342.606H154.44V327.583Z" fill="#EF454A"/>
<path d="M160.542 313.628C160.542 312.505 161.453 311.594 162.576 311.594C163.7 311.594 164.61 312.505 164.61 313.628V342.606H160.542V313.628Z" fill="#2EBD85"/>
<path d="M166.644 325.258C166.644 324.134 167.555 323.224 168.678 323.224C169.801 323.224 170.712 324.134 170.712 325.258V342.606H166.644V325.258Z" fill="#2EBD85"/>
<path d="M172.746 332.235C172.746 331.112 173.657 330.201 174.78 330.201C175.903 330.201 176.814 331.112 176.814 332.235V342.606H172.746V332.235Z" fill="#2EBD85"/>
<path d="M178.848 328.359C178.848 327.235 179.758 326.325 180.882 326.325C182.005 326.325 182.915 327.235 182.915 328.359V342.606H178.848V328.359Z" fill="#EF454A"/>
<path d="M184.949 312.853C184.949 311.729 185.86 310.819 186.983 310.819C188.106 310.819 189.017 311.729 189.017 312.853V342.606H184.949V312.853Z" fill="#EF454A"/>
<path d="M191.051 312.853C191.051 311.729 191.961 310.819 193.085 310.819C194.208 310.819 195.119 311.729 195.119 312.853V342.606H191.051V312.853Z" fill="#EF454A"/>
<path d="M197.152 316.729C197.152 315.606 198.063 314.695 199.186 314.695C200.31 314.695 201.22 315.606 201.22 316.729V342.606H197.152V316.729Z" fill="#EF454A"/>
<path d="M203.254 311.302C203.254 310.179 204.165 309.268 205.288 309.268C206.411 309.268 207.322 310.179 207.322 311.302V342.606H203.254V311.302Z" fill="#2EBD85"/>
<path d="M209.356 322.932C209.356 321.808 210.267 320.898 211.39 320.898C212.513 320.898 213.424 321.808 213.424 322.932V342.606H209.356V322.932Z" fill="#2EBD85"/>
<path d="M215.458 326.808C215.458 325.685 216.369 324.774 217.492 324.774C218.615 324.774 219.526 325.685 219.526 326.808V342.606H215.458V326.808Z" fill="#2EBD85"/>
<path d="M221.56 328.359C221.56 327.235 222.47 326.325 223.593 326.325C224.717 326.325 225.627 327.235 225.627 328.359V342.606H221.56V328.359Z" fill="#2EBD85"/>
<path d="M227.661 324.482C227.661 323.359 228.572 322.448 229.695 322.448C230.818 322.448 231.729 323.359 231.729 324.482V342.606H227.661V324.482Z" fill="#2EBD85"/>
<path d="M233.763 335.336C233.763 334.213 234.673 333.302 235.797 333.302C236.92 333.302 237.83 334.213 237.83 335.336V342.605H233.763V335.336Z" fill="#2EBD85"/>
<path d="M239.864 338.437C239.864 337.314 240.775 336.403 241.898 336.403C243.021 336.403 243.932 337.314 243.932 338.437V342.606H239.864V338.437Z" fill="#2EBD85"/>
<path d="M245.966 337.662C245.966 336.539 246.876 335.628 248 335.628C249.123 335.628 250.034 336.539 250.034 337.662V342.606H245.966V337.662Z" fill="#2EBD85"/>
<path d="M252.067 327.583C252.067 326.46 252.978 325.549 254.101 325.549C255.225 325.549 256.135 326.46 256.135 327.583V342.606H252.067V327.583Z" fill="#EF454A"/>
<path d="M258.17 326.033C258.17 324.91 259.081 323.999 260.204 323.999C261.327 323.999 262.238 324.91 262.238 326.033V342.606H258.17V326.033Z" fill="#EF454A"/>
<path d="M264.271 328.359C264.271 327.235 265.182 326.325 266.305 326.325C267.429 326.325 268.339 327.235 268.339 328.359V342.606H264.271V328.359Z" fill="#EF454A"/>
<path d="M270.373 333.01C270.373 331.887 271.284 330.976 272.407 330.976C273.53 330.976 274.441 331.887 274.441 333.01V342.606H270.373V333.01Z" fill="#2EBD85"/>
<path d="M276.475 329.134C276.475 328.011 277.385 327.1 278.509 327.1C279.632 327.1 280.542 328.011 280.542 329.134V342.606H276.475V329.134Z" fill="#EF454A"/>
<path d="M282.576 334.561C282.576 333.438 283.487 332.527 284.61 332.527C285.733 332.527 286.644 333.438 286.644 334.561V342.606H282.576V334.561Z" fill="#2EBD85"/>
<path d="M288.678 336.112C288.678 334.988 289.588 334.078 290.712 334.078C291.835 334.078 292.746 334.988 292.746 336.112V342.606H288.678V336.112Z" fill="#2EBD85"/>
<path d="M294.779 332.235C294.779 331.112 295.69 330.201 296.813 330.201C297.936 330.201 298.847 331.112 298.847 332.235V342.606H294.779V332.235Z" fill="#EF454A"/>
<path d="M300.881 333.786C300.881 332.662 301.792 331.752 302.915 331.752C304.039 331.752 304.949 332.662 304.949 333.786V342.606H300.881V333.786Z" fill="#2EBD85"/>
<path d="M306.983 332.235C306.983 331.112 307.894 330.201 309.017 330.201C310.141 330.201 311.051 331.112 311.051 332.235V342.606H306.983V332.235Z" fill="#2EBD85"/>
<path d="M313.085 335.336C313.085 334.213 313.996 333.302 315.119 333.302C316.242 333.302 317.153 334.213 317.153 335.336V342.605H313.085V335.336Z" fill="#EF454A"/>
<path d="M319.187 332.235C319.187 331.112 320.097 330.201 321.22 330.201C322.344 330.201 323.254 331.112 323.254 332.235V342.606H319.187V332.235Z" fill="#2EBD85"/>
<path d="M325.288 332.235C325.288 331.112 326.199 330.201 327.322 330.201C328.445 330.201 329.356 331.112 329.356 332.235V342.606H325.288V332.235Z" fill="#EF454A"/>
<path d="M331.39 307.426C331.39 306.302 332.3 305.392 333.424 305.392C334.547 305.392 335.457 306.302 335.457 307.426V342.606H331.39V307.426Z" fill="#2EBD85"/>
<path d="M337.491 305.875C337.491 304.752 338.402 303.841 339.525 303.841C340.648 303.841 341.559 304.752 341.559 305.875V342.606H337.491V305.875Z" fill="#2EBD85"/>
<path d="M343.593 308.201C343.593 307.078 344.504 306.167 345.627 306.167C346.75 306.167 347.661 307.078 347.661 308.201V342.606H343.593V308.201Z" fill="#2EBD85"/>
<path d="M349.695 319.831C349.695 318.707 350.606 317.797 351.729 317.797C352.853 317.797 353.763 318.707 353.763 319.831V342.606H349.695V319.831Z" fill="#2EBD85"/>
<path d="M355.797 327.583C355.797 326.46 356.707 325.549 357.831 325.549C358.954 325.549 359.865 326.46 359.865 327.583V342.606H355.797V327.583Z" fill="#2EBD85"/>
<path d="M361.898 331.46C361.898 330.337 362.809 329.426 363.932 329.426C365.056 329.426 365.966 330.337 365.966 331.46V342.606H361.898V331.46Z" fill="#2EBD85"/>
<path d="M368 326.808C368 325.685 368.911 324.774 370.034 324.774C371.157 324.774 372.068 325.685 372.068 326.808V342.606H368V326.808Z" fill="#2EBD85"/>
<path d="M374.102 317.505C374.102 316.381 375.012 315.471 376.135 315.471C377.259 315.471 378.169 316.381 378.169 317.505V342.606H374.102V317.505Z" fill="#EF454A"/>
<path d="M380.203 333.786C380.203 332.662 381.114 331.752 382.237 331.752C383.36 331.752 384.271 332.662 384.271 333.786V342.606H380.203V333.786Z" fill="#EF454A"/>
<path d="M386.305 337.662C386.305 336.539 387.215 335.628 388.339 335.628C389.462 335.628 390.372 336.539 390.372 337.662V342.606H386.305V337.662Z" fill="#EF454A"/>
<path d="M392.407 332.235C392.407 331.112 393.317 330.201 394.441 330.201C395.564 330.201 396.475 331.112 396.475 332.235V342.606H392.407V332.235Z" fill="#EF454A"/>
<path d="M398.509 319.055C398.509 317.932 399.419 317.021 400.543 317.021C401.666 317.021 402.577 317.932 402.577 319.055V342.606H398.509V319.055Z" fill="#2EBD85"/>
<path d="M404.61 333.01C404.61 331.887 405.521 330.976 406.644 330.976C407.768 330.976 408.678 331.887 408.678 333.01V342.606H404.61V333.01Z" fill="#2EBD85"/>
<path d="M410.712 331.46C410.712 330.337 411.623 329.426 412.746 329.426C413.869 329.426 414.78 330.337 414.78 331.46V342.606H410.712V331.46Z" fill="#2EBD85"/>
<path d="M416.813 337.662C416.813 336.539 417.724 335.628 418.847 335.628C419.971 335.628 420.881 336.539 420.881 337.662V342.606H416.813V337.662Z" fill="#2EBD85"/>
<path d="M422.915 336.887C422.915 335.764 423.826 334.853 424.949 334.853C426.072 334.853 426.983 335.764 426.983 336.887V342.606H422.915V336.887Z" fill="#2EBD85"/>
<path d="M429.017 335.336C429.017 334.213 429.927 333.302 431.05 333.302C432.174 333.302 433.084 334.213 433.084 335.336V342.605H429.017V335.336Z" fill="#2EBD85"/>
<path d="M435.119 336.887C435.119 335.764 436.029 334.853 437.153 334.853C438.276 334.853 439.186 335.764 439.186 336.887V342.606H435.119V336.887Z" fill="#EF454A"/>
<path d="M441.221 327.583C441.221 326.46 442.131 325.549 443.255 325.549C444.378 325.549 445.288 326.46 445.288 327.583V342.606H441.221V327.583Z" fill="#EF454A"/>
<path d="M447.322 331.46C447.322 330.337 448.233 329.426 449.356 329.426C450.479 329.426 451.39 330.337 451.39 331.46V342.606H447.322V331.46Z" fill="#EF454A"/>
<path d="M453.424 336.887C453.424 335.764 454.334 334.853 455.458 334.853C456.581 334.853 457.492 335.764 457.492 336.887V342.606H453.424V336.887Z" fill="#2EBD85"/>
<path d="M459.525 329.909C459.525 328.786 460.436 327.875 461.559 327.875C462.683 327.875 463.593 328.786 463.593 329.909V342.605H459.525V329.909Z" fill="#2EBD85"/>
<path d="M465.627 329.134C465.627 328.011 466.538 327.1 467.661 327.1C468.784 327.1 469.695 328.011 469.695 329.134V342.606H465.627V329.134Z" fill="#2EBD85"/>
<path d="M471.729 322.156C471.729 321.033 472.639 320.122 473.762 320.122C474.886 320.122 475.796 321.033 475.796 322.156V342.606H471.729V322.156Z" fill="#2EBD85"/>
<path d="M477.831 306.651C477.831 305.528 478.741 304.617 479.864 304.617C480.988 304.617 481.898 305.528 481.898 306.651V342.606H477.831V306.651Z" fill="#EF454A"/>
<path d="M483.933 306.651C483.933 305.528 484.843 304.617 485.967 304.617C487.09 304.617 488 305.528 488 306.651V342.606H483.933V306.651Z" fill="#EF454A"/>
<path d="M490.034 312.853C490.034 311.729 490.945 310.819 492.068 310.819C493.191 310.819 494.102 311.729 494.102 312.853V342.606H490.034V312.853Z" fill="#EF454A"/>
<path d="M496.136 322.156C496.136 321.033 497.046 320.122 498.17 320.122C499.293 320.122 500.204 321.033 500.204 322.156V342.606H496.136V322.156Z" fill="#EF454A"/>
<path d="M502.237 328.359C502.237 327.235 503.148 326.325 504.271 326.325C505.394 326.325 506.305 327.235 506.305 328.359V342.606H502.237V328.359Z" fill="#EF454A"/>
<path d="M508.339 330.685C508.339 329.561 509.249 328.651 510.373 328.651C511.496 328.651 512.407 329.561 512.407 330.685V342.606H508.339V330.685Z" fill="#2EBD85"/>
<path d="M514.44 326.033C514.44 324.91 515.351 323.999 516.474 323.999C517.598 323.999 518.508 324.91 518.508 326.033V342.606H514.44V326.033Z" fill="#2EBD85"/>
<path d="M520.542 331.46C520.542 330.337 521.453 329.426 522.576 329.426C523.7 329.426 524.61 330.337 524.61 331.46V342.606H520.542V331.46Z" fill="#2EBD85"/>
<path d="M526.644 335.336C526.644 334.213 527.555 333.302 528.678 333.302C529.801 333.302 530.712 334.213 530.712 335.336V342.605H526.644V335.336Z" fill="#2EBD85"/>
<path d="M532.746 336.112C532.746 334.988 533.657 334.078 534.78 334.078C535.903 334.078 536.814 334.988 536.814 336.112V342.606H532.746V336.112Z" fill="#2EBD85"/>
<path d="M538.848 333.786C538.848 332.662 539.758 331.752 540.882 331.752C542.005 331.752 542.915 332.662 542.915 333.786V342.606H538.848V333.786Z" fill="#2EBD85"/>
<path d="M544.949 318.28C544.949 317.156 545.86 316.246 546.983 316.246C548.106 316.246 549.017 317.156 549.017 318.28V342.605H544.949V318.28Z" fill="#2EBD85"/>
<path d="M551.051 321.381C551.051 320.258 551.961 319.347 553.085 319.347C554.208 319.347 555.119 320.258 555.119 321.381V342.606H551.051V321.381Z" fill="#2EBD85"/>
<path d="M557.152 333.786C557.152 332.662 558.063 331.752 559.186 331.752C560.31 331.752 561.22 332.662 561.22 333.786V342.606H557.152V333.786Z" fill="#2EBD85"/>
<path d="M563.254 335.336C563.254 334.213 564.165 333.302 565.288 333.302C566.411 333.302 567.322 334.213 567.322 335.336V342.605H563.254V335.336Z" fill="#2EBD85"/>
<path d="M569.356 333.786C569.356 332.662 570.267 331.752 571.39 331.752C572.513 331.752 573.424 332.662 573.424 333.786V342.606H569.356V333.786Z" fill="#2EBD85"/>
<path d="M575.458 337.662C575.458 336.539 576.368 335.628 577.491 335.628C578.615 335.628 579.525 336.539 579.525 337.662V342.606H575.458V337.662Z" fill="#2EBD85"/>
<path d="M581.56 333.01C581.56 331.887 582.47 330.976 583.593 330.976C584.717 330.976 585.627 331.887 585.627 333.01V342.606H581.56V333.01Z" fill="#2EBD85"/>
<path d="M587.661 327.583C587.661 326.46 588.572 325.549 589.695 325.549C590.818 325.549 591.729 326.46 591.729 327.583V342.606H587.661V327.583Z" fill="#2EBD85"/>
<path d="M593.763 331.46C593.763 330.337 594.673 329.426 595.797 329.426C596.92 329.426 597.83 330.337 597.83 331.46V342.606H593.763V331.46Z" fill="#2EBD85"/>
<path d="M599.864 329.134C599.864 328.011 600.775 327.1 601.898 327.1C603.021 327.1 603.932 328.011 603.932 329.134V342.606H599.864V329.134Z" fill="#2EBD85"/>
<path d="M605.966 334.561C605.966 333.438 606.876 332.527 608 332.527C609.123 332.527 610.034 333.438 610.034 334.561V342.606H605.966V334.561Z" fill="#2EBD85"/>
<path d="M612.068 327.583C612.068 326.46 612.978 325.549 614.102 325.549C615.225 325.549 616.136 326.46 616.136 327.583V342.606H612.068V327.583Z" fill="#EF454A"/>
<path d="M618.169 327.583C618.169 326.46 619.08 325.549 620.203 325.549C621.327 325.549 622.237 326.46 622.237 327.583V342.606H618.169V327.583Z" fill="#2EBD85"/>
<path d="M624.271 307.426C624.271 306.302 625.182 305.392 626.305 305.392C627.429 305.392 628.339 306.302 628.339 307.426V342.606H624.271V307.426Z" fill="#2EBD85"/>
<path d="M630.373 300.448C630.373 299.325 631.284 298.414 632.407 298.414C633.53 298.414 634.441 299.325 634.441 300.448V342.606H630.373V300.448Z" fill="#EF454A"/>
<path d="M636.475 310.527C636.475 309.404 637.385 308.493 638.509 308.493C639.632 308.493 640.542 309.404 640.542 310.527V342.606H636.475V310.527Z" fill="#2EBD85"/>
<path d="M642.576 315.179C642.576 314.056 643.487 313.145 644.61 313.145C645.733 313.145 646.644 314.056 646.644 315.179V342.606H642.576V315.179Z" fill="#2EBD85"/>
<path d="M648.678 325.258C648.678 324.134 649.588 323.224 650.712 323.224C651.835 323.224 652.746 324.134 652.746 325.258V342.606H648.678V325.258Z" fill="#2EBD85"/>
<path d="M654.779 319.055C654.779 317.932 655.69 317.021 656.813 317.021C657.936 317.021 658.847 317.932 658.847 319.055V342.606H654.779V319.055Z" fill="#EF454A"/>
<path d="M660.881 316.729C660.881 315.606 661.792 314.695 662.915 314.695C664.039 314.695 664.949 315.606 664.949 316.729V342.606H660.881V316.729Z" fill="#2EBD85"/>
<path d="M666.983 329.134C666.983 328.011 667.894 327.1 669.017 327.1C670.141 327.1 671.051 328.011 671.051 329.134V342.606H666.983V329.134Z" fill="#2EBD85"/>
<path d="M673.085 334.561C673.085 333.438 673.996 332.527 675.119 332.527C676.242 332.527 677.153 333.438 677.153 334.561V342.606H673.085V334.561Z" fill="#2EBD85"/>
<path d="M679.187 336.112C679.187 334.988 680.097 334.078 681.22 334.078C682.344 334.078 683.254 334.988 683.254 336.112V342.606H679.187V336.112Z" fill="#2EBD85"/>
<path d="M685.288 333.786C685.288 332.662 686.199 331.752 687.322 331.752C688.445 331.752 689.356 332.662 689.356 333.786V342.606H685.288V333.786Z" fill="#EF454A"/>
<path d="M691.39 333.786C691.39 332.662 692.3 331.752 693.424 331.752C694.547 331.752 695.457 332.662 695.457 333.786V342.606H691.39V333.786Z" fill="#EF454A"/>
<path d="M697.491 337.662C697.491 336.539 698.402 335.628 699.525 335.628C700.648 335.628 701.559 336.539 701.559 337.662V342.606H697.491V337.662Z" fill="#EF454A"/>
<path d="M703.593 323.707C703.593 322.583 704.504 321.673 705.627 321.673C706.75 321.673 707.661 322.583 707.661 323.707V342.605H703.593V323.707Z" fill="#2EBD85"/>
<path d="M709.695 326.033C709.695 324.91 710.605 323.999 711.729 323.999C712.852 323.999 713.763 324.91 713.763 326.033V342.606H709.695V326.033Z" fill="#2EBD85"/>
<path d="M715.797 322.932C715.797 321.808 716.707 320.898 717.831 320.898C718.954 320.898 719.865 321.808 719.865 322.932V342.606H715.797V322.932Z" fill="#2EBD85"/>
<path d="M721.898 326.808C721.898 325.685 722.809 324.774 723.932 324.774C725.056 324.774 725.966 325.685 725.966 326.808V342.606H721.898V326.808Z" fill="#2EBD85"/>
<path d="M728 330.685C728 329.561 728.911 328.651 730.034 328.651C731.157 328.651 732.068 329.561 732.068 330.685V342.606H728V330.685Z" fill="#2EBD85"/>
<path d="M734.102 325.258C734.102 324.134 735.012 323.224 736.135 323.224C737.259 323.224 738.169 324.134 738.169 325.258V342.606H734.102V325.258Z" fill="#2EBD85"/>
<path d="M740.203 332.235C740.203 331.112 741.114 330.201 742.237 330.201C743.36 330.201 744.271 331.112 744.271 332.235V342.606H740.203V332.235Z" fill="#2EBD85"/>
<path d="M746.305 328.359C746.305 327.235 747.216 326.325 748.339 326.325C749.462 326.325 750.373 327.235 750.373 328.359V342.606H746.305V328.359Z" fill="#2EBD85"/>
<path d="M752.407 329.909C752.407 328.786 753.317 327.875 754.441 327.875C755.564 327.875 756.475 328.786 756.475 329.909V342.605H752.407V329.909Z" fill="#EF454A"/>
<path d="M758.509 332.235C758.509 331.112 759.419 330.201 760.543 330.201C761.666 330.201 762.577 331.112 762.577 332.235V342.606H758.509V332.235Z" fill="#EF454A"/>
<path d="M764.61 329.134C764.61 328.011 765.521 327.1 766.644 327.1C767.768 327.1 768.678 328.011 768.678 329.134V342.606H764.61V329.134Z" fill="#EF454A"/>
<path d="M770.712 328.359C770.712 327.235 771.623 326.325 772.746 326.325C773.869 326.325 774.78 327.235 774.78 328.359V342.606H770.712V328.359Z" fill="#2EBD85"/>
<path d="M776.813 322.932C776.813 321.808 777.724 320.898 778.847 320.898C779.971 320.898 780.881 321.808 780.881 322.932V342.606H776.813V322.932Z" fill="#2EBD85"/>
<path d="M782.915 313.628C782.915 312.505 783.826 311.594 784.949 311.594C786.072 311.594 786.983 312.505 786.983 313.628V342.606H782.915V313.628Z" fill="#2EBD85"/>
<path d="M789.017 328.359C789.017 327.235 789.927 326.325 791.05 326.325C792.174 326.325 793.084 327.235 793.084 328.359V342.606H789.017V328.359Z" fill="#2EBD85"/>
<path d="M795.119 329.134C795.119 328.011 796.029 327.1 797.153 327.1C798.276 327.1 799.186 328.011 799.186 329.134V342.606H795.119V329.134Z" fill="#2EBD85"/>
<path d="M801.221 333.01C801.221 331.887 802.131 330.976 803.255 330.976C804.378 330.976 805.288 331.887 805.288 333.01V342.606H801.221V333.01Z" fill="#2EBD85"/>
<path d="M807.322 332.235C807.322 331.112 808.233 330.201 809.356 330.201C810.479 330.201 811.39 331.112 811.39 332.235V342.606H807.322V332.235Z" fill="#2EBD85"/>
<path d="M813.424 334.561C813.424 333.438 814.334 332.527 815.458 332.527C816.581 332.527 817.492 333.438 817.492 334.561V342.606H813.424V334.561Z" fill="#2EBD85"/>
<path d="M819.525 337.662C819.525 336.539 820.436 335.628 821.559 335.628C822.683 335.628 823.593 336.539 823.593 337.662V342.606H819.525V337.662Z" fill="#EF454A"/>
<path d="M825.627 333.01C825.627 331.887 826.538 330.976 827.661 330.976C828.784 330.976 829.695 331.887 829.695 333.01V342.606H825.627V333.01Z" fill="#EF454A"/>
<path d="M831.729 335.336C831.729 334.213 832.639 333.302 833.762 333.302C834.886 333.302 835.796 334.213 835.796 335.336V342.605H831.729V335.336Z" fill="#EF454A"/>
<path d="M837.831 333.786C837.831 332.662 838.741 331.752 839.864 331.752C840.988 331.752 841.898 332.662 841.898 333.786V342.606H837.831V333.786Z" fill="#EF454A"/>
<path d="M843.932 329.134C843.932 328.011 844.843 327.1 845.966 327.1C847.089 327.1 848 328.011 848 329.134V342.606H843.932V329.134Z" fill="#EF454A"/>
<path d="M850.034 333.01C850.034 331.887 850.945 330.976 852.068 330.976C853.191 330.976 854.102 331.887 854.102 333.01V342.606H850.034V333.01Z" fill="#2EBD85"/>
<path d="M856.136 326.033C856.136 324.91 857.046 323.999 858.17 323.999C859.293 323.999 860.204 324.91 860.204 326.033V342.606H856.136V326.033Z" fill="#2EBD85"/>
<path d="M862.237 328.359C862.237 327.235 863.148 326.325 864.271 326.325C865.394 326.325 866.305 327.235 866.305 328.359V342.606H862.237V328.359Z" fill="#2EBD85"/>
<path d="M868.339 333.01C868.339 331.887 869.249 330.976 870.373 330.976C871.496 330.976 872.407 331.887 872.407 333.01V342.606H868.339V333.01Z" fill="#2EBD85"/>
<path d="M874.44 331.46C874.44 330.337 875.351 329.426 876.474 329.426C877.598 329.426 878.508 330.337 878.508 331.46V342.606H874.44V331.46Z" fill="#2EBD85"/>
<path d="M880.542 326.033C880.542 324.91 881.453 323.999 882.576 323.999C883.7 323.999 884.61 324.91 884.61 326.033V342.606H880.542V326.033Z" fill="#2EBD85"/>
<path d="M886.644 307.426C886.644 306.302 887.555 305.392 888.678 305.392C889.801 305.392 890.712 306.302 890.712 307.426V342.606H886.644V307.426Z" fill="#2EBD85"/>
<path d="M892.746 322.156C892.746 321.033 893.657 320.122 894.78 320.122C895.903 320.122 896.814 321.033 896.814 322.156V342.606H892.746V322.156Z" fill="#EF454A"/>
<path d="M898.848 322.156C898.848 321.033 899.758 320.122 900.882 320.122C902.005 320.122 902.915 321.033 902.915 322.156V342.606H898.848V322.156Z" fill="#EF454A"/>
<path d="M904.949 324.482C904.949 323.359 905.86 322.448 906.983 322.448C908.106 322.448 909.017 323.359 909.017 324.482V342.606H904.949V324.482Z" fill="#2EBD85"/>
<path d="M911.051 326.033C911.051 324.91 911.961 323.999 913.085 323.999C914.208 323.999 915.119 324.91 915.119 326.033V342.606H911.051V326.033Z" fill="#2EBD85"/>
<path d="M917.152 310.527C917.152 309.404 918.063 308.493 919.186 308.493C920.31 308.493 921.22 309.404 921.22 310.527V342.606H917.152V310.527Z" fill="#2EBD85"/>
<path d="M923.254 319.055C923.254 317.932 924.165 317.021 925.288 317.021C926.411 317.021 927.322 317.932 927.322 319.055V342.606H923.254V319.055Z" fill="#2EBD85"/>
<path d="M929.356 328.359C929.356 327.235 930.267 326.325 931.39 326.325C932.513 326.325 933.424 327.235 933.424 328.359V342.606H929.356V328.359Z" fill="#2EBD85"/>
<path d="M935.458 329.909C935.458 328.786 936.368 327.875 937.491 327.875C938.615 327.875 939.525 328.786 939.525 329.909V342.605H935.458V329.909Z" fill="#2EBD85"/>
<path d="M941.56 333.01C941.56 331.887 942.47 330.976 943.593 330.976C944.717 330.976 945.627 331.887 945.627 333.01V342.606H941.56V333.01Z" fill="#EF454A"/>
<path d="M947.661 329.134C947.661 328.011 948.572 327.1 949.695 327.1C950.818 327.1 951.729 328.011 951.729 329.134V342.606H947.661V329.134Z" fill="#EF454A"/>
<path d="M953.763 323.707C953.763 322.583 954.673 321.673 955.797 321.673C956.92 321.673 957.83 322.583 957.83 323.707V342.605H953.763V323.707Z" fill="#EF454A"/>
<path d="M959.864 296.572C959.864 295.448 960.775 294.538 961.898 294.538C963.021 294.538 963.932 295.448 963.932 296.572V342.606H959.864V296.572Z" fill="#EF454A"/>
<path d="M965.966 283.392C965.966 282.269 966.876 281.358 968 281.358C969.123 281.358 970.034 282.269 970.034 283.392V342.606H965.966V283.392Z" fill="#EF454A"/>
<path d="M972 301.753C972 300.649 972.895 299.753 974 299.753C975.105 299.753 976 300.649 976 301.753V342.606H972V301.753Z" fill="#EF454A"/>
<path d="M978.169 279.515C978.169 278.392 979.08 277.481 980.203 277.481C981.327 277.481 982.237 278.392 982.237 279.515V342.606H978.169V279.515Z" fill="#2EBD85"/>
<path d="M984.271 299.673C984.271 298.55 985.182 297.639 986.305 297.639C987.429 297.639 988.339 298.55 988.339 299.673V342.606H984.271V299.673Z" fill="#2EBD85"/>
<path d="M990.373 311.302C990.373 310.179 991.284 309.268 992.407 309.268C993.53 309.268 994.441 310.179 994.441 311.302V342.606H990.373V311.302Z" fill="#2EBD85"/>
<path d="M996.475 319.055C996.475 317.932 997.385 317.021 998.509 317.021C999.632 317.021 1000.54 317.932 1000.54 319.055V342.606H996.475V319.055Z" fill="#2EBD85"/>
<path d="M1002.58 323.707C1002.58 322.583 1003.49 321.673 1004.61 321.673C1005.73 321.673 1006.64 322.583 1006.64 323.707V342.605H1002.58V323.707Z" fill="#2EBD85"/>
<path d="M1009 308.307C1009 307.202 1009.9 306.307 1011 306.307C1012.1 306.307 1013 307.202 1013 308.307V342.606H1009V308.307Z" fill="#2EBD85"/>
<path d="M1015 295.703C1015 294.599 1015.9 293.703 1017 293.703C1018.1 293.703 1019 294.599 1019 295.703V342.606H1015V295.703Z" fill="#2EBD85"/>
<path d="M1020.88 316.729C1020.88 315.606 1021.79 314.695 1022.92 314.695C1024.04 314.695 1024.95 315.606 1024.95 316.729V342.606H1020.88V316.729Z" fill="#2EBD85"/>
<path d="M1026.98 311.302C1026.98 310.179 1027.89 309.268 1029.02 309.268C1030.14 309.268 1031.05 310.179 1031.05 311.302V342.606H1026.98V311.302Z" fill="#2EBD85"/>
<path d="M1033.08 322.156C1033.08 321.033 1034 320.122 1035.12 320.122C1036.24 320.122 1037.15 321.033 1037.15 322.156V342.606H1033.08V322.156Z" fill="#2EBD85"/>
<path d="M1039.19 322.932C1039.19 321.808 1040.1 320.898 1041.22 320.898C1042.34 320.898 1043.25 321.808 1043.25 322.932V342.606H1039.19V322.932Z" fill="#2EBD85"/>
<path d="M1045.29 283.392C1045.29 282.269 1046.2 281.358 1047.32 281.358C1048.45 281.358 1049.36 282.269 1049.36 283.392V342.606H1045.29V283.392Z" fill="#EF454A"/>
<path d="M1051.39 307.426C1051.39 306.302 1052.3 305.392 1053.42 305.392C1054.55 305.392 1055.46 306.302 1055.46 307.426V342.606H1051.39V307.426Z" fill="#EF454A"/>
<path d="M1057.49 315.954C1057.49 314.831 1058.4 313.92 1059.53 313.92C1060.65 313.92 1061.56 314.831 1061.56 315.954V342.606H1057.49V315.954Z" fill="#EF454A"/>
<path d="M1063.59 290.369C1063.59 289.246 1064.5 288.335 1065.63 288.335C1066.75 288.335 1067.66 289.246 1067.66 290.369V342.606H1063.59V290.369Z" fill="#2EBD85"/>
<path d="M1069.69 284.167C1069.69 283.044 1070.61 282.134 1071.73 282.134C1072.85 282.134 1073.76 283.044 1073.76 284.167V342.606H1069.69V284.167Z" fill="#2EBD85"/>
<path d="M1076 271C1076 269.895 1076.9 269 1078 269C1079.1 269 1080 269.895 1080 271V342.606H1076V271Z" fill="#2EBD85"/>
<path d="M1081.9 296.572C1081.9 295.448 1082.81 294.538 1083.93 294.538C1085.06 294.538 1085.97 295.448 1085.97 296.572V342.606H1081.9V296.572Z" fill="#2EBD85"/>
<path d="M1088 312.078C1088 310.954 1088.91 310.044 1090.03 310.044C1091.16 310.044 1092.07 310.954 1092.07 312.078V342.606H1088V312.078Z" fill="#2EBD85"/>
<path d="M1094.1 321.381C1094.1 320.258 1095.01 319.347 1096.14 319.347C1097.26 319.347 1098.17 320.258 1098.17 321.381V342.606H1094.1V321.381Z" fill="#EF454A"/>
<path d="M1100.2 323.707C1100.2 322.583 1101.11 321.673 1102.24 321.673C1103.36 321.673 1104.27 322.583 1104.27 323.707V342.605H1100.2V323.707Z" fill="#EF454A"/>
<path d="M1106.31 321.381C1106.31 320.258 1107.22 319.347 1108.34 319.347C1109.46 319.347 1110.37 320.258 1110.37 321.381V342.606H1106.31V321.381Z" fill="#EF454A"/>
<path d="M1112.41 314.404C1112.41 313.28 1113.32 312.37 1114.44 312.37C1115.56 312.37 1116.47 313.28 1116.47 314.404V342.606H1112.41V314.404Z" fill="#EF454A"/>
<path d="M1118.51 305.1C1118.51 303.977 1119.42 303.066 1120.54 303.066C1121.67 303.066 1122.58 303.977 1122.58 305.1V342.606H1118.51V305.1Z" fill="#2EBD85"/>
<path d="M1124.61 298.123C1124.61 296.999 1125.52 296.089 1126.64 296.089C1127.77 296.089 1128.68 296.999 1128.68 298.123V342.606H1124.61V298.123Z" fill="#2EBD85"/>
<path d="M1130.71 311.302C1130.71 310.179 1131.62 309.268 1132.75 309.268C1133.87 309.268 1134.78 310.179 1134.78 311.302V342.606H1130.71V311.302Z" fill="#2EBD85"/>
<path d="M1136.81 319.055C1136.81 317.932 1137.72 317.021 1138.85 317.021C1139.97 317.021 1140.88 317.932 1140.88 319.055V342.606H1136.81V319.055Z" fill="#2EBD85"/>
<path d="M1142.92 321.381C1142.92 320.258 1143.83 319.347 1144.95 319.347C1146.07 319.347 1146.98 320.258 1146.98 321.381V342.606H1142.92V321.381Z" fill="#2EBD85"/>
<path d="M1149.02 322.932C1149.02 321.808 1149.93 320.898 1151.05 320.898C1152.17 320.898 1153.08 321.808 1153.08 322.932V342.606H1149.02V322.932Z" fill="#2EBD85"/>
<path d="M1155.12 322.156C1155.12 321.033 1156.03 320.122 1157.15 320.122C1158.28 320.122 1159.19 321.033 1159.19 322.156V342.606H1155.12V322.156Z" fill="#2EBD85"/>
<path d="M1161.22 324.482C1161.22 323.359 1162.13 322.448 1163.25 322.448C1164.38 322.448 1165.29 323.359 1165.29 324.482V342.606H1161.22V324.482Z" fill="#EF454A"/>
<path d="M1167.32 326.033C1167.32 324.91 1168.23 323.999 1169.36 323.999C1170.48 323.999 1171.39 324.91 1171.39 326.033V342.606H1167.32V326.033Z" fill="#EF454A"/>
<path d="M1173.42 322.156C1173.42 321.033 1174.33 320.122 1175.46 320.122C1176.58 320.122 1177.49 321.033 1177.49 322.156V342.606H1173.42V322.156Z" fill="#EF454A"/>
<path d="M1179.53 325.258C1179.53 324.134 1180.44 323.224 1181.56 323.224C1182.68 323.224 1183.59 324.134 1183.59 325.258V342.606H1179.53V325.258Z" fill="#EF454A"/>
<path d="M1185.63 320.606C1185.63 319.483 1186.54 318.572 1187.66 318.572C1188.78 318.572 1189.69 319.483 1189.69 320.606V342.606H1185.63V320.606Z" fill="#2EBD85"/>
<path d="M1191.73 320.606C1191.73 319.483 1192.64 318.572 1193.76 318.572C1194.89 318.572 1195.8 319.483 1195.8 320.606V342.606H1191.73V320.606Z" fill="#2EBD85"/>
<path d="M1197.83 322.932C1197.83 321.808 1198.74 320.898 1199.86 320.898C1200.99 320.898 1201.9 321.808 1201.9 322.932V342.606H1197.83V322.932Z" fill="#2EBD85"/>
<path d="M1203.93 299.673C1203.93 298.55 1204.84 297.639 1205.97 297.639C1207.09 297.639 1208 298.55 1208 299.673V342.606H1203.93V299.673Z" fill="#2EBD85"/>
<defs>
<filter id="filter0_d_1098_33873" x="0.249023" y="16.9951" width="1216.5" height="259.583" filterUnits="userSpaceOnUse" color-interpolation-filters="sRGB">
<feFlood flood-opacity="0" result="BackgroundImageFix"/>
<feColorMatrix in="SourceAlpha" type="matrix" values="0 0 0 0 0 0 0 0 0 0 0 0 0 0 0 0 0 0 127 0" result="hardAlpha"/>
<feOffset/>
<feGaussianBlur stdDeviation="4"/>
<feComposite in2="hardAlpha" operator="out"/>
<feColorMatrix type="matrix" values="0 0 0 0 0.627451 0 0 0 0 0.415686 0 0 0 0 1 0 0 0 0.24 0"/>
<feBlend mode="normal" in2="BackgroundImageFix" result="effect1_dropShadow_1098_33873"/>
<feBlend mode="normal" in="SourceGraphic" in2="effect1_dropShadow_1098_33873" result="shape"/>
</filter>
<linearGradient id="paint0_linear_1098_33873" x1="608.5" y1="34" x2="608.5" y2="308" gradientUnits="userSpaceOnUse">
<stop stop-color="#A06AFF" stop-opacity="0.32"/>
<stop offset="1" stop-color="#181A20" stop-opacity="0"/>
</linearGradient>
</defs>
</svg>
