<svg width="370" height="264" viewBox="0 0 370 264" fill="none" xmlns="http://www.w3.org/2000/svg">
<path opacity="0.48" d="M339.33 79V77.956H341.25V71.596H341.874L339.75 72.916L339.246 71.992L341.61 70.54H342.486V77.956H344.286V79H339.33ZM348.721 79.108C348.065 79.108 347.513 78.94 347.065 78.604C346.617 78.268 346.277 77.78 346.045 77.14C345.813 76.492 345.697 75.7 345.697 74.764C345.697 73.812 345.813 73.016 346.045 72.376C346.277 71.736 346.617 71.252 347.065 70.924C347.513 70.596 348.065 70.432 348.721 70.432C349.385 70.432 349.941 70.596 350.389 70.924C350.837 71.244 351.173 71.724 351.397 72.364C351.629 73.004 351.745 73.8 351.745 74.752C351.745 75.688 351.629 76.48 351.397 77.128C351.165 77.776 350.825 78.268 350.377 78.604C349.929 78.94 349.377 79.108 348.721 79.108ZM348.721 78.076C349.337 78.076 349.789 77.808 350.077 77.272C350.373 76.736 350.521 75.896 350.521 74.752C350.521 73.608 350.373 72.776 350.077 72.256C349.789 71.728 349.337 71.464 348.721 71.464C348.113 71.464 347.661 71.728 347.365 72.256C347.069 72.776 346.921 73.608 346.921 74.752C346.921 75.896 347.069 76.736 347.365 77.272C347.661 77.808 348.113 78.076 348.721 78.076ZM355.364 79V71.584H352.364V70.54H359.6V71.584H356.6V79H355.364ZM364.089 79V77.272H363.021V76.396H364.089V75.424H363.021V74.548H364.089V70.54H366.897C367.505 70.54 368.021 70.644 368.445 70.852C368.869 71.052 369.189 71.336 369.405 71.704C369.621 72.072 369.729 72.512 369.729 73.024C369.729 73.512 369.617 73.936 369.393 74.296C369.169 74.648 368.853 74.924 368.445 75.124C368.037 75.324 367.549 75.424 366.981 75.424H365.349V76.396H367.365V77.272H365.349V79H364.089ZM365.325 74.548H366.777C367.345 74.548 367.777 74.432 368.073 74.2C368.377 73.96 368.529 73.592 368.529 73.096C368.529 72.592 368.381 72.216 368.085 71.968C367.789 71.72 367.349 71.596 366.765 71.596H365.325V74.548Z" fill="white"/>
<path opacity="0.48" d="M329.287 30V28.956H331.207V22.596H331.831L329.707 23.916L329.203 22.992L331.567 21.54H332.443V28.956H334.243V30H329.287ZM338.678 30.108C338.022 30.108 337.47 29.94 337.022 29.604C336.574 29.268 336.234 28.78 336.002 28.14C335.77 27.492 335.654 26.7 335.654 25.764C335.654 24.812 335.77 24.016 336.002 23.376C336.234 22.736 336.574 22.252 337.022 21.924C337.47 21.596 338.022 21.432 338.678 21.432C339.342 21.432 339.898 21.596 340.346 21.924C340.794 22.244 341.13 22.724 341.354 23.364C341.586 24.004 341.702 24.8 341.702 25.752C341.702 26.688 341.586 27.48 341.354 28.128C341.122 28.776 340.782 29.268 340.334 29.604C339.886 29.94 339.334 30.108 338.678 30.108ZM338.678 29.076C339.294 29.076 339.746 28.808 340.034 28.272C340.33 27.736 340.478 26.896 340.478 25.752C340.478 24.608 340.33 23.776 340.034 23.256C339.746 22.728 339.294 22.464 338.678 22.464C338.07 22.464 337.618 22.728 337.322 23.256C337.026 23.776 336.878 24.608 336.878 25.752C336.878 26.896 337.026 27.736 337.322 28.272C337.618 28.808 338.07 29.076 338.678 29.076ZM342.981 30V28.572H344.409V30H342.981ZM346.321 30L350.449 22.116V22.584H345.865V21.54H351.589V22.464L347.689 30H346.321ZM355.364 30V22.584H352.364V21.54H359.6V22.584H356.6V30H355.364ZM364.089 30V28.272H363.021V27.396H364.089V26.424H363.021V25.548H364.089V21.54H366.897C367.505 21.54 368.021 21.644 368.445 21.852C368.869 22.052 369.189 22.336 369.405 22.704C369.621 23.072 369.729 23.512 369.729 24.024C369.729 24.512 369.617 24.936 369.393 25.296C369.169 25.648 368.853 25.924 368.445 26.124C368.037 26.324 367.549 26.424 366.981 26.424H365.349V27.396H367.365V28.272H365.349V30H364.089ZM365.325 25.548H366.777C367.345 25.548 367.777 25.432 368.073 25.2C368.377 24.96 368.529 24.592 368.529 24.096C368.529 23.592 368.381 23.216 368.085 22.968C367.789 22.72 367.349 22.596 366.765 22.596H365.325V25.548Z" fill="white"/>
<path opacity="0.48" d="M348.109 153.108C347.821 153.108 347.525 153.072 347.221 153C346.925 152.92 346.645 152.804 346.381 152.652C346.117 152.5 345.885 152.324 345.685 152.124L346.117 151.176C346.413 151.464 346.733 151.684 347.077 151.836C347.421 151.98 347.769 152.052 348.121 152.052C348.497 152.052 348.829 151.984 349.117 151.848C349.405 151.712 349.645 151.508 349.837 151.236C350.037 150.964 350.185 150.628 350.281 150.228C350.385 149.82 350.437 149.352 350.437 148.824V147.804H350.557C350.501 148.228 350.365 148.6 350.149 148.92C349.941 149.24 349.669 149.484 349.333 149.652C349.005 149.82 348.633 149.904 348.217 149.904C347.729 149.904 347.293 149.788 346.909 149.556C346.533 149.324 346.233 149.004 346.009 148.596C345.793 148.188 345.685 147.728 345.685 147.216C345.685 146.672 345.801 146.192 346.033 145.776C346.273 145.352 346.597 145.024 347.005 144.792C347.413 144.552 347.885 144.432 348.421 144.432C349.109 144.432 349.689 144.596 350.161 144.924C350.633 145.244 350.993 145.716 351.241 146.34C351.497 146.964 351.625 147.712 351.625 148.584C351.625 149.552 351.485 150.372 351.205 151.044C350.925 151.716 350.525 152.228 350.005 152.58C349.485 152.932 348.853 153.108 348.109 153.108ZM348.505 148.884C348.825 148.884 349.109 148.812 349.357 148.668C349.605 148.524 349.797 148.324 349.933 148.068C350.077 147.804 350.149 147.5 350.149 147.156C350.149 146.82 350.077 146.524 349.933 146.268C349.797 146.004 349.605 145.8 349.357 145.656C349.109 145.504 348.825 145.428 348.505 145.428C348.177 145.428 347.889 145.504 347.641 145.656C347.401 145.8 347.209 146.004 347.065 146.268C346.929 146.524 346.861 146.82 346.861 147.156C346.861 147.5 346.929 147.804 347.065 148.068C347.209 148.324 347.401 148.524 347.641 148.668C347.889 148.812 348.177 148.884 348.505 148.884ZM355.364 153V145.584H352.364V144.54H359.6V145.584H356.6V153H355.364ZM364.089 153V151.272H363.021V150.396H364.089V149.424H363.021V148.548H364.089V144.54H366.897C367.505 144.54 368.021 144.644 368.445 144.852C368.869 145.052 369.189 145.336 369.405 145.704C369.621 146.072 369.729 146.512 369.729 147.024C369.729 147.512 369.617 147.936 369.393 148.296C369.169 148.648 368.853 148.924 368.445 149.124C368.037 149.324 367.549 149.424 366.981 149.424H365.349V150.396H367.365V151.272H365.349V153H364.089ZM365.325 148.548H366.777C367.345 148.548 367.777 148.432 368.073 148.2C368.377 147.96 368.529 147.592 368.529 147.096C368.529 146.592 368.381 146.216 368.085 145.968C367.789 145.72 367.349 145.596 366.765 145.596H365.325V148.548Z" fill="white"/>
<path opacity="0.48" d="M348.721 227.108C347.753 227.108 346.997 226.9 346.453 226.484C345.917 226.068 345.649 225.488 345.649 224.744C345.649 224.344 345.729 223.992 345.889 223.688C346.049 223.376 346.273 223.124 346.561 222.932C346.849 222.74 347.181 222.62 347.557 222.572V222.788C347.213 222.716 346.913 222.584 346.657 222.392C346.401 222.192 346.201 221.948 346.057 221.66C345.921 221.364 345.853 221.04 345.853 220.688C345.853 219.984 346.113 219.432 346.633 219.032C347.153 218.632 347.849 218.432 348.721 218.432C349.601 218.432 350.301 218.632 350.821 219.032C351.341 219.432 351.601 219.984 351.601 220.688C351.601 221.04 351.529 221.364 351.385 221.66C351.249 221.948 351.053 222.192 350.797 222.392C350.541 222.584 350.241 222.712 349.897 222.776V222.572C350.281 222.62 350.613 222.744 350.893 222.944C351.173 223.136 351.393 223.384 351.553 223.688C351.713 223.992 351.793 224.344 351.793 224.744C351.793 225.488 351.521 226.068 350.977 226.484C350.441 226.9 349.689 227.108 348.721 227.108ZM348.721 226.124C349.353 226.124 349.829 226.004 350.149 225.764C350.469 225.516 350.629 225.148 350.629 224.66C350.629 224.172 350.469 223.808 350.149 223.568C349.829 223.328 349.353 223.208 348.721 223.208C348.097 223.208 347.621 223.328 347.293 223.568C346.973 223.808 346.813 224.172 346.813 224.66C346.813 225.148 346.973 225.516 347.293 225.764C347.621 226.004 348.097 226.124 348.721 226.124ZM348.721 222.224C349.257 222.224 349.673 222.1 349.969 221.852C350.273 221.596 350.425 221.248 350.425 220.808C350.425 220.376 350.273 220.036 349.969 219.788C349.673 219.54 349.257 219.416 348.721 219.416C348.185 219.416 347.769 219.54 347.473 219.788C347.177 220.036 347.029 220.376 347.029 220.808C347.029 221.248 347.177 221.596 347.473 221.852C347.769 222.1 348.185 222.224 348.721 222.224ZM355.364 227V219.584H352.364V218.54H359.6V219.584H356.6V227H355.364ZM364.089 227V225.272H363.021V224.396H364.089V223.424H363.021V222.548H364.089V218.54H366.897C367.505 218.54 368.021 218.644 368.445 218.852C368.869 219.052 369.189 219.336 369.405 219.704C369.621 220.072 369.729 220.512 369.729 221.024C369.729 221.512 369.617 221.936 369.393 222.296C369.169 222.648 368.853 222.924 368.445 223.124C368.037 223.324 367.549 223.424 366.981 223.424H365.349V224.396H367.365V225.272H365.349V227H364.089ZM365.325 222.548H366.777C367.345 222.548 367.777 222.432 368.073 222.2C368.377 221.96 368.529 221.592 368.529 221.096C368.529 220.592 368.381 220.216 368.085 219.968C367.789 219.72 367.349 219.596 366.765 219.596H365.325V222.548Z" fill="white"/>
<rect y="222" width="321" height="2" fill="white" fill-opacity="0.16"/>
<rect y="148" width="321" height="2" fill="white" fill-opacity="0.04"/>
<rect y="74" width="321" height="2" fill="white" fill-opacity="0.04"/>
<rect width="321" height="2" fill="white" fill-opacity="0.04"/>
<path opacity="0.48" d="M25.5895 260V258.956H27.5095V252.596H28.1335L26.0095 253.916L25.5055 252.992L27.8695 251.54H28.7455V258.956H30.5455V260H25.5895ZM32.4009 260V259.076L35.2209 256.052C35.4849 255.764 35.6969 255.5 35.8569 255.26C36.0169 255.012 36.1329 254.776 36.2049 254.552C36.2849 254.32 36.3249 254.088 36.3249 253.856C36.3249 253.408 36.1889 253.068 35.9169 252.836C35.6449 252.604 35.2449 252.488 34.7169 252.488C34.3089 252.488 33.9209 252.564 33.5529 252.716C33.1929 252.868 32.8489 253.1 32.5209 253.412L32.0769 252.464C32.3969 252.152 32.8049 251.904 33.3009 251.72C33.7969 251.528 34.3129 251.432 34.8489 251.432C35.4329 251.432 35.9249 251.524 36.3249 251.708C36.7329 251.884 37.0409 252.144 37.2489 252.488C37.4569 252.832 37.5609 253.252 37.5609 253.748C37.5609 254.004 37.5289 254.256 37.4649 254.504C37.4089 254.744 37.3169 254.984 37.1889 255.224C37.0689 255.464 36.9129 255.712 36.7209 255.968C36.5369 256.224 36.3129 256.488 36.0489 256.76L33.6369 259.304V258.956H37.8969V260H32.4009ZM39.2842 255.572V254.144H40.7122V255.572H39.2842ZM39.2842 260V258.572H40.7122V260H39.2842ZM45.0238 260.108C44.3678 260.108 43.8158 259.94 43.3678 259.604C42.9198 259.268 42.5798 258.78 42.3478 258.14C42.1158 257.492 41.9998 256.7 41.9998 255.764C41.9998 254.812 42.1158 254.016 42.3478 253.376C42.5798 252.736 42.9198 252.252 43.3678 251.924C43.8158 251.596 44.3678 251.432 45.0238 251.432C45.6878 251.432 46.2438 251.596 46.6918 251.924C47.1398 252.244 47.4758 252.724 47.6998 253.364C47.9318 254.004 48.0478 254.8 48.0478 255.752C48.0478 256.688 47.9318 257.48 47.6998 258.128C47.4678 258.776 47.1278 259.268 46.6798 259.604C46.2318 259.94 45.6798 260.108 45.0238 260.108ZM45.0238 259.076C45.6398 259.076 46.0918 258.808 46.3798 258.272C46.6758 257.736 46.8238 256.896 46.8238 255.752C46.8238 254.608 46.6758 253.776 46.3798 253.256C46.0918 252.728 45.6398 252.464 45.0238 252.464C44.4158 252.464 43.9638 252.728 43.6678 253.256C43.3718 253.776 43.2238 254.608 43.2238 255.752C43.2238 256.896 43.3718 257.736 43.6678 258.272C43.9638 258.808 44.4158 259.076 45.0238 259.076ZM52.2191 260.108C51.5631 260.108 51.0111 259.94 50.5631 259.604C50.1151 259.268 49.7751 258.78 49.5431 258.14C49.3111 257.492 49.1951 256.7 49.1951 255.764C49.1951 254.812 49.3111 254.016 49.5431 253.376C49.7751 252.736 50.1151 252.252 50.5631 251.924C51.0111 251.596 51.5631 251.432 52.2191 251.432C52.8831 251.432 53.4391 251.596 53.8871 251.924C54.3351 252.244 54.6711 252.724 54.8951 253.364C55.1271 254.004 55.2431 254.8 55.2431 255.752C55.2431 256.688 55.1271 257.48 54.8951 258.128C54.6631 258.776 54.3231 259.268 53.8751 259.604C53.4271 259.94 52.8751 260.108 52.2191 260.108ZM52.2191 259.076C52.8351 259.076 53.2871 258.808 53.5751 258.272C53.8711 257.736 54.0191 256.896 54.0191 255.752C54.0191 254.608 53.8711 253.776 53.5751 253.256C53.2871 252.728 52.8351 252.464 52.2191 252.464C51.6111 252.464 51.1591 252.728 50.8631 253.256C50.5671 253.776 50.4191 254.608 50.4191 255.752C50.4191 256.896 50.5671 257.736 50.8631 258.272C51.1591 258.808 51.6111 259.076 52.2191 259.076Z" fill="white"/>
<path opacity="0.48" d="M104.887 260L106.339 257.312C106.531 256.96 106.747 256.704 106.987 256.544C107.227 256.384 107.507 256.304 107.827 256.304H108.175L108.115 256.472C107.523 256.472 107.011 256.376 106.579 256.184C106.155 255.992 105.827 255.712 105.595 255.344C105.371 254.976 105.259 254.536 105.259 254.024C105.259 253.232 105.507 252.62 106.003 252.188C106.499 251.756 107.203 251.54 108.115 251.54H111.619V260H110.383V256.508H109.147C108.915 256.508 108.711 256.532 108.535 256.58C108.367 256.62 108.215 256.7 108.079 256.82C107.951 256.932 107.831 257.092 107.719 257.3L106.243 260H104.887ZM108.319 255.572H110.383V252.536H108.319C107.711 252.536 107.251 252.664 106.939 252.92C106.627 253.176 106.471 253.552 106.471 254.048C106.471 254.552 106.627 254.932 106.939 255.188C107.251 255.444 107.711 255.572 108.319 255.572ZM113.595 260V251.54H114.843V255.188H119.583V251.54H120.819V260H119.583V256.232H114.843V260H113.595ZM122.795 260V251.54H126.323C127.203 251.54 127.883 251.736 128.363 252.128C128.851 252.512 129.095 253.052 129.095 253.748C129.095 254.26 128.943 254.692 128.639 255.044C128.335 255.396 127.923 255.632 127.403 255.752V255.572C127.795 255.628 128.131 255.748 128.411 255.932C128.699 256.108 128.919 256.344 129.071 256.64C129.223 256.928 129.299 257.268 129.299 257.66C129.299 258.156 129.187 258.58 128.963 258.932C128.739 259.284 128.415 259.552 127.991 259.736C127.567 259.912 127.059 260 126.467 260H122.795ZM123.995 259.04H126.323C126.563 259.04 126.775 259.024 126.959 258.992C127.151 258.952 127.315 258.896 127.451 258.824C127.595 258.744 127.715 258.648 127.811 258.536C127.907 258.416 127.975 258.28 128.015 258.128C128.063 257.976 128.087 257.804 128.087 257.612C128.087 257.42 128.063 257.248 128.015 257.096C127.975 256.944 127.907 256.812 127.811 256.7C127.715 256.588 127.595 256.496 127.451 256.424C127.315 256.344 127.151 256.288 126.959 256.256C126.775 256.216 126.563 256.196 126.323 256.196H123.995V259.04ZM123.995 255.236H126.131C126.707 255.236 127.143 255.12 127.439 254.888C127.735 254.656 127.883 254.316 127.883 253.868C127.883 253.42 127.735 253.08 127.439 252.848C127.143 252.616 126.707 252.5 126.131 252.5H123.995V255.236ZM134.547 260V258.956H136.467V252.596H137.091L134.967 253.916L134.463 252.992L136.827 251.54H137.703V258.956H139.503V260H134.547ZM144.706 260V258.284H140.902V257.36L144.922 251.54H145.942V257.24H147.178V258.284H145.942V260H144.706ZM144.706 257.24V253.028H145.03L141.91 257.576V257.24H144.706Z" fill="white"/>
<path opacity="0.48" d="M197.59 260V258.956H199.51V252.596H200.134L198.01 253.916L197.506 252.992L199.87 251.54H200.746V258.956H202.546V260H197.59ZM204.401 260V259.076L207.221 256.052C207.485 255.764 207.697 255.5 207.857 255.26C208.017 255.012 208.133 254.776 208.205 254.552C208.285 254.32 208.325 254.088 208.325 253.856C208.325 253.408 208.189 253.068 207.917 252.836C207.645 252.604 207.245 252.488 206.717 252.488C206.309 252.488 205.921 252.564 205.553 252.716C205.193 252.868 204.849 253.1 204.521 253.412L204.077 252.464C204.397 252.152 204.805 251.904 205.301 251.72C205.797 251.528 206.313 251.432 206.849 251.432C207.433 251.432 207.925 251.524 208.325 251.708C208.733 251.884 209.041 252.144 209.249 252.488C209.457 252.832 209.561 253.252 209.561 253.748C209.561 254.004 209.529 254.256 209.465 254.504C209.409 254.744 209.317 254.984 209.189 255.224C209.069 255.464 208.913 255.712 208.721 255.968C208.537 256.224 208.313 256.488 208.049 256.76L205.637 259.304V258.956H209.897V260H204.401ZM211.284 255.572V254.144H212.712V255.572H211.284ZM211.284 260V258.572H212.712V260H211.284ZM217.024 260.108C216.368 260.108 215.816 259.94 215.368 259.604C214.92 259.268 214.58 258.78 214.348 258.14C214.116 257.492 214 256.7 214 255.764C214 254.812 214.116 254.016 214.348 253.376C214.58 252.736 214.92 252.252 215.368 251.924C215.816 251.596 216.368 251.432 217.024 251.432C217.688 251.432 218.244 251.596 218.692 251.924C219.14 252.244 219.476 252.724 219.7 253.364C219.932 254.004 220.048 254.8 220.048 255.752C220.048 256.688 219.932 257.48 219.7 258.128C219.468 258.776 219.128 259.268 218.68 259.604C218.232 259.94 217.68 260.108 217.024 260.108ZM217.024 259.076C217.64 259.076 218.092 258.808 218.38 258.272C218.676 257.736 218.824 256.896 218.824 255.752C218.824 254.608 218.676 253.776 218.38 253.256C218.092 252.728 217.64 252.464 217.024 252.464C216.416 252.464 215.964 252.728 215.668 253.256C215.372 253.776 215.224 254.608 215.224 255.752C215.224 256.896 215.372 257.736 215.668 258.272C215.964 258.808 216.416 259.076 217.024 259.076ZM224.219 260.108C223.563 260.108 223.011 259.94 222.563 259.604C222.115 259.268 221.775 258.78 221.543 258.14C221.311 257.492 221.195 256.7 221.195 255.764C221.195 254.812 221.311 254.016 221.543 253.376C221.775 252.736 222.115 252.252 222.563 251.924C223.011 251.596 223.563 251.432 224.219 251.432C224.883 251.432 225.439 251.596 225.887 251.924C226.335 252.244 226.671 252.724 226.895 253.364C227.127 254.004 227.243 254.8 227.243 255.752C227.243 256.688 227.127 257.48 226.895 258.128C226.663 258.776 226.323 259.268 225.875 259.604C225.427 259.94 224.875 260.108 224.219 260.108ZM224.219 259.076C224.835 259.076 225.287 258.808 225.575 258.272C225.871 257.736 226.019 256.896 226.019 255.752C226.019 254.608 225.871 253.776 225.575 253.256C225.287 252.728 224.835 252.464 224.219 252.464C223.611 252.464 223.159 252.728 222.863 253.256C222.567 253.776 222.419 254.608 222.419 255.752C222.419 256.896 222.567 257.736 222.863 258.272C223.159 258.808 223.611 259.076 224.219 259.076Z" fill="white"/>
<path opacity="0.48" d="M276.887 260L278.339 257.312C278.531 256.96 278.747 256.704 278.987 256.544C279.227 256.384 279.507 256.304 279.827 256.304H280.175L280.115 256.472C279.523 256.472 279.011 256.376 278.579 256.184C278.155 255.992 277.827 255.712 277.595 255.344C277.371 254.976 277.259 254.536 277.259 254.024C277.259 253.232 277.507 252.62 278.003 252.188C278.499 251.756 279.203 251.54 280.115 251.54H283.619V260H282.383V256.508H281.147C280.915 256.508 280.711 256.532 280.535 256.58C280.367 256.62 280.215 256.7 280.079 256.82C279.951 256.932 279.831 257.092 279.719 257.3L278.243 260H276.887ZM280.319 255.572H282.383V252.536H280.319C279.711 252.536 279.251 252.664 278.939 252.92C278.627 253.176 278.471 253.552 278.471 254.048C278.471 254.552 278.627 254.932 278.939 255.188C279.251 255.444 279.711 255.572 280.319 255.572ZM285.595 260V251.54H286.843V255.188H291.583V251.54H292.819V260H291.583V256.232H286.843V260H285.595ZM294.795 260V251.54H298.323C299.203 251.54 299.883 251.736 300.363 252.128C300.851 252.512 301.095 253.052 301.095 253.748C301.095 254.26 300.943 254.692 300.639 255.044C300.335 255.396 299.923 255.632 299.403 255.752V255.572C299.795 255.628 300.131 255.748 300.411 255.932C300.699 256.108 300.919 256.344 301.071 256.64C301.223 256.928 301.299 257.268 301.299 257.66C301.299 258.156 301.187 258.58 300.963 258.932C300.739 259.284 300.415 259.552 299.991 259.736C299.567 259.912 299.059 260 298.467 260H294.795ZM295.995 259.04H298.323C298.563 259.04 298.775 259.024 298.959 258.992C299.151 258.952 299.315 258.896 299.451 258.824C299.595 258.744 299.715 258.648 299.811 258.536C299.907 258.416 299.975 258.28 300.015 258.128C300.063 257.976 300.087 257.804 300.087 257.612C300.087 257.42 300.063 257.248 300.015 257.096C299.975 256.944 299.907 256.812 299.811 256.7C299.715 256.588 299.595 256.496 299.451 256.424C299.315 256.344 299.151 256.288 298.959 256.256C298.775 256.216 298.563 256.196 298.323 256.196H295.995V259.04ZM295.995 255.236H298.131C298.707 255.236 299.143 255.12 299.439 254.888C299.735 254.656 299.883 254.316 299.883 253.868C299.883 253.42 299.735 253.08 299.439 252.848C299.143 252.616 298.707 252.5 298.131 252.5H295.995V255.236ZM306.547 260V258.956H308.467V252.596H309.091L306.967 253.916L306.463 252.992L308.827 251.54H309.703V258.956H311.503V260H306.547ZM316.07 260.108C315.702 260.108 315.342 260.068 314.99 259.988C314.646 259.908 314.322 259.796 314.018 259.652C313.714 259.508 313.45 259.332 313.226 259.124L313.646 258.164C314.03 258.468 314.418 258.692 314.81 258.836C315.202 258.98 315.614 259.052 316.046 259.052C316.598 259.052 317.03 258.904 317.342 258.608C317.654 258.312 317.81 257.916 317.81 257.42C317.81 256.916 317.662 256.504 317.366 256.184C317.07 255.864 316.658 255.704 316.13 255.704C315.754 255.704 315.418 255.78 315.122 255.932C314.834 256.084 314.574 256.316 314.342 256.628H313.478V251.54H318.518V252.584H314.69V255.632H314.354C314.57 255.328 314.854 255.092 315.206 254.924C315.566 254.756 315.962 254.672 316.394 254.672C316.93 254.672 317.394 254.784 317.786 255.008C318.178 255.232 318.482 255.548 318.698 255.956C318.914 256.356 319.022 256.824 319.022 257.36C319.022 257.904 318.902 258.384 318.662 258.8C318.422 259.208 318.082 259.528 317.642 259.76C317.202 259.992 316.678 260.108 316.07 260.108Z" fill="white"/>
<path d="M4.75049 152.489L1 150.442V175H320V24.7244L317.291 32.6184L315.416 46.0673L313.332 45.1902L312.291 48.1138L309.79 20.9237L308.957 24.7244L307.498 22.9702L304.373 26.1863L302.706 40.2199L301.456 36.7115C300.97 39.9275 299.997 46.3012 299.997 46.0673C299.997 45.8334 299.164 41.4868 298.747 39.3428L297.497 46.3596L295.83 39.0504L293.747 37.0039L292.705 18L289.579 27.3558H288.538L287.704 29.4023L287.079 25.8939L285.204 42.8512L284.579 38.1733L282.495 37.0039L281.245 41.9741L280.828 31.4489L279.786 37.0039L278.328 29.4023L277.078 33.4955L276.453 31.4489L275.828 32.6184L274.577 22.3855L273.536 44.3131L271.869 34.9573L270.202 32.6184L268.535 47.8215L265.826 56.5925L263.743 54.8383L263.534 62.1475L262.492 56.3001L260.826 64.194L259.575 82.0285L258.117 82.9055L256.658 84.075L255.825 95.4773L254.783 96.9392L252.283 95.4773L249.157 89.0453L248.116 97.8163L245.407 101.032L244.365 99.8628L243.948 102.787L241.24 97.8163L240.823 100.155L237.906 98.6934L235.406 104.833L235.197 109.219L233.947 108.049L232.489 112.435L231.447 109.219H228.946L228.53 110.68H227.696L226.238 114.189L223.737 111.265L222.487 105.125L221.029 105.418L219.57 112.435L218.528 110.096L217.903 113.312L216.862 111.265L213.319 113.312L211.652 120.913L209.152 118.867L208.319 124.422L206.443 122.083L204.985 127.638L203.943 129.392L202.693 129.684L201.026 125.591L199.984 126.468L199.151 121.206L198.109 122.96L195.609 118.867L194.775 120.036L193.942 118.867L192.9 111.265H190.4L189.15 117.99L188.941 116.528L188.316 120.329H187.483L186.441 124.422L184.982 120.913L183.732 125.006L182.065 118.282L180.398 120.329L180.19 125.006L179.357 121.498L178.106 122.083L177.69 120.329L176.648 131.439L175.398 130.269L174.356 134.07L173.106 123.545L172.064 122.083L171.022 116.528L170.189 118.282L167.897 111.265L167.272 112.142H166.022C165.744 113.799 165.188 117.171 165.188 117.405C165.188 117.639 162.966 112.045 161.854 109.219L159.562 112.142L158.521 115.651L157.062 113.312L156.02 121.498L152.478 127.345L151.853 125.006L150.603 127.93H149.353L148.728 124.422L147.477 126.761C146.505 124.227 144.519 118.984 144.352 118.282C144.185 117.58 142.338 121.498 141.435 123.545L139.143 119.159L138.101 122.083L136.434 113.312L134.559 114.774L133.517 119.744L132.267 110.388L128.933 111.265L127.475 106.88L126.641 109.219L124.975 104.833L124.349 106.88H123.516L121.849 102.494L120.182 106.88L117.474 107.464L116.432 105.71L116.015 108.634L114.556 108.049L112.89 105.71H111.639L111.223 106.88L109.973 106.295L107.264 100.74C107.056 103.371 106.639 108.985 106.639 110.388C106.639 111.791 105.25 108.244 104.555 106.295L103.513 109.803L102.888 108.049L102.055 115.943L101.221 113.312L99.9713 115.943L98.7211 116.528L98.096 111.265L96.6375 116.528L93.5121 110.388L92.2619 112.142V118.282L90.595 119.159L88.9281 109.219L87.678 113.312L85.8027 109.219L84.5526 109.803L82.8857 104.833L82.2606 108.634L81.4272 106.88L79.5519 109.219L78.7185 113.312L78.0934 108.049L76.2182 109.803L75.8014 106.88L74.7596 109.803L72.676 98.6934L71.2175 101.617L70.8008 98.1086L69.3423 104.833L67.467 103.079L66.2169 108.049L63.9249 98.1086L62.258 101.032L61.2162 98.6934L60.3828 101.617L58.2991 99.2781L55.7988 111.265L53.9236 104.248L52.8818 114.189L52.0483 106.295L51.2149 103.079L50.3815 108.634L49.548 102.494L47.8811 97.2315L47.256 100.155L46.0059 99.2781L45.3808 104.248L43.7139 104.833L41.4219 112.142L39.7551 103.664C39.0605 106.782 37.6715 113.253 37.6715 114.189V113.604L36.4213 116.235L34.7544 113.604V121.79C34.7544 122.024 33.5042 127.345 32.8792 129.977L31.629 129.1L30.1705 130.854L28.712 129.1L27.8785 131.439L26.8367 129.977L25.7949 131.439L24.9615 129.1L22.2528 135.532L21.4193 134.655L15.3769 147.519L13.5016 146.057L11.418 148.396L9.75114 147.519L9.12606 149.858L7.04246 148.396L4.75049 152.489Z" fill="url(#paint0_linear_1125_2)"/>
<path opacity="0.48" d="M1 149.961L4.75049 152L7.04246 147.922L9.12606 149.378L9.75114 147.048L11.418 147.922L13.5016 145.591L15.3769 147.048L21.4193 134.23L22.2528 135.104L24.9615 128.696L25.7949 131.026L26.8367 129.57L27.8785 131.026L28.712 128.696L30.1705 130.443L31.629 128.696L32.8792 129.57C33.5042 126.948 34.7544 121.646 34.7544 121.413C34.7544 121.18 34.7544 115.878 34.7544 113.257L36.4213 115.878L37.6715 113.257C37.6715 113.839 37.6715 114.771 37.6715 113.839C37.6715 112.907 39.0605 106.459 39.7551 103.352L41.4219 111.8L43.7139 104.517L45.3808 103.935L46.0059 98.9826L47.256 99.8565L47.8811 96.9435L49.548 102.187L50.3815 108.304L51.2149 102.77L52.0483 105.974L52.8818 113.839L53.9236 103.935L55.7988 110.926L58.2992 98.9826L60.3828 101.313L61.2162 98.4L62.258 100.73L63.9249 97.8174L66.2169 107.722L67.467 102.77L69.3423 104.517L70.8008 97.8174L71.2175 101.313L72.676 98.4L74.7596 109.47L75.8014 106.557L76.2182 109.47L78.0934 107.722L78.7185 112.965L79.5519 108.887L81.4272 106.557L82.2606 108.304L82.8857 104.517L84.5526 109.47L85.8027 108.887L87.678 112.965L88.9282 108.887L90.595 118.791L92.2619 117.917V111.8L93.5121 110.052L96.6375 116.17L98.096 110.926L98.7211 116.17L99.9713 115.587L101.221 112.965L102.055 115.587L102.888 107.722L103.513 109.47L104.555 105.974C105.25 107.916 106.639 111.45 106.639 110.052C106.639 108.654 107.056 103.061 107.264 100.439L109.973 105.974L111.223 106.557L111.639 105.391H112.89L114.557 107.722L116.015 108.304L116.432 105.391L117.474 107.139L120.182 106.557L121.849 102.187L123.516 106.557H124.349L124.975 104.517L126.641 108.887L127.475 106.557L128.933 110.926L132.267 110.052L133.517 119.374L134.559 114.422L136.434 112.965L138.101 121.704L139.143 118.791L141.435 123.161C142.338 121.122 144.185 117.218 144.352 117.917C144.519 118.617 146.505 123.841 147.477 126.365L148.728 124.035L149.353 127.53H150.603L151.853 124.617L152.478 126.948L156.02 121.122L157.062 112.965L158.521 115.296L159.562 111.8L161.854 108.887C162.966 111.703 165.188 117.277 165.188 117.043C165.188 116.81 165.744 113.451 166.022 111.8H167.272L167.897 110.926L170.189 117.917L171.022 116.17L172.064 121.704L173.106 123.161L174.356 133.648L175.398 129.861L176.648 131.026L177.69 119.957L178.106 121.704L179.357 121.122L180.19 124.617L180.398 119.957L182.065 117.917L183.732 124.617L184.982 120.539L186.441 124.035L187.483 119.957H188.316L188.941 116.17L189.15 117.626L190.4 110.926H192.9L193.942 118.5L194.775 119.665L195.609 118.5L198.109 122.578L199.151 120.83L199.984 126.074L201.026 125.2L202.693 129.278L203.943 128.987L204.985 127.239L206.444 121.704L208.319 124.035L209.152 118.5L211.653 120.539L213.319 112.965L216.862 110.926L217.903 112.965L218.528 109.761L219.57 112.091L221.029 105.1L222.487 104.809L223.737 110.926L226.238 113.839L227.696 110.343H228.53L228.946 108.887H231.447L232.489 112.091L233.947 107.722L235.197 108.887L235.406 104.517L237.906 98.4L240.823 99.8565L241.24 97.5261L243.948 102.478L244.365 99.5652L245.407 100.73L248.116 97.5261L249.157 88.787L252.283 95.1957L254.783 96.6522L255.825 95.1957L256.658 83.8348L258.117 82.6696L259.575 81.7957L260.826 64.0261L262.492 56.1609L263.534 61.987L263.743 54.7043L265.826 56.4522L268.535 47.713L270.202 32.5652L271.869 34.8957L273.536 44.2174L274.577 22.3696L275.828 32.5652L276.453 31.4L277.078 33.4391L278.328 29.3609L279.786 36.9348L280.828 31.4L281.245 41.887L282.495 36.9348L284.579 38.1L285.204 42.7609L287.079 25.8652L287.704 29.3609L288.538 27.3217H289.579L292.705 18L293.747 36.9348L295.83 38.9739L297.497 46.2565L298.747 39.2652C299.164 41.4014 299.997 45.7322 299.997 45.9652C299.997 46.1983 300.97 39.8478 301.456 36.6435L302.706 40.1391L304.373 26.1565L307.498 22.9522L308.957 24.7L309.79 20.913L312.291 48.0043L313.332 45.0913L315.416 45.9652L317.291 32.5652L320 24.7" stroke="#2EBD85" stroke-width="2" stroke-linecap="round"/>
<path opacity="0.16" d="M321 222L321 206H308V204H277V203H247V205H214V201H185V200H154V198H123V195H93V174H61V168H31.9756V177H6.10352e-05V222H321Z" fill="#A06AFF"/>
<defs>
<linearGradient id="paint0_linear_1125_2" x1="160.5" y1="18" x2="160.5" y2="175" gradientUnits="userSpaceOnUse">
<stop stop-color="#2EBD85" stop-opacity="0.32"/>
<stop offset="1" stop-color="#181A20" stop-opacity="0"/>
</linearGradient>
</defs>
</svg>
