<svg width="1253" height="317" viewBox="0 0 1253 317" fill="none" xmlns="http://www.w3.org/2000/svg">
<rect y="287" width="1203" height="2" fill="white" fill-opacity="0.04"/>
<rect y="217" width="1203" height="2" fill="white" fill-opacity="0.04"/>
<rect y="147" width="1203" height="2" fill="white" fill-opacity="0.16"/>
<rect y="77" width="1203" height="2" fill="white" fill-opacity="0.04"/>
<rect y="7" width="1203" height="2" fill="white" fill-opacity="0.04"/>
<path opacity="0.48" d="M1215.78 289.288V288.304H1219.23V289.288H1215.78ZM1223.07 292.108C1222.78 292.108 1222.49 292.072 1222.18 292C1221.89 291.92 1221.61 291.804 1221.34 291.652C1221.08 291.5 1220.85 291.324 1220.65 291.124L1221.08 290.176C1221.37 290.464 1221.69 290.684 1222.04 290.836C1222.38 290.98 1222.73 291.052 1223.08 291.052C1223.46 291.052 1223.79 290.984 1224.08 290.848C1224.37 290.712 1224.61 290.508 1224.8 290.236C1225 289.964 1225.15 289.628 1225.24 289.228C1225.35 288.82 1225.4 288.352 1225.4 287.824V286.804H1225.52C1225.46 287.228 1225.33 287.6 1225.11 287.92C1224.9 288.24 1224.63 288.484 1224.29 288.652C1223.97 288.82 1223.59 288.904 1223.18 288.904C1222.69 288.904 1222.25 288.788 1221.87 288.556C1221.49 288.324 1221.19 288.004 1220.97 287.596C1220.75 287.188 1220.65 286.728 1220.65 286.216C1220.65 285.672 1220.76 285.192 1220.99 284.776C1221.23 284.352 1221.56 284.024 1221.97 283.792C1222.37 283.552 1222.85 283.432 1223.38 283.432C1224.07 283.432 1224.65 283.596 1225.12 283.924C1225.59 284.244 1225.95 284.716 1226.2 285.34C1226.46 285.964 1226.59 286.712 1226.59 287.584C1226.59 288.552 1226.45 289.372 1226.17 290.044C1225.89 290.716 1225.49 291.228 1224.97 291.58C1224.45 291.932 1223.81 292.108 1223.07 292.108ZM1223.47 287.884C1223.79 287.884 1224.07 287.812 1224.32 287.668C1224.57 287.524 1224.76 287.324 1224.89 287.068C1225.04 286.804 1225.11 286.5 1225.11 286.156C1225.11 285.82 1225.04 285.524 1224.89 285.268C1224.76 285.004 1224.57 284.8 1224.32 284.656C1224.07 284.504 1223.79 284.428 1223.47 284.428C1223.14 284.428 1222.85 284.504 1222.6 284.656C1222.36 284.8 1222.17 285.004 1222.03 285.268C1221.89 285.524 1221.82 285.82 1221.82 286.156C1221.82 286.5 1221.89 286.804 1222.03 287.068C1222.17 287.324 1222.36 287.524 1222.6 287.668C1222.85 287.812 1223.14 287.884 1223.47 287.884ZM1228.68 292V290.956H1230.6V284.596H1231.23L1229.1 285.916L1228.6 284.992L1230.96 283.54H1231.84V290.956H1233.64V292H1228.68ZM1235.46 292V283.54H1238.98C1239.86 283.54 1240.54 283.736 1241.02 284.128C1241.51 284.512 1241.76 285.052 1241.76 285.748C1241.76 286.26 1241.6 286.692 1241.3 287.044C1241 287.396 1240.58 287.632 1240.06 287.752V287.572C1240.46 287.628 1240.79 287.748 1241.07 287.932C1241.36 288.108 1241.58 288.344 1241.73 288.64C1241.88 288.928 1241.96 289.268 1241.96 289.66C1241.96 290.156 1241.85 290.58 1241.62 290.932C1241.4 291.284 1241.08 291.552 1240.65 291.736C1240.23 291.912 1239.72 292 1239.13 292H1235.46ZM1236.66 291.04H1238.98C1239.22 291.04 1239.44 291.024 1239.62 290.992C1239.81 290.952 1239.98 290.896 1240.11 290.824C1240.26 290.744 1240.38 290.648 1240.47 290.536C1240.57 290.416 1240.64 290.28 1240.68 290.128C1240.72 289.976 1240.75 289.804 1240.75 289.612C1240.75 289.42 1240.72 289.248 1240.68 289.096C1240.64 288.944 1240.57 288.812 1240.47 288.7C1240.38 288.588 1240.26 288.496 1240.11 288.424C1239.98 288.344 1239.81 288.288 1239.62 288.256C1239.44 288.216 1239.22 288.196 1238.98 288.196H1236.66V291.04ZM1236.66 287.236H1238.79C1239.37 287.236 1239.8 287.12 1240.1 286.888C1240.4 286.656 1240.54 286.316 1240.54 285.868C1240.54 285.42 1240.4 285.08 1240.1 284.848C1239.8 284.616 1239.37 284.5 1238.79 284.5H1236.66V287.236ZM1247.09 292V290.272H1246.02V289.396H1247.09V288.424H1246.02V287.548H1247.09V283.54H1249.9C1250.5 283.54 1251.02 283.644 1251.44 283.852C1251.87 284.052 1252.19 284.336 1252.4 284.704C1252.62 285.072 1252.73 285.512 1252.73 286.024C1252.73 286.512 1252.62 286.936 1252.39 287.296C1252.17 287.648 1251.85 287.924 1251.44 288.124C1251.04 288.324 1250.55 288.424 1249.98 288.424H1248.35V289.396H1250.36V290.272H1248.35V292H1247.09ZM1248.32 287.548H1249.78C1250.34 287.548 1250.78 287.432 1251.07 287.2C1251.38 286.96 1251.53 286.592 1251.53 286.096C1251.53 285.592 1251.38 285.216 1251.08 284.968C1250.79 284.72 1250.35 284.596 1249.76 284.596H1248.32V287.548Z" fill="white"/>
<path opacity="0.48" d="M1239.06 152.108C1238.4 152.108 1237.85 151.94 1237.4 151.604C1236.95 151.268 1236.61 150.78 1236.38 150.14C1236.15 149.492 1236.03 148.7 1236.03 147.764C1236.03 146.812 1236.15 146.016 1236.38 145.376C1236.61 144.736 1236.95 144.252 1237.4 143.924C1237.85 143.596 1238.4 143.432 1239.06 143.432C1239.72 143.432 1240.28 143.596 1240.73 143.924C1241.17 144.244 1241.51 144.724 1241.73 145.364C1241.97 146.004 1242.08 146.8 1242.08 147.752C1242.08 148.688 1241.97 149.48 1241.73 150.128C1241.5 150.776 1241.16 151.268 1240.71 151.604C1240.27 151.94 1239.71 152.108 1239.06 152.108ZM1239.06 151.076C1239.67 151.076 1240.13 150.808 1240.41 150.272C1240.71 149.736 1240.86 148.896 1240.86 147.752C1240.86 146.608 1240.71 145.776 1240.41 145.256C1240.13 144.728 1239.67 144.464 1239.06 144.464C1238.45 144.464 1238 144.728 1237.7 145.256C1237.41 145.776 1237.26 146.608 1237.26 147.752C1237.26 148.896 1237.41 149.736 1237.7 150.272C1238 150.808 1238.45 151.076 1239.06 151.076ZM1247.09 152V150.272H1246.02V149.396H1247.09V148.424H1246.02V147.548H1247.09V143.54H1249.9C1250.5 143.54 1251.02 143.644 1251.44 143.852C1251.87 144.052 1252.19 144.336 1252.4 144.704C1252.62 145.072 1252.73 145.512 1252.73 146.024C1252.73 146.512 1252.62 146.936 1252.39 147.296C1252.17 147.648 1251.85 147.924 1251.44 148.124C1251.04 148.324 1250.55 148.424 1249.98 148.424H1248.35V149.396H1250.36V150.272H1248.35V152H1247.09ZM1248.32 147.548H1249.78C1250.34 147.548 1250.78 147.432 1251.07 147.2C1251.38 146.96 1251.53 146.592 1251.53 146.096C1251.53 145.592 1251.38 145.216 1251.08 144.968C1250.79 144.72 1250.35 144.596 1249.76 144.596H1248.32V147.548Z" fill="white"/>
<path opacity="0.48" d="M1223.07 12.108C1222.78 12.108 1222.49 12.072 1222.18 12C1221.89 11.92 1221.61 11.804 1221.34 11.652C1221.08 11.5 1220.85 11.324 1220.65 11.124L1221.08 10.176C1221.37 10.464 1221.69 10.684 1222.04 10.836C1222.38 10.98 1222.73 11.052 1223.08 11.052C1223.46 11.052 1223.79 10.984 1224.08 10.848C1224.37 10.712 1224.61 10.508 1224.8 10.236C1225 9.964 1225.15 9.628 1225.24 9.228C1225.35 8.82 1225.4 8.352 1225.4 7.824V6.804H1225.52C1225.46 7.228 1225.33 7.6 1225.11 7.92C1224.9 8.24 1224.63 8.484 1224.29 8.652C1223.97 8.82 1223.59 8.904 1223.18 8.904C1222.69 8.904 1222.25 8.788 1221.87 8.556C1221.49 8.324 1221.19 8.004 1220.97 7.596C1220.75 7.188 1220.65 6.728 1220.65 6.216C1220.65 5.672 1220.76 5.192 1220.99 4.776C1221.23 4.352 1221.56 4.024 1221.97 3.792C1222.37 3.552 1222.85 3.432 1223.38 3.432C1224.07 3.432 1224.65 3.596 1225.12 3.924C1225.59 4.244 1225.95 4.716 1226.2 5.34C1226.46 5.964 1226.59 6.712 1226.59 7.584C1226.59 8.552 1226.45 9.372 1226.17 10.044C1225.89 10.716 1225.49 11.228 1224.97 11.58C1224.45 11.932 1223.81 12.108 1223.07 12.108ZM1223.47 7.884C1223.79 7.884 1224.07 7.812 1224.32 7.668C1224.57 7.524 1224.76 7.324 1224.89 7.068C1225.04 6.804 1225.11 6.5 1225.11 6.156C1225.11 5.82 1225.04 5.524 1224.89 5.268C1224.76 5.004 1224.57 4.8 1224.32 4.656C1224.07 4.504 1223.79 4.428 1223.47 4.428C1223.14 4.428 1222.85 4.504 1222.6 4.656C1222.36 4.8 1222.17 5.004 1222.03 5.268C1221.89 5.524 1221.82 5.82 1221.82 6.156C1221.82 6.5 1221.89 6.804 1222.03 7.068C1222.17 7.324 1222.36 7.524 1222.6 7.668C1222.85 7.812 1223.14 7.884 1223.47 7.884ZM1228.68 12V10.956H1230.6V4.596H1231.23L1229.1 5.916L1228.6 4.992L1230.96 3.54H1231.84V10.956H1233.64V12H1228.68ZM1235.46 12V3.54H1238.98C1239.86 3.54 1240.54 3.736 1241.02 4.128C1241.51 4.512 1241.76 5.052 1241.76 5.748C1241.76 6.26 1241.6 6.692 1241.3 7.044C1241 7.396 1240.58 7.632 1240.06 7.752V7.572C1240.46 7.628 1240.79 7.748 1241.07 7.932C1241.36 8.108 1241.58 8.344 1241.73 8.64C1241.88 8.928 1241.96 9.268 1241.96 9.66C1241.96 10.156 1241.85 10.58 1241.62 10.932C1241.4 11.284 1241.08 11.552 1240.65 11.736C1240.23 11.912 1239.72 12 1239.13 12H1235.46ZM1236.66 11.04H1238.98C1239.22 11.04 1239.44 11.024 1239.62 10.992C1239.81 10.952 1239.98 10.896 1240.11 10.824C1240.26 10.744 1240.38 10.648 1240.47 10.536C1240.57 10.416 1240.64 10.28 1240.68 10.128C1240.72 9.976 1240.75 9.804 1240.75 9.612C1240.75 9.42 1240.72 9.248 1240.68 9.096C1240.64 8.944 1240.57 8.812 1240.47 8.7C1240.38 8.588 1240.26 8.496 1240.11 8.424C1239.98 8.344 1239.81 8.288 1239.62 8.256C1239.44 8.216 1239.22 8.196 1238.98 8.196H1236.66V11.04ZM1236.66 7.236H1238.79C1239.37 7.236 1239.8 7.12 1240.1 6.888C1240.4 6.656 1240.54 6.316 1240.54 5.868C1240.54 5.42 1240.4 5.08 1240.1 4.848C1239.8 4.616 1239.37 4.5 1238.79 4.5H1236.66V7.236ZM1247.09 12V10.272H1246.02V9.396H1247.09V8.424H1246.02V7.548H1247.09V3.54H1249.9C1250.5 3.54 1251.02 3.644 1251.44 3.852C1251.87 4.052 1252.19 4.336 1252.4 4.704C1252.62 5.072 1252.73 5.512 1252.73 6.024C1252.73 6.512 1252.62 6.936 1252.39 7.296C1252.17 7.648 1251.85 7.924 1251.44 8.124C1251.04 8.324 1250.55 8.424 1249.98 8.424H1248.35V9.396H1250.36V10.272H1248.35V12H1247.09ZM1248.32 7.548H1249.78C1250.34 7.548 1250.78 7.432 1251.07 7.2C1251.38 6.96 1251.53 6.592 1251.53 6.096C1251.53 5.592 1251.38 5.216 1251.08 4.968C1250.79 4.72 1250.35 4.596 1249.76 4.596H1248.32V7.548Z" fill="white"/>
<path d="M42 25C42 22.7909 43.7909 21 46 21H78C80.2091 21 82 22.7909 82 25V147H42V25Z" fill="url(#paint0_linear_1100_33970)"/>
<path d="M42 133C42 130.791 43.7909 129 46 129H78C80.2091 129 82 130.791 82 133V145H42V133Z" fill="url(#paint1_linear_1100_33970)"/>
<path d="M102 95C102 92.7909 103.791 91 106 91H138C140.209 91 142 92.7909 142 95V147H102V95Z" fill="url(#paint2_linear_1100_33970)"/>
<path d="M102 138C102 135.791 103.791 134 106 134H138C140.209 134 142 135.791 142 138V147H102V138Z" fill="url(#paint3_linear_1100_33970)"/>
<path d="M162 119C162 116.791 163.791 115 166 115H198C200.209 115 202 116.791 202 119V147H162V119Z" fill="url(#paint4_linear_1100_33970)"/>
<path d="M162 149C162 151.209 163.791 153 166 153H198C200.209 153 202 151.209 202 149V149H162V149Z" fill="url(#paint5_linear_1100_33970)"/>
<path d="M222 75C222 72.7909 223.791 71 226 71H258C260.209 71 262 72.7909 262 75V147H222V75Z" fill="url(#paint6_linear_1100_33970)"/>
<path d="M222 147C222 145.895 222.895 145 224 145H260C261.105 145 262 145.895 262 147V147H222V147Z" fill="url(#paint7_linear_1100_33970)"/>
<path d="M282 225C282 227.209 283.791 229 286 229H318C320.209 229 322 227.209 322 225V149H282V225Z" fill="url(#paint8_linear_1100_33970)"/>
<path d="M282 166C282 168.209 283.791 170 286 170H318C320.209 170 322 168.209 322 166V149H282V166Z" fill="url(#paint9_linear_1100_33970)"/>
<path d="M342 145C342 142.791 343.791 141 346 141H378C380.209 141 382 142.791 382 145V147H342V145Z" fill="url(#paint10_linear_1100_33970)"/>
<path d="M402 133C402 130.791 403.791 129 406 129H438C440.209 129 442 130.791 442 133V147H402V133Z" fill="url(#paint11_linear_1100_33970)"/>
<path d="M402 149C402 150.657 403.343 152 405 152H439C440.657 152 442 150.657 442 149V149H402V149Z" fill="url(#paint12_linear_1100_33970)"/>
<path d="M462 62C462 59.7909 463.791 58 466 58H498C500.209 58 502 59.7909 502 62V147H462V62Z" fill="url(#paint13_linear_1100_33970)"/>
<path d="M462 130C462 127.791 463.791 126 466 126H498C500.209 126 502 127.791 502 130V147H462V130Z" fill="url(#paint14_linear_1100_33970)"/>
<path d="M522 97C522 94.7909 523.791 93 526 93H558C560.209 93 562 94.7909 562 97V147H522V97Z" fill="url(#paint15_linear_1100_33970)"/>
<path d="M522 146C522 143.791 523.791 142 526 142H558C560.209 142 562 143.791 562 146V147H522V146Z" fill="url(#paint16_linear_1100_33970)"/>
<path d="M582 209C582 211.209 583.791 213 586 213H618C620.209 213 622 211.209 622 209V149H582V209Z" fill="url(#paint17_linear_1100_33970)"/>
<path d="M582 138C582 135.791 583.791 134 586 134H618C620.209 134 622 135.791 622 138V147H582V138Z" fill="url(#paint18_linear_1100_33970)"/>
<path d="M642 66C642 63.7909 643.791 62 646 62H678C680.209 62 682 63.7909 682 66V147H642V66Z" fill="url(#paint19_linear_1100_33970)"/>
<path d="M642 106C642 103.791 643.791 102 646 102H678C680.209 102 682 103.791 682 106V147H642V106Z" fill="url(#paint20_linear_1100_33970)"/>
<path d="M702 129C702 126.791 703.791 125 706 125H738C740.209 125 742 126.791 742 129V147H702V129Z" fill="url(#paint21_linear_1100_33970)"/>
<path d="M702 145C702 142.791 703.791 141 706 141H738C740.209 141 742 142.791 742 145V147H702V145Z" fill="url(#paint22_linear_1100_33970)"/>
<path d="M762 173C762 175.209 763.791 177 766 177H798C800.209 177 802 175.209 802 173V149H762V173Z" fill="url(#paint23_linear_1100_33970)"/>
<path d="M762 143C762 140.791 763.791 139 766 139H798C800.209 139 802 140.791 802 143V147H762V143Z" fill="url(#paint24_linear_1100_33970)"/>
<path d="M822 116C822 113.791 823.791 112 826 112H858C860.209 112 862 113.791 862 116V147H822V116Z" fill="url(#paint25_linear_1100_33970)"/>
<path d="M882 185C882 187.209 883.791 189 886 189H918C920.209 189 922 187.209 922 185V149H882V185Z" fill="url(#paint26_linear_1100_33970)"/>
<path d="M882 150C882 152.209 883.791 154 886 154H918C920.209 154 922 152.209 922 150V149H882V150Z" fill="url(#paint27_linear_1100_33970)"/>
<path d="M942 159C942 161.209 943.791 163 946 163H978C980.209 163 982 161.209 982 159V149H942V159Z" fill="url(#paint28_linear_1100_33970)"/>
<path d="M942 147C942 144.791 943.791 143 946 143H978C980.209 143 982 144.791 982 147V147H942V147Z" fill="url(#paint29_linear_1100_33970)"/>
<path d="M1002 192C1002 194.209 1003.79 196 1006 196H1038C1040.21 196 1042 194.209 1042 192V149H1002V192Z" fill="url(#paint30_linear_1100_33970)"/>
<path d="M1002 155C1002 157.209 1003.79 159 1006 159H1038C1040.21 159 1042 157.209 1042 155V149H1002V155Z" fill="url(#paint31_linear_1100_33970)"/>
<path d="M1062 172C1062 174.209 1063.79 176 1066 176H1098C1100.21 176 1102 174.209 1102 172V149H1062V172Z" fill="url(#paint32_linear_1100_33970)"/>
<path d="M1062 145C1062 142.791 1063.79 141 1066 141H1098C1100.21 141 1102 142.791 1102 145V147H1062V145Z" fill="url(#paint33_linear_1100_33970)"/>
<path d="M1122 124C1122 121.791 1123.79 120 1126 120H1158C1160.21 120 1162 121.791 1162 124V147H1122V124Z" fill="url(#paint34_linear_1100_33970)"/>
<path d="M1122 144C1122 141.791 1123.79 140 1126 140H1158C1160.21 140 1162 141.791 1162 144V147H1122V144Z" fill="url(#paint35_linear_1100_33970)"/>
<rect x="48.5" y="289" width="1" height="8" fill="white" fill-opacity="0.04"/>
<path opacity="0.48" d="M28.2393 313V311.86L30.9753 308.944C31.2233 308.68 31.4193 308.436 31.5633 308.212C31.7153 307.988 31.8273 307.772 31.8993 307.564C31.9713 307.356 32.0073 307.148 32.0073 306.94C32.0073 306.54 31.8793 306.236 31.6233 306.028C31.3753 305.82 31.0113 305.716 30.5313 305.716C30.1553 305.716 29.7873 305.788 29.4273 305.932C29.0753 306.068 28.7353 306.284 28.4073 306.58L27.8913 305.428C28.2273 305.124 28.6473 304.88 29.1513 304.696C29.6553 304.512 30.1793 304.42 30.7233 304.42C31.3313 304.42 31.8433 304.512 32.2593 304.696C32.6753 304.88 32.9913 305.148 33.2073 305.5C33.4233 305.852 33.5313 306.28 33.5313 306.784C33.5313 307.04 33.4993 307.292 33.4353 307.54C33.3793 307.78 33.2873 308.02 33.1593 308.26C33.0393 308.5 32.8833 308.748 32.6913 309.004C32.5073 309.252 32.2833 309.512 32.0193 309.784L29.7633 312.136V311.728H33.8553V313H28.2393ZM38.0746 313.12C37.4106 313.12 36.8466 312.952 36.3826 312.616C35.9266 312.272 35.5786 311.776 35.3386 311.128C35.1066 310.48 34.9906 309.688 34.9906 308.752C34.9906 307.808 35.1066 307.016 35.3386 306.376C35.5786 305.728 35.9266 305.24 36.3826 304.912C36.8466 304.584 37.4106 304.42 38.0746 304.42C38.7466 304.42 39.3106 304.584 39.7666 304.912C40.2306 305.24 40.5786 305.724 40.8106 306.364C41.0426 307.004 41.1586 307.796 41.1586 308.74C41.1586 309.676 41.0386 310.472 40.7986 311.128C40.5666 311.776 40.2226 312.272 39.7666 312.616C39.3106 312.952 38.7466 313.12 38.0746 313.12ZM38.0746 311.86C38.6186 311.86 39.0186 311.612 39.2746 311.116C39.5386 310.612 39.6706 309.82 39.6706 308.74C39.6706 307.668 39.5386 306.892 39.2746 306.412C39.0186 305.924 38.6186 305.68 38.0746 305.68C37.5386 305.68 37.1386 305.924 36.8746 306.412C36.6106 306.892 36.4786 307.672 36.4786 308.752C36.4786 309.824 36.6106 310.612 36.8746 311.116C37.1386 311.612 37.5386 311.86 38.0746 311.86ZM45.2643 313L46.6803 310.396C46.8643 310.052 47.0803 309.8 47.3283 309.64C47.5763 309.48 47.8643 309.4 48.1923 309.4H48.5883L48.5643 309.58C47.9563 309.58 47.4323 309.48 46.9923 309.28C46.5603 309.08 46.2283 308.792 45.9963 308.416C45.7723 308.04 45.6603 307.592 45.6603 307.072C45.6603 306.272 45.9123 305.652 46.4163 305.212C46.9203 304.764 47.6363 304.54 48.5643 304.54H52.2483V313H50.7123V309.616H49.6803C49.4883 309.616 49.3163 309.636 49.1643 309.676C49.0123 309.716 48.8763 309.788 48.7563 309.892C48.6363 309.988 48.5283 310.124 48.4323 310.3L46.9563 313H45.2643ZM48.8283 308.476H50.7123V305.752H48.8283C48.2763 305.752 47.8563 305.868 47.5683 306.1C47.2883 306.324 47.1483 306.66 47.1483 307.108C47.1483 307.564 47.2883 307.908 47.5683 308.14C47.8563 308.364 48.2763 308.476 48.8283 308.476ZM54.1017 313V304.54H55.6377V308.068H59.9937V304.54H61.5297V313H59.9937V309.352H55.6377V313H54.1017ZM63.383 313V304.54H67.079C67.967 304.54 68.655 304.736 69.143 305.128C69.631 305.512 69.875 306.048 69.875 306.736C69.875 307.248 69.727 307.68 69.431 308.032C69.135 308.384 68.731 308.62 68.219 308.74V308.56C68.611 308.616 68.947 308.736 69.227 308.92C69.507 309.104 69.719 309.34 69.863 309.628C70.015 309.916 70.091 310.252 70.091 310.636C70.091 311.132 69.975 311.56 69.743 311.92C69.519 312.272 69.191 312.54 68.759 312.724C68.327 312.908 67.811 313 67.211 313H63.383ZM64.859 311.836H67.019C67.235 311.836 67.427 311.82 67.595 311.788C67.771 311.756 67.919 311.708 68.039 311.644C68.167 311.572 68.271 311.484 68.351 311.38C68.439 311.276 68.503 311.156 68.543 311.02C68.583 310.884 68.603 310.732 68.603 310.564C68.603 310.388 68.583 310.232 68.543 310.096C68.503 309.96 68.439 309.844 68.351 309.748C68.271 309.644 68.167 309.56 68.039 309.496C67.919 309.424 67.771 309.372 67.595 309.34C67.427 309.308 67.235 309.292 67.019 309.292H64.859V311.836ZM64.859 308.128H66.815C67.343 308.128 67.735 308.028 67.991 307.828C68.255 307.62 68.387 307.316 68.387 306.916C68.387 306.516 68.255 306.216 67.991 306.016C67.735 305.808 67.343 305.704 66.815 305.704H64.859V308.128Z" fill="white"/>
<rect x="188.5" y="289" width="1" height="8" fill="white" fill-opacity="0.04"/>
<path opacity="0.48" d="M168.239 313V311.86L170.975 308.944C171.223 308.68 171.419 308.436 171.563 308.212C171.715 307.988 171.827 307.772 171.899 307.564C171.971 307.356 172.007 307.148 172.007 306.94C172.007 306.54 171.879 306.236 171.623 306.028C171.375 305.82 171.011 305.716 170.531 305.716C170.155 305.716 169.787 305.788 169.427 305.932C169.075 306.068 168.735 306.284 168.407 306.58L167.891 305.428C168.227 305.124 168.647 304.88 169.151 304.696C169.655 304.512 170.179 304.42 170.723 304.42C171.331 304.42 171.843 304.512 172.259 304.696C172.675 304.88 172.991 305.148 173.207 305.5C173.423 305.852 173.531 306.28 173.531 306.784C173.531 307.04 173.499 307.292 173.435 307.54C173.379 307.78 173.287 308.02 173.159 308.26C173.039 308.5 172.883 308.748 172.691 309.004C172.507 309.252 172.283 309.512 172.019 309.784L169.763 312.136V311.728H173.855V313H168.239ZM175.435 313V311.86L178.171 308.944C178.419 308.68 178.615 308.436 178.759 308.212C178.911 307.988 179.023 307.772 179.095 307.564C179.167 307.356 179.203 307.148 179.203 306.94C179.203 306.54 179.075 306.236 178.819 306.028C178.571 305.82 178.207 305.716 177.727 305.716C177.351 305.716 176.983 305.788 176.623 305.932C176.271 306.068 175.931 306.284 175.603 306.58L175.087 305.428C175.423 305.124 175.843 304.88 176.347 304.696C176.851 304.512 177.375 304.42 177.919 304.42C178.527 304.42 179.039 304.512 179.455 304.696C179.871 304.88 180.187 305.148 180.403 305.5C180.619 305.852 180.727 306.28 180.727 306.784C180.727 307.04 180.695 307.292 180.631 307.54C180.575 307.78 180.483 308.02 180.355 308.26C180.235 308.5 180.079 308.748 179.887 309.004C179.703 309.252 179.479 309.512 179.215 309.784L176.959 312.136V311.728H181.051V313H175.435ZM185.264 313L186.68 310.396C186.864 310.052 187.08 309.8 187.328 309.64C187.576 309.48 187.864 309.4 188.192 309.4H188.588L188.564 309.58C187.956 309.58 187.432 309.48 186.992 309.28C186.56 309.08 186.228 308.792 185.996 308.416C185.772 308.04 185.66 307.592 185.66 307.072C185.66 306.272 185.912 305.652 186.416 305.212C186.92 304.764 187.636 304.54 188.564 304.54H192.248V313H190.712V309.616H189.68C189.488 309.616 189.316 309.636 189.164 309.676C189.012 309.716 188.876 309.788 188.756 309.892C188.636 309.988 188.528 310.124 188.432 310.3L186.956 313H185.264ZM188.828 308.476H190.712V305.752H188.828C188.276 305.752 187.856 305.868 187.568 306.1C187.288 306.324 187.148 306.66 187.148 307.108C187.148 307.564 187.288 307.908 187.568 308.14C187.856 308.364 188.276 308.476 188.828 308.476ZM194.102 313V304.54H195.638V308.068H199.994V304.54H201.53V313H199.994V309.352H195.638V313H194.102ZM203.383 313V304.54H207.079C207.967 304.54 208.655 304.736 209.143 305.128C209.631 305.512 209.875 306.048 209.875 306.736C209.875 307.248 209.727 307.68 209.431 308.032C209.135 308.384 208.731 308.62 208.219 308.74V308.56C208.611 308.616 208.947 308.736 209.227 308.92C209.507 309.104 209.719 309.34 209.863 309.628C210.015 309.916 210.091 310.252 210.091 310.636C210.091 311.132 209.975 311.56 209.743 311.92C209.519 312.272 209.191 312.54 208.759 312.724C208.327 312.908 207.811 313 207.211 313H203.383ZM204.859 311.836H207.019C207.235 311.836 207.427 311.82 207.595 311.788C207.771 311.756 207.919 311.708 208.039 311.644C208.167 311.572 208.271 311.484 208.351 311.38C208.439 311.276 208.503 311.156 208.543 311.02C208.583 310.884 208.603 310.732 208.603 310.564C208.603 310.388 208.583 310.232 208.543 310.096C208.503 309.96 208.439 309.844 208.351 309.748C208.271 309.644 208.167 309.56 208.039 309.496C207.919 309.424 207.771 309.372 207.595 309.34C207.427 309.308 207.235 309.292 207.019 309.292H204.859V311.836ZM204.859 308.128H206.815C207.343 308.128 207.735 308.028 207.991 307.828C208.255 307.62 208.387 307.316 208.387 306.916C208.387 306.516 208.255 306.216 207.991 306.016C207.735 305.808 207.343 305.704 206.815 305.704H204.859V308.128Z" fill="white"/>
<rect x="328.5" y="289" width="1" height="8" fill="white" fill-opacity="0.04"/>
<path opacity="0.48" d="M308.239 313V311.86L310.975 308.944C311.223 308.68 311.419 308.436 311.563 308.212C311.715 307.988 311.827 307.772 311.899 307.564C311.971 307.356 312.007 307.148 312.007 306.94C312.007 306.54 311.879 306.236 311.623 306.028C311.375 305.82 311.011 305.716 310.531 305.716C310.155 305.716 309.787 305.788 309.427 305.932C309.075 306.068 308.735 306.284 308.407 306.58L307.891 305.428C308.227 305.124 308.647 304.88 309.151 304.696C309.655 304.512 310.179 304.42 310.723 304.42C311.331 304.42 311.843 304.512 312.259 304.696C312.675 304.88 312.991 305.148 313.207 305.5C313.423 305.852 313.531 306.28 313.531 306.784C313.531 307.04 313.499 307.292 313.435 307.54C313.379 307.78 313.287 308.02 313.159 308.26C313.039 308.5 312.883 308.748 312.691 309.004C312.507 309.252 312.283 309.512 312.019 309.784L309.763 312.136V311.728H313.855V313H308.239ZM318.387 313.12C317.691 313.12 317.095 312.956 316.599 312.628C316.111 312.292 315.739 311.812 315.483 311.188C315.227 310.564 315.099 309.808 315.099 308.92C315.099 307.96 315.243 307.148 315.531 306.484C315.819 305.812 316.235 305.3 316.779 304.948C317.323 304.596 317.975 304.42 318.735 304.42C319.031 304.42 319.327 304.46 319.623 304.54C319.927 304.612 320.211 304.72 320.475 304.864C320.747 305 320.987 305.168 321.195 305.368L320.691 306.52C320.395 306.248 320.079 306.048 319.743 305.92C319.407 305.784 319.063 305.716 318.711 305.716C318.367 305.716 318.059 305.78 317.787 305.908C317.523 306.028 317.299 306.212 317.115 306.46C316.931 306.7 316.791 307.004 316.695 307.372C316.607 307.732 316.563 308.152 316.563 308.632V309.532H316.419C316.483 309.124 316.615 308.776 316.815 308.488C317.023 308.192 317.287 307.968 317.607 307.816C317.927 307.656 318.283 307.576 318.675 307.576C319.163 307.576 319.595 307.692 319.971 307.924C320.347 308.156 320.643 308.476 320.859 308.884C321.075 309.292 321.183 309.76 321.183 310.288C321.183 310.832 321.063 311.32 320.823 311.752C320.591 312.176 320.263 312.512 319.839 312.76C319.423 313 318.939 313.12 318.387 313.12ZM318.303 311.896C318.591 311.896 318.843 311.832 319.059 311.704C319.283 311.576 319.455 311.396 319.575 311.164C319.695 310.924 319.755 310.652 319.755 310.348C319.755 310.036 319.695 309.764 319.575 309.532C319.455 309.3 319.283 309.12 319.059 308.992C318.843 308.856 318.591 308.788 318.303 308.788C318.015 308.788 317.763 308.856 317.547 308.992C317.331 309.12 317.159 309.3 317.031 309.532C316.911 309.764 316.851 310.036 316.851 310.348C316.851 310.652 316.911 310.924 317.031 311.164C317.159 311.396 317.331 311.576 317.547 311.704C317.763 311.832 318.015 311.896 318.303 311.896ZM325.264 313L326.68 310.396C326.864 310.052 327.08 309.8 327.328 309.64C327.576 309.48 327.864 309.4 328.192 309.4H328.588L328.564 309.58C327.956 309.58 327.432 309.48 326.992 309.28C326.56 309.08 326.228 308.792 325.996 308.416C325.772 308.04 325.66 307.592 325.66 307.072C325.66 306.272 325.912 305.652 326.416 305.212C326.92 304.764 327.636 304.54 328.564 304.54H332.248V313H330.712V309.616H329.68C329.488 309.616 329.316 309.636 329.164 309.676C329.012 309.716 328.876 309.788 328.756 309.892C328.636 309.988 328.528 310.124 328.432 310.3L326.956 313H325.264ZM328.828 308.476H330.712V305.752H328.828C328.276 305.752 327.856 305.868 327.568 306.1C327.288 306.324 327.148 306.66 327.148 307.108C327.148 307.564 327.288 307.908 327.568 308.14C327.856 308.364 328.276 308.476 328.828 308.476ZM334.102 313V304.54H335.638V308.068H339.994V304.54H341.53V313H339.994V309.352H335.638V313H334.102ZM343.383 313V304.54H347.079C347.967 304.54 348.655 304.736 349.143 305.128C349.631 305.512 349.875 306.048 349.875 306.736C349.875 307.248 349.727 307.68 349.431 308.032C349.135 308.384 348.731 308.62 348.219 308.74V308.56C348.611 308.616 348.947 308.736 349.227 308.92C349.507 309.104 349.719 309.34 349.863 309.628C350.015 309.916 350.091 310.252 350.091 310.636C350.091 311.132 349.975 311.56 349.743 311.92C349.519 312.272 349.191 312.54 348.759 312.724C348.327 312.908 347.811 313 347.211 313H343.383ZM344.859 311.836H347.019C347.235 311.836 347.427 311.82 347.595 311.788C347.771 311.756 347.919 311.708 348.039 311.644C348.167 311.572 348.271 311.484 348.351 311.38C348.439 311.276 348.503 311.156 348.543 311.02C348.583 310.884 348.603 310.732 348.603 310.564C348.603 310.388 348.583 310.232 348.543 310.096C348.503 309.96 348.439 309.844 348.351 309.748C348.271 309.644 348.167 309.56 348.039 309.496C347.919 309.424 347.771 309.372 347.595 309.34C347.427 309.308 347.235 309.292 347.019 309.292H344.859V311.836ZM344.859 308.128H346.815C347.343 308.128 347.735 308.028 347.991 307.828C348.255 307.62 348.387 307.316 348.387 306.916C348.387 306.516 348.255 306.216 347.991 306.016C347.735 305.808 347.343 305.704 346.815 305.704H344.859V308.128Z" fill="white"/>
<rect x="468.5" y="289" width="1" height="8" fill="white" fill-opacity="0.04"/>
<path opacity="0.48" d="M448.239 313V311.86L450.975 308.944C451.223 308.68 451.419 308.436 451.563 308.212C451.715 307.988 451.827 307.772 451.899 307.564C451.971 307.356 452.007 307.148 452.007 306.94C452.007 306.54 451.879 306.236 451.623 306.028C451.375 305.82 451.011 305.716 450.531 305.716C450.155 305.716 449.787 305.788 449.427 305.932C449.075 306.068 448.735 306.284 448.407 306.58L447.891 305.428C448.227 305.124 448.647 304.88 449.151 304.696C449.655 304.512 450.179 304.42 450.723 304.42C451.331 304.42 451.843 304.512 452.259 304.696C452.675 304.88 452.991 305.148 453.207 305.5C453.423 305.852 453.531 306.28 453.531 306.784C453.531 307.04 453.499 307.292 453.435 307.54C453.379 307.78 453.287 308.02 453.159 308.26C453.039 308.5 452.883 308.748 452.691 309.004C452.507 309.252 452.283 309.512 452.019 309.784L449.763 312.136V311.728H453.855V313H448.239ZM458.075 313.12C457.091 313.12 456.319 312.908 455.759 312.484C455.207 312.06 454.931 311.472 454.931 310.72C454.931 310.32 455.011 309.968 455.171 309.664C455.339 309.352 455.567 309.1 455.855 308.908C456.143 308.716 456.471 308.596 456.839 308.548V308.8C456.503 308.728 456.207 308.596 455.951 308.404C455.695 308.204 455.495 307.96 455.351 307.672C455.215 307.376 455.147 307.052 455.147 306.7C455.147 305.988 455.411 305.432 455.939 305.032C456.467 304.624 457.183 304.42 458.087 304.42C458.983 304.42 459.695 304.624 460.223 305.032C460.751 305.432 461.015 305.988 461.015 306.7C461.015 307.052 460.943 307.376 460.799 307.672C460.663 307.968 460.467 308.212 460.211 308.404C459.963 308.596 459.671 308.724 459.335 308.788V308.548C459.711 308.596 460.039 308.72 460.319 308.92C460.599 309.112 460.819 309.364 460.979 309.676C461.139 309.98 461.219 310.328 461.219 310.72C461.219 311.472 460.939 312.06 460.379 312.484C459.827 312.908 459.059 313.12 458.075 313.12ZM458.075 311.92C458.643 311.92 459.071 311.812 459.359 311.596C459.647 311.372 459.791 311.044 459.791 310.612C459.791 310.18 459.647 309.856 459.359 309.64C459.071 309.424 458.643 309.316 458.075 309.316C457.515 309.316 457.087 309.424 456.791 309.64C456.503 309.856 456.359 310.18 456.359 310.612C456.359 311.044 456.503 311.372 456.791 311.596C457.087 311.812 457.515 311.92 458.075 311.92ZM458.075 308.116C458.547 308.116 458.915 308.004 459.179 307.78C459.451 307.556 459.587 307.248 459.587 306.856C459.587 306.472 459.451 306.172 459.179 305.956C458.915 305.732 458.547 305.62 458.075 305.62C457.603 305.62 457.235 305.732 456.971 305.956C456.707 306.172 456.575 306.476 456.575 306.868C456.575 307.252 456.707 307.556 456.971 307.78C457.235 308.004 457.603 308.116 458.075 308.116ZM465.264 313L466.68 310.396C466.864 310.052 467.08 309.8 467.328 309.64C467.576 309.48 467.864 309.4 468.192 309.4H468.588L468.564 309.58C467.956 309.58 467.432 309.48 466.992 309.28C466.56 309.08 466.228 308.792 465.996 308.416C465.772 308.04 465.66 307.592 465.66 307.072C465.66 306.272 465.912 305.652 466.416 305.212C466.92 304.764 467.636 304.54 468.564 304.54H472.248V313H470.712V309.616H469.68C469.488 309.616 469.316 309.636 469.164 309.676C469.012 309.716 468.876 309.788 468.756 309.892C468.636 309.988 468.528 310.124 468.432 310.3L466.956 313H465.264ZM468.828 308.476H470.712V305.752H468.828C468.276 305.752 467.856 305.868 467.568 306.1C467.288 306.324 467.148 306.66 467.148 307.108C467.148 307.564 467.288 307.908 467.568 308.14C467.856 308.364 468.276 308.476 468.828 308.476ZM474.102 313V304.54H475.638V308.068H479.994V304.54H481.53V313H479.994V309.352H475.638V313H474.102ZM483.383 313V304.54H487.079C487.967 304.54 488.655 304.736 489.143 305.128C489.631 305.512 489.875 306.048 489.875 306.736C489.875 307.248 489.727 307.68 489.431 308.032C489.135 308.384 488.731 308.62 488.219 308.74V308.56C488.611 308.616 488.947 308.736 489.227 308.92C489.507 309.104 489.719 309.34 489.863 309.628C490.015 309.916 490.091 310.252 490.091 310.636C490.091 311.132 489.975 311.56 489.743 311.92C489.519 312.272 489.191 312.54 488.759 312.724C488.327 312.908 487.811 313 487.211 313H483.383ZM484.859 311.836H487.019C487.235 311.836 487.427 311.82 487.595 311.788C487.771 311.756 487.919 311.708 488.039 311.644C488.167 311.572 488.271 311.484 488.351 311.38C488.439 311.276 488.503 311.156 488.543 311.02C488.583 310.884 488.603 310.732 488.603 310.564C488.603 310.388 488.583 310.232 488.543 310.096C488.503 309.96 488.439 309.844 488.351 309.748C488.271 309.644 488.167 309.56 488.039 309.496C487.919 309.424 487.771 309.372 487.595 309.34C487.427 309.308 487.235 309.292 487.019 309.292H484.859V311.836ZM484.859 308.128H486.815C487.343 308.128 487.735 308.028 487.991 307.828C488.255 307.62 488.387 307.316 488.387 306.916C488.387 306.516 488.255 306.216 487.991 306.016C487.735 305.808 487.343 305.704 486.815 305.704H484.859V308.128Z" fill="white"/>
<rect x="608.5" y="289" width="1" height="8" fill="white" fill-opacity="0.04"/>
<path opacity="0.48" d="M590.711 313.12C590.327 313.12 589.951 313.08 589.583 313C589.223 312.928 588.887 312.82 588.575 312.676C588.263 312.532 587.991 312.36 587.759 312.16L588.263 310.984C588.639 311.272 589.023 311.484 589.415 311.62C589.807 311.756 590.223 311.824 590.663 311.824C591.015 311.824 591.311 311.776 591.551 311.68C591.791 311.584 591.971 311.44 592.091 311.248C592.219 311.056 592.283 310.824 592.283 310.552C592.283 310.152 592.147 309.856 591.875 309.664C591.611 309.464 591.223 309.364 590.711 309.364H589.355V308.092H590.567C590.871 308.092 591.131 308.044 591.347 307.948C591.563 307.844 591.731 307.7 591.851 307.516C591.971 307.332 592.031 307.108 592.031 306.844C592.031 306.476 591.907 306.196 591.659 306.004C591.419 305.812 591.067 305.716 590.603 305.716C590.187 305.716 589.799 305.788 589.439 305.932C589.079 306.068 588.735 306.284 588.407 306.58L587.903 305.428C588.239 305.108 588.659 304.86 589.163 304.684C589.667 304.508 590.191 304.42 590.735 304.42C591.319 304.42 591.819 304.512 592.235 304.696C592.651 304.872 592.967 305.128 593.183 305.464C593.407 305.792 593.519 306.192 593.519 306.664C593.519 307.168 593.379 307.604 593.099 307.972C592.819 308.332 592.435 308.572 591.947 308.692V308.548C592.331 308.612 592.659 308.74 592.931 308.932C593.203 309.124 593.411 309.368 593.555 309.664C593.699 309.96 593.771 310.3 593.771 310.684C593.771 311.18 593.647 311.612 593.399 311.98C593.151 312.348 592.799 312.632 592.343 312.832C591.887 313.024 591.343 313.12 590.711 313.12ZM598.075 313.12C597.411 313.12 596.847 312.952 596.383 312.616C595.927 312.272 595.579 311.776 595.339 311.128C595.107 310.48 594.991 309.688 594.991 308.752C594.991 307.808 595.107 307.016 595.339 306.376C595.579 305.728 595.927 305.24 596.383 304.912C596.847 304.584 597.411 304.42 598.075 304.42C598.747 304.42 599.311 304.584 599.767 304.912C600.231 305.24 600.579 305.724 600.811 306.364C601.043 307.004 601.159 307.796 601.159 308.74C601.159 309.676 601.039 310.472 600.799 311.128C600.567 311.776 600.223 312.272 599.767 312.616C599.311 312.952 598.747 313.12 598.075 313.12ZM598.075 311.86C598.619 311.86 599.019 311.612 599.275 311.116C599.539 310.612 599.671 309.82 599.671 308.74C599.671 307.668 599.539 306.892 599.275 306.412C599.019 305.924 598.619 305.68 598.075 305.68C597.539 305.68 597.139 305.924 596.875 306.412C596.611 306.892 596.479 307.672 596.479 308.752C596.479 309.824 596.611 310.612 596.875 311.116C597.139 311.612 597.539 311.86 598.075 311.86ZM605.264 313L606.68 310.396C606.864 310.052 607.08 309.8 607.328 309.64C607.576 309.48 607.864 309.4 608.192 309.4H608.588L608.564 309.58C607.956 309.58 607.432 309.48 606.992 309.28C606.56 309.08 606.228 308.792 605.996 308.416C605.772 308.04 605.66 307.592 605.66 307.072C605.66 306.272 605.912 305.652 606.416 305.212C606.92 304.764 607.636 304.54 608.564 304.54H612.248V313H610.712V309.616H609.68C609.488 309.616 609.316 309.636 609.164 309.676C609.012 309.716 608.876 309.788 608.756 309.892C608.636 309.988 608.528 310.124 608.432 310.3L606.956 313H605.264ZM608.828 308.476H610.712V305.752H608.828C608.276 305.752 607.856 305.868 607.568 306.1C607.288 306.324 607.148 306.66 607.148 307.108C607.148 307.564 607.288 307.908 607.568 308.14C607.856 308.364 608.276 308.476 608.828 308.476ZM614.102 313V304.54H615.638V308.068H619.994V304.54H621.53V313H619.994V309.352H615.638V313H614.102ZM623.383 313V304.54H627.079C627.967 304.54 628.655 304.736 629.143 305.128C629.631 305.512 629.875 306.048 629.875 306.736C629.875 307.248 629.727 307.68 629.431 308.032C629.135 308.384 628.731 308.62 628.219 308.74V308.56C628.611 308.616 628.947 308.736 629.227 308.92C629.507 309.104 629.719 309.34 629.863 309.628C630.015 309.916 630.091 310.252 630.091 310.636C630.091 311.132 629.975 311.56 629.743 311.92C629.519 312.272 629.191 312.54 628.759 312.724C628.327 312.908 627.811 313 627.211 313H623.383ZM624.859 311.836H627.019C627.235 311.836 627.427 311.82 627.595 311.788C627.771 311.756 627.919 311.708 628.039 311.644C628.167 311.572 628.271 311.484 628.351 311.38C628.439 311.276 628.503 311.156 628.543 311.02C628.583 310.884 628.603 310.732 628.603 310.564C628.603 310.388 628.583 310.232 628.543 310.096C628.503 309.96 628.439 309.844 628.351 309.748C628.271 309.644 628.167 309.56 628.039 309.496C627.919 309.424 627.771 309.372 627.595 309.34C627.427 309.308 627.235 309.292 627.019 309.292H624.859V311.836ZM624.859 308.128H626.815C627.343 308.128 627.735 308.028 627.991 307.828C628.255 307.62 628.387 307.316 628.387 306.916C628.387 306.516 628.255 306.216 627.991 306.016C627.735 305.808 627.343 305.704 626.815 305.704H624.859V308.128Z" fill="white"/>
<rect x="745" y="289" width="1" height="8" fill="white" fill-opacity="0.04"/>
<path opacity="0.48" d="M730.938 313.12C730.57 313.12 730.206 313.08 729.846 313C729.494 312.92 729.162 312.808 728.85 312.664C728.546 312.52 728.282 312.352 728.058 312.16L728.562 310.984C728.93 311.264 729.31 311.476 729.702 311.62C730.094 311.756 730.498 311.824 730.914 311.824C731.418 311.824 731.81 311.696 732.09 311.44C732.378 311.176 732.522 310.824 732.522 310.384C732.522 309.936 732.386 309.576 732.114 309.304C731.842 309.024 731.47 308.884 730.998 308.884C730.654 308.884 730.346 308.952 730.074 309.088C729.802 309.216 729.554 309.416 729.33 309.688H728.298V304.54H733.494V305.812H729.798V308.5H729.402C729.61 308.22 729.882 308.004 730.218 307.852C730.562 307.7 730.942 307.624 731.358 307.624C731.894 307.624 732.358 307.74 732.75 307.972C733.15 308.196 733.458 308.512 733.674 308.92C733.898 309.32 734.01 309.788 734.01 310.324C734.01 310.876 733.886 311.364 733.638 311.788C733.39 312.204 733.034 312.532 732.57 312.772C732.114 313.004 731.57 313.12 730.938 313.12ZM742.231 313.3V312.052L742.615 312.34H742.303C741.487 312.34 740.783 312.196 740.191 311.908C739.599 311.62 739.143 311.208 738.823 310.672C738.503 310.128 738.343 309.472 738.343 308.704C738.343 307.928 738.499 307.272 738.811 306.736C739.123 306.192 739.575 305.78 740.167 305.5C740.759 305.212 741.471 305.068 742.303 305.068H742.615L742.231 305.356V304.18H743.779V305.356L743.395 305.068H743.707C744.547 305.068 745.259 305.212 745.843 305.5C746.435 305.78 746.887 306.192 747.199 306.736C747.511 307.272 747.667 307.928 747.667 308.704C747.667 309.472 747.507 310.128 747.187 310.672C746.867 311.208 746.411 311.62 745.819 311.908C745.235 312.196 744.531 312.34 743.707 312.34H743.395L743.779 312.052V313.3H742.231ZM742.243 311.428V305.98L742.567 306.244H742.147C741.707 306.244 741.319 306.336 740.983 306.52C740.647 306.696 740.383 306.968 740.191 307.336C740.007 307.696 739.915 308.152 739.915 308.704C739.915 309.104 739.971 309.46 740.083 309.772C740.195 310.076 740.351 310.332 740.551 310.54C740.751 310.748 740.987 310.904 741.259 311.008C741.531 311.112 741.827 311.164 742.147 311.164H742.567L742.243 311.428ZM743.767 311.428L743.443 311.164H743.863C744.183 311.164 744.479 311.112 744.751 311.008C745.023 310.904 745.259 310.748 745.459 310.54C745.659 310.332 745.815 310.076 745.927 309.772C746.039 309.46 746.095 309.104 746.095 308.704C746.095 308.152 745.999 307.696 745.807 307.336C745.623 306.968 745.363 306.696 745.027 306.52C744.691 306.336 744.303 306.244 743.863 306.244H743.443L743.767 305.98V311.428ZM749.237 313V304.54H754.865V305.764H750.713V308.092H754.601V309.316H750.713V311.776H754.865V313H749.237ZM756.397 313V304.54H760.093C760.981 304.54 761.669 304.736 762.157 305.128C762.645 305.512 762.889 306.048 762.889 306.736C762.889 307.248 762.741 307.68 762.445 308.032C762.149 308.384 761.745 308.62 761.233 308.74V308.56C761.625 308.616 761.961 308.736 762.241 308.92C762.521 309.104 762.733 309.34 762.877 309.628C763.029 309.916 763.105 310.252 763.105 310.636C763.105 311.132 762.989 311.56 762.757 311.92C762.533 312.272 762.205 312.54 761.773 312.724C761.341 312.908 760.825 313 760.225 313H756.397ZM757.873 311.836H760.033C760.249 311.836 760.441 311.82 760.609 311.788C760.785 311.756 760.933 311.708 761.053 311.644C761.181 311.572 761.285 311.484 761.365 311.38C761.453 311.276 761.517 311.156 761.557 311.02C761.597 310.884 761.617 310.732 761.617 310.564C761.617 310.388 761.597 310.232 761.557 310.096C761.517 309.96 761.453 309.844 761.365 309.748C761.285 309.644 761.181 309.56 761.053 309.496C760.933 309.424 760.785 309.372 760.609 309.34C760.441 309.308 760.249 309.292 760.033 309.292H757.873V311.836ZM757.873 308.128H759.829C760.357 308.128 760.749 308.028 761.005 307.828C761.269 307.62 761.401 307.316 761.401 306.916C761.401 306.516 761.269 306.216 761.005 306.016C760.749 305.808 760.357 305.704 759.829 305.704H757.873V308.128Z" fill="white"/>
<rect x="878" y="289" width="1" height="8" fill="white" fill-opacity="0.04"/>
<path opacity="0.48" d="M863.218 313.12C862.922 313.12 862.622 313.08 862.318 313C862.022 312.928 861.738 312.82 861.466 312.676C861.202 312.532 860.962 312.36 860.746 312.16L861.262 311.008C861.55 311.28 861.862 311.484 862.198 311.62C862.542 311.756 862.886 311.824 863.23 311.824C863.582 311.824 863.89 311.764 864.154 311.644C864.426 311.516 864.654 311.332 864.838 311.092C865.022 310.844 865.158 310.54 865.246 310.18C865.342 309.812 865.39 309.388 865.39 308.908V308.008H865.522C865.466 308.408 865.334 308.756 865.126 309.052C864.918 309.348 864.654 309.576 864.334 309.736C864.022 309.888 863.666 309.964 863.266 309.964C862.786 309.964 862.358 309.848 861.982 309.616C861.606 309.384 861.306 309.064 861.082 308.656C860.866 308.24 860.758 307.772 860.758 307.252C860.758 306.7 860.878 306.212 861.118 305.788C861.358 305.364 861.686 305.032 862.102 304.792C862.526 304.544 863.01 304.42 863.554 304.42C864.258 304.42 864.854 304.584 865.342 304.912C865.83 305.24 866.202 305.72 866.458 306.352C866.714 306.976 866.842 307.732 866.842 308.62C866.842 309.572 866.698 310.384 866.41 311.056C866.122 311.728 865.706 312.24 865.162 312.592C864.626 312.944 863.978 313.12 863.218 313.12ZM863.65 308.74C863.938 308.74 864.19 308.676 864.406 308.548C864.63 308.42 864.802 308.24 864.922 308.008C865.042 307.768 865.102 307.496 865.102 307.192C865.102 306.88 865.042 306.608 864.922 306.376C864.802 306.144 864.63 305.964 864.406 305.836C864.19 305.7 863.938 305.632 863.65 305.632C863.362 305.632 863.11 305.7 862.894 305.836C862.678 305.964 862.506 306.144 862.378 306.376C862.258 306.608 862.198 306.88 862.198 307.192C862.198 307.496 862.258 307.768 862.378 308.008C862.506 308.24 862.678 308.42 862.894 308.548C863.11 308.676 863.362 308.74 863.65 308.74ZM875.231 313.3V312.052L875.615 312.34H875.303C874.487 312.34 873.783 312.196 873.191 311.908C872.599 311.62 872.143 311.208 871.823 310.672C871.503 310.128 871.343 309.472 871.343 308.704C871.343 307.928 871.499 307.272 871.811 306.736C872.123 306.192 872.575 305.78 873.167 305.5C873.759 305.212 874.471 305.068 875.303 305.068H875.615L875.231 305.356V304.18H876.779V305.356L876.395 305.068H876.707C877.547 305.068 878.259 305.212 878.843 305.5C879.435 305.78 879.887 306.192 880.199 306.736C880.511 307.272 880.667 307.928 880.667 308.704C880.667 309.472 880.507 310.128 880.187 310.672C879.867 311.208 879.411 311.62 878.819 311.908C878.235 312.196 877.531 312.34 876.707 312.34H876.395L876.779 312.052V313.3H875.231ZM875.243 311.428V305.98L875.567 306.244H875.147C874.707 306.244 874.319 306.336 873.983 306.52C873.647 306.696 873.383 306.968 873.191 307.336C873.007 307.696 872.915 308.152 872.915 308.704C872.915 309.104 872.971 309.46 873.083 309.772C873.195 310.076 873.351 310.332 873.551 310.54C873.751 310.748 873.987 310.904 874.259 311.008C874.531 311.112 874.827 311.164 875.147 311.164H875.567L875.243 311.428ZM876.767 311.428L876.443 311.164H876.863C877.183 311.164 877.479 311.112 877.751 311.008C878.023 310.904 878.259 310.748 878.459 310.54C878.659 310.332 878.815 310.076 878.927 309.772C879.039 309.46 879.095 309.104 879.095 308.704C879.095 308.152 878.999 307.696 878.807 307.336C878.623 306.968 878.363 306.696 878.027 306.52C877.691 306.336 877.303 306.244 876.863 306.244H876.443L876.767 305.98V311.428ZM882.237 313V304.54H887.865V305.764H883.713V308.092H887.601V309.316H883.713V311.776H887.865V313H882.237ZM889.397 313V304.54H893.093C893.981 304.54 894.669 304.736 895.157 305.128C895.645 305.512 895.889 306.048 895.889 306.736C895.889 307.248 895.741 307.68 895.445 308.032C895.149 308.384 894.745 308.62 894.233 308.74V308.56C894.625 308.616 894.961 308.736 895.241 308.92C895.521 309.104 895.733 309.34 895.877 309.628C896.029 309.916 896.105 310.252 896.105 310.636C896.105 311.132 895.989 311.56 895.757 311.92C895.533 312.272 895.205 312.54 894.773 312.724C894.341 312.908 893.825 313 893.225 313H889.397ZM890.873 311.836H893.033C893.249 311.836 893.441 311.82 893.609 311.788C893.785 311.756 893.933 311.708 894.053 311.644C894.181 311.572 894.285 311.484 894.365 311.38C894.453 311.276 894.517 311.156 894.557 311.02C894.597 310.884 894.617 310.732 894.617 310.564C894.617 310.388 894.597 310.232 894.557 310.096C894.517 309.96 894.453 309.844 894.365 309.748C894.285 309.644 894.181 309.56 894.053 309.496C893.933 309.424 893.785 309.372 893.609 309.34C893.441 309.308 893.249 309.292 893.033 309.292H890.873V311.836ZM890.873 308.128H892.829C893.357 308.128 893.749 308.028 894.005 307.828C894.269 307.62 894.401 307.316 894.401 306.916C894.401 306.516 894.269 306.216 894.005 306.016C893.749 305.808 893.357 305.704 892.829 305.704H890.873V308.128Z" fill="white"/>
<rect x="1014.5" y="289" width="1" height="8" fill="white" fill-opacity="0.04"/>
<path opacity="0.48" d="M994.476 313V311.728H996.384V305.836H997.128L994.908 307.18L994.308 306.052L996.828 304.54H997.92V311.728H999.708V313H994.476ZM1001.67 313V311.728H1003.58V305.836H1004.32L1002.1 307.18L1001.5 306.052L1004.02 304.54H1005.12V311.728H1006.9V313H1001.67ZM1015.33 313.3V312.052L1015.71 312.34H1015.4C1014.58 312.34 1013.88 312.196 1013.29 311.908C1012.7 311.62 1012.24 311.208 1011.92 310.672C1011.6 310.128 1011.44 309.472 1011.44 308.704C1011.44 307.928 1011.6 307.272 1011.91 306.736C1012.22 306.192 1012.67 305.78 1013.26 305.5C1013.86 305.212 1014.57 305.068 1015.4 305.068H1015.71L1015.33 305.356V304.18H1016.88V305.356L1016.49 305.068H1016.8C1017.64 305.068 1018.36 305.212 1018.94 305.5C1019.53 305.78 1019.98 306.192 1020.3 306.736C1020.61 307.272 1020.76 307.928 1020.76 308.704C1020.76 309.472 1020.6 310.128 1020.28 310.672C1019.96 311.208 1019.51 311.62 1018.92 311.908C1018.33 312.196 1017.63 312.34 1016.8 312.34H1016.49L1016.88 312.052V313.3H1015.33ZM1015.34 311.428V305.98L1015.66 306.244H1015.24C1014.8 306.244 1014.42 306.336 1014.08 306.52C1013.74 306.696 1013.48 306.968 1013.29 307.336C1013.1 307.696 1013.01 308.152 1013.01 308.704C1013.01 309.104 1013.07 309.46 1013.18 309.772C1013.29 310.076 1013.45 310.332 1013.65 310.54C1013.85 310.748 1014.08 310.904 1014.36 311.008C1014.63 311.112 1014.92 311.164 1015.24 311.164H1015.66L1015.34 311.428ZM1016.86 311.428L1016.54 311.164H1016.96C1017.28 311.164 1017.58 311.112 1017.85 311.008C1018.12 310.904 1018.36 310.748 1018.56 310.54C1018.76 310.332 1018.91 310.076 1019.02 309.772C1019.14 309.46 1019.19 309.104 1019.19 308.704C1019.19 308.152 1019.1 307.696 1018.9 307.336C1018.72 306.968 1018.46 306.696 1018.12 306.52C1017.79 306.336 1017.4 306.244 1016.96 306.244H1016.54L1016.86 305.98V311.428ZM1022.33 313V304.54H1027.96V305.764H1023.81V308.092H1027.7V309.316H1023.81V311.776H1027.96V313H1022.33ZM1029.49 313V304.54H1033.19C1034.08 304.54 1034.77 304.736 1035.25 305.128C1035.74 305.512 1035.99 306.048 1035.99 306.736C1035.99 307.248 1035.84 307.68 1035.54 308.032C1035.25 308.384 1034.84 308.62 1034.33 308.74V308.56C1034.72 308.616 1035.06 308.736 1035.34 308.92C1035.62 309.104 1035.83 309.34 1035.97 309.628C1036.13 309.916 1036.2 310.252 1036.2 310.636C1036.2 311.132 1036.09 311.56 1035.85 311.92C1035.63 312.272 1035.3 312.54 1034.87 312.724C1034.44 312.908 1033.92 313 1033.32 313H1029.49ZM1030.97 311.836H1033.13C1033.35 311.836 1033.54 311.82 1033.71 311.788C1033.88 311.756 1034.03 311.708 1034.15 311.644C1034.28 311.572 1034.38 311.484 1034.46 311.38C1034.55 311.276 1034.61 311.156 1034.65 311.02C1034.69 310.884 1034.71 310.732 1034.71 310.564C1034.71 310.388 1034.69 310.232 1034.65 310.096C1034.61 309.96 1034.55 309.844 1034.46 309.748C1034.38 309.644 1034.28 309.56 1034.15 309.496C1034.03 309.424 1033.88 309.372 1033.71 309.34C1033.54 309.308 1033.35 309.292 1033.13 309.292H1030.97V311.836ZM1030.97 308.128H1032.93C1033.45 308.128 1033.85 308.028 1034.1 307.828C1034.37 307.62 1034.5 307.316 1034.5 306.916C1034.5 306.516 1034.37 306.216 1034.1 306.016C1033.85 305.808 1033.45 305.704 1032.93 305.704H1030.97V308.128Z" fill="white"/>
<rect x="1154.5" y="289" width="1" height="8" fill="white" fill-opacity="0.04"/>
<path opacity="0.48" d="M1134.48 313V311.728H1136.38V305.836H1137.13L1134.91 307.18L1134.31 306.052L1136.83 304.54H1137.92V311.728H1139.71V313H1134.48ZM1143.8 313.12C1143.41 313.12 1143.04 313.08 1142.67 313C1142.31 312.928 1141.97 312.82 1141.66 312.676C1141.35 312.532 1141.08 312.36 1140.84 312.16L1141.35 310.984C1141.72 311.272 1142.11 311.484 1142.5 311.62C1142.89 311.756 1143.31 311.824 1143.75 311.824C1144.1 311.824 1144.4 311.776 1144.64 311.68C1144.88 311.584 1145.06 311.44 1145.18 311.248C1145.3 311.056 1145.37 310.824 1145.37 310.552C1145.37 310.152 1145.23 309.856 1144.96 309.664C1144.7 309.464 1144.31 309.364 1143.8 309.364H1142.44V308.092H1143.65C1143.96 308.092 1144.22 308.044 1144.43 307.948C1144.65 307.844 1144.82 307.7 1144.94 307.516C1145.06 307.332 1145.12 307.108 1145.12 306.844C1145.12 306.476 1144.99 306.196 1144.74 306.004C1144.5 305.812 1144.15 305.716 1143.69 305.716C1143.27 305.716 1142.88 305.788 1142.52 305.932C1142.16 306.068 1141.82 306.284 1141.49 306.58L1140.99 305.428C1141.32 305.108 1141.74 304.86 1142.25 304.684C1142.75 304.508 1143.28 304.42 1143.82 304.42C1144.4 304.42 1144.9 304.512 1145.32 304.696C1145.74 304.872 1146.05 305.128 1146.27 305.464C1146.49 305.792 1146.6 306.192 1146.6 306.664C1146.6 307.168 1146.46 307.604 1146.18 307.972C1145.9 308.332 1145.52 308.572 1145.03 308.692V308.548C1145.42 308.612 1145.74 308.74 1146.02 308.932C1146.29 309.124 1146.5 309.368 1146.64 309.664C1146.78 309.96 1146.86 310.3 1146.86 310.684C1146.86 311.18 1146.73 311.612 1146.48 311.98C1146.24 312.348 1145.88 312.632 1145.43 312.832C1144.97 313.024 1144.43 313.12 1143.8 313.12ZM1155.33 313.3V312.052L1155.71 312.34H1155.4C1154.58 312.34 1153.88 312.196 1153.29 311.908C1152.7 311.62 1152.24 311.208 1151.92 310.672C1151.6 310.128 1151.44 309.472 1151.44 308.704C1151.44 307.928 1151.6 307.272 1151.91 306.736C1152.22 306.192 1152.67 305.78 1153.26 305.5C1153.86 305.212 1154.57 305.068 1155.4 305.068H1155.71L1155.33 305.356V304.18H1156.88V305.356L1156.49 305.068H1156.8C1157.64 305.068 1158.36 305.212 1158.94 305.5C1159.53 305.78 1159.98 306.192 1160.3 306.736C1160.61 307.272 1160.76 307.928 1160.76 308.704C1160.76 309.472 1160.6 310.128 1160.28 310.672C1159.96 311.208 1159.51 311.62 1158.92 311.908C1158.33 312.196 1157.63 312.34 1156.8 312.34H1156.49L1156.88 312.052V313.3H1155.33ZM1155.34 311.428V305.98L1155.66 306.244H1155.24C1154.8 306.244 1154.42 306.336 1154.08 306.52C1153.74 306.696 1153.48 306.968 1153.29 307.336C1153.1 307.696 1153.01 308.152 1153.01 308.704C1153.01 309.104 1153.07 309.46 1153.18 309.772C1153.29 310.076 1153.45 310.332 1153.65 310.54C1153.85 310.748 1154.08 310.904 1154.36 311.008C1154.63 311.112 1154.92 311.164 1155.24 311.164H1155.66L1155.34 311.428ZM1156.86 311.428L1156.54 311.164H1156.96C1157.28 311.164 1157.58 311.112 1157.85 311.008C1158.12 310.904 1158.36 310.748 1158.56 310.54C1158.76 310.332 1158.91 310.076 1159.02 309.772C1159.14 309.46 1159.19 309.104 1159.19 308.704C1159.19 308.152 1159.1 307.696 1158.9 307.336C1158.72 306.968 1158.46 306.696 1158.12 306.52C1157.79 306.336 1157.4 306.244 1156.96 306.244H1156.54L1156.86 305.98V311.428ZM1162.33 313V304.54H1167.96V305.764H1163.81V308.092H1167.7V309.316H1163.81V311.776H1167.96V313H1162.33ZM1169.49 313V304.54H1173.19C1174.08 304.54 1174.77 304.736 1175.25 305.128C1175.74 305.512 1175.99 306.048 1175.99 306.736C1175.99 307.248 1175.84 307.68 1175.54 308.032C1175.25 308.384 1174.84 308.62 1174.33 308.74V308.56C1174.72 308.616 1175.06 308.736 1175.34 308.92C1175.62 309.104 1175.83 309.34 1175.97 309.628C1176.13 309.916 1176.2 310.252 1176.2 310.636C1176.2 311.132 1176.09 311.56 1175.85 311.92C1175.63 312.272 1175.3 312.54 1174.87 312.724C1174.44 312.908 1173.92 313 1173.32 313H1169.49ZM1170.97 311.836H1173.13C1173.35 311.836 1173.54 311.82 1173.71 311.788C1173.88 311.756 1174.03 311.708 1174.15 311.644C1174.28 311.572 1174.38 311.484 1174.46 311.38C1174.55 311.276 1174.61 311.156 1174.65 311.02C1174.69 310.884 1174.71 310.732 1174.71 310.564C1174.71 310.388 1174.69 310.232 1174.65 310.096C1174.61 309.96 1174.55 309.844 1174.46 309.748C1174.38 309.644 1174.28 309.56 1174.15 309.496C1174.03 309.424 1173.88 309.372 1173.71 309.34C1173.54 309.308 1173.35 309.292 1173.13 309.292H1170.97V311.836ZM1170.97 308.128H1172.93C1173.45 308.128 1173.85 308.028 1174.1 307.828C1174.37 307.62 1174.5 307.316 1174.5 306.916C1174.5 306.516 1174.37 306.216 1174.1 306.016C1173.85 305.808 1173.45 305.704 1172.93 305.704H1170.97V308.128Z" fill="white"/>
<defs>
<linearGradient id="paint0_linear_1100_33970" x1="62" y1="147" x2="62" y2="21" gradientUnits="userSpaceOnUse">
<stop stop-color="#181A20"/>
<stop offset="1" stop-color="#FFA800"/>
</linearGradient>
<linearGradient id="paint1_linear_1100_33970" x1="62" y1="145" x2="62" y2="129" gradientUnits="userSpaceOnUse">
<stop stop-color="#181A20"/>
<stop offset="1" stop-color="#6AA5FF"/>
</linearGradient>
<linearGradient id="paint2_linear_1100_33970" x1="122" y1="147" x2="122" y2="91" gradientUnits="userSpaceOnUse">
<stop stop-color="#181A20"/>
<stop offset="1" stop-color="#FFA800"/>
</linearGradient>
<linearGradient id="paint3_linear_1100_33970" x1="122" y1="147" x2="122" y2="134" gradientUnits="userSpaceOnUse">
<stop stop-color="#181A20"/>
<stop offset="1" stop-color="#6AA5FF"/>
</linearGradient>
<linearGradient id="paint4_linear_1100_33970" x1="182" y1="147" x2="182" y2="115" gradientUnits="userSpaceOnUse">
<stop stop-color="#181A20"/>
<stop offset="1" stop-color="#FFA800"/>
</linearGradient>
<linearGradient id="paint5_linear_1100_33970" x1="182" y1="149" x2="182" y2="153" gradientUnits="userSpaceOnUse">
<stop stop-color="#181A20"/>
<stop offset="1" stop-color="#6AA5FF"/>
</linearGradient>
<linearGradient id="paint6_linear_1100_33970" x1="242" y1="147" x2="242" y2="71" gradientUnits="userSpaceOnUse">
<stop stop-color="#181A20"/>
<stop offset="1" stop-color="#FFA800"/>
</linearGradient>
<linearGradient id="paint7_linear_1100_33970" x1="242" y1="147" x2="242" y2="145" gradientUnits="userSpaceOnUse">
<stop stop-color="#181A20"/>
<stop offset="1" stop-color="#6AA5FF"/>
</linearGradient>
<linearGradient id="paint8_linear_1100_33970" x1="302" y1="149" x2="302" y2="229" gradientUnits="userSpaceOnUse">
<stop stop-color="#181A20"/>
<stop offset="1" stop-color="#FFA800"/>
</linearGradient>
<linearGradient id="paint9_linear_1100_33970" x1="302" y1="149" x2="302" y2="170" gradientUnits="userSpaceOnUse">
<stop stop-color="#181A20"/>
<stop offset="1" stop-color="#6AA5FF"/>
</linearGradient>
<linearGradient id="paint10_linear_1100_33970" x1="362" y1="147" x2="362" y2="141" gradientUnits="userSpaceOnUse">
<stop stop-color="#181A20"/>
<stop offset="1" stop-color="#FFA800"/>
</linearGradient>
<linearGradient id="paint11_linear_1100_33970" x1="422" y1="147" x2="422" y2="129" gradientUnits="userSpaceOnUse">
<stop stop-color="#181A20"/>
<stop offset="1" stop-color="#FFA800"/>
</linearGradient>
<linearGradient id="paint12_linear_1100_33970" x1="422" y1="149" x2="422" y2="152" gradientUnits="userSpaceOnUse">
<stop stop-color="#181A20"/>
<stop offset="1" stop-color="#6AA5FF"/>
</linearGradient>
<linearGradient id="paint13_linear_1100_33970" x1="482" y1="147" x2="482" y2="58" gradientUnits="userSpaceOnUse">
<stop stop-color="#181A20"/>
<stop offset="1" stop-color="#FFA800"/>
</linearGradient>
<linearGradient id="paint14_linear_1100_33970" x1="482" y1="147" x2="482" y2="126" gradientUnits="userSpaceOnUse">
<stop stop-color="#181A20"/>
<stop offset="1" stop-color="#6AA5FF"/>
</linearGradient>
<linearGradient id="paint15_linear_1100_33970" x1="542" y1="147" x2="542" y2="93" gradientUnits="userSpaceOnUse">
<stop stop-color="#181A20"/>
<stop offset="1" stop-color="#FFA800"/>
</linearGradient>
<linearGradient id="paint16_linear_1100_33970" x1="542" y1="147" x2="542" y2="142" gradientUnits="userSpaceOnUse">
<stop stop-color="#181A20"/>
<stop offset="1" stop-color="#6AA5FF"/>
</linearGradient>
<linearGradient id="paint17_linear_1100_33970" x1="602" y1="149" x2="602" y2="213" gradientUnits="userSpaceOnUse">
<stop stop-color="#181A20"/>
<stop offset="1" stop-color="#FFA800"/>
</linearGradient>
<linearGradient id="paint18_linear_1100_33970" x1="602" y1="147" x2="602" y2="134" gradientUnits="userSpaceOnUse">
<stop stop-color="#181A20"/>
<stop offset="1" stop-color="#6AA5FF"/>
</linearGradient>
<linearGradient id="paint19_linear_1100_33970" x1="662" y1="147" x2="662" y2="62" gradientUnits="userSpaceOnUse">
<stop stop-color="#181A20"/>
<stop offset="1" stop-color="#FFA800"/>
</linearGradient>
<linearGradient id="paint20_linear_1100_33970" x1="662" y1="147" x2="662" y2="102" gradientUnits="userSpaceOnUse">
<stop stop-color="#181A20"/>
<stop offset="1" stop-color="#6AA5FF"/>
</linearGradient>
<linearGradient id="paint21_linear_1100_33970" x1="722" y1="147" x2="722" y2="125" gradientUnits="userSpaceOnUse">
<stop stop-color="#181A20"/>
<stop offset="1" stop-color="#FFA800"/>
</linearGradient>
<linearGradient id="paint22_linear_1100_33970" x1="722" y1="147" x2="722" y2="141" gradientUnits="userSpaceOnUse">
<stop stop-color="#181A20"/>
<stop offset="1" stop-color="#6AA5FF"/>
</linearGradient>
<linearGradient id="paint23_linear_1100_33970" x1="782" y1="149" x2="782" y2="177" gradientUnits="userSpaceOnUse">
<stop stop-color="#181A20"/>
<stop offset="1" stop-color="#FFA800"/>
</linearGradient>
<linearGradient id="paint24_linear_1100_33970" x1="782" y1="147" x2="782" y2="139" gradientUnits="userSpaceOnUse">
<stop stop-color="#181A20"/>
<stop offset="1" stop-color="#6AA5FF"/>
</linearGradient>
<linearGradient id="paint25_linear_1100_33970" x1="842" y1="147" x2="842" y2="112" gradientUnits="userSpaceOnUse">
<stop stop-color="#181A20"/>
<stop offset="1" stop-color="#FFA800"/>
</linearGradient>
<linearGradient id="paint26_linear_1100_33970" x1="902" y1="149" x2="902" y2="189" gradientUnits="userSpaceOnUse">
<stop stop-color="#181A20"/>
<stop offset="1" stop-color="#FFA800"/>
</linearGradient>
<linearGradient id="paint27_linear_1100_33970" x1="902" y1="149" x2="902" y2="154" gradientUnits="userSpaceOnUse">
<stop stop-color="#181A20"/>
<stop offset="1" stop-color="#6AA5FF"/>
</linearGradient>
<linearGradient id="paint28_linear_1100_33970" x1="962" y1="149" x2="962" y2="163" gradientUnits="userSpaceOnUse">
<stop stop-color="#181A20"/>
<stop offset="1" stop-color="#FFA800"/>
</linearGradient>
<linearGradient id="paint29_linear_1100_33970" x1="962" y1="147" x2="962" y2="143" gradientUnits="userSpaceOnUse">
<stop stop-color="#181A20"/>
<stop offset="1" stop-color="#6AA5FF"/>
</linearGradient>
<linearGradient id="paint30_linear_1100_33970" x1="1022" y1="149" x2="1022" y2="196" gradientUnits="userSpaceOnUse">
<stop stop-color="#181A20"/>
<stop offset="1" stop-color="#FFA800"/>
</linearGradient>
<linearGradient id="paint31_linear_1100_33970" x1="1022" y1="149" x2="1022" y2="159" gradientUnits="userSpaceOnUse">
<stop stop-color="#181A20"/>
<stop offset="1" stop-color="#6AA5FF"/>
</linearGradient>
<linearGradient id="paint32_linear_1100_33970" x1="1082" y1="149" x2="1082" y2="176" gradientUnits="userSpaceOnUse">
<stop stop-color="#181A20"/>
<stop offset="1" stop-color="#FFA800"/>
</linearGradient>
<linearGradient id="paint33_linear_1100_33970" x1="1082" y1="147" x2="1082" y2="141" gradientUnits="userSpaceOnUse">
<stop stop-color="#181A20"/>
<stop offset="1" stop-color="#6AA5FF"/>
</linearGradient>
<linearGradient id="paint34_linear_1100_33970" x1="1142" y1="147" x2="1142" y2="120" gradientUnits="userSpaceOnUse">
<stop stop-color="#181A20"/>
<stop offset="1" stop-color="#FFA800"/>
</linearGradient>
<linearGradient id="paint35_linear_1100_33970" x1="1142" y1="147" x2="1142" y2="140" gradientUnits="userSpaceOnUse">
<stop stop-color="#181A20"/>
<stop offset="1" stop-color="#6AA5FF"/>
</linearGradient>
</defs>
</svg>
