<svg  viewBox="0 0 21 20" fill="none" xmlns="http://www.w3.org/2000/svg">
<path d="M2.24784 0.376342L20.309 9.01427C20.8428 9.26957 21.0686 9.90929 20.8133 10.4431C20.7077 10.6639 20.5297 10.8418 20.309 10.9474L2.24784 19.5853C1.71402 19.8406 1.0743 19.6149 0.818992 19.081C0.708049 18.8491 0.684232 18.5849 0.751889 18.3369L2.55836 11.7129C2.60362 11.547 2.7437 11.4242 2.91415 11.401L11.6661 10.2122C11.7415 10.2014 11.804 10.1518 11.8329 10.0842L11.8479 10.0304C11.8623 9.92994 11.8045 9.83585 11.7139 9.80048L11.6661 9.78792L2.92439 8.59914C2.75397 8.57596 2.61391 8.45316 2.56866 8.28723L0.751889 1.62483C0.596194 1.05394 0.93277 0.464934 1.50365 0.309238C1.75173 0.241581 2.01587 0.265398 2.24784 0.376342Z" fill="currentColor"/>
</svg>
