<svg width="24" height="24" viewBox="0 0 24 24" fill="none" xmlns="http://www.w3.org/2000/svg">
<path d="M18.4098 18.0898L15.5898 20.9098" stroke="currentColor" stroke-width="2" stroke-linecap="round" stroke-linejoin="round"/>
<path d="M18.4098 20.9098L15.5898 18.0898" stroke="currentColor" stroke-width="2" stroke-linecap="round" stroke-linejoin="round"/>
<path d="M12.1606 10.87C12.0606 10.86 11.9406 10.86 11.8306 10.87C9.45055 10.79 7.56055 8.84 7.56055 6.44C7.56055 3.99 9.54055 2 12.0006 2C14.4506 2 16.4406 3.99 16.4406 6.44C16.4306 8.84 14.5406 10.79 12.1606 10.87Z" stroke="currentColor" stroke-width="2" stroke-linecap="round" stroke-linejoin="round"/>
<path d="M11.9998 21.8102C10.1798 21.8102 8.3698 21.3502 6.9898 20.4302C4.5698 18.8102 4.5698 16.1702 6.9898 14.5602C9.7398 12.7202 14.2498 12.7202 16.9998 14.5602" stroke="currentColor" stroke-width="2" stroke-linecap="round" stroke-linejoin="round"/>
</svg>
